<?xml version="1.0" encoding="UTF-8"?><svg id="uuid-96b7d6ca-1a0d-4dc4-a963-3e4cc463a8c2" xmlns="http://www.w3.org/2000/svg" viewBox="0 0 873.0868 1001.5854"><g id="uuid-8de7100f-d696-4d86-be69-c98d5ba32daf"><path id="uuid-b8dda0ca-32e0-4f53-99ba-9fb651335f01" d="M873.0868,690.6183c-9.2399-69.9546-31.8865-142.2656-68.9151-211.8913C676.3135,238.3131,426.4932,121.1559,246.1826,217.0496c-180.3106,95.8937-222.8315,368.5252-94.9734,608.9392,37.0287,69.6257,84.3241,128.8278,137.1606,175.5966l584.7171-310.9671Z" fill="#eec6a2"/><ellipse id="uuid-b13367cb-2c58-47dc-93e8-04c33d48a5cb" cx="558.276" cy="593.4971" rx="37.4863" ry="54.7877" transform="translate(-213.306 331.6344) rotate(-28.0052)" fill="#333"/><ellipse id="uuid-c96d9fde-bc45-4608-9712-6a71acd6d4cb" cx="385.1539" cy="685.5677" rx="37.4863" ry="54.7877" transform="translate(-276.8096 261.1258) rotate(-28.0052)" fill="#333"/><path id="uuid-76f8f1d1-5c16-45a6-a370-c8be4f7ac5f4" d="M9.4387,423.1846C55.8308,253.3823,273.1822,147.3008,380.8314,94.7612,515.6196,28.9759,685.1283-25.5037,709.7251,12.5735c21.7966,33.7423-84.8782,117.4467-56.3866,171.8044,20.7229,39.5364,95.9199,31.0535,94.6578,45.1121-2.6771,29.8217-338.8716,43.7852-367.6654,130.0798-12.9366,38.7704,45.0202,65.6357,26.3246,97.8168-19.3147,33.2472-86.4678,13.6825-207.4159,44.8551-104.0915,26.8281-142.741,64.1004-174.4625,46.4204-42.2017-23.521-18.3816-114.3395-15.3385-125.4774Z" fill="#534741"/></g></svg>
