<?xml version="1.0" encoding="UTF-8"?><svg id="uuid-4094148a-a099-40b3-bb03-b1403eb17913" xmlns="http://www.w3.org/2000/svg" viewBox="0 0 500 500"><g id="uuid-6aec8933-ff7e-406b-bca7-dc580bd2d8ed"><polygon id="uuid-b2d364b5-123f-4b79-a2bd-11d7322cdfd9" points="282 346.15 255 346.15 255 393.6 255 403.15 296 403.15 296 394.15 282 394.15 282 346.15" fill="#336"/><rect id="uuid-f1b1efa8-16dd-486a-b10f-0b41ef0476ff" x="255" y="292.15" width="27" height="54" fill="#336"/><polygon id="uuid-657c9dc2-321f-4f75-82ff-22ab173da8dc" points="245 346.15 218 346.15 218 394.15 204 394.15 204 403.15 245 403.15 245 393.6 245 393.6 245 346.15" fill="#336"/><rect id="uuid-1f4e44a5-bf77-4c30-b7bb-b1fdd4029b81" x="218" y="292.15" width="27" height="54" fill="#336"/><polygon id="uuid-bc59fe14-7e48-4298-a4ef-b19c634cf020" points="263.6 232.57 263.64 232.15 263.43 232.15 253.64 179.76 260.78 168.15 239.22 168.15 246.36 179.76 236.57 232.15 236.36 232.15 236.4 232.57 236.36 233.15 236.54 233.15 250 250.25 263.46 233.15 263.64 233.15 263.6 232.57" fill="#c1272d"/><path id="uuid-56c83047-f926-411d-a59d-dc756f976d95" d="M212,156.15v136h76v-136h-76ZM249.48,224.07l-27.03-66.92h54.07l-27.03,66.92Z" fill="#336"/><path id="uuid-0a071a08-5245-40c5-b332-38ebc88f7099" d="M286.34,141.15c2.73-7.31,4.28-15.56,4.28-24.28,0-30.13-18.32-54.56-40.92-54.56s-40.92,24.43-40.92,54.56c0,8.73,1.54,16.97,4.28,24.28h73.28Z" fill="#eec6a2"/><path id="uuid-ba62699e-ffe8-48fb-989c-b6bf5a245655" d="M215.18,146.15c7.26,15.19,20,25.28,34.52,25.28s27.25-10.09,34.52-25.28h-69.04Z" fill="#eec6a2"/><ellipse id="uuid-d39df3a6-24c7-4f03-bde9-8231560d5c67" cx="261" cy="115.15" rx="4" ry="6" fill="#333"/><ellipse id="uuid-f3a1ccb2-d1d5-415b-b46d-dc567ce4bd0c" cx="239" cy="115.15" rx="4" ry="6" fill="#333"/><path id="uuid-f0464024-0e35-4e4d-b5a2-748e0caa2269" d="M215.86,70.68c13.35-14.18,40.1-13.25,53.35-12.79,16.59.58,35.98,4.06,36.4,9.06.38,4.43-14.39,7.06-14.44,13.85-.03,4.94,7.76,8.02,6.9,9.33-1.81,2.77-35.38-13.33-42.68-6.39-3.28,3.12.99,8.75-2.51,10.92-3.61,2.24-9.16-3.16-22.59-6.39-11.56-2.79-17.28-1.15-19.46-4.53-2.9-4.49,4.14-12.13,5.02-13.06Z" fill="#534741"/><rect id="uuid-999678ff-1308-46bc-9f45-9fe4da8cd7f1" x="332" y="156.15" width="44" height="20" fill="#336"/><rect id="uuid-6ce3e29c-df74-48ee-8912-c8d30441b625" x="288" y="156.15" width="44" height="20" fill="#336"/><rect id="uuid-44e3763f-5393-425c-8f89-4866f8d52e9c" x="168" y="156.15" width="44" height="20" fill="#336"/><rect id="uuid-74108e50-f950-4164-92b8-56e4b9560700" x="124" y="156.15" width="44" height="20" fill="#336"/><rect id="uuid-e2eba9a2-6c67-421f-9850-8721936389b6" x="376" y="155.15" width="22" height="22" fill="#eec6a2"/><rect id="uuid-6f988e8b-affd-4cdb-9451-d6f5525626dd" x="102" y="155.15" width="22" height="22" fill="#eec6a2"/><polygon id="uuid-d6e0271d-2837-494b-b5c6-2ffa58627ed3" points="282 346.15 255 346.15 255 393.6 255 403.15 296 403.15 296 394.15 282 394.15 282 346.15" fill="none" stroke="#000" stroke-linecap="round" stroke-linejoin="round"/><rect id="uuid-7d132b0a-b938-4191-9366-bdb3b154c393" x="255" y="292.15" width="27" height="54" fill="none" stroke="#000" stroke-linecap="round" stroke-linejoin="round"/><polygon id="uuid-767243a0-5c0a-455a-84bf-53a3d98f92a9" points="245 346.15 218 346.15 218 394.15 204 394.15 204 403.15 245 403.15 245 393.6 245 393.6 245 346.15" fill="none" stroke="#000" stroke-linecap="round" stroke-linejoin="round"/><rect id="uuid-e087100c-4b32-4c32-8dce-264f25b8f9c7" x="218" y="292.15" width="27" height="54" fill="none" stroke="#000" stroke-linecap="round" stroke-linejoin="round"/><polygon id="uuid-d691ccde-d956-487c-bc70-95a5df5329db" points="263.6 232.57 263.64 232.15 263.43 232.15 253.64 179.76 260.78 168.15 239.22 168.15 246.36 179.76 236.57 232.15 236.36 232.15 236.4 232.57 236.36 233.15 236.54 233.15 250 250.25 263.46 233.15 263.64 233.15 263.6 232.57" fill="none" stroke="#000" stroke-linecap="round" stroke-linejoin="round"/><path id="uuid-91ffcdb9-cde9-4ec0-9335-e4469e8b994b" d="M212,156.15v136h76v-136h-76ZM249.48,224.07l-27.03-66.92h54.07l-27.03,66.92Z" fill="none" stroke="#000" stroke-linecap="round" stroke-linejoin="round"/><path id="uuid-d6ad92e2-d221-46d8-9b9f-6d5c583f899e" d="M286.34,141.15c2.73-7.31,4.28-15.56,4.28-24.28,0-30.13-18.32-54.56-40.92-54.56s-40.92,24.43-40.92,54.56c0,8.73,1.54,16.97,4.28,24.28h73.28Z" fill="none" stroke="#000" stroke-linecap="round" stroke-linejoin="round"/><path id="uuid-379fbfc0-d946-4450-bb9b-8fea81e28164" d="M215.18,146.15c7.26,15.19,20,25.28,34.52,25.28s27.25-10.09,34.52-25.28h-69.04Z" fill="none" stroke="#000" stroke-linecap="round" stroke-linejoin="round"/><ellipse id="uuid-012e3430-cf06-4b0d-91fc-186892ad802f" cx="261" cy="115.15" rx="4" ry="6" fill="none" stroke="#000" stroke-linecap="round" stroke-linejoin="round"/><ellipse id="uuid-1ff9381a-03ab-431e-9993-08d47cb1a277" cx="239" cy="115.15" rx="4" ry="6" fill="none" stroke="#000" stroke-linecap="round" stroke-linejoin="round"/><path id="uuid-68ef0546-ef23-4e68-873e-ed8a519a7920" d="M215.86,70.68c13.35-14.18,40.1-13.25,53.35-12.79,16.59.58,35.98,4.06,36.4,9.06.38,4.43-14.39,7.06-14.44,13.85-.03,4.94,7.76,8.02,6.9,9.33-1.81,2.77-35.38-13.33-42.68-6.39-3.28,3.12.99,8.75-2.51,10.92-3.61,2.24-9.16-3.16-22.59-6.39-11.56-2.79-17.28-1.15-19.46-4.53-2.9-4.49,4.14-12.13,5.02-13.06Z" fill="none" stroke="#000" stroke-linecap="round" stroke-linejoin="round"/><rect id="uuid-26248960-a28e-4b34-a2e0-d37548c10b96" x="332" y="156.15" width="44" height="20" fill="none" stroke="#000" stroke-linecap="round" stroke-linejoin="round"/><rect id="uuid-fbf86c59-5f50-4187-8fc4-a24c4bfee6bc" x="288" y="156.15" width="44" height="20" fill="none" stroke="#000" stroke-linecap="round" stroke-linejoin="round"/><rect id="uuid-b4738b17-6fcb-4ae6-9a19-0704d156c2eb" x="168" y="156.15" width="44" height="20" fill="none" stroke="#000" stroke-linecap="round" stroke-linejoin="round"/><rect id="uuid-22fa08d9-cfda-462d-956d-721416323c29" x="124" y="156.15" width="44" height="20" fill="none" stroke="#000" stroke-linecap="round" stroke-linejoin="round"/><rect id="uuid-3c22908d-7869-407e-a99b-a6989add93db" x="376" y="155.15" width="22" height="22" fill="none" stroke="#000" stroke-linecap="round" stroke-linejoin="round"/><rect id="uuid-383f0471-c182-4809-85e2-5c72cf350d1c" x="102" y="155.15" width="22" height="22" fill="none" stroke="#000" stroke-linecap="round" stroke-linejoin="round"/></g><text transform="translate(137.08 437.15)" font-family="ComicNeue-Regular, &apos;Comic Neue&apos;" font-size="24"><tspan x="0" y="0">Bob </tspan><tspan x="48.43" y="0" letter-spacing="-.02em">w</tspan><tspan x="62.35" y="0">as a simple guy.</tspan></text></svg>