<?xml version="1.0" encoding="UTF-8"?><svg id="uuid-777176e9-700d-49f3-a07a-a0df8dca77a5" xmlns="http://www.w3.org/2000/svg" viewBox="0 0 500 500"><path id="uuid-3520ea2f-bc6d-4fe1-9e85-3bf96a3fad9c" d="M408.437,319.948c5.572-30.479,5.852-63.745-.251-97.822-21.072-117.669-109.821-200.224-198.228-184.392-88.406,15.832-142.991,124.055-121.919,241.724,6.103,34.078,17.909,65.18,33.712,91.83l286.686-51.339Z" fill="#eec6a2"/><path id="uuid-a3c57935-9471-4d0f-b888-c8757c526669" d="M130.277,399.711c28.869,60.276,79.502,100.289,137.188,100.289s108.319-40.013,137.188-100.289H130.277Z" fill="#eec6a2"/><ellipse id="uuid-693d9602-d432-4c58-ac8c-0470c63e884f" cx="293.057" cy="236.989" rx="15.702" ry="25.419" transform="translate(-34.819 51.129) rotate(-9.415)" fill="#333"/><ellipse id="uuid-f283146a-bd18-4072-b239-8c8ec2989816" cx="205.966" cy="255.324" rx="15.702" ry="25.419" transform="translate(-38.995 37.135) rotate(-9.416)" fill="#333"/><path id="uuid-53577386-a044-44cc-a136-3c2631ea651a" d="M83.305,93.431C125.634,28.704,230.918,13.595,283.063,6.112c65.291-9.37,143.587-9.345,148.744,9.876,4.569,17.033-51.373,37.671-46.783,64.22,3.338,19.31,35.956,25.876,33.53,31.582-5.145,12.103-147.738-27.267-171.434,4.927-10.646,14.464,9.986,33.485-2.182,44.42-12.57,11.298-38.036-5.908-92.864-9.144-47.186-2.784-68.392,7.596-79.283-4.058-14.489-15.505,7.735-50.258,10.512-54.503Z" fill="#534741"/></svg>