<?xml version="1.0" encoding="UTF-8"?><svg id="uuid-7dddaf96-7aaa-4a9c-8673-b40e9f20bd13" xmlns="http://www.w3.org/2000/svg" viewBox="0 0 1029 1029"><rect id="uuid-3cf5909b-bfa2-49a0-be04-83a0ed722e45" x="2.5" y="2.5" width="1024" height="1024" fill="none" stroke="#000" stroke-miterlimit="10" stroke-width="5"/><rect x="167.5" y="130.5" width="246.574" height="246.574" fill="#f200ffff" stroke="#000" stroke-miterlimit="10" stroke-width="5"/><path d="M735.918,373.356c-35.269-10.772-74.078-7.773-108.438,5.62-34.359,13.393-64.361,36.775-88.11,64.986-20.375,24.204-36.974,54.735-32.836,86.102,2.674,20.272,13.932,38.735,28.631,52.95,14.699,14.215,32.706,24.55,51.176,33.324,54.22,25.757,115.534,39.218,174.846,29.983,18.889-2.941,37.964-8.412,52.963-20.264,22.177-17.525,32.2-46.275,37.219-74.091,8.884-49.245,4.444-103.286-24.551-144.07-12.499-17.58-31.087-32.891-52.65-33.476-13.139-.356-26.979,4.682-39.023-.583" fill="none" stroke="#000" stroke-miterlimit="10"/></svg>
