<?xml version="1.0" encoding="UTF-8"?><svg id="uuid-ded6e653-a3cc-4590-94dc-24040d788466" xmlns="http://www.w3.org/2000/svg" viewBox="0 0 500 500"><g isolation="isolate"><text transform="translate(84.29 311.82)" fill="#333" font-family="ComicNeue-Bold, &apos;Comic Neue&apos;" font-size="60" font-weight="700" isolation="isolate"><tspan x="0" y="0">Bob</tspan></text><text transform="translate(84.29 340.62)" fill="#333" font-family="ComicNeue-Regular, &apos;Comic Neue&apos;" font-size="24" isolation="isolate"><tspan x="0" y="0">was a simple guy. He </tspan></text><text transform="translate(84.29 369.42)" fill="#333" font-family="ComicNeue-Regular, &apos;Comic Neue&apos;" font-size="24" isolation="isolate"><tspan x="0" y="0">lived in Canada.</tspan></text></g><g id="uuid-cc19b43c-e24e-4bb4-b47a-91b0745d10e0"><path id="uuid-63baad83-a295-4bb4-b95e-5565a06fbd09" d="M192.79,252c4.28-11.46,6.7-24.38,6.7-38.05,0-47.22-28.71-85.49-64.12-85.49s-64.12,38.28-64.12,85.49c0,13.67,2.42,26.59,6.7,38.05h114.84Z" fill="#eec6a2"/><ellipse id="uuid-49adfbd6-ad0b-4a68-8f0e-81e5bdf905d9" cx="152.5" cy="211.5" rx="6.5" ry="9.5" fill="#333"/><ellipse id="uuid-937df809-0a39-4a5d-b31b-d0d9e787cc0b" cx="118.5" cy="211.5" rx="6.5" ry="9.5" fill="#333"/><path id="uuid-30311b9e-e53c-439a-890a-13c772063872" d="M82.34,140.74c20.93-22.22,62.84-20.76,83.6-20.04,25.99.9,56.38,6.36,57.04,14.2.59,6.94-22.56,11.07-22.62,21.71-.05,7.74,12.16,12.56,10.82,14.61-2.84,4.35-55.44-20.89-66.88-10.02-5.14,4.88,1.55,13.71-3.93,17.12-5.66,3.52-14.35-4.95-35.41-10.02-18.12-4.37-27.07-1.81-30.49-7.1-4.55-7.04,6.5-19,7.87-20.46h0Z" fill="#534741"/><path id="uuid-3784024b-8e14-4050-948c-0c73cf7a243b" d="M192.79,252c4.28-11.46,6.7-24.38,6.7-38.05,0-47.22-28.71-85.49-64.12-85.49s-64.12,38.28-64.12,85.49c0,13.67,2.42,26.59,6.7,38.05h114.84Z" fill="none" stroke="#000" stroke-linecap="round" stroke-linejoin="round"/><ellipse id="uuid-824c5e58-09be-4a88-acce-19defe007ac5" cx="152.5" cy="211.5" rx="6.5" ry="9.5" fill="none" stroke="#000" stroke-linecap="round" stroke-linejoin="round"/><ellipse id="uuid-885ead13-5c89-4b07-a797-77927c0e490b" cx="118.5" cy="211.5" rx="6.5" ry="9.5" fill="none" stroke="#000" stroke-linecap="round" stroke-linejoin="round"/><path id="uuid-26f37ebe-7ab6-4c76-8667-c5cc7f04a06f" d="M82.34,140.74c20.93-22.22,62.84-20.76,83.6-20.04,25.99.9,56.38,6.36,57.04,14.2.59,6.94-22.56,11.07-22.62,21.71-.05,7.74,12.16,12.56,10.82,14.61-2.84,4.35-55.44-20.89-66.88-10.02-5.14,4.88,1.55,13.71-3.93,17.12-5.66,3.52-14.35-4.95-35.41-10.02-18.12-4.37-27.07-1.81-30.49-7.1-4.55-7.04,6.5-19,7.87-20.46h0Z" fill="none" stroke="#000" stroke-linecap="round" stroke-linejoin="round"/></g><rect id="uuid-362c64ee-8cf1-4b2a-94e9-b6245cc91dbf" x="246" y="148" width="183" height="92" fill="#ce1126"/><rect id="uuid-fc50f292-444c-482c-82aa-3c9e355dcb06" x="246" y="148" width="91" height="46" fill="#002369"/><path id="uuid-bee50f78-3f48-4f4b-89f0-ecbe42389092" d="M246,148v5.14l80.83,40.86h10.17v-5.14l-80.83-40.86h-10.17ZM337,148v5.14l-80.83,40.86h-10.17v-5.14l80.83-40.86h10.17Z" fill="#fff"/><path id="uuid-9c42607b-e5b8-4f83-83eb-f13f74bb0374" d="M284,148v46h15v-46h-15ZM246,164v15h91v-15h-91Z" fill="#fff"/><path id="uuid-179322ba-0fbf-4323-a41c-f6d1d85b237a" d="M246,167v9h91v-9h-91ZM287,148v46h9v-46h-9Z" fill="#ce1126"/><path id="uuid-8b2b306b-133d-4604-9e5c-1612cced9586" d="M246.05,194l30-15h6.71l-30,15h-6.71,0ZM246,147.75l30.5,15.25h-6.82l-23.68-11.84v-3.41ZM300.23,163l30-15h6.71l-30,15h-6.71ZM337,194.25l-30.5-15.25h6.82l23.68,11.84v3.41Z" fill="#ce1126"/><rect id="uuid-d1dd8260-1ebb-4699-90ce-1fcecd2d44b0" x="246" y="148" width="183" height="92" fill="none" stroke="#000" stroke-linecap="round" stroke-linejoin="round"/><rect id="uuid-5b1d643d-f8a2-44d7-9b30-ef3aa4040ed8" x="246" y="148" width="91" height="46" fill="none" stroke="#000" stroke-linecap="round" stroke-linejoin="round"/><path id="uuid-0499ec29-f15e-4864-9998-3efe87dc6fce" d="M246,148v5.14l80.83,40.86h10.17v-5.14l-80.83-40.86h-10.17ZM337,148v5.14l-80.83,40.86h-10.17v-5.14l80.83-40.86h10.17Z" fill="none" stroke="#000" stroke-linecap="round" stroke-linejoin="round"/><path id="uuid-1a65858e-7f33-4c90-979d-a2ef876e0108" d="M284,148v46h15v-46h-15ZM246,164v15h91v-15h-91Z" fill="none" stroke="#000" stroke-linecap="round" stroke-linejoin="round"/><path id="uuid-bc5b021b-91b5-447a-b61c-e7625aed06c4" d="M246,167v9h91v-9h-91ZM287,148v46h9v-46h-9Z" fill="none" stroke="#000" stroke-linecap="round" stroke-linejoin="round"/><path id="uuid-dc10cc4a-079f-4047-b523-aee6a91bc85f" d="M246.05,194l30-15h6.71l-30,15h-6.71,0ZM246,147.75l30.5,15.25h-6.82l-23.68-11.84v-3.41ZM300.23,163l30-15h6.71l-30,15h-6.71ZM337,194.25l-30.5-15.25h6.82l23.68,11.84v3.41Z" fill="none" stroke="#000" stroke-linecap="round" stroke-linejoin="round"/></svg>