<?xml version="1.0" encoding="UTF-8"?><svg id="uuid-f62794c0-44c0-45a3-b58c-d78cc8bb90c6" xmlns="http://www.w3.org/2000/svg" viewBox="0 0 500 500"><text transform="translate(84.285217 311.818237)" fill="#333"><tspan font-family="ComicNeue-Bold, &apos;Comic Neue&apos;" font-size="60" font-weight="700"><tspan x="0" y="0">Bob</tspan></tspan><tspan font-family="ComicNeue-Regular, &apos;Comic Neue&apos;" font-size="24"><tspan x="0" y="28.799805">was a simple guy. He </tspan></tspan><tspan font-family="ComicNeue-Regular, &apos;Comic Neue&apos;" font-size="24"><tspan x="0" y="57.600098">lived in Canada.</tspan></tspan></text><g id="uuid-95af5f66-f42e-4883-8fbb-b6e67b30225c"><path id="uuid-b4068748-425b-453c-9a7a-bda1448c99a8" d="M192.787786,252c4.281037-11.461843,6.701468-24.375983,6.701468-38.049994,0-47.215659-28.706917-85.491593-64.118694-85.491593s-64.118694,38.275933-64.118694,85.491593c0,13.674011,2.420431,26.588151,6.701468,38.049994h114.834453Z" fill="#eec6a2"/><ellipse id="uuid-e59e77f9-3ac0-4391-b64d-888052a6402f" cx="152.5" cy="211.5" rx="6.5" ry="9.5" fill="#333"/><ellipse id="uuid-47be3048-37cd-4ce5-b9cc-8727fc2abb75" cx="118.5" cy="211.5" rx="6.5" ry="9.5" fill="#333"/><path id="uuid-09f39274-6315-4e1c-af0e-b22c60671f48" d="M82.343567,140.740858c20.927357-22.218339,62.839278-20.762214,83.597296-20.041007,25.991253.903006,56.377452,6.363729,57.042861,14.195713.589654,6.940343-22.556575,11.069581-22.620445,21.711091-.046462,7.739963,12.156316,12.563727,10.818474,14.613234-2.83788,4.347529-55.443717-20.887236-66.877837-10.020504-5.13713,4.882197,1.5483,13.713821-3.93399,17.11836-5.663875,3.517329-14.351598-4.945396-35.405914-10.020504-18.119971-4.367788-27.071576-1.808459-30.488426-7.097857-4.545735-7.0369,6.495262-19.001155,7.867981-20.458528Z" fill="#534741"/><path id="uuid-e2e3c897-8c87-4637-91fc-b8dc11d2c9c7" d="M192.787786,252c4.281037-11.461843,6.701468-24.375983,6.701468-38.049994,0-47.215659-28.706917-85.491593-64.118694-85.491593s-64.118694,38.275933-64.118694,85.491593c0,13.674011,2.420431,26.588151,6.701468,38.049994h114.834453Z" fill="none" stroke="#000" stroke-linecap="round" stroke-linejoin="round"/><ellipse id="uuid-40c4a997-7813-4f80-b349-b60840583709" cx="152.5" cy="211.5" rx="6.5" ry="9.5" fill="none" stroke="#000" stroke-linecap="round" stroke-linejoin="round"/><ellipse id="uuid-2fd4ce9d-150e-4ce3-a2bf-4883930fce29" cx="118.5" cy="211.5" rx="6.5" ry="9.5" fill="none" stroke="#000" stroke-linecap="round" stroke-linejoin="round"/><path id="uuid-3ab1e43c-acde-442f-b107-7f8a7026b711" d="M82.343567,140.740858c20.927357-22.218339,62.839278-20.762214,83.597296-20.041007,25.991253.903006,56.377452,6.363729,57.042861,14.195713.589654,6.940343-22.556575,11.069581-22.620445,21.711091-.046462,7.739963,12.156316,12.563727,10.818474,14.613234-2.83788,4.347529-55.443717-20.887236-66.877837-10.020504-5.13713,4.882197,1.5483,13.713821-3.93399,17.11836-5.663875,3.517329-14.351598-4.945396-35.405914-10.020504-18.119971-4.367788-27.071576-1.808459-30.488426-7.097857-4.545735-7.0369,6.495262-19.001155,7.867981-20.458528Z" fill="none" stroke="#000" stroke-linecap="round" stroke-linejoin="round"/></g><rect id="uuid-1cd2952d-e4fd-4048-a293-a4d068c2e55e" x="246" y="148" width="183" height="92" fill="#ce1126"/><rect id="uuid-65499f61-d4f0-43c4-97ff-91099e22e279" x="246" y="148" width="91" height="46" fill="#002369"/><path id="uuid-b356fb3d-7a3a-4d6d-9d06-d3b709dd821c" d="M246,148v5.142954l80.825901,40.857046h10.174099v-5.142954l-80.825898-40.857046h-10.174102ZM337,148v5.142877l-80.825898,40.857123h-10.174102v-5.143108l80.825901-40.856892h10.174099Z" fill="#fff"/><path id="uuid-aa8c9dc4-1725-48e8-beb6-4528036fabc5" d="M284,148v46h15v-46h-15ZM246,164v15h91v-15h-91Z" fill="#fff"/><path id="uuid-3dfb0450-869d-4aa9-8933-51a7867199d3" d="M246,167v9h91v-9h-91ZM287,148v46h9v-46h-9Z" fill="#ce1126"/><path id="uuid-fb03249c-41c5-45fe-8b12-16ce241b7b09" d="M246.054041,194l29.999997-15h6.70815l-29.999938,15h-6.708209ZM246,147.749999l30.500001,15.250001h-6.819953l-23.680048-11.839994v-3.410007ZM300.23409,163l29.999996-15h6.708147l-29.999996,15h-6.708147ZM337,194.250002l-30.499998-15.250002h6.81995l23.680048,11.839949v3.410053Z" fill="#ce1126"/><rect id="uuid-b1ec0b07-0f20-4742-9c00-ea8ffdb9ac42" x="246" y="148" width="183" height="92" fill="none" stroke="#000" stroke-linecap="round" stroke-linejoin="round"/><rect id="uuid-7390bae5-506a-42b2-9578-8d25131c170d" x="246" y="148" width="91" height="46" fill="none" stroke="#000" stroke-linecap="round" stroke-linejoin="round"/><path id="uuid-018f572b-6909-450f-a03d-a4e422758b61" d="M246,148v5.142954l80.825901,40.857046h10.174099v-5.142954l-80.825898-40.857046h-10.174102ZM337,148v5.142877l-80.825898,40.857123h-10.174102v-5.143108l80.825901-40.856892h10.174099Z" fill="none" stroke="#000" stroke-linecap="round" stroke-linejoin="round"/><path id="uuid-1c69ec6e-ece8-4bf9-b128-686db6e9e163" d="M284,148v46h15v-46h-15ZM246,164v15h91v-15h-91Z" fill="none" stroke="#000" stroke-linecap="round" stroke-linejoin="round"/><path id="uuid-b8ddf8bc-0dda-4e64-b615-81d67d5ef14f" d="M246,167v9h91v-9h-91ZM287,148v46h9v-46h-9Z" fill="none" stroke="#000" stroke-linecap="round" stroke-linejoin="round"/><path id="uuid-180e2248-6d32-49cf-9bd5-6379c8933d95" d="M246.054041,194l29.999997-15h6.70815l-29.999938,15h-6.708209ZM246,147.749999l30.500001,15.250001h-6.819953l-23.680048-11.839994v-3.410007ZM300.23409,163l29.999996-15h6.708147l-29.999996,15h-6.708147ZM337,194.250002l-30.499998-15.250002h6.81995l23.680048,11.839949v3.410053Z" fill="none" stroke="#000" stroke-linecap="round" stroke-linejoin="round"/></svg>