<?xml version="1.0" encoding="UTF-8"?><svg xmlns="http://www.w3.org/2000/svg" xmlns:xlink="http://www.w3.org/1999/xlink" viewBox="0 0 500 500"><defs><linearGradient id="uuid-d4bbb10f-58cf-4bf2-9b00-95b02aa61bc7" x1="124.55" y1="295" x2="430.04" y2="295" gradientUnits="userSpaceOnUse"><stop offset="0" stop-color="#000"/><stop offset=".13" stop-color="#040404"/><stop offset=".52" stop-color="#0d0d0d"/><stop offset=".8" stop-color="#070707"/><stop offset="1" stop-color="#000"/></linearGradient></defs><g isolation="isolate"><g id="uuid-dfa3f68f-a307-424b-99b4-2a22da796b7c"><text transform="translate(84.57 402.49)" fill="#333" font-family="ComicNeue-Regular, &apos;Comic Neue&apos;" font-size="24"><tspan x="0" y="0">And advancement in artilleries...</tspan></text><polygon points="127.33 301.09 142.02 312 413.12 312 430.04 278 124.55 278 127.33 301.09" fill="url(#uuid-d4bbb10f-58cf-4bf2-9b00-95b02aa61bc7)"/><circle cx="177.73" cy="312.08" r="29.46" fill="#514a50"/><circle cx="177.73" cy="312.08" r="27.74" fill="#514a50" mix-blend-mode="multiply" opacity=".4"/><path d="M160.32,312c0,9.61,7.79,17.41,17.41,17.41s17.41-7.79,17.41-17.41-7.79-17.41-17.41-17.41-17.41,7.79-17.41,17.41Z" fill="#424242" mix-blend-mode="multiply" opacity=".31"/><circle cx="177.73" cy="312" r="16.54" fill="#514a50"/><path d="M161.96,312c0,8.71,7.06,15.77,15.77,15.77s15.77-7.06,15.77-15.77-7.06-15.77-15.77-15.77-15.77,7.06-15.77,15.77Z" fill="#dcc0aa"/><path d="M168.55,312c0,5.07,4.11,9.18,9.18,9.18s9.18-4.11,9.18-9.18-4.11-9.18-9.18-9.18-9.18,4.11-9.18,9.18Z" fill="#514a50"/><rect x="97" y="240" width="78" height="13" fill="#7a7a7a"/><rect x="77" y="242" width="20" height="10" fill="#999"/><rect x="70" y="243" width="7" height="7" fill="#7a7a7a"/><rect x="62" y="242" width="7" height="10" fill="#999"/><polygon points="223.11 235 368.7 235 437 244.87 437.22 278 91 278 91 267.6 223.11 235" fill="#b69683"/><polygon points="91.42 278 125.99 308 135.07 308 154.55 278 91.42 278" fill="#8c6e5c"/><polygon points="398 278 398 280.92 411.29 298 431.08 298 438 280.92 438 278 398 278" fill="#8c6e5c"/><polygon points="209.03 238.53 160 237.21 160 240.24 169.16 240.56 167.43 248.9 209.03 238.53" fill="#8c6e5c"/><path d="M203,240.08v37.92h-3v-37.29l3-.64ZM140,255.65v22.35h3v-22.99l-3,.64ZM319,235v43h3v-43h-3ZM379,236.35v41.65h3v-41.28l-3-.37ZM260,235v43h3v-43h-3Z" fill="#424242" opacity=".34"/><circle cx="242.82" cy="311.92" r="29.46" fill="#514a50"/><circle cx="242.82" cy="311.92" r="27.74" fill="#514a50" mix-blend-mode="multiply" opacity=".4"/><path d="M225.41,311.83c0,9.61,7.79,17.41,17.41,17.41s17.41-7.79,17.41-17.41-7.79-17.41-17.41-17.41-17.41,7.79-17.41,17.41Z" fill="#424242" mix-blend-mode="multiply" opacity=".31"/><circle cx="242.82" cy="311.83" r="16.54" fill="#514a50"/><path d="M227.05,311.83c0,8.71,7.06,15.77,15.77,15.77s15.77-7.06,15.77-15.77-7.06-15.77-15.77-15.77-15.77,7.06-15.77,15.77Z" fill="#dcc0aa"/><path d="M233.65,311.83c0,5.07,4.11,9.18,9.18,9.18s9.18-4.11,9.18-9.18-4.11-9.18-9.18-9.18-9.18,4.11-9.18,9.18Z" fill="#514a50"/><circle cx="307.91" cy="312.08" r="29.46" fill="#514a50"/><circle cx="307.91" cy="312.08" r="27.74" fill="#514a50" mix-blend-mode="multiply" opacity=".4"/><path d="M290.51,312c0,9.61,7.79,17.41,17.41,17.41s17.41-7.79,17.41-17.41-7.79-17.41-17.41-17.41-17.41,7.79-17.41,17.41Z" fill="#424242" mix-blend-mode="multiply" opacity=".31"/><circle cx="307.91" cy="312" r="16.54" fill="#514a50"/><path d="M292.14,312c0,8.71,7.06,15.77,15.77,15.77s15.77-7.06,15.77-15.77-7.06-15.77-15.77-15.77-15.77,7.06-15.77,15.77Z" fill="#dcc0aa"/><path d="M298.74,312c0,5.07,4.11,9.18,9.18,9.18s9.18-4.11,9.18-9.18-4.11-9.18-9.18-9.18-9.18,4.11-9.18,9.18Z" fill="#514a50"/><circle cx="373.01" cy="312.08" r="29.46" fill="#514a50"/><circle cx="373.01" cy="312.08" r="27.74" fill="#514a50" mix-blend-mode="multiply" opacity=".4"/><path d="M355.6,312c0,9.61,7.79,17.41,17.41,17.41s17.41-7.79,17.41-17.41-7.79-17.41-17.41-17.41-17.41,7.79-17.41,17.41Z" fill="#424242" mix-blend-mode="multiply" opacity=".31"/><circle cx="373.01" cy="312" r="16.54" fill="#514a50"/><path d="M357.24,312c0,8.71,7.06,15.77,15.77,15.77s15.77-7.06,15.77-15.77-7.06-15.77-15.77-15.77-15.77,7.06-15.77,15.77Z" fill="#dcc0aa"/><path d="M363.83,312c0,5.07,4.11,9.18,9.18,9.18s9.18-4.11,9.18-9.18-4.11-9.18-9.18-9.18-9.18,4.11-9.18,9.18Z" fill="#514a50"/><polygon points="127.33 301.09 142.02 312 413.12 312 430.04 278 124.55 278 127.33 301.09" fill="none" stroke="#000" stroke-linecap="round" stroke-linejoin="round"/><circle cx="177.73" cy="312.08" r="29.46" fill="none" stroke="#000" stroke-linecap="round" stroke-linejoin="round"/><circle cx="177.73" cy="312.08" r="27.74" fill="none" stroke="#000" stroke-linecap="round" stroke-linejoin="round"/><path d="M160.32,312c0,9.61,7.79,17.41,17.41,17.41s17.41-7.79,17.41-17.41-7.79-17.41-17.41-17.41-17.41,7.79-17.41,17.41Z" fill="none" stroke="#000" stroke-linecap="round" stroke-linejoin="round"/><circle cx="177.73" cy="312" r="16.54" fill="none" stroke="#000" stroke-linecap="round" stroke-linejoin="round"/><path d="M161.96,312c0,8.71,7.06,15.77,15.77,15.77s15.77-7.06,15.77-15.77-7.06-15.77-15.77-15.77-15.77,7.06-15.77,15.77Z" fill="none" stroke="#000" stroke-linecap="round" stroke-linejoin="round"/><path d="M168.55,312c0,5.07,4.11,9.18,9.18,9.18s9.18-4.11,9.18-9.18-4.11-9.18-9.18-9.18-9.18,4.11-9.18,9.18Z" fill="none" stroke="#000" stroke-linecap="round" stroke-linejoin="round"/><rect x="97" y="240" width="78" height="13" fill="none" stroke="#000" stroke-linecap="round" stroke-linejoin="round"/><rect x="77" y="242" width="20" height="10" fill="none" stroke="#000" stroke-linecap="round" stroke-linejoin="round"/><rect x="70" y="243" width="7" height="7" fill="none" stroke="#000" stroke-linecap="round" stroke-linejoin="round"/><rect x="62" y="242" width="7" height="10" fill="none" stroke="#000" stroke-linecap="round" stroke-linejoin="round"/><polygon points="223.11 235 368.7 235 437 244.87 437.22 278 91 278 91 267.6 223.11 235" fill="none" stroke="#000" stroke-linecap="round" stroke-linejoin="round"/><polygon points="91.42 278 125.99 308 135.07 308 154.55 278 91.42 278" fill="none" stroke="#000" stroke-linecap="round" stroke-linejoin="round"/><polygon points="398 278 398 280.92 411.29 298 431.08 298 438 280.92 438 278 398 278" fill="none" stroke="#000" stroke-linecap="round" stroke-linejoin="round"/><polygon points="209.03 238.53 160 237.21 160 240.24 169.16 240.56 167.43 248.9 209.03 238.53" fill="none" stroke="#000" stroke-linecap="round" stroke-linejoin="round"/><path d="M203,240.08v37.92h-3v-37.29l3-.64ZM140,255.65v22.35h3v-22.99l-3,.64ZM319,235v43h3v-43h-3ZM379,236.35v41.65h3v-41.28l-3-.37ZM260,235v43h3v-43h-3Z" fill="none" stroke="#000" stroke-linecap="round" stroke-linejoin="round"/><circle cx="242.82" cy="311.92" r="29.46" fill="none" stroke="#000" stroke-linecap="round" stroke-linejoin="round"/><circle cx="242.82" cy="311.92" r="27.74" fill="none" stroke="#000" stroke-linecap="round" stroke-linejoin="round"/><path d="M225.41,311.83c0,9.61,7.79,17.41,17.41,17.41s17.41-7.79,17.41-17.41-7.79-17.41-17.41-17.41-17.41,7.79-17.41,17.41Z" fill="none" stroke="#000" stroke-linecap="round" stroke-linejoin="round"/><circle cx="242.82" cy="311.83" r="16.54" fill="none" stroke="#000" stroke-linecap="round" stroke-linejoin="round"/><path d="M227.05,311.83c0,8.71,7.06,15.77,15.77,15.77s15.77-7.06,15.77-15.77-7.06-15.77-15.77-15.77-15.77,7.06-15.77,15.77Z" fill="none" stroke="#000" stroke-linecap="round" stroke-linejoin="round"/><path d="M233.65,311.83c0,5.07,4.11,9.18,9.18,9.18s9.18-4.11,9.18-9.18-4.11-9.18-9.18-9.18-9.18,4.11-9.18,9.18Z" fill="none" stroke="#000" stroke-linecap="round" stroke-linejoin="round"/><circle cx="307.91" cy="312.08" r="29.46" fill="none" stroke="#000" stroke-linecap="round" stroke-linejoin="round"/><circle cx="307.91" cy="312.08" r="27.74" fill="none" stroke="#000" stroke-linecap="round" stroke-linejoin="round"/><path d="M290.51,312c0,9.61,7.79,17.41,17.41,17.41s17.41-7.79,17.41-17.41-7.79-17.41-17.41-17.41-17.41,7.79-17.41,17.41Z" fill="none" stroke="#000" stroke-linecap="round" stroke-linejoin="round"/><circle cx="307.91" cy="312" r="16.54" fill="none" stroke="#000" stroke-linecap="round" stroke-linejoin="round"/><path d="M292.14,312c0,8.71,7.06,15.77,15.77,15.77s15.77-7.06,15.77-15.77-7.06-15.77-15.77-15.77-15.77,7.06-15.77,15.77Z" fill="none" stroke="#000" stroke-linecap="round" stroke-linejoin="round"/><path d="M298.74,312c0,5.07,4.11,9.18,9.18,9.18s9.18-4.11,9.18-9.18-4.11-9.18-9.18-9.18-9.18,4.11-9.18,9.18Z" fill="none" stroke="#000" stroke-linecap="round" stroke-linejoin="round"/><circle cx="373.01" cy="312.08" r="29.46" fill="none" stroke="#000" stroke-linecap="round" stroke-linejoin="round"/><circle cx="373.01" cy="312.08" r="27.74" fill="none" stroke="#000" stroke-linecap="round" stroke-linejoin="round"/><path d="M355.6,312c0,9.61,7.79,17.41,17.41,17.41s17.41-7.79,17.41-17.41-7.79-17.41-17.41-17.41-17.41,7.79-17.41,17.41Z" fill="none" stroke="#000" stroke-linecap="round" stroke-linejoin="round"/><circle cx="373.01" cy="312" r="16.54" fill="none" stroke="#000" stroke-linecap="round" stroke-linejoin="round"/><path d="M357.24,312c0,8.71,7.06,15.77,15.77,15.77s15.77-7.06,15.77-15.77-7.06-15.77-15.77-15.77-15.77,7.06-15.77,15.77Z" fill="none" stroke="#000" stroke-linecap="round" stroke-linejoin="round"/><path d="M363.83,312c0,5.07,4.11,9.18,9.18,9.18s9.18-4.11,9.18-9.18-4.11-9.18-9.18-9.18-9.18,4.11-9.18,9.18Z" fill="none" stroke="#000" stroke-linecap="round" stroke-linejoin="round"/><path d="M290,214.75c1.6-.84,8.03-4.87,12.26-25.14,1.88-9,2.69-18.09,3.06-24.22" fill="none" stroke="#333" stroke-miterlimit="10" stroke-width="2"/><text transform="translate(138.26 142.7)" fill="#333" font-family="ComicNeue-Bold, &apos;Comic Neue&apos;" font-size="24" font-weight="700"><tspan x="0" y="0">Haha try attacking me now!</tspan></text></g></g></svg>