<?xml version="1.0" encoding="UTF-8"?><svg xmlns="http://www.w3.org/2000/svg" xmlns:xlink="http://www.w3.org/1999/xlink" viewBox="0 0 500 500"><defs><linearGradient id="uuid-ef95b916-b812-4255-9acb-2aa607222a14" x1="124.545167" y1="295" x2="430.035385" y2="295" gradientUnits="userSpaceOnUse"><stop offset="0" stop-color="#000"/><stop offset=".131567" stop-color="#040404"/><stop offset=".520408" stop-color="#0d0d0d"/><stop offset=".804451" stop-color="#070707"/><stop offset="1" stop-color="#000"/></linearGradient></defs><g isolation="isolate"><g id="uuid-c13795d7-97e0-465b-82e6-b059a9aa6fc0"><text transform="translate(84.573235 402.491699)" fill="#333" font-family="ComicNeue-Regular, &apos;Comic Neue&apos;" font-size="24"><tspan x="0" y="0">And advancement in artilleries...</tspan></text><polygon points="127.326666 301.090502 142.021446 312 413.117241 312 430.035385 278 124.545167 278 127.326666 301.090502" fill="url(#uuid-ef95b916-b812-4255-9acb-2aa607222a14)"/><circle cx="177.730188" cy="312.084558" r="29.463118" fill="#514a50"/><circle cx="177.730188" cy="312.084462" r="27.744719" fill="#514a50" mix-blend-mode="multiply" opacity=".4"/><path d="M160.323023,312.001193c0,9.614041,7.79351,17.407551,17.407164,17.407551s17.4072-7.79351,17.4072-17.407551c0-9.613655-7.793546-17.407165-17.4072-17.407165s-17.407164,7.79351-17.407164,17.407165Z" fill="#424242" mix-blend-mode="multiply" opacity=".31"/><circle cx="177.730188" cy="312.001193" r="16.540319" fill="#514a50"/><path d="M161.961386,312.001193c0,8.708986,7.059817,15.769188,15.768802,15.769188s15.768802-7.060203,15.768802-15.769188c0-8.7086-7.059817-15.768803-15.768802-15.768803s-15.768802,7.060203-15.768802,15.768803Z" fill="#dcc0aa"/><path d="M168.55343,312.001193c0,5.068309,4.108449,9.176758,9.176758,9.176758,5.068345,0,9.176758-4.108449,9.176758-9.176758,0-5.067923-4.108413-9.176372-9.176758-9.176372-5.068309,0-9.176758,4.108449-9.176758,9.176372Z" fill="#514a50"/><rect x="97" y="240" width="78" height="13" fill="#7a7a7a"/><rect x="77" y="242" width="20" height="10" fill="#999"/><rect x="70" y="243" width="7" height="7" fill="#7a7a7a"/><rect x="62" y="242" width="7" height="10" fill="#999"/><polygon points="223.107379 235 368.70115 235 437 244.86544 437.218748 278 91 278 91 267.598764 223.107379 235" fill="#b69683"/><polygon points="91.424245 278 125.986849 308 135.073917 308 154.5456 278 91.424245 278" fill="#8c6e5c"/><polygon points="398 278 398 280.919129 411.288619 298 431.079187 298 438 280.919129 438 278 398 278" fill="#8c6e5c"/><polygon points="209.027748 238.531549 160 237.206579 160 240.240926 169.164022 240.560493 167.431102 248.900896 209.027748 238.531549" fill="#8c6e5c"/><path d="M203,240.076897v37.923103h-3v-37.287442l3-.635661ZM140,255.646934v22.353066h3v-22.989113l-3,.636047ZM319,235v43h3v-43h-3ZM379,236.346294v41.653706h3v-41.281649l-3-.372057ZM260,235v43h3v-43h-3Z" fill="#424242" opacity=".34"/><circle cx="242.822009" cy="311.918144" r="29.463118" fill="#514a50"/><circle cx="242.822009" cy="311.918048" r="27.744719" fill="#514a50" mix-blend-mode="multiply" opacity=".4"/><path d="M225.414845,311.834779c0,9.614041,7.79351,17.407551,17.407164,17.407551s17.4072-7.79351,17.4072-17.407551c0-9.613655-7.793546-17.407165-17.4072-17.407165s-17.407164,7.79351-17.407164,17.407165Z" fill="#424242" mix-blend-mode="multiply" opacity=".31"/><circle cx="242.822009" cy="311.834779" r="16.540319" fill="#514a50"/><path d="M227.053207,311.834779c0,8.708986,7.059817,15.769188,15.768802,15.769188s15.768802-7.060203,15.768802-15.769188c0-8.7086-7.059817-15.768803-15.768802-15.768803s-15.768802,7.060203-15.768802,15.768803Z" fill="#dcc0aa"/><path d="M233.645251,311.834779c0,5.068309,4.108449,9.176758,9.176758,9.176758,5.068345,0,9.176758-4.108449,9.176758-9.176758,0-5.067923-4.108413-9.176372-9.176758-9.176372-5.068309,0-9.176758,4.108449-9.176758,9.176372Z" fill="#514a50"/><circle cx="307.91362" cy="312.084558" r="29.463118" fill="#514a50"/><circle cx="307.91362" cy="312.084462" r="27.744719" fill="#514a50" mix-blend-mode="multiply" opacity=".4"/><path d="M290.506456,312.001193c0,9.614041,7.79351,17.407551,17.407164,17.407551s17.4072-7.79351,17.4072-17.407551c0-9.613655-7.793546-17.407165-17.4072-17.407165s-17.407164,7.79351-17.407164,17.407165Z" fill="#424242" mix-blend-mode="multiply" opacity=".31"/><circle cx="307.91362" cy="312.001193" r="16.540319" fill="#514a50"/><path d="M292.144818,312.001193c0,8.708986,7.059817,15.769188,15.768802,15.769188s15.768802-7.060203,15.768802-15.769188c0-8.7086-7.059817-15.768803-15.768802-15.768803s-15.768802,7.060203-15.768802,15.768803Z" fill="#dcc0aa"/><path d="M298.736862,312.001193c0,5.068309,4.108449,9.176758,9.176758,9.176758,5.068345,0,9.176758-4.108449,9.176758-9.176758,0-5.067923-4.108413-9.176372-9.176758-9.176372-5.068309,0-9.176758,4.108449-9.176758,9.176372Z" fill="#514a50"/><circle cx="373.00521" cy="312.084558" r="29.463118" fill="#514a50"/><circle cx="373.00521" cy="312.084462" r="27.744719" fill="#514a50" mix-blend-mode="multiply" opacity=".4"/><path d="M355.598046,312.001193c0,9.614041,7.79351,17.407551,17.407164,17.407551s17.4072-7.79351,17.4072-17.407551c0-9.613655-7.793546-17.407165-17.4072-17.407165s-17.407164,7.79351-17.407164,17.407165Z" fill="#424242" mix-blend-mode="multiply" opacity=".31"/><circle cx="373.00521" cy="312.001193" r="16.540319" fill="#514a50"/><path d="M357.236408,312.001193c0,8.708986,7.059817,15.769188,15.768802,15.769188s15.768802-7.060203,15.768802-15.769188c0-8.7086-7.059817-15.768803-15.768802-15.768803s-15.768802,7.060203-15.768802,15.768803Z" fill="#dcc0aa"/><path d="M363.828452,312.001193c0,5.068309,4.108449,9.176758,9.176758,9.176758,5.068345,0,9.176758-4.108449,9.176758-9.176758,0-5.067923-4.108413-9.176372-9.176758-9.176372-5.068309,0-9.176758,4.108449-9.176758,9.176372Z" fill="#514a50"/><polygon points="127.326666 301.090502 142.021446 312 413.117241 312 430.035385 278 124.545167 278 127.326666 301.090502" fill="none" stroke="#000" stroke-linecap="round" stroke-linejoin="round"/><circle cx="177.730188" cy="312.084558" r="29.463118" fill="none" stroke="#000" stroke-linecap="round" stroke-linejoin="round"/><circle cx="177.730188" cy="312.084462" r="27.744719" fill="none" stroke="#000" stroke-linecap="round" stroke-linejoin="round"/><path d="M160.323023,312.001193c0,9.614041,7.79351,17.407551,17.407164,17.407551s17.4072-7.79351,17.4072-17.407551c0-9.613655-7.793546-17.407165-17.4072-17.407165s-17.407164,7.79351-17.407164,17.407165Z" fill="none" stroke="#000" stroke-linecap="round" stroke-linejoin="round"/><circle cx="177.730188" cy="312.001193" r="16.540319" fill="none" stroke="#000" stroke-linecap="round" stroke-linejoin="round"/><path d="M161.961386,312.001193c0,8.708986,7.059817,15.769188,15.768802,15.769188s15.768802-7.060203,15.768802-15.769188c0-8.7086-7.059817-15.768803-15.768802-15.768803s-15.768802,7.060203-15.768802,15.768803Z" fill="none" stroke="#000" stroke-linecap="round" stroke-linejoin="round"/><path d="M168.55343,312.001193c0,5.068309,4.108449,9.176758,9.176758,9.176758,5.068345,0,9.176758-4.108449,9.176758-9.176758,0-5.067923-4.108413-9.176372-9.176758-9.176372-5.068309,0-9.176758,4.108449-9.176758,9.176372Z" fill="none" stroke="#000" stroke-linecap="round" stroke-linejoin="round"/><rect x="97" y="240" width="78" height="13" fill="none" stroke="#000" stroke-linecap="round" stroke-linejoin="round"/><rect x="77" y="242" width="20" height="10" fill="none" stroke="#000" stroke-linecap="round" stroke-linejoin="round"/><rect x="70" y="243" width="7" height="7" fill="none" stroke="#000" stroke-linecap="round" stroke-linejoin="round"/><rect x="62" y="242" width="7" height="10" fill="none" stroke="#000" stroke-linecap="round" stroke-linejoin="round"/><polygon points="223.107379 235 368.70115 235 437 244.86544 437.218748 278 91 278 91 267.598764 223.107379 235" fill="none" stroke="#000" stroke-linecap="round" stroke-linejoin="round"/><polygon points="91.424245 278 125.986849 308 135.073917 308 154.5456 278 91.424245 278" fill="none" stroke="#000" stroke-linecap="round" stroke-linejoin="round"/><polygon points="398 278 398 280.919129 411.288619 298 431.079187 298 438 280.919129 438 278 398 278" fill="none" stroke="#000" stroke-linecap="round" stroke-linejoin="round"/><polygon points="209.027748 238.531549 160 237.206579 160 240.240926 169.164022 240.560493 167.431102 248.900896 209.027748 238.531549" fill="none" stroke="#000" stroke-linecap="round" stroke-linejoin="round"/><path d="M203,240.076897v37.923103h-3v-37.287442l3-.635661ZM140,255.646934v22.353066h3v-22.989113l-3,.636047ZM319,235v43h3v-43h-3ZM379,236.346294v41.653706h3v-41.281649l-3-.372057ZM260,235v43h3v-43h-3Z" fill="none" stroke="#000" stroke-linecap="round" stroke-linejoin="round"/><circle cx="242.822009" cy="311.918144" r="29.463118" fill="none" stroke="#000" stroke-linecap="round" stroke-linejoin="round"/><circle cx="242.822009" cy="311.918048" r="27.744719" fill="none" stroke="#000" stroke-linecap="round" stroke-linejoin="round"/><path d="M225.414845,311.834779c0,9.614041,7.79351,17.407551,17.407164,17.407551s17.4072-7.79351,17.4072-17.407551c0-9.613655-7.793546-17.407165-17.4072-17.407165s-17.407164,7.79351-17.407164,17.407165Z" fill="none" stroke="#000" stroke-linecap="round" stroke-linejoin="round"/><circle cx="242.822009" cy="311.834779" r="16.540319" fill="none" stroke="#000" stroke-linecap="round" stroke-linejoin="round"/><path d="M227.053207,311.834779c0,8.708986,7.059817,15.769188,15.768802,15.769188s15.768802-7.060203,15.768802-15.769188c0-8.7086-7.059817-15.768803-15.768802-15.768803s-15.768802,7.060203-15.768802,15.768803Z" fill="none" stroke="#000" stroke-linecap="round" stroke-linejoin="round"/><path d="M233.645251,311.834779c0,5.068309,4.108449,9.176758,9.176758,9.176758,5.068345,0,9.176758-4.108449,9.176758-9.176758,0-5.067923-4.108413-9.176372-9.176758-9.176372-5.068309,0-9.176758,4.108449-9.176758,9.176372Z" fill="none" stroke="#000" stroke-linecap="round" stroke-linejoin="round"/><circle cx="307.91362" cy="312.084558" r="29.463118" fill="none" stroke="#000" stroke-linecap="round" stroke-linejoin="round"/><circle cx="307.91362" cy="312.084462" r="27.744719" fill="none" stroke="#000" stroke-linecap="round" stroke-linejoin="round"/><path d="M290.506456,312.001193c0,9.614041,7.79351,17.407551,17.407164,17.407551s17.4072-7.79351,17.4072-17.407551c0-9.613655-7.793546-17.407165-17.4072-17.407165s-17.407164,7.79351-17.407164,17.407165Z" fill="none" stroke="#000" stroke-linecap="round" stroke-linejoin="round"/><circle cx="307.91362" cy="312.001193" r="16.540319" fill="none" stroke="#000" stroke-linecap="round" stroke-linejoin="round"/><path d="M292.144818,312.001193c0,8.708986,7.059817,15.769188,15.768802,15.769188s15.768802-7.060203,15.768802-15.769188c0-8.7086-7.059817-15.768803-15.768802-15.768803s-15.768802,7.060203-15.768802,15.768803Z" fill="none" stroke="#000" stroke-linecap="round" stroke-linejoin="round"/><path d="M298.736862,312.001193c0,5.068309,4.108449,9.176758,9.176758,9.176758,5.068345,0,9.176758-4.108449,9.176758-9.176758,0-5.067923-4.108413-9.176372-9.176758-9.176372-5.068309,0-9.176758,4.108449-9.176758,9.176372Z" fill="none" stroke="#000" stroke-linecap="round" stroke-linejoin="round"/><circle cx="373.00521" cy="312.084558" r="29.463118" fill="none" stroke="#000" stroke-linecap="round" stroke-linejoin="round"/><circle cx="373.00521" cy="312.084462" r="27.744719" fill="none" stroke="#000" stroke-linecap="round" stroke-linejoin="round"/><path d="M355.598046,312.001193c0,9.614041,7.79351,17.407551,17.407164,17.407551s17.4072-7.79351,17.4072-17.407551c0-9.613655-7.793546-17.407165-17.4072-17.407165s-17.407164,7.79351-17.407164,17.407165Z" fill="none" stroke="#000" stroke-linecap="round" stroke-linejoin="round"/><circle cx="373.00521" cy="312.001193" r="16.540319" fill="none" stroke="#000" stroke-linecap="round" stroke-linejoin="round"/><path d="M357.236408,312.001193c0,8.708986,7.059817,15.769188,15.768802,15.769188s15.768802-7.060203,15.768802-15.769188c0-8.7086-7.059817-15.768803-15.768802-15.768803s-15.768802,7.060203-15.768802,15.768803Z" fill="none" stroke="#000" stroke-linecap="round" stroke-linejoin="round"/><path d="M363.828452,312.001193c0,5.068309,4.108449,9.176758,9.176758,9.176758,5.068345,0,9.176758-4.108449,9.176758-9.176758,0-5.067923-4.108413-9.176372-9.176758-9.176372-5.068309,0-9.176758,4.108449-9.176758,9.176372Z" fill="none" stroke="#000" stroke-linecap="round" stroke-linejoin="round"/><path d="M289.999909,214.752153c1.604111-.83939,8.026062-4.874152,12.264994-25.137871,1.881931-8.996351,2.685191-18.09187,3.055101-24.218193" fill="none" stroke="#333" stroke-miterlimit="10" stroke-width="2"/><text transform="translate(138.258301 142.699707)" fill="#333" font-family="ComicNeue-Bold, &apos;Comic Neue&apos;" font-size="24" font-weight="700"><tspan x="0" y="0">Haha try attacking me now!</tspan></text></g></g></svg>