<?xml version="1.0" encoding="UTF-8"?><svg id="uuid-cacf9624-080e-41b2-9902-eb55342e5394" xmlns="http://www.w3.org/2000/svg" viewBox="0 0 500 500"><path d="M258,194H88v170h170v-170h0ZM255,197v164H91v-164h164" fill="#b0bec5"/><line x1="257" y1="224" x2="88" y2="224" fill="none" stroke="#b0bec5" stroke-miterlimit="10" stroke-width="2"/><line x1="257" y1="251" x2="88" y2="251" fill="none" stroke="#b0bec5" stroke-miterlimit="10" stroke-width="2"/><line x1="257" y1="279" x2="88" y2="279" fill="none" stroke="#b0bec5" stroke-miterlimit="10" stroke-width="2"/><line x1="257" y1="307" x2="88" y2="307" fill="none" stroke="#b0bec5" stroke-miterlimit="10" stroke-width="2"/><line x1="257" y1="335" x2="88" y2="335" fill="none" stroke="#b0bec5" stroke-miterlimit="10" stroke-width="2"/><polygon points="89 362.95749 88.886636 354.228447 127.033665 285.47311 160.617786 316.520704 299.95497 130 304.900487 130 305.098874 137.311987 161.7656 329.160801 129.145072 299.005946 93.747123 363 89 362.95749" fill="#e53935"/><path d="M258,194H88v170h170v-170h0ZM255,197v164H91v-164h164" fill="none" stroke="#000" stroke-linecap="round" stroke-linejoin="round"/><line x1="257" y1="224" x2="88" y2="224" fill="none" stroke="#000" stroke-linecap="round" stroke-linejoin="round"/><line x1="257" y1="251" x2="88" y2="251" fill="none" stroke="#000" stroke-linecap="round" stroke-linejoin="round"/><line x1="257" y1="279" x2="88" y2="279" fill="none" stroke="#000" stroke-linecap="round" stroke-linejoin="round"/><line x1="257" y1="307" x2="88" y2="307" fill="none" stroke="#000" stroke-linecap="round" stroke-linejoin="round"/><line x1="257" y1="335" x2="88" y2="335" fill="none" stroke="#000" stroke-linecap="round" stroke-linejoin="round"/><polygon points="89 362.95749 88.886636 354.228447 127.033665 285.47311 160.617786 316.520704 299.95497 130 304.900487 130 305.098874 137.311987 161.7656 329.160801 129.145072 299.005946 93.747123 363 89 362.95749" fill="none" stroke="#000" stroke-linecap="round" stroke-linejoin="round"/><g id="uuid-4b908ee2-3781-4262-a44d-f02741a3b800"><path d="M284.069403,184.441716c.310987-1.847221,1.598582-8.423536.425566-14.88068-.747458-4.111553-3.33355-9.479866-6.219719-12.193818-5.570469-5.238305-13.328756-7.367215-20.46507-7.367219-7.136314-.000003-14.507234,2.128901-20.077708,7.367201-2.886172,2.713949-5.472269,8.087676-6.219729,12.193812-1.173021,6.457141.114568,13.033459.425554,14.88068.420103,2.518937-.692902,5.303307-.911139,7.811407-.234605,2.730201,1.063898,4.848273,3.388111,6.348803,1.936843,1.251342,4.195585,1.912225,6.290649,2.881882,2.493345,1.153835.229144,5.319558,1.151192,7.421379.46375,1.061745,1.478547,1.793048,2.52608,2.307672,1.331238.660883,2.864346,1.072582,4.31016.709636-.218237.05417.414647,1.316347,1.2494,1.830967.763826.465868,1.707696.942569,2.586094,1.132166,1.745888.379194,3.475407-.260019,4.555675-.812558.589238-.303354,1.276678-.303354,1.860463,0,1.080269.552539,2.809788,1.191754,4.555674.812562,1.314874-.287103,2.487889-1.061743,3.328098-2.074736.392826-.4767,1.003884-.736721,1.620403-.693383,1.833182.119177,4.637514-.622961,5.854178-3.369413.681988-1.527612-.005456-3.326078.447386-4.924115.769285-2.708532,3.453586-3.380246,5.614122-4.642423,2.864347-1.668456,4.555676-3.537341,4.632059-6.170035.076383-2.7952-1.287589-6.408382-.927497-8.56979Z" fill="#ccc"/><ellipse cx="244.808046" cy="182.58394" rx="7.446654" ry="6.810709" transform="translate(1.338177 366.948518) rotate(-73.850874)" fill="#424242"/><ellipse cx="271.196974" cy="182.583027" rx="6.810709" ry="7.446653" transform="translate(-40.082111 82.634582) rotate(-16.149083)" fill="#424242"/><path d="M253.62003,194.804548c.000001-2.39976,1.958671-8.347695,4.381091-8.347694,2.42242.000001,4.381083,5.942524,4.381082,8.347702-.000002,4.880777-4.381086,1.554697-4.381086,1.554697,0,0-4.381089,3.607758-4.381087-1.554705Z" fill="#424242"/><path d="M246.336399,211.987477c-.654708-.124595-1.27668-.325024-1.833182-.731304.463751-.108339.927503-.227515,1.353063-.433366,1.058444-.525456,1.031165-1.370516,1.265769-2.410592.201868-.910067.398281-1.820134.632885-2.724783.158222-.606713.561957-1.186338,1.189386-1.099663.785649.10834.862033.660883.73109,1.500526-.125486.780059-1.074815,5.920852-1.074815,5.926271-.043648.232934-1.620402.075838-1.773167.054169-.163677-.021669-.327353-.048756-.49103-.081257Z" fill="#8abfd1"/><path d="M270.020453,211.987488c.654706-.124594,1.276678-.325023,1.833182-.731302-.46375-.10834-.927501-.227516-1.353064-.433368-1.058445-.525456-1.031164-1.370517-1.265767-2.410593-.201869-.910067-.398282-1.820135-.632885-2.724784-.158221-.606713-.561956-1.186339-1.189385-1.099664-.785651.108339-.862033.660882-.731089,1.500525.125487.780059,1.07481,5.920853,1.07481,5.926272.043648.232934,1.620402.075839,1.773167.054171.163679-.021669.327353-.048756.491032-.081257Z" fill="#8abfd1"/><path d="M255.52413,214.706846s1.23849-1.65762,1.282137-2.789789c.08184-2.020567.196415-4.750765.196416-6.332551,0-.628382.381914-1.1105,1.020255-1.1105.632886,0,.987516.422531.987516,1.050912,0,.027087.147306,3.699857.147305,6.256713,0,1.18092,1.331239,2.919799,1.331239,2.919799-.54559-.243767-1.500372-.715053-2.482435-.671716-1.243942.059588-2.482432.677132-2.482432.677132Z" fill="#8abfd1"/><path d="M284.069403,184.441716c.310987-1.847221,1.598582-8.423536.425566-14.88068-.747458-4.111553-3.33355-9.479866-6.219719-12.193818-5.570469-5.238305-13.328756-7.367215-20.46507-7.367219-7.136314-.000003-14.507234,2.128901-20.077708,7.367201-2.886172,2.713949-5.472269,8.087676-6.219729,12.193812-1.173021,6.457141.114568,13.033459.425554,14.88068.420103,2.518937-.692902,5.303307-.911139,7.811407-.234605,2.730201,1.063898,4.848273,3.388111,6.348803,1.936843,1.251342,4.195585,1.912225,6.290649,2.881882,2.493345,1.153835.229144,5.319558,1.151192,7.421379.46375,1.061745,1.478547,1.793048,2.52608,2.307672,1.331238.660883,2.864346,1.072582,4.31016.709636-.218237.05417.414647,1.316347,1.2494,1.830967.763826.465868,1.707696.942569,2.586094,1.132166,1.745888.379194,3.475407-.260019,4.555675-.812558.589238-.303354,1.276678-.303354,1.860463,0,1.080269.552539,2.809788,1.191754,4.555674.812562,1.314874-.287103,2.487889-1.061743,3.328098-2.074736.392826-.4767,1.003884-.736721,1.620403-.693383,1.833182.119177,4.637514-.622961,5.854178-3.369413.681988-1.527612-.005456-3.326078.447386-4.924115.769285-2.708532,3.453586-3.380246,5.614122-4.642423,2.864347-1.668456,4.555676-3.537341,4.632059-6.170035.076383-2.7952-1.287589-6.408382-.927497-8.56979Z" fill="none" stroke="#000" stroke-linecap="round" stroke-linejoin="round"/><ellipse cx="244.808046" cy="182.58394" rx="7.446654" ry="6.810709" transform="translate(1.338177 366.948518) rotate(-73.850874)" fill="none" stroke="#000" stroke-linecap="round" stroke-linejoin="round"/><ellipse cx="271.196974" cy="182.583027" rx="6.810709" ry="7.446653" transform="translate(-40.082111 82.634582) rotate(-16.149083)" fill="none" stroke="#000" stroke-linecap="round" stroke-linejoin="round"/><path d="M253.62003,194.804548c.000001-2.39976,1.958671-8.347695,4.381091-8.347694,2.42242.000001,4.381083,5.942524,4.381082,8.347702-.000002,4.880777-4.381086,1.554697-4.381086,1.554697,0,0-4.381089,3.607758-4.381087-1.554705Z" fill="none" stroke="#000" stroke-linecap="round" stroke-linejoin="round"/><path d="M246.336399,211.987477c-.654708-.124595-1.27668-.325024-1.833182-.731304.463751-.108339.927503-.227515,1.353063-.433366,1.058444-.525456,1.031165-1.370516,1.265769-2.410592.201868-.910067.398281-1.820134.632885-2.724783.158222-.606713.561957-1.186338,1.189386-1.099663.785649.10834.862033.660883.73109,1.500526-.125486.780059-1.074815,5.920852-1.074815,5.926271-.043648.232934-1.620402.075838-1.773167.054169-.163677-.021669-.327353-.048756-.49103-.081257Z" fill="none" stroke="#000" stroke-linecap="round" stroke-linejoin="round"/><path d="M270.020453,211.987488c.654706-.124594,1.276678-.325023,1.833182-.731302-.46375-.10834-.927501-.227516-1.353064-.433368-1.058445-.525456-1.031164-1.370517-1.265767-2.410593-.201869-.910067-.398282-1.820135-.632885-2.724784-.158221-.606713-.561956-1.186339-1.189385-1.099664-.785651.108339-.862033.660882-.731089,1.500525.125487.780059,1.07481,5.920853,1.07481,5.926272.043648.232934,1.620402.075839,1.773167.054171.163679-.021669.327353-.048756.491032-.081257Z" fill="none" stroke="#000" stroke-linecap="round" stroke-linejoin="round"/><path d="M255.52413,214.706846s1.23849-1.65762,1.282137-2.789789c.08184-2.020567.196415-4.750765.196416-6.332551,0-.628382.381914-1.1105,1.020255-1.1105.632886,0,.987516.422531.987516,1.050912,0,.027087.147306,3.699857.147305,6.256713,0,1.18092,1.331239,2.919799,1.331239,2.919799-.54559-.243767-1.500372-.715053-2.482435-.671716-1.243942.059588-2.482432.677132-2.482432.677132Z" fill="none" stroke="#000" stroke-linecap="round" stroke-linejoin="round"/><path d="M284.069403,184.441716c.310987-1.847221,1.598582-8.423536.425566-14.88068-.747458-4.111553-3.33355-9.479866-6.219719-12.193818-5.570469-5.238305-13.328756-7.367215-20.46507-7.367219-7.136314-.000003-14.507234,2.128901-20.077708,7.367201-2.886172,2.713949-5.472269,8.087676-6.219729,12.193812-1.173021,6.457141.114568,13.033459.425554,14.88068.420103,2.518937-.692902,5.303307-.911139,7.811407-.234605,2.730201,1.063898,4.848273,3.388111,6.348803,1.936843,1.251342,4.195585,1.912225,6.290649,2.881882,2.493345,1.153835.229144,5.319558,1.151192,7.421379.46375,1.061745,1.478547,1.793048,2.52608,2.307672,1.331238.660883,2.864346,1.072582,4.31016.709636-.218237.05417.414647,1.316347,1.2494,1.830967.763826.465868,1.707696.942569,2.586094,1.132166,1.745888.379194,3.475407-.260019,4.555675-.812558.589238-.303354,1.276678-.303354,1.860463,0,1.080269.552539,2.809788,1.191754,4.555674.812562,1.314874-.287103,2.487889-1.061743,3.328098-2.074736.392826-.4767,1.003884-.736721,1.620403-.693383,1.833182.119177,4.637514-.622961,5.854178-3.369413.681988-1.527612-.005456-3.326078.447386-4.924115.769285-2.708532,3.453586-3.380246,5.614122-4.642423,2.864347-1.668456,4.555676-3.537341,4.632059-6.170035.076383-2.7952-1.287589-6.408382-.927497-8.56979Z" fill="none" stroke="#000" stroke-linecap="round" stroke-linejoin="round"/><ellipse cx="244.808046" cy="182.58394" rx="7.446654" ry="6.810709" transform="translate(1.338177 366.948518) rotate(-73.850874)" fill="none" stroke="#000" stroke-linecap="round" stroke-linejoin="round"/><ellipse cx="271.196974" cy="182.583027" rx="6.810709" ry="7.446653" transform="translate(-40.082111 82.634582) rotate(-16.149083)" fill="none" stroke="#000" stroke-linecap="round" stroke-linejoin="round"/><path d="M253.62003,194.804548c.000001-2.39976,1.958671-8.347695,4.381091-8.347694,2.42242.000001,4.381083,5.942524,4.381082,8.347702-.000002,4.880777-4.381086,1.554697-4.381086,1.554697,0,0-4.381089,3.607758-4.381087-1.554705Z" fill="none" stroke="#000" stroke-linecap="round" stroke-linejoin="round"/><path d="M246.336399,211.987477c-.654708-.124595-1.27668-.325024-1.833182-.731304.463751-.108339.927503-.227515,1.353063-.433366,1.058444-.525456,1.031165-1.370516,1.265769-2.410592.201868-.910067.398281-1.820134.632885-2.724783.158222-.606713.561957-1.186338,1.189386-1.099663.785649.10834.862033.660883.73109,1.500526-.125486.780059-1.074815,5.920852-1.074815,5.926271-.043648.232934-1.620402.075838-1.773167.054169-.163677-.021669-.327353-.048756-.49103-.081257Z" fill="none" stroke="#000" stroke-linecap="round" stroke-linejoin="round"/><path d="M270.020453,211.987488c.654706-.124594,1.276678-.325023,1.833182-.731302-.46375-.10834-.927501-.227516-1.353064-.433368-1.058445-.525456-1.031164-1.370517-1.265767-2.410593-.201869-.910067-.398282-1.820135-.632885-2.724784-.158221-.606713-.561956-1.186339-1.189385-1.099664-.785651.108339-.862033.660882-.731089,1.500525.125487.780059,1.07481,5.920853,1.07481,5.926272.043648.232934,1.620402.075839,1.773167.054171.163679-.021669.327353-.048756.491032-.081257Z" fill="none" stroke="#000" stroke-linecap="round" stroke-linejoin="round"/><path d="M255.52413,214.706846s1.23849-1.65762,1.282137-2.789789c.08184-2.020567.196415-4.750765.196416-6.332551,0-.628382.381914-1.1105,1.020255-1.1105.632886,0,.987516.422531.987516,1.050912,0,.027087.147306,3.699857.147305,6.256713,0,1.18092,1.331239,2.919799,1.331239,2.919799-.54559-.243767-1.500372-.715053-2.482435-.671716-1.243942.059588-2.482432.677132-2.482432.677132Z" fill="none" stroke="#000" stroke-linecap="round" stroke-linejoin="round"/></g><g id="uuid-d5397426-fd76-4460-bf02-7721f0bd90c0"><polygon id="uuid-66a0c44c-c62b-4a78-ac75-c63b59debce2" points="391 365 377 365 377 389.97128 377 395 398 395 398 390 391 390 391 365" fill="#5f5f5f"/><rect id="uuid-d58e9ea4-ff9d-4f65-ba08-fc378328a9e6" x="368.452793" y="336.333805" width="18.000014" height="35" transform="translate(-114.798198 194.592063) rotate(-25.223871)" fill="#727272"/><polygon id="uuid-8c3d0fd3-54d5-4a04-b9e4-d941995cd9f6" points="332.432846 358.065979 336.876933 371.381309 312.778646 379.424286 315.000693 386.081961 310.181036 387.690556 303.514894 367.71753 308.362236 366.099695 308.362243 366.099716 332.432846 358.065979" fill="#5f5f5f"/><rect id="uuid-e77227e5-67f9-4817-bf73-1d6012ba9205" x="322.059569" y="343.423439" width="35" height="18.000027" transform="translate(-139.232937 453.718703) rotate(-58.010576)" fill="#727272"/><path id="uuid-d4ae0f93-2a07-4d95-8a42-6796940a14f1" d="M339,272v71h40v-71h-40Z" fill="#727272"/><rect id="uuid-a6a64d27-3604-4cb7-a46c-d08631654427" x="339" y="313" width="40" height="12" fill="#acacac"/><rect id="uuid-f1df2ee3-c378-42e2-a7e2-5ae8a5a5a361" x="367" y="271" width="5" height="42" fill="#acacac"/><rect id="uuid-8d63c757-6ea8-4b9d-b26a-34af3a90b2ae" x="346" y="271" width="5" height="42" fill="#acacac"/><path id="uuid-e90a9767-8bd4-45c8-b07f-f0eee37c9a55" d="M378.379223,261c1.423211-3.810436,2.227872-8.103682,2.227872-12.649544,0-15.696626-9.543481-28.421283-21.315962-28.421283s-21.315962,12.724656-21.315962,28.421283c0,4.545861.804661,8.839107,2.227872,12.649544h38.17618Z" fill="#ccc"/><path id="uuid-ce3adffb-88bc-41e7-8888-0fd47f7e4b9e" d="M341.308783,267c3.784134,7.914687,10.420978,13.168782,17.982351,13.168782s14.198217-5.254095,17.982351-13.168782h-35.964701Z" fill="#ccc"/><ellipse id="uuid-65cbc249-bcb8-49a1-8dde-753842bebcfd" cx="358" cy="247.499741" rx="4.588077" ry="2.860906" transform="translate(28.546415 531.894638) rotate(-75.459471)" fill="#333"/><ellipse id="uuid-3c215b37-963f-4b40-a620-b067856e7194" cx="344" cy="243.499741" rx="4.588077" ry="2.860906" transform="translate(21.933203 515.347313) rotate(-75.459471)" fill="#333"/><rect id="uuid-c622a463-9879-43e3-958b-8551bd931210" x="385.200109" y="249.202733" width="22.737023" height="10.657961" transform="translate(-8.901085 494.630406) rotate(-63.325653)" fill="#727272"/><rect id="uuid-88f89d37-b080-48c5-8c06-7a13cc5f155f" x="373.032823" y="265.469572" width="22.737023" height="10.657961" transform="translate(-83.934241 312.72743) rotate(-40.279386)" fill="#727272"/><rect id="uuid-14c2a11f-a8c4-4624-a67b-d82d1f4607cd" x="327.305454" y="260.874016" width="10.657961" height="22.737023" transform="translate(-81.760561 386.428552) rotate(-54.703868)" fill="#727272"/><rect id="uuid-6984797a-7db9-4ca8-aab7-bcf3895b5cee" x="311.020819" y="246.575946" width="10.657961" height="22.737023" transform="translate(-90.684099 288.537657) rotate(-43.491366)" fill="#727272"/><rect id="uuid-75ad1ed1-7483-44e3-bfec-de51bed7e0e5" x="398.643877" y="233.402126" width="11.368513" height="11.368513" transform="translate(9.176775 493.052802) rotate(-63.325703)" fill="#ccc"/><rect id="uuid-c93518b5-5502-4495-9498-716e2d6fb2d1" x="298.929045" y="239.8888" width="11.368513" height="11.368513" transform="translate(-85.39144 277.064181) rotate(-43.491415)" fill="#ccc"/><circle id="uuid-bbe953a1-196d-4b4c-a6be-c726e69f860c" cx="358.5" cy="305.5" r="1.5" fill="#333"/><circle id="uuid-903fe0fc-c497-4b81-bede-6f6114560a3c" cx="358.5" cy="299.5" r="1.5" fill="#333"/><circle id="uuid-908d5364-8c38-40d9-ab69-22adb2556a8a" cx="358.5" cy="293.5" r="1.5" fill="#333"/><circle id="uuid-73aeb616-bae3-4a78-95fb-5c6322b77199" cx="358.5" cy="286.5" r="1.5" fill="#333"/><path d="M385.591604,238.550456c1.454533-9.898563-6.244527-20.096468-18.147054-23.44867-11.902527-3.352202-23.792055,1.328814-27.717175,10.531566-4.138631-.551637-6.724411-.503217-6.945023.280099-.518205,1.839969,12.176927,7.025289,28.355364,11.58175,16.178437,4.556461,29.713739,6.758624,30.231944,4.918655.220612-.783316-1.959838-2.174087-5.778056-3.8634Z" fill="#6a6a6a"/><polygon id="uuid-85ea6e69-e725-4e2f-9b59-b74edd76abb7" points="391 365 377 365 377 389.97128 377 395 398 395 398 390 391 390 391 365" fill="none" stroke="#000" stroke-linecap="round" stroke-linejoin="round"/><rect id="uuid-0dfb0d28-cceb-44ea-a443-de667a2df0dc" x="368.452793" y="336.333805" width="18.000014" height="35" transform="translate(-114.798198 194.592063) rotate(-25.223871)" fill="none" stroke="#000" stroke-linecap="round" stroke-linejoin="round"/><polygon id="uuid-6f33e79c-e828-4354-8262-4ed6db1b22f7" points="332.432846 358.065979 336.876933 371.381309 312.778646 379.424286 315.000693 386.081961 310.181036 387.690556 303.514894 367.71753 308.362236 366.099695 308.362243 366.099716 332.432846 358.065979" fill="none" stroke="#000" stroke-linecap="round" stroke-linejoin="round"/><rect id="uuid-5cc4d90e-e6ae-4e09-a3e5-0aabf5d7ddca" x="322.059569" y="343.423439" width="35" height="18.000027" transform="translate(-139.232937 453.718703) rotate(-58.010576)" fill="none" stroke="#000" stroke-linecap="round" stroke-linejoin="round"/><path id="uuid-95fa6fee-ce61-4cda-8f9f-64b2b66df515" d="M339,272v71h40v-71h-40Z" fill="none" stroke="#000" stroke-linecap="round" stroke-linejoin="round"/><rect id="uuid-b781287d-8b6c-434e-8383-67ae3225d1f6" x="339" y="313" width="40" height="12" fill="none" stroke="#000" stroke-linecap="round" stroke-linejoin="round"/><rect id="uuid-031f873e-fcf5-4e41-9a2c-d25f0d06ff44" x="367" y="271" width="5" height="42" fill="none" stroke="#000" stroke-linecap="round" stroke-linejoin="round"/><rect id="uuid-fabab778-a4a9-4a1a-9ff2-f6df8db1a627" x="346" y="271" width="5" height="42" fill="none" stroke="#000" stroke-linecap="round" stroke-linejoin="round"/><path id="uuid-58b47ea0-99c8-483e-bd6e-f169dcf72f63" d="M378.379223,261c1.423211-3.810436,2.227872-8.103682,2.227872-12.649544,0-15.696626-9.543481-28.421283-21.315962-28.421283s-21.315962,12.724656-21.315962,28.421283c0,4.545861.804661,8.839107,2.227872,12.649544h38.17618Z" fill="none" stroke="#000" stroke-linecap="round" stroke-linejoin="round"/><path id="uuid-79c8a043-4a47-4963-a625-881e5a531483" d="M341.308783,267c3.784134,7.914687,10.420978,13.168782,17.982351,13.168782s14.198217-5.254095,17.982351-13.168782h-35.964701Z" fill="none" stroke="#000" stroke-linecap="round" stroke-linejoin="round"/><ellipse id="uuid-15b86c6e-9355-4292-a1b5-e59b7dcdd95a" cx="358" cy="247.499741" rx="4.588077" ry="2.860906" transform="translate(28.546415 531.894638) rotate(-75.459471)" fill="none" stroke="#000" stroke-linecap="round" stroke-linejoin="round"/><ellipse id="uuid-0cf88a3e-15cb-478a-962e-00fb22ad8477" cx="344" cy="243.499741" rx="4.588077" ry="2.860906" transform="translate(21.933203 515.347313) rotate(-75.459471)" fill="none" stroke="#000" stroke-linecap="round" stroke-linejoin="round"/><rect id="uuid-6138c8bd-1ebf-4572-bb3e-5dfe9940cd4d" x="385.200109" y="249.202733" width="22.737023" height="10.657961" transform="translate(-8.901085 494.630406) rotate(-63.325653)" fill="none" stroke="#000" stroke-linecap="round" stroke-linejoin="round"/><rect id="uuid-651676cc-9d16-4e40-9b11-2a40e35ba650" x="373.032823" y="265.469572" width="22.737023" height="10.657961" transform="translate(-83.934241 312.72743) rotate(-40.279386)" fill="none" stroke="#000" stroke-linecap="round" stroke-linejoin="round"/><rect id="uuid-c026de9f-9654-48f1-8fa2-78a35ab35281" x="327.305454" y="260.874016" width="10.657961" height="22.737023" transform="translate(-81.760561 386.428552) rotate(-54.703868)" fill="none" stroke="#000" stroke-linecap="round" stroke-linejoin="round"/><rect id="uuid-72ec694a-bbcc-4d38-8a23-7a3358921b95" x="311.020819" y="246.575946" width="10.657961" height="22.737023" transform="translate(-90.684099 288.537657) rotate(-43.491366)" fill="none" stroke="#000" stroke-linecap="round" stroke-linejoin="round"/><rect id="uuid-410338bc-f1b8-4df7-8a42-4cb68f1d67a5" x="398.643877" y="233.402126" width="11.368513" height="11.368513" transform="translate(9.176775 493.052802) rotate(-63.325703)" fill="none" stroke="#000" stroke-linecap="round" stroke-linejoin="round"/><rect id="uuid-850f2bd8-8001-43d6-8cee-967a39e2251a" x="298.929045" y="239.8888" width="11.368513" height="11.368513" transform="translate(-85.39144 277.064181) rotate(-43.491415)" fill="none" stroke="#000" stroke-linecap="round" stroke-linejoin="round"/><circle id="uuid-edbff3ac-c3fb-4d59-b04f-a52dcc41fa41" cx="358.5" cy="305.5" r="1.5" fill="none" stroke="#000" stroke-linecap="round" stroke-linejoin="round"/><circle id="uuid-c28657e8-ea64-4c4a-b5cc-8aa2d5823f5b" cx="358.5" cy="299.5" r="1.5" fill="none" stroke="#000" stroke-linecap="round" stroke-linejoin="round"/><circle id="uuid-38b6c246-0db4-4e1b-8152-2a4e7ee789a5" cx="358.5" cy="293.5" r="1.5" fill="none" stroke="#000" stroke-linecap="round" stroke-linejoin="round"/><circle id="uuid-5e0b9874-f2a4-46e5-ad75-d14f5bcf85b2" cx="358.5" cy="286.5" r="1.5" fill="none" stroke="#000" stroke-linecap="round" stroke-linejoin="round"/><path d="M385.591604,238.550456c1.454533-9.898563-6.244527-20.096468-18.147054-23.44867-11.902527-3.352202-23.792055,1.328814-27.717175,10.531566-4.138631-.551637-6.724411-.503217-6.945023.280099-.518205,1.839969,12.176927,7.025289,28.355364,11.58175,16.178437,4.556461,29.713739,6.758624,30.231944,4.918655.220612-.783316-1.959838-2.174087-5.778056-3.8634Z" fill="none" stroke="#000" stroke-linecap="round" stroke-linejoin="round"/></g><path d="M214.040803,169c-1.583215-.782411-7.854298-4.1354-10.239308-12.10804-1.058858-3.539561-.98695-6.77015-.760692-8.89196" fill="none" stroke="#333" stroke-miterlimit="10" stroke-width="2"/><text transform="translate(94.368958 130.325317)" fill="#333" font-family="ComicNeue-Bold, &apos;Comic Neue&apos;" font-size="24" font-weight="700"><tspan x="0" y="0">You are next.</tspan></text></svg>