<?xml version="1.0" encoding="UTF-8"?><svg id="uuid-324cac59-db5e-464f-8a23-a115343976c4" xmlns="http://www.w3.org/2000/svg" viewBox="0 0 500 500"><path d="M258,194H88v170h170v-170h0ZM255,197v164H91v-164h164" fill="#b0bec5"/><line x1="257" y1="224" x2="88" y2="224" fill="none" stroke="#b0bec5" stroke-miterlimit="10" stroke-width="2"/><line x1="257" y1="251" x2="88" y2="251" fill="none" stroke="#b0bec5" stroke-miterlimit="10" stroke-width="2"/><line x1="257" y1="279" x2="88" y2="279" fill="none" stroke="#b0bec5" stroke-miterlimit="10" stroke-width="2"/><line x1="257" y1="307" x2="88" y2="307" fill="none" stroke="#b0bec5" stroke-miterlimit="10" stroke-width="2"/><line x1="257" y1="335" x2="88" y2="335" fill="none" stroke="#b0bec5" stroke-miterlimit="10" stroke-width="2"/><polygon points="89 362.96 88.89 354.23 127.03 285.47 160.62 316.52 299.95 130 304.9 130 305.1 137.31 161.77 329.16 129.15 299.01 93.75 363 89 362.96" fill="#e53935"/><path d="M258,194H88v170h170v-170h0ZM255,197v164H91v-164h164" fill="none" stroke="#000" stroke-linecap="round" stroke-linejoin="round"/><line x1="257" y1="224" x2="88" y2="224" fill="none" stroke="#000" stroke-linecap="round" stroke-linejoin="round"/><line x1="257" y1="251" x2="88" y2="251" fill="none" stroke="#000" stroke-linecap="round" stroke-linejoin="round"/><line x1="257" y1="279" x2="88" y2="279" fill="none" stroke="#000" stroke-linecap="round" stroke-linejoin="round"/><line x1="257" y1="307" x2="88" y2="307" fill="none" stroke="#000" stroke-linecap="round" stroke-linejoin="round"/><line x1="257" y1="335" x2="88" y2="335" fill="none" stroke="#000" stroke-linecap="round" stroke-linejoin="round"/><polygon points="89 362.96 88.89 354.23 127.03 285.47 160.62 316.52 299.95 130 304.9 130 305.1 137.31 161.77 329.16 129.15 299.01 93.75 363 89 362.96" fill="none" stroke="#000" stroke-linecap="round" stroke-linejoin="round"/><g id="uuid-45d25170-2050-48fc-ac7d-44832615c6b7"><path d="M284.07,184.44c.31-1.85,1.6-8.42.43-14.88-.75-4.11-3.33-9.48-6.22-12.19-5.57-5.24-13.33-7.37-20.47-7.37-7.14,0-14.51,2.13-20.08,7.37-2.89,2.71-5.47,8.09-6.22,12.19-1.17,6.46.11,13.03.43,14.88.42,2.52-.69,5.3-.91,7.81-.23,2.73,1.06,4.85,3.39,6.35,1.94,1.25,4.2,1.91,6.29,2.88,2.49,1.15.23,5.32,1.15,7.42.46,1.06,1.48,1.79,2.53,2.31,1.33.66,2.86,1.07,4.31.71-.22.05.41,1.32,1.25,1.83.76.47,1.71.94,2.59,1.13,1.75.38,3.48-.26,4.56-.81.59-.3,1.28-.3,1.86,0,1.08.55,2.81,1.19,4.56.81,1.31-.29,2.49-1.06,3.33-2.07.39-.48,1-.74,1.62-.69,1.83.12,4.64-.62,5.85-3.37.68-1.53,0-3.33.45-4.92.77-2.71,3.45-3.38,5.61-4.64,2.86-1.67,4.56-3.54,4.63-6.17.08-2.8-1.29-6.41-.93-8.57Z" fill="#ccc"/><ellipse cx="245" cy="182.5" rx="7.55" ry="6.94" transform="translate(-2.15 362.08) rotate(-72.68)" fill="#424242"/><ellipse cx="271" cy="182.5" rx="6.94" ry="7.55" transform="translate(-42.04 88.93) rotate(-17.32)" fill="#424242"/><path d="M253.62,194.8c0-2.4,1.96-8.35,4.38-8.35,2.42,0,4.38,5.94,4.38,8.35,0,4.88-4.38,1.55-4.38,1.55,0,0-4.38,3.61-4.38-1.55Z" fill="#424242"/><path d="M246.34,211.99c-.65-.12-1.28-.33-1.83-.73.46-.11.93-.23,1.35-.43,1.06-.53,1.03-1.37,1.27-2.41.2-.91.4-1.82.63-2.72.16-.61.56-1.19,1.19-1.1.79.11.86.66.73,1.5-.13.78-1.07,5.92-1.07,5.93-.04.23-1.62.08-1.77.05-.16-.02-.33-.05-.49-.08Z" fill="#8abfd1"/><path d="M270.02,211.99c.65-.12,1.28-.33,1.83-.73-.46-.11-.93-.23-1.35-.43-1.06-.53-1.03-1.37-1.27-2.41-.2-.91-.4-1.82-.63-2.72-.16-.61-.56-1.19-1.19-1.1-.79.11-.86.66-.73,1.5.13.78,1.07,5.92,1.07,5.93.04.23,1.62.08,1.77.05.16-.02.33-.05.49-.08Z" fill="#8abfd1"/><path d="M255.52,214.71s1.24-1.66,1.28-2.79c.08-2.02.2-4.75.2-6.33,0-.63.38-1.11,1.02-1.11s.99.42.99,1.05c0,.03.15,3.7.15,6.26,0,1.18,1.33,2.92,1.33,2.92-.55-.24-1.5-.72-2.48-.67-1.24.06-2.48.68-2.48.68Z" fill="#8abfd1"/><path d="M284.07,184.44c.31-1.85,1.6-8.42.43-14.88-.75-4.11-3.33-9.48-6.22-12.19-5.57-5.24-13.33-7.37-20.47-7.37-7.14,0-14.51,2.13-20.08,7.37-2.89,2.71-5.47,8.09-6.22,12.19-1.17,6.46.11,13.03.43,14.88.42,2.52-.69,5.3-.91,7.81-.23,2.73,1.06,4.85,3.39,6.35,1.94,1.25,4.2,1.91,6.29,2.88,2.49,1.15.23,5.32,1.15,7.42.46,1.06,1.48,1.79,2.53,2.31,1.33.66,2.86,1.07,4.31.71-.22.05.41,1.32,1.25,1.83.76.47,1.71.94,2.59,1.13,1.75.38,3.48-.26,4.56-.81.59-.3,1.28-.3,1.86,0,1.08.55,2.81,1.19,4.56.81,1.31-.29,2.49-1.06,3.33-2.07.39-.48,1-.74,1.62-.69,1.83.12,4.64-.62,5.85-3.37.68-1.53,0-3.33.45-4.92.77-2.71,3.45-3.38,5.61-4.64,2.86-1.67,4.56-3.54,4.63-6.17.08-2.8-1.29-6.41-.93-8.57Z" fill="none" stroke="#000" stroke-linecap="round" stroke-linejoin="round"/><ellipse cx="245" cy="182.5" rx="7.55" ry="6.94" transform="translate(-2.15 362.08) rotate(-72.68)" fill="none" stroke="#000" stroke-linecap="round" stroke-linejoin="round"/><ellipse cx="271" cy="182.5" rx="6.94" ry="7.55" transform="translate(-42.04 88.93) rotate(-17.32)" fill="none" stroke="#000" stroke-linecap="round" stroke-linejoin="round"/><path d="M253.62,194.8c0-2.4,1.96-8.35,4.38-8.35,2.42,0,4.38,5.94,4.38,8.35,0,4.88-4.38,1.55-4.38,1.55,0,0-4.38,3.61-4.38-1.55Z" fill="none" stroke="#000" stroke-linecap="round" stroke-linejoin="round"/><path d="M246.34,211.99c-.65-.12-1.28-.33-1.83-.73.46-.11.93-.23,1.35-.43,1.06-.53,1.03-1.37,1.27-2.41.2-.91.4-1.82.63-2.72.16-.61.56-1.19,1.19-1.1.79.11.86.66.73,1.5-.13.78-1.07,5.92-1.07,5.93-.04.23-1.62.08-1.77.05-.16-.02-.33-.05-.49-.08Z" fill="none" stroke="#000" stroke-linecap="round" stroke-linejoin="round"/><path d="M270.02,211.99c.65-.12,1.28-.33,1.83-.73-.46-.11-.93-.23-1.35-.43-1.06-.53-1.03-1.37-1.27-2.41-.2-.91-.4-1.82-.63-2.72-.16-.61-.56-1.19-1.19-1.1-.79.11-.86.66-.73,1.5.13.78,1.07,5.92,1.07,5.93.04.23,1.62.08,1.77.05.16-.02.33-.05.49-.08Z" fill="none" stroke="#000" stroke-linecap="round" stroke-linejoin="round"/><path d="M255.52,214.71s1.24-1.66,1.28-2.79c.08-2.02.2-4.75.2-6.33,0-.63.38-1.11,1.02-1.11s.99.42.99,1.05c0,.03.15,3.7.15,6.26,0,1.18,1.33,2.92,1.33,2.92-.55-.24-1.5-.72-2.48-.67-1.24.06-2.48.68-2.48.68Z" fill="none" stroke="#000" stroke-linecap="round" stroke-linejoin="round"/><path d="M284.07,184.44c.31-1.85,1.6-8.42.43-14.88-.75-4.11-3.33-9.48-6.22-12.19-5.57-5.24-13.33-7.37-20.47-7.37-7.14,0-14.51,2.13-20.08,7.37-2.89,2.71-5.47,8.09-6.22,12.19-1.17,6.46.11,13.03.43,14.88.42,2.52-.69,5.3-.91,7.81-.23,2.73,1.06,4.85,3.39,6.35,1.94,1.25,4.2,1.91,6.29,2.88,2.49,1.15.23,5.32,1.15,7.42.46,1.06,1.48,1.79,2.53,2.31,1.33.66,2.86,1.07,4.31.71-.22.05.41,1.32,1.25,1.83.76.47,1.71.94,2.59,1.13,1.75.38,3.48-.26,4.56-.81.59-.3,1.28-.3,1.86,0,1.08.55,2.81,1.19,4.56.81,1.31-.29,2.49-1.06,3.33-2.07.39-.48,1-.74,1.62-.69,1.83.12,4.64-.62,5.85-3.37.68-1.53,0-3.33.45-4.92.77-2.71,3.45-3.38,5.61-4.64,2.86-1.67,4.56-3.54,4.63-6.17.08-2.8-1.29-6.41-.93-8.57Z" fill="none" stroke="#000" stroke-linecap="round" stroke-linejoin="round"/><ellipse cx="245" cy="182.5" rx="7.55" ry="6.94" transform="translate(-2.15 362.08) rotate(-72.68)" fill="none" stroke="#000" stroke-linecap="round" stroke-linejoin="round"/><ellipse cx="271" cy="182.5" rx="6.94" ry="7.55" transform="translate(-42.04 88.93) rotate(-17.32)" fill="none" stroke="#000" stroke-linecap="round" stroke-linejoin="round"/><path d="M253.62,194.8c0-2.4,1.96-8.35,4.38-8.35,2.42,0,4.38,5.94,4.38,8.35,0,4.88-4.38,1.55-4.38,1.55,0,0-4.38,3.61-4.38-1.55Z" fill="none" stroke="#000" stroke-linecap="round" stroke-linejoin="round"/><path d="M246.34,211.99c-.65-.12-1.28-.33-1.83-.73.46-.11.93-.23,1.35-.43,1.06-.53,1.03-1.37,1.27-2.41.2-.91.4-1.82.63-2.72.16-.61.56-1.19,1.19-1.1.79.11.86.66.73,1.5-.13.78-1.07,5.92-1.07,5.93-.04.23-1.62.08-1.77.05-.16-.02-.33-.05-.49-.08Z" fill="none" stroke="#000" stroke-linecap="round" stroke-linejoin="round"/><path d="M270.02,211.99c.65-.12,1.28-.33,1.83-.73-.46-.11-.93-.23-1.35-.43-1.06-.53-1.03-1.37-1.27-2.41-.2-.91-.4-1.82-.63-2.72-.16-.61-.56-1.19-1.19-1.1-.79.11-.86.66-.73,1.5.13.78,1.07,5.92,1.07,5.93.04.23,1.62.08,1.77.05.16-.02.33-.05.49-.08Z" fill="none" stroke="#000" stroke-linecap="round" stroke-linejoin="round"/><path d="M255.52,214.71s1.24-1.66,1.28-2.79c.08-2.02.2-4.75.2-6.33,0-.63.38-1.11,1.02-1.11s.99.42.99,1.05c0,.03.15,3.7.15,6.26,0,1.18,1.33,2.92,1.33,2.92-.55-.24-1.5-.72-2.48-.67-1.24.06-2.48.68-2.48.68Z" fill="none" stroke="#000" stroke-linecap="round" stroke-linejoin="round"/></g><g id="uuid-d8b48f8b-5d00-4c6e-9217-48e80237599c"><polygon id="uuid-d946b8c6-5b89-477b-be77-f46bf00334c6" points="391 365 377 365 377 389.97 377 395 398 395 398 390 391 390 391 365" fill="#5f5f5f"/><rect id="uuid-96cfef54-a99a-4403-aa1e-c297b3808a86" x="368.45" y="336.33" width="18" height="35" transform="translate(-114.8 194.59) rotate(-25.22)" fill="#727272"/><polygon id="uuid-76771a00-11da-42ab-a491-832abd1b9c0f" points="332.43 358.07 336.88 371.38 312.78 379.42 315 386.08 310.18 387.69 303.51 367.72 308.36 366.1 308.36 366.1 332.43 358.07" fill="#5f5f5f"/><rect id="uuid-1e54a022-83a2-4736-b8ce-e9af60a10d7b" x="322.06" y="343.42" width="35" height="18" transform="translate(-139.23 453.72) rotate(-58.01)" fill="#727272"/><path id="uuid-c799f4a4-68d5-4181-bdff-228982229d89" d="M339,272v71h40v-71h-40Z" fill="#727272"/><rect id="uuid-9aac5b93-a47a-4f35-aea3-649ddd3e3125" x="339" y="313" width="40" height="12" fill="#acacac"/><rect id="uuid-d9b8598a-cb90-474e-8c04-63c9302a4c4f" x="367" y="271" width="5" height="42" fill="#acacac"/><rect id="uuid-98729d09-f28d-40e3-b988-40927dafae0e" x="346" y="271" width="5" height="42" fill="#acacac"/><path id="uuid-d30f8236-215d-464a-b37b-8541a06fdb53" d="M378.38,261c1.42-3.81,2.23-8.1,2.23-12.65,0-15.7-9.54-28.42-21.32-28.42s-21.32,12.72-21.32,28.42c0,4.55.8,8.84,2.23,12.65h38.18Z" fill="#ccc"/><path id="uuid-8c846800-05ae-4788-bbe3-a37600aa6b4a" d="M341.31,267c3.78,7.91,10.42,13.17,17.98,13.17s14.2-5.25,17.98-13.17h-35.96Z" fill="#ccc"/><ellipse id="uuid-42f0f450-7021-445a-be2c-a844b9ae5f50" cx="358" cy="247.5" rx="4.59" ry="2.86" transform="translate(28.55 531.89) rotate(-75.46)" fill="#333"/><ellipse id="uuid-237b1eb7-df62-4240-86cf-16380e160ba2" cx="344" cy="243.5" rx="4.59" ry="2.86" transform="translate(21.93 515.35) rotate(-75.46)" fill="#333"/><rect id="uuid-3eaad304-e59e-4ae6-8057-881f1648993c" x="385.2" y="249.2" width="22.74" height="10.66" transform="translate(-8.9 494.63) rotate(-63.33)" fill="#727272"/><rect id="uuid-e25c2cb7-f898-4774-a895-a4224d620153" x="373.03" y="265.47" width="22.74" height="10.66" transform="translate(-83.93 312.73) rotate(-40.28)" fill="#727272"/><rect id="uuid-12eaa71e-69b3-4267-b6d5-aef84ecd7414" x="327.31" y="260.87" width="10.66" height="22.74" transform="translate(-81.76 386.43) rotate(-54.7)" fill="#727272"/><rect id="uuid-ce1c30df-4ee7-4700-8957-20f2c012bf3c" x="311.02" y="246.58" width="10.66" height="22.74" transform="translate(-90.68 288.54) rotate(-43.49)" fill="#727272"/><rect id="uuid-588f8669-6a11-4cec-a905-36531960fe1b" x="398.64" y="233.4" width="11.37" height="11.37" transform="translate(9.18 493.05) rotate(-63.33)" fill="#ccc"/><rect id="uuid-566b29d7-0bae-4799-888c-ce5163e57d10" x="298.93" y="239.89" width="11.37" height="11.37" transform="translate(-85.39 277.06) rotate(-43.49)" fill="#ccc"/><circle id="uuid-29b6bebf-0af2-4b6a-a0ad-9a3d284e128a" cx="358.5" cy="305.5" r="1.5" fill="#333"/><circle id="uuid-c1c9084f-2a9e-45f3-8ad1-1af39be8249e" cx="358.5" cy="299.5" r="1.5" fill="#333"/><circle id="uuid-34e82ef1-f78e-41b1-9695-18c692cc6c57" cx="358.5" cy="293.5" r="1.5" fill="#333"/><circle id="uuid-5ce155f3-563e-45d6-9ea0-09bd498e2403" cx="358.5" cy="286.5" r="1.5" fill="#333"/><path d="M385.59,238.55c1.45-9.9-6.24-20.1-18.15-23.45-11.9-3.35-23.79,1.33-27.72,10.53-4.14-.55-6.72-.5-6.95.28-.52,1.84,12.18,7.03,28.36,11.58,16.18,4.56,29.71,6.76,30.23,4.92.22-.78-1.96-2.17-5.78-3.86Z" fill="#6a6a6a"/><polygon id="uuid-1bd47175-767e-44bb-b090-7fb06857c4a1" points="391 365 377 365 377 389.97 377 395 398 395 398 390 391 390 391 365" fill="none" stroke="#000" stroke-linecap="round" stroke-linejoin="round"/><rect id="uuid-22879992-0cf6-41bc-9a6f-af7a4c64d0ce" x="368.45" y="336.33" width="18" height="35" transform="translate(-114.8 194.59) rotate(-25.22)" fill="none" stroke="#000" stroke-linecap="round" stroke-linejoin="round"/><polygon id="uuid-6e4abfed-da45-4572-b5f3-cb342be2c66a" points="332.43 358.07 336.88 371.38 312.78 379.42 315 386.08 310.18 387.69 303.51 367.72 308.36 366.1 308.36 366.1 332.43 358.07" fill="none" stroke="#000" stroke-linecap="round" stroke-linejoin="round"/><rect id="uuid-196b0864-7332-4ee7-b98f-8b73dc597916" x="322.06" y="343.42" width="35" height="18" transform="translate(-139.23 453.72) rotate(-58.01)" fill="none" stroke="#000" stroke-linecap="round" stroke-linejoin="round"/><path id="uuid-816456a1-b483-42b6-a0b9-1380a12df697" d="M339,272v71h40v-71h-40Z" fill="none" stroke="#000" stroke-linecap="round" stroke-linejoin="round"/><rect id="uuid-8e55444a-196f-4751-81ff-50d5859c206c" x="339" y="313" width="40" height="12" fill="none" stroke="#000" stroke-linecap="round" stroke-linejoin="round"/><rect id="uuid-3ce246cb-a551-4f2c-a0a5-4cf251a20da2" x="367" y="271" width="5" height="42" fill="none" stroke="#000" stroke-linecap="round" stroke-linejoin="round"/><rect id="uuid-2804866b-a57e-4003-8247-989faae3b961" x="346" y="271" width="5" height="42" fill="none" stroke="#000" stroke-linecap="round" stroke-linejoin="round"/><path id="uuid-f25448a0-92d0-4253-a1e2-e7ad7bf36135" d="M378.38,261c1.42-3.81,2.23-8.1,2.23-12.65,0-15.7-9.54-28.42-21.32-28.42s-21.32,12.72-21.32,28.42c0,4.55.8,8.84,2.23,12.65h38.18Z" fill="none" stroke="#000" stroke-linecap="round" stroke-linejoin="round"/><path id="uuid-778d6fd7-2e7c-4137-80ae-292b76061797" d="M341.31,267c3.78,7.91,10.42,13.17,17.98,13.17s14.2-5.25,17.98-13.17h-35.96Z" fill="none" stroke="#000" stroke-linecap="round" stroke-linejoin="round"/><ellipse id="uuid-c05a3b85-b8a7-4eba-b67a-6b2aa9563775" cx="358" cy="247.5" rx="4.59" ry="2.86" transform="translate(28.55 531.89) rotate(-75.46)" fill="none" stroke="#000" stroke-linecap="round" stroke-linejoin="round"/><ellipse id="uuid-43ea279c-7109-431b-ae7a-f33604986bd9" cx="344" cy="243.5" rx="4.59" ry="2.86" transform="translate(21.93 515.35) rotate(-75.46)" fill="none" stroke="#000" stroke-linecap="round" stroke-linejoin="round"/><rect id="uuid-b4dea76d-6be9-424f-ad13-81f5e0434ba4" x="385.2" y="249.2" width="22.74" height="10.66" transform="translate(-8.9 494.63) rotate(-63.33)" fill="none" stroke="#000" stroke-linecap="round" stroke-linejoin="round"/><rect id="uuid-2d4b77a7-3fa6-40a5-9370-479c76060bda" x="373.03" y="265.47" width="22.74" height="10.66" transform="translate(-83.93 312.73) rotate(-40.28)" fill="none" stroke="#000" stroke-linecap="round" stroke-linejoin="round"/><rect id="uuid-a5ac351d-29ea-431d-9f23-25a9ac0b34b4" x="327.31" y="260.87" width="10.66" height="22.74" transform="translate(-81.76 386.43) rotate(-54.7)" fill="none" stroke="#000" stroke-linecap="round" stroke-linejoin="round"/><rect id="uuid-a41af9c2-8223-4932-b09b-a4f280ae84b6" x="311.02" y="246.58" width="10.66" height="22.74" transform="translate(-90.68 288.54) rotate(-43.49)" fill="none" stroke="#000" stroke-linecap="round" stroke-linejoin="round"/><rect id="uuid-458aeac4-4d4c-4a36-a09a-a515b26b150f" x="398.64" y="233.4" width="11.37" height="11.37" transform="translate(9.18 493.05) rotate(-63.33)" fill="none" stroke="#000" stroke-linecap="round" stroke-linejoin="round"/><rect id="uuid-a7573ffa-9996-4448-bb59-97d8b4e074c3" x="298.93" y="239.89" width="11.37" height="11.37" transform="translate(-85.39 277.06) rotate(-43.49)" fill="none" stroke="#000" stroke-linecap="round" stroke-linejoin="round"/><circle id="uuid-b2b749f4-d486-4eef-ad4c-1c448080cd09" cx="358.5" cy="305.5" r="1.5" fill="none" stroke="#000" stroke-linecap="round" stroke-linejoin="round"/><circle id="uuid-60026f62-fda6-46b0-b503-716184ebe9d0" cx="358.5" cy="299.5" r="1.5" fill="none" stroke="#000" stroke-linecap="round" stroke-linejoin="round"/><circle id="uuid-c91d84a6-bd59-48a4-a05d-d00f6ab21fad" cx="358.5" cy="293.5" r="1.5" fill="none" stroke="#000" stroke-linecap="round" stroke-linejoin="round"/><circle id="uuid-5bc1f960-b159-43ab-851d-23e5fa92ea47" cx="358.5" cy="286.5" r="1.5" fill="none" stroke="#000" stroke-linecap="round" stroke-linejoin="round"/><path d="M385.59,238.55c1.45-9.9-6.24-20.1-18.15-23.45-11.9-3.35-23.79,1.33-27.72,10.53-4.14-.55-6.72-.5-6.95.28-.52,1.84,12.18,7.03,28.36,11.58,16.18,4.56,29.71,6.76,30.23,4.92.22-.78-1.96-2.17-5.78-3.86Z" fill="none" stroke="#000" stroke-linecap="round" stroke-linejoin="round"/></g><path d="M214.04,169c-1.58-.78-7.85-4.14-10.24-12.11-1.06-3.54-.99-6.77-.76-8.89" fill="none" stroke="#333" stroke-miterlimit="10" stroke-width="2"/><text transform="translate(94.37 130.33)" fill="#333" font-family="ComicNeue-Bold, &apos;Comic Neue&apos;" font-size="24" font-weight="700"><tspan x="0" y="0">You are next.</tspan></text></svg>