<?xml version="1.0" encoding="UTF-8"?><svg id="uuid-96768ee4-581f-4b30-a525-8b05ec25a3fe" xmlns="http://www.w3.org/2000/svg" xmlns:xlink="http://www.w3.org/1999/xlink" viewBox="0 0 500 500"><defs><linearGradient id="uuid-a7834948-a27b-435b-9c3a-2dacf3232860" x1="987.663279" y1="-241.931365" x2="987.654087" y2="-241.963458" gradientTransform="translate(2.352862 1294.278408) rotate(-89.999994) scale(1 -1)" gradientUnits="userSpaceOnUse"><stop offset="0" stop-color="#ce8963"/><stop offset="1" stop-color="#d08a61" stop-opacity="0"/></linearGradient><radialGradient id="uuid-e7f9b75b-b5d5-447b-af4d-fd4bc7e9f8c6" cx="-3594.788778" cy="-371.107108" fx="-3594.788778" fy="-371.107108" r="10.882116" gradientTransform="translate(6.873658 4565.204386) rotate(90.000006) scale(1.1788 .60002)" gradientUnits="userSpaceOnUse"><stop offset=".0561" stop-color="#ffa726"/><stop offset=".135" stop-color="#ffa726"/><stop offset="1" stop-color="#ffa726" stop-opacity=".1"/></radialGradient><linearGradient id="uuid-2a7d5387-6396-4ca8-a622-bf3b6006d0ed" x1="-3972.528433" y1="-228.647029" x2="-3963.528433" y2="-228.647029" gradientTransform="translate(2.352524 4295.528408) rotate(90.000006)" gradientUnits="userSpaceOnUse"><stop offset=".000359" stop-color="#8a5140"/><stop offset="1" stop-color="#8a5140"/></linearGradient></defs><text transform="translate(247.518677 107.702271)" fill="#333" font-family="ComicNeue-Regular, &apos;Comic Neue&apos;" font-size="24"><tspan x="0" y="0">The death toll was </tspan><tspan x="0" y="28.799805">higher than ever.</tspan></text><polygon points="405.243062 339.771185 413.545286 344 376.185241 343.999999 396.940822 338.716493 405.243062 339.771185" fill="#633d35"/><path d="M233,308h39.308444c0-.303131,3.66929-.433712,4.595879-1.182041.611552-.492191-.685673-1.566973-4.466156-2.877806-.500359-.175781-.574487-.411832-.166786-.60268,1.111904-.502234,3.280125-1.582039,9.858903-2.260055,7.264459-.748328,13.379942-.607703,15.974386-.492191.870996.04018,1.667862.150672,2.297943.286274,5.559524,1.22043,52.778483,8.128499,52.778483,8.128499,0,0,27.202087-.09706,42.954093-.097059,14.362123,0,26.352179,6.352701,29.131941,14.797087l-4.947982,4.712355,3.724888,5.435467c-1.019254,1.727703-2.427659,3.33893-4.169651,4.785152l-38.95378,3.625261,33.208931,1.019151s-10.65577,2.722586-17.99435,2.722586c-15.881728,0-163.135187,1.019145-163.135187,1.019145v-39.019145Z" fill="#ad7156"/><path d="M244.356647,306.50381c-.030135.085379-.070313.160715-.115514.231027.060268-.090402.095424-.175781.115514-.231027Z" fill="url(#uuid-a7834948-a27b-435b-9c3a-2dacf3232860)"/><path d="M261.288259,334.603786c10.303668.165739,20.514671.457034,30.707145.768419l15.251647.467079c5.077709.145649,10.099817.336497,14.973668.296319,5.003573,0,10.118346-.065291,15.214583-.135603l15.344305-.185826c10.248068-.120537,20.496135-.226005,30.818332-.205915-10.081289.602681-20.255228,1.02958-30.466238,1.376122-10.229532.341519-20.422007.607703-30.892461.657927-5.392752.010045-10.58164-.200895-15.677877-.391743-5.096237-.220983-10.173939-.441967-15.214583-.718196-10.09981-.537393-20.125498-1.15012-30.058521-1.928583Z" fill="#ce8963"/><path d="M313.177218,340.781317c1.297218-.135604,2.705637-.15067,4.058463-.19085,1.371347-.025111,2.742708-.050223,4.114056-.060267,2.742708-.02009,5.485403-.030135,8.228111-.02009,5.485403.010045,10.952284.065291,16.419151.145649,5.466867.075336,10.915212.175782,16.363558.296319,5.448345.105469,10.896677.261163,16.345022.406811l-.667145.015066,9.655052-.713172,9.692123-.678016c6.48612-.436943,12.972241-.853799,19.551026-1.210384-6.226677.662949-12.546004,1.265631-18.865345,1.848223l-9.506794.853799-9.506837.813617-.296515.025111-.352108-.010045c-5.42981-.125559-10.878155-.231028-16.326486-.371654-5.42981-.125559-10.878155-.266185-16.307965-.411834l-16.289429-.446989-8.153982-.215961c-1.352826-.035156-2.724173-.065291-4.076984-.090402-1.352797-.010043-2.724159-.060268-4.07697.015068Z" fill="#ce8963"/><path d="M373.405482,329h46.32943s3.706356-4.017875,3.706356-4.017875c0,0-27.797659,2.511172-50.035786,4.017875Z" fill="#ce8963"/><path d="M341.901476,313.524579c-23.998638-2.852693-49.906057-12.897384-49.906057-12.897384l-.796867-.296317c3.261589-.055246,5.63366-.010043,6.930886.070313.574487.035156,1.519605.150672,1.871706.231027,4.373499.964289,34.135517,7.36778,53.000862,7.367781,0,0,26.778405-.100445,42.530425-.100444,7.060601,0,16.771258,2.109384,22.330788,6.629495l-53.742138-2.00894,16.678593,4.520111c.018522,0-22.015753-1.511728-38.898198-3.515643Z" fill="#965b44"/><path d="M270.790461,307.718751c7.639743-.130582,5.904299-1.546883,5.904299-1.546883,2.867262,1.627239,4.470661,3.987743,1.05636,5.353822-3.772714,1.506703-23.371957,2.219875-23.371957,2.219875l-11.318139-1.004469-10.431551-4.741095,38.160988-.281249Z" fill="#965b44"/><path d="M224.448069,328.486613c.231027,10.069802,3.746667,18.070398,8.050817,18.070398,4.45482,0,8.060864-8.563097,8.060866-19.12509.000001-10.561991-3.611064-19.125091-8.060861-19.125092-4.28406,0-7.789658,7.925259-8.045799,17.934793" fill="#ffcc80"/><path d="M224.448069,328.486613c.286273,3.601022.853798,7.191998,2.089295,10.541903.607704,1.667418,1.361055,3.294658,2.410725,4.655714.527346.667972,1.119983,1.28572,1.803021,1.69253.672994.421877,1.426346.592637,2.149564.472101.718196-.120536,1.401234-.527346,1.983827-1.084826.582592-.557481,1.099894-1.230475,1.531815-1.963737.868866-1.471546,1.486615-3.123898,1.953692-4.811406.934156-3.390083,1.325901-6.945904,1.320878-10.491678.010045-3.540755-.36663-7.101596-1.290741-10.496702-.462056-1.687508-1.06976-3.349903-1.923558-4.826474-.426899-.738285-.924111-1.426344-1.506703-1.988848-.572547-.567524-1.245541-1.004469-1.963737-1.145094-.718195-.165738-1.471547.005023-2.154586.386719-.683039.391742-1.290743.989402-1.823112,1.652352-1.06976,1.340965-1.828134,2.968208-2.445883,4.630602-1.250564,3.33986-1.828135,6.930838-2.129475,10.531858-.015067-.904024-.010044-1.808043.02009-2.717091.045201-.904024.120536-1.813067.226006-2.712067.220983-1.80302.547436-3.606044,1.06976-5.368888.542413-1.752797,1.24052-3.490528,2.340413-5.047458.552458-.778465,1.225452-1.50168,2.089296-2.044094.858821-.537391,1.973781-.843754,3.043541-.647883,1.074782.170758,1.993871.753352,2.722111,1.416301.738284.672992,1.315854,1.456481,1.818088,2.270098.994424,1.627239,1.672441,3.38506,2.204809,5.16297,1.024558,3.575911,1.426345,7.267334,1.441411,10.948712-.030135,3.676356-.436944,7.372803-1.481593,10.94369-.537391,1.777911-1.230475,3.530709-2.234945,5.152926-.507257.808598-1.104916,1.582038-1.853246,2.25001-.743307.652904-1.692531,1.205362-2.767312,1.345988-.532368.06529-1.079804.030134-1.597106-.105469-.517302-.130581-.984379-.371654-1.411279-.647882-.853799-.557481-1.501681-1.300788-2.049117-2.079251-1.074782-1.571995-1.767865-3.304704-2.300233-5.062525-.512279-1.762842-.833709-3.565864-1.04967-5.37391-.100447-.904022-.175782-1.808043-.21596-2.717089-.040177-.909037-.040177-1.818083-.020087-2.722104Z" fill="#ce8963"/><path d="M231.167964,346.853329c3.530709,0,6.393446-7.197019,6.393447-16.081548,0-8.88453-2.862734-16.081548-6.393443-16.081548s-7.603831,3.138965-6.398469,16.081547c.828686,8.84435,2.862735,16.081549,6.398466,16.08155Z" fill="url(#uuid-e7f9b75b-b5d5-447b-af4d-fd4bc7e9f8c6)"/><g opacity=".66"><path d="M231.655133,342.247839c.698106.005023,1.325899-.40681,1.813067-.898999.482145-.507256.858822-1.109938,1.175229-1.737731.622771-1.260608,1.024558-2.621665,1.335944-3.992765.57757-2.752245.783486-5.574802.74833-8.377272-.035156-2.802469-.316407-5.614982-.979357-8.322026-.341519-1.345989-.778463-2.676911-1.406256-3.892318-.311386-.60268-.693083-1.170207-1.13505-1.637286-.452011-.452012-.994424-.788508-1.546882-.773442-.547436.005023-1.074782.346543-1.511726.808598-.431922.472102-.793531,1.039625-1.089849,1.647328-.597659,1.215407-.999447,2.546329-1.310832,3.892317-.311385,1.351012-.517302,2.727133-.657928,4.108278-.150671,1.381145-.220983,2.777356-.231028,4.168546-.02009,2.787401.120536,5.589871.647882,8.337094.281251,1.366079.64286,2.727134,1.235496,3.992765.301341.627793.662949,1.230475,1.130027,1.747776.467078.497212,1.079803.919089,1.782932.929134ZM231.655133,342.35833c-.743307.010045-1.401234-.416855-1.903469-.91909-.502234-.517301-.914067-1.109938-1.250564-1.742754-.688061-1.255586-1.175229-2.606597-1.561949-3.98272-.763396-2.752245-1.140072-5.614982-1.170205-8.472698-.005022-1.431368.055246-2.862735.195872-4.289083.150671-1.426344.391743-2.842645.733263-4.24388.356587-1.396211.808598-2.777356,1.491637-4.088188.34152-.652906.753352-1.280699,1.290743-1.8432.276229-.271207.587614-.527348.949223-.723219.361609-.195871.788508-.32143,1.225453-.316406s.858821.135602,1.215408.336496c.356586.200895.662949.457035.929134.733262.522324.562504.919089,1.195317,1.240519,1.853247.647882,1.310832,1.069759,2.691977,1.391189,4.088189.627793,2.792423.858821,5.645115.838731,8.487764-.050224,2.837626-.356587,5.685294-1.069761,8.432518-.356586,1.3711-.808598,2.727133-1.461503,3.987741-.32143.632815-.718196,1.230475-1.205363,1.752799-.492192.507257-1.135051.9442-1.878358.949223Z" fill="#7f441c"/></g><path d="M231.09263,338.8678c1.86329,0,3.375016-4.851585,3.375017-10.833198,0-5.981613-1.511725-10.833196-3.375014-10.833197s-3.375016,4.851587-3.375017,10.833198c0,5.981611,1.511724,10.833196,3.375014,10.833197ZM231.09263,337.019577c-1.396212,0-2.531261-3.827027-2.531261-8.553055,0-4.726029,1.135051-8.553053,2.531263-8.553053,1.396211,0,2.531262,3.827029,2.531261,8.553053,0,4.726025-1.135051,8.553055-2.531263,8.553055Z" fill="#b5772c" isolation="isolate" opacity=".82"/><ellipse cx="231" cy="327.5" rx="1" ry="4.5" fill="url(#uuid-2a7d5387-6396-4ca8-a622-bf3b6006d0ed)" isolation="isolate" opacity=".74"/><polygon points="405.243062 339.771185 413.545286 344 376.185241 343.999999 396.940822 338.716493 405.243062 339.771185" fill="none" stroke="#000" stroke-linecap="round" stroke-linejoin="round"/><path d="M233,308h39.308444c0-.303131,3.66929-.433712,4.595879-1.182041.611552-.492191-.685673-1.566973-4.466156-2.877806-.500359-.175781-.574487-.411832-.166786-.60268,1.111904-.502234,3.280125-1.582039,9.858903-2.260055,7.264459-.748328,13.379942-.607703,15.974386-.492191.870996.04018,1.667862.150672,2.297943.286274,5.559524,1.22043,52.778483,8.128499,52.778483,8.128499,0,0,27.202087-.09706,42.954093-.097059,14.362123,0,26.352179,6.352701,29.131941,14.797087l-4.947982,4.712355,3.724888,5.435467c-1.019254,1.727703-2.427659,3.33893-4.169651,4.785152l-38.95378,3.625261,33.208931,1.019151s-10.65577,2.722586-17.99435,2.722586c-15.881728,0-163.135187,1.019145-163.135187,1.019145v-39.019145Z" fill="none" stroke="#000" stroke-linecap="round" stroke-linejoin="round"/><path d="M244.356647,306.50381c-.030135.085379-.070313.160715-.115514.231027.060268-.090402.095424-.175781.115514-.231027Z" fill="none" stroke="#000" stroke-linecap="round" stroke-linejoin="round"/><path d="M261.288259,334.603786c10.303668.165739,20.514671.457034,30.707145.768419l15.251647.467079c5.077709.145649,10.099817.336497,14.973668.296319,5.003573,0,10.118346-.065291,15.214583-.135603l15.344305-.185826c10.248068-.120537,20.496135-.226005,30.818332-.205915-10.081289.602681-20.255228,1.02958-30.466238,1.376122-10.229532.341519-20.422007.607703-30.892461.657927-5.392752.010045-10.58164-.200895-15.677877-.391743-5.096237-.220983-10.173939-.441967-15.214583-.718196-10.09981-.537393-20.125498-1.15012-30.058521-1.928583Z" fill="none" stroke="#000" stroke-linecap="round" stroke-linejoin="round"/><path d="M313.177218,340.781317c1.297218-.135604,2.705637-.15067,4.058463-.19085,1.371347-.025111,2.742708-.050223,4.114056-.060267,2.742708-.02009,5.485403-.030135,8.228111-.02009,5.485403.010045,10.952284.065291,16.419151.145649,5.466867.075336,10.915212.175782,16.363558.296319,5.448345.105469,10.896677.261163,16.345022.406811l-.667145.015066,9.655052-.713172,9.692123-.678016c6.48612-.436943,12.972241-.853799,19.551026-1.210384-6.226677.662949-12.546004,1.265631-18.865345,1.848223l-9.506794.853799-9.506837.813617-.296515.025111-.352108-.010045c-5.42981-.125559-10.878155-.231028-16.326486-.371654-5.42981-.125559-10.878155-.266185-16.307965-.411834l-16.289429-.446989-8.153982-.215961c-1.352826-.035156-2.724173-.065291-4.076984-.090402-1.352797-.010043-2.724159-.060268-4.07697.015068Z" fill="none" stroke="#000" stroke-linecap="round" stroke-linejoin="round"/><path d="M373.405482,329h46.32943s3.706356-4.017875,3.706356-4.017875c0,0-27.797659,2.511172-50.035786,4.017875Z" fill="none" stroke="#000" stroke-linecap="round" stroke-linejoin="round"/><path d="M341.901476,313.524579c-23.998638-2.852693-49.906057-12.897384-49.906057-12.897384l-.796867-.296317c3.261589-.055246,5.63366-.010043,6.930886.070313.574487.035156,1.519605.150672,1.871706.231027,4.373499.964289,34.135517,7.36778,53.000862,7.367781,0,0,26.778405-.100445,42.530425-.100444,7.060601,0,16.771258,2.109384,22.330788,6.629495l-53.742138-2.00894,16.678593,4.520111c.018522,0-22.015753-1.511728-38.898198-3.515643Z" fill="none" stroke="#000" stroke-linecap="round" stroke-linejoin="round"/><path d="M270.790461,307.718751c7.639743-.130582,5.904299-1.546883,5.904299-1.546883,2.867262,1.627239,4.470661,3.987743,1.05636,5.353822-3.772714,1.506703-23.371957,2.219875-23.371957,2.219875l-11.318139-1.004469-10.431551-4.741095,38.160988-.281249Z" fill="none" stroke="#000" stroke-linecap="round" stroke-linejoin="round"/><path d="M224.448069,328.486613c.231027,10.069802,3.746667,18.070398,8.050817,18.070398,4.45482,0,8.060864-8.563097,8.060866-19.12509.000001-10.561991-3.611064-19.125091-8.060861-19.125092-4.28406,0-7.789658,7.925259-8.045799,17.934793" fill="none" stroke="#000" stroke-linecap="round" stroke-linejoin="round"/><path d="M224.448069,328.486613c.286273,3.601022.853798,7.191998,2.089295,10.541903.607704,1.667418,1.361055,3.294658,2.410725,4.655714.527346.667972,1.119983,1.28572,1.803021,1.69253.672994.421877,1.426346.592637,2.149564.472101.718196-.120536,1.401234-.527346,1.983827-1.084826.582592-.557481,1.099894-1.230475,1.531815-1.963737.868866-1.471546,1.486615-3.123898,1.953692-4.811406.934156-3.390083,1.325901-6.945904,1.320878-10.491678.010045-3.540755-.36663-7.101596-1.290741-10.496702-.462056-1.687508-1.06976-3.349903-1.923558-4.826474-.426899-.738285-.924111-1.426344-1.506703-1.988848-.572547-.567524-1.245541-1.004469-1.963737-1.145094-.718195-.165738-1.471547.005023-2.154586.386719-.683039.391742-1.290743.989402-1.823112,1.652352-1.06976,1.340965-1.828134,2.968208-2.445883,4.630602-1.250564,3.33986-1.828135,6.930838-2.129475,10.531858-.015067-.904024-.010044-1.808043.02009-2.717091.045201-.904024.120536-1.813067.226006-2.712067.220983-1.80302.547436-3.606044,1.06976-5.368888.542413-1.752797,1.24052-3.490528,2.340413-5.047458.552458-.778465,1.225452-1.50168,2.089296-2.044094.858821-.537391,1.973781-.843754,3.043541-.647883,1.074782.170758,1.993871.753352,2.722111,1.416301.738284.672992,1.315854,1.456481,1.818088,2.270098.994424,1.627239,1.672441,3.38506,2.204809,5.16297,1.024558,3.575911,1.426345,7.267334,1.441411,10.948712-.030135,3.676356-.436944,7.372803-1.481593,10.94369-.537391,1.777911-1.230475,3.530709-2.234945,5.152926-.507257.808598-1.104916,1.582038-1.853246,2.25001-.743307.652904-1.692531,1.205362-2.767312,1.345988-.532368.06529-1.079804.030134-1.597106-.105469-.517302-.130581-.984379-.371654-1.411279-.647882-.853799-.557481-1.501681-1.300788-2.049117-2.079251-1.074782-1.571995-1.767865-3.304704-2.300233-5.062525-.512279-1.762842-.833709-3.565864-1.04967-5.37391-.100447-.904022-.175782-1.808043-.21596-2.717089-.040177-.909037-.040177-1.818083-.020087-2.722104Z" fill="none" stroke="#000" stroke-linecap="round" stroke-linejoin="round"/><path d="M231.167964,346.853329c3.530709,0,6.393446-7.197019,6.393447-16.081548,0-8.88453-2.862734-16.081548-6.393443-16.081548s-7.603831,3.138965-6.398469,16.081547c.828686,8.84435,2.862735,16.081549,6.398466,16.08155Z" fill="none" stroke="#000" stroke-linecap="round" stroke-linejoin="round"/><path d="M231.655133,342.247839c.698106.005023,1.325899-.40681,1.813067-.898999.482145-.507256.858822-1.109938,1.175229-1.737731.622771-1.260608,1.024558-2.621665,1.335944-3.992765.57757-2.752245.783486-5.574802.74833-8.377272-.035156-2.802469-.316407-5.614982-.979357-8.322026-.341519-1.345989-.778463-2.676911-1.406256-3.892318-.311386-.60268-.693083-1.170207-1.13505-1.637286-.452011-.452012-.994424-.788508-1.546882-.773442-.547436.005023-1.074782.346543-1.511726.808598-.431922.472102-.793531,1.039625-1.089849,1.647328-.597659,1.215407-.999447,2.546329-1.310832,3.892317-.311385,1.351012-.517302,2.727133-.657928,4.108278-.150671,1.381145-.220983,2.777356-.231028,4.168546-.02009,2.787401.120536,5.589871.647882,8.337094.281251,1.366079.64286,2.727134,1.235496,3.992765.301341.627793.662949,1.230475,1.130027,1.747776.467078.497212,1.079803.919089,1.782932.929134ZM231.655133,342.35833c-.743307.010045-1.401234-.416855-1.903469-.91909-.502234-.517301-.914067-1.109938-1.250564-1.742754-.688061-1.255586-1.175229-2.606597-1.561949-3.98272-.763396-2.752245-1.140072-5.614982-1.170205-8.472698-.005022-1.431368.055246-2.862735.195872-4.289083.150671-1.426344.391743-2.842645.733263-4.24388.356587-1.396211.808598-2.777356,1.491637-4.088188.34152-.652906.753352-1.280699,1.290743-1.8432.276229-.271207.587614-.527348.949223-.723219.361609-.195871.788508-.32143,1.225453-.316406s.858821.135602,1.215408.336496c.356586.200895.662949.457035.929134.733262.522324.562504.919089,1.195317,1.240519,1.853247.647882,1.310832,1.069759,2.691977,1.391189,4.088189.627793,2.792423.858821,5.645115.838731,8.487764-.050224,2.837626-.356587,5.685294-1.069761,8.432518-.356586,1.3711-.808598,2.727133-1.461503,3.987741-.32143.632815-.718196,1.230475-1.205363,1.752799-.492192.507257-1.135051.9442-1.878358.949223Z" fill="none" stroke="#000" stroke-linecap="round" stroke-linejoin="round"/><path d="M231.09263,338.8678c1.86329,0,3.375016-4.851585,3.375017-10.833198,0-5.981613-1.511725-10.833196-3.375014-10.833197s-3.375016,4.851587-3.375017,10.833198c0,5.981611,1.511724,10.833196,3.375014,10.833197ZM231.09263,337.019577c-1.396212,0-2.531261-3.827027-2.531261-8.553055,0-4.726029,1.135051-8.553053,2.531263-8.553053,1.396211,0,2.531262,3.827029,2.531261,8.553053,0,4.726025-1.135051,8.553055-2.531263,8.553055Z" fill="none" stroke="#000" stroke-linecap="round" stroke-linejoin="round"/><ellipse cx="231" cy="327.5" rx="1" ry="4.5" fill="none" stroke="#000" stroke-linecap="round" stroke-linejoin="round"/><path d="M389.77183,301.883118s1.132673,3.045916.479372,4.119198c-.657544,1.073282-3.283481.865414-4.089502,1.374479-.576943.364831-.568458,1.374479-.20787,1.790218.356347.419979,5.55307.059391,6.571202-1.909,1.018132-1.968391-.36483-5.735484-.36483-5.735484l-2.388372.360588Z" fill="#f97d23"/><path d="M398.069616,301.522529l-2.210198.47937s.9545,4.000416.178173,5.315504-3.559225,2.719266-4.059807,3.822244c-.449676.984196.657544,1.790218,2.388372.716937s3.690734-2.676841,4.059809-3.465895c.899349-1.909-.356348-6.86816-.356348-6.86816Z" fill="#f97d23"/><path d="M382.963063,271.364569c-4.700383,1.056313-8.361421,5.018549-6.986941,11.046747.814507,3.576194,1.315089,4.836133,1.612045,6.448179.627849,3.389535.45816,4.878556,1.892032,7.983863,1.522958,3.304692,7.126934,7.546915,14.113875,6.52878,6.986941-1.018134,9.795291-1.972634,9.795291-1.972634l2.507155-2.210198,2.38837-.598155.356345-1.730828s1.785975-.080603,2.150807-.657546c.576943-.916322.237563-1.671437-.776328-2.032025-1.013891-.356345-1.612046-.657546-1.612046-.657546,0,0,9.854681-6.511811,11.046748-7.224505s3.045916-1.942939,3.135002-2.388372c.224837-1.132674-2.838048-3.644069-6.838464-4.836133-4.000416-1.196307-7.436616-1.522958-8.000832-1.073282-.750872.589669-4.059807,6.808767-6.270005,6.511811-2.867743-.390284-4.836134-3.075611-5.374895-4.598569-.610876-1.72658-4.280398-10.529192-13.138159-8.539589Z" fill="#4d4d4d"/><path d="M376.930622,280.68049c-.716935-.118782-2.549576,1.83264-2.905922,2.307769s-.920562,1.158127-.716936,1.671435c.318167.797538,1.951423.83996,2.905923.91632.996922.080602,2.905923.237565,3.224089-.356347.318167-.598153-.356347-2.108385-.91632-3.024705-.517552-.852686-.844203-1.387205-1.590834-1.514472Z" fill="#f97d23"/><ellipse cx="384.5" cy="281" rx="1.499194" ry="2.000302" transform="translate(-9.070966 12.852382) rotate(-1.892682)"/><path d="M390.128177,293.343524c-.827234.301197.258776,3.224089,1.374481,4.539177,1.175096,1.382965,4.017385,4.488272,8.36142,4.895525,2.948343.279988,4.259192-.55573,4.954916-1.315088.517552-.564216,1.073282-1.217519,1.455083-1.514473.55573-.436948,1.115703-.059391,2.070203-.755115.687241-.500582.835718-1.332058,1.196307-1.633255.356345-.296954.962983-.22908,1.272667-.517552.55573-.517552.47937-2.032025.080603-2.108385s-.436948,1.073282-.835718,1.234488-.929048.059391-1.671437.47937c-.636333.356345-.436948,1.073282-.873897,1.391449s-1.234488-.118782-2.30777.47937c-.581186.32241-1.073282,1.870819-2.748962,2.23141-2.07869.445435-5.196723-1.069039-6.689985-2.150807-3.465894-2.511395-4.22525-5.773665-5.637911-5.256114Z"/><path d="M389.77183,301.883118s1.132673,3.045916.479372,4.119198c-.657544,1.073282-3.283481.865414-4.089502,1.374479-.576943.364831-.568458,1.374479-.20787,1.790218.356347.419979,5.55307.059391,6.571202-1.909,1.018132-1.968391-.36483-5.735484-.36483-5.735484l-2.388372.360588Z" fill="none" stroke="#000" stroke-linecap="round" stroke-linejoin="round"/><path d="M398.069616,301.522529l-2.210198.47937s.9545,4.000416.178173,5.315504-3.559225,2.719266-4.059807,3.822244c-.449676.984196.657544,1.790218,2.388372.716937s3.690734-2.676841,4.059809-3.465895c.899349-1.909-.356348-6.86816-.356348-6.86816Z" fill="none" stroke="#000" stroke-linecap="round" stroke-linejoin="round"/><path d="M382.963063,271.364569c-4.700383,1.056313-8.361421,5.018549-6.986941,11.046747.814507,3.576194,1.315089,4.836133,1.612045,6.448179.627849,3.389535.45816,4.878556,1.892032,7.983863,1.522958,3.304692,7.126934,7.546915,14.113875,6.52878,6.986941-1.018134,9.795291-1.972634,9.795291-1.972634l2.507155-2.210198,2.38837-.598155.356345-1.730828s1.785975-.080603,2.150807-.657546c.576943-.916322.237563-1.671437-.776328-2.032025-1.013891-.356345-1.612046-.657546-1.612046-.657546,0,0,9.854681-6.511811,11.046748-7.224505s3.045916-1.942939,3.135002-2.388372c.224837-1.132674-2.838048-3.644069-6.838464-4.836133-4.000416-1.196307-7.436616-1.522958-8.000832-1.073282-.750872.589669-4.059807,6.808767-6.270005,6.511811-2.867743-.390284-4.836134-3.075611-5.374895-4.598569-.610876-1.72658-4.280398-10.529192-13.138159-8.539589Z" fill="none" stroke="#000" stroke-linecap="round" stroke-linejoin="round"/><path d="M376.930622,280.68049c-.716935-.118782-2.549576,1.83264-2.905922,2.307769s-.920562,1.158127-.716936,1.671435c.318167.797538,1.951423.83996,2.905923.91632.996922.080602,2.905923.237565,3.224089-.356347.318167-.598153-.356347-2.108385-.91632-3.024705-.517552-.852686-.844203-1.387205-1.590834-1.514472Z" fill="none" stroke="#000" stroke-linecap="round" stroke-linejoin="round"/><ellipse cx="384.5" cy="281" rx="1.499194" ry="2.000302" transform="translate(-9.070966 12.852382) rotate(-1.892682)" fill="none" stroke="#000" stroke-linecap="round" stroke-linejoin="round"/><path d="M390.128177,293.343524c-.827234.301197.258776,3.224089,1.374481,4.539177,1.175096,1.382965,4.017385,4.488272,8.36142,4.895525,2.948343.279988,4.259192-.55573,4.954916-1.315088.517552-.564216,1.073282-1.217519,1.455083-1.514473.55573-.436948,1.115703-.059391,2.070203-.755115.687241-.500582.835718-1.332058,1.196307-1.633255.356345-.296954.962983-.22908,1.272667-.517552.55573-.517552.47937-2.032025.080603-2.108385s-.436948,1.073282-.835718,1.234488-.929048.059391-1.671437.47937c-.636333.356345-.436948,1.073282-.873897,1.391449s-1.234488-.118782-2.30777.47937c-.581186.32241-1.073282,1.870819-2.748962,2.23141-2.07869.445435-5.196723-1.069039-6.689985-2.150807-3.465894-2.511395-4.22525-5.773665-5.637911-5.256114Z" fill="none" stroke="#000" stroke-linecap="round" stroke-linejoin="round"/><path d="M162.560868,207.024363l13.307545-26.529167c1.860198-3.763003,4.865124-6.397108,8.15623-7.337858,3.863475-1.128898,9.444059-3.574856,13.450634-9.783809,7.154592-10.72456,11.018067-17.874264,11.018067-17.874264l-3.291117-3.763003s-8.44242,10.72456-12.019716,14.863861c-3.004926,3.386701-6.296043,5.832655-12.735175,6.397104-2.289467.188147-4.149665-2.069649-4.149665-5.080055,0-4.139305-.14309-8.654907-.286179-11.66531,0-2.069652.42928-4.139305,1.430918-5.832655l3.434206-5.644504-2.861837-2.44595-4.578934,7.149704c-1.144739,1.693351-3.148016,2.257803-4.578934,1.128902l-8.58551-6.585255-1.287829,3.386708,7.583872,6.961557c1.574008,1.5052,2.432557,3.951154,2.432557,6.585255v15.804608l-19.174297,27.469925,12.592086,12.982363.143079-.188154Z" fill="#6c4a41"/><path d="M133.848715,125.74805c0-.68076-.286185-13.842152-.57237-22.011289,0-4.08457.715459-8.169138,2.432562-11.346026l1.287829-2.496125-3.004926-2.949966-5.580584,8.62298c-2.432562,3.857648-3.863481,8.849899-4.00657,14.295993l-.715459,29.499664,10.159518-13.615231Z" fill="#6c4a41"/><path d="M143.292773,262.999987l-28.189087-20.518186,2.861837-20.344299-3.720385-3.129891-7.726961,20.344293c-.715459,1.912709-2.289467,3.303778-4.149663,3.477658l-9.873336.869414c-2.718744.17388-5.580581-.869414-7.726958-2.956004l-17.171024-16.692755-2.861837,3.303778,14.595367,18.605464c.715459,1.043295.286183,2.608243-.858552,2.782124l-10.874979,1.738829.429276,3.825432,32.338755-1.738829c4.865122-.17388,9.730246,1.912709,13.307542,5.912021,9.014784,9.911319,25.61344,27.995142,25.75653,27.473502,0-.869414,4.00657-22.952536,4.00657-22.952536,0,0-.143095,0-.143095-.000013Z" fill="#6c4a41"/><path d="M134.623471,352.895488c-.429274,7.715301,33.626575,8.622986,33.054217-.226917-.286179-3.857642-.715459-33.357308-.715459-33.357308,0-4.765327,1.144739-9.530655,3.148016-13.161397l26.042709-48.334059c2.146377-3.857642,4.435845-7.488384,7.154592-10.43834,4.006576-4.53841,9.873339-11.119109,11.733526-13.161397,2.861837-2.949974,6.868412-2.042288,8.44242-.680768s8.58551,4.992244,8.58551,4.992244l2.289467-4.992244s-8.44242-7.715301-10.445708-9.757589c-4.435845-4.084567-10.445708-2.269205-13.736814.680768-3.863475,3.403808-10.016428,9.530655-10.016428,9.530655,0,0-.42928-11.572943-.715459-18.834401,0-2.723048.42928-5.673013,1.430918-7.942218,3.148016-6.807615,9.587148-20.422846,9.587148-20.422846l-3.148016-3.630725s-9.157879,12.480628-11.161167,16.111353c-1.144739,2.269205-4.292755,4.765327-6.296043,1.36152-1.717098-2.949965-6.439132-9.530663-6.439132-9.530663l-2.432557,3.176891,7.870051,15.430593c.715459,1.36152,1.144739,3.176891,1.144739,4.765327v26.322785c.14309,0-20.891405,34.038077-23.610152,38.122636-.42928-31.768872,5.580584-32.44964,5.294393-50.14943-.286179-12.480628-6.439132-22.238209-9.444059-27.457379-2.432557-4.311493-14.738458-23.599737-20.032857-31.541955-1.287829-2.042288-3.291111-4.992253-3.720385-9.530663-.429274-4.084567-1.144734-9.75758-1.430918-13.161388-.715459-5.899934.858549-11.119104,3.004926-15.884436,1.860193-4.084567,7.870051-17.92672,9.730249-21.330527s4.578934-7.715297,8.01314-9.303742c3.434206-1.588443,13.593724-8.396059,13.593724-8.396059l-1.144739-4.31149s-14.595363,5.673013-16.59865,6.580695-5.008214,2.269205-8.58551,8.169137c-3.577296,5.899932-17.027919,24.05358-18.745017,26.549706-1.860193,2.496127-5.008214,7.261458-5.008214,13.842152s1.001644,21.557453,1.001644,21.557453l-15.883197-1.815371c-3.004929,0-7.870051-2.949965-9.873336-6.353773l-11.590439-20.195929-3.720388,4.765332,9.157877,22.011287-21.463775,8.396061.572367,5.21917s14.452276-2.949965,17.457202-3.630725,10.445703.907686,19.317397,3.176891c9.300969,2.269205,15.597006,1.815362,24.182516,18.380558,2.003288,3.85765,7.297681,14.749833,11.304257,23.145894,3.004926,6.126856,3.720385,14.295991,2.003288,21.55744-3.720385,15.884436-9.300969,24.734339-8.299325,48.78791.715459,15.203667-.715459,59.907019-1.001644,64.218512l.143095.680768Z" fill="#875c51"/><path d="M162.560868,207.024363l13.307545-26.529167c1.860198-3.763003,4.865124-6.397108,8.15623-7.337858,3.863475-1.128898,9.444059-3.574856,13.450634-9.783809,7.154592-10.72456,11.018067-17.874264,11.018067-17.874264l-3.291117-3.763003s-8.44242,10.72456-12.019716,14.863861c-3.004926,3.386701-6.296043,5.832655-12.735175,6.397104-2.289467.188147-4.149665-2.069649-4.149665-5.080055,0-4.139305-.14309-8.654907-.286179-11.66531,0-2.069652.42928-4.139305,1.430918-5.832655l3.434206-5.644504-2.861837-2.44595-4.578934,7.149704c-1.144739,1.693351-3.148016,2.257803-4.578934,1.128902l-8.58551-6.585255-1.287829,3.386708,7.583872,6.961557c1.574008,1.5052,2.432557,3.951154,2.432557,6.585255v15.804608l-19.174297,27.469925,12.592086,12.982363.143079-.188154Z" fill="none" stroke="#000" stroke-linecap="round" stroke-linejoin="round"/><path d="M133.848715,125.74805c0-.68076-.286185-13.842152-.57237-22.011289,0-4.08457.715459-8.169138,2.432562-11.346026l1.287829-2.496125-3.004926-2.949966-5.580584,8.62298c-2.432562,3.857648-3.863481,8.849899-4.00657,14.295993l-.715459,29.499664,10.159518-13.615231Z" fill="none" stroke="#000" stroke-linecap="round" stroke-linejoin="round"/><path d="M143.292773,262.999987l-28.189087-20.518186,2.861837-20.344299-3.720385-3.129891-7.726961,20.344293c-.715459,1.912709-2.289467,3.303778-4.149663,3.477658l-9.873336.869414c-2.718744.17388-5.580581-.869414-7.726958-2.956004l-17.171024-16.692755-2.861837,3.303778,14.595367,18.605464c.715459,1.043295.286183,2.608243-.858552,2.782124l-10.874979,1.738829.429276,3.825432,32.338755-1.738829c4.865122-.17388,9.730246,1.912709,13.307542,5.912021,9.014784,9.911319,25.61344,27.995142,25.75653,27.473502,0-.869414,4.00657-22.952536,4.00657-22.952536,0,0-.143095,0-.143095-.000013Z" fill="none" stroke="#000" stroke-linecap="round" stroke-linejoin="round"/><path d="M134.623471,352.895488c-.429274,7.715301,33.626575,8.622986,33.054217-.226917-.286179-3.857642-.715459-33.357308-.715459-33.357308,0-4.765327,1.144739-9.530655,3.148016-13.161397l26.042709-48.334059c2.146377-3.857642,4.435845-7.488384,7.154592-10.43834,4.006576-4.53841,9.873339-11.119109,11.733526-13.161397,2.861837-2.949974,6.868412-2.042288,8.44242-.680768s8.58551,4.992244,8.58551,4.992244l2.289467-4.992244s-8.44242-7.715301-10.445708-9.757589c-4.435845-4.084567-10.445708-2.269205-13.736814.680768-3.863475,3.403808-10.016428,9.530655-10.016428,9.530655,0,0-.42928-11.572943-.715459-18.834401,0-2.723048.42928-5.673013,1.430918-7.942218,3.148016-6.807615,9.587148-20.422846,9.587148-20.422846l-3.148016-3.630725s-9.157879,12.480628-11.161167,16.111353c-1.144739,2.269205-4.292755,4.765327-6.296043,1.36152-1.717098-2.949965-6.439132-9.530663-6.439132-9.530663l-2.432557,3.176891,7.870051,15.430593c.715459,1.36152,1.144739,3.176891,1.144739,4.765327v26.322785c.14309,0-20.891405,34.038077-23.610152,38.122636-.42928-31.768872,5.580584-32.44964,5.294393-50.14943-.286179-12.480628-6.439132-22.238209-9.444059-27.457379-2.432557-4.311493-14.738458-23.599737-20.032857-31.541955-1.287829-2.042288-3.291111-4.992253-3.720385-9.530663-.429274-4.084567-1.144734-9.75758-1.430918-13.161388-.715459-5.899934.858549-11.119104,3.004926-15.884436,1.860193-4.084567,7.870051-17.92672,9.730249-21.330527s4.578934-7.715297,8.01314-9.303742c3.434206-1.588443,13.593724-8.396059,13.593724-8.396059l-1.144739-4.31149s-14.595363,5.673013-16.59865,6.580695-5.008214,2.269205-8.58551,8.169137c-3.577296,5.899932-17.027919,24.05358-18.745017,26.549706-1.860193,2.496127-5.008214,7.261458-5.008214,13.842152s1.001644,21.557453,1.001644,21.557453l-15.883197-1.815371c-3.004929,0-7.870051-2.949965-9.873336-6.353773l-11.590439-20.195929-3.720388,4.765332,9.157877,22.011287-21.463775,8.396061.572367,5.21917s14.452276-2.949965,17.457202-3.630725,10.445703.907686,19.317397,3.176891c9.300969,2.269205,15.597006,1.815362,24.182516,18.380558,2.003288,3.85765,7.297681,14.749833,11.304257,23.145894,3.004926,6.126856,3.720385,14.295991,2.003288,21.55744-3.720385,15.884436-9.300969,24.734339-8.299325,48.78791.715459,15.203667-.715459,59.907019-1.001644,64.218512l.143095.680768Z" fill="none" stroke="#000" stroke-linecap="round" stroke-linejoin="round"/><path d="M149.965568,376.858729l.066263-2.516117c.025597-.97195-.499468-1.913099-1.390387-2.302464-1.785878-.780495-3.538056.47753-3.58306,2.186463l-.068085,2.485137c-.041713,1.708618,1.646749,3.059568,3.469763,2.370909.90793-.342978,1.479955-1.253714,1.505506-2.223929Z" fill="#434a54"/><path d="M143.239088,378.86344l44.422362,1.172127c1.254085.030617,2.299448-.956404,2.332536-2.212833.030762-1.253931-.958878-2.297106-2.212836-2.332539l-44.422478-1.167611c-1.253812-.035279-2.299457.956706-2.330221,2.210636-.033088,1.25643.956552,2.299604,2.210636,2.33022Z" fill="#656d78"/><path d="M161.820582,375.145158l5.492458-6.509468c.459224-.544256,1.140995-.850191,1.852858-.831444l14.670439.386346c.398935.012897.78576.128132,1.125867.337774l11.42702,7.062589c1.013359.624993,1.388269,1.955328.76387,3.051065-.428606.752145-1.302437,1.13731-2.167831,1.11452l-31.566866-.831338-.002326-.002452c-1.243643-.030361-2.225045-1.064851-2.192233-2.310822.014992-.569229.238738-1.081708.596745-1.466769Z" fill="#a85d5d"/><path d="M228.592468,392.895618c.904402.026301,1.777845-.476079,2.185413-1.345125l3.25255-6.943889c.551252-1.170895.04689-2.564806-1.123914-3.113723s-2.567288-.046956-3.11627,1.126331l-3.254811,6.9415c-.547709,1.172078-.043356,2.566292,1.127604,3.115062.299422.141447.617769.212879.929429.219845Z" fill="#ed5564"/><path d="M230.135656,382.059011c.447817-.611748,1.169198-.964448,1.927599-.94555l6.939622.182756c.964373.024172,1.811259.645766,2.126582,1.556922l6.454434,18.693741c.246207.715047.12689,1.5104-.320925,2.122146-.448919.612794-1.1703.965494-1.927599.94555l-6.943268-.184079c-.963416-.025372-1.811409-.645924-2.125473-1.558275l-6.453307-18.690028c-.247032-.718755-.126581-1.510392.322336-2.123184Z" fill="#965353"/><path d="M199.246716,404.161642c4.860481-4.700928,8.015892-9.807993,9.124497-14.770014.797949-3.579953.267402-5.91381.225842-6.087135-.247399-.837776-.005823-1.725724.646621-2.355622.453408-.437741,1.095341-.624552,1.725358-.60798l9.310697.24492c1.260792.033206,2.266611,1.055793,2.280679,2.314411.006203.637209.01915,15.761071-13.097191,29.433593-.471508.489979-1.111344.737456-1.75152.720748-.448601-.014146-.898536-.154736-1.286701-.42928l-6.901669-4.867499c-.569341-.400763-.931222-1.036464-.985594-1.731784-.052123-.697749.208424-1.380116.708981-1.864359Z" fill="#434a54"/><path d="M242.860422,372.071483c.492352-.429311,1.144523-.632497,1.794393-.559712l6.654896.731362,10.681881-1.988931.459813-.036345,21.464549.565272c1.290643.031509,2.311545,1.107637,2.275079,2.398149l-.492524,18.702207c-.017756.71552-.362227,1.382575-.93686,1.809564-.425073.318341-.939388.480496-1.46256.466721-.179144-.004718-.360197-.031198-.535922-.077228l-39.163281-10.389115c-1.046753-.277085-1.766599-1.237505-1.738031-2.322284l.200095-7.598102c.017364-.653497.307429-1.268644.798475-1.701557Z" fill="#a85d5d"/><path d="M191.142059,384.619219l52.233829,1.374268c.620775.016303,1.223919-.217171,1.67448-.647661s.712532-1.023591.729042-1.64879l.249445-9.44579c.023372-.885051-.453973-1.707738-1.233948-2.126665l-4.622275-2.482635c-.322456-.173192-.68101-.26841-1.046907-.278018l-55.307676-1.452335c-1.161333-.030497-2.2138.809041-2.395883,2.067819-.079956.552754.082163,1.114821.376908,1.589221l7.421148,11.944518c.414334.670611,1.138501,1.088157,1.921837,1.106068Z" fill="#656d78"/><path d="M228.931517,371.992824l-27.671191-.728417c-1.272919-.035969-2.277376-1.094762-2.246296-2.36781l32.284041.851122c-.032176,1.274088-1.092379,2.279883-2.366553,2.245104Z" fill="#434a54"/><path d="M149.965568,376.858729l.066263-2.516117c.025597-.97195-.499468-1.913099-1.390387-2.302464-1.785878-.780495-3.538056.47753-3.58306,2.186463l-.068085,2.485137c-.041713,1.708618,1.646749,3.059568,3.469763,2.370909.90793-.342978,1.479955-1.253714,1.505506-2.223929Z" fill="none" stroke="#000" stroke-linecap="round" stroke-linejoin="round"/><path d="M143.239088,378.86344l44.422362,1.172127c1.254085.030617,2.299448-.956404,2.332536-2.212833.030762-1.253931-.958878-2.297106-2.212836-2.332539l-44.422478-1.167611c-1.253812-.035279-2.299457.956706-2.330221,2.210636-.033088,1.25643.956552,2.299604,2.210636,2.33022Z" fill="none" stroke="#000" stroke-linecap="round" stroke-linejoin="round"/><path d="M161.820582,375.145158l5.492458-6.509468c.459224-.544256,1.140995-.850191,1.852858-.831444l14.670439.386346c.398935.012897.78576.128132,1.125867.337774l11.42702,7.062589c1.013359.624993,1.388269,1.955328.76387,3.051065-.428606.752145-1.302437,1.13731-2.167831,1.11452l-31.566866-.831338-.002326-.002452c-1.243643-.030361-2.225045-1.064851-2.192233-2.310822.014992-.569229.238738-1.081708.596745-1.466769Z" fill="none" stroke="#000" stroke-linecap="round" stroke-linejoin="round"/><path d="M228.592468,392.895618c.904402.026301,1.777845-.476079,2.185413-1.345125l3.25255-6.943889c.551252-1.170895.04689-2.564806-1.123914-3.113723s-2.567288-.046956-3.11627,1.126331l-3.254811,6.9415c-.547709,1.172078-.043356,2.566292,1.127604,3.115062.299422.141447.617769.212879.929429.219845Z" fill="none" stroke="#000" stroke-linecap="round" stroke-linejoin="round"/><path d="M230.135656,382.059011c.447817-.611748,1.169198-.964448,1.927599-.94555l6.939622.182756c.964373.024172,1.811259.645766,2.126582,1.556922l6.454434,18.693741c.246207.715047.12689,1.5104-.320925,2.122146-.448919.612794-1.1703.965494-1.927599.94555l-6.943268-.184079c-.963416-.025372-1.811409-.645924-2.125473-1.558275l-6.453307-18.690028c-.247032-.718755-.126581-1.510392.322336-2.123184Z" fill="none" stroke="#000" stroke-linecap="round" stroke-linejoin="round"/><path d="M199.246716,404.161642c4.860481-4.700928,8.015892-9.807993,9.124497-14.770014.797949-3.579953.267402-5.91381.225842-6.087135-.247399-.837776-.005823-1.725724.646621-2.355622.453408-.437741,1.095341-.624552,1.725358-.60798l9.310697.24492c1.260792.033206,2.266611,1.055793,2.280679,2.314411.006203.637209.01915,15.761071-13.097191,29.433593-.471508.489979-1.111344.737456-1.75152.720748-.448601-.014146-.898536-.154736-1.286701-.42928l-6.901669-4.867499c-.569341-.400763-.931222-1.036464-.985594-1.731784-.052123-.697749.208424-1.380116.708981-1.864359Z" fill="none" stroke="#000" stroke-linecap="round" stroke-linejoin="round"/><path d="M242.860422,372.071483c.492352-.429311,1.144523-.632497,1.794393-.559712l6.654896.731362,10.681881-1.988931.459813-.036345,21.464549.565272c1.290643.031509,2.311545,1.107637,2.275079,2.398149l-.492524,18.702207c-.017756.71552-.362227,1.382575-.93686,1.809564-.425073.318341-.939388.480496-1.46256.466721-.179144-.004718-.360197-.031198-.535922-.077228l-39.163281-10.389115c-1.046753-.277085-1.766599-1.237505-1.738031-2.322284l.200095-7.598102c.017364-.653497.307429-1.268644.798475-1.701557Z" fill="none" stroke="#000" stroke-linecap="round" stroke-linejoin="round"/><path d="M191.142059,384.619219l52.233829,1.374268c.620775.016303,1.223919-.217171,1.67448-.647661s.712532-1.023591.729042-1.64879l.249445-9.44579c.023372-.885051-.453973-1.707738-1.233948-2.126665l-4.622275-2.482635c-.322456-.173192-.68101-.26841-1.046907-.278018l-55.307676-1.452335c-1.161333-.030497-2.2138.809041-2.395883,2.067819-.079956.552754.082163,1.114821.376908,1.589221l7.421148,11.944518c.414334.670611,1.138501,1.088157,1.921837,1.106068Z" fill="none" stroke="#000" stroke-linecap="round" stroke-linejoin="round"/><path d="M228.931517,371.992824l-27.671191-.728417c-1.272919-.035969-2.277376-1.094762-2.246296-2.36781l32.284041.851122c-.032176,1.274088-1.092379,2.279883-2.366553,2.245104Z" fill="none" stroke="#000" stroke-linecap="round" stroke-linejoin="round"/><g id="uuid-0dcc1e32-3205-4521-8fc0-ef05f905b5d2"><polygon id="uuid-8fbeb5b1-1fad-4ca6-8e34-841e6630ec17" points="347 330 332 330 332 357.468408 332 363 355 363 355 357 347 357 347 330" fill="#5f4d2f"/><rect id="uuid-a36c0285-c2c1-4271-a178-83533f278de2" x="320.517831" y="301.266989" width="19.023229" height="37.285501" transform="translate(-124.276746 250.141837) rotate(-35.377246)" fill="#726038"/><polygon id="uuid-229b9295-659d-4407-968e-18b60946e5b0" points="302.000023 336 317 336 317 363 325 363 325 369 302 369 302 363.468408 302.000023 363.468408 302.000023 336" fill="#5f4d2f"/><rect id="uuid-b6ff9ee2-9671-4a34-ab6a-8eec6539521d" x="292.929029" y="305.266984" width="19.023244" height="37.285501" transform="translate(-98.985009 136.172411) rotate(-21.898744)" fill="#726038"/><path id="uuid-12168d41-0c38-4896-b49d-bbe17029161a" d="M286,236v76h43v-76h-43Z" fill="#726038"/><rect id="uuid-abefe41b-56ce-4301-882c-455fa21775a3" x="286" y="280" width="43" height="13" fill="#ac935a"/><rect id="uuid-62f4d5c4-b771-40a7-a246-9dab468abf11" x="317" y="235" width="5" height="45" fill="#ac935a"/><rect id="uuid-f00f43db-0959-425f-a769-5e44f7d7f952" x="293" y="235" width="5" height="45" fill="#ac935a"/><path id="uuid-73809b51-3025-42af-8ba0-188bf3284312" d="M327.526491,225.299731c1.46085-4.124449,2.247558-8.756842,2.164173-13.646177-.287924-16.882624-10.785896-30.393665-23.447875-30.177722-12.661979.215944-22.693132,14.077099-22.405208,30.959723.083385,4.889335,1.027596,9.492208,2.628236,13.564445l41.060675-.700269Z" fill="#eec6a2"/><path id="uuid-917d3cde-75f1-43e7-83f5-2c761954ada7" d="M288.013801,230c4.070645,8.513939,11.20999,14.165841,19.343864,14.165841s15.273218-5.651903,19.343864-14.165841h-38.687727Z" fill="#eec6a2"/><ellipse id="uuid-430545c7-70cd-44f2-94d9-9386957bca1d" cx="306.5" cy="215.5" rx="3.508072" ry="2.488275" transform="translate(62.363024 499.717587) rotate(-84.449143)" fill="#333"/><ellipse id="uuid-ac441287-4d1e-4250-b812-cc8dd89a114e" cx="294.5" cy="215.5" rx="3.508072" ry="2.488275" transform="translate(51.523775 487.773859) rotate(-84.449143)" fill="#333"/><rect id="uuid-f92a19c6-a07a-4454-a3c3-9015c8b758b2" x="331.02291" y="259.574413" width="11.464917" height="24.45853" transform="translate(-25.060043 34.377846) rotate(-5.634698)" fill="#726038"/><rect id="uuid-5b3ddf97-4fbf-46df-91b5-023e7b6a5018" x="328.634032" y="235.361736" width="11.464917" height="24.45853" transform="translate(-22.69425 34.0263) rotate(-5.634698)" fill="#726038"/><rect id="uuid-a1172807-1392-4f65-a134-b55992e89738" x="266.89575" y="241.858543" width="24.45853" height="11.464917" transform="translate(9.686075 505.689307) rotate(-85.342327)" fill="#726038"/><rect id="uuid-7da7584c-9a94-4e27-b2a9-d57b0290a6ef" x="264.923113" y="266.071219" width="24.45853" height="11.464917" transform="translate(-16.259098 525.969737) rotate(-85.342327)" fill="#726038"/><rect id="uuid-9f012afe-e5a2-41a8-a165-4af7991434cf" x="332.31572" y="284.039577" width="12.371457" height="12.371457" transform="translate(-26.860479 34.63849) rotate(-5.634728)" fill="#eec6a2"/><rect id="uuid-43ea5997-20d3-435d-90b1-05d5d2e356ab" x="269.543244" y="284.03294" width="12.229267" height="12.229267" transform="translate(-35.915427 541.334667) rotate(-85.342357)" fill="#eec6a2"/><circle id="uuid-31bc1b85-4b78-42c5-846c-6018b3422e23" cx="307.5" cy="271.5" r="1.5" fill="#333"/><circle id="uuid-a9aa4b61-31d7-4037-a58a-e5e883686d49" cx="307.5" cy="265.5" r="1.5" fill="#333"/><circle id="uuid-3e8cfdc8-7d67-46cb-8e72-2b0d57eee8a7" cx="307.5" cy="259.5" r="1.5" fill="#333"/><circle id="uuid-f97aaef0-3bd4-42fa-b457-3accb0c39196" cx="307.5" cy="252.5" r="1.5" fill="#333"/><path d="M330.138023,191.547991c-2.421833-10.486337-14.131006-17.685507-27.368551-16.379453-13.237546,1.306054-23.314067,10.654663-23.639929,21.412095-4.362237,1.06919-6.933687,2.130994-6.847735,3.002169.201898,2.046345,14.951822,2.266101,32.944874.490855,17.993053-1.775246,32.415637-4.873244,32.213739-6.919589-.085953-.871175-2.815324-1.409985-7.302397-1.606076Z" fill="#596a66"/><polygon id="uuid-339725e6-b956-452f-8649-c90f2a34d24d" points="347 330 332 330 332 357.468408 332 363 355 363 355 357 347 357 347 330" fill="none" stroke="#000" stroke-linecap="round" stroke-linejoin="round"/><rect id="uuid-10a5a7eb-7554-42b3-8466-55263449c56c" x="320.517831" y="301.266989" width="19.023229" height="37.285501" transform="translate(-124.276746 250.141837) rotate(-35.377246)" fill="none" stroke="#000" stroke-linecap="round" stroke-linejoin="round"/><polygon id="uuid-e02bb227-070c-4047-b960-8c6762277491" points="302.000023 336 317 336 317 363 325 363 325 369 302 369 302 363.468408 302.000023 363.468408 302.000023 336" fill="none" stroke="#000" stroke-linecap="round" stroke-linejoin="round"/><rect id="uuid-edd9605c-f1b4-415e-b218-78f1c341c8de" x="292.929029" y="305.266984" width="19.023244" height="37.285501" transform="translate(-98.985009 136.172411) rotate(-21.898744)" fill="none" stroke="#000" stroke-linecap="round" stroke-linejoin="round"/><path id="uuid-e0462604-fab0-4a5b-a9ad-9ab6ea22ea85" d="M286,236v76h43v-76h-43Z" fill="none" stroke="#000" stroke-linecap="round" stroke-linejoin="round"/><rect id="uuid-4ae88b8b-aca8-41bb-9caa-b84e7d4f7a9c" x="286" y="280" width="43" height="13" fill="none" stroke="#000" stroke-linecap="round" stroke-linejoin="round"/><rect id="uuid-65cd8201-41df-4775-aa85-6894ee52e789" x="317" y="235" width="5" height="45" fill="none" stroke="#000" stroke-linecap="round" stroke-linejoin="round"/><rect id="uuid-856a63d9-efb7-428f-8809-3c2d01b5b3f0" x="293" y="235" width="5" height="45" fill="none" stroke="#000" stroke-linecap="round" stroke-linejoin="round"/><path id="uuid-f80f2cf3-613e-47f9-90b8-538c201a31b0" d="M327.526491,225.299731c1.46085-4.124449,2.247558-8.756842,2.164173-13.646177-.287924-16.882624-10.785896-30.393665-23.447875-30.177722-12.661979.215944-22.693132,14.077099-22.405208,30.959723.083385,4.889335,1.027596,9.492208,2.628236,13.564445l41.060675-.700269Z" fill="none" stroke="#000" stroke-linecap="round" stroke-linejoin="round"/><path id="uuid-cc8794fa-96df-4f83-9add-841ec6211807" d="M288.013801,230c4.070645,8.513939,11.20999,14.165841,19.343864,14.165841s15.273218-5.651903,19.343864-14.165841h-38.687727Z" fill="none" stroke="#000" stroke-linecap="round" stroke-linejoin="round"/><ellipse id="uuid-a11f6731-30f5-4ebf-bbba-9c18e452b510" cx="306.5" cy="215.5" rx="3.508072" ry="2.488275" transform="translate(62.363024 499.717587) rotate(-84.449143)" fill="none" stroke="#000" stroke-linecap="round" stroke-linejoin="round"/><ellipse id="uuid-4f0ae68a-818a-4f62-b2c6-dbdfb5e279dc" cx="294.5" cy="215.5" rx="3.508072" ry="2.488275" transform="translate(51.523775 487.773859) rotate(-84.449143)" fill="none" stroke="#000" stroke-linecap="round" stroke-linejoin="round"/><rect id="uuid-bdfcd644-81b8-4d4f-8bd8-bcc97d966a57" x="331.02291" y="259.574413" width="11.464917" height="24.45853" transform="translate(-25.060043 34.377846) rotate(-5.634698)" fill="none" stroke="#000" stroke-linecap="round" stroke-linejoin="round"/><rect id="uuid-af74f5ca-45e2-4bc8-8239-0609f5400190" x="328.634032" y="235.361736" width="11.464917" height="24.45853" transform="translate(-22.69425 34.0263) rotate(-5.634698)" fill="none" stroke="#000" stroke-linecap="round" stroke-linejoin="round"/><rect id="uuid-c5b0ba48-90d2-4a97-872e-cbc9967eb9e7" x="266.89575" y="241.858543" width="24.45853" height="11.464917" transform="translate(9.686075 505.689307) rotate(-85.342327)" fill="none" stroke="#000" stroke-linecap="round" stroke-linejoin="round"/><rect id="uuid-5abb2f2b-03cc-486c-a590-ee8f728944af" x="264.923113" y="266.071219" width="24.45853" height="11.464917" transform="translate(-16.259098 525.969737) rotate(-85.342327)" fill="none" stroke="#000" stroke-linecap="round" stroke-linejoin="round"/><rect id="uuid-fe7f4306-6b96-45dd-abab-cda2eefa9570" x="332.31572" y="284.039577" width="12.371457" height="12.371457" transform="translate(-26.860479 34.63849) rotate(-5.634728)" fill="none" stroke="#000" stroke-linecap="round" stroke-linejoin="round"/><rect id="uuid-c465c39e-cea1-470e-b2a1-0d95d64e26b8" x="269.543244" y="284.03294" width="12.229267" height="12.229267" transform="translate(-35.915427 541.334667) rotate(-85.342357)" fill="none" stroke="#000" stroke-linecap="round" stroke-linejoin="round"/><circle id="uuid-88b71a78-4fec-4cdb-90a0-bc63fb6fef2e" cx="307.5" cy="271.5" r="1.5" fill="none" stroke="#000" stroke-linecap="round" stroke-linejoin="round"/><circle id="uuid-ca046792-fd41-40f8-9d3d-38411d5be1c2" cx="307.5" cy="265.5" r="1.5" fill="none" stroke="#000" stroke-linecap="round" stroke-linejoin="round"/><circle id="uuid-cacd2983-34c6-4803-a73b-14bc3f35872e" cx="307.5" cy="259.5" r="1.5" fill="none" stroke="#000" stroke-linecap="round" stroke-linejoin="round"/><circle id="uuid-4ba0d27a-8824-4402-af02-302480de69e4" cx="307.5" cy="252.5" r="1.5" fill="none" stroke="#000" stroke-linecap="round" stroke-linejoin="round"/><path d="M330.138023,191.547991c-2.421833-10.486337-14.131006-17.685507-27.368551-16.379453-13.237546,1.306054-23.314067,10.654663-23.639929,21.412095-4.362237,1.06919-6.933687,2.130994-6.847735,3.002169.201898,2.046345,14.951822,2.266101,32.944874.490855,17.993053-1.775246,32.415637-4.873244,32.213739-6.919589-.085953-.871175-2.815324-1.409985-7.302397-1.606076Z" fill="none" stroke="#000" stroke-linecap="round" stroke-linejoin="round"/></g></svg>