<?xml version="1.0" encoding="UTF-8"?><svg id="uuid-22394771-6bd2-4d7a-a471-973192effce3" xmlns="http://www.w3.org/2000/svg" xmlns:xlink="http://www.w3.org/1999/xlink" viewBox="0 0 500 500"><defs><linearGradient id="uuid-33dca368-36ad-4030-8934-f8955989e3b9" x1="987.66" y1="-241.93" x2="987.65" y2="-241.96" gradientTransform="translate(2.35 1294.28) rotate(-90) scale(1 -1)" gradientUnits="userSpaceOnUse"><stop offset="0" stop-color="#ce8963"/><stop offset="1" stop-color="#d08a61" stop-opacity="0"/></linearGradient><radialGradient id="uuid-82e57bf3-9aed-4c07-8335-b2f0c441f4c4" cx="-3594.79" cy="-371.11" fx="-3594.79" fy="-371.11" r="10.88" gradientTransform="translate(6.87 4565.2) rotate(90) scale(1.18 .6)" gradientUnits="userSpaceOnUse"><stop offset=".06" stop-color="#ffa726"/><stop offset=".14" stop-color="#ffa726"/><stop offset="1" stop-color="#ffa726" stop-opacity=".1"/></radialGradient><linearGradient id="uuid-e3346073-81e1-4c10-bd2a-229f07d0d9b5" x1="-3972.53" y1="-228.65" x2="-3963.53" y2="-228.65" gradientTransform="translate(2.35 4295.53) rotate(90)" gradientUnits="userSpaceOnUse"><stop offset="0" stop-color="#8a5140"/><stop offset="1" stop-color="#8a5140"/></linearGradient></defs><text transform="translate(247.52 107.7)" fill="#333" font-family="ComicNeue-Regular, &apos;Comic Neue&apos;" font-size="24"><tspan x="0" y="0">The death toll was </tspan><tspan x="0" y="28.8">higher than ever.</tspan></text><polygon points="405.24 339.77 413.55 344 376.19 344 396.94 338.72 405.24 339.77" fill="#633d35"/><path d="M233,308h39.31c0-.3,3.67-.43,4.6-1.18.61-.49-.69-1.57-4.47-2.88-.5-.18-.57-.41-.17-.6,1.11-.5,3.28-1.58,9.86-2.26,7.26-.75,13.38-.61,15.97-.49.87.04,1.67.15,2.3.29,5.56,1.22,52.78,8.13,52.78,8.13,0,0,27.2-.1,42.95-.1,14.36,0,26.35,6.35,29.13,14.8l-4.95,4.71,3.72,5.44c-1.02,1.73-2.43,3.34-4.17,4.79l-38.95,3.63,33.21,1.02s-10.66,2.72-17.99,2.72c-15.88,0-163.14,1.02-163.14,1.02v-39.02Z" fill="#ad7156"/><path d="M244.36,306.5c-.03.09-.07.16-.12.23.06-.09.1-.18.12-.23Z" fill="url(#uuid-33dca368-36ad-4030-8934-f8955989e3b9)"/><path d="M261.29,334.6c10.3.17,20.51.46,30.71.77l15.25.47c5.08.15,10.1.34,14.97.3,5,0,10.12-.07,15.21-.14l15.34-.19c10.25-.12,20.5-.23,30.82-.21-10.08.6-20.26,1.03-30.47,1.38-10.23.34-20.42.61-30.89.66-5.39.01-10.58-.2-15.68-.39-5.1-.22-10.17-.44-15.21-.72-10.1-.54-20.13-1.15-30.06-1.93Z" fill="#ce8963"/><path d="M313.18,340.78c1.3-.14,2.71-.15,4.06-.19,1.37-.03,2.74-.05,4.11-.06,2.74-.02,5.49-.03,8.23-.02,5.49.01,10.95.07,16.42.15,5.47.08,10.92.18,16.36.3,5.45.11,10.9.26,16.35.41l-.67.02,9.66-.71,9.69-.68c6.49-.44,12.97-.85,19.55-1.21-6.23.66-12.55,1.27-18.87,1.85l-9.51.85-9.51.81-.3.03h-.35c-5.43-.14-10.88-.24-16.33-.38-5.43-.13-10.88-.27-16.31-.41l-16.29-.45-8.15-.22c-1.35-.04-2.72-.07-4.08-.09-1.35-.01-2.72-.06-4.08.02Z" fill="#ce8963"/><path d="M373.41,329h46.33s3.71-4.02,3.71-4.02c0,0-27.8,2.51-50.04,4.02Z" fill="#ce8963"/><path d="M341.9,313.52c-24-2.85-49.91-12.9-49.91-12.9l-.8-.3c3.26-.06,5.63-.01,6.93.07.57.04,1.52.15,1.87.23,4.37.96,34.14,7.37,53,7.37,0,0,26.78-.1,42.53-.1,7.06,0,16.77,2.11,22.33,6.63l-53.74-2.01,16.68,4.52s-22.02-1.51-38.9-3.52Z" fill="#965b44"/><path d="M270.79,307.72c7.64-.13,5.9-1.55,5.9-1.55,2.87,1.63,4.47,3.99,1.06,5.35-3.77,1.51-23.37,2.22-23.37,2.22l-11.32-1-10.43-4.74,38.16-.28Z" fill="#965b44"/><path d="M224.45,328.49c.23,10.07,3.75,18.07,8.05,18.07,4.45,0,8.06-8.56,8.06-19.13,0-10.56-3.61-19.13-8.06-19.13-4.28,0-7.79,7.93-8.05,17.93" fill="#ffcc80"/><path d="M224.45,328.49c.29,3.6.85,7.19,2.09,10.54.61,1.67,1.36,3.29,2.41,4.66.53.67,1.12,1.29,1.8,1.69.67.42,1.43.59,2.15.47.72-.12,1.4-.53,1.98-1.08.58-.56,1.1-1.23,1.53-1.96.87-1.47,1.49-3.12,1.95-4.81.93-3.39,1.33-6.95,1.32-10.49.01-3.54-.37-7.1-1.29-10.5-.46-1.69-1.07-3.35-1.92-4.83-.43-.74-.92-1.43-1.51-1.99-.57-.57-1.25-1-1.96-1.15-.72-.17-1.47,0-2.15.39-.68.39-1.29.99-1.82,1.65-1.07,1.34-1.83,2.97-2.45,4.63-1.25,3.34-1.83,6.93-2.13,10.53-.02-.9-.01-1.81.02-2.72.05-.9.12-1.81.23-2.71.22-1.8.55-3.61,1.07-5.37.54-1.75,1.24-3.49,2.34-5.05.55-.78,1.23-1.5,2.09-2.04.86-.54,1.97-.84,3.04-.65,1.07.17,1.99.75,2.72,1.42.74.67,1.32,1.46,1.82,2.27.99,1.63,1.67,3.39,2.2,5.16,1.02,3.58,1.43,7.27,1.44,10.95-.03,3.68-.44,7.37-1.48,10.94-.54,1.78-1.23,3.53-2.23,5.15-.51.81-1.1,1.58-1.85,2.25-.74.65-1.69,1.21-2.77,1.35-.53.07-1.08.03-1.6-.11-.52-.13-.98-.37-1.41-.65-.85-.56-1.5-1.3-2.05-2.08-1.07-1.57-1.77-3.3-2.3-5.06-.51-1.76-.83-3.57-1.05-5.37-.1-.9-.18-1.81-.22-2.72-.04-.91-.04-1.82-.02-2.72Z" fill="#ce8963"/><path d="M231.17,346.85c3.53,0,6.39-7.2,6.39-16.08,0-8.88-2.86-16.08-6.39-16.08s-7.6,3.14-6.4,16.08c.83,8.84,2.86,16.08,6.4,16.08Z" fill="url(#uuid-82e57bf3-9aed-4c07-8335-b2f0c441f4c4)"/><g opacity=".66"><path d="M231.66,342.25c.7,0,1.33-.41,1.81-.9.48-.51.86-1.11,1.18-1.74.62-1.26,1.02-2.62,1.34-3.99.58-2.75.78-5.57.75-8.38-.04-2.8-.32-5.61-.98-8.32-.34-1.35-.78-2.68-1.41-3.89-.31-.6-.69-1.17-1.14-1.64-.45-.45-.99-.79-1.55-.77-.55,0-1.07.35-1.51.81-.43.47-.79,1.04-1.09,1.65-.6,1.22-1,2.55-1.31,3.89-.31,1.35-.52,2.73-.66,4.11-.15,1.38-.22,2.78-.23,4.17-.02,2.79.12,5.59.65,8.34.28,1.37.64,2.73,1.24,3.99.3.63.66,1.23,1.13,1.75.47.5,1.08.92,1.78.93ZM231.66,342.36c-.74.01-1.4-.42-1.9-.92-.5-.52-.91-1.11-1.25-1.74-.69-1.26-1.18-2.61-1.56-3.98-.76-2.75-1.14-5.61-1.17-8.47,0-1.43.06-2.86.2-4.29.15-1.43.39-2.84.73-4.24.36-1.4.81-2.78,1.49-4.09.34-.65.75-1.28,1.29-1.84.28-.27.59-.53.95-.72.36-.2.79-.32,1.23-.32s.86.14,1.22.34c.36.2.66.46.93.73.52.56.92,1.2,1.24,1.85.65,1.31,1.07,2.69,1.39,4.09.63,2.79.86,5.65.84,8.49-.05,2.84-.36,5.69-1.07,8.43-.36,1.37-.81,2.73-1.46,3.99-.32.63-.72,1.23-1.21,1.75-.49.51-1.14.94-1.88.95Z" fill="#7f441c"/></g><path d="M231.09,338.87c1.86,0,3.38-4.85,3.38-10.83,0-5.98-1.51-10.83-3.38-10.83s-3.38,4.85-3.38,10.83c0,5.98,1.51,10.83,3.38,10.83ZM231.09,337.02c-1.4,0-2.53-3.83-2.53-8.55,0-4.73,1.14-8.55,2.53-8.55,1.4,0,2.53,3.83,2.53,8.55,0,4.73-1.14,8.55-2.53,8.55Z" fill="#b5772c" isolation="isolate" opacity=".82"/><ellipse cx="231" cy="327.5" rx="1" ry="4.5" fill="url(#uuid-e3346073-81e1-4c10-bd2a-229f07d0d9b5)" isolation="isolate" opacity=".74"/><polygon points="405.24 339.77 413.55 344 376.19 344 396.94 338.72 405.24 339.77" fill="none" stroke="#000" stroke-linecap="round" stroke-linejoin="round"/><path d="M233,308h39.31c0-.3,3.67-.43,4.6-1.18.61-.49-.69-1.57-4.47-2.88-.5-.18-.57-.41-.17-.6,1.11-.5,3.28-1.58,9.86-2.26,7.26-.75,13.38-.61,15.97-.49.87.04,1.67.15,2.3.29,5.56,1.22,52.78,8.13,52.78,8.13,0,0,27.2-.1,42.95-.1,14.36,0,26.35,6.35,29.13,14.8l-4.95,4.71,3.72,5.44c-1.02,1.73-2.43,3.34-4.17,4.79l-38.95,3.63,33.21,1.02s-10.66,2.72-17.99,2.72c-15.88,0-163.14,1.02-163.14,1.02v-39.02Z" fill="none" stroke="#000" stroke-linecap="round" stroke-linejoin="round"/><path d="M244.36,306.5c-.03.09-.07.16-.12.23.06-.09.1-.18.12-.23Z" fill="none" stroke="#000" stroke-linecap="round" stroke-linejoin="round"/><path d="M261.29,334.6c10.3.17,20.51.46,30.71.77l15.25.47c5.08.15,10.1.34,14.97.3,5,0,10.12-.07,15.21-.14l15.34-.19c10.25-.12,20.5-.23,30.82-.21-10.08.6-20.26,1.03-30.47,1.38-10.23.34-20.42.61-30.89.66-5.39.01-10.58-.2-15.68-.39-5.1-.22-10.17-.44-15.21-.72-10.1-.54-20.13-1.15-30.06-1.93Z" fill="none" stroke="#000" stroke-linecap="round" stroke-linejoin="round"/><path d="M313.18,340.78c1.3-.14,2.71-.15,4.06-.19,1.37-.03,2.74-.05,4.11-.06,2.74-.02,5.49-.03,8.23-.02,5.49.01,10.95.07,16.42.15,5.47.08,10.92.18,16.36.3,5.45.11,10.9.26,16.35.41l-.67.02,9.66-.71,9.69-.68c6.49-.44,12.97-.85,19.55-1.21-6.23.66-12.55,1.27-18.87,1.85l-9.51.85-9.51.81-.3.03h-.35c-5.43-.14-10.88-.24-16.33-.38-5.43-.13-10.88-.27-16.31-.41l-16.29-.45-8.15-.22c-1.35-.04-2.72-.07-4.08-.09-1.35-.01-2.72-.06-4.08.02Z" fill="none" stroke="#000" stroke-linecap="round" stroke-linejoin="round"/><path d="M373.41,329h46.33s3.71-4.02,3.71-4.02c0,0-27.8,2.51-50.04,4.02Z" fill="none" stroke="#000" stroke-linecap="round" stroke-linejoin="round"/><path d="M341.9,313.52c-24-2.85-49.91-12.9-49.91-12.9l-.8-.3c3.26-.06,5.63-.01,6.93.07.57.04,1.52.15,1.87.23,4.37.96,34.14,7.37,53,7.37,0,0,26.78-.1,42.53-.1,7.06,0,16.77,2.11,22.33,6.63l-53.74-2.01,16.68,4.52s-22.02-1.51-38.9-3.52Z" fill="none" stroke="#000" stroke-linecap="round" stroke-linejoin="round"/><path d="M270.79,307.72c7.64-.13,5.9-1.55,5.9-1.55,2.87,1.63,4.47,3.99,1.06,5.35-3.77,1.51-23.37,2.22-23.37,2.22l-11.32-1-10.43-4.74,38.16-.28Z" fill="none" stroke="#000" stroke-linecap="round" stroke-linejoin="round"/><path d="M224.45,328.49c.23,10.07,3.75,18.07,8.05,18.07,4.45,0,8.06-8.56,8.06-19.13,0-10.56-3.61-19.13-8.06-19.13-4.28,0-7.79,7.93-8.05,17.93" fill="none" stroke="#000" stroke-linecap="round" stroke-linejoin="round"/><path d="M224.45,328.49c.29,3.6.85,7.19,2.09,10.54.61,1.67,1.36,3.29,2.41,4.66.53.67,1.12,1.29,1.8,1.69.67.42,1.43.59,2.15.47.72-.12,1.4-.53,1.98-1.08.58-.56,1.1-1.23,1.53-1.96.87-1.47,1.49-3.12,1.95-4.81.93-3.39,1.33-6.95,1.32-10.49.01-3.54-.37-7.1-1.29-10.5-.46-1.69-1.07-3.35-1.92-4.83-.43-.74-.92-1.43-1.51-1.99-.57-.57-1.25-1-1.96-1.15-.72-.17-1.47,0-2.15.39-.68.39-1.29.99-1.82,1.65-1.07,1.34-1.83,2.97-2.45,4.63-1.25,3.34-1.83,6.93-2.13,10.53-.02-.9-.01-1.81.02-2.72.05-.9.12-1.81.23-2.71.22-1.8.55-3.61,1.07-5.37.54-1.75,1.24-3.49,2.34-5.05.55-.78,1.23-1.5,2.09-2.04.86-.54,1.97-.84,3.04-.65,1.07.17,1.99.75,2.72,1.42.74.67,1.32,1.46,1.82,2.27.99,1.63,1.67,3.39,2.2,5.16,1.02,3.58,1.43,7.27,1.44,10.95-.03,3.68-.44,7.37-1.48,10.94-.54,1.78-1.23,3.53-2.23,5.15-.51.81-1.1,1.58-1.85,2.25-.74.65-1.69,1.21-2.77,1.35-.53.07-1.08.03-1.6-.11-.52-.13-.98-.37-1.41-.65-.85-.56-1.5-1.3-2.05-2.08-1.07-1.57-1.77-3.3-2.3-5.06-.51-1.76-.83-3.57-1.05-5.37-.1-.9-.18-1.81-.22-2.72-.04-.91-.04-1.82-.02-2.72Z" fill="none" stroke="#000" stroke-linecap="round" stroke-linejoin="round"/><path d="M231.17,346.85c3.53,0,6.39-7.2,6.39-16.08,0-8.88-2.86-16.08-6.39-16.08s-7.6,3.14-6.4,16.08c.83,8.84,2.86,16.08,6.4,16.08Z" fill="none" stroke="#000" stroke-linecap="round" stroke-linejoin="round"/><path d="M231.66,342.25c.7,0,1.33-.41,1.81-.9.48-.51.86-1.11,1.18-1.74.62-1.26,1.02-2.62,1.34-3.99.58-2.75.78-5.57.75-8.38-.04-2.8-.32-5.61-.98-8.32-.34-1.35-.78-2.68-1.41-3.89-.31-.6-.69-1.17-1.14-1.64-.45-.45-.99-.79-1.55-.77-.55,0-1.07.35-1.51.81-.43.47-.79,1.04-1.09,1.65-.6,1.22-1,2.55-1.31,3.89-.31,1.35-.52,2.73-.66,4.11-.15,1.38-.22,2.78-.23,4.17-.02,2.79.12,5.59.65,8.34.28,1.37.64,2.73,1.24,3.99.3.63.66,1.23,1.13,1.75.47.5,1.08.92,1.78.93ZM231.66,342.36c-.74.01-1.4-.42-1.9-.92-.5-.52-.91-1.11-1.25-1.74-.69-1.26-1.18-2.61-1.56-3.98-.76-2.75-1.14-5.61-1.17-8.47,0-1.43.06-2.86.2-4.29.15-1.43.39-2.84.73-4.24.36-1.4.81-2.78,1.49-4.09.34-.65.75-1.28,1.29-1.84.28-.27.59-.53.95-.72.36-.2.79-.32,1.23-.32s.86.14,1.22.34c.36.2.66.46.93.73.52.56.92,1.2,1.24,1.85.65,1.31,1.07,2.69,1.39,4.09.63,2.79.86,5.65.84,8.49-.05,2.84-.36,5.69-1.07,8.43-.36,1.37-.81,2.73-1.46,3.99-.32.63-.72,1.23-1.21,1.75-.49.51-1.14.94-1.88.95Z" fill="none" stroke="#000" stroke-linecap="round" stroke-linejoin="round"/><path d="M231.09,338.87c1.86,0,3.38-4.85,3.38-10.83,0-5.98-1.51-10.83-3.38-10.83s-3.38,4.85-3.38,10.83c0,5.98,1.51,10.83,3.38,10.83ZM231.09,337.02c-1.4,0-2.53-3.83-2.53-8.55,0-4.73,1.14-8.55,2.53-8.55,1.4,0,2.53,3.83,2.53,8.55,0,4.73-1.14,8.55-2.53,8.55Z" fill="none" stroke="#000" stroke-linecap="round" stroke-linejoin="round"/><ellipse cx="231" cy="327.5" rx="1" ry="4.5" fill="none" stroke="#000" stroke-linecap="round" stroke-linejoin="round"/><path d="M389.77,301.88s1.13,3.05.48,4.12c-.66,1.07-3.28.87-4.09,1.37-.58.36-.57,1.37-.21,1.79.36.42,5.55.06,6.57-1.91,1.02-1.97-.36-5.74-.36-5.74l-2.39.36Z" fill="#f97d23"/><path d="M398.07,301.52l-2.21.48s.95,4,.18,5.32-3.56,2.72-4.06,3.82c-.45.98.66,1.79,2.39.72s3.69-2.68,4.06-3.47c.9-1.91-.36-6.87-.36-6.87Z" fill="#f97d23"/><path d="M382.96,271.36c-4.7,1.06-8.36,5.02-6.99,11.05.81,3.58,1.32,4.84,1.61,6.45.63,3.39.46,4.88,1.89,7.98,1.52,3.3,7.13,7.55,14.11,6.53,6.99-1.02,9.8-1.97,9.8-1.97l2.51-2.21,2.39-.6.36-1.73s1.79-.08,2.15-.66c.58-.92.24-1.67-.78-2.03-1.01-.36-1.61-.66-1.61-.66,0,0,9.85-6.51,11.05-7.22s3.05-1.94,3.14-2.39c.22-1.13-2.84-3.64-6.84-4.84-4-1.2-7.44-1.52-8-1.07-.75.59-4.06,6.81-6.27,6.51-2.87-.39-4.84-3.08-5.37-4.6-.61-1.73-4.28-10.53-13.14-8.54Z" fill="#4d4d4d"/><path d="M376.93,280.68c-.72-.12-2.55,1.83-2.91,2.31s-.92,1.16-.72,1.67c.32.8,1.95.84,2.91.92,1,.08,2.91.24,3.22-.36.32-.6-.36-2.11-.92-3.02-.52-.85-.84-1.39-1.59-1.51Z" fill="#f97d23"/><ellipse cx="384.5" cy="281" rx="1.5" ry="2" transform="translate(-9.07 12.85) rotate(-1.89)"/><path d="M390.13,293.34c-.83.3.26,3.22,1.37,4.54,1.18,1.38,4.02,4.49,8.36,4.9,2.95.28,4.26-.56,4.95-1.32.52-.56,1.07-1.22,1.46-1.51.56-.44,1.12-.06,2.07-.76.69-.5.84-1.33,1.2-1.63.36-.3.96-.23,1.27-.52.56-.52.48-2.03.08-2.11s-.44,1.07-.84,1.23-.93.06-1.67.48c-.64.36-.44,1.07-.87,1.39s-1.23-.12-2.31.48c-.58.32-1.07,1.87-2.75,2.23-2.08.45-5.2-1.07-6.69-2.15-3.47-2.51-4.23-5.77-5.64-5.26Z"/><path d="M389.77,301.88s1.13,3.05.48,4.12c-.66,1.07-3.28.87-4.09,1.37-.58.36-.57,1.37-.21,1.79.36.42,5.55.06,6.57-1.91,1.02-1.97-.36-5.74-.36-5.74l-2.39.36Z" fill="none" stroke="#000" stroke-linecap="round" stroke-linejoin="round"/><path d="M398.07,301.52l-2.21.48s.95,4,.18,5.32-3.56,2.72-4.06,3.82c-.45.98.66,1.79,2.39.72s3.69-2.68,4.06-3.47c.9-1.91-.36-6.87-.36-6.87Z" fill="none" stroke="#000" stroke-linecap="round" stroke-linejoin="round"/><path d="M382.96,271.36c-4.7,1.06-8.36,5.02-6.99,11.05.81,3.58,1.32,4.84,1.61,6.45.63,3.39.46,4.88,1.89,7.98,1.52,3.3,7.13,7.55,14.11,6.53,6.99-1.02,9.8-1.97,9.8-1.97l2.51-2.21,2.39-.6.36-1.73s1.79-.08,2.15-.66c.58-.92.24-1.67-.78-2.03-1.01-.36-1.61-.66-1.61-.66,0,0,9.85-6.51,11.05-7.22s3.05-1.94,3.14-2.39c.22-1.13-2.84-3.64-6.84-4.84-4-1.2-7.44-1.52-8-1.07-.75.59-4.06,6.81-6.27,6.51-2.87-.39-4.84-3.08-5.37-4.6-.61-1.73-4.28-10.53-13.14-8.54Z" fill="none" stroke="#000" stroke-linecap="round" stroke-linejoin="round"/><path d="M376.93,280.68c-.72-.12-2.55,1.83-2.91,2.31s-.92,1.16-.72,1.67c.32.8,1.95.84,2.91.92,1,.08,2.91.24,3.22-.36.32-.6-.36-2.11-.92-3.02-.52-.85-.84-1.39-1.59-1.51Z" fill="none" stroke="#000" stroke-linecap="round" stroke-linejoin="round"/><ellipse cx="384.5" cy="281" rx="1.5" ry="2" transform="translate(-9.07 12.85) rotate(-1.89)" fill="none" stroke="#000" stroke-linecap="round" stroke-linejoin="round"/><path d="M390.13,293.34c-.83.3.26,3.22,1.37,4.54,1.18,1.38,4.02,4.49,8.36,4.9,2.95.28,4.26-.56,4.95-1.32.52-.56,1.07-1.22,1.46-1.51.56-.44,1.12-.06,2.07-.76.69-.5.84-1.33,1.2-1.63.36-.3.96-.23,1.27-.52.56-.52.48-2.03.08-2.11s-.44,1.07-.84,1.23-.93.06-1.67.48c-.64.36-.44,1.07-.87,1.39s-1.23-.12-2.31.48c-.58.32-1.07,1.87-2.75,2.23-2.08.45-5.2-1.07-6.69-2.15-3.47-2.51-4.23-5.77-5.64-5.26Z" fill="none" stroke="#000" stroke-linecap="round" stroke-linejoin="round"/><path d="M162.56,207.02l13.31-26.53c1.86-3.76,4.87-6.4,8.16-7.34,3.86-1.13,9.44-3.57,13.45-9.78,7.15-10.72,11.02-17.87,11.02-17.87l-3.29-3.76s-8.44,10.72-12.02,14.86c-3,3.39-6.3,5.83-12.74,6.4-2.29.19-4.15-2.07-4.15-5.08,0-4.14-.14-8.65-.29-11.67,0-2.07.43-4.14,1.43-5.83l3.43-5.64-2.86-2.45-4.58,7.15c-1.14,1.69-3.15,2.26-4.58,1.13l-8.59-6.59-1.29,3.39,7.58,6.96c1.57,1.51,2.43,3.95,2.43,6.59v15.8l-19.17,27.47,12.59,12.98.14-.19Z" fill="#6c4a41"/><path d="M133.85,125.75c0-.68-.29-13.84-.57-22.01,0-4.08.72-8.17,2.43-11.35l1.29-2.5-3-2.95-5.58,8.62c-2.43,3.86-3.86,8.85-4.01,14.3l-.72,29.5,10.16-13.62Z" fill="#6c4a41"/><path d="M143.29,263l-28.19-20.52,2.86-20.34-3.72-3.13-7.73,20.34c-.72,1.91-2.29,3.3-4.15,3.48l-9.87.87c-2.72.17-5.58-.87-7.73-2.96l-17.17-16.69-2.86,3.3,14.6,18.61c.72,1.04.29,2.61-.86,2.78l-10.87,1.74.43,3.83,32.34-1.74c4.87-.17,9.73,1.91,13.31,5.91,9.01,9.91,25.61,28,25.76,27.47,0-.87,4.01-22.95,4.01-22.95,0,0-.14,0-.14,0Z" fill="#6c4a41"/><path d="M134.62,352.9c-.43,7.72,33.63,8.62,33.05-.23-.29-3.86-.72-33.36-.72-33.36,0-4.77,1.14-9.53,3.15-13.16l26.04-48.33c2.15-3.86,4.44-7.49,7.15-10.44,4.01-4.54,9.87-11.12,11.73-13.16,2.86-2.95,6.87-2.04,8.44-.68s8.59,4.99,8.59,4.99l2.29-4.99s-8.44-7.72-10.45-9.76c-4.44-4.08-10.45-2.27-13.74.68-3.86,3.4-10.02,9.53-10.02,9.53,0,0-.43-11.57-.72-18.83,0-2.72.43-5.67,1.43-7.94,3.15-6.81,9.59-20.42,9.59-20.42l-3.15-3.63s-9.16,12.48-11.16,16.11c-1.14,2.27-4.29,4.77-6.3,1.36-1.72-2.95-6.44-9.53-6.44-9.53l-2.43,3.18,7.87,15.43c.72,1.36,1.14,3.18,1.14,4.77v26.32c.14,0-20.89,34.04-23.61,38.12-.43-31.77,5.58-32.45,5.29-50.15-.29-12.48-6.44-22.24-9.44-27.46-2.43-4.31-14.74-23.6-20.03-31.54-1.29-2.04-3.29-4.99-3.72-9.53-.43-4.08-1.14-9.76-1.43-13.16-.72-5.9.86-11.12,3-15.88,1.86-4.08,7.87-17.93,9.73-21.33s4.58-7.72,8.01-9.3c3.43-1.59,13.59-8.4,13.59-8.4l-1.14-4.31s-14.6,5.67-16.6,6.58-5.01,2.27-8.59,8.17c-3.58,5.9-17.03,24.05-18.75,26.55-1.86,2.5-5.01,7.26-5.01,13.84s1,21.56,1,21.56l-15.88-1.82c-3,0-7.87-2.95-9.87-6.35l-11.59-20.2-3.72,4.77,9.16,22.01-21.46,8.4.57,5.22s14.45-2.95,17.46-3.63,10.45.91,19.32,3.18c9.3,2.27,15.6,1.82,24.18,18.38,2,3.86,7.3,14.75,11.3,23.15,3,6.13,3.72,14.3,2,21.56-3.72,15.88-9.3,24.73-8.3,48.79.72,15.2-.72,59.91-1,64.22l.14.68Z" fill="#875c51"/><path d="M162.56,207.02l13.31-26.53c1.86-3.76,4.87-6.4,8.16-7.34,3.86-1.13,9.44-3.57,13.45-9.78,7.15-10.72,11.02-17.87,11.02-17.87l-3.29-3.76s-8.44,10.72-12.02,14.86c-3,3.39-6.3,5.83-12.74,6.4-2.29.19-4.15-2.07-4.15-5.08,0-4.14-.14-8.65-.29-11.67,0-2.07.43-4.14,1.43-5.83l3.43-5.64-2.86-2.45-4.58,7.15c-1.14,1.69-3.15,2.26-4.58,1.13l-8.59-6.59-1.29,3.39,7.58,6.96c1.57,1.51,2.43,3.95,2.43,6.59v15.8l-19.17,27.47,12.59,12.98.14-.19Z" fill="none" stroke="#000" stroke-linecap="round" stroke-linejoin="round"/><path d="M133.85,125.75c0-.68-.29-13.84-.57-22.01,0-4.08.72-8.17,2.43-11.35l1.29-2.5-3-2.95-5.58,8.62c-2.43,3.86-3.86,8.85-4.01,14.3l-.72,29.5,10.16-13.62Z" fill="none" stroke="#000" stroke-linecap="round" stroke-linejoin="round"/><path d="M143.29,263l-28.19-20.52,2.86-20.34-3.72-3.13-7.73,20.34c-.72,1.91-2.29,3.3-4.15,3.48l-9.87.87c-2.72.17-5.58-.87-7.73-2.96l-17.17-16.69-2.86,3.3,14.6,18.61c.72,1.04.29,2.61-.86,2.78l-10.87,1.74.43,3.83,32.34-1.74c4.87-.17,9.73,1.91,13.31,5.91,9.01,9.91,25.61,28,25.76,27.47,0-.87,4.01-22.95,4.01-22.95,0,0-.14,0-.14,0Z" fill="none" stroke="#000" stroke-linecap="round" stroke-linejoin="round"/><path d="M134.62,352.9c-.43,7.72,33.63,8.62,33.05-.23-.29-3.86-.72-33.36-.72-33.36,0-4.77,1.14-9.53,3.15-13.16l26.04-48.33c2.15-3.86,4.44-7.49,7.15-10.44,4.01-4.54,9.87-11.12,11.73-13.16,2.86-2.95,6.87-2.04,8.44-.68s8.59,4.99,8.59,4.99l2.29-4.99s-8.44-7.72-10.45-9.76c-4.44-4.08-10.45-2.27-13.74.68-3.86,3.4-10.02,9.53-10.02,9.53,0,0-.43-11.57-.72-18.83,0-2.72.43-5.67,1.43-7.94,3.15-6.81,9.59-20.42,9.59-20.42l-3.15-3.63s-9.16,12.48-11.16,16.11c-1.14,2.27-4.29,4.77-6.3,1.36-1.72-2.95-6.44-9.53-6.44-9.53l-2.43,3.18,7.87,15.43c.72,1.36,1.14,3.18,1.14,4.77v26.32c.14,0-20.89,34.04-23.61,38.12-.43-31.77,5.58-32.45,5.29-50.15-.29-12.48-6.44-22.24-9.44-27.46-2.43-4.31-14.74-23.6-20.03-31.54-1.29-2.04-3.29-4.99-3.72-9.53-.43-4.08-1.14-9.76-1.43-13.16-.72-5.9.86-11.12,3-15.88,1.86-4.08,7.87-17.93,9.73-21.33s4.58-7.72,8.01-9.3c3.43-1.59,13.59-8.4,13.59-8.4l-1.14-4.31s-14.6,5.67-16.6,6.58-5.01,2.27-8.59,8.17c-3.58,5.9-17.03,24.05-18.75,26.55-1.86,2.5-5.01,7.26-5.01,13.84s1,21.56,1,21.56l-15.88-1.82c-3,0-7.87-2.95-9.87-6.35l-11.59-20.2-3.72,4.77,9.16,22.01-21.46,8.4.57,5.22s14.45-2.95,17.46-3.63,10.45.91,19.32,3.18c9.3,2.27,15.6,1.82,24.18,18.38,2,3.86,7.3,14.75,11.3,23.15,3,6.13,3.72,14.3,2,21.56-3.72,15.88-9.3,24.73-8.3,48.79.72,15.2-.72,59.91-1,64.22l.14.68Z" fill="none" stroke="#000" stroke-linecap="round" stroke-linejoin="round"/><path d="M149.97,376.86l.07-2.52c.03-.97-.5-1.91-1.39-2.3-1.79-.78-3.54.48-3.58,2.19l-.07,2.49c-.04,1.71,1.65,3.06,3.47,2.37.91-.34,1.48-1.25,1.51-2.22Z" fill="#434a54"/><path d="M143.24,378.86l44.42,1.17c1.25.03,2.3-.96,2.33-2.21.03-1.25-.96-2.3-2.21-2.33l-44.42-1.17c-1.25-.04-2.3.96-2.33,2.21-.03,1.26.96,2.3,2.21,2.33Z" fill="#656d78"/><path d="M161.82,375.15l5.49-6.51c.46-.54,1.14-.85,1.85-.83l14.67.39c.4.01.79.13,1.13.34l11.43,7.06c1.01.62,1.39,1.96.76,3.05-.43.75-1.3,1.14-2.17,1.11l-31.57-.83h0c-1.24-.03-2.23-1.07-2.19-2.31.01-.57.24-1.08.6-1.47Z" fill="#a85d5d"/><path d="M228.59,392.9c.9.03,1.78-.48,2.19-1.35l3.25-6.94c.55-1.17.05-2.56-1.12-3.11s-2.57-.05-3.12,1.13l-3.25,6.94c-.55,1.17-.04,2.57,1.13,3.12.3.14.62.21.93.22Z" fill="#ed5564"/><path d="M230.14,382.06c.45-.61,1.17-.96,1.93-.95l6.94.18c.96.02,1.81.65,2.13,1.56l6.45,18.69c.25.72.13,1.51-.32,2.12-.45.61-1.17.97-1.93.95l-6.94-.18c-.96-.03-1.81-.65-2.13-1.56l-6.45-18.69c-.25-.72-.13-1.51.32-2.12Z" fill="#965353"/><path d="M199.25,404.16c4.86-4.7,8.02-9.81,9.12-14.77.8-3.58.27-5.91.23-6.09-.25-.84,0-1.73.65-2.36.45-.44,1.1-.62,1.73-.61l9.31.24c1.26.03,2.27,1.06,2.28,2.31,0,.64.02,15.76-13.1,29.43-.47.49-1.11.74-1.75.72-.45-.01-.9-.15-1.29-.43l-6.9-4.87c-.57-.4-.93-1.04-.99-1.73-.05-.7.21-1.38.71-1.86Z" fill="#434a54"/><path d="M242.86,372.07c.49-.43,1.14-.63,1.79-.56l6.65.73,10.68-1.99.46-.04,21.46.57c1.29.03,2.31,1.11,2.28,2.4l-.49,18.7c-.02.72-.36,1.38-.94,1.81-.43.32-.94.48-1.46.47-.18,0-.36-.03-.54-.08l-39.16-10.39c-1.05-.28-1.77-1.24-1.74-2.32l.2-7.6c.02-.65.31-1.27.8-1.7Z" fill="#a85d5d"/><path d="M191.14,384.62l52.23,1.37c.62.02,1.22-.22,1.67-.65s.71-1.02.73-1.65l.25-9.45c.02-.89-.45-1.71-1.23-2.13l-4.62-2.48c-.32-.17-.68-.27-1.05-.28l-55.31-1.45c-1.16-.03-2.21.81-2.4,2.07-.08.55.08,1.11.38,1.59l7.42,11.94c.41.67,1.14,1.09,1.92,1.11Z" fill="#656d78"/><path d="M228.93,371.99l-27.67-.73c-1.27-.04-2.28-1.09-2.25-2.37l32.28.85c-.03,1.27-1.09,2.28-2.37,2.25Z" fill="#434a54"/><path d="M149.97,376.86l.07-2.52c.03-.97-.5-1.91-1.39-2.3-1.79-.78-3.54.48-3.58,2.19l-.07,2.49c-.04,1.71,1.65,3.06,3.47,2.37.91-.34,1.48-1.25,1.51-2.22Z" fill="none" stroke="#000" stroke-linecap="round" stroke-linejoin="round"/><path d="M143.24,378.86l44.42,1.17c1.25.03,2.3-.96,2.33-2.21.03-1.25-.96-2.3-2.21-2.33l-44.42-1.17c-1.25-.04-2.3.96-2.33,2.21-.03,1.26.96,2.3,2.21,2.33Z" fill="none" stroke="#000" stroke-linecap="round" stroke-linejoin="round"/><path d="M161.82,375.15l5.49-6.51c.46-.54,1.14-.85,1.85-.83l14.67.39c.4.01.79.13,1.13.34l11.43,7.06c1.01.62,1.39,1.96.76,3.05-.43.75-1.3,1.14-2.17,1.11l-31.57-.83h0c-1.24-.03-2.23-1.07-2.19-2.31.01-.57.24-1.08.6-1.47Z" fill="none" stroke="#000" stroke-linecap="round" stroke-linejoin="round"/><path d="M228.59,392.9c.9.03,1.78-.48,2.19-1.35l3.25-6.94c.55-1.17.05-2.56-1.12-3.11s-2.57-.05-3.12,1.13l-3.25,6.94c-.55,1.17-.04,2.57,1.13,3.12.3.14.62.21.93.22Z" fill="none" stroke="#000" stroke-linecap="round" stroke-linejoin="round"/><path d="M230.14,382.06c.45-.61,1.17-.96,1.93-.95l6.94.18c.96.02,1.81.65,2.13,1.56l6.45,18.69c.25.72.13,1.51-.32,2.12-.45.61-1.17.97-1.93.95l-6.94-.18c-.96-.03-1.81-.65-2.13-1.56l-6.45-18.69c-.25-.72-.13-1.51.32-2.12Z" fill="none" stroke="#000" stroke-linecap="round" stroke-linejoin="round"/><path d="M199.25,404.16c4.86-4.7,8.02-9.81,9.12-14.77.8-3.58.27-5.91.23-6.09-.25-.84,0-1.73.65-2.36.45-.44,1.1-.62,1.73-.61l9.31.24c1.26.03,2.27,1.06,2.28,2.31,0,.64.02,15.76-13.1,29.43-.47.49-1.11.74-1.75.72-.45-.01-.9-.15-1.29-.43l-6.9-4.87c-.57-.4-.93-1.04-.99-1.73-.05-.7.21-1.38.71-1.86Z" fill="none" stroke="#000" stroke-linecap="round" stroke-linejoin="round"/><path d="M242.86,372.07c.49-.43,1.14-.63,1.79-.56l6.65.73,10.68-1.99.46-.04,21.46.57c1.29.03,2.31,1.11,2.28,2.4l-.49,18.7c-.02.72-.36,1.38-.94,1.81-.43.32-.94.48-1.46.47-.18,0-.36-.03-.54-.08l-39.16-10.39c-1.05-.28-1.77-1.24-1.74-2.32l.2-7.6c.02-.65.31-1.27.8-1.7Z" fill="none" stroke="#000" stroke-linecap="round" stroke-linejoin="round"/><path d="M191.14,384.62l52.23,1.37c.62.02,1.22-.22,1.67-.65s.71-1.02.73-1.65l.25-9.45c.02-.89-.45-1.71-1.23-2.13l-4.62-2.48c-.32-.17-.68-.27-1.05-.28l-55.31-1.45c-1.16-.03-2.21.81-2.4,2.07-.08.55.08,1.11.38,1.59l7.42,11.94c.41.67,1.14,1.09,1.92,1.11Z" fill="none" stroke="#000" stroke-linecap="round" stroke-linejoin="round"/><path d="M228.93,371.99l-27.67-.73c-1.27-.04-2.28-1.09-2.25-2.37l32.28.85c-.03,1.27-1.09,2.28-2.37,2.25Z" fill="none" stroke="#000" stroke-linecap="round" stroke-linejoin="round"/><g id="uuid-329c3bce-1a19-4c80-a9ce-0b4c3da8147c"><polygon id="uuid-edc84cf1-8606-4683-8993-f8edd2b19d8f" points="347 330 332 330 332 357.47 332 363 355 363 355 357 347 357 347 330" fill="#5f4d2f"/><rect id="uuid-0151e9a0-c3f9-4cfa-ac6f-70d97c65611a" x="320.52" y="301.27" width="19.02" height="37.29" transform="translate(-124.28 250.14) rotate(-35.38)" fill="#726038"/><polygon id="uuid-18ae0b5e-1224-47db-ac99-298a8acac9dd" points="302 336 317 336 317 363 325 363 325 369 302 369 302 363.47 302 363.47 302 336" fill="#5f4d2f"/><rect id="uuid-21fd7b9d-1008-4598-99da-33e40fb43e08" x="292.93" y="305.27" width="19.02" height="37.29" transform="translate(-98.99 136.17) rotate(-21.9)" fill="#726038"/><path id="uuid-de4dcb93-a0f8-48af-9b83-6b921368cd3a" d="M286,236v76h43v-76h-43Z" fill="#726038"/><rect id="uuid-af76cabf-ea9a-4b76-a01c-f591dbbce958" x="286" y="280" width="43" height="13" fill="#ac935a"/><rect id="uuid-57528184-cdd5-4aa0-bf4d-55344e090bba" x="317" y="235" width="5" height="45" fill="#ac935a"/><rect id="uuid-e88ee874-11d2-4c07-b7a3-2869bc35fc4a" x="293" y="235" width="5" height="45" fill="#ac935a"/><path id="uuid-9a97a37b-f7f3-407a-b36b-ae388e7ac6cb" d="M327.53,225.3c1.46-4.12,2.25-8.76,2.16-13.65-.29-16.88-10.79-30.39-23.45-30.18-12.66.22-22.69,14.08-22.41,30.96.08,4.89,1.03,9.49,2.63,13.56l41.06-.7Z" fill="#eec6a2"/><path id="uuid-0e0c7306-a050-493c-9a1d-9616b0c993f2" d="M288.01,230c4.07,8.51,11.21,14.17,19.34,14.17s15.27-5.65,19.34-14.17h-38.69Z" fill="#eec6a2"/><ellipse id="uuid-cf1ad66c-235c-438f-850c-e88c674c060e" cx="306.5" cy="215.5" rx="3.51" ry="2.49" transform="translate(62.36 499.72) rotate(-84.45)" fill="#333"/><ellipse id="uuid-c81b0064-1419-45fe-a4db-5c24d6bb2ac8" cx="294.5" cy="215.5" rx="3.51" ry="2.49" transform="translate(51.52 487.77) rotate(-84.45)" fill="#333"/><rect id="uuid-f7d6ec82-1d58-4e93-a772-52a3ad4f01f9" x="331.02" y="259.57" width="11.46" height="24.46" transform="translate(-25.06 34.38) rotate(-5.63)" fill="#726038"/><rect id="uuid-05326c9b-9c60-4e65-aae6-67ebc4bffabf" x="328.63" y="235.36" width="11.46" height="24.46" transform="translate(-22.69 34.03) rotate(-5.63)" fill="#726038"/><rect id="uuid-2caa0dd2-3222-4145-9b6f-dfb287f622ad" x="266.9" y="241.86" width="24.46" height="11.46" transform="translate(9.69 505.69) rotate(-85.34)" fill="#726038"/><rect id="uuid-f19ce908-3fbf-4bed-bc91-bfd87dbac0f4" x="264.92" y="266.07" width="24.46" height="11.46" transform="translate(-16.26 525.97) rotate(-85.34)" fill="#726038"/><rect id="uuid-6960d523-1ad9-49f4-a604-1d08d1bf8203" x="332.32" y="284.04" width="12.37" height="12.37" transform="translate(-26.86 34.64) rotate(-5.63)" fill="#eec6a2"/><rect id="uuid-7d6fde49-eab1-4f0c-ac21-b6a3d86076e2" x="269.54" y="284.03" width="12.23" height="12.23" transform="translate(-35.92 541.33) rotate(-85.34)" fill="#eec6a2"/><circle id="uuid-04a0a66c-a2a1-4535-9d47-6ce1896882cc" cx="307.5" cy="271.5" r="1.5" fill="#333"/><circle id="uuid-4885fa47-7628-46f6-9461-604b1ae000c4" cx="307.5" cy="265.5" r="1.5" fill="#333"/><circle id="uuid-bb828403-da00-456c-b242-8faa8877e9c2" cx="307.5" cy="259.5" r="1.5" fill="#333"/><circle id="uuid-81c17ae5-5d47-4e01-adaa-d0ab6f681c73" cx="307.5" cy="252.5" r="1.5" fill="#333"/><path d="M330.14,191.55c-2.42-10.49-14.13-17.69-27.37-16.38-13.24,1.31-23.31,10.65-23.64,21.41-4.36,1.07-6.93,2.13-6.85,3,.2,2.05,14.95,2.27,32.94.49,17.99-1.78,32.42-4.87,32.21-6.92-.09-.87-2.82-1.41-7.3-1.61Z" fill="#596a66"/><polygon id="uuid-54b43a28-8dec-4050-8dbc-c2a8a6c342d0" points="347 330 332 330 332 357.47 332 363 355 363 355 357 347 357 347 330" fill="none" stroke="#000" stroke-linecap="round" stroke-linejoin="round"/><rect id="uuid-d1dcc66d-5441-4b92-a5dc-ef74fb166552" x="320.52" y="301.27" width="19.02" height="37.29" transform="translate(-124.28 250.14) rotate(-35.38)" fill="none" stroke="#000" stroke-linecap="round" stroke-linejoin="round"/><polygon id="uuid-b4d4cb61-fc32-4bb0-9a9c-cf2523ac9556" points="302 336 317 336 317 363 325 363 325 369 302 369 302 363.47 302 363.47 302 336" fill="none" stroke="#000" stroke-linecap="round" stroke-linejoin="round"/><rect id="uuid-ce52ff21-76ba-4da1-80b4-5d82ca36299f" x="292.93" y="305.27" width="19.02" height="37.29" transform="translate(-98.99 136.17) rotate(-21.9)" fill="none" stroke="#000" stroke-linecap="round" stroke-linejoin="round"/><path id="uuid-79914dd3-87c5-4d40-834e-cac3fcacc154" d="M286,236v76h43v-76h-43Z" fill="none" stroke="#000" stroke-linecap="round" stroke-linejoin="round"/><rect id="uuid-0ed913f6-5c20-4d0e-905f-0fcb2c625de4" x="286" y="280" width="43" height="13" fill="none" stroke="#000" stroke-linecap="round" stroke-linejoin="round"/><rect id="uuid-e39dd7ad-cf94-4ee0-bf9e-019ba0acffbc" x="317" y="235" width="5" height="45" fill="none" stroke="#000" stroke-linecap="round" stroke-linejoin="round"/><rect id="uuid-be5e50bc-dda1-4113-8d93-b4589d0655ca" x="293" y="235" width="5" height="45" fill="none" stroke="#000" stroke-linecap="round" stroke-linejoin="round"/><path id="uuid-39bb7bad-26c8-4ae1-98c1-c62facb1804b" d="M327.53,225.3c1.46-4.12,2.25-8.76,2.16-13.65-.29-16.88-10.79-30.39-23.45-30.18-12.66.22-22.69,14.08-22.41,30.96.08,4.89,1.03,9.49,2.63,13.56l41.06-.7Z" fill="none" stroke="#000" stroke-linecap="round" stroke-linejoin="round"/><path id="uuid-5d487122-81a5-4f2d-aae3-08b08f9ef50f" d="M288.01,230c4.07,8.51,11.21,14.17,19.34,14.17s15.27-5.65,19.34-14.17h-38.69Z" fill="none" stroke="#000" stroke-linecap="round" stroke-linejoin="round"/><ellipse id="uuid-0a0b53b4-a615-4285-8760-d94fb7b622b8" cx="306.5" cy="215.5" rx="3.51" ry="2.49" transform="translate(62.36 499.72) rotate(-84.45)" fill="none" stroke="#000" stroke-linecap="round" stroke-linejoin="round"/><ellipse id="uuid-e0119542-c2fe-472f-b361-2fa274fba5ae" cx="294.5" cy="215.5" rx="3.51" ry="2.49" transform="translate(51.52 487.77) rotate(-84.45)" fill="none" stroke="#000" stroke-linecap="round" stroke-linejoin="round"/><rect id="uuid-3bb0ffc0-6fc8-4322-9d74-af30985c1b98" x="331.02" y="259.57" width="11.46" height="24.46" transform="translate(-25.06 34.38) rotate(-5.63)" fill="none" stroke="#000" stroke-linecap="round" stroke-linejoin="round"/><rect id="uuid-be5b92d8-b242-4a4e-adef-3c6f062fc2f9" x="328.63" y="235.36" width="11.46" height="24.46" transform="translate(-22.69 34.03) rotate(-5.63)" fill="none" stroke="#000" stroke-linecap="round" stroke-linejoin="round"/><rect id="uuid-728e1edd-969e-45e0-9c02-831f63aed43c" x="266.9" y="241.86" width="24.46" height="11.46" transform="translate(9.69 505.69) rotate(-85.34)" fill="none" stroke="#000" stroke-linecap="round" stroke-linejoin="round"/><rect id="uuid-92f699c1-6074-45ee-b4df-ff0f26b017e0" x="264.92" y="266.07" width="24.46" height="11.46" transform="translate(-16.26 525.97) rotate(-85.34)" fill="none" stroke="#000" stroke-linecap="round" stroke-linejoin="round"/><rect id="uuid-a4f28fcb-655f-48d2-ac12-7ff8ecc5f1b8" x="332.32" y="284.04" width="12.37" height="12.37" transform="translate(-26.86 34.64) rotate(-5.63)" fill="none" stroke="#000" stroke-linecap="round" stroke-linejoin="round"/><rect id="uuid-3e1f9bff-1005-4691-8e03-02476777f52a" x="269.54" y="284.03" width="12.23" height="12.23" transform="translate(-35.92 541.33) rotate(-85.34)" fill="none" stroke="#000" stroke-linecap="round" stroke-linejoin="round"/><circle id="uuid-c115cd38-83bd-48a5-8bd9-5ded52235d82" cx="307.5" cy="271.5" r="1.5" fill="none" stroke="#000" stroke-linecap="round" stroke-linejoin="round"/><circle id="uuid-d84af1f3-79ea-4b12-b177-15d45308f037" cx="307.5" cy="265.5" r="1.5" fill="none" stroke="#000" stroke-linecap="round" stroke-linejoin="round"/><circle id="uuid-f534769b-ae24-43b9-b9a0-889378324e43" cx="307.5" cy="259.5" r="1.5" fill="none" stroke="#000" stroke-linecap="round" stroke-linejoin="round"/><circle id="uuid-152eabfe-8c25-45a3-8ef9-149b65863b01" cx="307.5" cy="252.5" r="1.5" fill="none" stroke="#000" stroke-linecap="round" stroke-linejoin="round"/><path d="M330.14,191.55c-2.42-10.49-14.13-17.69-27.37-16.38-13.24,1.31-23.31,10.65-23.64,21.41-4.36,1.07-6.93,2.13-6.85,3,.2,2.05,14.95,2.27,32.94.49,17.99-1.78,32.42-4.87,32.21-6.92-.09-.87-2.82-1.41-7.3-1.61Z" fill="none" stroke="#000" stroke-linecap="round" stroke-linejoin="round"/></g></svg>