<?xml version="1.0" encoding="UTF-8"?><svg id="uuid-80e044ac-acd5-4451-a548-74eddbd0ec67" xmlns="http://www.w3.org/2000/svg" viewBox="0 0 500 500"><path d="M321.5,438.5l-.04,1.82c-.02.7.37,1.38,1.01,1.66,1.29.56,2.55-.36,2.58-1.59l.04-1.79c.02-1.23-1.2-2.2-2.51-1.7-.65.25-1.06.91-1.08,1.61Z" fill="#434a54"/><path d="M326.35,437.03l-32.08-.71c-.91-.02-1.66.7-1.68,1.6-.02.91.7,1.66,1.6,1.68l32.08.71c.91.02,1.66-.7,1.68-1.6.02-.91-.7-1.66-1.6-1.68Z" fill="#656d78"/><path d="M312.95,439.77l-3.95,4.72c-.33.39-.82.62-1.34.61l-10.59-.23c-.29,0-.57-.09-.81-.24l-8.27-5.07c-.73-.45-1.01-1.41-.56-2.2.31-.54.94-.83,1.56-.81l22.8.51h0c.9.02,1.61.76,1.59,1.66,0,.41-.17.78-.43,1.06Z" fill="#a85d5d"/><path d="M264.68,427.16c-.65-.02-1.28.35-1.57.98l-2.33,5.02c-.39.85-.03,1.85.82,2.25s1.85.03,2.25-.82l2.33-5.02c.39-.85.02-1.85-.82-2.25-.22-.1-.45-.15-.67-.16Z" fill="#ed5564"/><path d="M263.59,434.99c-.32.44-.84.7-1.39.69l-5.01-.11c-.7-.01-1.31-.46-1.54-1.12l-4.72-13.48c-.18-.52-.1-1.09.23-1.53.32-.44.84-.7,1.39-.69l5.01.11c.7.02,1.31.46,1.54,1.12l4.72,13.48c.18.52.1,1.09-.23,1.53Z" fill="#965353"/><path d="M285.83,418.93c-3.5,3.41-5.76,7.11-6.54,10.69-.57,2.59-.18,4.27-.14,4.4.18.6,0,1.25-.46,1.7-.33.32-.79.45-1.24.44l-6.72-.15c-.91-.02-1.64-.76-1.65-1.66,0-.46-.06-11.38,9.37-21.29.34-.36.8-.54,1.26-.53.32,0,.65.11.93.31l5,3.49c.41.29.68.75.72,1.25.04.5-.15,1-.51,1.35Z" fill="#434a54"/><path d="M254.44,442.24c-.35.31-.82.46-1.29.41l-4.81-.51-7.71,1.47-.33.03-15.5-.34c-.93-.02-1.67-.79-1.65-1.72l.3-13.51c.01-.52.26-1,.67-1.31.31-.23.68-.35,1.05-.34.13,0,.26.02.39.05l28.31,7.38c.76.2,1.28.89,1.26,1.67l-.12,5.49c-.01.47-.22.92-.57,1.23Z" fill="#a85d5d"/><path d="M291.75,433.02l-37.72-.84c-.45,0-.88.16-1.21.47s-.51.74-.52,1.19l-.15,6.82c-.01.64.33,1.23.9,1.53l3.35,1.78c.23.12.49.19.76.2l39.94.88c.84.02,1.6-.59,1.72-1.5.06-.4-.06-.8-.28-1.15l-5.39-8.6c-.3-.48-.83-.78-1.39-.79Z" fill="#656d78"/><path d="M264.49,442.25l19.98.44c.92.02,1.65.78,1.63,1.7l-23.32-.52c.02-.92.78-1.65,1.7-1.63Z" fill="#434a54"/><path d="M321.5,438.5l-.04,1.82c-.02.7.37,1.38,1.01,1.66,1.29.56,2.55-.36,2.58-1.59l.04-1.79c.02-1.23-1.2-2.2-2.51-1.7-.65.25-1.06.91-1.08,1.61Z" fill="none" stroke="#000" stroke-linecap="round" stroke-linejoin="round"/><path d="M326.35,437.03l-32.08-.71c-.91-.02-1.66.7-1.68,1.6-.02.91.7,1.66,1.6,1.68l32.08.71c.91.02,1.66-.7,1.68-1.6.02-.91-.7-1.66-1.6-1.68Z" fill="none" stroke="#000" stroke-linecap="round" stroke-linejoin="round"/><path d="M312.95,439.77l-3.95,4.72c-.33.39-.82.62-1.34.61l-10.59-.23c-.29,0-.57-.09-.81-.24l-8.27-5.07c-.73-.45-1.01-1.41-.56-2.2.31-.54.94-.83,1.56-.81l22.8.51h0c.9.02,1.61.76,1.59,1.66,0,.41-.17.78-.43,1.06Z" fill="none" stroke="#000" stroke-linecap="round" stroke-linejoin="round"/><path d="M264.68,427.16c-.65-.02-1.28.35-1.57.98l-2.33,5.02c-.39.85-.03,1.85.82,2.25s1.85.03,2.25-.82l2.33-5.02c.39-.85.02-1.85-.82-2.25-.22-.1-.45-.15-.67-.16Z" fill="none" stroke="#000" stroke-linecap="round" stroke-linejoin="round"/><path d="M263.59,434.99c-.32.44-.84.7-1.39.69l-5.01-.11c-.7-.01-1.31-.46-1.54-1.12l-4.72-13.48c-.18-.52-.1-1.09.23-1.53.32-.44.84-.7,1.39-.69l5.01.11c.7.02,1.31.46,1.54,1.12l4.72,13.48c.18.52.1,1.09-.23,1.53Z" fill="none" stroke="#000" stroke-linecap="round" stroke-linejoin="round"/><path d="M285.83,418.93c-3.5,3.41-5.76,7.11-6.54,10.69-.57,2.59-.18,4.27-.14,4.4.18.6,0,1.25-.46,1.7-.33.32-.79.45-1.24.44l-6.72-.15c-.91-.02-1.64-.76-1.65-1.66,0-.46-.06-11.38,9.37-21.29.34-.36.8-.54,1.26-.53.32,0,.65.11.93.31l5,3.49c.41.29.68.75.72,1.25.04.5-.15,1-.51,1.35Z" fill="none" stroke="#000" stroke-linecap="round" stroke-linejoin="round"/><path d="M254.44,442.24c-.35.31-.82.46-1.29.41l-4.81-.51-7.71,1.47-.33.03-15.5-.34c-.93-.02-1.67-.79-1.65-1.72l.3-13.51c.01-.52.26-1,.67-1.31.31-.23.68-.35,1.05-.34.13,0,.26.02.39.05l28.31,7.38c.76.2,1.28.89,1.26,1.67l-.12,5.49c-.01.47-.22.92-.57,1.23Z" fill="none" stroke="#000" stroke-linecap="round" stroke-linejoin="round"/><path d="M291.75,433.02l-37.72-.84c-.45,0-.88.16-1.21.47s-.51.74-.52,1.19l-.15,6.82c-.01.64.33,1.23.9,1.53l3.35,1.78c.23.12.49.19.76.2l39.94.88c.84.02,1.6-.59,1.72-1.5.06-.4-.06-.8-.28-1.15l-5.39-8.6c-.3-.48-.83-.78-1.39-.79Z" fill="none" stroke="#000" stroke-linecap="round" stroke-linejoin="round"/><path d="M264.49,442.25l19.98.44c.92.02,1.65.78,1.63,1.7l-23.32-.52c.02-.92.78-1.65,1.7-1.63Z" fill="none" stroke="#000" stroke-linecap="round" stroke-linejoin="round"/><g id="uuid-b66c8626-68f2-4599-a3c5-91e8b5a0863d"><polygon id="uuid-a654443d-f1b1-4b0e-bcec-3d198179f692" points="176.5 394.49 165.04 405.94 185.48 426.38 189.59 430.5 206.78 413.31 202.69 409.22 196.96 414.95 176.5 394.49" fill="#5f5f5f"/><rect id="uuid-fcd10cdc-bd05-40b1-80a5-82ece4768b0b" x="162" y="366" width="21" height="41" fill="#727272"/><polygon id="uuid-a6ea014c-199c-426e-8176-4caa40ddfa9f" points="124.89 396.08 140.85 398.92 135.77 427.41 143.75 428.83 142.73 434.53 118.8 430.27 119.82 424.54 119.82 424.54 124.89 396.08" fill="#5f5f5f"/><rect id="uuid-ac52b2e3-8266-4727-958e-0fdb9417895b" x="119.86" y="369.83" width="40.51" height="20.83" transform="translate(-264.82 364.4) rotate(-67.53)" fill="#727272"/><path id="uuid-4c6ff39a-9dc7-44d3-bf58-f83d58bbc5e7" d="M137,284v82h46v-82h-46Z" fill="#727272"/><rect id="uuid-d7376c8e-a51b-40c9-83b1-2347c649a051" x="137" y="331" width="46" height="14" fill="#acacac"/><rect id="uuid-4e462a12-b7b6-41f6-b3d4-d36d9774e021" x="169" y="282" width="6" height="49" fill="#acacac"/><rect id="uuid-7efa73d7-d7ff-4b61-88e4-2edc6f9f8718" x="145" y="282" width="6" height="49" fill="#acacac"/><path id="uuid-1abfa45c-8251-4e47-86b4-8b8f39606442" d="M182.04,272c1.65-4.41,2.58-9.38,2.58-14.64,0-18.17-11.05-32.9-24.67-32.9s-24.67,14.73-24.67,32.9c0,5.26.93,10.23,2.58,14.64h44.19Z" fill="#ccc"/><path id="uuid-a6f4b84e-2950-46ff-b95c-9cc2c274f88f" d="M139.13,278c4.38,9.16,12.06,15.24,20.81,15.24s16.43-6.08,20.81-15.24h-41.63Z" fill="#ccc"/><ellipse id="uuid-7e745e86-fead-40d6-9110-c98558fd208c" cx="177" cy="263" rx="4" ry="6" fill="#333"/><ellipse id="uuid-164f010a-8809-4f3d-85fa-be50dac76b54" cx="160" cy="263" rx="4" ry="6" fill="#333"/><rect id="uuid-166cc4ff-3e7f-419d-b813-1ae2c5e461a7" x="196" y="260" width="12" height="26" fill="#727272"/><rect id="uuid-524e98b0-6dae-475d-b76d-92f28d5c0fee" x="180.35" y="279.38" width="26.32" height="12.34" transform="translate(-81.5 77.33) rotate(-18.74)" fill="#727272"/><rect id="uuid-1d6a9803-2305-45be-b36d-7095bee079dd" x="195" y="247" width="13" height="13" fill="#ccc"/><circle id="uuid-c455726d-7dad-42f8-85e0-40da20065fdd" cx="159.5" cy="322.5" r="1.5" fill="#333"/><circle id="uuid-b73f6311-59e9-4df2-bdaf-9cffd7318035" cx="159.5" cy="315.5" r="1.5" fill="#333"/><circle id="uuid-70b6d395-6ee4-4530-b8a3-4ebb70a7b880" cx="159.5" cy="308.5" r="1.5" fill="#333"/><circle id="uuid-05f0385f-4be9-423e-aead-aa434c2ffe12" cx="159.5" cy="300.5" r="1.5" fill="#333"/><path d="M187.52,238.73c-1.49-11.48-13.26-20.43-27.58-20.43s-26.09,8.95-27.58,20.43c-4.78.68-7.65,1.55-7.65,2.49,0,2.21,15.77,4.01,35.23,4.01s35.23-1.79,35.23-4.01c0-.94-2.87-1.81-7.65-2.49Z" fill="#6a6a6a"/><rect id="uuid-490505e9-fc0c-4d1d-be50-9e2a5db08eb6" x="146.04" y="293.45" width="12.34" height="26.32" transform="translate(-184.46 368.5) rotate(-74.02)" fill="#727272"/><rect id="uuid-a9cb68c0-3730-49c8-9a1c-c20da5d8aee9" x="171.34" y="300.7" width="12.34" height="26.32" transform="translate(-173.1 398.07) rotate(-74.02)" fill="#727272"/><rect id="uuid-87a4958d-ea87-49e0-aae8-9cde6710f4ae" x="189.9" y="312.71" width="13.16" height="13.16" transform="translate(-164.57 420.25) rotate(-74.02)" fill="#ccc"/><polygon id="uuid-b53d6c8a-3aad-46ce-b162-8e47e0cce268" points="176.5 394.49 165.04 405.94 185.48 426.38 189.59 430.5 206.78 413.31 202.69 409.22 196.96 414.95 176.5 394.49" fill="none" stroke="#000" stroke-linecap="round" stroke-linejoin="round"/><rect id="uuid-644ac36a-d684-457f-bbb9-947657137dd5" x="162" y="366" width="21" height="41" fill="none" stroke="#000" stroke-linecap="round" stroke-linejoin="round"/><polygon id="uuid-f87830e4-08e2-4319-8970-c38b8b869407" points="124.89 396.08 140.85 398.92 135.77 427.41 143.75 428.83 142.73 434.53 118.8 430.27 119.82 424.54 119.82 424.54 124.89 396.08" fill="none" stroke="#000" stroke-linecap="round" stroke-linejoin="round"/><rect id="uuid-b986858b-2593-486e-86e4-6deb97073dd1" x="119.86" y="369.83" width="40.51" height="20.83" transform="translate(-264.82 364.4) rotate(-67.53)" fill="none" stroke="#000" stroke-linecap="round" stroke-linejoin="round"/><path id="uuid-4049347d-d9a8-4b47-96d1-d9b752bf4b7a" d="M137,284v82h46v-82h-46Z" fill="none" stroke="#000" stroke-linecap="round" stroke-linejoin="round"/><rect id="uuid-daf35726-e9b9-4042-87b5-9c7e84b47b93" x="137" y="331" width="46" height="14" fill="none" stroke="#000" stroke-linecap="round" stroke-linejoin="round"/><rect id="uuid-09a7a3a0-4ca9-4fed-a1a6-c6be741f8b94" x="169" y="282" width="6" height="49" fill="none" stroke="#000" stroke-linecap="round" stroke-linejoin="round"/><rect id="uuid-1853f721-7970-4ce7-aa65-1560f4357b34" x="145" y="282" width="6" height="49" fill="none" stroke="#000" stroke-linecap="round" stroke-linejoin="round"/><path id="uuid-4f89d19a-cec0-4e24-931a-c2c5db3fc746" d="M182.04,272c1.65-4.41,2.58-9.38,2.58-14.64,0-18.17-11.05-32.9-24.67-32.9s-24.67,14.73-24.67,32.9c0,5.26.93,10.23,2.58,14.64h44.19Z" fill="none" stroke="#000" stroke-linecap="round" stroke-linejoin="round"/><path id="uuid-81aa85f1-db65-4be5-8861-1d5333e8a785" d="M139.13,278c4.38,9.16,12.06,15.24,20.81,15.24s16.43-6.08,20.81-15.24h-41.63Z" fill="none" stroke="#000" stroke-linecap="round" stroke-linejoin="round"/><ellipse id="uuid-e49c5c5f-3794-4545-816d-823279a1877c" cx="177" cy="263" rx="4" ry="6" fill="none" stroke="#000" stroke-linecap="round" stroke-linejoin="round"/><ellipse id="uuid-b7ca948c-ca99-4b77-afab-5045e44107f3" cx="160" cy="263" rx="4" ry="6" fill="none" stroke="#000" stroke-linecap="round" stroke-linejoin="round"/><rect id="uuid-987d2c4d-c4c4-4270-8cf8-771217a53f6d" x="196" y="260" width="12" height="26" fill="none" stroke="#000" stroke-linecap="round" stroke-linejoin="round"/><rect id="uuid-e24b726f-88a0-47e9-a874-2f78fa9d7651" x="180.35" y="279.38" width="26.32" height="12.34" transform="translate(-81.5 77.33) rotate(-18.74)" fill="none" stroke="#000" stroke-linecap="round" stroke-linejoin="round"/><rect id="uuid-c80c4749-8c96-4f25-b84b-b90cc7df172d" x="195" y="247" width="13" height="13" fill="none" stroke="#000" stroke-linecap="round" stroke-linejoin="round"/><circle id="uuid-2ecef43a-859c-49d5-a1cf-1bfcc9f6883a" cx="159.5" cy="322.5" r="1.5" fill="none" stroke="#000" stroke-linecap="round" stroke-linejoin="round"/><circle id="uuid-b0933a57-c1cf-4b6b-b38c-4c437b5136e0" cx="159.5" cy="315.5" r="1.5" fill="none" stroke="#000" stroke-linecap="round" stroke-linejoin="round"/><circle id="uuid-88b0f1e5-e019-448f-8e5d-6dc24606a7eb" cx="159.5" cy="308.5" r="1.5" fill="none" stroke="#000" stroke-linecap="round" stroke-linejoin="round"/><circle id="uuid-8d2e709b-f2fa-4727-b000-8e0da176bdb6" cx="159.5" cy="300.5" r="1.5" fill="none" stroke="#000" stroke-linecap="round" stroke-linejoin="round"/><path d="M187.52,238.73c-1.49-11.48-13.26-20.43-27.58-20.43s-26.09,8.95-27.58,20.43c-4.78.68-7.65,1.55-7.65,2.49,0,2.21,15.77,4.01,35.23,4.01s35.23-1.79,35.23-4.01c0-.94-2.87-1.81-7.65-2.49Z" fill="none" stroke="#000" stroke-linecap="round" stroke-linejoin="round"/><rect id="uuid-64be4a37-e965-4e8b-8014-53db6067b9a1" x="146.04" y="293.45" width="12.34" height="26.32" transform="translate(-184.46 368.5) rotate(-74.02)" fill="none" stroke="#000" stroke-linecap="round" stroke-linejoin="round"/><rect id="uuid-03a3c2e5-aa5a-44fd-8078-47870b8d9307" x="171.34" y="300.7" width="12.34" height="26.32" transform="translate(-173.1 398.07) rotate(-74.02)" fill="none" stroke="#000" stroke-linecap="round" stroke-linejoin="round"/><rect id="uuid-dd48a270-e644-4ff9-871e-e6519168e191" x="189.9" y="312.71" width="13.16" height="13.16" transform="translate(-164.57 420.25) rotate(-74.02)" fill="none" stroke="#000" stroke-linecap="round" stroke-linejoin="round"/></g><rect x="313" y="321" width="67" height="10" fill="#5b451f"/><rect x="320" y="326" width="12" height="62" fill="#5b451f"/><rect x="361" y="326" width="12" height="62" fill="#5b451f"/><rect x="313" y="321" width="67" height="10" fill="none" stroke="#000" stroke-linecap="round" stroke-linejoin="round"/><rect x="320" y="326" width="12" height="62" fill="none" stroke="#000" stroke-linecap="round" stroke-linejoin="round"/><rect x="361" y="326" width="12" height="62" fill="none" stroke="#000" stroke-linecap="round" stroke-linejoin="round"/><g id="uuid-5ed7b52e-c585-4b80-bf45-67b4cdc4e14a"><polygon id="uuid-1496ce8e-086a-4907-ad31-17d94ed5d7ce" points="293.7 333.34 311.79 336.02 307.14 367.46 306.2 373.79 279.06 369.78 280 363.45 289.05 364.79 293.7 333.34" fill="#35353d"/><rect id="uuid-98ba0138-732d-42cf-ab39-b83edd3ac6b0" x="296.43" y="319.53" width="36.1" height="18.29" transform="translate(-136.67 270.51) rotate(-38.92)" fill="#35353d"/><polygon id="uuid-9411802e-ee04-4f7a-986e-d4f086fe8cc8" points="354 351 336 351 336 383 326 383 326 390 354 390 354 383.46 354 383.46 354 351" fill="#35353d"/><rect id="uuid-a103e7a6-e1e4-47c9-9cfa-3f0b9e8c1709" x="332.12" y="328.73" width="36.1" height="18.29" transform="translate(-80.34 564.68) rotate(-71.76)" fill="#35353d"/><polygon id="uuid-d1c4cd2f-e156-463c-9bf9-eb3716e321a2" points="332.82 284.02 332.8 284 332.92 284 339.5 248.8 334.7 241 349.18 241 344.39 248.8 350.97 284 351.09 284 351.06 284.02 351.09 284 350.97 284 341.94 295.88 332.92 284 332.8 284 332.82 284.02" fill="#da1f36"/><path id="uuid-cb6624b9-f876-4b76-8252-7ee491aacb6d" d="M315.5,233.5v111s51,0,51,0v-111s-51,0-51,0ZM323.82,234.5h36.25s-18.12,54.59-18.12,54.59l-18.12-54.59Z" fill="#fff" stroke="#999" stroke-miterlimit="10"/><path id="uuid-7f17de90-6a3a-4e42-bda4-a300339270a1" d="M316.98,214.73c-1.22-5.09-1.57-10.7-.85-16.51,2.47-20.05,16.67-34.8,31.71-32.94,15.04,1.86,25.22,19.61,22.74,39.66-.72,5.81-2.42,11.16-4.84,15.81l-48.76-6.02Z" fill="#eec6a2"/><path id="uuid-e130b47f-995c-4124-9c25-5413be93a47f" d="M364.93,226c-4.87,10.19-13.41,16.95-23.14,16.95s-18.27-6.76-23.14-16.95h46.28Z" fill="#eec6a2"/><ellipse id="uuid-38d1a109-87c6-4fbe-928c-1a5f95410840" cx="327.5" cy="204" rx="4" ry="2.5" transform="translate(108.09 521.38) rotate(-87.26)" fill="#333"/><ellipse id="uuid-f8958118-ec2f-4b13-b905-7f0de140bb5a" cx="342.5" cy="205" rx="4" ry="2.5" transform="translate(121.37 537.32) rotate(-87.26)" fill="#333"/><path id="uuid-0d9e8553-3eb7-457f-a63d-0569e0d3b500" d="M369.58,174.31c-7.72-10.53-25.59-12.11-34.45-12.89-11.08-.98-24.27-.25-24.96,3.04-.61,2.92,9,5.88,8.47,10.4-.39,3.29-5.82,4.7-5.36,5.64.98,1.99,24.64-5.96,28.92-.75,1.93,2.34-1.38,5.74.77,7.47,2.22,1.79,6.35-1.35,15.56-2.4,7.92-.9,11.59.65,13.32-1.42,2.3-2.75-1.76-8.41-2.27-9.1Z" fill="#534741"/><rect id="uuid-44e53c94-50d1-4527-a3f1-c87e47619662" x="295.07" y="239.97" width="29.26" height="13.72" transform="translate(12.39 508.43) rotate(-79.9)" fill="#fff" stroke="#999" stroke-miterlimit="10"/><rect id="uuid-274a2420-2f30-423a-b102-39624ee37903" x="368" y="231.63" width="13.72" height="29.26" transform="translate(-49.28 100.42) rotate(-14.33)" fill="#fff" stroke="#999" stroke-miterlimit="10"/><rect id="uuid-9a3385a5-d940-401d-aaa8-3f9513c9db91" x="373.96" y="259.04" width="13.72" height="29.26" transform="translate(-39.45 65.6) rotate(-9.36)" fill="#fff" stroke="#999" stroke-miterlimit="10"/><rect id="uuid-00458af6-fc58-4b92-9e59-6a9130e39f95" x="376.9" y="286.84" width="14.63" height="14.63" transform="translate(-42.73 66.42) rotate(-9.36)" fill="#eec6a2"/><rect id="uuid-da172519-e5f2-4048-b76b-2597faa51083" x="288.2" y="266.26" width="29.26" height="13.72" transform="translate(-51.42 475.11) rotate(-71.74)" fill="#fff" stroke="#999" stroke-miterlimit="10"/><rect id="uuid-fea677ef-7d00-4fc9-b4c5-8b1fd95fcb04" x="288.53" y="284.77" width="14.63" height="14.63" transform="translate(-84.94 458.93) rotate(-68.29)" fill="#eec6a2"/><polygon id="uuid-5b0d974d-d318-4410-b00a-c9f8812f4837" points="293.7 333.34 311.79 336.02 307.14 367.46 306.2 373.79 279.06 369.78 280 363.45 289.05 364.79 293.7 333.34" fill="none" stroke="#000" stroke-linecap="round" stroke-linejoin="round"/><rect id="uuid-b41dd159-236e-4332-a3a7-bed30200420e" x="296.43" y="319.53" width="36.1" height="18.29" transform="translate(-136.67 270.51) rotate(-38.92)" fill="none" stroke="#000" stroke-linecap="round" stroke-linejoin="round"/><polygon id="uuid-343682bd-fdd7-4830-874a-e268b5cb9c88" points="354 351 336 351 336 383 326 383 326 390 354 390 354 383.46 354 383.46 354 351" fill="none" stroke="#000" stroke-linecap="round" stroke-linejoin="round"/><rect id="uuid-70f7e31c-cb74-41dd-89f5-86f05dc2f7f9" x="332.12" y="328.73" width="36.1" height="18.29" transform="translate(-80.34 564.68) rotate(-71.76)" fill="none" stroke="#000" stroke-linecap="round" stroke-linejoin="round"/><polygon id="uuid-17e49169-70db-4d42-9f2d-d7cb5cdab14d" points="332.82 284.02 332.8 284 332.92 284 339.5 248.8 334.7 241 349.18 241 344.39 248.8 350.97 284 351.09 284 351.06 284.02 351.09 284 350.97 284 341.94 295.88 332.92 284 332.8 284 332.82 284.02" fill="none" stroke="#000" stroke-linecap="round" stroke-linejoin="round"/><path id="uuid-4b6a4687-1afb-46eb-973f-4486e6b239e9" d="M315.5,233.5v111s51,0,51,0v-111s-51,0-51,0ZM323.82,234.5h36.25s-18.12,54.59-18.12,54.59l-18.12-54.59Z" fill="none" stroke="#000" stroke-linecap="round" stroke-linejoin="round"/><path id="uuid-a6dcf526-9df8-42de-90a1-4efbbb0bdd44" d="M316.98,214.73c-1.22-5.09-1.57-10.7-.85-16.51,2.47-20.05,16.67-34.8,31.71-32.94,15.04,1.86,25.22,19.61,22.74,39.66-.72,5.81-2.42,11.16-4.84,15.81l-48.76-6.02Z" fill="none" stroke="#000" stroke-linecap="round" stroke-linejoin="round"/><path id="uuid-b6bad668-0d94-41de-8159-e0fec5f36639" d="M364.93,226c-4.87,10.19-13.41,16.95-23.14,16.95s-18.27-6.76-23.14-16.95h46.28Z" fill="none" stroke="#000" stroke-linecap="round" stroke-linejoin="round"/><ellipse id="uuid-1a5d1f8f-a44c-4479-8300-e4b3e34c176d" cx="327.5" cy="204" rx="4" ry="2.5" transform="translate(108.09 521.38) rotate(-87.26)" fill="none" stroke="#000" stroke-linecap="round" stroke-linejoin="round"/><ellipse id="uuid-d45b179e-e3a7-4b0b-88f8-e9f8a90c8954" cx="342.5" cy="205" rx="4" ry="2.5" transform="translate(121.37 537.32) rotate(-87.26)" fill="none" stroke="#000" stroke-linecap="round" stroke-linejoin="round"/><path id="uuid-4a32568a-51b0-400c-b98f-ed4ba7280c94" d="M369.58,174.31c-7.72-10.53-25.59-12.11-34.45-12.89-11.08-.98-24.27-.25-24.96,3.04-.61,2.92,9,5.88,8.47,10.4-.39,3.29-5.82,4.7-5.36,5.64.98,1.99,24.64-5.96,28.92-.75,1.93,2.34-1.38,5.74.77,7.47,2.22,1.79,6.35-1.35,15.56-2.4,7.92-.9,11.59.65,13.32-1.42,2.3-2.75-1.76-8.41-2.27-9.1Z" fill="none" stroke="#000" stroke-linecap="round" stroke-linejoin="round"/><rect id="uuid-b169853b-a084-4ab6-b0ff-28c2161df8e5" x="295.07" y="239.97" width="29.26" height="13.72" transform="translate(12.39 508.43) rotate(-79.9)" fill="none" stroke="#000" stroke-linecap="round" stroke-linejoin="round"/><rect id="uuid-7ae30a47-c06c-4cbc-94d7-8514f0677bd2" x="368" y="231.63" width="13.72" height="29.26" transform="translate(-49.28 100.42) rotate(-14.33)" fill="none" stroke="#000" stroke-linecap="round" stroke-linejoin="round"/><rect id="uuid-a9d059df-96ed-4610-9c73-2a200059fc82" x="373.96" y="259.04" width="13.72" height="29.26" transform="translate(-39.45 65.6) rotate(-9.36)" fill="none" stroke="#000" stroke-linecap="round" stroke-linejoin="round"/><rect id="uuid-3e9733de-b34c-4839-9260-97385f79e936" x="376.9" y="286.84" width="14.63" height="14.63" transform="translate(-42.73 66.42) rotate(-9.36)" fill="none" stroke="#000" stroke-linecap="round" stroke-linejoin="round"/><rect id="uuid-699d9298-5fdb-441c-85f0-68b6ae4cab53" x="288.2" y="266.26" width="29.26" height="13.72" transform="translate(-51.42 475.11) rotate(-71.74)" fill="none" stroke="#000" stroke-linecap="round" stroke-linejoin="round"/><rect id="uuid-bf3ab821-65c9-4a68-bc38-3b223d539f96" x="288.53" y="284.77" width="14.63" height="14.63" transform="translate(-84.94 458.93) rotate(-68.29)" fill="none" stroke="#000" stroke-linecap="round" stroke-linejoin="round"/></g><text transform="translate(93.29 74.94)" fill="#333" font-family="ComicNeue-Regular, &apos;Comic Neue&apos;" font-size="24"><tspan x="0" y="0">It was not long before doctors </tspan><tspan x="0" y="28.8">have recognized an epidemic.</tspan></text></svg>