<?xml version="1.0" encoding="UTF-8"?><svg id="uuid-c2c2ebce-1afb-4ac6-aece-8ee4a2454480" xmlns="http://www.w3.org/2000/svg" viewBox="0 0 500 500"><path d="M321.502932,438.500396l-.040297,1.817136c-.015566.701941.366418,1.379986,1.010937,1.65848,1.29196.55825,2.553465-.355454,2.580834-1.589643l.041706-1.79477c.024993-1.233951-1.198333-2.20443-2.5127-1.701664-.654604.250396-1.064941.909774-1.080479,1.610461Z" fill="#434a54"/><path d="M326.354237,437.032564l-32.081765-.713072c-.905691-.018345-1.657605.69754-1.677727,1.604931-.01845.90558.699319,1.655906,1.604933,1.677729l32.081835.709811c.905507.021712,1.657611-.697758,1.676062-1.603338.020122-.907391-.697648-1.657717-1.603338-1.676061Z" fill="#656d78"/><path d="M312.947341,439.773383l-3.946671,4.7171c-.329981.394396-.821383.617364-1.335489.605964l-10.594967-.234952c-.288117-.008115-.567797-.090168-.814024-.240534l-8.272872-5.065731c-.733642-.448278-1.008365-1.407813-.560764-2.20094.307247-.544425.937101-.825183,1.562087-.811323l22.79754.505571.001687.001764c.89815.018191,1.609944.762271,1.58999,1.662109-.009117.411096-.16915.781839-.426518,1.060974Z" fill="#a85d5d"/><path d="M264.67679,427.155864c-.653165-.016278-1.282387.349123-1.574091.977901l-2.327885,5.024079c-.394555.847181-.026161,1.852237.820947,2.245106s1.854029.026201,2.246938-.822699l2.329526-5.022361c.391993-.848024.023605-1.853299-.823615-2.246062-.216643-.101243-.446742-.15187-.671819-.155964Z" fill="#ed5564"/><path d="M263.594952,434.985819c-.321541.4431-.841405.699956-1.389118.688586l-5.011784-.111141c-.696465-.01456-1.309884-.460883-1.540319-1.1179l-4.716985-13.479737c-.179937-.51561-.096163-1.090308.225376-1.533406.322334-.443858.842198-.700715,1.389118-.688586l5.014421.112085c.695778.015429,1.309993.460997,1.539523,1.11888l4.71616,13.477059c.180544.518285.09594,1.090303-.226392,1.53416Z" fill="#965353"/><path d="M285.834107,418.932362c-3.495737,3.409221-5.75899,7.106603-6.544641,10.693102-.565468,2.587548-.175344,4.271279-.144813,4.396316.181166.604232.009385,1.246161-.459867,1.702981-.326101.317462-.789092.454289-1.24409.444213l-6.72417-.148914c-.910542-.020194-1.639933-.755605-1.65387-1.664435-.006392-.460122-.061139-11.381317,9.369383-21.293881.339014-.355239.800309-.535867,1.262643-.525724.323986.008868.649315.109041.93044.306129l4.99844,3.494198c.412335.28769.675565.745655.716915,1.247596.039734.503701-.146364.997234-.506372,1.348418Z" fill="#434a54"/><path d="M254.436132,442.236202c-.354248.311492-.824584.460174-1.294086.409565l-4.807824-.508154-7.707623,1.46831-.33193.027626-15.501662-.343763c-.932093-.018879-1.672536-.792907-1.650077-1.724921l.299522-13.506704c.010674-.516744.257421-.999472.671093-1.309534.305998-.231156.676908-.349796,1.054742-.341418.129378.002869.260199.021447.387232.054159l28.311748,7.384624c.756712.196946,1.27941.888324,1.262037,1.671749l-.121685,5.487337c-.010577.471955-.218192.917035-.571487,1.231124Z" fill="#a85d5d"/><path d="M291.745298,433.019996l-37.723183-.835594c-.448323-.009909-.883163.160497-1.20723.472715s-.51146.741294-.521506,1.192811l-.151775,6.821736c-.014221.639182.332949,1.231828.897441,1.532002l3.345286,1.778884c.233371.124097.492576.19178.756826.19762l39.943102.882741c.838712.018537,1.596199-.590869,1.723906-1.500404.056079-.399395-.062678-.804787-.276943-1.146475l-5.394809-8.603091c-.301212-.483017-.8254-.782362-1.391116-.792944Z" fill="#656d78"/><path d="M264.4947,442.251193l19.984089.442943c.919308.022153,1.647824.783713,1.629202,1.703098l-23.315485-.517704c.019411-.92014.781985-1.649626,1.702194-1.628337Z" fill="#434a54"/><path d="M321.502932,438.500396l-.040297,1.817136c-.015566.701941.366418,1.379986,1.010937,1.65848,1.29196.55825,2.553465-.355454,2.580834-1.589643l.041706-1.79477c.024993-1.233951-1.198333-2.20443-2.5127-1.701664-.654604.250396-1.064941.909774-1.080479,1.610461Z" fill="none" stroke="#000" stroke-linecap="round" stroke-linejoin="round"/><path d="M326.354237,437.032564l-32.081765-.713072c-.905691-.018345-1.657605.69754-1.677727,1.604931-.01845.90558.699319,1.655906,1.604933,1.677729l32.081835.709811c.905507.021712,1.657611-.697758,1.676062-1.603338.020122-.907391-.697648-1.657717-1.603338-1.676061Z" fill="none" stroke="#000" stroke-linecap="round" stroke-linejoin="round"/><path d="M312.947341,439.773383l-3.946671,4.7171c-.329981.394396-.821383.617364-1.335489.605964l-10.594967-.234952c-.288117-.008115-.567797-.090168-.814024-.240534l-8.272872-5.065731c-.733642-.448278-1.008365-1.407813-.560764-2.20094.307247-.544425.937101-.825183,1.562087-.811323l22.79754.505571.001687.001764c.89815.018191,1.609944.762271,1.58999,1.662109-.009117.411096-.16915.781839-.426518,1.060974Z" fill="none" stroke="#000" stroke-linecap="round" stroke-linejoin="round"/><path d="M264.67679,427.155864c-.653165-.016278-1.282387.349123-1.574091.977901l-2.327885,5.024079c-.394555.847181-.026161,1.852237.820947,2.245106s1.854029.026201,2.246938-.822699l2.329526-5.022361c.391993-.848024.023605-1.853299-.823615-2.246062-.216643-.101243-.446742-.15187-.671819-.155964Z" fill="none" stroke="#000" stroke-linecap="round" stroke-linejoin="round"/><path d="M263.594952,434.985819c-.321541.4431-.841405.699956-1.389118.688586l-5.011784-.111141c-.696465-.01456-1.309884-.460883-1.540319-1.1179l-4.716985-13.479737c-.179937-.51561-.096163-1.090308.225376-1.533406.322334-.443858.842198-.700715,1.389118-.688586l5.014421.112085c.695778.015429,1.309993.460997,1.539523,1.11888l4.71616,13.477059c.180544.518285.09594,1.090303-.226392,1.53416Z" fill="none" stroke="#000" stroke-linecap="round" stroke-linejoin="round"/><path d="M285.834107,418.932362c-3.495737,3.409221-5.75899,7.106603-6.544641,10.693102-.565468,2.587548-.175344,4.271279-.144813,4.396316.181166.604232.009385,1.246161-.459867,1.702981-.326101.317462-.789092.454289-1.24409.444213l-6.72417-.148914c-.910542-.020194-1.639933-.755605-1.65387-1.664435-.006392-.460122-.061139-11.381317,9.369383-21.293881.339014-.355239.800309-.535867,1.262643-.525724.323986.008868.649315.109041.93044.306129l4.99844,3.494198c.412335.28769.675565.745655.716915,1.247596.039734.503701-.146364.997234-.506372,1.348418Z" fill="none" stroke="#000" stroke-linecap="round" stroke-linejoin="round"/><path d="M254.436132,442.236202c-.354248.311492-.824584.460174-1.294086.409565l-4.807824-.508154-7.707623,1.46831-.33193.027626-15.501662-.343763c-.932093-.018879-1.672536-.792907-1.650077-1.724921l.299522-13.506704c.010674-.516744.257421-.999472.671093-1.309534.305998-.231156.676908-.349796,1.054742-.341418.129378.002869.260199.021447.387232.054159l28.311748,7.384624c.756712.196946,1.27941.888324,1.262037,1.671749l-.121685,5.487337c-.010577.471955-.218192.917035-.571487,1.231124Z" fill="none" stroke="#000" stroke-linecap="round" stroke-linejoin="round"/><path d="M291.745298,433.019996l-37.723183-.835594c-.448323-.009909-.883163.160497-1.20723.472715s-.51146.741294-.521506,1.192811l-.151775,6.821736c-.014221.639182.332949,1.231828.897441,1.532002l3.345286,1.778884c.233371.124097.492576.19178.756826.19762l39.943102.882741c.838712.018537,1.596199-.590869,1.723906-1.500404.056079-.399395-.062678-.804787-.276943-1.146475l-5.394809-8.603091c-.301212-.483017-.8254-.782362-1.391116-.792944Z" fill="none" stroke="#000" stroke-linecap="round" stroke-linejoin="round"/><path d="M264.4947,442.251193l19.984089.442943c.919308.022153,1.647824.783713,1.629202,1.703098l-23.315485-.517704c.019411-.92014.781985-1.649626,1.702194-1.628337Z" fill="none" stroke="#000" stroke-linecap="round" stroke-linejoin="round"/><g id="uuid-6f0c7473-bf40-4e00-98df-e36fd13df2ef"><polygon id="uuid-53c005c0-c2f1-4585-a6c5-dcedeec16597" points="176.499329 394.48571 165.040871 405.944169 185.478897 426.382195 189.594709 430.498007 206.782397 413.31032 202.69009 409.218014 196.960861 414.947243 176.499329 394.48571" fill="#5f5f5f"/><rect id="uuid-3ada5963-11b8-4184-9fed-1eef7089157c" x="162" y="366" width="21.000016" height="41" fill="#727272"/><polygon id="uuid-7e198b8f-70e7-4905-84a1-95a00af832eb" points="124.893843 396.08166 140.847379 398.923563 135.772543 427.412063 143.749323 428.833017 142.734356 434.530717 118.804016 430.267856 119.824813 424.537428 119.824837 424.537433 124.893843 396.08166" fill="#5f5f5f"/><rect id="uuid-bd4439ba-6808-4480-8717-4bd77bcbc6fc" x="119.855122" y="369.831787" width="40.511767" height="20.834655" transform="translate(-264.820188 364.399477) rotate(-67.531088)" fill="#727272"/><path id="uuid-84a81643-1550-466d-ac08-8ddce1362710" d="M137,284v82h46v-82h-46Z" fill="#727272"/><rect id="uuid-a4113948-961e-4f3e-be44-271e641e0216" x="137" y="331" width="46" height="14" fill="#acacac"/><rect id="uuid-a03fe8bb-7270-4be9-8c88-7019546c7984" x="169" y="282" width="6" height="49" fill="#acacac"/><rect id="uuid-f407e168-05da-4642-897c-f3b0cd0caf08" x="145" y="282" width="6" height="49" fill="#acacac"/><path id="uuid-4e6c0fbd-7bba-47b8-8f11-bb4df42812b8" d="M182.035134,272c1.647337-4.4105,2.578715-9.379843,2.578715-14.641582,0-18.168516-11.04638-32.897039-24.67278-32.897039s-24.67278,14.728523-24.67278,32.897039c0,5.261739.931378,10.231082,2.578715,14.641582h44.188129Z" fill="#ccc"/><path id="uuid-50479d36-1f40-42b5-9b03-9e53fdc29c6e" d="M139.126876,278c4.380056,9.161085,12.062064,15.242589,20.814194,15.242589s16.434138-6.081505,20.814194-15.242589h-41.628388Z" fill="#ccc"/><ellipse id="uuid-504988d7-62a6-41ab-8620-bf6cd6ece17f" cx="177" cy="263" rx="4" ry="6" fill="#333"/><ellipse id="uuid-e1ab3907-9d9b-4953-a634-ee997c51ee68" cx="160" cy="263" rx="4" ry="6" fill="#333"/><rect id="uuid-ef229747-37cb-4f0a-8e7f-9a6e96c3f9f6" x="196.000002" y="260.000002" width="11.999995" height="25.999996" fill="#727272"/><rect id="uuid-4e003ac3-4067-4094-867e-d85fc21a4935" x="180.34868" y="279.378087" width="26.317627" height="12.336367" transform="translate(-81.495339 77.326999) rotate(-18.744198)" fill="#727272"/><rect id="uuid-928a52e0-7871-4d18-8756-3cc63316d477" x="195.000004" y="247.000004" width="12.999991" height="12.999991" fill="#ccc"/><circle id="uuid-19f699d6-3d77-4082-b667-c7d554ac3721" cx="159.5" cy="322.5" r="1.5" fill="#333"/><circle id="uuid-297968c9-f972-4d30-b06a-2d216425c834" cx="159.5" cy="315.5" r="1.5" fill="#333"/><circle id="uuid-4df96f30-6b0f-4b72-9670-ca82d66737c0" cx="159.5" cy="308.5" r="1.5" fill="#333"/><circle id="uuid-01709ec0-8337-4e6f-9f8f-319c847b6754" cx="159.5" cy="300.5" r="1.5" fill="#333"/><path d="M187.517138,238.726436c-1.485452-11.484749-13.263175-20.430765-27.576068-20.430765s-26.090616,8.946016-27.576068,20.430765c-4.784091.684033-7.649807,1.549352-7.649807,2.491297,0,2.212579,15.771163,4.006214,35.225874,4.006214s35.225874-1.793636,35.225874-4.006214c0-.941945-2.865716-1.807264-7.649807-2.491297Z" fill="#6a6a6a"/><rect id="uuid-8a830840-e207-45dd-823e-d79e6f4a3b97" x="146.03812" y="293.451612" width="12.336367" height="26.317627" transform="translate(-184.464081 368.495512) rotate(-74.015024)" fill="#727272"/><rect id="uuid-8a83027b-ec79-4bac-b89d-6474e4d5fd83" x="171.338159" y="300.699079" width="12.336367" height="26.317627" transform="translate(-173.098536 398.068919) rotate(-74.015024)" fill="#727272"/><rect id="uuid-a7050b72-d6ef-492a-aad1-886c8158d867" x="189.901964" y="312.714084" width="13.158816" height="13.158816" transform="translate(-164.574291 420.249284) rotate(-74.015073)" fill="#ccc"/><polygon id="uuid-baf3ac1e-969e-490e-9328-1cbedb386fcd" points="176.499329 394.48571 165.040871 405.944169 185.478897 426.382195 189.594709 430.498007 206.782397 413.31032 202.69009 409.218014 196.960861 414.947243 176.499329 394.48571" fill="none" stroke="#000" stroke-linecap="round" stroke-linejoin="round"/><rect id="uuid-2627754e-6c8e-41dd-8ea8-6f33540b09f0" x="162" y="366" width="21.000016" height="41" fill="none" stroke="#000" stroke-linecap="round" stroke-linejoin="round"/><polygon id="uuid-f69db840-cd3b-46bb-addc-eca031e0b408" points="124.893843 396.08166 140.847379 398.923563 135.772543 427.412063 143.749323 428.833017 142.734356 434.530717 118.804016 430.267856 119.824813 424.537428 119.824837 424.537433 124.893843 396.08166" fill="none" stroke="#000" stroke-linecap="round" stroke-linejoin="round"/><rect id="uuid-cfa54545-9cec-4080-8c1d-e66b6f950680" x="119.855122" y="369.831787" width="40.511767" height="20.834655" transform="translate(-264.820188 364.399477) rotate(-67.531088)" fill="none" stroke="#000" stroke-linecap="round" stroke-linejoin="round"/><path id="uuid-805fe779-5a47-4af5-855d-f2813eb1f4f1" d="M137,284v82h46v-82h-46Z" fill="none" stroke="#000" stroke-linecap="round" stroke-linejoin="round"/><rect id="uuid-f01f0423-f2a9-4afd-a989-d59e0db5a17b" x="137" y="331" width="46" height="14" fill="none" stroke="#000" stroke-linecap="round" stroke-linejoin="round"/><rect id="uuid-259d4586-4f37-4bcf-b30a-af2c8204a0d3" x="169" y="282" width="6" height="49" fill="none" stroke="#000" stroke-linecap="round" stroke-linejoin="round"/><rect id="uuid-eb3805fb-f4ce-42e0-ba4d-719615d4b503" x="145" y="282" width="6" height="49" fill="none" stroke="#000" stroke-linecap="round" stroke-linejoin="round"/><path id="uuid-53cb1d74-126e-46b0-9536-af1d00070339" d="M182.035134,272c1.647337-4.4105,2.578715-9.379843,2.578715-14.641582,0-18.168516-11.04638-32.897039-24.67278-32.897039s-24.67278,14.728523-24.67278,32.897039c0,5.261739.931378,10.231082,2.578715,14.641582h44.188129Z" fill="none" stroke="#000" stroke-linecap="round" stroke-linejoin="round"/><path id="uuid-1be0f1e8-8eee-4508-8fb4-f65bed5f0a54" d="M139.126876,278c4.380056,9.161085,12.062064,15.242589,20.814194,15.242589s16.434138-6.081505,20.814194-15.242589h-41.628388Z" fill="none" stroke="#000" stroke-linecap="round" stroke-linejoin="round"/><ellipse id="uuid-f25c4588-ebbd-492b-99cf-37f96f6a7d1d" cx="177" cy="263" rx="4" ry="6" fill="none" stroke="#000" stroke-linecap="round" stroke-linejoin="round"/><ellipse id="uuid-52e4bea7-f117-4796-8557-296c2123eaf7" cx="160" cy="263" rx="4" ry="6" fill="none" stroke="#000" stroke-linecap="round" stroke-linejoin="round"/><rect id="uuid-706cf3de-3f30-43ad-b262-622fd67a09d5" x="196.000002" y="260.000002" width="11.999995" height="25.999996" fill="none" stroke="#000" stroke-linecap="round" stroke-linejoin="round"/><rect id="uuid-8ccfc795-01c0-4820-b44f-d5e549c2d501" x="180.34868" y="279.378087" width="26.317627" height="12.336367" transform="translate(-81.495339 77.326999) rotate(-18.744198)" fill="none" stroke="#000" stroke-linecap="round" stroke-linejoin="round"/><rect id="uuid-5fd1533a-cb5d-49d2-97b0-7c835df9e944" x="195.000004" y="247.000004" width="12.999991" height="12.999991" fill="none" stroke="#000" stroke-linecap="round" stroke-linejoin="round"/><circle id="uuid-39572d49-a0b2-495d-a638-332edfe59340" cx="159.5" cy="322.5" r="1.5" fill="none" stroke="#000" stroke-linecap="round" stroke-linejoin="round"/><circle id="uuid-a7b7c698-7f8b-4d01-9643-e26107442c48" cx="159.5" cy="315.5" r="1.5" fill="none" stroke="#000" stroke-linecap="round" stroke-linejoin="round"/><circle id="uuid-c1141bd3-7c09-453d-8352-a192241d3bbe" cx="159.5" cy="308.5" r="1.5" fill="none" stroke="#000" stroke-linecap="round" stroke-linejoin="round"/><circle id="uuid-0157d4af-7245-4198-b80b-3bd1660a4c90" cx="159.5" cy="300.5" r="1.5" fill="none" stroke="#000" stroke-linecap="round" stroke-linejoin="round"/><path d="M187.517138,238.726436c-1.485452-11.484749-13.263175-20.430765-27.576068-20.430765s-26.090616,8.946016-27.576068,20.430765c-4.784091.684033-7.649807,1.549352-7.649807,2.491297,0,2.212579,15.771163,4.006214,35.225874,4.006214s35.225874-1.793636,35.225874-4.006214c0-.941945-2.865716-1.807264-7.649807-2.491297Z" fill="none" stroke="#000" stroke-linecap="round" stroke-linejoin="round"/><rect id="uuid-d7d210f9-2da5-47ee-97df-1e9efc4d1d94" x="146.03812" y="293.451612" width="12.336367" height="26.317627" transform="translate(-184.464081 368.495512) rotate(-74.015024)" fill="none" stroke="#000" stroke-linecap="round" stroke-linejoin="round"/><rect id="uuid-22424776-8322-47a0-bf50-b5506548a485" x="171.338159" y="300.699079" width="12.336367" height="26.317627" transform="translate(-173.098536 398.068919) rotate(-74.015024)" fill="none" stroke="#000" stroke-linecap="round" stroke-linejoin="round"/><rect id="uuid-dc35c339-f344-4211-a881-57ee45f42d99" x="189.901964" y="312.714084" width="13.158816" height="13.158816" transform="translate(-164.574291 420.249284) rotate(-74.015073)" fill="none" stroke="#000" stroke-linecap="round" stroke-linejoin="round"/></g><rect x="313" y="321" width="67" height="10" fill="#5b451f"/><rect x="320" y="326" width="12" height="62" fill="#5b451f"/><rect x="361" y="326" width="12" height="62" fill="#5b451f"/><rect x="313" y="321" width="67" height="10" fill="none" stroke="#000" stroke-linecap="round" stroke-linejoin="round"/><rect x="320" y="326" width="12" height="62" fill="none" stroke="#000" stroke-linecap="round" stroke-linejoin="round"/><rect x="361" y="326" width="12" height="62" fill="none" stroke="#000" stroke-linecap="round" stroke-linejoin="round"/><g id="uuid-8f9b6872-7098-4ef8-b130-c22ce91825de"><polygon id="uuid-17a2e288-7366-4015-9005-bb97b796d8fa" points="293.69934 333.343385 311.790025 336.021219 307.135924 367.462997 306.19868 373.794746 279.062612 369.777988 279.999855 363.446239 289.045239 364.785162 293.69934 333.343385" fill="#35353d"/><rect id="uuid-4c032ccd-65da-43e9-926f-44f8d41d421d" x="296.42791" y="319.526804" width="36.099962" height="18.287815" transform="translate(-136.673716 270.507077) rotate(-38.917983)" fill="#35353d"/><polygon id="uuid-c9ac4161-5f26-436e-83cb-e0cab509aef7" points="353.999972 351 336 351 336 383 326 383 326 390 354 390 354 383.462664 353.999972 383.462664 353.999972 351" fill="#35353d"/><rect id="uuid-7b7dc230-0bf5-4fa2-a56c-60ee23bf4409" x="332.120937" y="328.729659" width="36.099962" height="18.287801" transform="translate(-80.338284 564.677531) rotate(-71.757549)" fill="#35353d"/><polygon id="uuid-efb1b12b-690b-45b5-ba09-bdc49e6d84a5" points="332.821379 284.01775 332.798469 284 332.917959 284 339.498051 248.796402 334.700278 241 349.184489 241 344.386716 248.796402 350.966808 284 351.086298 284 351.063388 284.01775 351.086298 284 350.969041 284 341.942384 295.875037 332.915726 284 332.798469 284 332.821379 284.01775" fill="#da1f36"/><path id="uuid-d4ad393b-c940-4a78-b536-44e4d0821632" d="M315.5,233.5v111s51,0,51,0v-111s-51,0-51,0ZM323.818122,234.5h36.248524s-18.124262,54.585547-18.124262,54.585547l-18.124262-54.585547Z" fill="#fff" stroke="#999" stroke-miterlimit="10"/><path id="uuid-d89e88e8-81cf-469c-b9a5-ad77216b6124" d="M316.977621,214.728533c-1.217038-5.091127-1.567938-10.701393-.851285-16.50745,2.474564-20.048017,16.669707-34.795655,31.705733-32.939731,15.036027,1.855925,25.2191,19.612611,22.744536,39.660628-.716652,5.806057-2.421208,11.162614-4.839672,15.805005l-48.759312-6.018452Z" fill="#eec6a2"/><path id="uuid-8de4d682-ad3c-4a85-b5bd-de11e140acb3" d="M364.934691,226c-4.869843,10.185497-13.41087,16.947049-23.141683,16.947049s-18.27184-6.761552-23.141683-16.947049h46.283366Z" fill="#eec6a2"/><ellipse id="uuid-dfb7cba0-9b42-4e99-b893-cbc800b36214" cx="327.5" cy="204" rx="4.002739" ry="2.495383" transform="translate(108.088058 521.380922) rotate(-87.261909)" fill="#333"/><ellipse id="uuid-82ea4fee-4df3-4bee-abea-a66b2596ed24" cx="342.5" cy="205" rx="4.002739" ry="2.495383" transform="translate(121.372642 537.316026) rotate(-87.261909)" fill="#333"/><path id="uuid-e2123a7f-c372-4fc1-98b7-0ba45e39adcb" d="M369.576182,174.310308c-7.721407-10.530823-25.593744-12.10914-34.445506-12.890836-11.083349-.978776-24.271684-.252659-24.964693,3.037969-.614112,2.916003,8.997486,5.882388,8.466886,10.404177-.385922,3.288864-5.820098,4.697514-5.359458,5.637862.977126,1.994716,24.63639-5.963035,28.921854-.749703,1.925377,2.342243-1.376155,5.741814.773223,7.474725,2.220569,1.790319,6.352951-1.347677,15.55871-2.399141,7.92275-.904922,11.589514.650935,13.317543-1.415894,2.298946-2.749664-1.762075-8.408406-2.268558-9.099158Z" fill="#534741"/><rect id="uuid-5faccd8d-baa3-4c59-9a3c-b74f486b7110" x="295.067662" y="239.965386" width="29.260522" height="13.715847" transform="translate(12.386701 508.434828) rotate(-79.899523)" fill="#fff" stroke="#999" stroke-miterlimit="10"/><rect id="uuid-a7c5e8fd-d82d-4091-bb04-06243cdedb4d" x="368.001564" y="231.632339" width="13.715847" height="29.260522" transform="translate(-49.281979 100.423923) rotate(-14.327524)" fill="#fff" stroke="#999" stroke-miterlimit="10"/><rect id="uuid-bc23fa32-2583-49e3-9cf0-8ff2fe322d7e" x="373.957854" y="259.04224" width="13.715847" height="29.260522" transform="translate(-39.447874 65.596174) rotate(-9.362411)" fill="#fff" stroke="#999" stroke-miterlimit="10"/><rect id="uuid-1aef9eb2-1e54-45ee-9180-efb914fefba7" x="376.895056" y="286.837714" width="14.630263" height="14.630263" transform="translate(-42.734373 66.421189) rotate(-9.362411)" fill="#eec6a2"/><rect id="uuid-de8f0ed4-5c9c-4494-b52c-de2389a7cd4b" x="288.201127" y="266.25616" width="29.260522" height="13.715847" transform="translate(-51.420213 475.113974) rotate(-71.73878)" fill="#fff" stroke="#999" stroke-miterlimit="10"/><rect id="uuid-bf451d1f-8b45-45a9-9d89-f7c3a5c429bc" x="288.528019" y="284.767118" width="14.630263" height="14.630263" transform="translate(-84.943337 458.926072) rotate(-68.294399)" fill="#eec6a2"/><polygon id="uuid-39dc6b8f-ea3f-4344-9ea6-17eefb03f5b2" points="293.69934 333.343385 311.790025 336.021219 307.135924 367.462997 306.19868 373.794746 279.062612 369.777988 279.999855 363.446239 289.045239 364.785162 293.69934 333.343385" fill="none" stroke="#000" stroke-linecap="round" stroke-linejoin="round"/><rect id="uuid-d35d69db-ef5f-4f75-a858-15219524a5df" x="296.42791" y="319.526804" width="36.099962" height="18.287815" transform="translate(-136.673716 270.507077) rotate(-38.917983)" fill="none" stroke="#000" stroke-linecap="round" stroke-linejoin="round"/><polygon id="uuid-c62d73cc-054b-4b8c-80a9-d1cf6d4774f8" points="353.999972 351 336 351 336 383 326 383 326 390 354 390 354 383.462664 353.999972 383.462664 353.999972 351" fill="none" stroke="#000" stroke-linecap="round" stroke-linejoin="round"/><rect id="uuid-92404159-e5c8-4bee-8aba-f493bb947b2b" x="332.120937" y="328.729659" width="36.099962" height="18.287801" transform="translate(-80.338284 564.677531) rotate(-71.757549)" fill="none" stroke="#000" stroke-linecap="round" stroke-linejoin="round"/><polygon id="uuid-b834a01c-7968-4b51-86d4-55fe8ae4806e" points="332.821379 284.01775 332.798469 284 332.917959 284 339.498051 248.796402 334.700278 241 349.184489 241 344.386716 248.796402 350.966808 284 351.086298 284 351.063388 284.01775 351.086298 284 350.969041 284 341.942384 295.875037 332.915726 284 332.798469 284 332.821379 284.01775" fill="none" stroke="#000" stroke-linecap="round" stroke-linejoin="round"/><path id="uuid-65ead298-be12-4453-8f63-76f5a9e2cabe" d="M315.5,233.5v111s51,0,51,0v-111s-51,0-51,0ZM323.818122,234.5h36.248524s-18.124262,54.585547-18.124262,54.585547l-18.124262-54.585547Z" fill="none" stroke="#000" stroke-linecap="round" stroke-linejoin="round"/><path id="uuid-6966c9ef-21d8-4858-a33e-1b24faf6e62e" d="M316.977621,214.728533c-1.217038-5.091127-1.567938-10.701393-.851285-16.50745,2.474564-20.048017,16.669707-34.795655,31.705733-32.939731,15.036027,1.855925,25.2191,19.612611,22.744536,39.660628-.716652,5.806057-2.421208,11.162614-4.839672,15.805005l-48.759312-6.018452Z" fill="none" stroke="#000" stroke-linecap="round" stroke-linejoin="round"/><path id="uuid-30f90722-c2a3-4a7a-ab71-a5db29c64bb1" d="M364.934691,226c-4.869843,10.185497-13.41087,16.947049-23.141683,16.947049s-18.27184-6.761552-23.141683-16.947049h46.283366Z" fill="none" stroke="#000" stroke-linecap="round" stroke-linejoin="round"/><ellipse id="uuid-37ff8907-33d0-4b9c-943f-c0413b7f9ecf" cx="327.5" cy="204" rx="4.002739" ry="2.495383" transform="translate(108.088058 521.380922) rotate(-87.261909)" fill="none" stroke="#000" stroke-linecap="round" stroke-linejoin="round"/><ellipse id="uuid-76043430-c54b-49e3-8573-b81546f6e064" cx="342.5" cy="205" rx="4.002739" ry="2.495383" transform="translate(121.372642 537.316026) rotate(-87.261909)" fill="none" stroke="#000" stroke-linecap="round" stroke-linejoin="round"/><path id="uuid-7fbb4489-d5d3-4322-a685-5b2773fdf9b1" d="M369.576182,174.310308c-7.721407-10.530823-25.593744-12.10914-34.445506-12.890836-11.083349-.978776-24.271684-.252659-24.964693,3.037969-.614112,2.916003,8.997486,5.882388,8.466886,10.404177-.385922,3.288864-5.820098,4.697514-5.359458,5.637862.977126,1.994716,24.63639-5.963035,28.921854-.749703,1.925377,2.342243-1.376155,5.741814.773223,7.474725,2.220569,1.790319,6.352951-1.347677,15.55871-2.399141,7.92275-.904922,11.589514.650935,13.317543-1.415894,2.298946-2.749664-1.762075-8.408406-2.268558-9.099158Z" fill="none" stroke="#000" stroke-linecap="round" stroke-linejoin="round"/><rect id="uuid-c562c6bd-c3e9-454a-8fa2-e7f7a746e697" x="295.067662" y="239.965386" width="29.260522" height="13.715847" transform="translate(12.386701 508.434828) rotate(-79.899523)" fill="none" stroke="#000" stroke-linecap="round" stroke-linejoin="round"/><rect id="uuid-e17e60b6-1372-4666-b715-23cabe2b2f35" x="368.001564" y="231.632339" width="13.715847" height="29.260522" transform="translate(-49.281979 100.423923) rotate(-14.327524)" fill="none" stroke="#000" stroke-linecap="round" stroke-linejoin="round"/><rect id="uuid-bbda4004-7700-4683-bf53-ab1be2eb6120" x="373.957854" y="259.04224" width="13.715847" height="29.260522" transform="translate(-39.447874 65.596174) rotate(-9.362411)" fill="none" stroke="#000" stroke-linecap="round" stroke-linejoin="round"/><rect id="uuid-3d9e8b5e-4a59-408d-89b2-bf1b7ab00391" x="376.895056" y="286.837714" width="14.630263" height="14.630263" transform="translate(-42.734373 66.421189) rotate(-9.362411)" fill="none" stroke="#000" stroke-linecap="round" stroke-linejoin="round"/><rect id="uuid-13ddbaa6-aeea-47bb-9c5f-46265d1d0af2" x="288.201127" y="266.25616" width="29.260522" height="13.715847" transform="translate(-51.420213 475.113974) rotate(-71.73878)" fill="none" stroke="#000" stroke-linecap="round" stroke-linejoin="round"/><rect id="uuid-e411f511-aa9d-4007-8f17-e82e90c11ab8" x="288.528019" y="284.767118" width="14.630263" height="14.630263" transform="translate(-84.943337 458.926072) rotate(-68.294399)" fill="none" stroke="#000" stroke-linecap="round" stroke-linejoin="round"/></g><text transform="translate(93.289062 74.943604)" fill="#333" font-family="ComicNeue-Regular, &apos;Comic Neue&apos;" font-size="24"><tspan x="0" y="0">It was not long before doctors </tspan><tspan x="0" y="28.799805">have recognized an epidemic.</tspan></text></svg>