<?xml version="1.0" encoding="UTF-8"?><svg id="uuid-09e6045e-93d6-4492-9ee6-2da8b5819de0" xmlns="http://www.w3.org/2000/svg" viewBox="0 0 500 500"><g id="uuid-9e271561-377f-4e86-a020-0b5794b49e01"><polygon id="uuid-d429d151-62da-4252-be7d-94fb11879744" points="140.000018 327 122 326.999989 121.999982 358.630287 121.999978 365 149 365.000016 149.000004 359 140 358.999995 140.000018 327" fill="#35353d"/><rect id="uuid-38856872-729a-4e5b-a508-fa991fbf43e2" x="122.000001" y="293.000001" width="18.000011" height="35.999998" fill="#35353d"/><polygon id="uuid-99634ca3-5fac-4935-b3dd-cadb6d9990a9" points="89.000008 327 107 326.999991 107.000017 359 117 358.999995 117.000004 366 89 366.000014 88.999997 359.462676 89.000025 359.462676 89.000008 327" fill="#35353d"/><rect id="uuid-2d6e7042-cb64-4162-9779-6c99419bfb24" x="88.999985" y="292" width="18.000029" height="36.000001" fill="#35353d"/><polygon id="uuid-7fa1a5a9-5394-4989-83a0-72eb0a16363c" points="122.544363 233.448203 122.567273 233 122.447783 233 115.86769 197.796402 120.665463 190 106.181253 190 110.979026 197.796402 104.398933 233 104.279443 233 104.302353 233.448203 104.279443 234 104.3967 234 113.423358 245.30549 122.450016 234 122.567273 234 122.544363 233.448203" fill="#da1f36"/><path id="uuid-ef8283cb-174a-47de-b17f-146f769d91ec" d="M139.5,182.5v111s-51,0-51,0v-111s51,0,51,0ZM131.54762,183.5h-36.248524s18.124262,54.585547,18.124262,54.585547l18.124262-54.585547Z" fill="#fff" stroke="#999" stroke-miterlimit="10"/><path id="uuid-61d1d162-378b-41ef-8857-b738a2c078ee" d="M137.897508,169.216394c1.696906-4.951895,2.581116-10.503146,2.421306-16.351082-.551817-20.192621-13.276181-36.226506-28.420661-35.812643-15.14448.413863-26.974169,17.118754-26.422352,37.311375.15981,5.847935,1.345881,11.342611,3.310699,16.194439l49.111008-1.34209Z" fill="#eec6a2"/><path id="uuid-20bba424-1c34-43ec-9623-502c63245e53" d="M90.43105,175c4.869843,10.185497,13.41087,16.947049,23.141683,16.947049s18.27184-6.761552,23.141683-16.947049h-46.283366Z" fill="#eec6a2"/><ellipse id="uuid-942fbe16-8317-47ff-aebf-e4e651602e05" cx="121.5" cy="160" rx="2.495383" ry="4.002739" transform="translate(-7.504569 5.986783) rotate(-2.738091)" fill="#333"/><ellipse id="uuid-ef59f1fc-4775-4557-8813-c1cc0abab432" cx="106.5" cy="161" rx="2.495383" ry="4.002739" transform="translate(-7.569465 5.271367) rotate(-2.738091)" fill="#333"/><path id="uuid-4ad0cee7-81da-4cde-af25-298c8fb94a82" d="M89.392236,123.967305c8.690289-9.746652,26.63169-9.613746,35.517656-9.547911,11.126178.082423,24.1852,2.06267,24.561308,5.404381.333289,2.961271-9.517351,4.997727-9.420297,9.549505.070588,3.310677,5.3457,5.23103,4.797501,6.123174-1.16286,1.892465-23.95561-8.28482-28.718615-3.503835-2.139927,2.147998.822434,5.846866-1.482376,7.36695-2.38115,1.570443-6.195515-1.947258-15.259084-3.871653-7.800377-1.656192-11.598779-.45703-13.121874-2.679202-2.026306-2.956329,2.555745-8.202095,3.12578-8.84141Z" fill="#534741"/><rect id="uuid-f26e7782-a5e0-4fef-988f-61b6dbbcebda" x="138.422119" y="182.378427" width="13.715847" height="29.260522" transform="translate(-17.716459 14.386525) rotate(-5.343836)" fill="#fff" stroke="#999" stroke-miterlimit="10"/><rect id="uuid-a259356d-7f15-42d6-a530-842dd215bf00" x="65.875993" y="188.83513" width="29.260522" height="13.715847" transform="translate(-129.02259 225.268239) rotate(-75.672476)" fill="#fff" stroke="#999" stroke-miterlimit="10"/><rect id="uuid-057ab016-d694-4200-b77a-40c095c3c061" x="59.919703" y="216.245031" width="29.260522" height="13.715847" transform="translate(-157.708749 260.365751) rotate(-80.637589)" fill="#fff" stroke="#999" stroke-miterlimit="10"/><rect id="uuid-8676c13a-3e5d-4ebc-8d22-55c7fbd65af2" x="63.840422" y="236.268167" width="14.630263" height="14.630263" transform="translate(-180.758488 274.165186) rotate(-80.637589)" fill="#eec6a2"/><rect id="uuid-5bf09dbd-4eb5-4cbf-bd91-61ef74f7ac5a" x="143.440774" y="209.449218" width="13.715847" height="29.260522" transform="translate(-50.977548 44.387564) rotate(-14.39144)" fill="#fff" stroke="#999" stroke-miterlimit="10"/><rect id="uuid-89b4d294-7faa-434f-a0bf-d909e038503d" x="148.308484" y="237.163866" width="14.630263" height="14.630263" transform="translate(-44.52649 34.88743) rotate(-11.20112)" fill="#eec6a2"/><polygon id="uuid-536bb897-b458-48e4-a0f7-26983fb57180" points="140.000018 327 122 326.999989 121.999982 358.630287 121.999978 365 149 365.000016 149.000004 359 140 358.999995 140.000018 327" fill="none" stroke="#000" stroke-linecap="round" stroke-linejoin="round"/><rect id="uuid-a08f783c-3690-4e8c-8dfb-f23cdd96f5af" x="122.000001" y="293.000001" width="18.000011" height="35.999998" fill="none" stroke="#000" stroke-linecap="round" stroke-linejoin="round"/><polygon id="uuid-0977ae20-1975-422d-ad1c-f9e7cee8ada8" points="89.000008 327 107 326.999991 107.000017 359 117 358.999995 117.000004 366 89 366.000014 88.999997 359.462676 89.000025 359.462676 89.000008 327" fill="none" stroke="#000" stroke-linecap="round" stroke-linejoin="round"/><rect id="uuid-4ca17406-6a3c-4a00-b106-ab9ac955dc3c" x="88.999985" y="292" width="18.000029" height="36.000001" fill="none" stroke="#000" stroke-linecap="round" stroke-linejoin="round"/><polygon id="uuid-74311fee-adad-451f-8630-033adbca5578" points="122.544363 233.448203 122.567273 233 122.447783 233 115.86769 197.796402 120.665463 190 106.181253 190 110.979026 197.796402 104.398933 233 104.279443 233 104.302353 233.448203 104.279443 234 104.3967 234 113.423358 245.30549 122.450016 234 122.567273 234 122.544363 233.448203" fill="none" stroke="#000" stroke-linecap="round" stroke-linejoin="round"/><path id="uuid-149ff4ba-496a-4e45-b7ca-4c1864bca975" d="M139.5,182.5v111s-51,0-51,0v-111s51,0,51,0ZM131.54762,183.5h-36.248524s18.124262,54.585547,18.124262,54.585547l18.124262-54.585547Z" fill="none" stroke="#000" stroke-linecap="round" stroke-linejoin="round"/><path id="uuid-1577fe14-1012-40a0-89d1-246139be4664" d="M137.897508,169.216394c1.696906-4.951895,2.581116-10.503146,2.421306-16.351082-.551817-20.192621-13.276181-36.226506-28.420661-35.812643-15.14448.413863-26.974169,17.118754-26.422352,37.311375.15981,5.847935,1.345881,11.342611,3.310699,16.194439l49.111008-1.34209Z" fill="none" stroke="#000" stroke-linecap="round" stroke-linejoin="round"/><path id="uuid-3d598fc6-6b08-47ac-be7b-9965d7ebc4d3" d="M90.43105,175c4.869843,10.185497,13.41087,16.947049,23.141683,16.947049s18.27184-6.761552,23.141683-16.947049h-46.283366Z" fill="none" stroke="#000" stroke-linecap="round" stroke-linejoin="round"/><ellipse id="uuid-084912e7-070a-477e-ab51-1f7486b3acfe" cx="121.5" cy="160" rx="2.495383" ry="4.002739" transform="translate(-7.504569 5.986783) rotate(-2.738091)" fill="none" stroke="#000" stroke-linecap="round" stroke-linejoin="round"/><ellipse id="uuid-37550c44-7682-4223-b65e-5770a4a78e43" cx="106.5" cy="161" rx="2.495383" ry="4.002739" transform="translate(-7.569465 5.271367) rotate(-2.738091)" fill="none" stroke="#000" stroke-linecap="round" stroke-linejoin="round"/><path id="uuid-ad744a19-307d-4137-a871-8ead4d99e9f3" d="M89.392236,123.967305c8.690289-9.746652,26.63169-9.613746,35.517656-9.547911,11.126178.082423,24.1852,2.06267,24.561308,5.404381.333289,2.961271-9.517351,4.997727-9.420297,9.549505.070588,3.310677,5.3457,5.23103,4.797501,6.123174-1.16286,1.892465-23.95561-8.28482-28.718615-3.503835-2.139927,2.147998.822434,5.846866-1.482376,7.36695-2.38115,1.570443-6.195515-1.947258-15.259084-3.871653-7.800377-1.656192-11.598779-.45703-13.121874-2.679202-2.026306-2.956329,2.555745-8.202095,3.12578-8.84141Z" fill="none" stroke="#000" stroke-linecap="round" stroke-linejoin="round"/><rect id="uuid-2addfbd8-add7-4936-98ca-c3ef63e62692" x="138.422119" y="182.378427" width="13.715847" height="29.260522" transform="translate(-17.716459 14.386525) rotate(-5.343836)" fill="none" stroke="#000" stroke-linecap="round" stroke-linejoin="round"/><rect id="uuid-121bdfd6-1000-450d-b990-5f6bef3a48a9" x="65.875993" y="188.83513" width="29.260522" height="13.715847" transform="translate(-129.02259 225.268239) rotate(-75.672476)" fill="none" stroke="#000" stroke-linecap="round" stroke-linejoin="round"/><rect id="uuid-47aecae8-8ba7-4620-a3eb-4b28ec485716" x="59.919703" y="216.245031" width="29.260522" height="13.715847" transform="translate(-157.708749 260.365751) rotate(-80.637589)" fill="none" stroke="#000" stroke-linecap="round" stroke-linejoin="round"/><rect id="uuid-522250e0-1317-44de-a7bf-1b054acdd2eb" x="63.840422" y="236.268167" width="14.630263" height="14.630263" transform="translate(-180.758488 274.165186) rotate(-80.637589)" fill="none" stroke="#000" stroke-linecap="round" stroke-linejoin="round"/><rect id="uuid-dd0a306e-0057-4ef4-9de4-7061b7005b86" x="143.440774" y="209.449218" width="13.715847" height="29.260522" transform="translate(-50.977548 44.387564) rotate(-14.39144)" fill="none" stroke="#000" stroke-linecap="round" stroke-linejoin="round"/><rect id="uuid-6363a6b2-88e5-467d-8739-c4d8c5432dce" x="148.308484" y="237.163866" width="14.630263" height="14.630263" transform="translate(-44.52649 34.88743) rotate(-11.20112)" fill="none" stroke="#000" stroke-linecap="round" stroke-linejoin="round"/></g><path d="M285.527297,239.355331l-56.554955,29.155726c-1.236056.726452-1.593861,1.810711-1.583018,3.382887l.108426,1.96251,59.710144,30.619479,59.569197-30.131561s.065053-.303591.065053-1.366165c0,0-.054216-1.398695-.368644-2.049249-.346963-.737297-1.084259-1.398695-1.561336-1.79987-1.268581-1.051731-2.537162-1.984194-4.694844-3.198565-30.933911-17.489101-51.274605-26.499295-51.274605-26.499295-1.311953-.487916-2.396216-.661398-3.415418-.075898Z" fill="#dea66c"/><path d="M227.899935,338.369876c3.296148,2.179363,9.313786,5.041806,15.396478,8.337955,14.13874,7.654867,32.007329,16.957812,40.898254,20.611768,1.203528.498758,1.919139.737297,2.754015.780668.618027.032526,1.637234-.379489,1.637234-.379489,0,0-1.658915-59.840262-1.756503-63.255672-.097583-3.33952-1.496279-4.445461-2.732333-5.247814-1.92998-1.236055-6.115221-3.166039-6.115221-3.166039,0,0-14.659183-7.286222-29.296681-14.962775-6.960943-3.653952-12.837628-7.394647-19.158858-10.473943-1.160153-.552987-2.526319.140938-2.526319,1.44205v64.838697c0,.618027.379491,1.138467.899935,1.474593Z" fill="#b38251"/><path d="M345.355416,338.837108l-56.373205,29.068801c-.903977.468325-1.982211-.18515-1.982211-1.208932l.098017-62.27628c0-.599023-.18515-1.916862-.370303-2.439646-.511891-1.524779.599019-2.134688,1.100016-2.385187l55.915782-28.796519c1.481213-.76239,3.256487.315848,3.256487,1.982211v63.3763c-.000008,1.121799-.631696,2.156467-1.644584,2.679251Z" fill="#966239"/><path d="M320.136845,285.707408s-30.760434,15.732598-31.259192,17.06624c-.498758,1.322797,24.13561-10.517314,27.019735-12.002748,3.263622-1.680601,28.895507-15.385635,28.895507-16.892759.010845-1.236055-24.65605,11.829267-24.65605,11.829267Z" fill="#212121" isolation="isolate" opacity=".5"/><path d="M326.945991,279.093429c-.54213-.401175-58.755999-30.814644-58.755999-30.814644l-18.063756,9.335469,59.688467,30.782115.032526.032526,17.467415-8.945138s-.032526-.086743-.130114-.195167c-.075898-.065053-.206012-.162636-.238538-.195163Z" fill="#ffe0b2"/><path d="M327.227901,279.353649c-9.888446,4.868325-17.413198,9.042721-17.413198,9.042721.249383.249379.26022.574656.26022.737297-.032526,1.25774-.054216,2.255261-.086743,3.502156-.151796,6.451342-.238538,12.913526-.455387,19.364864.726452-.433705,1.604707.520448,2.266098,0,1.019206-.802349,3.187724-4.337036,3.512997-4.445461.433705-.140951.899937-.032526,1.344479-.054216,1.95167-.108424,6.321233-4.087657,7.253696-4.271979.899937-.173481,3.870805.401175,3.870805.401175,0,0-.206012-19.679304-.28191-22.986294-.021673-1.170994-.271057-1.290263-.271057-1.290263Z" fill="#bf9f85"/><path d="M285.527297,239.355331l-56.554955,29.155726c-1.236056.726452-1.593861,1.810711-1.583018,3.382887l.108426,1.96251,59.710144,30.619479,59.569197-30.131561s.065053-.303591.065053-1.366165c0,0-.054216-1.398695-.368644-2.049249-.346963-.737297-1.084259-1.398695-1.561336-1.79987-1.268581-1.051731-2.537162-1.984194-4.694844-3.198565-30.933911-17.489101-51.274605-26.499295-51.274605-26.499295-1.311953-.487916-2.396216-.661398-3.415418-.075898Z" fill="none" stroke="#000" stroke-linecap="round" stroke-linejoin="round"/><path d="M227.899935,338.369876c3.296148,2.179363,9.313786,5.041806,15.396478,8.337955,14.13874,7.654867,32.007329,16.957812,40.898254,20.611768,1.203528.498758,1.919139.737297,2.754015.780668.618027.032526,1.637234-.379489,1.637234-.379489,0,0-1.658915-59.840262-1.756503-63.255672-.097583-3.33952-1.496279-4.445461-2.732333-5.247814-1.92998-1.236055-6.115221-3.166039-6.115221-3.166039,0,0-14.659183-7.286222-29.296681-14.962775-6.960943-3.653952-12.837628-7.394647-19.158858-10.473943-1.160153-.552987-2.526319.140938-2.526319,1.44205v64.838697c0,.618027.379491,1.138467.899935,1.474593Z" fill="none" stroke="#000" stroke-linecap="round" stroke-linejoin="round"/><path d="M345.355416,338.837108l-56.373205,29.068801c-.903977.468325-1.982211-.18515-1.982211-1.208932l.098017-62.27628c0-.599023-.18515-1.916862-.370303-2.439646-.511891-1.524779.599019-2.134688,1.100016-2.385187l55.915782-28.796519c1.481213-.76239,3.256487.315848,3.256487,1.982211v63.3763c-.000008,1.121799-.631696,2.156467-1.644584,2.679251Z" fill="none" stroke="#000" stroke-linecap="round" stroke-linejoin="round"/><path d="M320.136845,285.707408s-30.760434,15.732598-31.259192,17.06624c-.498758,1.322797,24.13561-10.517314,27.019735-12.002748,3.263622-1.680601,28.895507-15.385635,28.895507-16.892759.010845-1.236055-24.65605,11.829267-24.65605,11.829267Z" fill="none" stroke="#000" stroke-linecap="round" stroke-linejoin="round"/><path d="M326.945991,279.093429c-.54213-.401175-58.755999-30.814644-58.755999-30.814644l-18.063756,9.335469,59.688467,30.782115.032526.032526,17.467415-8.945138s-.032526-.086743-.130114-.195167c-.075898-.065053-.206012-.162636-.238538-.195163Z" fill="none" stroke="#000" stroke-linecap="round" stroke-linejoin="round"/><path d="M327.227901,279.353649c-9.888446,4.868325-17.413198,9.042721-17.413198,9.042721.249383.249379.26022.574656.26022.737297-.032526,1.25774-.054216,2.255261-.086743,3.502156-.151796,6.451342-.238538,12.913526-.455387,19.364864.726452-.433705,1.604707.520448,2.266098,0,1.019206-.802349,3.187724-4.337036,3.512997-4.445461.433705-.140951.899937-.032526,1.344479-.054216,1.95167-.108424,6.321233-4.087657,7.253696-4.271979.899937-.173481,3.870805.401175,3.870805.401175,0,0-.206012-19.679304-.28191-22.986294-.021673-1.170994-.271057-1.290263-.271057-1.290263Z" fill="none" stroke="#000" stroke-linecap="round" stroke-linejoin="round"/><g id="uuid-13a02423-7709-4b90-9623-8ed885e0ab9b"><path id="uuid-89bf381a-2ff6-452b-b59a-95137d4567a2" d="M343.551593,320.434487l-82.038476,4.838114,2.725698,46.21886,82.038476-4.838114-2.725698-46.21886Z" fill="#727272"/><rect id="uuid-7dee4f96-7424-4b9a-b932-be69ceb748ec" x="283.662408" y="323.597031" width="13.889749" height="46.299162" transform="translate(-19.909433 17.709874) rotate(-3.375036)" fill="#acacac"/><rect id="uuid-3cb6df6e-a082-466e-8d9b-d2fdb91b4cce" x="298.213448" y="354.145519" width="48.61412" height="5.787395" transform="translate(-20.460023 19.606504) rotate(-3.375036)" fill="#acacac"/><rect id="uuid-5ca77f5d-8e2e-4bd0-9550-3676d42ce3b8" x="296.782456" y="329.880617" width="48.61412" height="5.787395" transform="translate(-19.033995 19.480173) rotate(-3.375036)" fill="#acacac"/><path id="uuid-ee7c90ca-81fe-435f-b830-e486c7a14855" d="M357.444439,364.749985c4.499832,1.384827,9.515387,2.022038,14.768,1.712272,18.137004-1.069607,32.189666-12.963916,31.38746-26.566682-.802206-13.602766-16.155499-23.762897-34.292504-22.693291-5.252613.309766-10.158505,1.532081-14.464375,3.436213l2.601419,44.111488Z" fill="#ccc"/><path id="uuid-99ac3af4-b61b-4e42-a7e8-61f3fd221121" d="M349.455422,322.238318c-8.887335,4.911785-14.506041,12.938496-13.990791,21.675447.51525,8.736951,7.038458,16.047608,16.441514,19.88074l-2.450723-41.556187Z" fill="#ccc"/><ellipse id="uuid-113118a6-b216-471b-9c7e-b444e7af5c49" cx="367" cy="359" rx="6.005631" ry="3.991162" transform="translate(-20.336277 22.042126) rotate(-3.347477)" fill="#333"/><ellipse id="uuid-8d471827-eaf2-4876-9b12-2006563dface" cx="366" cy="342" rx="6.005631" ry="3.991162" transform="translate(-19.345332 21.954729) rotate(-3.347477)" fill="#333"/><rect id="uuid-38da3766-78c2-4dff-99f7-c05f766534b0" x="329.230235" y="367.667752" width="12.336367" height="26.317627" transform="translate(-171.296546 408.776265) rotate(-51.786531)" fill="#727272"/><rect id="uuid-deaf4b4d-01e9-49c0-8fe0-80ae058786b8" x="320.298255" y="363.474819" width="26.317627" height="12.336367" transform="translate(-61.406177 66.472121) rotate(-10.429613)" fill="#727272"/><rect id="uuid-06a6e8b6-f387-4c4d-85ef-88d93bbfc084" x="342.509835" y="385.460595" width="13.158816" height="13.158816" transform="translate(-175.847304 392.574275) rotate(-48.375075)" fill="#ccc"/><circle id="uuid-11e30219-f0c2-45d1-a5a9-4ffaca39d939" cx="306.5" cy="345.5" r="1.499954" fill="#333"/><circle id="uuid-481865a8-21ca-44d9-a7ef-cb088f531dbc" cx="313.5" cy="344.5" r="1.499954" fill="#333"/><circle id="uuid-36d919d9-6941-4d3a-ac75-e68ed8ddeefc" cx="320.5" cy="344.5" r="1.499954" fill="#333"/><circle id="uuid-619dccd3-a890-4c9e-a203-4456db0fea64" cx="328.5" cy="343.5" r="1.499954" fill="#333"/><path d="M391.294929,368.245224c11.377379-2.158999,19.614507-14.44296,18.771887-28.731028s-10.466492-25.518699-22.018772-26.325451c-.964493-4.735523-1.99702-7.545326-2.937331-7.489872-2.208741.130258-3.070795,15.97966-1.925468,35.400629,1.145327,19.420969,3.864322,35.059184,6.073064,34.928926.940311-.055454,1.635421-2.967142,2.036621-7.783205Z" fill="#6a6a6a"/><rect id="uuid-906acc37-712b-4e7c-90df-5bf9e5857618" x="309.112718" y="327.77021" width="26.317627" height="12.336367" transform="translate(-130.558606 232.357603) rotate(-33.375036)" fill="#727272"/><rect id="uuid-829ad453-f30a-447d-892a-fd370db56083" x="297.8461" y="344.763004" width="26.317627" height="12.336367" transform="translate(-99.357701 577.821643) rotate(-77.39006)" fill="#727272"/><rect id="uuid-cc9fc95d-659e-4fd0-b031-897b4f89aefe" x="299.998678" y="361.617368" width="13.158816" height="13.158816" transform="translate(-119.667034 586.998254) rotate(-77.390109)" fill="#ccc"/><polygon id="uuid-ab80798f-9607-45ea-b150-69f85a3eb2c0" points="287.590632 403.118918 286.636629 386.942318 257.783027 388.643937 251.972485 388.986609 253.403489 413.25151 259.180846 412.910794 258.703845 404.822494 287.590632 403.118918" fill="#5f5f5f"/><rect id="uuid-d5092b96-15c8-4d0b-962e-febe8395ad87" x="273.442719" y="361.481766" width="20.834639" height="40.511767" transform="translate(-168.09752 233.297362) rotate(-35.183341)" fill="#727272"/><polygon id="uuid-7b5f6787-0206-453a-b497-09f6981d0aef" points="250.022119 353.814412 253.97805 369.528811 225.91658 376.592983 227.894548 384.450195 222.282254 385.863029 216.34835 362.291395 221.992881 360.870445 221.992887 360.870469 250.022119 353.814412" fill="#5f5f5f"/><rect id="uuid-a03771a5-2a87-4b9b-a64b-60ca7a018a8d" x="237.846996" y="337.570765" width="40.511767" height="20.834655" transform="translate(-175.155469 348.098278) rotate(-53.450232)" fill="#727272"/><path id="uuid-11c86a7e-d81b-4bf3-9cf5-1ae736e79926" d="M343.551593,320.434487l-82.038476,4.838114,2.725698,46.21886,82.038476-4.838114-2.725698-46.21886Z" fill="none" stroke="#000" stroke-linecap="round" stroke-linejoin="round"/><rect id="uuid-99f577ff-fd8c-4551-8222-9be93c3feaa9" x="283.662408" y="323.597031" width="13.889749" height="46.299162" transform="translate(-19.909433 17.709874) rotate(-3.375036)" fill="none" stroke="#000" stroke-linecap="round" stroke-linejoin="round"/><rect id="uuid-bf1f50d5-6a8b-4217-9b12-cdee00c5ff1b" x="298.213448" y="354.145519" width="48.61412" height="5.787395" transform="translate(-20.460023 19.606504) rotate(-3.375036)" fill="none" stroke="#000" stroke-linecap="round" stroke-linejoin="round"/><rect id="uuid-a7c62526-5300-47db-afab-21304caed360" x="296.782456" y="329.880617" width="48.61412" height="5.787395" transform="translate(-19.033995 19.480173) rotate(-3.375036)" fill="none" stroke="#000" stroke-linecap="round" stroke-linejoin="round"/><path id="uuid-a9b8666c-d6e4-437b-8141-b2e841099e7d" d="M357.444439,364.749985c4.499832,1.384827,9.515387,2.022038,14.768,1.712272,18.137004-1.069607,32.189666-12.963916,31.38746-26.566682-.802206-13.602766-16.155499-23.762897-34.292504-22.693291-5.252613.309766-10.158505,1.532081-14.464375,3.436213l2.601419,44.111488Z" fill="none" stroke="#000" stroke-linecap="round" stroke-linejoin="round"/><path id="uuid-5c507c71-abb1-4009-ae70-d8385d8d0a77" d="M349.455422,322.238318c-8.887335,4.911785-14.506041,12.938496-13.990791,21.675447.51525,8.736951,7.038458,16.047608,16.441514,19.88074l-2.450723-41.556187Z" fill="none" stroke="#000" stroke-linecap="round" stroke-linejoin="round"/><ellipse id="uuid-a215fa46-e188-4cae-b889-f2a527b139e5" cx="367" cy="359" rx="6.005631" ry="3.991162" transform="translate(-20.336277 22.042126) rotate(-3.347477)" fill="none" stroke="#000" stroke-linecap="round" stroke-linejoin="round"/><ellipse id="uuid-59a2bbfb-bfbf-42ce-a081-8c7fc62485b0" cx="366" cy="342" rx="6.005631" ry="3.991162" transform="translate(-19.345332 21.954729) rotate(-3.347477)" fill="none" stroke="#000" stroke-linecap="round" stroke-linejoin="round"/><rect id="uuid-516dd909-4ccf-4a85-95ca-fd638f039e68" x="329.230235" y="367.667752" width="12.336367" height="26.317627" transform="translate(-171.296546 408.776265) rotate(-51.786531)" fill="none" stroke="#000" stroke-linecap="round" stroke-linejoin="round"/><rect id="uuid-8fc33999-275c-499e-b619-968656afa768" x="320.298255" y="363.474819" width="26.317627" height="12.336367" transform="translate(-61.406177 66.472121) rotate(-10.429613)" fill="none" stroke="#000" stroke-linecap="round" stroke-linejoin="round"/><rect id="uuid-875e765b-45ea-4b5d-b4b5-d258b374ba85" x="342.509835" y="385.460595" width="13.158816" height="13.158816" transform="translate(-175.847304 392.574275) rotate(-48.375075)" fill="none" stroke="#000" stroke-linecap="round" stroke-linejoin="round"/><circle id="uuid-e4646b19-ff31-405e-a0e0-da088b2c2583" cx="306.5" cy="345.5" r="1.499954" fill="none" stroke="#000" stroke-linecap="round" stroke-linejoin="round"/><circle id="uuid-793542b5-38e0-451c-9ff9-75d2a2a1f3f7" cx="313.5" cy="344.5" r="1.499954" fill="none" stroke="#000" stroke-linecap="round" stroke-linejoin="round"/><circle id="uuid-e4ac38d9-81e2-45bc-b4a5-ed5dca1a5dda" cx="320.5" cy="344.5" r="1.499954" fill="none" stroke="#000" stroke-linecap="round" stroke-linejoin="round"/><circle id="uuid-5eea24fc-8e7d-4ca8-af42-8d3bb95ef6ec" cx="328.5" cy="343.5" r="1.499954" fill="none" stroke="#000" stroke-linecap="round" stroke-linejoin="round"/><path d="M391.294929,368.245224c11.377379-2.158999,19.614507-14.44296,18.771887-28.731028s-10.466492-25.518699-22.018772-26.325451c-.964493-4.735523-1.99702-7.545326-2.937331-7.489872-2.208741.130258-3.070795,15.97966-1.925468,35.400629,1.145327,19.420969,3.864322,35.059184,6.073064,34.928926.940311-.055454,1.635421-2.967142,2.036621-7.783205Z" fill="none" stroke="#000" stroke-linecap="round" stroke-linejoin="round"/><rect id="uuid-b707c7ce-2cee-4ba5-a6ef-0f8d4d193068" x="309.112718" y="327.77021" width="26.317627" height="12.336367" transform="translate(-130.558606 232.357603) rotate(-33.375036)" fill="none" stroke="#000" stroke-linecap="round" stroke-linejoin="round"/><rect id="uuid-cd1425be-fdf3-4946-8b81-4d7ced4639cd" x="297.8461" y="344.763004" width="26.317627" height="12.336367" transform="translate(-99.357701 577.821643) rotate(-77.39006)" fill="none" stroke="#000" stroke-linecap="round" stroke-linejoin="round"/><rect id="uuid-b4f256df-ff26-4bb3-8989-3d52d7617bfd" x="299.998678" y="361.617368" width="13.158816" height="13.158816" transform="translate(-119.667034 586.998254) rotate(-77.390109)" fill="none" stroke="#000" stroke-linecap="round" stroke-linejoin="round"/><polygon id="uuid-f46631f8-946e-4a3b-9f3e-cecd852278b1" points="287.590632 403.118918 286.636629 386.942318 257.783027 388.643937 251.972485 388.986609 253.403489 413.25151 259.180846 412.910794 258.703845 404.822494 287.590632 403.118918" fill="none" stroke="#000" stroke-linecap="round" stroke-linejoin="round"/><rect id="uuid-bffb5008-e8b3-4c1f-a6d7-29c47ff81820" x="273.442719" y="361.481766" width="20.834639" height="40.511767" transform="translate(-168.09752 233.297362) rotate(-35.183341)" fill="none" stroke="#000" stroke-linecap="round" stroke-linejoin="round"/><polygon id="uuid-b50f87a9-bbc0-4d47-b73a-d176509f376e" points="250.022119 353.814412 253.97805 369.528811 225.91658 376.592983 227.894548 384.450195 222.282254 385.863029 216.34835 362.291395 221.992881 360.870445 221.992887 360.870469 250.022119 353.814412" fill="none" stroke="#000" stroke-linecap="round" stroke-linejoin="round"/><rect id="uuid-cdda3233-5140-490e-9e7d-7659bbcaddaa" x="237.846996" y="337.570765" width="40.511767" height="20.834655" transform="translate(-175.155469 348.098278) rotate(-53.450232)" fill="none" stroke="#000" stroke-linecap="round" stroke-linejoin="round"/></g><text transform="translate(197.25238 129.78894)" fill="#333" font-family="ComicNeue-Regular, &apos;Comic Neue&apos;" font-size="24"><tspan x="0" y="0">Driven by the constant </tspan><tspan x="0" y="28.799805">fear of death and the </tspan><tspan x="0" y="57.599609">inhumanity of warfare.</tspan></text><path d="M168.441172,248.551435l.107004-1.81443c.041335-.700896.476978-1.345777,1.141935-1.571157,1.332928-.451781,2.516289.56109,2.443612,1.79344l-.103788,1.792252c-.075026,1.231922-1.372932,2.100136-2.642262,1.492573-.632174-.30259-.987761-.993034-.9465-1.692678Z" fill="#434a54"/><path d="M173.157661,250.407349l-32.034127-1.887548c-.904201-.055067-1.595667-.829497-1.542234-1.735537.054953-.9041.831133-1.593829,1.735539-1.542235l32.033933,1.890804c.904291.051696,1.595655.829715,1.540703,1.733814-.053433.90604-.829613,1.59577-1.733813,1.540702Z" fill="#656d78"/><path d="M160.016784,246.589719l-3.551672-5.021242c-.296955-.419825-.768684-.681859-1.282025-.712133l-10.579191-.623898c-.287828-.015246-.573235.043886-.830831.173816l-8.655965,4.379077c-.767538.387388-1.11907,1.321521-.737174,2.148294.262145.56752.867192.898368,1.491247.93517l22.763595,1.342445.001824-.001621c.896673.054609,1.666391-.629378,1.71938-1.527876.024207-.410484-.105274-.79297-.339189-1.092032Z" fill="#a85d5d"/><path d="M110.882919,255.256395c-.652338-.036675-1.249899-.451835-1.489721-1.102173l-1.913342-5.196109c-.324646-.876352.123936-1.848271,1.000079-2.171243s1.85006.124041,2.172927,1.001975l1.915116,5.194529c.322025.876986-.12657,1.849123-1.002817,2.171979-.224131.083364-.457574.115189-.682243.101042Z" fill="#ed5564"/><path d="M110.438778,247.364544c-.284598-.467685-.781952-.765801-1.328787-.798828l-5.004321-.295125c-.695356-.041894-1.342907.353283-1.625797.989479l-5.793203,13.053431c-.221105.499344-.184151,1.078938.100446,1.546622.285327.468506.782681.766622,1.328787.798828l5.007026.294397c.694742.040972,1.343025-.353387,1.625083-.99052l5.792164-13.050829c.221927-.50196.183928-1.078952-.101398-1.547455Z" fill="#965353"/><path d="M131.30472,265.166397c-3.208143-3.681138-5.164513-7.549673-5.657115-11.18802-.354047-2.624845.171159-4.271449.211717-4.393602.229508-.587574.11028-1.241307-.320433-1.734631-.299319-.34283-.749708-.516705-1.204026-.543511l-6.714141-.396161c-.909187-.053617-1.695741.620305-1.783238,1.525021-.043636.458093-.982702,11.338977,7.61403,21.982749.30913.381528.754281.598923,1.215917.626257.32364.0174.656013-.056095.952177-.229768l5.265012-3.0779c.434281-.25335.733735-.688493.815602-1.185435.080398-.498829-.065118-1.005812-.395502-1.384999Z" fill="#434a54"/><path d="M101.897248,239.396213c-.327857-.339159-.784606-.525445-1.256664-.513026l-4.833186.117103-7.563386-2.087721-.328603-.054418-15.47858-.912833c-.93056-.056672-1.731259.654845-1.784356,1.585616l-.795359,13.486592c-.031212.515911.175629,1.017037.562831,1.359583.286272.255179.646355.403469,1.023626.42572.129185.007619.261081-.000303.390346-.02262l28.816818-5.067419c.770177-.135014,1.347151-.781787,1.393284-1.564046l.32313-5.479166c.027681-.471261-.143205-.931694-.469901-1.273364Z" fill="#a85d5d"/><path d="M138.337438,251.603784l-37.666936-2.222322c-.447653-.026433-.867264-.231497-1.16498-.568934s-.449743-.780281-.423188-1.231129l.40121-6.811619c.037593-.638234.43162-1.200816,1.018569-1.454286l3.478367-1.502108c.242655-.104789.50649-.151256.770345-.135676l39.883381,2.355119c.837459.049451,1.543102.718203,1.596727,1.635093.023548.402624-.127651.797067-.368886,1.12028l-6.073844,8.137908c-.339341.457036-.886052.712943-1.450766.677674Z" fill="#656d78"/><path d="M111.923987,240.195907l19.954314,1.177008c.918082.052374,1.705883-.647682,1.761782-1.565556l-23.280822-1.372299c-.055175.91869.645814,1.70754,1.564725,1.760847Z" fill="#434a54"/><path d="M168.441172,248.551435l.107004-1.81443c.041335-.700896.476978-1.345777,1.141935-1.571157,1.332928-.451781,2.516289.56109,2.443612,1.79344l-.103788,1.792252c-.075026,1.231922-1.372932,2.100136-2.642262,1.492573-.632174-.30259-.987761-.993034-.9465-1.692678Z" fill="none" stroke="#000" stroke-linecap="round" stroke-linejoin="round"/><path d="M173.157661,250.407349l-32.034127-1.887548c-.904201-.055067-1.595667-.829497-1.542234-1.735537.054953-.9041.831133-1.593829,1.735539-1.542235l32.033933,1.890804c.904291.051696,1.595655.829715,1.540703,1.733814-.053433.90604-.829613,1.59577-1.733813,1.540702Z" fill="none" stroke="#000" stroke-linecap="round" stroke-linejoin="round"/><path d="M160.016784,246.589719l-3.551672-5.021242c-.296955-.419825-.768684-.681859-1.282025-.712133l-10.579191-.623898c-.287828-.015246-.573235.043886-.830831.173816l-8.655965,4.379077c-.767538.387388-1.11907,1.321521-.737174,2.148294.262145.56752.867192.898368,1.491247.93517l22.763595,1.342445.001824-.001621c.896673.054609,1.666391-.629378,1.71938-1.527876.024207-.410484-.105274-.79297-.339189-1.092032Z" fill="none" stroke="#000" stroke-linecap="round" stroke-linejoin="round"/><path d="M110.882919,255.256395c-.652338-.036675-1.249899-.451835-1.489721-1.102173l-1.913342-5.196109c-.324646-.876352.123936-1.848271,1.000079-2.171243s1.85006.124041,2.172927,1.001975l1.915116,5.194529c.322025.876986-.12657,1.849123-1.002817,2.171979-.224131.083364-.457574.115189-.682243.101042Z" fill="none" stroke="#000" stroke-linecap="round" stroke-linejoin="round"/><path d="M110.438778,247.364544c-.284598-.467685-.781952-.765801-1.328787-.798828l-5.004321-.295125c-.695356-.041894-1.342907.353283-1.625797.989479l-5.793203,13.053431c-.221105.499344-.184151,1.078938.100446,1.546622.285327.468506.782681.766622,1.328787.798828l5.007026.294397c.694742.040972,1.343025-.353387,1.625083-.99052l5.792164-13.050829c.221927-.50196.183928-1.078952-.101398-1.547455Z" fill="none" stroke="#000" stroke-linecap="round" stroke-linejoin="round"/><path d="M131.30472,265.166397c-3.208143-3.681138-5.164513-7.549673-5.657115-11.18802-.354047-2.624845.171159-4.271449.211717-4.393602.229508-.587574.11028-1.241307-.320433-1.734631-.299319-.34283-.749708-.516705-1.204026-.543511l-6.714141-.396161c-.909187-.053617-1.695741.620305-1.783238,1.525021-.043636.458093-.982702,11.338977,7.61403,21.982749.30913.381528.754281.598923,1.215917.626257.32364.0174.656013-.056095.952177-.229768l5.265012-3.0779c.434281-.25335.733735-.688493.815602-1.185435.080398-.498829-.065118-1.005812-.395502-1.384999Z" fill="none" stroke="#000" stroke-linecap="round" stroke-linejoin="round"/><path d="M101.897248,239.396213c-.327857-.339159-.784606-.525445-1.256664-.513026l-4.833186.117103-7.563386-2.087721-.328603-.054418-15.47858-.912833c-.93056-.056672-1.731259.654845-1.784356,1.585616l-.795359,13.486592c-.031212.515911.175629,1.017037.562831,1.359583.286272.255179.646355.403469,1.023626.42572.129185.007619.261081-.000303.390346-.02262l28.816818-5.067419c.770177-.135014,1.347151-.781787,1.393284-1.564046l.32313-5.479166c.027681-.471261-.143205-.931694-.469901-1.273364Z" fill="none" stroke="#000" stroke-linecap="round" stroke-linejoin="round"/><path d="M138.337438,251.603784l-37.666936-2.222322c-.447653-.026433-.867264-.231497-1.16498-.568934s-.449743-.780281-.423188-1.231129l.40121-6.811619c.037593-.638234.43162-1.200816,1.018569-1.454286l3.478367-1.502108c.242655-.104789.50649-.151256.770345-.135676l39.883381,2.355119c.837459.049451,1.543102.718203,1.596727,1.635093.023548.402624-.127651.797067-.368886,1.12028l-6.073844,8.137908c-.339341.457036-.886052.712943-1.450766.677674Z" fill="none" stroke="#000" stroke-linecap="round" stroke-linejoin="round"/><path d="M111.923987,240.195907l19.954314,1.177008c.918082.052374,1.705883-.647682,1.761782-1.565556l-23.280822-1.372299c-.055175.91869.645814,1.70754,1.564725,1.760847Z" fill="none" stroke="#000" stroke-linecap="round" stroke-linejoin="round"/></svg>