<?xml version="1.0" encoding="UTF-8"?><svg id="uuid-a3b1120e-dc4e-44f0-8c97-ad9512aa5198" xmlns="http://www.w3.org/2000/svg" viewBox="0 0 500 500"><g id="uuid-aecaf42e-bcb4-42c7-b1e7-2f0ac20fbfe4"><polygon id="uuid-36a9361a-3e63-40d7-bdea-cc074837e192" points="140 327 122 327 122 358.63 122 365 149 365 149 359 140 359 140 327" fill="#35353d"/><rect id="uuid-81444791-14d3-4977-8e82-d4cdba5ed1c0" x="122" y="293" width="18" height="36" fill="#35353d"/><polygon id="uuid-1dea1785-42b9-4efb-bb8c-eb3936929f43" points="89 327 107 327 107 359 117 359 117 366 89 366 89 359.46 89 359.46 89 327" fill="#35353d"/><rect id="uuid-01d6043c-e8ce-4317-b93a-cb415d12670b" x="89" y="292" width="18" height="36" fill="#35353d"/><polygon id="uuid-8d334798-0f7e-4147-a568-39af5a6a454b" points="122.54 233.45 122.57 233 122.45 233 115.87 197.8 120.67 190 106.18 190 110.98 197.8 104.4 233 104.28 233 104.3 233.45 104.28 234 104.4 234 113.42 245.31 122.45 234 122.57 234 122.54 233.45" fill="#da1f36"/><path id="uuid-692808dd-7ec5-4f1f-b358-b2ff01f137d3" d="M139.5,182.5v111s-51,0-51,0v-111s51,0,51,0ZM131.55,183.5h-36.25s18.12,54.59,18.12,54.59l18.12-54.59Z" fill="#fff" stroke="#999" stroke-miterlimit="10"/><path id="uuid-8c6fd8c0-6122-46c8-b853-f0acb2b875f5" d="M137.9,169.22c1.7-4.95,2.58-10.5,2.42-16.35-.55-20.19-13.28-36.23-28.42-35.81-15.14.41-26.97,17.12-26.42,37.31.16,5.85,1.35,11.34,3.31,16.19l49.11-1.34Z" fill="#eec6a2"/><path id="uuid-e73b9e91-ebfe-4705-92db-84a303994f2f" d="M90.43,175c4.87,10.19,13.41,16.95,23.14,16.95s18.27-6.76,23.14-16.95h-46.28Z" fill="#eec6a2"/><ellipse id="uuid-d82bdb63-b872-47d5-8065-43b4abfbe8a6" cx="121.5" cy="160" rx="2.5" ry="4" transform="translate(-7.5 5.99) rotate(-2.74)" fill="#333"/><ellipse id="uuid-edf128c8-fb6e-475b-bde4-ba23d3bcb4e6" cx="106.5" cy="161" rx="2.5" ry="4" transform="translate(-7.57 5.27) rotate(-2.74)" fill="#333"/><path id="uuid-01445f9f-b590-4937-80d7-5dfebab9b62c" d="M89.39,123.97c8.69-9.75,26.63-9.61,35.52-9.55,11.13.08,24.19,2.06,24.56,5.4.33,2.96-9.52,5-9.42,9.55.07,3.31,5.35,5.23,4.8,6.12-1.16,1.89-23.96-8.28-28.72-3.5-2.14,2.15.82,5.85-1.48,7.37-2.38,1.57-6.2-1.95-15.26-3.87-7.8-1.66-11.6-.46-13.12-2.68-2.03-2.96,2.56-8.2,3.13-8.84Z" fill="#534741"/><rect id="uuid-908fe0fe-a442-47ed-babe-72a915ddb0a8" x="138.42" y="182.38" width="13.72" height="29.26" transform="translate(-17.72 14.39) rotate(-5.34)" fill="#fff" stroke="#999" stroke-miterlimit="10"/><rect id="uuid-43232db6-2612-45fb-ad6a-de05de63726f" x="65.88" y="188.84" width="29.26" height="13.72" transform="translate(-129.02 225.27) rotate(-75.67)" fill="#fff" stroke="#999" stroke-miterlimit="10"/><rect id="uuid-8f106045-012b-48d9-82b6-6616183cbdc3" x="59.92" y="216.25" width="29.26" height="13.72" transform="translate(-157.71 260.37) rotate(-80.64)" fill="#fff" stroke="#999" stroke-miterlimit="10"/><rect id="uuid-b2855763-e9c1-403c-8598-70ac3d076524" x="63.84" y="236.27" width="14.63" height="14.63" transform="translate(-180.76 274.17) rotate(-80.64)" fill="#eec6a2"/><rect id="uuid-73e64b9e-917b-43ec-8b3b-a4449b5449c4" x="143.44" y="209.45" width="13.72" height="29.26" transform="translate(-50.98 44.39) rotate(-14.39)" fill="#fff" stroke="#999" stroke-miterlimit="10"/><rect id="uuid-ae036596-6d8d-4f2f-ae19-ae2a1fca9f57" x="148.31" y="237.16" width="14.63" height="14.63" transform="translate(-44.53 34.89) rotate(-11.2)" fill="#eec6a2"/><polygon id="uuid-24c02736-ccca-4cfb-abad-5b2ebe8e5659" points="140 327 122 327 122 358.63 122 365 149 365 149 359 140 359 140 327" fill="none" stroke="#000" stroke-linecap="round" stroke-linejoin="round"/><rect id="uuid-a6f87509-637a-4a57-a62e-fb2d72df3597" x="122" y="293" width="18" height="36" fill="none" stroke="#000" stroke-linecap="round" stroke-linejoin="round"/><polygon id="uuid-8b409d26-daec-474e-ab85-00517b028fde" points="89 327 107 327 107 359 117 359 117 366 89 366 89 359.46 89 359.46 89 327" fill="none" stroke="#000" stroke-linecap="round" stroke-linejoin="round"/><rect id="uuid-7b1babb1-6d8a-4591-bcf5-c8cdff6bb76c" x="89" y="292" width="18" height="36" fill="none" stroke="#000" stroke-linecap="round" stroke-linejoin="round"/><polygon id="uuid-53a381c6-7b15-4512-9d45-bcca24f9bb6a" points="122.54 233.45 122.57 233 122.45 233 115.87 197.8 120.67 190 106.18 190 110.98 197.8 104.4 233 104.28 233 104.3 233.45 104.28 234 104.4 234 113.42 245.31 122.45 234 122.57 234 122.54 233.45" fill="none" stroke="#000" stroke-linecap="round" stroke-linejoin="round"/><path id="uuid-8ab403ce-ef5a-40ca-a835-1645848fa9a4" d="M139.5,182.5v111s-51,0-51,0v-111s51,0,51,0ZM131.55,183.5h-36.25s18.12,54.59,18.12,54.59l18.12-54.59Z" fill="none" stroke="#000" stroke-linecap="round" stroke-linejoin="round"/><path id="uuid-5c5ef4cb-f358-4544-9350-1b05fc903e4a" d="M137.9,169.22c1.7-4.95,2.58-10.5,2.42-16.35-.55-20.19-13.28-36.23-28.42-35.81-15.14.41-26.97,17.12-26.42,37.31.16,5.85,1.35,11.34,3.31,16.19l49.11-1.34Z" fill="none" stroke="#000" stroke-linecap="round" stroke-linejoin="round"/><path id="uuid-0bc2fb74-707c-4987-a2d7-f73feb473aac" d="M90.43,175c4.87,10.19,13.41,16.95,23.14,16.95s18.27-6.76,23.14-16.95h-46.28Z" fill="none" stroke="#000" stroke-linecap="round" stroke-linejoin="round"/><ellipse id="uuid-2e17e6eb-73b0-4b20-af44-35a7934abc74" cx="121.5" cy="160" rx="2.5" ry="4" transform="translate(-7.5 5.99) rotate(-2.74)" fill="none" stroke="#000" stroke-linecap="round" stroke-linejoin="round"/><ellipse id="uuid-db27f05e-9b64-408c-adee-d75f4e22f415" cx="106.5" cy="161" rx="2.5" ry="4" transform="translate(-7.57 5.27) rotate(-2.74)" fill="none" stroke="#000" stroke-linecap="round" stroke-linejoin="round"/><path id="uuid-64d5fa50-766d-4703-880c-23fec8be9f1d" d="M89.39,123.97c8.69-9.75,26.63-9.61,35.52-9.55,11.13.08,24.19,2.06,24.56,5.4.33,2.96-9.52,5-9.42,9.55.07,3.31,5.35,5.23,4.8,6.12-1.16,1.89-23.96-8.28-28.72-3.5-2.14,2.15.82,5.85-1.48,7.37-2.38,1.57-6.2-1.95-15.26-3.87-7.8-1.66-11.6-.46-13.12-2.68-2.03-2.96,2.56-8.2,3.13-8.84Z" fill="none" stroke="#000" stroke-linecap="round" stroke-linejoin="round"/><rect id="uuid-7b98ea1f-b543-4e8a-8a27-a5caab8f5178" x="138.42" y="182.38" width="13.72" height="29.26" transform="translate(-17.72 14.39) rotate(-5.34)" fill="none" stroke="#000" stroke-linecap="round" stroke-linejoin="round"/><rect id="uuid-5fc911d4-fb31-4232-9cbf-061bd29ecb3c" x="65.88" y="188.84" width="29.26" height="13.72" transform="translate(-129.02 225.27) rotate(-75.67)" fill="none" stroke="#000" stroke-linecap="round" stroke-linejoin="round"/><rect id="uuid-64740b21-5cf9-4d3c-9fd2-bbe409df73f3" x="59.92" y="216.25" width="29.26" height="13.72" transform="translate(-157.71 260.37) rotate(-80.64)" fill="none" stroke="#000" stroke-linecap="round" stroke-linejoin="round"/><rect id="uuid-64ef366a-0e47-4ac7-8565-a53af1ffc477" x="63.84" y="236.27" width="14.63" height="14.63" transform="translate(-180.76 274.17) rotate(-80.64)" fill="none" stroke="#000" stroke-linecap="round" stroke-linejoin="round"/><rect id="uuid-abf167e2-72b7-4f69-8ffb-ffb1721a32ec" x="143.44" y="209.45" width="13.72" height="29.26" transform="translate(-50.98 44.39) rotate(-14.39)" fill="none" stroke="#000" stroke-linecap="round" stroke-linejoin="round"/><rect id="uuid-e97e0a7a-750d-4eab-84d9-b18b83d4ff21" x="148.31" y="237.16" width="14.63" height="14.63" transform="translate(-44.53 34.89) rotate(-11.2)" fill="none" stroke="#000" stroke-linecap="round" stroke-linejoin="round"/></g><path d="M285.53,239.36l-56.55,29.16c-1.24.73-1.59,1.81-1.58,3.38l.11,1.96,59.71,30.62,59.57-30.13s.07-.3.07-1.37c0,0-.05-1.4-.37-2.05-.35-.74-1.08-1.4-1.56-1.8-1.27-1.05-2.54-1.98-4.69-3.2-30.93-17.49-51.27-26.5-51.27-26.5-1.31-.49-2.4-.66-3.42-.08Z" fill="#dea66c"/><path d="M227.9,338.37c3.3,2.18,9.31,5.04,15.4,8.34,14.14,7.65,32.01,16.96,40.9,20.61,1.2.5,1.92.74,2.75.78.62.03,1.64-.38,1.64-.38,0,0-1.66-59.84-1.76-63.26-.1-3.34-1.5-4.45-2.73-5.25-1.93-1.24-6.12-3.17-6.12-3.17,0,0-14.66-7.29-29.3-14.96-6.96-3.65-12.84-7.39-19.16-10.47-1.16-.55-2.53.14-2.53,1.44v64.84c0,.62.38,1.14.9,1.47Z" fill="#b38251"/><path d="M345.36,338.84l-56.37,29.07c-.9.47-1.98-.19-1.98-1.21l.1-62.28c0-.6-.19-1.92-.37-2.44-.51-1.52.6-2.13,1.1-2.39l55.92-28.8c1.48-.76,3.26.32,3.26,1.98v63.38c0,1.12-.63,2.16-1.64,2.68Z" fill="#966239"/><path d="M320.14,285.71s-30.76,15.73-31.26,17.07c-.5,1.32,24.14-10.52,27.02-12,3.26-1.68,28.9-15.39,28.9-16.89.01-1.24-24.66,11.83-24.66,11.83Z" fill="#212121" isolation="isolate" opacity=".5"/><path d="M326.95,279.09c-.54-.4-58.76-30.81-58.76-30.81l-18.06,9.34,59.69,30.78.03.03,17.47-8.95s-.03-.09-.13-.2c-.08-.07-.21-.16-.24-.2Z" fill="#ffe0b2"/><path d="M327.23,279.35c-9.89,4.87-17.41,9.04-17.41,9.04.25.25.26.57.26.74-.03,1.26-.05,2.26-.09,3.5-.15,6.45-.24,12.91-.46,19.36.73-.43,1.6.52,2.27,0,1.02-.8,3.19-4.34,3.51-4.45.43-.14.9-.03,1.34-.05,1.95-.11,6.32-4.09,7.25-4.27.9-.17,3.87.4,3.87.4,0,0-.21-19.68-.28-22.99-.02-1.17-.27-1.29-.27-1.29Z" fill="#bf9f85"/><path d="M285.53,239.36l-56.55,29.16c-1.24.73-1.59,1.81-1.58,3.38l.11,1.96,59.71,30.62,59.57-30.13s.07-.3.07-1.37c0,0-.05-1.4-.37-2.05-.35-.74-1.08-1.4-1.56-1.8-1.27-1.05-2.54-1.98-4.69-3.2-30.93-17.49-51.27-26.5-51.27-26.5-1.31-.49-2.4-.66-3.42-.08Z" fill="none" stroke="#000" stroke-linecap="round" stroke-linejoin="round"/><path d="M227.9,338.37c3.3,2.18,9.31,5.04,15.4,8.34,14.14,7.65,32.01,16.96,40.9,20.61,1.2.5,1.92.74,2.75.78.62.03,1.64-.38,1.64-.38,0,0-1.66-59.84-1.76-63.26-.1-3.34-1.5-4.45-2.73-5.25-1.93-1.24-6.12-3.17-6.12-3.17,0,0-14.66-7.29-29.3-14.96-6.96-3.65-12.84-7.39-19.16-10.47-1.16-.55-2.53.14-2.53,1.44v64.84c0,.62.38,1.14.9,1.47Z" fill="none" stroke="#000" stroke-linecap="round" stroke-linejoin="round"/><path d="M345.36,338.84l-56.37,29.07c-.9.47-1.98-.19-1.98-1.21l.1-62.28c0-.6-.19-1.92-.37-2.44-.51-1.52.6-2.13,1.1-2.39l55.92-28.8c1.48-.76,3.26.32,3.26,1.98v63.38c0,1.12-.63,2.16-1.64,2.68Z" fill="none" stroke="#000" stroke-linecap="round" stroke-linejoin="round"/><path d="M320.14,285.71s-30.76,15.73-31.26,17.07c-.5,1.32,24.14-10.52,27.02-12,3.26-1.68,28.9-15.39,28.9-16.89.01-1.24-24.66,11.83-24.66,11.83Z" fill="none" stroke="#000" stroke-linecap="round" stroke-linejoin="round"/><path d="M326.95,279.09c-.54-.4-58.76-30.81-58.76-30.81l-18.06,9.34,59.69,30.78.03.03,17.47-8.95s-.03-.09-.13-.2c-.08-.07-.21-.16-.24-.2Z" fill="none" stroke="#000" stroke-linecap="round" stroke-linejoin="round"/><path d="M327.23,279.35c-9.89,4.87-17.41,9.04-17.41,9.04.25.25.26.57.26.74-.03,1.26-.05,2.26-.09,3.5-.15,6.45-.24,12.91-.46,19.36.73-.43,1.6.52,2.27,0,1.02-.8,3.19-4.34,3.51-4.45.43-.14.9-.03,1.34-.05,1.95-.11,6.32-4.09,7.25-4.27.9-.17,3.87.4,3.87.4,0,0-.21-19.68-.28-22.99-.02-1.17-.27-1.29-.27-1.29Z" fill="none" stroke="#000" stroke-linecap="round" stroke-linejoin="round"/><g id="uuid-2e3cbea7-a1c6-4e2d-b958-08eb69ec15b6"><path id="uuid-73cea92c-dce9-42b7-becf-1fb2e91ff12d" d="M343.55,320.43l-82.04,4.84,2.73,46.22,82.04-4.84-2.73-46.22Z" fill="#727272"/><rect id="uuid-0ec38d70-7277-483e-9e0f-c7e496c345d1" x="283.66" y="323.6" width="13.89" height="46.3" transform="translate(-19.91 17.71) rotate(-3.38)" fill="#acacac"/><rect id="uuid-b3e97a8d-2912-4274-9e2f-67330b8c8f67" x="298.21" y="354.15" width="48.61" height="5.79" transform="translate(-20.46 19.61) rotate(-3.38)" fill="#acacac"/><rect id="uuid-f61bdef6-e4ca-40df-8969-88b5eb2e54f6" x="296.78" y="329.88" width="48.61" height="5.79" transform="translate(-19.03 19.48) rotate(-3.38)" fill="#acacac"/><path id="uuid-2946ee3a-d841-45c5-8d7b-b9b466dc4f71" d="M357.44,364.75c4.5,1.38,9.52,2.02,14.77,1.71,18.14-1.07,32.19-12.96,31.39-26.57-.8-13.6-16.16-23.76-34.29-22.69-5.25.31-10.16,1.53-14.46,3.44l2.6,44.11Z" fill="#ccc"/><path id="uuid-8b906a6d-ddfc-425f-a04f-d34a2bc92c46" d="M349.46,322.24c-8.89,4.91-14.51,12.94-13.99,21.68.52,8.74,7.04,16.05,16.44,19.88l-2.45-41.56Z" fill="#ccc"/><ellipse id="uuid-b93824cd-1515-4899-b09e-ee27aeffc5ce" cx="367" cy="359" rx="6.01" ry="3.99" transform="translate(-20.34 22.04) rotate(-3.35)" fill="#333"/><ellipse id="uuid-62d7028a-dc8d-4457-ac96-5f6bfa1a8e77" cx="366" cy="342" rx="6.01" ry="3.99" transform="translate(-19.35 21.95) rotate(-3.35)" fill="#333"/><rect id="uuid-5a46e583-75f6-4110-bbc7-c6e9f37fab9d" x="329.23" y="367.67" width="12.34" height="26.32" transform="translate(-171.3 408.78) rotate(-51.79)" fill="#727272"/><rect id="uuid-e1925d5c-6ae1-493d-8636-f05c105d1d4a" x="320.3" y="363.47" width="26.32" height="12.34" transform="translate(-61.41 66.47) rotate(-10.43)" fill="#727272"/><rect id="uuid-234a5279-eb3f-43b1-9bf0-125fd5a4afdc" x="342.51" y="385.46" width="13.16" height="13.16" transform="translate(-175.85 392.57) rotate(-48.38)" fill="#ccc"/><circle id="uuid-4fbc66c6-c4c5-4cde-ae50-9cbcf58899a3" cx="306.5" cy="345.5" r="1.5" fill="#333"/><circle id="uuid-e9d07a94-c974-4dd0-a838-b47701608a4f" cx="313.5" cy="344.5" r="1.5" fill="#333"/><circle id="uuid-283b47c0-d2a1-4361-b2db-83b66af8b3a5" cx="320.5" cy="344.5" r="1.5" fill="#333"/><circle id="uuid-a8c7357f-68a8-4738-8b5a-1d7fdbc315d6" cx="328.5" cy="343.5" r="1.5" fill="#333"/><path d="M391.29,368.25c11.38-2.16,19.61-14.44,18.77-28.73s-10.47-25.52-22.02-26.33c-.96-4.74-2-7.55-2.94-7.49-2.21.13-3.07,15.98-1.93,35.4,1.15,19.42,3.86,35.06,6.07,34.93.94-.06,1.64-2.97,2.04-7.78Z" fill="#6a6a6a"/><rect id="uuid-8951df79-b6ec-4794-babd-0c11c29118f3" x="309.11" y="327.77" width="26.32" height="12.34" transform="translate(-130.56 232.36) rotate(-33.38)" fill="#727272"/><rect id="uuid-beeb7beb-f8df-44f1-bd08-59cb6b5b1008" x="297.85" y="344.76" width="26.32" height="12.34" transform="translate(-99.36 577.82) rotate(-77.39)" fill="#727272"/><rect id="uuid-c586160a-74bf-42d0-b253-78ad1419d400" x="300" y="361.62" width="13.16" height="13.16" transform="translate(-119.67 587) rotate(-77.39)" fill="#ccc"/><polygon id="uuid-fdd5913f-15e6-4c47-886e-9a85142d49ca" points="287.59 403.12 286.64 386.94 257.78 388.64 251.97 388.99 253.4 413.25 259.18 412.91 258.7 404.82 287.59 403.12" fill="#5f5f5f"/><rect id="uuid-8488b3ae-251c-424d-8ec1-13bf3b425d49" x="273.44" y="361.48" width="20.83" height="40.51" transform="translate(-168.1 233.3) rotate(-35.18)" fill="#727272"/><polygon id="uuid-6a47f5cc-867f-478d-8752-b03009f674b7" points="250.02 353.81 253.98 369.53 225.92 376.59 227.89 384.45 222.28 385.86 216.35 362.29 221.99 360.87 221.99 360.87 250.02 353.81" fill="#5f5f5f"/><rect id="uuid-142f1365-ca3f-4f5e-a1e4-e0075fdda7a2" x="237.85" y="337.57" width="40.51" height="20.83" transform="translate(-175.16 348.1) rotate(-53.45)" fill="#727272"/><path id="uuid-9102ecee-056a-44e5-bfed-f5e38b86735c" d="M343.55,320.43l-82.04,4.84,2.73,46.22,82.04-4.84-2.73-46.22Z" fill="none" stroke="#000" stroke-linecap="round" stroke-linejoin="round"/><rect id="uuid-3493f9c4-aeee-4c6c-96fd-7ed3ef703d53" x="283.66" y="323.6" width="13.89" height="46.3" transform="translate(-19.91 17.71) rotate(-3.38)" fill="none" stroke="#000" stroke-linecap="round" stroke-linejoin="round"/><rect id="uuid-4cc40f0c-b38a-4f65-a80a-290a4a4ca2ad" x="298.21" y="354.15" width="48.61" height="5.79" transform="translate(-20.46 19.61) rotate(-3.38)" fill="none" stroke="#000" stroke-linecap="round" stroke-linejoin="round"/><rect id="uuid-1211b506-b741-4772-bc15-3fca0ed5265b" x="296.78" y="329.88" width="48.61" height="5.79" transform="translate(-19.03 19.48) rotate(-3.38)" fill="none" stroke="#000" stroke-linecap="round" stroke-linejoin="round"/><path id="uuid-c4dc8160-b500-448b-8efe-82fb19917ff9" d="M357.44,364.75c4.5,1.38,9.52,2.02,14.77,1.71,18.14-1.07,32.19-12.96,31.39-26.57-.8-13.6-16.16-23.76-34.29-22.69-5.25.31-10.16,1.53-14.46,3.44l2.6,44.11Z" fill="none" stroke="#000" stroke-linecap="round" stroke-linejoin="round"/><path id="uuid-8011d11e-dbc6-466b-bdae-21b3d8bee8b6" d="M349.46,322.24c-8.89,4.91-14.51,12.94-13.99,21.68.52,8.74,7.04,16.05,16.44,19.88l-2.45-41.56Z" fill="none" stroke="#000" stroke-linecap="round" stroke-linejoin="round"/><ellipse id="uuid-1356c66e-e751-4c7e-895b-a9bd6441e37b" cx="367" cy="359" rx="6.01" ry="3.99" transform="translate(-20.34 22.04) rotate(-3.35)" fill="none" stroke="#000" stroke-linecap="round" stroke-linejoin="round"/><ellipse id="uuid-a843f604-5531-4095-975d-b91dcbb55352" cx="366" cy="342" rx="6.01" ry="3.99" transform="translate(-19.35 21.95) rotate(-3.35)" fill="none" stroke="#000" stroke-linecap="round" stroke-linejoin="round"/><rect id="uuid-af93bdea-6fa2-46d9-a4d4-05bdad1bdaff" x="329.23" y="367.67" width="12.34" height="26.32" transform="translate(-171.3 408.78) rotate(-51.79)" fill="none" stroke="#000" stroke-linecap="round" stroke-linejoin="round"/><rect id="uuid-8098b15f-ad5f-477d-9623-a3dd0537690b" x="320.3" y="363.47" width="26.32" height="12.34" transform="translate(-61.41 66.47) rotate(-10.43)" fill="none" stroke="#000" stroke-linecap="round" stroke-linejoin="round"/><rect id="uuid-67ba8a21-61a7-4523-863a-968bfb922987" x="342.51" y="385.46" width="13.16" height="13.16" transform="translate(-175.85 392.57) rotate(-48.38)" fill="none" stroke="#000" stroke-linecap="round" stroke-linejoin="round"/><circle id="uuid-111b9b7a-8218-44c1-abf1-eb08c3046248" cx="306.5" cy="345.5" r="1.5" fill="none" stroke="#000" stroke-linecap="round" stroke-linejoin="round"/><circle id="uuid-06981d4e-5e8a-4eed-b7a9-5c515f569b98" cx="313.5" cy="344.5" r="1.5" fill="none" stroke="#000" stroke-linecap="round" stroke-linejoin="round"/><circle id="uuid-87e0ad35-0c30-4cec-9e58-0ad4739af9aa" cx="320.5" cy="344.5" r="1.5" fill="none" stroke="#000" stroke-linecap="round" stroke-linejoin="round"/><circle id="uuid-8ecd4be9-8a29-4f03-93e5-60d5aecfc963" cx="328.5" cy="343.5" r="1.5" fill="none" stroke="#000" stroke-linecap="round" stroke-linejoin="round"/><path d="M391.29,368.25c11.38-2.16,19.61-14.44,18.77-28.73s-10.47-25.52-22.02-26.33c-.96-4.74-2-7.55-2.94-7.49-2.21.13-3.07,15.98-1.93,35.4,1.15,19.42,3.86,35.06,6.07,34.93.94-.06,1.64-2.97,2.04-7.78Z" fill="none" stroke="#000" stroke-linecap="round" stroke-linejoin="round"/><rect id="uuid-08ed6b97-287b-452d-910f-6303dde45dbb" x="309.11" y="327.77" width="26.32" height="12.34" transform="translate(-130.56 232.36) rotate(-33.38)" fill="none" stroke="#000" stroke-linecap="round" stroke-linejoin="round"/><rect id="uuid-2e6e7eff-73c4-4946-9464-48fc505740a6" x="297.85" y="344.76" width="26.32" height="12.34" transform="translate(-99.36 577.82) rotate(-77.39)" fill="none" stroke="#000" stroke-linecap="round" stroke-linejoin="round"/><rect id="uuid-b27810ec-ac24-4299-b604-933b3f8384cc" x="300" y="361.62" width="13.16" height="13.16" transform="translate(-119.67 587) rotate(-77.39)" fill="none" stroke="#000" stroke-linecap="round" stroke-linejoin="round"/><polygon id="uuid-0e279fef-695b-4d25-9ffa-4d17e51a60bd" points="287.59 403.12 286.64 386.94 257.78 388.64 251.97 388.99 253.4 413.25 259.18 412.91 258.7 404.82 287.59 403.12" fill="none" stroke="#000" stroke-linecap="round" stroke-linejoin="round"/><rect id="uuid-f7e307e8-93ee-4804-a0d6-a64bb8d2bf88" x="273.44" y="361.48" width="20.83" height="40.51" transform="translate(-168.1 233.3) rotate(-35.18)" fill="none" stroke="#000" stroke-linecap="round" stroke-linejoin="round"/><polygon id="uuid-0f7752be-8e82-45e1-b7a5-f056efa1c255" points="250.02 353.81 253.98 369.53 225.92 376.59 227.89 384.45 222.28 385.86 216.35 362.29 221.99 360.87 221.99 360.87 250.02 353.81" fill="none" stroke="#000" stroke-linecap="round" stroke-linejoin="round"/><rect id="uuid-54476d40-0807-4554-aafd-4875b31da29b" x="237.85" y="337.57" width="40.51" height="20.83" transform="translate(-175.16 348.1) rotate(-53.45)" fill="none" stroke="#000" stroke-linecap="round" stroke-linejoin="round"/></g><text transform="translate(197.25 129.79)" fill="#333" font-family="ComicNeue-Regular, &apos;Comic Neue&apos;" font-size="24"><tspan x="0" y="0">Driven by the constant </tspan><tspan x="0" y="28.8">fear of death and the </tspan><tspan x="0" y="57.6">inhumanity of warfare.</tspan></text><path d="M168.44,248.55l.11-1.81c.04-.7.48-1.35,1.14-1.57,1.33-.45,2.52.56,2.44,1.79l-.1,1.79c-.08,1.23-1.37,2.1-2.64,1.49-.63-.3-.99-.99-.95-1.69Z" fill="#434a54"/><path d="M173.16,250.41l-32.03-1.89c-.9-.06-1.6-.83-1.54-1.74.05-.9.83-1.59,1.74-1.54l32.03,1.89c.9.05,1.6.83,1.54,1.73-.05.91-.83,1.6-1.73,1.54Z" fill="#656d78"/><path d="M160.02,246.59l-3.55-5.02c-.3-.42-.77-.68-1.28-.71l-10.58-.62c-.29-.02-.57.04-.83.17l-8.66,4.38c-.77.39-1.12,1.32-.74,2.15.26.57.87.9,1.49.94l22.76,1.34h0c.9.05,1.67-.63,1.72-1.53.02-.41-.11-.79-.34-1.09Z" fill="#a85d5d"/><path d="M110.88,255.26c-.65-.04-1.25-.45-1.49-1.1l-1.91-5.2c-.32-.88.12-1.85,1-2.17s1.85.12,2.17,1l1.92,5.19c.32.88-.13,1.85-1,2.17-.22.08-.46.12-.68.1Z" fill="#ed5564"/><path d="M110.44,247.36c-.28-.47-.78-.77-1.33-.8l-5-.3c-.7-.04-1.34.35-1.63.99l-5.79,13.05c-.22.5-.18,1.08.1,1.55.29.47.78.77,1.33.8l5.01.29c.69.04,1.34-.35,1.63-.99l5.79-13.05c.22-.5.18-1.08-.1-1.55Z" fill="#965353"/><path d="M131.3,265.17c-3.21-3.68-5.16-7.55-5.66-11.19-.35-2.62.17-4.27.21-4.39.23-.59.11-1.24-.32-1.73-.3-.34-.75-.52-1.2-.54l-6.71-.4c-.91-.05-1.7.62-1.78,1.53-.04.46-.98,11.34,7.61,21.98.31.38.75.6,1.22.63.32.02.66-.06.95-.23l5.27-3.08c.43-.25.73-.69.82-1.19.08-.5-.07-1.01-.4-1.38Z" fill="#434a54"/><path d="M101.9,239.4c-.33-.34-.78-.53-1.26-.51l-4.83.12-7.56-2.09-.33-.05-15.48-.91c-.93-.06-1.73.65-1.78,1.59l-.8,13.49c-.03.52.18,1.02.56,1.36.29.26.65.4,1.02.43.13,0,.26,0,.39-.02l28.82-5.07c.77-.14,1.35-.78,1.39-1.56l.32-5.48c.03-.47-.14-.93-.47-1.27Z" fill="#a85d5d"/><path d="M138.34,251.6l-37.67-2.22c-.45-.03-.87-.23-1.16-.57s-.45-.78-.42-1.23l.4-6.81c.04-.64.43-1.2,1.02-1.45l3.48-1.5c.24-.1.51-.15.77-.14l39.88,2.36c.84.05,1.54.72,1.6,1.64.02.4-.13.8-.37,1.12l-6.07,8.14c-.34.46-.89.71-1.45.68Z" fill="#656d78"/><path d="M111.92,240.2l19.95,1.18c.92.05,1.71-.65,1.76-1.57l-23.28-1.37c-.06.92.65,1.71,1.56,1.76Z" fill="#434a54"/><path d="M168.44,248.55l.11-1.81c.04-.7.48-1.35,1.14-1.57,1.33-.45,2.52.56,2.44,1.79l-.1,1.79c-.08,1.23-1.37,2.1-2.64,1.49-.63-.3-.99-.99-.95-1.69Z" fill="none" stroke="#000" stroke-linecap="round" stroke-linejoin="round"/><path d="M173.16,250.41l-32.03-1.89c-.9-.06-1.6-.83-1.54-1.74.05-.9.83-1.59,1.74-1.54l32.03,1.89c.9.05,1.6.83,1.54,1.73-.05.91-.83,1.6-1.73,1.54Z" fill="none" stroke="#000" stroke-linecap="round" stroke-linejoin="round"/><path d="M160.02,246.59l-3.55-5.02c-.3-.42-.77-.68-1.28-.71l-10.58-.62c-.29-.02-.57.04-.83.17l-8.66,4.38c-.77.39-1.12,1.32-.74,2.15.26.57.87.9,1.49.94l22.76,1.34h0c.9.05,1.67-.63,1.72-1.53.02-.41-.11-.79-.34-1.09Z" fill="none" stroke="#000" stroke-linecap="round" stroke-linejoin="round"/><path d="M110.88,255.26c-.65-.04-1.25-.45-1.49-1.1l-1.91-5.2c-.32-.88.12-1.85,1-2.17s1.85.12,2.17,1l1.92,5.19c.32.88-.13,1.85-1,2.17-.22.08-.46.12-.68.1Z" fill="none" stroke="#000" stroke-linecap="round" stroke-linejoin="round"/><path d="M110.44,247.36c-.28-.47-.78-.77-1.33-.8l-5-.3c-.7-.04-1.34.35-1.63.99l-5.79,13.05c-.22.5-.18,1.08.1,1.55.29.47.78.77,1.33.8l5.01.29c.69.04,1.34-.35,1.63-.99l5.79-13.05c.22-.5.18-1.08-.1-1.55Z" fill="none" stroke="#000" stroke-linecap="round" stroke-linejoin="round"/><path d="M131.3,265.17c-3.21-3.68-5.16-7.55-5.66-11.19-.35-2.62.17-4.27.21-4.39.23-.59.11-1.24-.32-1.73-.3-.34-.75-.52-1.2-.54l-6.71-.4c-.91-.05-1.7.62-1.78,1.53-.04.46-.98,11.34,7.61,21.98.31.38.75.6,1.22.63.32.02.66-.06.95-.23l5.27-3.08c.43-.25.73-.69.82-1.19.08-.5-.07-1.01-.4-1.38Z" fill="none" stroke="#000" stroke-linecap="round" stroke-linejoin="round"/><path d="M101.9,239.4c-.33-.34-.78-.53-1.26-.51l-4.83.12-7.56-2.09-.33-.05-15.48-.91c-.93-.06-1.73.65-1.78,1.59l-.8,13.49c-.03.52.18,1.02.56,1.36.29.26.65.4,1.02.43.13,0,.26,0,.39-.02l28.82-5.07c.77-.14,1.35-.78,1.39-1.56l.32-5.48c.03-.47-.14-.93-.47-1.27Z" fill="none" stroke="#000" stroke-linecap="round" stroke-linejoin="round"/><path d="M138.34,251.6l-37.67-2.22c-.45-.03-.87-.23-1.16-.57s-.45-.78-.42-1.23l.4-6.81c.04-.64.43-1.2,1.02-1.45l3.48-1.5c.24-.1.51-.15.77-.14l39.88,2.36c.84.05,1.54.72,1.6,1.64.02.4-.13.8-.37,1.12l-6.07,8.14c-.34.46-.89.71-1.45.68Z" fill="none" stroke="#000" stroke-linecap="round" stroke-linejoin="round"/><path d="M111.92,240.2l19.95,1.18c.92.05,1.71-.65,1.76-1.57l-23.28-1.37c-.06.92.65,1.71,1.56,1.76Z" fill="none" stroke="#000" stroke-linecap="round" stroke-linejoin="round"/></svg>