<?xml version="1.0" encoding="UTF-8"?><svg id="uuid-11a5ae65-33e1-4cfd-a1c4-114fdec043b9" xmlns="http://www.w3.org/2000/svg" viewBox="0 0 500 500"><path d="M143,212.5c.611251-5.890938,4.007084-29.568522,31.011456-47.640549,11.988955-8.023321,24.500538-12.177445,32.988544-14.359451" fill="none" stroke="#333" stroke-miterlimit="10" stroke-width="2"/><text transform="translate(63 254.825562)" fill="#333" font-family="ComicNeue-Bold, &apos;Comic Neue&apos;" font-size="24" font-weight="700"><tspan x="0" y="0">There is nothing </tspan><tspan x="0" y="28.799805">I could do.</tspan></text><rect x="370" y="257" width="67" height="10" fill="#5b451f"/><rect x="377" y="262" width="12" height="62" fill="#5b451f"/><rect x="418" y="262" width="12" height="62" fill="#5b451f"/><rect x="370" y="257" width="67" height="10" fill="none" stroke="#000" stroke-linecap="round" stroke-linejoin="round"/><rect x="377" y="262" width="12" height="62" fill="none" stroke="#000" stroke-linecap="round" stroke-linejoin="round"/><rect x="418" y="262" width="12" height="62" fill="none" stroke="#000" stroke-linecap="round" stroke-linejoin="round"/><g id="uuid-9e7ccdec-dd3d-4af0-9a12-11eec87a6403"><polygon id="uuid-5c675bd2-3cf8-4c1e-8c85-8046637e0727" points="267.070009 281.397482 285.321527 280.246053 287.322721 311.967359 287.725722 318.3554 260.348404 320.082546 259.945403 313.694505 269.071204 313.118788 267.070009 281.397482" fill="#35353d"/><rect id="uuid-3955a16a-5de0-44ee-8574-d4cd73a6c981" x="259.12846" y="255.103701" width="36.099962" height="18.287815" transform="translate(-8.215537 519.600235) rotate(-85.452053)" fill="#35353d"/><polygon id="uuid-f6e1e1f5-602a-4ca0-8fca-ada253c7d7aa" points="319.947607 276.704078 301.932569 279.6743 307.165825 311.41513 297.729363 312.970963 298.860877 319.833845 326.312406 315.307786 325.245518 308.836877 325.24549 308.836882 319.947607 276.704078" fill="#35353d"/><rect id="uuid-2268d9a5-6182-4587-80ae-bb62714724b8" x="301.999985" y="246" width="18.000029" height="36.000001" fill="#35353d"/><polygon id="uuid-0cb6c841-892a-43bc-878b-967785fbb33c" points="286.427228 187.500269 286.404318 187 286.523808 187 293.103901 151.796402 288.306127 144 302.790338 144 297.992565 151.796402 304.572658 187 304.692147 187 304.669237 187.500269 304.692147 188 304.57489 188 295.548233 199.357555 286.521575 188 286.404318 188 286.427228 187.500269" fill="#da1f36"/><path id="uuid-2d18dfbe-4a62-445b-8b52-1274250cc414" d="M269.5,136.5v111s51,0,51,0v-111s-51,0-51,0ZM277.423971,137.5h36.248524s-18.124262,54.585547-18.124262,54.585547l-18.124262-54.585547Z" fill="#fff" stroke="#999" stroke-miterlimit="10"/><path id="uuid-fb70b992-c0e1-4297-a01b-f682852ef7fb" d="M270.58347,118.211052c-1.217038-5.091127-1.567938-10.701393-.851285-16.50745,2.474564-20.048017,16.669707-34.795655,31.705733-32.939731,15.036027,1.855925,25.2191,19.612611,22.744536,39.660628-.716652,5.806057-2.421208,11.162614-4.839672,15.805005l-48.759312-6.018452Z" fill="#eec6a2"/><path id="uuid-9a681a29-d862-47da-8f19-22f998f6b304" d="M318.540541,130c-4.869843,10.185497-13.41087,16.947049-23.141683,16.947049s-18.27184-6.761552-23.141683-16.947049h46.283366Z" fill="#eec6a2"/><ellipse id="uuid-36804dd9-2d53-48d8-b6a5-8be1098f4b45" cx="280.5" cy="108" rx="4.002739" ry="2.495383" transform="translate(159.223672 383.020549) rotate(-87.261909)" fill="#333"/><ellipse id="uuid-5c8be11b-5268-4298-bd36-da247564494a" cx="295.5" cy="109" rx="4.002739" ry="2.495383" transform="translate(172.508256 398.955653) rotate(-87.261909)" fill="#333"/><path id="uuid-42bbd5fc-fc24-4a7f-91b0-e5fbe4b5a5a4" d="M323.182031,77.792827c-7.721407-10.530823-25.593744-12.10914-34.445506-12.890836-11.083349-.978776-24.271684-.252659-24.964693,3.037969-.614112,2.916003,8.997486,5.882388,8.466886,10.404177-.385922,3.288864-5.820098,4.697514-5.359458,5.637862.977126,1.994716,24.63639-5.963035,28.921854-.749703,1.925377,2.342243-1.376155,5.741814.773223,7.474725,2.220569,1.790319,6.352951-1.347677,15.55871-2.399141,7.92275-.904922,11.589514.650935,13.317543-1.415894,2.298946-2.749664-1.762075-8.408406-2.268558-9.099158Z" fill="#534741"/><rect id="uuid-e8fee8a8-ca75-456c-8b47-f1b83e7e3f3d" x="250.290372" y="125.595946" width="13.715847" height="29.260522" transform="translate(55.914445 353.049074) rotate(-75.207422)" fill="#fff" stroke="#999" stroke-miterlimit="10"/><rect id="uuid-120d4775-b8e1-4f1c-a692-9f6fbd6a33d8" x="321.607413" y="135.114858" width="13.715847" height="29.260522" transform="translate(-26.84033 85.941032) rotate(-14.327524)" fill="#fff" stroke="#999" stroke-miterlimit="10"/><rect id="uuid-751a1778-ee1e-4de3-b891-38ec16a7afc2" x="327.563703" y="162.524759" width="13.715847" height="29.260522" transform="translate(-24.364549 56.763135) rotate(-9.362411)" fill="#fff" stroke="#999" stroke-miterlimit="10"/><rect id="uuid-79ddaadd-13cc-4f1c-b5c6-828f6b425e4b" x="330.500905" y="190.320233" width="14.630263" height="14.630263" transform="translate(-27.651047 57.58815) rotate(-9.362411)" fill="#eec6a2"/><rect id="uuid-e9010dcd-111a-48c7-b24a-d4b203929eb0" x="229.782319" y="113.275047" width="13.715847" height="29.260522" transform="translate(-23.293679 197.134844) rotate(-43.305139)" fill="#fff" stroke="#999" stroke-miterlimit="10"/><rect id="uuid-fad78543-fa05-49e3-9421-b0f1bdc3210f" x="215.972474" y="105.413421" width="14.630263" height="14.630263" transform="translate(-20.359361 169.308028) rotate(-39.860758)" fill="#eec6a2"/><polygon id="uuid-b245a019-1c7d-4c55-b1a8-b5478504dff3" points="267.070009 281.397482 285.321527 280.246053 287.322721 311.967359 287.725722 318.3554 260.348404 320.082546 259.945403 313.694505 269.071204 313.118788 267.070009 281.397482" fill="none" stroke="#000" stroke-linecap="round" stroke-linejoin="round"/><rect id="uuid-9c5ed784-e6da-4cec-9b01-0b7b6e5ecd4b" x="259.12846" y="255.103701" width="36.099962" height="18.287815" transform="translate(-8.215537 519.600235) rotate(-85.452053)" fill="none" stroke="#000" stroke-linecap="round" stroke-linejoin="round"/><polygon id="uuid-eeaef568-caa6-411d-bc0c-b21618ca2431" points="319.947607 276.704078 301.932569 279.6743 307.165825 311.41513 297.729363 312.970963 298.860877 319.833845 326.312406 315.307786 325.245518 308.836877 325.24549 308.836882 319.947607 276.704078" fill="none" stroke="#000" stroke-linecap="round" stroke-linejoin="round"/><rect id="uuid-5f3844e8-fc00-45eb-9b51-d74c2fa67567" x="301.999985" y="246" width="18.000029" height="36.000001" fill="none" stroke="#000" stroke-linecap="round" stroke-linejoin="round"/><polygon id="uuid-2c6702c6-554d-417a-88fe-d38c982c1689" points="286.427228 187.500269 286.404318 187 286.523808 187 293.103901 151.796402 288.306127 144 302.790338 144 297.992565 151.796402 304.572658 187 304.692147 187 304.669237 187.500269 304.692147 188 304.57489 188 295.548233 199.357555 286.521575 188 286.404318 188 286.427228 187.500269" fill="none" stroke="#000" stroke-linecap="round" stroke-linejoin="round"/><path id="uuid-35bffae7-405a-4ad4-a0d7-57c1effbe4b7" d="M269.5,136.5v111s51,0,51,0v-111s-51,0-51,0ZM277.423971,137.5h36.248524s-18.124262,54.585547-18.124262,54.585547l-18.124262-54.585547Z" fill="none" stroke="#000" stroke-linecap="round" stroke-linejoin="round"/><path id="uuid-8d376891-3ecf-46c3-9108-8e7519e49bf6" d="M270.58347,118.211052c-1.217038-5.091127-1.567938-10.701393-.851285-16.50745,2.474564-20.048017,16.669707-34.795655,31.705733-32.939731,15.036027,1.855925,25.2191,19.612611,22.744536,39.660628-.716652,5.806057-2.421208,11.162614-4.839672,15.805005l-48.759312-6.018452Z" fill="none" stroke="#000" stroke-linecap="round" stroke-linejoin="round"/><path id="uuid-e8a2e705-4c96-44ef-975c-ecccb082153f" d="M318.540541,130c-4.869843,10.185497-13.41087,16.947049-23.141683,16.947049s-18.27184-6.761552-23.141683-16.947049h46.283366Z" fill="none" stroke="#000" stroke-linecap="round" stroke-linejoin="round"/><ellipse id="uuid-39507ad1-12a2-48b4-9d02-07eb3ab128f9" cx="280.5" cy="108" rx="4.002739" ry="2.495383" transform="translate(159.223672 383.020549) rotate(-87.261909)" fill="none" stroke="#000" stroke-linecap="round" stroke-linejoin="round"/><ellipse id="uuid-7a337a5c-28cd-4f05-90cc-d9146e1632fa" cx="295.5" cy="109" rx="4.002739" ry="2.495383" transform="translate(172.508256 398.955653) rotate(-87.261909)" fill="none" stroke="#000" stroke-linecap="round" stroke-linejoin="round"/><path id="uuid-bf9bcb8d-5b05-44b8-b3d7-3148bcc0ca28" d="M323.182031,77.792827c-7.721407-10.530823-25.593744-12.10914-34.445506-12.890836-11.083349-.978776-24.271684-.252659-24.964693,3.037969-.614112,2.916003,8.997486,5.882388,8.466886,10.404177-.385922,3.288864-5.820098,4.697514-5.359458,5.637862.977126,1.994716,24.63639-5.963035,28.921854-.749703,1.925377,2.342243-1.376155,5.741814.773223,7.474725,2.220569,1.790319,6.352951-1.347677,15.55871-2.399141,7.92275-.904922,11.589514.650935,13.317543-1.415894,2.298946-2.749664-1.762075-8.408406-2.268558-9.099158Z" fill="none" stroke="#000" stroke-linecap="round" stroke-linejoin="round"/><rect id="uuid-134f153e-4187-4696-a62d-fb8ff4e0ef69" x="250.290372" y="125.595946" width="13.715847" height="29.260522" transform="translate(55.914445 353.049074) rotate(-75.207422)" fill="none" stroke="#000" stroke-linecap="round" stroke-linejoin="round"/><rect id="uuid-dda9c7ef-0a5a-420a-8216-eb29e7f30230" x="321.607413" y="135.114858" width="13.715847" height="29.260522" transform="translate(-26.84033 85.941032) rotate(-14.327524)" fill="none" stroke="#000" stroke-linecap="round" stroke-linejoin="round"/><rect id="uuid-17e1661e-edbc-4faa-b466-6d88d90e6d4d" x="327.563703" y="162.524759" width="13.715847" height="29.260522" transform="translate(-24.364549 56.763135) rotate(-9.362411)" fill="none" stroke="#000" stroke-linecap="round" stroke-linejoin="round"/><rect id="uuid-27b38678-2481-4340-9fd3-3f18632ef179" x="330.500905" y="190.320233" width="14.630263" height="14.630263" transform="translate(-27.651047 57.58815) rotate(-9.362411)" fill="none" stroke="#000" stroke-linecap="round" stroke-linejoin="round"/><rect id="uuid-2e599050-23cf-4b4f-a98e-c324115f628d" x="229.782319" y="113.275047" width="13.715847" height="29.260522" transform="translate(-23.293679 197.134844) rotate(-43.305139)" fill="none" stroke="#000" stroke-linecap="round" stroke-linejoin="round"/><rect id="uuid-ce7057fd-7eec-42ab-a9ee-e751c09bbc73" x="215.972474" y="105.413421" width="14.630263" height="14.630263" transform="translate(-20.359361 169.308028) rotate(-39.860758)" fill="none" stroke="#000" stroke-linecap="round" stroke-linejoin="round"/></g><text transform="translate(62.31958 393.066895)" fill="#333" font-family="ComicNeue-Regular, &apos;Comic Neue&apos;" font-size="24"><tspan x="0" y="0">But they were banned from making </tspan><tspan x="0" y="28.799805">diagnosis of psychological injuries.</tspan></text></svg>