<?xml version="1.0" encoding="UTF-8"?><svg id="uuid-82236cf0-2a59-4d14-8016-cdc809946f45" xmlns="http://www.w3.org/2000/svg" viewBox="0 0 500 500"><path d="M143,212.5c.61-5.89,4.01-29.57,31.01-47.64,11.99-8.02,24.5-12.18,32.99-14.36" fill="none" stroke="#333" stroke-miterlimit="10" stroke-width="2"/><text transform="translate(63 254.83)" fill="#333" font-family="ComicNeue-Bold, &apos;Comic Neue&apos;" font-size="24" font-weight="700"><tspan x="0" y="0">There is nothing </tspan><tspan x="0" y="28.8">I could do.</tspan></text><rect x="370" y="257" width="67" height="10" fill="#5b451f"/><rect x="377" y="262" width="12" height="62" fill="#5b451f"/><rect x="418" y="262" width="12" height="62" fill="#5b451f"/><rect x="370" y="257" width="67" height="10" fill="none" stroke="#000" stroke-linecap="round" stroke-linejoin="round"/><rect x="377" y="262" width="12" height="62" fill="none" stroke="#000" stroke-linecap="round" stroke-linejoin="round"/><rect x="418" y="262" width="12" height="62" fill="none" stroke="#000" stroke-linecap="round" stroke-linejoin="round"/><g id="uuid-d27c5ecf-c2e9-4d02-8f51-8cfbd4bbd993"><polygon id="uuid-38d1b5b3-59ea-449d-8566-2fb61ba946a8" points="267.07 281.4 285.32 280.25 287.32 311.97 287.73 318.36 260.35 320.08 259.95 313.69 269.07 313.12 267.07 281.4" fill="#35353d"/><rect id="uuid-dd31dc92-052c-4ece-99db-3eb181d090af" x="259.13" y="255.1" width="36.1" height="18.29" transform="translate(-8.22 519.6) rotate(-85.45)" fill="#35353d"/><polygon id="uuid-9c34a594-8eb0-4076-a37b-3f5316c2d00a" points="319.95 276.7 301.93 279.67 307.17 311.42 297.73 312.97 298.86 319.83 326.31 315.31 325.25 308.84 325.25 308.84 319.95 276.7" fill="#35353d"/><rect id="uuid-cb11ab4f-3bec-451a-8be8-791849ac9491" x="302" y="246" width="18" height="36" fill="#35353d"/><polygon id="uuid-3ce502ca-7291-4790-b1ef-184f9fdf5f77" points="286.43 187.5 286.4 187 286.52 187 293.1 151.8 288.31 144 302.79 144 297.99 151.8 304.57 187 304.69 187 304.67 187.5 304.69 188 304.57 188 295.55 199.36 286.52 188 286.4 188 286.43 187.5" fill="#da1f36"/><path id="uuid-23befbf3-13e5-4591-9567-df83e1c7988e" d="M269.5,136.5v111s51,0,51,0v-111s-51,0-51,0ZM277.42,137.5h36.25s-18.12,54.59-18.12,54.59l-18.12-54.59Z" fill="#fff" stroke="#999" stroke-miterlimit="10"/><path id="uuid-e4b40f3e-df0f-4086-bc5a-09d0f79bf2fe" d="M270.58,118.21c-1.22-5.09-1.57-10.7-.85-16.51,2.47-20.05,16.67-34.8,31.71-32.94,15.04,1.86,25.22,19.61,22.74,39.66-.72,5.81-2.42,11.16-4.84,15.81l-48.76-6.02Z" fill="#eec6a2"/><path id="uuid-629549f0-a60b-4316-b6be-6878e900900c" d="M318.54,130c-4.87,10.19-13.41,16.95-23.14,16.95s-18.27-6.76-23.14-16.95h46.28Z" fill="#eec6a2"/><ellipse id="uuid-da4b4707-e8a8-4951-ad8a-d5eb0f712234" cx="280.5" cy="108" rx="4" ry="2.5" transform="translate(159.22 383.02) rotate(-87.26)" fill="#333"/><ellipse id="uuid-af34fa3c-1619-44f8-b61d-434c4ea66ed5" cx="295.5" cy="109" rx="4" ry="2.5" transform="translate(172.51 398.96) rotate(-87.26)" fill="#333"/><path id="uuid-20879608-81a9-4c7f-8cc5-2c301f3529cd" d="M323.18,77.79c-7.72-10.53-25.59-12.11-34.45-12.89-11.08-.98-24.27-.25-24.96,3.04-.61,2.92,9,5.88,8.47,10.4-.39,3.29-5.82,4.7-5.36,5.64.98,1.99,24.64-5.96,28.92-.75,1.93,2.34-1.38,5.74.77,7.47,2.22,1.79,6.35-1.35,15.56-2.4,7.92-.9,11.59.65,13.32-1.42,2.3-2.75-1.76-8.41-2.27-9.1Z" fill="#534741"/><rect id="uuid-dc6a488e-cc36-4547-aa48-d92b46e1ebf1" x="250.29" y="125.6" width="13.72" height="29.26" transform="translate(55.91 353.05) rotate(-75.21)" fill="#fff" stroke="#999" stroke-miterlimit="10"/><rect id="uuid-a6693eb4-fba8-41ff-9e99-cd96daef4a3f" x="321.61" y="135.11" width="13.72" height="29.26" transform="translate(-26.84 85.94) rotate(-14.33)" fill="#fff" stroke="#999" stroke-miterlimit="10"/><rect id="uuid-c5d62278-9bcf-47b2-b4ef-096affe9ba15" x="327.56" y="162.52" width="13.72" height="29.26" transform="translate(-24.36 56.76) rotate(-9.36)" fill="#fff" stroke="#999" stroke-miterlimit="10"/><rect id="uuid-11decf58-7eab-4e63-82a2-032558da995d" x="330.5" y="190.32" width="14.63" height="14.63" transform="translate(-27.65 57.59) rotate(-9.36)" fill="#eec6a2"/><rect id="uuid-ae3534f9-e817-41b9-b94a-4d6e6da5398a" x="229.78" y="113.28" width="13.72" height="29.26" transform="translate(-23.29 197.13) rotate(-43.31)" fill="#fff" stroke="#999" stroke-miterlimit="10"/><rect id="uuid-0da12937-d5f4-45ea-b3f2-e2440fd1c03f" x="215.97" y="105.41" width="14.63" height="14.63" transform="translate(-20.36 169.31) rotate(-39.86)" fill="#eec6a2"/><polygon id="uuid-aea01579-8b8c-4462-ace5-315db63609b8" points="267.07 281.4 285.32 280.25 287.32 311.97 287.73 318.36 260.35 320.08 259.95 313.69 269.07 313.12 267.07 281.4" fill="none" stroke="#000" stroke-linecap="round" stroke-linejoin="round"/><rect id="uuid-4bb0994b-4135-46da-8617-5667e45495e1" x="259.13" y="255.1" width="36.1" height="18.29" transform="translate(-8.22 519.6) rotate(-85.45)" fill="none" stroke="#000" stroke-linecap="round" stroke-linejoin="round"/><polygon id="uuid-0f9813c8-4b67-47e8-aa39-242740280d20" points="319.95 276.7 301.93 279.67 307.17 311.42 297.73 312.97 298.86 319.83 326.31 315.31 325.25 308.84 325.25 308.84 319.95 276.7" fill="none" stroke="#000" stroke-linecap="round" stroke-linejoin="round"/><rect id="uuid-ba0ad24c-a4ab-4149-a1a4-6b4e55150870" x="302" y="246" width="18" height="36" fill="none" stroke="#000" stroke-linecap="round" stroke-linejoin="round"/><polygon id="uuid-ba02307d-cb6e-4ca0-8bc0-1e2c9c8fee78" points="286.43 187.5 286.4 187 286.52 187 293.1 151.8 288.31 144 302.79 144 297.99 151.8 304.57 187 304.69 187 304.67 187.5 304.69 188 304.57 188 295.55 199.36 286.52 188 286.4 188 286.43 187.5" fill="none" stroke="#000" stroke-linecap="round" stroke-linejoin="round"/><path id="uuid-12e31382-8dae-4ca5-9bb2-cf058cbe9adf" d="M269.5,136.5v111s51,0,51,0v-111s-51,0-51,0ZM277.42,137.5h36.25s-18.12,54.59-18.12,54.59l-18.12-54.59Z" fill="none" stroke="#000" stroke-linecap="round" stroke-linejoin="round"/><path id="uuid-894db5ca-1010-4a57-b012-13f5d69e70b0" d="M270.58,118.21c-1.22-5.09-1.57-10.7-.85-16.51,2.47-20.05,16.67-34.8,31.71-32.94,15.04,1.86,25.22,19.61,22.74,39.66-.72,5.81-2.42,11.16-4.84,15.81l-48.76-6.02Z" fill="none" stroke="#000" stroke-linecap="round" stroke-linejoin="round"/><path id="uuid-d2c88345-681c-43a0-9b07-8c6177db764e" d="M318.54,130c-4.87,10.19-13.41,16.95-23.14,16.95s-18.27-6.76-23.14-16.95h46.28Z" fill="none" stroke="#000" stroke-linecap="round" stroke-linejoin="round"/><ellipse id="uuid-221622c1-ec10-4bc4-b231-cf44e8cbfa35" cx="280.5" cy="108" rx="4" ry="2.5" transform="translate(159.22 383.02) rotate(-87.26)" fill="none" stroke="#000" stroke-linecap="round" stroke-linejoin="round"/><ellipse id="uuid-de7df5e5-ac24-4bd5-800e-b4d476e8e7d6" cx="295.5" cy="109" rx="4" ry="2.5" transform="translate(172.51 398.96) rotate(-87.26)" fill="none" stroke="#000" stroke-linecap="round" stroke-linejoin="round"/><path id="uuid-0dd647eb-445b-4c32-95f8-63209d0ec8c9" d="M323.18,77.79c-7.72-10.53-25.59-12.11-34.45-12.89-11.08-.98-24.27-.25-24.96,3.04-.61,2.92,9,5.88,8.47,10.4-.39,3.29-5.82,4.7-5.36,5.64.98,1.99,24.64-5.96,28.92-.75,1.93,2.34-1.38,5.74.77,7.47,2.22,1.79,6.35-1.35,15.56-2.4,7.92-.9,11.59.65,13.32-1.42,2.3-2.75-1.76-8.41-2.27-9.1Z" fill="none" stroke="#000" stroke-linecap="round" stroke-linejoin="round"/><rect id="uuid-ea7a34da-7a5f-458e-a6d1-4a49b45006ab" x="250.29" y="125.6" width="13.72" height="29.26" transform="translate(55.91 353.05) rotate(-75.21)" fill="none" stroke="#000" stroke-linecap="round" stroke-linejoin="round"/><rect id="uuid-a505c7e3-7f74-450c-ade7-9a4e47ea554e" x="321.61" y="135.11" width="13.72" height="29.26" transform="translate(-26.84 85.94) rotate(-14.33)" fill="none" stroke="#000" stroke-linecap="round" stroke-linejoin="round"/><rect id="uuid-323b2275-0aca-42c0-8fd0-f350f0d2e5ca" x="327.56" y="162.52" width="13.72" height="29.26" transform="translate(-24.36 56.76) rotate(-9.36)" fill="none" stroke="#000" stroke-linecap="round" stroke-linejoin="round"/><rect id="uuid-1a7d904c-27e6-4fb3-8b1b-0b4d121cc64d" x="330.5" y="190.32" width="14.63" height="14.63" transform="translate(-27.65 57.59) rotate(-9.36)" fill="none" stroke="#000" stroke-linecap="round" stroke-linejoin="round"/><rect id="uuid-dd01ba8f-1948-48dc-b907-7d91275d6e49" x="229.78" y="113.28" width="13.72" height="29.26" transform="translate(-23.29 197.13) rotate(-43.31)" fill="none" stroke="#000" stroke-linecap="round" stroke-linejoin="round"/><rect id="uuid-74ff1a78-a71b-4ee8-b57e-1f757993ac56" x="215.97" y="105.41" width="14.63" height="14.63" transform="translate(-20.36 169.31) rotate(-39.86)" fill="none" stroke="#000" stroke-linecap="round" stroke-linejoin="round"/></g><text transform="translate(62.32 393.07)" fill="#333" font-family="ComicNeue-Regular, &apos;Comic Neue&apos;" font-size="24"><tspan x="0" y="0">But they were banned from making </tspan><tspan x="0" y="28.8">diagnosis of psychological injuries.</tspan></text></svg>