<?xml version="1.0" encoding="UTF-8"?><svg id="uuid-c763012b-542b-4dd6-988f-f8fad98ed9f0" xmlns="http://www.w3.org/2000/svg" viewBox="0 0 500 500"><g id="uuid-a5886415-5c5f-47ba-be93-1dc323ac90f8"><polygon id="uuid-fbf3d98a-da4d-4f76-bd36-9ddf94b2d002" points="194 287 176 287 176 318.63 176 325 203 325 203 319 194 319 194 287" fill="#35353d"/><rect id="uuid-9c6a8f33-15f6-4340-b180-384d27e388f2" x="176" y="253" width="18" height="36" fill="#35353d"/><polygon id="uuid-a0d96b87-392a-4cff-82aa-379b6a42a0eb" points="143 286 161 286 161 318 171 318 171 325 143 325 143 318.46 143 318.46 143 286" fill="#35353d"/><rect id="uuid-56f3b111-b769-47bd-aebf-c382b609f687" x="143" y="252" width="18" height="36" fill="#35353d"/><polygon id="uuid-5d537dde-d12a-445e-91f2-58cd94985a1e" points="176.6 193.15 176.62 192 176.29 192 169.87 157.62 174.55 150 160.41 150 165.09 157.62 158.67 192 158.34 192 158.36 193.15 158.34 193 158.45 193 167.48 205.01 176.51 193 176.62 193 176.6 193.15" fill="#da1f36"/><path id="uuid-8cc905a4-d884-4757-bda5-8bd6dc5ad5dc" d="M193.5,142.5v111s-51,0-51,0v-111s51,0,51,0ZM185.6,143.5h-36.25s18.12,54.59,18.12,54.59l18.12-54.59Z" fill="#fff" stroke="#999" stroke-miterlimit="10"/><path id="uuid-55770668-cb40-4696-93e8-b90f506a5632" d="M191.95,128.92c1.7-4.95,2.58-10.5,2.42-16.35-.55-20.19-13.28-36.23-28.42-35.81s-26.97,17.12-26.42,37.31c.16,5.85,1.35,11.34,3.31,16.19l49.11-1.34Z" fill="#eec6a2"/><path id="uuid-4f944643-cd21-4d4f-8c89-a419d83e1d4f" d="M144.49,135c4.87,10.19,13.41,16.95,23.14,16.95s18.27-6.76,23.14-16.95h-46.28Z" fill="#eec6a2"/><ellipse id="uuid-cbb36303-30de-49e1-8f0f-dad9320524b6" cx="175.5" cy="119" rx="2.5" ry="4" transform="translate(-5.48 8.52) rotate(-2.74)" fill="#333"/><ellipse id="uuid-1e7f433b-1fe2-477e-bc8a-56725290df60" cx="160.5" cy="120" rx="2.5" ry="4" transform="translate(-5.55 7.8) rotate(-2.74)" fill="#333"/><path id="uuid-4f24cf8f-2841-4394-950c-3173c554c5e4" d="M143.45,83.67c8.69-9.75,26.63-9.61,35.52-9.55,11.13.08,24.19,2.06,24.56,5.4.33,2.96-9.52,5-9.42,9.55.07,3.31,5.35,5.23,4.8,6.12-1.16,1.89-23.96-8.28-28.72-3.5-2.14,2.15.82,5.85-1.48,7.37-2.38,1.57-6.2-1.95-15.26-3.87-7.8-1.66-11.6-.46-13.12-2.68-2.03-2.96,2.56-8.2,3.13-8.84Z" fill="#534741"/><rect id="uuid-3026cc1b-8003-4413-a5a2-2822b7e7f5c7" x="196.01" y="139.31" width="13.72" height="29.26" transform="translate(-42.21 84.75) rotate(-21.43)" fill="#fff" stroke="#999" stroke-miterlimit="10"/><rect id="uuid-b6afdad2-3faa-414b-beaa-941b8117e9c3" x="119.93" y="148.54" width="29.26" height="13.72" transform="translate(-49.3 247.32) rotate(-75.67)" fill="#fff" stroke="#999" stroke-miterlimit="10"/><rect id="uuid-ae02fd94-775b-468e-9e4e-7ecc20820dbf" x="113.98" y="175.95" width="29.26" height="13.72" transform="translate(-72.69 279.96) rotate(-80.64)" fill="#fff" stroke="#999" stroke-miterlimit="10"/><rect id="uuid-b73af5c5-a4ab-4e52-8ea2-0eb0f9fb37b0" x="117.9" y="195.97" width="14.63" height="14.63" transform="translate(-95.74 293.76) rotate(-80.64)" fill="#eec6a2"/><rect id="uuid-4d650910-9d01-4520-8dbb-db8856de4ec2" x="208.33" y="163.93" width="13.72" height="29.26" transform="translate(-60.83 133.8) rotate(-30.47)" fill="#fff" stroke="#999" stroke-miterlimit="10"/><rect id="uuid-9963eb7a-b448-4230-b841-c0498c7480ca" x="218.64" y="189.37" width="14.63" height="14.63" transform="translate(-65.02 125.46) rotate(-27.28)" fill="#eec6a2"/><polygon id="uuid-96756bbf-cb4c-48ac-bdbd-7528216ce5dc" points="194 287 176 287 176 318.63 176 325 203 325 203 319 194 319 194 287" fill="none" stroke="#000" stroke-linecap="round" stroke-linejoin="round"/><rect id="uuid-d22aace1-914b-4493-9b13-5f3b1d12b03e" x="176" y="253" width="18" height="36" fill="none" stroke="#000" stroke-linecap="round" stroke-linejoin="round"/><polygon id="uuid-33a2e804-ccc4-4c87-b154-5a219ac973e6" points="143 286 161 286 161 318 171 318 171 325 143 325 143 318.46 143 318.46 143 286" fill="none" stroke="#000" stroke-linecap="round" stroke-linejoin="round"/><rect id="uuid-0bdb3352-3089-495f-8648-cbd3319707f3" x="143" y="252" width="18" height="36" fill="none" stroke="#000" stroke-linecap="round" stroke-linejoin="round"/><polygon id="uuid-33fac5d0-7181-4435-bfd0-a249cdca9210" points="176.6 193.15 176.62 192 176.29 192 169.87 157.62 174.55 150 160.41 150 165.09 157.62 158.67 192 158.34 192 158.36 193.15 158.34 193 158.45 193 167.48 205.01 176.51 193 176.62 193 176.6 193.15" fill="none" stroke="#000" stroke-linecap="round" stroke-linejoin="round"/><path id="uuid-b4e97e85-b62c-479b-86c9-a1a14306b0f9" d="M193.5,142.5v111s-51,0-51,0v-111s51,0,51,0ZM185.6,143.5h-36.25s18.12,54.59,18.12,54.59l18.12-54.59Z" fill="none" stroke="#000" stroke-linecap="round" stroke-linejoin="round"/><path id="uuid-39731b7e-0f99-4772-bedb-1303e2351fd8" d="M191.95,128.92c1.7-4.95,2.58-10.5,2.42-16.35-.55-20.19-13.28-36.23-28.42-35.81s-26.97,17.12-26.42,37.31c.16,5.85,1.35,11.34,3.31,16.19l49.11-1.34Z" fill="none" stroke="#000" stroke-linecap="round" stroke-linejoin="round"/><path id="uuid-9c1496f1-e8ae-4f82-9676-634b1caad91b" d="M144.49,135c4.87,10.19,13.41,16.95,23.14,16.95s18.27-6.76,23.14-16.95h-46.28Z" fill="none" stroke="#000" stroke-linecap="round" stroke-linejoin="round"/><ellipse id="uuid-6e1786ad-96b6-4ec6-aeaa-6596c6a57b21" cx="175.5" cy="119" rx="2.5" ry="4" transform="translate(-5.48 8.52) rotate(-2.74)" fill="none" stroke="#000" stroke-linecap="round" stroke-linejoin="round"/><ellipse id="uuid-956bd9ea-3474-4f02-99fe-24f88e42c9a5" cx="160.5" cy="120" rx="2.5" ry="4" transform="translate(-5.55 7.8) rotate(-2.74)" fill="none" stroke="#000" stroke-linecap="round" stroke-linejoin="round"/><path id="uuid-93d20891-c79a-4644-b402-4b64e02544e0" d="M143.45,83.67c8.69-9.75,26.63-9.61,35.52-9.55,11.13.08,24.19,2.06,24.56,5.4.33,2.96-9.52,5-9.42,9.55.07,3.31,5.35,5.23,4.8,6.12-1.16,1.89-23.96-8.28-28.72-3.5-2.14,2.15.82,5.85-1.48,7.37-2.38,1.57-6.2-1.95-15.26-3.87-7.8-1.66-11.6-.46-13.12-2.68-2.03-2.96,2.56-8.2,3.13-8.84Z" fill="none" stroke="#000" stroke-linecap="round" stroke-linejoin="round"/><rect id="uuid-2d84e873-b478-4624-a32c-42bcda3a354c" x="196.01" y="139.31" width="13.72" height="29.26" transform="translate(-42.21 84.75) rotate(-21.43)" fill="none" stroke="#000" stroke-linecap="round" stroke-linejoin="round"/><rect id="uuid-7ed92343-9954-4fff-a2de-74eac0e1e4d5" x="119.93" y="148.54" width="29.26" height="13.72" transform="translate(-49.3 247.32) rotate(-75.67)" fill="none" stroke="#000" stroke-linecap="round" stroke-linejoin="round"/><rect id="uuid-81fe44ba-f380-475a-b7cb-2d2531ccba38" x="113.98" y="175.95" width="29.26" height="13.72" transform="translate(-72.69 279.96) rotate(-80.64)" fill="none" stroke="#000" stroke-linecap="round" stroke-linejoin="round"/><rect id="uuid-69288e0e-c823-4a9f-b6fd-d38ce716b241" x="117.9" y="195.97" width="14.63" height="14.63" transform="translate(-95.74 293.76) rotate(-80.64)" fill="none" stroke="#000" stroke-linecap="round" stroke-linejoin="round"/><rect id="uuid-9139ca13-4632-4a9f-93f9-a95c714aa48c" x="208.33" y="163.93" width="13.72" height="29.26" transform="translate(-60.83 133.8) rotate(-30.47)" fill="none" stroke="#000" stroke-linecap="round" stroke-linejoin="round"/><rect id="uuid-c756c0bf-2d6c-4bb4-b56d-961c7eef1633" x="218.64" y="189.37" width="14.63" height="14.63" transform="translate(-65.02 125.46) rotate(-27.28)" fill="none" stroke="#000" stroke-linecap="round" stroke-linejoin="round"/></g><polygon points="371.2 245 269.15 245 274.81 227 363.67 227 371.2 245" fill="#37474f"/><path d="M379.05,255.5l-10.94-26.69c-.6-1.68-2.19-2.81-3.97-2.81h-89.53c-1.78,0-3.38,1.13-3.97,2.81l-10.96,26.69c-.42,1.23.5,2.5,1.79,2.5h115.79c1.3,0,2.21-1.28,1.79-2.5ZM370.44,253h-102.15c-1.3,0-2.21-1.28-1.8-2.51l8.47-19.56c.42-1.16,1.52-1.93,2.75-1.93h83.32c1.23,0,2.33.77,2.75,1.93l8.47,19.56c.41,1.23-.52,2.51-1.82,2.51Z" fill="#82aec0"/><path d="M260,256.21v65.32c0,1.37,1.1,2.47,2.46,2.47h113.07c1.36,0,2.47-1.1,2.47-2.47v-65.53l-118,.21Z" fill="#37474f"/><path d="M362,256.01v-32.02l-2-1.67v-7.5c0-1.01-.82-1.82-1.82-1.82h-18.36c-1.01,0-1.82.82-1.82,1.82v3.94c0,1.79-1.45,3.24-3.24,3.24h-55.31c-1.35,0-2.45,1.1-2.45,2.45v31.55h85Z" fill="#f3ab47"/><path d="M360,222v-6.43c0-1.42-1.15-2.57-2.57-2.57h-16.86c-1.42,0-2.57,1.15-2.57,2.57v1.81c0,1.87-1.24,3.97-3.93,4.62h25.93Z" fill="#7cb342"/><rect x="277" y="227" width="85" height="5" fill="#de7340" isolation="isolate" opacity=".75"/><path d="M368,256v-23.21c0-1.54-1.24-2.79-2.79-2.79h-28.13c-2.81,0-5.08-2.3-5.08-5.13v-1.96c0-1.61-1.3-2.91-2.91-2.91h-19.18c-1.61,0-2.91,1.3-2.91,2.91v1.96c0,2.84-2.28,5.13-5.08,5.13h-28.13c-1.53,0-2.79,1.25-2.79,2.79v23.21h97Z" fill="#ffca28"/><path d="M332,224.87v-1.96c0-1.61-1.3-2.91-2.91-2.91h-19.18c-1.61,0-2.91,1.3-2.91,2.91v1.96c0,2.84-2.28,5.13-5.08,5.13h35.17c-2.81,0-5.09-2.3-5.09-5.13Z" fill="#0288d1"/><rect x="268" y="238" width="100" height="5" fill="#f3ab47"/><path d="M373,256.01v-12.94c0-1.7-1.37-3.07-3.07-3.07h-68.22c-3.15,0-5.71-2.56-5.71-5.71v-2.08c0-1.77-1.44-3.21-3.21-3.21h-21.58c-1.77,0-3.21,1.44-3.21,3.21v7.91c-1.11,0-2,.93-2,2.08v13.8h107Z" fill="#ffe36c"/><path d="M296,234.35v-2.14c0-1.77-1.44-3.21-3.21-3.21h-21.58c-1.77,0-3.21,1.44-3.21,3.21v7.79h33.7c-3.15,0-5.7-2.52-5.7-5.65Z" fill="#f44336"/><path d="M372.9,251.46c.25,2.3-.61,2.54-1.92,2.54h-103.22c-1.31,0-2.22.1-1.92-2.32l-3.96.13-1.52,3.71c-.41,1.21.49,2.48,1.77,2.48h114.49c1.28,0,2.19-1.26,1.77-2.48l-1.75-4.3-3.73.24Z" fill="#82aec0"/><polygon points="371.2 245 269.15 245 274.81 227 363.67 227 371.2 245" fill="none" stroke="#000" stroke-linecap="round" stroke-linejoin="round"/><path d="M379.05,255.5l-10.94-26.69c-.6-1.68-2.19-2.81-3.97-2.81h-89.53c-1.78,0-3.38,1.13-3.97,2.81l-10.96,26.69c-.42,1.23.5,2.5,1.79,2.5h115.79c1.3,0,2.21-1.28,1.79-2.5ZM370.44,253h-102.15c-1.3,0-2.21-1.28-1.8-2.51l8.47-19.56c.42-1.16,1.52-1.93,2.75-1.93h83.32c1.23,0,2.33.77,2.75,1.93l8.47,19.56c.41,1.23-.52,2.51-1.82,2.51Z" fill="none" stroke="#000" stroke-linecap="round" stroke-linejoin="round"/><path d="M260,256.21v65.32c0,1.37,1.1,2.47,2.46,2.47h113.07c1.36,0,2.47-1.1,2.47-2.47v-65.53l-118,.21Z" fill="none" stroke="#000" stroke-linecap="round" stroke-linejoin="round"/><path d="M362,256.01v-32.02l-2-1.67v-7.5c0-1.01-.82-1.82-1.82-1.82h-18.36c-1.01,0-1.82.82-1.82,1.82v3.94c0,1.79-1.45,3.24-3.24,3.24h-55.31c-1.35,0-2.45,1.1-2.45,2.45v31.55h85Z" fill="none" stroke="#000" stroke-linecap="round" stroke-linejoin="round"/><path d="M360,222v-6.43c0-1.42-1.15-2.57-2.57-2.57h-16.86c-1.42,0-2.57,1.15-2.57,2.57v1.81c0,1.87-1.24,3.97-3.93,4.62h25.93Z" fill="none" stroke="#000" stroke-linecap="round" stroke-linejoin="round"/><rect x="277" y="227" width="85" height="5" fill="none" stroke="#000" stroke-linecap="round" stroke-linejoin="round"/><path d="M368,256v-23.21c0-1.54-1.24-2.79-2.79-2.79h-28.13c-2.81,0-5.08-2.3-5.08-5.13v-1.96c0-1.61-1.3-2.91-2.91-2.91h-19.18c-1.61,0-2.91,1.3-2.91,2.91v1.96c0,2.84-2.28,5.13-5.08,5.13h-28.13c-1.53,0-2.79,1.25-2.79,2.79v23.21h97Z" fill="none" stroke="#000" stroke-linecap="round" stroke-linejoin="round"/><path d="M332,224.87v-1.96c0-1.61-1.3-2.91-2.91-2.91h-19.18c-1.61,0-2.91,1.3-2.91,2.91v1.96c0,2.84-2.28,5.13-5.08,5.13h35.17c-2.81,0-5.09-2.3-5.09-5.13Z" fill="none" stroke="#000" stroke-linecap="round" stroke-linejoin="round"/><rect x="268" y="238" width="100" height="5" fill="none" stroke="#000" stroke-linecap="round" stroke-linejoin="round"/><path d="M373,256.01v-12.94c0-1.7-1.37-3.07-3.07-3.07h-68.22c-3.15,0-5.71-2.56-5.71-5.71v-2.08c0-1.77-1.44-3.21-3.21-3.21h-21.58c-1.77,0-3.21,1.44-3.21,3.21v7.91c-1.11,0-2,.93-2,2.08v13.8h107Z" fill="none" stroke="#000" stroke-linecap="round" stroke-linejoin="round"/><path d="M296,234.35v-2.14c0-1.77-1.44-3.21-3.21-3.21h-21.58c-1.77,0-3.21,1.44-3.21,3.21v7.79h33.7c-3.15,0-5.7-2.52-5.7-5.65Z" fill="none" stroke="#000" stroke-linecap="round" stroke-linejoin="round"/><path d="M372.9,251.46c.25,2.3-.61,2.54-1.92,2.54h-103.22c-1.31,0-2.22.1-1.92-2.32l-3.96.13-1.52,3.71c-.41,1.21.49,2.48,1.77,2.48h114.49c1.28,0,2.19-1.26,1.77-2.48l-1.75-4.3-3.73.24Z" fill="none" stroke="#000" stroke-linecap="round" stroke-linejoin="round"/><path d="M331.01,292h0c-.03-.69-.79-1.34-2.09-1.72-2.79-.81-5.88-1.29-9.41-1.32-3.52.03-6.62.5-9.41,1.32-1.3.38-2.05,1.03-2.09,1.72h0v.09h0v14.02c-.03.79.88,1.63,2.98,2.21,2.17.6,5.11.98,8.52.98s6.35-.39,8.52-.98c2.2-.61,3.09-1.5,2.96-2.32h.01v-14h0Z" fill="#e2a610"/><path d="M321.65,305.15l-1.3-3.07c.89-.43,1.45-1.43,1.19-2.53-.18-.77-.79-1.41-1.56-1.62-1.49-.39-2.83.72-2.83,2.14,0,.83.45,1.55,1.12,1.93l-1.21,3.16c-.15.4.14.83.57.83h3.46c.44,0,.73-.45.56-.85Z" fill="#4e342e"/><path d="M321.53,305h-4.35l-.12.43c-.15.4.14.83.57.57h3.46c.44.26.73-.19.56-.59l-.12-.41Z" fill="#9e740b"/><path d="M318.48,301.69c.05-.15,0-.31-.13-.41-.17-.13-.41-.35-.56-.71-.54-1.3.1-1.88.1-1.88-.45.41-.74.99-.74,1.65,0,.83.45,1.55,1.12,1.93l.2-.59Z" fill="#9e740b"/><path d="M320.95,298.76s.64,1.28-.09,2.1c-.25.28-.46.43-.62.5-.15.07-.22.26-.15.41l.27.57c.74-.36,1.26-1.12,1.26-2,0-.94-.66-1.58-.66-1.58Z" fill="#9e740b"/><path d="M328.28,290.25c-2.64-.77-5.57-1.22-8.92-1.24-3.34.03-6.27.48-8.92,1.24-2.65.77-2.91,2.69.84,3.71,2.06.56,4.84.93,8.08.93s6.02-.36,8.08-.93c3.75-1.02,3.49-2.94.84-3.71Z" fill="#fdd835"/><path d="M327.25,292s-.11.5-1.53.5-1.72-.5-1.72-.5v-6.4c0-2.91-2.24-5.27-5-5.27s-5,2.36-5,5.27v6.48s-.57.47-1.61.47-1.39-.47-1.39-.47v-6.48c0-4.68,3.59-8.49,8-8.49s8,3.81,8,8.49v6.4h.25Z" fill="#84b0c1" stroke="#84b0c1" stroke-miterlimit="10" stroke-width="1.96"/><path d="M315.68,280.27c-1.49.89-1.72,1.49-2.13,1.76-.31.2-.72.04-.45-.66.23-.6.78-1.75,2.15-2.62,2.37-1.51,4.41-1.44,4.3-.29-.09,1.02-2.28.87-3.87,1.81Z" fill="#b9e4ea"/><path d="M331.01,292h0c-.03-.69-.79-1.34-2.09-1.72-2.79-.81-5.88-1.29-9.41-1.32-3.52.03-6.62.5-9.41,1.32-1.3.38-2.05,1.03-2.09,1.72h0v.09h0v14.02c-.03.79.88,1.63,2.98,2.21,2.17.6,5.11.98,8.52.98s6.35-.39,8.52-.98c2.2-.61,3.09-1.5,2.96-2.32h.01v-14h0Z" fill="none" stroke="#000" stroke-linecap="round" stroke-linejoin="round"/><line x1="308" y1="292" x2="331" y2="292" fill="none" stroke="#000" stroke-linecap="round" stroke-linejoin="round"/><path d="M321.65,305.15l-1.3-3.07c.89-.43,1.45-1.43,1.19-2.53-.18-.77-.79-1.41-1.56-1.62-1.49-.39-2.83.72-2.83,2.14,0,.83.45,1.55,1.12,1.93l-1.21,3.16c-.15.4.14.83.57.83h3.46c.44,0,.73-.45.56-.85Z" fill="none" stroke="#000" stroke-linecap="round" stroke-linejoin="round"/><path d="M321.53,305h-4.35l-.12.43c-.15.4.14.83.57.57h3.46c.44.26.73-.19.56-.59l-.12-.41Z" fill="none" stroke="#000" stroke-linecap="round" stroke-linejoin="round"/><path d="M318.48,301.69c.05-.15,0-.31-.13-.41-.17-.13-.41-.35-.56-.71-.54-1.3.1-1.88.1-1.88-.45.41-.74.99-.74,1.65,0,.83.45,1.55,1.12,1.93l.2-.59Z" fill="none" stroke="#000" stroke-linecap="round" stroke-linejoin="round"/><path d="M320.95,298.76s.64,1.28-.09,2.1c-.25.28-.46.43-.62.5-.15.07-.22.26-.15.41l.27.57c.74-.36,1.26-1.12,1.26-2,0-.94-.66-1.58-.66-1.58Z" fill="none" stroke="#000" stroke-linecap="round" stroke-linejoin="round"/><path d="M328.28,290.25c-2.64-.77-5.57-1.22-8.92-1.24-3.34.03-6.27.48-8.92,1.24-2.65.77-2.91,2.69.84,3.71,2.06.56,4.84.93,8.08.93s6.02-.36,8.08-.93c3.75-1.02,3.49-2.94.84-3.71Z" fill="none" stroke="#000" stroke-linecap="round" stroke-linejoin="round"/><path d="M327.25,292s-.11.5-1.53.5-1.72-.5-1.72-.5v-6.4c0-2.91-2.24-5.27-5-5.27s-5,2.36-5,5.27v6.48s-.57.47-1.61.47-1.39-.47-1.39-.47v-6.48c0-4.68,3.59-8.49,8-8.49s8,3.81,8,8.49v6.4h.25Z" fill="none" stroke="#000" stroke-linecap="round" stroke-linejoin="round"/><path d="M315.68,280.27c-1.49.89-1.72,1.49-2.13,1.76-.31.2-.72.04-.45-.66.23-.6.78-1.75,2.15-2.62,2.37-1.51,4.41-1.44,4.3-.29-.09,1.02-2.28.87-3.87,1.81Z" fill="none" stroke="#000" stroke-linecap="round" stroke-linejoin="round"/><path d="M420.48,353.11l-27.72,12.53c-1.71.81-3.49.73-5.13-.22l-34.99-17.77c-1-.64-1.3-1.58-1.24-2.24.06-.65.21-1.36,1.97-1.87l2.59-.96,35.1,19.13,24.94-10.19,4.47,1.58Z" fill="#01579b"/><path d="M392.43,363.64c-1.41.66-3.05.6-4.4-.16l-34.16-17.21c-.48-.27-.63-.88-.34-1.35.75-1.24,2.13-5.17-.15-8.43l38.58,18.57.47,8.57Z" fill="#f5f5f5"/><path d="M419,351.69s-26.56,11.94-26.57,11.94c-.88.38-2.63,1.06-4.65-.3,1.59.12,2.71-.55,3.29-1.62.56-1.04.39-2.75-.29-3.71-.42-.58-1.54-1.51-2.03-2.03l28.74-11.24c2.55-1.05,4.93.52,5.31,2.43.42,2.16-2.33,3.92-3.81,4.53Z" fill="#94c6d6"/><path d="M420.33,343.8l-27.43,12.24c-1.73.68-3.66.59-5.31-.24l-35.05-17.8c-.34-.17-.84-.64-1.04-1.27-.33-1.06.08-2.39,1.33-2.82l37.98,19.36,26.01-11.13,3.52,1.67Z" fill="#01579b"/><path d="M422.4,345.58l-2.99-1.08-6.16.36-20.35,9.08c-1.73.68-3.66.59-5.31-.24l-35.05-17.8c-.9-.46-.71-1.8.28-1.99l25.26-11.3c.72-.13,1.46-.05,2.13.23l36.05,17.19s5.73,3.92,6.13,5.56Z" fill="#0091ea"/><path d="M412.91,345.03s3.79-1.48,6.77-1.35c2.98.13,4.02,2.22,4.02,2.22-.56-2.56-3.21-3.87-3.21-3.87l-39.39-19.83c-.27-.12-1.28-.35-2.82.28-1.25.52-5.33,2.42-5.33,2.42l39.96,20.12Z" fill="#616161"/><path d="M423.87,346.39c-.28-1.13-.99-2.35-2.28-2.93-1.71-.77-4.14-.57-5.7.24l-3.88,1.32v2.1l4.67-1.67c3.66-1.63,5.28.81,5.42,1.39.58,2.35-.55,3.7-3.87,5.23l-5.22,2.44v2.11l6.03-2.77c2.75-1.1,5.89-3.18,4.84-7.45Z" fill="#424242"/><polygon points="368.96 345.83 358.5 331.37 360.14 330.64 371.91 346.82 368.96 345.83" fill="#01579b"/><polygon points="382.48 352.5 380.61 351.02 413 344.41 413 345.47 408.46 347.19 382.48 352.5" fill="#01579b"/><path d="M357.93,319.09l40.91-6.84,17.87,19.68c.9.95.41,2.53-.87,2.79l-42.24,8.67-15.67-24.29Z" fill="#9ccc65"/><path d="M415.83,333.02l-41.94,8.5-.13,2,42.08-8.63c1.19-.25,1.68-1.61,1.04-2.56-.23.34-.58.61-1.04.7Z" fill="#689f38"/><path d="M418.09,342.19c.44.7.04,1.63-.77,1.79l-38.61,7.83c-2.32.48-4.6-1.04-4.81-3.41h0c-.18-2,1.18-3.81,3.14-4.22l37.13-8.34,3.91,6.34Z" fill="#689f38"/><path d="M382.64,339.65l-15.38-22.01-8.77,2.32c-2.03,2.02-1.27,5.33-1.27,5.33,0,0,13.43,21.56,15.55,24.32s5.22,2.33,5.22,2.33l5.23-1.05-.55-9.76-.03-1.48Z" fill="#616161"/><path d="M382.64,339.79l-7.39,1.53c-2.02.45-2.38,2.35-2.38,2.35l-17.83-25.55s-2.54,3.07-.85,5.68l18.58,25.81c2.03,2.89,5.22,2.35,5.22,2.35l5.23-1.05-.54-9.56-.04-1.55Z" fill="#424242"/><path d="M415.77,341.41c.19.41-.05.89-.5.98l-36.92,7.57c-2.32.48-3.96-1.06-3.88-3.16.11-2.65,1.59-3.77,3.56-4.18l37.1-7.58s-1.26,1.42-.3,4.07c.33.91.68,1.73.93,2.28Z" fill="#b9e4ea"/><line x1="376.35" y1="341.83" x2="360.53" y2="319.45" fill="none" stroke="#424242" stroke-miterlimit="10" stroke-width="2.07"/><polygon points="377.6 332.29 357.25 322.03 356.42 323.66 379.94 335.64 377.6 332.29" fill="#424242"/><polygon points="414.88 329.91 413.39 328.27 390.47 338.79 377.6 332.42 379.79 335.56 388.32 339.92 394.67 338.94 414.88 329.91" fill="#689f38"/><path d="M420.47,325.86l-27.71,12.53c-1.71.81-3.49.73-5.13-.22l-34.99-17.77c-1-.64-1.3-1.58-1.24-2.24.06-.65.21-1.36,1.97-1.87l1.64-.61,35.95,17.64,29.19-12.08.32,4.61Z" fill="#c62828"/><path d="M392.42,336.39c-1.41.66-3.05.6-4.4-.16l-34.16-17.21c-.48-.27-.63-.88-.34-1.35.75-1.24,2.13-5.17-.15-8.43l37.71,19.18,1.33,7.96Z" fill="#f5f5f5"/><path d="M419,324.44s-26.56,11.94-26.57,11.94c-.88.38-2.63,1.06-4.65-.3,1.59.12,2.71-.55,3.29-1.62.56-1.04.39-2.75-.29-3.71-.42-.58-1.54-1.51-2.03-2.03l28.74-11.24c2.55-1.05,4.93.52,5.31,2.43.42,2.16-2.33,3.92-3.81,4.53Z" fill="#94c6d6"/><path d="M420.33,316.55l-27.43,12.24c-1.73.68-3.66.59-5.31-.24l-35.05-17.8c-.36-.18-.91-.65-1.08-1.31-.26-.98.08-2.27,1.37-2.78l32.12-6.8,35.39,16.7Z" fill="#c62828"/><path d="M422.39,318.33l-2.99-1.08-6.16.36-20.35,9.08c-1.73.68-3.66.59-5.31-.24l-35.05-17.8c-.9-.46-.58-1.68.28-1.99l25.27-11.3c.72-.13,1.46-.05,2.13.23l36.05,17.19s5.72,3.91,6.13,5.56Z" fill="#f44336"/><path d="M412.91,317.77s3.16-1.11,6.14-.98,4.66,1.85,4.66,1.85c-.61-2.74-3.21-3.87-3.21-3.87l-39.39-19.83c-.27-.12-1.28-.35-2.82.28-1.25.52-5.33,2.42-5.33,2.42l39.95,20.12Z" fill="#616161"/><polygon points="416.51 316.48 376.21 296.15 377.54 295.55 418.53 316.09 416.51 316.48" fill="#424242"/><path d="M423.86,319.14c-.28-1.13-.76-2.23-2.11-2.8-1.73-.73-3.3-.88-5.87.11l-3.88,1.32v2.1l4.66-1.67c1.91-.9,4.72-.7,5.42,1.39.77,2.29-.55,3.7-3.87,5.23l-5.21,2.44v2.11l6.03-2.77c2.76-1.1,5.9-3.18,4.84-7.45Z" fill="#424242"/><path d="M420.48,353.11l-27.72,12.53c-1.71.81-3.49.73-5.13-.22l-34.99-17.77c-1-.64-1.3-1.58-1.24-2.24.06-.65.21-1.36,1.97-1.87l2.59-.96,35.1,19.13,24.94-10.19,4.47,1.58Z" fill="none" stroke="#000" stroke-linecap="round" stroke-linejoin="round"/><path d="M392.43,363.64c-1.41.66-3.05.6-4.4-.16l-34.16-17.21c-.48-.27-.63-.88-.34-1.35.75-1.24,2.13-5.17-.15-8.43l38.58,18.57.47,8.57Z" fill="none" stroke="#000" stroke-linecap="round" stroke-linejoin="round"/><path d="M419,351.69s-26.56,11.94-26.57,11.94c-.88.38-2.63,1.06-4.65-.3,1.59.12,2.71-.55,3.29-1.62.56-1.04.39-2.75-.29-3.71-.42-.58-1.54-1.51-2.03-2.03l28.74-11.24c2.55-1.05,4.93.52,5.31,2.43.42,2.16-2.33,3.92-3.81,4.53Z" fill="none" stroke="#000" stroke-linecap="round" stroke-linejoin="round"/><path d="M420.33,343.8l-27.43,12.24c-1.73.68-3.66.59-5.31-.24l-35.05-17.8c-.34-.17-.84-.64-1.04-1.27-.33-1.06.08-2.39,1.33-2.82l37.98,19.36,26.01-11.13,3.52,1.67Z" fill="none" stroke="#000" stroke-linecap="round" stroke-linejoin="round"/><path d="M422.4,345.58l-2.99-1.08-6.16.36-20.35,9.08c-1.73.68-3.66.59-5.31-.24l-35.05-17.8c-.9-.46-.71-1.8.28-1.99l25.26-11.3c.72-.13,1.46-.05,2.13.23l36.05,17.19s5.73,3.92,6.13,5.56Z" fill="none" stroke="#000" stroke-linecap="round" stroke-linejoin="round"/><path d="M412.91,345.03s3.79-1.48,6.77-1.35c2.98.13,4.02,2.22,4.02,2.22-.56-2.56-3.21-3.87-3.21-3.87l-39.39-19.83c-.27-.12-1.28-.35-2.82.28-1.25.52-5.33,2.42-5.33,2.42l39.96,20.12Z" fill="none" stroke="#000" stroke-linecap="round" stroke-linejoin="round"/><path d="M423.87,346.39c-.28-1.13-.99-2.35-2.28-2.93-1.71-.77-4.14-.57-5.7.24l-3.88,1.32v2.1l4.67-1.67c3.66-1.63,5.28.81,5.42,1.39.58,2.35-.55,3.7-3.87,5.23l-5.22,2.44v2.11l6.03-2.77c2.75-1.1,5.89-3.18,4.84-7.45Z" fill="none" stroke="#000" stroke-linecap="round" stroke-linejoin="round"/><polygon points="368.96 345.83 358.5 331.37 360.14 330.64 371.91 346.82 368.96 345.83" fill="none" stroke="#000" stroke-linecap="round" stroke-linejoin="round"/><polygon points="382.48 352.5 380.61 351.02 413 344.41 413 345.47 408.46 347.19 382.48 352.5" fill="none" stroke="#000" stroke-linecap="round" stroke-linejoin="round"/><path d="M357.93,319.09l40.91-6.84,17.87,19.68c.9.95.41,2.53-.87,2.79l-42.24,8.67-15.67-24.29Z" fill="none" stroke="#000" stroke-linecap="round" stroke-linejoin="round"/><path d="M415.83,333.02l-41.94,8.5-.13,2,42.08-8.63c1.19-.25,1.68-1.61,1.04-2.56-.23.34-.58.61-1.04.7Z" fill="none" stroke="#000" stroke-linecap="round" stroke-linejoin="round"/><path d="M418.09,342.19c.44.7.04,1.63-.77,1.79l-38.61,7.83c-2.32.48-4.6-1.04-4.81-3.41h0c-.18-2,1.18-3.81,3.14-4.22l37.13-8.34,3.91,6.34Z" fill="none" stroke="#000" stroke-linecap="round" stroke-linejoin="round"/><path d="M382.64,339.65l-15.38-22.01-8.77,2.32c-2.03,2.02-1.27,5.33-1.27,5.33,0,0,13.43,21.56,15.55,24.32s5.22,2.33,5.22,2.33l5.23-1.05-.55-9.76-.03-1.48Z" fill="none" stroke="#000" stroke-linecap="round" stroke-linejoin="round"/><path d="M382.64,339.79l-7.39,1.53c-2.02.45-2.38,2.35-2.38,2.35l-17.83-25.55s-2.54,3.07-.85,5.68l18.58,25.81c2.03,2.89,5.22,2.35,5.22,2.35l5.23-1.05-.54-9.56-.04-1.55Z" fill="none" stroke="#000" stroke-linecap="round" stroke-linejoin="round"/><path d="M415.77,341.41c.19.41-.05.89-.5.98l-36.92,7.57c-2.32.48-3.96-1.06-3.88-3.16.11-2.65,1.59-3.77,3.56-4.18l37.1-7.58s-1.26,1.42-.3,4.07c.33.91.68,1.73.93,2.28Z" fill="none" stroke="#000" stroke-linecap="round" stroke-linejoin="round"/><line x1="376.35" y1="341.83" x2="360.53" y2="319.45" fill="none" stroke="#000" stroke-linecap="round" stroke-linejoin="round"/><polygon points="377.6 332.29 357.25 322.03 356.42 323.66 379.94 335.64 377.6 332.29" fill="none" stroke="#000" stroke-linecap="round" stroke-linejoin="round"/><polygon points="414.88 329.91 413.39 328.27 390.47 338.79 377.6 332.42 379.79 335.56 388.32 339.92 394.67 338.94 414.88 329.91" fill="none" stroke="#000" stroke-linecap="round" stroke-linejoin="round"/><path d="M420.47,325.86l-27.71,12.53c-1.71.81-3.49.73-5.13-.22l-34.99-17.77c-1-.64-1.3-1.58-1.24-2.24.06-.65.21-1.36,1.97-1.87l1.64-.61,35.95,17.64,29.19-12.08.32,4.61Z" fill="none" stroke="#000" stroke-linecap="round" stroke-linejoin="round"/><path d="M392.42,336.39c-1.41.66-3.05.6-4.4-.16l-34.16-17.21c-.48-.27-.63-.88-.34-1.35.75-1.24,2.13-5.17-.15-8.43l37.71,19.18,1.33,7.96Z" fill="none" stroke="#000" stroke-linecap="round" stroke-linejoin="round"/><path d="M419,324.44s-26.56,11.94-26.57,11.94c-.88.38-2.63,1.06-4.65-.3,1.59.12,2.71-.55,3.29-1.62.56-1.04.39-2.75-.29-3.71-.42-.58-1.54-1.51-2.03-2.03l28.74-11.24c2.55-1.05,4.93.52,5.31,2.43.42,2.16-2.33,3.92-3.81,4.53Z" fill="none" stroke="#000" stroke-linecap="round" stroke-linejoin="round"/><path d="M420.33,316.55l-27.43,12.24c-1.73.68-3.66.59-5.31-.24l-35.05-17.8c-.36-.18-.91-.65-1.08-1.31-.26-.98.08-2.27,1.37-2.78l32.12-6.8,35.39,16.7Z" fill="none" stroke="#000" stroke-linecap="round" stroke-linejoin="round"/><path d="M422.39,318.33l-2.99-1.08-6.16.36-20.35,9.08c-1.73.68-3.66.59-5.31-.24l-35.05-17.8c-.9-.46-.58-1.68.28-1.99l25.27-11.3c.72-.13,1.46-.05,2.13.23l36.05,17.19s5.72,3.91,6.13,5.56Z" fill="none" stroke="#000" stroke-linecap="round" stroke-linejoin="round"/><path d="M412.91,317.77s3.16-1.11,6.14-.98,4.66,1.85,4.66,1.85c-.61-2.74-3.21-3.87-3.21-3.87l-39.39-19.83c-.27-.12-1.28-.35-2.82.28-1.25.52-5.33,2.42-5.33,2.42l39.95,20.12Z" fill="none" stroke="#000" stroke-linecap="round" stroke-linejoin="round"/><polygon points="416.51 316.48 376.21 296.15 377.54 295.55 418.53 316.09 416.51 316.48" fill="none" stroke="#000" stroke-linecap="round" stroke-linejoin="round"/><path d="M423.86,319.14c-.28-1.13-.76-2.23-2.11-2.8-1.73-.73-3.3-.88-5.87.11l-3.88,1.32v2.1l4.66-1.67c1.91-.9,4.72-.7,5.42,1.39.77,2.29-.55,3.7-3.87,5.23l-5.21,2.44v2.11l6.03-2.77c2.76-1.1,5.9-3.18,4.84-7.45Z" fill="none" stroke="#000" stroke-linecap="round" stroke-linejoin="round"/><text transform="translate(75.92 383.46)" fill="#333" font-family="ComicNeue-Regular, &apos;Comic Neue&apos;" font-size="24"><tspan x="0" y="0">They were banned from </tspan><tspan x="0" y="28.8">publishing papers on them.</tspan></text></svg>