<?xml version="1.0" encoding="UTF-8"?><svg id="uuid-65381175-f615-4eef-a38d-a98ccf6aea29" xmlns="http://www.w3.org/2000/svg" viewBox="0 0 500 500"><g id="uuid-92a9a7fc-2668-44a2-9ac2-fd72d5e5d1ae"><polygon id="uuid-24e9a272-ec46-46f7-9b07-930b8892fd41" points="194.000018 287 176 286.999989 175.999982 318.630287 175.999978 325 203 325.000016 203.000004 319 194 318.999995 194.000018 287" fill="#35353d"/><rect id="uuid-908fd3be-8fab-4882-93e1-ab8184a424db" x="176.000001" y="253.000001" width="18.000011" height="35.999998" fill="#35353d"/><polygon id="uuid-78093458-1bc7-440a-9f6d-e02626aba427" points="143.000008 286 161 285.999991 161.000017 318 171 317.999995 171.000004 325 143 325.000014 142.999997 318.462676 143.000025 318.462676 143.000008 286" fill="#35353d"/><rect id="uuid-b3adbad2-819c-478a-8ba5-5fa72ec7f688" x="142.999985" y="252" width="18.000029" height="36.000001" fill="#35353d"/><polygon id="uuid-bb1578a1-97e1-47f2-8bd1-6164ffa6adf5" points="176.600887 193.150946 176.623797 192 176.294437 192 169.867369 157.61509 174.553566 150 160.406198 150 165.092395 157.61509 158.665327 192 158.335967 192 158.358877 193.150946 158.335967 193 158.453224 193 167.479882 205.008232 176.50654 193 176.623797 193 176.600887 193.150946" fill="#da1f36"/><path id="uuid-da6c9d5f-0a56-4939-aa9d-1c5731198d76" d="M193.5,142.5v111s-51,0-51,0v-111s51,0,51,0ZM185.604144,143.5h-36.248524s18.124262,54.585547,18.124262,54.585547l18.124262-54.585547Z" fill="#fff" stroke="#999" stroke-miterlimit="10"/><path id="uuid-f8ab338d-343b-455c-8cb5-2024c6eeceb0" d="M191.954032,128.919136c1.696906-4.951895,2.581116-10.503146,2.421306-16.351082-.551817-20.192621-13.276181-36.226506-28.420661-35.812643s-26.974169,17.118754-26.422352,37.311375c.15981,5.847935,1.345881,11.342611,3.310699,16.194439l49.111008-1.34209Z" fill="#eec6a2"/><path id="uuid-2c50e9b8-2f68-4004-ac4b-38764df9443b" d="M144.487574,135c4.869843,10.185497,13.41087,16.947049,23.141683,16.947049s18.27184-6.761552,23.141683-16.947049h-46.283366Z" fill="#eec6a2"/><ellipse id="uuid-b623dd59-e700-40c5-a7d4-4a9aae8b5cb0" cx="175.5" cy="119" rx="2.495383" ry="4.002739" transform="translate(-5.484329 8.519582) rotate(-2.738091)" fill="#333"/><ellipse id="uuid-0c8c4158-a574-47a1-91df-78111bd18098" cx="160.5" cy="120" rx="2.495383" ry="4.002739" transform="translate(-5.549224 7.804166) rotate(-2.738091)" fill="#333"/><path id="uuid-5db2e92a-5c03-440a-a26e-f2e0b4c04af1" d="M143.44876,83.670047c8.690289-9.746652,26.63169-9.613746,35.517656-9.547911,11.126178.082423,24.1852,2.06267,24.561308,5.404381.333289,2.961271-9.517351,4.997727-9.420297,9.549505.070588,3.310677,5.3457,5.23103,4.797501,6.123174-1.16286,1.892465-23.95561-8.28482-28.718615-3.503835-2.139927,2.147998.822434,5.846866-1.482376,7.36695-2.38115,1.570443-6.195515-1.947258-15.259084-3.871653-7.800377-1.656192-11.598779-.45703-13.121874-2.679202-2.026306-2.956329,2.555745-8.202095,3.12578-8.84141Z" fill="#534741"/><rect id="uuid-088c27d4-2275-424f-9188-970f3349f862" x="196.010713" y="139.306068" width="13.715847" height="29.260522" transform="translate(-42.214146 84.751745) rotate(-21.427278)" fill="#fff" stroke="#999" stroke-miterlimit="10"/><rect id="uuid-c7704619-7632-4445-a40d-d2bfded13f35" x="119.932517" y="148.537873" width="29.260522" height="13.715847" transform="translate(-49.299245 247.318324) rotate(-75.672476)" fill="#fff" stroke="#999" stroke-miterlimit="10"/><rect id="uuid-b8c5a236-37ac-4dd0-9617-0e17d2bc801b" x="113.976227" y="175.947774" width="29.260522" height="13.715847" transform="translate(-72.685607 279.96044) rotate(-80.637589)" fill="#fff" stroke="#999" stroke-miterlimit="10"/><rect id="uuid-aa700de6-a758-458e-b429-60c6e8627654" x="117.896946" y="195.97091" width="14.630263" height="14.630263" transform="translate(-95.735347 293.759875) rotate(-80.637589)" fill="#eec6a2"/><rect id="uuid-9ecbde26-adb9-4e68-8ded-00879622d76a" x="208.332545" y="163.926935" width="13.715847" height="29.260522" transform="translate(-60.828949 133.803523) rotate(-30.474883)" fill="#fff" stroke="#999" stroke-miterlimit="10"/><rect id="uuid-52b952fe-8bea-4245-830c-806590b71431" x="218.643256" y="189.367931" width="14.630263" height="14.630263" transform="translate(-65.021551 125.464417) rotate(-27.284563)" fill="#eec6a2"/><polygon id="uuid-9ac78570-09d1-4d65-96fe-5cd6466b21a2" points="194.000018 287 176 286.999989 175.999982 318.630287 175.999978 325 203 325.000016 203.000004 319 194 318.999995 194.000018 287" fill="none" stroke="#000" stroke-linecap="round" stroke-linejoin="round"/><rect id="uuid-eec7b582-cec6-4a0c-801c-1269bd845aa9" x="176.000001" y="253.000001" width="18.000011" height="35.999998" fill="none" stroke="#000" stroke-linecap="round" stroke-linejoin="round"/><polygon id="uuid-a98a8de4-09d9-427c-a173-d5a636331ac2" points="143.000008 286 161 285.999991 161.000017 318 171 317.999995 171.000004 325 143 325.000014 142.999997 318.462676 143.000025 318.462676 143.000008 286" fill="none" stroke="#000" stroke-linecap="round" stroke-linejoin="round"/><rect id="uuid-13008a28-d8c8-467d-9a0c-dad790be1dd9" x="142.999985" y="252" width="18.000029" height="36.000001" fill="none" stroke="#000" stroke-linecap="round" stroke-linejoin="round"/><polygon id="uuid-db81cf16-dc9a-4c4b-81ca-2490655b07e0" points="176.600887 193.150946 176.623797 192 176.294437 192 169.867369 157.61509 174.553566 150 160.406198 150 165.092395 157.61509 158.665327 192 158.335967 192 158.358877 193.150946 158.335967 193 158.453224 193 167.479882 205.008232 176.50654 193 176.623797 193 176.600887 193.150946" fill="none" stroke="#000" stroke-linecap="round" stroke-linejoin="round"/><path id="uuid-8bec4e79-4b9e-4bf1-ac9a-eb7ced5bf9cd" d="M193.5,142.5v111s-51,0-51,0v-111s51,0,51,0ZM185.604144,143.5h-36.248524s18.124262,54.585547,18.124262,54.585547l18.124262-54.585547Z" fill="none" stroke="#000" stroke-linecap="round" stroke-linejoin="round"/><path id="uuid-3ad45ab0-0c34-4f49-9704-31524c59a281" d="M191.954032,128.919136c1.696906-4.951895,2.581116-10.503146,2.421306-16.351082-.551817-20.192621-13.276181-36.226506-28.420661-35.812643s-26.974169,17.118754-26.422352,37.311375c.15981,5.847935,1.345881,11.342611,3.310699,16.194439l49.111008-1.34209Z" fill="none" stroke="#000" stroke-linecap="round" stroke-linejoin="round"/><path id="uuid-0a15e848-8703-4a9b-a64d-25a48f70224d" d="M144.487574,135c4.869843,10.185497,13.41087,16.947049,23.141683,16.947049s18.27184-6.761552,23.141683-16.947049h-46.283366Z" fill="none" stroke="#000" stroke-linecap="round" stroke-linejoin="round"/><ellipse id="uuid-ab4f24c7-7f3b-44b9-98e8-4681185323ec" cx="175.5" cy="119" rx="2.495383" ry="4.002739" transform="translate(-5.484329 8.519582) rotate(-2.738091)" fill="none" stroke="#000" stroke-linecap="round" stroke-linejoin="round"/><ellipse id="uuid-a99c497f-3b08-488d-9d7b-c8192497421d" cx="160.5" cy="120" rx="2.495383" ry="4.002739" transform="translate(-5.549224 7.804166) rotate(-2.738091)" fill="none" stroke="#000" stroke-linecap="round" stroke-linejoin="round"/><path id="uuid-4bcee973-62cc-4a5e-957c-26b162c72d2a" d="M143.44876,83.670047c8.690289-9.746652,26.63169-9.613746,35.517656-9.547911,11.126178.082423,24.1852,2.06267,24.561308,5.404381.333289,2.961271-9.517351,4.997727-9.420297,9.549505.070588,3.310677,5.3457,5.23103,4.797501,6.123174-1.16286,1.892465-23.95561-8.28482-28.718615-3.503835-2.139927,2.147998.822434,5.846866-1.482376,7.36695-2.38115,1.570443-6.195515-1.947258-15.259084-3.871653-7.800377-1.656192-11.598779-.45703-13.121874-2.679202-2.026306-2.956329,2.555745-8.202095,3.12578-8.84141Z" fill="none" stroke="#000" stroke-linecap="round" stroke-linejoin="round"/><rect id="uuid-df564be9-f2a9-4132-9638-375e330acab5" x="196.010713" y="139.306068" width="13.715847" height="29.260522" transform="translate(-42.214146 84.751745) rotate(-21.427278)" fill="none" stroke="#000" stroke-linecap="round" stroke-linejoin="round"/><rect id="uuid-7979e969-4a99-47f7-91ca-220a0bb2d3ce" x="119.932517" y="148.537873" width="29.260522" height="13.715847" transform="translate(-49.299245 247.318324) rotate(-75.672476)" fill="none" stroke="#000" stroke-linecap="round" stroke-linejoin="round"/><rect id="uuid-261986c3-5dc5-4578-9b81-12803ecb0e79" x="113.976227" y="175.947774" width="29.260522" height="13.715847" transform="translate(-72.685607 279.96044) rotate(-80.637589)" fill="none" stroke="#000" stroke-linecap="round" stroke-linejoin="round"/><rect id="uuid-3dfb2afe-7fac-4960-b19a-f81a5653e6ec" x="117.896946" y="195.97091" width="14.630263" height="14.630263" transform="translate(-95.735347 293.759875) rotate(-80.637589)" fill="none" stroke="#000" stroke-linecap="round" stroke-linejoin="round"/><rect id="uuid-f12a09ce-93e2-4345-b177-fb23d1a9b851" x="208.332545" y="163.926935" width="13.715847" height="29.260522" transform="translate(-60.828949 133.803523) rotate(-30.474883)" fill="none" stroke="#000" stroke-linecap="round" stroke-linejoin="round"/><rect id="uuid-b02f88a0-a883-4411-90d5-e792e79821dc" x="218.643256" y="189.367931" width="14.630263" height="14.630263" transform="translate(-65.021551 125.464417) rotate(-27.284563)" fill="none" stroke="#000" stroke-linecap="round" stroke-linejoin="round"/></g><polygon points="371.201395 245 269.152054 245 274.80666 227 363.671792 227 371.201395 245" fill="#37474f"/><path d="M379.052474,255.495563l-10.940431-26.686944c-.598222-1.683143-2.190118-2.808619-3.974649-2.808619h-89.531051c-1.784538,0-3.376426,1.125476-3.974651,2.808619l-10.96071,26.686944c-.415716,1.226868.496831,2.504437,1.794677,2.504437h115.792135c1.297844,0,2.210393-1.277569,1.794681-2.504437ZM370.437423,253h-102.151311c-1.29971,0-2.212484-1.279869-1.795783-2.510127l8.472922-19.555188c.416701-1.16081,1.517983-1.934685,2.748244-1.934685h83.320385c1.230258,0,2.331541.773874,2.74824,1.934685l8.472924,19.555188c.406783,1.230258-.515912,2.510127-1.815621,2.510127Z" fill="#82aec0"/><path d="M260,256.209691v65.323935c0,1.367991,1.1,2.466374,2.46,2.466374h113.069999c1.360001,0,2.470001-1.098383,2.470001-2.466374v-65.533626l-118,.209691Z" fill="#37474f"/><path d="M362,256.010132v-32.018834l-2-1.67v-7.499527c0-1.006137-.815635-1.821771-1.821771-1.821771h-18.356457c-1.006137,0-1.821771.815635-1.821771,1.821771v3.938736c0,1.789122-1.45037,3.239492-3.239492,3.239492h-55.310507c-1.3475,0-2.450001,1.1025-2.450001,2.450001v31.549999h85v.010132Z" fill="#f3ab47"/><path d="M360,222v-6.43c0-1.419372-1.150628-2.57-2.57-2.57h-16.860001c-1.419372,0-2.57,1.150628-2.57,2.57v1.808652c0,1.870787-1.242327,3.974158-3.932411,4.621348h25.932411Z" fill="#7cb342"/><rect x="277" y="227" width="85" height="5" fill="#de7340" isolation="isolate" opacity=".75"/><path d="M368,256v-23.20603c0-1.537689-1.243588-2.79397-2.788047-2.79397h-28.131374c-2.810535,0-5.080579-2.303873-5.080579-5.134062v-1.955938c0-1.607149-1.302851-2.91-2.91-2.91h-19.18c-1.607149,0-2.91,1.302851-2.91,2.91v1.955938c0,2.84012-2.279874,5.134062-5.080579,5.134062h-28.131373c-1.53443,0-2.788048,1.246231-2.788048,2.79397v23.20603h97Z" fill="#ffca28"/><path d="M332,224.865938v-1.955938c0-1.607149-1.302851-2.91-2.91-2.91h-19.18c-1.607149,0-2.91,1.302851-2.91,2.91v1.955938c0,2.84012-2.279874,5.134062-5.080579,5.134062h35.170988c-2.810535,0-5.090409-2.303873-5.090409-5.134062Z" fill="#0288d1"/><rect x="268" y="238" width="100" height="5" fill="#f3ab47"/><path d="M373,256.010002v-12.940002c0-1.695514-1.374486-3.07-3.07-3.07h-68.220001c-3.153545,0-5.709999-2.556454-5.709999-5.709999v-2.080002c0-1.772834-1.437166-3.209999-3.209999-3.209999h-21.580001c-1.772834,0-3.21,1.437166-3.21,3.21v7.909999c-1.105769,0-2,.93-2,2.079998v13.800003h107v.010002Z" fill="#ffe36c"/><path d="M296,234.351619v-2.14162c0-1.772834-1.437166-3.209999-3.209999-3.209999h-21.580001c-1.772834,0-3.21,1.437166-3.21,3.21v7.79h33.701675c-3.149875,0-5.701675-2.522482-5.701675-5.648381Z" fill="#f44336"/><path d="M372.89554,251.463661c.250626,2.295739-.611529,2.536339-1.924809,2.536339h-103.218005c-1.313282,0-2.215538.100249-1.924811-2.31579l-3.959898.130327-1.523809,3.709272c-.411027,1.213031.491228,2.476191,1.774435,2.476191h114.486165c1.283206,0,2.185463-1.263156,1.774432-2.476191l-1.754385-4.300751-3.729315.240603Z" fill="#82aec0"/><polygon points="371.201395 245 269.152054 245 274.80666 227 363.671792 227 371.201395 245" fill="none" stroke="#000" stroke-linecap="round" stroke-linejoin="round"/><path d="M379.052474,255.495563l-10.940431-26.686944c-.598222-1.683143-2.190118-2.808619-3.974649-2.808619h-89.531051c-1.784538,0-3.376426,1.125476-3.974651,2.808619l-10.96071,26.686944c-.415716,1.226868.496831,2.504437,1.794677,2.504437h115.792135c1.297844,0,2.210393-1.277569,1.794681-2.504437ZM370.437423,253h-102.151311c-1.29971,0-2.212484-1.279869-1.795783-2.510127l8.472922-19.555188c.416701-1.16081,1.517983-1.934685,2.748244-1.934685h83.320385c1.230258,0,2.331541.773874,2.74824,1.934685l8.472924,19.555188c.406783,1.230258-.515912,2.510127-1.815621,2.510127Z" fill="none" stroke="#000" stroke-linecap="round" stroke-linejoin="round"/><path d="M260,256.209691v65.323935c0,1.367991,1.1,2.466374,2.46,2.466374h113.069999c1.360001,0,2.470001-1.098383,2.470001-2.466374v-65.533626l-118,.209691Z" fill="none" stroke="#000" stroke-linecap="round" stroke-linejoin="round"/><path d="M362,256.010132v-32.018834l-2-1.67v-7.499527c0-1.006137-.815635-1.821771-1.821771-1.821771h-18.356457c-1.006137,0-1.821771.815635-1.821771,1.821771v3.938736c0,1.789122-1.45037,3.239492-3.239492,3.239492h-55.310507c-1.3475,0-2.450001,1.1025-2.450001,2.450001v31.549999h85v.010132Z" fill="none" stroke="#000" stroke-linecap="round" stroke-linejoin="round"/><path d="M360,222v-6.43c0-1.419372-1.150628-2.57-2.57-2.57h-16.860001c-1.419372,0-2.57,1.150628-2.57,2.57v1.808652c0,1.870787-1.242327,3.974158-3.932411,4.621348h25.932411Z" fill="none" stroke="#000" stroke-linecap="round" stroke-linejoin="round"/><rect x="277" y="227" width="85" height="5" fill="none" stroke="#000" stroke-linecap="round" stroke-linejoin="round"/><path d="M368,256v-23.20603c0-1.537689-1.243588-2.79397-2.788047-2.79397h-28.131374c-2.810535,0-5.080579-2.303873-5.080579-5.134062v-1.955938c0-1.607149-1.302851-2.91-2.91-2.91h-19.18c-1.607149,0-2.91,1.302851-2.91,2.91v1.955938c0,2.84012-2.279874,5.134062-5.080579,5.134062h-28.131373c-1.53443,0-2.788048,1.246231-2.788048,2.79397v23.20603h97Z" fill="none" stroke="#000" stroke-linecap="round" stroke-linejoin="round"/><path d="M332,224.865938v-1.955938c0-1.607149-1.302851-2.91-2.91-2.91h-19.18c-1.607149,0-2.91,1.302851-2.91,2.91v1.955938c0,2.84012-2.279874,5.134062-5.080579,5.134062h35.170988c-2.810535,0-5.090409-2.303873-5.090409-5.134062Z" fill="none" stroke="#000" stroke-linecap="round" stroke-linejoin="round"/><rect x="268" y="238" width="100" height="5" fill="none" stroke="#000" stroke-linecap="round" stroke-linejoin="round"/><path d="M373,256.010002v-12.940002c0-1.695514-1.374486-3.07-3.07-3.07h-68.220001c-3.153545,0-5.709999-2.556454-5.709999-5.709999v-2.080002c0-1.772834-1.437166-3.209999-3.209999-3.209999h-21.580001c-1.772834,0-3.21,1.437166-3.21,3.21v7.909999c-1.105769,0-2,.93-2,2.079998v13.800003h107v.010002Z" fill="none" stroke="#000" stroke-linecap="round" stroke-linejoin="round"/><path d="M296,234.351619v-2.14162c0-1.772834-1.437166-3.209999-3.209999-3.209999h-21.580001c-1.772834,0-3.21,1.437166-3.21,3.21v7.79h33.701675c-3.149875,0-5.701675-2.522482-5.701675-5.648381Z" fill="none" stroke="#000" stroke-linecap="round" stroke-linejoin="round"/><path d="M372.89554,251.463661c.250626,2.295739-.611529,2.536339-1.924809,2.536339h-103.218005c-1.313282,0-2.215538.100249-1.924811-2.31579l-3.959898.130327-1.523809,3.709272c-.411027,1.213031.491228,2.476191,1.774435,2.476191h114.486165c1.283206,0,2.185463-1.263156,1.774432-2.476191l-1.754385-4.300751-3.729315.240603Z" fill="none" stroke="#000" stroke-linecap="round" stroke-linejoin="round"/><path d="M331.005803,292h-.002902c-.034814-.690419-.789102-1.335749-2.0917-1.716184-2.787967-.814412-5.880549-1.290661-9.4083-1.318841-3.524849.02818-6.617431.504429-9.4083,1.318841-1.302598.380434-2.051085,1.025765-2.088799,1.716184h-.005802v14.112722c-.031912.789051.876135,1.634462,2.97654,2.212158,2.17003.597424,5.105953.983494,8.52346.983494s6.353431-.386072,8.52346-.983494c2.201941-.605878,3.092584-1.504832,2.964935-2.324879h.011605v-14h.005803Z" fill="#e2a610"/><path d="M321.65335,305.15312l-1.302223-3.068492c.887647-.429954,1.447814-1.431969,1.194802-2.530278-.17765-.771171-.793967-1.412403-1.558881-1.61531-1.485854-.39415-2.829124.720884-2.829124,2.144398,0,.826578.452443,1.548746,1.122406,1.931585l-1.212315,3.1584c-.152968.398521.141235.826578.568105.826578h3.456646c.436267,0,.731016-.445282.560584-.84688Z" fill="#4e342e"/><path d="M321.528639,305h-4.347514l-.116011.434427c-.153714.400237.142114.826578.568454.565573h3.457129c.437942.261006.730869-.185637.559753-.585874l-.121811-.414126Z" fill="#9e740b"/><path d="M318.477548,301.69017c.052205-.150813-.0029-.31323-.130513-.406039-.174016-.127613-.408939-.353834-.556852-.713468-.539451-1.299325.101509-1.876479.101509-1.876479-.452443.406039-.73667.994795-.73667,1.650258,0,.826578.452443,1.548748,1.122406,1.931583l.20012-.585855Z" fill="#9e740b"/><path d="M320.945682,298.760892s.63806,1.281921-.092809,2.1027c-.249424.278426-.461143.426341-.617758.498848-.153714.072507-.22332.255223-.150813.40894l.269726.568454c.74247-.359634,1.25582-1.119507,1.25582-2.001191-.005802-.942592-.664166-1.577751-.664166-1.577751Z" fill="#9e740b"/><path d="M328.27758,290.248581c-2.642152-.768574-5.574331-1.215216-8.915448-1.244219-3.341118.026103-6.273296.475645-8.915448,1.241318-2.647952.768574-2.911877,2.685655.83818,3.712353,2.056296.562654,4.840561.925189,8.077268.925189s6.020973-.362534,8.077268-.925189c3.750057-1.023797,3.486133-2.943779.83818-3.709452Z" fill="#fdd835"/><path d="M327.253224,292s-.108442.498848-1.529895.498848-1.723329-.498848-1.723329-.498848v-6.395108c0-2.906077-2.242088-5.266901-5-5.266901s-5,2.363725-5,5.266901v6.478944s-.570785.465284-1.609558.465284-1.390442-.465284-1.390442-.465284v-6.478944c0-4.681045,3.589343-8.486207,7.999999-8.486207s8.000001,3.808062,8.000001,8.486207v6.395108h.253224Z" fill="#84b0c1" stroke="#84b0c1" stroke-miterlimit="10" stroke-width="1.9584"/><path d="M315.681682,280.274532c-1.490742.887484-1.719864,1.487841-2.134603,1.763368-.30743.20302-.716369.040604-.449543-.664163.229122-.603257.780174-1.745966,2.154905-2.624749,2.366625-1.513944,4.408419-1.444337,4.298209-.287127-.092809,1.023798-2.279617.867182-3.868968,1.812672Z" fill="#b9e4ea"/><path d="M331.005803,292h-.002902c-.034814-.690419-.789102-1.335749-2.0917-1.716184-2.787967-.814412-5.880549-1.290661-9.4083-1.318841-3.524849.02818-6.617431.504429-9.4083,1.318841-1.302598.380434-2.051085,1.025765-2.088799,1.716184h-.005802v14.112722c-.031912.789051.876135,1.634462,2.97654,2.212158,2.17003.597424,5.105953.983494,8.52346.983494s6.353431-.386072,8.52346-.983494c2.201941-.605878,3.092584-1.504832,2.964935-2.324879h.011605v-14h.005803Z" fill="none" stroke="#000" stroke-linecap="round" stroke-linejoin="round"/><line x1="308" y1="292" x2="331" y2="292" fill="none" stroke="#000" stroke-linecap="round" stroke-linejoin="round"/><path d="M321.65335,305.15312l-1.302223-3.068492c.887647-.429954,1.447814-1.431969,1.194802-2.530278-.17765-.771171-.793967-1.412403-1.558881-1.61531-1.485854-.39415-2.829124.720884-2.829124,2.144398,0,.826578.452443,1.548746,1.122406,1.931585l-1.212315,3.1584c-.152968.398521.141235.826578.568105.826578h3.456646c.436267,0,.731016-.445282.560584-.84688Z" fill="none" stroke="#000" stroke-linecap="round" stroke-linejoin="round"/><path d="M321.528639,305h-4.347514l-.116011.434427c-.153714.400237.142114.826578.568454.565573h3.457129c.437942.261006.730869-.185637.559753-.585874l-.121811-.414126Z" fill="none" stroke="#000" stroke-linecap="round" stroke-linejoin="round"/><path d="M318.477548,301.69017c.052205-.150813-.0029-.31323-.130513-.406039-.174016-.127613-.408939-.353834-.556852-.713468-.539451-1.299325.101509-1.876479.101509-1.876479-.452443.406039-.73667.994795-.73667,1.650258,0,.826578.452443,1.548748,1.122406,1.931583l.20012-.585855Z" fill="none" stroke="#000" stroke-linecap="round" stroke-linejoin="round"/><path d="M320.945682,298.760892s.63806,1.281921-.092809,2.1027c-.249424.278426-.461143.426341-.617758.498848-.153714.072507-.22332.255223-.150813.40894l.269726.568454c.74247-.359634,1.25582-1.119507,1.25582-2.001191-.005802-.942592-.664166-1.577751-.664166-1.577751Z" fill="none" stroke="#000" stroke-linecap="round" stroke-linejoin="round"/><path d="M328.27758,290.248581c-2.642152-.768574-5.574331-1.215216-8.915448-1.244219-3.341118.026103-6.273296.475645-8.915448,1.241318-2.647952.768574-2.911877,2.685655.83818,3.712353,2.056296.562654,4.840561.925189,8.077268.925189s6.020973-.362534,8.077268-.925189c3.750057-1.023797,3.486133-2.943779.83818-3.709452Z" fill="none" stroke="#000" stroke-linecap="round" stroke-linejoin="round"/><path d="M327.253224,292s-.108442.498848-1.529895.498848-1.723329-.498848-1.723329-.498848v-6.395108c0-2.906077-2.242088-5.266901-5-5.266901s-5,2.363725-5,5.266901v6.478944s-.570785.465284-1.609558.465284-1.390442-.465284-1.390442-.465284v-6.478944c0-4.681045,3.589343-8.486207,7.999999-8.486207s8.000001,3.808062,8.000001,8.486207v6.395108h.253224Z" fill="none" stroke="#000" stroke-linecap="round" stroke-linejoin="round"/><path d="M315.681682,280.274532c-1.490742.887484-1.719864,1.487841-2.134603,1.763368-.30743.20302-.716369.040604-.449543-.664163.229122-.603257.780174-1.745966,2.154905-2.624749,2.366625-1.513944,4.408419-1.444337,4.298209-.287127-.092809,1.023798-2.279617.867182-3.868968,1.812672Z" fill="none" stroke="#000" stroke-linecap="round" stroke-linejoin="round"/><path d="M420.480338,353.112275l-27.71661,12.531254c-1.708807.805928-3.490331.72715-5.126421-.218146l-34.988133-17.766748c-.999834-.642316-1.296755-1.581556-1.236158-2.235994.060596-.654438.212086-1.36341,1.96937-1.872414l2.593509-.957418,35.097205,19.130158,24.941317-10.192247,4.465922,1.581556Z" fill="#01579b"/><path d="M392.430447,363.637802c-1.405827.660494-3.047978.599899-4.399271-.157551l-34.157964-17.209266c-.484768-.266624-.630198-.87864-.339338-1.351293.751391-1.24222,2.132979-5.168838-.14543-8.428902l38.575416,18.572676.466587,8.574335Z" fill="#f5f5f5"/><path d="M419.001794,351.69433s-26.559229,11.937415-26.571346,11.943472c-.87864.381753-2.629869,1.06043-4.647712-.296919,1.593673.115134,2.714703-.545365,3.290363-1.617912.563543-1.042252.393875-2.751059-.290863-3.714533-.418114-.581721-1.539139-1.508839-2.029965-2.029965l28.740684-11.240556c2.54503-1.048313,4.932514.521126,5.314267,2.429901.424175,2.157207-2.326884,3.920553-3.805428,4.526513Z" fill="#94c6d6"/><path d="M420.328848,343.804728l-27.431813,12.240395c-1.726985.684733-3.659999.593843-5.31427-.242385l-35.048724-17.803109c-.339338-.169668-.842284-.63626-1.042251-1.272515-.327218-1.06043.084834-2.39354,1.327052-2.817715l37.981576,19.360426,26.007803-11.131487,3.520626,1.66639Z" fill="#01579b"/><path d="M422.395174,345.580191l-2.987383-1.084669-6.156551.357514-20.348139,9.08334c-1.726985.684733-3.659999.593843-5.31427-.242385l-35.05479-17.797038c-.902881-.460531-.708973-1.799702.284801-1.987548l25.262472-11.301155c.721092-.133312,1.460364-.054536,2.13298.230265l36.048563,17.185024s5.72632,3.920562,6.132317,5.556652Z" fill="#0091ea"/><path d="M412.905837,345.02877s3.793311-1.4846,6.774633-1.351293c2.981322.133312,4.017513,2.223872,4.017513,2.223872-.563543-2.563213-3.21159-3.872084-3.21159-3.872084l-39.387402-19.833071c-.272682-.115132-1.278576-.351458-2.823774.284802-1.248278.515065-5.326389,2.42384-5.326389,2.42384l39.957008,20.123934Z" fill="#616161"/><path d="M423.867657,346.386119c-.284802-1.133147-.987713-2.345067-2.284467-2.932844-1.708807-.769567-4.144764-.569604-5.702086.242385l-3.881103,1.320993v2.096621l4.668849-1.672451c3.659999-1.630034,5.283972.811984,5.42334,1.387649.581721,2.345067-.545365,3.702416-3.872084,5.229433l-5.220105,2.435957v2.108743l6.032094-2.769237c2.751059-1.102847,5.889932-3.175234,4.835563-7.447249Z" fill="#424242"/><polygon points="368.961616 345.834693 358.496687 331.37043 360.138839 330.637219 371.912643 346.81635 368.961616 345.834693" fill="#01579b"/><polygon points="382.477794 352.500254 380.611438 351.021714 413 344.410688 413 345.471118 408.461361 347.192047 382.477794 352.500254" fill="#01579b"/><path d="M357.927085,319.093679l40.90836-6.835228,17.86976,19.675523c.902879.951357.412053,2.526852-.872584,2.787415l-42.235412,8.66523-15.670124-24.29294Z" fill="#9ccc65"/><path d="M415.832625,333.024699l-41.944554,8.495562-.133312,1.99967,42.077866-8.62887c1.187681-.248446,1.684568-1.605795,1.036191-2.563213-.230263.339336-.581721.605955-1.036191.69685Z" fill="#689f38"/><path d="M418.092854,342.192877c.442353.702916.042417,1.630034-.769567,1.793641l-38.611774,7.829002c-2.320828.478709-4.599237-1.042252-4.805263-3.405497h0c-.175729-1.99967,1.175562-3.811489,3.144932-4.223542l37.133232-8.338011,3.90844,6.344407Z" fill="#689f38"/><path d="M382.644194,339.647842l-15.379266-22.008468-8.774301,2.320828c-2.029966,2.017848-1.272516,5.332448-1.272516,5.332448,0,0,13.434134,21.560057,15.554994,24.317177s5.217316,2.326884,5.217316,2.326884l5.229436-1.054369-.545365-9.755956-.030298-1.478544Z" fill="#616161"/><path d="M382.644194,339.793271l-7.386652,1.527022c-2.017848.45447-2.381423,2.351123-2.381423,2.351123l-17.833404-25.553333s-2.538973,3.072217-.854404,5.683906l18.584794,25.807838c2.029965,2.890427,5.217316,2.351123,5.217316,2.351123l5.229436-1.054369-.539304-9.562049-.036358-1.551261Z" fill="#424242"/><path d="M415.765969,341.405127c.187846.412053-.054534.890762-.496887.981657l-36.921145,7.5745c-2.320828.478709-3.962979-1.06043-3.878145-3.157051.109073-2.648047,1.593676-3.769072,3.556985-4.175064l37.102932-7.580561s-1.260398,1.417944-.296919,4.072052c.327219.914996.678677,1.726985.933179,2.284467Z" fill="#b9e4ea"/><line x1="376.354329" y1="341.829297" x2="360.532713" y2="319.445135" fill="none" stroke="#424242" stroke-miterlimit="10" stroke-width="2.071"/><polygon points="377.596546 332.285427 357.24841 322.032584 356.424304 323.656557 379.935552 335.63639 377.596546 332.285427" fill="#424242"/><polygon points="414.881268 329.910065 413.390607 328.273974 390.467138 338.793441 377.596546 332.4248 379.790123 335.563673 388.315978 339.920527 394.666441 338.944931 414.881268 329.910065" fill="#689f38"/><path d="M420.474277,325.862251l-27.71055,12.531254c-1.708807.805928-3.490331.72715-5.126421-.218146l-34.988133-17.766748c-.999834-.642318-1.296755-1.581556-1.236158-2.235992.060596-.654436.212086-1.36341,1.96937-1.872417l1.642152-.60596,35.94555,17.639497,29.189093-12.076784.315097,4.605295Z" fill="#c62828"/><path d="M392.424391,336.387779c-1.405827.660494-3.047978.599899-4.399271-.157551l-34.157967-17.209263c-.484768-.266622-.630198-.878643-.339338-1.351291.751391-1.242218,2.132979-5.168838-.14543-8.428904l37.714952,19.184694,1.327054,7.962314Z" fill="#f5f5f5"/><path d="M418.995738,324.444305s-26.559229,11.937413-26.571346,11.943474c-.87864.381753-2.629869,1.06043-4.647712-.296919,1.593673.115134,2.714703-.545365,3.290363-1.617912.563543-1.042252.393875-2.751059-.290863-3.714533-.418114-.581721-1.539139-1.508841-2.029965-2.029965l28.740684-11.240558c2.54503-1.048311,4.932514.521126,5.314267,2.429899.42417,2.157212-2.326889,3.920555-3.805428,4.526515Z" fill="#94c6d6"/><path d="M420.328848,316.554707l-27.431813,12.240393c-1.726985.684735-3.659999.593841-5.31427-.242385l-35.054784-17.803106c-.363576-.181788-.90894-.648377-1.084668-1.308874-.260563-.981656.078775-2.27235,1.36947-2.781357l32.121941-6.804931,35.394125,16.700259Z" fill="#c62828"/><path d="M422.389113,318.330168l-2.987383-1.084669-6.156556.357517-20.348134,9.083342c-1.726985.684735-3.659999.593841-5.31427-.242385l-35.054789-17.803104c-.902881-.46053-.581722-1.67851.284801-1.987549l25.268534-11.295095c.721092-.133311,1.460364-.054536,2.13298.230265l36.048565,17.185026s5.72026,3.914501,6.126252,5.556652Z" fill="#f44336"/><path d="M412.905837,317.772686s3.157051-1.108908,6.138373-.975596,4.659834,1.848178,4.659834,1.848178c-.612021-2.73894-3.21159-3.872084-3.21159-3.872084l-39.387402-19.833071c-.272682-.115132-1.278576-.351457-2.823774.284801-1.248278.515066-5.326389,2.42384-5.326389,2.42384l39.950947,20.123933Z" fill="#616161"/><polygon points="416.511302 316.475932 376.2089 296.145973 377.54201 295.546072 418.529146 316.088118 416.511302 316.475932" fill="#424242"/><path d="M423.861596,319.136096c-.284802-1.133145-.763511-2.229933-2.114799-2.799535-1.726985-.727152-3.30248-.878643-5.871754.109073l-3.875042,1.320993v2.096621l4.662792-1.672449c1.908775-.896821,4.720429-.702914,5.42334,1.387649.769567,2.290528-.545365,3.702416-3.872084,5.229436l-5.214049,2.43596v2.108741l6.026037-2.769237c2.757115-1.102849,5.895988-3.175234,4.835558-7.447252Z" fill="#424242"/><path d="M420.480338,353.112275l-27.71661,12.531254c-1.708807.805928-3.490331.72715-5.126421-.218146l-34.988133-17.766748c-.999834-.642316-1.296755-1.581556-1.236158-2.235994.060596-.654438.212086-1.36341,1.96937-1.872414l2.593509-.957418,35.097205,19.130158,24.941317-10.192247,4.465922,1.581556Z" fill="none" stroke="#000" stroke-linecap="round" stroke-linejoin="round"/><path d="M392.430447,363.637802c-1.405827.660494-3.047978.599899-4.399271-.157551l-34.157964-17.209266c-.484768-.266624-.630198-.87864-.339338-1.351293.751391-1.24222,2.132979-5.168838-.14543-8.428902l38.575416,18.572676.466587,8.574335Z" fill="none" stroke="#000" stroke-linecap="round" stroke-linejoin="round"/><path d="M419.001794,351.69433s-26.559229,11.937415-26.571346,11.943472c-.87864.381753-2.629869,1.06043-4.647712-.296919,1.593673.115134,2.714703-.545365,3.290363-1.617912.563543-1.042252.393875-2.751059-.290863-3.714533-.418114-.581721-1.539139-1.508839-2.029965-2.029965l28.740684-11.240556c2.54503-1.048313,4.932514.521126,5.314267,2.429901.424175,2.157207-2.326884,3.920553-3.805428,4.526513Z" fill="none" stroke="#000" stroke-linecap="round" stroke-linejoin="round"/><path d="M420.328848,343.804728l-27.431813,12.240395c-1.726985.684733-3.659999.593843-5.31427-.242385l-35.048724-17.803109c-.339338-.169668-.842284-.63626-1.042251-1.272515-.327218-1.06043.084834-2.39354,1.327052-2.817715l37.981576,19.360426,26.007803-11.131487,3.520626,1.66639Z" fill="none" stroke="#000" stroke-linecap="round" stroke-linejoin="round"/><path d="M422.395174,345.580191l-2.987383-1.084669-6.156551.357514-20.348139,9.08334c-1.726985.684733-3.659999.593843-5.31427-.242385l-35.05479-17.797038c-.902881-.460531-.708973-1.799702.284801-1.987548l25.262472-11.301155c.721092-.133312,1.460364-.054536,2.13298.230265l36.048563,17.185024s5.72632,3.920562,6.132317,5.556652Z" fill="none" stroke="#000" stroke-linecap="round" stroke-linejoin="round"/><path d="M412.905837,345.02877s3.793311-1.4846,6.774633-1.351293c2.981322.133312,4.017513,2.223872,4.017513,2.223872-.563543-2.563213-3.21159-3.872084-3.21159-3.872084l-39.387402-19.833071c-.272682-.115132-1.278576-.351458-2.823774.284802-1.248278.515065-5.326389,2.42384-5.326389,2.42384l39.957008,20.123934Z" fill="none" stroke="#000" stroke-linecap="round" stroke-linejoin="round"/><path d="M423.867657,346.386119c-.284802-1.133147-.987713-2.345067-2.284467-2.932844-1.708807-.769567-4.144764-.569604-5.702086.242385l-3.881103,1.320993v2.096621l4.668849-1.672451c3.659999-1.630034,5.283972.811984,5.42334,1.387649.581721,2.345067-.545365,3.702416-3.872084,5.229433l-5.220105,2.435957v2.108743l6.032094-2.769237c2.751059-1.102847,5.889932-3.175234,4.835563-7.447249Z" fill="none" stroke="#000" stroke-linecap="round" stroke-linejoin="round"/><polygon points="368.961616 345.834693 358.496687 331.37043 360.138839 330.637219 371.912643 346.81635 368.961616 345.834693" fill="none" stroke="#000" stroke-linecap="round" stroke-linejoin="round"/><polygon points="382.477794 352.500254 380.611438 351.021714 413 344.410688 413 345.471118 408.461361 347.192047 382.477794 352.500254" fill="none" stroke="#000" stroke-linecap="round" stroke-linejoin="round"/><path d="M357.927085,319.093679l40.90836-6.835228,17.86976,19.675523c.902879.951357.412053,2.526852-.872584,2.787415l-42.235412,8.66523-15.670124-24.29294Z" fill="none" stroke="#000" stroke-linecap="round" stroke-linejoin="round"/><path d="M415.832625,333.024699l-41.944554,8.495562-.133312,1.99967,42.077866-8.62887c1.187681-.248446,1.684568-1.605795,1.036191-2.563213-.230263.339336-.581721.605955-1.036191.69685Z" fill="none" stroke="#000" stroke-linecap="round" stroke-linejoin="round"/><path d="M418.092854,342.192877c.442353.702916.042417,1.630034-.769567,1.793641l-38.611774,7.829002c-2.320828.478709-4.599237-1.042252-4.805263-3.405497h0c-.175729-1.99967,1.175562-3.811489,3.144932-4.223542l37.133232-8.338011,3.90844,6.344407Z" fill="none" stroke="#000" stroke-linecap="round" stroke-linejoin="round"/><path d="M382.644194,339.647842l-15.379266-22.008468-8.774301,2.320828c-2.029966,2.017848-1.272516,5.332448-1.272516,5.332448,0,0,13.434134,21.560057,15.554994,24.317177s5.217316,2.326884,5.217316,2.326884l5.229436-1.054369-.545365-9.755956-.030298-1.478544Z" fill="none" stroke="#000" stroke-linecap="round" stroke-linejoin="round"/><path d="M382.644194,339.793271l-7.386652,1.527022c-2.017848.45447-2.381423,2.351123-2.381423,2.351123l-17.833404-25.553333s-2.538973,3.072217-.854404,5.683906l18.584794,25.807838c2.029965,2.890427,5.217316,2.351123,5.217316,2.351123l5.229436-1.054369-.539304-9.562049-.036358-1.551261Z" fill="none" stroke="#000" stroke-linecap="round" stroke-linejoin="round"/><path d="M415.765969,341.405127c.187846.412053-.054534.890762-.496887.981657l-36.921145,7.5745c-2.320828.478709-3.962979-1.06043-3.878145-3.157051.109073-2.648047,1.593676-3.769072,3.556985-4.175064l37.102932-7.580561s-1.260398,1.417944-.296919,4.072052c.327219.914996.678677,1.726985.933179,2.284467Z" fill="none" stroke="#000" stroke-linecap="round" stroke-linejoin="round"/><line x1="376.354329" y1="341.829297" x2="360.532713" y2="319.445135" fill="none" stroke="#000" stroke-linecap="round" stroke-linejoin="round"/><polygon points="377.596546 332.285427 357.24841 322.032584 356.424304 323.656557 379.935552 335.63639 377.596546 332.285427" fill="none" stroke="#000" stroke-linecap="round" stroke-linejoin="round"/><polygon points="414.881268 329.910065 413.390607 328.273974 390.467138 338.793441 377.596546 332.4248 379.790123 335.563673 388.315978 339.920527 394.666441 338.944931 414.881268 329.910065" fill="none" stroke="#000" stroke-linecap="round" stroke-linejoin="round"/><path d="M420.474277,325.862251l-27.71055,12.531254c-1.708807.805928-3.490331.72715-5.126421-.218146l-34.988133-17.766748c-.999834-.642318-1.296755-1.581556-1.236158-2.235992.060596-.654436.212086-1.36341,1.96937-1.872417l1.642152-.60596,35.94555,17.639497,29.189093-12.076784.315097,4.605295Z" fill="none" stroke="#000" stroke-linecap="round" stroke-linejoin="round"/><path d="M392.424391,336.387779c-1.405827.660494-3.047978.599899-4.399271-.157551l-34.157967-17.209263c-.484768-.266622-.630198-.878643-.339338-1.351291.751391-1.242218,2.132979-5.168838-.14543-8.428904l37.714952,19.184694,1.327054,7.962314Z" fill="none" stroke="#000" stroke-linecap="round" stroke-linejoin="round"/><path d="M418.995738,324.444305s-26.559229,11.937413-26.571346,11.943474c-.87864.381753-2.629869,1.06043-4.647712-.296919,1.593673.115134,2.714703-.545365,3.290363-1.617912.563543-1.042252.393875-2.751059-.290863-3.714533-.418114-.581721-1.539139-1.508841-2.029965-2.029965l28.740684-11.240558c2.54503-1.048311,4.932514.521126,5.314267,2.429899.42417,2.157212-2.326889,3.920555-3.805428,4.526515Z" fill="none" stroke="#000" stroke-linecap="round" stroke-linejoin="round"/><path d="M420.328848,316.554707l-27.431813,12.240393c-1.726985.684735-3.659999.593841-5.31427-.242385l-35.054784-17.803106c-.363576-.181788-.90894-.648377-1.084668-1.308874-.260563-.981656.078775-2.27235,1.36947-2.781357l32.121941-6.804931,35.394125,16.700259Z" fill="none" stroke="#000" stroke-linecap="round" stroke-linejoin="round"/><path d="M422.389113,318.330168l-2.987383-1.084669-6.156556.357517-20.348134,9.083342c-1.726985.684735-3.659999.593841-5.31427-.242385l-35.054789-17.803104c-.902881-.46053-.581722-1.67851.284801-1.987549l25.268534-11.295095c.721092-.133311,1.460364-.054536,2.13298.230265l36.048565,17.185026s5.72026,3.914501,6.126252,5.556652Z" fill="none" stroke="#000" stroke-linecap="round" stroke-linejoin="round"/><path d="M412.905837,317.772686s3.157051-1.108908,6.138373-.975596,4.659834,1.848178,4.659834,1.848178c-.612021-2.73894-3.21159-3.872084-3.21159-3.872084l-39.387402-19.833071c-.272682-.115132-1.278576-.351457-2.823774.284801-1.248278.515066-5.326389,2.42384-5.326389,2.42384l39.950947,20.123933Z" fill="none" stroke="#000" stroke-linecap="round" stroke-linejoin="round"/><polygon points="416.511302 316.475932 376.2089 296.145973 377.54201 295.546072 418.529146 316.088118 416.511302 316.475932" fill="none" stroke="#000" stroke-linecap="round" stroke-linejoin="round"/><path d="M423.861596,319.136096c-.284802-1.133145-.763511-2.229933-2.114799-2.799535-1.726985-.727152-3.30248-.878643-5.871754.109073l-3.875042,1.320993v2.096621l4.662792-1.672449c1.908775-.896821,4.720429-.702914,5.42334,1.387649.769567,2.290528-.545365,3.702416-3.872084,5.229436l-5.214049,2.43596v2.108741l6.026037-2.769237c2.757115-1.102849,5.895988-3.175234,4.835558-7.447252Z" fill="none" stroke="#000" stroke-linecap="round" stroke-linejoin="round"/><text transform="translate(75.923309 383.456909)" fill="#333" font-family="ComicNeue-Regular, &apos;Comic Neue&apos;" font-size="24"><tspan x="0" y="0">They were banned from </tspan><tspan x="0" y="28.799805">publishing papers on them.</tspan></text></svg>