<?xml version="1.0" encoding="UTF-8"?><svg id="uuid-f82cfcc6-fa26-460c-91fc-6742ca48a1f1" xmlns="http://www.w3.org/2000/svg" viewBox="0 0 500 500"><path d="M333.365037,266.413844c-.850744-1.440099-3.759525-6.667246-8.235952-10.445827-2.850705-2.405689-7.643245-4.652313-11.115716-4.911129-6.702194-.499686-13.078835,2.349217-17.823219,6.313246-4.744384,3.964028-8.425986,9.518989-9.130546,16.207166-.365113,3.465195.991937,8.588545,2.845686,11.820905,2.916727,5.08174,7.53755,8.878443,8.801796,9.973053,1.721333,1.494853,2.575376,4.023417,3.866122,5.865416,1.407013,2.003472,3.482838,2.735368,5.887049,2.473825,2.004024-.217335,3.884029-1.018582,5.831982-1.517066,2.318178-.593355,3.197676,3.522395,5.013922,4.452253.916138.470848,2.009454.408893,3.000489.180093,1.263379-.286044,2.518313-.855183,3.271744-1.907306-.114078.15839,1.029248.672803,1.87882.562194.774509-.104659,1.674916-.301895,2.367435-.659742,1.377786-.709634,2.161673-2.108891,2.563543-3.08804.218075-.535433.675101-.917288,1.236879-1.033437,1.034505-.220971,2.550265-.743115,3.49389-1.973067.709797-.927355,1.046179-2.110403,1.024852-3.272118-.011742-.545262.245647-1.063085.680333-1.375811,1.286967-.936518,2.726492-3.00342,1.963071-5.563548-.421125-1.4269-1.907737-2.278948-2.521521-3.62688-1.03914-2.285605.360902-4.237516,1.074705-6.303598.949127-2.735773,1.003662-4.957478-.452719-6.806164-1.549412-1.960178-4.524683-3.681484-5.522647-5.364419Z" fill="#ccc"/><ellipse cx="306.199663" cy="286.947878" rx="5.910221" ry="6.642928" transform="translate(-98.200415 174.885861) rotate(-27.652589)" fill="#424242"/><ellipse cx="323.743096" cy="272.288911" rx="5.911799" ry="6.641154" transform="translate(-90.480614 358.135058) rotate(-51.774569)" fill="#424242"/><path d="M319.05411,290.437454c-1.373812-1.646444-3.476712-6.815232-1.866232-8.160821,1.61048-1.345589,6.314613,1.643513,7.691527,3.293674,2.794141,3.348638-2.022613,3.500233-2.022613,3.500233,0,0-.847281,4.908812-3.802682,1.366913Z" fill="#424242"/><path d="M324.048656,306.272296c-.506593.27819-1.034835.486167-1.637397.516545.24629-.331931.486377-.671298.651454-1.048917.402865-.948445-.09905-1.513078-.538501-2.356976-.386788-.736517-.777202-1.470004-1.139125-2.220988-.242141-.504146-.305552-1.126083.161197-1.415137.584339-.362076.95144-.025413,1.345065.62339.363142.604892,2.675003,4.659249,2.678105,4.662967.104331.184058-1.033865.952121-1.147831,1.022111-.121221.076051-.245543.148385-.372965.217004Z" fill="#8abfd1"/><path d="M339.794356,293.116447c.363936-.449154.662696-.932154.800086-1.52002-.370334.18327-.746872.359106-1.147642.454263-1.004491.227429-1.470134-.36751-2.221525-.950776-.655202-.512252-1.306776-1.027535-1.980638-1.517887-.45252-.32837-1.052755-.50178-1.420265-.093793-.460296.510738-.194758.932259.372975,1.435591.529994.465483,4.104123,3.465191,4.107225,3.468908.162368.135568,1.120697-.848058,1.209853-.947781.096412-.105786.18972-.215286.279931-.328504Z" fill="#8abfd1"/><path d="M331.713649,303.034481s-.125577-1.825219-.744703-2.62623c-1.102323-1.431744-2.589132-3.36854-3.494672-4.453783-.359735-.431124-.381833-.974042.042551-1.328623.420757-.351551.898413-.258646,1.258148.172479.015507.018584,2.216023,2.456598,3.679769,4.210824.676052.810214,2.556562,1.263767,2.556562,1.263767-.502272.135815-1.406834.342828-2.034922.918071-.792888.731859-1.262733,1.843495-1.262733,1.843495Z" fill="#8abfd1"/><path d="M202.014264,373.468821c1.948151,2.813319,40.574615,4.050846,70,4.993584,62.146667,1.991073,148.674866,1.129805,155-3.745188,4.539612-3.498824-32.87146-8.573775-66-10.522195-74.040131-4.35459-162.079895,4.826179-159,9.273799Z" fill="#c1272d"/><rect x="281" y="301" width="67" height="10" fill="#5b451f"/><rect x="288" y="306" width="12" height="62" fill="#5b451f"/><rect x="329" y="306" width="12" height="62" fill="#5b451f"/><path d="M333.365037,266.413844c-.850744-1.440099-3.759525-6.667246-8.235952-10.445827-2.850705-2.405689-7.643245-4.652313-11.115716-4.911129-6.702194-.499686-13.078835,2.349217-17.823219,6.313246-4.744384,3.964028-8.425986,9.518989-9.130546,16.207166-.365113,3.465195.991937,8.588545,2.845686,11.820905,2.916727,5.08174,7.53755,8.878443,8.801796,9.973053,1.721333,1.494853,2.575376,4.023417,3.866122,5.865416,1.407013,2.003472,3.482838,2.735368,5.887049,2.473825,2.004024-.217335,3.884029-1.018582,5.831982-1.517066,2.318178-.593355,3.197676,3.522395,5.013922,4.452253.916138.470848,2.009454.408893,3.000489.180093,1.263379-.286044,2.518313-.855183,3.271744-1.907306-.114078.15839,1.029248.672803,1.87882.562194.774509-.104659,1.674916-.301895,2.367435-.659742,1.377786-.709634,2.161673-2.108891,2.563543-3.08804.218075-.535433.675101-.917288,1.236879-1.033437,1.034505-.220971,2.550265-.743115,3.49389-1.973067.709797-.927355,1.046179-2.110403,1.024852-3.272118-.011742-.545262.245647-1.063085.680333-1.375811,1.286967-.936518,2.726492-3.00342,1.963071-5.563548-.421125-1.4269-1.907737-2.278948-2.521521-3.62688-1.03914-2.285605.360902-4.237516,1.074705-6.303598.949127-2.735773,1.003662-4.957478-.452719-6.806164-1.549412-1.960178-4.524683-3.681484-5.522647-5.364419Z" fill="none" stroke="#000" stroke-linecap="round" stroke-linejoin="round"/><ellipse cx="306.199663" cy="286.947878" rx="5.910221" ry="6.642928" transform="translate(-98.200415 174.885861) rotate(-27.652589)" fill="none" stroke="#000" stroke-linecap="round" stroke-linejoin="round"/><ellipse cx="323.743096" cy="272.288911" rx="5.911799" ry="6.641154" transform="translate(-90.480614 358.135058) rotate(-51.774569)" fill="none" stroke="#000" stroke-linecap="round" stroke-linejoin="round"/><path d="M319.05411,290.437454c-1.373812-1.646444-3.476712-6.815232-1.866232-8.160821,1.61048-1.345589,6.314613,1.643513,7.691527,3.293674,2.794141,3.348638-2.022613,3.500233-2.022613,3.500233,0,0-.847281,4.908812-3.802682,1.366913Z" fill="none" stroke="#000" stroke-linecap="round" stroke-linejoin="round"/><path d="M324.048656,306.272296c-.506593.27819-1.034835.486167-1.637397.516545.24629-.331931.486377-.671298.651454-1.048917.402865-.948445-.09905-1.513078-.538501-2.356976-.386788-.736517-.777202-1.470004-1.139125-2.220988-.242141-.504146-.305552-1.126083.161197-1.415137.584339-.362076.95144-.025413,1.345065.62339.363142.604892,2.675003,4.659249,2.678105,4.662967.104331.184058-1.033865.952121-1.147831,1.022111-.121221.076051-.245543.148385-.372965.217004Z" fill="none" stroke="#000" stroke-linecap="round" stroke-linejoin="round"/><path d="M339.794356,293.116447c.363936-.449154.662696-.932154.800086-1.52002-.370334.18327-.746872.359106-1.147642.454263-1.004491.227429-1.470134-.36751-2.221525-.950776-.655202-.512252-1.306776-1.027535-1.980638-1.517887-.45252-.32837-1.052755-.50178-1.420265-.093793-.460296.510738-.194758.932259.372975,1.435591.529994.465483,4.104123,3.465191,4.107225,3.468908.162368.135568,1.120697-.848058,1.209853-.947781.096412-.105786.18972-.215286.279931-.328504Z" fill="none" stroke="#000" stroke-linecap="round" stroke-linejoin="round"/><path d="M331.713649,303.034481s-.125577-1.825219-.744703-2.62623c-1.102323-1.431744-2.589132-3.36854-3.494672-4.453783-.359735-.431124-.381833-.974042.042551-1.328623.420757-.351551.898413-.258646,1.258148.172479.015507.018584,2.216023,2.456598,3.679769,4.210824.676052.810214,2.556562,1.263767,2.556562,1.263767-.502272.135815-1.406834.342828-2.034922.918071-.792888.731859-1.262733,1.843495-1.262733,1.843495Z" fill="none" stroke="#000" stroke-linecap="round" stroke-linejoin="round"/><path d="M202.014264,373.468821c1.948151,2.813319,40.574615,4.050846,70,4.993584,62.146667,1.991073,148.674866,1.129805,155-3.745188,4.539612-3.498824-32.87146-8.573775-66-10.522195-74.040131-4.35459-162.079895,4.826179-159,9.273799Z" fill="none" stroke="#000" stroke-linecap="round" stroke-linejoin="round"/><rect x="281" y="301" width="67" height="10" fill="none" stroke="#000" stroke-linecap="round" stroke-linejoin="round"/><rect x="288" y="306" width="12" height="62" fill="none" stroke="#000" stroke-linecap="round" stroke-linejoin="round"/><rect x="329" y="306" width="12" height="62" fill="none" stroke="#000" stroke-linecap="round" stroke-linejoin="round"/><text transform="translate(72.609673 92.500183)" fill="#333" font-family="ComicNeue-Regular, &apos;Comic Neue&apos;" font-size="24"><tspan x="0" y="0">And so, those who have gone </tspan><tspan x="0" y="28.799805">insane were tried and executed.</tspan></text><g id="uuid-6cc4ae73-d56a-44d4-863f-1e7abaf22bf8"><polygon id="uuid-8bcfcd2a-1bfc-4f8c-af3d-8813c8c56f44" points="153.548143 388.854647 135.296626 387.703217 133.295431 419.424523 132.89243 425.812564 160.269748 427.539711 160.672749 421.15167 151.546948 420.575953 153.548143 388.854647" fill="#35353d"/><rect id="uuid-abc05dd6-d14c-4383-8782-764826bdae04" x="134.295803" y="353.654792" width="18.287815" height="36.099962" transform="translate(-29.022061 12.544188) rotate(-4.547947)" fill="#35353d"/><polygon id="uuid-7f27207a-d4f2-4b80-8cc4-dff1ad3b4060" points="100.670545 384.161243 118.685583 387.131465 113.452327 418.872295 122.88879 420.428127 121.757275 427.29101 94.305746 422.76495 95.372635 416.294042 95.372663 416.294047 100.670545 384.161243" fill="#35353d"/><rect id="uuid-fa5d414e-4043-469a-b929-aa55db7f2fbe" x="100.999985" y="354" width="18.000029" height="36.000001" fill="#35353d"/><polygon id="uuid-09b6e8f9-b7c1-4db5-bd70-bc860b09f752" points="134.190924 294.957433 134.213834 295 134.094345 295 127.514252 259.796402 132.312025 252 117.827814 252 122.625588 259.796402 116.045495 295 115.926005 295 115.948915 294.957433 115.926005 295 116.043262 295 125.06992 306.81472 134.096577 295 134.213834 295 134.190924 294.957433" fill="#da1f36"/><path id="uuid-ed97ebbd-3c86-44e2-9767-7e087038f6bc" d="M151.5,243.5v111s-51,0-51,0v-111s51,0,51,0ZM143.194182,244.5h-36.248524s18.124262,54.585547,18.124262,54.585547l18.124262-54.585547Z" fill="#fff" stroke="#999" stroke-miterlimit="10"/><path id="uuid-33634e3f-457c-4e0b-8c32-b5a84d2c7c13" d="M149.838793,230.722118c1.660882-4.964094,2.504736-10.521623,2.30244-16.368243-.698516-20.188079-13.539042-36.129089-28.680115-35.605201-15.141073.523888-26.849077,17.314288-26.150561,37.502367.202296,5.84662,1.428257,11.332532,3.428276,16.169957l49.09996-1.69888Z" fill="#eec6a2"/><path id="uuid-55da1b32-18c2-4dfb-be4a-0afd9f8f2806" d="M102.077612,237c4.869843,10.185497,13.41087,16.947049,23.141683,16.947049s18.27184-6.761552,23.141683-16.947049h-46.283366Z" fill="#eec6a2"/><ellipse id="uuid-2f4265d0-be18-411d-99bb-cb346efd664d" cx="141.5" cy="219" rx="4.000888" ry="2.498496" transform="translate(-81.274832 354.47924) rotate(-88.438377)" fill="#333"/><ellipse id="uuid-b028f831-9d17-427b-ae83-207550690678" cx="126.5" cy="219" rx="4.000888" ry="2.498496" transform="translate(-95.86605 339.484811) rotate(-88.438377)" fill="#333"/><path id="uuid-11e4fbf0-81e0-48b6-8fe2-2d384e6d5da2" d="M101.006034,185.826648c8.619243-9.809536,26.561136-9.80699,35.447347-9.80572,11.126483.001581,24.199548,1.886893,24.599926,5.225783.354796,2.958771-9.480788,5.066745-9.350664,9.617698.094641,3.310077,5.383566,5.192051,4.841864,6.088155-1.149079,1.900864-24.015173-8.110547-28.743314-3.295082-2.124263,2.163489.864894,5.840736-1.428811,7.377526-2.369677,1.587703-6.2095-1.902191-15.286811-3.760682-7.812204-1.599473-11.601794-.372744-13.140994-2.583792-2.047733-2.941529,2.496084-8.220448,3.061459-8.863888Z" fill="#534741"/><rect id="uuid-883403e9-0c08-4c3a-b3a0-c2a60369ef82" x="152.113561" y="242.862808" width="13.715847" height="29.260522" transform="translate(-30.845112 21.814743) rotate(-7.157737)" fill="#fff" stroke="#999" stroke-miterlimit="10"/><rect id="uuid-555a35e5-befe-4628-bcb1-6391b5bc8122" x="75.522555" y="249.34436" width="29.260522" height="13.715847" transform="translate(-180.983526 240.320701) rotate(-67.261757)" fill="#fff" stroke="#999" stroke-miterlimit="10"/><rect id="uuid-a247c4f2-03e7-4c67-bdf0-f28110710708" x="69.019077" y="274.685519" width="29.260522" height="13.715847" transform="translate(-203.75999 342.039722) rotate(-85.339364)" fill="#fff" stroke="#999" stroke-miterlimit="10"/><rect id="uuid-48185371-5831-4f08-ad7a-539f73d87d96" x="74.62998" y="294.917973" width="14.630263" height="14.630263" transform="translate(-225.946992 359.34968) rotate(-85.339364)" fill="#eec6a2"/><rect id="uuid-0615ee47-c4e4-4e81-b398-2a2b0738357c" x="155.798359" y="270.701359" width="13.715847" height="29.260522" transform="translate(-34.285118 22.490823) rotate(-7.157737)" fill="#fff" stroke="#999" stroke-miterlimit="10"/><rect id="uuid-00ffbbe1-bfe4-4b63-bb62-aa182f715361" x="157.171203" y="298.147999" width="14.630263" height="14.630263" transform="translate(-19.437972 11.294254) rotate(-3.713357)" fill="#eec6a2"/><polygon id="uuid-c67e9a60-4d59-4208-a9ac-d5c5c3c20ac2" points="153.548143 388.854647 135.296626 387.703217 133.295431 419.424523 132.89243 425.812564 160.269748 427.539711 160.672749 421.15167 151.546948 420.575953 153.548143 388.854647" fill="none" stroke="#000" stroke-linecap="round" stroke-linejoin="round"/><rect id="uuid-5b24d3c5-8da9-46b9-9830-a7554864cc0e" x="134.295803" y="353.654792" width="18.287815" height="36.099962" transform="translate(-29.022061 12.544188) rotate(-4.547947)" fill="none" stroke="#000" stroke-linecap="round" stroke-linejoin="round"/><polygon id="uuid-9fde6104-491c-444c-b98b-7793722df49e" points="100.670545 384.161243 118.685583 387.131465 113.452327 418.872295 122.88879 420.428127 121.757275 427.29101 94.305746 422.76495 95.372635 416.294042 95.372663 416.294047 100.670545 384.161243" fill="none" stroke="#000" stroke-linecap="round" stroke-linejoin="round"/><rect id="uuid-fc74fcb3-27ce-4c70-8ef8-8cfd90621f08" x="100.999985" y="354" width="18.000029" height="36.000001" fill="none" stroke="#000" stroke-linecap="round" stroke-linejoin="round"/><polygon id="uuid-3875a6be-9de2-42a9-8ff5-3b9b5aeed581" points="134.190924 294.957433 134.213834 295 134.094345 295 127.514252 259.796402 132.312025 252 117.827814 252 122.625588 259.796402 116.045495 295 115.926005 295 115.948915 294.957433 115.926005 295 116.043262 295 125.06992 306.81472 134.096577 295 134.213834 295 134.190924 294.957433" fill="none" stroke="#000" stroke-linecap="round" stroke-linejoin="round"/><path id="uuid-255517f1-51d6-4333-bd49-86b1dc7b5720" d="M151.5,243.5v111s-51,0-51,0v-111s51,0,51,0ZM143.194182,244.5h-36.248524s18.124262,54.585547,18.124262,54.585547l18.124262-54.585547Z" fill="none" stroke="#000" stroke-linecap="round" stroke-linejoin="round"/><path id="uuid-69af3a10-fcc0-472a-919e-09d014e40221" d="M149.838793,230.722118c1.660882-4.964094,2.504736-10.521623,2.30244-16.368243-.698516-20.188079-13.539042-36.129089-28.680115-35.605201-15.141073.523888-26.849077,17.314288-26.150561,37.502367.202296,5.84662,1.428257,11.332532,3.428276,16.169957l49.09996-1.69888Z" fill="none" stroke="#000" stroke-linecap="round" stroke-linejoin="round"/><path id="uuid-df671046-2053-4855-8007-6ca2079dc2ab" d="M102.077612,237c4.869843,10.185497,13.41087,16.947049,23.141683,16.947049s18.27184-6.761552,23.141683-16.947049h-46.283366Z" fill="none" stroke="#000" stroke-linecap="round" stroke-linejoin="round"/><ellipse id="uuid-6dadfb55-5792-40dc-961d-34182e966c59" cx="141.5" cy="219" rx="4.000888" ry="2.498496" transform="translate(-81.274832 354.47924) rotate(-88.438377)" fill="none" stroke="#000" stroke-linecap="round" stroke-linejoin="round"/><ellipse id="uuid-44dcf4d0-4894-481a-8bc6-7806b34759e3" cx="126.5" cy="219" rx="4.000888" ry="2.498496" transform="translate(-95.86605 339.484811) rotate(-88.438377)" fill="none" stroke="#000" stroke-linecap="round" stroke-linejoin="round"/><path id="uuid-711b94f3-8c8e-4b9e-9677-4a83e25b4062" d="M101.006034,185.826648c8.619243-9.809536,26.561136-9.80699,35.447347-9.80572,11.126483.001581,24.199548,1.886893,24.599926,5.225783.354796,2.958771-9.480788,5.066745-9.350664,9.617698.094641,3.310077,5.383566,5.192051,4.841864,6.088155-1.149079,1.900864-24.015173-8.110547-28.743314-3.295082-2.124263,2.163489.864894,5.840736-1.428811,7.377526-2.369677,1.587703-6.2095-1.902191-15.286811-3.760682-7.812204-1.599473-11.601794-.372744-13.140994-2.583792-2.047733-2.941529,2.496084-8.220448,3.061459-8.863888Z" fill="none" stroke="#000" stroke-linecap="round" stroke-linejoin="round"/><rect id="uuid-e406e732-d01d-457f-8d0b-1bf82a7cec8a" x="152.113561" y="242.862808" width="13.715847" height="29.260522" transform="translate(-30.845112 21.814743) rotate(-7.157737)" fill="none" stroke="#000" stroke-linecap="round" stroke-linejoin="round"/><rect id="uuid-bf6005ff-73ea-4047-ac75-4ffc5bedf5be" x="75.522555" y="249.34436" width="29.260522" height="13.715847" transform="translate(-180.983526 240.320701) rotate(-67.261757)" fill="none" stroke="#000" stroke-linecap="round" stroke-linejoin="round"/><rect id="uuid-dc96d68b-1953-48f1-9151-91b39ad34703" x="69.019077" y="274.685519" width="29.260522" height="13.715847" transform="translate(-203.75999 342.039722) rotate(-85.339364)" fill="none" stroke="#000" stroke-linecap="round" stroke-linejoin="round"/><rect id="uuid-5957d50b-8fc0-42d5-89f6-24a25d6be03b" x="74.62998" y="294.917973" width="14.630263" height="14.630263" transform="translate(-225.946992 359.34968) rotate(-85.339364)" fill="none" stroke="#000" stroke-linecap="round" stroke-linejoin="round"/><rect id="uuid-65a2c837-1a89-4c8e-86d6-e8916c48b5a2" x="155.798359" y="270.701359" width="13.715847" height="29.260522" transform="translate(-34.285118 22.490823) rotate(-7.157737)" fill="none" stroke="#000" stroke-linecap="round" stroke-linejoin="round"/><rect id="uuid-c910f71f-edd0-4602-9272-5f01a365f291" x="157.171203" y="298.147999" width="14.630263" height="14.630263" transform="translate(-19.437972 11.294254) rotate(-3.713357)" fill="none" stroke="#000" stroke-linecap="round" stroke-linejoin="round"/></g></svg>