<?xml version="1.0" encoding="UTF-8"?><svg id="uuid-9cf2b5bf-8499-458b-a43f-1370b9a91f36" xmlns="http://www.w3.org/2000/svg" viewBox="0 0 500 500"><path d="M333.37,266.41c-.85-1.44-3.76-6.67-8.24-10.45-2.85-2.41-7.64-4.65-11.12-4.91-6.7-.5-13.08,2.35-17.82,6.31-4.74,3.96-8.43,9.52-9.13,16.21-.37,3.47.99,8.59,2.85,11.82,2.92,5.08,7.54,8.88,8.8,9.97,1.72,1.49,2.58,4.02,3.87,5.87,1.41,2,3.48,2.74,5.89,2.47,2-.22,3.88-1.02,5.83-1.52,2.32-.59,3.2,3.52,5.01,4.45.92.47,2.01.41,3,.18,1.26-.29,2.52-.86,3.27-1.91-.11.16,1.03.67,1.88.56.77-.1,1.67-.3,2.37-.66,1.38-.71,2.16-2.11,2.56-3.09.22-.54.68-.92,1.24-1.03,1.03-.22,2.55-.74,3.49-1.97.71-.93,1.05-2.11,1.02-3.27-.01-.55.25-1.06.68-1.38,1.29-.94,2.73-3,1.96-5.56-.42-1.43-1.91-2.28-2.52-3.63-1.04-2.29.36-4.24,1.07-6.3.95-2.74,1-4.96-.45-6.81-1.55-1.96-4.52-3.68-5.52-5.36Z" fill="#ccc"/><ellipse cx="306" cy="286.5" rx="5.85" ry="6.63" transform="translate(-92.56 156.62) rotate(-25.07)" fill="#424242"/><path d="M317.99,268.27c1.9-2.6,5.91-3.03,8.95-.97s3.97,5.83,2.07,8.43c-1.9,2.6-5.91,3.03-8.95.97-3.05-2.06-3.97-5.83-2.07-8.43Z" fill="#424242"/><path d="M319.05,290.44c-1.37-1.65-3.48-6.82-1.87-8.16,1.61-1.35,6.31,1.64,7.69,3.29,2.79,3.35-2.02,3.5-2.02,3.5,0,0-.85,4.91-3.8,1.37Z" fill="#424242"/><path d="M324.05,306.27c-.51.28-1.03.49-1.64.52.25-.33.49-.67.65-1.05.4-.95-.1-1.51-.54-2.36-.39-.74-.78-1.47-1.14-2.22-.24-.5-.31-1.13.16-1.42.58-.36.95-.03,1.35.62.36.6,2.68,4.66,2.68,4.66.1.18-1.03.95-1.15,1.02-.12.08-.25.15-.37.22Z" fill="#8abfd1"/><path d="M339.79,293.12c.36-.45.66-.93.8-1.52-.37.18-.75.36-1.15.45-1,.23-1.47-.37-2.22-.95-.66-.51-1.31-1.03-1.98-1.52-.45-.33-1.05-.5-1.42-.09-.46.51-.19.93.37,1.44.53.47,4.1,3.47,4.11,3.47.16.14,1.12-.85,1.21-.95.1-.11.19-.22.28-.33Z" fill="#8abfd1"/><path d="M331.71,303.03s-.13-1.83-.74-2.63c-1.1-1.43-2.59-3.37-3.49-4.45-.36-.43-.38-.97.04-1.33s.9-.26,1.26.17c.02.02,2.22,2.46,3.68,4.21.68.81,2.56,1.26,2.56,1.26-.5.14-1.41.34-2.03.92-.79.73-1.26,1.84-1.26,1.84Z" fill="#8abfd1"/><path d="M202.01,373.47c1.95,2.81,40.57,4.05,70,4.99,62.15,1.99,148.67,1.13,155-3.75,4.54-3.5-32.87-8.57-66-10.52-74.04-4.35-162.08,4.83-159,9.27Z" fill="#c1272d"/><rect x="281" y="301" width="67" height="10" fill="#5b451f"/><rect x="288" y="306" width="12" height="62" fill="#5b451f"/><rect x="329" y="306" width="12" height="62" fill="#5b451f"/><path d="M333.37,266.41c-.85-1.44-3.76-6.67-8.24-10.45-2.85-2.41-7.64-4.65-11.12-4.91-6.7-.5-13.08,2.35-17.82,6.31-4.74,3.96-8.43,9.52-9.13,16.21-.37,3.47.99,8.59,2.85,11.82,2.92,5.08,7.54,8.88,8.8,9.97,1.72,1.49,2.58,4.02,3.87,5.87,1.41,2,3.48,2.74,5.89,2.47,2-.22,3.88-1.02,5.83-1.52,2.32-.59,3.2,3.52,5.01,4.45.92.47,2.01.41,3,.18,1.26-.29,2.52-.86,3.27-1.91-.11.16,1.03.67,1.88.56.77-.1,1.67-.3,2.37-.66,1.38-.71,2.16-2.11,2.56-3.09.22-.54.68-.92,1.24-1.03,1.03-.22,2.55-.74,3.49-1.97.71-.93,1.05-2.11,1.02-3.27-.01-.55.25-1.06.68-1.38,1.29-.94,2.73-3,1.96-5.56-.42-1.43-1.91-2.28-2.52-3.63-1.04-2.29.36-4.24,1.07-6.3.95-2.74,1-4.96-.45-6.81-1.55-1.96-4.52-3.68-5.52-5.36Z" fill="none" stroke="#000" stroke-linecap="round" stroke-linejoin="round"/><ellipse cx="306" cy="286.5" rx="5.85" ry="6.63" transform="translate(-92.56 156.62) rotate(-25.07)" fill="none" stroke="#000" stroke-linecap="round" stroke-linejoin="round"/><path d="M317.99,268.27c1.9-2.6,5.91-3.03,8.95-.97s3.97,5.83,2.07,8.43c-1.9,2.6-5.91,3.03-8.95.97-3.05-2.06-3.97-5.83-2.07-8.43Z" fill="none" stroke="#000" stroke-linecap="round" stroke-linejoin="round"/><path d="M319.05,290.44c-1.37-1.65-3.48-6.82-1.87-8.16,1.61-1.35,6.31,1.64,7.69,3.29,2.79,3.35-2.02,3.5-2.02,3.5,0,0-.85,4.91-3.8,1.37Z" fill="none" stroke="#000" stroke-linecap="round" stroke-linejoin="round"/><path d="M324.05,306.27c-.51.28-1.03.49-1.64.52.25-.33.49-.67.65-1.05.4-.95-.1-1.51-.54-2.36-.39-.74-.78-1.47-1.14-2.22-.24-.5-.31-1.13.16-1.42.58-.36.95-.03,1.35.62.36.6,2.68,4.66,2.68,4.66.1.18-1.03.95-1.15,1.02-.12.08-.25.15-.37.22Z" fill="none" stroke="#000" stroke-linecap="round" stroke-linejoin="round"/><path d="M339.79,293.12c.36-.45.66-.93.8-1.52-.37.18-.75.36-1.15.45-1,.23-1.47-.37-2.22-.95-.66-.51-1.31-1.03-1.98-1.52-.45-.33-1.05-.5-1.42-.09-.46.51-.19.93.37,1.44.53.47,4.1,3.47,4.11,3.47.16.14,1.12-.85,1.21-.95.1-.11.19-.22.28-.33Z" fill="none" stroke="#000" stroke-linecap="round" stroke-linejoin="round"/><path d="M331.71,303.03s-.13-1.83-.74-2.63c-1.1-1.43-2.59-3.37-3.49-4.45-.36-.43-.38-.97.04-1.33s.9-.26,1.26.17c.02.02,2.22,2.46,3.68,4.21.68.81,2.56,1.26,2.56,1.26-.5.14-1.41.34-2.03.92-.79.73-1.26,1.84-1.26,1.84Z" fill="none" stroke="#000" stroke-linecap="round" stroke-linejoin="round"/><path d="M333.37,266.41c-.85-1.44-3.76-6.67-8.24-10.45-2.85-2.41-7.64-4.65-11.12-4.91-6.7-.5-13.08,2.35-17.82,6.31-4.74,3.96-8.43,9.52-9.13,16.21-.37,3.47.99,8.59,2.85,11.82,2.92,5.08,7.54,8.88,8.8,9.97,1.72,1.49,2.58,4.02,3.87,5.87,1.41,2,3.48,2.74,5.89,2.47,2-.22,3.88-1.02,5.83-1.52,2.32-.59,3.2,3.52,5.01,4.45.92.47,2.01.41,3,.18,1.26-.29,2.52-.86,3.27-1.91-.11.16,1.03.67,1.88.56.77-.1,1.67-.3,2.37-.66,1.38-.71,2.16-2.11,2.56-3.09.22-.54.68-.92,1.24-1.03,1.03-.22,2.55-.74,3.49-1.97.71-.93,1.05-2.11,1.02-3.27-.01-.55.25-1.06.68-1.38,1.29-.94,2.73-3,1.96-5.56-.42-1.43-1.91-2.28-2.52-3.63-1.04-2.29.36-4.24,1.07-6.3.95-2.74,1-4.96-.45-6.81-1.55-1.96-4.52-3.68-5.52-5.36Z" fill="none" stroke="#000" stroke-linecap="round" stroke-linejoin="round"/><ellipse cx="306" cy="286.5" rx="5.85" ry="6.63" transform="translate(-92.56 156.62) rotate(-25.07)" fill="none" stroke="#000" stroke-linecap="round" stroke-linejoin="round"/><path d="M317.99,268.27c1.9-2.6,5.91-3.03,8.95-.97s3.97,5.83,2.07,8.43c-1.9,2.6-5.91,3.03-8.95.97-3.05-2.06-3.97-5.83-2.07-8.43Z" fill="none" stroke="#000" stroke-linecap="round" stroke-linejoin="round"/><path d="M319.05,290.44c-1.37-1.65-3.48-6.82-1.87-8.16,1.61-1.35,6.31,1.64,7.69,3.29,2.79,3.35-2.02,3.5-2.02,3.5,0,0-.85,4.91-3.8,1.37Z" fill="none" stroke="#000" stroke-linecap="round" stroke-linejoin="round"/><path d="M324.05,306.27c-.51.28-1.03.49-1.64.52.25-.33.49-.67.65-1.05.4-.95-.1-1.51-.54-2.36-.39-.74-.78-1.47-1.14-2.22-.24-.5-.31-1.13.16-1.42.58-.36.95-.03,1.35.62.36.6,2.68,4.66,2.68,4.66.1.18-1.03.95-1.15,1.02-.12.08-.25.15-.37.22Z" fill="none" stroke="#000" stroke-linecap="round" stroke-linejoin="round"/><path d="M339.79,293.12c.36-.45.66-.93.8-1.52-.37.18-.75.36-1.15.45-1,.23-1.47-.37-2.22-.95-.66-.51-1.31-1.03-1.98-1.52-.45-.33-1.05-.5-1.42-.09-.46.51-.19.93.37,1.44.53.47,4.1,3.47,4.11,3.47.16.14,1.12-.85,1.21-.95.1-.11.19-.22.28-.33Z" fill="none" stroke="#000" stroke-linecap="round" stroke-linejoin="round"/><path d="M331.71,303.03s-.13-1.83-.74-2.63c-1.1-1.43-2.59-3.37-3.49-4.45-.36-.43-.38-.97.04-1.33s.9-.26,1.26.17c.02.02,2.22,2.46,3.68,4.21.68.81,2.56,1.26,2.56,1.26-.5.14-1.41.34-2.03.92-.79.73-1.26,1.84-1.26,1.84Z" fill="none" stroke="#000" stroke-linecap="round" stroke-linejoin="round"/><path d="M202.01,373.47c1.95,2.81,40.57,4.05,70,4.99,62.15,1.99,148.67,1.13,155-3.75,4.54-3.5-32.87-8.57-66-10.52-74.04-4.35-162.08,4.83-159,9.27Z" fill="none" stroke="#000" stroke-linecap="round" stroke-linejoin="round"/><rect x="281" y="301" width="67" height="10" fill="none" stroke="#000" stroke-linecap="round" stroke-linejoin="round"/><rect x="288" y="306" width="12" height="62" fill="none" stroke="#000" stroke-linecap="round" stroke-linejoin="round"/><rect x="329" y="306" width="12" height="62" fill="none" stroke="#000" stroke-linecap="round" stroke-linejoin="round"/><text transform="translate(72.61 92.5)" fill="#333" font-family="ComicNeue-Regular, &apos;Comic Neue&apos;" font-size="24"><tspan x="0" y="0">And so, those who have gone </tspan><tspan x="0" y="28.8">insane were tried and executed.</tspan></text><g id="uuid-16b22a37-060d-4121-9914-6081d148d460"><polygon id="uuid-ac320e93-78b1-457f-9a4c-506c63b18045" points="153.55 388.85 135.3 387.7 133.3 419.42 132.89 425.81 160.27 427.54 160.67 421.15 151.55 420.58 153.55 388.85" fill="#35353d"/><rect id="uuid-8a8215dc-f645-451c-83b2-b8bdd6290478" x="134.3" y="353.65" width="18.29" height="36.1" transform="translate(-29.02 12.54) rotate(-4.55)" fill="#35353d"/><polygon id="uuid-f04517fd-8f8f-4a83-902e-3fbf66cd2ae6" points="100.67 384.16 118.69 387.13 113.45 418.87 122.89 420.43 121.76 427.29 94.31 422.76 95.37 416.29 95.37 416.29 100.67 384.16" fill="#35353d"/><rect id="uuid-1626e2eb-b166-4bce-b9c9-2a0325221fb7" x="101" y="354" width="18" height="36" fill="#35353d"/><polygon id="uuid-295fddb0-a4a7-41a0-91e1-5d87badfbd37" points="134.19 294.96 134.21 295 134.09 295 127.51 259.8 132.31 252 117.83 252 122.63 259.8 116.05 295 115.93 295 115.95 294.96 115.93 295 116.04 295 125.07 306.81 134.1 295 134.21 295 134.19 294.96" fill="#da1f36"/><path id="uuid-96d9c6e4-db80-4200-ab4c-6f83e3135ea4" d="M151.5,243.5v111s-51,0-51,0v-111s51,0,51,0ZM143.19,244.5h-36.25s18.12,54.59,18.12,54.59l18.12-54.59Z" fill="#fff" stroke="#999" stroke-miterlimit="10"/><path id="uuid-d5db7374-645b-43ff-9b14-a0a82832286f" d="M149.84,230.72c1.66-4.96,2.5-10.52,2.3-16.37-.7-20.19-13.54-36.13-28.68-35.61-15.14.52-26.85,17.31-26.15,37.5.2,5.85,1.43,11.33,3.43,16.17l49.1-1.7Z" fill="#eec6a2"/><path id="uuid-8d1a418b-43cb-44d1-9be5-5b102c0b9bcd" d="M102.08,237c4.87,10.19,13.41,16.95,23.14,16.95s18.27-6.76,23.14-16.95h-46.28Z" fill="#eec6a2"/><ellipse id="uuid-2aed76df-2bad-4633-a3e4-3972615a5220" cx="141.5" cy="219" rx="4" ry="2.5" transform="translate(-81.27 354.48) rotate(-88.44)" fill="#333"/><ellipse id="uuid-56bb0213-cd78-4f33-a004-10ee0acba6c0" cx="126.5" cy="219" rx="4" ry="2.5" transform="translate(-95.87 339.48) rotate(-88.44)" fill="#333"/><path id="uuid-183f7363-ad2a-4b95-a09d-efa365affa97" d="M101.01,185.83c8.62-9.81,26.56-9.81,35.45-9.81,11.13,0,24.2,1.89,24.6,5.23.35,2.96-9.48,5.07-9.35,9.62.09,3.31,5.38,5.19,4.84,6.09-1.15,1.9-24.02-8.11-28.74-3.3-2.12,2.16.86,5.84-1.43,7.38-2.37,1.59-6.21-1.9-15.29-3.76-7.81-1.6-11.6-.37-13.14-2.58-2.05-2.94,2.5-8.22,3.06-8.86Z" fill="#534741"/><rect id="uuid-c7ca5b6b-a4f7-43a4-94c0-4bf728fd1cad" x="152.11" y="242.86" width="13.72" height="29.26" transform="translate(-30.85 21.81) rotate(-7.16)" fill="#fff" stroke="#999" stroke-miterlimit="10"/><rect id="uuid-764be0bd-2536-4ce5-92ff-9f7db4052add" x="75.52" y="249.34" width="29.26" height="13.72" transform="translate(-180.98 240.32) rotate(-67.26)" fill="#fff" stroke="#999" stroke-miterlimit="10"/><rect id="uuid-4c0d2f1c-481e-4722-8867-465c21989f69" x="69.02" y="274.69" width="29.26" height="13.72" transform="translate(-203.76 342.04) rotate(-85.34)" fill="#fff" stroke="#999" stroke-miterlimit="10"/><rect id="uuid-a755a003-0da2-42f6-b29b-f46166279b04" x="74.63" y="294.92" width="14.63" height="14.63" transform="translate(-225.95 359.35) rotate(-85.34)" fill="#eec6a2"/><rect id="uuid-9dc84bf6-2c55-43c3-b7ed-8c63cf35679f" x="155.8" y="270.7" width="13.72" height="29.26" transform="translate(-34.29 22.49) rotate(-7.16)" fill="#fff" stroke="#999" stroke-miterlimit="10"/><rect id="uuid-a7dbfc19-8d10-40b9-9e54-acaaa99ccc2c" x="157.17" y="298.15" width="14.63" height="14.63" transform="translate(-19.44 11.29) rotate(-3.71)" fill="#eec6a2"/><polygon id="uuid-4f39b1d5-9fcc-4d5f-8be4-79f8855795b4" points="153.55 388.85 135.3 387.7 133.3 419.42 132.89 425.81 160.27 427.54 160.67 421.15 151.55 420.58 153.55 388.85" fill="none" stroke="#000" stroke-linecap="round" stroke-linejoin="round"/><rect id="uuid-f6d72c37-bd3e-409d-a3f8-817f404f38c6" x="134.3" y="353.65" width="18.29" height="36.1" transform="translate(-29.02 12.54) rotate(-4.55)" fill="none" stroke="#000" stroke-linecap="round" stroke-linejoin="round"/><polygon id="uuid-78abfc0f-a039-46b7-ba00-922ee75c2c9c" points="100.67 384.16 118.69 387.13 113.45 418.87 122.89 420.43 121.76 427.29 94.31 422.76 95.37 416.29 95.37 416.29 100.67 384.16" fill="none" stroke="#000" stroke-linecap="round" stroke-linejoin="round"/><rect id="uuid-1dac3d88-44a7-440a-8d11-7aa84c065837" x="101" y="354" width="18" height="36" fill="none" stroke="#000" stroke-linecap="round" stroke-linejoin="round"/><polygon id="uuid-5ae017ae-8751-445a-a7b5-c20c7858a159" points="134.19 294.96 134.21 295 134.09 295 127.51 259.8 132.31 252 117.83 252 122.63 259.8 116.05 295 115.93 295 115.95 294.96 115.93 295 116.04 295 125.07 306.81 134.1 295 134.21 295 134.19 294.96" fill="none" stroke="#000" stroke-linecap="round" stroke-linejoin="round"/><path id="uuid-2cb9b12c-9a0c-4a5b-983f-f0e9d3b8ba93" d="M151.5,243.5v111s-51,0-51,0v-111s51,0,51,0ZM143.19,244.5h-36.25s18.12,54.59,18.12,54.59l18.12-54.59Z" fill="none" stroke="#000" stroke-linecap="round" stroke-linejoin="round"/><path id="uuid-0f549c59-358a-467b-8ede-465635c60fe6" d="M149.84,230.72c1.66-4.96,2.5-10.52,2.3-16.37-.7-20.19-13.54-36.13-28.68-35.61-15.14.52-26.85,17.31-26.15,37.5.2,5.85,1.43,11.33,3.43,16.17l49.1-1.7Z" fill="none" stroke="#000" stroke-linecap="round" stroke-linejoin="round"/><path id="uuid-d3524e72-48f8-42ce-a7e1-677461a2bdf0" d="M102.08,237c4.87,10.19,13.41,16.95,23.14,16.95s18.27-6.76,23.14-16.95h-46.28Z" fill="none" stroke="#000" stroke-linecap="round" stroke-linejoin="round"/><ellipse id="uuid-9d225456-400f-4542-a0f3-5c653d3c22f2" cx="141.5" cy="219" rx="4" ry="2.5" transform="translate(-81.27 354.48) rotate(-88.44)" fill="none" stroke="#000" stroke-linecap="round" stroke-linejoin="round"/><ellipse id="uuid-01b46397-2756-48e7-8c26-85e3a6f3703a" cx="126.5" cy="219" rx="4" ry="2.5" transform="translate(-95.87 339.48) rotate(-88.44)" fill="none" stroke="#000" stroke-linecap="round" stroke-linejoin="round"/><path id="uuid-e7c7bb66-f23f-45b4-80d4-8cae98fe3c53" d="M101.01,185.83c8.62-9.81,26.56-9.81,35.45-9.81,11.13,0,24.2,1.89,24.6,5.23.35,2.96-9.48,5.07-9.35,9.62.09,3.31,5.38,5.19,4.84,6.09-1.15,1.9-24.02-8.11-28.74-3.3-2.12,2.16.86,5.84-1.43,7.38-2.37,1.59-6.21-1.9-15.29-3.76-7.81-1.6-11.6-.37-13.14-2.58-2.05-2.94,2.5-8.22,3.06-8.86Z" fill="none" stroke="#000" stroke-linecap="round" stroke-linejoin="round"/><rect id="uuid-7a24ceac-42f3-41b5-a510-257247942f7f" x="152.11" y="242.86" width="13.72" height="29.26" transform="translate(-30.85 21.81) rotate(-7.16)" fill="none" stroke="#000" stroke-linecap="round" stroke-linejoin="round"/><rect id="uuid-360d35e2-c3c1-4696-9ed0-134052195301" x="75.52" y="249.34" width="29.26" height="13.72" transform="translate(-180.98 240.32) rotate(-67.26)" fill="none" stroke="#000" stroke-linecap="round" stroke-linejoin="round"/><rect id="uuid-3725983e-d362-4ccb-b1a5-dfeea1b37c09" x="69.02" y="274.69" width="29.26" height="13.72" transform="translate(-203.76 342.04) rotate(-85.34)" fill="none" stroke="#000" stroke-linecap="round" stroke-linejoin="round"/><rect id="uuid-589f968b-0ec7-4508-b49c-0f1922491f64" x="74.63" y="294.92" width="14.63" height="14.63" transform="translate(-225.95 359.35) rotate(-85.34)" fill="none" stroke="#000" stroke-linecap="round" stroke-linejoin="round"/><rect id="uuid-18e98af1-ae2d-4dcb-a802-eb50539560bb" x="155.8" y="270.7" width="13.72" height="29.26" transform="translate(-34.29 22.49) rotate(-7.16)" fill="none" stroke="#000" stroke-linecap="round" stroke-linejoin="round"/><rect id="uuid-a24b45b9-f2c4-437f-8d12-c9977de5b51c" x="157.17" y="298.15" width="14.63" height="14.63" transform="translate(-19.44 11.29) rotate(-3.71)" fill="none" stroke="#000" stroke-linecap="round" stroke-linejoin="round"/></g></svg>