<?xml version="1.0" encoding="UTF-8"?><svg id="uuid-7fd6e31a-0345-47c7-91fd-c6166bbd03c9" xmlns="http://www.w3.org/2000/svg" viewBox="0 0 500 500"><text transform="translate(61.893921 390.340332)" fill="#333" font-family="ComicNeue-Regular, &apos;Comic Neue&apos;" font-size="24"><tspan x="0" y="0">Because the government could only </tspan><tspan x="0" y="28.799805">afford to treat physical trauma.</tspan></text><path d="M265.717985,137.059229l-.063853-.247034h0c-1.200438-4.644234-5.894828-7.410263-10.539063-6.209826l-33.349555,8.620163h0c-4.990081,1.289831-8.012563,6.419463-6.722731,11.409544l.063853.247034c1.200437,4.644235,5.894828,7.410263,10.539063,6.209826l33.349556-8.620161h0c4.990078-1.289833,8.01256-6.419466,6.722729-11.409547h0ZM219.946187,147.783421c-.494067.127706-1.022575-.183701-1.150281-.677769-.127706-.494067.183701-1.022574.677768-1.15028s1.022575.183701,1.150281.677769-.183701,1.022574-.677768,1.15028ZM222.421958,144.718931c-.494067.127706-1.022575-.183701-1.150281-.677769s.183701-1.022574.677768-1.15028,1.022575.183701,1.150281.677769-.183701,1.022574-.677768,1.15028ZM221.082772,152.180619c-.494067.127706-1.022575-.183701-1.150281-.677769s.183701-1.022574.677768-1.15028,1.022575.183701,1.150281.677769-.183701,1.022574-.677768,1.15028ZM223.609624,149.31376c-.494067.127706-1.022575-.183701-1.150281-.677769s.183701-1.022574.677768-1.15028,1.022575.183701,1.150281.677769-.183701,1.022574-.677768,1.15028ZM226.090942,146.168776c-.494067.127706-1.022575-.183701-1.150281-.677769s.183701-1.022574.677768-1.15028,1.022575.183701,1.150281.677769-.183701,1.022574-.677768,1.15028ZM228.548395,143.135376c-.494067.127706-1.022575-.183701-1.150281-.677769s.183701-1.022574.677768-1.15028,1.022575.183701,1.150281.677769-.183701,1.022574-.677768,1.15028ZM224.720668,153.612146c-.494067.127706-1.022575-.183701-1.150281-.677769s.183701-1.022574.677768-1.15028,1.022575.183701,1.150281.677769c.127706.494067-.183701,1.022574-.677768,1.15028ZM227.209208,150.597066c-.494067.127706-1.022575-.183701-1.150281-.677769s.183701-1.022574.677768-1.15028,1.022575.183701,1.150281.677769-.183701,1.022574-.677768,1.15028ZM229.736061,147.730204c-.494067.127706-1.022575-.183701-1.150281-.677769s.183701-1.022574.677768-1.15028,1.022575.183701,1.150281.677769-.183701,1.022574-.677768,1.15028ZM230.859876,152.077996c-.494067.127706-1.022575-.183701-1.150281-.677769s.183701-1.022574.677768-1.15028,1.022575.183701,1.150281.677769c.127706.494067-.183701,1.022574-.677768,1.15028ZM250.386176,137.490766c-.494067.127706-1.022574-.183701-1.15028-.677768s.183701-1.022575.677769-1.150281,1.022574.183701,1.15028.677768-.183701,1.022575-.677769,1.150281ZM251.497222,141.789153c-.494067.127706-1.022574-.183701-1.15028-.677768s.183701-1.022575.677769-1.150281,1.022574.183701,1.15028.677768-.183701,1.022575-.677769,1.150281ZM254.005756,138.953381c-.494067.127706-1.022574-.183701-1.15028-.677768s.183701-1.022575.677769-1.150281,1.022574.183701,1.15028.677768-.183701,1.022575-.677769,1.150281ZM256.512614,135.90721c-.494067.127706-1.022574-.183701-1.15028-.677768s.183701-1.022575.677769-1.150281,1.022574.183701,1.15028.677768-.183701,1.022575-.677769,1.150281ZM252.715975,146.402299c-.494067.127706-1.022574-.183701-1.15028-.677768s.183701-1.022575.677769-1.150281,1.022574.183701,1.15028.677768-.183701,1.022575-.677769,1.150281ZM255.173429,143.3689c-.494067.127706-1.022574-.183701-1.15028-.677768s.183701-1.022575.677769-1.150281,1.022574.183701,1.15028.677768-.183701,1.022575-.677769,1.150281ZM257.623656,140.205597c-.494067.127706-1.022574-.183701-1.15028-.677768s.183701-1.022575.677769-1.150281,1.022574.183701,1.15028.677768-.183701,1.022575-.677769,1.150281ZM260.163282,137.388143c-.494067.127706-1.022574-.183701-1.15028-.677768s.183701-1.022575.677769-1.150281,1.022574.183701,1.15028.677768-.183701,1.022575-.677769,1.150281ZM258.824094,144.849831c-.494067.127706-1.022574-.183701-1.15028-.677768s.183701-1.022575.677769-1.150281,1.022574.183701,1.15028.677768-.183701,1.022575-.677769,1.150281ZM261.299864,141.785343c-.494067.127706-1.022574-.183701-1.15028-.677768s.183701-1.022575.677769-1.150281,1.022574.183701,1.15028.677768-.183701,1.022575-.677769,1.150281Z" fill="#bdbdbd"/><path d="M265.551968,136.416942l-.063853-.247034h0c-1.200438-4.644234-5.894828-7.410263-10.539063-6.209826l-33.349556,8.620162h0c-4.990081,1.289831-8.012563,6.419463-6.722731,11.409544l.063853.247034c1.200437,4.644235,5.894828,7.410264,10.539063,6.209826l33.349555-8.620162h0c4.990081-1.289831,8.012562-6.419463,6.722731-11.409544h0ZM219.767399,147.091726c-.494067.127706-1.022575-.183701-1.150281-.677769s.183701-1.022574.677768-1.15028,1.022575.183701,1.150281.677769-.183701,1.022574-.677768,1.15028ZM222.255941,144.076643c-.494067.127706-1.022575-.183701-1.150281-.677769s.183701-1.022574.677768-1.15028,1.022575.183701,1.150281.677769-.183701,1.022574-.677768,1.15028ZM220.916754,151.538333c-.494067.127706-1.022575-.183701-1.150281-.677769s.183701-1.022574.677768-1.15028,1.022575.183701,1.150281.677769-.183701,1.022574-.677768,1.15028ZM223.443607,148.671471c-.494067.127706-1.022575-.183701-1.150281-.677769s.183701-1.022574.677768-1.15028,1.022575.183701,1.150281.677769-.183701,1.022574-.677768,1.15028ZM225.893836,145.50817c-.494067.127706-1.022575-.183701-1.150281-.677769s.183701-1.022574.677768-1.15028,1.022575.183701,1.150281.677769-.183701,1.022574-.677768,1.15028ZM228.382376,142.493089c-.494067.127706-1.022575-.183701-1.150281-.677769s.183701-1.022574.677768-1.15028,1.022575.183701,1.150281.677769c.127706.494067-.183701,1.022574-.677768,1.15028ZM224.55465,152.969858c-.494067.127706-1.022575-.183701-1.150281-.677769s.183701-1.022574.677768-1.15028,1.022575.183701,1.150281.677769-.183701,1.022574-.677768,1.15028ZM227.043191,149.954777c-.494067.127706-1.022575-.183701-1.150281-.677769s.183701-1.022574.677768-1.15028,1.022575.183701,1.150281.677769-.183701,1.022574-.677768,1.15028ZM229.570044,147.087915c-.494067.127706-1.022575-.183701-1.150281-.677769s.183701-1.022574.677768-1.15028,1.022575.183701,1.150281.677769-.183701,1.022574-.677768,1.15028ZM230.681085,151.386303c-.494067.127706-1.022575-.183701-1.150281-.677769s.183701-1.022574.677768-1.15028,1.022575.183701,1.150281.677769c.127706.494067-.183701,1.022574-.677768,1.15028ZM250.220161,136.848478c-.494067.127706-1.022574-.183701-1.15028-.677768s.183701-1.022575.677769-1.150281,1.022574.183701,1.15028.677768-.183701,1.022575-.677769,1.150281ZM251.331203,141.146865c-.494067.127706-1.022574-.183701-1.15028-.677768s.183701-1.022575.677769-1.150281,1.022574.183701,1.15028.677768-.183701,1.022575-.677769,1.150281ZM253.858055,138.280005c-.494067.127706-1.022574-.183701-1.15028-.677768s.183701-1.022575.677769-1.150281,1.022574.183701,1.15028.677768-.183701,1.022575-.677769,1.150281ZM256.346595,135.264922c-.494067.127706-1.022574-.183701-1.15028-.677768s.183701-1.022575.677769-1.150281,1.022574.183701,1.15028.677768-.183701,1.022575-.677769,1.150281ZM252.51887,145.741693c-.494067.127706-1.022574-.183701-1.15028-.677768s.183701-1.022575.677769-1.150281,1.022574.183701,1.15028.677768-.183701,1.022575-.677769,1.150281ZM255.00741,142.726612c-.494067.127706-1.022574-.183701-1.15028-.677768s.183701-1.022575.677769-1.150281,1.022574.183701,1.15028.677768-.183701,1.022575-.677769,1.150281ZM257.45764,139.56331c-.494067.127706-1.022574-.183701-1.15028-.677768s.183701-1.022575.677769-1.150281,1.022574.183701,1.15028.677768-.183701,1.022575-.677769,1.150281ZM259.984492,136.696449c-.494067.127706-1.022574-.183701-1.15028-.677768s.183701-1.022575.677769-1.150281,1.022574.183701,1.15028.677768-.183701,1.022575-.677769,1.150281ZM258.645305,144.158137c-.494067.127706-1.022574-.183701-1.15028-.677768-.127706-.494067.183701-1.022575.677769-1.150281s1.022574.183701,1.15028.677768-.183701,1.022575-.677769,1.150281ZM261.133847,141.143056c-.494067.127706-1.022574-.183701-1.15028-.677768s.183701-1.022575.677769-1.150281,1.022574.183701,1.15028.677768-.183701,1.022575-.677769,1.150281Z" fill="#e0e1e0"/><path d="M247.112499,148.377757c1.074177-.33036,1.078049-.621254-.189362-1.242392-1.031473-.524-2.069016-.255819-2.711303-.089799l-6.966353,1.800654c-.642288.166019-1.264062-.200342-1.398991-.824313l-.031088-.018318c-.257088-1.198532-1.419214-5.694546-1.419214-5.694546-.166017-.642289-.320941-1.445566-.757858-1.912417-.361969-.380808-.625124-.787156-1.543339-1.076895-.775542-.247554-.167579,1.492778-.039873,1.986846.191559.741101,1.69849,6.571098,2.260399,8.744994.217101.839914,1.056496,1.334502,1.89641,1.117403,0,0,10.536408-2.670732,10.900573-2.791216h0Z" fill="#bdbdbd"/><path d="M248.69288,146.335324s-2.534128-9.70204-2.579662-9.980163c-.217099-.839914-1.056495-1.334503-1.896409-1.117402-.988135.255412-10.141153,2.568568-10.141153,2.568568,0,0-1.235169.319265-.518454.950978s1.367902.805995,2.288312.594442c2.433701-.576353,7.257244-1.796784,7.257244-1.796784.642287-.166018,1.264062.200344,1.398991.824313.293725,1.136356,1.308149,4.958993,1.512478,5.749501.255412.988135.719545,1.764196,1.6028,2.326509,1.144734.758265.997034.084887.995357-.125511h0l.080497.005549Z" fill="#fff"/><path d="M265.717985,137.059229l-.063853-.247034h0c-1.200438-4.644234-5.894828-7.410263-10.539063-6.209826l-33.349555,8.620163h0c-4.990081,1.289831-8.012563,6.419463-6.722731,11.409544l.063853.247034c1.200437,4.644235,5.894828,7.410263,10.539063,6.209826l33.349556-8.620161h0c4.990078-1.289833,8.01256-6.419466,6.722729-11.409547h0ZM219.946187,147.783421c-.494067.127706-1.022575-.183701-1.150281-.677769-.127706-.494067.183701-1.022574.677768-1.15028s1.022575.183701,1.150281.677769-.183701,1.022574-.677768,1.15028ZM222.421958,144.718931c-.494067.127706-1.022575-.183701-1.150281-.677769s.183701-1.022574.677768-1.15028,1.022575.183701,1.150281.677769-.183701,1.022574-.677768,1.15028ZM221.082772,152.180619c-.494067.127706-1.022575-.183701-1.150281-.677769s.183701-1.022574.677768-1.15028,1.022575.183701,1.150281.677769-.183701,1.022574-.677768,1.15028ZM223.609624,149.31376c-.494067.127706-1.022575-.183701-1.150281-.677769s.183701-1.022574.677768-1.15028,1.022575.183701,1.150281.677769-.183701,1.022574-.677768,1.15028ZM226.090942,146.168776c-.494067.127706-1.022575-.183701-1.150281-.677769s.183701-1.022574.677768-1.15028,1.022575.183701,1.150281.677769-.183701,1.022574-.677768,1.15028ZM228.548395,143.135376c-.494067.127706-1.022575-.183701-1.150281-.677769s.183701-1.022574.677768-1.15028,1.022575.183701,1.150281.677769-.183701,1.022574-.677768,1.15028ZM224.720668,153.612146c-.494067.127706-1.022575-.183701-1.150281-.677769s.183701-1.022574.677768-1.15028,1.022575.183701,1.150281.677769c.127706.494067-.183701,1.022574-.677768,1.15028ZM227.209208,150.597066c-.494067.127706-1.022575-.183701-1.150281-.677769s.183701-1.022574.677768-1.15028,1.022575.183701,1.150281.677769-.183701,1.022574-.677768,1.15028ZM229.736061,147.730204c-.494067.127706-1.022575-.183701-1.150281-.677769s.183701-1.022574.677768-1.15028,1.022575.183701,1.150281.677769-.183701,1.022574-.677768,1.15028ZM230.859876,152.077996c-.494067.127706-1.022575-.183701-1.150281-.677769s.183701-1.022574.677768-1.15028,1.022575.183701,1.150281.677769c.127706.494067-.183701,1.022574-.677768,1.15028ZM250.386176,137.490766c-.494067.127706-1.022574-.183701-1.15028-.677768s.183701-1.022575.677769-1.150281,1.022574.183701,1.15028.677768-.183701,1.022575-.677769,1.150281ZM251.497222,141.789153c-.494067.127706-1.022574-.183701-1.15028-.677768s.183701-1.022575.677769-1.150281,1.022574.183701,1.15028.677768-.183701,1.022575-.677769,1.150281ZM254.005756,138.953381c-.494067.127706-1.022574-.183701-1.15028-.677768s.183701-1.022575.677769-1.150281,1.022574.183701,1.15028.677768-.183701,1.022575-.677769,1.150281ZM256.512614,135.90721c-.494067.127706-1.022574-.183701-1.15028-.677768s.183701-1.022575.677769-1.150281,1.022574.183701,1.15028.677768-.183701,1.022575-.677769,1.150281ZM252.715975,146.402299c-.494067.127706-1.022574-.183701-1.15028-.677768s.183701-1.022575.677769-1.150281,1.022574.183701,1.15028.677768-.183701,1.022575-.677769,1.150281ZM255.173429,143.3689c-.494067.127706-1.022574-.183701-1.15028-.677768s.183701-1.022575.677769-1.150281,1.022574.183701,1.15028.677768-.183701,1.022575-.677769,1.150281ZM257.623656,140.205597c-.494067.127706-1.022574-.183701-1.15028-.677768s.183701-1.022575.677769-1.150281,1.022574.183701,1.15028.677768-.183701,1.022575-.677769,1.150281ZM260.163282,137.388143c-.494067.127706-1.022574-.183701-1.15028-.677768s.183701-1.022575.677769-1.150281,1.022574.183701,1.15028.677768-.183701,1.022575-.677769,1.150281ZM258.824094,144.849831c-.494067.127706-1.022574-.183701-1.15028-.677768s.183701-1.022575.677769-1.150281,1.022574.183701,1.15028.677768-.183701,1.022575-.677769,1.150281ZM261.299864,141.785343c-.494067.127706-1.022574-.183701-1.15028-.677768s.183701-1.022575.677769-1.150281,1.022574.183701,1.15028.677768-.183701,1.022575-.677769,1.150281Z" fill="none" stroke="#000" stroke-linecap="round" stroke-linejoin="round"/><path d="M265.551968,136.416942l-.063853-.247034h0c-1.200438-4.644234-5.894828-7.410263-10.539063-6.209826l-33.349556,8.620162h0c-4.990081,1.289831-8.012563,6.419463-6.722731,11.409544l.063853.247034c1.200437,4.644235,5.894828,7.410264,10.539063,6.209826l33.349555-8.620162h0c4.990081-1.289831,8.012562-6.419463,6.722731-11.409544h0ZM219.767399,147.091726c-.494067.127706-1.022575-.183701-1.150281-.677769s.183701-1.022574.677768-1.15028,1.022575.183701,1.150281.677769-.183701,1.022574-.677768,1.15028ZM222.255941,144.076643c-.494067.127706-1.022575-.183701-1.150281-.677769s.183701-1.022574.677768-1.15028,1.022575.183701,1.150281.677769-.183701,1.022574-.677768,1.15028ZM220.916754,151.538333c-.494067.127706-1.022575-.183701-1.150281-.677769s.183701-1.022574.677768-1.15028,1.022575.183701,1.150281.677769-.183701,1.022574-.677768,1.15028ZM223.443607,148.671471c-.494067.127706-1.022575-.183701-1.150281-.677769s.183701-1.022574.677768-1.15028,1.022575.183701,1.150281.677769-.183701,1.022574-.677768,1.15028ZM225.893836,145.50817c-.494067.127706-1.022575-.183701-1.150281-.677769s.183701-1.022574.677768-1.15028,1.022575.183701,1.150281.677769-.183701,1.022574-.677768,1.15028ZM228.382376,142.493089c-.494067.127706-1.022575-.183701-1.150281-.677769s.183701-1.022574.677768-1.15028,1.022575.183701,1.150281.677769c.127706.494067-.183701,1.022574-.677768,1.15028ZM224.55465,152.969858c-.494067.127706-1.022575-.183701-1.150281-.677769s.183701-1.022574.677768-1.15028,1.022575.183701,1.150281.677769-.183701,1.022574-.677768,1.15028ZM227.043191,149.954777c-.494067.127706-1.022575-.183701-1.150281-.677769s.183701-1.022574.677768-1.15028,1.022575.183701,1.150281.677769-.183701,1.022574-.677768,1.15028ZM229.570044,147.087915c-.494067.127706-1.022575-.183701-1.150281-.677769s.183701-1.022574.677768-1.15028,1.022575.183701,1.150281.677769-.183701,1.022574-.677768,1.15028ZM230.681085,151.386303c-.494067.127706-1.022575-.183701-1.150281-.677769s.183701-1.022574.677768-1.15028,1.022575.183701,1.150281.677769c.127706.494067-.183701,1.022574-.677768,1.15028ZM250.220161,136.848478c-.494067.127706-1.022574-.183701-1.15028-.677768s.183701-1.022575.677769-1.150281,1.022574.183701,1.15028.677768-.183701,1.022575-.677769,1.150281ZM251.331203,141.146865c-.494067.127706-1.022574-.183701-1.15028-.677768s.183701-1.022575.677769-1.150281,1.022574.183701,1.15028.677768-.183701,1.022575-.677769,1.150281ZM253.858055,138.280005c-.494067.127706-1.022574-.183701-1.15028-.677768s.183701-1.022575.677769-1.150281,1.022574.183701,1.15028.677768-.183701,1.022575-.677769,1.150281ZM256.346595,135.264922c-.494067.127706-1.022574-.183701-1.15028-.677768s.183701-1.022575.677769-1.150281,1.022574.183701,1.15028.677768-.183701,1.022575-.677769,1.150281ZM252.51887,145.741693c-.494067.127706-1.022574-.183701-1.15028-.677768s.183701-1.022575.677769-1.150281,1.022574.183701,1.15028.677768-.183701,1.022575-.677769,1.150281ZM255.00741,142.726612c-.494067.127706-1.022574-.183701-1.15028-.677768s.183701-1.022575.677769-1.150281,1.022574.183701,1.15028.677768-.183701,1.022575-.677769,1.150281ZM257.45764,139.56331c-.494067.127706-1.022574-.183701-1.15028-.677768s.183701-1.022575.677769-1.150281,1.022574.183701,1.15028.677768-.183701,1.022575-.677769,1.150281ZM259.984492,136.696449c-.494067.127706-1.022574-.183701-1.15028-.677768s.183701-1.022575.677769-1.150281,1.022574.183701,1.15028.677768-.183701,1.022575-.677769,1.150281ZM258.645305,144.158137c-.494067.127706-1.022574-.183701-1.15028-.677768-.127706-.494067.183701-1.022575.677769-1.150281s1.022574.183701,1.15028.677768-.183701,1.022575-.677769,1.150281ZM261.133847,141.143056c-.494067.127706-1.022574-.183701-1.15028-.677768s.183701-1.022575.677769-1.150281,1.022574.183701,1.15028.677768-.183701,1.022575-.677769,1.150281Z" fill="none" stroke="#000" stroke-linecap="round" stroke-linejoin="round"/><path d="M247.112499,148.377757c1.074177-.33036,1.078049-.621254-.189362-1.242392-1.031473-.524-2.069016-.255819-2.711303-.089799l-6.966353,1.800654c-.642288.166019-1.264062-.200342-1.398991-.824313l-.031088-.018318c-.257088-1.198532-1.419214-5.694546-1.419214-5.694546-.166017-.642289-.320941-1.445566-.757858-1.912417-.361969-.380808-.625124-.787156-1.543339-1.076895-.775542-.247554-.167579,1.492778-.039873,1.986846.191559.741101,1.69849,6.571098,2.260399,8.744994.217101.839914,1.056496,1.334502,1.89641,1.117403,0,0,10.536408-2.670732,10.900573-2.791216h0Z" fill="none" stroke="#000" stroke-linecap="round" stroke-linejoin="round"/><path d="M248.69288,146.335324s-2.534128-9.70204-2.579662-9.980163c-.217099-.839914-1.056495-1.334503-1.896409-1.117402-.988135.255412-10.141153,2.568568-10.141153,2.568568,0,0-1.235169.319265-.518454.950978s1.367902.805995,2.288312.594442c2.433701-.576353,7.257244-1.796784,7.257244-1.796784.642287-.166018,1.264062.200344,1.398991.824313.293725,1.136356,1.308149,4.958993,1.512478,5.749501.255412.988135.719545,1.764196,1.6028,2.326509,1.144734.758265.997034.084887.995357-.125511h0l.080497.005549Z" fill="none" stroke="#000" stroke-linecap="round" stroke-linejoin="round"/><g id="uuid-5eed20d6-c3db-4b9f-8e70-ccb2e3182939"><polygon id="uuid-fe1fafd1-cf9f-4b0e-89e1-59f934234eae" points="321 296 341 296 341 330.959792 341 338 311 338 311 331 321 331 321 296" fill="#5f4d2f"/><rect id="uuid-54728432-1dd9-4d5a-ad6d-bc4a725c710a" x="318.999981" y="247" width="25.000019" height="49" fill="#726038"/><polygon id="uuid-31ea08b3-6f7e-4088-988a-b5d03adb7224" points="353.000031 296 373 296 373 331 383 331 383 338 353 338 353 330.959792 353.000031 330.959792 353.000031 296" fill="#5f4d2f"/><rect id="uuid-b24cba9f-f52c-496d-af37-edea3754f96e" x="349.999981" y="247" width="25.000038" height="49" fill="#726038"/><path id="uuid-ed285983-a54d-4909-ac5a-854a0e5e52a3" d="M375,147v100h-56v-100h56Z" fill="#726038"/><rect id="uuid-d7f4fe14-f3fc-4cc7-94dc-47aaee40b508" x="319" y="205" width="56" height="17" fill="#ac935a"/><rect id="uuid-4ca153a5-b850-4410-917f-e1e8c5217b5f" x="328" y="146" width="7" height="59" fill="#ac935a"/><rect id="uuid-e8d613d0-5ad7-4fd9-877e-ce7a02424cb0" x="359" y="146" width="7" height="59" fill="#ac935a"/><path id="uuid-672d31ab-1d61-4691-a804-001b84ed6db8" d="M319.542682,133.07969c-1.919822-5.420285-2.953698-11.508101-2.844111-17.933586.378397-22.18687,14.174671-39.942854,30.814838-39.659056,16.640168.283798,29.822936,18.499911,29.444539,40.686781-.109587,6.425485-1.350456,12.474505-3.453994,17.826172l-53.961272-.92031Z" fill="#eec6a2"/><path id="uuid-9667ba4c-744a-4d33-88e4-6c494175000c" d="M371.820839,139c-5.349576,11.18888-14.731987,18.616519-25.421392,18.616519s-20.071816-7.427639-25.421392-18.616519h50.842783Z" fill="#eec6a2"/><ellipse id="uuid-53327143-e93a-4d02-a08e-55e67a636c24" cx="327" cy="119.499871" rx="2.987525" ry="4.507841" transform="translate(-8.508537 26.53084) rotate(-4.586487)" fill="#333"/><ellipse id="uuid-94e01ced-7ce1-4265-acbb-6135818c6ad2" cx="343" cy="119.5" rx="2.987525" ry="4.50797" transform="translate(-8.456772 27.808194) rotate(-4.58615)" fill="#333"/><rect id="uuid-9ba5e5aa-2ec3-4c47-aa8f-0266f6f22879" x="279.256297" y="143.233396" width="15.067008" height="32.143004" transform="translate(-4.667527 309.900604) rotate(-56.376481)" fill="#726038"/><rect id="uuid-24861e31-7fd5-4ba4-85bf-07e86684e694" x="291.833387" y="153.736772" width="32.143004" height="15.067008" transform="translate(-39.573843 152.781849) rotate(-26.244664)" fill="#726038"/><rect id="uuid-e4417394-20dd-4422-a948-0f04c4ecc8dd" x="375.968834" y="146.198774" width="15.067008" height="32.143004" transform="translate(-11.910247 31.677117) rotate(-4.657673)" fill="#726038"/><rect id="uuid-49261b7b-f247-428e-9d75-9c3f877cda78" x="378.561242" y="178.018681" width="15.067008" height="32.143004" transform="translate(-14.485534 31.992707) rotate(-4.657673)" fill="#726038"/><rect id="uuid-eefe0b02-8b58-40e6-9f61-1eed2130f21f" x="258.359652" y="137.787974" width="16.258368" height="16.258368" transform="translate(-2.579353 287.021469) rotate(-56.37645)" fill="#eec6a2"/><rect id="uuid-54f4d165-419e-452b-a3dc-7310b31d596b" x="380.023042" y="210.161681" width="16.071504" height="16.071504" transform="translate(-16.436512 32.231589) rotate(-4.657643)" fill="#eec6a2"/><circle id="uuid-fa7500c3-3de3-4f1a-82d2-c2d68da223eb" cx="346.999912" cy="192.999912" r="1.999912" fill="#333"/><circle id="uuid-87e973b0-2a2b-48f1-b0e4-0193422af973" cx="346.999912" cy="184.999912" r="1.999912" fill="#333"/><circle id="uuid-7fac610c-cdb0-40b9-9629-87cf7cee2b26" cx="346.999912" cy="176.999912" r="1.999912" fill="#333"/><circle id="uuid-9fdeb527-bc99-4503-98aa-c22ba20804ac" cx="346.999912" cy="167.999912" r="1.999912" fill="#333"/><path d="M313.549711,91.358417c2.053185-13.993908,16.622121-24.673229,34.100614-24.375133,17.478493.298096,31.67479,11.468009,33.249587,25.523792,5.827948.93496,9.309455,2.051348,9.289837,3.201624-.046082,2.701938-19.342728,4.563806-43.100262,4.158621-23.757534-.405185-42.979468-2.923989-42.933387-5.625926.019618-1.150276,3.53717-2.147294,9.39361-2.882977Z" fill="#596a66"/><polygon id="uuid-c028f496-4484-44c9-8cab-442a74e56ce3" points="321 296 341 296 341 330.959792 341 338 311 338 311 331 321 331 321 296" fill="none" stroke="#000" stroke-linecap="round" stroke-linejoin="round"/><rect id="uuid-bb56d282-ec29-4bca-a504-75dc68147398" x="318.999981" y="247" width="25.000019" height="49" fill="none" stroke="#000" stroke-linecap="round" stroke-linejoin="round"/><polygon id="uuid-0a7235f5-340f-4acc-8b8e-ad6a55c78446" points="353.000031 296 373 296 373 331 383 331 383 338 353 338 353 330.959792 353.000031 330.959792 353.000031 296" fill="none" stroke="#000" stroke-linecap="round" stroke-linejoin="round"/><rect id="uuid-392b248a-b4bc-4e15-a8b4-5d3f2881594a" x="349.999981" y="247" width="25.000038" height="49" fill="none" stroke="#000" stroke-linecap="round" stroke-linejoin="round"/><path id="uuid-9a42b57d-89cb-4721-b70b-f6fa2789ef8b" d="M375,147v100h-56v-100h56Z" fill="none" stroke="#000" stroke-linecap="round" stroke-linejoin="round"/><rect id="uuid-e01f6f92-3536-4b5f-9d1f-a84b09d55b96" x="319" y="205" width="56" height="17" fill="none" stroke="#000" stroke-linecap="round" stroke-linejoin="round"/><rect id="uuid-df9fc889-cfff-422f-b979-e124391c05df" x="328" y="146" width="7" height="59" fill="none" stroke="#000" stroke-linecap="round" stroke-linejoin="round"/><rect id="uuid-008e2bb5-0a57-4641-a5ab-c31b4424b6c4" x="359" y="146" width="7" height="59" fill="none" stroke="#000" stroke-linecap="round" stroke-linejoin="round"/><path id="uuid-de4c9945-7384-450b-8b13-ec5d73739443" d="M319.542682,133.07969c-1.919822-5.420285-2.953698-11.508101-2.844111-17.933586.378397-22.18687,14.174671-39.942854,30.814838-39.659056,16.640168.283798,29.822936,18.499911,29.444539,40.686781-.109587,6.425485-1.350456,12.474505-3.453994,17.826172l-53.961272-.92031Z" fill="none" stroke="#000" stroke-linecap="round" stroke-linejoin="round"/><path id="uuid-0fd6e368-bb3d-428a-b1f2-6c740a41b384" d="M371.820839,139c-5.349576,11.18888-14.731987,18.616519-25.421392,18.616519s-20.071816-7.427639-25.421392-18.616519h50.842783Z" fill="none" stroke="#000" stroke-linecap="round" stroke-linejoin="round"/><ellipse id="uuid-cb5276fc-489f-4874-9cac-cb3b8d48f616" cx="327" cy="119.499871" rx="2.987525" ry="4.507841" transform="translate(-8.508537 26.53084) rotate(-4.586487)" fill="none" stroke="#000" stroke-linecap="round" stroke-linejoin="round"/><ellipse id="uuid-a81eff07-55ab-49f2-9987-e3f3d3e5537b" cx="343" cy="119.5" rx="2.987525" ry="4.50797" transform="translate(-8.456772 27.808194) rotate(-4.58615)" fill="none" stroke="#000" stroke-linecap="round" stroke-linejoin="round"/><rect id="uuid-0cb018cf-0f41-46a1-a21e-d5f1189dede4" x="279.256297" y="143.233396" width="15.067008" height="32.143004" transform="translate(-4.667527 309.900604) rotate(-56.376481)" fill="none" stroke="#000" stroke-linecap="round" stroke-linejoin="round"/><rect id="uuid-59e5e5fc-8a22-418c-b38a-8819c62de07d" x="291.833387" y="153.736772" width="32.143004" height="15.067008" transform="translate(-39.573843 152.781849) rotate(-26.244664)" fill="none" stroke="#000" stroke-linecap="round" stroke-linejoin="round"/><rect id="uuid-b4f524c4-d2d0-49d0-bfaf-649f4c70d56e" x="375.968834" y="146.198774" width="15.067008" height="32.143004" transform="translate(-11.910247 31.677117) rotate(-4.657673)" fill="none" stroke="#000" stroke-linecap="round" stroke-linejoin="round"/><rect id="uuid-2ea0b0a5-039d-4733-80d9-26ac9a59423e" x="378.561242" y="178.018681" width="15.067008" height="32.143004" transform="translate(-14.485534 31.992707) rotate(-4.657673)" fill="none" stroke="#000" stroke-linecap="round" stroke-linejoin="round"/><rect id="uuid-2260fe46-cf75-4eb4-a533-4bd4446ed43a" x="258.359652" y="137.787974" width="16.258368" height="16.258368" transform="translate(-2.579353 287.021469) rotate(-56.37645)" fill="none" stroke="#000" stroke-linecap="round" stroke-linejoin="round"/><rect id="uuid-9fbfcff7-fc29-4ee2-b97e-9955d94282d2" x="380.023042" y="210.161681" width="16.071504" height="16.071504" transform="translate(-16.436512 32.231589) rotate(-4.657643)" fill="none" stroke="#000" stroke-linecap="round" stroke-linejoin="round"/><circle id="uuid-1f3a2567-752c-408a-84bd-87ddd85754a1" cx="346.999912" cy="192.999912" r="1.999912" fill="none" stroke="#000" stroke-linecap="round" stroke-linejoin="round"/><circle id="uuid-45c9fef2-698f-4824-b765-f23361b7ac81" cx="346.999912" cy="184.999912" r="1.999912" fill="none" stroke="#000" stroke-linecap="round" stroke-linejoin="round"/><circle id="uuid-6cdf9e96-8fc6-4553-beb9-f7f24a477c0c" cx="346.999912" cy="176.999912" r="1.999912" fill="none" stroke="#000" stroke-linecap="round" stroke-linejoin="round"/><circle id="uuid-f49950f2-64df-4a27-8b5e-38dcfae383c3" cx="346.999912" cy="167.999912" r="1.999912" fill="none" stroke="#000" stroke-linecap="round" stroke-linejoin="round"/><path d="M313.549711,91.358417c2.053185-13.993908,16.622121-24.673229,34.100614-24.375133,17.478493.298096,31.67479,11.468009,33.249587,25.523792,5.827948.93496,9.309455,2.051348,9.289837,3.201624-.046082,2.701938-19.342728,4.563806-43.100262,4.158621-23.757534-.405185-42.979468-2.923989-42.933387-5.625926.019618-1.150276,3.53717-2.147294,9.39361-2.882977Z" fill="none" stroke="#000" stroke-linecap="round" stroke-linejoin="round"/></g><g id="uuid-993b3e12-a4ea-44e4-8dc6-6deecea3414a"><polygon id="uuid-89cf71bd-5765-45f4-9d58-6c684bf18b44" points="169 296 151 296 151 329.29504 151 336 178 336 178 329 169 329 169 296" fill="#5f5f5f"/><rect id="uuid-1bf3bec6-b656-4ad4-a0b1-581065031dd3" x="148" y="251" width="23.000018" height="46" fill="#727272"/><polygon id="uuid-58a2d225-214b-460c-a22c-f4b588a1ab31" points="139.999973 296 122 296 122 329 113 329 113 336 140 336 140 329.29504 139.999973 329.29504 139.999973 296" fill="#5f5f5f"/><rect id="uuid-a6bdb1f4-ad35-4b5e-9e0d-22722cf8167f" x="119.999982" y="251" width="23.000035" height="46" fill="#727272"/><path id="uuid-1c3f31dd-79bf-4d75-b744-2be45ab45063" d="M119,159v92h52v-92h-52Z" fill="#727272"/><rect id="uuid-810a3885-ce1e-4a7b-8d9d-dfecfff57fd5" x="119" y="212" width="52" height="16" fill="#acacac"/><rect id="uuid-766de744-372e-4a1b-8fbd-ab147ab02ee4" x="156" y="157" width="7" height="55" fill="#acacac"/><rect id="uuid-a3ebe56d-fd6d-4209-aaa2-923105984130" x="128" y="157" width="7" height="55" fill="#acacac"/><path id="uuid-b7fbf92b-8073-42ef-b898-79b2aea84ae2" d="M170.142311,148c1.85356-4.962632,2.901534-10.554066,2.901534-16.4745,0-20.442957-12.42923-37.015282-27.761461-37.015282s-27.761461,16.572325-27.761461,37.015282c0,5.920434,1.047974,11.511868,2.901534,16.4745h49.719856Z" fill="#ccc"/><path id="uuid-89903324-c1f5-4224-8c3a-ba55ac3aebfe" d="M121.862547,152c4.928377,10.307922,13.572063,17.150745,23.419836,17.150745s18.491459-6.842823,23.419836-17.150745h-46.839672Z" fill="#ccc"/><ellipse id="uuid-7ef67962-577a-48d3-9222-fee2ffe6b573" cx="163.5" cy="134" rx="2.5" ry="4" fill="#333"/><ellipse id="uuid-2c480b48-bdf3-4d99-8226-afe835350859" cx="148.5" cy="134" rx="2.5" ry="4" fill="#333"/><rect id="uuid-bec0c3cf-b5ec-4180-b199-a1937ac6da7f" x="166.053594" y="151.713611" width="29.612221" height="13.880705" transform="translate(-51.513485 96.332107) rotate(-26.244664)" fill="#727272"/><rect id="uuid-dc217637-f457-4a11-b08b-bfc7e690f5ca" x="98.137113" y="165.912724" width="29.612221" height="13.880705" transform="translate(-64.672502 278.147957) rotate(-87.499645)" fill="#727272"/><rect id="uuid-a05ad11e-0fba-43f2-94ee-47f55a150922" x="96.845288" y="195.496758" width="29.612221" height="13.880705" transform="translate(-95.46384 305.150775) rotate(-87.499645)" fill="#727272"/><rect id="uuid-5fc3385e-b66c-47c8-b87c-6bbb2e054592" x="103" y="216" width="15" height="15" fill="#ccc"/><circle id="uuid-63146256-33f4-40c9-8685-39a6047bf10d" cx="145" cy="202" r="2" fill="#333"/><circle id="uuid-d465fe6c-a150-4c82-ab93-2b4347c363b4" cx="145" cy="194" r="2" fill="#333"/><circle id="uuid-88ed089b-f095-438b-84e1-a521ecdb8368" cx="145" cy="187" r="2" fill="#333"/><circle id="uuid-490c7a70-35c4-4474-adcd-e0fc7b4c4524" cx="145" cy="177" r="2" fill="#333"/><path d="M175.551849,112.843925c-.591753-13.016676-12.96155-24.149058-29.010509-25.487377-16.048959-1.338319-30.091741,7.591524-32.831244,20.330407-5.428332.319668-8.722553,1.021988-8.810629,2.078185-.206886,2.480951,17.30951,5.966818,39.123959,7.78592,21.814449,1.819102,39.666271,1.282583,39.873157-1.198368.088076-1.056197-3.044322-2.294431-8.344734-3.508767Z" fill="#6a6a6a"/></g><path d="M199.001597,162.901543c-.821912-1.184321-1.185249-2.19157-1.393336-2.792546-.065884-.189338-.284408-.189338-.349639,0-.208087.600976-.571425,1.608224-1.393336,2.792546-.514673.742022-1.022171,1.828224-1.022171,2.89833,0,1.825925,1.121323,3.062372,2.590327,3.062372s2.590327-1.237214,2.590327-3.062372c0-1.112266-.507498-2.156309-1.022171-2.898331Z" fill="#c1272d"/><path d="M198.149679,166.102594c.414217-.925994.355509-1.832057.68297-1.668782.444876.223066.937371,1.36906.752767,2.407737-.131767.740489-.557074,1.188921-1.099144.975053-.437701-.172474-.709715-.88-.336593-1.714008Z" fill="#e36250"/><path d="M189.837699,159.916064l-4.707218-9.547536c-.57305-1.162303-.095366-2.569085,1.066938-3.142135l5.248596-2.587713c1.162303-.57305,2.569085-.095366,3.142135,1.066938l3.720685,7.546575c1.117897,2.267403.186038,5.011731-2.081365,6.129629l-3.247635,1.60118c-1.162303.57305-2.569085.095366-3.142135-1.066938Z" fill="#c1272d"/><ellipse cx="186.5" cy="153" rx="9.148582" ry="4.951479" transform="translate(-48.326377 97.79291) rotate(-26.134765)" fill="#c1272d"/><ellipse cx="188.5" cy="156.5" rx="2.367573" ry="7.929796" transform="translate(-22.842732 280.430422) rotate(-70.087938)" fill="#c1272d"/><g id="uuid-6aa6d9ec-1dd2-44bf-9f71-7ebca3447c3d"><polygon id="uuid-65cff445-f209-4f9e-a882-b28c6d2c2cd8" points="169 296 151 296 151 329.29504 151 336 178 336 178 329 169 329 169 296" fill="none" stroke="#000" stroke-linecap="round" stroke-linejoin="round"/><rect id="uuid-ed5a1968-110a-4e25-afdb-5bf868ea3831" x="148" y="251" width="23.000018" height="46" fill="none" stroke="#000" stroke-linecap="round" stroke-linejoin="round"/><polygon id="uuid-0caca487-b108-468e-aafd-bbf816065d9c" points="139.999973 296 122 296 122 329 113 329 113 336 140 336 140 329.29504 139.999973 329.29504 139.999973 296" fill="none" stroke="#000" stroke-linecap="round" stroke-linejoin="round"/><rect id="uuid-336bbc0e-1189-4020-ae06-69b745a53203" x="119.999982" y="251" width="23.000035" height="46" fill="none" stroke="#000" stroke-linecap="round" stroke-linejoin="round"/><path id="uuid-882eeca9-ade4-454b-8f4a-8226cb42f977" d="M119,159v92h52v-92h-52Z" fill="none" stroke="#000" stroke-linecap="round" stroke-linejoin="round"/><rect id="uuid-b6467d02-6064-4c42-bb3d-5a6ab09f7a1b" x="119" y="212" width="52" height="16" fill="none" stroke="#000" stroke-linecap="round" stroke-linejoin="round"/><rect id="uuid-19aaf4ff-fed6-4ed7-b718-f3720dcbb34f" x="156" y="157" width="7" height="55" fill="none" stroke="#000" stroke-linecap="round" stroke-linejoin="round"/><rect id="uuid-bb9571e3-f660-4004-b37f-7dc4cad73ac1" x="128" y="157" width="7" height="55" fill="none" stroke="#000" stroke-linecap="round" stroke-linejoin="round"/><path id="uuid-cfa37b70-83c1-419c-aa64-6623f4aff117" d="M170.142311,148c1.85356-4.962632,2.901534-10.554066,2.901534-16.4745,0-20.442957-12.42923-37.015282-27.761461-37.015282s-27.761461,16.572325-27.761461,37.015282c0,5.920434,1.047974,11.511868,2.901534,16.4745h49.719856Z" fill="none" stroke="#000" stroke-linecap="round" stroke-linejoin="round"/><path id="uuid-e43e5617-8dad-4425-bfdd-9b171ee1fe6c" d="M121.862547,152c4.928377,10.307922,13.572063,17.150745,23.419836,17.150745s18.491459-6.842823,23.419836-17.150745h-46.839672Z" fill="none" stroke="#000" stroke-linecap="round" stroke-linejoin="round"/><ellipse id="uuid-b6bf0b04-c9a0-4b18-80ce-ab9a9d936f07" cx="163.5" cy="134" rx="2.5" ry="4" fill="none" stroke="#000" stroke-linecap="round" stroke-linejoin="round"/><ellipse id="uuid-4bc32001-12d1-4e26-afde-9714970894c6" cx="148.5" cy="134" rx="2.5" ry="4" fill="none" stroke="#000" stroke-linecap="round" stroke-linejoin="round"/><rect id="uuid-417db18b-e616-44cd-aae5-38e021a857b9" x="166.053594" y="151.713611" width="29.612221" height="13.880705" transform="translate(-51.513485 96.332107) rotate(-26.244664)" fill="none" stroke="#000" stroke-linecap="round" stroke-linejoin="round"/><rect id="uuid-59a611fd-2eb7-4067-94a1-1093dc6be185" x="98.137113" y="165.912724" width="29.612221" height="13.880705" transform="translate(-64.672502 278.147957) rotate(-87.499645)" fill="none" stroke="#000" stroke-linecap="round" stroke-linejoin="round"/><rect id="uuid-2fe26169-718b-430f-b67a-90a489566e6c" x="96.845288" y="195.496758" width="29.612221" height="13.880705" transform="translate(-95.46384 305.150775) rotate(-87.499645)" fill="none" stroke="#000" stroke-linecap="round" stroke-linejoin="round"/><rect id="uuid-566928fe-bcbd-414b-abcf-3aba37e5ae4a" x="103" y="216" width="15" height="15" fill="none" stroke="#000" stroke-linecap="round" stroke-linejoin="round"/><circle id="uuid-fde65caf-7ac5-489e-953b-3dedc671d976" cx="145" cy="202" r="2" fill="none" stroke="#000" stroke-linecap="round" stroke-linejoin="round"/><circle id="uuid-a118e564-9002-45ac-832e-0ac26c00a838" cx="145" cy="194" r="2" fill="none" stroke="#000" stroke-linecap="round" stroke-linejoin="round"/><circle id="uuid-43bbed71-4c72-4e9b-9dd0-c7f81abd01c7" cx="145" cy="187" r="2" fill="none" stroke="#000" stroke-linecap="round" stroke-linejoin="round"/><circle id="uuid-6185acab-084c-4491-bdec-da2302e90d3c" cx="145" cy="177" r="2" fill="none" stroke="#000" stroke-linecap="round" stroke-linejoin="round"/><path d="M175.551849,112.843925c-.591753-13.016676-12.96155-24.149058-29.010509-25.487377-16.048959-1.338319-30.091741,7.591524-32.831244,20.330407-5.428332.319668-8.722553,1.021988-8.810629,2.078185-.206886,2.480951,17.30951,5.966818,39.123959,7.78592,21.814449,1.819102,39.666271,1.282583,39.873157-1.198368.088076-1.056197-3.044322-2.294431-8.344734-3.508767Z" fill="none" stroke="#000" stroke-linecap="round" stroke-linejoin="round"/><polygon id="uuid-a0ce48ac-6242-4c46-ad12-45d3c5378ca6" points="169 296 151 296 151 329.29504 151 336 178 336 178 329 169 329 169 296" fill="none" stroke="#000" stroke-linecap="round" stroke-linejoin="round"/><rect id="uuid-87a17bd7-5c76-468d-a63f-298616f15ea0" x="148" y="251" width="23.000018" height="46" fill="none" stroke="#000" stroke-linecap="round" stroke-linejoin="round"/><polygon id="uuid-07ab22f4-6c9a-4693-b24a-d9df110296f1" points="139.999973 296 122 296 122 329 113 329 113 336 140 336 140 329.29504 139.999973 329.29504 139.999973 296" fill="none" stroke="#000" stroke-linecap="round" stroke-linejoin="round"/><rect id="uuid-b04b22a9-9891-4ff7-9c20-4a4556555dfc" x="119.999982" y="251" width="23.000035" height="46" fill="none" stroke="#000" stroke-linecap="round" stroke-linejoin="round"/><path id="uuid-b005adca-8c23-4c53-b071-eb3bac3784f6" d="M119,159v92h52v-92h-52Z" fill="none" stroke="#000" stroke-linecap="round" stroke-linejoin="round"/><rect id="uuid-b0d4517e-3dfa-43dc-bf7a-12813b219503" x="119" y="212" width="52" height="16" fill="none" stroke="#000" stroke-linecap="round" stroke-linejoin="round"/><rect id="uuid-ff4058ec-f382-4124-b7b3-acd3086326d2" x="156" y="157" width="7" height="55" fill="none" stroke="#000" stroke-linecap="round" stroke-linejoin="round"/><rect id="uuid-c6d38d98-c392-4275-ba5c-00b59f7bc46d" x="128" y="157" width="7" height="55" fill="none" stroke="#000" stroke-linecap="round" stroke-linejoin="round"/><path id="uuid-ca642822-7a70-4dab-aec8-d154b4c53cb8" d="M170.142311,148c1.85356-4.962632,2.901534-10.554066,2.901534-16.4745,0-20.442957-12.42923-37.015282-27.761461-37.015282s-27.761461,16.572325-27.761461,37.015282c0,5.920434,1.047974,11.511868,2.901534,16.4745h49.719856Z" fill="none" stroke="#000" stroke-linecap="round" stroke-linejoin="round"/><path id="uuid-b479a6a6-a675-4d71-88a3-cb18cfe34a72" d="M121.862547,152c4.928377,10.307922,13.572063,17.150745,23.419836,17.150745s18.491459-6.842823,23.419836-17.150745h-46.839672Z" fill="none" stroke="#000" stroke-linecap="round" stroke-linejoin="round"/><ellipse id="uuid-c1c74b42-94ba-41a3-9d4e-e4171f9c3554" cx="163.5" cy="134" rx="2.5" ry="4" fill="none" stroke="#000" stroke-linecap="round" stroke-linejoin="round"/><ellipse id="uuid-fa6203d2-2ad8-482d-aaa0-acc39463e3a0" cx="148.5" cy="134" rx="2.5" ry="4" fill="none" stroke="#000" stroke-linecap="round" stroke-linejoin="round"/><rect id="uuid-0e2b32dd-112b-4930-bcb3-fafef417e86a" x="166.053594" y="151.713611" width="29.612221" height="13.880705" transform="translate(-51.513485 96.332107) rotate(-26.244664)" fill="none" stroke="#000" stroke-linecap="round" stroke-linejoin="round"/><rect id="uuid-233cc724-9f24-4049-a134-5ad0e2d02d26" x="98.137113" y="165.912724" width="29.612221" height="13.880705" transform="translate(-64.672502 278.147957) rotate(-87.499645)" fill="none" stroke="#000" stroke-linecap="round" stroke-linejoin="round"/><rect id="uuid-b766493d-98d4-4a04-bdd4-beddebfdd7c4" x="96.845288" y="195.496758" width="29.612221" height="13.880705" transform="translate(-95.46384 305.150775) rotate(-87.499645)" fill="none" stroke="#000" stroke-linecap="round" stroke-linejoin="round"/><rect id="uuid-f688ea98-5360-4b85-a453-92a15711fb12" x="103" y="216" width="15" height="15" fill="none" stroke="#000" stroke-linecap="round" stroke-linejoin="round"/><circle id="uuid-a2411e09-78ae-4d21-a9cc-e1cacc8ff255" cx="145" cy="202" r="2" fill="none" stroke="#000" stroke-linecap="round" stroke-linejoin="round"/><circle id="uuid-1660c6bf-10a4-47ce-b124-2185e116d49d" cx="145" cy="194" r="2" fill="none" stroke="#000" stroke-linecap="round" stroke-linejoin="round"/><circle id="uuid-916ecf64-b243-48ad-85bb-5e144430f703" cx="145" cy="187" r="2" fill="none" stroke="#000" stroke-linecap="round" stroke-linejoin="round"/><circle id="uuid-538b3fed-09db-49e2-b785-30137c971a79" cx="145" cy="177" r="2" fill="none" stroke="#000" stroke-linecap="round" stroke-linejoin="round"/><path d="M175.551849,112.843925c-.591753-13.016676-12.96155-24.149058-29.010509-25.487377-16.048959-1.338319-30.091741,7.591524-32.831244,20.330407-5.428332.319668-8.722553,1.021988-8.810629,2.078185-.206886,2.480951,17.30951,5.966818,39.123959,7.78592,21.814449,1.819102,39.666271,1.282583,39.873157-1.198368.088076-1.056197-3.044322-2.294431-8.344734-3.508767Z" fill="none" stroke="#000" stroke-linecap="round" stroke-linejoin="round"/></g><path d="M199.001597,162.901543c-.821912-1.184321-1.185249-2.19157-1.393336-2.792546-.065884-.189338-.284408-.189338-.349639,0-.208087.600976-.571425,1.608224-1.393336,2.792546-.514673.742022-1.022171,1.828224-1.022171,2.89833,0,1.825925,1.121323,3.062372,2.590327,3.062372s2.590327-1.237214,2.590327-3.062372c0-1.112266-.507498-2.156309-1.022171-2.898331Z" fill="none" stroke="#000" stroke-linecap="round" stroke-linejoin="round"/><path d="M198.149679,166.102594c.414217-.925994.355509-1.832057.68297-1.668782.444876.223066.937371,1.36906.752767,2.407737-.131767.740489-.557074,1.188921-1.099144.975053-.437701-.172474-.709715-.88-.336593-1.714008Z" fill="none" stroke="#000" stroke-linecap="round" stroke-linejoin="round"/><path d="M189.837699,159.916064l-4.707218-9.547536c-.57305-1.162303-.095366-2.569085,1.066938-3.142135l5.248596-2.587713c1.162303-.57305,2.569085-.095366,3.142135,1.066938l3.720685,7.546575c1.117897,2.267403.186038,5.011731-2.081365,6.129629l-3.247635,1.60118c-1.162303.57305-2.569085.095366-3.142135-1.066938Z" fill="none" stroke="#000" stroke-linecap="round" stroke-linejoin="round"/><ellipse cx="186.5" cy="153" rx="9.148582" ry="4.951479" transform="translate(-48.326377 97.79291) rotate(-26.134765)" fill="none" stroke="#000" stroke-linecap="round" stroke-linejoin="round"/><ellipse cx="188.5" cy="156.5" rx="2.367573" ry="7.929796" transform="translate(-22.842732 280.430422) rotate(-70.087938)" fill="none" stroke="#000" stroke-linecap="round" stroke-linejoin="round"/></svg>