<?xml version="1.0" encoding="UTF-8"?><svg id="uuid-259b6f9c-0060-4df5-8ae1-54243f6b28a9" xmlns="http://www.w3.org/2000/svg" viewBox="0 0 500 500"><text transform="translate(61.89 390.34)" fill="#333" font-family="ComicNeue-Regular, &apos;Comic Neue&apos;" font-size="24"><tspan x="0" y="0">Because the government could only </tspan><tspan x="0" y="28.8">afford to treat physical trauma.</tspan></text><path d="M265.72,137.06l-.06-.25h0c-1.2-4.64-5.89-7.41-10.54-6.21l-33.35,8.62h0c-4.99,1.29-8.01,6.42-6.72,11.41l.06.25c1.2,4.64,5.89,7.41,10.54,6.21l33.35-8.62h0c4.99-1.29,8.01-6.42,6.72-11.41h0ZM219.95,147.78c-.49.13-1.02-.18-1.15-.68-.13-.49.18-1.02.68-1.15s1.02.18,1.15.68-.18,1.02-.68,1.15ZM222.42,144.72c-.49.13-1.02-.18-1.15-.68s.18-1.02.68-1.15,1.02.18,1.15.68-.18,1.02-.68,1.15ZM221.08,152.18c-.49.13-1.02-.18-1.15-.68s.18-1.02.68-1.15,1.02.18,1.15.68-.18,1.02-.68,1.15ZM223.61,149.31c-.49.13-1.02-.18-1.15-.68s.18-1.02.68-1.15,1.02.18,1.15.68-.18,1.02-.68,1.15ZM226.09,146.17c-.49.13-1.02-.18-1.15-.68s.18-1.02.68-1.15,1.02.18,1.15.68-.18,1.02-.68,1.15ZM228.55,143.14c-.49.13-1.02-.18-1.15-.68s.18-1.02.68-1.15,1.02.18,1.15.68-.18,1.02-.68,1.15ZM224.72,153.61c-.49.13-1.02-.18-1.15-.68s.18-1.02.68-1.15,1.02.18,1.15.68c.13.49-.18,1.02-.68,1.15ZM227.21,150.6c-.49.13-1.02-.18-1.15-.68s.18-1.02.68-1.15,1.02.18,1.15.68-.18,1.02-.68,1.15ZM229.74,147.73c-.49.13-1.02-.18-1.15-.68s.18-1.02.68-1.15,1.02.18,1.15.68-.18,1.02-.68,1.15ZM230.86,152.08c-.49.13-1.02-.18-1.15-.68s.18-1.02.68-1.15,1.02.18,1.15.68c.13.49-.18,1.02-.68,1.15ZM250.39,137.49c-.49.13-1.02-.18-1.15-.68s.18-1.02.68-1.15,1.02.18,1.15.68-.18,1.02-.68,1.15ZM251.5,141.79c-.49.13-1.02-.18-1.15-.68s.18-1.02.68-1.15,1.02.18,1.15.68-.18,1.02-.68,1.15ZM254.01,138.95c-.49.13-1.02-.18-1.15-.68s.18-1.02.68-1.15,1.02.18,1.15.68-.18,1.02-.68,1.15ZM256.51,135.91c-.49.13-1.02-.18-1.15-.68s.18-1.02.68-1.15,1.02.18,1.15.68-.18,1.02-.68,1.15ZM252.72,146.4c-.49.13-1.02-.18-1.15-.68s.18-1.02.68-1.15,1.02.18,1.15.68-.18,1.02-.68,1.15ZM255.17,143.37c-.49.13-1.02-.18-1.15-.68s.18-1.02.68-1.15,1.02.18,1.15.68-.18,1.02-.68,1.15ZM257.62,140.21c-.49.13-1.02-.18-1.15-.68s.18-1.02.68-1.15,1.02.18,1.15.68-.18,1.02-.68,1.15ZM260.16,137.39c-.49.13-1.02-.18-1.15-.68s.18-1.02.68-1.15,1.02.18,1.15.68-.18,1.02-.68,1.15ZM258.82,144.85c-.49.13-1.02-.18-1.15-.68s.18-1.02.68-1.15,1.02.18,1.15.68-.18,1.02-.68,1.15ZM261.3,141.79c-.49.13-1.02-.18-1.15-.68s.18-1.02.68-1.15,1.02.18,1.15.68-.18,1.02-.68,1.15Z" fill="#bdbdbd"/><path d="M265.55,136.42l-.06-.25h0c-1.2-4.64-5.89-7.41-10.54-6.21l-33.35,8.62h0c-4.99,1.29-8.01,6.42-6.72,11.41l.06.25c1.2,4.64,5.89,7.41,10.54,6.21l33.35-8.62h0c4.99-1.29,8.01-6.42,6.72-11.41h0ZM219.77,147.09c-.49.13-1.02-.18-1.15-.68s.18-1.02.68-1.15,1.02.18,1.15.68-.18,1.02-.68,1.15ZM222.26,144.08c-.49.13-1.02-.18-1.15-.68s.18-1.02.68-1.15,1.02.18,1.15.68-.18,1.02-.68,1.15ZM220.92,151.54c-.49.13-1.02-.18-1.15-.68s.18-1.02.68-1.15,1.02.18,1.15.68-.18,1.02-.68,1.15ZM223.44,148.67c-.49.13-1.02-.18-1.15-.68s.18-1.02.68-1.15,1.02.18,1.15.68-.18,1.02-.68,1.15ZM225.89,145.51c-.49.13-1.02-.18-1.15-.68s.18-1.02.68-1.15,1.02.18,1.15.68-.18,1.02-.68,1.15ZM228.38,142.49c-.49.13-1.02-.18-1.15-.68s.18-1.02.68-1.15,1.02.18,1.15.68c.13.49-.18,1.02-.68,1.15ZM224.55,152.97c-.49.13-1.02-.18-1.15-.68s.18-1.02.68-1.15,1.02.18,1.15.68-.18,1.02-.68,1.15ZM227.04,149.95c-.49.13-1.02-.18-1.15-.68s.18-1.02.68-1.15,1.02.18,1.15.68-.18,1.02-.68,1.15ZM229.57,147.09c-.49.13-1.02-.18-1.15-.68s.18-1.02.68-1.15,1.02.18,1.15.68-.18,1.02-.68,1.15ZM230.68,151.39c-.49.13-1.02-.18-1.15-.68s.18-1.02.68-1.15,1.02.18,1.15.68c.13.49-.18,1.02-.68,1.15ZM250.22,136.85c-.49.13-1.02-.18-1.15-.68s.18-1.02.68-1.15,1.02.18,1.15.68-.18,1.02-.68,1.15ZM251.33,141.15c-.49.13-1.02-.18-1.15-.68s.18-1.02.68-1.15,1.02.18,1.15.68-.18,1.02-.68,1.15ZM253.86,138.28c-.49.13-1.02-.18-1.15-.68s.18-1.02.68-1.15,1.02.18,1.15.68-.18,1.02-.68,1.15ZM256.35,135.26c-.49.13-1.02-.18-1.15-.68s.18-1.02.68-1.15,1.02.18,1.15.68-.18,1.02-.68,1.15ZM252.52,145.74c-.49.13-1.02-.18-1.15-.68s.18-1.02.68-1.15,1.02.18,1.15.68-.18,1.02-.68,1.15ZM255.01,142.73c-.49.13-1.02-.18-1.15-.68s.18-1.02.68-1.15,1.02.18,1.15.68-.18,1.02-.68,1.15ZM257.46,139.56c-.49.13-1.02-.18-1.15-.68s.18-1.02.68-1.15,1.02.18,1.15.68-.18,1.02-.68,1.15ZM259.98,136.7c-.49.13-1.02-.18-1.15-.68s.18-1.02.68-1.15,1.02.18,1.15.68-.18,1.02-.68,1.15ZM258.65,144.16c-.49.13-1.02-.18-1.15-.68-.13-.49.18-1.02.68-1.15s1.02.18,1.15.68-.18,1.02-.68,1.15ZM261.13,141.14c-.49.13-1.02-.18-1.15-.68s.18-1.02.68-1.15,1.02.18,1.15.68-.18,1.02-.68,1.15Z" fill="#e0e1e0"/><path d="M247.11,148.38c1.07-.33,1.08-.62-.19-1.24-1.03-.52-2.07-.26-2.71-.09l-6.97,1.8c-.64.17-1.26-.2-1.4-.82l-.03-.02c-.26-1.2-1.42-5.69-1.42-5.69-.17-.64-.32-1.45-.76-1.91-.36-.38-.63-.79-1.54-1.08-.78-.25-.17,1.49-.04,1.99.19.74,1.7,6.57,2.26,8.74.22.84,1.06,1.33,1.9,1.12,0,0,10.54-2.67,10.9-2.79h0Z" fill="#bdbdbd"/><path d="M248.69,146.34s-2.53-9.7-2.58-9.98c-.22-.84-1.06-1.33-1.9-1.12-.99.26-10.14,2.57-10.14,2.57,0,0-1.24.32-.52.95s1.37.81,2.29.59c2.43-.58,7.26-1.8,7.26-1.8.64-.17,1.26.2,1.4.82.29,1.14,1.31,4.96,1.51,5.75.26.99.72,1.76,1.6,2.33,1.14.76,1,.08,1-.13h.08Z" fill="#fff"/><path d="M265.72,137.06l-.06-.25h0c-1.2-4.64-5.89-7.41-10.54-6.21l-33.35,8.62h0c-4.99,1.29-8.01,6.42-6.72,11.41l.06.25c1.2,4.64,5.89,7.41,10.54,6.21l33.35-8.62h0c4.99-1.29,8.01-6.42,6.72-11.41h0ZM219.95,147.78c-.49.13-1.02-.18-1.15-.68-.13-.49.18-1.02.68-1.15s1.02.18,1.15.68-.18,1.02-.68,1.15ZM222.42,144.72c-.49.13-1.02-.18-1.15-.68s.18-1.02.68-1.15,1.02.18,1.15.68-.18,1.02-.68,1.15ZM221.08,152.18c-.49.13-1.02-.18-1.15-.68s.18-1.02.68-1.15,1.02.18,1.15.68-.18,1.02-.68,1.15ZM223.61,149.31c-.49.13-1.02-.18-1.15-.68s.18-1.02.68-1.15,1.02.18,1.15.68-.18,1.02-.68,1.15ZM226.09,146.17c-.49.13-1.02-.18-1.15-.68s.18-1.02.68-1.15,1.02.18,1.15.68-.18,1.02-.68,1.15ZM228.55,143.14c-.49.13-1.02-.18-1.15-.68s.18-1.02.68-1.15,1.02.18,1.15.68-.18,1.02-.68,1.15ZM224.72,153.61c-.49.13-1.02-.18-1.15-.68s.18-1.02.68-1.15,1.02.18,1.15.68c.13.49-.18,1.02-.68,1.15ZM227.21,150.6c-.49.13-1.02-.18-1.15-.68s.18-1.02.68-1.15,1.02.18,1.15.68-.18,1.02-.68,1.15ZM229.74,147.73c-.49.13-1.02-.18-1.15-.68s.18-1.02.68-1.15,1.02.18,1.15.68-.18,1.02-.68,1.15ZM230.86,152.08c-.49.13-1.02-.18-1.15-.68s.18-1.02.68-1.15,1.02.18,1.15.68c.13.49-.18,1.02-.68,1.15ZM250.39,137.49c-.49.13-1.02-.18-1.15-.68s.18-1.02.68-1.15,1.02.18,1.15.68-.18,1.02-.68,1.15ZM251.5,141.79c-.49.13-1.02-.18-1.15-.68s.18-1.02.68-1.15,1.02.18,1.15.68-.18,1.02-.68,1.15ZM254.01,138.95c-.49.13-1.02-.18-1.15-.68s.18-1.02.68-1.15,1.02.18,1.15.68-.18,1.02-.68,1.15ZM256.51,135.91c-.49.13-1.02-.18-1.15-.68s.18-1.02.68-1.15,1.02.18,1.15.68-.18,1.02-.68,1.15ZM252.72,146.4c-.49.13-1.02-.18-1.15-.68s.18-1.02.68-1.15,1.02.18,1.15.68-.18,1.02-.68,1.15ZM255.17,143.37c-.49.13-1.02-.18-1.15-.68s.18-1.02.68-1.15,1.02.18,1.15.68-.18,1.02-.68,1.15ZM257.62,140.21c-.49.13-1.02-.18-1.15-.68s.18-1.02.68-1.15,1.02.18,1.15.68-.18,1.02-.68,1.15ZM260.16,137.39c-.49.13-1.02-.18-1.15-.68s.18-1.02.68-1.15,1.02.18,1.15.68-.18,1.02-.68,1.15ZM258.82,144.85c-.49.13-1.02-.18-1.15-.68s.18-1.02.68-1.15,1.02.18,1.15.68-.18,1.02-.68,1.15ZM261.3,141.79c-.49.13-1.02-.18-1.15-.68s.18-1.02.68-1.15,1.02.18,1.15.68-.18,1.02-.68,1.15Z" fill="none" stroke="#000" stroke-linecap="round" stroke-linejoin="round"/><path d="M265.55,136.42l-.06-.25h0c-1.2-4.64-5.89-7.41-10.54-6.21l-33.35,8.62h0c-4.99,1.29-8.01,6.42-6.72,11.41l.06.25c1.2,4.64,5.89,7.41,10.54,6.21l33.35-8.62h0c4.99-1.29,8.01-6.42,6.72-11.41h0ZM219.77,147.09c-.49.13-1.02-.18-1.15-.68s.18-1.02.68-1.15,1.02.18,1.15.68-.18,1.02-.68,1.15ZM222.26,144.08c-.49.13-1.02-.18-1.15-.68s.18-1.02.68-1.15,1.02.18,1.15.68-.18,1.02-.68,1.15ZM220.92,151.54c-.49.13-1.02-.18-1.15-.68s.18-1.02.68-1.15,1.02.18,1.15.68-.18,1.02-.68,1.15ZM223.44,148.67c-.49.13-1.02-.18-1.15-.68s.18-1.02.68-1.15,1.02.18,1.15.68-.18,1.02-.68,1.15ZM225.89,145.51c-.49.13-1.02-.18-1.15-.68s.18-1.02.68-1.15,1.02.18,1.15.68-.18,1.02-.68,1.15ZM228.38,142.49c-.49.13-1.02-.18-1.15-.68s.18-1.02.68-1.15,1.02.18,1.15.68c.13.49-.18,1.02-.68,1.15ZM224.55,152.97c-.49.13-1.02-.18-1.15-.68s.18-1.02.68-1.15,1.02.18,1.15.68-.18,1.02-.68,1.15ZM227.04,149.95c-.49.13-1.02-.18-1.15-.68s.18-1.02.68-1.15,1.02.18,1.15.68-.18,1.02-.68,1.15ZM229.57,147.09c-.49.13-1.02-.18-1.15-.68s.18-1.02.68-1.15,1.02.18,1.15.68-.18,1.02-.68,1.15ZM230.68,151.39c-.49.13-1.02-.18-1.15-.68s.18-1.02.68-1.15,1.02.18,1.15.68c.13.49-.18,1.02-.68,1.15ZM250.22,136.85c-.49.13-1.02-.18-1.15-.68s.18-1.02.68-1.15,1.02.18,1.15.68-.18,1.02-.68,1.15ZM251.33,141.15c-.49.13-1.02-.18-1.15-.68s.18-1.02.68-1.15,1.02.18,1.15.68-.18,1.02-.68,1.15ZM253.86,138.28c-.49.13-1.02-.18-1.15-.68s.18-1.02.68-1.15,1.02.18,1.15.68-.18,1.02-.68,1.15ZM256.35,135.26c-.49.13-1.02-.18-1.15-.68s.18-1.02.68-1.15,1.02.18,1.15.68-.18,1.02-.68,1.15ZM252.52,145.74c-.49.13-1.02-.18-1.15-.68s.18-1.02.68-1.15,1.02.18,1.15.68-.18,1.02-.68,1.15ZM255.01,142.73c-.49.13-1.02-.18-1.15-.68s.18-1.02.68-1.15,1.02.18,1.15.68-.18,1.02-.68,1.15ZM257.46,139.56c-.49.13-1.02-.18-1.15-.68s.18-1.02.68-1.15,1.02.18,1.15.68-.18,1.02-.68,1.15ZM259.98,136.7c-.49.13-1.02-.18-1.15-.68s.18-1.02.68-1.15,1.02.18,1.15.68-.18,1.02-.68,1.15ZM258.65,144.16c-.49.13-1.02-.18-1.15-.68-.13-.49.18-1.02.68-1.15s1.02.18,1.15.68-.18,1.02-.68,1.15ZM261.13,141.14c-.49.13-1.02-.18-1.15-.68s.18-1.02.68-1.15,1.02.18,1.15.68-.18,1.02-.68,1.15Z" fill="none" stroke="#000" stroke-linecap="round" stroke-linejoin="round"/><path d="M247.11,148.38c1.07-.33,1.08-.62-.19-1.24-1.03-.52-2.07-.26-2.71-.09l-6.97,1.8c-.64.17-1.26-.2-1.4-.82l-.03-.02c-.26-1.2-1.42-5.69-1.42-5.69-.17-.64-.32-1.45-.76-1.91-.36-.38-.63-.79-1.54-1.08-.78-.25-.17,1.49-.04,1.99.19.74,1.7,6.57,2.26,8.74.22.84,1.06,1.33,1.9,1.12,0,0,10.54-2.67,10.9-2.79h0Z" fill="none" stroke="#000" stroke-linecap="round" stroke-linejoin="round"/><path d="M248.69,146.34s-2.53-9.7-2.58-9.98c-.22-.84-1.06-1.33-1.9-1.12-.99.26-10.14,2.57-10.14,2.57,0,0-1.24.32-.52.95s1.37.81,2.29.59c2.43-.58,7.26-1.8,7.26-1.8.64-.17,1.26.2,1.4.82.29,1.14,1.31,4.96,1.51,5.75.26.99.72,1.76,1.6,2.33,1.14.76,1,.08,1-.13h.08Z" fill="none" stroke="#000" stroke-linecap="round" stroke-linejoin="round"/><g id="uuid-5f3ccd3d-8c22-48dc-bbab-0a02206e489d"><polygon id="uuid-75c453a7-2ebe-439c-b490-170e2c7179c7" points="321 296 341 296 341 330.96 341 338 311 338 311 331 321 331 321 296" fill="#5f4d2f"/><rect id="uuid-728510a3-8e09-4495-93bc-70a27374c164" x="319" y="247" width="25" height="49" fill="#726038"/><polygon id="uuid-850a9f6a-16b4-48a1-a34e-2985f07ccd69" points="353 296 373 296 373 331 383 331 383 338 353 338 353 330.96 353 330.96 353 296" fill="#5f4d2f"/><rect id="uuid-aea62e89-ffb9-429a-b5a9-d692824d651c" x="350" y="247" width="25" height="49" fill="#726038"/><path id="uuid-27ed45d9-2c8f-4341-9c85-24a039f3d04e" d="M375,147v100h-56v-100h56Z" fill="#726038"/><rect id="uuid-d8a4a254-7479-4333-a21d-702cc44c7d57" x="319" y="205" width="56" height="17" fill="#ac935a"/><rect id="uuid-46638133-914d-4f2c-b2c9-196c8cd3da92" x="328" y="146" width="7" height="59" fill="#ac935a"/><rect id="uuid-2e01a4a6-6a08-4336-b30d-f1d93c9a6dbb" x="359" y="146" width="7" height="59" fill="#ac935a"/><path id="uuid-f296839b-dfb2-4a3b-b6d0-8067b2000f08" d="M319.54,133.08c-1.92-5.42-2.95-11.51-2.84-17.93.38-22.19,14.17-39.94,30.81-39.66,16.64.28,29.82,18.5,29.44,40.69-.11,6.43-1.35,12.47-3.45,17.83l-53.96-.92Z" fill="#eec6a2"/><path id="uuid-9a457810-7d90-4af6-9062-2deb3462f52a" d="M371.82,139c-5.35,11.19-14.73,18.62-25.42,18.62s-20.07-7.43-25.42-18.62h50.84Z" fill="#eec6a2"/><ellipse id="uuid-d1a882d5-6447-4da4-bd13-7b414f59b673" cx="327" cy="119.5" rx="2.99" ry="4.51" transform="translate(-8.51 26.53) rotate(-4.59)" fill="#333"/><ellipse id="uuid-d52467b7-05c4-4910-a658-a66c71251b88" cx="343" cy="119.5" rx="2.99" ry="4.51" transform="translate(-8.46 27.81) rotate(-4.59)" fill="#333"/><rect id="uuid-f3fbfe83-15df-44b2-a982-b02d55af09df" x="279.26" y="143.23" width="15.07" height="32.14" transform="translate(-4.67 309.9) rotate(-56.38)" fill="#726038"/><rect id="uuid-295e093b-fc4d-4c5b-9e70-eba26c671886" x="291.83" y="153.74" width="32.14" height="15.07" transform="translate(-39.57 152.78) rotate(-26.24)" fill="#726038"/><rect id="uuid-66f890f5-49e0-4fab-9710-1999ed936d28" x="375.97" y="146.2" width="15.07" height="32.14" transform="translate(-11.91 31.68) rotate(-4.66)" fill="#726038"/><rect id="uuid-70fb0be5-fc6b-4ce1-af92-0e7e11ea6c0e" x="378.56" y="178.02" width="15.07" height="32.14" transform="translate(-14.49 31.99) rotate(-4.66)" fill="#726038"/><rect id="uuid-11f95230-8cf4-4ed9-b876-cc85d4985e99" x="258.36" y="137.79" width="16.26" height="16.26" transform="translate(-2.58 287.02) rotate(-56.38)" fill="#eec6a2"/><rect id="uuid-49015106-a255-41d3-978c-98b00446bade" x="380.02" y="210.16" width="16.07" height="16.07" transform="translate(-16.44 32.23) rotate(-4.66)" fill="#eec6a2"/><circle id="uuid-6506d4f0-10b0-43b4-8663-0d8840ce46e4" cx="347" cy="193" r="2" fill="#333"/><circle id="uuid-ad8e1cbf-d956-4abc-9b92-57824a08ac06" cx="347" cy="185" r="2" fill="#333"/><circle id="uuid-dd19bb0e-3154-47f1-93bd-7472b4ba1cd3" cx="347" cy="177" r="2" fill="#333"/><circle id="uuid-0b977f46-b645-4952-89aa-2f6c95bbc88a" cx="347" cy="168" r="2" fill="#333"/><path d="M313.55,91.36c2.05-13.99,16.62-24.67,34.1-24.38,17.48.3,31.67,11.47,33.25,25.52,5.83.93,9.31,2.05,9.29,3.2-.05,2.7-19.34,4.56-43.1,4.16-23.76-.41-42.98-2.92-42.93-5.63.02-1.15,3.54-2.15,9.39-2.88Z" fill="#596a66"/><polygon id="uuid-16886006-ddb0-4fe5-86ba-4e1538a903bc" points="321 296 341 296 341 330.96 341 338 311 338 311 331 321 331 321 296" fill="none" stroke="#000" stroke-linecap="round" stroke-linejoin="round"/><rect id="uuid-036ad072-4565-4c93-830b-33e0de0dec4c" x="319" y="247" width="25" height="49" fill="none" stroke="#000" stroke-linecap="round" stroke-linejoin="round"/><polygon id="uuid-397456e2-7a53-456b-b339-ebe4a81350a8" points="353 296 373 296 373 331 383 331 383 338 353 338 353 330.96 353 330.96 353 296" fill="none" stroke="#000" stroke-linecap="round" stroke-linejoin="round"/><rect id="uuid-b8523849-7bae-489b-a2c5-6d130516ff64" x="350" y="247" width="25" height="49" fill="none" stroke="#000" stroke-linecap="round" stroke-linejoin="round"/><path id="uuid-da83683c-eaf4-42f0-9fb3-3a98c272a386" d="M375,147v100h-56v-100h56Z" fill="none" stroke="#000" stroke-linecap="round" stroke-linejoin="round"/><rect id="uuid-d7399f7c-74b9-4ab6-9ecc-f41b28de6642" x="319" y="205" width="56" height="17" fill="none" stroke="#000" stroke-linecap="round" stroke-linejoin="round"/><rect id="uuid-c5572db1-7851-4107-8fba-57c149a3de63" x="328" y="146" width="7" height="59" fill="none" stroke="#000" stroke-linecap="round" stroke-linejoin="round"/><rect id="uuid-bc5b675b-2fb7-4779-aebb-1dcfd29f8685" x="359" y="146" width="7" height="59" fill="none" stroke="#000" stroke-linecap="round" stroke-linejoin="round"/><path id="uuid-5fa9085a-230c-43cc-9e01-0173ceb0cfe5" d="M319.54,133.08c-1.92-5.42-2.95-11.51-2.84-17.93.38-22.19,14.17-39.94,30.81-39.66,16.64.28,29.82,18.5,29.44,40.69-.11,6.43-1.35,12.47-3.45,17.83l-53.96-.92Z" fill="none" stroke="#000" stroke-linecap="round" stroke-linejoin="round"/><path id="uuid-9e0acc4f-a48f-40f9-b933-ce96f6fb69c1" d="M371.82,139c-5.35,11.19-14.73,18.62-25.42,18.62s-20.07-7.43-25.42-18.62h50.84Z" fill="none" stroke="#000" stroke-linecap="round" stroke-linejoin="round"/><ellipse id="uuid-bbcf96cd-7eca-458f-90ad-f564500b6e30" cx="327" cy="119.5" rx="2.99" ry="4.51" transform="translate(-8.51 26.53) rotate(-4.59)" fill="none" stroke="#000" stroke-linecap="round" stroke-linejoin="round"/><ellipse id="uuid-4b285534-720b-40ea-b85e-bbf7f18739a3" cx="343" cy="119.5" rx="2.99" ry="4.51" transform="translate(-8.46 27.81) rotate(-4.59)" fill="none" stroke="#000" stroke-linecap="round" stroke-linejoin="round"/><rect id="uuid-20368902-bfef-4371-9894-af6b29789717" x="279.26" y="143.23" width="15.07" height="32.14" transform="translate(-4.67 309.9) rotate(-56.38)" fill="none" stroke="#000" stroke-linecap="round" stroke-linejoin="round"/><rect id="uuid-6d374285-2555-4e34-899c-87597f8b6e7f" x="291.83" y="153.74" width="32.14" height="15.07" transform="translate(-39.57 152.78) rotate(-26.24)" fill="none" stroke="#000" stroke-linecap="round" stroke-linejoin="round"/><rect id="uuid-7c3d56fb-6542-46da-bcf2-1a0f33478640" x="375.97" y="146.2" width="15.07" height="32.14" transform="translate(-11.91 31.68) rotate(-4.66)" fill="none" stroke="#000" stroke-linecap="round" stroke-linejoin="round"/><rect id="uuid-fcf995ea-f926-4274-b64f-16e329c3b082" x="378.56" y="178.02" width="15.07" height="32.14" transform="translate(-14.49 31.99) rotate(-4.66)" fill="none" stroke="#000" stroke-linecap="round" stroke-linejoin="round"/><rect id="uuid-44e28850-0ca9-4eb9-87e4-28883f6f5768" x="258.36" y="137.79" width="16.26" height="16.26" transform="translate(-2.58 287.02) rotate(-56.38)" fill="none" stroke="#000" stroke-linecap="round" stroke-linejoin="round"/><rect id="uuid-cdc83555-a4c8-438d-8a05-6abfe315d213" x="380.02" y="210.16" width="16.07" height="16.07" transform="translate(-16.44 32.23) rotate(-4.66)" fill="none" stroke="#000" stroke-linecap="round" stroke-linejoin="round"/><circle id="uuid-1c73f301-875f-449d-a580-e40047e22cd1" cx="347" cy="193" r="2" fill="none" stroke="#000" stroke-linecap="round" stroke-linejoin="round"/><circle id="uuid-4a4107f6-85c0-4248-a42a-cbba3ecba9fd" cx="347" cy="185" r="2" fill="none" stroke="#000" stroke-linecap="round" stroke-linejoin="round"/><circle id="uuid-6eee8b15-1805-414b-a76b-29abd05f8abe" cx="347" cy="177" r="2" fill="none" stroke="#000" stroke-linecap="round" stroke-linejoin="round"/><circle id="uuid-963b944d-466d-4c31-8fcd-2f8fe712cc4c" cx="347" cy="168" r="2" fill="none" stroke="#000" stroke-linecap="round" stroke-linejoin="round"/><path d="M313.55,91.36c2.05-13.99,16.62-24.67,34.1-24.38,17.48.3,31.67,11.47,33.25,25.52,5.83.93,9.31,2.05,9.29,3.2-.05,2.7-19.34,4.56-43.1,4.16-23.76-.41-42.98-2.92-42.93-5.63.02-1.15,3.54-2.15,9.39-2.88Z" fill="none" stroke="#000" stroke-linecap="round" stroke-linejoin="round"/></g><g id="uuid-47ca22e8-5706-4ed6-ac07-a5c87ea495ff"><polygon id="uuid-81836bee-611a-4bbb-b10a-4e979d140941" points="169 296 151 296 151 329.3 151 336 178 336 178 329 169 329 169 296" fill="#5f5f5f"/><rect id="uuid-26a2d6bc-628f-4604-8132-09ac6a32dcf6" x="148" y="251" width="23" height="46" fill="#727272"/><polygon id="uuid-af789b4c-a01b-4cc3-abc5-4ba67fb23703" points="140 296 122 296 122 329 113 329 113 336 140 336 140 329.3 140 329.3 140 296" fill="#5f5f5f"/><rect id="uuid-8e571e48-9b6c-4052-95dd-4c0e27f2770b" x="120" y="251" width="23" height="46" fill="#727272"/><path id="uuid-5ead7189-05c8-40ea-82ab-79174e6c544b" d="M119,159v92h52v-92h-52Z" fill="#727272"/><rect id="uuid-c01b11e5-2265-4511-8e63-d3f5b100dee7" x="119" y="212" width="52" height="16" fill="#acacac"/><rect id="uuid-899628a9-242f-44b6-8d86-00828999d3cb" x="156" y="157" width="7" height="55" fill="#acacac"/><rect id="uuid-630c116c-a541-4cba-824f-605ca563076a" x="128" y="157" width="7" height="55" fill="#acacac"/><path id="uuid-b4d795f4-4705-4c0a-8c9b-b7e251ff43d4" d="M170.14,148c1.85-4.96,2.9-10.55,2.9-16.47,0-20.44-12.43-37.02-27.76-37.02s-27.76,16.57-27.76,37.02c0,5.92,1.05,11.51,2.9,16.47h49.72Z" fill="#ccc"/><path id="uuid-d766c8d1-aad5-45d4-bd3d-c9e11a430fa6" d="M121.86,152c4.93,10.31,13.57,17.15,23.42,17.15s18.49-6.84,23.42-17.15h-46.84Z" fill="#ccc"/><ellipse id="uuid-19869f9e-8fa9-4973-89db-e191cd84d982" cx="163.5" cy="134" rx="2.5" ry="4" fill="#333"/><ellipse id="uuid-4cac3f63-efbf-48fb-8a57-2570db34fb11" cx="148.5" cy="134" rx="2.5" ry="4" fill="#333"/><rect id="uuid-efe5e159-0ec6-4e89-9bdc-099fa799cabb" x="166.05" y="151.71" width="29.61" height="13.88" transform="translate(-51.51 96.33) rotate(-26.24)" fill="#727272"/><rect id="uuid-6d388d11-8847-4229-8a0f-9cb54f1d9162" x="98.14" y="165.91" width="29.61" height="13.88" transform="translate(-64.67 278.15) rotate(-87.5)" fill="#727272"/><rect id="uuid-637db3a9-07bc-4a1b-bdd5-25e7dd68e889" x="96.85" y="195.5" width="29.61" height="13.88" transform="translate(-95.46 305.15) rotate(-87.5)" fill="#727272"/><rect id="uuid-e641264f-3868-4fd5-8c39-17c4f8a98a07" x="103" y="216" width="15" height="15" fill="#ccc"/><circle id="uuid-1f973465-e424-4561-80d9-31a968ca7ff2" cx="145" cy="202" r="2" fill="#333"/><circle id="uuid-61a7c2a1-a1a2-40f2-b27d-3db938bf150f" cx="145" cy="194" r="2" fill="#333"/><circle id="uuid-09b8146a-2a38-47d6-b337-f83712a18852" cx="145" cy="187" r="2" fill="#333"/><circle id="uuid-d7061d58-03b0-4cbd-8ee1-440c50b3f1c3" cx="145" cy="177" r="2" fill="#333"/><path d="M175.55,112.84c-.59-13.02-12.96-24.15-29.01-25.49-16.05-1.34-30.09,7.59-32.83,20.33-5.43.32-8.72,1.02-8.81,2.08-.21,2.48,17.31,5.97,39.12,7.79,21.81,1.82,39.67,1.28,39.87-1.2.09-1.06-3.04-2.29-8.34-3.51Z" fill="#6a6a6a"/></g><path d="M199,162.9c-.82-1.18-1.19-2.19-1.39-2.79-.07-.19-.28-.19-.35,0-.21.6-.57,1.61-1.39,2.79-.51.74-1.02,1.83-1.02,2.9,0,1.83,1.12,3.06,2.59,3.06s2.59-1.24,2.59-3.06c0-1.11-.51-2.16-1.02-2.9Z" fill="#c1272d"/><path d="M198.15,166.1c.41-.93.36-1.83.68-1.67.44.22.94,1.37.75,2.41-.13.74-.56,1.19-1.1.98-.44-.17-.71-.88-.34-1.71Z" fill="#e36250"/><path d="M189.84,159.92l-4.71-9.55c-.57-1.16-.1-2.57,1.07-3.14l5.25-2.59c1.16-.57,2.57-.1,3.14,1.07l3.72,7.55c1.12,2.27.19,5.01-2.08,6.13l-3.25,1.6c-1.16.57-2.57.1-3.14-1.07Z" fill="#c1272d"/><ellipse cx="186.5" cy="153" rx="9.15" ry="4.95" transform="translate(-48.33 97.79) rotate(-26.13)" fill="#c1272d"/><ellipse cx="188.5" cy="156.5" rx="2.37" ry="7.93" transform="translate(-22.84 280.43) rotate(-70.09)" fill="#c1272d"/><g id="uuid-f5bef524-00b3-4320-8caa-f6493728f1fd"><polygon id="uuid-08fc6794-2c19-498e-aee1-f7cc6660aed1" points="169 296 151 296 151 329.3 151 336 178 336 178 329 169 329 169 296" fill="none" stroke="#000" stroke-linecap="round" stroke-linejoin="round"/><rect id="uuid-9baeac06-b9ea-4fe4-8b0b-a9defc1c7792" x="148" y="251" width="23" height="46" fill="none" stroke="#000" stroke-linecap="round" stroke-linejoin="round"/><polygon id="uuid-7cb0b236-2937-45aa-a569-11773706e6f8" points="140 296 122 296 122 329 113 329 113 336 140 336 140 329.3 140 329.3 140 296" fill="none" stroke="#000" stroke-linecap="round" stroke-linejoin="round"/><rect id="uuid-b1d09736-ff82-4f6f-85f1-265355570fe1" x="120" y="251" width="23" height="46" fill="none" stroke="#000" stroke-linecap="round" stroke-linejoin="round"/><path id="uuid-eaab4a23-896c-4cb4-80de-2aca3ba6f906" d="M119,159v92h52v-92h-52Z" fill="none" stroke="#000" stroke-linecap="round" stroke-linejoin="round"/><rect id="uuid-06540063-008e-4284-a655-f200e4a3b2c1" x="119" y="212" width="52" height="16" fill="none" stroke="#000" stroke-linecap="round" stroke-linejoin="round"/><rect id="uuid-0a61d139-b8c3-4082-9cfa-da83f417a916" x="156" y="157" width="7" height="55" fill="none" stroke="#000" stroke-linecap="round" stroke-linejoin="round"/><rect id="uuid-de517adb-6ea9-4651-8d0b-50ba01cd64d0" x="128" y="157" width="7" height="55" fill="none" stroke="#000" stroke-linecap="round" stroke-linejoin="round"/><path id="uuid-451439e1-a4bb-4c64-9070-ec9e5d22fa5e" d="M170.14,148c1.85-4.96,2.9-10.55,2.9-16.47,0-20.44-12.43-37.02-27.76-37.02s-27.76,16.57-27.76,37.02c0,5.92,1.05,11.51,2.9,16.47h49.72Z" fill="none" stroke="#000" stroke-linecap="round" stroke-linejoin="round"/><path id="uuid-22eda193-95c1-4882-91c5-9d48c6dcfd15" d="M121.86,152c4.93,10.31,13.57,17.15,23.42,17.15s18.49-6.84,23.42-17.15h-46.84Z" fill="none" stroke="#000" stroke-linecap="round" stroke-linejoin="round"/><ellipse id="uuid-8d2bcae8-22d8-4004-9e62-b9714a5b71ad" cx="163.5" cy="134" rx="2.5" ry="4" fill="none" stroke="#000" stroke-linecap="round" stroke-linejoin="round"/><ellipse id="uuid-0b247ac2-b6c8-454d-8547-779839e3d319" cx="148.5" cy="134" rx="2.5" ry="4" fill="none" stroke="#000" stroke-linecap="round" stroke-linejoin="round"/><rect id="uuid-238c78b9-3374-4383-b219-7c1b8b0d1bfb" x="166.05" y="151.71" width="29.61" height="13.88" transform="translate(-51.51 96.33) rotate(-26.24)" fill="none" stroke="#000" stroke-linecap="round" stroke-linejoin="round"/><rect id="uuid-082a79da-e4dd-4267-a4e5-99d3a1591a08" x="98.14" y="165.91" width="29.61" height="13.88" transform="translate(-64.67 278.15) rotate(-87.5)" fill="none" stroke="#000" stroke-linecap="round" stroke-linejoin="round"/><rect id="uuid-b34ef204-fc29-4287-ab7b-511d5253a256" x="96.85" y="195.5" width="29.61" height="13.88" transform="translate(-95.46 305.15) rotate(-87.5)" fill="none" stroke="#000" stroke-linecap="round" stroke-linejoin="round"/><rect id="uuid-506216c0-d636-49c3-b02a-a4510685c3d2" x="103" y="216" width="15" height="15" fill="none" stroke="#000" stroke-linecap="round" stroke-linejoin="round"/><circle id="uuid-8b171eda-5d80-4980-98ba-a3f7371de4d8" cx="145" cy="202" r="2" fill="none" stroke="#000" stroke-linecap="round" stroke-linejoin="round"/><circle id="uuid-96b409d0-10da-4abd-b128-a3cc57379830" cx="145" cy="194" r="2" fill="none" stroke="#000" stroke-linecap="round" stroke-linejoin="round"/><circle id="uuid-1a0d2804-8513-4a11-a470-852c23004095" cx="145" cy="187" r="2" fill="none" stroke="#000" stroke-linecap="round" stroke-linejoin="round"/><circle id="uuid-3cb18ed9-d2d0-429f-8fbf-c62e6a9cbcd1" cx="145" cy="177" r="2" fill="none" stroke="#000" stroke-linecap="round" stroke-linejoin="round"/><path d="M175.55,112.84c-.59-13.02-12.96-24.15-29.01-25.49-16.05-1.34-30.09,7.59-32.83,20.33-5.43.32-8.72,1.02-8.81,2.08-.21,2.48,17.31,5.97,39.12,7.79,21.81,1.82,39.67,1.28,39.87-1.2.09-1.06-3.04-2.29-8.34-3.51Z" fill="none" stroke="#000" stroke-linecap="round" stroke-linejoin="round"/><polygon id="uuid-80200fba-6ea0-4d74-91b2-fa9d9c105372" points="169 296 151 296 151 329.3 151 336 178 336 178 329 169 329 169 296" fill="none" stroke="#000" stroke-linecap="round" stroke-linejoin="round"/><rect id="uuid-e23232d1-a9ab-435e-aad0-d4469d0119f7" x="148" y="251" width="23" height="46" fill="none" stroke="#000" stroke-linecap="round" stroke-linejoin="round"/><polygon id="uuid-2b154f8f-274f-4b50-979c-c14622710ae7" points="140 296 122 296 122 329 113 329 113 336 140 336 140 329.3 140 329.3 140 296" fill="none" stroke="#000" stroke-linecap="round" stroke-linejoin="round"/><rect id="uuid-1d9c7919-9a22-4bf3-8643-4e29f88c3b64" x="120" y="251" width="23" height="46" fill="none" stroke="#000" stroke-linecap="round" stroke-linejoin="round"/><path id="uuid-f7a49cd6-98a3-4b7b-966c-51f08c6d5655" d="M119,159v92h52v-92h-52Z" fill="none" stroke="#000" stroke-linecap="round" stroke-linejoin="round"/><rect id="uuid-3dcd38b1-a599-4801-a5fc-8904816a19aa" x="119" y="212" width="52" height="16" fill="none" stroke="#000" stroke-linecap="round" stroke-linejoin="round"/><rect id="uuid-a8b94fcc-d406-4dfd-b14f-b1b6f65075ae" x="156" y="157" width="7" height="55" fill="none" stroke="#000" stroke-linecap="round" stroke-linejoin="round"/><rect id="uuid-320f40f1-f9ce-48f7-ae53-cf91aa452ba9" x="128" y="157" width="7" height="55" fill="none" stroke="#000" stroke-linecap="round" stroke-linejoin="round"/><path id="uuid-87b09ba4-2345-4953-8a25-632ff256a252" d="M170.14,148c1.85-4.96,2.9-10.55,2.9-16.47,0-20.44-12.43-37.02-27.76-37.02s-27.76,16.57-27.76,37.02c0,5.92,1.05,11.51,2.9,16.47h49.72Z" fill="none" stroke="#000" stroke-linecap="round" stroke-linejoin="round"/><path id="uuid-8322fc56-d3c9-49d3-abb4-51dcda0c005a" d="M121.86,152c4.93,10.31,13.57,17.15,23.42,17.15s18.49-6.84,23.42-17.15h-46.84Z" fill="none" stroke="#000" stroke-linecap="round" stroke-linejoin="round"/><ellipse id="uuid-4c396e32-8480-4e1c-977a-f918baba0e51" cx="163.5" cy="134" rx="2.5" ry="4" fill="none" stroke="#000" stroke-linecap="round" stroke-linejoin="round"/><ellipse id="uuid-49ec6be0-7028-48af-9fa9-f0c717694d83" cx="148.5" cy="134" rx="2.5" ry="4" fill="none" stroke="#000" stroke-linecap="round" stroke-linejoin="round"/><rect id="uuid-f3083735-b43f-4223-b49b-4a5b66b69068" x="166.05" y="151.71" width="29.61" height="13.88" transform="translate(-51.51 96.33) rotate(-26.24)" fill="none" stroke="#000" stroke-linecap="round" stroke-linejoin="round"/><rect id="uuid-82cf7c7e-c06b-4010-b4ee-994bc0e23184" x="98.14" y="165.91" width="29.61" height="13.88" transform="translate(-64.67 278.15) rotate(-87.5)" fill="none" stroke="#000" stroke-linecap="round" stroke-linejoin="round"/><rect id="uuid-9a93d954-fc6a-40e7-b7e9-33720c2ebed8" x="96.85" y="195.5" width="29.61" height="13.88" transform="translate(-95.46 305.15) rotate(-87.5)" fill="none" stroke="#000" stroke-linecap="round" stroke-linejoin="round"/><rect id="uuid-6d98b5ca-21d2-4d61-a12c-bad5ae256d2d" x="103" y="216" width="15" height="15" fill="none" stroke="#000" stroke-linecap="round" stroke-linejoin="round"/><circle id="uuid-d58ab3fe-8b73-4e4f-bed4-7b7877e4874d" cx="145" cy="202" r="2" fill="none" stroke="#000" stroke-linecap="round" stroke-linejoin="round"/><circle id="uuid-a36ecd19-f5a2-4b54-a5bb-0c095588d674" cx="145" cy="194" r="2" fill="none" stroke="#000" stroke-linecap="round" stroke-linejoin="round"/><circle id="uuid-06292bf7-1e4f-4d53-a345-936112eb0141" cx="145" cy="187" r="2" fill="none" stroke="#000" stroke-linecap="round" stroke-linejoin="round"/><circle id="uuid-32c05f1f-179d-4315-afd9-37a2bf4b1c80" cx="145" cy="177" r="2" fill="none" stroke="#000" stroke-linecap="round" stroke-linejoin="round"/><path d="M175.55,112.84c-.59-13.02-12.96-24.15-29.01-25.49-16.05-1.34-30.09,7.59-32.83,20.33-5.43.32-8.72,1.02-8.81,2.08-.21,2.48,17.31,5.97,39.12,7.79,21.81,1.82,39.67,1.28,39.87-1.2.09-1.06-3.04-2.29-8.34-3.51Z" fill="none" stroke="#000" stroke-linecap="round" stroke-linejoin="round"/></g><path d="M199,162.9c-.82-1.18-1.19-2.19-1.39-2.79-.07-.19-.28-.19-.35,0-.21.6-.57,1.61-1.39,2.79-.51.74-1.02,1.83-1.02,2.9,0,1.83,1.12,3.06,2.59,3.06s2.59-1.24,2.59-3.06c0-1.11-.51-2.16-1.02-2.9Z" fill="none" stroke="#000" stroke-linecap="round" stroke-linejoin="round"/><path d="M198.15,166.1c.41-.93.36-1.83.68-1.67.44.22.94,1.37.75,2.41-.13.74-.56,1.19-1.1.98-.44-.17-.71-.88-.34-1.71Z" fill="none" stroke="#000" stroke-linecap="round" stroke-linejoin="round"/><path d="M189.84,159.92l-4.71-9.55c-.57-1.16-.1-2.57,1.07-3.14l5.25-2.59c1.16-.57,2.57-.1,3.14,1.07l3.72,7.55c1.12,2.27.19,5.01-2.08,6.13l-3.25,1.6c-1.16.57-2.57.1-3.14-1.07Z" fill="none" stroke="#000" stroke-linecap="round" stroke-linejoin="round"/><ellipse cx="186.5" cy="153" rx="9.15" ry="4.95" transform="translate(-48.33 97.79) rotate(-26.13)" fill="none" stroke="#000" stroke-linecap="round" stroke-linejoin="round"/><ellipse cx="188.5" cy="156.5" rx="2.37" ry="7.93" transform="translate(-22.84 280.43) rotate(-70.09)" fill="none" stroke="#000" stroke-linecap="round" stroke-linejoin="round"/></svg>