<?xml version="1.0" encoding="UTF-8"?><svg id="uuid-52c9fe07-dc2b-4880-9b42-d4123db20fad" xmlns="http://www.w3.org/2000/svg" viewBox="0 0 500 500"><g id="uuid-c0d1585d-5c53-43fc-99c3-24466819869d"><polygon id="uuid-403e0f83-312d-4b44-a18f-f8559d17490e" points="405 311 385 311 385 345.96 385 353 415 353 415 346 405 346 405 311" fill="#393939"/><rect id="uuid-0148748d-a8dc-4b22-93cd-beb45a82882d" x="385" y="272" width="20" height="39" fill="#393939"/><polygon id="uuid-d288a928-6636-4929-8236-ee7d315a4fac" points="377 311 357 311 357 346 347 346 347 353 377 353 377 345.96 377 345.96 377 311" fill="#393939"/><rect id="uuid-3c22f560-3687-4ba4-b29d-94e1964314e7" x="357" y="272" width="20" height="39" fill="#393939"/><polygon id="uuid-5fae42af-2478-4f07-98fa-3715d0975715" points="390.6 227.88 390.63 228 390.52 228 383.33 189.52 388.57 181 372.74 181 377.98 189.52 370.79 228 370.68 228 370.71 227.88 370.68 228 370.81 228 380.66 240.81 390.5 228 390.63 228 390.6 227.88" fill="#565656"/><path id="uuid-31e58a99-a76b-476e-bf07-607b3bda8509" d="M353,172v100h56v-100h-56ZM380.66,221.93l-19.77-48.93h39.53l-19.77,48.93Z" fill="#393939"/><path id="uuid-e02bd205-2a44-448e-a72e-e482cac9118a" d="M406.67,161.15c2.8-4.98,4.84-10.76,5.82-17.06,3.39-21.77-7.1-41.48-23.43-44.02-16.33-2.54-32.31,13.05-35.7,34.82-.98,6.3-.79,12.43.36,18.02l52.95,8.24Z" fill="#cecece"/><path id="uuid-7207df57-16b5-432b-bb6b-ece99acebe6f" d="M355.58,165c5.31,11.11,14.63,18.48,25.24,18.48s19.93-7.37,25.24-18.48h-50.48Z" fill="#cecece"/><ellipse id="uuid-a1da4279-bc7c-4a5a-b7d8-110d0b5e2795" cx="383" cy="140.5" rx="3" ry="4.5" fill="#333"/><ellipse id="uuid-4b7285f9-774f-4799-8e0b-1a60844d9ebc" cx="367" cy="137.5" rx="3" ry="4.5" fill="#333"/><path id="uuid-0b29f7b4-b4e1-47d7-a90b-9f9fdb5437f3" d="M356.7,106.04c10.82-9.26,30.19-6.49,39.78-5.11,12.01,1.72,25.84,5.77,25.75,9.44-.07,3.25-11.02,4.01-11.58,8.94-.41,3.59,5.01,6.44,4.29,7.32-1.53,1.87-24.68-12.46-30.52-8-2.63,2.01.03,6.44-2.68,7.74-2.8,1.35-6.41-3.01-15.92-6.42-8.19-2.93-12.47-2.19-13.79-4.82-1.76-3.49,3.96-8.49,4.67-9.1Z" fill="#4a4a4a"/><rect id="uuid-2fad0453-15c5-40e7-8ccb-99f39c555569" x="418.51" y="138.68" width="14.96" height="31.91" transform="translate(-13.12 42.57) rotate(-5.63)" fill="#393939"/><rect id="uuid-40d30a40-8c8e-41d2-9e58-5891afd5a066" x="401.76" y="165.65" width="31.91" height="14.96" transform="translate(-21.46 280.74) rotate(-36.28)" fill="#393939"/><rect id="uuid-3654bfa7-9489-4744-adf7-26699211cf10" x="333.29" y="158.9" width="14.96" height="31.91" transform="translate(52.29 426.8) rotate(-68.3)" fill="#393939"/><rect id="uuid-8689c356-e0cd-4fa2-b7ac-8b1d87963d78" x="308.17" y="151" width="31.91" height="14.96" transform="translate(40.35 381.29) rotate(-64.19)" fill="#393939"/><rect id="uuid-801d57f5-f0f0-4710-90bb-de27db0d5803" x="415.83" y="124.54" width="15.96" height="15.96" transform="translate(-10.96 42.25) rotate(-5.63)" fill="#cecece"/><rect id="uuid-a0d38b4a-61dc-4ebb-a171-1a73748a4259" x="326.02" y="130.07" width="15.96" height="15.96" transform="translate(64.32 378.65) rotate(-64.19)" fill="#cecece"/><polygon id="uuid-e5827696-0341-4fba-89f0-9902dea8e712" points="405 311 385 311 385 345.96 385 353 415 353 415 346 405 346 405 311" fill="none" stroke="#000" stroke-linecap="round" stroke-linejoin="round"/><rect id="uuid-267fad95-3f7e-4996-bb13-62c88fda67ff" x="385" y="272" width="20" height="39" fill="none" stroke="#000" stroke-linecap="round" stroke-linejoin="round"/><polygon id="uuid-3fa14f99-5dc4-427d-8a5a-a33b8bd4101e" points="377 311 357 311 357 346 347 346 347 353 377 353 377 345.96 377 345.96 377 311" fill="none" stroke="#000" stroke-linecap="round" stroke-linejoin="round"/><rect id="uuid-05544562-3299-4418-97b5-2196677dbf8c" x="357" y="272" width="20" height="39" fill="none" stroke="#000" stroke-linecap="round" stroke-linejoin="round"/><polygon id="uuid-920dfca8-d5f9-4202-a4e1-9469370558a5" points="390.6 227.88 390.63 228 390.52 228 383.33 189.52 388.57 181 372.74 181 377.98 189.52 370.79 228 370.68 228 370.71 227.88 370.68 228 370.81 228 380.66 240.81 390.5 228 390.63 228 390.6 227.88" fill="none" stroke="#000" stroke-linecap="round" stroke-linejoin="round"/><path id="uuid-e9dd13fc-7bed-45ed-853b-70f1627237ad" d="M353,172v100h56v-100h-56ZM380.66,221.93l-19.77-48.93h39.53l-19.77,48.93Z" fill="none" stroke="#000" stroke-linecap="round" stroke-linejoin="round"/><path id="uuid-f6638280-2ea2-46f0-aae1-5f85e880b918" d="M406.67,161.15c2.8-4.98,4.84-10.76,5.82-17.06,3.39-21.77-7.1-41.48-23.43-44.02-16.33-2.54-32.31,13.05-35.7,34.82-.98,6.3-.79,12.43.36,18.02l52.95,8.24Z" fill="none" stroke="#000" stroke-linecap="round" stroke-linejoin="round"/><path id="uuid-f86bb5e6-d3c0-44b6-a8f7-5fa3bcabf748" d="M355.58,165c5.31,11.11,14.63,18.48,25.24,18.48s19.93-7.37,25.24-18.48h-50.48Z" fill="none" stroke="#000" stroke-linecap="round" stroke-linejoin="round"/><ellipse id="uuid-3d398921-e28a-49af-a201-ffb0ed2742e7" cx="383" cy="140.5" rx="3" ry="4.5" fill="none" stroke="#000" stroke-linecap="round" stroke-linejoin="round"/><ellipse id="uuid-e0c7cbbe-61b0-4f82-bc59-f3e855fcd3b1" cx="367" cy="137.5" rx="3" ry="4.5" fill="none" stroke="#000" stroke-linecap="round" stroke-linejoin="round"/><path id="uuid-c31ee1a8-7e91-45b8-babd-d31750d0378c" d="M356.7,106.04c10.82-9.26,30.19-6.49,39.78-5.11,12.01,1.72,25.84,5.77,25.75,9.44-.07,3.25-11.02,4.01-11.58,8.94-.41,3.59,5.01,6.44,4.29,7.32-1.53,1.87-24.68-12.46-30.52-8-2.63,2.01.03,6.44-2.68,7.74-2.8,1.35-6.41-3.01-15.92-6.42-8.19-2.93-12.47-2.19-13.79-4.82-1.76-3.49,3.96-8.49,4.67-9.1Z" fill="none" stroke="#000" stroke-linecap="round" stroke-linejoin="round"/><rect id="uuid-ba1cb3cf-2b51-4bc6-9d9a-987b2b1b1a4a" x="418.51" y="138.68" width="14.96" height="31.91" transform="translate(-13.12 42.57) rotate(-5.63)" fill="none" stroke="#000" stroke-linecap="round" stroke-linejoin="round"/><rect id="uuid-c4e16429-e724-4262-9c61-476a05abb042" x="401.76" y="165.65" width="31.91" height="14.96" transform="translate(-21.46 280.74) rotate(-36.28)" fill="none" stroke="#000" stroke-linecap="round" stroke-linejoin="round"/><rect id="uuid-75f91759-9b77-4c4b-81b5-c40e51c367b3" x="333.29" y="158.9" width="14.96" height="31.91" transform="translate(52.29 426.8) rotate(-68.3)" fill="none" stroke="#000" stroke-linecap="round" stroke-linejoin="round"/><rect id="uuid-12f93ab1-9770-480a-b802-329cf7140888" x="308.17" y="151" width="31.91" height="14.96" transform="translate(40.35 381.29) rotate(-64.19)" fill="none" stroke="#000" stroke-linecap="round" stroke-linejoin="round"/><rect id="uuid-2b71c4e1-36af-41fc-8046-b8e580bca738" x="415.83" y="124.54" width="15.96" height="15.96" transform="translate(-10.96 42.25) rotate(-5.63)" fill="none" stroke="#000" stroke-linecap="round" stroke-linejoin="round"/><rect id="uuid-5ac5a4b8-e662-4c36-97f0-bd5c22d59ea0" x="326.02" y="130.07" width="15.96" height="15.96" transform="translate(64.32 378.65) rotate(-64.19)" fill="none" stroke="#000" stroke-linecap="round" stroke-linejoin="round"/></g><path d="M249,141H79v170h170v-170h0ZM246,144v164H82v-164h164" fill="#b0bec5"/><line x1="248" y1="171" x2="79" y2="171" fill="none" stroke="#b0bec5" stroke-miterlimit="10" stroke-width="2"/><line x1="248" y1="198" x2="79" y2="198" fill="none" stroke="#b0bec5" stroke-miterlimit="10" stroke-width="2"/><line x1="248" y1="226" x2="79" y2="226" fill="none" stroke="#b0bec5" stroke-miterlimit="10" stroke-width="2"/><line x1="248" y1="254" x2="79" y2="254" fill="none" stroke="#b0bec5" stroke-miterlimit="10" stroke-width="2"/><line x1="248" y1="282" x2="79" y2="282" fill="none" stroke="#b0bec5" stroke-miterlimit="10" stroke-width="2"/><polygon points="80 309.96 79.89 301.23 118.03 232.47 151.62 263.52 290.95 77 295.9 77 296.1 84.31 152.77 276.16 120.15 246.01 84.75 310 80 309.96" fill="#e53935"/><path d="M249,141H79v170h170v-170h0ZM246,144v164H82v-164h164" fill="none" stroke="#000" stroke-linecap="round" stroke-linejoin="round"/><line x1="248" y1="171" x2="79" y2="171" fill="none" stroke="#000" stroke-linecap="round" stroke-linejoin="round"/><line x1="248" y1="198" x2="79" y2="198" fill="none" stroke="#000" stroke-linecap="round" stroke-linejoin="round"/><line x1="248" y1="226" x2="79" y2="226" fill="none" stroke="#000" stroke-linecap="round" stroke-linejoin="round"/><line x1="248" y1="254" x2="79" y2="254" fill="none" stroke="#000" stroke-linecap="round" stroke-linejoin="round"/><line x1="248" y1="282" x2="79" y2="282" fill="none" stroke="#000" stroke-linecap="round" stroke-linejoin="round"/><polygon points="80 309.96 79.89 301.23 118.03 232.47 151.62 263.52 290.95 77 295.9 77 296.1 84.31 152.77 276.16 120.15 246.01 84.75 310 80 309.96" fill="none" stroke="#000" stroke-linecap="round" stroke-linejoin="round"/><g id="uuid-63953ea8-0599-4f5d-bffc-c7e68aa416e1"><path d="M275.07,131.44c.31-1.85,1.6-8.42.43-14.88-.75-4.11-3.33-9.48-6.22-12.19-5.57-5.24-13.33-7.37-20.47-7.37-7.14,0-14.51,2.13-20.08,7.37-2.89,2.71-5.47,8.09-6.22,12.19-1.17,6.46.11,13.03.43,14.88.42,2.52-.69,5.3-.91,7.81-.23,2.73,1.06,4.85,3.39,6.35,1.94,1.25,4.2,1.91,6.29,2.88,2.49,1.15.23,5.32,1.15,7.42.46,1.06,1.48,1.79,2.53,2.31,1.33.66,2.86,1.07,4.31.71-.22.05.41,1.32,1.25,1.83.76.47,1.71.94,2.59,1.13,1.75.38,3.48-.26,4.56-.81.59-.3,1.28-.3,1.86,0,1.08.55,2.81,1.19,4.56.81,1.31-.29,2.49-1.06,3.33-2.07.39-.48,1-.74,1.62-.69,1.83.12,4.64-.62,5.85-3.37.68-1.53,0-3.33.45-4.92.77-2.71,3.45-3.38,5.61-4.64,2.86-1.67,4.56-3.54,4.63-6.17.08-2.8-1.29-6.41-.93-8.57Z" fill="#ccc"/><ellipse cx="236" cy="129.5" rx="7.55" ry="6.94" transform="translate(42.13 316.26) rotate(-72.68)" fill="#424242"/><ellipse cx="262" cy="129.5" rx="6.94" ry="7.55" transform="translate(-26.67 83.85) rotate(-17.32)" fill="#424242"/><path d="M244.62,141.8c0-2.4,1.96-8.35,4.38-8.35,2.42,0,4.38,5.94,4.38,8.35,0,4.88-4.38,1.55-4.38,1.55,0,0-4.38,3.61-4.38-1.55Z" fill="#424242"/><path d="M237.34,158.99c-.65-.12-1.28-.33-1.83-.73.46-.11.93-.23,1.35-.43,1.06-.53,1.03-1.37,1.27-2.41.2-.91.4-1.82.63-2.72.16-.61.56-1.19,1.19-1.1.79.11.86.66.73,1.5-.13.78-1.07,5.92-1.07,5.93-.04.23-1.62.08-1.77.05-.16-.02-.33-.05-.49-.08Z" fill="#8abfd1"/><path d="M261.02,158.99c.65-.12,1.28-.33,1.83-.73-.46-.11-.93-.23-1.35-.43-1.06-.53-1.03-1.37-1.27-2.41-.2-.91-.4-1.82-.63-2.72-.16-.61-.56-1.19-1.19-1.1-.79.11-.86.66-.73,1.5.13.78,1.07,5.92,1.07,5.93.04.23,1.62.08,1.77.05.16-.02.33-.05.49-.08Z" fill="#8abfd1"/><path d="M246.52,161.71s1.24-1.66,1.28-2.79c.08-2.02.2-4.75.2-6.33,0-.63.38-1.11,1.02-1.11s.99.42.99,1.05c0,.03.15,3.7.15,6.26,0,1.18,1.33,2.92,1.33,2.92-.55-.24-1.5-.72-2.48-.67-1.24.06-2.48.68-2.48.68Z" fill="#8abfd1"/><path d="M275.07,131.44c.31-1.85,1.6-8.42.43-14.88-.75-4.11-3.33-9.48-6.22-12.19-5.57-5.24-13.33-7.37-20.47-7.37-7.14,0-14.51,2.13-20.08,7.37-2.89,2.71-5.47,8.09-6.22,12.19-1.17,6.46.11,13.03.43,14.88.42,2.52-.69,5.3-.91,7.81-.23,2.73,1.06,4.85,3.39,6.35,1.94,1.25,4.2,1.91,6.29,2.88,2.49,1.15.23,5.32,1.15,7.42.46,1.06,1.48,1.79,2.53,2.31,1.33.66,2.86,1.07,4.31.71-.22.05.41,1.32,1.25,1.83.76.47,1.71.94,2.59,1.13,1.75.38,3.48-.26,4.56-.81.59-.3,1.28-.3,1.86,0,1.08.55,2.81,1.19,4.56.81,1.31-.29,2.49-1.06,3.33-2.07.39-.48,1-.74,1.62-.69,1.83.12,4.64-.62,5.85-3.37.68-1.53,0-3.33.45-4.92.77-2.71,3.45-3.38,5.61-4.64,2.86-1.67,4.56-3.54,4.63-6.17.08-2.8-1.29-6.41-.93-8.57Z" fill="none" stroke="#000" stroke-linecap="round" stroke-linejoin="round"/><ellipse cx="236" cy="129.5" rx="7.55" ry="6.94" transform="translate(42.13 316.26) rotate(-72.68)" fill="none" stroke="#000" stroke-linecap="round" stroke-linejoin="round"/><ellipse cx="262" cy="129.5" rx="6.94" ry="7.55" transform="translate(-26.67 83.85) rotate(-17.32)" fill="none" stroke="#000" stroke-linecap="round" stroke-linejoin="round"/><path d="M244.62,141.8c0-2.4,1.96-8.35,4.38-8.35,2.42,0,4.38,5.94,4.38,8.35,0,4.88-4.38,1.55-4.38,1.55,0,0-4.38,3.61-4.38-1.55Z" fill="none" stroke="#000" stroke-linecap="round" stroke-linejoin="round"/><path d="M237.34,158.99c-.65-.12-1.28-.33-1.83-.73.46-.11.93-.23,1.35-.43,1.06-.53,1.03-1.37,1.27-2.41.2-.91.4-1.82.63-2.72.16-.61.56-1.19,1.19-1.1.79.11.86.66.73,1.5-.13.78-1.07,5.92-1.07,5.93-.04.23-1.62.08-1.77.05-.16-.02-.33-.05-.49-.08Z" fill="none" stroke="#000" stroke-linecap="round" stroke-linejoin="round"/><path d="M261.02,158.99c.65-.12,1.28-.33,1.83-.73-.46-.11-.93-.23-1.35-.43-1.06-.53-1.03-1.37-1.27-2.41-.2-.91-.4-1.82-.63-2.72-.16-.61-.56-1.19-1.19-1.1-.79.11-.86.66-.73,1.5.13.78,1.07,5.92,1.07,5.93.04.23,1.62.08,1.77.05.16-.02.33-.05.49-.08Z" fill="none" stroke="#000" stroke-linecap="round" stroke-linejoin="round"/><path d="M246.52,161.71s1.24-1.66,1.28-2.79c.08-2.02.2-4.75.2-6.33,0-.63.38-1.11,1.02-1.11s.99.42.99,1.05c0,.03.15,3.7.15,6.26,0,1.18,1.33,2.92,1.33,2.92-.55-.24-1.5-.72-2.48-.67-1.24.06-2.48.68-2.48.68Z" fill="none" stroke="#000" stroke-linecap="round" stroke-linejoin="round"/><path d="M275.07,131.44c.31-1.85,1.6-8.42.43-14.88-.75-4.11-3.33-9.48-6.22-12.19-5.57-5.24-13.33-7.37-20.47-7.37-7.14,0-14.51,2.13-20.08,7.37-2.89,2.71-5.47,8.09-6.22,12.19-1.17,6.46.11,13.03.43,14.88.42,2.52-.69,5.3-.91,7.81-.23,2.73,1.06,4.85,3.39,6.35,1.94,1.25,4.2,1.91,6.29,2.88,2.49,1.15.23,5.32,1.15,7.42.46,1.06,1.48,1.79,2.53,2.31,1.33.66,2.86,1.07,4.31.71-.22.05.41,1.32,1.25,1.83.76.47,1.71.94,2.59,1.13,1.75.38,3.48-.26,4.56-.81.59-.3,1.28-.3,1.86,0,1.08.55,2.81,1.19,4.56.81,1.31-.29,2.49-1.06,3.33-2.07.39-.48,1-.74,1.62-.69,1.83.12,4.64-.62,5.85-3.37.68-1.53,0-3.33.45-4.92.77-2.71,3.45-3.38,5.61-4.64,2.86-1.67,4.56-3.54,4.63-6.17.08-2.8-1.29-6.41-.93-8.57Z" fill="none" stroke="#000" stroke-linecap="round" stroke-linejoin="round"/><ellipse cx="236" cy="129.5" rx="7.55" ry="6.94" transform="translate(42.13 316.26) rotate(-72.68)" fill="none" stroke="#000" stroke-linecap="round" stroke-linejoin="round"/><ellipse cx="262" cy="129.5" rx="6.94" ry="7.55" transform="translate(-26.67 83.85) rotate(-17.32)" fill="none" stroke="#000" stroke-linecap="round" stroke-linejoin="round"/><path d="M244.62,141.8c0-2.4,1.96-8.35,4.38-8.35,2.42,0,4.38,5.94,4.38,8.35,0,4.88-4.38,1.55-4.38,1.55,0,0-4.38,3.61-4.38-1.55Z" fill="none" stroke="#000" stroke-linecap="round" stroke-linejoin="round"/><path d="M237.34,158.99c-.65-.12-1.28-.33-1.83-.73.46-.11.93-.23,1.35-.43,1.06-.53,1.03-1.37,1.27-2.41.2-.91.4-1.82.63-2.72.16-.61.56-1.19,1.19-1.1.79.11.86.66.73,1.5-.13.78-1.07,5.92-1.07,5.93-.04.23-1.62.08-1.77.05-.16-.02-.33-.05-.49-.08Z" fill="none" stroke="#000" stroke-linecap="round" stroke-linejoin="round"/><path d="M261.02,158.99c.65-.12,1.28-.33,1.83-.73-.46-.11-.93-.23-1.35-.43-1.06-.53-1.03-1.37-1.27-2.41-.2-.91-.4-1.82-.63-2.72-.16-.61-.56-1.19-1.19-1.1-.79.11-.86.66-.73,1.5.13.78,1.07,5.92,1.07,5.93.04.23,1.62.08,1.77.05.16-.02.33-.05.49-.08Z" fill="none" stroke="#000" stroke-linecap="round" stroke-linejoin="round"/><path d="M246.52,161.71s1.24-1.66,1.28-2.79c.08-2.02.2-4.75.2-6.33,0-.63.38-1.11,1.02-1.11s.99.42.99,1.05c0,.03.15,3.7.15,6.26,0,1.18,1.33,2.92,1.33,2.92-.55-.24-1.5-.72-2.48-.67-1.24.06-2.48.68-2.48.68Z" fill="none" stroke="#000" stroke-linecap="round" stroke-linejoin="round"/></g><text transform="translate(65 377.47)" fill="#333" font-family="ComicNeue-Regular, &apos;Comic Neue&apos;" font-size="24"><tspan x="0" y="0">By 1916, the public has </tspan><tspan x="0" y="28.8">recognized the horror of war.</tspan></text></svg>