<?xml version="1.0" encoding="UTF-8"?><svg id="uuid-502aae7e-ee7d-49b6-92d6-44c6a5dd61d9" xmlns="http://www.w3.org/2000/svg" viewBox="0 0 500 500"><g id="uuid-22ca9cdd-ee66-4e70-96fd-dca5a1c1965a"><polygon id="uuid-a4f4860d-12e4-40fd-8998-2275cc6779b6" points="405 311 385 311 385 345.959792 385 353 415 353 415 346 405 346 405 311" fill="#393939"/><rect id="uuid-8397adda-2f98-4574-974b-71796c0936e2" x="385" y="272" width="20.000015" height="39" fill="#393939"/><polygon id="uuid-2b429990-f58a-49cf-a773-7ba2f04b860a" points="376.999969 311 357 311 357 346 347 346 347 353 377 353 377 345.959792 376.999969 345.959792 376.999969 311" fill="#393939"/><rect id="uuid-29b7c7ef-df41-4b61-971f-21ab2ad9218e" x="356.999985" y="272" width="20.000031" height="39" fill="#393939"/><polygon id="uuid-f64280e5-ddfb-4046-8ebd-2aa6bc4786a5" points="390.603338 227.879475 390.628325 228 390.519542 228 383.327347 189.521649 388.571425 181 372.739846 181 377.983924 189.521649 370.791729 228 370.682946 228 370.707932 227.879475 370.682946 228 370.810831 228 380.655635 240.811467 390.50044 228 390.628325 228 390.603338 227.879475" fill="#565656"/><path id="uuid-463c2ebb-d463-45db-aaf7-16611621bfde" d="M353,172v100h56v-100h-56ZM380.655635,221.92768l-19.766986-48.92768h39.533973l-19.766986,48.92768Z" fill="#393939"/><path id="uuid-bda55440-3da2-41ef-a4b8-fdfb3cfa31f1" d="M406.670279,161.152815c2.796053-4.977446,4.838447-10.757961,5.819396-17.062456,3.387167-21.769099-7.102504-41.475861-23.429343-44.016239-16.32684-2.540378-32.308205,13.047617-35.695373,34.816717-.980949,6.304495-.79143,12.432285.360118,18.023959l52.945202,8.238019Z" fill="#cecece"/><path id="uuid-68ecc46f-f4dc-4e5e-b28e-be61868081ce" d="M355.579379,165c5.31123,11.108678,14.626388,18.483075,25.23917,18.483075s19.92794-7.374397,25.23917-18.483075h-50.478341Z" fill="#cecece"/><ellipse id="uuid-b32347f8-c7a2-46a7-a7bd-58dd0004e824" cx="383" cy="140.5" rx="3" ry="4.5" fill="#333"/><ellipse id="uuid-580be0a9-0893-4a62-b5a0-b92a6dd36976" cx="367" cy="137.5" rx="3" ry="4.5" fill="#333"/><path id="uuid-0638f16a-0c36-495c-932c-7262a2881d1a" d="M356.704555,106.035322c10.820344-9.260118,30.190968-6.487215,39.784795-5.113849,12.012496,1.71959,25.835785,5.7735,25.752543,9.44016-.073765,3.249225-11.018245,4.006532-11.580405,8.940072-.408883,3.588346,5.010752,6.436814,4.287546,7.320658-1.534092,1.874861-24.675817-12.46442-30.524057-7.995394-2.627501,2.00784.032,6.439504-2.68168,7.744565-2.803563,1.348299-6.410414-3.012428-15.923817-6.420453-8.187517-2.933048-12.468361-2.193704-13.788786-4.818514-1.756681-3.491992,3.964108-8.489845,4.673861-9.097246Z" fill="#4a4a4a"/><rect id="uuid-ac8bdaca-b8e1-4191-81c7-f717ba05f3e7" x="418.51056" y="138.677586" width="14.959007" height="31.912601" transform="translate(-13.124487 42.573257) rotate(-5.634698)" fill="#393939"/><rect id="uuid-81e10ba2-92b3-4962-8f56-30401fe6b2a1" x="401.755063" y="165.646554" width="31.912601" height="14.959007" transform="translate(-21.462886 280.742943) rotate(-36.280878)" fill="#393939"/><rect id="uuid-dfb0428b-eb63-4d45-a9c7-541e3f9f21be" x="333.285374" y="158.896125" width="14.959007" height="31.912601" transform="translate(52.291584 426.799308) rotate(-68.296475)" fill="#393939"/><rect id="uuid-d3d1f0db-9a49-4e20-a524-28f2776466b7" x="308.166028" y="150.999786" width="31.912601" height="14.959007" transform="translate(40.351793 381.291435) rotate(-64.194719)" fill="#393939"/><rect id="uuid-b4b73506-86ad-44a5-af62-1bf7885f9511" x="415.829953" y="124.540305" width="15.956303" height="15.956303" transform="translate(-10.963613 42.252161) rotate(-5.634698)" fill="#cecece"/><rect id="uuid-0a3c5da5-e1ea-4140-9b7b-e83d197ef722" x="326.021334" y="130.074063" width="15.956303" height="15.956303" transform="translate(64.319344 378.648747) rotate(-64.194719)" fill="#cecece"/><polygon id="uuid-7ddf4a8b-4b74-4e96-869a-2faed1e35c1a" points="405 311 385 311 385 345.959792 385 353 415 353 415 346 405 346 405 311" fill="none" stroke="#000" stroke-linecap="round" stroke-linejoin="round"/><rect id="uuid-0cc76eaf-c148-4001-b74f-cc5698f3f9ac" x="385" y="272" width="20.000015" height="39" fill="none" stroke="#000" stroke-linecap="round" stroke-linejoin="round"/><polygon id="uuid-619baaa0-1f25-4e08-8534-64700c7b66d2" points="376.999969 311 357 311 357 346 347 346 347 353 377 353 377 345.959792 376.999969 345.959792 376.999969 311" fill="none" stroke="#000" stroke-linecap="round" stroke-linejoin="round"/><rect id="uuid-e23c9852-bd67-4787-906b-2a28322ceca3" x="356.999985" y="272" width="20.000031" height="39" fill="none" stroke="#000" stroke-linecap="round" stroke-linejoin="round"/><polygon id="uuid-680ab894-fde5-47dd-9855-346d04b5240f" points="390.603338 227.879475 390.628325 228 390.519542 228 383.327347 189.521649 388.571425 181 372.739846 181 377.983924 189.521649 370.791729 228 370.682946 228 370.707932 227.879475 370.682946 228 370.810831 228 380.655635 240.811467 390.50044 228 390.628325 228 390.603338 227.879475" fill="none" stroke="#000" stroke-linecap="round" stroke-linejoin="round"/><path id="uuid-edc5d6e6-c842-44ea-9f29-711ae4913584" d="M353,172v100h56v-100h-56ZM380.655635,221.92768l-19.766986-48.92768h39.533973l-19.766986,48.92768Z" fill="none" stroke="#000" stroke-linecap="round" stroke-linejoin="round"/><path id="uuid-91850dbb-31da-49e9-80fe-deb9e2d7e921" d="M406.670279,161.152815c2.796053-4.977446,4.838447-10.757961,5.819396-17.062456,3.387167-21.769099-7.102504-41.475861-23.429343-44.016239-16.32684-2.540378-32.308205,13.047617-35.695373,34.816717-.980949,6.304495-.79143,12.432285.360118,18.023959l52.945202,8.238019Z" fill="none" stroke="#000" stroke-linecap="round" stroke-linejoin="round"/><path id="uuid-f2df1b45-3004-4ddc-b2f6-464efd8b0dd7" d="M355.579379,165c5.31123,11.108678,14.626388,18.483075,25.23917,18.483075s19.92794-7.374397,25.23917-18.483075h-50.478341Z" fill="none" stroke="#000" stroke-linecap="round" stroke-linejoin="round"/><ellipse id="uuid-501fe4b1-6d6d-482a-82bf-4034baed0e67" cx="383" cy="140.5" rx="3" ry="4.5" fill="none" stroke="#000" stroke-linecap="round" stroke-linejoin="round"/><ellipse id="uuid-8c54ae13-43f7-45fb-b62a-0d178e74be07" cx="367" cy="137.5" rx="3" ry="4.5" fill="none" stroke="#000" stroke-linecap="round" stroke-linejoin="round"/><path id="uuid-d98d1cde-f03e-4088-8a76-b957df942cb7" d="M356.704555,106.035322c10.820344-9.260118,30.190968-6.487215,39.784795-5.113849,12.012496,1.71959,25.835785,5.7735,25.752543,9.44016-.073765,3.249225-11.018245,4.006532-11.580405,8.940072-.408883,3.588346,5.010752,6.436814,4.287546,7.320658-1.534092,1.874861-24.675817-12.46442-30.524057-7.995394-2.627501,2.00784.032,6.439504-2.68168,7.744565-2.803563,1.348299-6.410414-3.012428-15.923817-6.420453-8.187517-2.933048-12.468361-2.193704-13.788786-4.818514-1.756681-3.491992,3.964108-8.489845,4.673861-9.097246Z" fill="none" stroke="#000" stroke-linecap="round" stroke-linejoin="round"/><rect id="uuid-c8ea2ef9-e432-473d-8fe7-5f6d919b5b8f" x="418.51056" y="138.677586" width="14.959007" height="31.912601" transform="translate(-13.124487 42.573257) rotate(-5.634698)" fill="none" stroke="#000" stroke-linecap="round" stroke-linejoin="round"/><rect id="uuid-1f93769a-2b88-40fe-a9ba-09dce6eabf95" x="401.755063" y="165.646554" width="31.912601" height="14.959007" transform="translate(-21.462886 280.742943) rotate(-36.280878)" fill="none" stroke="#000" stroke-linecap="round" stroke-linejoin="round"/><rect id="uuid-e8ba1bc8-1933-41d1-a851-a3b089eec06c" x="333.285374" y="158.896125" width="14.959007" height="31.912601" transform="translate(52.291584 426.799308) rotate(-68.296475)" fill="none" stroke="#000" stroke-linecap="round" stroke-linejoin="round"/><rect id="uuid-66982367-ddec-48ed-b9f6-026b32f1497d" x="308.166028" y="150.999786" width="31.912601" height="14.959007" transform="translate(40.351793 381.291435) rotate(-64.194719)" fill="none" stroke="#000" stroke-linecap="round" stroke-linejoin="round"/><rect id="uuid-a766c9b6-4293-481f-a6b5-0ee21a0927bc" x="415.829953" y="124.540305" width="15.956303" height="15.956303" transform="translate(-10.963613 42.252161) rotate(-5.634698)" fill="none" stroke="#000" stroke-linecap="round" stroke-linejoin="round"/><rect id="uuid-3edd6316-15b6-4cf4-83d8-8e392fd7b9be" x="326.021334" y="130.074063" width="15.956303" height="15.956303" transform="translate(64.319344 378.648747) rotate(-64.194719)" fill="none" stroke="#000" stroke-linecap="round" stroke-linejoin="round"/></g><path d="M249,141H79v170h170v-170h0ZM246,144v164H82v-164h164" fill="#b0bec5"/><line x1="248" y1="171" x2="79" y2="171" fill="none" stroke="#b0bec5" stroke-miterlimit="10" stroke-width="2"/><line x1="248" y1="198" x2="79" y2="198" fill="none" stroke="#b0bec5" stroke-miterlimit="10" stroke-width="2"/><line x1="248" y1="226" x2="79" y2="226" fill="none" stroke="#b0bec5" stroke-miterlimit="10" stroke-width="2"/><line x1="248" y1="254" x2="79" y2="254" fill="none" stroke="#b0bec5" stroke-miterlimit="10" stroke-width="2"/><line x1="248" y1="282" x2="79" y2="282" fill="none" stroke="#b0bec5" stroke-miterlimit="10" stroke-width="2"/><polygon points="80 309.95749 79.886636 301.228447 118.033665 232.47311 151.617786 263.520704 290.95497 77 295.900487 77 296.098874 84.311987 152.7656 276.160801 120.145072 246.005946 84.747123 310 80 309.95749" fill="#e53935"/><path d="M249,141H79v170h170v-170h0ZM246,144v164H82v-164h164" fill="none" stroke="#000" stroke-linecap="round" stroke-linejoin="round"/><line x1="248" y1="171" x2="79" y2="171" fill="none" stroke="#000" stroke-linecap="round" stroke-linejoin="round"/><line x1="248" y1="198" x2="79" y2="198" fill="none" stroke="#000" stroke-linecap="round" stroke-linejoin="round"/><line x1="248" y1="226" x2="79" y2="226" fill="none" stroke="#000" stroke-linecap="round" stroke-linejoin="round"/><line x1="248" y1="254" x2="79" y2="254" fill="none" stroke="#000" stroke-linecap="round" stroke-linejoin="round"/><line x1="248" y1="282" x2="79" y2="282" fill="none" stroke="#000" stroke-linecap="round" stroke-linejoin="round"/><polygon points="80 309.95749 79.886636 301.228447 118.033665 232.47311 151.617786 263.520704 290.95497 77 295.900487 77 296.098874 84.311987 152.7656 276.160801 120.145072 246.005946 84.747123 310 80 309.95749" fill="none" stroke="#000" stroke-linecap="round" stroke-linejoin="round"/><g id="uuid-3171e6e1-4964-4c9d-af6d-efa0656cb14c"><path d="M275.069403,131.441716c.310987-1.847221,1.598582-8.423536.425566-14.88068-.747458-4.111553-3.33355-9.479866-6.219719-12.193818-5.570469-5.238305-13.328756-7.367215-20.46507-7.367219-7.136314-.000003-14.507234,2.128901-20.077708,7.367201-2.886172,2.713949-5.472269,8.087676-6.219729,12.193812-1.173021,6.457141.114568,13.033459.425554,14.88068.420103,2.518937-.692902,5.303307-.911139,7.811407-.234605,2.730201,1.063898,4.848273,3.388111,6.348803,1.936843,1.251342,4.195585,1.912225,6.290649,2.881882,2.493345,1.153835.229144,5.319558,1.151192,7.421379.46375,1.061745,1.478547,1.793048,2.52608,2.307672,1.331238.660883,2.864346,1.072582,4.31016.709636-.218237.05417.414647,1.316347,1.2494,1.830967.763826.465868,1.707696.942569,2.586094,1.132166,1.745888.379194,3.475407-.260019,4.555675-.812558.589238-.303354,1.276678-.303354,1.860463,0,1.080269.552539,2.809788,1.191754,4.555674.812562,1.314874-.287103,2.487889-1.061743,3.328098-2.074736.392826-.4767,1.003884-.736721,1.620403-.693383,1.833182.119177,4.637514-.622961,5.854178-3.369413.681988-1.527612-.005456-3.326078.447386-4.924115.769285-2.708532,3.453586-3.380246,5.614122-4.642423,2.864347-1.668456,4.555676-3.537341,4.632059-6.170035.076383-2.7952-1.287589-6.408382-.927497-8.56979Z" fill="#ccc"/><ellipse cx="235.808046" cy="129.58394" rx="7.446654" ry="6.810709" transform="translate(45.750097 320.044981) rotate(-73.850874)" fill="#424242"/><ellipse cx="262.196974" cy="129.583027" rx="6.810709" ry="7.446653" transform="translate(-25.695946 78.040029) rotate(-16.149083)" fill="#424242"/><path d="M244.62003,141.804548c.000001-2.39976,1.958671-8.347695,4.381091-8.347694,2.42242.000001,4.381083,5.942524,4.381082,8.347702-.000002,4.880777-4.381086,1.554697-4.381086,1.554697,0,0-4.381089,3.607758-4.381087-1.554705Z" fill="#424242"/><path d="M237.336399,158.987477c-.654708-.124595-1.27668-.325024-1.833182-.731304.463751-.108339.927503-.227515,1.353063-.433366,1.058444-.525456,1.031165-1.370516,1.265769-2.410592.201868-.910067.398281-1.820134.632885-2.724783.158222-.606713.561957-1.186338,1.189386-1.099663.785649.10834.862033.660883.73109,1.500526-.125486.780059-1.074815,5.920852-1.074815,5.926271-.043648.232934-1.620402.075838-1.773167.054169-.163677-.021669-.327353-.048756-.49103-.081257Z" fill="#8abfd1"/><path d="M261.020453,158.987488c.654706-.124594,1.276678-.325023,1.833182-.731302-.46375-.10834-.927501-.227516-1.353064-.433368-1.058445-.525456-1.031164-1.370517-1.265767-2.410593-.201869-.910067-.398282-1.820135-.632885-2.724784-.158221-.606713-.561956-1.186339-1.189385-1.099664-.785651.108339-.862033.660882-.731089,1.500525.125487.780059,1.07481,5.920853,1.07481,5.926272.043648.232934,1.620402.075839,1.773167.054171.163679-.021669.327353-.048756.491032-.081257Z" fill="#8abfd1"/><path d="M246.52413,161.706846s1.23849-1.65762,1.282137-2.789789c.08184-2.020567.196415-4.750765.196416-6.332551,0-.628382.381914-1.1105,1.020255-1.1105.632886,0,.987516.422531.987516,1.050912,0,.027087.147306,3.699857.147305,6.256713,0,1.18092,1.331239,2.919799,1.331239,2.919799-.54559-.243767-1.500372-.715053-2.482435-.671716-1.243942.059588-2.482432.677132-2.482432.677132Z" fill="#8abfd1"/><path d="M275.069403,131.441716c.310987-1.847221,1.598582-8.423536.425566-14.88068-.747458-4.111553-3.33355-9.479866-6.219719-12.193818-5.570469-5.238305-13.328756-7.367215-20.46507-7.367219-7.136314-.000003-14.507234,2.128901-20.077708,7.367201-2.886172,2.713949-5.472269,8.087676-6.219729,12.193812-1.173021,6.457141.114568,13.033459.425554,14.88068.420103,2.518937-.692902,5.303307-.911139,7.811407-.234605,2.730201,1.063898,4.848273,3.388111,6.348803,1.936843,1.251342,4.195585,1.912225,6.290649,2.881882,2.493345,1.153835.229144,5.319558,1.151192,7.421379.46375,1.061745,1.478547,1.793048,2.52608,2.307672,1.331238.660883,2.864346,1.072582,4.31016.709636-.218237.05417.414647,1.316347,1.2494,1.830967.763826.465868,1.707696.942569,2.586094,1.132166,1.745888.379194,3.475407-.260019,4.555675-.812558.589238-.303354,1.276678-.303354,1.860463,0,1.080269.552539,2.809788,1.191754,4.555674.812562,1.314874-.287103,2.487889-1.061743,3.328098-2.074736.392826-.4767,1.003884-.736721,1.620403-.693383,1.833182.119177,4.637514-.622961,5.854178-3.369413.681988-1.527612-.005456-3.326078.447386-4.924115.769285-2.708532,3.453586-3.380246,5.614122-4.642423,2.864347-1.668456,4.555676-3.537341,4.632059-6.170035.076383-2.7952-1.287589-6.408382-.927497-8.56979Z" fill="none" stroke="#000" stroke-linecap="round" stroke-linejoin="round"/><ellipse cx="235.808046" cy="129.58394" rx="7.446654" ry="6.810709" transform="translate(45.750097 320.044981) rotate(-73.850874)" fill="none" stroke="#000" stroke-linecap="round" stroke-linejoin="round"/><ellipse cx="262.196974" cy="129.583027" rx="6.810709" ry="7.446653" transform="translate(-25.695946 78.040029) rotate(-16.149083)" fill="none" stroke="#000" stroke-linecap="round" stroke-linejoin="round"/><path d="M244.62003,141.804548c.000001-2.39976,1.958671-8.347695,4.381091-8.347694,2.42242.000001,4.381083,5.942524,4.381082,8.347702-.000002,4.880777-4.381086,1.554697-4.381086,1.554697,0,0-4.381089,3.607758-4.381087-1.554705Z" fill="none" stroke="#000" stroke-linecap="round" stroke-linejoin="round"/><path d="M237.336399,158.987477c-.654708-.124595-1.27668-.325024-1.833182-.731304.463751-.108339.927503-.227515,1.353063-.433366,1.058444-.525456,1.031165-1.370516,1.265769-2.410592.201868-.910067.398281-1.820134.632885-2.724783.158222-.606713.561957-1.186338,1.189386-1.099663.785649.10834.862033.660883.73109,1.500526-.125486.780059-1.074815,5.920852-1.074815,5.926271-.043648.232934-1.620402.075838-1.773167.054169-.163677-.021669-.327353-.048756-.49103-.081257Z" fill="none" stroke="#000" stroke-linecap="round" stroke-linejoin="round"/><path d="M261.020453,158.987488c.654706-.124594,1.276678-.325023,1.833182-.731302-.46375-.10834-.927501-.227516-1.353064-.433368-1.058445-.525456-1.031164-1.370517-1.265767-2.410593-.201869-.910067-.398282-1.820135-.632885-2.724784-.158221-.606713-.561956-1.186339-1.189385-1.099664-.785651.108339-.862033.660882-.731089,1.500525.125487.780059,1.07481,5.920853,1.07481,5.926272.043648.232934,1.620402.075839,1.773167.054171.163679-.021669.327353-.048756.491032-.081257Z" fill="none" stroke="#000" stroke-linecap="round" stroke-linejoin="round"/><path d="M246.52413,161.706846s1.23849-1.65762,1.282137-2.789789c.08184-2.020567.196415-4.750765.196416-6.332551,0-.628382.381914-1.1105,1.020255-1.1105.632886,0,.987516.422531.987516,1.050912,0,.027087.147306,3.699857.147305,6.256713,0,1.18092,1.331239,2.919799,1.331239,2.919799-.54559-.243767-1.500372-.715053-2.482435-.671716-1.243942.059588-2.482432.677132-2.482432.677132Z" fill="none" stroke="#000" stroke-linecap="round" stroke-linejoin="round"/><path d="M275.069403,131.441716c.310987-1.847221,1.598582-8.423536.425566-14.88068-.747458-4.111553-3.33355-9.479866-6.219719-12.193818-5.570469-5.238305-13.328756-7.367215-20.46507-7.367219-7.136314-.000003-14.507234,2.128901-20.077708,7.367201-2.886172,2.713949-5.472269,8.087676-6.219729,12.193812-1.173021,6.457141.114568,13.033459.425554,14.88068.420103,2.518937-.692902,5.303307-.911139,7.811407-.234605,2.730201,1.063898,4.848273,3.388111,6.348803,1.936843,1.251342,4.195585,1.912225,6.290649,2.881882,2.493345,1.153835.229144,5.319558,1.151192,7.421379.46375,1.061745,1.478547,1.793048,2.52608,2.307672,1.331238.660883,2.864346,1.072582,4.31016.709636-.218237.05417.414647,1.316347,1.2494,1.830967.763826.465868,1.707696.942569,2.586094,1.132166,1.745888.379194,3.475407-.260019,4.555675-.812558.589238-.303354,1.276678-.303354,1.860463,0,1.080269.552539,2.809788,1.191754,4.555674.812562,1.314874-.287103,2.487889-1.061743,3.328098-2.074736.392826-.4767,1.003884-.736721,1.620403-.693383,1.833182.119177,4.637514-.622961,5.854178-3.369413.681988-1.527612-.005456-3.326078.447386-4.924115.769285-2.708532,3.453586-3.380246,5.614122-4.642423,2.864347-1.668456,4.555676-3.537341,4.632059-6.170035.076383-2.7952-1.287589-6.408382-.927497-8.56979Z" fill="none" stroke="#000" stroke-linecap="round" stroke-linejoin="round"/><ellipse cx="235.808046" cy="129.58394" rx="7.446654" ry="6.810709" transform="translate(45.750097 320.044981) rotate(-73.850874)" fill="none" stroke="#000" stroke-linecap="round" stroke-linejoin="round"/><ellipse cx="262.196974" cy="129.583027" rx="6.810709" ry="7.446653" transform="translate(-25.695946 78.040029) rotate(-16.149083)" fill="none" stroke="#000" stroke-linecap="round" stroke-linejoin="round"/><path d="M244.62003,141.804548c.000001-2.39976,1.958671-8.347695,4.381091-8.347694,2.42242.000001,4.381083,5.942524,4.381082,8.347702-.000002,4.880777-4.381086,1.554697-4.381086,1.554697,0,0-4.381089,3.607758-4.381087-1.554705Z" fill="none" stroke="#000" stroke-linecap="round" stroke-linejoin="round"/><path d="M237.336399,158.987477c-.654708-.124595-1.27668-.325024-1.833182-.731304.463751-.108339.927503-.227515,1.353063-.433366,1.058444-.525456,1.031165-1.370516,1.265769-2.410592.201868-.910067.398281-1.820134.632885-2.724783.158222-.606713.561957-1.186338,1.189386-1.099663.785649.10834.862033.660883.73109,1.500526-.125486.780059-1.074815,5.920852-1.074815,5.926271-.043648.232934-1.620402.075838-1.773167.054169-.163677-.021669-.327353-.048756-.49103-.081257Z" fill="none" stroke="#000" stroke-linecap="round" stroke-linejoin="round"/><path d="M261.020453,158.987488c.654706-.124594,1.276678-.325023,1.833182-.731302-.46375-.10834-.927501-.227516-1.353064-.433368-1.058445-.525456-1.031164-1.370517-1.265767-2.410593-.201869-.910067-.398282-1.820135-.632885-2.724784-.158221-.606713-.561956-1.186339-1.189385-1.099664-.785651.108339-.862033.660882-.731089,1.500525.125487.780059,1.07481,5.920853,1.07481,5.926272.043648.232934,1.620402.075839,1.773167.054171.163679-.021669.327353-.048756.491032-.081257Z" fill="none" stroke="#000" stroke-linecap="round" stroke-linejoin="round"/><path d="M246.52413,161.706846s1.23849-1.65762,1.282137-2.789789c.08184-2.020567.196415-4.750765.196416-6.332551,0-.628382.381914-1.1105,1.020255-1.1105.632886,0,.987516.422531.987516,1.050912,0,.027087.147306,3.699857.147305,6.256713,0,1.18092,1.331239,2.919799,1.331239,2.919799-.54559-.243767-1.500372-.715053-2.482435-.671716-1.243942.059588-2.482432.677132-2.482432.677132Z" fill="none" stroke="#000" stroke-linecap="round" stroke-linejoin="round"/></g><text transform="translate(64.999878 377.466309)" fill="#333" font-family="ComicNeue-Regular, &apos;Comic Neue&apos;" font-size="24"><tspan x="0" y="0">By 1916, the public has </tspan><tspan x="0" y="28.799805">recognized the horror of war.</tspan></text></svg>