<?xml version="1.0" encoding="UTF-8"?><svg id="uuid-482f8096-5bf0-4a37-b1c7-2e41eee06680" xmlns="http://www.w3.org/2000/svg" viewBox="0 0 500 500"><polygon id="uuid-f32d09fe-d27a-41cc-8c3c-f42de5aebcb2" points="193 387 169 387 169 427.79 169 436 205 436 205 428 193 428 193 387" fill="#336"/><rect id="uuid-afb1155c-b5f7-436b-b35c-83f8ab8b7c7c" x="169" y="340" width="24" height="47" fill="#336"/><polygon id="uuid-c194c287-e49f-4123-9232-5eefa88b1428" points="161 387 137 387 137 428 126 428 126 436 161 436 161 427.79 161 427.79 161 387" fill="#336"/><rect id="uuid-ff459e2b-28e1-42b3-a877-ee62e7488f94" x="137" y="340" width="24" height="47" fill="#336"/><polygon id="uuid-e536afcf-72c2-476e-af40-241e9e209dd4" points="176.54 288.11 176.57 288 176.5 288 167.91 242.15 174.17 232 155.28 232 161.53 242.15 152.95 288 152.88 288 152.91 288.11 152.88 289 153.03 289 164.72 303.44 176.42 289 176.57 289 176.54 288.11" fill="#c1272d"/><path id="uuid-c3d94cad-83b7-43f4-b572-6db47f189bcc" d="M132,222v118h66v-118h-66ZM164.72,280.92l-23.44-57.92h46.88l-23.44,57.92Z" fill="#336"/><path id="uuid-d01bfe82-edff-4408-9d45-399ffc3cbd54" d="M195.67,195.6c1.22-6.65,1.28-13.91-.05-21.34-4.6-25.67-23.96-43.68-43.25-40.23-19.29,3.45-31.2,27.06-26.6,52.74,1.33,7.43,3.91,14.22,7.35,20.03l62.54-11.2Z" fill="#eec6a2"/><path id="uuid-bba9b343-6d52-4b3b-b78d-3b17e58b4fb4" d="M134.99,213c6.3,13.15,17.34,21.88,29.93,21.88s23.63-8.73,29.93-21.88h-59.86Z" fill="#eec6a2"/><ellipse id="uuid-09b7077b-41fd-4129-b5ae-f7eff6cd0e94" cx="170.5" cy="177.5" rx="3.43" ry="5.55" transform="translate(-26.74 30.28) rotate(-9.41)" fill="#333"/><ellipse id="uuid-2624c9dc-8b78-4595-99e3-731acdb16d66" cx="151.5" cy="181.5" rx="3.43" ry="5.55" transform="translate(-27.65 27.23) rotate(-9.42)" fill="#333"/><path id="uuid-32262fc5-018f-462b-a118-b37ead637c7e" d="M124.74,146.18c9.23-14.12,32.2-17.42,43.58-19.05,14.24-2.04,31.33-2.04,32.45,2.15,1,3.72-11.21,8.22-10.21,14.01.73,4.21,7.84,5.65,7.32,6.89-1.12,2.64-32.23-5.95-37.4,1.07-2.32,3.16,2.18,7.31-.48,9.69-2.74,2.46-8.3-1.29-20.26-1.99-10.29-.61-14.92,1.66-17.3-.89-3.16-3.38,1.69-10.96,2.29-11.89Z" fill="#534741"/><rect id="uuid-ecdbe107-2f3d-4d52-8c2a-122774ac639e" x="236" y="222" width="38" height="18" fill="#336"/><rect id="uuid-37d31896-6e71-41c6-8f8f-3a6d78821a0f" x="198" y="222" width="38" height="18" fill="#336"/><rect id="uuid-627bf6c2-f398-4b2b-a691-d2bb4e19ae1c" x="96.28" y="224.97" width="38" height="17.97" transform="translate(-43.17 26.79) rotate(-11.18)" fill="#336"/><rect id="uuid-2e4f1881-a449-461d-89ff-776385a7b034" x="62.27" y="236.09" width="38" height="17.97" transform="translate(-95.25 56.65) rotate(-24.79)" fill="#336"/><rect id="uuid-e747b88d-d4e1-40ad-a0e4-b68cbb0b6417" x="274" y="221" width="20" height="20" fill="#eec6a2"/><rect id="uuid-c9d708d4-0eb8-4664-b60c-f9d8ad520323" x="44.94" y="247.25" width="20" height="19.97" transform="translate(-102.78 46.73) rotate(-24.79)" fill="#eec6a2"/><polygon id="uuid-415c3267-9b3c-4689-8a40-2b81293cfa2a" points="193 387 169 387 169 427.79 169 436 205 436 205 428 193 428 193 387" fill="none" stroke="#000" stroke-linecap="round" stroke-linejoin="round"/><rect id="uuid-b0c8cd3e-0065-4cff-94c7-da926ef53d65" x="169" y="340" width="24" height="47" fill="none" stroke="#000" stroke-linecap="round" stroke-linejoin="round"/><polygon id="uuid-9f662c40-e168-4327-b3b4-c79d72e2fdd7" points="161 387 137 387 137 428 126 428 126 436 161 436 161 427.79 161 427.79 161 387" fill="none" stroke="#000" stroke-linecap="round" stroke-linejoin="round"/><rect id="uuid-1d2853b0-4af3-4d99-8fee-eda1ad3c3e45" x="137" y="340" width="24" height="47" fill="none" stroke="#000" stroke-linecap="round" stroke-linejoin="round"/><polygon id="uuid-99df9dc1-d313-4ef0-b820-243b40b7dd14" points="176.54 288.11 176.57 288 176.5 288 167.91 242.15 174.17 232 155.28 232 161.53 242.15 152.95 288 152.88 288 152.91 288.11 152.88 289 153.03 289 164.72 303.44 176.42 289 176.57 289 176.54 288.11" fill="none" stroke="#000" stroke-linecap="round" stroke-linejoin="round"/><path id="uuid-566f694a-7da5-4ce2-99f2-07fca48e0aad" d="M132,222v118h66v-118h-66ZM164.72,280.92l-23.44-57.92h46.88l-23.44,57.92Z" fill="none" stroke="#000" stroke-linecap="round" stroke-linejoin="round"/><path id="uuid-b156030a-769b-4b7a-9029-95c47b601b23" d="M195.67,195.6c1.22-6.65,1.28-13.91-.05-21.34-4.6-25.67-23.96-43.68-43.25-40.23-19.29,3.45-31.2,27.06-26.6,52.74,1.33,7.43,3.91,14.22,7.35,20.03l62.54-11.2Z" fill="none" stroke="#000" stroke-linecap="round" stroke-linejoin="round"/><path id="uuid-a7682dcf-1762-4b26-ab94-e531be2fb4d8" d="M134.99,213c6.3,13.15,17.34,21.88,29.93,21.88s23.63-8.73,29.93-21.88h-59.86Z" fill="none" stroke="#000" stroke-linecap="round" stroke-linejoin="round"/><ellipse id="uuid-5fcdec47-893d-4c74-b518-db1cfbae46a9" cx="170.5" cy="177.5" rx="3.43" ry="5.55" transform="translate(-26.74 30.28) rotate(-9.41)" fill="none" stroke="#000" stroke-linecap="round" stroke-linejoin="round"/><ellipse id="uuid-c37eea23-f615-4dda-abcb-3a663573526a" cx="151.5" cy="181.5" rx="3.43" ry="5.55" transform="translate(-27.65 27.23) rotate(-9.42)" fill="none" stroke="#000" stroke-linecap="round" stroke-linejoin="round"/><path id="uuid-43c839ef-f12c-4b03-a54e-b2722220f300" d="M124.74,146.18c9.23-14.12,32.2-17.42,43.58-19.05,14.24-2.04,31.33-2.04,32.45,2.15,1,3.72-11.21,8.22-10.21,14.01.73,4.21,7.84,5.65,7.32,6.89-1.12,2.64-32.23-5.95-37.4,1.07-2.32,3.16,2.18,7.31-.48,9.69-2.74,2.46-8.3-1.29-20.26-1.99-10.29-.61-14.92,1.66-17.3-.89-3.16-3.38,1.69-10.96,2.29-11.89Z" fill="none" stroke="#000" stroke-linecap="round" stroke-linejoin="round"/><rect id="uuid-2dccb28a-d89a-4cb8-b440-f3da2e98a392" x="236" y="222" width="38" height="18" fill="none" stroke="#000" stroke-linecap="round" stroke-linejoin="round"/><rect id="uuid-775f8c0d-ed92-4dd7-9e41-e73fd3329d82" x="198" y="222" width="38" height="18" fill="none" stroke="#000" stroke-linecap="round" stroke-linejoin="round"/><rect id="uuid-5d4047c1-5410-4a63-83c2-05a567943a1a" x="96.28" y="224.97" width="38" height="17.97" transform="translate(-43.17 26.79) rotate(-11.18)" fill="none" stroke="#000" stroke-linecap="round" stroke-linejoin="round"/><rect id="uuid-409402fa-b1fb-41ec-91df-943be3704856" x="62.27" y="236.09" width="38" height="17.97" transform="translate(-95.25 56.65) rotate(-24.79)" fill="none" stroke="#000" stroke-linecap="round" stroke-linejoin="round"/><rect id="uuid-7c1fa0c4-46cd-47e2-9863-b2e2a50c8b78" x="274" y="221" width="20" height="20" fill="none" stroke="#000" stroke-linecap="round" stroke-linejoin="round"/><rect id="uuid-12f869c5-bba8-48a5-9a62-ed8eb0075c19" x="44.94" y="247.25" width="20" height="19.97" transform="translate(-102.78 46.73) rotate(-24.79)" fill="none" stroke="#000" stroke-linecap="round" stroke-linejoin="round"/><g id="uuid-1d9bfc21-7c41-4fa9-87d0-c135c4135a19"><path d="M283.27,191.56l39.73-1.04v40.53c0,2.88-8.9,5.22-19.87,5.22s-19.87-2.34-19.87-5.22" fill="#b7d5e5"/><ellipse cx="303" cy="190" rx="20" ry="5" fill="#e0e0e0"/><ellipse cx="303.5" cy="190" rx="8.5" ry="2" fill="#82aec0"/><ellipse cx="304" cy="190.5" rx="7" ry="1.5" fill="#2f7889"/><path d="M303.69,185.5c-.96,0-2.35.03-2.82.05-.47.02-.43.27,0,.3s6.71.34,10.15.73c4.96.56,8.92,1.68,10.51,2.67.56.34,2.05.95,1.33,2.46-.19.39-.69,1.18-3.18,2.23-.94.39,3.32.68,4.26-.29,0,0,.06-2.02.06-2.92,0-2.89-9.09-5.22-20.31-5.22Z" fill="#b7d5e5"/><path d="M312.85,201.25s-5.56-2.34-16.47-3.99c-10.84-1.63-12.38-5.33-12.38-5.33v38.56c1.37,5.92,18.18,6.21,23.3,6.79,2.69.31,6.52,2.34,6.52,2.34,1.42-2.83-1.51-11.18-1.66-13.33-.24-3.5,1.23-3.43,1.23-6.89s-1.27-4.7-1.68-8.94c-.41-4.23,1.21-4.9,1.15-9.22Z" fill="#fff"/><path d="M295.68,198.31c10.52,1.75,17.11,2.94,17.11,2.94-.23-.1-5.5-2.57-16.37-4.21-10.17-1.53-11.55-4.69-13.05-6.09,0,0,.33,5.36,12.3,7.36Z" fill="#eee"/><path d="M311.83,204.65c-.61,1.58-1.3,3.37-1.07,5.76.21,2.21.64,3.69,1.02,4.99.7,1.92,1.2,4,.13,7.08-.98,2.81-1.2,5.86.45,10.28.22.6,1.33,3.76,1.5,7.24,0,0,0,0,0,0,0,0,.91-2.6.32-5.55-.76-3.79-1.64-4.24-1.75-6.89-.14-3.64,1.3-4.42,1.42-8.01.14-4.08-1.32-4.88-1.75-9.27-.41-4.21,1.33-4.96.67-9.03-.22,1.11-.44,2.02-.97,3.41Z" fill="#81b6cc"/><path d="M307.33,236.73c-.81-.15-1.9-.18-3.15-.27-3.55-.28-8.4-.66-12.54-1.61-5.34-1.23-6.92-2.81-7.27-3.97,0,0,.14-32.43.05-34.31-.12-2.62-1.42-5.62-1.42-5.62v40.11c1.42,6.14,18.87,6.45,24.18,7.05,2.79.32,4.92,1.16,6.31,1.89,0,0-.24-2.2-6.16-3.27Z" fill="#b7d5e5"/><path d="M322.04,195.4c-.06,1.81-.42,35.66-.42,35.66-.02.22-4.97,3.56-9.32.1l.62,4.44c6.01-.9,10.08-2.59,10.08-4.54l.06-40.35s-.92,1.88-1.02,4.69Z" fill="#81b6cc"/><path d="M283.27,191.56l39.73-1.04v40.53c0,2.88-8.9,5.22-19.87,5.22s-19.87-2.34-19.87-5.22" fill="none" stroke="#000" stroke-linecap="round" stroke-linejoin="round"/><ellipse cx="303" cy="190" rx="20" ry="5" fill="none" stroke="#000" stroke-linecap="round" stroke-linejoin="round"/><ellipse cx="303.5" cy="190" rx="8.5" ry="2" fill="none" stroke="#000" stroke-linecap="round" stroke-linejoin="round"/><ellipse cx="304" cy="190.5" rx="7" ry="1.5" fill="none" stroke="#000" stroke-linecap="round" stroke-linejoin="round"/><path d="M303.69,185.5c-.96,0-2.35.03-2.82.05-.47.02-.43.27,0,.3s6.71.34,10.15.73c4.96.56,8.92,1.68,10.51,2.67.56.34,2.05.95,1.33,2.46-.19.39-.69,1.18-3.18,2.23-.94.39,3.32.68,4.26-.29,0,0,.06-2.02.06-2.92,0-2.89-9.09-5.22-20.31-5.22Z" fill="none" stroke="#000" stroke-linecap="round" stroke-linejoin="round"/><path d="M312.85,201.25s-5.56-2.34-16.47-3.99c-10.84-1.63-12.38-5.33-12.38-5.33v38.56c1.37,5.92,18.18,6.21,23.3,6.79,2.69.31,6.52,2.34,6.52,2.34,1.42-2.83-1.51-11.18-1.66-13.33-.24-3.5,1.23-3.43,1.23-6.89s-1.27-4.7-1.68-8.94c-.41-4.23,1.21-4.9,1.15-9.22Z" fill="none" stroke="#000" stroke-linecap="round" stroke-linejoin="round"/><path d="M295.68,198.31c10.52,1.75,17.11,2.94,17.11,2.94-.23-.1-5.5-2.57-16.37-4.21-10.17-1.53-11.55-4.69-13.05-6.09,0,0,.33,5.36,12.3,7.36Z" fill="none" stroke="#000" stroke-linecap="round" stroke-linejoin="round"/><path d="M311.83,204.65c-.61,1.58-1.3,3.37-1.07,5.76.21,2.21.64,3.69,1.02,4.99.7,1.92,1.2,4,.13,7.08-.98,2.81-1.2,5.86.45,10.28.22.6,1.33,3.76,1.5,7.24,0,0,0,0,0,0,0,0,.91-2.6.32-5.55-.76-3.79-1.64-4.24-1.75-6.89-.14-3.64,1.3-4.42,1.42-8.01.14-4.08-1.32-4.88-1.75-9.27-.41-4.21,1.33-4.96.67-9.03-.22,1.11-.44,2.02-.97,3.41Z" fill="none" stroke="#000" stroke-linecap="round" stroke-linejoin="round"/><path d="M307.33,236.73c-.81-.15-1.9-.18-3.15-.27-3.55-.28-8.4-.66-12.54-1.61-5.34-1.23-6.92-2.81-7.27-3.97,0,0,.14-32.43.05-34.31-.12-2.62-1.42-5.62-1.42-5.62v40.11c1.42,6.14,18.87,6.45,24.18,7.05,2.79.32,4.92,1.16,6.31,1.89,0,0-.24-2.2-6.16-3.27Z" fill="none" stroke="#000" stroke-linecap="round" stroke-linejoin="round"/><path d="M322.04,195.4c-.06,1.81-.42,35.66-.42,35.66-.02.22-4.97,3.56-9.32.1l.62,4.44c6.01-.9,10.08-2.59,10.08-4.54l.06-40.35s-.92,1.88-1.02,4.69Z" fill="none" stroke="#000" stroke-linecap="round" stroke-linejoin="round"/><path d="M283.27,191.56l39.73-1.04v40.53c0,2.88-8.9,5.22-19.87,5.22s-19.87-2.34-19.87-5.22" fill="none" stroke="#000" stroke-linecap="round" stroke-linejoin="round"/><ellipse cx="303" cy="190" rx="20" ry="5" fill="none" stroke="#000" stroke-linecap="round" stroke-linejoin="round"/><ellipse cx="303.5" cy="190" rx="8.5" ry="2" fill="none" stroke="#000" stroke-linecap="round" stroke-linejoin="round"/><ellipse cx="304" cy="190.5" rx="7" ry="1.5" fill="none" stroke="#000" stroke-linecap="round" stroke-linejoin="round"/><path d="M303.69,185.5c-.96,0-2.35.03-2.82.05-.47.02-.43.27,0,.3s6.71.34,10.15.73c4.96.56,8.92,1.68,10.51,2.67.56.34,2.05.95,1.33,2.46-.19.39-.69,1.18-3.18,2.23-.94.39,3.32.68,4.26-.29,0,0,.06-2.02.06-2.92,0-2.89-9.09-5.22-20.31-5.22Z" fill="none" stroke="#000" stroke-linecap="round" stroke-linejoin="round"/><path d="M312.85,201.25s-5.56-2.34-16.47-3.99c-10.84-1.63-12.38-5.33-12.38-5.33v38.56c1.37,5.92,18.18,6.21,23.3,6.79,2.69.31,6.52,2.34,6.52,2.34,1.42-2.83-1.51-11.18-1.66-13.33-.24-3.5,1.23-3.43,1.23-6.89s-1.27-4.7-1.68-8.94c-.41-4.23,1.21-4.9,1.15-9.22Z" fill="none" stroke="#000" stroke-linecap="round" stroke-linejoin="round"/><path d="M295.68,198.31c10.52,1.75,17.11,2.94,17.11,2.94-.23-.1-5.5-2.57-16.37-4.21-10.17-1.53-11.55-4.69-13.05-6.09,0,0,.33,5.36,12.3,7.36Z" fill="none" stroke="#000" stroke-linecap="round" stroke-linejoin="round"/><path d="M311.83,204.65c-.61,1.58-1.3,3.37-1.07,5.76.21,2.21.64,3.69,1.02,4.99.7,1.92,1.2,4,.13,7.08-.98,2.81-1.2,5.86.45,10.28.22.6,1.33,3.76,1.5,7.24,0,0,0,0,0,0,0,0,.91-2.6.32-5.55-.76-3.79-1.64-4.24-1.75-6.89-.14-3.64,1.3-4.42,1.42-8.01.14-4.08-1.32-4.88-1.75-9.27-.41-4.21,1.33-4.96.67-9.03-.22,1.11-.44,2.02-.97,3.41Z" fill="none" stroke="#000" stroke-linecap="round" stroke-linejoin="round"/><path d="M307.33,236.73c-.81-.15-1.9-.18-3.15-.27-3.55-.28-8.4-.66-12.54-1.61-5.34-1.23-6.92-2.81-7.27-3.97,0,0,.14-32.43.05-34.31-.12-2.62-1.42-5.62-1.42-5.62v40.11c1.42,6.14,18.87,6.45,24.18,7.05,2.79.32,4.92,1.16,6.31,1.89,0,0-.24-2.2-6.16-3.27Z" fill="none" stroke="#000" stroke-linecap="round" stroke-linejoin="round"/><path d="M322.04,195.4c-.06,1.81-.42,35.66-.42,35.66-.02.22-4.97,3.56-9.32.1l.62,4.44c6.01-.9,10.08-2.59,10.08-4.54l.06-40.35s-.92,1.88-1.02,4.69Z" fill="none" stroke="#000" stroke-linecap="round" stroke-linejoin="round"/></g><text transform="translate(238.26 374.85)" fill="#333" font-family="ComicNeue-Regular, &apos;Comic Neue&apos;" font-size="24"><tspan x="0" y="0">He sold toilet papers. </tspan><tspan x="0" y="28.8">Every single day.</tspan></text><text transform="translate(138.63 84.3)" fill="#333" font-family="ComicNeue-Bold, &apos;Comic Neue&apos;" font-size="24" font-weight="700"><tspan x="0" y="0">Hey bud. You NEED these!!</tspan></text><path d="M223.68,195.79c4.88-1.46,24.42-8.47,37.32-43.67,5.73-15.63,8.17-31.43,9.3-42.07" fill="none" stroke="#333" stroke-miterlimit="10" stroke-width="2"/></svg>