<?xml version="1.0" encoding="UTF-8"?><svg id="uuid-d8d96205-d3b4-454f-8a56-a797051174ca" xmlns="http://www.w3.org/2000/svg" viewBox="0 0 500 500"><polygon id="uuid-6aa80078-a05e-42a4-a636-6577e6de1001" points="193 387 169 387 169 427.786424 169 436 205 436 205 428 193 428 193 387" fill="#336"/><rect id="uuid-ddacf28b-eb5b-421e-a706-1a837526941b" x="169" y="340" width="24.000018" height="47" fill="#336"/><polygon id="uuid-04ae1ff1-8600-4e0f-9e27-6bd02f48b6ca" points="160.999964 387 137 387 137 428 126 428 126 436 161 436 161 427.786424 160.999964 427.786424 160.999964 387" fill="#336"/><rect id="uuid-5aa4ff13-a143-44e5-9219-8eafe6d58f90" x="136.999982" y="340" width="24.000037" height="47" fill="#336"/><polygon id="uuid-2d2b08f9-318c-43ed-b655-0987286c18b3" points="176.540662 288.108208 176.570343 288 176.497013 288 167.912571 242.153454 174.171784 232 155.275568 232 161.534781 242.153454 152.950339 288 152.877008 288 152.90669 288.108208 152.877008 289 153.028924 289 164.723676 303.443388 176.418428 289 176.570343 289 176.540662 288.108208" fill="#c1272d"/><path id="uuid-032d25d6-bf80-427e-a372-a9b27fd6ddef" d="M132,222v118h66v-118h-66ZM164.723676,280.91854l-23.44034-57.91854h46.88068l-23.44034,57.91854Z" fill="#336"/><path id="uuid-a6a9c7b5-3f53-4c8c-ab26-80e788e55c67" d="M195.671899,195.598577c1.215691-6.649329,1.2766-13.906795-.054765-21.341322-4.597135-25.671043-23.959094-43.681642-43.246137-40.227745-19.287043,3.453897-31.195558,27.064369-26.598423,52.735412,1.331365,7.434528,3.907035,14.219838,7.354682,20.034063l62.544644-11.200409Z" fill="#eec6a2"/><path id="uuid-fa54eabb-a45a-4911-9e4b-30dadba2dd3a" d="M134.98743,213c6.298231,13.149988,17.34445,21.87949,29.929435,21.87949s23.631204-8.729503,29.929435-21.87949h-59.85887Z" fill="#eec6a2"/><ellipse id="uuid-44ca9759-ed4e-4ef4-a52d-97852dd06b9a" cx="170.5" cy="177.5" rx="3.42562" ry="5.545568" transform="translate(-26.738274 30.280561) rotate(-9.414538)" fill="#333"/><ellipse id="uuid-908d385f-8082-4015-b430-4f61e1701189" cx="151.5" cy="181.5" rx="3.425601" ry="5.545579" transform="translate(-27.65152 27.23) rotate(-9.415661)" fill="#333"/><path id="uuid-a032eeef-d12e-4328-85d3-128b0af48a11" d="M124.73965,146.180756c9.234816-14.121214,32.20394-17.417413,43.580026-19.049933,14.24407-2.044101,31.32561-2.038845,32.450584,2.154486.996899,3.715936-11.207665,8.218567-10.206345,14.01056.728293,4.212732,7.844207,5.6452,7.315099,6.889999-1.122358,2.640535-32.231127-5.948624-37.400691,1.074823-2.322587,3.155491,2.178524,7.305159-.475927,9.690915-2.742369,2.464791-8.298112-1.289014-20.259492-1.994799-10.29432-.60742-14.920628,1.657178-17.296617-.885391-3.160982-3.382577,1.687608-10.9644,2.293363-11.890659Z" fill="#534741"/><rect id="uuid-12de1088-1ebf-4813-a846-3fe90c90f746" x="236.000003" y="222.000016" width="37.999994" height="17.999967" fill="#336"/><rect id="uuid-01f6f9de-e67d-4a74-b456-d67c7dea2578" x="198.000003" y="222.000016" width="37.999994" height="17.999967" fill="#336"/><rect id="uuid-8a150020-048a-4695-8a83-27e3c6e0f49f" x="96.280003" y="224.974271" width="37.999994" height="17.968476" transform="translate(-43.170718 26.788453) rotate(-11.17882)" fill="#336"/><rect id="uuid-bca72a4b-cb32-41dd-89fc-2370bdd47e8e" x="62.269538" y="236.087893" width="37.999994" height="17.968476" transform="translate(-95.254078 56.64575) rotate(-24.78569)" fill="#336"/><rect id="uuid-f3c83c02-8e23-4bc8-8d1e-79f253780b5b" x="274" y="221" width="20" height="20" fill="#eec6a2"/><rect id="uuid-7ec2056b-4453-4eb5-94c0-99151928cb47" x="44.940962" y="247.247184" width="20" height="19.96501" transform="translate(-102.776346 46.728209) rotate(-24.785739)" fill="#eec6a2"/><polygon id="uuid-4cbeb4d7-336b-4068-94de-7b4d865cf37c" points="193 387 169 387 169 427.786424 169 436 205 436 205 428 193 428 193 387" fill="none" stroke="#000" stroke-linecap="round" stroke-linejoin="round"/><rect id="uuid-f1b6ebe5-5d72-4ffe-840e-0100bd7792cf" x="169" y="340" width="24.000018" height="47" fill="none" stroke="#000" stroke-linecap="round" stroke-linejoin="round"/><polygon id="uuid-899309e0-06aa-4ab5-910b-7332a8ce22a9" points="160.999964 387 137 387 137 428 126 428 126 436 161 436 161 427.786424 160.999964 427.786424 160.999964 387" fill="none" stroke="#000" stroke-linecap="round" stroke-linejoin="round"/><rect id="uuid-5e3cc2e2-78ea-4f8c-be30-30c8483ec81a" x="136.999982" y="340" width="24.000037" height="47" fill="none" stroke="#000" stroke-linecap="round" stroke-linejoin="round"/><polygon id="uuid-01d39617-275b-4832-8493-98c78ee97eb1" points="176.540662 288.108208 176.570343 288 176.497013 288 167.912571 242.153454 174.171784 232 155.275568 232 161.534781 242.153454 152.950339 288 152.877008 288 152.90669 288.108208 152.877008 289 153.028924 289 164.723676 303.443388 176.418428 289 176.570343 289 176.540662 288.108208" fill="none" stroke="#000" stroke-linecap="round" stroke-linejoin="round"/><path id="uuid-b117c645-ffb3-4a12-982e-697a0dea8678" d="M132,222v118h66v-118h-66ZM164.723676,280.91854l-23.44034-57.91854h46.88068l-23.44034,57.91854Z" fill="none" stroke="#000" stroke-linecap="round" stroke-linejoin="round"/><path id="uuid-60056e9f-4e91-4c7e-8248-6625ceb04d19" d="M195.671899,195.598577c1.215691-6.649329,1.2766-13.906795-.054765-21.341322-4.597135-25.671043-23.959094-43.681642-43.246137-40.227745-19.287043,3.453897-31.195558,27.064369-26.598423,52.735412,1.331365,7.434528,3.907035,14.219838,7.354682,20.034063l62.544644-11.200409Z" fill="none" stroke="#000" stroke-linecap="round" stroke-linejoin="round"/><path id="uuid-00e7effc-a9f0-40f3-ae24-3049209b0817" d="M134.98743,213c6.298231,13.149988,17.34445,21.87949,29.929435,21.87949s23.631204-8.729503,29.929435-21.87949h-59.85887Z" fill="none" stroke="#000" stroke-linecap="round" stroke-linejoin="round"/><ellipse id="uuid-11a18c32-f62a-48cb-84e1-40c33f27275b" cx="170.5" cy="177.5" rx="3.42562" ry="5.545568" transform="translate(-26.738274 30.280561) rotate(-9.414538)" fill="none" stroke="#000" stroke-linecap="round" stroke-linejoin="round"/><ellipse id="uuid-39685fe5-3267-41a3-a23e-b8bb3295841f" cx="151.5" cy="181.5" rx="3.425601" ry="5.545579" transform="translate(-27.65152 27.23) rotate(-9.415661)" fill="none" stroke="#000" stroke-linecap="round" stroke-linejoin="round"/><path id="uuid-f90b87b6-edc6-4efa-890c-88e4a2afb43b" d="M124.73965,146.180756c9.234816-14.121214,32.20394-17.417413,43.580026-19.049933,14.24407-2.044101,31.32561-2.038845,32.450584,2.154486.996899,3.715936-11.207665,8.218567-10.206345,14.01056.728293,4.212732,7.844207,5.6452,7.315099,6.889999-1.122358,2.640535-32.231127-5.948624-37.400691,1.074823-2.322587,3.155491,2.178524,7.305159-.475927,9.690915-2.742369,2.464791-8.298112-1.289014-20.259492-1.994799-10.29432-.60742-14.920628,1.657178-17.296617-.885391-3.160982-3.382577,1.687608-10.9644,2.293363-11.890659Z" fill="none" stroke="#000" stroke-linecap="round" stroke-linejoin="round"/><rect id="uuid-adb4e7a8-236e-403d-abdf-07d2f0798071" x="236.000003" y="222.000016" width="37.999994" height="17.999967" fill="none" stroke="#000" stroke-linecap="round" stroke-linejoin="round"/><rect id="uuid-223b004b-d4f7-472f-b4bd-271c0aaad029" x="198.000003" y="222.000016" width="37.999994" height="17.999967" fill="none" stroke="#000" stroke-linecap="round" stroke-linejoin="round"/><rect id="uuid-70e84acf-e04f-4ba0-810c-688aab7c01f1" x="96.280003" y="224.974271" width="37.999994" height="17.968476" transform="translate(-43.170718 26.788453) rotate(-11.17882)" fill="none" stroke="#000" stroke-linecap="round" stroke-linejoin="round"/><rect id="uuid-0a4b7000-b64f-494f-b411-2e531892c123" x="62.269538" y="236.087893" width="37.999994" height="17.968476" transform="translate(-95.254078 56.64575) rotate(-24.78569)" fill="none" stroke="#000" stroke-linecap="round" stroke-linejoin="round"/><rect id="uuid-ac1d4f4d-3213-4dd2-8109-423ca00910ef" x="274" y="221" width="20" height="20" fill="none" stroke="#000" stroke-linecap="round" stroke-linejoin="round"/><rect id="uuid-c1e265f8-e4a2-4dfb-8979-23ab8677de46" x="44.940962" y="247.247184" width="20" height="19.96501" transform="translate(-102.776346 46.728209) rotate(-24.785739)" fill="none" stroke="#000" stroke-linecap="round" stroke-linejoin="round"/><g id="uuid-d8d9419a-823d-4634-9193-f651884ff34b"><path d="M283.761068,191.564049l39.73426-1.044194v40.531216c0,2.880694-8.895662,5.21639-19.86713,5.21639s-19.86713-2.335696-19.86713-5.21639" fill="#b7d5e5"/><ellipse cx="303.247663" cy="190.001076" rx="20.247664" ry="5.001076" fill="#e0e0e0"/><ellipse cx="303.247664" cy="190.001076" rx="8.395373" ry="2.000431" fill="#82aec0"/><ellipse cx="303.741509" cy="190.501184" rx="6.913836" ry="1.500323" fill="#2f7889"/><path d="M303.689671,185.495816c-.958759,0-2.351675.032059-2.817487.050378-.470335.018319-.42511.274788,0,.297687s6.711318.343485,10.152904.732768c4.96113.558735,8.918275,1.676206,10.5147,2.665443.556263.343485,2.04867.948018,1.325078,2.459351-.189942.393863-.691935,1.177008-3.179283,2.225782-.936147.393863,3.324001.67781,4.255625-.293107,0,0,.058791-2.019691.058791-2.917331.000003-2.885273-9.094647-5.220971-20.310329-5.220971Z" fill="#b7d5e5"/><path d="M312.83641,201.245742s-5.562617-2.344856-16.470768-3.989004c-10.844839-1.634988-12.377951-5.326306-12.377951-5.326306v38.557325c1.370303,5.917099,18.180257,6.210205,23.295149,6.791842,2.686337.306846,6.516851,2.344858,6.516851,2.344858,1.415526-2.830315-1.510497-11.179286-1.659739-13.331793-.244213-3.503546,1.230107-3.430268,1.230107-6.892598s-1.270808-4.703451-1.682353-8.935187c-.411541-4.231736,1.212017-4.904965,1.148703-9.219136Z" fill="#fff"/><path d="M295.68041,198.310092c10.519224,1.754062,17.112959,2.940231,17.112959,2.940231-.230646-.096175-5.503823-2.573846-16.366752-4.213415-10.166475-1.534233-11.550345-4.685134-13.047276-6.086552,0,0,.330139,5.362944,12.301069,7.359736Z" fill="#eee"/><path d="M311.825561,204.653113c-.606007,1.580031-1.297945,3.370732-1.067299,5.756806.212556,2.212043.642187,3.686739,1.022075,4.9874.696458,1.918937,1.202974,3.998165.126628,7.075787-.981371,2.811996-1.19845,5.857562.452245,10.277068.221599.595375,1.334122,3.764595,1.501454,7.24066,0,0,.004523,0,.004523.004581,0,0,.909014-2.596745.321094-5.546136-.755249-3.792072-1.637129-4.240894-1.745667-6.888017-.144718-3.640938,1.302465-4.424083,1.424573-8.014647.135675-4.076021-1.320555-4.882063-1.745667-9.274092-.407021-4.213415,1.334122-4.959922.673844-9.026782-.221599,1.108312-.438675,2.024272-.967804,3.407371Z" fill="#81b6cc"/><path d="M307.33079,236.730021c-.809519-.146553-1.899428-.178612-3.152149-.274787-3.545602-.279368-8.398193-.659492-12.536237-1.612087-5.341016-1.227386-6.919351-2.811996-7.272102-3.966103,0,0,.140196-32.42955.05427-34.307271-.117584-2.624224-1.424572-5.619413-1.424572-5.619413v40.109872c1.42005,6.13693,18.867668,6.448357,24.177025,7.05289,2.785828.316007,4.915906,1.158688,6.313342,1.886878.000003-.004584-.235166-2.198308-6.159577-3.269979Z" fill="#b7d5e5"/><path d="M322.536567,195.397341c-.063314,1.813601-.416065,35.65831-.416065,35.65831-.01809.224409-4.970173,3.558502-9.320773.096175l.619577,4.442403c6.014862-.89764,10.076022-2.592167,10.076022-4.538582l.058791-40.348022c-.00452.004581-.922581,1.882298-1.017552,4.689715Z" fill="#81b6cc"/><path d="M283.761068,191.564049l39.73426-1.044194v40.531216c0,2.880694-8.895662,5.21639-19.86713,5.21639s-19.86713-2.335696-19.86713-5.21639" fill="none" stroke="#000" stroke-linecap="round" stroke-linejoin="round"/><ellipse cx="303.247663" cy="190.001076" rx="20.247664" ry="5.001076" fill="none" stroke="#000" stroke-linecap="round" stroke-linejoin="round"/><ellipse cx="303.247664" cy="190.001076" rx="8.395373" ry="2.000431" fill="none" stroke="#000" stroke-linecap="round" stroke-linejoin="round"/><ellipse cx="303.741509" cy="190.501184" rx="6.913836" ry="1.500323" fill="none" stroke="#000" stroke-linecap="round" stroke-linejoin="round"/><path d="M303.689671,185.495816c-.958759,0-2.351675.032059-2.817487.050378-.470335.018319-.42511.274788,0,.297687s6.711318.343485,10.152904.732768c4.96113.558735,8.918275,1.676206,10.5147,2.665443.556263.343485,2.04867.948018,1.325078,2.459351-.189942.393863-.691935,1.177008-3.179283,2.225782-.936147.393863,3.324001.67781,4.255625-.293107,0,0,.058791-2.019691.058791-2.917331.000003-2.885273-9.094647-5.220971-20.310329-5.220971Z" fill="none" stroke="#000" stroke-linecap="round" stroke-linejoin="round"/><path d="M312.83641,201.245742s-5.562617-2.344856-16.470768-3.989004c-10.844839-1.634988-12.377951-5.326306-12.377951-5.326306v38.557325c1.370303,5.917099,18.180257,6.210205,23.295149,6.791842,2.686337.306846,6.516851,2.344858,6.516851,2.344858,1.415526-2.830315-1.510497-11.179286-1.659739-13.331793-.244213-3.503546,1.230107-3.430268,1.230107-6.892598s-1.270808-4.703451-1.682353-8.935187c-.411541-4.231736,1.212017-4.904965,1.148703-9.219136Z" fill="none" stroke="#000" stroke-linecap="round" stroke-linejoin="round"/><path d="M295.68041,198.310092c10.519224,1.754062,17.112959,2.940231,17.112959,2.940231-.230646-.096175-5.503823-2.573846-16.366752-4.213415-10.166475-1.534233-11.550345-4.685134-13.047276-6.086552,0,0,.330139,5.362944,12.301069,7.359736Z" fill="none" stroke="#000" stroke-linecap="round" stroke-linejoin="round"/><path d="M311.825561,204.653113c-.606007,1.580031-1.297945,3.370732-1.067299,5.756806.212556,2.212043.642187,3.686739,1.022075,4.9874.696458,1.918937,1.202974,3.998165.126628,7.075787-.981371,2.811996-1.19845,5.857562.452245,10.277068.221599.595375,1.334122,3.764595,1.501454,7.24066,0,0,.004523,0,.004523.004581,0,0,.909014-2.596745.321094-5.546136-.755249-3.792072-1.637129-4.240894-1.745667-6.888017-.144718-3.640938,1.302465-4.424083,1.424573-8.014647.135675-4.076021-1.320555-4.882063-1.745667-9.274092-.407021-4.213415,1.334122-4.959922.673844-9.026782-.221599,1.108312-.438675,2.024272-.967804,3.407371Z" fill="none" stroke="#000" stroke-linecap="round" stroke-linejoin="round"/><path d="M307.33079,236.730021c-.809519-.146553-1.899428-.178612-3.152149-.274787-3.545602-.279368-8.398193-.659492-12.536237-1.612087-5.341016-1.227386-6.919351-2.811996-7.272102-3.966103,0,0,.140196-32.42955.05427-34.307271-.117584-2.624224-1.424572-5.619413-1.424572-5.619413v40.109872c1.42005,6.13693,18.867668,6.448357,24.177025,7.05289,2.785828.316007,4.915906,1.158688,6.313342,1.886878.000003-.004584-.235166-2.198308-6.159577-3.269979Z" fill="none" stroke="#000" stroke-linecap="round" stroke-linejoin="round"/><path d="M322.536567,195.397341c-.063314,1.813601-.416065,35.65831-.416065,35.65831-.01809.224409-4.970173,3.558502-9.320773.096175l.619577,4.442403c6.014862-.89764,10.076022-2.592167,10.076022-4.538582l.058791-40.348022c-.00452.004581-.922581,1.882298-1.017552,4.689715Z" fill="none" stroke="#000" stroke-linecap="round" stroke-linejoin="round"/><path d="M283.761068,191.564049l39.73426-1.044194v40.531216c0,2.880694-8.895662,5.21639-19.86713,5.21639s-19.86713-2.335696-19.86713-5.21639" fill="none" stroke="#000" stroke-linecap="round" stroke-linejoin="round"/><ellipse cx="303.247663" cy="190.001076" rx="20.247664" ry="5.001076" fill="none" stroke="#000" stroke-linecap="round" stroke-linejoin="round"/><ellipse cx="303.247664" cy="190.001076" rx="8.395373" ry="2.000431" fill="none" stroke="#000" stroke-linecap="round" stroke-linejoin="round"/><ellipse cx="303.741509" cy="190.501184" rx="6.913836" ry="1.500323" fill="none" stroke="#000" stroke-linecap="round" stroke-linejoin="round"/><path d="M303.689671,185.495816c-.958759,0-2.351675.032059-2.817487.050378-.470335.018319-.42511.274788,0,.297687s6.711318.343485,10.152904.732768c4.96113.558735,8.918275,1.676206,10.5147,2.665443.556263.343485,2.04867.948018,1.325078,2.459351-.189942.393863-.691935,1.177008-3.179283,2.225782-.936147.393863,3.324001.67781,4.255625-.293107,0,0,.058791-2.019691.058791-2.917331.000003-2.885273-9.094647-5.220971-20.310329-5.220971Z" fill="none" stroke="#000" stroke-linecap="round" stroke-linejoin="round"/><path d="M312.83641,201.245742s-5.562617-2.344856-16.470768-3.989004c-10.844839-1.634988-12.377951-5.326306-12.377951-5.326306v38.557325c1.370303,5.917099,18.180257,6.210205,23.295149,6.791842,2.686337.306846,6.516851,2.344858,6.516851,2.344858,1.415526-2.830315-1.510497-11.179286-1.659739-13.331793-.244213-3.503546,1.230107-3.430268,1.230107-6.892598s-1.270808-4.703451-1.682353-8.935187c-.411541-4.231736,1.212017-4.904965,1.148703-9.219136Z" fill="none" stroke="#000" stroke-linecap="round" stroke-linejoin="round"/><path d="M295.68041,198.310092c10.519224,1.754062,17.112959,2.940231,17.112959,2.940231-.230646-.096175-5.503823-2.573846-16.366752-4.213415-10.166475-1.534233-11.550345-4.685134-13.047276-6.086552,0,0,.330139,5.362944,12.301069,7.359736Z" fill="none" stroke="#000" stroke-linecap="round" stroke-linejoin="round"/><path d="M311.825561,204.653113c-.606007,1.580031-1.297945,3.370732-1.067299,5.756806.212556,2.212043.642187,3.686739,1.022075,4.9874.696458,1.918937,1.202974,3.998165.126628,7.075787-.981371,2.811996-1.19845,5.857562.452245,10.277068.221599.595375,1.334122,3.764595,1.501454,7.24066,0,0,.004523,0,.004523.004581,0,0,.909014-2.596745.321094-5.546136-.755249-3.792072-1.637129-4.240894-1.745667-6.888017-.144718-3.640938,1.302465-4.424083,1.424573-8.014647.135675-4.076021-1.320555-4.882063-1.745667-9.274092-.407021-4.213415,1.334122-4.959922.673844-9.026782-.221599,1.108312-.438675,2.024272-.967804,3.407371Z" fill="none" stroke="#000" stroke-linecap="round" stroke-linejoin="round"/><path d="M307.33079,236.730021c-.809519-.146553-1.899428-.178612-3.152149-.274787-3.545602-.279368-8.398193-.659492-12.536237-1.612087-5.341016-1.227386-6.919351-2.811996-7.272102-3.966103,0,0,.140196-32.42955.05427-34.307271-.117584-2.624224-1.424572-5.619413-1.424572-5.619413v40.109872c1.42005,6.13693,18.867668,6.448357,24.177025,7.05289,2.785828.316007,4.915906,1.158688,6.313342,1.886878.000003-.004584-.235166-2.198308-6.159577-3.269979Z" fill="none" stroke="#000" stroke-linecap="round" stroke-linejoin="round"/><path d="M322.536567,195.397341c-.063314,1.813601-.416065,35.65831-.416065,35.65831-.01809.224409-4.970173,3.558502-9.320773.096175l.619577,4.442403c6.014862-.89764,10.076022-2.592167,10.076022-4.538582l.058791-40.348022c-.00452.004581-.922581,1.882298-1.017552,4.689715Z" fill="none" stroke="#000" stroke-linecap="round" stroke-linejoin="round"/></g><text transform="translate(238.257324 374.845947)" fill="#333" font-family="ComicNeue-Regular, &apos;Comic Neue&apos;" font-size="24"><tspan x="0" y="0">He sold toilet papers. </tspan><tspan x="0" y="28.799805">Every single day.</tspan></text><text transform="translate(138.631348 84.299072)" fill="#333" font-family="ComicNeue-Bold, &apos;Comic Neue&apos;" font-size="24" font-weight="700"><tspan x="0" y="0">Hey bud. You NEED these!!</tspan></text><path d="M223.682711,195.785689c4.881594-1.458202,24.424732-8.467458,37.324553-43.669927,5.72705-15.62861,8.171512-31.429496,9.297215-42.072247" fill="none" stroke="#333" stroke-miterlimit="10" stroke-width="2"/></svg>