<?xml version="1.0" encoding="UTF-8"?><svg id="uuid-d6befd21-593d-40e8-9df0-1609302b7ca8" xmlns="http://www.w3.org/2000/svg" viewBox="0 0 500 500"><g id="uuid-441675ee-2bb4-4938-9b63-b147cd8c32a6"><path d="M411.26,259h-44.53c-.95,0-1.72-.77-1.72-1.72v-26.55c0-.96.77-1.73,1.73-1.73h44.54c.96,0,1.73.77,1.73,1.73v26.56c0,.95-.78,1.71-1.74,1.71Z" fill="#2e7d32"/><path d="M411.31,254h-44.64c-.92,0-1.67-.75-1.67-1.67v-21.6c0-.96.77-1.73,1.73-1.73h44.54c.96,0,1.73.77,1.73,1.73v21.62c0,.91-.76,1.65-1.69,1.65Z" fill="#66bb6a"/><path d="M379.27,244.1c0-.49-.17-.9-.51-1.23s-.92-.64-1.73-.91c-1.13-.34-1.95-.79-2.47-1.35-.52-.55-.78-1.26-.78-2.11s.25-1.58.76-2.14c.51-.56,2.45-.99,2.45-.99v-1.37s-.2-.37,0,0h.45c.2-.37-.45,0-.45,0v1.38s2.41.49,2.9,1.12c.44.56.69,1.31.74,2.24,0,.18-.14.33-.32.26h-.82c-.17.07-.31-.07-.32-.24-.04-.61-.22-1.1-.52-1.47-.36-.44-.84-.66-1.44-.66s-1.11.16-1.44.49c-.33.32-.5.78-.5,1.37,0,.54.18.97.53,1.29s.93.61,1.74.87,1.44.55,1.89.87c.45.32.79.68,1,1.1.21.42.32.91.32,1.47,0,.89-.27,1.62-.81,2.16s-1.29.87-1.94.97v1.15c-.32.2-.69.63-.69.63h-.44s-.37-.43-.87-.63v-1.15c-.49-.09-1.26-.44-1.82-1.05-.5-.55-.78-1.27-.83-2.16-.01-.18.14-.33.32,0h.83c.17-.32.31-.2.32-.03.04.6.23,1.07.57,1.41.39.4.93.6,1.65.6s1.24-.17,1.64-.5c.39-.34.59-.8.59-1.38Z" fill="#fff"/><polygon points="378 247.55 376 247.21 377 235.41 377 235.01 377 235.38 378 247.2 378 247.55" fill="#fff"/><circle cx="397.5" cy="241.5" r="7.5" fill="#2e7d32" isolation="isolate" opacity=".5"/><path d="M405.82,231c.34,2.18,2.04,3.9,4.18,4.25v11.5c-2.14.35-3.84,2.07-4.18,4.25h-33.69c-.44-2.06-2.08-3.65-4.13-3.98v-11.5c2.23-.36,3.97-2.21,4.21-4.52h33.79M406.72,231h-35.44c0,.09,0,.17,0,.26,0,2.31-1.92,4.19-4.28,4.19v12.62c2.27,0,4.13,1.73,4.27,3.93h35.49c0-2.34,1.9-4.24,4.24-4.24v-12.57c-2.37,0-4.28-1.88-4.28-4.19h0Z" fill="#2e7d32"/><rect x="384" y="229" width="9" height="30" fill="#ffecb3"/><rect x="384" y="254" width="9" height="5" fill="#ffc06c"/><path d="M411.26,259h-44.53c-.95,0-1.72-.77-1.72-1.72v-26.55c0-.96.77-1.73,1.73-1.73h44.54c.96,0,1.73.77,1.73,1.73v26.56c0,.95-.78,1.71-1.74,1.71Z" fill="none" stroke="#000" stroke-linecap="round" stroke-linejoin="round"/><path d="M411.31,254h-44.64c-.92,0-1.67-.75-1.67-1.67v-21.6c0-.96.77-1.73,1.73-1.73h44.54c.96,0,1.73.77,1.73,1.73v21.62c0,.91-.76,1.65-1.69,1.65Z" fill="none" stroke="#000" stroke-linecap="round" stroke-linejoin="round"/><path d="M379.27,244.1c0-.49-.17-.9-.51-1.23s-.92-.64-1.73-.91c-1.13-.34-1.95-.79-2.47-1.35-.52-.55-.78-1.26-.78-2.11s.25-1.58.76-2.14c.51-.56,2.45-.99,2.45-.99v-1.37s-.2-.37,0,0h.45c.2-.37-.45,0-.45,0v1.38s2.41.49,2.9,1.12c.44.56.69,1.31.74,2.24,0,.18-.14.33-.32.26h-.82c-.17.07-.31-.07-.32-.24-.04-.61-.22-1.1-.52-1.47-.36-.44-.84-.66-1.44-.66s-1.11.16-1.44.49c-.33.32-.5.78-.5,1.37,0,.54.18.97.53,1.29s.93.61,1.74.87,1.44.55,1.89.87c.45.32.79.68,1,1.1.21.42.32.91.32,1.47,0,.89-.27,1.62-.81,2.16s-1.29.87-1.94.97v1.15c-.32.2-.69.63-.69.63h-.44s-.37-.43-.87-.63v-1.15c-.49-.09-1.26-.44-1.82-1.05-.5-.55-.78-1.27-.83-2.16-.01-.18.14-.33.32,0h.83c.17-.32.31-.2.32-.03.04.6.23,1.07.57,1.41.39.4.93.6,1.65.6s1.24-.17,1.64-.5c.39-.34.59-.8.59-1.38Z" fill="none" stroke="#000" stroke-linecap="round" stroke-linejoin="round"/><polygon points="378 247.55 376 247.21 377 235.41 377 235.01 377 235.38 378 247.2 378 247.55" fill="none" stroke="#000" stroke-linecap="round" stroke-linejoin="round"/><circle cx="397.5" cy="241.5" r="7.5" fill="none" stroke="#000" stroke-linecap="round" stroke-linejoin="round"/><path d="M405.82,231c.34,2.18,2.04,3.9,4.18,4.25v11.5c-2.14.35-3.84,2.07-4.18,4.25h-33.69c-.44-2.06-2.08-3.65-4.13-3.98v-11.5c2.23-.36,3.97-2.21,4.21-4.52h33.79M406.72,231h-35.44c0,.09,0,.17,0,.26,0,2.31-1.92,4.19-4.28,4.19v12.62c2.27,0,4.13,1.73,4.27,3.93h35.49c0-2.34,1.9-4.24,4.24-4.24v-12.57c-2.37,0-4.28-1.88-4.28-4.19h0Z" fill="none" stroke="#000" stroke-linecap="round" stroke-linejoin="round"/><rect x="384" y="229" width="9" height="30" fill="none" stroke="#000" stroke-linecap="round" stroke-linejoin="round"/><rect x="384" y="254" width="9" height="5" fill="none" stroke="#000" stroke-linecap="round" stroke-linejoin="round"/></g><g id="uuid-55caf4b0-cbc5-436d-8b6b-6fc5b0b04aae"><polygon id="uuid-277935de-c56a-4774-bc84-0524ccb12d48" points="310 369 290 369 290 403.96 290 411 320 411 320 404 310 404 310 369" fill="#393939"/><rect id="uuid-ac87a141-6e15-497b-a413-5dc8e3a2fd95" x="290" y="330" width="20" height="39" fill="#393939"/><polygon id="uuid-ce04f79b-8ff1-4dad-aa2c-6f520348283d" points="282 369 262 369 262 404 252 404 252 411 282 411 282 403.96 282 403.96 282 369" fill="#393939"/><rect id="uuid-ca31a305-76c6-41d0-8a14-d035b19484a8" x="262" y="330" width="20" height="39" fill="#393939"/><polygon id="uuid-4efab81d-5f27-4430-87f8-c45389a8786d" points="296.04 285.88 296.06 286 295.95 286 288.76 247.52 294.01 239 278.17 239 283.42 247.52 276.23 286 276.12 286 276.14 285.88 276.12 286 276.25 286 286.09 298.81 295.94 286 296.06 286 296.04 285.88" fill="#565656"/><path id="uuid-82d6a5f4-82ed-4915-b2f2-c6d05e65e65b" d="M258,230v100h56v-100h-56ZM286.09,279.93l-19.77-48.93h39.53l-19.77,48.93Z" fill="#393939"/><path id="uuid-6b70edf7-b91e-4896-a474-50ae82b1d2fc" d="M313.15,217.89c2.09-5.31,3.32-11.32,3.42-17.7.37-22.03-12.73-40.11-29.25-40.38-16.52-.28-30.21,17.36-30.58,39.39-.11,6.38.92,12.42,2.83,17.8l53.57.89Z" fill="#cecece"/><path id="uuid-028ac33f-757d-4436-9a35-f47b20dc1eae" d="M261.01,223c5.31,11.11,14.63,18.48,25.24,18.48s19.93-7.37,25.24-18.48h-50.48Z" fill="#cecece"/><ellipse id="uuid-efa3fcb0-47f3-4ffc-8fe0-89c711ebb815" cx="307" cy="204.5" rx="3" ry="4.5" fill="#333"/><ellipse id="uuid-34604c0e-893c-494c-87a4-3872afa84853" cx="291" cy="204.5" rx="3" ry="4.5" fill="#333"/><path id="uuid-884ef663-91ec-427b-9d36-8f0e24f036e4" d="M256.1,169.95c9.45-10.66,29.01-10.57,38.71-10.53,12.13.05,26.38,2.17,26.8,5.82.37,3.23-10.36,5.48-10.24,10.44.09,3.61,5.85,5.69,5.25,6.66-1.26,2.07-26.15-8.96-31.33-3.73-2.33,2.35.92,6.37-1.59,8.04-2.59,1.72-6.76-2.1-16.65-4.17-8.51-1.78-12.65-.46-14.32-2.88-2.22-3.22,2.76-8.95,3.38-9.65Z" fill="#4a4a4a"/><rect id="uuid-614dcfb8-bcf1-442c-887c-f4a37ecb36da" x="325.35" y="243.06" width="31.91" height="14.96" transform="translate(-58.27 110.54) rotate(-16.97)" fill="#393939"/><rect id="uuid-77940390-ac38-414c-8e08-492809a5ea8f" x="314.07" y="230.1" width="14.96" height="31.91" transform="translate(-76.95 317.71) rotate(-47.62)" fill="#393939"/><rect id="uuid-b9a02bfb-2354-48ff-a3da-455c6e768cfe" x="233.59" y="236.17" width="31.91" height="14.96" transform="translate(-53.35 416.55) rotate(-74.03)" fill="#393939"/><rect id="uuid-897b58d9-3d94-479f-b304-128c741c4650" x="228.34" y="265.16" width="31.91" height="14.96" transform="translate(-49.67 490.81) rotate(-84.72)" fill="#393939"/><rect id="uuid-8c44a998-0095-49de-a95f-eab4ba47bb27" x="354.58" y="236.07" width="15.96" height="15.96" transform="translate(-55.45 116.46) rotate(-16.97)" fill="#cecece"/><rect id="uuid-37d94cce-7ea9-4ec0-9671-313331cd048e" x="234.23" y="287.26" width="15.96" height="15.96" transform="translate(-74.07 509.25) rotate(-84.72)" fill="#cecece"/><polygon id="uuid-d2ae754e-62d2-47b9-a4e7-2147e3065bfd" points="310 369 290 369 290 403.96 290 411 320 411 320 404 310 404 310 369" fill="none" stroke="#000" stroke-linecap="round" stroke-linejoin="round"/><rect id="uuid-e2caaf54-5776-44c4-9fcb-918419b9c1db" x="290" y="330" width="20" height="39" fill="none" stroke="#000" stroke-linecap="round" stroke-linejoin="round"/><polygon id="uuid-249ed7da-3970-4da4-9078-c305bc7e6bf7" points="282 369 262 369 262 404 252 404 252 411 282 411 282 403.96 282 403.96 282 369" fill="none" stroke="#000" stroke-linecap="round" stroke-linejoin="round"/><rect id="uuid-3cf918b5-e6c7-408a-9db1-da2efdd7ade8" x="262" y="330" width="20" height="39" fill="none" stroke="#000" stroke-linecap="round" stroke-linejoin="round"/><polygon id="uuid-ec96cfa3-3757-4c52-882d-5268c876d4c8" points="296.04 285.88 296.06 286 295.95 286 288.76 247.52 294.01 239 278.17 239 283.42 247.52 276.23 286 276.12 286 276.14 285.88 276.12 286 276.25 286 286.09 298.81 295.94 286 296.06 286 296.04 285.88" fill="none" stroke="#000" stroke-linecap="round" stroke-linejoin="round"/><path id="uuid-634857b2-6a90-4856-81aa-6eab46219efb" d="M258,230v100h56v-100h-56ZM286.09,279.93l-19.77-48.93h39.53l-19.77,48.93Z" fill="none" stroke="#000" stroke-linecap="round" stroke-linejoin="round"/><path id="uuid-4766e5fa-8193-419d-a06b-719ada8dcf61" d="M313.15,217.89c2.09-5.31,3.32-11.32,3.42-17.7.37-22.03-12.73-40.11-29.25-40.38-16.52-.28-30.21,17.36-30.58,39.39-.11,6.38.92,12.42,2.83,17.8l53.57.89Z" fill="none" stroke="#000" stroke-linecap="round" stroke-linejoin="round"/><path id="uuid-4eda77f0-9069-4c55-a63e-fb4e01af6936" d="M261.01,223c5.31,11.11,14.63,18.48,25.24,18.48s19.93-7.37,25.24-18.48h-50.48Z" fill="none" stroke="#000" stroke-linecap="round" stroke-linejoin="round"/><ellipse id="uuid-b2923d06-69a7-4788-874d-cc1ca5d359f1" cx="307" cy="204.5" rx="3" ry="4.5" fill="none" stroke="#000" stroke-linecap="round" stroke-linejoin="round"/><ellipse id="uuid-5724a5e5-2d2d-494c-b3af-adbc8e9ff370" cx="291" cy="204.5" rx="3" ry="4.5" fill="none" stroke="#000" stroke-linecap="round" stroke-linejoin="round"/><path id="uuid-95464d1b-760b-4e63-bbc6-3d9a813b3615" d="M256.1,169.95c9.45-10.66,29.01-10.57,38.71-10.53,12.13.05,26.38,2.17,26.8,5.82.37,3.23-10.36,5.48-10.24,10.44.09,3.61,5.85,5.69,5.25,6.66-1.26,2.07-26.15-8.96-31.33-3.73-2.33,2.35.92,6.37-1.59,8.04-2.59,1.72-6.76-2.1-16.65-4.17-8.51-1.78-12.65-.46-14.32-2.88-2.22-3.22,2.76-8.95,3.38-9.65Z" fill="none" stroke="#000" stroke-linecap="round" stroke-linejoin="round"/><rect id="uuid-82870adf-036f-4af2-91af-aab78b8310a6" x="325.35" y="243.06" width="31.91" height="14.96" transform="translate(-58.27 110.54) rotate(-16.97)" fill="none" stroke="#000" stroke-linecap="round" stroke-linejoin="round"/><rect id="uuid-51fd2b42-b792-4bce-80a1-8a2f97b67f95" x="314.07" y="230.1" width="14.96" height="31.91" transform="translate(-76.95 317.71) rotate(-47.62)" fill="none" stroke="#000" stroke-linecap="round" stroke-linejoin="round"/><rect id="uuid-94d71b4b-9506-412c-9681-3546e393b7dc" x="233.59" y="236.17" width="31.91" height="14.96" transform="translate(-53.35 416.55) rotate(-74.03)" fill="none" stroke="#000" stroke-linecap="round" stroke-linejoin="round"/><rect id="uuid-bee0591b-4b0d-42e4-93f5-7312c7fcc0b9" x="228.34" y="265.16" width="31.91" height="14.96" transform="translate(-49.67 490.81) rotate(-84.72)" fill="none" stroke="#000" stroke-linecap="round" stroke-linejoin="round"/><rect id="uuid-501c6c10-fe47-4e93-ade8-5bd1e015c84f" x="354.58" y="236.07" width="15.96" height="15.96" transform="translate(-55.45 116.46) rotate(-16.97)" fill="none" stroke="#000" stroke-linecap="round" stroke-linejoin="round"/><rect id="uuid-9fe6333c-b42c-466c-96a2-6c70d920b771" x="234.23" y="287.26" width="15.96" height="15.96" transform="translate(-74.07 509.25) rotate(-84.72)" fill="none" stroke="#000" stroke-linecap="round" stroke-linejoin="round"/></g><g id="uuid-5f61120c-82e9-4ab6-b792-0ef1ab98d4ad"><path d="M226.26,324h-44.53c-.95,0-1.72-.77-1.72-1.72v-26.55c0-.96.77-1.73,1.73-1.73h44.54c.96,0,1.73.77,1.73,1.73v26.56c0,.95-.78,1.71-1.74,1.71Z" fill="#2e7d32"/><path d="M226.31,319h-44.64c-.92,0-1.67-.75-1.67-1.67v-21.6c0-.96.77-1.73,1.73-1.73h44.54c.96,0,1.73.77,1.73,1.73v21.62c0,.91-.76,1.65-1.69,1.65Z" fill="#66bb6a"/><path d="M194.09,309.85c0-.49-.17-.9-.51-1.23s-.92-.64-1.73-.91c-1.13-.34-1.95-.79-2.47-1.35-.52-.55-.78-1.26-.78-2.11s.25-1.58.76-2.14c.51-.56,2.63-.99,2.63-.99v-1.37s-.38-.37-.18-.75h.45c.2.39.73.75.73.75v1.38s1.22.49,1.71,1.12c.44.56.69,1.31.74,2.24,0,.18-.14.33-.32.51h-.82c-.17-.17-.31-.31-.32-.49-.04-.61-.22-1.1-.52-1.47-.36-.44-.84-.66-1.44-.66s-1.11.16-1.44.49c-.33.32-.5.78-.5,1.37,0,.54.18.97.53,1.29s.93.61,1.74.87,1.44.55,1.89.87c.45.32.79.68,1,1.1.21.42.32.91.32,1.47,0,.89-.27,1.62-.81,2.16s-1.29.87-1.75.97v1.15c-.51.2-.88.88-.88.88h-.44s-.37-.67-.68-.88v-1.15c-.67-.09-1.44-.44-2-1.05-.5-.55-.78-1.27-.83-2.16-.01-.18.14-.33.32-.77h.83c.17.43.31.56.32.72.04.6.23,1.07.57,1.41.39.4.93.6,1.65.6s1.24-.17,1.64-.5c.39-.34.59-.8.59-1.38Z" fill="#fff"/><polygon points="193 313.3 191 312.97 192 301.16 192 300.76 193 301.13 193 312.96 193 313.3" fill="#fff"/><circle cx="211.5" cy="306.5" r="7.5" fill="#2e7d32" isolation="isolate" opacity=".5"/><path d="M220.82,297c.34,2.18,2.04,3.9,4.18,4.25v11.5c-2.14.35-3.84,2.07-4.18,4.25h-33.69c-.44-2.06-2.08-3.65-4.13-3.98v-11.5c2.23-.36,3.97-2.21,4.21-4.52h33.79M221.72,296h-35.44c0,.09,0,.17,0,.26,0,2.31-1.92,4.19-4.28,4.19v12.62c2.27,0,4.13,1.73,4.27,3.93h35.49c0-2.34,1.9-4.24,4.24-4.24v-12.57c-2.37,0-4.28-1.88-4.28-4.19h0Z" fill="#2e7d32"/><rect x="199" y="294" width="9" height="30" fill="#ffecb3"/><rect x="199" y="319" width="9" height="5" fill="#ffc06c"/><path d="M226.26,324h-44.53c-.95,0-1.72-.77-1.72-1.72v-26.55c0-.96.77-1.73,1.73-1.73h44.54c.96,0,1.73.77,1.73,1.73v26.56c0,.95-.78,1.71-1.74,1.71Z" fill="none" stroke="#000" stroke-linecap="round" stroke-linejoin="round"/><path d="M226.31,319h-44.64c-.92,0-1.67-.75-1.67-1.67v-21.6c0-.96.77-1.73,1.73-1.73h44.54c.96,0,1.73.77,1.73,1.73v21.62c0,.91-.76,1.65-1.69,1.65Z" fill="none" stroke="#000" stroke-linecap="round" stroke-linejoin="round"/><path d="M194.09,309.85c0-.49-.17-.9-.51-1.23s-.92-.64-1.73-.91c-1.13-.34-1.95-.79-2.47-1.35-.52-.55-.78-1.26-.78-2.11s.25-1.58.76-2.14c.51-.56,2.63-.99,2.63-.99v-1.37s-.38-.37-.18-.75h.45c.2.39.73.75.73.75v1.38s1.22.49,1.71,1.12c.44.56.69,1.31.74,2.24,0,.18-.14.33-.32.51h-.82c-.17-.17-.31-.31-.32-.49-.04-.61-.22-1.1-.52-1.47-.36-.44-.84-.66-1.44-.66s-1.11.16-1.44.49c-.33.32-.5.78-.5,1.37,0,.54.18.97.53,1.29s.93.61,1.74.87,1.44.55,1.89.87c.45.32.79.68,1,1.1.21.42.32.91.32,1.47,0,.89-.27,1.62-.81,2.16s-1.29.87-1.75.97v1.15c-.51.2-.88.88-.88.88h-.44s-.37-.67-.68-.88v-1.15c-.67-.09-1.44-.44-2-1.05-.5-.55-.78-1.27-.83-2.16-.01-.18.14-.33.32-.77h.83c.17.43.31.56.32.72.04.6.23,1.07.57,1.41.39.4.93.6,1.65.6s1.24-.17,1.64-.5c.39-.34.59-.8.59-1.38Z" fill="none" stroke="#000" stroke-linecap="round" stroke-linejoin="round"/><polygon points="193 313.3 191 312.97 192 301.16 192 300.76 193 301.13 193 312.96 193 313.3" fill="none" stroke="#000" stroke-linecap="round" stroke-linejoin="round"/><circle cx="211.5" cy="306.5" r="7.5" fill="none" stroke="#000" stroke-linecap="round" stroke-linejoin="round"/><path d="M220.82,297c.34,2.18,2.04,3.9,4.18,4.25v11.5c-2.14.35-3.84,2.07-4.18,4.25h-33.69c-.44-2.06-2.08-3.65-4.13-3.98v-11.5c2.23-.36,3.97-2.21,4.21-4.52h33.79M221.72,296h-35.44c0,.09,0,.17,0,.26,0,2.31-1.92,4.19-4.28,4.19v12.62c2.27,0,4.13,1.73,4.27,3.93h35.49c0-2.34,1.9-4.24,4.24-4.24v-12.57c-2.37,0-4.28-1.88-4.28-4.19h0Z" fill="none" stroke="#000" stroke-linecap="round" stroke-linejoin="round"/><rect x="199" y="294" width="9" height="30" fill="none" stroke="#000" stroke-linecap="round" stroke-linejoin="round"/><rect x="199" y="319" width="9" height="5" fill="none" stroke="#000" stroke-linecap="round" stroke-linejoin="round"/></g><g id="uuid-5e9ad2e7-70cd-4ebf-b762-61f8ddace1b9"><polygon id="uuid-3b3d55ba-4f47-4b61-bcdf-7af896acd0ca" points="162 369 142 369 142 403.96 142 411 172 411 172 404 162 404 162 369" fill="#393939"/><rect id="uuid-034c1124-480b-42da-ab3b-e6803bec59bb" x="142" y="330" width="20" height="39" fill="#393939"/><polygon id="uuid-dbc16f61-c128-4321-99c1-f57064d3d29d" points="134 369 114 369 114 404 104 404 104 411 134 411 134 403.96 134 403.96 134 369" fill="#393939"/><rect id="uuid-c8d4acd1-d7d1-4361-8c2e-4fb121c87381" x="114" y="330" width="20" height="39" fill="#393939"/><polygon id="uuid-6da197ff-7893-4f09-b6cf-ee84fb58d0e2" points="147.85 285.88 147.88 286 147.77 286 140.57 247.52 145.82 239 129.99 239 135.23 247.52 128.04 286 127.93 286 127.96 285.88 127.93 286 128.06 286 137.9 298.81 147.75 286 147.88 286 147.85 285.88" fill="#565656"/><path id="uuid-36e974e0-606f-4d67-9584-48e0e06506c2" d="M110,230v100h56v-100h-56ZM137.9,279.93l-19.77-48.93h39.53l-19.77,48.93Z" fill="#393939"/><path id="uuid-0e683ba7-14b9-42ab-a30a-afd21b519ce5" d="M164.97,217.89c2.09-5.31,3.32-11.32,3.42-17.7.37-22.03-12.73-40.11-29.25-40.38-16.52-.28-30.21,17.36-30.58,39.39-.11,6.38.92,12.42,2.83,17.8l53.57.89Z" fill="#cecece"/><path id="uuid-209a3b70-72c0-40ee-9aec-9a474243e3eb" d="M112.83,223c5.31,11.11,14.63,18.48,25.24,18.48s19.93-7.37,25.24-18.48h-50.48Z" fill="#cecece"/><ellipse id="uuid-530aaa96-4897-403b-90e8-aedef0fffa13" cx="152" cy="203.5" rx="3" ry="4.5" fill="#333"/><ellipse id="uuid-a20b8e89-d5ef-468b-af37-0fb226796a47" cx="134" cy="203.5" rx="3" ry="4.5" fill="#333"/><path id="uuid-23b73ffa-9c3b-4b3f-9410-1d1023f644e6" d="M107.91,169.71c9.45-10.66,29.01-10.57,38.71-10.53,12.13.05,26.38,2.17,26.8,5.82.37,3.23-10.36,5.48-10.24,10.44.09,3.61,5.85,5.69,5.25,6.66-1.26,2.07-26.15-8.96-31.33-3.73-2.33,2.35.92,6.37-1.59,8.04-2.59,1.72-6.76-2.1-16.65-4.17-8.51-1.78-12.65-.46-14.32-2.88-2.22-3.22,2.76-8.95,3.38-9.65Z" fill="#4a4a4a"/><rect id="uuid-b63daa07-df6f-4ad7-bceb-a51f8c4d00d9" x="170.35" y="259.02" width="14.96" height="31.91" transform="translate(-34.8 25.93) rotate(-7.6)" fill="#393939"/><rect id="uuid-3b1ea19e-6269-4dfb-89ee-daf7c554dfc8" x="166.66" y="228.54" width="14.96" height="31.91" transform="translate(-23.16 18.28) rotate(-5.63)" fill="#393939"/><rect id="uuid-ef4b815a-12ac-441f-8746-d13a678e85c1" x="85.4" y="236.93" width="31.91" height="14.96" transform="translate(-156.43 304.05) rotate(-80.5)" fill="#393939"/><rect id="uuid-83bac48f-78c8-4f49-8384-e68849873281" x="82.15" y="264.92" width="31.91" height="14.96" transform="translate(-182.16 345.02) rotate(-84.72)" fill="#393939"/><rect id="uuid-a0f4e4bd-ad68-470a-b7f1-b5f4eb49f8db" x="172.79" y="289.02" width="15.96" height="15.96" transform="translate(-37.69 26.51) rotate(-7.6)" fill="#cecece"/><rect id="uuid-59bf91e2-1d45-4fa3-a70b-46a56c1406ed" x="88.04" y="287.02" width="15.96" height="15.96" transform="translate(-206.56 363.46) rotate(-84.72)" fill="#cecece"/><polygon id="uuid-08e06e47-486c-49ff-9678-6555e85f93d8" points="162 369 142 369 142 403.96 142 411 172 411 172 404 162 404 162 369" fill="none" stroke="#000" stroke-linecap="round" stroke-linejoin="round"/><rect id="uuid-dfa2fae0-5cf1-4dc3-9c7f-35fe9a54a14a" x="142" y="330" width="20" height="39" fill="none" stroke="#000" stroke-linecap="round" stroke-linejoin="round"/><polygon id="uuid-eb799216-e79f-4c4a-87f6-68e789b138ec" points="134 369 114 369 114 404 104 404 104 411 134 411 134 403.96 134 403.96 134 369" fill="none" stroke="#000" stroke-linecap="round" stroke-linejoin="round"/><rect id="uuid-7d0a0337-8a9b-414c-8a68-dc16cb80cc49" x="114" y="330" width="20" height="39" fill="none" stroke="#000" stroke-linecap="round" stroke-linejoin="round"/><polygon id="uuid-9bcb48c7-b775-4d4a-a514-d9254040ac0a" points="147.85 285.88 147.88 286 147.77 286 140.57 247.52 145.82 239 129.99 239 135.23 247.52 128.04 286 127.93 286 127.96 285.88 127.93 286 128.06 286 137.9 298.81 147.75 286 147.88 286 147.85 285.88" fill="none" stroke="#000" stroke-linecap="round" stroke-linejoin="round"/><path id="uuid-ba88ca33-2b70-463f-9061-2317b27a9716" d="M110,230v100h56v-100h-56ZM137.9,279.93l-19.77-48.93h39.53l-19.77,48.93Z" fill="none" stroke="#000" stroke-linecap="round" stroke-linejoin="round"/><path id="uuid-8a950f52-6a7f-4245-a3a9-ebb2635520a3" d="M164.97,217.89c2.09-5.31,3.32-11.32,3.42-17.7.37-22.03-12.73-40.11-29.25-40.38-16.52-.28-30.21,17.36-30.58,39.39-.11,6.38.92,12.42,2.83,17.8l53.57.89Z" fill="none" stroke="#000" stroke-linecap="round" stroke-linejoin="round"/><path id="uuid-f42d4b16-0827-4246-91a9-60ee408fc564" d="M112.83,223c5.31,11.11,14.63,18.48,25.24,18.48s19.93-7.37,25.24-18.48h-50.48Z" fill="none" stroke="#000" stroke-linecap="round" stroke-linejoin="round"/><ellipse id="uuid-084ac6d1-f7ba-46b5-b8d5-8e6bb00146af" cx="152" cy="203.5" rx="3" ry="4.5" fill="none" stroke="#000" stroke-linecap="round" stroke-linejoin="round"/><ellipse id="uuid-5fc34b5c-8276-4131-8473-8891100128f0" cx="134" cy="203.5" rx="3" ry="4.5" fill="none" stroke="#000" stroke-linecap="round" stroke-linejoin="round"/><path id="uuid-68e1dee9-2e0f-4a2f-a8bb-8cdefacec88d" d="M107.91,169.71c9.45-10.66,29.01-10.57,38.71-10.53,12.13.05,26.38,2.17,26.8,5.82.37,3.23-10.36,5.48-10.24,10.44.09,3.61,5.85,5.69,5.25,6.66-1.26,2.07-26.15-8.96-31.33-3.73-2.33,2.35.92,6.37-1.59,8.04-2.59,1.72-6.76-2.1-16.65-4.17-8.51-1.78-12.65-.46-14.32-2.88-2.22-3.22,2.76-8.95,3.38-9.65Z" fill="none" stroke="#000" stroke-linecap="round" stroke-linejoin="round"/><rect id="uuid-d719914f-c03f-497a-a678-f3fb111a9c6a" x="170.35" y="259.02" width="14.96" height="31.91" transform="translate(-34.8 25.93) rotate(-7.6)" fill="none" stroke="#000" stroke-linecap="round" stroke-linejoin="round"/><rect id="uuid-f39807c7-5755-4d4c-be09-3c5537d7be65" x="166.66" y="228.54" width="14.96" height="31.91" transform="translate(-23.16 18.28) rotate(-5.63)" fill="none" stroke="#000" stroke-linecap="round" stroke-linejoin="round"/><rect id="uuid-f6ca7849-087e-4f84-88be-4cf15c8d181c" x="85.4" y="236.93" width="31.91" height="14.96" transform="translate(-156.43 304.05) rotate(-80.5)" fill="none" stroke="#000" stroke-linecap="round" stroke-linejoin="round"/><rect id="uuid-31d870a3-f656-4822-85f2-00192e11a213" x="82.15" y="264.92" width="31.91" height="14.96" transform="translate(-182.16 345.02) rotate(-84.72)" fill="none" stroke="#000" stroke-linecap="round" stroke-linejoin="round"/><rect id="uuid-35b17a59-94c9-4dd6-90cf-074a193ab28f" x="172.79" y="289.02" width="15.96" height="15.96" transform="translate(-37.69 26.51) rotate(-7.6)" fill="none" stroke="#000" stroke-linecap="round" stroke-linejoin="round"/><rect id="uuid-58beaf52-110b-4816-9c48-e3c71145c6ab" x="88.04" y="287.02" width="15.96" height="15.96" transform="translate(-206.56 363.46) rotate(-84.72)" fill="none" stroke="#000" stroke-linecap="round" stroke-linejoin="round"/></g><text transform="translate(50.81 109.27)" fill="#333" font-family="ComicNeue-Regular, &apos;Comic Neue&apos;" font-size="24"><tspan x="0" y="0">There were donations, but not enough.</tspan></text></svg>