<?xml version="1.0" encoding="UTF-8"?><svg id="uuid-9676911e-052e-45c4-9efc-08262f3e8ad9" xmlns="http://www.w3.org/2000/svg" viewBox="0 0 500 500"><g id="uuid-e404bbe0-25d7-461d-8026-b66cf710466e"><path d="M411.256145,259h-44.534232c-.950986,0-1.721913-.770927-1.721913-1.721913v-26.548258c0-.955359.774471-1.72983,1.72983-1.72983h44.54034c.955359,0,1.729831.774472,1.729831,1.729831v26.557122c-.004001.945131-.783934,1.713048-1.743855,1.713048Z" fill="#2e7d32"/><path d="M411.30814,254h-44.637686c-.922566,0-1.670454-.747888-1.670454-1.670454v-21.599716c0-.955359.774471-1.72983,1.72983-1.72983h44.540339c.955359,0,1.729831.774472,1.729831,1.729831v21.621731c-.004001.910154-.759937,1.648438-1.69186,1.648438Z" fill="#66bb6a"/><path d="M379.274924,244.095703c0-.486887-.170212-.898562-.510637-1.231069s-.918353-.637306-1.729829-.906479c-1.12815-.344382-1.951501-.791684-2.466096-1.345863-.518553-.554179-.77585-1.258778-.77585-2.109839,0-.870853.253339-1.583368.760017-2.137547.506678-.558137,2.44747-.993563,2.44747-.993563v-1.373572s-.195131-.368133.00675.002229h.447302c.201879-.370362-.454052-.002229-.454052-.002229v1.381489s2.405553.494803,2.900355,1.120234c.443343.562095.688766,1.306278.736266,2.236508.007917.182087-.142503.332507-.32459.263998h-.819393c-.17417.068509-.308756-.070035-.32459-.244206-.043543-.605638-.217713-1.096483-.522511-1.472533-.356258-.439385-.835227-.661055-1.436907-.661055-.629389,0-1.112316.162295-1.444823.490845-.332507.32459-.50272.783767-.50272,1.365655,0,.542303.178129.973771.530428,1.294404s.934187.613555,1.741705.87481,1.436907.55022,1.892124.866893c.45126.316673.787726.680849,1.00148,1.10044.213755.419593.320633.910436.320633,1.472531,0,.894604-.269173,1.615036-.807518,2.161297s-1.290444.870851-1.939939.969812v1.147942c-.320319.20188-.688452.633164-.688452.633164h-.443344s-.368133-.431284-.868204-.633164v-1.147942c-.485576-.091045-1.257468-.439385-1.815605-1.052941-.498761-.546261-.775851-1.266693-.82731-2.157338-.011876-.182087.142503-.332506.32459-.008615h.82731c.166254-.323891.308757-.201181.320632-.034925.043543.597722.233547,1.068772.570013,1.413156.387925.395842.934187.597722,1.646702.597722.692724,0,1.238986-.166253,1.638786-.502718.391886-.344384.589807-.799603.589807-1.377532Z" fill="#fff"/><polygon points="378 247.547443 376 247.210978 377 235.406969 377 235.00717 377 235.375303 378 247.203063 378 247.547443" fill="#fff"/><circle cx="397.5" cy="241.5" r="7.5" fill="#2e7d32" isolation="isolate" opacity=".5"/><path d="M405.823379,230.999998c.340787,2.176542,2.036796,3.901653,4.176621,4.248287v11.503427c-2.139825.346635-3.835834,2.071745-4.176621,4.248287h-33.69431c-.43589-2.059654-2.084348-3.647724-4.129069-3.978236v-11.503425c2.230966-.358726,3.974525-2.212818,4.212285-4.518339h33.787715M406.715611,231h-35.443223c.004.086146.008001.172292.008001.262353,0,2.31419-1.916174,4.18982-4.280389,4.18982v12.620361c2.272206,0,4.132375,1.734664,4.272389,3.927466h35.492103c0-2.339207,1.896302-4.235508,4.235508-4.235508v-12.574673c-2.368215,0-4.284389-1.87563-4.284389-4.189819h0Z" fill="#2e7d32"/><rect x="384" y="229" width="9" height="30" fill="#ffecb3"/><rect x="384" y="254" width="9" height="5" fill="#ffc06c"/><path d="M411.256145,259h-44.534232c-.950986,0-1.721913-.770927-1.721913-1.721913v-26.548258c0-.955359.774471-1.72983,1.72983-1.72983h44.54034c.955359,0,1.729831.774472,1.729831,1.729831v26.557122c-.004001.945131-.783934,1.713048-1.743855,1.713048Z" fill="none" stroke="#000" stroke-linecap="round" stroke-linejoin="round"/><path d="M411.30814,254h-44.637686c-.922566,0-1.670454-.747888-1.670454-1.670454v-21.599716c0-.955359.774471-1.72983,1.72983-1.72983h44.540339c.955359,0,1.729831.774472,1.729831,1.729831v21.621731c-.004001.910154-.759937,1.648438-1.69186,1.648438Z" fill="none" stroke="#000" stroke-linecap="round" stroke-linejoin="round"/><path d="M379.274924,244.095703c0-.486887-.170212-.898562-.510637-1.231069s-.918353-.637306-1.729829-.906479c-1.12815-.344382-1.951501-.791684-2.466096-1.345863-.518553-.554179-.77585-1.258778-.77585-2.109839,0-.870853.253339-1.583368.760017-2.137547.506678-.558137,2.44747-.993563,2.44747-.993563v-1.373572s-.195131-.368133.00675.002229h.447302c.201879-.370362-.454052-.002229-.454052-.002229v1.381489s2.405553.494803,2.900355,1.120234c.443343.562095.688766,1.306278.736266,2.236508.007917.182087-.142503.332507-.32459.263998h-.819393c-.17417.068509-.308756-.070035-.32459-.244206-.043543-.605638-.217713-1.096483-.522511-1.472533-.356258-.439385-.835227-.661055-1.436907-.661055-.629389,0-1.112316.162295-1.444823.490845-.332507.32459-.50272.783767-.50272,1.365655,0,.542303.178129.973771.530428,1.294404s.934187.613555,1.741705.87481,1.436907.55022,1.892124.866893c.45126.316673.787726.680849,1.00148,1.10044.213755.419593.320633.910436.320633,1.472531,0,.894604-.269173,1.615036-.807518,2.161297s-1.290444.870851-1.939939.969812v1.147942c-.320319.20188-.688452.633164-.688452.633164h-.443344s-.368133-.431284-.868204-.633164v-1.147942c-.485576-.091045-1.257468-.439385-1.815605-1.052941-.498761-.546261-.775851-1.266693-.82731-2.157338-.011876-.182087.142503-.332506.32459-.008615h.82731c.166254-.323891.308757-.201181.320632-.034925.043543.597722.233547,1.068772.570013,1.413156.387925.395842.934187.597722,1.646702.597722.692724,0,1.238986-.166253,1.638786-.502718.391886-.344384.589807-.799603.589807-1.377532Z" fill="none" stroke="#000" stroke-linecap="round" stroke-linejoin="round"/><polygon points="378 247.547443 376 247.210978 377 235.406969 377 235.00717 377 235.375303 378 247.203063 378 247.547443" fill="none" stroke="#000" stroke-linecap="round" stroke-linejoin="round"/><circle cx="397.5" cy="241.5" r="7.5" fill="none" stroke="#000" stroke-linecap="round" stroke-linejoin="round"/><path d="M405.823379,230.999998c.340787,2.176542,2.036796,3.901653,4.176621,4.248287v11.503427c-2.139825.346635-3.835834,2.071745-4.176621,4.248287h-33.69431c-.43589-2.059654-2.084348-3.647724-4.129069-3.978236v-11.503425c2.230966-.358726,3.974525-2.212818,4.212285-4.518339h33.787715M406.715611,231h-35.443223c.004.086146.008001.172292.008001.262353,0,2.31419-1.916174,4.18982-4.280389,4.18982v12.620361c2.272206,0,4.132375,1.734664,4.272389,3.927466h35.492103c0-2.339207,1.896302-4.235508,4.235508-4.235508v-12.574673c-2.368215,0-4.284389-1.87563-4.284389-4.189819h0Z" fill="none" stroke="#000" stroke-linecap="round" stroke-linejoin="round"/><rect x="384" y="229" width="9" height="30" fill="none" stroke="#000" stroke-linecap="round" stroke-linejoin="round"/><rect x="384" y="254" width="9" height="5" fill="none" stroke="#000" stroke-linecap="round" stroke-linejoin="round"/></g><g id="uuid-75208ea7-6db4-49a1-84bb-ecf0ff4f82ce"><polygon id="uuid-96bc4bf4-883d-48d4-8aed-14a39bea7cc7" points="310 369 290 369 290 403.959792 290 411 320 411 320 404 310 404 310 369" fill="#393939"/><rect id="uuid-78ccb173-e6e9-404f-b1d5-ac90a98e14aa" x="290" y="330" width="20.000015" height="39" fill="#393939"/><polygon id="uuid-83265ee6-c2fb-416f-868a-fa0c3e409384" points="281.999969 369 262 369 262 404 252 404 252 411 282 411 282 403.959792 281.999969 403.959792 281.999969 369" fill="#393939"/><rect id="uuid-ade70b3a-9870-4f76-98aa-f707b94b2747" x="261.999985" y="330" width="20.000031" height="39" fill="#393939"/><polygon id="uuid-0e605646-8f46-4f57-9a0e-ff19f38bf5e2" points="296.038224 285.879475 296.063211 286 295.954428 286 288.762233 247.521649 294.006311 239 278.174732 239 283.418809 247.521649 276.226615 286 276.117832 286 276.142818 285.879475 276.117832 286 276.245716 286 286.090521 298.811467 295.935326 286 296.063211 286 296.038224 285.879475" fill="#565656"/><path id="uuid-514e426b-8cd4-485b-84a2-2094e9ef6e90" d="M258,230v100h56v-100h-56ZM286.090521,279.92768l-19.766986-48.92768h39.533973l-19.766986,48.92768Z" fill="#393939"/><path id="uuid-a9523731-d47a-4607-8f8f-c2593d1afbec" d="M313.153971,217.892938c2.086399-5.314115,3.316045-11.320253,3.422373-17.699722.367143-22.027978-12.728144-40.10844-29.249142-40.383797-16.520998-.275358-30.211543,17.358662-30.578686,39.38664-.106327,6.379468.922481,12.423248,2.830629,17.803941l53.574826.892938Z" fill="#cecece"/><path id="uuid-2ea1b39f-c61f-4d7c-9487-5f5a382b61f4" d="M261.014265,223c5.31123,11.108678,14.626388,18.483075,25.23917,18.483075s19.92794-7.374397,25.23917-18.483075h-50.478341Z" fill="#cecece"/><ellipse id="uuid-065f2b2c-6a06-4d68-b064-0d0470142a68" cx="307" cy="204.5" rx="3" ry="4.5" fill="#333"/><ellipse id="uuid-59b2ea51-da03-448d-b170-a84a25826ed9" cx="291" cy="204.5" rx="3" ry="4.5" fill="#333"/><path id="uuid-4a33617c-8dfa-4146-8963-60c05452bc88" d="M256.095877,169.951307c9.446916-10.657646,29.014806-10.569745,38.706336-10.5262,12.134829.054513,26.383715,2.172708,26.804536,5.81609.372912,3.228597-10.364036,5.480945-10.243712,10.444953.087513,3.610506,5.846827,5.688131,5.25178,6.662875-1.262235,2.067681-26.153103-8.959515-31.332586-3.730074-2.327042,2.34948.915565,6.374164-1.593301,8.039346-2.591965,1.720348-6.76322-2.104041-16.654358-4.174027-8.512608-1.781492-12.651455-.461569-14.319657-2.880298-2.219356-3.217825,2.761296-8.953595,3.380962-9.652665Z" fill="#4a4a4a"/><rect id="uuid-27ecf1ea-d818-4976-9401-9c4f477c1aa4" x="325.349505" y="243.059254" width="31.912601" height="14.959007" transform="translate(-58.267757 110.537723) rotate(-16.971641)" fill="#393939"/><rect id="uuid-a48f045c-798d-454a-9e3c-93df083abc1d" x="314.067535" y="230.100451" width="14.959007" height="31.912601" transform="translate(-76.952551 317.712178) rotate(-47.617821)" fill="#393939"/><rect id="uuid-a3a9306a-bf90-4ba7-aa34-de36ec1b9182" x="233.588422" y="236.17438" width="31.912601" height="14.959007" transform="translate(-53.351781 416.551228) rotate(-74.033981)" fill="#393939"/><rect id="uuid-48a6214a-699e-4d37-a8db-17def2d0ff23" x="228.341737" y="265.163494" width="31.912601" height="14.959007" transform="translate(-49.672324 490.810736) rotate(-84.719165)" fill="#393939"/><rect id="uuid-b39f1a02-1508-484c-8946-b7707479edfc" x="354.582644" y="236.073805" width="15.956303" height="15.956303" transform="translate(-55.448602 116.459515) rotate(-16.971641)" fill="#cecece"/><rect id="uuid-0b791682-9599-4112-9e36-e684a726656d" x="234.23158" y="287.258266" width="15.956303" height="15.956303" transform="translate(-74.06595 509.245271) rotate(-84.719165)" fill="#cecece"/><polygon id="uuid-c60d675b-266f-4bbd-96ed-45eb3f96ec87" points="310 369 290 369 290 403.959792 290 411 320 411 320 404 310 404 310 369" fill="none" stroke="#000" stroke-linecap="round" stroke-linejoin="round"/><rect id="uuid-d6e337f6-7931-45b5-b493-c47ce7aba654" x="290" y="330" width="20.000015" height="39" fill="none" stroke="#000" stroke-linecap="round" stroke-linejoin="round"/><polygon id="uuid-1787326a-4a68-49e4-bc34-6a1e2ba09193" points="281.999969 369 262 369 262 404 252 404 252 411 282 411 282 403.959792 281.999969 403.959792 281.999969 369" fill="none" stroke="#000" stroke-linecap="round" stroke-linejoin="round"/><rect id="uuid-058549fb-46d2-4ac5-b831-c86411a2eb08" x="261.999985" y="330" width="20.000031" height="39" fill="none" stroke="#000" stroke-linecap="round" stroke-linejoin="round"/><polygon id="uuid-359cf023-5701-45e7-bc0b-8127e13f8047" points="296.038224 285.879475 296.063211 286 295.954428 286 288.762233 247.521649 294.006311 239 278.174732 239 283.418809 247.521649 276.226615 286 276.117832 286 276.142818 285.879475 276.117832 286 276.245716 286 286.090521 298.811467 295.935326 286 296.063211 286 296.038224 285.879475" fill="none" stroke="#000" stroke-linecap="round" stroke-linejoin="round"/><path id="uuid-409d1b40-f7a9-4634-867e-178ea5948bff" d="M258,230v100h56v-100h-56ZM286.090521,279.92768l-19.766986-48.92768h39.533973l-19.766986,48.92768Z" fill="none" stroke="#000" stroke-linecap="round" stroke-linejoin="round"/><path id="uuid-b4f4be23-aece-48a7-a5c6-7c3c309be966" d="M313.153971,217.892938c2.086399-5.314115,3.316045-11.320253,3.422373-17.699722.367143-22.027978-12.728144-40.10844-29.249142-40.383797-16.520998-.275358-30.211543,17.358662-30.578686,39.38664-.106327,6.379468.922481,12.423248,2.830629,17.803941l53.574826.892938Z" fill="none" stroke="#000" stroke-linecap="round" stroke-linejoin="round"/><path id="uuid-4dec3ea1-35b2-4770-af95-ffdb63c41206" d="M261.014265,223c5.31123,11.108678,14.626388,18.483075,25.23917,18.483075s19.92794-7.374397,25.23917-18.483075h-50.478341Z" fill="none" stroke="#000" stroke-linecap="round" stroke-linejoin="round"/><ellipse id="uuid-932083b0-ef9c-4c18-b38e-c5b6d8bbf6b1" cx="307" cy="204.5" rx="3" ry="4.5" fill="none" stroke="#000" stroke-linecap="round" stroke-linejoin="round"/><ellipse id="uuid-4a500b62-d932-432d-bd7a-60e237d7641d" cx="291" cy="204.5" rx="3" ry="4.5" fill="none" stroke="#000" stroke-linecap="round" stroke-linejoin="round"/><path id="uuid-206fc830-edd2-481a-b5d4-7b3edcb1a423" d="M256.095877,169.951307c9.446916-10.657646,29.014806-10.569745,38.706336-10.5262,12.134829.054513,26.383715,2.172708,26.804536,5.81609.372912,3.228597-10.364036,5.480945-10.243712,10.444953.087513,3.610506,5.846827,5.688131,5.25178,6.662875-1.262235,2.067681-26.153103-8.959515-31.332586-3.730074-2.327042,2.34948.915565,6.374164-1.593301,8.039346-2.591965,1.720348-6.76322-2.104041-16.654358-4.174027-8.512608-1.781492-12.651455-.461569-14.319657-2.880298-2.219356-3.217825,2.761296-8.953595,3.380962-9.652665Z" fill="none" stroke="#000" stroke-linecap="round" stroke-linejoin="round"/><rect id="uuid-37e685e7-65e8-4650-adbe-6dd09baf0003" x="325.349505" y="243.059254" width="31.912601" height="14.959007" transform="translate(-58.267757 110.537723) rotate(-16.971641)" fill="none" stroke="#000" stroke-linecap="round" stroke-linejoin="round"/><rect id="uuid-d26b7adf-5672-40bb-a577-7c8038306c6e" x="314.067535" y="230.100451" width="14.959007" height="31.912601" transform="translate(-76.952551 317.712178) rotate(-47.617821)" fill="none" stroke="#000" stroke-linecap="round" stroke-linejoin="round"/><rect id="uuid-5926668c-183b-401f-b2e9-023c27a809b8" x="233.588422" y="236.17438" width="31.912601" height="14.959007" transform="translate(-53.351781 416.551228) rotate(-74.033981)" fill="none" stroke="#000" stroke-linecap="round" stroke-linejoin="round"/><rect id="uuid-7b1b1412-6ca2-4d8e-b12f-937222de1ca5" x="228.341737" y="265.163494" width="31.912601" height="14.959007" transform="translate(-49.672324 490.810736) rotate(-84.719165)" fill="none" stroke="#000" stroke-linecap="round" stroke-linejoin="round"/><rect id="uuid-a1cb7a87-28de-4872-918e-04cd6dbd9758" x="354.582644" y="236.073805" width="15.956303" height="15.956303" transform="translate(-55.448602 116.459515) rotate(-16.971641)" fill="none" stroke="#000" stroke-linecap="round" stroke-linejoin="round"/><rect id="uuid-242e0da3-e48e-4856-afac-dc4ae27a5829" x="234.23158" y="287.258266" width="15.956303" height="15.956303" transform="translate(-74.06595 509.245271) rotate(-84.719165)" fill="none" stroke="#000" stroke-linecap="round" stroke-linejoin="round"/></g><g id="uuid-ee9ee535-b953-4875-af9e-94dd109df3b5"><path d="M226.256145,324h-44.534232c-.950986,0-1.721913-.770927-1.721913-1.721913v-26.548257c0-.955359.774471-1.72983,1.72983-1.72983h44.540339c.955359,0,1.729831.774472,1.729831,1.729831v26.557122c-.004001.945131-.783934,1.713048-1.743855,1.713048Z" fill="#2e7d32"/><path d="M226.30814,319h-44.637686c-.922566,0-1.670454-.747888-1.670454-1.670454v-21.599716c0-.955359.774471-1.72983,1.72983-1.72983h44.540339c.955359,0,1.729831.774472,1.729831,1.729831v21.621731c-.004001.910154-.759937,1.648438-1.69186,1.648438Z" fill="#66bb6a"/><path d="M194.087489,309.8526c0-.486887-.170212-.898562-.510637-1.231069s-.918353-.637306-1.729829-.906479c-1.12815-.344382-1.951501-.791684-2.466096-1.345863-.518553-.554179-.77585-1.258778-.77585-2.109839,0-.870853.253339-1.583368.760017-2.137547.506678-.558137,2.634906-.993563,2.634906-.993563v-1.373572s-.382566-.368133-.180686-.754668h.447302c.201879.386535.733384.754668.733384.754668v1.381489s1.218117.494803,1.71292,1.120234c.443343.562095.688766,1.306278.736266,2.236508.007917.182087-.142503.332507-.32459.507101h-.819393c-.17417-.174594-.308756-.313138-.32459-.48731-.043543-.605638-.217713-1.096483-.522511-1.472533-.356258-.439385-.835227-.661055-1.436907-.661055-.629389,0-1.112316.162295-1.444823.490845-.332507.32459-.50272.783767-.50272,1.365655,0,.542303.178129.973771.530428,1.294404s.934187.613555,1.741705.87481,1.436907.55022,1.892124.866893c.45126.316673.787726.680849,1.00148,1.10044.213755.419593.320633.910436.320633,1.472531,0,.894604-.269173,1.615036-.807518,2.161297s-1.290444.870851-1.752503.969812v1.147942c-.507754.20188-.875887.876267-.875887.876267h-.443344s-.368133-.674387-.680769-.876267v-1.147942c-.673011-.091045-1.444903-.439385-2.003041-1.052941-.498761-.546261-.775851-1.266693-.82731-2.157338-.011876-.182087.142503-.332506.32459-.765511h.82731c.166254.433005.308757.555715.320632.721971.043543.597722.233547,1.068772.570013,1.413156.387925.395842.934187.597722,1.646702.597722.692724,0,1.238986-.166253,1.638786-.502718.391886-.344384.589807-.799603.589807-1.377532Z" fill="#fff"/><polygon points="193 313.30434 191 312.967875 192 301.163866 192 300.764066 193 301.132199 193 312.959959 193 313.30434" fill="#fff"/><circle cx="211.5" cy="306.5" r="7.5" fill="#2e7d32" isolation="isolate" opacity=".5"/><path d="M220.823379,296.999998c.340787,2.176542,2.036796,3.901653,4.176621,4.248287v11.503427c-2.139825.346635-3.835834,2.071745-4.176621,4.248287h-33.69431c-.43589-2.059654-2.084348-3.647724-4.129069-3.978236v-11.503425c2.230966-.358726,3.974525-2.212818,4.212285-4.518339h33.787715M221.715611,296h-35.443223c.004.086146.008001.172292.008001.262353,0,2.31419-1.916174,4.18982-4.280389,4.18982v12.620361c2.272206,0,4.132375,1.734664,4.272389,3.927466h35.492103c0-2.339207,1.896302-4.235508,4.235508-4.235508v-12.574673c-2.368215,0-4.284389-1.87563-4.284389-4.189819h0Z" fill="#2e7d32"/><rect x="199" y="294" width="9" height="30" fill="#ffecb3"/><rect x="199" y="319" width="9" height="5" fill="#ffc06c"/><path d="M226.256145,324h-44.534232c-.950986,0-1.721913-.770927-1.721913-1.721913v-26.548257c0-.955359.774471-1.72983,1.72983-1.72983h44.540339c.955359,0,1.729831.774472,1.729831,1.729831v26.557122c-.004001.945131-.783934,1.713048-1.743855,1.713048Z" fill="none" stroke="#000" stroke-linecap="round" stroke-linejoin="round"/><path d="M226.30814,319h-44.637686c-.922566,0-1.670454-.747888-1.670454-1.670454v-21.599716c0-.955359.774471-1.72983,1.72983-1.72983h44.540339c.955359,0,1.729831.774472,1.729831,1.729831v21.621731c-.004001.910154-.759937,1.648438-1.69186,1.648438Z" fill="none" stroke="#000" stroke-linecap="round" stroke-linejoin="round"/><path d="M194.087489,309.8526c0-.486887-.170212-.898562-.510637-1.231069s-.918353-.637306-1.729829-.906479c-1.12815-.344382-1.951501-.791684-2.466096-1.345863-.518553-.554179-.77585-1.258778-.77585-2.109839,0-.870853.253339-1.583368.760017-2.137547.506678-.558137,2.634906-.993563,2.634906-.993563v-1.373572s-.382566-.368133-.180686-.754668h.447302c.201879.386535.733384.754668.733384.754668v1.381489s1.218117.494803,1.71292,1.120234c.443343.562095.688766,1.306278.736266,2.236508.007917.182087-.142503.332507-.32459.507101h-.819393c-.17417-.174594-.308756-.313138-.32459-.48731-.043543-.605638-.217713-1.096483-.522511-1.472533-.356258-.439385-.835227-.661055-1.436907-.661055-.629389,0-1.112316.162295-1.444823.490845-.332507.32459-.50272.783767-.50272,1.365655,0,.542303.178129.973771.530428,1.294404s.934187.613555,1.741705.87481,1.436907.55022,1.892124.866893c.45126.316673.787726.680849,1.00148,1.10044.213755.419593.320633.910436.320633,1.472531,0,.894604-.269173,1.615036-.807518,2.161297s-1.290444.870851-1.752503.969812v1.147942c-.507754.20188-.875887.876267-.875887.876267h-.443344s-.368133-.674387-.680769-.876267v-1.147942c-.673011-.091045-1.444903-.439385-2.003041-1.052941-.498761-.546261-.775851-1.266693-.82731-2.157338-.011876-.182087.142503-.332506.32459-.765511h.82731c.166254.433005.308757.555715.320632.721971.043543.597722.233547,1.068772.570013,1.413156.387925.395842.934187.597722,1.646702.597722.692724,0,1.238986-.166253,1.638786-.502718.391886-.344384.589807-.799603.589807-1.377532Z" fill="none" stroke="#000" stroke-linecap="round" stroke-linejoin="round"/><polygon points="193 313.30434 191 312.967875 192 301.163866 192 300.764066 193 301.132199 193 312.959959 193 313.30434" fill="none" stroke="#000" stroke-linecap="round" stroke-linejoin="round"/><circle cx="211.5" cy="306.5" r="7.5" fill="none" stroke="#000" stroke-linecap="round" stroke-linejoin="round"/><path d="M220.823379,296.999998c.340787,2.176542,2.036796,3.901653,4.176621,4.248287v11.503427c-2.139825.346635-3.835834,2.071745-4.176621,4.248287h-33.69431c-.43589-2.059654-2.084348-3.647724-4.129069-3.978236v-11.503425c2.230966-.358726,3.974525-2.212818,4.212285-4.518339h33.787715M221.715611,296h-35.443223c.004.086146.008001.172292.008001.262353,0,2.31419-1.916174,4.18982-4.280389,4.18982v12.620361c2.272206,0,4.132375,1.734664,4.272389,3.927466h35.492103c0-2.339207,1.896302-4.235508,4.235508-4.235508v-12.574673c-2.368215,0-4.284389-1.87563-4.284389-4.189819h0Z" fill="none" stroke="#000" stroke-linecap="round" stroke-linejoin="round"/><rect x="199" y="294" width="9" height="30" fill="none" stroke="#000" stroke-linecap="round" stroke-linejoin="round"/><rect x="199" y="319" width="9" height="5" fill="none" stroke="#000" stroke-linecap="round" stroke-linejoin="round"/></g><g id="uuid-ea539d8a-2cc4-4022-afad-3cbf3ae41cc1"><polygon id="uuid-83586778-ef19-43fd-8f00-848d70138294" points="162 369 142 369 142 403.959792 142 411 172 411 172 404 162 404 162 369" fill="#393939"/><rect id="uuid-7529aee5-5751-4fa0-8db9-4c1a15c2eaeb" x="142" y="330" width="20.000015" height="39" fill="#393939"/><polygon id="uuid-c9e2a80d-443a-4e9a-abe5-1ef70cc90175" points="133.999969 369 114 369 114 404 104 404 104 411 134 411 134 403.959792 133.999969 403.959792 133.999969 369" fill="#393939"/><rect id="uuid-07778722-6f1c-449e-9d13-ee7eb9e51fdc" x="113.999985" y="330" width="20.000031" height="39" fill="#393939"/><polygon id="uuid-a326684d-dae0-4bac-a628-5eba9e5b1127" points="147.850789 285.879475 147.875775 286 147.766992 286 140.574797 247.521649 145.818875 239 129.987296 239 135.231374 247.521649 128.039179 286 127.930396 286 127.955383 285.879475 127.930396 286 128.058281 286 137.903086 298.811467 147.747891 286 147.875775 286 147.850789 285.879475" fill="#565656"/><path id="uuid-46a41a80-1e47-48f7-97cc-12e4cf4a95bf" d="M110,230v100h56v-100h-56ZM137.903086,279.92768l-19.766986-48.92768h39.533973l-19.766986,48.92768Z" fill="#393939"/><path id="uuid-240d2b28-355c-465a-80f5-17d27f10c658" d="M164.966536,217.892938c2.086399-5.314115,3.316045-11.320253,3.422373-17.699722.367143-22.027978-12.728144-40.10844-29.249142-40.383797-16.520998-.275358-30.211543,17.358662-30.578686,39.38664-.106327,6.379468.922481,12.423248,2.830629,17.803941l53.574826.892938Z" fill="#cecece"/><path id="uuid-6f0ecc02-87ce-4458-a8b4-9a212ab803c7" d="M112.826829,223c5.31123,11.108678,14.626388,18.483075,25.23917,18.483075s19.92794-7.374397,25.23917-18.483075h-50.478341Z" fill="#cecece"/><ellipse id="uuid-d8daae27-98e1-4a5c-9efa-37ebf7d246bf" cx="152" cy="203.5" rx="3" ry="4.5" fill="#333"/><ellipse id="uuid-cd6d3c75-4206-471b-817b-71b0c77f9994" cx="134" cy="203.5" rx="3" ry="4.5" fill="#333"/><path id="uuid-4740cd6c-c061-4420-a875-be3e58ae0fa3" d="M107.908441,169.708203c9.446916-10.657646,29.014806-10.569745,38.706336-10.5262,12.134829.054513,26.383715,2.172708,26.804536,5.81609.372912,3.228597-10.364036,5.480945-10.243712,10.444953.087513,3.610506,5.846827,5.688131,5.25178,6.662875-1.262235,2.067681-26.153103-8.959515-31.332586-3.730074-2.327042,2.34948.915565,6.374164-1.593301,8.039346-2.591965,1.720348-6.76322-2.104041-16.654358-4.174027-8.512608-1.781492-12.651455-.461569-14.319657-2.880298-2.219356-3.217825,2.761296-8.953595,3.380962-9.652665Z" fill="#4a4a4a"/><rect id="uuid-181f6619-2f8c-46c7-94ae-c721b7aed85f" x="170.346204" y="259.016517" width="14.959007" height="31.912601" transform="translate(-34.802134 25.931789) rotate(-7.599384)" fill="#393939"/><rect id="uuid-c6b240e1-78da-44fc-9d6a-5f2e8685d089" x="166.657199" y="228.543596" width="14.959007" height="31.912601" transform="translate(-23.164959 18.279108) rotate(-5.634698)" fill="#393939"/><rect id="uuid-5b0a2d5f-28da-4344-a35c-d1dabfa2e4f2" x="85.400986" y="236.931277" width="31.912601" height="14.959007" transform="translate(-156.427131 304.052401) rotate(-80.503068)" fill="#393939"/><rect id="uuid-bd3d9555-691a-4cf8-bdb0-ebfa9dcec3c3" x="82.154301" y="264.920391" width="31.912601" height="14.959007" transform="translate(-182.162958 345.023058) rotate(-84.719165)" fill="#393939"/><rect id="uuid-03a7485e-4d08-4294-b1d6-17ef4eadeb91" x="172.786427" y="289.02229" width="15.956303" height="15.956303" transform="translate(-37.689381 26.513912) rotate(-7.599384)" fill="#cecece"/><rect id="uuid-cd0256e9-1e10-4d18-8905-d4ec9c914778" x="88.044144" y="287.015162" width="15.956303" height="15.956303" transform="translate(-206.556585 363.457593) rotate(-84.719165)" fill="#cecece"/><polygon id="uuid-6be5c432-91d4-46c2-ae55-65295ea2c29d" points="162 369 142 369 142 403.959792 142 411 172 411 172 404 162 404 162 369" fill="none" stroke="#000" stroke-linecap="round" stroke-linejoin="round"/><rect id="uuid-e2c7d3b2-3047-42d5-a8a4-c2149b8b9c30" x="142" y="330" width="20.000015" height="39" fill="none" stroke="#000" stroke-linecap="round" stroke-linejoin="round"/><polygon id="uuid-94ca6caf-d17e-4c01-92c0-34449d2e8dd6" points="133.999969 369 114 369 114 404 104 404 104 411 134 411 134 403.959792 133.999969 403.959792 133.999969 369" fill="none" stroke="#000" stroke-linecap="round" stroke-linejoin="round"/><rect id="uuid-0cc1d271-59ab-4a52-9d19-cb606ba50f45" x="113.999985" y="330" width="20.000031" height="39" fill="none" stroke="#000" stroke-linecap="round" stroke-linejoin="round"/><polygon id="uuid-4538bc24-bfed-4fcb-a51c-8f3ac9d6aceb" points="147.850789 285.879475 147.875775 286 147.766992 286 140.574797 247.521649 145.818875 239 129.987296 239 135.231374 247.521649 128.039179 286 127.930396 286 127.955383 285.879475 127.930396 286 128.058281 286 137.903086 298.811467 147.747891 286 147.875775 286 147.850789 285.879475" fill="none" stroke="#000" stroke-linecap="round" stroke-linejoin="round"/><path id="uuid-05af8a6e-06da-4076-85f0-f6054d157e7a" d="M110,230v100h56v-100h-56ZM137.903086,279.92768l-19.766986-48.92768h39.533973l-19.766986,48.92768Z" fill="none" stroke="#000" stroke-linecap="round" stroke-linejoin="round"/><path id="uuid-21342912-a60e-445a-a759-288a13988b04" d="M164.966536,217.892938c2.086399-5.314115,3.316045-11.320253,3.422373-17.699722.367143-22.027978-12.728144-40.10844-29.249142-40.383797-16.520998-.275358-30.211543,17.358662-30.578686,39.38664-.106327,6.379468.922481,12.423248,2.830629,17.803941l53.574826.892938Z" fill="none" stroke="#000" stroke-linecap="round" stroke-linejoin="round"/><path id="uuid-f8914df6-2bc4-4ba8-800d-1f960d82b7ce" d="M112.826829,223c5.31123,11.108678,14.626388,18.483075,25.23917,18.483075s19.92794-7.374397,25.23917-18.483075h-50.478341Z" fill="none" stroke="#000" stroke-linecap="round" stroke-linejoin="round"/><ellipse id="uuid-cb0dfb17-ae41-47aa-bb7a-8973a92071a9" cx="152" cy="203.5" rx="3" ry="4.5" fill="none" stroke="#000" stroke-linecap="round" stroke-linejoin="round"/><ellipse id="uuid-a7f2f939-f8e5-4aeb-a032-35a9b7d06c93" cx="134" cy="203.5" rx="3" ry="4.5" fill="none" stroke="#000" stroke-linecap="round" stroke-linejoin="round"/><path id="uuid-23ea3bc2-c4fa-4437-8abd-3cd1a6bd858d" d="M107.908441,169.708203c9.446916-10.657646,29.014806-10.569745,38.706336-10.5262,12.134829.054513,26.383715,2.172708,26.804536,5.81609.372912,3.228597-10.364036,5.480945-10.243712,10.444953.087513,3.610506,5.846827,5.688131,5.25178,6.662875-1.262235,2.067681-26.153103-8.959515-31.332586-3.730074-2.327042,2.34948.915565,6.374164-1.593301,8.039346-2.591965,1.720348-6.76322-2.104041-16.654358-4.174027-8.512608-1.781492-12.651455-.461569-14.319657-2.880298-2.219356-3.217825,2.761296-8.953595,3.380962-9.652665Z" fill="none" stroke="#000" stroke-linecap="round" stroke-linejoin="round"/><rect id="uuid-fc725419-9eb4-40ba-8ce4-56400b1aa6fd" x="170.346204" y="259.016517" width="14.959007" height="31.912601" transform="translate(-34.802134 25.931789) rotate(-7.599384)" fill="none" stroke="#000" stroke-linecap="round" stroke-linejoin="round"/><rect id="uuid-b5d17b29-41f4-499b-9af9-5ae6cad79f5a" x="166.657199" y="228.543596" width="14.959007" height="31.912601" transform="translate(-23.164959 18.279108) rotate(-5.634698)" fill="none" stroke="#000" stroke-linecap="round" stroke-linejoin="round"/><rect id="uuid-1a94a33c-ca4b-4b09-ac68-363bc72c3ee1" x="85.400986" y="236.931277" width="31.912601" height="14.959007" transform="translate(-156.427131 304.052401) rotate(-80.503068)" fill="none" stroke="#000" stroke-linecap="round" stroke-linejoin="round"/><rect id="uuid-f94bd8bc-eed3-4ec4-adcc-2f762fac52d3" x="82.154301" y="264.920391" width="31.912601" height="14.959007" transform="translate(-182.162958 345.023058) rotate(-84.719165)" fill="none" stroke="#000" stroke-linecap="round" stroke-linejoin="round"/><rect id="uuid-ea3f704b-c2e0-45bc-9013-1d0a7493a88a" x="172.786427" y="289.02229" width="15.956303" height="15.956303" transform="translate(-37.689381 26.513912) rotate(-7.599384)" fill="none" stroke="#000" stroke-linecap="round" stroke-linejoin="round"/><rect id="uuid-f7d31ad6-e240-4519-90d8-841ae20381e3" x="88.044144" y="287.015162" width="15.956303" height="15.956303" transform="translate(-206.556585 363.457593) rotate(-84.719165)" fill="none" stroke="#000" stroke-linecap="round" stroke-linejoin="round"/></g><text transform="translate(50.808533 109.269958)" fill="#333" font-family="ComicNeue-Regular, &apos;Comic Neue&apos;" font-size="24"><tspan x="0" y="0">There were donations, but not enough.</tspan></text></svg>