<?xml version="1.0" encoding="UTF-8"?><svg id="uuid-b9b76b66-3f56-4b42-91ca-e8e695a4d328" xmlns="http://www.w3.org/2000/svg" viewBox="0 0 500 500"><path d="M121,155c-.2-.44-1-2.56-1.53-13.18-.23-4.72-.34-9.49-.38-12.7" fill="none" stroke="#333" stroke-miterlimit="10" stroke-width="2"/><text transform="translate(64.9 110.39)" fill="#333" font-family="ComicNeue-Bold, &apos;Comic Neue&apos;" font-size="24" font-weight="700"><tspan x="0" y="0">Absolutely not.</tspan></text><g id="uuid-3f78fa02-e858-4f19-83ba-406e3b6391c2"><polygon id="uuid-14d3a2af-18ef-4256-8375-6a9904e0f747" points="130.95 391 146.46 378.37 168.53 405.47 172.98 410.93 149.72 429.88 145.3 424.45 153.05 418.13 130.95 391" fill="#393939"/><rect id="uuid-3086f8f7-5215-4c4c-b0e3-927d4d4bdd95" x="131" y="353" width="20" height="39" fill="#393939"/><polygon id="uuid-438593e8-ca01-43b8-8fea-af044d5ec70f" points="104 368 84 368 84 403 74 403 74 410 104 410 104 402.96 104 402.96 104 368" fill="#393939"/><rect id="uuid-e0743780-4173-459d-9094-aea0a08436fc" x="84.66" y="349.88" width="39" height="20" transform="translate(-231.88 194.23) rotate(-47.62)" fill="#393939"/><polygon id="uuid-bf715b76-2395-42c2-b405-0d27bf9fa3d1" points="138.97 308.88 139 309 138.89 309 131.69 270.52 136.94 262 121.11 262 126.35 270.52 119.16 309 119.05 309 119.08 308.88 119.05 309 119.18 309 129.02 321.81 138.87 309 139 309 138.97 308.88" fill="#565656"/><path id="uuid-e0e262f2-5def-481c-b020-50b198331007" d="M101,253v100h56v-100h-56ZM129.02,302.93l-19.77-48.93h39.53l-19.77,48.93Z" fill="#393939"/><path id="uuid-d1d3c13a-f37f-40b0-b7c5-3acb1b4ea5be" d="M155.13,229.19c.77-5.66.55-11.78-.85-18.01-4.84-21.49-21.84-35.97-37.95-32.34-16.12,3.63-25.26,24-20.42,45.49,1.4,6.22,3.83,11.85,6.95,16.63l52.27-11.78Z" fill="#cecece"/><path id="uuid-f1aad3e4-3d45-4fb0-a714-ceb64ea7c772" d="M103.95,246c5.31,11.11,14.63,18.48,25.24,18.48s19.93-7.37,25.24-18.48h-50.48Z" fill="#cecece"/><ellipse id="uuid-ed980179-fc89-4750-aa79-feb9ffd206d1" cx="141" cy="220.5" rx="2.83" ry="4.61" transform="translate(-55.25 47.33) rotate(-15.98)" fill="#333"/><ellipse id="uuid-5bc05695-3803-4aa8-80bf-5b2be500a125" cx="125" cy="222.5" rx="2.83" ry="4.61" transform="translate(-56.42 43.01) rotate(-15.98)" fill="#333"/><path id="uuid-2eca1f91-8b01-4b78-b885-f20847433cbb" d="M88.41,196.27c6.66-12.59,25.7-17.12,35.13-19.36,11.8-2.81,26.15-4.12,27.42-.68,1.12,3.05-8.78,7.77-7.49,12.57.94,3.49,7.02,4.15,6.68,5.23-.74,2.31-27.53-2.53-31.33,3.77-1.71,2.83,2.39,5.98.35,8.19-2.11,2.28-7.07-.45-17.17-.13-8.69.28-12.4,2.54-14.59.58-2.92-2.6.57-9.35,1.01-10.18Z" fill="#4a4a4a"/><rect id="uuid-5800b6d0-a418-4212-a4dc-3db05c39bb5b" x="172.1" y="225.83" width="31.91" height="14.96" transform="translate(-111.6 230.91) rotate(-50.67)" fill="#393939"/><rect id="uuid-0e6d8e2b-806b-4c89-8357-d5e0862b4f65" x="150.12" y="246.74" width="31.91" height="14.96" transform="translate(-118.23 147.56) rotate(-36.28)" fill="#393939"/><rect id="uuid-bbe60736-eef8-4017-aa2b-e22ed8255619" x="75.68" y="259.47" width="31.91" height="14.96" transform="translate(-190.54 272.92) rotate(-72.27)" fill="#393939"/><rect id="uuid-b2ae6108-36f8-4508-97d3-a95cd2f8fa9f" x="69.58" y="288.17" width="31.91" height="14.96" transform="translate(-215.15 361.32) rotate(-86.19)" fill="#393939"/><rect id="uuid-5558c194-fc85-4e05-8611-0bda82c4f897" x="194.16" y="208.14" width="15.96" height="15.96" transform="translate(-93.15 235.51) rotate(-50.67)" fill="#cecece"/><rect id="uuid-4e7660d5-3987-4668-88a9-4b7a89588d3a" x="76.04" y="310.31" width="15.96" height="15.96" transform="translate(-239.15 380.95) rotate(-86.19)" fill="#cecece"/><polygon id="uuid-b6b85fd8-e7b2-4d34-8123-d670ab31a38f" points="130.95 391 146.46 378.37 168.53 405.47 172.98 410.93 149.72 429.88 145.3 424.45 153.05 418.13 130.95 391" fill="none" stroke="#000" stroke-linecap="round" stroke-linejoin="round"/><rect id="uuid-e0a7c31b-aba5-4015-97c8-a57f0d02055c" x="131" y="353" width="20" height="39" fill="none" stroke="#000" stroke-linecap="round" stroke-linejoin="round"/><polygon id="uuid-b4ed15e1-1281-4319-9c32-9be7a39aa0e4" points="104 368 84 368 84 403 74 403 74 410 104 410 104 402.96 104 402.96 104 368" fill="none" stroke="#000" stroke-linecap="round" stroke-linejoin="round"/><rect id="uuid-a377b5d9-3fc6-4bef-bcae-cf8538a8d385" x="84.66" y="349.88" width="39" height="20" transform="translate(-231.88 194.23) rotate(-47.62)" fill="none" stroke="#000" stroke-linecap="round" stroke-linejoin="round"/><polygon id="uuid-81fdd33b-7f8c-43b8-b552-131634e85aa0" points="138.97 308.88 139 309 138.89 309 131.69 270.52 136.94 262 121.11 262 126.35 270.52 119.16 309 119.05 309 119.08 308.88 119.05 309 119.18 309 129.02 321.81 138.87 309 139 309 138.97 308.88" fill="none" stroke="#000" stroke-linecap="round" stroke-linejoin="round"/><path id="uuid-9f39aa64-6147-422d-9b13-3f8845cadeae" d="M101,253v100h56v-100h-56ZM129.02,302.93l-19.77-48.93h39.53l-19.77,48.93Z" fill="none" stroke="#000" stroke-linecap="round" stroke-linejoin="round"/><path id="uuid-23c589fb-93cd-4b49-8aa5-a79741e409bc" d="M155.13,229.19c.77-5.66.55-11.78-.85-18.01-4.84-21.49-21.84-35.97-37.95-32.34-16.12,3.63-25.26,24-20.42,45.49,1.4,6.22,3.83,11.85,6.95,16.63l52.27-11.78Z" fill="none" stroke="#000" stroke-linecap="round" stroke-linejoin="round"/><path id="uuid-5f882483-f565-4d36-accf-97b1bf07599e" d="M103.95,246c5.31,11.11,14.63,18.48,25.24,18.48s19.93-7.37,25.24-18.48h-50.48Z" fill="none" stroke="#000" stroke-linecap="round" stroke-linejoin="round"/><ellipse id="uuid-ee8c41d9-e296-40ef-b415-f42a46b966b8" cx="141" cy="220.5" rx="2.83" ry="4.61" transform="translate(-55.25 47.33) rotate(-15.98)" fill="none" stroke="#000" stroke-linecap="round" stroke-linejoin="round"/><ellipse id="uuid-522ea873-4bc1-442c-b0fb-0e12f4fe4ee4" cx="125" cy="222.5" rx="2.83" ry="4.61" transform="translate(-56.42 43.01) rotate(-15.98)" fill="none" stroke="#000" stroke-linecap="round" stroke-linejoin="round"/><path id="uuid-73311cda-be99-4ec1-8e4a-ba5da013eba8" d="M88.41,196.27c6.66-12.59,25.7-17.12,35.13-19.36,11.8-2.81,26.15-4.12,27.42-.68,1.12,3.05-8.78,7.77-7.49,12.57.94,3.49,7.02,4.15,6.68,5.23-.74,2.31-27.53-2.53-31.33,3.77-1.71,2.83,2.39,5.98.35,8.19-2.11,2.28-7.07-.45-17.17-.13-8.69.28-12.4,2.54-14.59.58-2.92-2.6.57-9.35,1.01-10.18Z" fill="none" stroke="#000" stroke-linecap="round" stroke-linejoin="round"/><rect id="uuid-50b9e98d-5b53-4359-88aa-229218230842" x="172.1" y="225.83" width="31.91" height="14.96" transform="translate(-111.6 230.91) rotate(-50.67)" fill="none" stroke="#000" stroke-linecap="round" stroke-linejoin="round"/><rect id="uuid-8f4fb7fe-b592-4ecc-b9a3-bf46cd0e88fd" x="150.12" y="246.74" width="31.91" height="14.96" transform="translate(-118.23 147.56) rotate(-36.28)" fill="none" stroke="#000" stroke-linecap="round" stroke-linejoin="round"/><rect id="uuid-7f76bebb-3ebd-4bbc-8543-9165f0cd08de" x="75.68" y="259.47" width="31.91" height="14.96" transform="translate(-190.54 272.92) rotate(-72.27)" fill="none" stroke="#000" stroke-linecap="round" stroke-linejoin="round"/><rect id="uuid-88193fd3-957d-445c-b375-308136747cca" x="69.58" y="288.17" width="31.91" height="14.96" transform="translate(-215.15 361.32) rotate(-86.19)" fill="none" stroke="#000" stroke-linecap="round" stroke-linejoin="round"/><rect id="uuid-dbeba29f-2439-4b2f-833c-57e7e74554e6" x="194.16" y="208.14" width="15.96" height="15.96" transform="translate(-93.15 235.51) rotate(-50.67)" fill="none" stroke="#000" stroke-linecap="round" stroke-linejoin="round"/><rect id="uuid-a21c9185-4766-4b82-872a-980b6b1e4641" x="76.04" y="310.31" width="15.96" height="15.96" transform="translate(-239.15 380.95) rotate(-86.19)" fill="none" stroke="#000" stroke-linecap="round" stroke-linejoin="round"/></g><rect x="289" y="70" width="133" height="175" fill="#c6b96e"/><rect x="289" y="70" width="133" height="175" fill="none" stroke="#000" stroke-linecap="round" stroke-linejoin="round"/><text transform="translate(303.18 120.09)" fill="#333" font-family="ComicNeue-Bold, &apos;Comic Neue&apos;" font-size="44.09" font-weight="700"><tspan x="0" y="0">Enlist</tspan></text><polygon points="377.81 208.6 378.91 212 382.5 212 379.6 214.1 380.7 217.51 377.81 215.4 374.91 217.51 376.02 214.1 373.13 212 376.7 212 377.81 208.6" fill="#333"/><polygon points="392.59 189.6 393.69 193 397.27 193 394.37 195.1 395.48 198.51 392.59 196.4 389.69 198.51 390.79 195.1 387.9 193 391.48 193 392.59 189.6" fill="#333"/><polygon points="392.18 165.6 393.28 169 396.86 169 393.96 171.1 395.07 174.51 392.18 172.4 389.28 174.51 390.39 171.1 387.49 169 391.07 169 392.18 165.6" fill="#333"/><polygon points="378.34 146.6 379.45 150 383.03 150 380.13 152.1 381.24 155.51 378.34 153.4 375.45 155.51 376.56 152.1 373.66 150 377.24 150 378.34 146.6" fill="#333"/><polygon points="355.86 215.6 356.97 219 360.54 219 357.65 221.1 358.76 224.51 355.86 222.4 352.97 224.51 354.07 221.1 351.17 219 354.76 219 355.86 215.6" fill="#333"/><polygon points="355.86 138.6 356.97 142 360.54 142 357.65 144.1 358.76 147.51 355.86 145.4 352.97 147.51 354.07 144.1 351.17 142 354.76 142 355.86 138.6" fill="#333"/><polygon points="333.82 208.6 332.72 212 329.13 212 332.04 214.1 330.93 217.51 333.82 215.4 336.72 217.51 335.61 214.1 338.5 212 334.93 212 333.82 208.6" fill="#333"/><polygon points="319.04 189.6 317.95 193 314.36 193 317.26 195.1 316.15 198.51 319.04 196.4 321.95 198.51 320.84 195.1 323.73 193 320.15 193 319.04 189.6" fill="#333"/><polygon points="319.45 165.6 318.35 169 314.77 169 317.67 171.1 316.56 174.51 319.45 172.4 322.35 174.51 321.24 171.1 324.14 169 320.56 169 319.45 165.6" fill="#333"/><polygon points="333.29 146.6 332.18 150 328.61 150 331.5 152.1 330.39 155.51 333.29 153.4 336.18 155.51 335.07 152.1 337.98 150 334.39 150 333.29 146.6" fill="#333"/><path d="M382.97,168.35c0-.3-.16-.59-.39-.73l-27.06-15.33-27.09,15.31c-.26.16-.43.44-.43.74l-.04,3.78c0,.48.39.87.87.87h53.31c.48,0,.87-.39.87-.87l-.03-3.78ZM335.17,168l20.65-11.72,20.65,11.72h-41.29Z" fill="#333"/><polygon points="368.87 166 355.82 158.59 342.76 166 368.87 166" fill="#333"/><path d="M380.35,200h-49.07c-.48,0-.94.21-1.27.57l-3.35,3.74c-.24.27-.05.69.31.69h57.71c.34,0,.53-.41.3-.67l-3.38-3.76c-.32-.36-.78-.57-1.26-.57Z" fill="#333"/><path d="M378.08,195h-3.16c-.51,0-.93-.41-.93-.93v-14.15c0-.51.41-.93.93-.93h3.15c.51,0,.93.41.93.93v14.16c0,.51-.41.92-.92.92Z" fill="#333"/><path d="M378.95,178h-4.98c-.39,0-.73-.26-.84-.63l-.36-1.26c-.16-.55.26-1.11.83-1.11h5.71c.58,0,1,.56.84,1.12l-.36,1.25c-.11.37-.45.63-.84.63Z" fill="#333"/><path d="M373.94,196h5c.39,0,.73.26.84.63l.36,1.26c.16.55-.26,1.11-.83,1.11h-5.71c-.58,0-1-.56-.84-1.12l.37-1.28c.11-.37.44-.61.81-.61Z" fill="#333"/><path d="M338.06,195h-3.14c-.51,0-.93-.41-.93-.93v-14.15c0-.51.41-.93.93-.93h3.15c.51,0,.93.41.93.93v14.14c0,.52-.43.94-.94.94Z" fill="#333"/><path d="M338.68,178h-4.98c-.39,0-.73-.26-.84-.63l-.36-1.26c-.16-.55.26-1.11.83-1.11h5.71c.58,0,1,.56.84,1.12l-.36,1.25c-.11.37-.45.63-.84.63Z" fill="#333"/><path d="M333.7,196h4.98c.39,0,.73.26.84.63l.36,1.25c.16.56-.26,1.12-.84,1.12h-5.7c-.58,0-1-.56-.84-1.12l.36-1.25c.11-.37.45-.63.84-.63Z" fill="#333"/><path d="M351.06,195h-3.14c-.51,0-.93-.41-.93-.93v-14.15c0-.51.41-.93.93-.93h3.15c.51,0,.93.41.93.93v14.14c0,.52-.42.94-.94.94Z" fill="#333"/><path d="M352.1,178h-4.98c-.39,0-.73-.26-.84-.63l-.36-1.26c-.16-.55.26-1.11.83-1.11h5.71c.58,0,1,.56.84,1.12l-.36,1.25c-.11.37-.45.63-.84.63Z" fill="#333"/><path d="M347.12,196h4.97c.39,0,.73.26.84.63l.36,1.26c.16.55-.26,1.11-.83,1.11h-5.72c-.58,0-.99-.55-.83-1.11l.36-1.26c.11-.37.45-.63.84-.63Z" fill="#333"/><path d="M365.06,195h-3.14c-.51,0-.93-.41-.93-.93v-14.15c0-.51.41-.93.93-.93h3.15c.51,0,.93.41.93.93v14.14c0,.52-.42.94-.94.94Z" fill="#333"/><path d="M365.52,178h-4.97c-.39,0-.73-.26-.84-.63l-.36-1.26c-.16-.55.26-1.11.83-1.11h5.71c.58,0,1,.56.84,1.12l-.36,1.25c-.11.37-.45.63-.84.63Z" fill="#333"/><path d="M360.52,196h5c.39,0,.73.26.84.63l.36,1.25c.16.56-.26,1.12-.84,1.12h-5.7c-.58,0-1-.56-.84-1.12l.37-1.28c.11-.37.44-.61.81-.61Z" fill="#333"/><polygon points="377.81 208.6 378.91 212 382.5 212 379.6 214.1 380.7 217.51 377.81 215.4 374.91 217.51 376.02 214.1 373.13 212 376.7 212 377.81 208.6" fill="none" stroke="#000" stroke-linecap="round" stroke-linejoin="round"/><polygon points="392.59 189.6 393.69 193 397.27 193 394.37 195.1 395.48 198.51 392.59 196.4 389.69 198.51 390.79 195.1 387.9 193 391.48 193 392.59 189.6" fill="none" stroke="#000" stroke-linecap="round" stroke-linejoin="round"/><polygon points="392.18 165.6 393.28 169 396.86 169 393.96 171.1 395.07 174.51 392.18 172.4 389.28 174.51 390.39 171.1 387.49 169 391.07 169 392.18 165.6" fill="none" stroke="#000" stroke-linecap="round" stroke-linejoin="round"/><polygon points="378.34 146.6 379.45 150 383.03 150 380.13 152.1 381.24 155.51 378.34 153.4 375.45 155.51 376.56 152.1 373.66 150 377.24 150 378.34 146.6" fill="none" stroke="#000" stroke-linecap="round" stroke-linejoin="round"/><polygon points="355.86 215.6 356.97 219 360.54 219 357.65 221.1 358.76 224.51 355.86 222.4 352.97 224.51 354.07 221.1 351.17 219 354.76 219 355.86 215.6" fill="none" stroke="#000" stroke-linecap="round" stroke-linejoin="round"/><polygon points="355.86 138.6 356.97 142 360.54 142 357.65 144.1 358.76 147.51 355.86 145.4 352.97 147.51 354.07 144.1 351.17 142 354.76 142 355.86 138.6" fill="none" stroke="#000" stroke-linecap="round" stroke-linejoin="round"/><polygon points="333.82 208.6 332.72 212 329.13 212 332.04 214.1 330.93 217.51 333.82 215.4 336.72 217.51 335.61 214.1 338.5 212 334.93 212 333.82 208.6" fill="none" stroke="#000" stroke-linecap="round" stroke-linejoin="round"/><polygon points="319.04 189.6 317.95 193 314.36 193 317.26 195.1 316.15 198.51 319.04 196.4 321.95 198.51 320.84 195.1 323.73 193 320.15 193 319.04 189.6" fill="none" stroke="#000" stroke-linecap="round" stroke-linejoin="round"/><polygon points="319.45 165.6 318.35 169 314.77 169 317.67 171.1 316.56 174.51 319.45 172.4 322.35 174.51 321.24 171.1 324.14 169 320.56 169 319.45 165.6" fill="none" stroke="#000" stroke-linecap="round" stroke-linejoin="round"/><polygon points="333.29 146.6 332.18 150 328.61 150 331.5 152.1 330.39 155.51 333.29 153.4 336.18 155.51 335.07 152.1 337.98 150 334.39 150 333.29 146.6" fill="none" stroke="#000" stroke-linecap="round" stroke-linejoin="round"/><path d="M382.97,168.35c0-.3-.16-.59-.39-.73l-27.06-15.33-27.09,15.31c-.26.16-.43.44-.43.74l-.04,3.78c0,.48.39.87.87.87h53.31c.48,0,.87-.39.87-.87l-.03-3.78ZM335.17,168l20.65-11.72,20.65,11.72h-41.29Z" fill="none" stroke="#000" stroke-linecap="round" stroke-linejoin="round"/><polygon points="368.87 166 355.82 158.59 342.76 166 368.87 166" fill="none" stroke="#000" stroke-linecap="round" stroke-linejoin="round"/><path d="M380.35,200h-49.07c-.48,0-.94.21-1.27.57l-3.35,3.74c-.24.27-.05.69.31.69h57.71c.34,0,.53-.41.3-.67l-3.38-3.76c-.32-.36-.78-.57-1.26-.57Z" fill="none" stroke="#000" stroke-linecap="round" stroke-linejoin="round"/><path d="M378.08,195h-3.16c-.51,0-.93-.41-.93-.93v-14.15c0-.51.41-.93.93-.93h3.15c.51,0,.93.41.93.93v14.16c0,.51-.41.92-.92.92Z" fill="none" stroke="#000" stroke-linecap="round" stroke-linejoin="round"/><path d="M378.95,178h-4.98c-.39,0-.73-.26-.84-.63l-.36-1.26c-.16-.55.26-1.11.83-1.11h5.71c.58,0,1,.56.84,1.12l-.36,1.25c-.11.37-.45.63-.84.63Z" fill="none" stroke="#000" stroke-linecap="round" stroke-linejoin="round"/><path d="M373.94,196h5c.39,0,.73.26.84.63l.36,1.26c.16.55-.26,1.11-.83,1.11h-5.71c-.58,0-1-.56-.84-1.12l.37-1.28c.11-.37.44-.61.81-.61Z" fill="none" stroke="#000" stroke-linecap="round" stroke-linejoin="round"/><path d="M338.06,195h-3.14c-.51,0-.93-.41-.93-.93v-14.15c0-.51.41-.93.93-.93h3.15c.51,0,.93.41.93.93v14.14c0,.52-.43.94-.94.94Z" fill="none" stroke="#000" stroke-linecap="round" stroke-linejoin="round"/><path d="M338.68,178h-4.98c-.39,0-.73-.26-.84-.63l-.36-1.26c-.16-.55.26-1.11.83-1.11h5.71c.58,0,1,.56.84,1.12l-.36,1.25c-.11.37-.45.63-.84.63Z" fill="none" stroke="#000" stroke-linecap="round" stroke-linejoin="round"/><path d="M333.7,196h4.98c.39,0,.73.26.84.63l.36,1.25c.16.56-.26,1.12-.84,1.12h-5.7c-.58,0-1-.56-.84-1.12l.36-1.25c.11-.37.45-.63.84-.63Z" fill="none" stroke="#000" stroke-linecap="round" stroke-linejoin="round"/><path d="M351.06,195h-3.14c-.51,0-.93-.41-.93-.93v-14.15c0-.51.41-.93.93-.93h3.15c.51,0,.93.41.93.93v14.14c0,.52-.42.94-.94.94Z" fill="none" stroke="#000" stroke-linecap="round" stroke-linejoin="round"/><path d="M352.1,178h-4.98c-.39,0-.73-.26-.84-.63l-.36-1.26c-.16-.55.26-1.11.83-1.11h5.71c.58,0,1,.56.84,1.12l-.36,1.25c-.11.37-.45.63-.84.63Z" fill="none" stroke="#000" stroke-linecap="round" stroke-linejoin="round"/><path d="M347.12,196h4.97c.39,0,.73.26.84.63l.36,1.26c.16.55-.26,1.11-.83,1.11h-5.72c-.58,0-.99-.55-.83-1.11l.36-1.26c.11-.37.45-.63.84-.63Z" fill="none" stroke="#000" stroke-linecap="round" stroke-linejoin="round"/><path d="M365.06,195h-3.14c-.51,0-.93-.41-.93-.93v-14.15c0-.51.41-.93.93-.93h3.15c.51,0,.93.41.93.93v14.14c0,.52-.42.94-.94.94Z" fill="none" stroke="#000" stroke-linecap="round" stroke-linejoin="round"/><path d="M365.52,178h-4.97c-.39,0-.73-.26-.84-.63l-.36-1.26c-.16-.55.26-1.11.83-1.11h5.71c.58,0,1,.56.84,1.12l-.36,1.25c-.11.37-.45.63-.84.63Z" fill="none" stroke="#000" stroke-linecap="round" stroke-linejoin="round"/><path d="M360.52,196h5c.39,0,.73.26.84.63l.36,1.25c.16.56-.26,1.12-.84,1.12h-5.7c-.58,0-1-.56-.84-1.12l.37-1.28c.11-.37.44-.61.81-.61Z" fill="none" stroke="#000" stroke-linecap="round" stroke-linejoin="round"/><text transform="translate(233.03 312.15)" fill="#333" font-family="ComicNeue-Regular, &apos;Comic Neue&apos;" font-size="24"><tspan x="0" y="0">Very few would </tspan><tspan x="0" y="28.8">enlist after knowing </tspan><tspan x="0" y="57.6">the horror.</tspan></text></svg>