<?xml version="1.0" encoding="UTF-8"?><svg id="uuid-16604f7f-2365-4af6-9d35-bcc64e375490" xmlns="http://www.w3.org/2000/svg" viewBox="0 0 500 500"><path d="M121.000963,155.000056c-.200247-.440095-1.001924-2.555533-1.531086-13.179865-.234929-4.716815-.335203-9.485624-.38138-12.697675" fill="none" stroke="#333" stroke-miterlimit="10" stroke-width="2"/><text transform="translate(64.89563 110.39447)" fill="#333" font-family="ComicNeue-Bold, &apos;Comic Neue&apos;" font-size="24" font-weight="700"><tspan x="0" y="0">Absolutely not.</tspan></text><g id="uuid-09aedf6d-4570-4e82-a281-c05360defacc"><polygon id="uuid-d9ba6329-4624-4ec2-be11-bf1d83240afd" points="130.949511 390.997739 146.456447 378.367025 168.534805 405.472987 172.980948 410.931589 149.720544 429.877661 145.299794 424.450234 153.053262 418.134876 130.949511 390.997739" fill="#393939"/><rect id="uuid-d01937e5-307b-4c45-bbaa-046a679b12f9" x="130.999992" y="352.999996" width="20.000032" height="39.000008" fill="#393939"/><polygon id="uuid-95da7b35-6669-47c2-85d3-ea0eaa7fcded" points="103.999969 368 84 368 84 403 74 403 74 410 104 410 104 402.959792 103.999969 402.959792 103.999969 368" fill="#393939"/><rect id="uuid-accf6676-48b0-4026-bde1-417898798b7d" x="84.659317" y="349.880648" width="39" height="20.000031" transform="translate(-231.882755 194.233506) rotate(-47.617773)" fill="#393939"/><polygon id="uuid-a0e31906-fa17-4c26-a3db-a2e6fe3eca8e" points="138.970436 308.879475 138.995423 309 138.88664 309 131.694445 270.521649 136.938523 262 121.106944 262 126.351021 270.521649 119.158827 309 119.050044 309 119.07503 308.879475 119.050044 309 119.177928 309 129.022733 321.811467 138.867538 309 138.995423 309 138.970436 308.879475" fill="#565656"/><path id="uuid-4786353f-ea60-4db4-975d-3019bcd4771f" d="M101,253v100h56v-100h-56ZM129.022733,302.92768l-19.766986-48.92768h39.533973l-19.766986,48.92768Z" fill="#393939"/><path id="uuid-086310e7-3a2a-4360-b3e9-78a8f867cf8c" d="M155.127362,229.193096c.77312-5.656427.550352-11.783098-.852114-18.007406-4.842642-21.492217-21.835563-35.970832-37.954741-32.338847-16.119178,3.631985-25.260608,23.999211-20.417965,45.491429,1.402466,6.224308,3.828758,11.854479,6.953031,16.632743l52.27179-11.777919Z" fill="#cecece"/><path id="uuid-9ceeec12-dd8b-4ffc-8e0e-7ba4f06ed706" d="M103.946477,246c5.31123,11.108678,14.626388,18.483075,25.23917,18.483075s19.92794-7.374397,25.23917-18.483075h-50.478341Z" fill="#cecece"/><ellipse id="uuid-a5954f87-8a93-4456-b026-7dcf5ae80f40" cx="141" cy="220.5" rx="2.827092" ry="4.609207" transform="translate(-55.250256 47.332199) rotate(-15.978264)" fill="#333"/><ellipse id="uuid-508160ba-f306-4b5d-b020-5a32467f87b7" cx="125" cy="222.5" rx="2.827092" ry="4.609207" transform="translate(-56.418942 43.005104) rotate(-15.978264)" fill="#333"/><path id="uuid-d3aaed05-e9dd-41dd-8fa5-b0afc5654cc4" d="M88.41365,196.272097c6.664389-12.586323,25.70012-17.119647,35.128086-19.364889,11.804816-2.811293,26.151059-4.116209,27.419962-.675103,1.124443,3.049349-8.777487,7.77237-7.488875,12.567714.937252,3.487832,7.024227,4.147342,6.676069,5.234996-.73852,2.307191-27.528899-2.533264-31.327691,3.770963-1.706726,2.832361,2.394232,5.97795.3493,8.188265-2.112661,2.283537-7.06875-.448221-17.168999-.125046-8.692574.278134-12.402924,2.537681-14.594899.581052-2.91617-2.603053.569896-9.352371,1.007047-10.177952Z" fill="#4a4a4a"/><rect id="uuid-f53f0c68-ab6f-4d5c-9690-5fc2575fe88d" x="172.097722" y="225.832692" width="31.912601" height="14.959007" transform="translate(-111.600964 230.907026) rotate(-50.670659)" fill="#393939"/><rect id="uuid-1b918574-41c9-4831-b050-49c60edf8925" x="150.122161" y="246.735365" width="31.912601" height="14.959007" transform="translate(-118.231842 147.561664) rotate(-36.280878)" fill="#393939"/><rect id="uuid-3daf658f-4013-4483-b89a-0c675553c962" x="75.676788" y="259.465951" width="31.912601" height="14.959007" transform="translate(-190.538509 272.919414) rotate(-72.267286)" fill="#393939"/><rect id="uuid-08ddeef4-5ba6-4d79-b51e-30ae6c706e4f" x="69.576102" y="288.166732" width="31.912601" height="14.959007" transform="translate(-215.149044 361.320864) rotate(-86.185499)" fill="#393939"/><rect id="uuid-b4e5dd7e-0cb6-4c57-9d9e-d8e5423ddde1" x="194.160176" y="208.144352" width="15.956303" height="15.956303" transform="translate(-93.146471 235.506199) rotate(-50.670659)" fill="#cecece"/><rect id="uuid-9aa03be5-f291-4f2a-8ebb-624385205d11" x="76.044784" y="310.307544" width="15.956303" height="15.956303" transform="translate(-239.147397 380.948079) rotate(-86.185499)" fill="#cecece"/><polygon id="uuid-9e107648-b63a-443e-b7e8-48132cb7e1a3" points="130.949511 390.997739 146.456447 378.367025 168.534805 405.472987 172.980948 410.931589 149.720544 429.877661 145.299794 424.450234 153.053262 418.134876 130.949511 390.997739" fill="none" stroke="#000" stroke-linecap="round" stroke-linejoin="round"/><rect id="uuid-bac8b4fe-e27e-47bc-9775-5cac4000e542" x="130.999992" y="352.999996" width="20.000032" height="39.000008" fill="none" stroke="#000" stroke-linecap="round" stroke-linejoin="round"/><polygon id="uuid-4e8638b9-bc4b-4f04-b42f-8f315ec5944b" points="103.999969 368 84 368 84 403 74 403 74 410 104 410 104 402.959792 103.999969 402.959792 103.999969 368" fill="none" stroke="#000" stroke-linecap="round" stroke-linejoin="round"/><rect id="uuid-9108c30c-8d00-4e0c-acd8-14cb90a7a918" x="84.659317" y="349.880648" width="39" height="20.000031" transform="translate(-231.882755 194.233506) rotate(-47.617773)" fill="none" stroke="#000" stroke-linecap="round" stroke-linejoin="round"/><polygon id="uuid-0d11238d-5437-4be0-b223-09b5b7fc44ff" points="138.970436 308.879475 138.995423 309 138.88664 309 131.694445 270.521649 136.938523 262 121.106944 262 126.351021 270.521649 119.158827 309 119.050044 309 119.07503 308.879475 119.050044 309 119.177928 309 129.022733 321.811467 138.867538 309 138.995423 309 138.970436 308.879475" fill="none" stroke="#000" stroke-linecap="round" stroke-linejoin="round"/><path id="uuid-4f9d55a2-9caa-447e-90e2-9663d8c5461d" d="M101,253v100h56v-100h-56ZM129.022733,302.92768l-19.766986-48.92768h39.533973l-19.766986,48.92768Z" fill="none" stroke="#000" stroke-linecap="round" stroke-linejoin="round"/><path id="uuid-03ef6d0d-a627-4fcf-9fc6-438aeaa17741" d="M155.127362,229.193096c.77312-5.656427.550352-11.783098-.852114-18.007406-4.842642-21.492217-21.835563-35.970832-37.954741-32.338847-16.119178,3.631985-25.260608,23.999211-20.417965,45.491429,1.402466,6.224308,3.828758,11.854479,6.953031,16.632743l52.27179-11.777919Z" fill="none" stroke="#000" stroke-linecap="round" stroke-linejoin="round"/><path id="uuid-002b9057-e58e-4153-9788-3e1ccb35402e" d="M103.946477,246c5.31123,11.108678,14.626388,18.483075,25.23917,18.483075s19.92794-7.374397,25.23917-18.483075h-50.478341Z" fill="none" stroke="#000" stroke-linecap="round" stroke-linejoin="round"/><ellipse id="uuid-0796a80c-1b89-44c8-b544-b638ec305fb6" cx="141" cy="220.5" rx="2.827092" ry="4.609207" transform="translate(-55.250256 47.332199) rotate(-15.978264)" fill="none" stroke="#000" stroke-linecap="round" stroke-linejoin="round"/><ellipse id="uuid-3610a5bd-8e8d-460c-8c89-6fc1e89ce797" cx="125" cy="222.5" rx="2.827092" ry="4.609207" transform="translate(-56.418942 43.005104) rotate(-15.978264)" fill="none" stroke="#000" stroke-linecap="round" stroke-linejoin="round"/><path id="uuid-04401227-4b84-4432-b5ac-08396fd916a7" d="M88.41365,196.272097c6.664389-12.586323,25.70012-17.119647,35.128086-19.364889,11.804816-2.811293,26.151059-4.116209,27.419962-.675103,1.124443,3.049349-8.777487,7.77237-7.488875,12.567714.937252,3.487832,7.024227,4.147342,6.676069,5.234996-.73852,2.307191-27.528899-2.533264-31.327691,3.770963-1.706726,2.832361,2.394232,5.97795.3493,8.188265-2.112661,2.283537-7.06875-.448221-17.168999-.125046-8.692574.278134-12.402924,2.537681-14.594899.581052-2.91617-2.603053.569896-9.352371,1.007047-10.177952Z" fill="none" stroke="#000" stroke-linecap="round" stroke-linejoin="round"/><rect id="uuid-20021410-fa0e-4094-9dc6-eb088456df03" x="172.097722" y="225.832692" width="31.912601" height="14.959007" transform="translate(-111.600964 230.907026) rotate(-50.670659)" fill="none" stroke="#000" stroke-linecap="round" stroke-linejoin="round"/><rect id="uuid-d29064d0-4305-4fbd-9615-a743bab639b9" x="150.122161" y="246.735365" width="31.912601" height="14.959007" transform="translate(-118.231842 147.561664) rotate(-36.280878)" fill="none" stroke="#000" stroke-linecap="round" stroke-linejoin="round"/><rect id="uuid-c0c38cde-8a2a-4071-9590-6e5dd3f86560" x="75.676788" y="259.465951" width="31.912601" height="14.959007" transform="translate(-190.538509 272.919414) rotate(-72.267286)" fill="none" stroke="#000" stroke-linecap="round" stroke-linejoin="round"/><rect id="uuid-af9b2efc-73c0-4e58-ad1b-e1fd1dc84ce1" x="69.576102" y="288.166732" width="31.912601" height="14.959007" transform="translate(-215.149044 361.320864) rotate(-86.185499)" fill="none" stroke="#000" stroke-linecap="round" stroke-linejoin="round"/><rect id="uuid-f3ae0af2-b7ed-41eb-84b5-916a5a1ac56f" x="194.160176" y="208.144352" width="15.956303" height="15.956303" transform="translate(-93.146471 235.506199) rotate(-50.670659)" fill="none" stroke="#000" stroke-linecap="round" stroke-linejoin="round"/><rect id="uuid-d9200690-dc33-48bd-bab6-01f730f6cc4a" x="76.044784" y="310.307544" width="15.956303" height="15.956303" transform="translate(-239.147397 380.948079) rotate(-86.185499)" fill="none" stroke="#000" stroke-linecap="round" stroke-linejoin="round"/></g><rect x="289" y="70" width="133" height="175" fill="#c6b96e"/><rect x="289" y="70" width="133" height="175" fill="none" stroke="#000" stroke-linecap="round" stroke-linejoin="round"/><text transform="translate(303.179052 120.089355)" fill="#333" font-family="ComicNeue-Bold, &apos;Comic Neue&apos;" font-size="44.0868" font-weight="700"><tspan x="0" y="0">Enlist</tspan></text><polygon points="377.8123 208.596581 378.91213 212 382.49741 212 379.596279 214.104404 380.70477 217.507823 377.8123 215.403419 374.911169 217.507823 376.01966 214.104404 373.127184 212 376.703809 212 377.8123 208.596581" fill="#333"/><polygon points="392.586427 189.596581 393.686263 193 397.271543 193 394.370405 195.104404 395.478903 198.507823 392.586427 196.403419 389.685295 198.507823 390.793787 195.104404 387.901317 193 391.477935 193 392.586427 189.596581" fill="#333"/><polygon points="392.179401 165.596584 393.279237 169 396.864518 169 393.963386 171.104404 395.071877 174.507823 392.179401 172.403419 389.278269 174.507823 390.386761 171.104404 387.494291 169 391.070909 169 392.179401 165.596584" fill="#333"/><polygon points="378.340567 146.596581 379.449058 150 383.025677 150 380.133207 152.104404 381.241699 155.507822 378.340567 153.403419 375.44809 155.507822 376.556582 152.104404 373.65545 150 377.240731 150 378.340567 146.596581" fill="#333"/><polygon points="355.858951 215.596581 356.967443 219 360.544061 219 357.651591 221.104404 358.760083 224.507823 355.858951 222.403419 352.966475 224.507823 354.07497 221.104404 351.173835 219 354.759115 219 355.858951 215.596581" fill="#333"/><polygon points="355.858951 138.596582 356.967443 142 360.544061 142 357.651591 144.104404 358.760083 147.507823 355.858951 145.403419 352.966475 147.507823 354.07497 144.104404 351.173835 142 354.759115 142 355.858951 138.596582" fill="#333"/><polygon points="333.818996 208.596581 332.719166 212 329.133883 212 332.035018 214.104404 330.926523 217.507823 333.818996 215.403419 336.720131 217.507823 335.611636 214.104404 338.504109 212 334.927491 212 333.818996 208.596581" fill="#333"/><polygon points="319.04487 189.596581 317.945037 193 314.359755 193 317.260888 195.104404 316.152396 198.507823 319.04487 196.403419 321.946001 198.507823 320.83751 195.104404 323.729983 193 320.153361 193 319.04487 189.596581" fill="#333"/><polygon points="319.451894 165.596584 318.352061 169 314.76678 169 317.667914 171.104404 316.55942 174.507823 319.451894 172.403419 322.353027 174.507823 321.244534 171.104404 324.137007 169 320.560387 169 319.451894 165.596584" fill="#333"/><polygon points="333.290733 146.596581 332.182238 150 328.605619 150 331.498089 152.104404 330.389598 155.507822 333.290733 153.403419 336.183206 155.507822 335.074711 152.104404 337.975846 150 334.390562 150 333.290733 146.596581" fill="#333"/><path d="M382.965241,168.349572c0-.303151-.156193-.588882-.390444-.727487l-27.057454-15.328358-27.092063,15.311089c-.260396.155874-.425279.441606-.425279.744756l-.043374,3.784412c0,.476369.390519.866017.867787.866017h53.307799c.477268,0,.867787-.389648.867787-.866017l-.034759-3.784412ZM335.169939,168l20.645718-11.71709,20.645643,11.71709h-41.291361Z" fill="#333"/><polygon points="368.866417 166 355.815648 158.586954 342.76488 166 368.866417 166" fill="#333"/><path d="M380.348023,200h-49.065062c-.484141,0-.943239.208681-1.268781.567612l-3.349864,3.739577c-.239741.267632-.049788.692811.309521.692811h57.714748c.34224,0,.525874-.409013.300501-.667782l-3.380627-3.764606c-.317199-.358931-.784642-.567612-1.260435-.567612Z" fill="#333"/><path d="M378.082025,195h-3.155395c-.511764,0-.92663-.414867-.92663-.92663v-14.146739c0-.511764.414867-.92663.92663-.92663h3.146739c.511764,0,.92663.414867.92663.92663v14.155395c0,.506984-.410991.917975-.917975.917975Z" fill="#333"/><path d="M378.953197,178h-4.975411c-.389236,0-.731586-.257345-.839759-.631248l-.364603-1.260261c-.160493-.554748.255757-1.108492.833254-1.108492h5.71085c.580888,0,.999583.556996.838147,1.115001l-.36272,1.253751c-.108173.373903-.450523.631248-.839759.631248Z" fill="#333"/><path d="M373.944656,196h4.999224c.389817,0,.732679.257729.841013.63219l.364331,1.259318c.160493.554748-.255757,1.108492-.833254,1.108492h-5.710851c-.580889,0-.999583-.556996-.838147-1.115002l.369349-1.276662c.108337-.366669.441666-.608336.808335-.608336Z" fill="#333"/><path d="M338.064682,195h-3.138052c-.511764,0-.92663-.414867-.92663-.92663v-14.146739c0-.511764.414867-.92663.92663-.92663h3.146739c.511764,0,.92663.414867.92663.92663v14.137383c-.008746.520975-.428326.935987-.935318.935987Z" fill="#333"/><path d="M338.675076,178h-4.975411c-.389236,0-.731586-.257345-.839759-.631248l-.364603-1.260261c-.160493-.554748.255757-1.108492.833254-1.108492h5.710853c.580888,0,.999583.556996.838147,1.115001l-.362719,1.253748c-.108173.373905-.450525.631251-.839763.631251Z" fill="#333"/><path d="M333.699991,196h4.975411c.389235,0,.731585.257344.839758.631246l.362721,1.253752c.161436.558006-.257259,1.115002-.838147,1.115002h-5.704077c-.580889,0-.999583-.556996-.838147-1.115002l.36272-1.253749c.108174-.373904.450524-.631249.839762-.631249Z" fill="#333"/><path d="M351.064682,195h-3.138052c-.511764,0-.92663-.414867-.92663-.92663v-14.146739c0-.511764.414867-.92663.92663-.92663h3.146739c.511764,0,.92663.414867.92663.92663v14.137383c-.008746.520975-.419583.935987-.935318.935987Z" fill="#333"/><path d="M352.098229,178h-4.975411c-.389236,0-.731586-.257345-.839759-.631248l-.364603-1.260261c-.160493-.554748.255757-1.108492.833254-1.108492h5.710853c.580888,0,.999583.556996.838147,1.115001l-.362719,1.253748c-.108173.373905-.450525.631251-.839763.631251Z" fill="#333"/><path d="M347.123144,196h4.974429c.389817,0,.732679.257729.841013.63219l.364331,1.259318c.160493.554748-.255757,1.108492-.833254,1.108492h-5.717631c-.577497,0-.993747-.553744-.833254-1.108492l.364603-1.260259c.108174-.373904.450524-.631249.839762-.631249Z" fill="#333"/><path d="M365.064686,195h-3.138055c-.511764,0-.92663-.414867-.92663-.92663v-14.146739c0-.511764.414867-.92663.92663-.92663h3.146739c.511764,0,.92663.414867.92663.92663v14.137383c-.008736.520975-.419577.935987-.935314.935987Z" fill="#333"/><path d="M365.520404,178h-4.974434c-.389236,0-.731586-.257345-.839759-.631248l-.364603-1.260261c-.160493-.554748.255757-1.108492.833254-1.108492h5.71085c.580888,0,.999583.556996.838147,1.115001l-.362448,1.252812c-.108334.374459-.451193.632187-.841008.632187Z" fill="#333"/><path d="M360.521503,196h5.000206c.389235,0,.731585.257344.839758.631246l.362721,1.253752c.161436.558006-.257259,1.115002-.838147,1.115002h-5.704074c-.580889,0-.999583-.556996-.838147-1.115002l.369349-1.276662c.108337-.366669.441666-.608336.808335-.608336Z" fill="#333"/><polygon points="377.8123 208.596581 378.91213 212 382.49741 212 379.596279 214.104404 380.70477 217.507823 377.8123 215.403419 374.911169 217.507823 376.01966 214.104404 373.127184 212 376.703809 212 377.8123 208.596581" fill="none" stroke="#000" stroke-linecap="round" stroke-linejoin="round"/><polygon points="392.586427 189.596581 393.686263 193 397.271543 193 394.370405 195.104404 395.478903 198.507823 392.586427 196.403419 389.685295 198.507823 390.793787 195.104404 387.901317 193 391.477935 193 392.586427 189.596581" fill="none" stroke="#000" stroke-linecap="round" stroke-linejoin="round"/><polygon points="392.179401 165.596584 393.279237 169 396.864518 169 393.963386 171.104404 395.071877 174.507823 392.179401 172.403419 389.278269 174.507823 390.386761 171.104404 387.494291 169 391.070909 169 392.179401 165.596584" fill="none" stroke="#000" stroke-linecap="round" stroke-linejoin="round"/><polygon points="378.340567 146.596581 379.449058 150 383.025677 150 380.133207 152.104404 381.241699 155.507822 378.340567 153.403419 375.44809 155.507822 376.556582 152.104404 373.65545 150 377.240731 150 378.340567 146.596581" fill="none" stroke="#000" stroke-linecap="round" stroke-linejoin="round"/><polygon points="355.858951 215.596581 356.967443 219 360.544061 219 357.651591 221.104404 358.760083 224.507823 355.858951 222.403419 352.966475 224.507823 354.07497 221.104404 351.173835 219 354.759115 219 355.858951 215.596581" fill="none" stroke="#000" stroke-linecap="round" stroke-linejoin="round"/><polygon points="355.858951 138.596582 356.967443 142 360.544061 142 357.651591 144.104404 358.760083 147.507823 355.858951 145.403419 352.966475 147.507823 354.07497 144.104404 351.173835 142 354.759115 142 355.858951 138.596582" fill="none" stroke="#000" stroke-linecap="round" stroke-linejoin="round"/><polygon points="333.818996 208.596581 332.719166 212 329.133883 212 332.035018 214.104404 330.926523 217.507823 333.818996 215.403419 336.720131 217.507823 335.611636 214.104404 338.504109 212 334.927491 212 333.818996 208.596581" fill="none" stroke="#000" stroke-linecap="round" stroke-linejoin="round"/><polygon points="319.04487 189.596581 317.945037 193 314.359755 193 317.260888 195.104404 316.152396 198.507823 319.04487 196.403419 321.946001 198.507823 320.83751 195.104404 323.729983 193 320.153361 193 319.04487 189.596581" fill="none" stroke="#000" stroke-linecap="round" stroke-linejoin="round"/><polygon points="319.451894 165.596584 318.352061 169 314.76678 169 317.667914 171.104404 316.55942 174.507823 319.451894 172.403419 322.353027 174.507823 321.244534 171.104404 324.137007 169 320.560387 169 319.451894 165.596584" fill="none" stroke="#000" stroke-linecap="round" stroke-linejoin="round"/><polygon points="333.290733 146.596581 332.182238 150 328.605619 150 331.498089 152.104404 330.389598 155.507822 333.290733 153.403419 336.183206 155.507822 335.074711 152.104404 337.975846 150 334.390562 150 333.290733 146.596581" fill="none" stroke="#000" stroke-linecap="round" stroke-linejoin="round"/><path d="M382.965241,168.349572c0-.303151-.156193-.588882-.390444-.727487l-27.057454-15.328358-27.092063,15.311089c-.260396.155874-.425279.441606-.425279.744756l-.043374,3.784412c0,.476369.390519.866017.867787.866017h53.307799c.477268,0,.867787-.389648.867787-.866017l-.034759-3.784412ZM335.169939,168l20.645718-11.71709,20.645643,11.71709h-41.291361Z" fill="none" stroke="#000" stroke-linecap="round" stroke-linejoin="round"/><polygon points="368.866417 166 355.815648 158.586954 342.76488 166 368.866417 166" fill="none" stroke="#000" stroke-linecap="round" stroke-linejoin="round"/><path d="M380.348023,200h-49.065062c-.484141,0-.943239.208681-1.268781.567612l-3.349864,3.739577c-.239741.267632-.049788.692811.309521.692811h57.714748c.34224,0,.525874-.409013.300501-.667782l-3.380627-3.764606c-.317199-.358931-.784642-.567612-1.260435-.567612Z" fill="none" stroke="#000" stroke-linecap="round" stroke-linejoin="round"/><path d="M378.082025,195h-3.155395c-.511764,0-.92663-.414867-.92663-.92663v-14.146739c0-.511764.414867-.92663.92663-.92663h3.146739c.511764,0,.92663.414867.92663.92663v14.155395c0,.506984-.410991.917975-.917975.917975Z" fill="none" stroke="#000" stroke-linecap="round" stroke-linejoin="round"/><path d="M378.953197,178h-4.975411c-.389236,0-.731586-.257345-.839759-.631248l-.364603-1.260261c-.160493-.554748.255757-1.108492.833254-1.108492h5.71085c.580888,0,.999583.556996.838147,1.115001l-.36272,1.253751c-.108173.373903-.450523.631248-.839759.631248Z" fill="none" stroke="#000" stroke-linecap="round" stroke-linejoin="round"/><path d="M373.944656,196h4.999224c.389817,0,.732679.257729.841013.63219l.364331,1.259318c.160493.554748-.255757,1.108492-.833254,1.108492h-5.710851c-.580889,0-.999583-.556996-.838147-1.115002l.369349-1.276662c.108337-.366669.441666-.608336.808335-.608336Z" fill="none" stroke="#000" stroke-linecap="round" stroke-linejoin="round"/><path d="M338.064682,195h-3.138052c-.511764,0-.92663-.414867-.92663-.92663v-14.146739c0-.511764.414867-.92663.92663-.92663h3.146739c.511764,0,.92663.414867.92663.92663v14.137383c-.008746.520975-.428326.935987-.935318.935987Z" fill="none" stroke="#000" stroke-linecap="round" stroke-linejoin="round"/><path d="M338.675076,178h-4.975411c-.389236,0-.731586-.257345-.839759-.631248l-.364603-1.260261c-.160493-.554748.255757-1.108492.833254-1.108492h5.710853c.580888,0,.999583.556996.838147,1.115001l-.362719,1.253748c-.108173.373905-.450525.631251-.839763.631251Z" fill="none" stroke="#000" stroke-linecap="round" stroke-linejoin="round"/><path d="M333.699991,196h4.975411c.389235,0,.731585.257344.839758.631246l.362721,1.253752c.161436.558006-.257259,1.115002-.838147,1.115002h-5.704077c-.580889,0-.999583-.556996-.838147-1.115002l.36272-1.253749c.108174-.373904.450524-.631249.839762-.631249Z" fill="none" stroke="#000" stroke-linecap="round" stroke-linejoin="round"/><path d="M351.064682,195h-3.138052c-.511764,0-.92663-.414867-.92663-.92663v-14.146739c0-.511764.414867-.92663.92663-.92663h3.146739c.511764,0,.92663.414867.92663.92663v14.137383c-.008746.520975-.419583.935987-.935318.935987Z" fill="none" stroke="#000" stroke-linecap="round" stroke-linejoin="round"/><path d="M352.098229,178h-4.975411c-.389236,0-.731586-.257345-.839759-.631248l-.364603-1.260261c-.160493-.554748.255757-1.108492.833254-1.108492h5.710853c.580888,0,.999583.556996.838147,1.115001l-.362719,1.253748c-.108173.373905-.450525.631251-.839763.631251Z" fill="none" stroke="#000" stroke-linecap="round" stroke-linejoin="round"/><path d="M347.123144,196h4.974429c.389817,0,.732679.257729.841013.63219l.364331,1.259318c.160493.554748-.255757,1.108492-.833254,1.108492h-5.717631c-.577497,0-.993747-.553744-.833254-1.108492l.364603-1.260259c.108174-.373904.450524-.631249.839762-.631249Z" fill="none" stroke="#000" stroke-linecap="round" stroke-linejoin="round"/><path d="M365.064686,195h-3.138055c-.511764,0-.92663-.414867-.92663-.92663v-14.146739c0-.511764.414867-.92663.92663-.92663h3.146739c.511764,0,.92663.414867.92663.92663v14.137383c-.008736.520975-.419577.935987-.935314.935987Z" fill="none" stroke="#000" stroke-linecap="round" stroke-linejoin="round"/><path d="M365.520404,178h-4.974434c-.389236,0-.731586-.257345-.839759-.631248l-.364603-1.260261c-.160493-.554748.255757-1.108492.833254-1.108492h5.71085c.580888,0,.999583.556996.838147,1.115001l-.362448,1.252812c-.108334.374459-.451193.632187-.841008.632187Z" fill="none" stroke="#000" stroke-linecap="round" stroke-linejoin="round"/><path d="M360.521503,196h5.000206c.389235,0,.731585.257344.839758.631246l.362721,1.253752c.161436.558006-.257259,1.115002-.838147,1.115002h-5.704074c-.580889,0-.999583-.556996-.838147-1.115002l.369349-1.276662c.108337-.366669.441666-.608336.808335-.608336Z" fill="none" stroke="#000" stroke-linecap="round" stroke-linejoin="round"/><text transform="translate(233.028137 312.153992)" fill="#333" font-family="ComicNeue-Regular, &apos;Comic Neue&apos;" font-size="24"><tspan x="0" y="0">Very few would </tspan><tspan x="0" y="28.799805">enlist after knowing </tspan><tspan x="0" y="57.599609">the horror.</tspan></text></svg>