<?xml version="1.0" encoding="UTF-8"?><svg id="uuid-ff621406-fa74-4d65-91f3-c9b10f646a49" xmlns="http://www.w3.org/2000/svg" viewBox="0 0 500 500"><g id="uuid-48bb31a6-05c4-4270-94e8-d72f7880e630"><polygon id="uuid-db025534-9c33-485d-b70f-6e45863d831e" points="378 386 358 386 358 420.959792 358 428 388 428 388 421 378 421 378 386" fill="#9c9caf"/><rect id="uuid-2a980c09-6a4b-4303-acb0-85aa53337df8" x="358" y="347" width="20.000015" height="39" fill="#9c9caf"/><polygon id="uuid-93062514-d8cd-4c2b-b5aa-380dc8e94651" points="349.999969 386 330 386 330 421 320 421 320 428 350 428 350 420.959792 349.999969 420.959792 349.999969 386" fill="#9c9caf"/><rect id="uuid-5dae77c6-0a3c-4629-ad49-163c3f7fac48" x="329.999985" y="347" width="20.000031" height="39" fill="#9c9caf"/><polygon id="uuid-feb836d1-4c10-411e-8da7-79d6e62dd83e" points="363.370067 302.879475 363.395053 303 363.28627 303 356.094076 264.521649 361.338153 256 345.506574 256 350.750652 264.521649 343.558457 303 343.449674 303 343.474661 302.879475 343.449674 303 343.577559 303 353.422364 315.811467 363.267169 303 363.395053 303 363.370067 302.879475" fill="#c1272d"/><path id="uuid-d0492fd5-f43f-4bc5-ac06-9c8e9a8a0030" d="M326,247v100h56v-100h-56ZM353.422364,296.92768l-19.766986-48.92768h39.533973l-19.766986,48.92768Z" fill="#9c9caf"/><path id="uuid-fa311476-86de-4bbf-91b6-324133db4656" d="M379.437007,235.608687c2.796053-4.977446,4.838447-10.757961,5.819396-17.062456,3.387167-21.769099-7.102504-41.475861-23.429343-44.016239-16.32684-2.540378-32.308205,13.047617-35.695373,34.816717-.980949,6.304495-.79143,12.432285.360118,18.023959l52.945202,8.238019Z" fill="#eec6a2"/><path id="uuid-97477395-e1d4-44d2-a01b-782b64cfc419" d="M328.346107,240c5.31123,11.108678,14.626388,18.483075,25.23917,18.483075s19.92794-7.374397,25.23917-18.483075h-50.478341Z" fill="#eec6a2"/><ellipse id="uuid-392f16d7-269e-4ad3-a2a5-6823e4335471" cx="356" cy="215.5" rx="3" ry="4.5" fill="#333"/><ellipse id="uuid-0fec9774-91e5-4aac-a495-f0fad78e8e2f" cx="340" cy="212.5" rx="3" ry="4.5" fill="#333"/><path id="uuid-1edef2ed-a2fc-4ee6-af4b-12e8c4a48197" d="M329.471283,180.491193c10.820344-9.260118,30.190968-6.487215,39.784795-5.113849,12.012496,1.71959,25.835785,5.7735,25.752543,9.44016-.073765,3.249225-11.018245,4.006532-11.580405,8.940072-.408883,3.588346,5.010752,6.436814,4.287546,7.320658-1.534092,1.874861-24.675817-12.46442-30.524057-7.995394-2.627501,2.00784.032,6.439504-2.68168,7.744565-2.803563,1.348299-6.410414-3.012428-15.923817-6.420453-8.187517-2.933048-12.468361-2.193704-13.788786-4.818514-1.756681-3.491992,3.964108-8.489845,4.673861-9.097246Z" fill="#534741"/><rect id="uuid-343f40d3-67c2-4224-a16e-a44698a29e9a" x="391.277288" y="213.133457" width="14.959007" height="31.912601" transform="translate(-20.566568 40.259103) rotate(-5.634698)" fill="#9c9caf"/><rect id="uuid-c05c9ad6-7bbb-452b-bd8a-c40cd362ca9c" x="374.521791" y="240.102426" width="31.912601" height="14.959007" transform="translate(-70.801543 279.062884) rotate(-36.280878)" fill="#9c9caf"/><rect id="uuid-1c25939b-7c97-4f18-a1dd-341ad392afba" x="306.052102" y="233.351996" width="14.959007" height="31.912601" transform="translate(-34.048398 448.418406) rotate(-68.296475)" fill="#9c9caf"/><rect id="uuid-d491b6ed-ca7e-4dba-a05c-92bc9304b8b9" x="280.932756" y="225.455658" width="31.912601" height="14.959007" transform="translate(-42.057484 398.818084) rotate(-64.194719)" fill="#9c9caf"/><rect id="uuid-5a339731-45d7-4461-8692-532052ae9681" x="388.596681" y="198.996177" width="15.956303" height="15.956303" transform="translate(-18.405695 39.938007) rotate(-5.634698)" fill="#eec6a2"/><rect id="uuid-45294cfc-45fe-4bc3-a340-937492851893" x="298.788063" y="204.529935" width="15.956303" height="15.956303" transform="translate(-18.089933 396.175396) rotate(-64.194719)" fill="#eec6a2"/><polygon id="uuid-8dcd17ac-dd89-4011-a7c3-61b8e2904816" points="378 386 358 386 358 420.959792 358 428 388 428 388 421 378 421 378 386" fill="none" stroke="#000" stroke-linecap="round" stroke-linejoin="round"/><rect id="uuid-88ebf90d-5684-4392-8390-375b405f8320" x="358" y="347" width="20.000015" height="39" fill="none" stroke="#000" stroke-linecap="round" stroke-linejoin="round"/><polygon id="uuid-b4b3bf3d-67ba-4cbb-b2e5-1c1221577952" points="349.999969 386 330 386 330 421 320 421 320 428 350 428 350 420.959792 349.999969 420.959792 349.999969 386" fill="none" stroke="#000" stroke-linecap="round" stroke-linejoin="round"/><rect id="uuid-67115986-f522-4498-ba3d-138e4fad9f85" x="329.999985" y="347" width="20.000031" height="39" fill="none" stroke="#000" stroke-linecap="round" stroke-linejoin="round"/><polygon id="uuid-f5b4a3b2-a155-4bab-a5e6-e368955ba5fa" points="363.370067 302.879475 363.395053 303 363.28627 303 356.094076 264.521649 361.338153 256 345.506574 256 350.750652 264.521649 343.558457 303 343.449674 303 343.474661 302.879475 343.449674 303 343.577559 303 353.422364 315.811467 363.267169 303 363.395053 303 363.370067 302.879475" fill="none" stroke="#000" stroke-linecap="round" stroke-linejoin="round"/><path id="uuid-7172af00-08ec-4869-abfc-0c0d59588343" d="M326,247v100h56v-100h-56ZM353.422364,296.92768l-19.766986-48.92768h39.533973l-19.766986,48.92768Z" fill="none" stroke="#000" stroke-linecap="round" stroke-linejoin="round"/><path id="uuid-c9210c22-c210-4365-8ff9-2ea62935954d" d="M379.437007,235.608687c2.796053-4.977446,4.838447-10.757961,5.819396-17.062456,3.387167-21.769099-7.102504-41.475861-23.429343-44.016239-16.32684-2.540378-32.308205,13.047617-35.695373,34.816717-.980949,6.304495-.79143,12.432285.360118,18.023959l52.945202,8.238019Z" fill="none" stroke="#000" stroke-linecap="round" stroke-linejoin="round"/><path id="uuid-d24577ce-764e-4c77-8c8e-1b71be59e6bd" d="M328.346107,240c5.31123,11.108678,14.626388,18.483075,25.23917,18.483075s19.92794-7.374397,25.23917-18.483075h-50.478341Z" fill="none" stroke="#000" stroke-linecap="round" stroke-linejoin="round"/><ellipse id="uuid-9ee76a8e-65d1-49dd-8633-581ab36f8703" cx="356" cy="215.5" rx="3" ry="4.5" fill="none" stroke="#000" stroke-linecap="round" stroke-linejoin="round"/><ellipse id="uuid-91642669-f09f-4fce-9e1d-85a042dc999d" cx="340" cy="212.5" rx="3" ry="4.5" fill="none" stroke="#000" stroke-linecap="round" stroke-linejoin="round"/><path id="uuid-6a41c8ae-1c32-472e-b9de-c9709253ced3" d="M329.471283,180.491193c10.820344-9.260118,30.190968-6.487215,39.784795-5.113849,12.012496,1.71959,25.835785,5.7735,25.752543,9.44016-.073765,3.249225-11.018245,4.006532-11.580405,8.940072-.408883,3.588346,5.010752,6.436814,4.287546,7.320658-1.534092,1.874861-24.675817-12.46442-30.524057-7.995394-2.627501,2.00784.032,6.439504-2.68168,7.744565-2.803563,1.348299-6.410414-3.012428-15.923817-6.420453-8.187517-2.933048-12.468361-2.193704-13.788786-4.818514-1.756681-3.491992,3.964108-8.489845,4.673861-9.097246Z" fill="none" stroke="#000" stroke-linecap="round" stroke-linejoin="round"/><rect id="uuid-c01fa25e-afd7-4ab0-9fbd-84d171f010e4" x="391.277288" y="213.133457" width="14.959007" height="31.912601" transform="translate(-20.566568 40.259103) rotate(-5.634698)" fill="none" stroke="#000" stroke-linecap="round" stroke-linejoin="round"/><rect id="uuid-cc2451e2-185d-47a1-85d2-ccb697797e2a" x="374.521791" y="240.102426" width="31.912601" height="14.959007" transform="translate(-70.801543 279.062884) rotate(-36.280878)" fill="none" stroke="#000" stroke-linecap="round" stroke-linejoin="round"/><rect id="uuid-f151ec2f-f3e1-483f-ab09-32e677ef2a7f" x="306.052102" y="233.351996" width="14.959007" height="31.912601" transform="translate(-34.048398 448.418406) rotate(-68.296475)" fill="none" stroke="#000" stroke-linecap="round" stroke-linejoin="round"/><rect id="uuid-51ab2abc-b9e2-4ebe-aa26-96cbd0b74d9b" x="280.932756" y="225.455658" width="31.912601" height="14.959007" transform="translate(-42.057484 398.818084) rotate(-64.194719)" fill="none" stroke="#000" stroke-linecap="round" stroke-linejoin="round"/><rect id="uuid-3a02ac66-7e9b-4734-a050-640fd700feda" x="388.596681" y="198.996177" width="15.956303" height="15.956303" transform="translate(-18.405695 39.938007) rotate(-5.634698)" fill="none" stroke="#000" stroke-linecap="round" stroke-linejoin="round"/><rect id="uuid-a7a3d0ef-e8cf-4d8b-bdf9-18d20c6352fa" x="298.788063" y="204.529935" width="15.956303" height="15.956303" transform="translate(-18.089933 396.175396) rotate(-64.194719)" fill="none" stroke="#000" stroke-linecap="round" stroke-linejoin="round"/></g><g id="uuid-936e4344-dd0b-4b8b-9f6d-ca5662a982f0"><polygon id="uuid-96be4d33-e2cf-4700-8f66-1be9a3b811a9" points="147 383 167 383 167 417.959792 167 425 137 425 137 418 147 418 147 383" fill="#9c9caf"/><rect id="uuid-4fd7db2b-9126-4a02-8bc2-842ed5cb219a" x="146.999985" y="344" width="20.000015" height="39" fill="#9c9caf"/><polygon id="uuid-10315edb-be87-4f8c-b50f-1f1aa53b995e" points="175.000031 383 195 383 195 418 205 418 205 425 175 425 175 417.959792 175.000031 417.959792 175.000031 383" fill="#9c9caf"/><rect id="uuid-fe5fde1b-e727-4b10-8711-a12a9437bebf" x="174.999985" y="344" width="20.000031" height="39" fill="#9c9caf"/><polygon id="uuid-5ec217ca-baaf-4286-b14d-65a9c7329ff9" points="161.106183 299.879475 161.081196 300 161.189979 300 168.382174 261.521649 163.138096 253 178.969675 253 173.725597 261.521649 180.917792 300 181.026575 300 181.001589 299.879475 181.026575 300 180.89869 300 171.053886 312.811467 161.209081 300 161.081196 300 161.106183 299.879475" fill="#c1272d"/><path id="uuid-6816e42f-486b-4aa1-be57-a16db700129d" d="M199,244v100h-56v-100h56ZM171.053886,293.92768l19.766986-48.92768h-39.533973l19.766986,48.92768Z" fill="#9c9caf"/><path id="uuid-fb7a2022-0a32-4176-b536-0d8be95dc8a0" d="M145.039242,233.108687c-2.796053-4.977446-4.838447-10.757961-5.819396-17.062456-3.387167-21.769099,7.102504-41.475861,23.429343-44.016239,16.32684-2.540378,32.308205,13.047617,35.695373,34.816717.980949,6.304495.79143,12.432285-.360118,18.023959l-52.945202,8.238019Z" fill="#eec6a2"/><path id="uuid-0f154bd7-843a-4444-b0d1-8bc246626374" d="M196.130142,237c-5.31123,11.108678-14.626388,18.483075-25.23917,18.483075s-19.92794-7.374397-25.23917-18.483075h50.478341Z" fill="#eec6a2"/><ellipse id="uuid-51d63844-52fb-4579-8eaa-093ab79bb89c" cx="169" cy="212.5" rx="3" ry="4.5" fill="#333"/><ellipse id="uuid-18685aff-a0f0-42be-9f35-41dc799a4739" cx="185" cy="209.5" rx="3" ry="4.5" fill="#333"/><path id="uuid-bb8e27fe-cfb4-4e77-9eb2-360f452ce1bf" d="M138.570212,186.304919c7.952526-11.814692,27.359754-14.318602,36.971713-15.558721,12.035196-1.552771,26.439092-1.33996,27.338638,2.215619.797136,3.15079-9.547032,6.805013-8.770469,11.709378.564819,3.567127,6.548524,4.863851,6.087785,5.908804-.977333,2.21661-27.109169-5.417623-31.550601.4516-1.995451,2.636922,1.751523,6.196805-.514761,8.179531-2.341346,2.048408-6.982269-1.189978-17.060405-1.932026-8.673544-.638628-12.601172,1.217708-14.574956-.958833-2.625894-2.89562,1.551413-9.240386,2.073057-10.015353Z" fill="#534741"/><rect id="uuid-338f0ce4-ae65-4409-8e41-bae34535c301" x="104.579184" y="223.014515" width="14.959007" height="31.912601" transform="translate(-89.303968 68.33295) rotate(-24.59862)" fill="#9c9caf"/><rect id="uuid-910f0ae7-9d2a-46a0-becc-69c81506b384" x="121.043056" y="234.822909" width="14.959007" height="31.912601" transform="translate(-134.401372 352.165929) rotate(-83.952439)" fill="#9c9caf"/><rect id="uuid-355d7839-2896-4340-aee2-822d8904aadc" x="194.988343" y="239.328793" width="31.912601" height="14.959007" transform="translate(-76.316772 95.50444) rotate(-21.703525)" fill="#9c9caf"/><rect id="uuid-4e031ef6-9def-441f-b907-2344706e1493" x="211.882978" y="223.008168" width="31.912601" height="14.959007" transform="translate(-81.411585 327.43718) rotate(-62.737174)" fill="#9c9caf"/><rect id="uuid-58cd3637-67f0-4939-9efe-550751f95fb5" x="94.830095" y="210.786662" width="15.956303" height="15.956303" transform="translate(-81.732553 62.648599) rotate(-24.59862)" fill="#eec6a2"/><rect id="uuid-45a8d612-1bc4-4480-ad23-09b93d0df3fb" x="230.254675" y="202.340292" width="15.956303" height="15.956303" transform="translate(-57.850317 325.745906) rotate(-62.737174)" fill="#eec6a2"/><polygon id="uuid-64fe54b1-a209-4949-834d-f3d504a25708" points="147 383 167 383 167 417.959792 167 425 137 425 137 418 147 418 147 383" fill="none" stroke="#000" stroke-linecap="round" stroke-linejoin="round"/><rect id="uuid-936910e3-e6c3-4ed2-b6e3-f2dd29dee234" x="146.999985" y="344" width="20.000015" height="39" fill="none" stroke="#000" stroke-linecap="round" stroke-linejoin="round"/><polygon id="uuid-f4f42708-9e03-48e3-9c7e-c8bbf9bf46bd" points="175.000031 383 195 383 195 418 205 418 205 425 175 425 175 417.959792 175.000031 417.959792 175.000031 383" fill="none" stroke="#000" stroke-linecap="round" stroke-linejoin="round"/><rect id="uuid-dfef6038-8659-4e1f-bf01-e2313cbb78a2" x="174.999985" y="344" width="20.000031" height="39" fill="none" stroke="#000" stroke-linecap="round" stroke-linejoin="round"/><polygon id="uuid-dd981570-88c2-4020-a6d8-878bf326267b" points="161.106183 299.879475 161.081196 300 161.189979 300 168.382174 261.521649 163.138096 253 178.969675 253 173.725597 261.521649 180.917792 300 181.026575 300 181.001589 299.879475 181.026575 300 180.89869 300 171.053886 312.811467 161.209081 300 161.081196 300 161.106183 299.879475" fill="none" stroke="#000" stroke-linecap="round" stroke-linejoin="round"/><path id="uuid-3da505a9-02a6-42e9-bcb3-f24dc5304ee9" d="M199,244v100h-56v-100h56ZM171.053886,293.92768l19.766986-48.92768h-39.533973l19.766986,48.92768Z" fill="none" stroke="#000" stroke-linecap="round" stroke-linejoin="round"/><path id="uuid-db97c5b4-467d-4ca2-a493-0e96f16a2188" d="M145.039242,233.108687c-2.796053-4.977446-4.838447-10.757961-5.819396-17.062456-3.387167-21.769099,7.102504-41.475861,23.429343-44.016239,16.32684-2.540378,32.308205,13.047617,35.695373,34.816717.980949,6.304495.79143,12.432285-.360118,18.023959l-52.945202,8.238019Z" fill="none" stroke="#000" stroke-linecap="round" stroke-linejoin="round"/><path id="uuid-42c0677a-a9d5-48ce-b3cd-6aafb9cc82de" d="M196.130142,237c-5.31123,11.108678-14.626388,18.483075-25.23917,18.483075s-19.92794-7.374397-25.23917-18.483075h50.478341Z" fill="none" stroke="#000" stroke-linecap="round" stroke-linejoin="round"/><ellipse id="uuid-bb9093fe-a4a0-44a4-9dbb-6468773258ce" cx="169" cy="212.5" rx="3" ry="4.5" fill="none" stroke="#000" stroke-linecap="round" stroke-linejoin="round"/><ellipse id="uuid-0ddbab8a-84ae-4099-89a2-cc70c0eeab6d" cx="185" cy="209.5" rx="3" ry="4.5" fill="none" stroke="#000" stroke-linecap="round" stroke-linejoin="round"/><path id="uuid-65bc5970-b62a-4950-8a0f-53eebfca4d37" d="M138.570212,186.304919c7.952526-11.814692,27.359754-14.318602,36.971713-15.558721,12.035196-1.552771,26.439092-1.33996,27.338638,2.215619.797136,3.15079-9.547032,6.805013-8.770469,11.709378.564819,3.567127,6.548524,4.863851,6.087785,5.908804-.977333,2.21661-27.109169-5.417623-31.550601.4516-1.995451,2.636922,1.751523,6.196805-.514761,8.179531-2.341346,2.048408-6.982269-1.189978-17.060405-1.932026-8.673544-.638628-12.601172,1.217708-14.574956-.958833-2.625894-2.89562,1.551413-9.240386,2.073057-10.015353Z" fill="none" stroke="#000" stroke-linecap="round" stroke-linejoin="round"/><rect id="uuid-52934090-6b86-485f-ab71-5c5fe7c98471" x="104.579184" y="223.014515" width="14.959007" height="31.912601" transform="translate(-89.303968 68.33295) rotate(-24.59862)" fill="none" stroke="#000" stroke-linecap="round" stroke-linejoin="round"/><rect id="uuid-7192963f-a370-4a13-9a9f-84f7a87b2835" x="121.043056" y="234.822909" width="14.959007" height="31.912601" transform="translate(-134.401372 352.165929) rotate(-83.952439)" fill="none" stroke="#000" stroke-linecap="round" stroke-linejoin="round"/><rect id="uuid-90b36490-ec99-42f8-a7c8-a59b4cfeb65a" x="194.988343" y="239.328793" width="31.912601" height="14.959007" transform="translate(-76.316772 95.50444) rotate(-21.703525)" fill="none" stroke="#000" stroke-linecap="round" stroke-linejoin="round"/><rect id="uuid-413ea39d-b2d2-4ee5-9bbb-440199672924" x="211.882978" y="223.008168" width="31.912601" height="14.959007" transform="translate(-81.411585 327.43718) rotate(-62.737174)" fill="none" stroke="#000" stroke-linecap="round" stroke-linejoin="round"/><rect id="uuid-d9cc8b03-c583-4aa9-aa5b-cfc913fa2e41" x="94.830095" y="210.786662" width="15.956303" height="15.956303" transform="translate(-81.732553 62.648599) rotate(-24.59862)" fill="none" stroke="#000" stroke-linecap="round" stroke-linejoin="round"/><rect id="uuid-08cbb1b3-2864-463a-9f1e-9abedb3fad52" x="230.254675" y="202.340292" width="15.956303" height="15.956303" transform="translate(-57.850317 325.745906) rotate(-62.737174)" fill="none" stroke="#000" stroke-linecap="round" stroke-linejoin="round"/></g><text transform="translate(118.229622 92.291809)" fill="#333" font-family="ComicNeue-Regular, &apos;Comic Neue&apos;" font-size="24"><tspan x="0" y="0">It was a matter of concern </tspan><tspan x="0" y="28.799805">for government officials.</tspan></text></svg>