<?xml version="1.0" encoding="UTF-8"?><svg id="uuid-0d79d3ae-48bf-43e7-b43a-907446d7e626" xmlns="http://www.w3.org/2000/svg" viewBox="0 0 500 500"><g id="uuid-f9f708b8-3dc2-4795-90d9-7dd27ce82f29"><polygon id="uuid-cf37397b-7ef8-406a-9e58-d9d1a5252370" points="378 386 358 386 358 420.96 358 428 388 428 388 421 378 421 378 386" fill="#9c9caf"/><rect id="uuid-7e6ceb7f-674f-4a60-aca0-bcee6f844910" x="358" y="347" width="20" height="39" fill="#9c9caf"/><polygon id="uuid-ed828151-5a56-4a25-b8db-8f0bf0b847e3" points="350 386 330 386 330 421 320 421 320 428 350 428 350 420.96 350 420.96 350 386" fill="#9c9caf"/><rect id="uuid-827bffe4-01db-4523-8ba0-4d61dd97e8bd" x="330" y="347" width="20" height="39" fill="#9c9caf"/><polygon id="uuid-ce6d8a72-93da-49ff-975e-33833401046a" points="363.37 302.88 363.4 303 363.29 303 356.09 264.52 361.34 256 345.51 256 350.75 264.52 343.56 303 343.45 303 343.47 302.88 343.45 303 343.58 303 353.42 315.81 363.27 303 363.4 303 363.37 302.88" fill="#c1272d"/><path id="uuid-d92ab7c3-2fe1-4cb6-b937-3396f986db4a" d="M326,247v100h56v-100h-56ZM353.42,296.93l-19.77-48.93h39.53l-19.77,48.93Z" fill="#9c9caf"/><path id="uuid-3dcee4fd-f12b-4273-abd8-3acfa6ab07aa" d="M379.44,235.61c2.8-4.98,4.84-10.76,5.82-17.06,3.39-21.77-7.1-41.48-23.43-44.02-16.33-2.54-32.31,13.05-35.7,34.82-.98,6.3-.79,12.43.36,18.02l52.95,8.24Z" fill="#eec6a2"/><path id="uuid-64effb35-d087-47ef-960e-df7a4950993a" d="M328.35,240c5.31,11.11,14.63,18.48,25.24,18.48s19.93-7.37,25.24-18.48h-50.48Z" fill="#eec6a2"/><ellipse id="uuid-64db0cb3-8d80-4cae-9b47-dec92ad5b724" cx="356" cy="215.5" rx="3" ry="4.5" fill="#333"/><ellipse id="uuid-938484c9-0cd4-44b1-85a3-9b43937272d1" cx="340" cy="212.5" rx="3" ry="4.5" fill="#333"/><path id="uuid-51c6abe3-7dd3-465c-9a05-d1f8c93217e6" d="M329.47,180.49c10.82-9.26,30.19-6.49,39.78-5.11,12.01,1.72,25.84,5.77,25.75,9.44-.07,3.25-11.02,4.01-11.58,8.94-.41,3.59,5.01,6.44,4.29,7.32-1.53,1.87-24.68-12.46-30.52-8-2.63,2.01.03,6.44-2.68,7.74-2.8,1.35-6.41-3.01-15.92-6.42-8.19-2.93-12.47-2.19-13.79-4.82-1.76-3.49,3.96-8.49,4.67-9.1Z" fill="#534741"/><rect id="uuid-0cc3f6ce-3ae2-4016-b808-5e5219c8264f" x="391.28" y="213.13" width="14.96" height="31.91" transform="translate(-20.57 40.26) rotate(-5.63)" fill="#9c9caf"/><rect id="uuid-758e79ff-445b-4d43-829e-e1e833109b16" x="374.52" y="240.1" width="31.91" height="14.96" transform="translate(-70.8 279.06) rotate(-36.28)" fill="#9c9caf"/><rect id="uuid-d5db76b5-93ee-4eaf-b24e-e3be5c1813f1" x="306.05" y="233.35" width="14.96" height="31.91" transform="translate(-34.05 448.42) rotate(-68.3)" fill="#9c9caf"/><rect id="uuid-1a55d017-bdc6-4135-891e-313a961bc12b" x="280.93" y="225.46" width="31.91" height="14.96" transform="translate(-42.06 398.82) rotate(-64.19)" fill="#9c9caf"/><rect id="uuid-3c9c346f-6bbc-4ca3-a179-a20e5df1cbdd" x="388.6" y="199" width="15.96" height="15.96" transform="translate(-18.41 39.94) rotate(-5.63)" fill="#eec6a2"/><rect id="uuid-012cd2a3-72a9-4607-9738-6219517680e9" x="298.79" y="204.53" width="15.96" height="15.96" transform="translate(-18.09 396.18) rotate(-64.19)" fill="#eec6a2"/><polygon id="uuid-55d77cb0-b06d-4747-82d4-60e407a4c91f" points="378 386 358 386 358 420.96 358 428 388 428 388 421 378 421 378 386" fill="none" stroke="#000" stroke-linecap="round" stroke-linejoin="round"/><rect id="uuid-42abe93e-2614-4d26-b46e-82b49c97c510" x="358" y="347" width="20" height="39" fill="none" stroke="#000" stroke-linecap="round" stroke-linejoin="round"/><polygon id="uuid-9187265a-dfba-4cda-bcd2-60d5133a3a50" points="350 386 330 386 330 421 320 421 320 428 350 428 350 420.96 350 420.96 350 386" fill="none" stroke="#000" stroke-linecap="round" stroke-linejoin="round"/><rect id="uuid-c5d93b28-534b-4491-a53d-c7fa6b5d8b6f" x="330" y="347" width="20" height="39" fill="none" stroke="#000" stroke-linecap="round" stroke-linejoin="round"/><polygon id="uuid-4d91f4a0-facb-456b-a011-e20d07b422b4" points="363.37 302.88 363.4 303 363.29 303 356.09 264.52 361.34 256 345.51 256 350.75 264.52 343.56 303 343.45 303 343.47 302.88 343.45 303 343.58 303 353.42 315.81 363.27 303 363.4 303 363.37 302.88" fill="none" stroke="#000" stroke-linecap="round" stroke-linejoin="round"/><path id="uuid-50bfc1d5-3418-4872-a971-8a60e9a1ac89" d="M326,247v100h56v-100h-56ZM353.42,296.93l-19.77-48.93h39.53l-19.77,48.93Z" fill="none" stroke="#000" stroke-linecap="round" stroke-linejoin="round"/><path id="uuid-df15a405-be7e-418c-8af8-94376c1bbfb7" d="M379.44,235.61c2.8-4.98,4.84-10.76,5.82-17.06,3.39-21.77-7.1-41.48-23.43-44.02-16.33-2.54-32.31,13.05-35.7,34.82-.98,6.3-.79,12.43.36,18.02l52.95,8.24Z" fill="none" stroke="#000" stroke-linecap="round" stroke-linejoin="round"/><path id="uuid-54218b08-63eb-4cce-b2ad-f788fb1b166e" d="M328.35,240c5.31,11.11,14.63,18.48,25.24,18.48s19.93-7.37,25.24-18.48h-50.48Z" fill="none" stroke="#000" stroke-linecap="round" stroke-linejoin="round"/><ellipse id="uuid-80d674dc-649c-45e7-83e4-ab76e7e66c47" cx="356" cy="215.5" rx="3" ry="4.5" fill="none" stroke="#000" stroke-linecap="round" stroke-linejoin="round"/><ellipse id="uuid-830d9bc8-e44e-40c9-9e4c-f1f829d27c3e" cx="340" cy="212.5" rx="3" ry="4.5" fill="none" stroke="#000" stroke-linecap="round" stroke-linejoin="round"/><path id="uuid-963f4d96-c50f-49ef-8d52-13b0b3d7bc4a" d="M329.47,180.49c10.82-9.26,30.19-6.49,39.78-5.11,12.01,1.72,25.84,5.77,25.75,9.44-.07,3.25-11.02,4.01-11.58,8.94-.41,3.59,5.01,6.44,4.29,7.32-1.53,1.87-24.68-12.46-30.52-8-2.63,2.01.03,6.44-2.68,7.74-2.8,1.35-6.41-3.01-15.92-6.42-8.19-2.93-12.47-2.19-13.79-4.82-1.76-3.49,3.96-8.49,4.67-9.1Z" fill="none" stroke="#000" stroke-linecap="round" stroke-linejoin="round"/><rect id="uuid-a2c408e3-70b0-4cf8-8ea9-65c2d345ab24" x="391.28" y="213.13" width="14.96" height="31.91" transform="translate(-20.57 40.26) rotate(-5.63)" fill="none" stroke="#000" stroke-linecap="round" stroke-linejoin="round"/><rect id="uuid-11fa602d-b444-4e45-943e-acc2e1ea9e6a" x="374.52" y="240.1" width="31.91" height="14.96" transform="translate(-70.8 279.06) rotate(-36.28)" fill="none" stroke="#000" stroke-linecap="round" stroke-linejoin="round"/><rect id="uuid-80e1756e-d3cc-4ef6-8cae-4c2fa608821c" x="306.05" y="233.35" width="14.96" height="31.91" transform="translate(-34.05 448.42) rotate(-68.3)" fill="none" stroke="#000" stroke-linecap="round" stroke-linejoin="round"/><rect id="uuid-5d24f4ea-6d8b-4bea-b326-ffe8668ce130" x="280.93" y="225.46" width="31.91" height="14.96" transform="translate(-42.06 398.82) rotate(-64.19)" fill="none" stroke="#000" stroke-linecap="round" stroke-linejoin="round"/><rect id="uuid-7447d5da-2cdc-4b07-b065-f43313b92300" x="388.6" y="199" width="15.96" height="15.96" transform="translate(-18.41 39.94) rotate(-5.63)" fill="none" stroke="#000" stroke-linecap="round" stroke-linejoin="round"/><rect id="uuid-b79ab673-4355-4f6f-aee5-8227372b0d7d" x="298.79" y="204.53" width="15.96" height="15.96" transform="translate(-18.09 396.18) rotate(-64.19)" fill="none" stroke="#000" stroke-linecap="round" stroke-linejoin="round"/></g><g id="uuid-cc0a276f-2c53-4dc5-bfc6-77a07f498b2d"><polygon id="uuid-f40763d5-a130-4505-9de1-8f714a3c20fc" points="147 383 167 383 167 417.96 167 425 137 425 137 418 147 418 147 383" fill="#9c9caf"/><rect id="uuid-5922b36b-04f3-4a33-879d-96a3d0eef51f" x="147" y="344" width="20" height="39" fill="#9c9caf"/><polygon id="uuid-570f0d0f-b0f8-44aa-b97b-2d83e3003985" points="175 383 195 383 195 418 205 418 205 425 175 425 175 417.96 175 417.96 175 383" fill="#9c9caf"/><rect id="uuid-65e09790-df63-4b35-a822-70feacb2e427" x="175" y="344" width="20" height="39" fill="#9c9caf"/><polygon id="uuid-c4effdc5-18b1-4c59-b65c-62e4f2e49330" points="161.11 299.88 161.08 300 161.19 300 168.38 261.52 163.14 253 178.97 253 173.73 261.52 180.92 300 181.03 300 181 299.88 181.03 300 180.9 300 171.05 312.81 161.21 300 161.08 300 161.11 299.88" fill="#c1272d"/><path id="uuid-1f780877-1414-45f9-8d47-2800b7bce772" d="M199,244v100h-56v-100h56ZM171.05,293.93l19.77-48.93h-39.53l19.77,48.93Z" fill="#9c9caf"/><path id="uuid-1c3c61bf-5d4b-4c78-b1f1-52918848719b" d="M145.04,233.11c-2.8-4.98-4.84-10.76-5.82-17.06-3.39-21.77,7.1-41.48,23.43-44.02,16.33-2.54,32.31,13.05,35.7,34.82.98,6.3.79,12.43-.36,18.02l-52.95,8.24Z" fill="#eec6a2"/><path id="uuid-95e290e2-c6e1-4ad8-ad71-9ef50a67fc0f" d="M196.13,237c-5.31,11.11-14.63,18.48-25.24,18.48s-19.93-7.37-25.24-18.48h50.48Z" fill="#eec6a2"/><ellipse id="uuid-2a4255bc-9b3b-47e0-bf79-980f41005a3b" cx="169" cy="212.5" rx="3" ry="4.5" fill="#333"/><ellipse id="uuid-90832f17-a561-46e0-af5c-6dc8086c43dc" cx="185" cy="209.5" rx="3" ry="4.5" fill="#333"/><path id="uuid-c18f11d0-d8a0-4eb7-a639-044b16e8ffb4" d="M138.57,186.3c7.95-11.81,27.36-14.32,36.97-15.56,12.04-1.55,26.44-1.34,27.34,2.22.8,3.15-9.55,6.81-8.77,11.71.56,3.57,6.55,4.86,6.09,5.91-.98,2.22-27.11-5.42-31.55.45-2,2.64,1.75,6.2-.51,8.18-2.34,2.05-6.98-1.19-17.06-1.93-8.67-.64-12.6,1.22-14.57-.96-2.63-2.9,1.55-9.24,2.07-10.02Z" fill="#534741"/><rect id="uuid-753ea19e-6bb0-435c-80b0-baf16e2879a1" x="104.58" y="223.01" width="14.96" height="31.91" transform="translate(-89.3 68.33) rotate(-24.6)" fill="#9c9caf"/><rect id="uuid-cee74075-ad50-4d7a-aee3-5f8e96249adc" x="121.04" y="234.82" width="14.96" height="31.91" transform="translate(-134.4 352.17) rotate(-83.95)" fill="#9c9caf"/><rect id="uuid-37811f8f-3f79-4fc6-aa10-a186f3fd4c33" x="194.99" y="239.33" width="31.91" height="14.96" transform="translate(-76.32 95.5) rotate(-21.7)" fill="#9c9caf"/><rect id="uuid-ac2b88ca-683a-422f-8e06-55e8e6b84fc5" x="211.88" y="223.01" width="31.91" height="14.96" transform="translate(-81.41 327.44) rotate(-62.74)" fill="#9c9caf"/><rect id="uuid-5032548a-8bf5-4888-a685-646e92a54d2f" x="94.83" y="210.79" width="15.96" height="15.96" transform="translate(-81.73 62.65) rotate(-24.6)" fill="#eec6a2"/><rect id="uuid-2713447b-cec8-4e99-a00d-1c93161e0e74" x="230.25" y="202.34" width="15.96" height="15.96" transform="translate(-57.85 325.75) rotate(-62.74)" fill="#eec6a2"/><polygon id="uuid-03e2451f-c147-4dd1-9bb8-b85e94415f78" points="147 383 167 383 167 417.96 167 425 137 425 137 418 147 418 147 383" fill="none" stroke="#000" stroke-linecap="round" stroke-linejoin="round"/><rect id="uuid-7c092fd7-147a-45e8-9a7b-78d354ff34ad" x="147" y="344" width="20" height="39" fill="none" stroke="#000" stroke-linecap="round" stroke-linejoin="round"/><polygon id="uuid-1aa5ceea-dcdd-4503-8f84-b495fb73d84c" points="175 383 195 383 195 418 205 418 205 425 175 425 175 417.96 175 417.96 175 383" fill="none" stroke="#000" stroke-linecap="round" stroke-linejoin="round"/><rect id="uuid-69be043a-5057-4001-ade1-fac4d377fa55" x="175" y="344" width="20" height="39" fill="none" stroke="#000" stroke-linecap="round" stroke-linejoin="round"/><polygon id="uuid-803c1382-05b7-46d7-89b3-92f3c5412ba8" points="161.11 299.88 161.08 300 161.19 300 168.38 261.52 163.14 253 178.97 253 173.73 261.52 180.92 300 181.03 300 181 299.88 181.03 300 180.9 300 171.05 312.81 161.21 300 161.08 300 161.11 299.88" fill="none" stroke="#000" stroke-linecap="round" stroke-linejoin="round"/><path id="uuid-cc0cb2a2-63b1-4528-8a1e-2b081ee1ccc1" d="M199,244v100h-56v-100h56ZM171.05,293.93l19.77-48.93h-39.53l19.77,48.93Z" fill="none" stroke="#000" stroke-linecap="round" stroke-linejoin="round"/><path id="uuid-57406830-b195-4090-a118-409d2c691f87" d="M145.04,233.11c-2.8-4.98-4.84-10.76-5.82-17.06-3.39-21.77,7.1-41.48,23.43-44.02,16.33-2.54,32.31,13.05,35.7,34.82.98,6.3.79,12.43-.36,18.02l-52.95,8.24Z" fill="none" stroke="#000" stroke-linecap="round" stroke-linejoin="round"/><path id="uuid-b34ff19d-7d81-46f9-b954-4605bfd32bf4" d="M196.13,237c-5.31,11.11-14.63,18.48-25.24,18.48s-19.93-7.37-25.24-18.48h50.48Z" fill="none" stroke="#000" stroke-linecap="round" stroke-linejoin="round"/><ellipse id="uuid-d0cba687-06a2-4512-afbf-5d86459586d5" cx="169" cy="212.5" rx="3" ry="4.5" fill="none" stroke="#000" stroke-linecap="round" stroke-linejoin="round"/><ellipse id="uuid-4d4c0b72-3acf-4a1b-8c81-7284039b30fc" cx="185" cy="209.5" rx="3" ry="4.5" fill="none" stroke="#000" stroke-linecap="round" stroke-linejoin="round"/><path id="uuid-aace9945-34c7-465f-86a2-a3921c8cfed1" d="M138.57,186.3c7.95-11.81,27.36-14.32,36.97-15.56,12.04-1.55,26.44-1.34,27.34,2.22.8,3.15-9.55,6.81-8.77,11.71.56,3.57,6.55,4.86,6.09,5.91-.98,2.22-27.11-5.42-31.55.45-2,2.64,1.75,6.2-.51,8.18-2.34,2.05-6.98-1.19-17.06-1.93-8.67-.64-12.6,1.22-14.57-.96-2.63-2.9,1.55-9.24,2.07-10.02Z" fill="none" stroke="#000" stroke-linecap="round" stroke-linejoin="round"/><rect id="uuid-6937cbdc-d8b5-41a9-acce-8f08f72244fe" x="104.58" y="223.01" width="14.96" height="31.91" transform="translate(-89.3 68.33) rotate(-24.6)" fill="none" stroke="#000" stroke-linecap="round" stroke-linejoin="round"/><rect id="uuid-40430094-f7f1-4925-823e-16c100f8aeb9" x="121.04" y="234.82" width="14.96" height="31.91" transform="translate(-134.4 352.17) rotate(-83.95)" fill="none" stroke="#000" stroke-linecap="round" stroke-linejoin="round"/><rect id="uuid-3ed94538-ebe8-4996-96ab-f4429469d1ff" x="194.99" y="239.33" width="31.91" height="14.96" transform="translate(-76.32 95.5) rotate(-21.7)" fill="none" stroke="#000" stroke-linecap="round" stroke-linejoin="round"/><rect id="uuid-860e5428-e3fb-4f99-8c81-46a36617a971" x="211.88" y="223.01" width="31.91" height="14.96" transform="translate(-81.41 327.44) rotate(-62.74)" fill="none" stroke="#000" stroke-linecap="round" stroke-linejoin="round"/><rect id="uuid-792d0f9c-af4b-4ebe-bbf6-fa8e5309a3c6" x="94.83" y="210.79" width="15.96" height="15.96" transform="translate(-81.73 62.65) rotate(-24.6)" fill="none" stroke="#000" stroke-linecap="round" stroke-linejoin="round"/><rect id="uuid-8d325245-b171-4ea5-bcae-da025c7d9d81" x="230.25" y="202.34" width="15.96" height="15.96" transform="translate(-57.85 325.75) rotate(-62.74)" fill="none" stroke="#000" stroke-linecap="round" stroke-linejoin="round"/></g><text transform="translate(118.23 92.29)" fill="#333" font-family="ComicNeue-Regular, &apos;Comic Neue&apos;" font-size="24"><tspan x="0" y="0">It was a matter of concern </tspan><tspan x="0" y="28.8">for government officials.</tspan></text></svg>