<?xml version="1.0" encoding="UTF-8"?><svg id="uuid-1dc05bcf-3723-4b93-bf5c-9dc73c95b4f8" xmlns="http://www.w3.org/2000/svg" viewBox="0 0 500 500"><g isolation="isolate"><text transform="translate(80.58 98.55)" fill="#333" font-family="ComicNeue-Regular, &apos;Comic Neue&apos;" font-size="24" isolation="isolate"><tspan x="0" y="0">But no one could </tspan></text><text transform="translate(80.58 127.35)" fill="#333" font-family="ComicNeue-Regular, &apos;Comic Neue&apos;" font-size="24" isolation="isolate"><tspan x="0" y="0">do anything...</tspan></text></g><g id="uuid-6d46590b-f967-46e4-abe2-bed80625bd1f"><polygon id="uuid-ee80292c-80ce-4da2-82ef-27d4c600931f" points="224 379 244 379 244 413.96 244 421 214 421 214 414 224 414 224 379" fill="#404040"/><rect id="uuid-1aec26d5-e854-4b83-ae25-a7c5a1a10a49" x="224" y="340" width="20" height="39" fill="#404040"/><polygon id="uuid-e6e0cd88-f198-4317-93e8-f135ee221767" points="252 379 272 379 272 414 282 414 282 421 252 421 252 413.96 252 413.96 252 379" fill="#404040"/><rect id="uuid-e8d92cfe-1554-49a0-87d7-f743d9f60acb" x="252" y="340" width="20" height="39" fill="#404040"/><polygon id="uuid-a8882693-f650-4bfb-b01b-2e0a08b9f19a" points="238.14 295.88 238.11 296 238.22 296 245.42 257.52 240.17 249 256 249 250.76 257.52 257.95 296 258.06 296 258.04 295.88 258.06 296 257.93 296 248.09 308.81 238.24 296 238.11 296 238.14 295.88" fill="#c1272d"/><path id="uuid-10d5c767-ee06-49ab-b814-57d21c37793e" d="M276,240v100h-56v-100h56ZM248.09,289.93l19.77-48.93h-39.53l19.77,48.93h0Z" fill="#404040"/><path id="uuid-d9d9e83f-1267-40d5-8f88-8e41e6e3658f" d="M220.91,228.79c-2.08-5.32-3.29-11.33-3.39-17.71-.32-22.03,12.81-40.08,29.33-40.33,16.52-.24,30.18,17.42,30.5,39.45.09,6.38-.95,12.42-2.86,17.8l-53.58.79h0Z" fill="#eec6a2"/><path id="uuid-b14a6d6c-465c-4755-aca1-659938a05cba" d="M273.16,233c-5.31,11.11-14.63,18.48-25.24,18.48s-19.93-7.37-25.24-18.48h50.48Z" fill="#eec6a2"/><ellipse id="uuid-be13bf41-3f06-4e2a-85e6-6ca45cc71c0a" cx="253.98" cy="215.53" rx="2.99" ry="4.51" transform="translate(-16.36 20.92) rotate(-4.57)" fill="#333"/><ellipse id="uuid-8fa2f591-f302-4cec-934c-0a3d60463fa8" cx="267.98" cy="214.52" rx="2.99" ry="4.51" transform="translate(-16.24 22.03) rotate(-4.57)" fill="#333"/><path id="uuid-dffb1cd9-03cb-4502-b846-550d909e90e9" d="M221.01,179.42c9.52-10.59,29.09-10.37,38.78-10.26,12.13.14,26.37,2.35,26.76,6,.35,3.23-10.4,5.41-10.31,10.37.06,3.61,5.81,5.73,5.21,6.7-1.28,2.06-26.09-9.14-31.31-3.94-2.34,2.33.87,6.38-1.65,8.03-2.6,1.7-6.75-2.15-16.63-4.29-8.5-1.84-12.65-.55-14.3-2.98-2.2-3.23,2.82-8.93,3.45-9.63h0Z" fill="#534741"/><rect id="uuid-6e3013b7-ccaa-44f8-860b-5e67d1728e80" x="190.63" y="278.1" width="31.91" height="14.96" transform="translate(-104.91 450.52) rotate(-82.02)" fill="#404040"/><rect id="uuid-cb63dfb3-cc84-4bcb-8808-46bf8c156432" x="196.06" y="247.95" width="31.91" height="14.96" transform="translate(-76.64 419.37) rotate(-79.9)" fill="#404040"/><rect id="uuid-479c95dd-b543-4868-93b0-970007d4aeac" x="275.97" y="239.56" width="14.96" height="31.91" transform="translate(-30.02 37.87) rotate(-7.26)" fill="#404040"/><rect id="uuid-e4f5a10d-08b3-40d5-9b69-41b29cc5fc19" x="280.05" y="267.43" width="14.96" height="31.91" transform="translate(-43.64 52.5) rotate(-9.7)" fill="#404040"/><rect id="uuid-977689c9-9f6f-44fb-9951-da22a419c8f2" x="195.79" y="300.56" width="15.96" height="15.96" transform="translate(-130.07 467.5) rotate(-82.02)" fill="#eec6a2"/><rect id="uuid-bc2df671-1243-417c-a0ce-e2b02054d656" x="283.39" y="295.77" width="15.96" height="15.96" transform="translate(-47.01 53.43) rotate(-9.7)" fill="#eec6a2"/><polygon id="uuid-c12cc082-a2df-4fab-9c7c-5a4ae1693693" points="224 379 244 379 244 413.96 244 421 214 421 214 414 224 414 224 379" fill="none" stroke="#000" stroke-linecap="round" stroke-linejoin="round"/><rect id="uuid-cc767fc6-e173-43fb-8b40-a14ac62c0de7" x="224" y="340" width="20" height="39" fill="none" stroke="#000" stroke-linecap="round" stroke-linejoin="round"/><polygon id="uuid-ce5770b9-eeee-4b2e-bc9a-e02c9062550d" points="252 379 272 379 272 414 282 414 282 421 252 421 252 413.96 252 413.96 252 379" fill="none" stroke="#000" stroke-linecap="round" stroke-linejoin="round"/><rect id="uuid-f7c75638-2462-4681-8ccb-41734fe3ad97" x="252" y="340" width="20" height="39" fill="none" stroke="#000" stroke-linecap="round" stroke-linejoin="round"/><polygon id="uuid-f00db248-dd75-4ace-bd91-35517b0f63a1" points="238.14 295.88 238.11 296 238.22 296 245.42 257.52 240.17 249 256 249 250.76 257.52 257.95 296 258.06 296 258.04 295.88 258.06 296 257.93 296 248.09 308.81 238.24 296 238.11 296 238.14 295.88" fill="none" stroke="#000" stroke-linecap="round" stroke-linejoin="round"/><path id="uuid-4742c574-769e-4aea-9f1d-c65dddf17996" d="M276,240v100h-56v-100h56ZM248.09,289.93l19.77-48.93h-39.53l19.77,48.93h0Z" fill="none" stroke="#000" stroke-linecap="round" stroke-linejoin="round"/><path id="uuid-fc22b348-4b23-427d-a978-52710a9121ec" d="M220.91,228.79c-2.08-5.32-3.29-11.33-3.39-17.71-.32-22.03,12.81-40.08,29.33-40.33,16.52-.24,30.18,17.42,30.5,39.45.09,6.38-.95,12.42-2.86,17.8l-53.58.79h0Z" fill="none" stroke="#000" stroke-linecap="round" stroke-linejoin="round"/><path id="uuid-c3c4f5e8-2db3-456e-b8b7-2f462d2d8eaf" d="M273.16,233c-5.31,11.11-14.63,18.48-25.24,18.48s-19.93-7.37-25.24-18.48h50.48Z" fill="none" stroke="#000" stroke-linecap="round" stroke-linejoin="round"/><ellipse id="uuid-ff5128fa-1372-43be-a374-25c3a4d92b57" cx="253.98" cy="215.53" rx="2.99" ry="4.51" transform="translate(-16.36 20.92) rotate(-4.57)" fill="none" stroke="#000" stroke-linecap="round" stroke-linejoin="round" stroke-width="1"/><ellipse id="uuid-205d269b-1ac9-4721-b2d3-45f8c347eb4f" cx="267.98" cy="214.52" rx="2.99" ry="4.51" transform="translate(-16.24 22.03) rotate(-4.57)" fill="none" stroke="#000" stroke-linecap="round" stroke-linejoin="round" stroke-width="1"/><path id="uuid-7afede5d-f25e-464b-85c0-502dffaaee29" d="M221.01,179.42c9.52-10.59,29.09-10.37,38.78-10.26,12.13.14,26.37,2.35,26.76,6,.35,3.23-10.4,5.41-10.31,10.37.06,3.61,5.81,5.73,5.21,6.7-1.28,2.06-26.09-9.14-31.31-3.94-2.34,2.33.87,6.38-1.65,8.03-2.6,1.7-6.75-2.15-16.63-4.29-8.5-1.84-12.65-.55-14.3-2.98-2.2-3.23,2.82-8.93,3.45-9.63h0Z" fill="none" stroke="#000" stroke-linecap="round" stroke-linejoin="round"/><rect id="uuid-5edfdf9f-9054-4f32-9845-c517a804d94e" x="190.63" y="278.1" width="31.91" height="14.96" transform="translate(-104.91 450.52) rotate(-82.02)" fill="none" stroke="#000" stroke-linecap="round" stroke-linejoin="round" stroke-width="1"/><rect id="uuid-6a0db5c9-2421-4187-8863-491eebcfcb1b" x="196.06" y="247.95" width="31.91" height="14.96" transform="translate(-76.64 419.37) rotate(-79.9)" fill="none" stroke="#000" stroke-linecap="round" stroke-linejoin="round" stroke-width="1"/><rect id="uuid-104de985-8311-4674-a804-91e80f4bfa25" x="275.97" y="239.56" width="14.96" height="31.91" transform="translate(-30.02 37.87) rotate(-7.26)" fill="none" stroke="#000" stroke-linecap="round" stroke-linejoin="round" stroke-width="1"/><rect id="uuid-34679f1c-15ec-4b3e-88cd-3cfe4522d9f0" x="280.05" y="267.43" width="14.96" height="31.91" transform="translate(-43.64 52.5) rotate(-9.7)" fill="none" stroke="#000" stroke-linecap="round" stroke-linejoin="round" stroke-width="1"/><rect id="uuid-1d37e1c8-74ce-487a-9b50-9c9b2e3c638d" x="195.79" y="300.56" width="15.96" height="15.96" transform="translate(-130.07 467.5) rotate(-82.02)" fill="none" stroke="#000" stroke-linecap="round" stroke-linejoin="round" stroke-width="1"/><rect id="uuid-f31aa14d-ae51-4248-92ed-108034a208ab" x="283.39" y="295.77" width="15.96" height="15.96" transform="translate(-47.01 53.43) rotate(-9.7)" fill="none" stroke="#000" stroke-linecap="round" stroke-linejoin="round" stroke-width="1"/></g><circle cx="388" cy="167" r="35" fill="#b0bec5"/><circle cx="388" cy="167" r="28" fill="#fff3e0"/><path d="M379.05,138.93c-3.69,1.17-8.86,2.96-14.26,9.77-5.34,6.72-6.27,14.41-6.49,19.7,0,0-3.07,4.06-3.25,3.32-1.35-5.73.74-18.68,6.89-25.65,7.16-8.12,16.68-11.17,20.12-11.79.6-.11-1.9,4.3-3.02,4.66h0Z" fill="#eceff1" isolation="isolate" opacity=".64"/><circle cx="387.5" cy="167.5" r="26.5" fill="#fff"/><circle cx="388" cy="167" r="3" fill="#563428"/><path d="M387.21,147.2h0c-.54,0-.98-.41-1-.95l-.08-2.9c-.01-.54.41-.98.95-1h0c.54,0,.98.41,1,.95l.08,2.9c0,.54-.42.98-.95,1Z" fill="#b2947c"/><path d="M388.36,191.79h0c-.54,0-.98-.41-1-.95l-.08-2.9c-.01-.54.41-.98.95-1h0c.54,0,.98.41,1,.95l.08,2.9c0,.54-.42.98-.95,1Z" fill="#b2947c"/><path d="M411.49,167.43l-2.9.08c-.54,0-.98-.41-1-.95h0c-.01-.54.41-.98.95-1l2.9-.08c.54,0,.98.41,1,.95h0c.01.54-.41.98-.95,1Z" fill="#b2947c"/><path d="M366.9,168.58l-2.9.08c-.54,0-.98-.41-1-.95h0c-.01-.54.41-.98.95-1l2.9-.08c.54,0,.98.41,1,.95h0c.01.54-.41.98-.95,1Z" fill="#b2947c"/><path d="M387.21,147.2h0c-.54,0-.98-.41-1-.95l-.08-2.9c-.01-.54.41-.98.95-1h0c.54,0,.98.41,1,.95l.08,2.9c0,.54-.42.98-.95,1Z" fill="#b2947c"/><path d="M388.36,191.79h0c-.54,0-.98-.41-1-.95l-.08-2.9c-.01-.54.41-.98.95-1h0c.54,0,.98.41,1,.95l.08,2.9c0,.54-.42.98-.95,1Z" fill="#b2947c"/><path d="M376,149.8l-1.51-2.48c-.28-.46-.14-1.06.32-1.33h0c.46-.28,1.06-.14,1.33.32l1.51,2.48c.28.46.14,1.06-.32,1.33h0c-.46.28-1.05.14-1.33-.32Z" fill="#b2947c"/><path d="M399.3,187.84l-1.51-2.48c-.28-.46-.14-1.06.32-1.33h0c.46-.28,1.06-.14,1.33.32l1.51,2.48c.28.46.14,1.06-.32,1.33h0c-.46.28-1.05.14-1.33-.32Z" fill="#b2947c"/><path d="M376,149.8l-1.51-2.48c-.28-.46-.14-1.06.32-1.33h0c.46-.28,1.06-.14,1.33.32l1.51,2.48c.28.46.14,1.06-.32,1.33h0c-.46.28-1.05.14-1.33-.32Z" fill="#b2947c"/><path d="M399.3,187.84l-1.51-2.48c-.28-.46-.14-1.06.32-1.33h0c.46-.28,1.06-.14,1.33.32l1.51,2.48c.28.46.14,1.06-.32,1.33h0c-.46.28-1.05.14-1.33-.32Z" fill="#b2947c"/><path d="M368.94,157.97l-2.55-1.38c-.47-.25-.65-.84-.39-1.31h0c.25-.47.84-.65,1.31-.39l2.55,1.38c.47.25.65.84.39,1.31h0c-.26.46-.84.64-1.31.39Z" fill="#b2947c"/><path d="M408.13,179.27l-2.55-1.38c-.47-.25-.65-.84-.39-1.31h0c.25-.47.84-.65,1.31-.39l2.55,1.38c.47.25.65.84.39,1.31h0c-.26.47-.84.64-1.31.39Z" fill="#b2947c"/><path d="M397.21,149.6h0c-.47-.25-.65-.84-.39-1.31l1.38-2.55c.25-.47.84-.65,1.31-.39h0c.47.25.65.84.39,1.31l-1.38,2.55c-.25.47-.84.64-1.31.39Z" fill="#b2947c"/><path d="M375.92,188.8h0c-.47-.25-.65-.84-.39-1.31l1.38-2.55c.25-.47.84-.65,1.31-.39h0c.47.25.65.84.39,1.31l-1.38,2.55c-.26.47-.84.64-1.31.39Z" fill="#b2947c"/><path d="M404.67,156.69h0c-.28-.46-.14-1.06.32-1.33l2.48-1.51c.46-.28,1.06-.14,1.33.32h0c.28.46.14,1.06-.32,1.33l-2.48,1.51c-.46.28-1.05.14-1.33-.32Z" fill="#b2947c"/><path d="M366.64,179.99h0c-.28-.46-.14-1.06.32-1.33l2.48-1.51c.46-.28,1.06-.14,1.33.32h0c.28.46.14,1.06-.32,1.33l-2.48,1.51c-.46.28-1.06.14-1.33-.32Z" fill="#b2947c"/><path d="M387.72,168.07c-.16,0-.32-.04-.47-.12l-10.85-5.79c-.49-.26-.67-.87-.41-1.35.26-.49.87-.67,1.35-.41l10.85,5.79c.49.26.67.87.41,1.35-.18.34-.53.53-.88.53Z" fill="#563428"/><path d="M388.21,168.06c-.33,0-.66-.17-.85-.47-.29-.47-.15-1.08.31-1.38l14.57-9.15c.47-.3,1.09-.15,1.38.31.29.47.15,1.08-.31,1.38l-14.57,9.15c-.17.1-.35.15-.53.15Z" fill="#563428"/><circle cx="388" cy="167" r="35" fill="none" stroke="#000" stroke-linecap="round" stroke-linejoin="round"/><circle cx="388" cy="167" r="28" fill="none" stroke="#000" stroke-linecap="round" stroke-linejoin="round"/><path d="M379.05,138.93c-3.69,1.17-8.86,2.96-14.26,9.77-5.34,6.72-6.27,14.41-6.49,19.7,0,0-3.07,4.06-3.25,3.32-1.35-5.73.74-18.68,6.89-25.65,7.16-8.12,16.68-11.17,20.12-11.79.6-.11-1.9,4.3-3.02,4.66h0Z" fill="none" stroke="#000" stroke-linecap="round" stroke-linejoin="round"/><circle cx="387.5" cy="167.5" r="26.5" fill="none" stroke="#000" stroke-linecap="round" stroke-linejoin="round"/><circle cx="388" cy="167" r="3" fill="none" stroke="#000" stroke-linecap="round" stroke-linejoin="round"/><path d="M387.21,147.2h0c-.54,0-.98-.41-1-.95l-.08-2.9c-.01-.54.41-.98.95-1h0c.54,0,.98.41,1,.95l.08,2.9c0,.54-.42.98-.95,1Z" fill="none" stroke="#000" stroke-linecap="round" stroke-linejoin="round"/><path d="M388.36,191.79h0c-.54,0-.98-.41-1-.95l-.08-2.9c-.01-.54.41-.98.95-1h0c.54,0,.98.41,1,.95l.08,2.9c0,.54-.42.98-.95,1Z" fill="none" stroke="#000" stroke-linecap="round" stroke-linejoin="round"/><path d="M411.49,167.43l-2.9.08c-.54,0-.98-.41-1-.95h0c-.01-.54.41-.98.95-1l2.9-.08c.54,0,.98.41,1,.95h0c.01.54-.41.98-.95,1Z" fill="none" stroke="#000" stroke-linecap="round" stroke-linejoin="round"/><path d="M366.9,168.58l-2.9.08c-.54,0-.98-.41-1-.95h0c-.01-.54.41-.98.95-1l2.9-.08c.54,0,.98.41,1,.95h0c.01.54-.41.98-.95,1Z" fill="none" stroke="#000" stroke-linecap="round" stroke-linejoin="round"/><path d="M387.21,147.2h0c-.54,0-.98-.41-1-.95l-.08-2.9c-.01-.54.41-.98.95-1h0c.54,0,.98.41,1,.95l.08,2.9c0,.54-.42.98-.95,1Z" fill="none" stroke="#000" stroke-linecap="round" stroke-linejoin="round"/><path d="M388.36,191.79h0c-.54,0-.98-.41-1-.95l-.08-2.9c-.01-.54.41-.98.95-1h0c.54,0,.98.41,1,.95l.08,2.9c0,.54-.42.98-.95,1Z" fill="none" stroke="#000" stroke-linecap="round" stroke-linejoin="round"/><path d="M376,149.8l-1.51-2.48c-.28-.46-.14-1.06.32-1.33h0c.46-.28,1.06-.14,1.33.32l1.51,2.48c.28.46.14,1.06-.32,1.33h0c-.46.28-1.05.14-1.33-.32Z" fill="none" stroke="#000" stroke-linecap="round" stroke-linejoin="round"/><path d="M399.3,187.84l-1.51-2.48c-.28-.46-.14-1.06.32-1.33h0c.46-.28,1.06-.14,1.33.32l1.51,2.48c.28.46.14,1.06-.32,1.33h0c-.46.28-1.05.14-1.33-.32Z" fill="none" stroke="#000" stroke-linecap="round" stroke-linejoin="round"/><path d="M376,149.8l-1.51-2.48c-.28-.46-.14-1.06.32-1.33h0c.46-.28,1.06-.14,1.33.32l1.51,2.48c.28.46.14,1.06-.32,1.33h0c-.46.28-1.05.14-1.33-.32Z" fill="none" stroke="#000" stroke-linecap="round" stroke-linejoin="round"/><path d="M399.3,187.84l-1.51-2.48c-.28-.46-.14-1.06.32-1.33h0c.46-.28,1.06-.14,1.33.32l1.51,2.48c.28.46.14,1.06-.32,1.33h0c-.46.28-1.05.14-1.33-.32Z" fill="none" stroke="#000" stroke-linecap="round" stroke-linejoin="round"/><path d="M368.94,157.97l-2.55-1.38c-.47-.25-.65-.84-.39-1.31h0c.25-.47.84-.65,1.31-.39l2.55,1.38c.47.25.65.84.39,1.31h0c-.26.46-.84.64-1.31.39Z" fill="none" stroke="#000" stroke-linecap="round" stroke-linejoin="round"/><path d="M408.13,179.27l-2.55-1.38c-.47-.25-.65-.84-.39-1.31h0c.25-.47.84-.65,1.31-.39l2.55,1.38c.47.25.65.84.39,1.31h0c-.26.47-.84.64-1.31.39Z" fill="none" stroke="#000" stroke-linecap="round" stroke-linejoin="round"/><path d="M397.21,149.6h0c-.47-.25-.65-.84-.39-1.31l1.38-2.55c.25-.47.84-.65,1.31-.39h0c.47.25.65.84.39,1.31l-1.38,2.55c-.25.47-.84.64-1.31.39Z" fill="none" stroke="#000" stroke-linecap="round" stroke-linejoin="round"/><path d="M375.92,188.8h0c-.47-.25-.65-.84-.39-1.31l1.38-2.55c.25-.47.84-.65,1.31-.39h0c.47.25.65.84.39,1.31l-1.38,2.55c-.26.47-.84.64-1.31.39Z" fill="none" stroke="#000" stroke-linecap="round" stroke-linejoin="round"/><path d="M404.67,156.69h0c-.28-.46-.14-1.06.32-1.33l2.48-1.51c.46-.28,1.06-.14,1.33.32h0c.28.46.14,1.06-.32,1.33l-2.48,1.51c-.46.28-1.05.14-1.33-.32Z" fill="none" stroke="#000" stroke-linecap="round" stroke-linejoin="round"/><path d="M366.64,179.99h0c-.28-.46-.14-1.06.32-1.33l2.48-1.51c.46-.28,1.06-.14,1.33.32h0c.28.46.14,1.06-.32,1.33l-2.48,1.51c-.46.28-1.06.14-1.33-.32Z" fill="none" stroke="#000" stroke-linecap="round" stroke-linejoin="round"/><g id="uuid-6a0f18bf-bbc1-4758-8737-bed81de31e02"><polygon id="uuid-4cbb0aa4-df95-40bb-9d69-eb104b767be2" points="100 379 120 379 120 413.96 120 421 90 421 90 414 100 414 100 379" fill="#9c9caf"/><rect id="uuid-4b20ee9d-4b16-489a-ac26-8240d2191991" x="100" y="340" width="20" height="39" fill="#9c9caf"/><polygon id="uuid-274b648c-3667-4aee-8ece-8b31d0f3b98b" points="128 379 148 379 148 414 158 414 158 421 128 421 128 413.96 128 413.96 128 379" fill="#9c9caf"/><rect id="uuid-7883a3cf-1d63-48ce-8465-d030f8530356" x="128" y="340" width="20" height="39" fill="#9c9caf"/><polygon id="uuid-e724424f-3305-4a1b-b9d5-52b0709d63c0" points="114.54 295.88 114.51 296 114.62 296 121.81 257.52 116.57 249 132.4 249 127.16 257.52 134.35 296 134.46 296 134.43 295.88 134.46 296 134.33 296 124.48 308.81 114.64 296 114.51 296 114.54 295.88" fill="#c1272d"/><path id="uuid-d91fdf5c-a88c-4ef9-a16e-7dcfc7dc0070" d="M152,240v100h-56v-100h56ZM124.48,289.93l19.77-48.93h-39.53l19.77,48.93h-.01Z" fill="#9c9caf"/><path id="uuid-66fa702e-4894-4e57-8f39-2d434a45fb4a" d="M97.3,226.91c-1.88-5.39-2.88-11.44-2.74-17.82.48-22.03,14.27-39.59,30.79-39.23s29.52,18.51,29.04,40.54c-.14,6.38-1.4,12.38-3.52,17.68l-53.57-1.17h0Z" fill="#eec6a2"/><path id="uuid-917865a9-7be7-471d-9134-f6b9104b24ff" d="M149.56,233c-5.31,11.11-14.63,18.48-25.24,18.48s-19.93-7.37-25.24-18.48h50.48Z" fill="#eec6a2"/><ellipse id="uuid-7a8384de-19d7-4d93-aec6-d35c605333e6" cx="124" cy="211.49" rx="4.53" ry="2.95" transform="translate(-104.95 299.16) rotate(-80.57)" fill="#333"/><ellipse id="uuid-9cfb10a8-ff9d-4a04-b379-13f3e7a52ac9" cx="141" cy="210.49" rx="4.53" ry="2.95" transform="translate(-89.75 315.1) rotate(-80.57)" fill="#333"/><path id="uuid-ba941fe9-f5da-48b7-996a-813fa36f3b46" d="M99.14,179.69c9.9-10.24,29.45-9.3,39.13-8.83,12.12.58,26.26,3.32,26.53,6.98.23,3.24-10.59,5.03-10.69,9.99-.07,3.61,5.59,5.94,4.96,6.88-1.35,2.01-25.74-10.09-31.14-5.09-2.43,2.25.64,6.41-1.94,7.96-2.66,1.61-6.67-2.4-16.46-4.89-8.43-2.15-12.62-1.01-14.18-3.5-2.08-3.31,3.15-8.83,3.8-9.5h-.01Z" fill="#534741"/><rect id="uuid-d724511d-6028-49d1-b124-11c8c55de125" x="81.39" y="265.8" width="14.96" height="31.91" transform="translate(-70.2 32.8) rotate(-15.07)" fill="#9c9caf"/><rect id="uuid-a093ca49-dc59-4438-9290-70ca980ec043" x="72" y="246.84" width="31.91" height="14.96" transform="translate(-177.85 296.31) rotate(-79.9)" fill="#9c9caf"/><rect id="uuid-e7ce971d-709a-410e-8b8a-f034ecbd8209" x="151.47" y="238.62" width="14.96" height="31.91" transform="translate(-53.27 42.36) rotate(-13.02)" fill="#9c9caf"/><rect id="uuid-263d2a28-2833-4a38-9b16-d6f647110eed" x="146.44" y="276.29" width="31.91" height="14.96" transform="translate(-127.43 435.1) rotate(-87.79)" fill="#9c9caf"/><rect id="uuid-d541b436-c091-4be1-87a0-95c5c4a7c177" x="86.67" y="295.24" width="15.96" height="15.96" transform="translate(-75.58 35.04) rotate(-15.07)" fill="#eec6a2"/><rect id="uuid-968ebf6d-5474-4fc0-a012-dce6d9ea7f5a" x="154.26" y="299.07" width="15.96" height="15.96" transform="translate(-13.97 7.8) rotate(-2.64)" fill="#eec6a2"/><polygon id="uuid-d54b365e-679f-4b78-ae0e-ea2593370b92" points="100 379 120 379 120 413.96 120 421 90 421 90 414 100 414 100 379" fill="none" stroke="#000" stroke-linecap="round" stroke-linejoin="round"/><rect id="uuid-cfbc47e3-74f5-47cd-8f5e-34a61c8c76ac" x="100" y="340" width="20" height="39" fill="none" stroke="#000" stroke-linecap="round" stroke-linejoin="round"/><polygon id="uuid-7fd9324d-e5b1-4837-b0cf-8ddc74771a2b" points="128 379 148 379 148 414 158 414 158 421 128 421 128 413.96 128 413.96 128 379" fill="none" stroke="#000" stroke-linecap="round" stroke-linejoin="round"/><rect id="uuid-b4968ad9-f36b-40c5-8d5d-4bfc6a4bb62e" x="128" y="340" width="20" height="39" fill="none" stroke="#000" stroke-linecap="round" stroke-linejoin="round"/><polygon id="uuid-49db7304-95a3-45f1-a157-6238a2c7de94" points="114.54 295.88 114.51 296 114.62 296 121.81 257.52 116.57 249 132.4 249 127.16 257.52 134.35 296 134.46 296 134.43 295.88 134.46 296 134.33 296 124.48 308.81 114.64 296 114.51 296 114.54 295.88" fill="none" stroke="#000" stroke-linecap="round" stroke-linejoin="round"/><path id="uuid-ae847715-3856-4e05-98d8-91d4c2e9f73f" d="M152,240v100h-56v-100h56ZM124.48,289.93l19.77-48.93h-39.53l19.77,48.93h-.01Z" fill="none" stroke="#000" stroke-linecap="round" stroke-linejoin="round"/><path id="uuid-b0df3f26-851c-47f1-9bba-3640b3622c32" d="M97.3,226.91c-1.88-5.39-2.88-11.44-2.74-17.82.48-22.03,14.27-39.59,30.79-39.23s29.52,18.51,29.04,40.54c-.14,6.38-1.4,12.38-3.52,17.68l-53.57-1.17h0Z" fill="none" stroke="#000" stroke-linecap="round" stroke-linejoin="round"/><path id="uuid-445e6ed5-a44d-4c04-b8ac-070d47d020ab" d="M149.56,233c-5.31,11.11-14.63,18.48-25.24,18.48s-19.93-7.37-25.24-18.48h50.48Z" fill="none" stroke="#000" stroke-linecap="round" stroke-linejoin="round"/><ellipse id="uuid-8b65ab6e-732d-4628-b84e-abdc6f33d314" cx="124" cy="211.49" rx="4.53" ry="2.95" transform="translate(-104.95 299.16) rotate(-80.57)" fill="none" stroke="#000" stroke-linecap="round" stroke-linejoin="round" stroke-width="1"/><ellipse id="uuid-37d515ef-39fa-4e68-a6ef-c48a8149f623" cx="141" cy="210.49" rx="4.53" ry="2.95" transform="translate(-89.75 315.1) rotate(-80.57)" fill="none" stroke="#000" stroke-linecap="round" stroke-linejoin="round" stroke-width="1"/><path id="uuid-a83e0e1d-40ec-466e-9743-013841483533" d="M99.14,179.69c9.9-10.24,29.45-9.3,39.13-8.83,12.12.58,26.26,3.32,26.53,6.98.23,3.24-10.59,5.03-10.69,9.99-.07,3.61,5.59,5.94,4.96,6.88-1.35,2.01-25.74-10.09-31.14-5.09-2.43,2.25.64,6.41-1.94,7.96-2.66,1.61-6.67-2.4-16.46-4.89-8.43-2.15-12.62-1.01-14.18-3.5-2.08-3.31,3.15-8.83,3.8-9.5h-.01Z" fill="none" stroke="#000" stroke-linecap="round" stroke-linejoin="round"/><rect id="uuid-f0456925-3c35-4c81-a7f6-a1e5b38b7840" x="81.39" y="265.8" width="14.96" height="31.91" transform="translate(-70.2 32.8) rotate(-15.07)" fill="none" stroke="#000" stroke-linecap="round" stroke-linejoin="round" stroke-width="1"/><rect id="uuid-473041ea-102e-45ce-b83a-687539eff2ce" x="72" y="246.84" width="31.91" height="14.96" transform="translate(-177.85 296.31) rotate(-79.9)" fill="none" stroke="#000" stroke-linecap="round" stroke-linejoin="round" stroke-width="1"/><rect id="uuid-939d3652-8c1b-487e-963c-f413c284aebd" x="151.47" y="238.62" width="14.96" height="31.91" transform="translate(-53.27 42.36) rotate(-13.02)" fill="none" stroke="#000" stroke-linecap="round" stroke-linejoin="round" stroke-width="1"/><rect id="uuid-9ea8e0d7-4faa-4c85-898c-039ae9a269a3" x="146.44" y="276.29" width="31.91" height="14.96" transform="translate(-127.43 435.1) rotate(-87.79)" fill="none" stroke="#000" stroke-linecap="round" stroke-linejoin="round" stroke-width="1"/><rect id="uuid-3ab38f0d-0aaf-4304-838b-ac9abd0a7240" x="86.67" y="295.24" width="15.96" height="15.96" transform="translate(-75.58 35.04) rotate(-15.07)" fill="none" stroke="#000" stroke-linecap="round" stroke-linejoin="round" stroke-width="1"/><rect id="uuid-86d4d8f1-8085-48fa-bf7b-f99e44b21ead" x="154.26" y="299.07" width="15.96" height="15.96" transform="translate(-13.97 7.8) rotate(-2.64)" fill="none" stroke="#000" stroke-linecap="round" stroke-linejoin="round" stroke-width="1"/></g></svg>