<?xml version="1.0" encoding="UTF-8"?><svg id="uuid-72709469-e7a1-49a4-9439-43e6431a9171" xmlns="http://www.w3.org/2000/svg" viewBox="0 0 500 500"><text transform="translate(80.58 98.55)" fill="#333" font-family="ComicNeue-Regular, &apos;Comic Neue&apos;" font-size="24"><tspan x="0" y="0">But no one could </tspan><tspan x="0" y="28.8">do anything...</tspan></text><g id="uuid-e71ff64c-f133-4c76-8ca2-306e1bd5400e"><polygon id="uuid-0c660e55-737b-4ba0-95ad-df5bafe4796d" points="224 379 244 379 244 413.96 244 421 214 421 214 414 224 414 224 379" fill="#404040"/><rect id="uuid-dd7d1895-eb5a-40ca-928b-26de5e2c2f03" x="224" y="340" width="20" height="39" fill="#404040"/><polygon id="uuid-fcffbc76-bf89-4f0c-81fa-ae265131b6cb" points="252 379 272 379 272 414 282 414 282 421 252 421 252 413.96 252 413.96 252 379" fill="#404040"/><rect id="uuid-f34679ea-de6d-4971-b772-8f2547b48bcd" x="252" y="340" width="20" height="39" fill="#404040"/><polygon id="uuid-06c5432f-7ff1-4eb7-aae3-76af1e0b9fca" points="238.14 295.88 238.11 296 238.22 296 245.42 257.52 240.17 249 256 249 250.76 257.52 257.95 296 258.06 296 258.04 295.88 258.06 296 257.93 296 248.09 308.81 238.24 296 238.11 296 238.14 295.88" fill="#c1272d"/><path id="uuid-9fe36978-47d1-402d-a253-aa7d9d3a9f4e" d="M276,240v100h-56v-100h56ZM248.09,289.93l19.77-48.93h-39.53l19.77,48.93Z" fill="#404040"/><path id="uuid-90e41b28-5060-49bf-bb7c-741a55c7811b" d="M220.91,228.79c-2.08-5.32-3.29-11.33-3.39-17.71-.32-22.03,12.81-40.08,29.33-40.33,16.52-.24,30.18,17.42,30.5,39.45.09,6.38-.95,12.42-2.86,17.8l-53.58.79Z" fill="#eec6a2"/><path id="uuid-1bebe938-da98-4d4f-ad96-7745ee65f641" d="M273.16,233c-5.31,11.11-14.63,18.48-25.24,18.48s-19.93-7.37-25.24-18.48h50.48Z" fill="#eec6a2"/><ellipse id="uuid-2e9b97d4-6c94-4482-a0cd-82e1823b0df6" cx="254" cy="215.5" rx="2.99" ry="4.51" transform="translate(-16.38 20.95) rotate(-4.57)" fill="#333"/><ellipse id="uuid-fca79efd-fee2-40a2-a2f4-758b961ff7c4" cx="268" cy="214.5" rx="2.99" ry="4.51" transform="translate(-16.26 22.06) rotate(-4.57)" fill="#333"/><path id="uuid-00733283-b0be-4fe6-9529-ce00553b1a66" d="M221.01,179.42c9.52-10.59,29.09-10.37,38.78-10.26,12.13.14,26.37,2.35,26.76,6,.35,3.23-10.4,5.41-10.31,10.37.06,3.61,5.81,5.73,5.21,6.7-1.28,2.06-26.09-9.14-31.31-3.94-2.34,2.33.87,6.38-1.65,8.03-2.6,1.7-6.75-2.15-16.63-4.29-8.5-1.84-12.65-.55-14.3-2.98-2.2-3.23,2.82-8.93,3.45-9.63Z" fill="#534741"/><rect id="uuid-aa78fbb1-8e21-4a0a-934a-fd3dcff9c931" x="190.62" y="278.11" width="31.91" height="14.96" transform="translate(-104.92 450.51) rotate(-82.02)" fill="#404040"/><rect id="uuid-f0e94aa5-54c5-48d3-9fd8-43971cb8477f" x="196.06" y="247.95" width="31.91" height="14.96" transform="translate(-76.64 419.37) rotate(-79.9)" fill="#404040"/><rect id="uuid-8a4e0b77-53f0-408b-8dc9-91d9f583664a" x="275.96" y="239.57" width="14.96" height="31.91" transform="translate(-30.01 37.86) rotate(-7.26)" fill="#404040"/><rect id="uuid-2769db8a-e802-409c-947d-8e98c370a7e9" x="280.04" y="267.45" width="14.96" height="31.91" transform="translate(-43.63 52.48) rotate(-9.7)" fill="#404040"/><rect id="uuid-22ed7628-3238-41f5-948b-198b89be5dc3" x="195.8" y="300.57" width="15.96" height="15.96" transform="translate(-130.08 467.51) rotate(-82.02)" fill="#eec6a2"/><rect id="uuid-06cde93a-b853-45a2-91b9-008a762179ac" x="283.37" y="295.79" width="15.96" height="15.96" transform="translate(-47 53.41) rotate(-9.7)" fill="#eec6a2"/><polygon id="uuid-3741c537-98aa-405f-b509-d362ab13ff5b" points="224 379 244 379 244 413.96 244 421 214 421 214 414 224 414 224 379" fill="none" stroke="#000" stroke-linecap="round" stroke-linejoin="round"/><rect id="uuid-78d019c1-18da-4781-bf07-86cafe403c62" x="224" y="340" width="20" height="39" fill="none" stroke="#000" stroke-linecap="round" stroke-linejoin="round"/><polygon id="uuid-4ad06f14-31b5-48b8-b06d-26cdb795948c" points="252 379 272 379 272 414 282 414 282 421 252 421 252 413.96 252 413.96 252 379" fill="none" stroke="#000" stroke-linecap="round" stroke-linejoin="round"/><rect id="uuid-31b12faa-2b1b-4a14-8c24-afa4f49c19b2" x="252" y="340" width="20" height="39" fill="none" stroke="#000" stroke-linecap="round" stroke-linejoin="round"/><polygon id="uuid-d609c5b9-0dae-44d3-a557-929b2ab7de5c" points="238.14 295.88 238.11 296 238.22 296 245.42 257.52 240.17 249 256 249 250.76 257.52 257.95 296 258.06 296 258.04 295.88 258.06 296 257.93 296 248.09 308.81 238.24 296 238.11 296 238.14 295.88" fill="none" stroke="#000" stroke-linecap="round" stroke-linejoin="round"/><path id="uuid-c9c5b992-067b-4aa0-ab16-7c4586f68e20" d="M276,240v100h-56v-100h56ZM248.09,289.93l19.77-48.93h-39.53l19.77,48.93Z" fill="none" stroke="#000" stroke-linecap="round" stroke-linejoin="round"/><path id="uuid-4f55891e-2e9a-4bc0-82bf-28bb54d7f582" d="M220.91,228.79c-2.08-5.32-3.29-11.33-3.39-17.71-.32-22.03,12.81-40.08,29.33-40.33,16.52-.24,30.18,17.42,30.5,39.45.09,6.38-.95,12.42-2.86,17.8l-53.58.79Z" fill="none" stroke="#000" stroke-linecap="round" stroke-linejoin="round"/><path id="uuid-5828a4d3-1bb6-4df4-a89e-c60040d1898b" d="M273.16,233c-5.31,11.11-14.63,18.48-25.24,18.48s-19.93-7.37-25.24-18.48h50.48Z" fill="none" stroke="#000" stroke-linecap="round" stroke-linejoin="round"/><ellipse id="uuid-8f77935d-5ebc-4435-aa6e-9581e364d542" cx="254" cy="215.5" rx="2.99" ry="4.51" transform="translate(-16.38 20.95) rotate(-4.57)" fill="none" stroke="#000" stroke-linecap="round" stroke-linejoin="round"/><ellipse id="uuid-281fcea7-143e-4e4f-b544-0bc57f45e355" cx="268" cy="214.5" rx="2.99" ry="4.51" transform="translate(-16.26 22.06) rotate(-4.57)" fill="none" stroke="#000" stroke-linecap="round" stroke-linejoin="round"/><path id="uuid-43b6514d-4429-4fc2-aa38-19fbd449ed10" d="M221.01,179.42c9.52-10.59,29.09-10.37,38.78-10.26,12.13.14,26.37,2.35,26.76,6,.35,3.23-10.4,5.41-10.31,10.37.06,3.61,5.81,5.73,5.21,6.7-1.28,2.06-26.09-9.14-31.31-3.94-2.34,2.33.87,6.38-1.65,8.03-2.6,1.7-6.75-2.15-16.63-4.29-8.5-1.84-12.65-.55-14.3-2.98-2.2-3.23,2.82-8.93,3.45-9.63Z" fill="none" stroke="#000" stroke-linecap="round" stroke-linejoin="round"/><rect id="uuid-e7af906e-0b47-4ad6-a0bf-77068f3e4c8c" x="190.62" y="278.11" width="31.91" height="14.96" transform="translate(-104.92 450.51) rotate(-82.02)" fill="none" stroke="#000" stroke-linecap="round" stroke-linejoin="round"/><rect id="uuid-441accb1-8e8a-4866-9e94-f68ba0775f7e" x="196.06" y="247.95" width="31.91" height="14.96" transform="translate(-76.64 419.37) rotate(-79.9)" fill="none" stroke="#000" stroke-linecap="round" stroke-linejoin="round"/><rect id="uuid-1d4ad992-bf35-4eec-8e78-3708866afb85" x="275.96" y="239.57" width="14.96" height="31.91" transform="translate(-30.01 37.86) rotate(-7.26)" fill="none" stroke="#000" stroke-linecap="round" stroke-linejoin="round"/><rect id="uuid-5acdfcb4-46e8-429d-a5d5-9b635d842c60" x="280.04" y="267.45" width="14.96" height="31.91" transform="translate(-43.63 52.48) rotate(-9.7)" fill="none" stroke="#000" stroke-linecap="round" stroke-linejoin="round"/><rect id="uuid-b9b54f41-6319-49bb-915c-98210543e44a" x="195.8" y="300.57" width="15.96" height="15.96" transform="translate(-130.08 467.51) rotate(-82.02)" fill="none" stroke="#000" stroke-linecap="round" stroke-linejoin="round"/><rect id="uuid-9ed31051-34bb-4556-b977-51d3ae235640" x="283.37" y="295.79" width="15.96" height="15.96" transform="translate(-47 53.41) rotate(-9.7)" fill="none" stroke="#000" stroke-linecap="round" stroke-linejoin="round"/></g><circle cx="388" cy="167" r="35" fill="#b0bec5"/><circle cx="388" cy="167" r="28" fill="#fff3e0"/><path d="M379.05,138.93c-3.69,1.17-8.86,2.96-14.26,9.77-5.34,6.72-6.27,14.41-6.49,19.7,0,0-3.07,4.06-3.25,3.32-1.35-5.73.74-18.68,6.89-25.65,7.16-8.12,16.68-11.17,20.12-11.79.6-.11-1.9,4.3-3.02,4.66Z" fill="#eceff1" isolation="isolate" opacity=".64"/><circle cx="387.5" cy="167.5" r="26.5" fill="#fff"/><circle cx="388" cy="167" r="3" fill="#563428"/><path d="M387.21,147.2h0c-.54.01-.98-.41-1-.95l-.08-2.9c-.01-.54.41-.98.95-1h0c.54-.01.98.41,1,.95l.08,2.9c0,.54-.42.98-.95,1Z" fill="#b2947c"/><path d="M388.36,191.79h0c-.54.01-.98-.41-1-.95l-.08-2.9c-.01-.54.41-.98.95-1h0c.54-.01.98.41,1,.95l.08,2.9c0,.54-.42.98-.95,1Z" fill="#b2947c"/><path d="M411.49,167.43l-2.9.08c-.54.01-.98-.41-1-.95h0c-.01-.54.41-.98.95-1l2.9-.08c.54-.01.98.41,1,.95h0c.01.54-.41.98-.95,1Z" fill="#b2947c"/><path d="M366.9,168.58l-2.9.08c-.54.01-.98-.41-1-.95h0c-.01-.54.41-.98.95-1l2.9-.08c.54-.01.98.41,1,.95h0c.01.54-.41.98-.95,1Z" fill="#b2947c"/><path d="M387.21,147.2h0c-.54.01-.98-.41-1-.95l-.08-2.9c-.01-.54.41-.98.95-1h0c.54-.01.98.41,1,.95l.08,2.9c0,.54-.42.98-.95,1Z" fill="#b2947c"/><path d="M388.36,191.79h0c-.54.01-.98-.41-1-.95l-.08-2.9c-.01-.54.41-.98.95-1h0c.54-.01.98.41,1,.95l.08,2.9c0,.54-.42.98-.95,1Z" fill="#b2947c"/><path d="M376,149.8l-1.51-2.48c-.28-.46-.14-1.06.32-1.33h0c.46-.28,1.06-.14,1.33.32l1.51,2.48c.28.46.14,1.06-.32,1.33h0c-.46.28-1.05.14-1.33-.32Z" fill="#b2947c"/><path d="M399.3,187.84l-1.51-2.48c-.28-.46-.14-1.06.32-1.33h0c.46-.28,1.06-.14,1.33.32l1.51,2.48c.28.46.14,1.06-.32,1.33h0c-.46.28-1.05.14-1.33-.32Z" fill="#b2947c"/><path d="M376,149.8l-1.51-2.48c-.28-.46-.14-1.06.32-1.33h0c.46-.28,1.06-.14,1.33.32l1.51,2.48c.28.46.14,1.06-.32,1.33h0c-.46.28-1.05.14-1.33-.32Z" fill="#b2947c"/><path d="M399.3,187.84l-1.51-2.48c-.28-.46-.14-1.06.32-1.33h0c.46-.28,1.06-.14,1.33.32l1.51,2.48c.28.46.14,1.06-.32,1.33h0c-.46.28-1.05.14-1.33-.32Z" fill="#b2947c"/><path d="M368.94,157.97l-2.55-1.38c-.47-.25-.65-.84-.39-1.31h0c.25-.47.84-.65,1.31-.39l2.55,1.38c.47.25.65.84.39,1.31h0c-.26.46-.84.64-1.31.39Z" fill="#b2947c"/><path d="M408.13,179.27l-2.55-1.38c-.47-.25-.65-.84-.39-1.31h0c.25-.47.84-.65,1.31-.39l2.55,1.38c.47.25.65.84.39,1.31h0c-.26.47-.84.64-1.31.39Z" fill="#b2947c"/><path d="M397.21,149.6h0c-.47-.25-.65-.84-.39-1.31l1.38-2.55c.25-.47.84-.65,1.31-.39h0c.47.25.65.84.39,1.31l-1.38,2.55c-.25.47-.84.64-1.31.39Z" fill="#b2947c"/><path d="M375.92,188.8h0c-.47-.25-.65-.84-.39-1.31l1.38-2.55c.25-.47.84-.65,1.31-.39h0c.47.25.65.84.39,1.31l-1.38,2.55c-.26.47-.84.64-1.31.39Z" fill="#b2947c"/><path d="M404.67,156.69h0c-.28-.46-.14-1.06.32-1.33l2.48-1.51c.46-.28,1.06-.14,1.33.32h0c.28.46.14,1.06-.32,1.33l-2.48,1.51c-.46.28-1.05.14-1.33-.32Z" fill="#b2947c"/><path d="M366.64,179.99h0c-.28-.46-.14-1.06.32-1.33l2.48-1.51c.46-.28,1.06-.14,1.33.32h0c.28.46.14,1.06-.32,1.33l-2.48,1.51c-.46.28-1.06.14-1.33-.32Z" fill="#b2947c"/><line x1="376.87" y1="161.28" x2="387.72" y2="167.07" fill="none" stroke="#563428" stroke-linecap="round" stroke-miterlimit="10" stroke-width="2"/><line x1="402.78" y1="157.91" x2="388.21" y2="167.06" fill="none" stroke="#563428" stroke-linecap="round" stroke-miterlimit="10" stroke-width="2"/><circle cx="388" cy="167" r="35" fill="none" stroke="#000" stroke-linecap="round" stroke-linejoin="round"/><circle cx="388" cy="167" r="28" fill="none" stroke="#000" stroke-linecap="round" stroke-linejoin="round"/><path d="M379.05,138.93c-3.69,1.17-8.86,2.96-14.26,9.77-5.34,6.72-6.27,14.41-6.49,19.7,0,0-3.07,4.06-3.25,3.32-1.35-5.73.74-18.68,6.89-25.65,7.16-8.12,16.68-11.17,20.12-11.79.6-.11-1.9,4.3-3.02,4.66Z" fill="none" stroke="#000" stroke-linecap="round" stroke-linejoin="round"/><circle cx="387.5" cy="167.5" r="26.5" fill="none" stroke="#000" stroke-linecap="round" stroke-linejoin="round"/><circle cx="388" cy="167" r="3" fill="none" stroke="#000" stroke-linecap="round" stroke-linejoin="round"/><path d="M387.21,147.2h0c-.54.01-.98-.41-1-.95l-.08-2.9c-.01-.54.41-.98.95-1h0c.54-.01.98.41,1,.95l.08,2.9c0,.54-.42.98-.95,1Z" fill="none" stroke="#000" stroke-linecap="round" stroke-linejoin="round"/><path d="M388.36,191.79h0c-.54.01-.98-.41-1-.95l-.08-2.9c-.01-.54.41-.98.95-1h0c.54-.01.98.41,1,.95l.08,2.9c0,.54-.42.98-.95,1Z" fill="none" stroke="#000" stroke-linecap="round" stroke-linejoin="round"/><path d="M411.49,167.43l-2.9.08c-.54.01-.98-.41-1-.95h0c-.01-.54.41-.98.95-1l2.9-.08c.54-.01.98.41,1,.95h0c.01.54-.41.98-.95,1Z" fill="none" stroke="#000" stroke-linecap="round" stroke-linejoin="round"/><path d="M366.9,168.58l-2.9.08c-.54.01-.98-.41-1-.95h0c-.01-.54.41-.98.95-1l2.9-.08c.54-.01.98.41,1,.95h0c.01.54-.41.98-.95,1Z" fill="none" stroke="#000" stroke-linecap="round" stroke-linejoin="round"/><path d="M387.21,147.2h0c-.54.01-.98-.41-1-.95l-.08-2.9c-.01-.54.41-.98.95-1h0c.54-.01.98.41,1,.95l.08,2.9c0,.54-.42.98-.95,1Z" fill="none" stroke="#000" stroke-linecap="round" stroke-linejoin="round"/><path d="M388.36,191.79h0c-.54.01-.98-.41-1-.95l-.08-2.9c-.01-.54.41-.98.95-1h0c.54-.01.98.41,1,.95l.08,2.9c0,.54-.42.98-.95,1Z" fill="none" stroke="#000" stroke-linecap="round" stroke-linejoin="round"/><path d="M376,149.8l-1.51-2.48c-.28-.46-.14-1.06.32-1.33h0c.46-.28,1.06-.14,1.33.32l1.51,2.48c.28.46.14,1.06-.32,1.33h0c-.46.28-1.05.14-1.33-.32Z" fill="none" stroke="#000" stroke-linecap="round" stroke-linejoin="round"/><path d="M399.3,187.84l-1.51-2.48c-.28-.46-.14-1.06.32-1.33h0c.46-.28,1.06-.14,1.33.32l1.51,2.48c.28.46.14,1.06-.32,1.33h0c-.46.28-1.05.14-1.33-.32Z" fill="none" stroke="#000" stroke-linecap="round" stroke-linejoin="round"/><path d="M376,149.8l-1.51-2.48c-.28-.46-.14-1.06.32-1.33h0c.46-.28,1.06-.14,1.33.32l1.51,2.48c.28.46.14,1.06-.32,1.33h0c-.46.28-1.05.14-1.33-.32Z" fill="none" stroke="#000" stroke-linecap="round" stroke-linejoin="round"/><path d="M399.3,187.84l-1.51-2.48c-.28-.46-.14-1.06.32-1.33h0c.46-.28,1.06-.14,1.33.32l1.51,2.48c.28.46.14,1.06-.32,1.33h0c-.46.28-1.05.14-1.33-.32Z" fill="none" stroke="#000" stroke-linecap="round" stroke-linejoin="round"/><path d="M368.94,157.97l-2.55-1.38c-.47-.25-.65-.84-.39-1.31h0c.25-.47.84-.65,1.31-.39l2.55,1.38c.47.25.65.84.39,1.31h0c-.26.46-.84.64-1.31.39Z" fill="none" stroke="#000" stroke-linecap="round" stroke-linejoin="round"/><path d="M408.13,179.27l-2.55-1.38c-.47-.25-.65-.84-.39-1.31h0c.25-.47.84-.65,1.31-.39l2.55,1.38c.47.25.65.84.39,1.31h0c-.26.47-.84.64-1.31.39Z" fill="none" stroke="#000" stroke-linecap="round" stroke-linejoin="round"/><path d="M397.21,149.6h0c-.47-.25-.65-.84-.39-1.31l1.38-2.55c.25-.47.84-.65,1.31-.39h0c.47.25.65.84.39,1.31l-1.38,2.55c-.25.47-.84.64-1.31.39Z" fill="none" stroke="#000" stroke-linecap="round" stroke-linejoin="round"/><path d="M375.92,188.8h0c-.47-.25-.65-.84-.39-1.31l1.38-2.55c.25-.47.84-.65,1.31-.39h0c.47.25.65.84.39,1.31l-1.38,2.55c-.26.47-.84.64-1.31.39Z" fill="none" stroke="#000" stroke-linecap="round" stroke-linejoin="round"/><path d="M404.67,156.69h0c-.28-.46-.14-1.06.32-1.33l2.48-1.51c.46-.28,1.06-.14,1.33.32h0c.28.46.14,1.06-.32,1.33l-2.48,1.51c-.46.28-1.05.14-1.33-.32Z" fill="none" stroke="#000" stroke-linecap="round" stroke-linejoin="round"/><path d="M366.64,179.99h0c-.28-.46-.14-1.06.32-1.33l2.48-1.51c.46-.28,1.06-.14,1.33.32h0c.28.46.14,1.06-.32,1.33l-2.48,1.51c-.46.28-1.06.14-1.33-.32Z" fill="none" stroke="#000" stroke-linecap="round" stroke-linejoin="round"/><line x1="376.87" y1="161.28" x2="387.72" y2="167.07" fill="none" stroke="#000" stroke-linecap="round" stroke-linejoin="round"/><line x1="402.78" y1="157.91" x2="388.21" y2="167.06" fill="none" stroke="#000" stroke-linecap="round" stroke-linejoin="round"/><g id="uuid-5bdcc280-f152-43f7-bade-b63293f3417f"><polygon id="uuid-7cf19fcd-9151-4e5e-a112-83382c9904f4" points="100 379 120 379 120 413.96 120 421 90 421 90 414 100 414 100 379" fill="#9c9caf"/><rect id="uuid-bf3380aa-4717-4319-acc4-75c9eda33bd6" x="100" y="340" width="20" height="39" fill="#9c9caf"/><polygon id="uuid-7a7315bf-09b6-4c08-b109-b5ef02342be7" points="128 379 148 379 148 414 158 414 158 421 128 421 128 413.96 128 413.96 128 379" fill="#9c9caf"/><rect id="uuid-fc3631a6-74a1-4e92-9ec0-7679390256b3" x="128" y="340" width="20" height="39" fill="#9c9caf"/><polygon id="uuid-2c73ac58-538d-4723-9d3a-d0c37322d716" points="114.54 295.88 114.51 296 114.62 296 121.81 257.52 116.57 249 132.4 249 127.16 257.52 134.35 296 134.46 296 134.43 295.88 134.46 296 134.33 296 124.48 308.81 114.64 296 114.51 296 114.54 295.88" fill="#c1272d"/><path id="uuid-83f39a96-4ebc-4ff1-b6fd-e59a5bf71c06" d="M152,240v100h-56v-100h56ZM124.48,289.93l19.77-48.93h-39.53l19.77,48.93Z" fill="#9c9caf"/><path id="uuid-bd5cadb1-c3a0-44ba-82a7-146f79c007f8" d="M97.3,226.91c-1.88-5.39-2.88-11.44-2.74-17.82.48-22.03,14.27-39.59,30.79-39.23,16.52.36,29.52,18.51,29.04,40.54-.14,6.38-1.4,12.38-3.52,17.68l-53.57-1.17Z" fill="#eec6a2"/><path id="uuid-b9d14f30-b7da-47af-bbbb-8e14f2bcdca1" d="M149.56,233c-5.31,11.11-14.63,18.48-25.24,18.48s-19.93-7.37-25.24-18.48h50.48Z" fill="#eec6a2"/><ellipse id="uuid-d064862d-d5ad-4f3c-afa2-68cdac705d5b" cx="124" cy="211.5" rx="4.53" ry="2.95" transform="translate(-104.96 299.16) rotate(-80.57)" fill="#333"/><ellipse id="uuid-3a5af55d-6a09-4b0a-b7a7-8f4160f55b65" cx="141" cy="210.5" rx="4.53" ry="2.95" transform="translate(-89.76 315.1) rotate(-80.57)" fill="#333"/><path id="uuid-f180a758-83cc-4961-b816-75f4b7ee094f" d="M99.14,179.69c9.9-10.24,29.45-9.3,39.13-8.83,12.12.58,26.26,3.32,26.53,6.98.23,3.24-10.59,5.03-10.69,9.99-.07,3.61,5.59,5.94,4.96,6.88-1.35,2.01-25.74-10.09-31.14-5.09-2.43,2.25.64,6.41-1.94,7.96-2.66,1.61-6.67-2.4-16.46-4.89-8.43-2.15-12.62-1.01-14.18-3.5-2.08-3.31,3.15-8.83,3.8-9.5Z" fill="#534741"/><rect id="uuid-bb8e19fc-9641-47fb-b1f3-f59e0c38b8ca" x="81.4" y="265.8" width="14.96" height="31.91" transform="translate(-70.21 32.8) rotate(-15.07)" fill="#9c9caf"/><rect id="uuid-e8764c52-5736-4733-9d6e-8731c687933f" x="72" y="246.84" width="31.91" height="14.96" transform="translate(-177.85 296.31) rotate(-79.9)" fill="#9c9caf"/><rect id="uuid-2f93a3c2-3a6b-49a9-bb73-fd9bddf5d4e1" x="151.49" y="238.61" width="14.96" height="31.91" transform="translate(-53.28 42.37) rotate(-13.02)" fill="#9c9caf"/><rect id="uuid-4148ea16-8bd1-4549-81f3-ddb6b917c6ca" x="146.43" y="276.28" width="31.91" height="14.96" transform="translate(-127.42 435.09) rotate(-87.79)" fill="#9c9caf"/><rect id="uuid-570bc645-50de-49ff-ac90-760b9582bbe0" x="86.68" y="295.24" width="15.96" height="15.96" transform="translate(-75.59 35.04) rotate(-15.07)" fill="#eec6a2"/><rect id="uuid-651ea06f-b286-4ea7-ab45-2ad4d7d05199" x="154.27" y="299.06" width="15.96" height="15.96" transform="translate(-13.98 7.81) rotate(-2.64)" fill="#eec6a2"/><polygon id="uuid-4baa1e2b-993e-4656-8109-049094bb5fc4" points="100 379 120 379 120 413.96 120 421 90 421 90 414 100 414 100 379" fill="none" stroke="#000" stroke-linecap="round" stroke-linejoin="round"/><rect id="uuid-70f08742-933b-447e-951a-fb3709e0b96d" x="100" y="340" width="20" height="39" fill="none" stroke="#000" stroke-linecap="round" stroke-linejoin="round"/><polygon id="uuid-8556e17d-7586-4b6c-996e-f795392c1a47" points="128 379 148 379 148 414 158 414 158 421 128 421 128 413.96 128 413.96 128 379" fill="none" stroke="#000" stroke-linecap="round" stroke-linejoin="round"/><rect id="uuid-52521b98-46ed-4fd4-b4c7-42316973a38c" x="128" y="340" width="20" height="39" fill="none" stroke="#000" stroke-linecap="round" stroke-linejoin="round"/><polygon id="uuid-af216abe-6478-490b-b24d-be80fe7d48fb" points="114.54 295.88 114.51 296 114.62 296 121.81 257.52 116.57 249 132.4 249 127.16 257.52 134.35 296 134.46 296 134.43 295.88 134.46 296 134.33 296 124.48 308.81 114.64 296 114.51 296 114.54 295.88" fill="none" stroke="#000" stroke-linecap="round" stroke-linejoin="round"/><path id="uuid-633e448f-c455-46dc-8d6c-71170ae539af" d="M152,240v100h-56v-100h56ZM124.48,289.93l19.77-48.93h-39.53l19.77,48.93Z" fill="none" stroke="#000" stroke-linecap="round" stroke-linejoin="round"/><path id="uuid-4beabbcd-45bd-4252-8184-49e15ebbc3f0" d="M97.3,226.91c-1.88-5.39-2.88-11.44-2.74-17.82.48-22.03,14.27-39.59,30.79-39.23,16.52.36,29.52,18.51,29.04,40.54-.14,6.38-1.4,12.38-3.52,17.68l-53.57-1.17Z" fill="none" stroke="#000" stroke-linecap="round" stroke-linejoin="round"/><path id="uuid-cfdb3b19-eee2-4a49-b51d-32b3d5acc5f5" d="M149.56,233c-5.31,11.11-14.63,18.48-25.24,18.48s-19.93-7.37-25.24-18.48h50.48Z" fill="none" stroke="#000" stroke-linecap="round" stroke-linejoin="round"/><ellipse id="uuid-91412fbf-b405-4244-abea-04f412185765" cx="124" cy="211.5" rx="4.53" ry="2.95" transform="translate(-104.96 299.16) rotate(-80.57)" fill="none" stroke="#000" stroke-linecap="round" stroke-linejoin="round"/><ellipse id="uuid-98ea2068-2803-4bcb-ac08-ae4f644ebc92" cx="141" cy="210.5" rx="4.53" ry="2.95" transform="translate(-89.76 315.1) rotate(-80.57)" fill="none" stroke="#000" stroke-linecap="round" stroke-linejoin="round"/><path id="uuid-50c20cba-0970-477c-8dce-30bf6a0893bd" d="M99.14,179.69c9.9-10.24,29.45-9.3,39.13-8.83,12.12.58,26.26,3.32,26.53,6.98.23,3.24-10.59,5.03-10.69,9.99-.07,3.61,5.59,5.94,4.96,6.88-1.35,2.01-25.74-10.09-31.14-5.09-2.43,2.25.64,6.41-1.94,7.96-2.66,1.61-6.67-2.4-16.46-4.89-8.43-2.15-12.62-1.01-14.18-3.5-2.08-3.31,3.15-8.83,3.8-9.5Z" fill="none" stroke="#000" stroke-linecap="round" stroke-linejoin="round"/><rect id="uuid-e30a3451-a653-4a9b-8c7c-51e3b7c3709b" x="81.4" y="265.8" width="14.96" height="31.91" transform="translate(-70.21 32.8) rotate(-15.07)" fill="none" stroke="#000" stroke-linecap="round" stroke-linejoin="round"/><rect id="uuid-f675084d-1160-4a50-b98e-cfb36a15f02c" x="72" y="246.84" width="31.91" height="14.96" transform="translate(-177.85 296.31) rotate(-79.9)" fill="none" stroke="#000" stroke-linecap="round" stroke-linejoin="round"/><rect id="uuid-43a4b28d-251f-4fd4-b8d3-fe5ca0ca55ef" x="151.49" y="238.61" width="14.96" height="31.91" transform="translate(-53.28 42.37) rotate(-13.02)" fill="none" stroke="#000" stroke-linecap="round" stroke-linejoin="round"/><rect id="uuid-c7c89755-6d1e-4691-8a52-603f2af9473c" x="146.43" y="276.28" width="31.91" height="14.96" transform="translate(-127.42 435.09) rotate(-87.79)" fill="none" stroke="#000" stroke-linecap="round" stroke-linejoin="round"/><rect id="uuid-68d7da9f-f81e-431b-a95d-f4bd2dc61f74" x="86.68" y="295.24" width="15.96" height="15.96" transform="translate(-75.59 35.04) rotate(-15.07)" fill="none" stroke="#000" stroke-linecap="round" stroke-linejoin="round"/><rect id="uuid-8aba7226-626d-44b9-b829-0e99f5770b43" x="154.27" y="299.06" width="15.96" height="15.96" transform="translate(-13.98 7.81) rotate(-2.64)" fill="none" stroke="#000" stroke-linecap="round" stroke-linejoin="round"/></g></svg>