<?xml version="1.0" encoding="UTF-8"?><svg id="uuid-5fc2337b-b60e-42b4-b50d-a57a402bb3c1" xmlns="http://www.w3.org/2000/svg" viewBox="0 0 500 500"><text transform="translate(80.578552 98.553345)" fill="#333" font-family="ComicNeue-Regular, &apos;Comic Neue&apos;" font-size="24"><tspan x="0" y="0">But no one could </tspan><tspan x="0" y="28.799805">do anything...</tspan></text><g id="uuid-2a0aa16c-ca01-4384-9575-77cac41a5665"><polygon id="uuid-413c676f-9617-4000-887d-63b7561027da" points="224 379 244 379 244 413.959792 244 421 214 421 214 414 224 414 224 379" fill="#404040"/><rect id="uuid-06aa0aad-5774-4afb-9528-e868cc32fd0c" x="223.999985" y="340" width="20.000015" height="39" fill="#404040"/><polygon id="uuid-51a86b2e-c02c-45e0-96a3-f02e6763f7ce" points="252.000031 379 272 379 272 414 282 414 282 421 252 421 252 413.959792 252.000031 413.959792 252.000031 379" fill="#404040"/><rect id="uuid-338c9eb1-21fb-465a-9683-cb448ff0cdc0" x="251.999985" y="340" width="20.000031" height="39" fill="#404040"/><polygon id="uuid-e29b0cb6-4f03-4a7f-9e25-64f17ee76217" points="238.139929 295.879475 238.114942 296 238.223726 296 245.41592 257.521649 240.171842 249 256.003421 249 250.759344 257.521649 257.951538 296 258.060321 296 258.035335 295.879475 258.060321 296 257.932437 296 248.087632 308.811467 238.242827 296 238.114942 296 238.139929 295.879475" fill="#c1272d"/><path id="uuid-ffec6a90-0d7b-46b4-90ca-8cc703b1da65" d="M276,240v100h-56v-100h56ZM248.087632,289.92768l19.766986-48.92768h-39.533973l19.766986,48.92768Z" fill="#404040"/><path id="uuid-185513f9-5ac2-4262-83a9-7c5bea087679" d="M220.905657,228.789839c-2.076169-5.318121-3.294255-11.326614-3.388305-17.706275-.324752-22.028643,12.805304-40.083872,29.326801-40.327436,16.521498-.243564,30.178082,17.416768,30.502835,39.445411.094051,6.379661-.946386,12.42145-2.864885,17.798461l-53.576446.789839Z" fill="#eec6a2"/><path id="uuid-20a91450-37ea-4eb5-a763-77a3df18ed7a" d="M273.163888,233c-5.31123,11.108678-14.626388,18.483075-25.23917,18.483075s-19.92794-7.374397-25.23917-18.483075h50.478341Z" fill="#eec6a2"/><ellipse id="uuid-444caf62-9914-495e-b63f-0eea58787181" cx="254" cy="215.5" rx="2.987586" ry="4.50793" transform="translate(-16.379659 20.946435) rotate(-4.574947)" fill="#333"/><ellipse id="uuid-368c8e6f-9892-4487-936e-8ce8b9faf007" cx="268" cy="214.5" rx="2.987586" ry="4.50793" transform="translate(-16.25529 22.059931) rotate(-4.574947)" fill="#333"/><path id="uuid-1aff3321-515b-4c8d-9336-1ccaa8aa579c" d="M221.012933,179.417262c9.519313-10.593031,29.086151-10.371805,38.777159-10.262226,12.134176.137193,26.368298,2.352426,26.764286,5.99859.350905,3.231063-10.401141,5.410202-10.314642,10.374914.062911,3.611018,5.807934,5.727836,5.20626,6.698503-1.276294,2.059033-26.091449-9.137504-31.306443-3.943474-2.342997,2.33357.872113,6.380255-1.648041,8.028304-2.603626,1.702647-6.748727-2.150074-16.625532-4.287406-8.500272-1.839452-12.648016-.54776-14.2997-2.977799-2.197379-3.232872,2.822238-8.934573,3.446653-9.629405Z" fill="#534741"/><rect id="uuid-8089652a-27b2-42ee-888d-fb9059d7d830" x="190.623415" y="278.105805" width="31.912601" height="14.959007" transform="translate(-104.92358 450.509061) rotate(-82.018438)" fill="#404040"/><rect id="uuid-07517a09-a552-44ab-8284-6c4c19641886" x="196.060956" y="247.952975" width="31.912601" height="14.959007" transform="translate(-76.639193 419.366984) rotate(-79.899444)" fill="#404040"/><rect id="uuid-c3760864-59c3-47f8-bcb7-037a39fca453" x="275.960842" y="239.565065" width="14.959007" height="31.912601" transform="translate(-30.011657 37.857773) rotate(-7.258224)" fill="#404040"/><rect id="uuid-3f0f858f-08c8-48bf-8ddd-3a9ea7007ebf" x="280.044877" y="267.446773" width="14.959007" height="31.912601" transform="translate(-43.628234 52.479888) rotate(-9.697128)" fill="#404040"/><rect id="uuid-d3c5d005-dc59-44dd-bc73-15285995ba57" x="195.801803" y="300.572925" width="15.956303" height="15.956303" transform="translate(-130.077877 467.513291) rotate(-82.018438)" fill="#eec6a2"/><rect id="uuid-cb9cfddc-2c49-4ed6-8319-89953969f2f3" x="283.368086" y="295.790454" width="15.956303" height="15.956303" transform="translate(-47.003997 53.414626) rotate(-9.697128)" fill="#eec6a2"/><polygon id="uuid-cb47b686-d74c-47d2-a0b7-a0a970d9b73d" points="224 379 244 379 244 413.959792 244 421 214 421 214 414 224 414 224 379" fill="none" stroke="#000" stroke-linecap="round" stroke-linejoin="round"/><rect id="uuid-364e91cf-dc9a-406f-9e25-2821071c9366" x="223.999985" y="340" width="20.000015" height="39" fill="none" stroke="#000" stroke-linecap="round" stroke-linejoin="round"/><polygon id="uuid-d6fd92cd-e12b-4bcd-b491-b038568e3ac1" points="252.000031 379 272 379 272 414 282 414 282 421 252 421 252 413.959792 252.000031 413.959792 252.000031 379" fill="none" stroke="#000" stroke-linecap="round" stroke-linejoin="round"/><rect id="uuid-334bcaab-6b8a-4692-960a-b2c9832770b4" x="251.999985" y="340" width="20.000031" height="39" fill="none" stroke="#000" stroke-linecap="round" stroke-linejoin="round"/><polygon id="uuid-04aff8cb-a5c9-48f3-a54b-7825162cc26f" points="238.139929 295.879475 238.114942 296 238.223726 296 245.41592 257.521649 240.171842 249 256.003421 249 250.759344 257.521649 257.951538 296 258.060321 296 258.035335 295.879475 258.060321 296 257.932437 296 248.087632 308.811467 238.242827 296 238.114942 296 238.139929 295.879475" fill="none" stroke="#000" stroke-linecap="round" stroke-linejoin="round"/><path id="uuid-dd46f566-638c-4c02-a35a-b88c406f5dbe" d="M276,240v100h-56v-100h56ZM248.087632,289.92768l19.766986-48.92768h-39.533973l19.766986,48.92768Z" fill="none" stroke="#000" stroke-linecap="round" stroke-linejoin="round"/><path id="uuid-f5905c9f-bc38-4f9f-94f8-f957dd430081" d="M220.905657,228.789839c-2.076169-5.318121-3.294255-11.326614-3.388305-17.706275-.324752-22.028643,12.805304-40.083872,29.326801-40.327436,16.521498-.243564,30.178082,17.416768,30.502835,39.445411.094051,6.379661-.946386,12.42145-2.864885,17.798461l-53.576446.789839Z" fill="none" stroke="#000" stroke-linecap="round" stroke-linejoin="round"/><path id="uuid-004fba40-9119-454f-8933-966df34bfa35" d="M273.163888,233c-5.31123,11.108678-14.626388,18.483075-25.23917,18.483075s-19.92794-7.374397-25.23917-18.483075h50.478341Z" fill="none" stroke="#000" stroke-linecap="round" stroke-linejoin="round"/><ellipse id="uuid-d4052051-5188-4eca-9720-39da084b2e1e" cx="254" cy="215.5" rx="2.987586" ry="4.50793" transform="translate(-16.379659 20.946435) rotate(-4.574947)" fill="none" stroke="#000" stroke-linecap="round" stroke-linejoin="round"/><ellipse id="uuid-196a16c2-c5d4-4cb8-9eab-9736a18a82ce" cx="268" cy="214.5" rx="2.987586" ry="4.50793" transform="translate(-16.25529 22.059931) rotate(-4.574947)" fill="none" stroke="#000" stroke-linecap="round" stroke-linejoin="round"/><path id="uuid-a926d049-964d-41ba-b50e-cdab264fd08e" d="M221.012933,179.417262c9.519313-10.593031,29.086151-10.371805,38.777159-10.262226,12.134176.137193,26.368298,2.352426,26.764286,5.99859.350905,3.231063-10.401141,5.410202-10.314642,10.374914.062911,3.611018,5.807934,5.727836,5.20626,6.698503-1.276294,2.059033-26.091449-9.137504-31.306443-3.943474-2.342997,2.33357.872113,6.380255-1.648041,8.028304-2.603626,1.702647-6.748727-2.150074-16.625532-4.287406-8.500272-1.839452-12.648016-.54776-14.2997-2.977799-2.197379-3.232872,2.822238-8.934573,3.446653-9.629405Z" fill="none" stroke="#000" stroke-linecap="round" stroke-linejoin="round"/><rect id="uuid-51d907a1-b06e-4ff1-a22a-5deb4001fdb4" x="190.623415" y="278.105805" width="31.912601" height="14.959007" transform="translate(-104.92358 450.509061) rotate(-82.018438)" fill="none" stroke="#000" stroke-linecap="round" stroke-linejoin="round"/><rect id="uuid-1a3dd6f9-edd2-4c1a-9438-87a0bde320d5" x="196.060956" y="247.952975" width="31.912601" height="14.959007" transform="translate(-76.639193 419.366984) rotate(-79.899444)" fill="none" stroke="#000" stroke-linecap="round" stroke-linejoin="round"/><rect id="uuid-8f1a9fe7-507e-4e72-9723-7fc602b0a20a" x="275.960842" y="239.565065" width="14.959007" height="31.912601" transform="translate(-30.011657 37.857773) rotate(-7.258224)" fill="none" stroke="#000" stroke-linecap="round" stroke-linejoin="round"/><rect id="uuid-a64d67be-6792-4697-ba56-a7006e61ab28" x="280.044877" y="267.446773" width="14.959007" height="31.912601" transform="translate(-43.628234 52.479888) rotate(-9.697128)" fill="none" stroke="#000" stroke-linecap="round" stroke-linejoin="round"/><rect id="uuid-6bf8ecb8-7dca-4cee-b71c-7c0dc5bc08c1" x="195.801803" y="300.572925" width="15.956303" height="15.956303" transform="translate(-130.077877 467.513291) rotate(-82.018438)" fill="none" stroke="#000" stroke-linecap="round" stroke-linejoin="round"/><rect id="uuid-079439f4-7cda-4f92-b3d0-ff2aca0c47a6" x="283.368086" y="295.790454" width="15.956303" height="15.956303" transform="translate(-47.003997 53.414626) rotate(-9.697128)" fill="none" stroke="#000" stroke-linecap="round" stroke-linejoin="round"/></g><circle cx="387.999999" cy="166.999999" r="34.999766" fill="#b0bec5"/><circle cx="388" cy="167" r="27.999813" fill="#fff3e0"/><path d="M379.047216,138.930996c-3.692984,1.16994-8.856295,2.959259-14.257595,9.765718-5.337215,6.723858-6.271396,14.408-6.487633,19.696832,0,0-3.073619,4.060412-3.247273,3.321728-1.347884-5.733972.737739-18.679656,6.892624-25.652794,7.162761-8.117694,16.678762-11.174979,20.121115-11.793917.600497-.111212-1.897394,4.302207-3.021239,4.662432Z" fill="#eceff1" isolation="isolate" opacity=".64"/><circle cx="387.5" cy="167.5" r="26.499823" fill="#fff"/><circle cx="388.000001" cy="167.000001" r="2.999979" fill="#563428"/><path d="M387.20818,147.196375h0c-.536793.013901-.981874-.408711-.995775-.945503l-.075217-2.904566c-.013901-.536793.408711-.981874.945503-.995775h0c.536796-.013901.981874.408711.995775.945503l.075217,2.904566c.006546.536983-.416063.982065-.945503.995775Z" fill="#b2947c"/><path d="M388.362908,191.78697h0c-.536793.013901-.981874-.408708-.995775-.945503l-.075217-2.904563c-.013901-.536796.408711-.981874.945503-.995775h0c.536796-.013901.981874.408708.995775.945503l.075217,2.904563c.006546.53698-.416063.982065-.945503.995775Z" fill="#b2947c"/><path d="M411.491935,167.428188l-2.904563.075217c-.536796.013901-.981874-.408708-.995775-.945503h0c-.013901-.536793.408708-.981874.945503-.995775l2.904563-.075217c.536796-.013901.981874.408711.995775.945503h0c.013901.536796-.408714.981874-.945503.995775Z" fill="#b2947c"/><path d="M366.901341,168.582916l-2.904566.075217c-.536793.013901-.981874-.408708-.995775-.945503h0c-.013901-.536793.408711-.981874.945503-.995775l2.904566-.075217c.536793-.013901.981874.408711.995775.945503h0c.013901.536796-.408711.981874-.945503.995775Z" fill="#b2947c"/><path d="M387.20818,147.196375h0c-.536793.013901-.981874-.408711-.995775-.945503l-.075217-2.904566c-.013901-.536793.408711-.981874.945503-.995775h0c.536796-.013901.981874.408711.995775.945503l.075217,2.904566c.006546.536983-.416063.982065-.945503.995775Z" fill="#b2947c"/><path d="M388.362908,191.78697h0c-.536793.013901-.981874-.408708-.995775-.945503l-.075217-2.904563c-.013901-.536796.408711-.981874.945503-.995775h0c.536796-.013901.981874.408708.995775.945503l.075217,2.904563c.006546.53698-.416063.982065-.945503.995775Z" fill="#b2947c"/><path d="M376.002672,149.797049l-1.513732-2.477324c-.276717-.456405-.137722-1.056022.318683-1.332739h0c.456405-.276717,1.056022-.137722,1.332739.318683l1.513732,2.477324c.276717.456405.137722,1.056022-.318683,1.332739h0c-.456215.284069-1.04867.137532-1.332739-.318683Z" fill="#b2947c"/><path d="M399.298073,187.839374l-1.513732-2.477324c-.276717-.456403-.137722-1.056025.318686-1.332742h0c.456403-.276717,1.056025-.137722,1.332742.318686l1.513732,2.477324c.276717.456403.137722,1.056025-.318686,1.332742h0c-.456408.276717-1.04867.137532-1.332742-.318686Z" fill="#b2947c"/><path d="M376.002672,149.797049l-1.513732-2.477324c-.276717-.456405-.137722-1.056022.318683-1.332739h0c.456405-.276717,1.056022-.137722,1.332739.318683l1.513732,2.477324c.276717.456405.137722,1.056022-.318683,1.332739h0c-.456215.284069-1.04867.137532-1.332739-.318683Z" fill="#b2947c"/><path d="M399.298073,187.839374l-1.513732-2.477324c-.276717-.456403-.137722-1.056025.318686-1.332742h0c.456403-.276717,1.056025-.137722,1.332742.318686l1.513732,2.477324c.276717.456403.137722,1.056025-.318686,1.332742h0c-.456408.276717-1.04867.137532-1.332742-.318686Z" fill="#b2947c"/><path d="M368.937028,157.971095l-2.552351-1.383482c-.470116-.252724-.647311-.844152-.387236-1.314459h0c.252724-.470116.844152-.647311,1.314459-.387236l2.552351,1.383482c.470116.252724.647311.844152.387236,1.314459h0c-.260266.462951-.844346.639959-1.314459.387236Z" fill="#b2947c"/><path d="M408.134081,179.266288l-2.552351-1.383482c-.470113-.252724-.647311-.844152-.387239-1.314461h0c.252724-.470113.844152-.647311,1.314461-.387239l2.552351,1.383482c.470113.252724.647311.844152.387239,1.314461h0c-.260078.470309-.844343.639962-1.314461.387239Z" fill="#b2947c"/><path d="M397.211465,149.601018h0c-.470113-.252724-.647311-.844152-.387239-1.314459l1.383482-2.552354c.252724-.470116.844152-.647311,1.314461-.387236h0c.470113.252724.647311.844152.387239,1.314459l-1.383482,2.552354c-.252729.470116-.844348.63996-1.314461.387236Z" fill="#b2947c"/><path d="M375.916269,188.798073h0c-.470116-.252724-.647311-.844152-.387236-1.314461l1.383482-2.552351c.252724-.470113.844152-.647311,1.314459-.387239h0c.470116.252724.647311.844152.387236,1.314461l-1.383482,2.552351c-.260076.470309-.844343.639962-1.314459.387239Z" fill="#b2947c"/><path d="M404.672237,156.685132h0c-.276717-.456405-.137722-1.056022.318686-1.332739l2.477324-1.513732c.456403-.276717,1.056025-.137722,1.332742.318683h0c.276717.456405.137722,1.056022-.318686,1.332739l-2.477324,1.513732c-.456218.284072-1.048485.144884-1.332742-.318683Z" fill="#b2947c"/><path d="M366.637452,179.987695h0c-.276717-.456403-.137722-1.056025.318683-1.332742l2.477327-1.513732c.456405-.276717,1.056022-.137722,1.332739.318686h0c.276717.456403.137722,1.056025-.318683,1.332742l-2.477324,1.513732c-.456405.276717-1.056025.137722-1.332742-.318686Z" fill="#b2947c"/><line x1="376.86651" y1="161.275643" x2="387.722895" y2="167.072426" fill="none" stroke="#563428" stroke-linecap="round" stroke-miterlimit="10" stroke-width="2"/><line x1="402.77613" y1="157.911558" x2="388.208218" y2="167.059858" fill="none" stroke="#563428" stroke-linecap="round" stroke-miterlimit="10" stroke-width="2"/><circle cx="387.999999" cy="166.999999" r="34.999766" fill="none" stroke="#000" stroke-linecap="round" stroke-linejoin="round"/><circle cx="388" cy="167" r="27.999813" fill="none" stroke="#000" stroke-linecap="round" stroke-linejoin="round"/><path d="M379.047216,138.930996c-3.692984,1.16994-8.856295,2.959259-14.257595,9.765718-5.337215,6.723858-6.271396,14.408-6.487633,19.696832,0,0-3.073619,4.060412-3.247273,3.321728-1.347884-5.733972.737739-18.679656,6.892624-25.652794,7.162761-8.117694,16.678762-11.174979,20.121115-11.793917.600497-.111212-1.897394,4.302207-3.021239,4.662432Z" fill="none" stroke="#000" stroke-linecap="round" stroke-linejoin="round"/><circle cx="387.5" cy="167.5" r="26.499823" fill="none" stroke="#000" stroke-linecap="round" stroke-linejoin="round"/><circle cx="388.000001" cy="167.000001" r="2.999979" fill="none" stroke="#000" stroke-linecap="round" stroke-linejoin="round"/><path d="M387.20818,147.196375h0c-.536793.013901-.981874-.408711-.995775-.945503l-.075217-2.904566c-.013901-.536793.408711-.981874.945503-.995775h0c.536796-.013901.981874.408711.995775.945503l.075217,2.904566c.006546.536983-.416063.982065-.945503.995775Z" fill="none" stroke="#000" stroke-linecap="round" stroke-linejoin="round"/><path d="M388.362908,191.78697h0c-.536793.013901-.981874-.408708-.995775-.945503l-.075217-2.904563c-.013901-.536796.408711-.981874.945503-.995775h0c.536796-.013901.981874.408708.995775.945503l.075217,2.904563c.006546.53698-.416063.982065-.945503.995775Z" fill="none" stroke="#000" stroke-linecap="round" stroke-linejoin="round"/><path d="M411.491935,167.428188l-2.904563.075217c-.536796.013901-.981874-.408708-.995775-.945503h0c-.013901-.536793.408708-.981874.945503-.995775l2.904563-.075217c.536796-.013901.981874.408711.995775.945503h0c.013901.536796-.408714.981874-.945503.995775Z" fill="none" stroke="#000" stroke-linecap="round" stroke-linejoin="round"/><path d="M366.901341,168.582916l-2.904566.075217c-.536793.013901-.981874-.408708-.995775-.945503h0c-.013901-.536793.408711-.981874.945503-.995775l2.904566-.075217c.536793-.013901.981874.408711.995775.945503h0c.013901.536796-.408711.981874-.945503.995775Z" fill="none" stroke="#000" stroke-linecap="round" stroke-linejoin="round"/><path d="M387.20818,147.196375h0c-.536793.013901-.981874-.408711-.995775-.945503l-.075217-2.904566c-.013901-.536793.408711-.981874.945503-.995775h0c.536796-.013901.981874.408711.995775.945503l.075217,2.904566c.006546.536983-.416063.982065-.945503.995775Z" fill="none" stroke="#000" stroke-linecap="round" stroke-linejoin="round"/><path d="M388.362908,191.78697h0c-.536793.013901-.981874-.408708-.995775-.945503l-.075217-2.904563c-.013901-.536796.408711-.981874.945503-.995775h0c.536796-.013901.981874.408708.995775.945503l.075217,2.904563c.006546.53698-.416063.982065-.945503.995775Z" fill="none" stroke="#000" stroke-linecap="round" stroke-linejoin="round"/><path d="M376.002672,149.797049l-1.513732-2.477324c-.276717-.456405-.137722-1.056022.318683-1.332739h0c.456405-.276717,1.056022-.137722,1.332739.318683l1.513732,2.477324c.276717.456405.137722,1.056022-.318683,1.332739h0c-.456215.284069-1.04867.137532-1.332739-.318683Z" fill="none" stroke="#000" stroke-linecap="round" stroke-linejoin="round"/><path d="M399.298073,187.839374l-1.513732-2.477324c-.276717-.456403-.137722-1.056025.318686-1.332742h0c.456403-.276717,1.056025-.137722,1.332742.318686l1.513732,2.477324c.276717.456403.137722,1.056025-.318686,1.332742h0c-.456408.276717-1.04867.137532-1.332742-.318686Z" fill="none" stroke="#000" stroke-linecap="round" stroke-linejoin="round"/><path d="M376.002672,149.797049l-1.513732-2.477324c-.276717-.456405-.137722-1.056022.318683-1.332739h0c.456405-.276717,1.056022-.137722,1.332739.318683l1.513732,2.477324c.276717.456405.137722,1.056022-.318683,1.332739h0c-.456215.284069-1.04867.137532-1.332739-.318683Z" fill="none" stroke="#000" stroke-linecap="round" stroke-linejoin="round"/><path d="M399.298073,187.839374l-1.513732-2.477324c-.276717-.456403-.137722-1.056025.318686-1.332742h0c.456403-.276717,1.056025-.137722,1.332742.318686l1.513732,2.477324c.276717.456403.137722,1.056025-.318686,1.332742h0c-.456408.276717-1.04867.137532-1.332742-.318686Z" fill="none" stroke="#000" stroke-linecap="round" stroke-linejoin="round"/><path d="M368.937028,157.971095l-2.552351-1.383482c-.470116-.252724-.647311-.844152-.387236-1.314459h0c.252724-.470116.844152-.647311,1.314459-.387236l2.552351,1.383482c.470116.252724.647311.844152.387236,1.314459h0c-.260266.462951-.844346.639959-1.314459.387236Z" fill="none" stroke="#000" stroke-linecap="round" stroke-linejoin="round"/><path d="M408.134081,179.266288l-2.552351-1.383482c-.470113-.252724-.647311-.844152-.387239-1.314461h0c.252724-.470113.844152-.647311,1.314461-.387239l2.552351,1.383482c.470113.252724.647311.844152.387239,1.314461h0c-.260078.470309-.844343.639962-1.314461.387239Z" fill="none" stroke="#000" stroke-linecap="round" stroke-linejoin="round"/><path d="M397.211465,149.601018h0c-.470113-.252724-.647311-.844152-.387239-1.314459l1.383482-2.552354c.252724-.470116.844152-.647311,1.314461-.387236h0c.470113.252724.647311.844152.387239,1.314459l-1.383482,2.552354c-.252729.470116-.844348.63996-1.314461.387236Z" fill="none" stroke="#000" stroke-linecap="round" stroke-linejoin="round"/><path d="M375.916269,188.798073h0c-.470116-.252724-.647311-.844152-.387236-1.314461l1.383482-2.552351c.252724-.470113.844152-.647311,1.314459-.387239h0c.470116.252724.647311.844152.387236,1.314461l-1.383482,2.552351c-.260076.470309-.844343.639962-1.314459.387239Z" fill="none" stroke="#000" stroke-linecap="round" stroke-linejoin="round"/><path d="M404.672237,156.685132h0c-.276717-.456405-.137722-1.056022.318686-1.332739l2.477324-1.513732c.456403-.276717,1.056025-.137722,1.332742.318683h0c.276717.456405.137722,1.056022-.318686,1.332739l-2.477324,1.513732c-.456218.284072-1.048485.144884-1.332742-.318683Z" fill="none" stroke="#000" stroke-linecap="round" stroke-linejoin="round"/><path d="M366.637452,179.987695h0c-.276717-.456403-.137722-1.056025.318683-1.332742l2.477327-1.513732c.456405-.276717,1.056022-.137722,1.332739.318686h0c.276717.456403.137722,1.056025-.318683,1.332742l-2.477324,1.513732c-.456405.276717-1.056025.137722-1.332742-.318686Z" fill="none" stroke="#000" stroke-linecap="round" stroke-linejoin="round"/><line x1="376.86651" y1="161.275643" x2="387.722895" y2="167.072426" fill="none" stroke="#000" stroke-linecap="round" stroke-linejoin="round"/><line x1="402.77613" y1="157.911558" x2="388.208218" y2="167.059858" fill="none" stroke="#000" stroke-linecap="round" stroke-linejoin="round"/><g id="uuid-1b96a1de-93ad-46dc-bbe1-a50c95c329a3"><polygon id="uuid-199ceb35-198b-41e2-9274-5d5a14113e2b" points="100 379 120 379 120 413.959792 120 421 90 421 90 414 100 414 100 379" fill="#9c9caf"/><rect id="uuid-5c8ccd5b-0f23-49d5-83b6-d7a9d8fe19f2" x="99.999985" y="340" width="20.000015" height="39" fill="#9c9caf"/><polygon id="uuid-839aedea-6196-4d4e-9c3f-dedca1ad389e" points="128.000031 379 148 379 148 414 158 414 158 421 128 421 128 413.959792 128.000031 413.959792 128.000031 379" fill="#9c9caf"/><rect id="uuid-359b40ef-5c38-4d10-ae2f-e871ee8cdd10" x="127.999985" y="340" width="20.000031" height="39" fill="#9c9caf"/><polygon id="uuid-78df5f49-fdf7-4eba-a46d-17ed61a05d83" points="114.536265 295.879475 114.511279 296 114.620062 296 121.812256 257.521649 116.568179 249 132.399758 249 127.15568 257.521649 134.347875 296 134.456658 296 134.431671 295.879475 134.456658 296 134.328773 296 124.483968 308.811467 114.639163 296 114.511279 296 114.536265 295.879475" fill="#c1272d"/><path id="uuid-54a00f7c-82f4-461c-b4a3-50d9ca30e4a1" d="M152,240v100h-56v-100h56ZM124.483968,289.92768l19.766986-48.92768h-39.533973l19.766986,48.92768Z" fill="#9c9caf"/><path id="uuid-d6a43d10-ed6e-4f95-a91b-b4433f43de29" d="M97.296025,226.90696c-1.879795-5.390664-2.876773-11.439776-2.736863-17.818596.483101-22.02574,14.266287-39.587443,30.785607-39.225117,16.51932.362326,29.519243,18.511476,29.036143,40.537215-.13991,6.37882-1.401157,12.378401-3.515503,17.68146l-53.569383-1.174962Z" fill="#eec6a2"/><path id="uuid-0b833023-5fbd-46bf-884f-5fbc7b71756e" d="M149.560225,233c-5.31123,11.108678-14.626388,18.483075-25.23917,18.483075s-19.92794-7.374397-25.23917-18.483075h50.478341Z" fill="#eec6a2"/><ellipse id="uuid-6112e2b7-aba9-49b1-8ee6-2f957f9ae369" cx="124" cy="211.5" rx="4.5349" ry="2.945552" transform="translate(-104.960939 299.164922) rotate(-80.56832)" fill="#333"/><ellipse id="uuid-6525a722-fc46-4e59-9702-f569f42d1305" cx="141" cy="210.5" rx="4.5349" ry="2.945552" transform="translate(-89.760272 315.098982) rotate(-80.56832)" fill="#333"/><path id="uuid-1678f638-3971-433e-b87d-0c7393e9636a" d="M99.1355,179.694065c9.901285-10.236903,29.446856-9.298448,39.127332-8.833643,12.120988.581976,26.264324,3.317583,26.526366,6.975814.232209,3.241756-10.592502,5.025228-10.688082,9.989774-.069522,3.610897,5.59403,5.936921,4.957173,6.884877-1.350926,2.010856-25.7389-10.08795-31.140816-5.088609-2.426977,2.2461.637608,6.407939-1.941274,7.962484-2.6643,1.606046-6.665362-2.396056-16.457165-4.894064-8.427118-2.14986-12.61943-1.011105-14.180911-3.500066-2.077375-3.31126,3.147909-8.825095,3.797378-9.496566Z" fill="#534741"/><rect id="uuid-2d458877-84c3-420d-92e3-ebbb903a9c39" x="81.397865" y="265.804097" width="14.959007" height="31.912601" transform="translate(-70.209125 32.803381) rotate(-15.071912)" fill="#9c9caf"/><rect id="uuid-a70bd711-f72e-4fb2-9ed0-b2c5d1b539c6" x="71.996342" y="246.83975" width="31.912601" height="14.959007" transform="translate(-177.849801 296.307477) rotate(-79.899505)" fill="#9c9caf"/><rect id="uuid-d54824e8-c456-4511-a471-7f7ba4218259" x="151.487223" y="238.611619" width="14.959007" height="31.912601" transform="translate(-53.278377 42.371638) rotate(-13.023584)" fill="#9c9caf"/><rect id="uuid-efa42219-540f-4f0f-b231-e6ff2938f98f" x="146.42627" y="276.277302" width="31.912601" height="14.959007" transform="translate(-127.417995 435.089737) rotate(-87.792655)" fill="#9c9caf"/><rect id="uuid-c4e1def2-b9e0-4b0d-b8f2-66f7b56c1e29" x="86.677839" y="295.240594" width="15.956303" height="15.956303" transform="translate(-75.590181 35.044166) rotate(-15.071912)" fill="#eec6a2"/><rect id="uuid-d2aecb68-81ac-4817-b3fb-473071075839" x="154.267579" y="299.06365" width="15.956303" height="15.956303" transform="translate(-13.982872 7.806402) rotate(-2.642414)" fill="#eec6a2"/><polygon id="uuid-1271b89f-4ccf-421b-a460-683475d855f9" points="100 379 120 379 120 413.959792 120 421 90 421 90 414 100 414 100 379" fill="none" stroke="#000" stroke-linecap="round" stroke-linejoin="round"/><rect id="uuid-cea4e8a0-bd56-46b4-9cd2-a70b9304acf1" x="99.999985" y="340" width="20.000015" height="39" fill="none" stroke="#000" stroke-linecap="round" stroke-linejoin="round"/><polygon id="uuid-09d20a44-86c2-435e-8bbe-507483a1cbff" points="128.000031 379 148 379 148 414 158 414 158 421 128 421 128 413.959792 128.000031 413.959792 128.000031 379" fill="none" stroke="#000" stroke-linecap="round" stroke-linejoin="round"/><rect id="uuid-9329684c-57e3-429a-b310-6e7608c45176" x="127.999985" y="340" width="20.000031" height="39" fill="none" stroke="#000" stroke-linecap="round" stroke-linejoin="round"/><polygon id="uuid-0032c674-b6ba-44a1-8435-24a2032658ba" points="114.536265 295.879475 114.511279 296 114.620062 296 121.812256 257.521649 116.568179 249 132.399758 249 127.15568 257.521649 134.347875 296 134.456658 296 134.431671 295.879475 134.456658 296 134.328773 296 124.483968 308.811467 114.639163 296 114.511279 296 114.536265 295.879475" fill="none" stroke="#000" stroke-linecap="round" stroke-linejoin="round"/><path id="uuid-96695cd4-226c-4422-949f-41915153e88d" d="M152,240v100h-56v-100h56ZM124.483968,289.92768l19.766986-48.92768h-39.533973l19.766986,48.92768Z" fill="none" stroke="#000" stroke-linecap="round" stroke-linejoin="round"/><path id="uuid-6b0f7457-3190-414e-9417-47684cac1550" d="M97.296025,226.90696c-1.879795-5.390664-2.876773-11.439776-2.736863-17.818596.483101-22.02574,14.266287-39.587443,30.785607-39.225117,16.51932.362326,29.519243,18.511476,29.036143,40.537215-.13991,6.37882-1.401157,12.378401-3.515503,17.68146l-53.569383-1.174962Z" fill="none" stroke="#000" stroke-linecap="round" stroke-linejoin="round"/><path id="uuid-e5ff6928-4620-4be0-889b-1493ae1d96f2" d="M149.560225,233c-5.31123,11.108678-14.626388,18.483075-25.23917,18.483075s-19.92794-7.374397-25.23917-18.483075h50.478341Z" fill="none" stroke="#000" stroke-linecap="round" stroke-linejoin="round"/><ellipse id="uuid-eaa4a497-770e-4e12-a4bc-358b83b91e0d" cx="124" cy="211.5" rx="4.5349" ry="2.945552" transform="translate(-104.960939 299.164922) rotate(-80.56832)" fill="none" stroke="#000" stroke-linecap="round" stroke-linejoin="round"/><ellipse id="uuid-52080c0f-d04e-449d-8c1d-04bed41188b4" cx="141" cy="210.5" rx="4.5349" ry="2.945552" transform="translate(-89.760272 315.098982) rotate(-80.56832)" fill="none" stroke="#000" stroke-linecap="round" stroke-linejoin="round"/><path id="uuid-eba6c48e-8719-48f1-a9fb-f201e2785f28" d="M99.1355,179.694065c9.901285-10.236903,29.446856-9.298448,39.127332-8.833643,12.120988.581976,26.264324,3.317583,26.526366,6.975814.232209,3.241756-10.592502,5.025228-10.688082,9.989774-.069522,3.610897,5.59403,5.936921,4.957173,6.884877-1.350926,2.010856-25.7389-10.08795-31.140816-5.088609-2.426977,2.2461.637608,6.407939-1.941274,7.962484-2.6643,1.606046-6.665362-2.396056-16.457165-4.894064-8.427118-2.14986-12.61943-1.011105-14.180911-3.500066-2.077375-3.31126,3.147909-8.825095,3.797378-9.496566Z" fill="none" stroke="#000" stroke-linecap="round" stroke-linejoin="round"/><rect id="uuid-369c248f-e6de-4e9e-9cbc-5c947f2b64a3" x="81.397865" y="265.804097" width="14.959007" height="31.912601" transform="translate(-70.209125 32.803381) rotate(-15.071912)" fill="none" stroke="#000" stroke-linecap="round" stroke-linejoin="round"/><rect id="uuid-744e3e31-41a6-4018-bd1f-3f14e8b31aac" x="71.996342" y="246.83975" width="31.912601" height="14.959007" transform="translate(-177.849801 296.307477) rotate(-79.899505)" fill="none" stroke="#000" stroke-linecap="round" stroke-linejoin="round"/><rect id="uuid-98a5467f-e79f-458b-a796-6ddcba11e7de" x="151.487223" y="238.611619" width="14.959007" height="31.912601" transform="translate(-53.278377 42.371638) rotate(-13.023584)" fill="none" stroke="#000" stroke-linecap="round" stroke-linejoin="round"/><rect id="uuid-f5ecb400-3917-4905-bc00-66d829c91635" x="146.42627" y="276.277302" width="31.912601" height="14.959007" transform="translate(-127.417995 435.089737) rotate(-87.792655)" fill="none" stroke="#000" stroke-linecap="round" stroke-linejoin="round"/><rect id="uuid-27e5f25c-079a-44a6-a037-3994d8bbb319" x="86.677839" y="295.240594" width="15.956303" height="15.956303" transform="translate(-75.590181 35.044166) rotate(-15.071912)" fill="none" stroke="#000" stroke-linecap="round" stroke-linejoin="round"/><rect id="uuid-70fe757c-e8dd-4464-9820-913171bf8ca7" x="154.267579" y="299.06365" width="15.956303" height="15.956303" transform="translate(-13.982872 7.806402) rotate(-2.642414)" fill="none" stroke="#000" stroke-linecap="round" stroke-linejoin="round"/></g></svg>