<?xml version="1.0" encoding="UTF-8"?><svg id="uuid-6951a78c-b5e9-4c13-9806-371c58eff39b" xmlns="http://www.w3.org/2000/svg" viewBox="0 0 500 500"><g id="uuid-5829facd-4d95-45fa-be04-96b0aca4ddcf"><polygon id="uuid-765ec08f-783b-4596-9898-c65ba81a62ef" points="232 356 252 356 252 390.96 252 398 222 398 222 391 232 391 232 356" fill="#404040"/><rect id="uuid-e0b32ea4-97fb-4113-938f-ea1a4306e55d" x="232" y="317" width="20" height="39" fill="#404040"/><polygon id="uuid-544db457-c234-429c-b789-d7312722f3fc" points="260 356 280 356 280 391 290 391 290 398 260 398 260 390.96 260 390.96 260 356" fill="#404040"/><rect id="uuid-94baa5a5-fa62-4a07-b9bb-64988c04cb8f" x="260" y="317" width="20" height="39" fill="#404040"/><polygon id="uuid-be028ce9-df48-4e30-a5a5-9a8803424ded" points="246.25 272.88 246.22 273 246.33 273 253.53 234.52 248.28 226 264.11 226 258.87 234.52 266.06 273 266.17 273 266.15 272.88 266.17 273 266.04 273 256.2 285.81 246.35 273 246.22 273 246.25 272.88" fill="#c1272d"/><path id="uuid-9f300aaa-347b-4067-8fb3-b086eaf0c9ac" d="M284,217v100h-56v-100h56ZM256.2,266.93l19.77-48.93h-39.53l19.77,48.93Z" fill="#404040"/><path id="uuid-d824b8bf-73e7-4b8f-a589-4375f47f8bea" d="M229.02,204.79c-2.08-5.32-3.29-11.33-3.39-17.71-.32-22.03,12.81-40.08,29.33-40.33,16.52-.24,30.18,17.42,30.5,39.45.09,6.38-.95,12.42-2.86,17.8l-53.58.79Z" fill="#eec6a2"/><path id="uuid-08b07bd7-415e-4e5d-b7e9-c6ae21f41ca4" d="M281.27,210c-5.31,11.11-14.63,18.48-25.24,18.48s-19.93-7.37-25.24-18.48h50.48Z" fill="#eec6a2"/><path id="uuid-22848a85-8d44-4053-90cc-e69e98e66669" d="M245.81,196.25c0,2.49,1.34,4.5,3,4.5s3-2.01,3-4.5-1.34-4.5-3-4.5-3,2.01-3,4.5Z" fill="#333"/><ellipse id="uuid-2f6db4e1-7d90-4552-80fb-5eb3d01b760a" cx="263" cy="196.5" rx="3" ry="4.5" fill="#333"/><path id="uuid-198af503-b5e0-42d1-aeca-0cd53c4bd73c" d="M229.12,156c9.52-10.59,29.09-10.37,38.78-10.26,12.13.14,26.37,2.35,26.76,6,.35,3.23-10.4,5.41-10.31,10.37.06,3.61,5.81,5.73,5.21,6.7-1.28,2.06-26.09-9.14-31.31-3.94-2.34,2.33.87,6.38-1.65,8.03-2.6,1.7-6.75-2.15-16.63-4.29-8.5-1.84-12.65-.55-14.3-2.98-2.2-3.23,2.82-8.93,3.45-9.63Z" fill="#534741"/><rect id="uuid-5236fbe1-c105-411b-bea6-bfd1c09c20a3" x="179.73" y="244.27" width="31.91" height="14.96" transform="translate(-121.47 218.76) rotate(-46.2)" fill="#404040"/><rect id="uuid-64b5e812-f372-4929-a02f-a42837fe2443" x="202.82" y="224.99" width="31.91" height="14.96" transform="translate(-90.56 153.61) rotate(-32.44)" fill="#404040"/><rect id="uuid-d6278ef1-5e10-4bc0-bff4-227408f623ea" x="288.61" y="214.29" width="14.96" height="31.91" transform="translate(-27.33 420.2) rotate(-68.3)" fill="#404040"/><rect id="uuid-8c411f4c-8214-4d75-9aba-922bea5045e2" x="312.58" y="230.09" width="14.96" height="31.91" transform="translate(-79.53 303.56) rotate(-45.74)" fill="#404040"/><rect id="uuid-471a38ae-6e2f-4262-816e-d01d56eb57c0" x="171.99" y="260.76" width="15.96" height="15.96" transform="translate(-138.56 212.65) rotate(-46.2)" fill="#eec6a2"/><rect id="uuid-8af399b6-3a98-4d1b-b301-f56f84208c4a" x="328.33" y="253.9" width="15.96" height="15.96" transform="translate(-85.96 319.98) rotate(-45.74)" fill="#eec6a2"/><polygon id="uuid-e3291154-89b8-4f45-a863-e5b80f4aa912" points="232 356 252 356 252 390.96 252 398 222 398 222 391 232 391 232 356" fill="none" stroke="#000" stroke-linecap="round" stroke-linejoin="round"/><rect id="uuid-a48fd921-193b-4566-bd72-52e1839824c3" x="232" y="317" width="20" height="39" fill="none" stroke="#000" stroke-linecap="round" stroke-linejoin="round"/><polygon id="uuid-1513b728-0727-4fc9-b3dc-d291e93bbf66" points="260 356 280 356 280 391 290 391 290 398 260 398 260 390.96 260 390.96 260 356" fill="none" stroke="#000" stroke-linecap="round" stroke-linejoin="round"/><rect id="uuid-dea784d0-a5d9-42f8-93e9-7ce7e26e1cb2" x="260" y="317" width="20" height="39" fill="none" stroke="#000" stroke-linecap="round" stroke-linejoin="round"/><polygon id="uuid-b96a2e92-c04d-43e0-bea0-8587f49619f0" points="246.25 272.88 246.22 273 246.33 273 253.53 234.52 248.28 226 264.11 226 258.87 234.52 266.06 273 266.17 273 266.15 272.88 266.17 273 266.04 273 256.2 285.81 246.35 273 246.22 273 246.25 272.88" fill="none" stroke="#000" stroke-linecap="round" stroke-linejoin="round"/><path id="uuid-8863e6c0-a6b1-43d4-8be6-f6ff1727014d" d="M284,217v100h-56v-100h56ZM256.2,266.93l19.77-48.93h-39.53l19.77,48.93Z" fill="none" stroke="#000" stroke-linecap="round" stroke-linejoin="round"/><path id="uuid-244d5e22-9fc7-4748-9915-ba47bae41522" d="M229.02,204.79c-2.08-5.32-3.29-11.33-3.39-17.71-.32-22.03,12.81-40.08,29.33-40.33,16.52-.24,30.18,17.42,30.5,39.45.09,6.38-.95,12.42-2.86,17.8l-53.58.79Z" fill="none" stroke="#000" stroke-linecap="round" stroke-linejoin="round"/><path id="uuid-2222d7dc-6f13-4be4-a503-b9bbc657fcff" d="M281.27,210c-5.31,11.11-14.63,18.48-25.24,18.48s-19.93-7.37-25.24-18.48h50.48Z" fill="none" stroke="#000" stroke-linecap="round" stroke-linejoin="round"/><path id="uuid-23207b08-cde9-4a5d-8fc6-668bcab474f5" d="M245.81,196.25c0,2.49,1.34,4.5,3,4.5s3-2.01,3-4.5-1.34-4.5-3-4.5-3,2.01-3,4.5Z" fill="none" stroke="#000" stroke-linecap="round" stroke-linejoin="round"/><ellipse id="uuid-c1b14090-8ecb-4850-be2b-fbb1003eeb65" cx="263" cy="196.5" rx="3" ry="4.5" fill="none" stroke="#000" stroke-linecap="round" stroke-linejoin="round"/><path id="uuid-a85c8e2a-8016-4012-b331-a4b71b83ae6c" d="M229.12,156c9.52-10.59,29.09-10.37,38.78-10.26,12.13.14,26.37,2.35,26.76,6,.35,3.23-10.4,5.41-10.31,10.37.06,3.61,5.81,5.73,5.21,6.7-1.28,2.06-26.09-9.14-31.31-3.94-2.34,2.33.87,6.38-1.65,8.03-2.6,1.7-6.75-2.15-16.63-4.29-8.5-1.84-12.65-.55-14.3-2.98-2.2-3.23,2.82-8.93,3.45-9.63Z" fill="none" stroke="#000" stroke-linecap="round" stroke-linejoin="round"/><rect id="uuid-cb16e6e0-785d-47e9-bede-7aebb3584f16" x="179.73" y="244.27" width="31.91" height="14.96" transform="translate(-121.47 218.76) rotate(-46.2)" fill="none" stroke="#000" stroke-linecap="round" stroke-linejoin="round"/><rect id="uuid-ff188c9d-7941-443e-ae0d-aedf551957e7" x="202.82" y="224.99" width="31.91" height="14.96" transform="translate(-90.56 153.61) rotate(-32.44)" fill="none" stroke="#000" stroke-linecap="round" stroke-linejoin="round"/><rect id="uuid-16dfc492-0b93-48f5-8fae-af917ae79002" x="288.61" y="214.29" width="14.96" height="31.91" transform="translate(-27.33 420.2) rotate(-68.3)" fill="none" stroke="#000" stroke-linecap="round" stroke-linejoin="round"/><rect id="uuid-6daa7391-978a-4c57-9105-bdbcc3fc2f93" x="312.58" y="230.09" width="14.96" height="31.91" transform="translate(-79.53 303.56) rotate(-45.74)" fill="none" stroke="#000" stroke-linecap="round" stroke-linejoin="round"/><rect id="uuid-1e365e69-3089-4ee4-a73f-349d7aaa1ce8" x="171.99" y="260.76" width="15.96" height="15.96" transform="translate(-138.56 212.65) rotate(-46.2)" fill="none" stroke="#000" stroke-linecap="round" stroke-linejoin="round"/><rect id="uuid-60430b3d-e6f7-46f7-a703-449e9d6700ae" x="328.33" y="253.9" width="15.96" height="15.96" transform="translate(-85.96 319.98) rotate(-45.74)" fill="none" stroke="#000" stroke-linecap="round" stroke-linejoin="round"/></g><rect x="149" y="282" width="159" height="80" fill="#6d4c41"/><path d="M149,415h-13v-133h13v133ZM308,282v133h84v-133h-84Z" fill="#6d4c41"/><rect x="127" y="273" width="275" height="9" fill="#8d6e63"/><rect x="149" y="282" width="159" height="80" fill="none" stroke="#000" stroke-linecap="round" stroke-linejoin="round"/><path d="M149,415h-13v-133h13v133ZM308,282v133h84v-133h-84Z" fill="none" stroke="#000" stroke-linecap="round" stroke-linejoin="round"/><rect x="127" y="273" width="275" height="9" fill="none" stroke="#000" stroke-linecap="round" stroke-linejoin="round"/><text transform="translate(58.87 77.4)" fill="#333" font-family="ComicNeue-Regular, &apos;Comic Neue&apos;" font-size="24"><tspan x="0" y="0">... except the prime minister. He was </tspan><tspan x="0" y="28.8">prepared to sacrifice everything.</tspan></text></svg>