<?xml version="1.0" encoding="UTF-8"?><svg id="uuid-f87a5868-43a1-49db-8681-59e5a9d81ded" xmlns="http://www.w3.org/2000/svg" viewBox="0 0 500 500"><g id="uuid-a4ad2cbe-0a3b-4e7c-8746-a20fe2ad85f8"><polygon id="uuid-27d6ed96-44f5-4e34-9006-2cb78fab25b5" points="232 356 252 356 252 390.959792 252 398 222 398 222 391 232 391 232 356" fill="#404040"/><rect id="uuid-6763727d-978b-4c06-ba69-e3de278fa118" x="231.999985" y="317" width="20.000015" height="39" fill="#404040"/><polygon id="uuid-d3be8e94-feca-4c56-9a71-4109057ca300" points="260.000031 356 280 356 280 391 290 391 290 398 260 398 260 390.959792 260.000031 390.959792 260.000031 356" fill="#404040"/><rect id="uuid-cb0b534f-3c4d-4d0f-9f69-354f562338d6" x="259.999985" y="317" width="20.000031" height="39" fill="#404040"/><polygon id="uuid-94b10046-6b57-4871-a7ec-c9a7eca56348" points="246.24995 272.879475 246.224964 273 246.333747 273 253.525942 234.521649 248.281864 226 264.113443 226 258.869365 234.521649 266.06156 273 266.170343 273 266.145356 272.879475 266.170343 273 266.042458 273 256.197653 285.811467 246.352849 273 246.224964 273 246.24995 272.879475" fill="#c1272d"/><path id="uuid-93cc763d-b56e-416e-b258-52ce30a551bb" d="M284,217v100h-56v-100h56ZM256.197653,266.92768l19.766986-48.92768h-39.533973l19.766986,48.92768Z" fill="#404040"/><path id="uuid-51074bb4-88dd-4897-b469-dab439dd4d77" d="M229.015679,204.789839c-2.076169-5.318121-3.294255-11.326614-3.388305-17.706275-.324752-22.028643,12.805304-40.083872,29.326801-40.327436,16.521498-.243564,30.178082,17.416768,30.502835,39.445411.094051,6.379661-.946386,12.42145-2.864885,17.798461l-53.576446.789839Z" fill="#eec6a2"/><path id="uuid-34c2669b-b7a6-4c07-b20f-74c17ac81efc" d="M281.27391,210c-5.31123,11.108678-14.626388,18.483075-25.23917,18.483075s-19.92794-7.374397-25.23917-18.483075h50.478341Z" fill="#eec6a2"/><path id="uuid-f533bb8c-ef9a-43f0-8fd5-a92a68b2737c" d="M245.813365,196.245836c0,2.485281,1.343146,4.5,3,4.5s3-2.014719,3-4.5-1.343146-4.5-3-4.5-3,2.014719-3,4.5Z" fill="#333"/><ellipse id="uuid-13315a39-cfb5-4912-8c67-df4afab958f9" cx="263" cy="196.5" rx="3" ry="4.5" fill="#333"/><path id="uuid-119efede-1eae-424c-9302-7cb12cf54e61" d="M229.122954,156.001373c9.519313-10.593031,29.086151-10.371805,38.777159-10.262226,12.134176.137193,26.368298,2.352426,26.764286,5.99859.350905,3.231063-10.401141,5.410202-10.314642,10.374914.062911,3.611018,5.807934,5.727836,5.20626,6.698503-1.276294,2.059033-26.091449-9.137504-31.306443-3.943474-2.342997,2.33357.872113,6.380255-1.648041,8.028304-2.603626,1.702647-6.748727-2.150074-16.625532-4.287406-8.500272-1.839452-12.648016-.54776-14.2997-2.977799-2.197379-3.232872,2.822238-8.934573,3.446653-9.629405Z" fill="#534741"/><rect id="uuid-3426bdff-695a-49d4-a638-fc454ad8dfc9" x="179.725056" y="244.273954" width="31.912601" height="14.959007" transform="translate(-121.465689 218.757281) rotate(-46.203295)" fill="#404040"/><rect id="uuid-ae58a061-b044-4801-a96e-77bf5ccb83c5" x="202.815647" y="224.985896" width="31.912601" height="14.959007" transform="translate(-90.555133 153.610571) rotate(-32.436739)" fill="#404040"/><rect id="uuid-aea783af-01ca-4388-b00d-6fdb7d97b581" x="288.608908" y="214.288354" width="14.959007" height="31.912601" transform="translate(-27.328814 420.19793) rotate(-68.296475)" fill="#404040"/><rect id="uuid-873421bd-cf92-46f7-abe6-5b02431c7a1f" x="312.580037" y="230.09022" width="14.959007" height="31.912601" transform="translate(-79.526883 303.559037) rotate(-45.741706)" fill="#404040"/><rect id="uuid-47ab12c6-bc31-463d-b764-f317f7795e89" x="171.993929" y="260.760116" width="15.956303" height="15.956303" transform="translate(-138.562186 212.647919) rotate(-46.203295)" fill="#eec6a2"/><rect id="uuid-2e230a4c-de8b-451b-bd3f-c418d003e149" x="328.331791" y="253.903395" width="15.956303" height="15.956303" transform="translate(-85.958602 319.981444) rotate(-45.741706)" fill="#eec6a2"/><polygon id="uuid-eac4b9f7-6b3e-43ab-8067-dba0252264cc" points="232 356 252 356 252 390.959792 252 398 222 398 222 391 232 391 232 356" fill="none" stroke="#000" stroke-linecap="round" stroke-linejoin="round"/><rect id="uuid-f64f37b1-7378-4f9e-b365-f7676c252b94" x="231.999985" y="317" width="20.000015" height="39" fill="none" stroke="#000" stroke-linecap="round" stroke-linejoin="round"/><polygon id="uuid-5d7da838-f1dc-4bd4-9d22-592bf375db2c" points="260.000031 356 280 356 280 391 290 391 290 398 260 398 260 390.959792 260.000031 390.959792 260.000031 356" fill="none" stroke="#000" stroke-linecap="round" stroke-linejoin="round"/><rect id="uuid-699517fd-2364-4a5b-a01a-13fe9d2c5f42" x="259.999985" y="317" width="20.000031" height="39" fill="none" stroke="#000" stroke-linecap="round" stroke-linejoin="round"/><polygon id="uuid-8bba71d5-7d29-4e7b-8e94-68fc0766e9c1" points="246.24995 272.879475 246.224964 273 246.333747 273 253.525942 234.521649 248.281864 226 264.113443 226 258.869365 234.521649 266.06156 273 266.170343 273 266.145356 272.879475 266.170343 273 266.042458 273 256.197653 285.811467 246.352849 273 246.224964 273 246.24995 272.879475" fill="none" stroke="#000" stroke-linecap="round" stroke-linejoin="round"/><path id="uuid-9cea4fb6-8bc3-41a9-8910-2266347a1dd1" d="M284,217v100h-56v-100h56ZM256.197653,266.92768l19.766986-48.92768h-39.533973l19.766986,48.92768Z" fill="none" stroke="#000" stroke-linecap="round" stroke-linejoin="round"/><path id="uuid-ec886bc0-7c8e-4754-81c3-b674c1e84afe" d="M229.015679,204.789839c-2.076169-5.318121-3.294255-11.326614-3.388305-17.706275-.324752-22.028643,12.805304-40.083872,29.326801-40.327436,16.521498-.243564,30.178082,17.416768,30.502835,39.445411.094051,6.379661-.946386,12.42145-2.864885,17.798461l-53.576446.789839Z" fill="none" stroke="#000" stroke-linecap="round" stroke-linejoin="round"/><path id="uuid-e54bedd4-2ca1-465e-93d5-9780b68aaaca" d="M281.27391,210c-5.31123,11.108678-14.626388,18.483075-25.23917,18.483075s-19.92794-7.374397-25.23917-18.483075h50.478341Z" fill="none" stroke="#000" stroke-linecap="round" stroke-linejoin="round"/><path id="uuid-5a39b806-9261-4aeb-853e-84d5d69bab82" d="M245.813365,196.245836c0,2.485281,1.343146,4.5,3,4.5s3-2.014719,3-4.5-1.343146-4.5-3-4.5-3,2.014719-3,4.5Z" fill="none" stroke="#000" stroke-linecap="round" stroke-linejoin="round"/><ellipse id="uuid-1ecd0a3b-97b3-4894-bf78-5d173a143858" cx="263" cy="196.5" rx="3" ry="4.5" fill="none" stroke="#000" stroke-linecap="round" stroke-linejoin="round"/><path id="uuid-e0c4eb68-1ffb-421c-af09-4092ab97b577" d="M229.122954,156.001373c9.519313-10.593031,29.086151-10.371805,38.777159-10.262226,12.134176.137193,26.368298,2.352426,26.764286,5.99859.350905,3.231063-10.401141,5.410202-10.314642,10.374914.062911,3.611018,5.807934,5.727836,5.20626,6.698503-1.276294,2.059033-26.091449-9.137504-31.306443-3.943474-2.342997,2.33357.872113,6.380255-1.648041,8.028304-2.603626,1.702647-6.748727-2.150074-16.625532-4.287406-8.500272-1.839452-12.648016-.54776-14.2997-2.977799-2.197379-3.232872,2.822238-8.934573,3.446653-9.629405Z" fill="none" stroke="#000" stroke-linecap="round" stroke-linejoin="round"/><rect id="uuid-db4cb238-4835-43c5-a9e5-d073e404e035" x="179.725056" y="244.273954" width="31.912601" height="14.959007" transform="translate(-121.465689 218.757281) rotate(-46.203295)" fill="none" stroke="#000" stroke-linecap="round" stroke-linejoin="round"/><rect id="uuid-fefadf3a-7dc9-42b6-8bd8-6887660578a9" x="202.815647" y="224.985896" width="31.912601" height="14.959007" transform="translate(-90.555133 153.610571) rotate(-32.436739)" fill="none" stroke="#000" stroke-linecap="round" stroke-linejoin="round"/><rect id="uuid-afd9f2b2-8e9b-4059-ba67-6e894d8f7a81" x="288.608908" y="214.288354" width="14.959007" height="31.912601" transform="translate(-27.328814 420.19793) rotate(-68.296475)" fill="none" stroke="#000" stroke-linecap="round" stroke-linejoin="round"/><rect id="uuid-8c7f56c6-c4a8-46e9-86dc-112f6d81936a" x="312.580037" y="230.09022" width="14.959007" height="31.912601" transform="translate(-79.526883 303.559037) rotate(-45.741706)" fill="none" stroke="#000" stroke-linecap="round" stroke-linejoin="round"/><rect id="uuid-f45f526e-ce5a-4b17-ab93-5812172b1c10" x="171.993929" y="260.760116" width="15.956303" height="15.956303" transform="translate(-138.562186 212.647919) rotate(-46.203295)" fill="none" stroke="#000" stroke-linecap="round" stroke-linejoin="round"/><rect id="uuid-3ce341a6-7076-4f72-9246-168af439a166" x="328.331791" y="253.903395" width="15.956303" height="15.956303" transform="translate(-85.958602 319.981444) rotate(-45.741706)" fill="none" stroke="#000" stroke-linecap="round" stroke-linejoin="round"/></g><rect x="149" y="282" width="159" height="80" fill="#6d4c41"/><path d="M149,415h-13v-133h13v133ZM308,282v133h84v-133h-84Z" fill="#6d4c41"/><rect x="127" y="273" width="275" height="9" fill="#8d6e63"/><rect x="149" y="282" width="159" height="80" fill="none" stroke="#000" stroke-linecap="round" stroke-linejoin="round"/><path d="M149,415h-13v-133h13v133ZM308,282v133h84v-133h-84Z" fill="none" stroke="#000" stroke-linecap="round" stroke-linejoin="round"/><rect x="127" y="273" width="275" height="9" fill="none" stroke="#000" stroke-linecap="round" stroke-linejoin="round"/><text transform="translate(58.867554 77.398682)" fill="#333" font-family="ComicNeue-Regular, &apos;Comic Neue&apos;" font-size="24"><tspan x="0" y="0">... except the prime minister. He was </tspan><tspan x="0" y="28.799805">prepared to sacrifice everything.</tspan></text></svg>