<?xml version="1.0" encoding="UTF-8"?><svg id="uuid-f3478074-75d2-40b4-af3e-a51f8ec76e26" xmlns="http://www.w3.org/2000/svg" xmlns:xlink="http://www.w3.org/1999/xlink" viewBox="0 0 500 500"><defs><linearGradient id="uuid-9d09424a-5b5b-4df0-ab0e-00766cdbdc0a" x1="272.500039" y1="-218.561605" x2="272.500039" y2="-169.185434" gradientTransform="translate(0 -18) scale(1 -1)" gradientUnits="userSpaceOnUse"><stop offset=".3731" stop-color="#9e9e9e"/><stop offset="1" stop-color="#bdbdbd"/></linearGradient></defs><text transform="translate(159.568481 378.039673)" fill="#333" font-family="ComicNeue-Regular, &apos;Comic Neue&apos;" font-size="24"><tspan x="0" y="0">Some saw it as a necessity; </tspan><tspan x="0" y="28.799805">some saw it as betrayal.</tspan></text><path d="M276,261h-6v-55h4.315094c.248949,0,.49068.132729.660253.366148l.883944,1.212865c.090198.123575.140709.283765.140709.453108v52.967879Z" fill="#a3673e"/><path d="M276,261h-6v-85.026712c0-.53674.220083-.973288.490678-.973288h5.018642c.270595,0,.49068.436548.49068.973288v85.026712Z" fill="#bf855e"/><path d="M315.099144,200h-81.604617c-.330996,0-.652535-.07164-.936245-.20697l-3.754436-1.775156c-.491765-.23085-.803847-.676627-.803847-1.154245v-57.075556c0-.429858.416109-.788072.936245-.788072h84.262037c.45394,0,.907873.127365,1.267237.358215l1.787376,1.154248c.472851.302493.747105.780112.747105,1.273653v56.597939c.009459.899521-.851126,1.615946-1.900856,1.615946Z" fill="url(#uuid-9d09424a-5b5b-4df0-ab0e-00766cdbdc0a)"/><path d="M313.043804,198h-84.087617c-.530162,0-.956187-.360388-.956187-.808879v-57.382243c0-.448487.426024-.808878.956187-.808878h84.087624c.530161,0,.956189.360391.956189.808878v57.382249c-.000007.448485-.426028.808873-.956196.808873Z" fill="#f5f5f5"/><path d="M276,261h-6v-55h4.315094c.248949,0,.49068.132729.660253.366148l.883944,1.212865c.090198.123575.140709.283765.140709.453108v52.967879Z" fill="none" stroke="#000" stroke-linecap="round" stroke-linejoin="round"/><path d="M276,261h-6v-85.026712c0-.53674.220083-.973288.490678-.973288h5.018642c.270595,0,.49068.436548.49068.973288v85.026712Z" fill="none" stroke="#000" stroke-linecap="round" stroke-linejoin="round"/><path d="M315.099144,200h-81.604617c-.330996,0-.652535-.07164-.936245-.20697l-3.754436-1.775156c-.491765-.23085-.803847-.676627-.803847-1.154245v-57.075556c0-.429858.416109-.788072.936245-.788072h84.262037c.45394,0,.907873.127365,1.267237.358215l1.787376,1.154248c.472851.302493.747105.780112.747105,1.273653v56.597939c.009459.899521-.851126,1.615946-1.900856,1.615946Z" fill="none" stroke="#000" stroke-linecap="round" stroke-linejoin="round"/><path d="M313.043804,198h-84.087617c-.530162,0-.956187-.360388-.956187-.808879v-57.382243c0-.448487.426024-.808878.956187-.808878h84.087624c.530161,0,.956189.360391.956189.808878v57.382249c-.000007.448485-.426028.808873-.956196.808873Z" fill="none" stroke="#000" stroke-linecap="round" stroke-linejoin="round"/><g id="uuid-a4e612fc-152e-40a7-9731-066a323e87c9"><polygon id="uuid-f9cb4f4d-c715-4881-9970-46dbeb31051e" points="232.938767 283.933327 232.95259 284 232.892412 284 228.913751 262.714104 231.81473 258 223.056835 258 225.957815 262.714104 221.979154 284 221.918976 284 221.932798 283.933327 221.918976 284 221.989721 284 227.435783 291.087195 232.881845 284 232.95259 284 232.938767 283.933327" fill="#565656"/><path id="uuid-4b32991d-d7d1-4fe0-8f5b-f86566dca66b" d="M212,253v56h31v-56h-31ZM227.435783,280.37152l-11.058208-27.37152h22.116416l-11.058208,27.37152Z" fill="#393939"/><path id="uuid-759d2431-f967-4f0c-b86e-60280bcb01a1" d="M242.60977,242.883206c.763789-3.101111,1.001297-6.522574.58829-10.067949-1.426094-12.241997-10.025255-21.299058-19.206761-20.229487-9.181506,1.069571-15.468508,11.86075-14.042414,24.102747.413008,3.545375,1.430629,6.820625,2.886801,9.663129l29.774085-3.46844Z" fill="#cecece"/><path id="uuid-9caa90ea-e0fc-4ada-a4c0-dc375f65bb51" d="M213.40742,249c2.971251,6.214507,8.182413,10.339952,14.119501,10.339952s11.14825-4.125445,14.119501-10.339952h-28.239003Z" fill="#cecece"/><ellipse id="uuid-d0479af8-2b5c-4adb-ad09-ae54df78730a" cx="238.5" cy="235.5" rx="1.485974" ry="2.508035" transform="translate(-22.404337 25.092237) rotate(-5.752738)" fill="#333"/><ellipse id="uuid-f7410f29-7163-4b0b-ba8f-6cbdb3f8f53b" cx="229.5" cy="237.5" rx="1.485974" ry="2.508035" transform="translate(-22.650135 24.200188) rotate(-5.752738)" fill="#333"/><path id="uuid-348426e5-c2ba-4a33-93b6-6038ed9aaaad" d="M207.423393,220.52016c4.449976-6.608724,15.30716-8.007659,20.684476-8.700514,6.732973-.867534,14.790897-.747129,15.293794,1.242046.445644,1.762715-5.341517,3.806019-4.907546,6.549732.315641,1.995604,3.662972,2.72159,3.405123,3.306123-.546956,1.239942-15.165122-3.033316-17.650335.249676-1.116559,1.474981.97927,3.466832-.28874,4.575811-1.310007,1.145717-3.905966-.666363-9.543889-1.082432-4.852164-.358081-7.049564.680037-8.15355-.537766-1.468727-1.620138.868772-5.169186,1.160667-5.602675Z" fill="#4a4a4a"/><rect id="uuid-7ecd8bc4-5399-4051-9054-01387b4d322e" x="249.398362" y="260.049226" width="17.852806" height="8.368489" transform="translate(-65.879099 86.912109) rotate(-16.971641)" fill="#393939"/><rect id="uuid-5119c1dd-0a14-4eeb-b026-60f44480924d" x="243.086911" y="252.799707" width="8.368489" height="17.852806" transform="translate(-112.735499 267.954252) rotate(-47.617821)" fill="#393939"/><rect id="uuid-8a1db378-a447-449a-9717-3917f4e270ee" x="198.064632" y="256.197634" width="17.852806" height="8.368489" transform="translate(-100.283057 387.765721) rotate(-74.033981)" fill="#393939"/><rect id="uuid-9b07124d-1024-4a31-a3a2-70f5ab788a9c" x="195.129489" y="272.414959" width="17.852806" height="8.368489" transform="translate(-90.150095 454.331484) rotate(-84.719165)" fill="#393939"/><rect id="uuid-b1fa1bf4-038c-4ba9-90da-b0751d5754c8" x="265.752202" y="256.141369" width="8.926405" height="8.926405" transform="translate(-64.301985 90.224926) rotate(-16.971641)" fill="#cecece"/><rect id="uuid-1488733a-6425-4b05-b295-0837c3f4c7e7" x="198.424433" y="284.775395" width="8.926405" height="8.926405" transform="translate(-103.796576 464.644281) rotate(-84.719165)" fill="#cecece"/><polygon id="uuid-157bcc0d-c420-4e37-bb3b-6163606b4fb6" points="232.938767 283.933327 232.95259 284 232.892412 284 228.913751 262.714104 231.81473 258 223.056835 258 225.957815 262.714104 221.979154 284 221.918976 284 221.932798 283.933327 221.918976 284 221.989721 284 227.435783 291.087195 232.881845 284 232.95259 284 232.938767 283.933327" fill="none" stroke="#000" stroke-linecap="round" stroke-linejoin="round"/><path id="uuid-d66cd771-c97a-4242-b5c1-ef080435cc6e" d="M212,253v56h31v-56h-31ZM227.435783,280.37152l-11.058208-27.37152h22.116416l-11.058208,27.37152Z" fill="none" stroke="#000" stroke-linecap="round" stroke-linejoin="round"/><path id="uuid-1f084db4-f55d-4a41-93a8-bcc3604ae6a3" d="M242.60977,242.883206c.763789-3.101111,1.001297-6.522574.58829-10.067949-1.426094-12.241997-10.025255-21.299058-19.206761-20.229487-9.181506,1.069571-15.468508,11.86075-14.042414,24.102747.413008,3.545375,1.430629,6.820625,2.886801,9.663129l29.774085-3.46844Z" fill="none" stroke="#000" stroke-linecap="round" stroke-linejoin="round"/><path id="uuid-94389722-85a2-4c83-880a-6ea5d4c66514" d="M213.40742,249c2.971251,6.214507,8.182413,10.339952,14.119501,10.339952s11.14825-4.125445,14.119501-10.339952h-28.239003Z" fill="none" stroke="#000" stroke-linecap="round" stroke-linejoin="round"/><ellipse id="uuid-60a3aeaf-e65d-4305-96ef-bb747be543b8" cx="238.5" cy="235.5" rx="1.485974" ry="2.508035" transform="translate(-22.404337 25.092237) rotate(-5.752738)" fill="none" stroke="#000" stroke-linecap="round" stroke-linejoin="round"/><ellipse id="uuid-e4db45ef-b21c-403c-a705-bce1b90e5339" cx="229.5" cy="237.5" rx="1.485974" ry="2.508035" transform="translate(-22.650135 24.200188) rotate(-5.752738)" fill="none" stroke="#000" stroke-linecap="round" stroke-linejoin="round"/><path id="uuid-3322d4fe-cd14-44ef-9c4c-b89c8cbff3fc" d="M207.423393,220.52016c4.449976-6.608724,15.30716-8.007659,20.684476-8.700514,6.732973-.867534,14.790897-.747129,15.293794,1.242046.445644,1.762715-5.341517,3.806019-4.907546,6.549732.315641,1.995604,3.662972,2.72159,3.405123,3.306123-.546956,1.239942-15.165122-3.033316-17.650335.249676-1.116559,1.474981.97927,3.466832-.28874,4.575811-1.310007,1.145717-3.905966-.666363-9.543889-1.082432-4.852164-.358081-7.049564.680037-8.15355-.537766-1.468727-1.620138.868772-5.169186,1.160667-5.602675Z" fill="none" stroke="#000" stroke-linecap="round" stroke-linejoin="round"/><rect id="uuid-8a24908f-72e8-4eb3-986b-065e7a036f15" x="249.398362" y="260.049226" width="17.852806" height="8.368489" transform="translate(-65.879099 86.912109) rotate(-16.971641)" fill="none" stroke="#000" stroke-linecap="round" stroke-linejoin="round"/><rect id="uuid-a3561ce7-6f94-4f5a-b7b9-13a47822b7b9" x="243.086911" y="252.799707" width="8.368489" height="17.852806" transform="translate(-112.735499 267.954252) rotate(-47.617821)" fill="none" stroke="#000" stroke-linecap="round" stroke-linejoin="round"/><rect id="uuid-06ef2711-1307-4c5f-8f61-3ad505d81b27" x="198.064632" y="256.197634" width="17.852806" height="8.368489" transform="translate(-100.283057 387.765721) rotate(-74.033981)" fill="none" stroke="#000" stroke-linecap="round" stroke-linejoin="round"/><rect id="uuid-b3d3e0ed-8176-4679-a988-95e912462914" x="195.129489" y="272.414959" width="17.852806" height="8.368489" transform="translate(-90.150095 454.331484) rotate(-84.719165)" fill="none" stroke="#000" stroke-linecap="round" stroke-linejoin="round"/><rect id="uuid-21d6b2fe-73b3-4520-8879-c3be44ca3cac" x="265.752202" y="256.141369" width="8.926405" height="8.926405" transform="translate(-64.301985 90.224926) rotate(-16.971641)" fill="none" stroke="#000" stroke-linecap="round" stroke-linejoin="round"/><rect id="uuid-08efa1ef-2948-4344-8267-9bc6f0419e41" x="198.424433" y="284.775395" width="8.926405" height="8.926405" transform="translate(-103.796576 464.644281) rotate(-84.719165)" fill="none" stroke="#000" stroke-linecap="round" stroke-linejoin="round"/></g><g id="uuid-a6d9b29f-3fcf-4edd-8224-ffb31810be79"><polygon id="uuid-f0d103a9-d8c8-48b6-a891-d12f38c8c364" points="316.362748 283.933327 316.37657 284 316.316392 284 312.337731 262.714104 315.23871 258 306.480816 258 309.381795 262.714104 305.403134 284 305.342956 284 305.356778 283.933327 305.342956 284 305.413701 284 310.859763 291.087195 316.305825 284 316.37657 284 316.362748 283.933327" fill="#565656"/><path id="uuid-b55dc5ee-ea9c-4fe2-a61e-1d7fe4466938" d="M295,253v56h31v-56h-31ZM310.859763,281.37152l-11.058208-27.37152h22.116416l-11.058208,27.37152Z" fill="#393939"/><path id="uuid-5eb2972b-e287-4c36-a8e6-cc163345323a" d="M325.425815,245.781543c1.435852-2.852822,2.430077-6.13525,2.817775-9.683482,1.338703-12.251862-5.02514-22.997904-14.214045-24.001932-9.188905-1.004028-17.723219,8.114163-19.061922,20.366024-.387699,3.548231-.125781,6.967913.660116,10.063495l29.798076,3.255895Z" fill="#cecece"/><path id="uuid-4ddb1777-9cad-49ff-94de-58d21ce7e80c" d="M296.8314,249c2.971251,6.214507,8.182413,10.339952,14.119501,10.339952s11.14825-4.125445,14.119501-10.339952h-28.239003Z" fill="#cecece"/><ellipse id="uuid-3488c441-3e3e-4297-a23d-1d39cd7e1187" cx="318.5" cy="237.5" rx="2.50397" ry="1.493042" transform="translate(59.034323 538.375493) rotate(-85.937801)" fill="#333"/><ellipse id="uuid-486cb764-dbca-4eea-a85e-4018f439214b" cx="308.5" cy="236.5" rx="2.50397" ry="1.493042" transform="translate(50.740204 527.471455) rotate(-85.937801)" fill="#333"/><path id="uuid-88d729a4-9952-4330-8d8b-fa2462d65184" d="M296.122349,216.002232c5.811184-5.450474,16.707022-4.39399,22.103483-3.870731,6.756944.655169,14.585275,2.56877,14.632104,4.619996.041497,1.817702-6.055529,2.519553-6.244091,5.290967-.13715,2.015751,2.964123,3.469637,2.582462,3.981984-.809594,1.086819-14.10737-6.337511-17.261875-3.691115-1.417258,1.188971.181824,3.597892-1.301487,4.396311-1.532441.82487-3.659143-1.520291-9.062457-3.182663-4.650253-1.430687-7.023774-.908521-7.828515-2.341776-1.07062-1.906772,1.999196-4.845458,2.380377-5.202972Z" fill="#4a4a4a"/><rect id="uuid-6a442790-0a7c-4fd3-800c-0ebba18ad8a4" x="329.009355" y="269.504268" width="8.368489" height="17.852806" transform="translate(-33.894818 46.508902) rotate(-7.599384)" fill="#393939"/><rect id="uuid-998ccc6f-0024-4843-bd8d-fb9fb82ef794" x="326.945622" y="252.456859" width="8.368489" height="17.852806" transform="translate(-24.06409 33.775152) rotate(-5.634698)" fill="#393939"/><rect id="uuid-71cb2a2c-430d-4041-8753-6fa9c240f5b5" x="281.488613" y="257.149164" width="17.852806" height="8.368489" transform="translate(-15.253638 504.649469) rotate(-80.503068)" fill="#393939"/><rect id="uuid-49c5381d-899b-4c1a-909d-f2ac6b8989f7" x="279.672326" y="272.807061" width="17.852806" height="8.368489" transform="translate(-13.778809 538.871495) rotate(-84.719165)" fill="#393939"/><rect id="uuid-a2db2366-ba6f-42bf-87f3-d1fdaab6301e" x="330.374485" y="286.290341" width="8.926405" height="8.926405" transform="translate(-35.510025 46.834557) rotate(-7.599384)" fill="#cecece"/><rect id="uuid-d6e32f84-f9e8-41af-9e0f-ccda8a55a9c9" x="282.96727" y="285.167497" width="8.926405" height="8.926405" transform="translate(-27.42529 549.184292) rotate(-84.719165)" fill="#cecece"/><polygon id="uuid-74dfe7f1-805b-4dce-a8f6-fdcb59bbbb6b" points="316.362748 283.933327 316.37657 284 316.316392 284 312.337731 262.714104 315.23871 258 306.480816 258 309.381795 262.714104 305.403134 284 305.342956 284 305.356778 283.933327 305.342956 284 305.413701 284 310.859763 291.087195 316.305825 284 316.37657 284 316.362748 283.933327" fill="none" stroke="#000" stroke-linecap="round" stroke-linejoin="round"/><path id="uuid-dd23e15e-e3e2-415d-8631-c114131f2479" d="M295,253v56h31v-56h-31ZM310.859763,281.37152l-11.058208-27.37152h22.116416l-11.058208,27.37152Z" fill="none" stroke="#000" stroke-linecap="round" stroke-linejoin="round"/><path id="uuid-d967f711-1b38-4dd7-8bff-ffdf765c5004" d="M325.425815,245.781543c1.435852-2.852822,2.430077-6.13525,2.817775-9.683482,1.338703-12.251862-5.02514-22.997904-14.214045-24.001932-9.188905-1.004028-17.723219,8.114163-19.061922,20.366024-.387699,3.548231-.125781,6.967913.660116,10.063495l29.798076,3.255895Z" fill="none" stroke="#000" stroke-linecap="round" stroke-linejoin="round"/><path id="uuid-dcc41915-080d-4c99-8206-f7fcc761228b" d="M296.8314,249c2.971251,6.214507,8.182413,10.339952,14.119501,10.339952s11.14825-4.125445,14.119501-10.339952h-28.239003Z" fill="none" stroke="#000" stroke-linecap="round" stroke-linejoin="round"/><ellipse id="uuid-24233a9e-f01d-4f33-a87b-33a9e01ef9b2" cx="318.5" cy="237.5" rx="2.50397" ry="1.493042" transform="translate(59.034323 538.375493) rotate(-85.937801)" fill="none" stroke="#000" stroke-linecap="round" stroke-linejoin="round"/><ellipse id="uuid-94a2c683-e968-48e5-a11f-bef51ce9f67d" cx="308.5" cy="236.5" rx="2.50397" ry="1.493042" transform="translate(50.740204 527.471455) rotate(-85.937801)" fill="none" stroke="#000" stroke-linecap="round" stroke-linejoin="round"/><path id="uuid-ca7d6ab9-94c8-407c-b9c7-9dfb39340eaf" d="M296.122349,216.002232c5.811184-5.450474,16.707022-4.39399,22.103483-3.870731,6.756944.655169,14.585275,2.56877,14.632104,4.619996.041497,1.817702-6.055529,2.519553-6.244091,5.290967-.13715,2.015751,2.964123,3.469637,2.582462,3.981984-.809594,1.086819-14.10737-6.337511-17.261875-3.691115-1.417258,1.188971.181824,3.597892-1.301487,4.396311-1.532441.82487-3.659143-1.520291-9.062457-3.182663-4.650253-1.430687-7.023774-.908521-7.828515-2.341776-1.07062-1.906772,1.999196-4.845458,2.380377-5.202972Z" fill="none" stroke="#000" stroke-linecap="round" stroke-linejoin="round"/><rect id="uuid-9df01801-46ba-41be-8469-2ba89cec2e3f" x="329.009355" y="269.504268" width="8.368489" height="17.852806" transform="translate(-33.894818 46.508902) rotate(-7.599384)" fill="none" stroke="#000" stroke-linecap="round" stroke-linejoin="round"/><rect id="uuid-f69816db-1b7f-4978-9cc7-befea0121497" x="326.945622" y="252.456859" width="8.368489" height="17.852806" transform="translate(-24.06409 33.775152) rotate(-5.634698)" fill="none" stroke="#000" stroke-linecap="round" stroke-linejoin="round"/><rect id="uuid-ead701fd-de0d-489f-a720-917d775f2bba" x="281.488613" y="257.149164" width="17.852806" height="8.368489" transform="translate(-15.253638 504.649469) rotate(-80.503068)" fill="none" stroke="#000" stroke-linecap="round" stroke-linejoin="round"/><rect id="uuid-3134c2f8-8062-4bcc-b801-28c7fa7eee6e" x="279.672326" y="272.807061" width="17.852806" height="8.368489" transform="translate(-13.778809 538.871495) rotate(-84.719165)" fill="none" stroke="#000" stroke-linecap="round" stroke-linejoin="round"/><rect id="uuid-05227df3-b1cf-4870-a916-f30600509922" x="330.374485" y="286.290341" width="8.926405" height="8.926405" transform="translate(-35.510025 46.834557) rotate(-7.599384)" fill="none" stroke="#000" stroke-linecap="round" stroke-linejoin="round"/><rect id="uuid-a619ccbb-2e57-432f-912f-088b3d84e0d9" x="282.96727" y="285.167497" width="8.926405" height="8.926405" transform="translate(-27.42529 549.184292) rotate(-84.719165)" fill="none" stroke="#000" stroke-linecap="round" stroke-linejoin="round"/></g><path d="M416,61H155v12h15v247h234V73h12v-12ZM389,308h-204V73h204v235Z" fill="#5b451f"/><rect x="185" y="73" width="204" height="235" fill="#cfefff" opacity=".5"/><path d="M416,61H155v12h15v247h234V73h12v-12ZM389,308h-204V73h204v235Z" fill="none" stroke="#000" stroke-linecap="round" stroke-linejoin="round"/><rect x="185" y="73" width="204" height="235" fill="none" stroke="#000" stroke-linecap="round" stroke-linejoin="round"/><g id="uuid-1e723f62-ae43-4714-b76a-bc561f43322c"><rect id="uuid-c06af1e6-72b0-46b2-8436-473f7c01cb40" x="110.110727" y="288.736051" width="31.912601" height="14.959007" transform="translate(-190.617108 238.356172) rotate(-56.59182)" fill="#404040"/><rect id="uuid-479ea521-fe82-48c9-a410-4f6031a72e6c" x="123.965643" y="256.877565" width="14.959007" height="31.912601" transform="translate(-45.811383 27.280882) rotate(-10.100556)" fill="#404040"/><rect id="uuid-9c7e99bb-f2b7-48e2-b0e2-83b2cbf306a3" x="105.004889" y="307.318138" width="15.956303" height="15.956303" transform="translate(-212.425065 236.008946) rotate(-56.59182)" fill="#eec6a2"/><rect id="uuid-745be91b-b84e-4d0d-b6e7-4f8c8874cfe5" x="57.396831" y="280.651808" width="14.959007" height="31.912601" transform="translate(-152.592838 84.729681) rotate(-33.40818)" fill="#404040"/><rect id="uuid-3901132a-e77b-43fc-83b3-ea67b7084b61" x="43.541915" y="265.746917" width="31.912601" height="14.959007" transform="translate(-219.928175 283.885069) rotate(-79.899444)" fill="#404040"/><rect id="uuid-ac5b5c8c-208a-4488-9390-4e28f3fe8d8f" x="69.98217" y="307.710692" width="15.956303" height="15.956303" transform="translate(-160.936812 95.086447) rotate(-33.40818)" fill="#eec6a2"/><polygon id="uuid-d027d2e8-bfde-40d0-91b7-9bf8085ca6c5" points="71 397 91 397 91 431.959792 91 439 61 439 61 432 71 432 71 397" fill="#404040"/><rect id="uuid-99faf10e-8c4d-4a50-abc1-3eb3985b04c7" x="70.999985" y="358" width="20.000015" height="39" fill="#404040"/><polygon id="uuid-99039038-597b-4bde-95a3-627a1d8da048" points="99.000031 397 119 397 119 432 129 432 129 439 99 439 99 431.959792 99.000031 431.959792 99.000031 397" fill="#404040"/><rect id="uuid-3f881124-9552-42b4-8d22-37276b6bae0f" x="98.999985" y="358" width="20.000031" height="39" fill="#404040"/><polygon id="uuid-3e293b49-5647-439c-9cf2-eb5e6fbb1ff0" points="85.620887 313.879475 85.595901 314 85.704684 314 92.896879 275.521649 87.652801 267 103.48438 267 98.240302 275.521649 105.432497 314 105.54128 314 105.516293 313.879475 105.54128 314 105.413395 314 95.56859 326.811467 85.723786 314 85.595901 314 85.620887 313.879475" fill="#c1272d"/><path id="uuid-4549fb31-23b7-4921-add3-1ce83ddbddad" d="M123,258v100h-56v-100h56ZM95.56859,307.92768l19.766986-48.92768h-39.533973l19.766986,48.92768Z" fill="#404040"/><path id="uuid-a97f8da3-bf03-404e-8764-08f3b4f7b9c5" d="M68.386616,246.789839c-2.076169-5.318121-3.294255-11.326614-3.388305-17.706275-.324752-22.028643,12.805304-40.083872,29.326801-40.327436,16.521498-.243564,30.178082,17.416768,30.502835,39.445411.094051,6.379661-.946386,12.42145-2.864885,17.798461l-53.576446.789839Z" fill="#eec6a2"/><path id="uuid-abdd0e76-e1f2-4848-825a-22a59f763d9c" d="M120.644847,251c-5.31123,11.108678-14.626388,18.483075-25.23917,18.483075s-19.92794-7.374397-25.23917-18.483075h50.478341Z" fill="#eec6a2"/><ellipse id="uuid-1ddb32ca-2bd5-4eec-bc3f-1c73fdbade65" cx="101" cy="233.5" rx="2.987586" ry="4.50793" transform="translate(-18.302875 8.800036) rotate(-4.574947)" fill="#333"/><ellipse id="uuid-2fda842a-dfd5-41b2-b6a0-a70b8423e608" cx="115" cy="232.5" rx="2.987586" ry="4.50793" transform="translate(-18.178506 9.913533) rotate(-4.574947)" fill="#333"/><path id="uuid-d9729368-faee-4667-8c06-f7f275e33fa7" d="M68.493891,197.211204c9.519313-10.593031,29.086151-10.371805,38.777159-10.262226,12.134176.137193,26.368298,2.352426,26.764286,5.99859.350905,3.231063-10.401141,5.410202-10.314642,10.374914.062911,3.611018,5.807934,5.727836,5.20626,6.698503-1.276294,2.059033-26.091449-9.137504-31.306443-3.943474-2.342997,2.33357.872113,6.380255-1.648041,8.028304-2.603626,1.702647-6.748727-2.150074-16.625532-4.287406-8.500272-1.839452-12.648016-.54776-14.2997-2.977799-2.197379-3.232872,2.822238-8.934573,3.446653-9.629405Z" fill="#534741"/><rect id="uuid-7a8d9f97-eafb-41ee-9023-0ac31be8a3a7" x="110.110727" y="288.736051" width="31.912601" height="14.959007" transform="translate(-190.617108 238.356172) rotate(-56.59182)" fill="none" stroke="#000" stroke-linecap="round" stroke-linejoin="round"/><rect id="uuid-138240d0-da5f-43d6-b47c-98eb38abd010" x="123.965643" y="256.877565" width="14.959007" height="31.912601" transform="translate(-45.811383 27.280882) rotate(-10.100556)" fill="none" stroke="#000" stroke-linecap="round" stroke-linejoin="round"/><rect id="uuid-b65f0ed9-1870-45e2-9f94-efc756365de8" x="105.004889" y="307.318138" width="15.956303" height="15.956303" transform="translate(-212.425065 236.008946) rotate(-56.59182)" fill="none" stroke="#000" stroke-linecap="round" stroke-linejoin="round"/><rect id="uuid-84ee7fc7-57bb-443e-86c2-f4884e2d65ca" x="57.396831" y="280.651808" width="14.959007" height="31.912601" transform="translate(-152.592838 84.729681) rotate(-33.40818)" fill="none" stroke="#000" stroke-linecap="round" stroke-linejoin="round"/><rect id="uuid-5d7823a3-ef81-44c7-84eb-416dfc37394b" x="43.541915" y="265.746917" width="31.912601" height="14.959007" transform="translate(-219.928175 283.885069) rotate(-79.899444)" fill="none" stroke="#000" stroke-linecap="round" stroke-linejoin="round"/><rect id="uuid-be90fff0-5f8c-4e3b-8b33-16c8b3846c9f" x="69.98217" y="307.710692" width="15.956303" height="15.956303" transform="translate(-160.936812 95.086447) rotate(-33.40818)" fill="none" stroke="#000" stroke-linecap="round" stroke-linejoin="round"/><polygon id="uuid-5b10af2f-a51f-4f6e-a0c7-a35ef45a8f72" points="71 397 91 397 91 431.959792 91 439 61 439 61 432 71 432 71 397" fill="none" stroke="#000" stroke-linecap="round" stroke-linejoin="round"/><rect id="uuid-ed3ceec5-3148-4fb1-a006-3154a18ab727" x="70.999985" y="358" width="20.000015" height="39" fill="none" stroke="#000" stroke-linecap="round" stroke-linejoin="round"/><polygon id="uuid-b53f3390-7e16-417a-89e4-b1806eb11d3f" points="99.000031 397 119 397 119 432 129 432 129 439 99 439 99 431.959792 99.000031 431.959792 99.000031 397" fill="none" stroke="#000" stroke-linecap="round" stroke-linejoin="round"/><rect id="uuid-0bbd6087-8abf-4ec8-b8a6-1b9f8126cdd5" x="98.999985" y="358" width="20.000031" height="39" fill="none" stroke="#000" stroke-linecap="round" stroke-linejoin="round"/><polygon id="uuid-276c9257-2fac-4a47-b63e-bfb8ce29c191" points="85.620887 313.879475 85.595901 314 85.704684 314 92.896879 275.521649 87.652801 267 103.48438 267 98.240302 275.521649 105.432497 314 105.54128 314 105.516293 313.879475 105.54128 314 105.413395 314 95.56859 326.811467 85.723786 314 85.595901 314 85.620887 313.879475" fill="none" stroke="#000" stroke-linecap="round" stroke-linejoin="round"/><path id="uuid-24030d09-cf20-4842-b8a5-5315b4631b5a" d="M123,258v100h-56v-100h56ZM95.56859,307.92768l19.766986-48.92768h-39.533973l19.766986,48.92768Z" fill="none" stroke="#000" stroke-linecap="round" stroke-linejoin="round"/><path id="uuid-1132f775-7faa-495f-9549-df9d6ebd279e" d="M68.386616,246.789839c-2.076169-5.318121-3.294255-11.326614-3.388305-17.706275-.324752-22.028643,12.805304-40.083872,29.326801-40.327436,16.521498-.243564,30.178082,17.416768,30.502835,39.445411.094051,6.379661-.946386,12.42145-2.864885,17.798461l-53.576446.789839Z" fill="none" stroke="#000" stroke-linecap="round" stroke-linejoin="round"/><path id="uuid-fe56763d-3c6d-42c8-991f-e1359732e37b" d="M120.644847,251c-5.31123,11.108678-14.626388,18.483075-25.23917,18.483075s-19.92794-7.374397-25.23917-18.483075h50.478341Z" fill="none" stroke="#000" stroke-linecap="round" stroke-linejoin="round"/><ellipse id="uuid-2abe46bb-6de8-465a-9e0e-c5a651c9d7bc" cx="101" cy="233.5" rx="2.987586" ry="4.50793" transform="translate(-18.302875 8.800036) rotate(-4.574947)" fill="none" stroke="#000" stroke-linecap="round" stroke-linejoin="round"/><ellipse id="uuid-11f85efd-41f7-48bd-a540-aed59aeaa502" cx="115" cy="232.5" rx="2.987586" ry="4.50793" transform="translate(-18.178506 9.913533) rotate(-4.574947)" fill="none" stroke="#000" stroke-linecap="round" stroke-linejoin="round"/><path id="uuid-e3f8e6ac-e64b-411b-a00b-2ecbf7bc6d6a" d="M68.493891,197.211204c9.519313-10.593031,29.086151-10.371805,38.777159-10.262226,12.134176.137193,26.368298,2.352426,26.764286,5.99859.350905,3.231063-10.401141,5.410202-10.314642,10.374914.062911,3.611018,5.807934,5.727836,5.20626,6.698503-1.276294,2.059033-26.091449-9.137504-31.306443-3.943474-2.342997,2.33357.872113,6.380255-1.648041,8.028304-2.603626,1.702647-6.748727-2.150074-16.625532-4.287406-8.500272-1.839452-12.648016-.54776-14.2997-2.977799-2.197379-3.232872,2.822238-8.934573,3.446653-9.629405Z" fill="none" stroke="#000" stroke-linecap="round" stroke-linejoin="round"/></g><text transform="translate(233.265259 165.885986)" fill="#333" font-family="ComicNeue-Regular, &apos;Comic Neue&apos;" font-size="14"><tspan x="0" y="0">Conscription </tspan><tspan x="9.100098" y="16.799805">is slavery.</tspan></text></svg>