<?xml version="1.0" encoding="UTF-8"?><svg id="uuid-75da6a77-0056-493d-8a2e-3b1985dae48e" xmlns="http://www.w3.org/2000/svg" xmlns:xlink="http://www.w3.org/1999/xlink" viewBox="0 0 500 500"><defs><linearGradient id="uuid-80cadfd8-2fd8-425c-808a-573a047aafe1" x1="272.5" y1="-218.56" x2="272.5" y2="-169.19" gradientTransform="translate(0 -18) scale(1 -1)" gradientUnits="userSpaceOnUse"><stop offset=".37" stop-color="#9e9e9e"/><stop offset="1" stop-color="#bdbdbd"/></linearGradient></defs><text transform="translate(159.57 378.04)" fill="#333" font-family="ComicNeue-Regular, &apos;Comic Neue&apos;" font-size="24"><tspan x="0" y="0">Some saw it as a necessity; </tspan><tspan x="0" y="28.8">some saw it as betrayal.</tspan></text><path d="M276,261h-6v-55h4.32c.25,0,.49.13.66.37l.88,1.21c.09.12.14.28.14.45v52.97Z" fill="#a3673e"/><path d="M276,261h-6v-85.03c0-.54.22-.97.49-.97h5.02c.27,0,.49.44.49.97v85.03Z" fill="#bf855e"/><path d="M315.1,200h-81.6c-.33,0-.65-.07-.94-.21l-3.75-1.78c-.49-.23-.8-.68-.8-1.15v-57.08c0-.43.42-.79.94-.79h84.26c.45,0,.91.13,1.27.36l1.79,1.15c.47.3.75.78.75,1.27v56.6c0,.9-.85,1.62-1.9,1.62Z" fill="url(#uuid-80cadfd8-2fd8-425c-808a-573a047aafe1)"/><path d="M313.04,198h-84.09c-.53,0-.96-.36-.96-.81v-57.38c0-.45.43-.81.96-.81h84.09c.53,0,.96.36.96.81v57.38c0,.45-.43.81-.96.81Z" fill="#f5f5f5"/><path d="M276,261h-6v-55h4.32c.25,0,.49.13.66.37l.88,1.21c.09.12.14.28.14.45v52.97Z" fill="none" stroke="#000" stroke-linecap="round" stroke-linejoin="round"/><path d="M276,261h-6v-85.03c0-.54.22-.97.49-.97h5.02c.27,0,.49.44.49.97v85.03Z" fill="none" stroke="#000" stroke-linecap="round" stroke-linejoin="round"/><path d="M315.1,200h-81.6c-.33,0-.65-.07-.94-.21l-3.75-1.78c-.49-.23-.8-.68-.8-1.15v-57.08c0-.43.42-.79.94-.79h84.26c.45,0,.91.13,1.27.36l1.79,1.15c.47.3.75.78.75,1.27v56.6c0,.9-.85,1.62-1.9,1.62Z" fill="none" stroke="#000" stroke-linecap="round" stroke-linejoin="round"/><path d="M313.04,198h-84.09c-.53,0-.96-.36-.96-.81v-57.38c0-.45.43-.81.96-.81h84.09c.53,0,.96.36.96.81v57.38c0,.45-.43.81-.96.81Z" fill="none" stroke="#000" stroke-linecap="round" stroke-linejoin="round"/><g id="uuid-29533fa0-2fc9-4c6b-8c58-152f8424cb75"><polygon id="uuid-52f34da2-3265-45f4-8b60-ae26e1712dd7" points="232.94 283.93 232.95 284 232.89 284 228.91 262.71 231.81 258 223.06 258 225.96 262.71 221.98 284 221.92 284 221.93 283.93 221.92 284 221.99 284 227.44 291.09 232.88 284 232.95 284 232.94 283.93" fill="#565656"/><path id="uuid-3b996f6b-ebbd-4dbc-b7e4-1de1a6c5822a" d="M212,253v56h31v-56h-31ZM227.44,280.37l-11.06-27.37h22.12l-11.06,27.37Z" fill="#393939"/><path id="uuid-995d68bb-1a6b-4cf3-bbd4-b4654140e346" d="M242.61,242.88c.76-3.1,1-6.52.59-10.07-1.43-12.24-10.03-21.3-19.21-20.23-9.18,1.07-15.47,11.86-14.04,24.1.41,3.55,1.43,6.82,2.89,9.66l29.77-3.47Z" fill="#cecece"/><path id="uuid-63965620-1dec-4dc7-b9a0-7f13a8d9ac6f" d="M213.41,249c2.97,6.21,8.18,10.34,14.12,10.34s11.15-4.13,14.12-10.34h-28.24Z" fill="#cecece"/><ellipse id="uuid-72a813f4-79e6-471d-a623-5b38373c4ae1" cx="238.5" cy="235.5" rx="1.49" ry="2.51" transform="translate(-22.4 25.09) rotate(-5.75)" fill="#333"/><ellipse id="uuid-0884bb57-b6df-47bd-9b2c-b8d9ea3c7b33" cx="229.5" cy="237.5" rx="1.49" ry="2.51" transform="translate(-22.65 24.2) rotate(-5.75)" fill="#333"/><path id="uuid-3e5664ec-8287-4d38-bfb6-bd5818970484" d="M207.42,220.52c4.45-6.61,15.31-8.01,20.68-8.7,6.73-.87,14.79-.75,15.29,1.24.45,1.76-5.34,3.81-4.91,6.55.32,2,3.66,2.72,3.41,3.31-.55,1.24-15.17-3.03-17.65.25-1.12,1.47.98,3.47-.29,4.58-1.31,1.15-3.91-.67-9.54-1.08-4.85-.36-7.05.68-8.15-.54-1.47-1.62.87-5.17,1.16-5.6Z" fill="#4a4a4a"/><rect id="uuid-75c8b173-91fa-48f3-b5cb-d90f8eacd6a4" x="249.4" y="260.05" width="17.85" height="8.37" transform="translate(-65.88 86.91) rotate(-16.97)" fill="#393939"/><rect id="uuid-5aa2873c-ffbc-4a56-b285-963b2b691ff8" x="243.09" y="252.8" width="8.37" height="17.85" transform="translate(-112.74 267.95) rotate(-47.62)" fill="#393939"/><rect id="uuid-7cc7bcee-fdb7-4851-8872-81bda5491b1e" x="198.06" y="256.2" width="17.85" height="8.37" transform="translate(-100.28 387.77) rotate(-74.03)" fill="#393939"/><rect id="uuid-6e4aac6a-8e8b-4499-9be8-c9db3b49451d" x="195.13" y="272.41" width="17.85" height="8.37" transform="translate(-90.15 454.33) rotate(-84.72)" fill="#393939"/><rect id="uuid-fb587df5-9312-42a8-af5e-f7af48426bf8" x="265.75" y="256.14" width="8.93" height="8.93" transform="translate(-64.3 90.22) rotate(-16.97)" fill="#cecece"/><rect id="uuid-9a34ea6e-1fab-4cc7-881f-e5411ad83157" x="198.42" y="284.78" width="8.93" height="8.93" transform="translate(-103.8 464.64) rotate(-84.72)" fill="#cecece"/><polygon id="uuid-d82c3e60-63ab-4856-949c-228b8ce0d5dd" points="232.94 283.93 232.95 284 232.89 284 228.91 262.71 231.81 258 223.06 258 225.96 262.71 221.98 284 221.92 284 221.93 283.93 221.92 284 221.99 284 227.44 291.09 232.88 284 232.95 284 232.94 283.93" fill="none" stroke="#000" stroke-linecap="round" stroke-linejoin="round"/><path id="uuid-b4736806-30a3-49cd-9a7b-28005fe6a7f4" d="M212,253v56h31v-56h-31ZM227.44,280.37l-11.06-27.37h22.12l-11.06,27.37Z" fill="none" stroke="#000" stroke-linecap="round" stroke-linejoin="round"/><path id="uuid-a42ce64f-442f-4029-ab6f-e630108b7d0b" d="M242.61,242.88c.76-3.1,1-6.52.59-10.07-1.43-12.24-10.03-21.3-19.21-20.23-9.18,1.07-15.47,11.86-14.04,24.1.41,3.55,1.43,6.82,2.89,9.66l29.77-3.47Z" fill="none" stroke="#000" stroke-linecap="round" stroke-linejoin="round"/><path id="uuid-6325dfaf-f1e8-49ad-9b32-4a2bbdcd3938" d="M213.41,249c2.97,6.21,8.18,10.34,14.12,10.34s11.15-4.13,14.12-10.34h-28.24Z" fill="none" stroke="#000" stroke-linecap="round" stroke-linejoin="round"/><ellipse id="uuid-2f8205c1-3f71-487d-8588-2c9d568bb359" cx="238.5" cy="235.5" rx="1.49" ry="2.51" transform="translate(-22.4 25.09) rotate(-5.75)" fill="none" stroke="#000" stroke-linecap="round" stroke-linejoin="round"/><ellipse id="uuid-917174da-cbda-4f09-9570-35aa093e609d" cx="229.5" cy="237.5" rx="1.49" ry="2.51" transform="translate(-22.65 24.2) rotate(-5.75)" fill="none" stroke="#000" stroke-linecap="round" stroke-linejoin="round"/><path id="uuid-c90ccc55-0e8c-4d55-b9a6-501c7674412a" d="M207.42,220.52c4.45-6.61,15.31-8.01,20.68-8.7,6.73-.87,14.79-.75,15.29,1.24.45,1.76-5.34,3.81-4.91,6.55.32,2,3.66,2.72,3.41,3.31-.55,1.24-15.17-3.03-17.65.25-1.12,1.47.98,3.47-.29,4.58-1.31,1.15-3.91-.67-9.54-1.08-4.85-.36-7.05.68-8.15-.54-1.47-1.62.87-5.17,1.16-5.6Z" fill="none" stroke="#000" stroke-linecap="round" stroke-linejoin="round"/><rect id="uuid-c2c748f4-1566-4ac6-8598-c8c1de65ef96" x="249.4" y="260.05" width="17.85" height="8.37" transform="translate(-65.88 86.91) rotate(-16.97)" fill="none" stroke="#000" stroke-linecap="round" stroke-linejoin="round"/><rect id="uuid-08bcb73c-4d9e-4d18-a3cb-41fc585c2cc3" x="243.09" y="252.8" width="8.37" height="17.85" transform="translate(-112.74 267.95) rotate(-47.62)" fill="none" stroke="#000" stroke-linecap="round" stroke-linejoin="round"/><rect id="uuid-30a62cb3-7a00-4a99-b1a2-592f83da7022" x="198.06" y="256.2" width="17.85" height="8.37" transform="translate(-100.28 387.77) rotate(-74.03)" fill="none" stroke="#000" stroke-linecap="round" stroke-linejoin="round"/><rect id="uuid-6ae4185c-1ab7-4e19-add0-0d8f6c831369" x="195.13" y="272.41" width="17.85" height="8.37" transform="translate(-90.15 454.33) rotate(-84.72)" fill="none" stroke="#000" stroke-linecap="round" stroke-linejoin="round"/><rect id="uuid-19917867-6c9d-4397-94e8-dc8cfaa2f0ad" x="265.75" y="256.14" width="8.93" height="8.93" transform="translate(-64.3 90.22) rotate(-16.97)" fill="none" stroke="#000" stroke-linecap="round" stroke-linejoin="round"/><rect id="uuid-b9bcf9c8-1d31-4622-beb7-ea4b02d38ac1" x="198.42" y="284.78" width="8.93" height="8.93" transform="translate(-103.8 464.64) rotate(-84.72)" fill="none" stroke="#000" stroke-linecap="round" stroke-linejoin="round"/></g><g id="uuid-03fbe989-3705-4e45-b135-20acfb0b7425"><polygon id="uuid-7237bc29-2037-4cd5-8177-68c819711c4b" points="316.36 283.93 316.38 284 316.32 284 312.34 262.71 315.24 258 306.48 258 309.38 262.71 305.4 284 305.34 284 305.36 283.93 305.34 284 305.41 284 310.86 291.09 316.31 284 316.38 284 316.36 283.93" fill="#565656"/><path id="uuid-6a4ce526-d8dc-4aeb-9448-1f061ad8067c" d="M295,253v56h31v-56h-31ZM310.86,281.37l-11.06-27.37h22.12l-11.06,27.37Z" fill="#393939"/><path id="uuid-c782afb5-be12-4832-819e-81a4183b51d6" d="M325.43,245.78c1.44-2.85,2.43-6.14,2.82-9.68,1.34-12.25-5.03-23-14.21-24-9.19-1-17.72,8.11-19.06,20.37-.39,3.55-.13,6.97.66,10.06l29.8,3.26Z" fill="#cecece"/><path id="uuid-0735d1ca-4d54-4dc1-8294-5e20212d3d54" d="M296.83,249c2.97,6.21,8.18,10.34,14.12,10.34s11.15-4.13,14.12-10.34h-28.24Z" fill="#cecece"/><ellipse id="uuid-66638a7d-4627-4176-873e-ebd8bd18fabc" cx="318.5" cy="237.5" rx="2.5" ry="1.49" transform="translate(59.03 538.38) rotate(-85.94)" fill="#333"/><ellipse id="uuid-802fc22c-5b5c-4e93-a37a-888fe4384bbd" cx="308.5" cy="236.5" rx="2.5" ry="1.49" transform="translate(50.74 527.47) rotate(-85.94)" fill="#333"/><path id="uuid-63ef6e6d-e739-4112-8452-54d9de897d8c" d="M296.12,216c5.81-5.45,16.71-4.39,22.1-3.87,6.76.66,14.59,2.57,14.63,4.62.04,1.82-6.06,2.52-6.24,5.29-.14,2.02,2.96,3.47,2.58,3.98-.81,1.09-14.11-6.34-17.26-3.69-1.42,1.19.18,3.6-1.3,4.4-1.53.82-3.66-1.52-9.06-3.18-4.65-1.43-7.02-.91-7.83-2.34-1.07-1.91,2-4.85,2.38-5.2Z" fill="#4a4a4a"/><rect id="uuid-df0aec8d-7636-4287-8278-214226ab7dca" x="329.01" y="269.5" width="8.37" height="17.85" transform="translate(-33.89 46.51) rotate(-7.6)" fill="#393939"/><rect id="uuid-4fc7d9d5-b16b-48f3-a137-7059ea3193df" x="326.95" y="252.46" width="8.37" height="17.85" transform="translate(-24.06 33.78) rotate(-5.63)" fill="#393939"/><rect id="uuid-65c30be3-9b42-40ef-9d24-e7ab8e3bd654" x="281.49" y="257.15" width="17.85" height="8.37" transform="translate(-15.25 504.65) rotate(-80.5)" fill="#393939"/><rect id="uuid-b6147b0a-f60d-49c2-919d-5078d18c286f" x="279.67" y="272.81" width="17.85" height="8.37" transform="translate(-13.78 538.87) rotate(-84.72)" fill="#393939"/><rect id="uuid-c2ae7fcc-617d-494c-bb75-bc0e432a8bb8" x="330.37" y="286.29" width="8.93" height="8.93" transform="translate(-35.51 46.83) rotate(-7.6)" fill="#cecece"/><rect id="uuid-66a27455-0f33-4c02-964d-26f383223e64" x="282.97" y="285.17" width="8.93" height="8.93" transform="translate(-27.43 549.18) rotate(-84.72)" fill="#cecece"/><polygon id="uuid-73fa60d2-f507-4b91-84f8-87e44c22ea7d" points="316.36 283.93 316.38 284 316.32 284 312.34 262.71 315.24 258 306.48 258 309.38 262.71 305.4 284 305.34 284 305.36 283.93 305.34 284 305.41 284 310.86 291.09 316.31 284 316.38 284 316.36 283.93" fill="none" stroke="#000" stroke-linecap="round" stroke-linejoin="round"/><path id="uuid-49e05930-4159-4d90-901e-dd9bd4c8f03c" d="M295,253v56h31v-56h-31ZM310.86,281.37l-11.06-27.37h22.12l-11.06,27.37Z" fill="none" stroke="#000" stroke-linecap="round" stroke-linejoin="round"/><path id="uuid-2819e137-b18e-4e3d-84e6-258119b4310d" d="M325.43,245.78c1.44-2.85,2.43-6.14,2.82-9.68,1.34-12.25-5.03-23-14.21-24-9.19-1-17.72,8.11-19.06,20.37-.39,3.55-.13,6.97.66,10.06l29.8,3.26Z" fill="none" stroke="#000" stroke-linecap="round" stroke-linejoin="round"/><path id="uuid-e89431d1-ca7b-4137-8665-f90d06ab21f3" d="M296.83,249c2.97,6.21,8.18,10.34,14.12,10.34s11.15-4.13,14.12-10.34h-28.24Z" fill="none" stroke="#000" stroke-linecap="round" stroke-linejoin="round"/><ellipse id="uuid-e36d5361-6b1f-4a6f-b78d-63bd08deacc7" cx="318.5" cy="237.5" rx="2.5" ry="1.49" transform="translate(59.03 538.38) rotate(-85.94)" fill="none" stroke="#000" stroke-linecap="round" stroke-linejoin="round"/><ellipse id="uuid-5855a939-2800-4b1e-a458-603e060bc85d" cx="308.5" cy="236.5" rx="2.5" ry="1.49" transform="translate(50.74 527.47) rotate(-85.94)" fill="none" stroke="#000" stroke-linecap="round" stroke-linejoin="round"/><path id="uuid-9933c772-0064-4f5d-b14c-6e03f20bc497" d="M296.12,216c5.81-5.45,16.71-4.39,22.1-3.87,6.76.66,14.59,2.57,14.63,4.62.04,1.82-6.06,2.52-6.24,5.29-.14,2.02,2.96,3.47,2.58,3.98-.81,1.09-14.11-6.34-17.26-3.69-1.42,1.19.18,3.6-1.3,4.4-1.53.82-3.66-1.52-9.06-3.18-4.65-1.43-7.02-.91-7.83-2.34-1.07-1.91,2-4.85,2.38-5.2Z" fill="none" stroke="#000" stroke-linecap="round" stroke-linejoin="round"/><rect id="uuid-604f6f2a-4dd7-4e5a-8f4b-af01609739b1" x="329.01" y="269.5" width="8.37" height="17.85" transform="translate(-33.89 46.51) rotate(-7.6)" fill="none" stroke="#000" stroke-linecap="round" stroke-linejoin="round"/><rect id="uuid-310c02c6-234b-4696-a80c-2ce6565ad81d" x="326.95" y="252.46" width="8.37" height="17.85" transform="translate(-24.06 33.78) rotate(-5.63)" fill="none" stroke="#000" stroke-linecap="round" stroke-linejoin="round"/><rect id="uuid-bbf86696-1905-4044-8863-58dd0cf3a477" x="281.49" y="257.15" width="17.85" height="8.37" transform="translate(-15.25 504.65) rotate(-80.5)" fill="none" stroke="#000" stroke-linecap="round" stroke-linejoin="round"/><rect id="uuid-07a57a5e-bead-4b03-af93-aa84e778c282" x="279.67" y="272.81" width="17.85" height="8.37" transform="translate(-13.78 538.87) rotate(-84.72)" fill="none" stroke="#000" stroke-linecap="round" stroke-linejoin="round"/><rect id="uuid-dcae53da-6535-4b2a-9f26-3f85a25240af" x="330.37" y="286.29" width="8.93" height="8.93" transform="translate(-35.51 46.83) rotate(-7.6)" fill="none" stroke="#000" stroke-linecap="round" stroke-linejoin="round"/><rect id="uuid-c52ee633-fcde-4028-a753-2bcce66a6003" x="282.97" y="285.17" width="8.93" height="8.93" transform="translate(-27.43 549.18) rotate(-84.72)" fill="none" stroke="#000" stroke-linecap="round" stroke-linejoin="round"/></g><path d="M416,61H155v12h15v247h234V73h12v-12ZM389,308h-204V73h204v235Z" fill="#5b451f"/><rect x="185" y="73" width="204" height="235" fill="#cfefff" opacity=".5"/><path d="M416,61H155v12h15v247h234V73h12v-12ZM389,308h-204V73h204v235Z" fill="none" stroke="#000" stroke-linecap="round" stroke-linejoin="round"/><rect x="185" y="73" width="204" height="235" fill="none" stroke="#000" stroke-linecap="round" stroke-linejoin="round"/><g id="uuid-f62a57e2-fe1b-4e0e-8783-55feec8cd100"><rect id="uuid-1144ed13-6b41-4ad6-b834-572dacbd5e82" x="110.11" y="288.74" width="31.91" height="14.96" transform="translate(-190.62 238.36) rotate(-56.59)" fill="#404040"/><rect id="uuid-2fb40d4c-bd3f-44b9-97dd-1d191abe42ef" x="123.97" y="256.88" width="14.96" height="31.91" transform="translate(-45.81 27.28) rotate(-10.1)" fill="#404040"/><rect id="uuid-098918f2-d762-40c0-8158-1ee01811b583" x="105" y="307.32" width="15.96" height="15.96" transform="translate(-212.43 236.01) rotate(-56.59)" fill="#eec6a2"/><rect id="uuid-6f57a6b2-f13b-408a-bb38-abbbd79c047e" x="57.4" y="280.65" width="14.96" height="31.91" transform="translate(-152.59 84.73) rotate(-33.41)" fill="#404040"/><rect id="uuid-3bb7ce41-1ffb-4aaf-8a92-ee9f7134bb72" x="43.54" y="265.75" width="31.91" height="14.96" transform="translate(-219.93 283.89) rotate(-79.9)" fill="#404040"/><rect id="uuid-9f14b280-1f7c-459b-8d37-b01e00e39a6d" x="69.98" y="307.71" width="15.96" height="15.96" transform="translate(-160.94 95.09) rotate(-33.41)" fill="#eec6a2"/><polygon id="uuid-11c868f7-9675-463b-aa0b-83b33935b823" points="71 397 91 397 91 431.96 91 439 61 439 61 432 71 432 71 397" fill="#404040"/><rect id="uuid-367b94f0-730b-4733-86c6-f8f7a0801e96" x="71" y="358" width="20" height="39" fill="#404040"/><polygon id="uuid-3e8bd630-fbfd-4fbc-968b-d77b9b66e036" points="99 397 119 397 119 432 129 432 129 439 99 439 99 431.96 99 431.96 99 397" fill="#404040"/><rect id="uuid-cd66c94a-cf67-42f6-83d6-c1e989b2f2c3" x="99" y="358" width="20" height="39" fill="#404040"/><polygon id="uuid-df4231c1-9d80-4d31-a677-fe595e4010a4" points="85.62 313.88 85.6 314 85.7 314 92.9 275.52 87.65 267 103.48 267 98.24 275.52 105.43 314 105.54 314 105.52 313.88 105.54 314 105.41 314 95.57 326.81 85.72 314 85.6 314 85.62 313.88" fill="#c1272d"/><path id="uuid-70e0fef4-f956-47e1-9575-f01dc3cf9e8f" d="M123,258v100h-56v-100h56ZM95.57,307.93l19.77-48.93h-39.53l19.77,48.93Z" fill="#404040"/><path id="uuid-d4a364fa-fa7b-4fa5-a8b7-e5fb4cd4ed19" d="M68.39,246.79c-2.08-5.32-3.29-11.33-3.39-17.71-.32-22.03,12.81-40.08,29.33-40.33,16.52-.24,30.18,17.42,30.5,39.45.09,6.38-.95,12.42-2.86,17.8l-53.58.79Z" fill="#eec6a2"/><path id="uuid-5885decd-c641-4a62-a2ef-d72c8848cd3f" d="M120.64,251c-5.31,11.11-14.63,18.48-25.24,18.48s-19.93-7.37-25.24-18.48h50.48Z" fill="#eec6a2"/><ellipse id="uuid-5534bc34-8213-4afb-b91d-85fa9f280580" cx="101" cy="233.5" rx="2.99" ry="4.51" transform="translate(-18.3 8.8) rotate(-4.57)" fill="#333"/><ellipse id="uuid-76bc28b7-3972-461a-9326-a50c1b94b804" cx="115" cy="232.5" rx="2.99" ry="4.51" transform="translate(-18.18 9.91) rotate(-4.57)" fill="#333"/><path id="uuid-620352df-900b-4f63-b667-71d3fc27aece" d="M68.49,197.21c9.52-10.59,29.09-10.37,38.78-10.26,12.13.14,26.37,2.35,26.76,6,.35,3.23-10.4,5.41-10.31,10.37.06,3.61,5.81,5.73,5.21,6.7-1.28,2.06-26.09-9.14-31.31-3.94-2.34,2.33.87,6.38-1.65,8.03-2.6,1.7-6.75-2.15-16.63-4.29-8.5-1.84-12.65-.55-14.3-2.98-2.2-3.23,2.82-8.93,3.45-9.63Z" fill="#534741"/><rect id="uuid-98b36d23-8f5c-4a39-84b6-e938c98ed604" x="110.11" y="288.74" width="31.91" height="14.96" transform="translate(-190.62 238.36) rotate(-56.59)" fill="none" stroke="#000" stroke-linecap="round" stroke-linejoin="round"/><rect id="uuid-5250a00f-451c-4af3-a138-aa6212856725" x="123.97" y="256.88" width="14.96" height="31.91" transform="translate(-45.81 27.28) rotate(-10.1)" fill="none" stroke="#000" stroke-linecap="round" stroke-linejoin="round"/><rect id="uuid-5538860f-ccb5-40bf-84d3-a76f5ff19f2a" x="105" y="307.32" width="15.96" height="15.96" transform="translate(-212.43 236.01) rotate(-56.59)" fill="none" stroke="#000" stroke-linecap="round" stroke-linejoin="round"/><rect id="uuid-edbc2cf4-7ccd-4ba7-a62a-287099a5b89e" x="57.4" y="280.65" width="14.96" height="31.91" transform="translate(-152.59 84.73) rotate(-33.41)" fill="none" stroke="#000" stroke-linecap="round" stroke-linejoin="round"/><rect id="uuid-948f270c-b92f-4f40-bdd6-f3245e6a92eb" x="43.54" y="265.75" width="31.91" height="14.96" transform="translate(-219.93 283.89) rotate(-79.9)" fill="none" stroke="#000" stroke-linecap="round" stroke-linejoin="round"/><rect id="uuid-1c7353cb-115a-4a52-83c2-d8fa3abc713b" x="69.98" y="307.71" width="15.96" height="15.96" transform="translate(-160.94 95.09) rotate(-33.41)" fill="none" stroke="#000" stroke-linecap="round" stroke-linejoin="round"/><polygon id="uuid-156c9db1-1773-4a57-85ba-d77abe140d42" points="71 397 91 397 91 431.96 91 439 61 439 61 432 71 432 71 397" fill="none" stroke="#000" stroke-linecap="round" stroke-linejoin="round"/><rect id="uuid-8e67679f-a0ce-4d44-94b8-a97e36b9d7be" x="71" y="358" width="20" height="39" fill="none" stroke="#000" stroke-linecap="round" stroke-linejoin="round"/><polygon id="uuid-ec43c34f-ef88-4636-8cd2-2bc5374a04b1" points="99 397 119 397 119 432 129 432 129 439 99 439 99 431.96 99 431.96 99 397" fill="none" stroke="#000" stroke-linecap="round" stroke-linejoin="round"/><rect id="uuid-e004fd2e-9f33-44c3-b0bb-f672c3b27062" x="99" y="358" width="20" height="39" fill="none" stroke="#000" stroke-linecap="round" stroke-linejoin="round"/><polygon id="uuid-94825792-08fc-4737-bead-71de930714b3" points="85.62 313.88 85.6 314 85.7 314 92.9 275.52 87.65 267 103.48 267 98.24 275.52 105.43 314 105.54 314 105.52 313.88 105.54 314 105.41 314 95.57 326.81 85.72 314 85.6 314 85.62 313.88" fill="none" stroke="#000" stroke-linecap="round" stroke-linejoin="round"/><path id="uuid-e358f488-c63e-4f5e-8dd2-fcaa4b63089f" d="M123,258v100h-56v-100h56ZM95.57,307.93l19.77-48.93h-39.53l19.77,48.93Z" fill="none" stroke="#000" stroke-linecap="round" stroke-linejoin="round"/><path id="uuid-ab4bd7e2-17e2-4054-8453-5e5a1efce567" d="M68.39,246.79c-2.08-5.32-3.29-11.33-3.39-17.71-.32-22.03,12.81-40.08,29.33-40.33,16.52-.24,30.18,17.42,30.5,39.45.09,6.38-.95,12.42-2.86,17.8l-53.58.79Z" fill="none" stroke="#000" stroke-linecap="round" stroke-linejoin="round"/><path id="uuid-8dee2dee-3ab7-46cf-aff6-91f1978c6e51" d="M120.64,251c-5.31,11.11-14.63,18.48-25.24,18.48s-19.93-7.37-25.24-18.48h50.48Z" fill="none" stroke="#000" stroke-linecap="round" stroke-linejoin="round"/><ellipse id="uuid-e0b113ab-cd3b-4a9a-b976-b4bc201f444f" cx="101" cy="233.5" rx="2.99" ry="4.51" transform="translate(-18.3 8.8) rotate(-4.57)" fill="none" stroke="#000" stroke-linecap="round" stroke-linejoin="round"/><ellipse id="uuid-d6b307b3-7bbc-4967-af88-3ee92e9cb06d" cx="115" cy="232.5" rx="2.99" ry="4.51" transform="translate(-18.18 9.91) rotate(-4.57)" fill="none" stroke="#000" stroke-linecap="round" stroke-linejoin="round"/><path id="uuid-ca62c431-3391-4717-9722-3d316db658b1" d="M68.49,197.21c9.52-10.59,29.09-10.37,38.78-10.26,12.13.14,26.37,2.35,26.76,6,.35,3.23-10.4,5.41-10.31,10.37.06,3.61,5.81,5.73,5.21,6.7-1.28,2.06-26.09-9.14-31.31-3.94-2.34,2.33.87,6.38-1.65,8.03-2.6,1.7-6.75-2.15-16.63-4.29-8.5-1.84-12.65-.55-14.3-2.98-2.2-3.23,2.82-8.93,3.45-9.63Z" fill="none" stroke="#000" stroke-linecap="round" stroke-linejoin="round"/></g><text transform="translate(233.27 165.89)" fill="#333" font-family="ComicNeue-Regular, &apos;Comic Neue&apos;" font-size="14"><tspan x="0" y="0">Conscription </tspan><tspan x="9.1" y="16.8">is slavery.</tspan></text></svg>