<?xml version="1.0" encoding="UTF-8"?><svg id="uuid-44f57acd-bb36-43ca-aba1-e65372e6ee8b" xmlns="http://www.w3.org/2000/svg" viewBox="0 0 500 500"><g id="uuid-5dee677f-0d99-4458-9d4a-9e5d91b4e602"><polygon id="uuid-4fa008bb-17a6-437e-afbb-8abb32c85fe2" points="347.36 377.87 361.06 363.3 386.52 387.26 391.65 392.08 371.09 413.93 366 409.13 372.85 401.85 347.36 377.87" fill="#393939"/><rect id="uuid-950f491b-6eac-4124-ac17-11eb9126619f" x="343.58" y="353.11" width="39" height="20" transform="translate(-108.56 566.17) rotate(-68.3)" fill="#393939"/><polygon id="uuid-52f74f00-62e2-4c36-a72e-24314c7cc8f9" points="321.54 359.05 301.77 362.04 306.99 396.64 297.1 398.14 298.15 405.06 327.81 400.58 326.76 393.62 326.76 393.62 321.54 359.05" fill="#393939"/><rect id="uuid-57a8bd90-160c-41ce-8689-90e191a09640" x="301.83" y="344.59" width="39" height="20" transform="translate(-157.05 366.35) rotate(-49.23)" fill="#393939"/><polygon id="uuid-177ec902-1f0d-4c06-9633-f2449254084a" points="362.68 304.88 362.71 305 362.6 305 355.41 266.52 360.65 258 344.82 258 350.06 266.52 342.87 305 342.76 305 342.79 304.88 342.76 305 342.89 305 352.73 317.81 362.58 305 362.71 305 362.68 304.88" fill="#565656"/><path id="uuid-7bc0eb15-94ed-4825-bc3e-9ba31054c744" d="M325,249v100h56v-100h-56ZM352.73,298.93l-19.77-48.93h39.53l-19.77,48.93Z" fill="#393939"/><path id="uuid-21b88917-6604-40e4-aa95-e3cde237000e" d="M378.75,237.77c2.8-4.98,4.84-10.76,5.82-17.06,3.39-21.77-7.1-41.48-23.43-44.02-16.33-2.54-32.31,13.05-35.7,34.82-.98,6.3-.79,12.43.36,18.02l52.95,8.24Z" fill="#cecece"/><path id="uuid-cb56aabf-cf4a-47b3-bc36-3d87e2b128d1" d="M327.66,242c5.31,11.11,14.63,18.48,25.24,18.48s19.93-7.37,25.24-18.48h-50.48Z" fill="#cecece"/><ellipse id="uuid-330ef9e2-6958-4aa5-a56f-89294846766b" cx="355" cy="217.5" rx="3" ry="4.5" fill="#333"/><ellipse id="uuid-3b0002ee-5594-4ed3-8389-95782c599cdb" cx="339" cy="214.5" rx="3" ry="4.5" fill="#333"/><path id="uuid-816613af-88c9-48ff-adbc-0f792f187416" d="M328.78,182.65c10.82-9.26,30.19-6.49,39.78-5.11,12.01,1.72,25.84,5.77,25.75,9.44-.07,3.25-11.02,4.01-11.58,8.94-.41,3.59,5.01,6.44,4.29,7.32-1.53,1.87-24.68-12.46-30.52-8-2.63,2.01.03,6.44-2.68,7.74-2.8,1.35-6.41-3.01-15.92-6.42-8.19-2.93-12.47-2.19-13.79-4.82-1.76-3.49,3.96-8.49,4.67-9.1Z" fill="#4a4a4a"/><rect id="uuid-554d80b7-3d74-4167-8c9a-bd7326b9df37" x="390.59" y="215.29" width="14.96" height="31.91" transform="translate(-20.78 40.2) rotate(-5.63)" fill="#393939"/><rect id="uuid-e9f885cd-ad68-4553-974d-96bc3fa99f46" x="373.83" y="242.26" width="31.91" height="14.96" transform="translate(-72.21 279.07) rotate(-36.28)" fill="#393939"/><rect id="uuid-c08af613-a79d-4f12-a79a-6e7d8c78bc90" x="305.36" y="235.51" width="14.96" height="31.91" transform="translate(-36.49 449.14) rotate(-68.3)" fill="#393939"/><rect id="uuid-d999b39b-29c9-440a-8444-d3c68520f19b" x="280.24" y="227.61" width="31.91" height="14.96" transform="translate(-44.39 399.42) rotate(-64.19)" fill="#393939"/><rect id="uuid-4177c707-beba-4752-817e-dcfc1778ff9e" x="387.91" y="201.16" width="15.96" height="15.96" transform="translate(-18.62 39.88) rotate(-5.63)" fill="#cecece"/><rect id="uuid-29c9b72b-2dfa-43f5-b6b2-af1e857605f6" x="298.1" y="206.69" width="15.96" height="15.96" transform="translate(-20.42 396.78) rotate(-64.19)" fill="#cecece"/><polygon id="uuid-adf46b0b-9ae0-4f07-b68a-e49572c140ad" points="347.36 377.87 361.06 363.3 386.52 387.26 391.65 392.08 371.09 413.93 366 409.13 372.85 401.85 347.36 377.87" fill="none" stroke="#000" stroke-linecap="round" stroke-linejoin="round"/><rect id="uuid-e5fb2c91-d46b-49f6-bb3c-d575d0dbfc15" x="343.58" y="353.11" width="39" height="20" transform="translate(-108.56 566.17) rotate(-68.3)" fill="none" stroke="#000" stroke-linecap="round" stroke-linejoin="round"/><polygon id="uuid-bf77be44-24c9-4af8-b1ad-4ba70693df48" points="321.54 359.05 301.77 362.04 306.99 396.64 297.1 398.14 298.15 405.06 327.81 400.58 326.76 393.62 326.76 393.62 321.54 359.05" fill="none" stroke="#000" stroke-linecap="round" stroke-linejoin="round"/><rect id="uuid-943a1d5e-cefe-42a5-af33-4643b0baad3f" x="301.83" y="344.59" width="39" height="20" transform="translate(-157.05 366.35) rotate(-49.23)" fill="none" stroke="#000" stroke-linecap="round" stroke-linejoin="round"/><polygon id="uuid-4a077f38-dec0-4dc5-9a6a-1f8a3e21de6b" points="362.68 304.88 362.71 305 362.6 305 355.41 266.52 360.65 258 344.82 258 350.06 266.52 342.87 305 342.76 305 342.79 304.88 342.76 305 342.89 305 352.73 317.81 362.58 305 362.71 305 362.68 304.88" fill="none" stroke="#000" stroke-linecap="round" stroke-linejoin="round"/><path id="uuid-eaa38cfb-4b01-4237-ac29-88475ab376d5" d="M325,249v100h56v-100h-56ZM352.73,298.93l-19.77-48.93h39.53l-19.77,48.93Z" fill="none" stroke="#000" stroke-linecap="round" stroke-linejoin="round"/><path id="uuid-6cb10a0d-fd92-4a8d-b94d-fd2582440f61" d="M378.75,237.77c2.8-4.98,4.84-10.76,5.82-17.06,3.39-21.77-7.1-41.48-23.43-44.02-16.33-2.54-32.31,13.05-35.7,34.82-.98,6.3-.79,12.43.36,18.02l52.95,8.24Z" fill="none" stroke="#000" stroke-linecap="round" stroke-linejoin="round"/><path id="uuid-9df34181-f6b6-4bab-90ee-4075659e62f3" d="M327.66,242c5.31,11.11,14.63,18.48,25.24,18.48s19.93-7.37,25.24-18.48h-50.48Z" fill="none" stroke="#000" stroke-linecap="round" stroke-linejoin="round"/><ellipse id="uuid-086b3bac-9149-467d-b351-1c8aea97bd18" cx="355" cy="217.5" rx="3" ry="4.5" fill="none" stroke="#000" stroke-linecap="round" stroke-linejoin="round"/><ellipse id="uuid-b83c6642-1a18-4efe-a83c-906f0c5ccebf" cx="339" cy="214.5" rx="3" ry="4.5" fill="none" stroke="#000" stroke-linecap="round" stroke-linejoin="round"/><path id="uuid-d4c217c3-4453-452b-a681-432fac6c0e63" d="M328.78,182.65c10.82-9.26,30.19-6.49,39.78-5.11,12.01,1.72,25.84,5.77,25.75,9.44-.07,3.25-11.02,4.01-11.58,8.94-.41,3.59,5.01,6.44,4.29,7.32-1.53,1.87-24.68-12.46-30.52-8-2.63,2.01.03,6.44-2.68,7.74-2.8,1.35-6.41-3.01-15.92-6.42-8.19-2.93-12.47-2.19-13.79-4.82-1.76-3.49,3.96-8.49,4.67-9.1Z" fill="none" stroke="#000" stroke-linecap="round" stroke-linejoin="round"/><rect id="uuid-be577d4a-60fe-4a48-bc2e-d6588490d46d" x="390.59" y="215.29" width="14.96" height="31.91" transform="translate(-20.78 40.2) rotate(-5.63)" fill="none" stroke="#000" stroke-linecap="round" stroke-linejoin="round"/><rect id="uuid-7bdc36dd-5066-4bc7-8c49-4098a51ac472" x="373.83" y="242.26" width="31.91" height="14.96" transform="translate(-72.21 279.07) rotate(-36.28)" fill="none" stroke="#000" stroke-linecap="round" stroke-linejoin="round"/><rect id="uuid-f0f2e83c-9bbd-4907-9bd2-80f01de6990d" x="305.36" y="235.51" width="14.96" height="31.91" transform="translate(-36.49 449.14) rotate(-68.3)" fill="none" stroke="#000" stroke-linecap="round" stroke-linejoin="round"/><rect id="uuid-c97a2be0-da95-45a0-b25b-20b12b4026e6" x="280.24" y="227.61" width="31.91" height="14.96" transform="translate(-44.39 399.42) rotate(-64.19)" fill="none" stroke="#000" stroke-linecap="round" stroke-linejoin="round"/><rect id="uuid-1df80aa9-556a-44ed-b7a8-8985fb98f317" x="387.91" y="201.16" width="15.96" height="15.96" transform="translate(-18.62 39.88) rotate(-5.63)" fill="none" stroke="#000" stroke-linecap="round" stroke-linejoin="round"/><rect id="uuid-976b17e2-8ba0-4c8e-8d7a-428b31ce4b70" x="298.1" y="206.69" width="15.96" height="15.96" transform="translate(-20.42 396.78) rotate(-64.19)" fill="none" stroke="#000" stroke-linecap="round" stroke-linejoin="round"/></g><path d="M160.65,198.19l-25.94-32.55c-.36-.45-.3-1.11.13-1.49h0c.45-.39,1.14-.36,1.53.1l27.59,31.08c.39.45.36,1.14-.1,1.53l-1.65,1.46c-.47.42-1.18.36-1.57-.12Z" fill="#455a64"/><path d="M167.31,198.01l-1.48-1.32c-.49-.44-.54-1.2-.1-1.69l27.43-30.92c.44-.49,1.2-.54,1.69-.1h0c.48.42.54,1.15.14,1.65l-25.95,32.24c-.44.51-1.23.59-1.73.13Z" fill="#455a64"/><path d="M145.22,200c0-4.17,9.26-7.57,20.67-7.57s20.67,3.38,20.67,7.57h-41.35Z" fill="#455a64"/><path d="M231.67,297H98.32c-2.94,0-5.32-2.47-5.32-5.5v-89c0-3.04,2.38-5.5,5.32-5.5h133.37c2.93,0,5.32,2.47,5.32,5.5v89c-.01,3.03-2.39,5.5-5.33,5.5Z" fill="#82aec0"/><path d="M226.75,292h-124.51c-2.34,0-4.25-1.9-4.25-4.25v-81.51c0-2.34,1.9-4.25,4.25-4.25h124.51c2.34,0,4.25,1.9,4.25,4.25v81.51c0,2.34-1.9,4.25-4.25,4.25Z" fill="#212121"/><path d="M106.54,278.72l-5.91,9.68c-.96,1.58.17,3.6,2.02,3.6h99.16c2.12-.01,3.49-2.33,2.57-4.31l-3.59-7.69-94.25-1.28Z" fill="#b9e4ea"/><path d="M202.27,275.16c-.92,4.15-3.99,7.35-7.94,8.23-6.48,1.45-18.56,3.25-38.46,3.25-20.89,0-34.9-1.98-42.45-3.46-4.17-.81-7.45-4.23-8.26-8.65-1.88-10.14-4.23-30.41.1-55.72.8-4.69,4.38-8.29,8.84-8.9,8.05-1.11,22.42-2.59,41.78-2.59s30.67,1.34,37.64,2.42c4.29.67,7.72,4.15,8.6,8.66,5.18,26.67,2.32,46.98.16,56.76Z" fill="#e6e6e6" stroke="#212121" stroke-miterlimit="10" stroke-width="4"/><path d="M225.45,288h-13.9c-1.42,0-2.55-1.11-2.55-2.47v-28.06c0-1.37,1.15-2.47,2.55-2.47h13.9c1.42,0,2.55,1.11,2.55,2.47v28.06c0,1.36-1.13,2.47-2.55,2.47Z" fill="#455a64"/><circle cx="219" cy="219" r="8" fill="#455a64"/><path d="M218.72,211.2h0c-.63,0-1.18.43-1.33,1.04l-1.08,4.42c-.33,1.38-.33,2.81,0,4.2l1.08,4.42c.16.61.69,1.04,1.33,1.04h0c.63,0,1.18-.43,1.33-1.04l1.08-4.42c.33-1.38.33-2.81,0-4.2l-1.08-4.42c-.16-.61-.71-1.04-1.33-1.04Z" fill="#82aec0"/><circle cx="219" cy="240" r="8" fill="#455a64"/><path d="M212.89,235.23h0c-.41.49-.42,1.18-.05,1.69l2.71,3.65c.85,1.14,1.95,2.06,3.23,2.68l4.09,1.98c.56.28,1.24.13,1.65-.36h0c.41-.49.42-1.18.05-1.69l-2.71-3.65c-.85-1.14-1.95-2.06-3.23-2.68l-4.09-1.98c-.56-.28-1.24-.12-1.65.36Z" fill="#82aec0"/><path d="M160.65,198.19l-25.94-32.55c-.36-.45-.3-1.11.13-1.49h0c.45-.39,1.14-.36,1.53.1l27.59,31.08c.39.45.36,1.14-.1,1.53l-1.65,1.46c-.47.42-1.18.36-1.57-.12Z" fill="none" stroke="#000" stroke-linecap="round" stroke-linejoin="round"/><path d="M167.31,198.01l-1.48-1.32c-.49-.44-.54-1.2-.1-1.69l27.43-30.92c.44-.49,1.2-.54,1.69-.1h0c.48.42.54,1.15.14,1.65l-25.95,32.24c-.44.51-1.23.59-1.73.13Z" fill="none" stroke="#000" stroke-linecap="round" stroke-linejoin="round"/><path d="M145.22,200c0-4.17,9.26-7.57,20.67-7.57s20.67,3.38,20.67,7.57h-41.35Z" fill="none" stroke="#000" stroke-linecap="round" stroke-linejoin="round"/><path d="M231.67,297H98.32c-2.94,0-5.32-2.47-5.32-5.5v-89c0-3.04,2.38-5.5,5.32-5.5h133.37c2.93,0,5.32,2.47,5.32,5.5v89c-.01,3.03-2.39,5.5-5.33,5.5Z" fill="none" stroke="#000" stroke-linecap="round" stroke-linejoin="round"/><path d="M226.75,292h-124.51c-2.34,0-4.25-1.9-4.25-4.25v-81.51c0-2.34,1.9-4.25,4.25-4.25h124.51c2.34,0,4.25,1.9,4.25,4.25v81.51c0,2.34-1.9,4.25-4.25,4.25Z" fill="none" stroke="#000" stroke-linecap="round" stroke-linejoin="round"/><path d="M106.54,278.72l-5.91,9.68c-.96,1.58.17,3.6,2.02,3.6h99.16c2.12-.01,3.49-2.33,2.57-4.31l-3.59-7.69-94.25-1.28Z" fill="none" stroke="#000" stroke-linecap="round" stroke-linejoin="round"/><path d="M202.27,275.16c-.92,4.15-3.99,7.35-7.94,8.23-6.48,1.45-18.56,3.25-38.46,3.25-20.89,0-34.9-1.98-42.45-3.46-4.17-.81-7.45-4.23-8.26-8.65-1.88-10.14-4.23-30.41.1-55.72.8-4.69,4.38-8.29,8.84-8.9,8.05-1.11,22.42-2.59,41.78-2.59s30.67,1.34,37.64,2.42c4.29.67,7.72,4.15,8.6,8.66,5.18,26.67,2.32,46.98.16,56.76Z" fill="none" stroke="#000" stroke-linecap="round" stroke-linejoin="round"/><path d="M225.45,288h-13.9c-1.42,0-2.55-1.11-2.55-2.47v-28.06c0-1.37,1.15-2.47,2.55-2.47h13.9c1.42,0,2.55,1.11,2.55,2.47v28.06c0,1.36-1.13,2.47-2.55,2.47Z" fill="none" stroke="#000" stroke-linecap="round" stroke-linejoin="round"/><circle cx="219" cy="219" r="8" fill="none" stroke="#000" stroke-linecap="round" stroke-linejoin="round"/><path d="M218.72,211.2h0c-.63,0-1.18.43-1.33,1.04l-1.08,4.42c-.33,1.38-.33,2.81,0,4.2l1.08,4.42c.16.61.69,1.04,1.33,1.04h0c.63,0,1.18-.43,1.33-1.04l1.08-4.42c.33-1.38.33-2.81,0-4.2l-1.08-4.42c-.16-.61-.71-1.04-1.33-1.04Z" fill="none" stroke="#000" stroke-linecap="round" stroke-linejoin="round"/><circle cx="219" cy="240" r="8" fill="none" stroke="#000" stroke-linecap="round" stroke-linejoin="round"/><path d="M212.89,235.23h0c-.41.49-.42,1.18-.05,1.69l2.71,3.65c.85,1.14,1.95,2.06,3.23,2.68l4.09,1.98c.56.28,1.24.13,1.65-.36h0c.41-.49.42-1.18.05-1.69l-2.71-3.65c-.85-1.14-1.95-2.06-3.23-2.68l-4.09-1.98c-.56-.28-1.24-.12-1.65.36Z" fill="none" stroke="#000" stroke-linecap="round" stroke-linejoin="round"/><rect x="131" y="297" width="67" height="10" fill="#5b451f"/><rect x="138" y="302" width="12" height="62" fill="#5b451f"/><rect x="179" y="302" width="12" height="62" fill="#5b451f"/><rect x="131" y="297" width="67" height="10" fill="none" stroke="#000" stroke-linecap="round" stroke-linejoin="round"/><rect x="138" y="302" width="12" height="62" fill="none" stroke="#000" stroke-linecap="round" stroke-linejoin="round"/><rect x="179" y="302" width="12" height="62" fill="none" stroke="#000" stroke-linecap="round" stroke-linejoin="round"/><text transform="translate(121.26 244.44)" fill="#333" font-family="ComicNeue-Regular, &apos;Comic Neue&apos;" font-size="14"><tspan x="0" y="0">You will be </tspan><tspan x="-4.05" y="16.8">conscripted!</tspan></text><text transform="translate(104.94 106.11)" fill="#333" font-family="ComicNeue-Regular, &apos;Comic Neue&apos;" font-size="24"><tspan x="0" y="0">Some panicked; others fled.</tspan></text></svg>