<?xml version="1.0" encoding="UTF-8"?><svg id="uuid-12a98522-efc8-4c4d-8528-f05b17781d4f" xmlns="http://www.w3.org/2000/svg" viewBox="0 0 500 500"><g id="uuid-417d4325-09cd-4c39-a9fe-cd7bd741ea0b"><polygon id="uuid-730ea385-59d7-4fd1-a208-d0a8a7a04059" points="347.36 377.87 361.06 363.3 386.52 387.26 391.65 392.08 371.09 413.93 366 409.13 372.85 401.85 347.36 377.87" fill="#393939"/><rect id="uuid-369d6ef5-034b-4315-a886-093a7e263417" x="343.56" y="353.08" width="39" height="20" transform="translate(-108.53 566.17) rotate(-68.3)" fill="#393939"/><polygon id="uuid-9fc6e1c6-8315-4206-9ac9-f0d7ee934b2d" points="321.54 359.05 301.77 362.04 306.99 396.64 297.1 398.14 298.15 405.06 327.81 400.58 326.76 393.62 326.76 393.62 321.54 359.05" fill="#393939"/><rect id="uuid-dc950c81-8928-48a2-81dd-d11861ba731e" x="301.83" y="344.55" width="39" height="20" transform="translate(-157.02 366.38) rotate(-49.23)" fill="#393939"/><polygon id="uuid-5ff91401-46ba-493c-95d8-7e4e0a15654e" points="362.68 304.88 362.71 305 362.6 305 355.41 266.52 360.65 258 344.82 258 350.06 266.52 342.87 305 342.76 305 342.79 304.88 342.76 305 342.89 305 352.73 317.81 362.58 305 362.71 305 362.68 304.88" fill="#565656"/><path id="uuid-62bc0509-0a3f-4a5c-abe2-35d598f895b6" d="M325,249v100h56v-100h-56ZM352.73,298.93l-19.77-48.93h39.53l-19.77,48.93h0Z" fill="#393939"/><path id="uuid-2b2b864e-1e48-4fc9-933b-a94ac0fdc0e3" d="M378.75,237.77c2.8-4.98,4.84-10.76,5.82-17.06,3.39-21.77-7.1-41.48-23.43-44.02-16.33-2.54-32.31,13.05-35.7,34.82-.98,6.3-.79,12.43.36,18.02l52.95,8.24h0Z" fill="#cecece"/><path id="uuid-3c167764-ef1d-44dd-8f56-a28ef44e1a7d" d="M327.66,242c5.31,11.11,14.63,18.48,25.24,18.48s19.93-7.37,25.24-18.48h-50.48,0Z" fill="#cecece"/><ellipse id="uuid-86f63357-d343-4f0f-b154-27e051ecb784" cx="355" cy="217.5" rx="3" ry="4.5" fill="#333"/><ellipse id="uuid-bf2604cc-3228-4c00-89de-05a42f31f268" cx="339" cy="214.5" rx="3" ry="4.5" fill="#333"/><path id="uuid-34186df4-3c3a-4618-91ac-e6f01e9fddae" d="M328.78,182.65c10.82-9.26,30.19-6.49,39.78-5.11,12.01,1.72,25.84,5.77,25.75,9.44-.07,3.25-11.02,4.01-11.58,8.94-.41,3.59,5.01,6.44,4.29,7.32-1.53,1.87-24.68-12.46-30.52-8-2.63,2.01.03,6.44-2.68,7.74-2.8,1.35-6.41-3.01-15.92-6.42-8.19-2.93-12.47-2.19-13.79-4.82-1.76-3.49,3.96-8.49,4.67-9.1h0Z" fill="#4a4a4a"/><rect id="uuid-88ab96ca-535c-4f7a-93e2-e586b4241a3b" x="390.58" y="215.32" width="14.96" height="31.91" transform="translate(-20.77 40.17) rotate(-5.63)" fill="#393939"/><rect id="uuid-a013f7ef-e557-4b0d-9726-698a2ec22782" x="373.83" y="242.27" width="31.91" height="14.96" transform="translate(-72.22 279.07) rotate(-36.28)" fill="#393939"/><rect id="uuid-bf23da31-46e7-4fbe-8adf-32d1e61b1399" x="305.35" y="235.49" width="14.96" height="31.91" transform="translate(-36.47 449.13) rotate(-68.3)" fill="#393939"/><rect id="uuid-b0114deb-b6da-4e37-a60c-30f39870f9dc" x="280.25" y="227.65" width="31.91" height="14.96" transform="translate(-44.43 399.42) rotate(-64.19)" fill="#393939"/><rect id="uuid-89779ebe-d43d-46e3-a336-5aa397b3f14b" x="387.9" y="201.19" width="15.96" height="15.96" transform="translate(-18.61 39.85) rotate(-5.63)" fill="#cecece"/><rect id="uuid-6dd7388d-5d6b-43ae-bbdc-f5790a98cf5d" x="298.12" y="206.72" width="15.96" height="15.96" transform="translate(-20.45 396.78) rotate(-64.19)" fill="#cecece"/><polygon id="uuid-98ef267c-37b7-4e6d-8af5-ce7635b7f1eb" points="347.36 377.87 361.06 363.3 386.52 387.26 391.65 392.08 371.09 413.93 366 409.13 372.85 401.85 347.36 377.87" fill="none" stroke="#000" stroke-linecap="round" stroke-linejoin="round"/><rect id="uuid-5a3312e9-7bf8-4739-b92e-8a4def3b04ad" x="343.56" y="353.08" width="39" height="20" transform="translate(-108.53 566.17) rotate(-68.3)" fill="none" stroke="#000" stroke-linecap="round" stroke-linejoin="round" stroke-width="1"/><polygon id="uuid-ef2c0ee1-2249-4da3-8229-c01a5a7b2a2b" points="321.54 359.05 301.77 362.04 306.99 396.64 297.1 398.14 298.15 405.06 327.81 400.58 326.76 393.62 326.76 393.62 321.54 359.05" fill="none" stroke="#000" stroke-linecap="round" stroke-linejoin="round"/><rect id="uuid-26fd9f13-ad79-495e-a5a9-a45054b98609" x="301.83" y="344.55" width="39" height="20" transform="translate(-157.02 366.38) rotate(-49.23)" fill="none" stroke="#000" stroke-linecap="round" stroke-linejoin="round" stroke-width="1"/><polygon id="uuid-3f4acca8-26a8-4433-b6bd-5ff30b38c8e1" points="362.68 304.88 362.71 305 362.6 305 355.41 266.52 360.65 258 344.82 258 350.06 266.52 342.87 305 342.76 305 342.79 304.88 342.76 305 342.89 305 352.73 317.81 362.58 305 362.71 305 362.68 304.88" fill="none" stroke="#000" stroke-linecap="round" stroke-linejoin="round"/><path id="uuid-162db70a-f377-475e-b93c-0fa05fec66fd" d="M325,249v100h56v-100h-56ZM352.73,298.93l-19.77-48.93h39.53l-19.77,48.93h0Z" fill="none" stroke="#000" stroke-linecap="round" stroke-linejoin="round"/><path id="uuid-e6be4450-8a21-4826-bac6-1234a2cc7f1a" d="M378.75,237.77c2.8-4.98,4.84-10.76,5.82-17.06,3.39-21.77-7.1-41.48-23.43-44.02-16.33-2.54-32.31,13.05-35.7,34.82-.98,6.3-.79,12.43.36,18.02l52.95,8.24h0Z" fill="none" stroke="#000" stroke-linecap="round" stroke-linejoin="round"/><path id="uuid-54a0f833-e3a7-42e2-8a4f-1414902cfb1a" d="M327.66,242c5.31,11.11,14.63,18.48,25.24,18.48s19.93-7.37,25.24-18.48h-50.48,0Z" fill="none" stroke="#000" stroke-linecap="round" stroke-linejoin="round"/><ellipse id="uuid-4addd4d0-a2ea-49b2-b80c-1a7a02e40e90" cx="355" cy="217.5" rx="3" ry="4.5" fill="none" stroke="#000" stroke-linecap="round" stroke-linejoin="round"/><ellipse id="uuid-75088e5e-981c-4506-8f3a-bd697d2c8751" cx="339" cy="214.5" rx="3" ry="4.5" fill="none" stroke="#000" stroke-linecap="round" stroke-linejoin="round"/><path id="uuid-b32543d9-3ec5-44ee-99a3-f84fc107a288" d="M328.78,182.65c10.82-9.26,30.19-6.49,39.78-5.11,12.01,1.72,25.84,5.77,25.75,9.44-.07,3.25-11.02,4.01-11.58,8.94-.41,3.59,5.01,6.44,4.29,7.32-1.53,1.87-24.68-12.46-30.52-8-2.63,2.01.03,6.44-2.68,7.74-2.8,1.35-6.41-3.01-15.92-6.42-8.19-2.93-12.47-2.19-13.79-4.82-1.76-3.49,3.96-8.49,4.67-9.1h0Z" fill="none" stroke="#000" stroke-linecap="round" stroke-linejoin="round"/><rect id="uuid-72669056-2601-480e-b8d1-dd4de89507a0" x="390.58" y="215.32" width="14.96" height="31.91" transform="translate(-20.77 40.17) rotate(-5.63)" fill="none" stroke="#000" stroke-linecap="round" stroke-linejoin="round" stroke-width="1"/><rect id="uuid-a1015274-4174-4a5e-b3f9-d2d7496d9ee1" x="373.83" y="242.27" width="31.91" height="14.96" transform="translate(-72.22 279.07) rotate(-36.28)" fill="none" stroke="#000" stroke-linecap="round" stroke-linejoin="round" stroke-width="1"/><rect id="uuid-acfb69eb-4bea-48ee-89a7-8d5465470bc1" x="305.35" y="235.49" width="14.96" height="31.91" transform="translate(-36.47 449.13) rotate(-68.3)" fill="none" stroke="#000" stroke-linecap="round" stroke-linejoin="round" stroke-width="1"/><rect id="uuid-27b9cfaf-ebc0-4efa-a804-8567531602f3" x="280.25" y="227.65" width="31.91" height="14.96" transform="translate(-44.43 399.42) rotate(-64.19)" fill="none" stroke="#000" stroke-linecap="round" stroke-linejoin="round" stroke-width="1"/><rect id="uuid-32202cba-7970-4a82-a37b-90cbbd79b392" x="387.9" y="201.19" width="15.96" height="15.96" transform="translate(-18.61 39.85) rotate(-5.63)" fill="none" stroke="#000" stroke-linecap="round" stroke-linejoin="round" stroke-width="1"/><rect id="uuid-4fbbd3e5-b745-47d8-a024-ae669992481e" x="298.12" y="206.72" width="15.96" height="15.96" transform="translate(-20.45 396.78) rotate(-64.19)" fill="none" stroke="#000" stroke-linecap="round" stroke-linejoin="round" stroke-width="1"/></g><path d="M160.65,198.19l-25.94-32.55c-.36-.45-.3-1.11.13-1.49h0c.45-.39,1.14-.36,1.53.1l27.59,31.08c.39.45.36,1.14-.1,1.53l-1.65,1.46c-.47.42-1.18.36-1.57-.12h.01Z" fill="#455a64"/><path d="M167.31,198.01l-1.48-1.32c-.49-.44-.54-1.2-.1-1.69l27.43-30.92c.44-.49,1.2-.54,1.69-.1h0c.48.42.54,1.15.14,1.65l-25.95,32.24c-.44.51-1.23.59-1.73.13h0Z" fill="#455a64"/><path d="M145.22,200c0-4.17,9.26-7.57,20.67-7.57s20.67,3.38,20.67,7.57h-41.35.01Z" fill="#455a64"/><path d="M231.67,297H98.32c-2.94,0-5.32-2.47-5.32-5.5v-89c0-3.04,2.38-5.5,5.32-5.5h133.37c2.93,0,5.32,2.47,5.32,5.5v89c0,3.03-2.39,5.5-5.33,5.5h-.01Z" fill="#82aec0"/><path d="M226.75,292h-124.51c-2.34,0-4.25-1.9-4.25-4.25v-81.51c0-2.34,1.9-4.25,4.25-4.25h124.51c2.34,0,4.25,1.9,4.25,4.25v81.51c0,2.34-1.9,4.25-4.25,4.25Z" fill="#212121"/><path d="M106.54,278.72l-5.91,9.68c-.96,1.58.17,3.6,2.02,3.6h99.16c2.12-.01,3.49-2.33,2.57-4.31l-3.59-7.69s-94.25-1.28-94.25-1.28Z" fill="#b9e4ea"/><path d="M202.27,275.16c-.92,4.15-3.99,7.35-7.94,8.23-6.48,1.45-18.56,3.25-38.46,3.25-20.89,0-34.9-1.98-42.45-3.46-4.17-.81-7.45-4.23-8.26-8.65-1.88-10.14-4.23-30.41.1-55.72.8-4.69,4.38-8.29,8.84-8.9,8.05-1.11,22.42-2.59,41.78-2.59s30.67,1.34,37.64,2.42c4.29.67,7.72,4.15,8.6,8.66,5.18,26.67,2.32,46.98.16,56.76h0Z" fill="#e6e6e6"/><path d="M155.87,288.64c-20.66,0-34.7-1.9-42.83-3.5-5.01-.97-8.88-5-9.84-10.25-1.86-10.01-4.31-30.65.1-56.42.95-5.57,5.19-9.81,10.54-10.54,8.63-1.19,22.93-2.61,42.05-2.61s31.18,1.4,37.95,2.44c5.09.8,9.22,4.92,10.26,10.25,5.24,26.97,2.34,47.65.15,57.57l-.35,1.57h-.11c-1.46,4.12-4.86,7.26-9.01,8.18-6.72,1.5-18.93,3.3-38.9,3.3ZM155.88,209.32c-18.9,0-33,1.4-41.51,2.57-3.62.49-6.49,3.41-7.14,7.25-4.3,25.16-1.91,45.27-.1,55.02.67,3.63,3.28,6.39,6.67,7.05,7.97,1.56,21.73,3.42,42.07,3.42s31.5-1.74,38.02-3.2c3.2-.71,5.67-3.28,6.42-6.71l.27-1.24c2.08-10.04,4.46-29.53-.43-54.71-.72-3.69-3.51-6.53-6.95-7.06-6.64-1.03-17.73-2.4-37.33-2.4Z" fill="#212121"/><path d="M225.45,288h-13.9c-1.42,0-2.55-1.11-2.55-2.47v-28.06c0-1.37,1.15-2.47,2.55-2.47h13.9c1.42,0,2.55,1.11,2.55,2.47v28.06c0,1.36-1.13,2.47-2.55,2.47Z" fill="#455a64"/><circle cx="219" cy="219" r="8" fill="#455a64"/><path d="M218.72,211.2h0c-.63,0-1.18.43-1.33,1.04l-1.08,4.42c-.33,1.38-.33,2.81,0,4.2l1.08,4.42c.16.61.69,1.04,1.33,1.04h0c.63,0,1.18-.43,1.33-1.04l1.08-4.42c.33-1.38.33-2.81,0-4.2l-1.08-4.42c-.16-.61-.71-1.04-1.33-1.04Z" fill="#82aec0"/><circle cx="219" cy="240" r="8" fill="#455a64"/><path d="M212.89,235.23h0c-.41.49-.42,1.18-.05,1.69l2.71,3.65c.85,1.14,1.95,2.06,3.23,2.68l4.09,1.98c.56.28,1.24.13,1.65-.36h0c.41-.49.42-1.18.05-1.69l-2.71-3.65c-.85-1.14-1.95-2.06-3.23-2.68l-4.09-1.98c-.56-.28-1.24-.12-1.65.36Z" fill="#82aec0"/><path d="M160.65,198.19l-25.94-32.55c-.36-.45-.3-1.11.13-1.49h0c.45-.39,1.14-.36,1.53.1l27.59,31.08c.39.45.36,1.14-.1,1.53l-1.65,1.46c-.47.42-1.18.36-1.57-.12h.01Z" fill="none" stroke="#000" stroke-linecap="round" stroke-linejoin="round"/><path d="M167.31,198.01l-1.48-1.32c-.49-.44-.54-1.2-.1-1.69l27.43-30.92c.44-.49,1.2-.54,1.69-.1h0c.48.42.54,1.15.14,1.65l-25.95,32.24c-.44.51-1.23.59-1.73.13h0Z" fill="none" stroke="#000" stroke-linecap="round" stroke-linejoin="round"/><path d="M145.22,200c0-4.17,9.26-7.57,20.67-7.57s20.67,3.38,20.67,7.57h-41.35.01Z" fill="none" stroke="#000" stroke-linecap="round" stroke-linejoin="round"/><path d="M231.67,297H98.32c-2.94,0-5.32-2.47-5.32-5.5v-89c0-3.04,2.38-5.5,5.32-5.5h133.37c2.93,0,5.32,2.47,5.32,5.5v89c0,3.03-2.39,5.5-5.33,5.5h-.01Z" fill="none" stroke="#000" stroke-linecap="round" stroke-linejoin="round"/><path d="M226.75,292h-124.51c-2.34,0-4.25-1.9-4.25-4.25v-81.51c0-2.34,1.9-4.25,4.25-4.25h124.51c2.34,0,4.25,1.9,4.25,4.25v81.51c0,2.34-1.9,4.25-4.25,4.25Z" fill="none" stroke="#000" stroke-linecap="round" stroke-linejoin="round"/><path d="M106.54,278.72l-5.91,9.68c-.96,1.58.17,3.6,2.02,3.6h99.16c2.12-.01,3.49-2.33,2.57-4.31l-3.59-7.69s-94.25-1.28-94.25-1.28Z" fill="none" stroke="#000" stroke-linecap="round" stroke-linejoin="round"/><path d="M202.27,275.16c-.92,4.15-3.99,7.35-7.94,8.23-6.48,1.45-18.56,3.25-38.46,3.25-20.89,0-34.9-1.98-42.45-3.46-4.17-.81-7.45-4.23-8.26-8.65-1.88-10.14-4.23-30.41.1-55.72.8-4.69,4.38-8.29,8.84-8.9,8.05-1.11,22.42-2.59,41.78-2.59s30.67,1.34,37.64,2.42c4.29.67,7.72,4.15,8.6,8.66,5.18,26.67,2.32,46.98.16,56.76h0Z" fill="none" stroke="#000" stroke-linecap="round" stroke-linejoin="round"/><path d="M225.45,288h-13.9c-1.42,0-2.55-1.11-2.55-2.47v-28.06c0-1.37,1.15-2.47,2.55-2.47h13.9c1.42,0,2.55,1.11,2.55,2.47v28.06c0,1.36-1.13,2.47-2.55,2.47Z" fill="none" stroke="#000" stroke-linecap="round" stroke-linejoin="round"/><circle cx="219" cy="219" r="8" fill="none" stroke="#000" stroke-linecap="round" stroke-linejoin="round"/><path d="M218.72,211.2h0c-.63,0-1.18.43-1.33,1.04l-1.08,4.42c-.33,1.38-.33,2.81,0,4.2l1.08,4.42c.16.61.69,1.04,1.33,1.04h0c.63,0,1.18-.43,1.33-1.04l1.08-4.42c.33-1.38.33-2.81,0-4.2l-1.08-4.42c-.16-.61-.71-1.04-1.33-1.04Z" fill="none" stroke="#000" stroke-linecap="round" stroke-linejoin="round"/><circle cx="219" cy="240" r="8" fill="none" stroke="#000" stroke-linecap="round" stroke-linejoin="round"/><path d="M212.89,235.23h0c-.41.49-.42,1.18-.05,1.69l2.71,3.65c.85,1.14,1.95,2.06,3.23,2.68l4.09,1.98c.56.28,1.24.13,1.65-.36h0c.41-.49.42-1.18.05-1.69l-2.71-3.65c-.85-1.14-1.95-2.06-3.23-2.68l-4.09-1.98c-.56-.28-1.24-.12-1.65.36Z" fill="none" stroke="#000" stroke-linecap="round" stroke-linejoin="round"/><rect x="131" y="297" width="67" height="10" fill="#5b451f"/><rect x="138" y="302" width="12" height="62" fill="#5b451f"/><rect x="179" y="302" width="12" height="62" fill="#5b451f"/><rect x="131" y="297" width="67" height="10" fill="none" stroke="#000" stroke-linecap="round" stroke-linejoin="round"/><rect x="138" y="302" width="12" height="62" fill="none" stroke="#000" stroke-linecap="round" stroke-linejoin="round"/><rect x="179" y="302" width="12" height="62" fill="none" stroke="#000" stroke-linecap="round" stroke-linejoin="round"/><g isolation="isolate"><text transform="translate(121.26 244.44)" fill="#333" font-family="ComicNeue-Regular, &apos;Comic Neue&apos;" font-size="14" isolation="isolate"><tspan x="0" y="0">You will be </tspan></text><text transform="translate(117.21 261.24)" fill="#333" font-family="ComicNeue-Regular, &apos;Comic Neue&apos;" font-size="14" isolation="isolate"><tspan x="0" y="0">conscripted!</tspan></text></g><g isolation="isolate"><text transform="translate(104.94 106.11)" fill="#333" font-family="ComicNeue-Regular, &apos;Comic Neue&apos;" font-size="24" isolation="isolate"><tspan x="0" y="0">Some panicked; others fled.</tspan></text></g></svg>