<?xml version="1.0" encoding="UTF-8"?><svg id="uuid-3c07291e-33cd-4493-9615-44a5417137ae" xmlns="http://www.w3.org/2000/svg" viewBox="0 0 500 500"><g id="uuid-11ba9550-8d96-48aa-8648-b4656f3cc027"><polygon id="uuid-2d7a0e82-f89f-412b-80f0-2f4aef50e3f7" points="347.358485 377.865159 361.064272 363.29974 386.524472 387.257314 391.65165 392.081893 371.09297 413.93002 365.995073 409.132995 372.847967 401.850286 347.358485 377.865159" fill="#393939"/><rect id="uuid-9a67a6ef-c158-4c08-b4bd-2af1a1bb8039" x="343.578633" y="353.11487" width="39" height="20.000015" transform="translate(-108.563027 566.173127) rotate(-68.29643)" fill="#393939"/><polygon id="uuid-52163f64-45a0-497c-9850-99ce5401182c" points="321.544436 359.050445 301.768413 362.035024 306.991433 396.643116 297.103407 398.135407 298.148011 405.057026 327.81209 400.580151 326.761486 393.618775 326.761456 393.61878 321.544436 359.050445" fill="#393939"/><rect id="uuid-3e5b4326-8fc9-48d8-b473-a879ffad58cd" x="301.830464" y="344.588057" width="39" height="20.000031" transform="translate(-157.049763 366.349284) rotate(-49.225247)" fill="#393939"/><polygon id="uuid-bf5d73fe-1d2d-42e4-8e4d-f89eb3fcac7d" points="362.681963 304.879475 362.70695 305 362.598166 305 355.405972 266.521649 360.650049 258 344.818471 258 350.062548 266.521649 342.870354 305 342.761571 305 342.786557 304.879475 342.761571 305 342.889455 305 352.73426 317.811467 362.579065 305 362.70695 305 362.681963 304.879475" fill="#565656"/><path id="uuid-77730cfe-2068-42cf-b086-94dd64e7c0a2" d="M325,249v100h56v-100h-56ZM352.73426,298.92768l-19.766986-48.92768h39.533973l-19.766986,48.92768Z" fill="#393939"/><path id="uuid-2b01f186-bfde-4bb3-885e-fd212425f504" d="M378.748903,237.767696c2.796053-4.977446,4.838447-10.757961,5.819396-17.062456,3.387167-21.769099-7.102504-41.475861-23.429343-44.016239-16.32684-2.540378-32.308205,13.047617-35.695373,34.816717-.980949,6.304495-.79143,12.432285.360118,18.023959l52.945202,8.238019Z" fill="#cecece"/><path id="uuid-9d530aae-0f7b-4fff-b02a-a888f7f56fe9" d="M327.658004,242c5.31123,11.108678,14.626388,18.483075,25.23917,18.483075s19.92794-7.374397,25.23917-18.483075h-50.478341Z" fill="#cecece"/><ellipse id="uuid-86e49427-476f-4435-b615-898cebcf03a9" cx="355" cy="217.5" rx="3" ry="4.5" fill="#333"/><ellipse id="uuid-ec5953f4-80ea-453b-b525-167070187bae" cx="339" cy="214.5" rx="3" ry="4.5" fill="#333"/><path id="uuid-b0c7002c-b42d-446b-b7af-7b7f9afaa8ae" d="M328.783179,182.650202c10.820344-9.260118,30.190968-6.487215,39.784795-5.113849,12.012496,1.71959,25.835785,5.7735,25.752543,9.44016-.073765,3.249225-11.018245,4.006532-11.580405,8.940072-.408883,3.588346,5.010752,6.436814,4.287546,7.320658-1.534092,1.874861-24.675817-12.46442-30.524057-7.995394-2.627501,2.00784.032,6.439504-2.68168,7.744565-2.803563,1.348299-6.410414-3.012428-15.923817-6.420453-8.187517-2.933048-12.468361-2.193704-13.788786-4.818514-1.756681-3.491992,3.964108-8.489845,4.673861-9.097246Z" fill="#4a4a4a"/><rect id="uuid-6007c2e5-f4ba-45dc-851a-99180f77af32" x="390.589185" y="215.292466" width="14.959007" height="31.912601" transform="translate(-20.781876 40.201974) rotate(-5.634698)" fill="#393939"/><rect id="uuid-adca72f8-191f-44da-a9ef-433edbad1d53" x="373.833687" y="242.261434" width="31.912601" height="14.959007" transform="translate(-72.212529 279.074279) rotate(-36.280878)" fill="#393939"/><rect id="uuid-c4741d1b-7071-4dd8-92b4-afb71065ba04" x="305.363999" y="235.511005" width="14.959007" height="31.912601" transform="translate(-36.487995 449.139681) rotate(-68.296475)" fill="#393939"/><rect id="uuid-3239c1a2-176e-4c5b-883b-953690d769c4" x="280.244653" y="227.614667" width="31.912601" height="14.959007" transform="translate(-44.389756 399.417761) rotate(-64.194719)" fill="#393939"/><rect id="uuid-a809713d-9e27-47a3-855f-12835f6da1c0" x="387.908577" y="201.155186" width="15.956303" height="15.956303" transform="translate(-18.621003 39.880878) rotate(-5.634698)" fill="#cecece"/><rect id="uuid-8df588e2-27a3-428d-a5d4-f768d820f8e2" x="298.099959" y="206.688943" width="15.956303" height="15.956303" transform="translate(-20.422205 396.775073) rotate(-64.194719)" fill="#cecece"/><polygon id="uuid-b9ab2640-609f-413d-b7d7-f592efbcb020" points="347.358485 377.865159 361.064272 363.29974 386.524472 387.257314 391.65165 392.081893 371.09297 413.93002 365.995073 409.132995 372.847967 401.850286 347.358485 377.865159" fill="none" stroke="#000" stroke-linecap="round" stroke-linejoin="round"/><rect id="uuid-5bb6d5c0-fd79-4e6c-8d93-c7f20dea1749" x="343.578633" y="353.11487" width="39" height="20.000015" transform="translate(-108.563027 566.173127) rotate(-68.29643)" fill="none" stroke="#000" stroke-linecap="round" stroke-linejoin="round"/><polygon id="uuid-7963f8b2-886e-41b1-99f1-d1cc0536d9f9" points="321.544436 359.050445 301.768413 362.035024 306.991433 396.643116 297.103407 398.135407 298.148011 405.057026 327.81209 400.580151 326.761486 393.618775 326.761456 393.61878 321.544436 359.050445" fill="none" stroke="#000" stroke-linecap="round" stroke-linejoin="round"/><rect id="uuid-91a38a19-856a-4f82-be66-e30b9d43934e" x="301.830464" y="344.588057" width="39" height="20.000031" transform="translate(-157.049763 366.349284) rotate(-49.225247)" fill="none" stroke="#000" stroke-linecap="round" stroke-linejoin="round"/><polygon id="uuid-7f3b364c-00dc-48ca-b1d4-3c1abbada6bd" points="362.681963 304.879475 362.70695 305 362.598166 305 355.405972 266.521649 360.650049 258 344.818471 258 350.062548 266.521649 342.870354 305 342.761571 305 342.786557 304.879475 342.761571 305 342.889455 305 352.73426 317.811467 362.579065 305 362.70695 305 362.681963 304.879475" fill="none" stroke="#000" stroke-linecap="round" stroke-linejoin="round"/><path id="uuid-64b9a334-17ac-4add-9057-1e0c09a197a4" d="M325,249v100h56v-100h-56ZM352.73426,298.92768l-19.766986-48.92768h39.533973l-19.766986,48.92768Z" fill="none" stroke="#000" stroke-linecap="round" stroke-linejoin="round"/><path id="uuid-13bbe449-f535-4822-a250-dabe74500ea0" d="M378.748903,237.767696c2.796053-4.977446,4.838447-10.757961,5.819396-17.062456,3.387167-21.769099-7.102504-41.475861-23.429343-44.016239-16.32684-2.540378-32.308205,13.047617-35.695373,34.816717-.980949,6.304495-.79143,12.432285.360118,18.023959l52.945202,8.238019Z" fill="none" stroke="#000" stroke-linecap="round" stroke-linejoin="round"/><path id="uuid-15940516-a683-479b-8d22-eb3d59e1e09b" d="M327.658004,242c5.31123,11.108678,14.626388,18.483075,25.23917,18.483075s19.92794-7.374397,25.23917-18.483075h-50.478341Z" fill="none" stroke="#000" stroke-linecap="round" stroke-linejoin="round"/><ellipse id="uuid-d13b7af6-5d91-48dc-aed8-94acd7e27a31" cx="355" cy="217.5" rx="3" ry="4.5" fill="none" stroke="#000" stroke-linecap="round" stroke-linejoin="round"/><ellipse id="uuid-f8832fcf-85d2-4251-a447-1998ea1b4535" cx="339" cy="214.5" rx="3" ry="4.5" fill="none" stroke="#000" stroke-linecap="round" stroke-linejoin="round"/><path id="uuid-83aeda1c-1879-4f69-9121-7bcfc3db6c8f" d="M328.783179,182.650202c10.820344-9.260118,30.190968-6.487215,39.784795-5.113849,12.012496,1.71959,25.835785,5.7735,25.752543,9.44016-.073765,3.249225-11.018245,4.006532-11.580405,8.940072-.408883,3.588346,5.010752,6.436814,4.287546,7.320658-1.534092,1.874861-24.675817-12.46442-30.524057-7.995394-2.627501,2.00784.032,6.439504-2.68168,7.744565-2.803563,1.348299-6.410414-3.012428-15.923817-6.420453-8.187517-2.933048-12.468361-2.193704-13.788786-4.818514-1.756681-3.491992,3.964108-8.489845,4.673861-9.097246Z" fill="none" stroke="#000" stroke-linecap="round" stroke-linejoin="round"/><rect id="uuid-3446f561-6b43-4fe2-b28f-dd9e277a3e02" x="390.589185" y="215.292466" width="14.959007" height="31.912601" transform="translate(-20.781876 40.201974) rotate(-5.634698)" fill="none" stroke="#000" stroke-linecap="round" stroke-linejoin="round"/><rect id="uuid-2d1dc247-d151-4538-bfba-bb245082c227" x="373.833687" y="242.261434" width="31.912601" height="14.959007" transform="translate(-72.212529 279.074279) rotate(-36.280878)" fill="none" stroke="#000" stroke-linecap="round" stroke-linejoin="round"/><rect id="uuid-953b9009-117b-4d87-af73-0fd206b73eaf" x="305.363999" y="235.511005" width="14.959007" height="31.912601" transform="translate(-36.487995 449.139681) rotate(-68.296475)" fill="none" stroke="#000" stroke-linecap="round" stroke-linejoin="round"/><rect id="uuid-ac33cb05-a5d0-4987-b336-52846439ab53" x="280.244653" y="227.614667" width="31.912601" height="14.959007" transform="translate(-44.389756 399.417761) rotate(-64.194719)" fill="none" stroke="#000" stroke-linecap="round" stroke-linejoin="round"/><rect id="uuid-ec7f73c9-ac70-4eba-9ccd-9351797e180f" x="387.908577" y="201.155186" width="15.956303" height="15.956303" transform="translate(-18.621003 39.880878) rotate(-5.634698)" fill="none" stroke="#000" stroke-linecap="round" stroke-linejoin="round"/><rect id="uuid-f2adc6cd-6785-400b-9404-9fad23b95302" x="298.099959" y="206.688943" width="15.956303" height="15.956303" transform="translate(-20.422205 396.775073) rotate(-64.194719)" fill="none" stroke="#000" stroke-linecap="round" stroke-linejoin="round"/></g><path d="M160.649985,198.186425l-25.936365-32.549003c-.358732-.454395-.298944-1.112071.131536-1.494719h0c.454396-.394606,1.135987-.358733,1.530591.095662l27.586537,31.078202c.394608.454396.358732,1.135987-.095664,1.530591l-1.650171,1.458847c-.466347.41852-1.183815.358732-1.566463-.11958Z" fill="#455a64"/><path d="M167.310453,198.007062l-1.482759-1.315351c-.490272-.442436-.538095-1.195775-.095664-1.686043l27.431089-30.922751c.44244-.490268,1.195775-.538099,1.686048-.095662h0c.478312.418522.538095,1.147944.143496,1.65017l-25.94833,32.238101c-.44244.514184-1.231656.585932-1.73388.131536Z" fill="#455a64"/><path d="M145.224485,200c0-4.173258,9.255303-7.56926,20.674952-7.56926s20.674957,3.384046,20.674957,7.56926h-41.349909Z" fill="#455a64"/><path d="M231.672441,297H98.315557c-2.939755,0-5.315557-2.467358-5.315557-5.49766v-89.004676c0-3.042282,2.375802-5.497664,5.315557-5.497664h133.368885c2.927759,0,5.315557,2.467363,5.315557,5.497664v89.004667c-.012002,3.030311-2.387808,5.497669-5.327559,5.497669Z" fill="#82aec0"/><path d="M226.754994,292h-124.509991c-2.34445,0-4.245003-1.900552-4.245003-4.245003v-81.509995c0-2.34445,1.900552-4.245003,4.245003-4.245003h124.509991c2.344452,0,4.245006,1.900554,4.245006,4.245006v81.509988c0,2.344452-1.900554,4.245006-4.245006,4.245006Z" fill="#212121"/><path d="M106.541152,278.717834l-5.912961,9.68201c-.963124,1.57704.171891,3.600156,2.019772,3.600156h99.160616c2.116518-.012451,3.491662-2.327804,2.570919-4.307053l-3.587326-7.692947-94.25102-1.282166Z" fill="#b9e4ea"/><path d="M202.274921,275.158487c-.920743,4.149342-3.993885,7.35402-7.939948,8.226931-6.4811,1.446887-18.558438,3.25251-38.456135,3.25251-20.890192,0-34.904683-1.984991-42.450025-3.45579-4.173256-.813128-7.44968-4.233046-8.262807-8.64546-1.877367-10.14017-4.233045-30.408567.095662-55.723129.80117-4.687437,4.376538-8.286723,8.836779-8.896567,8.047567-1.112071,22.42079-2.594835,41.780386-2.594835,18.36711,0,30.671639,1.339267,37.643003,2.415467,4.292829.669636,7.724708,4.149342,8.597628,8.657415,5.177719,26.665794,2.319816,46.982014.155457,56.763457Z" fill="#e6e6e6" stroke="#212121" stroke-miterlimit="10" stroke-width="4"/><path d="M225.449586,288h-13.899171c-1.415548,0-2.550414-1.110637-2.550414-2.469383v-28.061233c0-1.370574,1.147081-2.469383,2.550414-2.469383h13.899171c1.415548,0,2.550414,1.110637,2.550414,2.469383v28.061224c.000009,1.358756-1.134866,2.469392-2.550414,2.469392Z" fill="#455a64"/><circle cx="219" cy="218.999999" r="8.000001" fill="#455a64"/><path d="M218.716832,211.196462h0c-.633759,0-1.183815.43048-1.327311,1.040323l-1.0762,4.42437c-.334816,1.375143-.334816,2.81007,0,4.197169l1.0762,4.42437c.155448.609843.693552,1.040323,1.327311,1.040323h0c.633759,0,1.183815-.43048,1.327311-1.040323l1.0762-4.42437c.334816-1.375143.334816-2.81007,0-4.197169l-1.0762-4.42437c-.155448-.609843-.705503-1.040323-1.327311-1.040323Z" fill="#82aec0"/><circle cx="219" cy="240" r="8" fill="#455a64"/><path d="M212.893412,235.231549h0c-.406559.490272-.41852,1.183815-.047832,1.686048l2.714406,3.647118c.848999,1.135983,1.949111,2.056735,3.22859,2.678534l4.089549,1.984991c.562016.275032,1.243607.131536,1.650167-.358736h0c.406559-.490272.41852-1.183815.047832-1.686048l-2.714406-3.647118c-.848999-1.135983-1.949111-2.056735-3.22859-2.678534l-4.089549-1.984991c-.562016-.275023-1.243607-.119576-1.650167.358736Z" fill="#82aec0"/><path d="M160.649985,198.186425l-25.936365-32.549003c-.358732-.454395-.298944-1.112071.131536-1.494719h0c.454396-.394606,1.135987-.358733,1.530591.095662l27.586537,31.078202c.394608.454396.358732,1.135987-.095664,1.530591l-1.650171,1.458847c-.466347.41852-1.183815.358732-1.566463-.11958Z" fill="none" stroke="#000" stroke-linecap="round" stroke-linejoin="round"/><path d="M167.310453,198.007062l-1.482759-1.315351c-.490272-.442436-.538095-1.195775-.095664-1.686043l27.431089-30.922751c.44244-.490268,1.195775-.538099,1.686048-.095662h0c.478312.418522.538095,1.147944.143496,1.65017l-25.94833,32.238101c-.44244.514184-1.231656.585932-1.73388.131536Z" fill="none" stroke="#000" stroke-linecap="round" stroke-linejoin="round"/><path d="M145.224485,200c0-4.173258,9.255303-7.56926,20.674952-7.56926s20.674957,3.384046,20.674957,7.56926h-41.349909Z" fill="none" stroke="#000" stroke-linecap="round" stroke-linejoin="round"/><path d="M231.672441,297H98.315557c-2.939755,0-5.315557-2.467358-5.315557-5.49766v-89.004676c0-3.042282,2.375802-5.497664,5.315557-5.497664h133.368885c2.927759,0,5.315557,2.467363,5.315557,5.497664v89.004667c-.012002,3.030311-2.387808,5.497669-5.327559,5.497669Z" fill="none" stroke="#000" stroke-linecap="round" stroke-linejoin="round"/><path d="M226.754994,292h-124.509991c-2.34445,0-4.245003-1.900552-4.245003-4.245003v-81.509995c0-2.34445,1.900552-4.245003,4.245003-4.245003h124.509991c2.344452,0,4.245006,1.900554,4.245006,4.245006v81.509988c0,2.344452-1.900554,4.245006-4.245006,4.245006Z" fill="none" stroke="#000" stroke-linecap="round" stroke-linejoin="round"/><path d="M106.541152,278.717834l-5.912961,9.68201c-.963124,1.57704.171891,3.600156,2.019772,3.600156h99.160616c2.116518-.012451,3.491662-2.327804,2.570919-4.307053l-3.587326-7.692947-94.25102-1.282166Z" fill="none" stroke="#000" stroke-linecap="round" stroke-linejoin="round"/><path d="M202.274921,275.158487c-.920743,4.149342-3.993885,7.35402-7.939948,8.226931-6.4811,1.446887-18.558438,3.25251-38.456135,3.25251-20.890192,0-34.904683-1.984991-42.450025-3.45579-4.173256-.813128-7.44968-4.233046-8.262807-8.64546-1.877367-10.14017-4.233045-30.408567.095662-55.723129.80117-4.687437,4.376538-8.286723,8.836779-8.896567,8.047567-1.112071,22.42079-2.594835,41.780386-2.594835,18.36711,0,30.671639,1.339267,37.643003,2.415467,4.292829.669636,7.724708,4.149342,8.597628,8.657415,5.177719,26.665794,2.319816,46.982014.155457,56.763457Z" fill="none" stroke="#000" stroke-linecap="round" stroke-linejoin="round"/><path d="M225.449586,288h-13.899171c-1.415548,0-2.550414-1.110637-2.550414-2.469383v-28.061233c0-1.370574,1.147081-2.469383,2.550414-2.469383h13.899171c1.415548,0,2.550414,1.110637,2.550414,2.469383v28.061224c.000009,1.358756-1.134866,2.469392-2.550414,2.469392Z" fill="none" stroke="#000" stroke-linecap="round" stroke-linejoin="round"/><circle cx="219" cy="218.999999" r="8.000001" fill="none" stroke="#000" stroke-linecap="round" stroke-linejoin="round"/><path d="M218.716832,211.196462h0c-.633759,0-1.183815.43048-1.327311,1.040323l-1.0762,4.42437c-.334816,1.375143-.334816,2.81007,0,4.197169l1.0762,4.42437c.155448.609843.693552,1.040323,1.327311,1.040323h0c.633759,0,1.183815-.43048,1.327311-1.040323l1.0762-4.42437c.334816-1.375143.334816-2.81007,0-4.197169l-1.0762-4.42437c-.155448-.609843-.705503-1.040323-1.327311-1.040323Z" fill="none" stroke="#000" stroke-linecap="round" stroke-linejoin="round"/><circle cx="219" cy="240" r="8" fill="none" stroke="#000" stroke-linecap="round" stroke-linejoin="round"/><path d="M212.893412,235.231549h0c-.406559.490272-.41852,1.183815-.047832,1.686048l2.714406,3.647118c.848999,1.135983,1.949111,2.056735,3.22859,2.678534l4.089549,1.984991c.562016.275032,1.243607.131536,1.650167-.358736h0c.406559-.490272.41852-1.183815.047832-1.686048l-2.714406-3.647118c-.848999-1.135983-1.949111-2.056735-3.22859-2.678534l-4.089549-1.984991c-.562016-.275023-1.243607-.119576-1.650167.358736Z" fill="none" stroke="#000" stroke-linecap="round" stroke-linejoin="round"/><rect x="131" y="297" width="67" height="10" fill="#5b451f"/><rect x="138" y="302" width="12" height="62" fill="#5b451f"/><rect x="179" y="302" width="12" height="62" fill="#5b451f"/><rect x="131" y="297" width="67" height="10" fill="none" stroke="#000" stroke-linecap="round" stroke-linejoin="round"/><rect x="138" y="302" width="12" height="62" fill="none" stroke="#000" stroke-linecap="round" stroke-linejoin="round"/><rect x="179" y="302" width="12" height="62" fill="none" stroke="#000" stroke-linecap="round" stroke-linejoin="round"/><text transform="translate(121.25647 244.442688)" fill="#333" font-family="ComicNeue-Regular, &apos;Comic Neue&apos;" font-size="14"><tspan x="0" y="0">You will be </tspan><tspan x="-4.045898" y="16.799805">conscripted!</tspan></text><text transform="translate(104.935425 106.110504)" fill="#333" font-family="ComicNeue-Regular, &apos;Comic Neue&apos;" font-size="24"><tspan x="0" y="0">Some panicked; others fled.</tspan></text></svg>