<?xml version="1.0" encoding="UTF-8"?><svg id="uuid-af5b4656-3451-49c1-8a65-137fc0399d9d" xmlns="http://www.w3.org/2000/svg" viewBox="0 0 500 500"><g id="uuid-a85cf3fe-bb5f-41f9-8571-d7148d581b66"><polygon id="uuid-bb5581f2-d77e-4bad-9787-e780bcb7793b" points="236 388 256 388 256 422.959792 256 430 226 430 226 423 236 423 236 388" fill="#097039"/><rect id="uuid-46de676c-e54e-4ec5-a94f-88e3a8423e35" x="235.999985" y="349" width="20.000015" height="39" fill="#097039"/><polygon id="uuid-c1ff9853-9d43-4c46-ad7e-1ca9de314fae" points="264.000031 388 284 388 284 423 294 423 294 430 264 430 264 422.959792 264.000031 422.959792 264.000031 388" fill="#097039"/><rect id="uuid-26810f4a-e64c-49ce-9280-7daca089c577" x="263.999985" y="349" width="20.000031" height="39" fill="#097039"/><polygon id="uuid-fb06f066-e772-4622-9433-49bfc9656b6d" points="249.99995 304.879475 249.974964 305 250.083747 305 257.275942 266.521649 252.031864 258 267.863443 258 262.619365 266.521649 269.81156 305 269.920343 305 269.895356 304.879475 269.920343 305 269.792458 305 259.947653 317.811467 250.102849 305 249.974964 305 249.99995 304.879475" fill="#c1272d"/><path id="uuid-b4647a4d-8d4c-4818-b041-02a11d6358ce" d="M288,249v100h-56v-100h56ZM259.947653,298.92768l19.766986-48.92768h-39.533973l19.766986,48.92768Z" fill="#097039"/><path id="uuid-7a5ea160-4c93-42c2-8d5f-5ffcd34c6a4b" d="M233.93301,238.311939c-2.796053-4.977446-4.838447-10.757961-5.819396-17.062456-3.387167-21.769099,7.102504-41.475861,23.429343-44.016239,16.32684-2.540378,32.308205,13.047617,35.695373,34.816717.980949,6.304495.79143,12.432285-.360118,18.023959l-52.945202,8.238019Z" fill="#eec6a2"/><path id="uuid-2da5c91b-ad68-477b-9a9a-f12677beb480" d="M285.02391,242c-5.31123,11.108678-14.626388,18.483075-25.23917,18.483075s-19.92794-7.374397-25.23917-18.483075h50.478341Z" fill="#eec6a2"/><ellipse id="uuid-c8208dbd-500b-4ddc-b2e2-8fc0e682dbc5" cx="258" cy="217.5" rx="3" ry="4.5" fill="#333"/><ellipse id="uuid-c1377edf-8046-4ab5-8490-7677c4618f8f" cx="274" cy="214.5" rx="3" ry="4.5" fill="#333"/><path id="uuid-b6e24851-7266-4afb-8341-7cd2130b38f7" d="M227.463979,191.50817c7.952526-11.814692,27.359754-14.318602,36.971713-15.558721,12.035196-1.552771,26.439092-1.33996,27.338638,2.215619.797136,3.15079-9.547032,6.805013-8.770469,11.709378.564819,3.567127,6.548524,4.863851,6.087785,5.908804-.977333,2.21661-27.109169-5.417623-31.550601.4516-1.995451,2.636922,1.751523,6.196805-.514761,8.179531-2.341346,2.048408-6.982269-1.189978-17.060405-1.932026-8.673544-.638628-12.601172,1.217708-14.574956-.958833-2.625894-2.89562,1.551413-9.240386,2.073057-10.015353Z" fill="#534741"/><rect id="uuid-fd6b2651-bc4e-490f-8a5c-eef47e581361" x="193.472952" y="228.217766" width="14.959007" height="31.912601" transform="translate(-83.402414 105.807986) rotate(-24.59862)" fill="#097039"/><rect id="uuid-98b647d8-ab6a-473a-b753-42fc4a8aa8b2" x="209.936824" y="240.026161" width="14.959007" height="31.912601" transform="translate(-60.047209 445.220052) rotate(-83.952439)" fill="#097039"/><rect id="uuid-79b5d831-4c4e-4072-9c4c-411b1c30c472" x="283.882111" y="244.532045" width="31.912601" height="14.959007" transform="translate(-71.93926 128.746563) rotate(-21.703525)" fill="#097039"/><rect id="uuid-e4d5836d-6574-41ac-8fb9-cb3ec4f35db9" x="300.776746" y="228.21142" width="31.912601" height="14.959007" transform="translate(-37.862891 409.275933) rotate(-62.737174)" fill="#097039"/><rect id="uuid-540501c3-6433-493f-a672-a38888de7965" x="183.723863" y="215.989914" width="15.956303" height="15.956303" transform="translate(-75.831 100.123635) rotate(-24.59862)" fill="#eec6a2"/><rect id="uuid-0f6fd9ce-6cfd-4825-9dd6-feb9cd7c3836" x="319.148443" y="207.543543" width="15.956303" height="15.956303" transform="translate(-14.301623 407.584659) rotate(-62.737174)" fill="#eec6a2"/></g><rect x="126" y="136" width="7" height="308" fill="#757575"/><rect x="156" y="136" width="7" height="308" fill="#757575"/><rect x="185" y="136" width="7" height="308" fill="#757575"/><rect x="218" y="136" width="7" height="308" fill="#757575"/><rect x="248" y="136" width="7" height="308" fill="#757575"/><rect x="277" y="136" width="7" height="308" fill="#757575"/><rect x="309" y="136" width="7" height="308" fill="#757575"/><rect x="339" y="136" width="7" height="308" fill="#757575"/><rect x="368" y="136" width="7" height="308" fill="#757575"/><g id="uuid-f3d5cd27-6577-4a09-9327-f770e11fecab"><polygon id="uuid-b8c3944d-cffe-4d74-ac65-f6648927d0cc" points="236 388 256 388 256 422.959792 256 430 226 430 226 423 236 423 236 388" fill="none" stroke="#000" stroke-linecap="round" stroke-linejoin="round"/><rect id="uuid-4a43094b-58d9-4365-a1c3-de20518c10e1" x="235.999985" y="349" width="20.000015" height="39" fill="none" stroke="#000" stroke-linecap="round" stroke-linejoin="round"/><polygon id="uuid-20f755d8-38a5-4c2f-9fb8-b2dbaf7b104e" points="264.000031 388 284 388 284 423 294 423 294 430 264 430 264 422.959792 264.000031 422.959792 264.000031 388" fill="none" stroke="#000" stroke-linecap="round" stroke-linejoin="round"/><rect id="uuid-12a5ebb9-0ef2-4562-9849-673f409c128e" x="263.999985" y="349" width="20.000031" height="39" fill="none" stroke="#000" stroke-linecap="round" stroke-linejoin="round"/><polygon id="uuid-f4f6ff7b-aa1b-4394-9c1b-1b7d2de6788b" points="249.99995 304.879475 249.974964 305 250.083747 305 257.275942 266.521649 252.031864 258 267.863443 258 262.619365 266.521649 269.81156 305 269.920343 305 269.895356 304.879475 269.920343 305 269.792458 305 259.947653 317.811467 250.102849 305 249.974964 305 249.99995 304.879475" fill="none" stroke="#000" stroke-linecap="round" stroke-linejoin="round"/><path id="uuid-8b989ed7-c22d-40db-8522-a3efae30e321" d="M288,249v100h-56v-100h56ZM259.947653,298.92768l19.766986-48.92768h-39.533973l19.766986,48.92768Z" fill="none" stroke="#000" stroke-linecap="round" stroke-linejoin="round"/><path id="uuid-5a6ea84c-5674-4fbd-a047-452fd586a81a" d="M233.93301,238.311939c-2.796053-4.977446-4.838447-10.757961-5.819396-17.062456-3.387167-21.769099,7.102504-41.475861,23.429343-44.016239,16.32684-2.540378,32.308205,13.047617,35.695373,34.816717.980949,6.304495.79143,12.432285-.360118,18.023959l-52.945202,8.238019Z" fill="none" stroke="#000" stroke-linecap="round" stroke-linejoin="round"/><path id="uuid-630920c6-5609-4791-8a06-7118d3ddc37c" d="M285.02391,242c-5.31123,11.108678-14.626388,18.483075-25.23917,18.483075s-19.92794-7.374397-25.23917-18.483075h50.478341Z" fill="none" stroke="#000" stroke-linecap="round" stroke-linejoin="round"/><ellipse id="uuid-ea8a81dc-8caa-4a1a-b909-28e31f3bd446" cx="258" cy="217.5" rx="3" ry="4.5" fill="none" stroke="#000" stroke-linecap="round" stroke-linejoin="round"/><ellipse id="uuid-8e37b6e3-7f6d-4eeb-bd49-9ccaedfd3a7a" cx="274" cy="214.5" rx="3" ry="4.5" fill="none" stroke="#000" stroke-linecap="round" stroke-linejoin="round"/><path id="uuid-51903de9-3e06-4799-bd44-8de3a9996fdb" d="M227.463979,191.50817c7.952526-11.814692,27.359754-14.318602,36.971713-15.558721,12.035196-1.552771,26.439092-1.33996,27.338638,2.215619.797136,3.15079-9.547032,6.805013-8.770469,11.709378.564819,3.567127,6.548524,4.863851,6.087785,5.908804-.977333,2.21661-27.109169-5.417623-31.550601.4516-1.995451,2.636922,1.751523,6.196805-.514761,8.179531-2.341346,2.048408-6.982269-1.189978-17.060405-1.932026-8.673544-.638628-12.601172,1.217708-14.574956-.958833-2.625894-2.89562,1.551413-9.240386,2.073057-10.015353Z" fill="none" stroke="#000" stroke-linecap="round" stroke-linejoin="round"/><rect id="uuid-e5416030-af2b-47ba-a6a7-cffe812ad609" x="193.472952" y="228.217766" width="14.959007" height="31.912601" transform="translate(-83.402414 105.807986) rotate(-24.59862)" fill="none" stroke="#000" stroke-linecap="round" stroke-linejoin="round"/><rect id="uuid-44b54ab8-a374-4677-8cf4-b06331d1959e" x="209.936824" y="240.026161" width="14.959007" height="31.912601" transform="translate(-60.047209 445.220052) rotate(-83.952439)" fill="none" stroke="#000" stroke-linecap="round" stroke-linejoin="round"/><rect id="uuid-9a1d5892-abbf-4411-a4fa-579ed2cabd92" x="283.882111" y="244.532045" width="31.912601" height="14.959007" transform="translate(-71.93926 128.746563) rotate(-21.703525)" fill="none" stroke="#000" stroke-linecap="round" stroke-linejoin="round"/><rect id="uuid-a2e671fa-c907-4885-99e2-c9b057a0906e" x="300.776746" y="228.21142" width="31.912601" height="14.959007" transform="translate(-37.862891 409.275933) rotate(-62.737174)" fill="none" stroke="#000" stroke-linecap="round" stroke-linejoin="round"/><rect id="uuid-9caea65f-ae67-4625-8172-9b70946f8570" x="183.723863" y="215.989914" width="15.956303" height="15.956303" transform="translate(-75.831 100.123635) rotate(-24.59862)" fill="none" stroke="#000" stroke-linecap="round" stroke-linejoin="round"/><rect id="uuid-e63d9a70-0986-41a1-9a77-f9c5ad87c58b" x="319.148443" y="207.543543" width="15.956303" height="15.956303" transform="translate(-14.301623 407.584659) rotate(-62.737174)" fill="none" stroke="#000" stroke-linecap="round" stroke-linejoin="round"/><polygon id="uuid-8ac3f89a-2aa3-423d-91e5-8f4fa72c922d" points="236 388 256 388 256 422.959792 256 430 226 430 226 423 236 423 236 388" fill="none" stroke="#000" stroke-linecap="round" stroke-linejoin="round"/><rect id="uuid-29162939-ad1d-4c7b-8f7c-edb2b159f7a1" x="235.999985" y="349" width="20.000015" height="39" fill="none" stroke="#000" stroke-linecap="round" stroke-linejoin="round"/><polygon id="uuid-0dbe5680-1d11-400f-9ab8-368a1eab9356" points="264.000031 388 284 388 284 423 294 423 294 430 264 430 264 422.959792 264.000031 422.959792 264.000031 388" fill="none" stroke="#000" stroke-linecap="round" stroke-linejoin="round"/><rect id="uuid-7e1beb9f-c17e-4a87-8523-e77bc3b01b93" x="263.999985" y="349" width="20.000031" height="39" fill="none" stroke="#000" stroke-linecap="round" stroke-linejoin="round"/><polygon id="uuid-48971f98-284c-440c-9d7b-c75d54d795f5" points="249.99995 304.879475 249.974964 305 250.083747 305 257.275942 266.521649 252.031864 258 267.863443 258 262.619365 266.521649 269.81156 305 269.920343 305 269.895356 304.879475 269.920343 305 269.792458 305 259.947653 317.811467 250.102849 305 249.974964 305 249.99995 304.879475" fill="none" stroke="#000" stroke-linecap="round" stroke-linejoin="round"/><path id="uuid-7703e9e8-3cc7-44f1-a1bc-8c10547a560c" d="M288,249v100h-56v-100h56ZM259.947653,298.92768l19.766986-48.92768h-39.533973l19.766986,48.92768Z" fill="none" stroke="#000" stroke-linecap="round" stroke-linejoin="round"/><path id="uuid-d1ce527d-9720-4546-9343-8ac7a32b0228" d="M233.93301,238.311939c-2.796053-4.977446-4.838447-10.757961-5.819396-17.062456-3.387167-21.769099,7.102504-41.475861,23.429343-44.016239,16.32684-2.540378,32.308205,13.047617,35.695373,34.816717.980949,6.304495.79143,12.432285-.360118,18.023959l-52.945202,8.238019Z" fill="none" stroke="#000" stroke-linecap="round" stroke-linejoin="round"/><path id="uuid-91012302-474a-449b-b618-bea7cbec8084" d="M285.02391,242c-5.31123,11.108678-14.626388,18.483075-25.23917,18.483075s-19.92794-7.374397-25.23917-18.483075h50.478341Z" fill="none" stroke="#000" stroke-linecap="round" stroke-linejoin="round"/><ellipse id="uuid-ab97d849-14f2-4e24-b25f-b7c9ef5c7baa" cx="258" cy="217.5" rx="3" ry="4.5" fill="none" stroke="#000" stroke-linecap="round" stroke-linejoin="round"/><ellipse id="uuid-5e84a67d-6884-4301-ad5a-d1692a2c0ce0" cx="274" cy="214.5" rx="3" ry="4.5" fill="none" stroke="#000" stroke-linecap="round" stroke-linejoin="round"/><path id="uuid-78d097a0-3533-40a2-b276-f0ea6f6d4fda" d="M227.463979,191.50817c7.952526-11.814692,27.359754-14.318602,36.971713-15.558721,12.035196-1.552771,26.439092-1.33996,27.338638,2.215619.797136,3.15079-9.547032,6.805013-8.770469,11.709378.564819,3.567127,6.548524,4.863851,6.087785,5.908804-.977333,2.21661-27.109169-5.417623-31.550601.4516-1.995451,2.636922,1.751523,6.196805-.514761,8.179531-2.341346,2.048408-6.982269-1.189978-17.060405-1.932026-8.673544-.638628-12.601172,1.217708-14.574956-.958833-2.625894-2.89562,1.551413-9.240386,2.073057-10.015353Z" fill="none" stroke="#000" stroke-linecap="round" stroke-linejoin="round"/><rect id="uuid-2143d00a-5bff-4b59-a0dc-2680b2b1b812" x="193.472952" y="228.217766" width="14.959007" height="31.912601" transform="translate(-83.402414 105.807986) rotate(-24.59862)" fill="none" stroke="#000" stroke-linecap="round" stroke-linejoin="round"/><rect id="uuid-e4d57665-c19b-46bc-ab16-ee55e2b62314" x="209.936824" y="240.026161" width="14.959007" height="31.912601" transform="translate(-60.047209 445.220052) rotate(-83.952439)" fill="none" stroke="#000" stroke-linecap="round" stroke-linejoin="round"/><rect id="uuid-9321ef98-df11-47f1-bfa8-53758338826a" x="283.882111" y="244.532045" width="31.912601" height="14.959007" transform="translate(-71.93926 128.746563) rotate(-21.703525)" fill="none" stroke="#000" stroke-linecap="round" stroke-linejoin="round"/><rect id="uuid-64e0137a-da39-43c5-bb0b-261d54ef13fe" x="300.776746" y="228.21142" width="31.912601" height="14.959007" transform="translate(-37.862891 409.275933) rotate(-62.737174)" fill="none" stroke="#000" stroke-linecap="round" stroke-linejoin="round"/><rect id="uuid-787ff6de-bcb5-4928-9d8a-d221871bf108" x="183.723863" y="215.989914" width="15.956303" height="15.956303" transform="translate(-75.831 100.123635) rotate(-24.59862)" fill="none" stroke="#000" stroke-linecap="round" stroke-linejoin="round"/><rect id="uuid-7a9beb08-f85d-453c-a467-18fc286677dc" x="319.148443" y="207.543543" width="15.956303" height="15.956303" transform="translate(-14.301623 407.584659) rotate(-62.737174)" fill="none" stroke="#000" stroke-linecap="round" stroke-linejoin="round"/></g><rect x="126" y="136" width="7" height="308" fill="none" stroke="#000" stroke-linecap="round" stroke-linejoin="round"/><rect x="156" y="136" width="7" height="308" fill="none" stroke="#000" stroke-linecap="round" stroke-linejoin="round"/><rect x="185" y="136" width="7" height="308" fill="none" stroke="#000" stroke-linecap="round" stroke-linejoin="round"/><rect x="218" y="136" width="7" height="308" fill="none" stroke="#000" stroke-linecap="round" stroke-linejoin="round"/><rect x="248" y="136" width="7" height="308" fill="none" stroke="#000" stroke-linecap="round" stroke-linejoin="round"/><rect x="277" y="136" width="7" height="308" fill="none" stroke="#000" stroke-linecap="round" stroke-linejoin="round"/><rect x="309" y="136" width="7" height="308" fill="none" stroke="#000" stroke-linecap="round" stroke-linejoin="round"/><rect x="339" y="136" width="7" height="308" fill="none" stroke="#000" stroke-linecap="round" stroke-linejoin="round"/><rect x="368" y="136" width="7" height="308" fill="none" stroke="#000" stroke-linecap="round" stroke-linejoin="round"/><text transform="translate(108.164856 75.740692)" fill="#333" font-family="ComicNeue-Regular, &apos;Comic Neue&apos;" font-size="24"><tspan x="0" y="0">But those who spoke out </tspan><tspan x="0" y="28.799805">against it were imprisoned.</tspan></text></svg>