<?xml version="1.0" encoding="UTF-8"?><svg id="uuid-65ed3b97-69da-4b13-97b1-90960113c33a" xmlns="http://www.w3.org/2000/svg" viewBox="0 0 500 500"><g id="uuid-1abeac46-e9a2-454b-8cb9-43418f35429c"><polygon id="uuid-92c8e616-ff03-4e4f-8c1b-198cb8ffd437" points="236 388 256 388 256 422.96 256 430 226 430 226 423 236 423 236 388" fill="#097039"/><rect id="uuid-ca7898e8-a4a0-405d-9388-b255d7eab1b8" x="236" y="349" width="20" height="39" fill="#097039"/><polygon id="uuid-5fbd51f4-324f-4b9b-ac99-a9a2dc6106c2" points="264 388 284 388 284 423 294 423 294 430 264 430 264 422.96 264 422.96 264 388" fill="#097039"/><rect id="uuid-5f3c2203-e08a-48cc-a8ca-6915f8936e51" x="264" y="349" width="20" height="39" fill="#097039"/><polygon id="uuid-cddb095d-e189-46d5-859a-a14ed460af0c" points="250 304.88 249.97 305 250.08 305 257.28 266.52 252.03 258 267.86 258 262.62 266.52 269.81 305 269.92 305 269.9 304.88 269.92 305 269.79 305 259.95 317.81 250.1 305 249.97 305 250 304.88" fill="#c1272d"/><path id="uuid-c29ae5d2-d134-4aeb-807d-eb323f346959" d="M288,249v100h-56v-100h56ZM259.95,298.93l19.77-48.93h-39.53l19.77,48.93Z" fill="#097039"/><path id="uuid-0fda428a-a91a-4463-a9d7-21f236bebd92" d="M233.93,238.31c-2.8-4.98-4.84-10.76-5.82-17.06-3.39-21.77,7.1-41.48,23.43-44.02,16.33-2.54,32.31,13.05,35.7,34.82.98,6.3.79,12.43-.36,18.02l-52.95,8.24Z" fill="#eec6a2"/><path id="uuid-20954f65-821e-4e84-853c-6c8fed837690" d="M285.02,242c-5.31,11.11-14.63,18.48-25.24,18.48s-19.93-7.37-25.24-18.48h50.48Z" fill="#eec6a2"/><ellipse id="uuid-7cac6b2c-27e8-4f34-9e85-bdbc9fc1c4aa" cx="258" cy="217.5" rx="3" ry="4.5" fill="#333"/><ellipse id="uuid-4c6d9bde-301c-457b-a25c-bf2c8e8f2a65" cx="274" cy="214.5" rx="3" ry="4.5" fill="#333"/><path id="uuid-17d25f9f-4a4a-47d7-a72f-55cdef552b44" d="M227.46,191.51c7.95-11.81,27.36-14.32,36.97-15.56,12.04-1.55,26.44-1.34,27.34,2.22.8,3.15-9.55,6.81-8.77,11.71.56,3.57,6.55,4.86,6.09,5.91-.98,2.22-27.11-5.42-31.55.45-2,2.64,1.75,6.2-.51,8.18-2.34,2.05-6.98-1.19-17.06-1.93-8.67-.64-12.6,1.22-14.57-.96-2.63-2.9,1.55-9.24,2.07-10.02Z" fill="#534741"/><rect id="uuid-f4a84300-fa03-4940-8bae-6502c2cf8132" x="193.47" y="228.22" width="14.96" height="31.91" transform="translate(-83.4 105.81) rotate(-24.6)" fill="#097039"/><rect id="uuid-729d3d9f-f8b8-409f-9887-3d0bc79c49d1" x="209.94" y="240.03" width="14.96" height="31.91" transform="translate(-60.05 445.22) rotate(-83.95)" fill="#097039"/><rect id="uuid-8d9e3578-7059-4138-a23f-f2f92e2928ca" x="283.88" y="244.53" width="31.91" height="14.96" transform="translate(-71.94 128.75) rotate(-21.7)" fill="#097039"/><rect id="uuid-765d4a27-8dc5-4646-b3c7-8cdebec840f2" x="300.78" y="228.21" width="31.91" height="14.96" transform="translate(-37.86 409.28) rotate(-62.74)" fill="#097039"/><rect id="uuid-08e46336-4a4a-4ef8-9adb-6bf070d0d762" x="183.72" y="215.99" width="15.96" height="15.96" transform="translate(-75.83 100.12) rotate(-24.6)" fill="#eec6a2"/><rect id="uuid-66c58cae-cf6e-4499-8833-18d4d3ed898f" x="319.15" y="207.54" width="15.96" height="15.96" transform="translate(-14.3 407.58) rotate(-62.74)" fill="#eec6a2"/></g><rect x="126" y="136" width="7" height="308" fill="#757575"/><rect x="156" y="136" width="7" height="308" fill="#757575"/><rect x="185" y="136" width="7" height="308" fill="#757575"/><rect x="218" y="136" width="7" height="308" fill="#757575"/><rect x="248" y="136" width="7" height="308" fill="#757575"/><rect x="277" y="136" width="7" height="308" fill="#757575"/><rect x="309" y="136" width="7" height="308" fill="#757575"/><rect x="339" y="136" width="7" height="308" fill="#757575"/><rect x="368" y="136" width="7" height="308" fill="#757575"/><g id="uuid-bab95d97-b7a6-4172-be67-ee6b34c03e87"><polygon id="uuid-bf14f35c-b212-4bdf-92d2-87cb9dbc953c" points="236 388 256 388 256 422.96 256 430 226 430 226 423 236 423 236 388" fill="none" stroke="#000" stroke-linecap="round" stroke-linejoin="round"/><rect id="uuid-29316315-695b-416e-8532-6a785d2e560a" x="236" y="349" width="20" height="39" fill="none" stroke="#000" stroke-linecap="round" stroke-linejoin="round"/><polygon id="uuid-ed24b96f-ca46-4ccc-aaee-2a27b5f47a1a" points="264 388 284 388 284 423 294 423 294 430 264 430 264 422.96 264 422.96 264 388" fill="none" stroke="#000" stroke-linecap="round" stroke-linejoin="round"/><rect id="uuid-f38520bb-d4a4-46f6-bc9c-f350b432cc65" x="264" y="349" width="20" height="39" fill="none" stroke="#000" stroke-linecap="round" stroke-linejoin="round"/><polygon id="uuid-b0d0ec66-2e20-47c3-9dec-3d2e371c0234" points="250 304.88 249.97 305 250.08 305 257.28 266.52 252.03 258 267.86 258 262.62 266.52 269.81 305 269.92 305 269.9 304.88 269.92 305 269.79 305 259.95 317.81 250.1 305 249.97 305 250 304.88" fill="none" stroke="#000" stroke-linecap="round" stroke-linejoin="round"/><path id="uuid-65b376d8-085d-462e-9149-341a4b4eb200" d="M288,249v100h-56v-100h56ZM259.95,298.93l19.77-48.93h-39.53l19.77,48.93Z" fill="none" stroke="#000" stroke-linecap="round" stroke-linejoin="round"/><path id="uuid-8f74e13e-2f35-4656-b1f3-b861e3aafcdd" d="M233.93,238.31c-2.8-4.98-4.84-10.76-5.82-17.06-3.39-21.77,7.1-41.48,23.43-44.02,16.33-2.54,32.31,13.05,35.7,34.82.98,6.3.79,12.43-.36,18.02l-52.95,8.24Z" fill="none" stroke="#000" stroke-linecap="round" stroke-linejoin="round"/><path id="uuid-04d5dc7f-13b0-4004-8a3a-912e3d6b6a9b" d="M285.02,242c-5.31,11.11-14.63,18.48-25.24,18.48s-19.93-7.37-25.24-18.48h50.48Z" fill="none" stroke="#000" stroke-linecap="round" stroke-linejoin="round"/><ellipse id="uuid-ec833594-f771-4209-aec9-d3c293580e72" cx="258" cy="217.5" rx="3" ry="4.5" fill="none" stroke="#000" stroke-linecap="round" stroke-linejoin="round"/><ellipse id="uuid-8485ac22-d825-44c9-9e5a-cc90c3488cde" cx="274" cy="214.5" rx="3" ry="4.5" fill="none" stroke="#000" stroke-linecap="round" stroke-linejoin="round"/><path id="uuid-4c163e3e-a6ee-49e5-b00b-ce7975391f08" d="M227.46,191.51c7.95-11.81,27.36-14.32,36.97-15.56,12.04-1.55,26.44-1.34,27.34,2.22.8,3.15-9.55,6.81-8.77,11.71.56,3.57,6.55,4.86,6.09,5.91-.98,2.22-27.11-5.42-31.55.45-2,2.64,1.75,6.2-.51,8.18-2.34,2.05-6.98-1.19-17.06-1.93-8.67-.64-12.6,1.22-14.57-.96-2.63-2.9,1.55-9.24,2.07-10.02Z" fill="none" stroke="#000" stroke-linecap="round" stroke-linejoin="round"/><rect id="uuid-bc0ea639-7c6e-4735-b039-96a5d954234f" x="193.47" y="228.22" width="14.96" height="31.91" transform="translate(-83.4 105.81) rotate(-24.6)" fill="none" stroke="#000" stroke-linecap="round" stroke-linejoin="round"/><rect id="uuid-e9b89e07-873d-4748-a24e-69b9858e27e6" x="209.94" y="240.03" width="14.96" height="31.91" transform="translate(-60.05 445.22) rotate(-83.95)" fill="none" stroke="#000" stroke-linecap="round" stroke-linejoin="round"/><rect id="uuid-067c341d-6b2b-40e0-b51c-16e8ef8e0291" x="283.88" y="244.53" width="31.91" height="14.96" transform="translate(-71.94 128.75) rotate(-21.7)" fill="none" stroke="#000" stroke-linecap="round" stroke-linejoin="round"/><rect id="uuid-adbc9c9d-0461-4132-9ce2-efd1d172876c" x="300.78" y="228.21" width="31.91" height="14.96" transform="translate(-37.86 409.28) rotate(-62.74)" fill="none" stroke="#000" stroke-linecap="round" stroke-linejoin="round"/><rect id="uuid-30d51484-7da9-403e-97e0-4e2531c29307" x="183.72" y="215.99" width="15.96" height="15.96" transform="translate(-75.83 100.12) rotate(-24.6)" fill="none" stroke="#000" stroke-linecap="round" stroke-linejoin="round"/><rect id="uuid-e6771891-97f8-43f0-b071-3cf851ff008a" x="319.15" y="207.54" width="15.96" height="15.96" transform="translate(-14.3 407.58) rotate(-62.74)" fill="none" stroke="#000" stroke-linecap="round" stroke-linejoin="round"/><polygon id="uuid-400e395a-57a8-41cd-a9ed-9892316c0c9f" points="236 388 256 388 256 422.96 256 430 226 430 226 423 236 423 236 388" fill="none" stroke="#000" stroke-linecap="round" stroke-linejoin="round"/><rect id="uuid-cfe40346-7c22-46c7-93f8-70983a51458b" x="236" y="349" width="20" height="39" fill="none" stroke="#000" stroke-linecap="round" stroke-linejoin="round"/><polygon id="uuid-007f2f2a-e575-4fdc-932f-78f5fcf9416d" points="264 388 284 388 284 423 294 423 294 430 264 430 264 422.96 264 422.96 264 388" fill="none" stroke="#000" stroke-linecap="round" stroke-linejoin="round"/><rect id="uuid-b11e1f2d-28e6-4794-ad67-e7c4a22f6925" x="264" y="349" width="20" height="39" fill="none" stroke="#000" stroke-linecap="round" stroke-linejoin="round"/><polygon id="uuid-c463ff67-33d9-42d6-8cda-ac635a7c8717" points="250 304.88 249.97 305 250.08 305 257.28 266.52 252.03 258 267.86 258 262.62 266.52 269.81 305 269.92 305 269.9 304.88 269.92 305 269.79 305 259.95 317.81 250.1 305 249.97 305 250 304.88" fill="none" stroke="#000" stroke-linecap="round" stroke-linejoin="round"/><path id="uuid-b20fdfa5-1706-4474-9bd4-d0746cf57e49" d="M288,249v100h-56v-100h56ZM259.95,298.93l19.77-48.93h-39.53l19.77,48.93Z" fill="none" stroke="#000" stroke-linecap="round" stroke-linejoin="round"/><path id="uuid-2179312b-4517-4cd3-acd2-75ed98350d7b" d="M233.93,238.31c-2.8-4.98-4.84-10.76-5.82-17.06-3.39-21.77,7.1-41.48,23.43-44.02,16.33-2.54,32.31,13.05,35.7,34.82.98,6.3.79,12.43-.36,18.02l-52.95,8.24Z" fill="none" stroke="#000" stroke-linecap="round" stroke-linejoin="round"/><path id="uuid-ccd9bcf7-9704-4ea6-8694-95daffeda941" d="M285.02,242c-5.31,11.11-14.63,18.48-25.24,18.48s-19.93-7.37-25.24-18.48h50.48Z" fill="none" stroke="#000" stroke-linecap="round" stroke-linejoin="round"/><ellipse id="uuid-906dc090-7224-463b-8bc0-8b107ea2427f" cx="258" cy="217.5" rx="3" ry="4.5" fill="none" stroke="#000" stroke-linecap="round" stroke-linejoin="round"/><ellipse id="uuid-e3a2f39b-b1fa-44c2-8d20-8f4623cb7c0b" cx="274" cy="214.5" rx="3" ry="4.5" fill="none" stroke="#000" stroke-linecap="round" stroke-linejoin="round"/><path id="uuid-21eadef6-3f35-4f87-831e-62264f669345" d="M227.46,191.51c7.95-11.81,27.36-14.32,36.97-15.56,12.04-1.55,26.44-1.34,27.34,2.22.8,3.15-9.55,6.81-8.77,11.71.56,3.57,6.55,4.86,6.09,5.91-.98,2.22-27.11-5.42-31.55.45-2,2.64,1.75,6.2-.51,8.18-2.34,2.05-6.98-1.19-17.06-1.93-8.67-.64-12.6,1.22-14.57-.96-2.63-2.9,1.55-9.24,2.07-10.02Z" fill="none" stroke="#000" stroke-linecap="round" stroke-linejoin="round"/><rect id="uuid-76f4e266-55c9-4e29-8de4-e646a0ba5429" x="193.47" y="228.22" width="14.96" height="31.91" transform="translate(-83.4 105.81) rotate(-24.6)" fill="none" stroke="#000" stroke-linecap="round" stroke-linejoin="round"/><rect id="uuid-450e673d-4f73-4632-b06c-e3a0807cc4b7" x="209.94" y="240.03" width="14.96" height="31.91" transform="translate(-60.05 445.22) rotate(-83.95)" fill="none" stroke="#000" stroke-linecap="round" stroke-linejoin="round"/><rect id="uuid-79456101-b0d9-4d28-ba29-315fce1b378f" x="283.88" y="244.53" width="31.91" height="14.96" transform="translate(-71.94 128.75) rotate(-21.7)" fill="none" stroke="#000" stroke-linecap="round" stroke-linejoin="round"/><rect id="uuid-c28721ae-cd0d-4899-bc36-d721cc6983bb" x="300.78" y="228.21" width="31.91" height="14.96" transform="translate(-37.86 409.28) rotate(-62.74)" fill="none" stroke="#000" stroke-linecap="round" stroke-linejoin="round"/><rect id="uuid-ec1a0013-3245-4f27-aee3-5e45617cc820" x="183.72" y="215.99" width="15.96" height="15.96" transform="translate(-75.83 100.12) rotate(-24.6)" fill="none" stroke="#000" stroke-linecap="round" stroke-linejoin="round"/><rect id="uuid-3c93be7c-25e8-41f3-bb0d-cee0e9c1e8b6" x="319.15" y="207.54" width="15.96" height="15.96" transform="translate(-14.3 407.58) rotate(-62.74)" fill="none" stroke="#000" stroke-linecap="round" stroke-linejoin="round"/></g><rect x="126" y="136" width="7" height="308" fill="none" stroke="#000" stroke-linecap="round" stroke-linejoin="round"/><rect x="156" y="136" width="7" height="308" fill="none" stroke="#000" stroke-linecap="round" stroke-linejoin="round"/><rect x="185" y="136" width="7" height="308" fill="none" stroke="#000" stroke-linecap="round" stroke-linejoin="round"/><rect x="218" y="136" width="7" height="308" fill="none" stroke="#000" stroke-linecap="round" stroke-linejoin="round"/><rect x="248" y="136" width="7" height="308" fill="none" stroke="#000" stroke-linecap="round" stroke-linejoin="round"/><rect x="277" y="136" width="7" height="308" fill="none" stroke="#000" stroke-linecap="round" stroke-linejoin="round"/><rect x="309" y="136" width="7" height="308" fill="none" stroke="#000" stroke-linecap="round" stroke-linejoin="round"/><rect x="339" y="136" width="7" height="308" fill="none" stroke="#000" stroke-linecap="round" stroke-linejoin="round"/><rect x="368" y="136" width="7" height="308" fill="none" stroke="#000" stroke-linecap="round" stroke-linejoin="round"/><text transform="translate(108.16 75.74)" fill="#333" font-family="ComicNeue-Regular, &apos;Comic Neue&apos;" font-size="24"><tspan x="0" y="0">But those who spoke out </tspan><tspan x="0" y="28.8">against it were imprisoned.</tspan></text></svg>