<?xml version="1.0" encoding="UTF-8"?><svg id="uuid-8bbb0cef-39cb-41f4-8fbe-d593390d128b" xmlns="http://www.w3.org/2000/svg" viewBox="0 0 500 500"><path d="M203.16,277.38l.76,22.15c.01,1.67,1.11,2.78,3.66,2.78s3.68-1.12,3.68-2.76l.83-23.89-8.92,1.73Z" fill="#9e5737"/><polygon points="210.94 193 202 193 201.92 231.66 211 230.09 210.94 193" fill="#9e5737"/><path d="M205.89,167.48c-1.35.2-54.31,8-54.31,8-2.17.42-3.94,2.4-3.96,4.94l.03,1.09,5.88,6.93s16.76,13.54,18.01,13.3,44.2-31.27,44.2-31.27c-.81-.98-1.64-1.43-5.18-2.34-1.67-.43-3.32-.84-4.67-.65Z" fill="#f0aa6b"/><path d="M153.81,213l-.56-28.85c.01-2.51-.65-3.56-1.99-4.31-1.46-.88-3.27.25-3.26,2.06l.1,27.9c0,.86-.1,3.2,1.54,3.77l3.36,1.04v26.02l9-1.74v-25.89h-8.19Z" fill="#9e5737"/><path d="M191,268.28v-8.48c-3.39.42-5.02-.11-5.02-.11l-36.98-17.54v4.66c0,2.03,0,3.34,2.97,4.78l.48.24,1.87,60.2c.01,1.67,1.28,2.78,3.81,2.78s3.8-1.12,3.8-2.76l1.46-43.23,20.19,9.97-.5-10.85c2.47,1.21,5.2.72,7.92.36Z" fill="#9e5737"/><path d="M183.71,266.5l2.06,64.31c.01,1.67,1.2,2.78,3.72,2.78s3.75-1.12,3.75-2.76l1.74-51.8,41.99-8.14,1.48,47.44c.01,1.67,1.24,2.78,3.76,2.78s3.71-1.12,3.71-2.76l2.1-61.34h.01l1.01-.19c1.71-.33,2.95-1.82,2.95-3.56v-5.43l-3.32,1.8-58.45,11.35c-1.3.29-2.23.06-2.23,1.39v5.55l-4.29-1.4Z" fill="#ba793e"/><path d="M250.46,249.93l-58.68,11.24c-2.67.5-5.43.14-7.87-1.08l-33.41-16.58c-1.57-.79-1.29-3.35,1.02-3.69l59.04-10.04c2.34-.45,4.81-.5,6.96.55l33.44,15.89c1.7.84,1.36,3.35-.5,3.72Z" fill="#f0aa6b"/><path d="M212.49,170.31l-56.68,8.41c-2.46.59-2.81,2.54-2.81,3.92l.11,29.58c0,1.8,1.77,2.35,3.54,2.01l56.93-9.14c1.35-.27,2.4-1.88,2.42-3.97l-.11-29.58c-.01-1.8-1.69-1.46-3.4-1.22Z" fill="#ba793e"/><path d="M203.16,277.38l.76,22.15c.01,1.67,1.11,2.78,3.66,2.78s3.68-1.12,3.68-2.76l.83-23.89-8.92,1.73Z" fill="none" stroke="#000" stroke-linecap="round" stroke-linejoin="round"/><polygon points="210.94 193 202 193 201.92 231.66 211 230.09 210.94 193" fill="none" stroke="#000" stroke-linecap="round" stroke-linejoin="round"/><path d="M205.89,167.48c-1.35.2-54.31,8-54.31,8-2.17.42-3.94,2.4-3.96,4.94l.03,1.09,5.88,6.93s16.76,13.54,18.01,13.3,44.2-31.27,44.2-31.27c-.81-.98-1.64-1.43-5.18-2.34-1.67-.43-3.32-.84-4.67-.65Z" fill="none" stroke="#000" stroke-linecap="round" stroke-linejoin="round"/><path d="M153.81,213l-.56-28.85c.01-2.51-.65-3.56-1.99-4.31-1.46-.88-3.27.25-3.26,2.06l.1,27.9c0,.86-.1,3.2,1.54,3.77l3.36,1.04v26.02l9-1.74v-25.89h-8.19Z" fill="none" stroke="#000" stroke-linecap="round" stroke-linejoin="round"/><path d="M191,268.28v-8.48c-3.39.42-5.02-.11-5.02-.11l-36.98-17.54v4.66c0,2.03,0,3.34,2.97,4.78l.48.24,1.87,60.2c.01,1.67,1.28,2.78,3.81,2.78s3.8-1.12,3.8-2.76l1.46-43.23,20.19,9.97-.5-10.85c2.47,1.21,5.2.72,7.92.36Z" fill="none" stroke="#000" stroke-linecap="round" stroke-linejoin="round"/><path d="M183.71,266.5l2.06,64.31c.01,1.67,1.2,2.78,3.72,2.78s3.75-1.12,3.75-2.76l1.74-51.8,41.99-8.14,1.48,47.44c.01,1.67,1.24,2.78,3.76,2.78s3.71-1.12,3.71-2.76l2.1-61.34h.01l1.01-.19c1.71-.33,2.95-1.82,2.95-3.56v-5.43l-3.32,1.8-58.45,11.35c-1.3.29-2.23.06-2.23,1.39v5.55l-4.29-1.4Z" fill="none" stroke="#000" stroke-linecap="round" stroke-linejoin="round"/><path d="M250.46,249.93l-58.68,11.24c-2.67.5-5.43.14-7.87-1.08l-33.41-16.58c-1.57-.79-1.29-3.35,1.02-3.69l59.04-10.04c2.34-.45,4.81-.5,6.96.55l33.44,15.89c1.7.84,1.36,3.35-.5,3.72Z" fill="none" stroke="#000" stroke-linecap="round" stroke-linejoin="round"/><path d="M212.49,170.31l-56.68,8.41c-2.46.59-2.81,2.54-2.81,3.92l.11,29.58c0,1.8,1.77,2.35,3.54,2.01l56.93-9.14c1.35-.27,2.4-1.88,2.42-3.97l-.11-29.58c-.01-1.8-1.69-1.46-3.4-1.22Z" fill="none" stroke="#000" stroke-linecap="round" stroke-linejoin="round"/><rect x="167" y="153" width="58" height="105" fill="#fff"/><polygon id="uuid-e2dd83f6-2d52-4009-8a95-be17ae7df076" points="249.35 268.57 230.28 277.43 245.69 310.58 248.8 317.26 277.4 303.96 274.3 297.28 264.76 301.72 249.35 268.57" fill="#404040"/><rect id="uuid-970c9b5a-837e-48e0-9152-48d7fbf8cf0a" x="216.41" y="242.07" width="21.03" height="41.52" transform="translate(-120.12 274.28) rotate(-51.08)" fill="#404040"/><polygon id="uuid-982c40d9-5587-4ca4-8a16-e648e21b0713" points="182 289 203 289 203 326 214 326 214 334 182 334 182 326.46 182 326.46 182 289" fill="#404040"/><rect id="uuid-89cf476b-9826-4958-a0f7-088a89ec099d" x="175.36" y="252.65" width="21.03" height="41.52" transform="translate(-76.25 71.93) rotate(-18.24)" fill="#404040"/><polygon id="uuid-abe36b05-50fd-49fa-94bf-75f74b71348f" points="205.83 211.7 205.86 211 205.62 211 198.13 170.88 203.59 162 187.09 162 192.56 170.88 185.06 211 184.82 211 184.85 211.7 184.82 212 184.96 212 195.34 225.34 205.72 212 205.86 212 205.83 211.7" fill="#c1272d"/><path id="uuid-babdeee5-4df1-4946-8d02-f7ea37d58c1d" d="M167,153v105h59v-105h-59ZM195.34,205.6l-20.85-51.6h41.69l-20.85,51.6Z" fill="#404040"/><path id="uuid-10dc15d3-f2da-4aa0-8d7a-88fa63d524aa" d="M224.33,139c2.11-5.64,3.3-11.99,3.3-18.72,0-23.23-14.13-42.07-31.55-42.07-17.43,0-31.55,18.83-31.55,42.07,0,6.73,1.19,13.08,3.3,18.72h56.51Z" fill="#eec6a2"/><path id="uuid-738883c5-508d-453b-a559-177ff7a0540e" d="M168.9,145c5.6,11.71,15.42,19.49,26.62,19.49s21.02-7.78,26.62-19.49h-53.23Z" fill="#eec6a2"/><ellipse id="uuid-3b39242d-9f79-4e9b-91ea-451cccc7f1fd" cx="205" cy="125.5" rx="3" ry="4.5" fill="#333"/><ellipse id="uuid-568b230e-12d1-47a3-a845-366db22ab812" cx="188" cy="125.5" rx="3" ry="4.5" fill="#333"/><path id="uuid-bc26f39a-103d-486f-b06f-e1631fdd0926" d="M169.98,85.22c10.3-10.93,30.92-10.22,41.14-9.86,12.79.44,27.74,3.13,28.07,6.99.29,3.42-11.1,5.45-11.13,10.68-.02,3.81,5.98,6.18,5.32,7.19-1.4,2.14-27.28-10.28-32.91-4.93-2.53,2.4.76,6.75-1.94,8.42-2.79,1.73-7.06-2.43-17.42-4.93-8.92-2.15-13.32-.89-15-3.49-2.24-3.46,3.2-9.35,3.87-10.07Z" fill="#534741"/><rect id="uuid-ecc84133-3c5e-408e-b9bc-c0c4ef84b712" x="225.62" y="177.26" width="33.65" height="15.78" transform="translate(-59.9 225.75) rotate(-45.02)" fill="#404040"/><rect id="uuid-05ea2920-2a3c-440d-a21c-05d98055782b" x="226.62" y="151.27" width="15.78" height="33.65" transform="translate(-35.83 268.94) rotate(-56.09)" fill="#404040"/><rect id="uuid-ebda4d5b-e229-45f3-9932-6101a9457f42" x="217.17" y="193.73" width="16.83" height="16.83" transform="translate(-75.31 236.95) rotate(-48.46)" fill="#eec6a2"/><rect id="uuid-83a32864-0d6c-4087-a57e-137bf91b732f" x="140.65" y="160.16" width="33.65" height="15.78" transform="translate(-44.31 279.04) rotate(-75.67)" fill="#404040"/><rect id="uuid-30eb66ce-914a-4ac4-be59-01fa731920b6" x="172.8" y="194.1" width="16.83" height="16.83" transform="translate(-76.03 290.1) rotate(-66.98)" fill="#eec6a2"/><rect id="uuid-e7f6ecda-1cf5-4f2b-b464-9aab58a6f784" x="151.36" y="176.33" width="15.78" height="33.65" transform="translate(-80.8 264.19) rotate(-66.98)" fill="#404040"/><rect x="167" y="153" width="58" height="105" fill="none" stroke="#000" stroke-linecap="round" stroke-linejoin="round"/><polygon id="uuid-d99d6b97-7fc8-4b87-be53-61eea54991db" points="249.35 268.57 230.28 277.43 245.69 310.58 248.8 317.26 277.4 303.96 274.3 297.28 264.76 301.72 249.35 268.57" fill="none" stroke="#000" stroke-linecap="round" stroke-linejoin="round"/><rect id="uuid-dfc7e01b-1ed3-448b-a1b1-6ae673c62fae" x="216.41" y="242.07" width="21.03" height="41.52" transform="translate(-120.12 274.28) rotate(-51.08)" fill="none" stroke="#000" stroke-linecap="round" stroke-linejoin="round"/><polygon id="uuid-648706a4-cb2d-41dc-8a96-d0ce69db27e9" points="182 289 203 289 203 326 214 326 214 334 182 334 182 326.46 182 326.46 182 289" fill="none" stroke="#000" stroke-linecap="round" stroke-linejoin="round"/><rect id="uuid-2674bdc0-8dd9-4e9c-b1d3-3412df5d14ce" x="175.36" y="252.65" width="21.03" height="41.52" transform="translate(-76.25 71.93) rotate(-18.24)" fill="none" stroke="#000" stroke-linecap="round" stroke-linejoin="round"/><polygon id="uuid-03d6f865-44b7-40bc-b0b2-aeb4c87664ab" points="205.83 211.7 205.86 211 205.62 211 198.13 170.88 203.59 162 187.09 162 192.56 170.88 185.06 211 184.82 211 184.85 211.7 184.82 212 184.96 212 195.34 225.34 205.72 212 205.86 212 205.83 211.7" fill="none" stroke="#000" stroke-linecap="round" stroke-linejoin="round"/><path id="uuid-03177aa8-5dba-4f87-9cd3-6e7adbdc28c2" d="M167,153v105h59v-105h-59ZM195.34,205.6l-20.85-51.6h41.69l-20.85,51.6Z" fill="none" stroke="#000" stroke-linecap="round" stroke-linejoin="round"/><path id="uuid-1fa6c09f-43cc-43b2-bb24-3f1d5029ea01" d="M224.33,139c2.11-5.64,3.3-11.99,3.3-18.72,0-23.23-14.13-42.07-31.55-42.07-17.43,0-31.55,18.83-31.55,42.07,0,6.73,1.19,13.08,3.3,18.72h56.51Z" fill="none" stroke="#000" stroke-linecap="round" stroke-linejoin="round"/><path id="uuid-fbad732d-fd69-4ece-89d4-a9eeaef716f1" d="M168.9,145c5.6,11.71,15.42,19.49,26.62,19.49s21.02-7.78,26.62-19.49h-53.23Z" fill="none" stroke="#000" stroke-linecap="round" stroke-linejoin="round"/><ellipse id="uuid-5d739543-0671-46da-8c56-4ee3f815222f" cx="205" cy="125.5" rx="3" ry="4.5" fill="none" stroke="#000" stroke-linecap="round" stroke-linejoin="round"/><ellipse id="uuid-566e2a18-4d67-453a-9757-78b9381f68bc" cx="188" cy="125.5" rx="3" ry="4.5" fill="none" stroke="#000" stroke-linecap="round" stroke-linejoin="round"/><path id="uuid-e8fcd0cb-20ac-471f-9abe-f278caeedd70" d="M169.98,85.22c10.3-10.93,30.92-10.22,41.14-9.86,12.79.44,27.74,3.13,28.07,6.99.29,3.42-11.1,5.45-11.13,10.68-.02,3.81,5.98,6.18,5.32,7.19-1.4,2.14-27.28-10.28-32.91-4.93-2.53,2.4.76,6.75-1.94,8.42-2.79,1.73-7.06-2.43-17.42-4.93-8.92-2.15-13.32-.89-15-3.49-2.24-3.46,3.2-9.35,3.87-10.07Z" fill="none" stroke="#000" stroke-linecap="round" stroke-linejoin="round"/><rect id="uuid-7534d9c0-4b81-4466-84a2-fafb27ea4247" x="225.62" y="177.26" width="33.65" height="15.78" transform="translate(-59.9 225.75) rotate(-45.02)" fill="none" stroke="#000" stroke-linecap="round" stroke-linejoin="round"/><rect id="uuid-4d87dd80-8037-405d-88f2-bdfecae35c36" x="226.62" y="151.27" width="15.78" height="33.65" transform="translate(-35.83 268.94) rotate(-56.09)" fill="none" stroke="#000" stroke-linecap="round" stroke-linejoin="round"/><rect id="uuid-f36522f0-8eb7-4eb6-b7a8-0b175c33ad27" x="217.17" y="193.73" width="16.83" height="16.83" transform="translate(-75.31 236.95) rotate(-48.46)" fill="none" stroke="#000" stroke-linecap="round" stroke-linejoin="round"/><rect id="uuid-d8023e21-3471-4d84-83e1-e8409f878cc1" x="140.65" y="160.16" width="33.65" height="15.78" transform="translate(-44.31 279.04) rotate(-75.67)" fill="none" stroke="#000" stroke-linecap="round" stroke-linejoin="round"/><rect id="uuid-ffbabb30-921a-4442-a614-b8dda9c56e71" x="172.8" y="194.1" width="16.83" height="16.83" transform="translate(-76.03 290.1) rotate(-66.98)" fill="none" stroke="#000" stroke-linecap="round" stroke-linejoin="round"/><rect id="uuid-9649eb86-3b96-4274-9b4c-9d9151e2fba4" x="151.36" y="176.33" width="15.78" height="33.65" transform="translate(-80.8 264.19) rotate(-66.98)" fill="none" stroke="#000" stroke-linecap="round" stroke-linejoin="round"/><polygon points="172.06 208.5 233.61 207.47 244.06 232.5 162.06 233.5 172.06 208.5" fill="none" stroke="#000" stroke-linecap="round" stroke-linejoin="round"/><rect x="205.34" y="193.82" width="23.47" height="5" transform="translate(-19.49 368.64) rotate(-78.2)" fill="#f7931e"/><polygon points="213.21 207.5 217.12 208.31 214.14 212.83 213.21 207.5" fill="#534741"/><rect x="205.34" y="193.82" width="23.47" height="5" transform="translate(-19.49 368.64) rotate(-78.2)" fill="none" stroke="#000" stroke-linecap="round" stroke-linejoin="round"/><polygon points="213.21 207.5 217.12 208.31 214.14 212.83 213.21 207.5" fill="none" stroke="#000" stroke-linecap="round" stroke-linejoin="round"/><text transform="translate(51.83 415.95)" fill="#333" font-family="ComicNeue-Regular, &apos;Comic Neue&apos;" font-size="24"><tspan x="0" y="0">The prime minister did not stop there.</tspan></text><rect x="135" y="216" width="159" height="80" fill="#6d4c41"/><path d="M135,349h-13v-133h13v133ZM294,216v133h84v-133h-84Z" fill="#6d4c41"/><rect x="113" y="207" width="275" height="9" fill="#8d6e63"/><rect x="135" y="216" width="159" height="80" fill="none" stroke="#000" stroke-linecap="round" stroke-linejoin="round"/><path d="M135,349h-13v-133h13v133ZM294,216v133h84v-133h-84Z" fill="none" stroke="#000" stroke-linecap="round" stroke-linejoin="round"/><rect x="113" y="207" width="275" height="9" fill="none" stroke="#000" stroke-linecap="round" stroke-linejoin="round"/></svg>