<?xml version="1.0" encoding="UTF-8"?><svg id="uuid-1e7267d2-00be-4a17-ada1-18d429d13546" xmlns="http://www.w3.org/2000/svg" viewBox="0 0 500 500"><path d="M203.155919,277.379496l.757466,22.148841c.01403,1.669232,1.108145,2.777377,3.661082,2.777377s3.675112-1.122175,3.675112-2.763346l.827596-23.888202-8.921256,1.725331Z" fill="#9e5737"/><polygon points="210.943749 193 202 193 201.915618 231.658774 211 230.087732 210.943749 193" fill="#9e5737"/><path d="M205.891216,167.476925c-1.346603.19638-54.313052,7.995465-54.313052,7.995465-2.174204.420814-3.941623,2.398639-3.95565,4.937551l.028055,1.094116,5.877366,6.929402s16.762422,13.536181,18.010836,13.297719,44.199486-31.266474,44.199486-31.266474c-.813576-.981899-1.641172-1.430767-5.176015-2.342531-1.669221-.434841-3.324423-.841628-4.671026-.645248Z" fill="#f0aa6b"/><path d="M153.80729,213l-.559896-28.853807c.013019-2.510856-.651041-3.562891-1.992187-4.306329-1.458334-.883709-3.268228.252489-3.255207,2.061989l.104167,27.899963c0,.855656-.104167,3.198184,1.536458,3.773296l3.359376,1.03801v26.020326l9-1.739367v-25.894082h-8.19271Z" fill="#9e5737"/><path d="M191,268.278611v-8.484145c-3.393654.420705-5.02037-.11219-5.02037-.11219l-36.97963-17.543226v4.655759c0,2.03339,0,3.337564,2.972956,4.78197l.476795.238395,1.865111,60.20234c.014021,1.668785,1.276127,2.776633,3.814359,2.776633,2.552253,0,3.800333-1.121874,3.800333-2.762606l1.458432-43.234061,20.193659,9.970619-.504842-10.854088c2.468106,1.206011,5.202665.715184,7.923197.3646Z" fill="#9e5737"/><path d="M183.706384,266.496373l2.063167,64.314392c.013938,1.669232,1.198868,2.777377,3.722063,2.777377,2.537138,0,3.749944-1.122175,3.749944-2.763346l1.74254-51.802194,41.98824-8.13574,1.47767,47.439755c.013943,1.669232,1.240688,2.777377,3.763882,2.777377,2.537138,0,3.70813-1.122175,3.70813-2.763346l2.104991-61.340647h.013943l1.009886-.192249c1.711116-.32574,2.94916-1.8217,2.94916-3.563546v-5.431975l-3.317792,1.795476-58.451759,11.347954c-1.29645.294568-2.230449.05611-2.230449,1.388683v5.554742l-4.293616-1.402713Z" fill="#ba793e"/><path d="M250.455406,249.928402l-58.67549,11.235735c-2.665157.504978-5.428498.140269-7.869221-1.080084l-33.412622-16.580079c-1.57104-.785521-1.290496-3.352483,1.02398-3.689137l59.04019-10.043425c2.342528-.448868,4.811306-.504978,6.957456.547057l33.440674,15.892742c1.697292.841626,1.360644,3.352483-.504967,3.717192Z" fill="#f0aa6b"/><path d="M212.489067,170.312711l-56.680329,8.41217c-2.457646.589835-2.808738,2.541907-2.808738,3.918188l.112352,29.576011c0,1.79759,1.769502,2.345293,3.53901,2.008248l56.933121-9.142444c1.348193-.266831,2.40147-1.881855,2.415516-3.974364l-.112363-29.576007c-.014047-1.797592-1.685238-1.460544-3.39857-1.221801Z" fill="#ba793e"/><path d="M203.155919,277.379496l.757466,22.148841c.01403,1.669232,1.108145,2.777377,3.661082,2.777377s3.675112-1.122175,3.675112-2.763346l.827596-23.888202-8.921256,1.725331Z" fill="none" stroke="#000" stroke-linecap="round" stroke-linejoin="round"/><polygon points="210.943749 193 202 193 201.915618 231.658774 211 230.087732 210.943749 193" fill="none" stroke="#000" stroke-linecap="round" stroke-linejoin="round"/><path d="M205.891216,167.476925c-1.346603.19638-54.313052,7.995465-54.313052,7.995465-2.174204.420814-3.941623,2.398639-3.95565,4.937551l.028055,1.094116,5.877366,6.929402s16.762422,13.536181,18.010836,13.297719,44.199486-31.266474,44.199486-31.266474c-.813576-.981899-1.641172-1.430767-5.176015-2.342531-1.669221-.434841-3.324423-.841628-4.671026-.645248Z" fill="none" stroke="#000" stroke-linecap="round" stroke-linejoin="round"/><path d="M153.80729,213l-.559896-28.853807c.013019-2.510856-.651041-3.562891-1.992187-4.306329-1.458334-.883709-3.268228.252489-3.255207,2.061989l.104167,27.899963c0,.855656-.104167,3.198184,1.536458,3.773296l3.359376,1.03801v26.020326l9-1.739367v-25.894082h-8.19271Z" fill="none" stroke="#000" stroke-linecap="round" stroke-linejoin="round"/><path d="M191,268.278611v-8.484145c-3.393654.420705-5.02037-.11219-5.02037-.11219l-36.97963-17.543226v4.655759c0,2.03339,0,3.337564,2.972956,4.78197l.476795.238395,1.865111,60.20234c.014021,1.668785,1.276127,2.776633,3.814359,2.776633,2.552253,0,3.800333-1.121874,3.800333-2.762606l1.458432-43.234061,20.193659,9.970619-.504842-10.854088c2.468106,1.206011,5.202665.715184,7.923197.3646Z" fill="none" stroke="#000" stroke-linecap="round" stroke-linejoin="round"/><path d="M183.706384,266.496373l2.063167,64.314392c.013938,1.669232,1.198868,2.777377,3.722063,2.777377,2.537138,0,3.749944-1.122175,3.749944-2.763346l1.74254-51.802194,41.98824-8.13574,1.47767,47.439755c.013943,1.669232,1.240688,2.777377,3.763882,2.777377,2.537138,0,3.70813-1.122175,3.70813-2.763346l2.104991-61.340647h.013943l1.009886-.192249c1.711116-.32574,2.94916-1.8217,2.94916-3.563546v-5.431975l-3.317792,1.795476-58.451759,11.347954c-1.29645.294568-2.230449.05611-2.230449,1.388683v5.554742l-4.293616-1.402713Z" fill="none" stroke="#000" stroke-linecap="round" stroke-linejoin="round"/><path d="M250.455406,249.928402l-58.67549,11.235735c-2.665157.504978-5.428498.140269-7.869221-1.080084l-33.412622-16.580079c-1.57104-.785521-1.290496-3.352483,1.02398-3.689137l59.04019-10.043425c2.342528-.448868,4.811306-.504978,6.957456.547057l33.440674,15.892742c1.697292.841626,1.360644,3.352483-.504967,3.717192Z" fill="none" stroke="#000" stroke-linecap="round" stroke-linejoin="round"/><path d="M212.489067,170.312711l-56.680329,8.41217c-2.457646.589835-2.808738,2.541907-2.808738,3.918188l.112352,29.576011c0,1.79759,1.769502,2.345293,3.53901,2.008248l56.933121-9.142444c1.348193-.266831,2.40147-1.881855,2.415516-3.974364l-.112363-29.576007c-.014047-1.797592-1.685238-1.460544-3.39857-1.221801Z" fill="none" stroke="#000" stroke-linecap="round" stroke-linejoin="round"/><rect x="167" y="153" width="57.999999" height="105" fill="#fff"/><polygon id="uuid-14c44675-126b-4946-83da-cc5cde1b008c" points="249.351431 268.565854 230.278348 277.434039 245.691336 310.583232 248.795205 317.258821 277.404872 303.956523 274.301003 297.280934 264.764418 301.715047 249.351431 268.565854" fill="#404040"/><rect id="uuid-b0e79a26-a2a0-4978-a599-232ac4f5307c" x="216.412213" y="242.067684" width="21.033969" height="41.520841" transform="translate(-120.121738 274.278932) rotate(-51.082017)" fill="#404040"/><polygon id="uuid-c1a755de-c7ab-4350-86f2-05612ddf6277" points="182.000033 289 203 289 203 326 214 326 214 334 182 334 182 326.45692 182.000033 326.45692 182.000033 289" fill="#404040"/><rect id="uuid-d7320e30-a27d-4464-8726-d70c1586dda7" x="175.359421" y="252.65246" width="21.033953" height="41.520841" transform="translate(-76.246727 71.928127) rotate(-18.242451)" fill="#404040"/><polygon id="uuid-55e57819-1d66-45b2-af8b-f2571a991279" points="205.831195 211.701859 205.857545 211 205.6242 211 198.125955 170.884272 203.593184 162 187.087921 162 192.555151 170.884272 185.056906 211 184.82356 211 184.849911 211.701859 184.82356 212 184.958425 212 195.340553 225.339671 205.722681 212 205.857545 212 205.831195 211.701859" fill="#c1272d"/><path id="uuid-bf943fcc-18c8-4786-9673-77a1e41e862d" d="M167,153v105h59v-105h-59ZM195.340553,205.598122l-20.845856-51.598122h41.691712l-20.845856,51.598122Z" fill="#404040"/><path id="uuid-c151a68b-b334-4f7a-8960-58e7fe057e65" d="M224.329576,139.000012c2.106577-5.640045,3.297604-11.994724,3.297605-18.723314.000005-23.233477-14.125845-42.067973-31.550969-42.067977-17.425124-.000004-31.550982,18.834486-31.550987,42.067963-.000001,6.72859,1.191022,13.08327,3.297597,18.723316l56.506753.000012Z" fill="#eec6a2"/><path id="uuid-3586eb3a-6335-48b1-bb84-dcf499567162" d="M168.89565,145c5.601114,11.714982,15.424687,19.491869,26.616708,19.491869s21.015594-7.776887,26.616708-19.491869h-53.233416Z" fill="#eec6a2"/><ellipse id="uuid-7e47f346-fc00-41d6-926c-0df69b95520f" cx="205" cy="125.5" rx="3" ry="4.5" fill="#333"/><ellipse id="uuid-381c6c09-4fa4-44d0-ac3f-a18c4019de62" cx="188" cy="125.5" rx="3" ry="4.5" fill="#333"/><path id="uuid-9f6dcd6e-23b1-44d8-8ffd-820f34899c6c" d="M169.983143,85.219641c10.297757-10.933008,30.921416-10.216486,41.135843-9.861598,12.789553.444346,27.741732,3.131415,28.069161,6.985311.290151,3.415145-11.099447,5.447022-11.130877,10.683405-.022863,3.808615,5.981775,6.182252,5.32346,7.190756-1.39644,2.139294-27.282267-10.278018-32.908672-4.930811-2.527836,2.402389.761873,6.74818-1.935806,8.423456-2.787032,1.730776-7.062011-2.43349-17.422238-4.930807-8.91632-2.149266-13.321149-.889894-15.002482-3.492656-2.236826-3.462658,3.196135-9.349925,3.871611-10.067056Z" fill="#534741"/><rect id="uuid-fd4c8441-011f-4703-8e39-7842f78ce440" x="225.620756" y="177.259956" width="33.654371" height="15.77546" transform="translate(-59.895912 225.753895) rotate(-45.01683)" fill="#404040"/><rect id="uuid-c4081840-559f-41ad-b5cd-e6c1f0dbf1bc" x="226.619011" y="151.269856" width="15.77546" height="33.654371" transform="translate(-35.827829 268.939726) rotate(-56.090359)" fill="#404040"/><rect id="uuid-5ca75f1f-1a86-4026-9d70-b449fb839653" x="217.172068" y="193.73263" width="16.827188" height="16.827188" transform="translate(-75.314122 236.95005) rotate(-48.46121)" fill="#eec6a2"/><rect id="uuid-1f1907eb-65f5-4fd7-85a1-95e5dc9e8581" x="140.653332" y="160.157612" width="33.654371" height="15.77546" transform="translate(-44.308939 279.042484) rotate(-75.672476)" fill="#404040"/><rect id="uuid-de50f0c5-d924-449a-ad2f-43e8b6d8d911" x="172.798359" y="194.096454" width="16.827188" height="16.827188" transform="translate(-76.033587 290.104702) rotate(-66.981101)" fill="#eec6a2"/><rect id="uuid-bf42ee06-e648-4342-82ad-2300ebc705f4" x="151.356205" y="176.327597" width="15.77546" height="33.654371" transform="translate(-80.800986 264.188835) rotate(-66.981101)" fill="#404040"/><rect x="167" y="153" width="57.999999" height="105" fill="none" stroke="#000" stroke-linecap="round" stroke-linejoin="round"/><polygon id="uuid-12a8dd99-f51c-401a-a27c-35edd3c0fc5c" points="249.351431 268.565854 230.278348 277.434039 245.691336 310.583232 248.795205 317.258821 277.404872 303.956523 274.301003 297.280934 264.764418 301.715047 249.351431 268.565854" fill="none" stroke="#000" stroke-linecap="round" stroke-linejoin="round"/><rect id="uuid-25bdbd8c-ae2b-4134-b97f-be60688a5486" x="216.412213" y="242.067684" width="21.033969" height="41.520841" transform="translate(-120.121738 274.278932) rotate(-51.082017)" fill="none" stroke="#000" stroke-linecap="round" stroke-linejoin="round"/><polygon id="uuid-5128bfca-b5b3-432b-a0a7-1de1dccd0987" points="182.000033 289 203 289 203 326 214 326 214 334 182 334 182 326.45692 182.000033 326.45692 182.000033 289" fill="none" stroke="#000" stroke-linecap="round" stroke-linejoin="round"/><rect id="uuid-4926d680-10e1-4824-99bf-058cfb6eef0d" x="175.359421" y="252.65246" width="21.033953" height="41.520841" transform="translate(-76.246727 71.928127) rotate(-18.242451)" fill="none" stroke="#000" stroke-linecap="round" stroke-linejoin="round"/><polygon id="uuid-b6839982-23b0-4a4a-9c5d-e5d6bad77dec" points="205.831195 211.701859 205.857545 211 205.6242 211 198.125955 170.884272 203.593184 162 187.087921 162 192.555151 170.884272 185.056906 211 184.82356 211 184.849911 211.701859 184.82356 212 184.958425 212 195.340553 225.339671 205.722681 212 205.857545 212 205.831195 211.701859" fill="none" stroke="#000" stroke-linecap="round" stroke-linejoin="round"/><path id="uuid-f5c63e78-8d3f-4851-8bc7-e7b33aabc502" d="M167,153v105h59v-105h-59ZM195.340553,205.598122l-20.845856-51.598122h41.691712l-20.845856,51.598122Z" fill="none" stroke="#000" stroke-linecap="round" stroke-linejoin="round"/><path id="uuid-204a2525-e69c-40ff-ad79-9a49c23a50cf" d="M224.329576,139.000012c2.106577-5.640045,3.297604-11.994724,3.297605-18.723314.000005-23.233477-14.125845-42.067973-31.550969-42.067977-17.425124-.000004-31.550982,18.834486-31.550987,42.067963-.000001,6.72859,1.191022,13.08327,3.297597,18.723316l56.506753.000012Z" fill="none" stroke="#000" stroke-linecap="round" stroke-linejoin="round"/><path id="uuid-ed9e5ddd-358a-4c6d-bed2-5789f131b497" d="M168.89565,145c5.601114,11.714982,15.424687,19.491869,26.616708,19.491869s21.015594-7.776887,26.616708-19.491869h-53.233416Z" fill="none" stroke="#000" stroke-linecap="round" stroke-linejoin="round"/><ellipse id="uuid-f75c51eb-29bc-4fb6-aaa5-44484da46c0b" cx="205" cy="125.5" rx="3" ry="4.5" fill="none" stroke="#000" stroke-linecap="round" stroke-linejoin="round"/><ellipse id="uuid-b1a49c27-8427-4184-9f88-afb6fdda3ee8" cx="188" cy="125.5" rx="3" ry="4.5" fill="none" stroke="#000" stroke-linecap="round" stroke-linejoin="round"/><path id="uuid-339317b0-7157-41a9-ae3e-280d5a9faf31" d="M169.983143,85.219641c10.297757-10.933008,30.921416-10.216486,41.135843-9.861598,12.789553.444346,27.741732,3.131415,28.069161,6.985311.290151,3.415145-11.099447,5.447022-11.130877,10.683405-.022863,3.808615,5.981775,6.182252,5.32346,7.190756-1.39644,2.139294-27.282267-10.278018-32.908672-4.930811-2.527836,2.402389.761873,6.74818-1.935806,8.423456-2.787032,1.730776-7.062011-2.43349-17.422238-4.930807-8.91632-2.149266-13.321149-.889894-15.002482-3.492656-2.236826-3.462658,3.196135-9.349925,3.871611-10.067056Z" fill="none" stroke="#000" stroke-linecap="round" stroke-linejoin="round"/><rect id="uuid-79037227-8e8e-4956-bebb-7bba7e3d08f3" x="225.620756" y="177.259956" width="33.654371" height="15.77546" transform="translate(-59.895912 225.753895) rotate(-45.01683)" fill="none" stroke="#000" stroke-linecap="round" stroke-linejoin="round"/><rect id="uuid-07128786-8f62-43a1-b41a-c4ae0b82614e" x="226.619011" y="151.269856" width="15.77546" height="33.654371" transform="translate(-35.827829 268.939726) rotate(-56.090359)" fill="none" stroke="#000" stroke-linecap="round" stroke-linejoin="round"/><rect id="uuid-d6ab48d8-22e6-48de-8ca6-e64573297c1a" x="217.172068" y="193.73263" width="16.827188" height="16.827188" transform="translate(-75.314122 236.95005) rotate(-48.46121)" fill="none" stroke="#000" stroke-linecap="round" stroke-linejoin="round"/><rect id="uuid-edecd594-a7b2-4acd-ad57-b3192c5a20fb" x="140.653332" y="160.157612" width="33.654371" height="15.77546" transform="translate(-44.308939 279.042484) rotate(-75.672476)" fill="none" stroke="#000" stroke-linecap="round" stroke-linejoin="round"/><rect id="uuid-5e10cc06-1df6-40a3-a44b-f531c133ddab" x="172.798359" y="194.096454" width="16.827188" height="16.827188" transform="translate(-76.033587 290.104702) rotate(-66.981101)" fill="none" stroke="#000" stroke-linecap="round" stroke-linejoin="round"/><rect id="uuid-f848368b-ac99-47a7-8835-95358dfeaca9" x="151.356205" y="176.327597" width="15.77546" height="33.654371" transform="translate(-80.800986 264.188835) rotate(-66.981101)" fill="none" stroke="#000" stroke-linecap="round" stroke-linejoin="round"/><polygon points="172.062502 208.5 233.613652 207.468758 244.0625 232.5 162.062502 233.5 172.062502 208.5" fill="none" stroke="#000" stroke-linecap="round" stroke-linejoin="round"/><rect x="205.341635" y="193.815819" width="23.470588" height="5" transform="translate(-19.49345 368.643267) rotate(-78.19606)" fill="#f7931e"/><polygon points="213.208038 207.496105 217.123452 208.314359 214.136912 212.828288 213.208038 207.496105" fill="#534741"/><rect x="205.341635" y="193.815819" width="23.470588" height="5" transform="translate(-19.49345 368.643267) rotate(-78.19606)" fill="none" stroke="#000" stroke-linecap="round" stroke-linejoin="round"/><polygon points="213.208038 207.496105 217.123452 208.314359 214.136912 212.828288 213.208038 207.496105" fill="none" stroke="#000" stroke-linecap="round" stroke-linejoin="round"/><text transform="translate(51.829651 415.946663)" fill="#333" font-family="ComicNeue-Regular, &apos;Comic Neue&apos;" font-size="24"><tspan x="0" y="0">The prime minister did not stop there.</tspan></text><rect x="135" y="216" width="159" height="80" fill="#6d4c41"/><path d="M135,349h-13v-133h13v133ZM294,216v133h84v-133h-84Z" fill="#6d4c41"/><rect x="113" y="207" width="275" height="9" fill="#8d6e63"/><rect x="135" y="216" width="159" height="80" fill="none" stroke="#000" stroke-linecap="round" stroke-linejoin="round"/><path d="M135,349h-13v-133h13v133ZM294,216v133h84v-133h-84Z" fill="none" stroke="#000" stroke-linecap="round" stroke-linejoin="round"/><rect x="113" y="207" width="275" height="9" fill="none" stroke="#000" stroke-linecap="round" stroke-linejoin="round"/></svg>