<?xml version="1.0" encoding="UTF-8"?><svg id="uuid-442bd64a-035b-410d-ae8d-eec058af2309" xmlns="http://www.w3.org/2000/svg" viewBox="0 0 500 500"><text transform="translate(108.640747 86.686127)" fill="#333" font-family="ComicNeue-Regular, &apos;Comic Neue&apos;" font-size="24"><tspan x="0" y="0">He allowed soldiers to vote.</tspan></text><g id="uuid-6f74e5b4-6691-4006-8d11-0ad6eaedfd1a"><polygon id="uuid-467fc0ef-7d2f-419e-b948-b5ab7dfb7a0f" points="228 336 210 336 210 369.29504 210 376 237 376 237 369 228 369 228 336" fill="#5f5f5f"/><rect id="uuid-84c9c016-ee73-4ebd-a61d-9a3be822f1c1" x="207" y="291" width="23.000018" height="46" fill="#727272"/><polygon id="uuid-1597b6e1-aeec-4cde-92a4-b708d5332c46" points="198.999973 336 181 336 181 369 172 369 172 376 199 376 199 369.29504 198.999973 369.29504 198.999973 336" fill="#5f5f5f"/><rect id="uuid-7de278b7-286d-43b9-b88a-360af2401610" x="178.999982" y="291" width="23.000035" height="46" fill="#727272"/><path id="uuid-99ef131f-0334-41c2-85fe-ba812f165e0f" d="M178,199v92h52v-92h-52Z" fill="#727272"/><rect id="uuid-f3760263-e161-4b6e-9aaf-b27209b0ab45" x="178" y="252" width="52" height="16" fill="#acacac"/><rect id="uuid-49fd61be-4ffd-4db3-9378-82fa4582602a" x="215" y="197" width="7" height="55" fill="#acacac"/><rect id="uuid-709c3ea5-ac44-4432-adb3-70c2015214e4" x="187" y="197" width="7" height="55" fill="#acacac"/><path id="uuid-a80b784d-78dd-49f1-81d5-c95a68dce4f8" d="M228.977064,188c1.85356-4.962632,2.901534-10.554066,2.901534-16.4745,0-20.442957-12.42923-37.015282-27.761461-37.015282s-27.761461,16.572325-27.761461,37.015282c0,5.920434,1.047974,11.511868,2.901534,16.4745h49.719856Z" fill="#ccc"/><path id="uuid-422a5040-e121-4d01-8585-a6c8bc8a870a" d="M180.6973,192c4.928377,10.307922,13.572063,17.150745,23.419836,17.150745s18.491459-6.842823,23.419836-17.150745h-46.839672Z" fill="#ccc"/><ellipse id="uuid-433e12ea-141c-46cb-9ebd-bd24d794e6f1" cx="213.5" cy="179" rx="2.5" ry="4" fill="#333"/><ellipse id="uuid-ee8770b9-4264-4b50-a3f3-a2be58be7c2d" cx="198.5" cy="179" rx="2.5" ry="4" fill="#333"/><rect id="uuid-b75f3456-57a5-4940-9349-56b0baaef7f1" x="224.888347" y="191.400633" width="29.612221" height="13.880705" transform="translate(-62.998247 126.440318) rotate(-26.244664)" fill="#727272"/><rect id="uuid-0e7028a1-6ca4-4647-b346-b4bf356e4d9e" x="156.971866" y="205.599747" width="29.612221" height="13.880705" transform="translate(-48.053688 374.882349) rotate(-87.499645)" fill="#727272"/><rect id="uuid-e438afa5-710c-418c-a15a-dca6fc1d4297" x="155.680041" y="235.183781" width="29.612221" height="13.880705" transform="translate(-78.845026 401.885167) rotate(-87.499645)" fill="#727272"/><rect id="uuid-189fe7d9-0f06-422c-8c53-4538093b222a" x="162" y="256" width="15" height="15" fill="#ccc"/><circle id="uuid-9d650774-edd1-4b06-8b8b-65e0861948d8" cx="204" cy="242" r="2" fill="#333"/><circle id="uuid-9263c279-106f-444f-8cf2-5d41a42010d1" cx="204" cy="234" r="2" fill="#333"/><circle id="uuid-71ac6bce-1b13-4156-8de9-fcb5108f562e" cx="204" cy="227" r="2" fill="#333"/><circle id="uuid-f91d59c1-0c51-4aec-944f-d97264201213" cx="204" cy="217" r="2" fill="#333"/><path d="M234.386602,152.530947c-.591753-13.016676-12.96155-24.149058-29.010509-25.487377-16.048959-1.338319-30.091741,7.591524-32.831244,20.330407-5.428332.319668-8.722553,1.021988-8.810629,2.078185-.206886,2.480951,17.30951,5.966818,39.123959,7.78592,21.814449,1.819102,39.666271,1.282583,39.873157-1.198368.088076-1.056197-3.044322-2.294431-8.344734-3.508767Z" fill="#6a6a6a"/></g><path d="M257.83635,202.588565c-.821912-1.184321-1.185249-2.19157-1.393336-2.792546-.065884-.189338-.284408-.189338-.349639,0-.208087.600976-.571425,1.608224-1.393336,2.792546-.514673.742022-1.022171,1.828224-1.022171,2.89833,0,1.825925,1.121323,3.062372,2.590327,3.062372s2.590327-1.237214,2.590327-3.062372c0-1.112266-.507498-2.156309-1.022171-2.898331Z" fill="#c1272d"/><path d="M256.984432,205.789617c.414217-.925994.355509-1.832057.68297-1.668782.444876.223066.937371,1.36906.752767,2.407737-.131767.740489-.557074,1.188921-1.099144.975053-.437701-.172474-.709715-.88-.336593-1.714008Z" fill="#e36250"/><path d="M248.672452,199.603086l-4.707218-9.547536c-.57305-1.162303-.095366-2.569085,1.066938-3.142135l5.248596-2.587713c1.162303-.57305,2.569085-.095366,3.142135,1.066938l3.720685,7.546575c1.117897,2.267403.186038,5.011731-2.081365,6.129629l-3.247635,1.60118c-1.162303.57305-2.569085.095366-3.142135-1.066938Z" fill="#c1272d"/><ellipse cx="245.5" cy="193" rx="9.148582" ry="4.951479" transform="translate(-59.913604 127.871046) rotate(-26.134765)" fill="#c1272d"/><ellipse cx="247.5" cy="196.5" rx="2.367573" ry="7.929796" transform="translate(-21.545463 362.280093) rotate(-70.087938)" fill="#c1272d"/><g id="uuid-3f89cc0b-e4fc-404e-8524-d65bffd2b6f3"><polygon id="uuid-bc66a4bb-5d3d-45f8-aaa1-703776bbab9c" points="228 336 210 336 210 369.29504 210 376 237 376 237 369 228 369 228 336" fill="none" stroke="#000" stroke-linecap="round" stroke-linejoin="round"/><rect id="uuid-3aa39dff-7f15-4579-82c2-100c0605b4f7" x="207" y="291" width="23.000018" height="46" fill="none" stroke="#000" stroke-linecap="round" stroke-linejoin="round"/><polygon id="uuid-3d4282b7-88dd-4b23-b654-9c3aa4a86f1a" points="198.999973 336 181 336 181 369 172 369 172 376 199 376 199 369.29504 198.999973 369.29504 198.999973 336" fill="none" stroke="#000" stroke-linecap="round" stroke-linejoin="round"/><rect id="uuid-98600349-46b9-4670-87b6-af59982e4cf9" x="178.999982" y="291" width="23.000035" height="46" fill="none" stroke="#000" stroke-linecap="round" stroke-linejoin="round"/><path id="uuid-fa17c839-fe6d-418c-8adb-65cdc5ec60de" d="M178,199v92h52v-92h-52Z" fill="none" stroke="#000" stroke-linecap="round" stroke-linejoin="round"/><rect id="uuid-07061a87-19e0-4af7-89b3-8e60ab409471" x="178" y="252" width="52" height="16" fill="none" stroke="#000" stroke-linecap="round" stroke-linejoin="round"/><rect id="uuid-6f36d502-c8d8-49c9-97be-42dbaec5188d" x="215" y="197" width="7" height="55" fill="none" stroke="#000" stroke-linecap="round" stroke-linejoin="round"/><rect id="uuid-8f7850d6-fd07-4e77-a919-6dfc9e0cb1fe" x="187" y="197" width="7" height="55" fill="none" stroke="#000" stroke-linecap="round" stroke-linejoin="round"/><path id="uuid-2a6a88f6-9b5f-40c8-82f6-fb68c8af0d9e" d="M228.977064,188c1.85356-4.962632,2.901534-10.554066,2.901534-16.4745,0-20.442957-12.42923-37.015282-27.761461-37.015282s-27.761461,16.572325-27.761461,37.015282c0,5.920434,1.047974,11.511868,2.901534,16.4745h49.719856Z" fill="none" stroke="#000" stroke-linecap="round" stroke-linejoin="round"/><path id="uuid-ef6acad3-bda0-406a-9c41-25745be065cd" d="M180.6973,192c4.928377,10.307922,13.572063,17.150745,23.419836,17.150745s18.491459-6.842823,23.419836-17.150745h-46.839672Z" fill="none" stroke="#000" stroke-linecap="round" stroke-linejoin="round"/><ellipse id="uuid-254f1ce1-c218-4b28-b09b-238d4b53ed93" cx="213.5" cy="179" rx="2.5" ry="4" fill="none" stroke="#000" stroke-linecap="round" stroke-linejoin="round"/><ellipse id="uuid-e13338c7-7b3b-460e-9d79-9c81d9cd1de4" cx="198.5" cy="179" rx="2.5" ry="4" fill="none" stroke="#000" stroke-linecap="round" stroke-linejoin="round"/><rect id="uuid-bb5b7381-5d9b-4087-bd6f-4300da03a498" x="224.888347" y="191.400633" width="29.612221" height="13.880705" transform="translate(-62.998247 126.440318) rotate(-26.244664)" fill="none" stroke="#000" stroke-linecap="round" stroke-linejoin="round"/><rect id="uuid-5c604ca5-9ceb-4468-b49c-4350af6e294b" x="156.971866" y="205.599747" width="29.612221" height="13.880705" transform="translate(-48.053688 374.882349) rotate(-87.499645)" fill="none" stroke="#000" stroke-linecap="round" stroke-linejoin="round"/><rect id="uuid-786bf0a4-7628-4d50-9aa2-9b2ae675c6e5" x="155.680041" y="235.183781" width="29.612221" height="13.880705" transform="translate(-78.845026 401.885167) rotate(-87.499645)" fill="none" stroke="#000" stroke-linecap="round" stroke-linejoin="round"/><rect id="uuid-a651f7e7-cd03-48a1-b700-85e2a5d2545c" x="162" y="256" width="15" height="15" fill="none" stroke="#000" stroke-linecap="round" stroke-linejoin="round"/><circle id="uuid-9128c293-d25e-421e-b536-634c1a36c66c" cx="204" cy="242" r="2" fill="none" stroke="#000" stroke-linecap="round" stroke-linejoin="round"/><circle id="uuid-f4f8cb98-73ca-4328-aa11-64772f49f36a" cx="204" cy="234" r="2" fill="none" stroke="#000" stroke-linecap="round" stroke-linejoin="round"/><circle id="uuid-5de89f47-9d47-4a72-a168-ce6e3d48e778" cx="204" cy="227" r="2" fill="none" stroke="#000" stroke-linecap="round" stroke-linejoin="round"/><circle id="uuid-e8053029-3e8b-4a3c-8a0e-2ff0c51a8829" cx="204" cy="217" r="2" fill="none" stroke="#000" stroke-linecap="round" stroke-linejoin="round"/><path d="M234.386602,152.530947c-.591753-13.016676-12.96155-24.149058-29.010509-25.487377-16.048959-1.338319-30.091741,7.591524-32.831244,20.330407-5.428332.319668-8.722553,1.021988-8.810629,2.078185-.206886,2.480951,17.30951,5.966818,39.123959,7.78592,21.814449,1.819102,39.666271,1.282583,39.873157-1.198368.088076-1.056197-3.044322-2.294431-8.344734-3.508767Z" fill="none" stroke="#000" stroke-linecap="round" stroke-linejoin="round"/><polygon id="uuid-81c21c5e-1417-4715-83a9-06a30bcbd099" points="228 336 210 336 210 369.29504 210 376 237 376 237 369 228 369 228 336" fill="none" stroke="#000" stroke-linecap="round" stroke-linejoin="round"/><rect id="uuid-d979813b-d7f7-42c2-b008-7bcca5cac344" x="207" y="291" width="23.000018" height="46" fill="none" stroke="#000" stroke-linecap="round" stroke-linejoin="round"/><polygon id="uuid-dd83f28d-094f-40fe-a705-0c789a626d8b" points="198.999973 336 181 336 181 369 172 369 172 376 199 376 199 369.29504 198.999973 369.29504 198.999973 336" fill="none" stroke="#000" stroke-linecap="round" stroke-linejoin="round"/><rect id="uuid-94778231-62b7-473f-9ce8-f14a06356c6b" x="178.999982" y="291" width="23.000035" height="46" fill="none" stroke="#000" stroke-linecap="round" stroke-linejoin="round"/><path id="uuid-cc1a7014-dc09-4e7f-b40d-0248d814a137" d="M178,199v92h52v-92h-52Z" fill="none" stroke="#000" stroke-linecap="round" stroke-linejoin="round"/><rect id="uuid-bb7de454-d5e6-467f-9be7-5086e4b6afc8" x="178" y="252" width="52" height="16" fill="none" stroke="#000" stroke-linecap="round" stroke-linejoin="round"/><rect id="uuid-1def6363-bf65-446c-9953-179c72ac92ba" x="215" y="197" width="7" height="55" fill="none" stroke="#000" stroke-linecap="round" stroke-linejoin="round"/><rect id="uuid-353e8c7d-1284-49b2-bca8-b8a821aff535" x="187" y="197" width="7" height="55" fill="none" stroke="#000" stroke-linecap="round" stroke-linejoin="round"/><path id="uuid-cfb9ac2d-5b35-4899-8b03-3b4214e2a0ca" d="M228.977064,188c1.85356-4.962632,2.901534-10.554066,2.901534-16.4745,0-20.442957-12.42923-37.015282-27.761461-37.015282s-27.761461,16.572325-27.761461,37.015282c0,5.920434,1.047974,11.511868,2.901534,16.4745h49.719856Z" fill="none" stroke="#000" stroke-linecap="round" stroke-linejoin="round"/><path id="uuid-beb46c66-542c-482d-92f1-eb2adb9502d1" d="M180.6973,192c4.928377,10.307922,13.572063,17.150745,23.419836,17.150745s18.491459-6.842823,23.419836-17.150745h-46.839672Z" fill="none" stroke="#000" stroke-linecap="round" stroke-linejoin="round"/><ellipse id="uuid-3f7025c0-cd5e-4f0f-89a8-c8c39a8d84e5" cx="213.5" cy="179" rx="2.5" ry="4" fill="none" stroke="#000" stroke-linecap="round" stroke-linejoin="round"/><ellipse id="uuid-1463e914-e67a-4fe0-9a12-7b6c9009537e" cx="198.5" cy="179" rx="2.5" ry="4" fill="none" stroke="#000" stroke-linecap="round" stroke-linejoin="round"/><rect id="uuid-dded1d3d-3d88-49ea-8c07-b070030ac534" x="224.888347" y="191.400633" width="29.612221" height="13.880705" transform="translate(-62.998247 126.440318) rotate(-26.244664)" fill="none" stroke="#000" stroke-linecap="round" stroke-linejoin="round"/><rect id="uuid-0056ec06-6359-4656-b883-989d9ae87e54" x="156.971866" y="205.599747" width="29.612221" height="13.880705" transform="translate(-48.053688 374.882349) rotate(-87.499645)" fill="none" stroke="#000" stroke-linecap="round" stroke-linejoin="round"/><rect id="uuid-8d1d7a92-2801-42c9-8da6-76ca885429e5" x="155.680041" y="235.183781" width="29.612221" height="13.880705" transform="translate(-78.845026 401.885167) rotate(-87.499645)" fill="none" stroke="#000" stroke-linecap="round" stroke-linejoin="round"/><rect id="uuid-1241c33e-209a-41f1-8541-58ebc0f51505" x="162" y="256" width="15" height="15" fill="none" stroke="#000" stroke-linecap="round" stroke-linejoin="round"/><circle id="uuid-43f2ba66-8da0-4db0-9077-a235826741ca" cx="204" cy="242" r="2" fill="none" stroke="#000" stroke-linecap="round" stroke-linejoin="round"/><circle id="uuid-ea922ded-d3bb-4119-8fa3-8e4b81560868" cx="204" cy="234" r="2" fill="none" stroke="#000" stroke-linecap="round" stroke-linejoin="round"/><circle id="uuid-392a94d6-9520-45a0-aab4-fc90ebd74542" cx="204" cy="227" r="2" fill="none" stroke="#000" stroke-linecap="round" stroke-linejoin="round"/><circle id="uuid-1af0f7f1-7674-4efd-ac48-204c2f42687a" cx="204" cy="217" r="2" fill="none" stroke="#000" stroke-linecap="round" stroke-linejoin="round"/><path d="M234.386602,152.530947c-.591753-13.016676-12.96155-24.149058-29.010509-25.487377-16.048959-1.338319-30.091741,7.591524-32.831244,20.330407-5.428332.319668-8.722553,1.021988-8.810629,2.078185-.206886,2.480951,17.30951,5.966818,39.123959,7.78592,21.814449,1.819102,39.666271,1.282583,39.873157-1.198368.088076-1.056197-3.044322-2.294431-8.344734-3.508767Z" fill="none" stroke="#000" stroke-linecap="round" stroke-linejoin="round"/></g><path d="M257.83635,202.588565c-.821912-1.184321-1.185249-2.19157-1.393336-2.792546-.065884-.189338-.284408-.189338-.349639,0-.208087.600976-.571425,1.608224-1.393336,2.792546-.514673.742022-1.022171,1.828224-1.022171,2.89833,0,1.825925,1.121323,3.062372,2.590327,3.062372s2.590327-1.237214,2.590327-3.062372c0-1.112266-.507498-2.156309-1.022171-2.898331Z" fill="none" stroke="#000" stroke-linecap="round" stroke-linejoin="round"/><path d="M256.984432,205.789617c.414217-.925994.355509-1.832057.68297-1.668782.444876.223066.937371,1.36906.752767,2.407737-.131767.740489-.557074,1.188921-1.099144.975053-.437701-.172474-.709715-.88-.336593-1.714008Z" fill="none" stroke="#000" stroke-linecap="round" stroke-linejoin="round"/><path d="M248.672452,199.603086l-4.707218-9.547536c-.57305-1.162303-.095366-2.569085,1.066938-3.142135l5.248596-2.587713c1.162303-.57305,2.569085-.095366,3.142135,1.066938l3.720685,7.546575c1.117897,2.267403.186038,5.011731-2.081365,6.129629l-3.247635,1.60118c-1.162303.57305-2.569085.095366-3.142135-1.066938Z" fill="none" stroke="#000" stroke-linecap="round" stroke-linejoin="round"/><ellipse cx="245.5" cy="193" rx="9.148582" ry="4.951479" transform="translate(-59.913604 127.871046) rotate(-26.134765)" fill="none" stroke="#000" stroke-linecap="round" stroke-linejoin="round"/><ellipse cx="247.5" cy="196.5" rx="2.367573" ry="7.929796" transform="translate(-21.545463 362.280093) rotate(-70.087938)" fill="none" stroke="#000" stroke-linecap="round" stroke-linejoin="round"/><path d="M198,346.293433l81.006339-42.252234s.028905-1.069679,0-1.821339l-90.069677-39.057658c-.361377-.159006-.780576-.144551-1.141954.043365l-78.31769,41.428296c-.303557.159007-.477018.462563-.477018.795029v76.539721c0,.89622.505928,1.72016,1.286503,2.1249.809485.419199,1.61897.838398,2.428455,1.257597,2.197174,1.127495,80.876245,42.310051,83.478155,41.370478.766118-.27465,1.344324-.795034,1.806887-1.416604v-79.011551Z" fill="#1976d2"/><path d="M195.858596,344.818965c9.61363-4.640562,83.197638-40.160385,83.081983-42.603551l-90.136791-39.090597c-.332501-.144566-.708375-.130109-1.040876.043369l-78.398046,41.475934c-.187936.101196-.187936.375869.014457.46261l84.397533,39.712235c.665001.303587,1.416739.303587,2.08174,0Z" fill="#039be5"/><path d="M279.958275,383.997858l-82.122476,42.334462c-1.302156.665544-2.8358-.274903-2.8358-1.7362v-77.46368c0-1.837478,1.229809-2.503033,1.880893-2.8358l81.283307-41.914878c1.302156-.665544,2.8358-.217028,2.8358,1.736206v78.15815c.01446.723419-.390652,1.388962-1.041725,1.72174Z" fill="#0d47a1"/><polygon points="210.589857 314.142095 163.967378 290.852542 172.713609 286.50111 219.336094 309.790666 210.589857 314.142095" fill="#212121"/><path d="M215.418361,307.839029l-34.421131-17.203336s7.719815-7.15601,25.154456-16.379308c.650542-.346958,3.859905-2.211858,4.553826-1.850444l40.868766,17.781596c-16.625081,2.110663-36.155917,17.651492-36.155917,17.651492Z" fill="#0d47a1"/><polygon points="172.713609 289.103297 216.719445 311.077301 219.336094 309.790666 172.713609 286.50111 163.967378 290.852542 166.569562 292.153634 172.713609 289.103297" fill="#0d47a1"/><path d="M245.386851,273.432361c-16.841921,10.278631-38.353312,38.931581-38.353312,38.931581l-35.852324-17.911705s19.010403-31.139481,41.230175-40.955499c.665001-.289132,1.460118-.318045,2.154028.057826l30.619043,16.191372c1.561314.824021,1.619141,2.819029.202391,3.686425Z" fill="#dfecf5"/><polygon points="194.91547 355.71923 109 315.298626 109 318.464615 194.91547 358.885225 195.537109 358.596087 194.91547 355.71923" fill="#0d47a1" isolation="isolate" opacity=".7"/><polygon points="195 355.718032 195 358.886076 281 314.764964 281 311.53906 195 355.718032" fill="#0a3160"/><path d="M198,346.293433l81.006339-42.252234s.028905-1.069679,0-1.821339l-90.069677-39.057658c-.361377-.159006-.780576-.144551-1.141954.043365l-78.31769,41.428296c-.303557.159007-.477018.462563-.477018.795029v76.539721c0,.89622.505928,1.72016,1.286503,2.1249.809485.419199,1.61897.838398,2.428455,1.257597,2.197174,1.127495,80.876245,42.310051,83.478155,41.370478.766118-.27465,1.344324-.795034,1.806887-1.416604v-79.011551Z" fill="none" stroke="#000" stroke-linecap="round" stroke-linejoin="round"/><path d="M195.858596,344.818965c9.61363-4.640562,83.197638-40.160385,83.081983-42.603551l-90.136791-39.090597c-.332501-.144566-.708375-.130109-1.040876.043369l-78.398046,41.475934c-.187936.101196-.187936.375869.014457.46261l84.397533,39.712235c.665001.303587,1.416739.303587,2.08174,0Z" fill="none" stroke="#000" stroke-linecap="round" stroke-linejoin="round"/><path d="M279.958275,383.997858l-82.122476,42.334462c-1.302156.665544-2.8358-.274903-2.8358-1.7362v-77.46368c0-1.837478,1.229809-2.503033,1.880893-2.8358l81.283307-41.914878c1.302156-.665544,2.8358-.217028,2.8358,1.736206v78.15815c.01446.723419-.390652,1.388962-1.041725,1.72174Z" fill="none" stroke="#000" stroke-linecap="round" stroke-linejoin="round"/><polygon points="210.589857 314.142095 163.967378 290.852542 172.713609 286.50111 219.336094 309.790666 210.589857 314.142095" fill="none" stroke="#000" stroke-linecap="round" stroke-linejoin="round"/><path d="M215.418361,307.839029l-34.421131-17.203336s7.719815-7.15601,25.154456-16.379308c.650542-.346958,3.859905-2.211858,4.553826-1.850444l40.868766,17.781596c-16.625081,2.110663-36.155917,17.651492-36.155917,17.651492Z" fill="none" stroke="#000" stroke-linecap="round" stroke-linejoin="round"/><polygon points="172.713609 289.103297 216.719445 311.077301 219.336094 309.790666 172.713609 286.50111 163.967378 290.852542 166.569562 292.153634 172.713609 289.103297" fill="none" stroke="#000" stroke-linecap="round" stroke-linejoin="round"/><path d="M245.386851,273.432361c-16.841921,10.278631-38.353312,38.931581-38.353312,38.931581l-35.852324-17.911705s19.010403-31.139481,41.230175-40.955499c.665001-.289132,1.460118-.318045,2.154028.057826l30.619043,16.191372c1.561314.824021,1.619141,2.819029.202391,3.686425Z" fill="none" stroke="#000" stroke-linecap="round" stroke-linejoin="round"/><polygon points="194.91547 355.71923 109 315.298626 109 318.464615 194.91547 358.885225 195.537109 358.596087 194.91547 355.71923" fill="none" stroke="#000" stroke-linecap="round" stroke-linejoin="round"/><polygon points="195 355.718032 195 358.886076 281 314.764964 281 311.53906 195 355.718032" fill="none" stroke="#000" stroke-linecap="round" stroke-linejoin="round"/><g id="uuid-abd28818-4f1c-416f-a615-2c30a74f7f24"><polygon id="uuid-eded1be5-754e-4e86-8bdc-61889e44f4a2" points="315 391 335 391 335 425.959792 335 433 305 433 305 426 315 426 315 391" fill="#5f4d2f"/><rect id="uuid-671ac54a-3239-4b3e-affe-8b777fe331ef" x="312.999981" y="342" width="25.000019" height="49" fill="#726038"/><polygon id="uuid-756fdafe-7557-4ff0-8088-b27167a61361" points="347.000031 391 367 391 367 426 377 426 377 433 347 433 347 425.959792 347.000031 425.959792 347.000031 391" fill="#5f4d2f"/><rect id="uuid-00d07ae3-3385-4d98-bdc5-409ef9da326b" x="343.999981" y="342" width="25.000038" height="49" fill="#726038"/><path id="uuid-294fefda-1989-458d-8ad6-a7d8184a4eaa" d="M369,242v100h-56v-100h56Z" fill="#726038"/><rect id="uuid-65a240eb-db50-4ecd-9a21-a7906d13631c" x="313" y="300" width="56" height="17" fill="#ac935a"/><rect id="uuid-832589a2-4005-4b42-8a94-d02ad3bf7a28" x="322" y="241" width="7" height="59" fill="#ac935a"/><rect id="uuid-7ba0ccee-72d3-4dd4-811e-1f7e3decdd0e" x="353" y="241" width="7" height="59" fill="#ac935a"/><path id="uuid-02c10c50-c927-41ba-9191-acc98af3f828" d="M313.9199,228.07969c-1.919822-5.420285-2.953698-11.508101-2.844111-17.933586.378397-22.18687,14.174671-39.942854,30.814838-39.659056,16.640168.283798,29.822936,18.499911,29.444539,40.686781-.109587,6.425485-1.350456,12.474505-3.453994,17.826172l-53.961272-.92031Z" fill="#eec6a2"/><path id="uuid-2ba8a2e1-d837-4e39-abaa-4f24a6ba35de" d="M366.198057,234c-5.349576,11.18888-14.731987,18.616519-25.421392,18.616519s-20.071816-7.427639-25.421392-18.616519h50.842783Z" fill="#eec6a2"/><ellipse id="uuid-8f0d924e-52f2-4fd1-8111-6e8a013e9cff" cx="321" cy="214.499871" rx="2.987525" ry="4.507841" transform="translate(-16.124315 26.35527) rotate(-4.586487)" fill="#333"/><ellipse id="uuid-6a7f86ff-e13d-4997-8091-5cee3c1fbc45" cx="337" cy="214.5" rx="2.987525" ry="4.50797" transform="translate(-16.07199 27.632614) rotate(-4.58615)" fill="#333"/><rect id="uuid-b329f7c5-4e01-4807-9202-47e12dc1898a" x="273.633515" y="238.586939" width="15.067008" height="32.143004" transform="translate(-86.57711 347.771648) rotate(-56.376481)" fill="#726038"/><rect id="uuid-5f0ddd6d-cccc-4a77-ab15-1dbb646964d5" x="286.210605" y="249.090315" width="32.143004" height="15.067008" transform="translate(-82.319302 160.125047) rotate(-26.244664)" fill="#726038"/><rect id="uuid-1b4cfbee-7ec1-4ab1-b0ce-c1e23053d047" x="370.346052" y="241.552317" width="15.067008" height="32.143004" transform="translate(-19.671736 31.535426) rotate(-4.657673)" fill="#726038"/><rect id="uuid-6935fb03-0b7f-4b18-9e53-0a164fc99cfb" x="372.93846" y="273.372224" width="15.067008" height="32.143004" transform="translate(-22.247022 31.851016) rotate(-4.657673)" fill="#726038"/><rect id="uuid-b76382b1-f994-4d24-bc8e-207c04dcfc88" x="252.736871" y="233.141517" width="16.258368" height="16.258368" transform="translate(-84.488906 324.892472) rotate(-56.37645)" fill="#eec6a2"/><rect id="uuid-609cdde1-6d14-4734-bd40-3f11d7ebf010" x="374.40026" y="305.515223" width="16.071504" height="16.071504" transform="translate(-24.197949 32.089897) rotate(-4.657643)" fill="#eec6a2"/><circle id="uuid-97c51f3d-073c-4bce-8525-61df9b08363f" cx="340.999912" cy="287.999912" r="1.999912" fill="#333"/><circle id="uuid-16d94146-6110-4ace-97c5-ab0589d40e4b" cx="340.999912" cy="279.999912" r="1.999912" fill="#333"/><circle id="uuid-56943b19-3bf5-4804-8fc7-266ee6b32f32" cx="340.999912" cy="271.999912" r="1.999912" fill="#333"/><circle id="uuid-00028031-c168-4d03-9e60-02f87bb1049f" cx="340.999912" cy="262.999912" r="1.999912" fill="#333"/><path d="M307.926929,186.71196c2.053185-13.993908,16.622121-24.673229,34.100614-24.375133,17.478493.298096,31.67479,11.468009,33.249587,25.523792,5.827948.93496,9.309455,2.051348,9.289837,3.201624-.046082,2.701938-19.342728,4.563806-43.100262,4.158621-23.757534-.405185-42.979468-2.923989-42.933387-5.625926.019618-1.150276,3.53717-2.147294,9.39361-2.882977Z" fill="#596a66"/><polygon id="uuid-be30167f-7988-4e39-aeee-6b373bf2931c" points="315 391 335 391 335 425.959792 335 433 305 433 305 426 315 426 315 391" fill="none" stroke="#000" stroke-linecap="round" stroke-linejoin="round"/><rect id="uuid-7381f117-eb25-496a-b1e5-298f10f88358" x="312.999981" y="342" width="25.000019" height="49" fill="none" stroke="#000" stroke-linecap="round" stroke-linejoin="round"/><polygon id="uuid-15c42d13-a49f-448a-9c40-7c172325d91f" points="347.000031 391 367 391 367 426 377 426 377 433 347 433 347 425.959792 347.000031 425.959792 347.000031 391" fill="none" stroke="#000" stroke-linecap="round" stroke-linejoin="round"/><rect id="uuid-1387bd16-1673-42f2-9c69-f11af581fb58" x="343.999981" y="342" width="25.000038" height="49" fill="none" stroke="#000" stroke-linecap="round" stroke-linejoin="round"/><path id="uuid-4d4b636e-a88a-4330-8feb-0b4608bd7d40" d="M369,242v100h-56v-100h56Z" fill="none" stroke="#000" stroke-linecap="round" stroke-linejoin="round"/><rect id="uuid-3f0ecb90-3c8a-49c4-926f-ee37c9b0754a" x="313" y="300" width="56" height="17" fill="none" stroke="#000" stroke-linecap="round" stroke-linejoin="round"/><rect id="uuid-d9b82da2-71b2-4a2f-8900-563f206a90dd" x="322" y="241" width="7" height="59" fill="none" stroke="#000" stroke-linecap="round" stroke-linejoin="round"/><rect id="uuid-903bf5b5-f9d7-4d1e-aa72-dd786f423f29" x="353" y="241" width="7" height="59" fill="none" stroke="#000" stroke-linecap="round" stroke-linejoin="round"/><path id="uuid-d5bfc1ac-c9da-413d-a9ae-54b059088653" d="M313.9199,228.07969c-1.919822-5.420285-2.953698-11.508101-2.844111-17.933586.378397-22.18687,14.174671-39.942854,30.814838-39.659056,16.640168.283798,29.822936,18.499911,29.444539,40.686781-.109587,6.425485-1.350456,12.474505-3.453994,17.826172l-53.961272-.92031Z" fill="none" stroke="#000" stroke-linecap="round" stroke-linejoin="round"/><path id="uuid-9945e3cd-440c-4324-ba16-b566ac6b689f" d="M366.198057,234c-5.349576,11.18888-14.731987,18.616519-25.421392,18.616519s-20.071816-7.427639-25.421392-18.616519h50.842783Z" fill="none" stroke="#000" stroke-linecap="round" stroke-linejoin="round"/><ellipse id="uuid-7608db95-b149-43d3-a39d-45252940651e" cx="321" cy="214.499871" rx="2.987525" ry="4.507841" transform="translate(-16.124315 26.35527) rotate(-4.586487)" fill="none" stroke="#000" stroke-linecap="round" stroke-linejoin="round"/><ellipse id="uuid-5dd6ab9b-a716-4de4-8782-d6777350f052" cx="337" cy="214.5" rx="2.987525" ry="4.50797" transform="translate(-16.07199 27.632614) rotate(-4.58615)" fill="none" stroke="#000" stroke-linecap="round" stroke-linejoin="round"/><rect id="uuid-93bbdca0-00bb-4832-bb44-2847ba8f002c" x="273.633515" y="238.586939" width="15.067008" height="32.143004" transform="translate(-86.57711 347.771648) rotate(-56.376481)" fill="none" stroke="#000" stroke-linecap="round" stroke-linejoin="round"/><rect id="uuid-37cf7dba-60ba-4fff-90d0-9859014553e6" x="286.210605" y="249.090315" width="32.143004" height="15.067008" transform="translate(-82.319302 160.125047) rotate(-26.244664)" fill="none" stroke="#000" stroke-linecap="round" stroke-linejoin="round"/><rect id="uuid-b182b33e-b33a-4fa5-8c8b-b7642e9a2440" x="370.346052" y="241.552317" width="15.067008" height="32.143004" transform="translate(-19.671736 31.535426) rotate(-4.657673)" fill="none" stroke="#000" stroke-linecap="round" stroke-linejoin="round"/><rect id="uuid-f3336eae-ab1d-4ffb-8263-6cce2c77dab0" x="372.93846" y="273.372224" width="15.067008" height="32.143004" transform="translate(-22.247022 31.851016) rotate(-4.657673)" fill="none" stroke="#000" stroke-linecap="round" stroke-linejoin="round"/><rect id="uuid-1d352fc7-f897-4133-8530-7145e98fc87e" x="252.736871" y="233.141517" width="16.258368" height="16.258368" transform="translate(-84.488906 324.892472) rotate(-56.37645)" fill="none" stroke="#000" stroke-linecap="round" stroke-linejoin="round"/><rect id="uuid-e920092b-06a4-4f71-b3c6-1793ec910460" x="374.40026" y="305.515223" width="16.071504" height="16.071504" transform="translate(-24.197949 32.089897) rotate(-4.657643)" fill="none" stroke="#000" stroke-linecap="round" stroke-linejoin="round"/><circle id="uuid-8c3401b8-c984-4ffb-af53-d750b7355e8e" cx="340.999912" cy="287.999912" r="1.999912" fill="none" stroke="#000" stroke-linecap="round" stroke-linejoin="round"/><circle id="uuid-753797ed-90c4-454f-9726-61cd88d8af7f" cx="340.999912" cy="279.999912" r="1.999912" fill="none" stroke="#000" stroke-linecap="round" stroke-linejoin="round"/><circle id="uuid-ccdeb6d8-0ce7-4399-9d09-945d3afe0089" cx="340.999912" cy="271.999912" r="1.999912" fill="none" stroke="#000" stroke-linecap="round" stroke-linejoin="round"/><circle id="uuid-53bf4a73-507d-4541-b31a-aed1d04de8a5" cx="340.999912" cy="262.999912" r="1.999912" fill="none" stroke="#000" stroke-linecap="round" stroke-linejoin="round"/><path d="M307.926929,186.71196c2.053185-13.993908,16.622121-24.673229,34.100614-24.375133,17.478493.298096,31.67479,11.468009,33.249587,25.523792,5.827948.93496,9.309455,2.051348,9.289837,3.201624-.046082,2.701938-19.342728,4.563806-43.100262,4.158621-23.757534-.405185-42.979468-2.923989-42.933387-5.625926.019618-1.150276,3.53717-2.147294,9.39361-2.882977Z" fill="none" stroke="#000" stroke-linecap="round" stroke-linejoin="round"/></g></svg>