<?xml version="1.0" encoding="UTF-8"?><svg id="uuid-2dc56dcc-ca86-40b9-bb3c-5dacdfb367f9" xmlns="http://www.w3.org/2000/svg" viewBox="0 0 500 500"><text transform="translate(108.64 86.69)" fill="#333" font-family="ComicNeue-Regular, &apos;Comic Neue&apos;" font-size="24"><tspan x="0" y="0">He allowed soldiers to vote.</tspan></text><g id="uuid-a01dd8dc-c6fe-4733-873f-a52477b25d88"><polygon id="uuid-882d5900-6014-410f-a507-7549754e53b2" points="228 336 210 336 210 369.3 210 376 237 376 237 369 228 369 228 336" fill="#5f5f5f"/><rect id="uuid-c283af0a-42a7-40b5-8af2-c5c5c38fbf4b" x="207" y="291" width="23" height="46" fill="#727272"/><polygon id="uuid-2296d5dc-4ea2-417b-a481-677340d21af0" points="199 336 181 336 181 369 172 369 172 376 199 376 199 369.3 199 369.3 199 336" fill="#5f5f5f"/><rect id="uuid-47f3a35d-c357-4d3d-8fc3-c20469378538" x="179" y="291" width="23" height="46" fill="#727272"/><path id="uuid-dfd91ec4-8b8d-4cee-b9d3-d0d48d660273" d="M178,199v92h52v-92h-52Z" fill="#727272"/><rect id="uuid-bdf2c91d-8ba5-425e-bebb-384909595e25" x="178" y="252" width="52" height="16" fill="#acacac"/><rect id="uuid-32f372ff-007b-4f8e-afc0-7fd504a13698" x="215" y="197" width="7" height="55" fill="#acacac"/><rect id="uuid-99974eb6-05de-43e3-8260-b34fe2c72395" x="187" y="197" width="7" height="55" fill="#acacac"/><path id="uuid-7534becf-0039-4c83-9bac-1368facec4b6" d="M228.98,188c1.85-4.96,2.9-10.55,2.9-16.47,0-20.44-12.43-37.02-27.76-37.02s-27.76,16.57-27.76,37.02c0,5.92,1.05,11.51,2.9,16.47h49.72Z" fill="#ccc"/><path id="uuid-f0c1db4f-dab6-45ef-91f2-0095ecd229cc" d="M180.7,192c4.93,10.31,13.57,17.15,23.42,17.15s18.49-6.84,23.42-17.15h-46.84Z" fill="#ccc"/><ellipse id="uuid-589f0f18-96f1-4b21-8f73-5016a5a6c427" cx="213.5" cy="179" rx="2.5" ry="4" fill="#333"/><ellipse id="uuid-32a68913-0cc1-4f3c-8f8b-164dc5177c36" cx="198.5" cy="179" rx="2.5" ry="4" fill="#333"/><rect id="uuid-2761c226-40c4-48a1-aa89-196b82cbab92" x="224.89" y="191.4" width="29.61" height="13.88" transform="translate(-63 126.44) rotate(-26.24)" fill="#727272"/><rect id="uuid-427595c5-1e1f-4dd2-87c0-a528b9f4207b" x="156.97" y="205.6" width="29.61" height="13.88" transform="translate(-48.05 374.88) rotate(-87.5)" fill="#727272"/><rect id="uuid-acc28a04-180b-4129-a046-770469a08243" x="155.68" y="235.18" width="29.61" height="13.88" transform="translate(-78.85 401.89) rotate(-87.5)" fill="#727272"/><rect id="uuid-9f4f17ee-4ff7-42ce-96cf-14d614269eec" x="162" y="256" width="15" height="15" fill="#ccc"/><circle id="uuid-4e237b3d-8d40-43d2-a04d-e1864d740f0e" cx="204" cy="242" r="2" fill="#333"/><circle id="uuid-8f86f8ff-7c92-4d98-b83e-77ae17d70cc2" cx="204" cy="234" r="2" fill="#333"/><circle id="uuid-4fa736bf-ad95-4aaa-a55d-30abe440628d" cx="204" cy="227" r="2" fill="#333"/><circle id="uuid-b0faf30f-fafb-4d43-9902-5f21fd6a1336" cx="204" cy="217" r="2" fill="#333"/><path d="M234.39,152.53c-.59-13.02-12.96-24.15-29.01-25.49-16.05-1.34-30.09,7.59-32.83,20.33-5.43.32-8.72,1.02-8.81,2.08-.21,2.48,17.31,5.97,39.12,7.79,21.81,1.82,39.67,1.28,39.87-1.2.09-1.06-3.04-2.29-8.34-3.51Z" fill="#6a6a6a"/></g><path d="M257.84,202.59c-.82-1.18-1.19-2.19-1.39-2.79-.07-.19-.28-.19-.35,0-.21.6-.57,1.61-1.39,2.79-.51.74-1.02,1.83-1.02,2.9,0,1.83,1.12,3.06,2.59,3.06s2.59-1.24,2.59-3.06c0-1.11-.51-2.16-1.02-2.9Z" fill="#c1272d"/><path d="M256.98,205.79c.41-.93.36-1.83.68-1.67.44.22.94,1.37.75,2.41-.13.74-.56,1.19-1.1.98-.44-.17-.71-.88-.34-1.71Z" fill="#e36250"/><path d="M248.67,199.6l-4.71-9.55c-.57-1.16-.1-2.57,1.07-3.14l5.25-2.59c1.16-.57,2.57-.1,3.14,1.07l3.72,7.55c1.12,2.27.19,5.01-2.08,6.13l-3.25,1.6c-1.16.57-2.57.1-3.14-1.07Z" fill="#c1272d"/><ellipse cx="245.5" cy="193" rx="9.15" ry="4.95" transform="translate(-59.91 127.87) rotate(-26.13)" fill="#c1272d"/><ellipse cx="247.5" cy="196.5" rx="2.37" ry="7.93" transform="translate(-21.55 362.28) rotate(-70.09)" fill="#c1272d"/><g id="uuid-cc76b532-d84e-4551-b8f3-ce366d8a9fb1"><polygon id="uuid-9cc47f36-3e80-4cb1-ae1f-fbf7c96992c8" points="228 336 210 336 210 369.3 210 376 237 376 237 369 228 369 228 336" fill="none" stroke="#000" stroke-linecap="round" stroke-linejoin="round"/><rect id="uuid-6d0573c0-2d24-4c82-86d4-62b19b4ff1a1" x="207" y="291" width="23" height="46" fill="none" stroke="#000" stroke-linecap="round" stroke-linejoin="round"/><polygon id="uuid-1dab253a-e53b-4377-9f57-db6246948948" points="199 336 181 336 181 369 172 369 172 376 199 376 199 369.3 199 369.3 199 336" fill="none" stroke="#000" stroke-linecap="round" stroke-linejoin="round"/><rect id="uuid-da68e1c3-ead2-409d-8b17-8c7dcabfb612" x="179" y="291" width="23" height="46" fill="none" stroke="#000" stroke-linecap="round" stroke-linejoin="round"/><path id="uuid-6d06237b-35ef-432b-8578-8049d3340980" d="M178,199v92h52v-92h-52Z" fill="none" stroke="#000" stroke-linecap="round" stroke-linejoin="round"/><rect id="uuid-25e0c80f-7a2d-46c3-8814-e2248ad30df8" x="178" y="252" width="52" height="16" fill="none" stroke="#000" stroke-linecap="round" stroke-linejoin="round"/><rect id="uuid-baee3d9b-5755-4583-91c6-04d8a0260408" x="215" y="197" width="7" height="55" fill="none" stroke="#000" stroke-linecap="round" stroke-linejoin="round"/><rect id="uuid-b74f3ec7-4929-47b3-9b1c-2ffc7a21d5c2" x="187" y="197" width="7" height="55" fill="none" stroke="#000" stroke-linecap="round" stroke-linejoin="round"/><path id="uuid-9ec42fed-54bc-4a34-8bc8-84f7c9695d4f" d="M228.98,188c1.85-4.96,2.9-10.55,2.9-16.47,0-20.44-12.43-37.02-27.76-37.02s-27.76,16.57-27.76,37.02c0,5.92,1.05,11.51,2.9,16.47h49.72Z" fill="none" stroke="#000" stroke-linecap="round" stroke-linejoin="round"/><path id="uuid-5d66b03a-d5cb-4b5f-b484-fcd86b6497f9" d="M180.7,192c4.93,10.31,13.57,17.15,23.42,17.15s18.49-6.84,23.42-17.15h-46.84Z" fill="none" stroke="#000" stroke-linecap="round" stroke-linejoin="round"/><ellipse id="uuid-96176a18-d8ed-4e10-ac70-c991605e92b3" cx="213.5" cy="179" rx="2.5" ry="4" fill="none" stroke="#000" stroke-linecap="round" stroke-linejoin="round"/><ellipse id="uuid-f5dcf3a3-7aeb-4827-a0d9-b3b65ce4ab83" cx="198.5" cy="179" rx="2.5" ry="4" fill="none" stroke="#000" stroke-linecap="round" stroke-linejoin="round"/><rect id="uuid-7ec29ba5-0d7a-43e4-9930-f74fe16ad9a8" x="224.89" y="191.4" width="29.61" height="13.88" transform="translate(-63 126.44) rotate(-26.24)" fill="none" stroke="#000" stroke-linecap="round" stroke-linejoin="round"/><rect id="uuid-ff5155e1-ede6-4d62-b542-45ee887efe1a" x="156.97" y="205.6" width="29.61" height="13.88" transform="translate(-48.05 374.88) rotate(-87.5)" fill="none" stroke="#000" stroke-linecap="round" stroke-linejoin="round"/><rect id="uuid-cbee8295-f8c3-4e0c-9355-a03811302953" x="155.68" y="235.18" width="29.61" height="13.88" transform="translate(-78.85 401.89) rotate(-87.5)" fill="none" stroke="#000" stroke-linecap="round" stroke-linejoin="round"/><rect id="uuid-914e49d2-d63a-40a1-9bef-2a80183ea073" x="162" y="256" width="15" height="15" fill="none" stroke="#000" stroke-linecap="round" stroke-linejoin="round"/><circle id="uuid-9b240cf2-93d1-446b-a922-4a489fc0f210" cx="204" cy="242" r="2" fill="none" stroke="#000" stroke-linecap="round" stroke-linejoin="round"/><circle id="uuid-c2395805-92f4-4dd4-a0ed-ebb38c3d99e7" cx="204" cy="234" r="2" fill="none" stroke="#000" stroke-linecap="round" stroke-linejoin="round"/><circle id="uuid-3bc1edad-6b9a-44b3-8840-78b336252bdd" cx="204" cy="227" r="2" fill="none" stroke="#000" stroke-linecap="round" stroke-linejoin="round"/><circle id="uuid-f5a518ae-d802-4fbd-8b37-e69b970da8b5" cx="204" cy="217" r="2" fill="none" stroke="#000" stroke-linecap="round" stroke-linejoin="round"/><path d="M234.39,152.53c-.59-13.02-12.96-24.15-29.01-25.49-16.05-1.34-30.09,7.59-32.83,20.33-5.43.32-8.72,1.02-8.81,2.08-.21,2.48,17.31,5.97,39.12,7.79,21.81,1.82,39.67,1.28,39.87-1.2.09-1.06-3.04-2.29-8.34-3.51Z" fill="none" stroke="#000" stroke-linecap="round" stroke-linejoin="round"/><polygon id="uuid-e12f57c3-c165-4b7a-8c28-b5af6834ed57" points="228 336 210 336 210 369.3 210 376 237 376 237 369 228 369 228 336" fill="none" stroke="#000" stroke-linecap="round" stroke-linejoin="round"/><rect id="uuid-0dd0c7ab-8a0d-4b52-82e0-c2627aca06d4" x="207" y="291" width="23" height="46" fill="none" stroke="#000" stroke-linecap="round" stroke-linejoin="round"/><polygon id="uuid-601a2808-88b0-4f4b-a877-a718e26d33b1" points="199 336 181 336 181 369 172 369 172 376 199 376 199 369.3 199 369.3 199 336" fill="none" stroke="#000" stroke-linecap="round" stroke-linejoin="round"/><rect id="uuid-466e7a89-44a7-421e-ad35-dc847026bd69" x="179" y="291" width="23" height="46" fill="none" stroke="#000" stroke-linecap="round" stroke-linejoin="round"/><path id="uuid-c0d08206-dff4-4523-93a0-d5e2789dd01b" d="M178,199v92h52v-92h-52Z" fill="none" stroke="#000" stroke-linecap="round" stroke-linejoin="round"/><rect id="uuid-fb1a8198-9b35-47e6-abc8-8a5e877c6a03" x="178" y="252" width="52" height="16" fill="none" stroke="#000" stroke-linecap="round" stroke-linejoin="round"/><rect id="uuid-8760ec3e-21db-4c2c-914d-46fd518fa103" x="215" y="197" width="7" height="55" fill="none" stroke="#000" stroke-linecap="round" stroke-linejoin="round"/><rect id="uuid-8f5b3df9-be16-4468-b21b-9b8ae060fc07" x="187" y="197" width="7" height="55" fill="none" stroke="#000" stroke-linecap="round" stroke-linejoin="round"/><path id="uuid-614a387c-234d-421d-9c19-d127be925df1" d="M228.98,188c1.85-4.96,2.9-10.55,2.9-16.47,0-20.44-12.43-37.02-27.76-37.02s-27.76,16.57-27.76,37.02c0,5.92,1.05,11.51,2.9,16.47h49.72Z" fill="none" stroke="#000" stroke-linecap="round" stroke-linejoin="round"/><path id="uuid-b36b3940-5e7f-42c7-8b89-02f2249b64c6" d="M180.7,192c4.93,10.31,13.57,17.15,23.42,17.15s18.49-6.84,23.42-17.15h-46.84Z" fill="none" stroke="#000" stroke-linecap="round" stroke-linejoin="round"/><ellipse id="uuid-97fbdc72-e231-43c5-991d-f2e995f79c4e" cx="213.5" cy="179" rx="2.5" ry="4" fill="none" stroke="#000" stroke-linecap="round" stroke-linejoin="round"/><ellipse id="uuid-8ba4fc53-aaa6-466c-9e23-74fd945f43c6" cx="198.5" cy="179" rx="2.5" ry="4" fill="none" stroke="#000" stroke-linecap="round" stroke-linejoin="round"/><rect id="uuid-34a50b99-832c-484f-a0a2-f1df892ed24a" x="224.89" y="191.4" width="29.61" height="13.88" transform="translate(-63 126.44) rotate(-26.24)" fill="none" stroke="#000" stroke-linecap="round" stroke-linejoin="round"/><rect id="uuid-76674ac9-c032-4c11-9334-71b0542ec83b" x="156.97" y="205.6" width="29.61" height="13.88" transform="translate(-48.05 374.88) rotate(-87.5)" fill="none" stroke="#000" stroke-linecap="round" stroke-linejoin="round"/><rect id="uuid-8774b585-fd90-4183-9816-c50898a64d8a" x="155.68" y="235.18" width="29.61" height="13.88" transform="translate(-78.85 401.89) rotate(-87.5)" fill="none" stroke="#000" stroke-linecap="round" stroke-linejoin="round"/><rect id="uuid-e6d42d21-54ab-4842-9e03-73d34deb0a04" x="162" y="256" width="15" height="15" fill="none" stroke="#000" stroke-linecap="round" stroke-linejoin="round"/><circle id="uuid-d7a8b95d-4b9c-4405-8a71-0bff97364fa0" cx="204" cy="242" r="2" fill="none" stroke="#000" stroke-linecap="round" stroke-linejoin="round"/><circle id="uuid-4326ef7d-4910-4b6e-80c4-5944c090187d" cx="204" cy="234" r="2" fill="none" stroke="#000" stroke-linecap="round" stroke-linejoin="round"/><circle id="uuid-78217b6a-ae74-42bf-adb7-4d456ca64123" cx="204" cy="227" r="2" fill="none" stroke="#000" stroke-linecap="round" stroke-linejoin="round"/><circle id="uuid-3f79052d-fea7-4e86-8cb3-cdb14a24232e" cx="204" cy="217" r="2" fill="none" stroke="#000" stroke-linecap="round" stroke-linejoin="round"/><path d="M234.39,152.53c-.59-13.02-12.96-24.15-29.01-25.49-16.05-1.34-30.09,7.59-32.83,20.33-5.43.32-8.72,1.02-8.81,2.08-.21,2.48,17.31,5.97,39.12,7.79,21.81,1.82,39.67,1.28,39.87-1.2.09-1.06-3.04-2.29-8.34-3.51Z" fill="none" stroke="#000" stroke-linecap="round" stroke-linejoin="round"/></g><path d="M257.84,202.59c-.82-1.18-1.19-2.19-1.39-2.79-.07-.19-.28-.19-.35,0-.21.6-.57,1.61-1.39,2.79-.51.74-1.02,1.83-1.02,2.9,0,1.83,1.12,3.06,2.59,3.06s2.59-1.24,2.59-3.06c0-1.11-.51-2.16-1.02-2.9Z" fill="none" stroke="#000" stroke-linecap="round" stroke-linejoin="round"/><path d="M256.98,205.79c.41-.93.36-1.83.68-1.67.44.22.94,1.37.75,2.41-.13.74-.56,1.19-1.1.98-.44-.17-.71-.88-.34-1.71Z" fill="none" stroke="#000" stroke-linecap="round" stroke-linejoin="round"/><path d="M248.67,199.6l-4.71-9.55c-.57-1.16-.1-2.57,1.07-3.14l5.25-2.59c1.16-.57,2.57-.1,3.14,1.07l3.72,7.55c1.12,2.27.19,5.01-2.08,6.13l-3.25,1.6c-1.16.57-2.57.1-3.14-1.07Z" fill="none" stroke="#000" stroke-linecap="round" stroke-linejoin="round"/><ellipse cx="245.5" cy="193" rx="9.15" ry="4.95" transform="translate(-59.91 127.87) rotate(-26.13)" fill="none" stroke="#000" stroke-linecap="round" stroke-linejoin="round"/><ellipse cx="247.5" cy="196.5" rx="2.37" ry="7.93" transform="translate(-21.55 362.28) rotate(-70.09)" fill="none" stroke="#000" stroke-linecap="round" stroke-linejoin="round"/><path d="M198,346.29l81.01-42.25s.03-1.07,0-1.82l-90.07-39.06c-.36-.16-.78-.14-1.14.04l-78.32,41.43c-.3.16-.48.46-.48.8v76.54c0,.9.51,1.72,1.29,2.12.81.42,1.62.84,2.43,1.26,2.2,1.13,80.88,42.31,83.48,41.37.77-.27,1.34-.8,1.81-1.42v-79.01Z" fill="#1976d2"/><path d="M195.86,344.82c9.61-4.64,83.2-40.16,83.08-42.6l-90.14-39.09c-.33-.14-.71-.13-1.04.04l-78.4,41.48c-.19.1-.19.38.01.46l84.4,39.71c.67.3,1.42.3,2.08,0Z" fill="#039be5"/><path d="M279.96,384l-82.12,42.33c-1.3.67-2.84-.27-2.84-1.74v-77.46c0-1.84,1.23-2.5,1.88-2.84l81.28-41.91c1.3-.67,2.84-.22,2.84,1.74v78.16c.01.72-.39,1.39-1.04,1.72Z" fill="#0d47a1"/><polygon points="210.59 314.14 163.97 290.85 172.71 286.5 219.34 309.79 210.59 314.14" fill="#212121"/><path d="M215.42,307.84l-34.42-17.2s7.72-7.16,25.15-16.38c.65-.35,3.86-2.21,4.55-1.85l40.87,17.78c-16.63,2.11-36.16,17.65-36.16,17.65Z" fill="#0d47a1"/><polygon points="172.71 289.1 216.72 311.08 219.34 309.79 172.71 286.5 163.97 290.85 166.57 292.15 172.71 289.1" fill="#0d47a1"/><path d="M245.39,273.43c-16.84,10.28-38.35,38.93-38.35,38.93l-35.85-17.91s19.01-31.14,41.23-40.96c.67-.29,1.46-.32,2.15.06l30.62,16.19c1.56.82,1.62,2.82.2,3.69Z" fill="#dfecf5"/><polygon points="194.92 355.72 109 315.3 109 318.46 194.92 358.89 195.54 358.6 194.92 355.72" fill="#0d47a1" isolation="isolate" opacity=".7"/><polygon points="195 355.72 195 358.89 281 314.76 281 311.54 195 355.72" fill="#0a3160"/><path d="M198,346.29l81.01-42.25s.03-1.07,0-1.82l-90.07-39.06c-.36-.16-.78-.14-1.14.04l-78.32,41.43c-.3.16-.48.46-.48.8v76.54c0,.9.51,1.72,1.29,2.12.81.42,1.62.84,2.43,1.26,2.2,1.13,80.88,42.31,83.48,41.37.77-.27,1.34-.8,1.81-1.42v-79.01Z" fill="none" stroke="#000" stroke-linecap="round" stroke-linejoin="round"/><path d="M195.86,344.82c9.61-4.64,83.2-40.16,83.08-42.6l-90.14-39.09c-.33-.14-.71-.13-1.04.04l-78.4,41.48c-.19.1-.19.38.01.46l84.4,39.71c.67.3,1.42.3,2.08,0Z" fill="none" stroke="#000" stroke-linecap="round" stroke-linejoin="round"/><path d="M279.96,384l-82.12,42.33c-1.3.67-2.84-.27-2.84-1.74v-77.46c0-1.84,1.23-2.5,1.88-2.84l81.28-41.91c1.3-.67,2.84-.22,2.84,1.74v78.16c.01.72-.39,1.39-1.04,1.72Z" fill="none" stroke="#000" stroke-linecap="round" stroke-linejoin="round"/><polygon points="210.59 314.14 163.97 290.85 172.71 286.5 219.34 309.79 210.59 314.14" fill="none" stroke="#000" stroke-linecap="round" stroke-linejoin="round"/><path d="M215.42,307.84l-34.42-17.2s7.72-7.16,25.15-16.38c.65-.35,3.86-2.21,4.55-1.85l40.87,17.78c-16.63,2.11-36.16,17.65-36.16,17.65Z" fill="none" stroke="#000" stroke-linecap="round" stroke-linejoin="round"/><polygon points="172.71 289.1 216.72 311.08 219.34 309.79 172.71 286.5 163.97 290.85 166.57 292.15 172.71 289.1" fill="none" stroke="#000" stroke-linecap="round" stroke-linejoin="round"/><path d="M245.39,273.43c-16.84,10.28-38.35,38.93-38.35,38.93l-35.85-17.91s19.01-31.14,41.23-40.96c.67-.29,1.46-.32,2.15.06l30.62,16.19c1.56.82,1.62,2.82.2,3.69Z" fill="none" stroke="#000" stroke-linecap="round" stroke-linejoin="round"/><polygon points="194.92 355.72 109 315.3 109 318.46 194.92 358.89 195.54 358.6 194.92 355.72" fill="none" stroke="#000" stroke-linecap="round" stroke-linejoin="round"/><polygon points="195 355.72 195 358.89 281 314.76 281 311.54 195 355.72" fill="none" stroke="#000" stroke-linecap="round" stroke-linejoin="round"/><g id="uuid-1c5cf17b-69f5-43b0-8c85-a9e44f03f6cd"><polygon id="uuid-b2d718fa-afce-4b55-8055-1d060ef0b50b" points="315 391 335 391 335 425.96 335 433 305 433 305 426 315 426 315 391" fill="#5f4d2f"/><rect id="uuid-79c16cd0-493c-4e6a-b67a-d29f2e6398e3" x="313" y="342" width="25" height="49" fill="#726038"/><polygon id="uuid-a5385630-1b26-4d52-bb33-f6e4a62fc074" points="347 391 367 391 367 426 377 426 377 433 347 433 347 425.96 347 425.96 347 391" fill="#5f4d2f"/><rect id="uuid-b4c36466-0d44-4189-a771-8fbc71320961" x="344" y="342" width="25" height="49" fill="#726038"/><path id="uuid-0cd6b462-ad16-4a6c-a934-c6efd2b557d7" d="M369,242v100h-56v-100h56Z" fill="#726038"/><rect id="uuid-4172e6b9-7832-4b1d-a4c3-eb8b6d91ee21" x="313" y="300" width="56" height="17" fill="#ac935a"/><rect id="uuid-5b1bedf7-5af7-4e15-9c80-194057faa5b7" x="322" y="241" width="7" height="59" fill="#ac935a"/><rect id="uuid-9f0eb9bb-ebd1-422f-b8a2-7fe9cb10595e" x="353" y="241" width="7" height="59" fill="#ac935a"/><path id="uuid-bd20242a-f48a-4369-ac20-588dc3910439" d="M313.92,228.08c-1.92-5.42-2.95-11.51-2.84-17.93.38-22.19,14.17-39.94,30.81-39.66,16.64.28,29.82,18.5,29.44,40.69-.11,6.43-1.35,12.47-3.45,17.83l-53.96-.92Z" fill="#eec6a2"/><path id="uuid-8d6fc640-4dba-4b3f-956d-17cd45b56b90" d="M366.2,234c-5.35,11.19-14.73,18.62-25.42,18.62s-20.07-7.43-25.42-18.62h50.84Z" fill="#eec6a2"/><ellipse id="uuid-3d585986-66ab-46c4-bc29-7387b3136940" cx="321" cy="214.5" rx="2.99" ry="4.51" transform="translate(-16.12 26.36) rotate(-4.59)" fill="#333"/><ellipse id="uuid-1985c7cd-a0cf-4cdb-80a4-eac6c44cc893" cx="337" cy="214.5" rx="2.99" ry="4.51" transform="translate(-16.07 27.63) rotate(-4.59)" fill="#333"/><rect id="uuid-2b01868a-39c6-4a65-92ca-b54e617edd3a" x="273.63" y="238.59" width="15.07" height="32.14" transform="translate(-86.58 347.77) rotate(-56.38)" fill="#726038"/><rect id="uuid-8fb2d605-69a9-4cf5-918b-6abea2c4e39a" x="286.21" y="249.09" width="32.14" height="15.07" transform="translate(-82.32 160.13) rotate(-26.24)" fill="#726038"/><rect id="uuid-6c2a33f8-3bd3-4a5d-9222-c36f11bc29d2" x="370.35" y="241.55" width="15.07" height="32.14" transform="translate(-19.67 31.54) rotate(-4.66)" fill="#726038"/><rect id="uuid-2624f218-d811-492e-a940-a6ecb1413519" x="372.94" y="273.37" width="15.07" height="32.14" transform="translate(-22.25 31.85) rotate(-4.66)" fill="#726038"/><rect id="uuid-f1b6a50d-cf1f-4235-89fc-9626c5af382b" x="252.74" y="233.14" width="16.26" height="16.26" transform="translate(-84.49 324.89) rotate(-56.38)" fill="#eec6a2"/><rect id="uuid-23fc0166-35f7-4bc4-8091-bd04b856cc97" x="374.4" y="305.52" width="16.07" height="16.07" transform="translate(-24.2 32.09) rotate(-4.66)" fill="#eec6a2"/><circle id="uuid-93de9ded-6f69-424c-9e51-573652c89a3f" cx="341" cy="288" r="2" fill="#333"/><circle id="uuid-8acd781d-fbae-4a53-9d31-18a64fdba5a6" cx="341" cy="280" r="2" fill="#333"/><circle id="uuid-46789112-5646-4b85-b6cb-1af31a2fe7fa" cx="341" cy="272" r="2" fill="#333"/><circle id="uuid-9a66b501-2d32-431f-8df6-7840986d365b" cx="341" cy="263" r="2" fill="#333"/><path d="M307.93,186.71c2.05-13.99,16.62-24.67,34.1-24.38,17.48.3,31.67,11.47,33.25,25.52,5.83.93,9.31,2.05,9.29,3.2-.05,2.7-19.34,4.56-43.1,4.16-23.76-.41-42.98-2.92-42.93-5.63.02-1.15,3.54-2.15,9.39-2.88Z" fill="#596a66"/><polygon id="uuid-e9136832-f085-435e-8570-154aac70f4af" points="315 391 335 391 335 425.96 335 433 305 433 305 426 315 426 315 391" fill="none" stroke="#000" stroke-linecap="round" stroke-linejoin="round"/><rect id="uuid-c06b2aeb-29a8-4ed5-805e-2ee312e1a486" x="313" y="342" width="25" height="49" fill="none" stroke="#000" stroke-linecap="round" stroke-linejoin="round"/><polygon id="uuid-fd8431de-dde0-402e-8a1c-240bb0f4046c" points="347 391 367 391 367 426 377 426 377 433 347 433 347 425.96 347 425.96 347 391" fill="none" stroke="#000" stroke-linecap="round" stroke-linejoin="round"/><rect id="uuid-0945ff55-6219-4037-97dc-b0c306ebd6b8" x="344" y="342" width="25" height="49" fill="none" stroke="#000" stroke-linecap="round" stroke-linejoin="round"/><path id="uuid-af5c8a8f-a923-4ffa-acdb-e9c7afadb619" d="M369,242v100h-56v-100h56Z" fill="none" stroke="#000" stroke-linecap="round" stroke-linejoin="round"/><rect id="uuid-3fc46b68-d252-4c20-b992-2d7fc4f2ead9" x="313" y="300" width="56" height="17" fill="none" stroke="#000" stroke-linecap="round" stroke-linejoin="round"/><rect id="uuid-6385462b-c31f-4c5a-afad-8e8811cd8969" x="322" y="241" width="7" height="59" fill="none" stroke="#000" stroke-linecap="round" stroke-linejoin="round"/><rect id="uuid-68481e34-b09e-483e-bd39-2696896980f8" x="353" y="241" width="7" height="59" fill="none" stroke="#000" stroke-linecap="round" stroke-linejoin="round"/><path id="uuid-c2bb4761-1c5e-4473-bcb6-4b5983718072" d="M313.92,228.08c-1.92-5.42-2.95-11.51-2.84-17.93.38-22.19,14.17-39.94,30.81-39.66,16.64.28,29.82,18.5,29.44,40.69-.11,6.43-1.35,12.47-3.45,17.83l-53.96-.92Z" fill="none" stroke="#000" stroke-linecap="round" stroke-linejoin="round"/><path id="uuid-7c7a5cd1-22c3-49a0-be1a-165b49cfc9a0" d="M366.2,234c-5.35,11.19-14.73,18.62-25.42,18.62s-20.07-7.43-25.42-18.62h50.84Z" fill="none" stroke="#000" stroke-linecap="round" stroke-linejoin="round"/><ellipse id="uuid-479e0289-05d9-482d-a382-1bf6e598c73e" cx="321" cy="214.5" rx="2.99" ry="4.51" transform="translate(-16.12 26.36) rotate(-4.59)" fill="none" stroke="#000" stroke-linecap="round" stroke-linejoin="round"/><ellipse id="uuid-0578ac6c-06b5-47f5-bc51-d457f2aeac15" cx="337" cy="214.5" rx="2.99" ry="4.51" transform="translate(-16.07 27.63) rotate(-4.59)" fill="none" stroke="#000" stroke-linecap="round" stroke-linejoin="round"/><rect id="uuid-c7d39cc4-15c6-4cae-9f3b-ee631231bea8" x="273.63" y="238.59" width="15.07" height="32.14" transform="translate(-86.58 347.77) rotate(-56.38)" fill="none" stroke="#000" stroke-linecap="round" stroke-linejoin="round"/><rect id="uuid-1d727369-ece6-4d4f-b740-661b50bfa9f6" x="286.21" y="249.09" width="32.14" height="15.07" transform="translate(-82.32 160.13) rotate(-26.24)" fill="none" stroke="#000" stroke-linecap="round" stroke-linejoin="round"/><rect id="uuid-ce034f55-bf23-4ca5-b0bf-24cd3440b27d" x="370.35" y="241.55" width="15.07" height="32.14" transform="translate(-19.67 31.54) rotate(-4.66)" fill="none" stroke="#000" stroke-linecap="round" stroke-linejoin="round"/><rect id="uuid-b9b2a1e1-5c67-4a2e-81f0-f77ddf370973" x="372.94" y="273.37" width="15.07" height="32.14" transform="translate(-22.25 31.85) rotate(-4.66)" fill="none" stroke="#000" stroke-linecap="round" stroke-linejoin="round"/><rect id="uuid-a1eb8e43-decf-49f7-90b2-67403e8d7f3f" x="252.74" y="233.14" width="16.26" height="16.26" transform="translate(-84.49 324.89) rotate(-56.38)" fill="none" stroke="#000" stroke-linecap="round" stroke-linejoin="round"/><rect id="uuid-9c6d805a-06ee-40b5-9e47-bf404e4fd5ce" x="374.4" y="305.52" width="16.07" height="16.07" transform="translate(-24.2 32.09) rotate(-4.66)" fill="none" stroke="#000" stroke-linecap="round" stroke-linejoin="round"/><circle id="uuid-91f3a801-aae1-423b-ab07-8e9f806a9ea2" cx="341" cy="288" r="2" fill="none" stroke="#000" stroke-linecap="round" stroke-linejoin="round"/><circle id="uuid-469967b0-52c3-4929-906b-bbbf44fc3eaa" cx="341" cy="280" r="2" fill="none" stroke="#000" stroke-linecap="round" stroke-linejoin="round"/><circle id="uuid-21cac6ae-1fc8-4d57-93f0-ae246bf583e5" cx="341" cy="272" r="2" fill="none" stroke="#000" stroke-linecap="round" stroke-linejoin="round"/><circle id="uuid-2ea62e78-bd29-47a3-9b43-272121eb68b7" cx="341" cy="263" r="2" fill="none" stroke="#000" stroke-linecap="round" stroke-linejoin="round"/><path d="M307.93,186.71c2.05-13.99,16.62-24.67,34.1-24.38,17.48.3,31.67,11.47,33.25,25.52,5.83.93,9.31,2.05,9.29,3.2-.05,2.7-19.34,4.56-43.1,4.16-23.76-.41-42.98-2.92-42.93-5.63.02-1.15,3.54-2.15,9.39-2.88Z" fill="none" stroke="#000" stroke-linecap="round" stroke-linejoin="round"/></g></svg>