<?xml version="1.0" encoding="UTF-8"?><svg id="uuid-17c5ad70-9208-43db-ae6f-6bb5ad4432d5" xmlns="http://www.w3.org/2000/svg" viewBox="0 0 500 500"><g id="uuid-dc294074-e211-447a-8d73-d8653bf3894a"><path d="M146.761068,397.444703l39.73426-1.025209v39.794284c0,2.828317-8.895662,5.121546-19.86713,5.121546s-19.86713-2.293229-19.86713-5.121546" fill="#b7d5e5"/><ellipse cx="166.247663" cy="395.910148" rx="20.247664" ry="4.910148" fill="#e0e0e0"/><ellipse cx="166.247664" cy="395.910148" rx="8.395373" ry="1.964059" fill="#82aec0"/><ellipse cx="166.741509" cy="396.401162" rx="6.913836" ry="1.473044" fill="#2f7889"/><path d="M166.689671,391.486801c-.958759,0-2.351675.031476-2.817487.049462-.470335.017986-.42511.269792,0,.292274s6.711318.33724,10.152904.719445c4.96113.548576,8.918275,1.64573,10.5147,2.61698.556263.33724,2.04867.930781,1.325078,2.414636-.189942.386702-.691935,1.155608-3.179283,2.185313-.936147.386702,3.324001.665486,4.255625-.287778,0,0,.058791-1.982969.058791-2.864289.000003-2.832814-9.094647-5.126044-20.310329-5.126044Z" fill="#b7d5e5"/><path d="M175.83641,406.950365s-5.562617-2.302222-16.470768-3.916477c-10.844839-1.605261-12.377951-5.229464-12.377951-5.229464v37.856282c1.370303,5.809515,18.180257,6.097293,23.295149,6.668354,2.686337.301267,6.516851,2.302224,6.516851,2.302224,1.415526-2.778855-1.510497-10.976026-1.659739-13.089397-.244213-3.439846,1.230107-3.367899,1.230107-6.767278s-1.270808-4.617934-1.682353-8.772729c-.411541-4.154795,1.212017-4.815784,1.148703-9.051516Z" fill="#fff"/><path d="M158.68041,404.06809c10.519224,1.72217,17.112959,2.886773,17.112959,2.886773-.230646-.094427-5.503823-2.527049-16.366752-4.136807-10.166475-1.506337-11.550345-4.59995-13.047276-5.975888,0,0,.330139,5.265436,12.301069,7.225922Z" fill="#eee"/><path d="M174.825561,410.295784c-.606007,1.551303-1.297945,3.309446-1.067299,5.652137.212556,2.171824.642187,3.619707,1.022075,4.89672.696458,1.884047,1.202974,3.925472.126628,6.947136-.981371,2.760869-1.19845,5.751061.452245,10.090213.221599.58455,1.334122,3.696148,1.501454,7.109012,0,0,.004523,0,.004523.004497,0,0,.909014-2.549531.321094-5.445297-.755249-3.723126-1.637129-4.163787-1.745667-6.76278-.144718-3.574739,1.302465-4.343645,1.424573-7.868926.135675-4.001912-1.320555-4.793298-1.745667-9.105472-.407021-4.136807,1.334122-4.869742.673844-8.862659-.221599,1.088161-.438675,1.987467-.967804,3.345419Z" fill="#81b6cc"/><path d="M170.33079,441.789475c-.809519-.143889-1.899428-.175364-3.152149-.269791-3.545602-.274289-8.398193-.647501-12.536237-1.582777-5.341016-1.20507-6.919351-2.760869-7.272102-3.893993,0,0,.140196-31.839922.05427-33.683502-.117584-2.576511-1.424572-5.517242-1.424572-5.517242v39.380602c1.42005,6.02535,18.867668,6.331114,24.177025,6.924656,2.785828.310262,4.915906,1.137621,6.313342,1.852571.000003-.004501-.235166-2.158339-6.159577-3.210525Z" fill="#b7d5e5"/><path d="M185.536567,401.208298c-.063314,1.780626-.416065,35.009978-.416065,35.009978-.01809.220329-4.970173,3.493802-9.320773.094427l.619577,4.361632c6.014862-.881319,10.076022-2.545037,10.076022-4.456062l.058791-39.614422c-.00452.004497-.922581,1.848075-1.017552,4.604448Z" fill="#81b6cc"/><path d="M146.761068,397.444703l39.73426-1.025209v39.794284c0,2.828317-8.895662,5.121546-19.86713,5.121546s-19.86713-2.293229-19.86713-5.121546" fill="none" stroke="#000" stroke-linecap="round" stroke-linejoin="round"/><ellipse cx="166.247663" cy="395.910148" rx="20.247664" ry="4.910148" fill="none" stroke="#000" stroke-linecap="round" stroke-linejoin="round"/><ellipse cx="166.247664" cy="395.910148" rx="8.395373" ry="1.964059" fill="none" stroke="#000" stroke-linecap="round" stroke-linejoin="round"/><ellipse cx="166.741509" cy="396.401162" rx="6.913836" ry="1.473044" fill="none" stroke="#000" stroke-linecap="round" stroke-linejoin="round"/><path d="M166.689671,391.486801c-.958759,0-2.351675.031476-2.817487.049462-.470335.017986-.42511.269792,0,.292274s6.711318.33724,10.152904.719445c4.96113.548576,8.918275,1.64573,10.5147,2.61698.556263.33724,2.04867.930781,1.325078,2.414636-.189942.386702-.691935,1.155608-3.179283,2.185313-.936147.386702,3.324001.665486,4.255625-.287778,0,0,.058791-1.982969.058791-2.864289.000003-2.832814-9.094647-5.126044-20.310329-5.126044Z" fill="none" stroke="#000" stroke-linecap="round" stroke-linejoin="round"/><path d="M175.83641,406.950365s-5.562617-2.302222-16.470768-3.916477c-10.844839-1.605261-12.377951-5.229464-12.377951-5.229464v37.856282c1.370303,5.809515,18.180257,6.097293,23.295149,6.668354,2.686337.301267,6.516851,2.302224,6.516851,2.302224,1.415526-2.778855-1.510497-10.976026-1.659739-13.089397-.244213-3.439846,1.230107-3.367899,1.230107-6.767278s-1.270808-4.617934-1.682353-8.772729c-.411541-4.154795,1.212017-4.815784,1.148703-9.051516Z" fill="none" stroke="#000" stroke-linecap="round" stroke-linejoin="round"/><path d="M158.68041,404.06809c10.519224,1.72217,17.112959,2.886773,17.112959,2.886773-.230646-.094427-5.503823-2.527049-16.366752-4.136807-10.166475-1.506337-11.550345-4.59995-13.047276-5.975888,0,0,.330139,5.265436,12.301069,7.225922Z" fill="none" stroke="#000" stroke-linecap="round" stroke-linejoin="round"/><path d="M174.825561,410.295784c-.606007,1.551303-1.297945,3.309446-1.067299,5.652137.212556,2.171824.642187,3.619707,1.022075,4.89672.696458,1.884047,1.202974,3.925472.126628,6.947136-.981371,2.760869-1.19845,5.751061.452245,10.090213.221599.58455,1.334122,3.696148,1.501454,7.109012,0,0,.004523,0,.004523.004497,0,0,.909014-2.549531.321094-5.445297-.755249-3.723126-1.637129-4.163787-1.745667-6.76278-.144718-3.574739,1.302465-4.343645,1.424573-7.868926.135675-4.001912-1.320555-4.793298-1.745667-9.105472-.407021-4.136807,1.334122-4.869742.673844-8.862659-.221599,1.088161-.438675,1.987467-.967804,3.345419Z" fill="none" stroke="#000" stroke-linecap="round" stroke-linejoin="round"/><path d="M170.33079,441.789475c-.809519-.143889-1.899428-.175364-3.152149-.269791-3.545602-.274289-8.398193-.647501-12.536237-1.582777-5.341016-1.20507-6.919351-2.760869-7.272102-3.893993,0,0,.140196-31.839922.05427-33.683502-.117584-2.576511-1.424572-5.517242-1.424572-5.517242v39.380602c1.42005,6.02535,18.867668,6.331114,24.177025,6.924656,2.785828.310262,4.915906,1.137621,6.313342,1.852571.000003-.004501-.235166-2.158339-6.159577-3.210525Z" fill="none" stroke="#000" stroke-linecap="round" stroke-linejoin="round"/><path d="M185.536567,401.208298c-.063314,1.780626-.416065,35.009978-.416065,35.009978-.01809.220329-4.970173,3.493802-9.320773.094427l.619577,4.361632c6.014862-.881319,10.076022-2.545037,10.076022-4.456062l.058791-39.614422c-.00452.004497-.922581,1.848075-1.017552,4.604448Z" fill="none" stroke="#000" stroke-linecap="round" stroke-linejoin="round"/><path d="M146.761068,397.444703l39.73426-1.025209v39.794284c0,2.828317-8.895662,5.121546-19.86713,5.121546s-19.86713-2.293229-19.86713-5.121546" fill="none" stroke="#000" stroke-linecap="round" stroke-linejoin="round"/><ellipse cx="166.247663" cy="395.910148" rx="20.247664" ry="4.910148" fill="none" stroke="#000" stroke-linecap="round" stroke-linejoin="round"/><ellipse cx="166.247664" cy="395.910148" rx="8.395373" ry="1.964059" fill="none" stroke="#000" stroke-linecap="round" stroke-linejoin="round"/><ellipse cx="166.741509" cy="396.401162" rx="6.913836" ry="1.473044" fill="none" stroke="#000" stroke-linecap="round" stroke-linejoin="round"/><path d="M166.689671,391.486801c-.958759,0-2.351675.031476-2.817487.049462-.470335.017986-.42511.269792,0,.292274s6.711318.33724,10.152904.719445c4.96113.548576,8.918275,1.64573,10.5147,2.61698.556263.33724,2.04867.930781,1.325078,2.414636-.189942.386702-.691935,1.155608-3.179283,2.185313-.936147.386702,3.324001.665486,4.255625-.287778,0,0,.058791-1.982969.058791-2.864289.000003-2.832814-9.094647-5.126044-20.310329-5.126044Z" fill="none" stroke="#000" stroke-linecap="round" stroke-linejoin="round"/><path d="M175.83641,406.950365s-5.562617-2.302222-16.470768-3.916477c-10.844839-1.605261-12.377951-5.229464-12.377951-5.229464v37.856282c1.370303,5.809515,18.180257,6.097293,23.295149,6.668354,2.686337.301267,6.516851,2.302224,6.516851,2.302224,1.415526-2.778855-1.510497-10.976026-1.659739-13.089397-.244213-3.439846,1.230107-3.367899,1.230107-6.767278s-1.270808-4.617934-1.682353-8.772729c-.411541-4.154795,1.212017-4.815784,1.148703-9.051516Z" fill="none" stroke="#000" stroke-linecap="round" stroke-linejoin="round"/><path d="M158.68041,404.06809c10.519224,1.72217,17.112959,2.886773,17.112959,2.886773-.230646-.094427-5.503823-2.527049-16.366752-4.136807-10.166475-1.506337-11.550345-4.59995-13.047276-5.975888,0,0,.330139,5.265436,12.301069,7.225922Z" fill="none" stroke="#000" stroke-linecap="round" stroke-linejoin="round"/><path d="M174.825561,410.295784c-.606007,1.551303-1.297945,3.309446-1.067299,5.652137.212556,2.171824.642187,3.619707,1.022075,4.89672.696458,1.884047,1.202974,3.925472.126628,6.947136-.981371,2.760869-1.19845,5.751061.452245,10.090213.221599.58455,1.334122,3.696148,1.501454,7.109012,0,0,.004523,0,.004523.004497,0,0,.909014-2.549531.321094-5.445297-.755249-3.723126-1.637129-4.163787-1.745667-6.76278-.144718-3.574739,1.302465-4.343645,1.424573-7.868926.135675-4.001912-1.320555-4.793298-1.745667-9.105472-.407021-4.136807,1.334122-4.869742.673844-8.862659-.221599,1.088161-.438675,1.987467-.967804,3.345419Z" fill="none" stroke="#000" stroke-linecap="round" stroke-linejoin="round"/><path d="M170.33079,441.789475c-.809519-.143889-1.899428-.175364-3.152149-.269791-3.545602-.274289-8.398193-.647501-12.536237-1.582777-5.341016-1.20507-6.919351-2.760869-7.272102-3.893993,0,0,.140196-31.839922.05427-33.683502-.117584-2.576511-1.424572-5.517242-1.424572-5.517242v39.380602c1.42005,6.02535,18.867668,6.331114,24.177025,6.924656,2.785828.310262,4.915906,1.137621,6.313342,1.852571.000003-.004501-.235166-2.158339-6.159577-3.210525Z" fill="none" stroke="#000" stroke-linecap="round" stroke-linejoin="round"/><path d="M185.536567,401.208298c-.063314,1.780626-.416065,35.009978-.416065,35.009978-.01809.220329-4.970173,3.493802-9.320773.094427l.619577,4.361632c6.014862-.881319,10.076022-2.545037,10.076022-4.456062l.058791-39.614422c-.00452.004497-.922581,1.848075-1.017552,4.604448Z" fill="none" stroke="#000" stroke-linecap="round" stroke-linejoin="round"/></g><g id="uuid-57d22f33-87f5-49a0-a3b8-16e53a2c1bb5"><path d="M73.761068,388.444703l39.73426-1.025209v39.794284c0,2.828317-8.895662,5.121546-19.86713,5.121546s-19.86713-2.293229-19.86713-5.121546" fill="#b7d5e5"/><ellipse cx="93.247663" cy="386.910148" rx="20.247664" ry="4.910148" fill="#e0e0e0"/><ellipse cx="93.247664" cy="386.910148" rx="8.395373" ry="1.964059" fill="#82aec0"/><ellipse cx="93.741509" cy="387.401162" rx="6.913836" ry="1.473044" fill="#2f7889"/><path d="M93.689671,382.486801c-.958759,0-2.351675.031476-2.817487.049462-.470335.017986-.42511.269792,0,.292274s6.711318.33724,10.152904.719445c4.96113.548576,8.918275,1.64573,10.5147,2.61698.556263.33724,2.04867.930781,1.325078,2.414636-.189942.386702-.691935,1.155608-3.179283,2.185313-.936147.386702,3.324001.665486,4.255625-.287778,0,0,.058791-1.982969.058791-2.864289.000003-2.832814-9.094647-5.126044-20.310329-5.126044Z" fill="#b7d5e5"/><path d="M102.83641,397.950365s-5.562617-2.302222-16.470768-3.916477c-10.844839-1.605261-12.377951-5.229464-12.377951-5.229464v37.856282c1.370303,5.809515,18.180257,6.097293,23.295149,6.668354,2.686337.301267,6.516851,2.302224,6.516851,2.302224,1.415526-2.778855-1.510497-10.976026-1.659739-13.089397-.244213-3.439846,1.230107-3.367899,1.230107-6.767278s-1.270808-4.617934-1.682353-8.772729c-.411541-4.154795,1.212017-4.815784,1.148703-9.051516Z" fill="#fff"/><path d="M85.68041,395.06809c10.519224,1.72217,17.112959,2.886773,17.112959,2.886773-.230646-.094427-5.503823-2.527049-16.366752-4.136807-10.166475-1.506337-11.550345-4.59995-13.047276-5.975888,0,0,.330139,5.265436,12.301069,7.225922Z" fill="#eee"/><path d="M101.825561,401.295784c-.606007,1.551303-1.297945,3.309446-1.067299,5.652137.212556,2.171824.642187,3.619707,1.022075,4.89672.696458,1.884047,1.202974,3.925472.126628,6.947136-.981371,2.760869-1.19845,5.751061.452245,10.090213.221599.58455,1.334122,3.696148,1.501454,7.109012,0,0,.004523,0,.004523.004497,0,0,.909014-2.549531.321094-5.445297-.755249-3.723126-1.637129-4.163787-1.745667-6.76278-.144718-3.574739,1.302465-4.343645,1.424573-7.868926.135675-4.001912-1.320555-4.793298-1.745667-9.105472-.407021-4.136807,1.334122-4.869742.673844-8.862659-.221599,1.088161-.438675,1.987467-.967804,3.345419Z" fill="#81b6cc"/><path d="M97.33079,432.789475c-.809519-.143889-1.899428-.175364-3.152149-.269791-3.545602-.274289-8.398193-.647501-12.536237-1.582777-5.341016-1.20507-6.919351-2.760869-7.272102-3.893993,0,0,.140196-31.839922.05427-33.683502-.117584-2.576511-1.424572-5.517242-1.424572-5.517242v39.380602c1.42005,6.02535,18.867668,6.331114,24.177025,6.924656,2.785828.310262,4.915906,1.137621,6.313342,1.852571.000003-.004501-.235166-2.158339-6.159577-3.210525Z" fill="#b7d5e5"/><path d="M112.536567,392.208298c-.063314,1.780626-.416065,35.009978-.416065,35.009978-.01809.220329-4.970173,3.493802-9.320773.094427l.619577,4.361632c6.014862-.881319,10.076022-2.545037,10.076022-4.456062l.058791-39.614422c-.00452.004497-.922581,1.848075-1.017552,4.604448Z" fill="#81b6cc"/><path d="M73.761068,388.444703l39.73426-1.025209v39.794284c0,2.828317-8.895662,5.121546-19.86713,5.121546s-19.86713-2.293229-19.86713-5.121546" fill="none" stroke="#000" stroke-linecap="round" stroke-linejoin="round"/><ellipse cx="93.247663" cy="386.910148" rx="20.247664" ry="4.910148" fill="none" stroke="#000" stroke-linecap="round" stroke-linejoin="round"/><ellipse cx="93.247664" cy="386.910148" rx="8.395373" ry="1.964059" fill="none" stroke="#000" stroke-linecap="round" stroke-linejoin="round"/><ellipse cx="93.741509" cy="387.401162" rx="6.913836" ry="1.473044" fill="none" stroke="#000" stroke-linecap="round" stroke-linejoin="round"/><path d="M93.689671,382.486801c-.958759,0-2.351675.031476-2.817487.049462-.470335.017986-.42511.269792,0,.292274s6.711318.33724,10.152904.719445c4.96113.548576,8.918275,1.64573,10.5147,2.61698.556263.33724,2.04867.930781,1.325078,2.414636-.189942.386702-.691935,1.155608-3.179283,2.185313-.936147.386702,3.324001.665486,4.255625-.287778,0,0,.058791-1.982969.058791-2.864289.000003-2.832814-9.094647-5.126044-20.310329-5.126044Z" fill="none" stroke="#000" stroke-linecap="round" stroke-linejoin="round"/><path d="M102.83641,397.950365s-5.562617-2.302222-16.470768-3.916477c-10.844839-1.605261-12.377951-5.229464-12.377951-5.229464v37.856282c1.370303,5.809515,18.180257,6.097293,23.295149,6.668354,2.686337.301267,6.516851,2.302224,6.516851,2.302224,1.415526-2.778855-1.510497-10.976026-1.659739-13.089397-.244213-3.439846,1.230107-3.367899,1.230107-6.767278s-1.270808-4.617934-1.682353-8.772729c-.411541-4.154795,1.212017-4.815784,1.148703-9.051516Z" fill="none" stroke="#000" stroke-linecap="round" stroke-linejoin="round"/><path d="M85.68041,395.06809c10.519224,1.72217,17.112959,2.886773,17.112959,2.886773-.230646-.094427-5.503823-2.527049-16.366752-4.136807-10.166475-1.506337-11.550345-4.59995-13.047276-5.975888,0,0,.330139,5.265436,12.301069,7.225922Z" fill="none" stroke="#000" stroke-linecap="round" stroke-linejoin="round"/><path d="M101.825561,401.295784c-.606007,1.551303-1.297945,3.309446-1.067299,5.652137.212556,2.171824.642187,3.619707,1.022075,4.89672.696458,1.884047,1.202974,3.925472.126628,6.947136-.981371,2.760869-1.19845,5.751061.452245,10.090213.221599.58455,1.334122,3.696148,1.501454,7.109012,0,0,.004523,0,.004523.004497,0,0,.909014-2.549531.321094-5.445297-.755249-3.723126-1.637129-4.163787-1.745667-6.76278-.144718-3.574739,1.302465-4.343645,1.424573-7.868926.135675-4.001912-1.320555-4.793298-1.745667-9.105472-.407021-4.136807,1.334122-4.869742.673844-8.862659-.221599,1.088161-.438675,1.987467-.967804,3.345419Z" fill="none" stroke="#000" stroke-linecap="round" stroke-linejoin="round"/><path d="M97.33079,432.789475c-.809519-.143889-1.899428-.175364-3.152149-.269791-3.545602-.274289-8.398193-.647501-12.536237-1.582777-5.341016-1.20507-6.919351-2.760869-7.272102-3.893993,0,0,.140196-31.839922.05427-33.683502-.117584-2.576511-1.424572-5.517242-1.424572-5.517242v39.380602c1.42005,6.02535,18.867668,6.331114,24.177025,6.924656,2.785828.310262,4.915906,1.137621,6.313342,1.852571.000003-.004501-.235166-2.158339-6.159577-3.210525Z" fill="none" stroke="#000" stroke-linecap="round" stroke-linejoin="round"/><path d="M112.536567,392.208298c-.063314,1.780626-.416065,35.009978-.416065,35.009978-.01809.220329-4.970173,3.493802-9.320773.094427l.619577,4.361632c6.014862-.881319,10.076022-2.545037,10.076022-4.456062l.058791-39.614422c-.00452.004497-.922581,1.848075-1.017552,4.604448Z" fill="none" stroke="#000" stroke-linecap="round" stroke-linejoin="round"/><path d="M73.761068,388.444703l39.73426-1.025209v39.794284c0,2.828317-8.895662,5.121546-19.86713,5.121546s-19.86713-2.293229-19.86713-5.121546" fill="none" stroke="#000" stroke-linecap="round" stroke-linejoin="round"/><ellipse cx="93.247663" cy="386.910148" rx="20.247664" ry="4.910148" fill="none" stroke="#000" stroke-linecap="round" stroke-linejoin="round"/><ellipse cx="93.247664" cy="386.910148" rx="8.395373" ry="1.964059" fill="none" stroke="#000" stroke-linecap="round" stroke-linejoin="round"/><ellipse cx="93.741509" cy="387.401162" rx="6.913836" ry="1.473044" fill="none" stroke="#000" stroke-linecap="round" stroke-linejoin="round"/><path d="M93.689671,382.486801c-.958759,0-2.351675.031476-2.817487.049462-.470335.017986-.42511.269792,0,.292274s6.711318.33724,10.152904.719445c4.96113.548576,8.918275,1.64573,10.5147,2.61698.556263.33724,2.04867.930781,1.325078,2.414636-.189942.386702-.691935,1.155608-3.179283,2.185313-.936147.386702,3.324001.665486,4.255625-.287778,0,0,.058791-1.982969.058791-2.864289.000003-2.832814-9.094647-5.126044-20.310329-5.126044Z" fill="none" stroke="#000" stroke-linecap="round" stroke-linejoin="round"/><path d="M102.83641,397.950365s-5.562617-2.302222-16.470768-3.916477c-10.844839-1.605261-12.377951-5.229464-12.377951-5.229464v37.856282c1.370303,5.809515,18.180257,6.097293,23.295149,6.668354,2.686337.301267,6.516851,2.302224,6.516851,2.302224,1.415526-2.778855-1.510497-10.976026-1.659739-13.089397-.244213-3.439846,1.230107-3.367899,1.230107-6.767278s-1.270808-4.617934-1.682353-8.772729c-.411541-4.154795,1.212017-4.815784,1.148703-9.051516Z" fill="none" stroke="#000" stroke-linecap="round" stroke-linejoin="round"/><path d="M85.68041,395.06809c10.519224,1.72217,17.112959,2.886773,17.112959,2.886773-.230646-.094427-5.503823-2.527049-16.366752-4.136807-10.166475-1.506337-11.550345-4.59995-13.047276-5.975888,0,0,.330139,5.265436,12.301069,7.225922Z" fill="none" stroke="#000" stroke-linecap="round" stroke-linejoin="round"/><path d="M101.825561,401.295784c-.606007,1.551303-1.297945,3.309446-1.067299,5.652137.212556,2.171824.642187,3.619707,1.022075,4.89672.696458,1.884047,1.202974,3.925472.126628,6.947136-.981371,2.760869-1.19845,5.751061.452245,10.090213.221599.58455,1.334122,3.696148,1.501454,7.109012,0,0,.004523,0,.004523.004497,0,0,.909014-2.549531.321094-5.445297-.755249-3.723126-1.637129-4.163787-1.745667-6.76278-.144718-3.574739,1.302465-4.343645,1.424573-7.868926.135675-4.001912-1.320555-4.793298-1.745667-9.105472-.407021-4.136807,1.334122-4.869742.673844-8.862659-.221599,1.088161-.438675,1.987467-.967804,3.345419Z" fill="none" stroke="#000" stroke-linecap="round" stroke-linejoin="round"/><path d="M97.33079,432.789475c-.809519-.143889-1.899428-.175364-3.152149-.269791-3.545602-.274289-8.398193-.647501-12.536237-1.582777-5.341016-1.20507-6.919351-2.760869-7.272102-3.893993,0,0,.140196-31.839922.05427-33.683502-.117584-2.576511-1.424572-5.517242-1.424572-5.517242v39.380602c1.42005,6.02535,18.867668,6.331114,24.177025,6.924656,2.785828.310262,4.915906,1.137621,6.313342,1.852571.000003-.004501-.235166-2.158339-6.159577-3.210525Z" fill="none" stroke="#000" stroke-linecap="round" stroke-linejoin="round"/><path d="M112.536567,392.208298c-.063314,1.780626-.416065,35.009978-.416065,35.009978-.01809.220329-4.970173,3.493802-9.320773.094427l.619577,4.361632c6.014862-.881319,10.076022-2.545037,10.076022-4.456062l.058791-39.614422c-.00452.004497-.922581,1.848075-1.017552,4.604448Z" fill="none" stroke="#000" stroke-linecap="round" stroke-linejoin="round"/></g><g id="uuid-1cfe5c4c-3621-4242-a17b-5227b6e1754c"><path d="M100.761068,397.444703l39.73426-1.025209v39.794284c0,2.828317-8.895662,5.121546-19.86713,5.121546s-19.86713-2.293229-19.86713-5.121546" fill="#b7d5e5"/><ellipse cx="120.247663" cy="395.910148" rx="20.247664" ry="4.910148" fill="#e0e0e0"/><ellipse cx="120.247664" cy="395.910148" rx="8.395373" ry="1.964059" fill="#82aec0"/><ellipse cx="120.741509" cy="396.401162" rx="6.913836" ry="1.473044" fill="#2f7889"/><path d="M120.689671,391.486801c-.958759,0-2.351675.031476-2.817487.049462-.470335.017986-.42511.269792,0,.292274s6.711318.33724,10.152904.719445c4.96113.548576,8.918275,1.64573,10.5147,2.61698.556263.33724,2.04867.930781,1.325078,2.414636-.189942.386702-.691935,1.155608-3.179283,2.185313-.936147.386702,3.324001.665486,4.255625-.287778,0,0,.058791-1.982969.058791-2.864289.000003-2.832814-9.094647-5.126044-20.310329-5.126044Z" fill="#b7d5e5"/><path d="M129.83641,406.950365s-5.562617-2.302222-16.470768-3.916477c-10.844839-1.605261-12.377951-5.229464-12.377951-5.229464v37.856282c1.370303,5.809515,18.180257,6.097293,23.295149,6.668354,2.686337.301267,6.516851,2.302224,6.516851,2.302224,1.415526-2.778855-1.510497-10.976026-1.659739-13.089397-.244213-3.439846,1.230107-3.367899,1.230107-6.767278s-1.270808-4.617934-1.682353-8.772729c-.411541-4.154795,1.212017-4.815784,1.148703-9.051516Z" fill="#fff"/><path d="M112.68041,404.06809c10.519224,1.72217,17.112959,2.886773,17.112959,2.886773-.230646-.094427-5.503823-2.527049-16.366752-4.136807-10.166475-1.506337-11.550345-4.59995-13.047276-5.975888,0,0,.330139,5.265436,12.301069,7.225922Z" fill="#eee"/><path d="M128.825561,410.295784c-.606007,1.551303-1.297945,3.309446-1.067299,5.652137.212556,2.171824.642187,3.619707,1.022075,4.89672.696458,1.884047,1.202974,3.925472.126628,6.947136-.981371,2.760869-1.19845,5.751061.452245,10.090213.221599.58455,1.334122,3.696148,1.501454,7.109012,0,0,.004523,0,.004523.004497,0,0,.909014-2.549531.321094-5.445297-.755249-3.723126-1.637129-4.163787-1.745667-6.76278-.144718-3.574739,1.302465-4.343645,1.424573-7.868926.135675-4.001912-1.320555-4.793298-1.745667-9.105472-.407021-4.136807,1.334122-4.869742.673844-8.862659-.221599,1.088161-.438675,1.987467-.967804,3.345419Z" fill="#81b6cc"/><path d="M124.33079,441.789475c-.809519-.143889-1.899428-.175364-3.152149-.269791-3.545602-.274289-8.398193-.647501-12.536237-1.582777-5.341016-1.20507-6.919351-2.760869-7.272102-3.893993,0,0,.140196-31.839922.05427-33.683502-.117584-2.576511-1.424572-5.517242-1.424572-5.517242v39.380602c1.42005,6.02535,18.867668,6.331114,24.177025,6.924656,2.785828.310262,4.915906,1.137621,6.313342,1.852571.000003-.004501-.235166-2.158339-6.159577-3.210525Z" fill="#b7d5e5"/><path d="M139.536567,401.208298c-.063314,1.780626-.416065,35.009978-.416065,35.009978-.01809.220329-4.970173,3.493802-9.320773.094427l.619577,4.361632c6.014862-.881319,10.076022-2.545037,10.076022-4.456062l.058791-39.614422c-.00452.004497-.922581,1.848075-1.017552,4.604448Z" fill="#81b6cc"/><path d="M100.761068,397.444703l39.73426-1.025209v39.794284c0,2.828317-8.895662,5.121546-19.86713,5.121546s-19.86713-2.293229-19.86713-5.121546" fill="none" stroke="#000" stroke-linecap="round" stroke-linejoin="round"/><ellipse cx="120.247663" cy="395.910148" rx="20.247664" ry="4.910148" fill="none" stroke="#000" stroke-linecap="round" stroke-linejoin="round"/><ellipse cx="120.247664" cy="395.910148" rx="8.395373" ry="1.964059" fill="none" stroke="#000" stroke-linecap="round" stroke-linejoin="round"/><ellipse cx="120.741509" cy="396.401162" rx="6.913836" ry="1.473044" fill="none" stroke="#000" stroke-linecap="round" stroke-linejoin="round"/><path d="M120.689671,391.486801c-.958759,0-2.351675.031476-2.817487.049462-.470335.017986-.42511.269792,0,.292274s6.711318.33724,10.152904.719445c4.96113.548576,8.918275,1.64573,10.5147,2.61698.556263.33724,2.04867.930781,1.325078,2.414636-.189942.386702-.691935,1.155608-3.179283,2.185313-.936147.386702,3.324001.665486,4.255625-.287778,0,0,.058791-1.982969.058791-2.864289.000003-2.832814-9.094647-5.126044-20.310329-5.126044Z" fill="none" stroke="#000" stroke-linecap="round" stroke-linejoin="round"/><path d="M129.83641,406.950365s-5.562617-2.302222-16.470768-3.916477c-10.844839-1.605261-12.377951-5.229464-12.377951-5.229464v37.856282c1.370303,5.809515,18.180257,6.097293,23.295149,6.668354,2.686337.301267,6.516851,2.302224,6.516851,2.302224,1.415526-2.778855-1.510497-10.976026-1.659739-13.089397-.244213-3.439846,1.230107-3.367899,1.230107-6.767278s-1.270808-4.617934-1.682353-8.772729c-.411541-4.154795,1.212017-4.815784,1.148703-9.051516Z" fill="none" stroke="#000" stroke-linecap="round" stroke-linejoin="round"/><path d="M112.68041,404.06809c10.519224,1.72217,17.112959,2.886773,17.112959,2.886773-.230646-.094427-5.503823-2.527049-16.366752-4.136807-10.166475-1.506337-11.550345-4.59995-13.047276-5.975888,0,0,.330139,5.265436,12.301069,7.225922Z" fill="none" stroke="#000" stroke-linecap="round" stroke-linejoin="round"/><path d="M128.825561,410.295784c-.606007,1.551303-1.297945,3.309446-1.067299,5.652137.212556,2.171824.642187,3.619707,1.022075,4.89672.696458,1.884047,1.202974,3.925472.126628,6.947136-.981371,2.760869-1.19845,5.751061.452245,10.090213.221599.58455,1.334122,3.696148,1.501454,7.109012,0,0,.004523,0,.004523.004497,0,0,.909014-2.549531.321094-5.445297-.755249-3.723126-1.637129-4.163787-1.745667-6.76278-.144718-3.574739,1.302465-4.343645,1.424573-7.868926.135675-4.001912-1.320555-4.793298-1.745667-9.105472-.407021-4.136807,1.334122-4.869742.673844-8.862659-.221599,1.088161-.438675,1.987467-.967804,3.345419Z" fill="none" stroke="#000" stroke-linecap="round" stroke-linejoin="round"/><path d="M124.33079,441.789475c-.809519-.143889-1.899428-.175364-3.152149-.269791-3.545602-.274289-8.398193-.647501-12.536237-1.582777-5.341016-1.20507-6.919351-2.760869-7.272102-3.893993,0,0,.140196-31.839922.05427-33.683502-.117584-2.576511-1.424572-5.517242-1.424572-5.517242v39.380602c1.42005,6.02535,18.867668,6.331114,24.177025,6.924656,2.785828.310262,4.915906,1.137621,6.313342,1.852571.000003-.004501-.235166-2.158339-6.159577-3.210525Z" fill="none" stroke="#000" stroke-linecap="round" stroke-linejoin="round"/><path d="M139.536567,401.208298c-.063314,1.780626-.416065,35.009978-.416065,35.009978-.01809.220329-4.970173,3.493802-9.320773.094427l.619577,4.361632c6.014862-.881319,10.076022-2.545037,10.076022-4.456062l.058791-39.614422c-.00452.004497-.922581,1.848075-1.017552,4.604448Z" fill="none" stroke="#000" stroke-linecap="round" stroke-linejoin="round"/><path d="M100.761068,397.444703l39.73426-1.025209v39.794284c0,2.828317-8.895662,5.121546-19.86713,5.121546s-19.86713-2.293229-19.86713-5.121546" fill="none" stroke="#000" stroke-linecap="round" stroke-linejoin="round"/><ellipse cx="120.247663" cy="395.910148" rx="20.247664" ry="4.910148" fill="none" stroke="#000" stroke-linecap="round" stroke-linejoin="round"/><ellipse cx="120.247664" cy="395.910148" rx="8.395373" ry="1.964059" fill="none" stroke="#000" stroke-linecap="round" stroke-linejoin="round"/><ellipse cx="120.741509" cy="396.401162" rx="6.913836" ry="1.473044" fill="none" stroke="#000" stroke-linecap="round" stroke-linejoin="round"/><path d="M120.689671,391.486801c-.958759,0-2.351675.031476-2.817487.049462-.470335.017986-.42511.269792,0,.292274s6.711318.33724,10.152904.719445c4.96113.548576,8.918275,1.64573,10.5147,2.61698.556263.33724,2.04867.930781,1.325078,2.414636-.189942.386702-.691935,1.155608-3.179283,2.185313-.936147.386702,3.324001.665486,4.255625-.287778,0,0,.058791-1.982969.058791-2.864289.000003-2.832814-9.094647-5.126044-20.310329-5.126044Z" fill="none" stroke="#000" stroke-linecap="round" stroke-linejoin="round"/><path d="M129.83641,406.950365s-5.562617-2.302222-16.470768-3.916477c-10.844839-1.605261-12.377951-5.229464-12.377951-5.229464v37.856282c1.370303,5.809515,18.180257,6.097293,23.295149,6.668354,2.686337.301267,6.516851,2.302224,6.516851,2.302224,1.415526-2.778855-1.510497-10.976026-1.659739-13.089397-.244213-3.439846,1.230107-3.367899,1.230107-6.767278s-1.270808-4.617934-1.682353-8.772729c-.411541-4.154795,1.212017-4.815784,1.148703-9.051516Z" fill="none" stroke="#000" stroke-linecap="round" stroke-linejoin="round"/><path d="M112.68041,404.06809c10.519224,1.72217,17.112959,2.886773,17.112959,2.886773-.230646-.094427-5.503823-2.527049-16.366752-4.136807-10.166475-1.506337-11.550345-4.59995-13.047276-5.975888,0,0,.330139,5.265436,12.301069,7.225922Z" fill="none" stroke="#000" stroke-linecap="round" stroke-linejoin="round"/><path d="M128.825561,410.295784c-.606007,1.551303-1.297945,3.309446-1.067299,5.652137.212556,2.171824.642187,3.619707,1.022075,4.89672.696458,1.884047,1.202974,3.925472.126628,6.947136-.981371,2.760869-1.19845,5.751061.452245,10.090213.221599.58455,1.334122,3.696148,1.501454,7.109012,0,0,.004523,0,.004523.004497,0,0,.909014-2.549531.321094-5.445297-.755249-3.723126-1.637129-4.163787-1.745667-6.76278-.144718-3.574739,1.302465-4.343645,1.424573-7.868926.135675-4.001912-1.320555-4.793298-1.745667-9.105472-.407021-4.136807,1.334122-4.869742.673844-8.862659-.221599,1.088161-.438675,1.987467-.967804,3.345419Z" fill="none" stroke="#000" stroke-linecap="round" stroke-linejoin="round"/><path d="M124.33079,441.789475c-.809519-.143889-1.899428-.175364-3.152149-.269791-3.545602-.274289-8.398193-.647501-12.536237-1.582777-5.341016-1.20507-6.919351-2.760869-7.272102-3.893993,0,0,.140196-31.839922.05427-33.683502-.117584-2.576511-1.424572-5.517242-1.424572-5.517242v39.380602c1.42005,6.02535,18.867668,6.331114,24.177025,6.924656,2.785828.310262,4.915906,1.137621,6.313342,1.852571.000003-.004501-.235166-2.158339-6.159577-3.210525Z" fill="none" stroke="#000" stroke-linecap="round" stroke-linejoin="round"/><path d="M139.536567,401.208298c-.063314,1.780626-.416065,35.009978-.416065,35.009978-.01809.220329-4.970173,3.493802-9.320773.094427l.619577,4.361632c6.014862-.881319,10.076022-2.545037,10.076022-4.456062l.058791-39.614422c-.00452.004497-.922581,1.848075-1.017552,4.604448Z" fill="none" stroke="#000" stroke-linecap="round" stroke-linejoin="round"/></g><text transform="translate(251.855469 314.77356)" fill="#333" font-family="ComicNeue-Regular, &apos;Comic Neue&apos;" font-size="24"><tspan x="0" y="0">But he was poor. </tspan><tspan x="0" y="28.799805">And lonely.</tspan></text><text transform="translate(134.273438 65.734497)" fill="#333" font-family="ComicNeue-Bold, &apos;Comic Neue&apos;" font-size="24" font-weight="700"><tspan x="0" y="0">No one wants to buy my </tspan><tspan x="0" y="28.800293">toilet papers.</tspan></text><path d="M189.03268,233.789564c4.737962-1.915089,23.70608-11.120505,36.226347-57.352704,5.558542-20.525408,7.93108-41.277069,9.023662-55.254434" fill="none" stroke="#333" stroke-miterlimit="10" stroke-width="2"/><g id="uuid-3678aa3f-76df-4641-8535-c3e85f3ad5e2"><path d="M103.761068,349.564049l39.73426-1.044194v40.531216c0,2.880694-8.895662,5.21639-19.86713,5.21639s-19.86713-2.335696-19.86713-5.21639" fill="#b7d5e5"/><ellipse cx="123.247663" cy="348.001076" rx="20.247664" ry="5.001076" fill="#e0e0e0"/><ellipse cx="123.247664" cy="348.001076" rx="8.395373" ry="2.000431" fill="#82aec0"/><ellipse cx="123.741509" cy="348.501184" rx="6.913836" ry="1.500323" fill="#2f7889"/><path d="M123.689671,343.495816c-.958759,0-2.351675.032059-2.817487.050378-.470335.018319-.42511.274788,0,.297687s6.711318.343485,10.152904.732768c4.96113.558735,8.918275,1.676206,10.5147,2.665443.556263.343485,2.04867.948018,1.325078,2.459351-.189942.393863-.691935,1.177008-3.179283,2.225782-.936147.393863,3.324001.67781,4.255625-.293107,0,0,.058791-2.019691.058791-2.917331.000003-2.885273-9.094647-5.220971-20.310329-5.220971Z" fill="#b7d5e5"/><path d="M132.83641,359.245742s-5.562617-2.344856-16.470768-3.989004c-10.844839-1.634988-12.377951-5.326306-12.377951-5.326306v38.557325c1.370303,5.917099,18.180257,6.210205,23.295149,6.791842,2.686337.306846,6.516851,2.344858,6.516851,2.344858,1.415526-2.830315-1.510497-11.179286-1.659739-13.331793-.244213-3.503546,1.230107-3.430268,1.230107-6.892598s-1.270808-4.703451-1.682353-8.935187c-.411541-4.231736,1.212017-4.904965,1.148703-9.219136Z" fill="#fff"/><path d="M115.68041,356.310092c10.519224,1.754062,17.112959,2.940231,17.112959,2.940231-.230646-.096175-5.503823-2.573846-16.366752-4.213415-10.166475-1.534233-11.550345-4.685134-13.047276-6.086552,0,0,.330139,5.362944,12.301069,7.359736Z" fill="#eee"/><path d="M131.825561,362.653113c-.606007,1.580031-1.297945,3.370732-1.067299,5.756806.212556,2.212043.642187,3.686739,1.022075,4.9874.696458,1.918937,1.202974,3.998165.126628,7.075787-.981371,2.811996-1.19845,5.857562.452245,10.277068.221599.595375,1.334122,3.764595,1.501454,7.24066,0,0,.004523,0,.004523.004581,0,0,.909014-2.596745.321094-5.546136-.755249-3.792072-1.637129-4.240894-1.745667-6.888017-.144718-3.640938,1.302465-4.424083,1.424573-8.014647.135675-4.076021-1.320555-4.882063-1.745667-9.274092-.407021-4.213415,1.334122-4.959922.673844-9.026782-.221599,1.108312-.438675,2.024272-.967804,3.407371Z" fill="#81b6cc"/><path d="M127.33079,394.730021c-.809519-.146553-1.899428-.178612-3.152149-.274787-3.545602-.279368-8.398193-.659492-12.536237-1.612087-5.341016-1.227386-6.919351-2.811996-7.272102-3.966103,0,0,.140196-32.42955.05427-34.307271-.117584-2.624224-1.424572-5.619413-1.424572-5.619413v40.109872c1.42005,6.13693,18.867668,6.448357,24.177025,7.05289,2.785828.316007,4.915906,1.158688,6.313342,1.886878.000003-.004584-.235166-2.198308-6.159577-3.269979Z" fill="#b7d5e5"/><path d="M142.536567,353.397341c-.063314,1.813601-.416065,35.65831-.416065,35.65831-.01809.224409-4.970173,3.558502-9.320773.096175l.619577,4.442403c6.014862-.89764,10.076022-2.592167,10.076022-4.538582l.058791-40.348022c-.00452.004581-.922581,1.882298-1.017552,4.689715Z" fill="#81b6cc"/><path d="M103.761068,349.564049l39.73426-1.044194v40.531216c0,2.880694-8.895662,5.21639-19.86713,5.21639s-19.86713-2.335696-19.86713-5.21639" fill="none" stroke="#000" stroke-linecap="round" stroke-linejoin="round"/><ellipse cx="123.247663" cy="348.001076" rx="20.247664" ry="5.001076" fill="none" stroke="#000" stroke-linecap="round" stroke-linejoin="round"/><ellipse cx="123.247664" cy="348.001076" rx="8.395373" ry="2.000431" fill="none" stroke="#000" stroke-linecap="round" stroke-linejoin="round"/><ellipse cx="123.741509" cy="348.501184" rx="6.913836" ry="1.500323" fill="none" stroke="#000" stroke-linecap="round" stroke-linejoin="round"/><path d="M123.689671,343.495816c-.958759,0-2.351675.032059-2.817487.050378-.470335.018319-.42511.274788,0,.297687s6.711318.343485,10.152904.732768c4.96113.558735,8.918275,1.676206,10.5147,2.665443.556263.343485,2.04867.948018,1.325078,2.459351-.189942.393863-.691935,1.177008-3.179283,2.225782-.936147.393863,3.324001.67781,4.255625-.293107,0,0,.058791-2.019691.058791-2.917331.000003-2.885273-9.094647-5.220971-20.310329-5.220971Z" fill="none" stroke="#000" stroke-linecap="round" stroke-linejoin="round"/><path d="M132.83641,359.245742s-5.562617-2.344856-16.470768-3.989004c-10.844839-1.634988-12.377951-5.326306-12.377951-5.326306v38.557325c1.370303,5.917099,18.180257,6.210205,23.295149,6.791842,2.686337.306846,6.516851,2.344858,6.516851,2.344858,1.415526-2.830315-1.510497-11.179286-1.659739-13.331793-.244213-3.503546,1.230107-3.430268,1.230107-6.892598s-1.270808-4.703451-1.682353-8.935187c-.411541-4.231736,1.212017-4.904965,1.148703-9.219136Z" fill="none" stroke="#000" stroke-linecap="round" stroke-linejoin="round"/><path d="M115.68041,356.310092c10.519224,1.754062,17.112959,2.940231,17.112959,2.940231-.230646-.096175-5.503823-2.573846-16.366752-4.213415-10.166475-1.534233-11.550345-4.685134-13.047276-6.086552,0,0,.330139,5.362944,12.301069,7.359736Z" fill="none" stroke="#000" stroke-linecap="round" stroke-linejoin="round"/><path d="M131.825561,362.653113c-.606007,1.580031-1.297945,3.370732-1.067299,5.756806.212556,2.212043.642187,3.686739,1.022075,4.9874.696458,1.918937,1.202974,3.998165.126628,7.075787-.981371,2.811996-1.19845,5.857562.452245,10.277068.221599.595375,1.334122,3.764595,1.501454,7.24066,0,0,.004523,0,.004523.004581,0,0,.909014-2.596745.321094-5.546136-.755249-3.792072-1.637129-4.240894-1.745667-6.888017-.144718-3.640938,1.302465-4.424083,1.424573-8.014647.135675-4.076021-1.320555-4.882063-1.745667-9.274092-.407021-4.213415,1.334122-4.959922.673844-9.026782-.221599,1.108312-.438675,2.024272-.967804,3.407371Z" fill="none" stroke="#000" stroke-linecap="round" stroke-linejoin="round"/><path d="M127.33079,394.730021c-.809519-.146553-1.899428-.178612-3.152149-.274787-3.545602-.279368-8.398193-.659492-12.536237-1.612087-5.341016-1.227386-6.919351-2.811996-7.272102-3.966103,0,0,.140196-32.42955.05427-34.307271-.117584-2.624224-1.424572-5.619413-1.424572-5.619413v40.109872c1.42005,6.13693,18.867668,6.448357,24.177025,7.05289,2.785828.316007,4.915906,1.158688,6.313342,1.886878.000003-.004584-.235166-2.198308-6.159577-3.269979Z" fill="none" stroke="#000" stroke-linecap="round" stroke-linejoin="round"/><path d="M142.536567,353.397341c-.063314,1.813601-.416065,35.65831-.416065,35.65831-.01809.224409-4.970173,3.558502-9.320773.096175l.619577,4.442403c6.014862-.89764,10.076022-2.592167,10.076022-4.538582l.058791-40.348022c-.00452.004581-.922581,1.882298-1.017552,4.689715Z" fill="none" stroke="#000" stroke-linecap="round" stroke-linejoin="round"/><path d="M103.761068,349.564049l39.73426-1.044194v40.531216c0,2.880694-8.895662,5.21639-19.86713,5.21639s-19.86713-2.335696-19.86713-5.21639" fill="none" stroke="#000" stroke-linecap="round" stroke-linejoin="round"/><ellipse cx="123.247663" cy="348.001076" rx="20.247664" ry="5.001076" fill="none" stroke="#000" stroke-linecap="round" stroke-linejoin="round"/><ellipse cx="123.247664" cy="348.001076" rx="8.395373" ry="2.000431" fill="none" stroke="#000" stroke-linecap="round" stroke-linejoin="round"/><ellipse cx="123.741509" cy="348.501184" rx="6.913836" ry="1.500323" fill="none" stroke="#000" stroke-linecap="round" stroke-linejoin="round"/><path d="M123.689671,343.495816c-.958759,0-2.351675.032059-2.817487.050378-.470335.018319-.42511.274788,0,.297687s6.711318.343485,10.152904.732768c4.96113.558735,8.918275,1.676206,10.5147,2.665443.556263.343485,2.04867.948018,1.325078,2.459351-.189942.393863-.691935,1.177008-3.179283,2.225782-.936147.393863,3.324001.67781,4.255625-.293107,0,0,.058791-2.019691.058791-2.917331.000003-2.885273-9.094647-5.220971-20.310329-5.220971Z" fill="none" stroke="#000" stroke-linecap="round" stroke-linejoin="round"/><path d="M132.83641,359.245742s-5.562617-2.344856-16.470768-3.989004c-10.844839-1.634988-12.377951-5.326306-12.377951-5.326306v38.557325c1.370303,5.917099,18.180257,6.210205,23.295149,6.791842,2.686337.306846,6.516851,2.344858,6.516851,2.344858,1.415526-2.830315-1.510497-11.179286-1.659739-13.331793-.244213-3.503546,1.230107-3.430268,1.230107-6.892598s-1.270808-4.703451-1.682353-8.935187c-.411541-4.231736,1.212017-4.904965,1.148703-9.219136Z" fill="none" stroke="#000" stroke-linecap="round" stroke-linejoin="round"/><path d="M115.68041,356.310092c10.519224,1.754062,17.112959,2.940231,17.112959,2.940231-.230646-.096175-5.503823-2.573846-16.366752-4.213415-10.166475-1.534233-11.550345-4.685134-13.047276-6.086552,0,0,.330139,5.362944,12.301069,7.359736Z" fill="none" stroke="#000" stroke-linecap="round" stroke-linejoin="round"/><path d="M131.825561,362.653113c-.606007,1.580031-1.297945,3.370732-1.067299,5.756806.212556,2.212043.642187,3.686739,1.022075,4.9874.696458,1.918937,1.202974,3.998165.126628,7.075787-.981371,2.811996-1.19845,5.857562.452245,10.277068.221599.595375,1.334122,3.764595,1.501454,7.24066,0,0,.004523,0,.004523.004581,0,0,.909014-2.596745.321094-5.546136-.755249-3.792072-1.637129-4.240894-1.745667-6.888017-.144718-3.640938,1.302465-4.424083,1.424573-8.014647.135675-4.076021-1.320555-4.882063-1.745667-9.274092-.407021-4.213415,1.334122-4.959922.673844-9.026782-.221599,1.108312-.438675,2.024272-.967804,3.407371Z" fill="none" stroke="#000" stroke-linecap="round" stroke-linejoin="round"/><path d="M127.33079,394.730021c-.809519-.146553-1.899428-.178612-3.152149-.274787-3.545602-.279368-8.398193-.659492-12.536237-1.612087-5.341016-1.227386-6.919351-2.811996-7.272102-3.966103,0,0,.140196-32.42955.05427-34.307271-.117584-2.624224-1.424572-5.619413-1.424572-5.619413v40.109872c1.42005,6.13693,18.867668,6.448357,24.177025,7.05289,2.785828.316007,4.915906,1.158688,6.313342,1.886878.000003-.004584-.235166-2.198308-6.159577-3.269979Z" fill="none" stroke="#000" stroke-linecap="round" stroke-linejoin="round"/><path d="M142.536567,353.397341c-.063314,1.813601-.416065,35.65831-.416065,35.65831-.01809.224409-4.970173,3.558502-9.320773.096175l.619577,4.442403c6.014862-.89764,10.076022-2.592167,10.076022-4.538582l.058791-40.348022c-.00452.004581-.922581,1.882298-1.017552,4.689715Z" fill="none" stroke="#000" stroke-linecap="round" stroke-linejoin="round"/></g><g id="uuid-04d7dff9-4815-48aa-9ef1-1179f81226e1"><path d="M127.761068,406.444703l39.73426-1.025209v39.794284c0,2.828317-8.895662,5.121546-19.86713,5.121546s-19.86713-2.293229-19.86713-5.121546" fill="#b7d5e5"/><ellipse cx="147.247663" cy="404.910148" rx="20.247664" ry="4.910148" fill="#e0e0e0"/><ellipse cx="147.247664" cy="404.910148" rx="8.395373" ry="1.964059" fill="#82aec0"/><ellipse cx="147.741509" cy="405.401162" rx="6.913836" ry="1.473044" fill="#2f7889"/><path d="M147.689671,400.486801c-.958759,0-2.351675.031476-2.817487.049462-.470335.017986-.42511.269792,0,.292274s6.711318.33724,10.152904.719445c4.96113.548576,8.918275,1.64573,10.5147,2.61698.556263.33724,2.04867.930781,1.325078,2.414636-.189942.386702-.691935,1.155608-3.179283,2.185313-.936147.386702,3.324001.665486,4.255625-.287778,0,0,.058791-1.982969.058791-2.864289.000003-2.832814-9.094647-5.126044-20.310329-5.126044Z" fill="#b7d5e5"/><path d="M156.83641,415.950365s-5.562617-2.302222-16.470768-3.916477c-10.844839-1.605261-12.377951-5.229464-12.377951-5.229464v37.856282c1.370303,5.809515,18.180257,6.097293,23.295149,6.668354,2.686337.301267,6.516851,2.302224,6.516851,2.302224,1.415526-2.778855-1.510497-10.976026-1.659739-13.089397-.244213-3.439846,1.230107-3.367899,1.230107-6.767278s-1.270808-4.617934-1.682353-8.772729c-.411541-4.154795,1.212017-4.815784,1.148703-9.051516Z" fill="#fff"/><path d="M139.68041,413.06809c10.519224,1.72217,17.112959,2.886773,17.112959,2.886773-.230646-.094427-5.503823-2.527049-16.366752-4.136807-10.166475-1.506337-11.550345-4.59995-13.047276-5.975888,0,0,.330139,5.265436,12.301069,7.225922Z" fill="#eee"/><path d="M155.825561,419.295784c-.606007,1.551303-1.297945,3.309446-1.067299,5.652137.212556,2.171824.642187,3.619707,1.022075,4.89672.696458,1.884047,1.202974,3.925472.126628,6.947136-.981371,2.760869-1.19845,5.751061.452245,10.090213.221599.58455,1.334122,3.696148,1.501454,7.109012,0,0,.004523,0,.004523.004497,0,0,.909014-2.549531.321094-5.445297-.755249-3.723126-1.637129-4.163787-1.745667-6.76278-.144718-3.574739,1.302465-4.343645,1.424573-7.868926.135675-4.001912-1.320555-4.793298-1.745667-9.105472-.407021-4.136807,1.334122-4.869742.673844-8.862659-.221599,1.088161-.438675,1.987467-.967804,3.345419Z" fill="#81b6cc"/><path d="M151.33079,450.789475c-.809519-.143889-1.899428-.175364-3.152149-.269791-3.545602-.274289-8.398193-.647501-12.536237-1.582777-5.341016-1.20507-6.919351-2.760869-7.272102-3.893993,0,0,.140196-31.839922.05427-33.683502-.117584-2.576511-1.424572-5.517242-1.424572-5.517242v39.380602c1.42005,6.02535,18.867668,6.331114,24.177025,6.924656,2.785828.310262,4.915906,1.137621,6.313342,1.852571.000003-.004501-.235166-2.158339-6.159577-3.210525Z" fill="#b7d5e5"/><path d="M166.536567,410.208298c-.063314,1.780626-.416065,35.009978-.416065,35.009978-.01809.220329-4.970173,3.493802-9.320773.094427l.619577,4.361632c6.014862-.881319,10.076022-2.545037,10.076022-4.456062l.058791-39.614422c-.00452.004497-.922581,1.848075-1.017552,4.604448Z" fill="#81b6cc"/><path d="M127.761068,406.444703l39.73426-1.025209v39.794284c0,2.828317-8.895662,5.121546-19.86713,5.121546s-19.86713-2.293229-19.86713-5.121546" fill="none" stroke="#000" stroke-linecap="round" stroke-linejoin="round"/><ellipse cx="147.247663" cy="404.910148" rx="20.247664" ry="4.910148" fill="none" stroke="#000" stroke-linecap="round" stroke-linejoin="round"/><ellipse cx="147.247664" cy="404.910148" rx="8.395373" ry="1.964059" fill="none" stroke="#000" stroke-linecap="round" stroke-linejoin="round"/><ellipse cx="147.741509" cy="405.401162" rx="6.913836" ry="1.473044" fill="none" stroke="#000" stroke-linecap="round" stroke-linejoin="round"/><path d="M147.689671,400.486801c-.958759,0-2.351675.031476-2.817487.049462-.470335.017986-.42511.269792,0,.292274s6.711318.33724,10.152904.719445c4.96113.548576,8.918275,1.64573,10.5147,2.61698.556263.33724,2.04867.930781,1.325078,2.414636-.189942.386702-.691935,1.155608-3.179283,2.185313-.936147.386702,3.324001.665486,4.255625-.287778,0,0,.058791-1.982969.058791-2.864289.000003-2.832814-9.094647-5.126044-20.310329-5.126044Z" fill="none" stroke="#000" stroke-linecap="round" stroke-linejoin="round"/><path d="M156.83641,415.950365s-5.562617-2.302222-16.470768-3.916477c-10.844839-1.605261-12.377951-5.229464-12.377951-5.229464v37.856282c1.370303,5.809515,18.180257,6.097293,23.295149,6.668354,2.686337.301267,6.516851,2.302224,6.516851,2.302224,1.415526-2.778855-1.510497-10.976026-1.659739-13.089397-.244213-3.439846,1.230107-3.367899,1.230107-6.767278s-1.270808-4.617934-1.682353-8.772729c-.411541-4.154795,1.212017-4.815784,1.148703-9.051516Z" fill="none" stroke="#000" stroke-linecap="round" stroke-linejoin="round"/><path d="M139.68041,413.06809c10.519224,1.72217,17.112959,2.886773,17.112959,2.886773-.230646-.094427-5.503823-2.527049-16.366752-4.136807-10.166475-1.506337-11.550345-4.59995-13.047276-5.975888,0,0,.330139,5.265436,12.301069,7.225922Z" fill="none" stroke="#000" stroke-linecap="round" stroke-linejoin="round"/><path d="M155.825561,419.295784c-.606007,1.551303-1.297945,3.309446-1.067299,5.652137.212556,2.171824.642187,3.619707,1.022075,4.89672.696458,1.884047,1.202974,3.925472.126628,6.947136-.981371,2.760869-1.19845,5.751061.452245,10.090213.221599.58455,1.334122,3.696148,1.501454,7.109012,0,0,.004523,0,.004523.004497,0,0,.909014-2.549531.321094-5.445297-.755249-3.723126-1.637129-4.163787-1.745667-6.76278-.144718-3.574739,1.302465-4.343645,1.424573-7.868926.135675-4.001912-1.320555-4.793298-1.745667-9.105472-.407021-4.136807,1.334122-4.869742.673844-8.862659-.221599,1.088161-.438675,1.987467-.967804,3.345419Z" fill="none" stroke="#000" stroke-linecap="round" stroke-linejoin="round"/><path d="M151.33079,450.789475c-.809519-.143889-1.899428-.175364-3.152149-.269791-3.545602-.274289-8.398193-.647501-12.536237-1.582777-5.341016-1.20507-6.919351-2.760869-7.272102-3.893993,0,0,.140196-31.839922.05427-33.683502-.117584-2.576511-1.424572-5.517242-1.424572-5.517242v39.380602c1.42005,6.02535,18.867668,6.331114,24.177025,6.924656,2.785828.310262,4.915906,1.137621,6.313342,1.852571.000003-.004501-.235166-2.158339-6.159577-3.210525Z" fill="none" stroke="#000" stroke-linecap="round" stroke-linejoin="round"/><path d="M166.536567,410.208298c-.063314,1.780626-.416065,35.009978-.416065,35.009978-.01809.220329-4.970173,3.493802-9.320773.094427l.619577,4.361632c6.014862-.881319,10.076022-2.545037,10.076022-4.456062l.058791-39.614422c-.00452.004497-.922581,1.848075-1.017552,4.604448Z" fill="none" stroke="#000" stroke-linecap="round" stroke-linejoin="round"/><path d="M127.761068,406.444703l39.73426-1.025209v39.794284c0,2.828317-8.895662,5.121546-19.86713,5.121546s-19.86713-2.293229-19.86713-5.121546" fill="none" stroke="#000" stroke-linecap="round" stroke-linejoin="round"/><ellipse cx="147.247663" cy="404.910148" rx="20.247664" ry="4.910148" fill="none" stroke="#000" stroke-linecap="round" stroke-linejoin="round"/><ellipse cx="147.247664" cy="404.910148" rx="8.395373" ry="1.964059" fill="none" stroke="#000" stroke-linecap="round" stroke-linejoin="round"/><ellipse cx="147.741509" cy="405.401162" rx="6.913836" ry="1.473044" fill="none" stroke="#000" stroke-linecap="round" stroke-linejoin="round"/><path d="M147.689671,400.486801c-.958759,0-2.351675.031476-2.817487.049462-.470335.017986-.42511.269792,0,.292274s6.711318.33724,10.152904.719445c4.96113.548576,8.918275,1.64573,10.5147,2.61698.556263.33724,2.04867.930781,1.325078,2.414636-.189942.386702-.691935,1.155608-3.179283,2.185313-.936147.386702,3.324001.665486,4.255625-.287778,0,0,.058791-1.982969.058791-2.864289.000003-2.832814-9.094647-5.126044-20.310329-5.126044Z" fill="none" stroke="#000" stroke-linecap="round" stroke-linejoin="round"/><path d="M156.83641,415.950365s-5.562617-2.302222-16.470768-3.916477c-10.844839-1.605261-12.377951-5.229464-12.377951-5.229464v37.856282c1.370303,5.809515,18.180257,6.097293,23.295149,6.668354,2.686337.301267,6.516851,2.302224,6.516851,2.302224,1.415526-2.778855-1.510497-10.976026-1.659739-13.089397-.244213-3.439846,1.230107-3.367899,1.230107-6.767278s-1.270808-4.617934-1.682353-8.772729c-.411541-4.154795,1.212017-4.815784,1.148703-9.051516Z" fill="none" stroke="#000" stroke-linecap="round" stroke-linejoin="round"/><path d="M139.68041,413.06809c10.519224,1.72217,17.112959,2.886773,17.112959,2.886773-.230646-.094427-5.503823-2.527049-16.366752-4.136807-10.166475-1.506337-11.550345-4.59995-13.047276-5.975888,0,0,.330139,5.265436,12.301069,7.225922Z" fill="none" stroke="#000" stroke-linecap="round" stroke-linejoin="round"/><path d="M155.825561,419.295784c-.606007,1.551303-1.297945,3.309446-1.067299,5.652137.212556,2.171824.642187,3.619707,1.022075,4.89672.696458,1.884047,1.202974,3.925472.126628,6.947136-.981371,2.760869-1.19845,5.751061.452245,10.090213.221599.58455,1.334122,3.696148,1.501454,7.109012,0,0,.004523,0,.004523.004497,0,0,.909014-2.549531.321094-5.445297-.755249-3.723126-1.637129-4.163787-1.745667-6.76278-.144718-3.574739,1.302465-4.343645,1.424573-7.868926.135675-4.001912-1.320555-4.793298-1.745667-9.105472-.407021-4.136807,1.334122-4.869742.673844-8.862659-.221599,1.088161-.438675,1.987467-.967804,3.345419Z" fill="none" stroke="#000" stroke-linecap="round" stroke-linejoin="round"/><path d="M151.33079,450.789475c-.809519-.143889-1.899428-.175364-3.152149-.269791-3.545602-.274289-8.398193-.647501-12.536237-1.582777-5.341016-1.20507-6.919351-2.760869-7.272102-3.893993,0,0,.140196-31.839922.05427-33.683502-.117584-2.576511-1.424572-5.517242-1.424572-5.517242v39.380602c1.42005,6.02535,18.867668,6.331114,24.177025,6.924656,2.785828.310262,4.915906,1.137621,6.313342,1.852571.000003-.004501-.235166-2.158339-6.159577-3.210525Z" fill="none" stroke="#000" stroke-linecap="round" stroke-linejoin="round"/><path d="M166.536567,410.208298c-.063314,1.780626-.416065,35.009978-.416065,35.009978-.01809.220329-4.970173,3.493802-9.320773.094427l.619577,4.361632c6.014862-.881319,10.076022-2.545037,10.076022-4.456062l.058791-39.614422c-.00452.004497-.922581,1.848075-1.017552,4.604448Z" fill="none" stroke="#000" stroke-linecap="round" stroke-linejoin="round"/></g><g id="uuid-089f52d3-dc11-4a0b-8170-08afdb5dd381"><path d="M129.761068,358.444703l39.73426-1.025209v39.794284c0,2.828317-8.895662,5.121546-19.86713,5.121546s-19.86713-2.293229-19.86713-5.121546" fill="#b7d5e5"/><ellipse cx="149.247663" cy="356.910148" rx="20.247664" ry="4.910148" fill="#e0e0e0"/><ellipse cx="149.247664" cy="356.910148" rx="8.395373" ry="1.964059" fill="#82aec0"/><ellipse cx="149.741509" cy="357.401162" rx="6.913836" ry="1.473044" fill="#2f7889"/><path d="M149.689671,352.486801c-.958759,0-2.351675.031476-2.817487.049462-.470335.017986-.42511.269792,0,.292274s6.711318.33724,10.152904.719445c4.96113.548576,8.918275,1.64573,10.5147,2.61698.556263.33724,2.04867.930781,1.325078,2.414636-.189942.386702-.691935,1.155608-3.179283,2.185313-.936147.386702,3.324001.665486,4.255625-.287778,0,0,.058791-1.982969.058791-2.864289.000003-2.832814-9.094647-5.126044-20.310329-5.126044Z" fill="#b7d5e5"/><path d="M158.83641,367.950365s-5.562617-2.302222-16.470768-3.916477c-10.844839-1.605261-12.377951-5.229464-12.377951-5.229464v37.856282c1.370303,5.809515,18.180257,6.097293,23.295149,6.668354,2.686337.301267,6.516851,2.302224,6.516851,2.302224,1.415526-2.778855-1.510497-10.976026-1.659739-13.089397-.244213-3.439846,1.230107-3.367899,1.230107-6.767278s-1.270808-4.617934-1.682353-8.772729c-.411541-4.154795,1.212017-4.815784,1.148703-9.051516Z" fill="#fff"/><path d="M141.68041,365.06809c10.519224,1.72217,17.112959,2.886773,17.112959,2.886773-.230646-.094427-5.503823-2.527049-16.366752-4.136807-10.166475-1.506337-11.550345-4.59995-13.047276-5.975888,0,0,.330139,5.265436,12.301069,7.225922Z" fill="#eee"/><path d="M157.825561,371.295784c-.606007,1.551303-1.297945,3.309446-1.067299,5.652137.212556,2.171824.642187,3.619707,1.022075,4.89672.696458,1.884047,1.202974,3.925472.126628,6.947136-.981371,2.760869-1.19845,5.751061.452245,10.090213.221599.58455,1.334122,3.696148,1.501454,7.109012,0,0,.004523,0,.004523.004497,0,0,.909014-2.549531.321094-5.445297-.755249-3.723126-1.637129-4.163787-1.745667-6.76278-.144718-3.574739,1.302465-4.343645,1.424573-7.868926.135675-4.001912-1.320555-4.793298-1.745667-9.105472-.407021-4.136807,1.334122-4.869742.673844-8.862659-.221599,1.088161-.438675,1.987467-.967804,3.345419Z" fill="#81b6cc"/><path d="M153.33079,402.789475c-.809519-.143889-1.899428-.175364-3.152149-.269791-3.545602-.274289-8.398193-.647501-12.536237-1.582777-5.341016-1.20507-6.919351-2.760869-7.272102-3.893993,0,0,.140196-31.839922.05427-33.683502-.117584-2.576511-1.424572-5.517242-1.424572-5.517242v39.380602c1.42005,6.02535,18.867668,6.331114,24.177025,6.924656,2.785828.310262,4.915906,1.137621,6.313342,1.852571.000003-.004501-.235166-2.158339-6.159577-3.210525Z" fill="#b7d5e5"/><path d="M168.536567,362.208298c-.063314,1.780626-.416065,35.009978-.416065,35.009978-.01809.220329-4.970173,3.493802-9.320773.094427l.619577,4.361632c6.014862-.881319,10.076022-2.545037,10.076022-4.456062l.058791-39.614422c-.00452.004497-.922581,1.848075-1.017552,4.604448Z" fill="#81b6cc"/><path d="M129.761068,358.444703l39.73426-1.025209v39.794284c0,2.828317-8.895662,5.121546-19.86713,5.121546s-19.86713-2.293229-19.86713-5.121546" fill="none" stroke="#000" stroke-linecap="round" stroke-linejoin="round"/><ellipse cx="149.247663" cy="356.910148" rx="20.247664" ry="4.910148" fill="none" stroke="#000" stroke-linecap="round" stroke-linejoin="round"/><ellipse cx="149.247664" cy="356.910148" rx="8.395373" ry="1.964059" fill="none" stroke="#000" stroke-linecap="round" stroke-linejoin="round"/><ellipse cx="149.741509" cy="357.401162" rx="6.913836" ry="1.473044" fill="none" stroke="#000" stroke-linecap="round" stroke-linejoin="round"/><path d="M149.689671,352.486801c-.958759,0-2.351675.031476-2.817487.049462-.470335.017986-.42511.269792,0,.292274s6.711318.33724,10.152904.719445c4.96113.548576,8.918275,1.64573,10.5147,2.61698.556263.33724,2.04867.930781,1.325078,2.414636-.189942.386702-.691935,1.155608-3.179283,2.185313-.936147.386702,3.324001.665486,4.255625-.287778,0,0,.058791-1.982969.058791-2.864289.000003-2.832814-9.094647-5.126044-20.310329-5.126044Z" fill="none" stroke="#000" stroke-linecap="round" stroke-linejoin="round"/><path d="M158.83641,367.950365s-5.562617-2.302222-16.470768-3.916477c-10.844839-1.605261-12.377951-5.229464-12.377951-5.229464v37.856282c1.370303,5.809515,18.180257,6.097293,23.295149,6.668354,2.686337.301267,6.516851,2.302224,6.516851,2.302224,1.415526-2.778855-1.510497-10.976026-1.659739-13.089397-.244213-3.439846,1.230107-3.367899,1.230107-6.767278s-1.270808-4.617934-1.682353-8.772729c-.411541-4.154795,1.212017-4.815784,1.148703-9.051516Z" fill="none" stroke="#000" stroke-linecap="round" stroke-linejoin="round"/><path d="M141.68041,365.06809c10.519224,1.72217,17.112959,2.886773,17.112959,2.886773-.230646-.094427-5.503823-2.527049-16.366752-4.136807-10.166475-1.506337-11.550345-4.59995-13.047276-5.975888,0,0,.330139,5.265436,12.301069,7.225922Z" fill="none" stroke="#000" stroke-linecap="round" stroke-linejoin="round"/><path d="M157.825561,371.295784c-.606007,1.551303-1.297945,3.309446-1.067299,5.652137.212556,2.171824.642187,3.619707,1.022075,4.89672.696458,1.884047,1.202974,3.925472.126628,6.947136-.981371,2.760869-1.19845,5.751061.452245,10.090213.221599.58455,1.334122,3.696148,1.501454,7.109012,0,0,.004523,0,.004523.004497,0,0,.909014-2.549531.321094-5.445297-.755249-3.723126-1.637129-4.163787-1.745667-6.76278-.144718-3.574739,1.302465-4.343645,1.424573-7.868926.135675-4.001912-1.320555-4.793298-1.745667-9.105472-.407021-4.136807,1.334122-4.869742.673844-8.862659-.221599,1.088161-.438675,1.987467-.967804,3.345419Z" fill="none" stroke="#000" stroke-linecap="round" stroke-linejoin="round"/><path d="M153.33079,402.789475c-.809519-.143889-1.899428-.175364-3.152149-.269791-3.545602-.274289-8.398193-.647501-12.536237-1.582777-5.341016-1.20507-6.919351-2.760869-7.272102-3.893993,0,0,.140196-31.839922.05427-33.683502-.117584-2.576511-1.424572-5.517242-1.424572-5.517242v39.380602c1.42005,6.02535,18.867668,6.331114,24.177025,6.924656,2.785828.310262,4.915906,1.137621,6.313342,1.852571.000003-.004501-.235166-2.158339-6.159577-3.210525Z" fill="none" stroke="#000" stroke-linecap="round" stroke-linejoin="round"/><path d="M168.536567,362.208298c-.063314,1.780626-.416065,35.009978-.416065,35.009978-.01809.220329-4.970173,3.493802-9.320773.094427l.619577,4.361632c6.014862-.881319,10.076022-2.545037,10.076022-4.456062l.058791-39.614422c-.00452.004497-.922581,1.848075-1.017552,4.604448Z" fill="none" stroke="#000" stroke-linecap="round" stroke-linejoin="round"/><path d="M129.761068,358.444703l39.73426-1.025209v39.794284c0,2.828317-8.895662,5.121546-19.86713,5.121546s-19.86713-2.293229-19.86713-5.121546" fill="none" stroke="#000" stroke-linecap="round" stroke-linejoin="round"/><ellipse cx="149.247663" cy="356.910148" rx="20.247664" ry="4.910148" fill="none" stroke="#000" stroke-linecap="round" stroke-linejoin="round"/><ellipse cx="149.247664" cy="356.910148" rx="8.395373" ry="1.964059" fill="none" stroke="#000" stroke-linecap="round" stroke-linejoin="round"/><ellipse cx="149.741509" cy="357.401162" rx="6.913836" ry="1.473044" fill="none" stroke="#000" stroke-linecap="round" stroke-linejoin="round"/><path d="M149.689671,352.486801c-.958759,0-2.351675.031476-2.817487.049462-.470335.017986-.42511.269792,0,.292274s6.711318.33724,10.152904.719445c4.96113.548576,8.918275,1.64573,10.5147,2.61698.556263.33724,2.04867.930781,1.325078,2.414636-.189942.386702-.691935,1.155608-3.179283,2.185313-.936147.386702,3.324001.665486,4.255625-.287778,0,0,.058791-1.982969.058791-2.864289.000003-2.832814-9.094647-5.126044-20.310329-5.126044Z" fill="none" stroke="#000" stroke-linecap="round" stroke-linejoin="round"/><path d="M158.83641,367.950365s-5.562617-2.302222-16.470768-3.916477c-10.844839-1.605261-12.377951-5.229464-12.377951-5.229464v37.856282c1.370303,5.809515,18.180257,6.097293,23.295149,6.668354,2.686337.301267,6.516851,2.302224,6.516851,2.302224,1.415526-2.778855-1.510497-10.976026-1.659739-13.089397-.244213-3.439846,1.230107-3.367899,1.230107-6.767278s-1.270808-4.617934-1.682353-8.772729c-.411541-4.154795,1.212017-4.815784,1.148703-9.051516Z" fill="none" stroke="#000" stroke-linecap="round" stroke-linejoin="round"/><path d="M141.68041,365.06809c10.519224,1.72217,17.112959,2.886773,17.112959,2.886773-.230646-.094427-5.503823-2.527049-16.366752-4.136807-10.166475-1.506337-11.550345-4.59995-13.047276-5.975888,0,0,.330139,5.265436,12.301069,7.225922Z" fill="none" stroke="#000" stroke-linecap="round" stroke-linejoin="round"/><path d="M157.825561,371.295784c-.606007,1.551303-1.297945,3.309446-1.067299,5.652137.212556,2.171824.642187,3.619707,1.022075,4.89672.696458,1.884047,1.202974,3.925472.126628,6.947136-.981371,2.760869-1.19845,5.751061.452245,10.090213.221599.58455,1.334122,3.696148,1.501454,7.109012,0,0,.004523,0,.004523.004497,0,0,.909014-2.549531.321094-5.445297-.755249-3.723126-1.637129-4.163787-1.745667-6.76278-.144718-3.574739,1.302465-4.343645,1.424573-7.868926.135675-4.001912-1.320555-4.793298-1.745667-9.105472-.407021-4.136807,1.334122-4.869742.673844-8.862659-.221599,1.088161-.438675,1.987467-.967804,3.345419Z" fill="none" stroke="#000" stroke-linecap="round" stroke-linejoin="round"/><path d="M153.33079,402.789475c-.809519-.143889-1.899428-.175364-3.152149-.269791-3.545602-.274289-8.398193-.647501-12.536237-1.582777-5.341016-1.20507-6.919351-2.760869-7.272102-3.893993,0,0,.140196-31.839922.05427-33.683502-.117584-2.576511-1.424572-5.517242-1.424572-5.517242v39.380602c1.42005,6.02535,18.867668,6.331114,24.177025,6.924656,2.785828.310262,4.915906,1.137621,6.313342,1.852571.000003-.004501-.235166-2.158339-6.159577-3.210525Z" fill="none" stroke="#000" stroke-linecap="round" stroke-linejoin="round"/><path d="M168.536567,362.208298c-.063314,1.780626-.416065,35.009978-.416065,35.009978-.01809.220329-4.970173,3.493802-9.320773.094427l.619577,4.361632c6.014862-.881319,10.076022-2.545037,10.076022-4.456062l.058791-39.614422c-.00452.004497-.922581,1.848075-1.017552,4.604448Z" fill="none" stroke="#000" stroke-linecap="round" stroke-linejoin="round"/></g><g id="uuid-b49b8f63-5df1-4186-a9ee-391a1ad89d92"><polygon id="uuid-778daed0-ff67-4314-9820-6c883a12acac" points="194.863039 367.767812 178.807177 381.355913 202.423421 409.261149 207.179264 414.88071 231.263094 394.498528 226.507251 388.878968 218.479283 395.673049 194.863039 367.767812" fill="#336"/><rect id="uuid-ee7b9e00-c5a1-4f59-87f9-cca36a02a3d2" x="161.605738" y="342.299624" width="21.033969" height="41.520841" transform="translate(-218.483447 268.902477) rotate(-51.082017)" fill="#336"/><polygon id="uuid-4593930c-b292-4b60-9cab-19cc9e240347" points="127.000033 389 148 389 148 426 159 426 159 434 127 434 127 426.45692 127.000033 426.45692 127.000033 389" fill="#336"/><rect id="uuid-5af8daf6-7a5a-49ab-8811-d8b6c6a2091b" x="120.552946" y="352.884399" width="21.033953" height="41.520841" transform="translate(-110.377753 59.8092) rotate(-18.242451)" fill="#336"/><polygon id="uuid-585f3521-63aa-408f-ba5a-2ad1772c1721" points="151.02472 311.701859 151.051071 311 150.817725 311 143.31948 270.884272 148.78671 262 132.281446 262 137.748676 270.884272 130.250431 311 130.017085 311 130.043436 311.701859 130.017085 312 130.15195 312 140.534078 325.339671 150.916206 312 151.051071 312 151.02472 311.701859" fill="#c1272d"/><path id="uuid-d335e340-dd2d-466e-b4c6-673623a6e4f3" d="M112,253v105h59v-105h-59ZM140.534078,305.598122l-20.845856-51.598122h41.691712l-20.845856,51.598122Z" fill="#336"/><path id="uuid-df48f1ce-ad40-4256-9b25-dbfe49dc3892" d="M169.523101,239.000012c2.106577-5.640045,3.297604-11.994724,3.297605-18.723314.000005-23.233477-14.125845-42.067973-31.550969-42.067977-17.425124-.000004-31.550982,18.834486-31.550987,42.067963-.000001,6.72859,1.191022,13.08327,3.297597,18.723316l56.506753.000012Z" fill="#eec6a2"/><path id="uuid-2a46efd9-4749-4fab-831a-a3a93ccdb0e2" d="M114.089176,245c5.601114,11.714982,15.424687,19.491869,26.616708,19.491869s21.015594-7.776887,26.616708-19.491869h-53.233416Z" fill="#eec6a2"/><ellipse id="uuid-a4416bff-997b-4ceb-b8e1-7cdc737cef03" cx="150" cy="219.5" rx="3" ry="4.5" fill="#333"/><ellipse id="uuid-d83fe743-fbb7-4894-b659-4ce110887454" cx="133" cy="219.5" rx="3" ry="4.5" fill="#333"/><path id="uuid-d9ebcdcd-4a37-4d81-b3f0-69acff12b0c3" d="M115.176668,185.45158c10.297757-10.933008,30.921416-10.216486,41.135843-9.861598,12.789553.444346,27.741732,3.131415,28.069161,6.985311.290151,3.415145-11.099447,5.447022-11.130877,10.683405-.022863,3.808615,5.981775,6.182252,5.32346,7.190756-1.39644,2.139294-27.282267-10.278018-32.908672-4.930811-2.527836,2.402389.761873,6.74818-1.935806,8.423456-2.787032,1.730776-7.062011-2.43349-17.422238-4.930807-8.91632-2.149266-13.321149-.889894-15.002482-3.492656-2.236826-3.462658,3.196135-9.349925,3.871611-10.067056Z" fill="#534741"/><rect id="uuid-01708136-83e1-455e-a725-2404d6d06331" x="174.358404" y="283.5018" width="15.77546" height="33.654371" transform="translate(-94.719196 84.224014) rotate(-20.786225)" fill="#336"/><rect id="uuid-e533af5a-f491-4bf3-8f93-4041efac42e8" x="165.812536" y="252.501795" width="15.77546" height="33.654371" transform="translate(-37.564813 28.337386) rotate(-8.419925)" fill="#336"/><rect id="uuid-784bb9b0-adf1-49ee-a937-7a3f6fc400ce" x="85.846857" y="260.389552" width="33.654371" height="15.77546" transform="translate(-182.66718 301.368751) rotate(-75.672476)" fill="#336"/><rect id="uuid-30d57f53-2544-476f-8586-f371653c09a8" x="78.996152" y="291.915406" width="33.654371" height="15.77546" transform="translate(-215.574566 345.57844) rotate(-80.637589)" fill="#336"/><rect id="uuid-1acbe6d9-1a57-42cd-9a64-31154fd5e5ca" x="182.823482" y="313.356593" width="16.827188" height="16.827188" transform="translate(-115.209974 106.83327) rotate(-24.230605)" fill="#eec6a2"/><rect id="uuid-993b2a85-0384-4f06-a827-2fa643d7db20" x="83.505618" y="314.945277" width="16.827188" height="16.827188" transform="translate(-242.085524 361.45004) rotate(-80.637589)" fill="#eec6a2"/><polygon id="uuid-85e6e3a3-0e64-4830-b1a3-4104010e8b15" points="194.863039 367.767812 178.807177 381.355913 202.423421 409.261149 207.179264 414.88071 231.263094 394.498528 226.507251 388.878968 218.479283 395.673049 194.863039 367.767812" fill="none" stroke="#000" stroke-linecap="round" stroke-linejoin="round"/><rect id="uuid-ce57224f-922e-45bd-aba0-dc6323518493" x="161.605738" y="342.299624" width="21.033969" height="41.520841" transform="translate(-218.483447 268.902477) rotate(-51.082017)" fill="none" stroke="#000" stroke-linecap="round" stroke-linejoin="round"/><polygon id="uuid-7b1c3bf5-5e8d-4cdd-a3d7-e997a5bf9f6a" points="127.000033 389 148 389 148 426 159 426 159 434 127 434 127 426.45692 127.000033 426.45692 127.000033 389" fill="none" stroke="#000" stroke-linecap="round" stroke-linejoin="round"/><rect id="uuid-36a427ee-07da-4da1-8c0a-f6f188aabfe1" x="120.552946" y="352.884399" width="21.033953" height="41.520841" transform="translate(-110.377753 59.8092) rotate(-18.242451)" fill="none" stroke="#000" stroke-linecap="round" stroke-linejoin="round"/><polygon id="uuid-620fbce3-ca3f-469b-b240-51015e58559a" points="151.02472 311.701859 151.051071 311 150.817725 311 143.31948 270.884272 148.78671 262 132.281446 262 137.748676 270.884272 130.250431 311 130.017085 311 130.043436 311.701859 130.017085 312 130.15195 312 140.534078 325.339671 150.916206 312 151.051071 312 151.02472 311.701859" fill="none" stroke="#000" stroke-linecap="round" stroke-linejoin="round"/><path id="uuid-95031a72-cd63-4f7a-aeca-f6b5fcdc287b" d="M112,253v105h59v-105h-59ZM140.534078,305.598122l-20.845856-51.598122h41.691712l-20.845856,51.598122Z" fill="none" stroke="#000" stroke-linecap="round" stroke-linejoin="round"/><path id="uuid-e03f5901-6aa9-431a-b883-67d5070b1868" d="M169.523101,239.000012c2.106577-5.640045,3.297604-11.994724,3.297605-18.723314.000005-23.233477-14.125845-42.067973-31.550969-42.067977-17.425124-.000004-31.550982,18.834486-31.550987,42.067963-.000001,6.72859,1.191022,13.08327,3.297597,18.723316l56.506753.000012Z" fill="none" stroke="#000" stroke-linecap="round" stroke-linejoin="round"/><path id="uuid-9a68dac4-5d42-4755-b098-9bc80e34cf05" d="M114.089176,245c5.601114,11.714982,15.424687,19.491869,26.616708,19.491869s21.015594-7.776887,26.616708-19.491869h-53.233416Z" fill="none" stroke="#000" stroke-linecap="round" stroke-linejoin="round"/><ellipse id="uuid-8d3d4b12-b8ec-4549-be88-17cb05f58e22" cx="150" cy="219.5" rx="3" ry="4.5" fill="none" stroke="#000" stroke-linecap="round" stroke-linejoin="round"/><ellipse id="uuid-dd45a1e1-2b79-47a9-94ae-2af5923dee59" cx="133" cy="219.5" rx="3" ry="4.5" fill="none" stroke="#000" stroke-linecap="round" stroke-linejoin="round"/><path id="uuid-fa249da2-96e1-409d-ba2b-35bd695673cc" d="M115.176668,185.45158c10.297757-10.933008,30.921416-10.216486,41.135843-9.861598,12.789553.444346,27.741732,3.131415,28.069161,6.985311.290151,3.415145-11.099447,5.447022-11.130877,10.683405-.022863,3.808615,5.981775,6.182252,5.32346,7.190756-1.39644,2.139294-27.282267-10.278018-32.908672-4.930811-2.527836,2.402389.761873,6.74818-1.935806,8.423456-2.787032,1.730776-7.062011-2.43349-17.422238-4.930807-8.91632-2.149266-13.321149-.889894-15.002482-3.492656-2.236826-3.462658,3.196135-9.349925,3.871611-10.067056Z" fill="none" stroke="#000" stroke-linecap="round" stroke-linejoin="round"/><rect id="uuid-eb4ee087-71f2-416b-adfb-2d93c7b2a693" x="174.358404" y="283.5018" width="15.77546" height="33.654371" transform="translate(-94.719196 84.224014) rotate(-20.786225)" fill="none" stroke="#000" stroke-linecap="round" stroke-linejoin="round"/><rect id="uuid-e0f7880a-9e6f-4320-a7ba-6e2587999e00" x="165.812536" y="252.501795" width="15.77546" height="33.654371" transform="translate(-37.564813 28.337386) rotate(-8.419925)" fill="none" stroke="#000" stroke-linecap="round" stroke-linejoin="round"/><rect id="uuid-c026b96d-2575-44e0-b163-b609f617baa3" x="85.846857" y="260.389552" width="33.654371" height="15.77546" transform="translate(-182.66718 301.368751) rotate(-75.672476)" fill="none" stroke="#000" stroke-linecap="round" stroke-linejoin="round"/><rect id="uuid-3caac961-db7a-4392-96a3-c897608770b7" x="78.996152" y="291.915406" width="33.654371" height="15.77546" transform="translate(-215.574566 345.57844) rotate(-80.637589)" fill="none" stroke="#000" stroke-linecap="round" stroke-linejoin="round"/><rect id="uuid-986fdfbb-13e4-49a6-89fc-5e2a5858e07b" x="182.823482" y="313.356593" width="16.827188" height="16.827188" transform="translate(-115.209974 106.83327) rotate(-24.230605)" fill="none" stroke="#000" stroke-linecap="round" stroke-linejoin="round"/><rect id="uuid-e29872d2-4ec8-4936-a86e-f3a53b145421" x="83.505618" y="314.945277" width="16.827188" height="16.827188" transform="translate(-242.085524 361.45004) rotate(-80.637589)" fill="none" stroke="#000" stroke-linecap="round" stroke-linejoin="round"/></g></svg>