<?xml version="1.0" encoding="UTF-8"?><svg id="uuid-a6bc788e-2d31-46c6-8aba-a31755f2719d" xmlns="http://www.w3.org/2000/svg" viewBox="0 0 500 500"><g id="uuid-8e37b642-e2cb-407a-8fd2-b0c55c0e7005"><path d="M146.27,397.44l39.73-1.03v39.79c0,2.83-8.9,5.12-19.87,5.12s-19.87-2.29-19.87-5.12" fill="#b7d5e5"/><ellipse cx="166" cy="396" rx="20" ry="5" fill="#e0e0e0"/><ellipse cx="166.5" cy="396" rx="8.5" ry="2" fill="#82aec0"/><ellipse cx="167" cy="396.5" rx="7" ry="1.5" fill="#2f7889"/><path d="M166.69,391.49c-.96,0-2.35.03-2.82.05-.47.02-.43.27,0,.29s6.71.34,10.15.72c4.96.55,8.92,1.65,10.51,2.62.56.34,2.05.93,1.33,2.41-.19.39-.69,1.16-3.18,2.19-.94.39,3.32.67,4.26-.29,0,0,.06-1.98.06-2.86,0-2.83-9.09-5.13-20.31-5.13Z" fill="#b7d5e5"/><path d="M175.85,406.95s-5.56-2.3-16.47-3.92c-10.84-1.61-12.38-5.23-12.38-5.23v37.86c1.37,5.81,18.18,6.1,23.3,6.67,2.69.3,6.52,2.3,6.52,2.3,1.42-2.78-1.51-10.98-1.66-13.09-.24-3.44,1.23-3.37,1.23-6.77s-1.27-4.62-1.68-8.77c-.41-4.15,1.21-4.82,1.15-9.05Z" fill="#fff"/><path d="M158.68,404.07c10.52,1.72,17.11,2.89,17.11,2.89-.23-.09-5.5-2.53-16.37-4.14-10.17-1.51-11.55-4.6-13.05-5.98,0,0,.33,5.27,12.3,7.23Z" fill="#eee"/><path d="M174.83,410.3c-.61,1.55-1.3,3.31-1.07,5.65.21,2.17.64,3.62,1.02,4.9.7,1.88,1.2,3.93.13,6.95-.98,2.76-1.2,5.75.45,10.09.22.58,1.33,3.7,1.5,7.11,0,0,0,0,0,0,0,0,.91-2.55.32-5.45-.76-3.72-1.64-4.16-1.75-6.76-.14-3.57,1.3-4.34,1.42-7.87.14-4-1.32-4.79-1.75-9.11-.41-4.14,1.33-4.87.67-8.86-.22,1.09-.44,1.99-.97,3.35Z" fill="#81b6cc"/><path d="M170.33,441.79c-.81-.14-1.9-.18-3.15-.27-3.55-.27-8.4-.65-12.54-1.58-5.34-1.21-6.92-2.76-7.27-3.89,0,0,.14-31.84.05-33.68-.12-2.58-1.42-5.52-1.42-5.52v39.38c1.42,6.03,18.87,6.33,24.18,6.92,2.79.31,4.92,1.14,6.31,1.85,0,0-.24-2.16-6.16-3.21Z" fill="#b7d5e5"/><path d="M185.04,401.21c-.06,1.78-.42,35.01-.42,35.01-.02.22-4.97,3.49-9.32.09l.62,4.36c6.01-.88,10.08-2.55,10.08-4.46l.06-39.61s-.92,1.85-1.02,4.6Z" fill="#81b6cc"/><path d="M146.27,397.44l39.73-1.03v39.79c0,2.83-8.9,5.12-19.87,5.12s-19.87-2.29-19.87-5.12" fill="none" stroke="#000" stroke-linecap="round" stroke-linejoin="round"/><ellipse cx="166" cy="396" rx="20" ry="5" fill="none" stroke="#000" stroke-linecap="round" stroke-linejoin="round"/><ellipse cx="166.5" cy="396" rx="8.5" ry="2" fill="none" stroke="#000" stroke-linecap="round" stroke-linejoin="round"/><ellipse cx="167" cy="396.5" rx="7" ry="1.5" fill="none" stroke="#000" stroke-linecap="round" stroke-linejoin="round"/><path d="M166.69,391.49c-.96,0-2.35.03-2.82.05-.47.02-.43.27,0,.29s6.71.34,10.15.72c4.96.55,8.92,1.65,10.51,2.62.56.34,2.05.93,1.33,2.41-.19.39-.69,1.16-3.18,2.19-.94.39,3.32.67,4.26-.29,0,0,.06-1.98.06-2.86,0-2.83-9.09-5.13-20.31-5.13Z" fill="none" stroke="#000" stroke-linecap="round" stroke-linejoin="round"/><path d="M175.85,406.95s-5.56-2.3-16.47-3.92c-10.84-1.61-12.38-5.23-12.38-5.23v37.86c1.37,5.81,18.18,6.1,23.3,6.67,2.69.3,6.52,2.3,6.52,2.3,1.42-2.78-1.51-10.98-1.66-13.09-.24-3.44,1.23-3.37,1.23-6.77s-1.27-4.62-1.68-8.77c-.41-4.15,1.21-4.82,1.15-9.05Z" fill="none" stroke="#000" stroke-linecap="round" stroke-linejoin="round"/><path d="M158.68,404.07c10.52,1.72,17.11,2.89,17.11,2.89-.23-.09-5.5-2.53-16.37-4.14-10.17-1.51-11.55-4.6-13.05-5.98,0,0,.33,5.27,12.3,7.23Z" fill="none" stroke="#000" stroke-linecap="round" stroke-linejoin="round"/><path d="M174.83,410.3c-.61,1.55-1.3,3.31-1.07,5.65.21,2.17.64,3.62,1.02,4.9.7,1.88,1.2,3.93.13,6.95-.98,2.76-1.2,5.75.45,10.09.22.58,1.33,3.7,1.5,7.11,0,0,0,0,0,0,0,0,.91-2.55.32-5.45-.76-3.72-1.64-4.16-1.75-6.76-.14-3.57,1.3-4.34,1.42-7.87.14-4-1.32-4.79-1.75-9.11-.41-4.14,1.33-4.87.67-8.86-.22,1.09-.44,1.99-.97,3.35Z" fill="none" stroke="#000" stroke-linecap="round" stroke-linejoin="round"/><path d="M170.33,441.79c-.81-.14-1.9-.18-3.15-.27-3.55-.27-8.4-.65-12.54-1.58-5.34-1.21-6.92-2.76-7.27-3.89,0,0,.14-31.84.05-33.68-.12-2.58-1.42-5.52-1.42-5.52v39.38c1.42,6.03,18.87,6.33,24.18,6.92,2.79.31,4.92,1.14,6.31,1.85,0,0-.24-2.16-6.16-3.21Z" fill="none" stroke="#000" stroke-linecap="round" stroke-linejoin="round"/><path d="M185.04,401.21c-.06,1.78-.42,35.01-.42,35.01-.02.22-4.97,3.49-9.32.09l.62,4.36c6.01-.88,10.08-2.55,10.08-4.46l.06-39.61s-.92,1.85-1.02,4.6Z" fill="none" stroke="#000" stroke-linecap="round" stroke-linejoin="round"/><path d="M146.27,397.44l39.73-1.03v39.79c0,2.83-8.9,5.12-19.87,5.12s-19.87-2.29-19.87-5.12" fill="none" stroke="#000" stroke-linecap="round" stroke-linejoin="round"/><ellipse cx="166" cy="396" rx="20" ry="5" fill="none" stroke="#000" stroke-linecap="round" stroke-linejoin="round"/><ellipse cx="166.5" cy="396" rx="8.5" ry="2" fill="none" stroke="#000" stroke-linecap="round" stroke-linejoin="round"/><ellipse cx="167" cy="396.5" rx="7" ry="1.5" fill="none" stroke="#000" stroke-linecap="round" stroke-linejoin="round"/><path d="M166.69,391.49c-.96,0-2.35.03-2.82.05-.47.02-.43.27,0,.29s6.71.34,10.15.72c4.96.55,8.92,1.65,10.51,2.62.56.34,2.05.93,1.33,2.41-.19.39-.69,1.16-3.18,2.19-.94.39,3.32.67,4.26-.29,0,0,.06-1.98.06-2.86,0-2.83-9.09-5.13-20.31-5.13Z" fill="none" stroke="#000" stroke-linecap="round" stroke-linejoin="round"/><path d="M175.85,406.95s-5.56-2.3-16.47-3.92c-10.84-1.61-12.38-5.23-12.38-5.23v37.86c1.37,5.81,18.18,6.1,23.3,6.67,2.69.3,6.52,2.3,6.52,2.3,1.42-2.78-1.51-10.98-1.66-13.09-.24-3.44,1.23-3.37,1.23-6.77s-1.27-4.62-1.68-8.77c-.41-4.15,1.21-4.82,1.15-9.05Z" fill="none" stroke="#000" stroke-linecap="round" stroke-linejoin="round"/><path d="M158.68,404.07c10.52,1.72,17.11,2.89,17.11,2.89-.23-.09-5.5-2.53-16.37-4.14-10.17-1.51-11.55-4.6-13.05-5.98,0,0,.33,5.27,12.3,7.23Z" fill="none" stroke="#000" stroke-linecap="round" stroke-linejoin="round"/><path d="M174.83,410.3c-.61,1.55-1.3,3.31-1.07,5.65.21,2.17.64,3.62,1.02,4.9.7,1.88,1.2,3.93.13,6.95-.98,2.76-1.2,5.75.45,10.09.22.58,1.33,3.7,1.5,7.11,0,0,0,0,0,0,0,0,.91-2.55.32-5.45-.76-3.72-1.64-4.16-1.75-6.76-.14-3.57,1.3-4.34,1.42-7.87.14-4-1.32-4.79-1.75-9.11-.41-4.14,1.33-4.87.67-8.86-.22,1.09-.44,1.99-.97,3.35Z" fill="none" stroke="#000" stroke-linecap="round" stroke-linejoin="round"/><path d="M170.33,441.79c-.81-.14-1.9-.18-3.15-.27-3.55-.27-8.4-.65-12.54-1.58-5.34-1.21-6.92-2.76-7.27-3.89,0,0,.14-31.84.05-33.68-.12-2.58-1.42-5.52-1.42-5.52v39.38c1.42,6.03,18.87,6.33,24.18,6.92,2.79.31,4.92,1.14,6.31,1.85,0,0-.24-2.16-6.16-3.21Z" fill="none" stroke="#000" stroke-linecap="round" stroke-linejoin="round"/><path d="M185.04,401.21c-.06,1.78-.42,35.01-.42,35.01-.02.22-4.97,3.49-9.32.09l.62,4.36c6.01-.88,10.08-2.55,10.08-4.46l.06-39.61s-.92,1.85-1.02,4.6Z" fill="none" stroke="#000" stroke-linecap="round" stroke-linejoin="round"/></g><g id="uuid-38f146eb-60d8-4cbb-8403-59729c74e83c"><path d="M73.27,388.44l39.73-1.03v39.79c0,2.83-8.9,5.12-19.87,5.12s-19.87-2.29-19.87-5.12" fill="#b7d5e5"/><ellipse cx="93" cy="387" rx="20" ry="5" fill="#e0e0e0"/><ellipse cx="93.5" cy="387" rx="8.5" ry="2" fill="#82aec0"/><ellipse cx="94" cy="387.5" rx="7" ry="1.5" fill="#2f7889"/><path d="M93.69,382.49c-.96,0-2.35.03-2.82.05-.47.02-.43.27,0,.29s6.71.34,10.15.72c4.96.55,8.92,1.65,10.51,2.62.56.34,2.05.93,1.33,2.41-.19.39-.69,1.16-3.18,2.19-.94.39,3.32.67,4.26-.29,0,0,.06-1.98.06-2.86,0-2.83-9.09-5.13-20.31-5.13Z" fill="#b7d5e5"/><path d="M102.85,397.95s-5.56-2.3-16.47-3.92c-10.84-1.61-12.38-5.23-12.38-5.23v37.86c1.37,5.81,18.18,6.1,23.3,6.67,2.69.3,6.52,2.3,6.52,2.3,1.42-2.78-1.51-10.98-1.66-13.09-.24-3.44,1.23-3.37,1.23-6.77s-1.27-4.62-1.68-8.77c-.41-4.15,1.21-4.82,1.15-9.05Z" fill="#fff"/><path d="M85.68,395.07c10.52,1.72,17.11,2.89,17.11,2.89-.23-.09-5.5-2.53-16.37-4.14-10.17-1.51-11.55-4.6-13.05-5.98,0,0,.33,5.27,12.3,7.23Z" fill="#eee"/><path d="M101.83,401.3c-.61,1.55-1.3,3.31-1.07,5.65.21,2.17.64,3.62,1.02,4.9.7,1.88,1.2,3.93.13,6.95-.98,2.76-1.2,5.75.45,10.09.22.58,1.33,3.7,1.5,7.11,0,0,0,0,0,0,0,0,.91-2.55.32-5.45-.76-3.72-1.64-4.16-1.75-6.76-.14-3.57,1.3-4.34,1.42-7.87.14-4-1.32-4.79-1.75-9.11-.41-4.14,1.33-4.87.67-8.86-.22,1.09-.44,1.99-.97,3.35Z" fill="#81b6cc"/><path d="M97.33,432.79c-.81-.14-1.9-.18-3.15-.27-3.55-.27-8.4-.65-12.54-1.58-5.34-1.21-6.92-2.76-7.27-3.89,0,0,.14-31.84.05-33.68-.12-2.58-1.42-5.52-1.42-5.52v39.38c1.42,6.03,18.87,6.33,24.18,6.92,2.79.31,4.92,1.14,6.31,1.85,0,0-.24-2.16-6.16-3.21Z" fill="#b7d5e5"/><path d="M112.04,392.21c-.06,1.78-.42,35.01-.42,35.01-.02.22-4.97,3.49-9.32.09l.62,4.36c6.01-.88,10.08-2.55,10.08-4.46l.06-39.61s-.92,1.85-1.02,4.6Z" fill="#81b6cc"/><path d="M73.27,388.44l39.73-1.03v39.79c0,2.83-8.9,5.12-19.87,5.12s-19.87-2.29-19.87-5.12" fill="none" stroke="#000" stroke-linecap="round" stroke-linejoin="round"/><ellipse cx="93" cy="387" rx="20" ry="5" fill="none" stroke="#000" stroke-linecap="round" stroke-linejoin="round"/><ellipse cx="93.5" cy="387" rx="8.5" ry="2" fill="none" stroke="#000" stroke-linecap="round" stroke-linejoin="round"/><ellipse cx="94" cy="387.5" rx="7" ry="1.5" fill="none" stroke="#000" stroke-linecap="round" stroke-linejoin="round"/><path d="M93.69,382.49c-.96,0-2.35.03-2.82.05-.47.02-.43.27,0,.29s6.71.34,10.15.72c4.96.55,8.92,1.65,10.51,2.62.56.34,2.05.93,1.33,2.41-.19.39-.69,1.16-3.18,2.19-.94.39,3.32.67,4.26-.29,0,0,.06-1.98.06-2.86,0-2.83-9.09-5.13-20.31-5.13Z" fill="none" stroke="#000" stroke-linecap="round" stroke-linejoin="round"/><path d="M102.85,397.95s-5.56-2.3-16.47-3.92c-10.84-1.61-12.38-5.23-12.38-5.23v37.86c1.37,5.81,18.18,6.1,23.3,6.67,2.69.3,6.52,2.3,6.52,2.3,1.42-2.78-1.51-10.98-1.66-13.09-.24-3.44,1.23-3.37,1.23-6.77s-1.27-4.62-1.68-8.77c-.41-4.15,1.21-4.82,1.15-9.05Z" fill="none" stroke="#000" stroke-linecap="round" stroke-linejoin="round"/><path d="M85.68,395.07c10.52,1.72,17.11,2.89,17.11,2.89-.23-.09-5.5-2.53-16.37-4.14-10.17-1.51-11.55-4.6-13.05-5.98,0,0,.33,5.27,12.3,7.23Z" fill="none" stroke="#000" stroke-linecap="round" stroke-linejoin="round"/><path d="M101.83,401.3c-.61,1.55-1.3,3.31-1.07,5.65.21,2.17.64,3.62,1.02,4.9.7,1.88,1.2,3.93.13,6.95-.98,2.76-1.2,5.75.45,10.09.22.58,1.33,3.7,1.5,7.11,0,0,0,0,0,0,0,0,.91-2.55.32-5.45-.76-3.72-1.64-4.16-1.75-6.76-.14-3.57,1.3-4.34,1.42-7.87.14-4-1.32-4.79-1.75-9.11-.41-4.14,1.33-4.87.67-8.86-.22,1.09-.44,1.99-.97,3.35Z" fill="none" stroke="#000" stroke-linecap="round" stroke-linejoin="round"/><path d="M97.33,432.79c-.81-.14-1.9-.18-3.15-.27-3.55-.27-8.4-.65-12.54-1.58-5.34-1.21-6.92-2.76-7.27-3.89,0,0,.14-31.84.05-33.68-.12-2.58-1.42-5.52-1.42-5.52v39.38c1.42,6.03,18.87,6.33,24.18,6.92,2.79.31,4.92,1.14,6.31,1.85,0,0-.24-2.16-6.16-3.21Z" fill="none" stroke="#000" stroke-linecap="round" stroke-linejoin="round"/><path d="M112.04,392.21c-.06,1.78-.42,35.01-.42,35.01-.02.22-4.97,3.49-9.32.09l.62,4.36c6.01-.88,10.08-2.55,10.08-4.46l.06-39.61s-.92,1.85-1.02,4.6Z" fill="none" stroke="#000" stroke-linecap="round" stroke-linejoin="round"/><path d="M73.27,388.44l39.73-1.03v39.79c0,2.83-8.9,5.12-19.87,5.12s-19.87-2.29-19.87-5.12" fill="none" stroke="#000" stroke-linecap="round" stroke-linejoin="round"/><ellipse cx="93" cy="387" rx="20" ry="5" fill="none" stroke="#000" stroke-linecap="round" stroke-linejoin="round"/><ellipse cx="93.5" cy="387" rx="8.5" ry="2" fill="none" stroke="#000" stroke-linecap="round" stroke-linejoin="round"/><ellipse cx="94" cy="387.5" rx="7" ry="1.5" fill="none" stroke="#000" stroke-linecap="round" stroke-linejoin="round"/><path d="M93.69,382.49c-.96,0-2.35.03-2.82.05-.47.02-.43.27,0,.29s6.71.34,10.15.72c4.96.55,8.92,1.65,10.51,2.62.56.34,2.05.93,1.33,2.41-.19.39-.69,1.16-3.18,2.19-.94.39,3.32.67,4.26-.29,0,0,.06-1.98.06-2.86,0-2.83-9.09-5.13-20.31-5.13Z" fill="none" stroke="#000" stroke-linecap="round" stroke-linejoin="round"/><path d="M102.85,397.95s-5.56-2.3-16.47-3.92c-10.84-1.61-12.38-5.23-12.38-5.23v37.86c1.37,5.81,18.18,6.1,23.3,6.67,2.69.3,6.52,2.3,6.52,2.3,1.42-2.78-1.51-10.98-1.66-13.09-.24-3.44,1.23-3.37,1.23-6.77s-1.27-4.62-1.68-8.77c-.41-4.15,1.21-4.82,1.15-9.05Z" fill="none" stroke="#000" stroke-linecap="round" stroke-linejoin="round"/><path d="M85.68,395.07c10.52,1.72,17.11,2.89,17.11,2.89-.23-.09-5.5-2.53-16.37-4.14-10.17-1.51-11.55-4.6-13.05-5.98,0,0,.33,5.27,12.3,7.23Z" fill="none" stroke="#000" stroke-linecap="round" stroke-linejoin="round"/><path d="M101.83,401.3c-.61,1.55-1.3,3.31-1.07,5.65.21,2.17.64,3.62,1.02,4.9.7,1.88,1.2,3.93.13,6.95-.98,2.76-1.2,5.75.45,10.09.22.58,1.33,3.7,1.5,7.11,0,0,0,0,0,0,0,0,.91-2.55.32-5.45-.76-3.72-1.64-4.16-1.75-6.76-.14-3.57,1.3-4.34,1.42-7.87.14-4-1.32-4.79-1.75-9.11-.41-4.14,1.33-4.87.67-8.86-.22,1.09-.44,1.99-.97,3.35Z" fill="none" stroke="#000" stroke-linecap="round" stroke-linejoin="round"/><path d="M97.33,432.79c-.81-.14-1.9-.18-3.15-.27-3.55-.27-8.4-.65-12.54-1.58-5.34-1.21-6.92-2.76-7.27-3.89,0,0,.14-31.84.05-33.68-.12-2.58-1.42-5.52-1.42-5.52v39.38c1.42,6.03,18.87,6.33,24.18,6.92,2.79.31,4.92,1.14,6.31,1.85,0,0-.24-2.16-6.16-3.21Z" fill="none" stroke="#000" stroke-linecap="round" stroke-linejoin="round"/><path d="M112.04,392.21c-.06,1.78-.42,35.01-.42,35.01-.02.22-4.97,3.49-9.32.09l.62,4.36c6.01-.88,10.08-2.55,10.08-4.46l.06-39.61s-.92,1.85-1.02,4.6Z" fill="none" stroke="#000" stroke-linecap="round" stroke-linejoin="round"/></g><g id="uuid-ba0c8809-5fa2-489e-9db0-795d342eff9a"><path d="M100.27,397.44l39.73-1.03v39.79c0,2.83-8.9,5.12-19.87,5.12s-19.87-2.29-19.87-5.12" fill="#b7d5e5"/><ellipse cx="120" cy="396" rx="20" ry="5" fill="#e0e0e0"/><ellipse cx="120.5" cy="396" rx="8.5" ry="2" fill="#82aec0"/><ellipse cx="121" cy="396.5" rx="7" ry="1.5" fill="#2f7889"/><path d="M120.69,391.49c-.96,0-2.35.03-2.82.05-.47.02-.43.27,0,.29s6.71.34,10.15.72c4.96.55,8.92,1.65,10.51,2.62.56.34,2.05.93,1.33,2.41-.19.39-.69,1.16-3.18,2.19-.94.39,3.32.67,4.26-.29,0,0,.06-1.98.06-2.86,0-2.83-9.09-5.13-20.31-5.13Z" fill="#b7d5e5"/><path d="M129.85,406.95s-5.56-2.3-16.47-3.92c-10.84-1.61-12.38-5.23-12.38-5.23v37.86c1.37,5.81,18.18,6.1,23.3,6.67,2.69.3,6.52,2.3,6.52,2.3,1.42-2.78-1.51-10.98-1.66-13.09-.24-3.44,1.23-3.37,1.23-6.77s-1.27-4.62-1.68-8.77c-.41-4.15,1.21-4.82,1.15-9.05Z" fill="#fff"/><path d="M112.68,404.07c10.52,1.72,17.11,2.89,17.11,2.89-.23-.09-5.5-2.53-16.37-4.14-10.17-1.51-11.55-4.6-13.05-5.98,0,0,.33,5.27,12.3,7.23Z" fill="#eee"/><path d="M128.83,410.3c-.61,1.55-1.3,3.31-1.07,5.65.21,2.17.64,3.62,1.02,4.9.7,1.88,1.2,3.93.13,6.95-.98,2.76-1.2,5.75.45,10.09.22.58,1.33,3.7,1.5,7.11,0,0,0,0,0,0,0,0,.91-2.55.32-5.45-.76-3.72-1.64-4.16-1.75-6.76-.14-3.57,1.3-4.34,1.42-7.87.14-4-1.32-4.79-1.75-9.11-.41-4.14,1.33-4.87.67-8.86-.22,1.09-.44,1.99-.97,3.35Z" fill="#81b6cc"/><path d="M124.33,441.79c-.81-.14-1.9-.18-3.15-.27-3.55-.27-8.4-.65-12.54-1.58-5.34-1.21-6.92-2.76-7.27-3.89,0,0,.14-31.84.05-33.68-.12-2.58-1.42-5.52-1.42-5.52v39.38c1.42,6.03,18.87,6.33,24.18,6.92,2.79.31,4.92,1.14,6.31,1.85,0,0-.24-2.16-6.16-3.21Z" fill="#b7d5e5"/><path d="M139.04,401.21c-.06,1.78-.42,35.01-.42,35.01-.02.22-4.97,3.49-9.32.09l.62,4.36c6.01-.88,10.08-2.55,10.08-4.46l.06-39.61s-.92,1.85-1.02,4.6Z" fill="#81b6cc"/><path d="M100.27,397.44l39.73-1.03v39.79c0,2.83-8.9,5.12-19.87,5.12s-19.87-2.29-19.87-5.12" fill="none" stroke="#000" stroke-linecap="round" stroke-linejoin="round"/><ellipse cx="120" cy="396" rx="20" ry="5" fill="none" stroke="#000" stroke-linecap="round" stroke-linejoin="round"/><ellipse cx="120.5" cy="396" rx="8.5" ry="2" fill="none" stroke="#000" stroke-linecap="round" stroke-linejoin="round"/><ellipse cx="121" cy="396.5" rx="7" ry="1.5" fill="none" stroke="#000" stroke-linecap="round" stroke-linejoin="round"/><path d="M120.69,391.49c-.96,0-2.35.03-2.82.05-.47.02-.43.27,0,.29s6.71.34,10.15.72c4.96.55,8.92,1.65,10.51,2.62.56.34,2.05.93,1.33,2.41-.19.39-.69,1.16-3.18,2.19-.94.39,3.32.67,4.26-.29,0,0,.06-1.98.06-2.86,0-2.83-9.09-5.13-20.31-5.13Z" fill="none" stroke="#000" stroke-linecap="round" stroke-linejoin="round"/><path d="M129.85,406.95s-5.56-2.3-16.47-3.92c-10.84-1.61-12.38-5.23-12.38-5.23v37.86c1.37,5.81,18.18,6.1,23.3,6.67,2.69.3,6.52,2.3,6.52,2.3,1.42-2.78-1.51-10.98-1.66-13.09-.24-3.44,1.23-3.37,1.23-6.77s-1.27-4.62-1.68-8.77c-.41-4.15,1.21-4.82,1.15-9.05Z" fill="none" stroke="#000" stroke-linecap="round" stroke-linejoin="round"/><path d="M112.68,404.07c10.52,1.72,17.11,2.89,17.11,2.89-.23-.09-5.5-2.53-16.37-4.14-10.17-1.51-11.55-4.6-13.05-5.98,0,0,.33,5.27,12.3,7.23Z" fill="none" stroke="#000" stroke-linecap="round" stroke-linejoin="round"/><path d="M128.83,410.3c-.61,1.55-1.3,3.31-1.07,5.65.21,2.17.64,3.62,1.02,4.9.7,1.88,1.2,3.93.13,6.95-.98,2.76-1.2,5.75.45,10.09.22.58,1.33,3.7,1.5,7.11,0,0,0,0,0,0,0,0,.91-2.55.32-5.45-.76-3.72-1.64-4.16-1.75-6.76-.14-3.57,1.3-4.34,1.42-7.87.14-4-1.32-4.79-1.75-9.11-.41-4.14,1.33-4.87.67-8.86-.22,1.09-.44,1.99-.97,3.35Z" fill="none" stroke="#000" stroke-linecap="round" stroke-linejoin="round"/><path d="M124.33,441.79c-.81-.14-1.9-.18-3.15-.27-3.55-.27-8.4-.65-12.54-1.58-5.34-1.21-6.92-2.76-7.27-3.89,0,0,.14-31.84.05-33.68-.12-2.58-1.42-5.52-1.42-5.52v39.38c1.42,6.03,18.87,6.33,24.18,6.92,2.79.31,4.92,1.14,6.31,1.85,0,0-.24-2.16-6.16-3.21Z" fill="none" stroke="#000" stroke-linecap="round" stroke-linejoin="round"/><path d="M139.04,401.21c-.06,1.78-.42,35.01-.42,35.01-.02.22-4.97,3.49-9.32.09l.62,4.36c6.01-.88,10.08-2.55,10.08-4.46l.06-39.61s-.92,1.85-1.02,4.6Z" fill="none" stroke="#000" stroke-linecap="round" stroke-linejoin="round"/><path d="M100.27,397.44l39.73-1.03v39.79c0,2.83-8.9,5.12-19.87,5.12s-19.87-2.29-19.87-5.12" fill="none" stroke="#000" stroke-linecap="round" stroke-linejoin="round"/><ellipse cx="120" cy="396" rx="20" ry="5" fill="none" stroke="#000" stroke-linecap="round" stroke-linejoin="round"/><ellipse cx="120.5" cy="396" rx="8.5" ry="2" fill="none" stroke="#000" stroke-linecap="round" stroke-linejoin="round"/><ellipse cx="121" cy="396.5" rx="7" ry="1.5" fill="none" stroke="#000" stroke-linecap="round" stroke-linejoin="round"/><path d="M120.69,391.49c-.96,0-2.35.03-2.82.05-.47.02-.43.27,0,.29s6.71.34,10.15.72c4.96.55,8.92,1.65,10.51,2.62.56.34,2.05.93,1.33,2.41-.19.39-.69,1.16-3.18,2.19-.94.39,3.32.67,4.26-.29,0,0,.06-1.98.06-2.86,0-2.83-9.09-5.13-20.31-5.13Z" fill="none" stroke="#000" stroke-linecap="round" stroke-linejoin="round"/><path d="M129.85,406.95s-5.56-2.3-16.47-3.92c-10.84-1.61-12.38-5.23-12.38-5.23v37.86c1.37,5.81,18.18,6.1,23.3,6.67,2.69.3,6.52,2.3,6.52,2.3,1.42-2.78-1.51-10.98-1.66-13.09-.24-3.44,1.23-3.37,1.23-6.77s-1.27-4.62-1.68-8.77c-.41-4.15,1.21-4.82,1.15-9.05Z" fill="none" stroke="#000" stroke-linecap="round" stroke-linejoin="round"/><path d="M112.68,404.07c10.52,1.72,17.11,2.89,17.11,2.89-.23-.09-5.5-2.53-16.37-4.14-10.17-1.51-11.55-4.6-13.05-5.98,0,0,.33,5.27,12.3,7.23Z" fill="none" stroke="#000" stroke-linecap="round" stroke-linejoin="round"/><path d="M128.83,410.3c-.61,1.55-1.3,3.31-1.07,5.65.21,2.17.64,3.62,1.02,4.9.7,1.88,1.2,3.93.13,6.95-.98,2.76-1.2,5.75.45,10.09.22.58,1.33,3.7,1.5,7.11,0,0,0,0,0,0,0,0,.91-2.55.32-5.45-.76-3.72-1.64-4.16-1.75-6.76-.14-3.57,1.3-4.34,1.42-7.87.14-4-1.32-4.79-1.75-9.11-.41-4.14,1.33-4.87.67-8.86-.22,1.09-.44,1.99-.97,3.35Z" fill="none" stroke="#000" stroke-linecap="round" stroke-linejoin="round"/><path d="M124.33,441.79c-.81-.14-1.9-.18-3.15-.27-3.55-.27-8.4-.65-12.54-1.58-5.34-1.21-6.92-2.76-7.27-3.89,0,0,.14-31.84.05-33.68-.12-2.58-1.42-5.52-1.42-5.52v39.38c1.42,6.03,18.87,6.33,24.18,6.92,2.79.31,4.92,1.14,6.31,1.85,0,0-.24-2.16-6.16-3.21Z" fill="none" stroke="#000" stroke-linecap="round" stroke-linejoin="round"/><path d="M139.04,401.21c-.06,1.78-.42,35.01-.42,35.01-.02.22-4.97,3.49-9.32.09l.62,4.36c6.01-.88,10.08-2.55,10.08-4.46l.06-39.61s-.92,1.85-1.02,4.6Z" fill="none" stroke="#000" stroke-linecap="round" stroke-linejoin="round"/></g><text transform="translate(251.86 314.77)" fill="#333" font-family="ComicNeue-Regular, &apos;Comic Neue&apos;" font-size="24"><tspan x="0" y="0">But he was poor. </tspan><tspan x="0" y="28.8">And lonely.</tspan></text><text transform="translate(134.27 65.73)" fill="#333" font-family="ComicNeue-Bold, &apos;Comic Neue&apos;" font-size="24" font-weight="700"><tspan x="0" y="0">No one wants to buy my </tspan><tspan x="0" y="28.8">toilet papers.</tspan></text><path d="M189.03,233.79c4.74-1.92,23.71-11.12,36.23-57.35,5.56-20.53,7.93-41.28,9.02-55.25" fill="none" stroke="#333" stroke-miterlimit="10" stroke-width="2"/><g id="uuid-642178ad-c5d1-4431-9ede-758cc619c18f"><path d="M103.27,349.56l39.73-1.04v40.53c0,2.88-8.9,5.22-19.87,5.22s-19.87-2.34-19.87-5.22" fill="#b7d5e5"/><ellipse cx="123" cy="348" rx="20" ry="5" fill="#e0e0e0"/><ellipse cx="123.5" cy="348" rx="8.5" ry="2" fill="#82aec0"/><ellipse cx="124" cy="348.5" rx="7" ry="1.5" fill="#2f7889"/><path d="M123.69,343.5c-.96,0-2.35.03-2.82.05-.47.02-.43.27,0,.3s6.71.34,10.15.73c4.96.56,8.92,1.68,10.51,2.67.56.34,2.05.95,1.33,2.46-.19.39-.69,1.18-3.18,2.23-.94.39,3.32.68,4.26-.29,0,0,.06-2.02.06-2.92,0-2.89-9.09-5.22-20.31-5.22Z" fill="#b7d5e5"/><path d="M132.85,359.25s-5.56-2.34-16.47-3.99c-10.84-1.63-12.38-5.33-12.38-5.33v38.56c1.37,5.92,18.18,6.21,23.3,6.79,2.69.31,6.52,2.34,6.52,2.34,1.42-2.83-1.51-11.18-1.66-13.33-.24-3.5,1.23-3.43,1.23-6.89s-1.27-4.7-1.68-8.94c-.41-4.23,1.21-4.9,1.15-9.22Z" fill="#fff"/><path d="M115.68,356.31c10.52,1.75,17.11,2.94,17.11,2.94-.23-.1-5.5-2.57-16.37-4.21-10.17-1.53-11.55-4.69-13.05-6.09,0,0,.33,5.36,12.3,7.36Z" fill="#eee"/><path d="M131.83,362.65c-.61,1.58-1.3,3.37-1.07,5.76.21,2.21.64,3.69,1.02,4.99.7,1.92,1.2,4,.13,7.08-.98,2.81-1.2,5.86.45,10.28.22.6,1.33,3.76,1.5,7.24,0,0,0,0,0,0,0,0,.91-2.6.32-5.55-.76-3.79-1.64-4.24-1.75-6.89-.14-3.64,1.3-4.42,1.42-8.01.14-4.08-1.32-4.88-1.75-9.27-.41-4.21,1.33-4.96.67-9.03-.22,1.11-.44,2.02-.97,3.41Z" fill="#81b6cc"/><path d="M127.33,394.73c-.81-.15-1.9-.18-3.15-.27-3.55-.28-8.4-.66-12.54-1.61-5.34-1.23-6.92-2.81-7.27-3.97,0,0,.14-32.43.05-34.31-.12-2.62-1.42-5.62-1.42-5.62v40.11c1.42,6.14,18.87,6.45,24.18,7.05,2.79.32,4.92,1.16,6.31,1.89,0,0-.24-2.2-6.16-3.27Z" fill="#b7d5e5"/><path d="M142.04,353.4c-.06,1.81-.42,35.66-.42,35.66-.02.22-4.97,3.56-9.32.1l.62,4.44c6.01-.9,10.08-2.59,10.08-4.54l.06-40.35s-.92,1.88-1.02,4.69Z" fill="#81b6cc"/><path d="M103.27,349.56l39.73-1.04v40.53c0,2.88-8.9,5.22-19.87,5.22s-19.87-2.34-19.87-5.22" fill="none" stroke="#000" stroke-linecap="round" stroke-linejoin="round"/><ellipse cx="123" cy="348" rx="20" ry="5" fill="none" stroke="#000" stroke-linecap="round" stroke-linejoin="round"/><ellipse cx="123.5" cy="348" rx="8.5" ry="2" fill="none" stroke="#000" stroke-linecap="round" stroke-linejoin="round"/><ellipse cx="124" cy="348.5" rx="7" ry="1.5" fill="none" stroke="#000" stroke-linecap="round" stroke-linejoin="round"/><path d="M123.69,343.5c-.96,0-2.35.03-2.82.05-.47.02-.43.27,0,.3s6.71.34,10.15.73c4.96.56,8.92,1.68,10.51,2.67.56.34,2.05.95,1.33,2.46-.19.39-.69,1.18-3.18,2.23-.94.39,3.32.68,4.26-.29,0,0,.06-2.02.06-2.92,0-2.89-9.09-5.22-20.31-5.22Z" fill="none" stroke="#000" stroke-linecap="round" stroke-linejoin="round"/><path d="M132.85,359.25s-5.56-2.34-16.47-3.99c-10.84-1.63-12.38-5.33-12.38-5.33v38.56c1.37,5.92,18.18,6.21,23.3,6.79,2.69.31,6.52,2.34,6.52,2.34,1.42-2.83-1.51-11.18-1.66-13.33-.24-3.5,1.23-3.43,1.23-6.89s-1.27-4.7-1.68-8.94c-.41-4.23,1.21-4.9,1.15-9.22Z" fill="none" stroke="#000" stroke-linecap="round" stroke-linejoin="round"/><path d="M115.68,356.31c10.52,1.75,17.11,2.94,17.11,2.94-.23-.1-5.5-2.57-16.37-4.21-10.17-1.53-11.55-4.69-13.05-6.09,0,0,.33,5.36,12.3,7.36Z" fill="none" stroke="#000" stroke-linecap="round" stroke-linejoin="round"/><path d="M131.83,362.65c-.61,1.58-1.3,3.37-1.07,5.76.21,2.21.64,3.69,1.02,4.99.7,1.92,1.2,4,.13,7.08-.98,2.81-1.2,5.86.45,10.28.22.6,1.33,3.76,1.5,7.24,0,0,0,0,0,0,0,0,.91-2.6.32-5.55-.76-3.79-1.64-4.24-1.75-6.89-.14-3.64,1.3-4.42,1.42-8.01.14-4.08-1.32-4.88-1.75-9.27-.41-4.21,1.33-4.96.67-9.03-.22,1.11-.44,2.02-.97,3.41Z" fill="none" stroke="#000" stroke-linecap="round" stroke-linejoin="round"/><path d="M127.33,394.73c-.81-.15-1.9-.18-3.15-.27-3.55-.28-8.4-.66-12.54-1.61-5.34-1.23-6.92-2.81-7.27-3.97,0,0,.14-32.43.05-34.31-.12-2.62-1.42-5.62-1.42-5.62v40.11c1.42,6.14,18.87,6.45,24.18,7.05,2.79.32,4.92,1.16,6.31,1.89,0,0-.24-2.2-6.16-3.27Z" fill="none" stroke="#000" stroke-linecap="round" stroke-linejoin="round"/><path d="M142.04,353.4c-.06,1.81-.42,35.66-.42,35.66-.02.22-4.97,3.56-9.32.1l.62,4.44c6.01-.9,10.08-2.59,10.08-4.54l.06-40.35s-.92,1.88-1.02,4.69Z" fill="none" stroke="#000" stroke-linecap="round" stroke-linejoin="round"/><path d="M103.27,349.56l39.73-1.04v40.53c0,2.88-8.9,5.22-19.87,5.22s-19.87-2.34-19.87-5.22" fill="none" stroke="#000" stroke-linecap="round" stroke-linejoin="round"/><ellipse cx="123" cy="348" rx="20" ry="5" fill="none" stroke="#000" stroke-linecap="round" stroke-linejoin="round"/><ellipse cx="123.5" cy="348" rx="8.5" ry="2" fill="none" stroke="#000" stroke-linecap="round" stroke-linejoin="round"/><ellipse cx="124" cy="348.5" rx="7" ry="1.5" fill="none" stroke="#000" stroke-linecap="round" stroke-linejoin="round"/><path d="M123.69,343.5c-.96,0-2.35.03-2.82.05-.47.02-.43.27,0,.3s6.71.34,10.15.73c4.96.56,8.92,1.68,10.51,2.67.56.34,2.05.95,1.33,2.46-.19.39-.69,1.18-3.18,2.23-.94.39,3.32.68,4.26-.29,0,0,.06-2.02.06-2.92,0-2.89-9.09-5.22-20.31-5.22Z" fill="none" stroke="#000" stroke-linecap="round" stroke-linejoin="round"/><path d="M132.85,359.25s-5.56-2.34-16.47-3.99c-10.84-1.63-12.38-5.33-12.38-5.33v38.56c1.37,5.92,18.18,6.21,23.3,6.79,2.69.31,6.52,2.34,6.52,2.34,1.42-2.83-1.51-11.18-1.66-13.33-.24-3.5,1.23-3.43,1.23-6.89s-1.27-4.7-1.68-8.94c-.41-4.23,1.21-4.9,1.15-9.22Z" fill="none" stroke="#000" stroke-linecap="round" stroke-linejoin="round"/><path d="M115.68,356.31c10.52,1.75,17.11,2.94,17.11,2.94-.23-.1-5.5-2.57-16.37-4.21-10.17-1.53-11.55-4.69-13.05-6.09,0,0,.33,5.36,12.3,7.36Z" fill="none" stroke="#000" stroke-linecap="round" stroke-linejoin="round"/><path d="M131.83,362.65c-.61,1.58-1.3,3.37-1.07,5.76.21,2.21.64,3.69,1.02,4.99.7,1.92,1.2,4,.13,7.08-.98,2.81-1.2,5.86.45,10.28.22.6,1.33,3.76,1.5,7.24,0,0,0,0,0,0,0,0,.91-2.6.32-5.55-.76-3.79-1.64-4.24-1.75-6.89-.14-3.64,1.3-4.42,1.42-8.01.14-4.08-1.32-4.88-1.75-9.27-.41-4.21,1.33-4.96.67-9.03-.22,1.11-.44,2.02-.97,3.41Z" fill="none" stroke="#000" stroke-linecap="round" stroke-linejoin="round"/><path d="M127.33,394.73c-.81-.15-1.9-.18-3.15-.27-3.55-.28-8.4-.66-12.54-1.61-5.34-1.23-6.92-2.81-7.27-3.97,0,0,.14-32.43.05-34.31-.12-2.62-1.42-5.62-1.42-5.62v40.11c1.42,6.14,18.87,6.45,24.18,7.05,2.79.32,4.92,1.16,6.31,1.89,0,0-.24-2.2-6.16-3.27Z" fill="none" stroke="#000" stroke-linecap="round" stroke-linejoin="round"/><path d="M142.04,353.4c-.06,1.81-.42,35.66-.42,35.66-.02.22-4.97,3.56-9.32.1l.62,4.44c6.01-.9,10.08-2.59,10.08-4.54l.06-40.35s-.92,1.88-1.02,4.69Z" fill="none" stroke="#000" stroke-linecap="round" stroke-linejoin="round"/></g><g id="uuid-bc4c401f-4d45-44e1-9c29-29ec442e987d"><path d="M127.27,406.44l39.73-1.03v39.79c0,2.83-8.9,5.12-19.87,5.12s-19.87-2.29-19.87-5.12" fill="#b7d5e5"/><ellipse cx="147" cy="405" rx="20" ry="5" fill="#e0e0e0"/><ellipse cx="147.5" cy="405" rx="8.5" ry="2" fill="#82aec0"/><ellipse cx="148" cy="405.5" rx="7" ry="1.5" fill="#2f7889"/><path d="M147.69,400.49c-.96,0-2.35.03-2.82.05-.47.02-.43.27,0,.29s6.71.34,10.15.72c4.96.55,8.92,1.65,10.51,2.62.56.34,2.05.93,1.33,2.41-.19.39-.69,1.16-3.18,2.19-.94.39,3.32.67,4.26-.29,0,0,.06-1.98.06-2.86,0-2.83-9.09-5.13-20.31-5.13Z" fill="#b7d5e5"/><path d="M156.85,415.95s-5.56-2.3-16.47-3.92c-10.84-1.61-12.38-5.23-12.38-5.23v37.86c1.37,5.81,18.18,6.1,23.3,6.67,2.69.3,6.52,2.3,6.52,2.3,1.42-2.78-1.51-10.98-1.66-13.09-.24-3.44,1.23-3.37,1.23-6.77s-1.27-4.62-1.68-8.77c-.41-4.15,1.21-4.82,1.15-9.05Z" fill="#fff"/><path d="M139.68,413.07c10.52,1.72,17.11,2.89,17.11,2.89-.23-.09-5.5-2.53-16.37-4.14-10.17-1.51-11.55-4.6-13.05-5.98,0,0,.33,5.27,12.3,7.23Z" fill="#eee"/><path d="M155.83,419.3c-.61,1.55-1.3,3.31-1.07,5.65.21,2.17.64,3.62,1.02,4.9.7,1.88,1.2,3.93.13,6.95-.98,2.76-1.2,5.75.45,10.09.22.58,1.33,3.7,1.5,7.11,0,0,0,0,0,0,0,0,.91-2.55.32-5.45-.76-3.72-1.64-4.16-1.75-6.76-.14-3.57,1.3-4.34,1.42-7.87.14-4-1.32-4.79-1.75-9.11-.41-4.14,1.33-4.87.67-8.86-.22,1.09-.44,1.99-.97,3.35Z" fill="#81b6cc"/><path d="M151.33,450.79c-.81-.14-1.9-.18-3.15-.27-3.55-.27-8.4-.65-12.54-1.58-5.34-1.21-6.92-2.76-7.27-3.89,0,0,.14-31.84.05-33.68-.12-2.58-1.42-5.52-1.42-5.52v39.38c1.42,6.03,18.87,6.33,24.18,6.92,2.79.31,4.92,1.14,6.31,1.85,0,0-.24-2.16-6.16-3.21Z" fill="#b7d5e5"/><path d="M166.04,410.21c-.06,1.78-.42,35.01-.42,35.01-.02.22-4.97,3.49-9.32.09l.62,4.36c6.01-.88,10.08-2.55,10.08-4.46l.06-39.61s-.92,1.85-1.02,4.6Z" fill="#81b6cc"/><path d="M127.27,406.44l39.73-1.03v39.79c0,2.83-8.9,5.12-19.87,5.12s-19.87-2.29-19.87-5.12" fill="none" stroke="#000" stroke-linecap="round" stroke-linejoin="round"/><ellipse cx="147" cy="405" rx="20" ry="5" fill="none" stroke="#000" stroke-linecap="round" stroke-linejoin="round"/><ellipse cx="147.5" cy="405" rx="8.5" ry="2" fill="none" stroke="#000" stroke-linecap="round" stroke-linejoin="round"/><ellipse cx="148" cy="405.5" rx="7" ry="1.5" fill="none" stroke="#000" stroke-linecap="round" stroke-linejoin="round"/><path d="M147.69,400.49c-.96,0-2.35.03-2.82.05-.47.02-.43.27,0,.29s6.71.34,10.15.72c4.96.55,8.92,1.65,10.51,2.62.56.34,2.05.93,1.33,2.41-.19.39-.69,1.16-3.18,2.19-.94.39,3.32.67,4.26-.29,0,0,.06-1.98.06-2.86,0-2.83-9.09-5.13-20.31-5.13Z" fill="none" stroke="#000" stroke-linecap="round" stroke-linejoin="round"/><path d="M156.85,415.95s-5.56-2.3-16.47-3.92c-10.84-1.61-12.38-5.23-12.38-5.23v37.86c1.37,5.81,18.18,6.1,23.3,6.67,2.69.3,6.52,2.3,6.52,2.3,1.42-2.78-1.51-10.98-1.66-13.09-.24-3.44,1.23-3.37,1.23-6.77s-1.27-4.62-1.68-8.77c-.41-4.15,1.21-4.82,1.15-9.05Z" fill="none" stroke="#000" stroke-linecap="round" stroke-linejoin="round"/><path d="M139.68,413.07c10.52,1.72,17.11,2.89,17.11,2.89-.23-.09-5.5-2.53-16.37-4.14-10.17-1.51-11.55-4.6-13.05-5.98,0,0,.33,5.27,12.3,7.23Z" fill="none" stroke="#000" stroke-linecap="round" stroke-linejoin="round"/><path d="M155.83,419.3c-.61,1.55-1.3,3.31-1.07,5.65.21,2.17.64,3.62,1.02,4.9.7,1.88,1.2,3.93.13,6.95-.98,2.76-1.2,5.75.45,10.09.22.58,1.33,3.7,1.5,7.11,0,0,0,0,0,0,0,0,.91-2.55.32-5.45-.76-3.72-1.64-4.16-1.75-6.76-.14-3.57,1.3-4.34,1.42-7.87.14-4-1.32-4.79-1.75-9.11-.41-4.14,1.33-4.87.67-8.86-.22,1.09-.44,1.99-.97,3.35Z" fill="none" stroke="#000" stroke-linecap="round" stroke-linejoin="round"/><path d="M151.33,450.79c-.81-.14-1.9-.18-3.15-.27-3.55-.27-8.4-.65-12.54-1.58-5.34-1.21-6.92-2.76-7.27-3.89,0,0,.14-31.84.05-33.68-.12-2.58-1.42-5.52-1.42-5.52v39.38c1.42,6.03,18.87,6.33,24.18,6.92,2.79.31,4.92,1.14,6.31,1.85,0,0-.24-2.16-6.16-3.21Z" fill="none" stroke="#000" stroke-linecap="round" stroke-linejoin="round"/><path d="M166.04,410.21c-.06,1.78-.42,35.01-.42,35.01-.02.22-4.97,3.49-9.32.09l.62,4.36c6.01-.88,10.08-2.55,10.08-4.46l.06-39.61s-.92,1.85-1.02,4.6Z" fill="none" stroke="#000" stroke-linecap="round" stroke-linejoin="round"/><path d="M127.27,406.44l39.73-1.03v39.79c0,2.83-8.9,5.12-19.87,5.12s-19.87-2.29-19.87-5.12" fill="none" stroke="#000" stroke-linecap="round" stroke-linejoin="round"/><ellipse cx="147" cy="405" rx="20" ry="5" fill="none" stroke="#000" stroke-linecap="round" stroke-linejoin="round"/><ellipse cx="147.5" cy="405" rx="8.5" ry="2" fill="none" stroke="#000" stroke-linecap="round" stroke-linejoin="round"/><ellipse cx="148" cy="405.5" rx="7" ry="1.5" fill="none" stroke="#000" stroke-linecap="round" stroke-linejoin="round"/><path d="M147.69,400.49c-.96,0-2.35.03-2.82.05-.47.02-.43.27,0,.29s6.71.34,10.15.72c4.96.55,8.92,1.65,10.51,2.62.56.34,2.05.93,1.33,2.41-.19.39-.69,1.16-3.18,2.19-.94.39,3.32.67,4.26-.29,0,0,.06-1.98.06-2.86,0-2.83-9.09-5.13-20.31-5.13Z" fill="none" stroke="#000" stroke-linecap="round" stroke-linejoin="round"/><path d="M156.85,415.95s-5.56-2.3-16.47-3.92c-10.84-1.61-12.38-5.23-12.38-5.23v37.86c1.37,5.81,18.18,6.1,23.3,6.67,2.69.3,6.52,2.3,6.52,2.3,1.42-2.78-1.51-10.98-1.66-13.09-.24-3.44,1.23-3.37,1.23-6.77s-1.27-4.62-1.68-8.77c-.41-4.15,1.21-4.82,1.15-9.05Z" fill="none" stroke="#000" stroke-linecap="round" stroke-linejoin="round"/><path d="M139.68,413.07c10.52,1.72,17.11,2.89,17.11,2.89-.23-.09-5.5-2.53-16.37-4.14-10.17-1.51-11.55-4.6-13.05-5.98,0,0,.33,5.27,12.3,7.23Z" fill="none" stroke="#000" stroke-linecap="round" stroke-linejoin="round"/><path d="M155.83,419.3c-.61,1.55-1.3,3.31-1.07,5.65.21,2.17.64,3.62,1.02,4.9.7,1.88,1.2,3.93.13,6.95-.98,2.76-1.2,5.75.45,10.09.22.58,1.33,3.7,1.5,7.11,0,0,0,0,0,0,0,0,.91-2.55.32-5.45-.76-3.72-1.64-4.16-1.75-6.76-.14-3.57,1.3-4.34,1.42-7.87.14-4-1.32-4.79-1.75-9.11-.41-4.14,1.33-4.87.67-8.86-.22,1.09-.44,1.99-.97,3.35Z" fill="none" stroke="#000" stroke-linecap="round" stroke-linejoin="round"/><path d="M151.33,450.79c-.81-.14-1.9-.18-3.15-.27-3.55-.27-8.4-.65-12.54-1.58-5.34-1.21-6.92-2.76-7.27-3.89,0,0,.14-31.84.05-33.68-.12-2.58-1.42-5.52-1.42-5.52v39.38c1.42,6.03,18.87,6.33,24.18,6.92,2.79.31,4.92,1.14,6.31,1.85,0,0-.24-2.16-6.16-3.21Z" fill="none" stroke="#000" stroke-linecap="round" stroke-linejoin="round"/><path d="M166.04,410.21c-.06,1.78-.42,35.01-.42,35.01-.02.22-4.97,3.49-9.32.09l.62,4.36c6.01-.88,10.08-2.55,10.08-4.46l.06-39.61s-.92,1.85-1.02,4.6Z" fill="none" stroke="#000" stroke-linecap="round" stroke-linejoin="round"/></g><g id="uuid-0834e11b-e135-4fae-bc64-4caa4309590b"><path d="M129.27,358.44l39.73-1.03v39.79c0,2.83-8.9,5.12-19.87,5.12s-19.87-2.29-19.87-5.12" fill="#b7d5e5"/><ellipse cx="149" cy="357" rx="20" ry="5" fill="#e0e0e0"/><ellipse cx="149.5" cy="357" rx="8.5" ry="2" fill="#82aec0"/><ellipse cx="150" cy="357.5" rx="7" ry="1.5" fill="#2f7889"/><path d="M149.69,352.49c-.96,0-2.35.03-2.82.05-.47.02-.43.27,0,.29s6.71.34,10.15.72c4.96.55,8.92,1.65,10.51,2.62.56.34,2.05.93,1.33,2.41-.19.39-.69,1.16-3.18,2.19-.94.39,3.32.67,4.26-.29,0,0,.06-1.98.06-2.86,0-2.83-9.09-5.13-20.31-5.13Z" fill="#b7d5e5"/><path d="M158.85,367.95s-5.56-2.3-16.47-3.92c-10.84-1.61-12.38-5.23-12.38-5.23v37.86c1.37,5.81,18.18,6.1,23.3,6.67,2.69.3,6.52,2.3,6.52,2.3,1.42-2.78-1.51-10.98-1.66-13.09-.24-3.44,1.23-3.37,1.23-6.77s-1.27-4.62-1.68-8.77c-.41-4.15,1.21-4.82,1.15-9.05Z" fill="#fff"/><path d="M141.68,365.07c10.52,1.72,17.11,2.89,17.11,2.89-.23-.09-5.5-2.53-16.37-4.14-10.17-1.51-11.55-4.6-13.05-5.98,0,0,.33,5.27,12.3,7.23Z" fill="#eee"/><path d="M157.83,371.3c-.61,1.55-1.3,3.31-1.07,5.65.21,2.17.64,3.62,1.02,4.9.7,1.88,1.2,3.93.13,6.95-.98,2.76-1.2,5.75.45,10.09.22.58,1.33,3.7,1.5,7.11,0,0,0,0,0,0,0,0,.91-2.55.32-5.45-.76-3.72-1.64-4.16-1.75-6.76-.14-3.57,1.3-4.34,1.42-7.87.14-4-1.32-4.79-1.75-9.11-.41-4.14,1.33-4.87.67-8.86-.22,1.09-.44,1.99-.97,3.35Z" fill="#81b6cc"/><path d="M153.33,402.79c-.81-.14-1.9-.18-3.15-.27-3.55-.27-8.4-.65-12.54-1.58-5.34-1.21-6.92-2.76-7.27-3.89,0,0,.14-31.84.05-33.68-.12-2.58-1.42-5.52-1.42-5.52v39.38c1.42,6.03,18.87,6.33,24.18,6.92,2.79.31,4.92,1.14,6.31,1.85,0,0-.24-2.16-6.16-3.21Z" fill="#b7d5e5"/><path d="M168.04,362.21c-.06,1.78-.42,35.01-.42,35.01-.02.22-4.97,3.49-9.32.09l.62,4.36c6.01-.88,10.08-2.55,10.08-4.46l.06-39.61s-.92,1.85-1.02,4.6Z" fill="#81b6cc"/><path d="M129.27,358.44l39.73-1.03v39.79c0,2.83-8.9,5.12-19.87,5.12s-19.87-2.29-19.87-5.12" fill="none" stroke="#000" stroke-linecap="round" stroke-linejoin="round"/><ellipse cx="149" cy="357" rx="20" ry="5" fill="none" stroke="#000" stroke-linecap="round" stroke-linejoin="round"/><ellipse cx="149.5" cy="357" rx="8.5" ry="2" fill="none" stroke="#000" stroke-linecap="round" stroke-linejoin="round"/><ellipse cx="150" cy="357.5" rx="7" ry="1.5" fill="none" stroke="#000" stroke-linecap="round" stroke-linejoin="round"/><path d="M149.69,352.49c-.96,0-2.35.03-2.82.05-.47.02-.43.27,0,.29s6.71.34,10.15.72c4.96.55,8.92,1.65,10.51,2.62.56.34,2.05.93,1.33,2.41-.19.39-.69,1.16-3.18,2.19-.94.39,3.32.67,4.26-.29,0,0,.06-1.98.06-2.86,0-2.83-9.09-5.13-20.31-5.13Z" fill="none" stroke="#000" stroke-linecap="round" stroke-linejoin="round"/><path d="M158.85,367.95s-5.56-2.3-16.47-3.92c-10.84-1.61-12.38-5.23-12.38-5.23v37.86c1.37,5.81,18.18,6.1,23.3,6.67,2.69.3,6.52,2.3,6.52,2.3,1.42-2.78-1.51-10.98-1.66-13.09-.24-3.44,1.23-3.37,1.23-6.77s-1.27-4.62-1.68-8.77c-.41-4.15,1.21-4.82,1.15-9.05Z" fill="none" stroke="#000" stroke-linecap="round" stroke-linejoin="round"/><path d="M141.68,365.07c10.52,1.72,17.11,2.89,17.11,2.89-.23-.09-5.5-2.53-16.37-4.14-10.17-1.51-11.55-4.6-13.05-5.98,0,0,.33,5.27,12.3,7.23Z" fill="none" stroke="#000" stroke-linecap="round" stroke-linejoin="round"/><path d="M157.83,371.3c-.61,1.55-1.3,3.31-1.07,5.65.21,2.17.64,3.62,1.02,4.9.7,1.88,1.2,3.93.13,6.95-.98,2.76-1.2,5.75.45,10.09.22.58,1.33,3.7,1.5,7.11,0,0,0,0,0,0,0,0,.91-2.55.32-5.45-.76-3.72-1.64-4.16-1.75-6.76-.14-3.57,1.3-4.34,1.42-7.87.14-4-1.32-4.79-1.75-9.11-.41-4.14,1.33-4.87.67-8.86-.22,1.09-.44,1.99-.97,3.35Z" fill="none" stroke="#000" stroke-linecap="round" stroke-linejoin="round"/><path d="M153.33,402.79c-.81-.14-1.9-.18-3.15-.27-3.55-.27-8.4-.65-12.54-1.58-5.34-1.21-6.92-2.76-7.27-3.89,0,0,.14-31.84.05-33.68-.12-2.58-1.42-5.52-1.42-5.52v39.38c1.42,6.03,18.87,6.33,24.18,6.92,2.79.31,4.92,1.14,6.31,1.85,0,0-.24-2.16-6.16-3.21Z" fill="none" stroke="#000" stroke-linecap="round" stroke-linejoin="round"/><path d="M168.04,362.21c-.06,1.78-.42,35.01-.42,35.01-.02.22-4.97,3.49-9.32.09l.62,4.36c6.01-.88,10.08-2.55,10.08-4.46l.06-39.61s-.92,1.85-1.02,4.6Z" fill="none" stroke="#000" stroke-linecap="round" stroke-linejoin="round"/><path d="M129.27,358.44l39.73-1.03v39.79c0,2.83-8.9,5.12-19.87,5.12s-19.87-2.29-19.87-5.12" fill="none" stroke="#000" stroke-linecap="round" stroke-linejoin="round"/><ellipse cx="149" cy="357" rx="20" ry="5" fill="none" stroke="#000" stroke-linecap="round" stroke-linejoin="round"/><ellipse cx="149.5" cy="357" rx="8.5" ry="2" fill="none" stroke="#000" stroke-linecap="round" stroke-linejoin="round"/><ellipse cx="150" cy="357.5" rx="7" ry="1.5" fill="none" stroke="#000" stroke-linecap="round" stroke-linejoin="round"/><path d="M149.69,352.49c-.96,0-2.35.03-2.82.05-.47.02-.43.27,0,.29s6.71.34,10.15.72c4.96.55,8.92,1.65,10.51,2.62.56.34,2.05.93,1.33,2.41-.19.39-.69,1.16-3.18,2.19-.94.39,3.32.67,4.26-.29,0,0,.06-1.98.06-2.86,0-2.83-9.09-5.13-20.31-5.13Z" fill="none" stroke="#000" stroke-linecap="round" stroke-linejoin="round"/><path d="M158.85,367.95s-5.56-2.3-16.47-3.92c-10.84-1.61-12.38-5.23-12.38-5.23v37.86c1.37,5.81,18.18,6.1,23.3,6.67,2.69.3,6.52,2.3,6.52,2.3,1.42-2.78-1.51-10.98-1.66-13.09-.24-3.44,1.23-3.37,1.23-6.77s-1.27-4.62-1.68-8.77c-.41-4.15,1.21-4.82,1.15-9.05Z" fill="none" stroke="#000" stroke-linecap="round" stroke-linejoin="round"/><path d="M141.68,365.07c10.52,1.72,17.11,2.89,17.11,2.89-.23-.09-5.5-2.53-16.37-4.14-10.17-1.51-11.55-4.6-13.05-5.98,0,0,.33,5.27,12.3,7.23Z" fill="none" stroke="#000" stroke-linecap="round" stroke-linejoin="round"/><path d="M157.83,371.3c-.61,1.55-1.3,3.31-1.07,5.65.21,2.17.64,3.62,1.02,4.9.7,1.88,1.2,3.93.13,6.95-.98,2.76-1.2,5.75.45,10.09.22.58,1.33,3.7,1.5,7.11,0,0,0,0,0,0,0,0,.91-2.55.32-5.45-.76-3.72-1.64-4.16-1.75-6.76-.14-3.57,1.3-4.34,1.42-7.87.14-4-1.32-4.79-1.75-9.11-.41-4.14,1.33-4.87.67-8.86-.22,1.09-.44,1.99-.97,3.35Z" fill="none" stroke="#000" stroke-linecap="round" stroke-linejoin="round"/><path d="M153.33,402.79c-.81-.14-1.9-.18-3.15-.27-3.55-.27-8.4-.65-12.54-1.58-5.34-1.21-6.92-2.76-7.27-3.89,0,0,.14-31.84.05-33.68-.12-2.58-1.42-5.52-1.42-5.52v39.38c1.42,6.03,18.87,6.33,24.18,6.92,2.79.31,4.92,1.14,6.31,1.85,0,0-.24-2.16-6.16-3.21Z" fill="none" stroke="#000" stroke-linecap="round" stroke-linejoin="round"/><path d="M168.04,362.21c-.06,1.78-.42,35.01-.42,35.01-.02.22-4.97,3.49-9.32.09l.62,4.36c6.01-.88,10.08-2.55,10.08-4.46l.06-39.61s-.92,1.85-1.02,4.6Z" fill="none" stroke="#000" stroke-linecap="round" stroke-linejoin="round"/></g><g id="uuid-0b0ea7be-7351-469d-b239-943b263295c8"><polygon id="uuid-46b3d362-f9dc-49cc-99ed-f253614a42db" points="194.86 367.77 178.81 381.36 202.42 409.26 207.18 414.88 231.26 394.5 226.51 388.88 218.48 395.67 194.86 367.77" fill="#336"/><rect id="uuid-02f8e150-e6bb-4e73-8da6-3415c2d9da4f" x="161.61" y="342.3" width="21.03" height="41.52" transform="translate(-218.48 268.9) rotate(-51.08)" fill="#336"/><polygon id="uuid-fe998935-0308-408c-945f-bfd06c262f90" points="127 389 148 389 148 426 159 426 159 434 127 434 127 426.46 127 426.46 127 389" fill="#336"/><rect id="uuid-8f6c2789-6500-4a9d-a159-0e722a0d4fa6" x="120.55" y="352.88" width="21.03" height="41.52" transform="translate(-110.38 59.81) rotate(-18.24)" fill="#336"/><polygon id="uuid-18600361-5a35-4443-9f4a-bfb456bff58d" points="151.02 311.7 151.05 311 150.82 311 143.32 270.88 148.79 262 132.28 262 137.75 270.88 130.25 311 130.02 311 130.04 311.7 130.02 312 130.15 312 140.53 325.34 150.92 312 151.05 312 151.02 311.7" fill="#c1272d"/><path id="uuid-c216ae76-795f-495d-adf6-fa061c36f528" d="M112,253v105h59v-105h-59ZM140.53,305.6l-20.85-51.6h41.69l-20.85,51.6Z" fill="#336"/><path id="uuid-6ab8d4b8-0237-47bc-9c08-bce54a24ff75" d="M169.52,239c2.11-5.64,3.3-11.99,3.3-18.72,0-23.23-14.13-42.07-31.55-42.07-17.43,0-31.55,18.83-31.55,42.07,0,6.73,1.19,13.08,3.3,18.72h56.51Z" fill="#eec6a2"/><path id="uuid-75f70552-edc5-4237-a12c-0510dabf1ca9" d="M114.09,245c5.6,11.71,15.42,19.49,26.62,19.49s21.02-7.78,26.62-19.49h-53.23Z" fill="#eec6a2"/><ellipse id="uuid-575351a9-2a05-4104-8558-ac33b70314bf" cx="150" cy="219.5" rx="3" ry="4.5" fill="#333"/><ellipse id="uuid-3dce0726-1380-412e-a7ce-df3b984f33de" cx="133" cy="219.5" rx="3" ry="4.5" fill="#333"/><path id="uuid-a5b24b13-03f6-4b19-a78d-48c66fead8c9" d="M115.18,185.45c10.3-10.93,30.92-10.22,41.14-9.86,12.79.44,27.74,3.13,28.07,6.99.29,3.42-11.1,5.45-11.13,10.68-.02,3.81,5.98,6.18,5.32,7.19-1.4,2.14-27.28-10.28-32.91-4.93-2.53,2.4.76,6.75-1.94,8.42-2.79,1.73-7.06-2.43-17.42-4.93-8.92-2.15-13.32-.89-15-3.49-2.24-3.46,3.2-9.35,3.87-10.07Z" fill="#534741"/><rect id="uuid-ccf0c2c0-c962-4388-85cd-79239d930f4d" x="174.36" y="283.5" width="15.78" height="33.65" transform="translate(-94.72 84.22) rotate(-20.79)" fill="#336"/><rect id="uuid-8a752825-5e84-4406-83c4-a560427c8cc9" x="165.81" y="252.5" width="15.78" height="33.65" transform="translate(-37.56 28.34) rotate(-8.42)" fill="#336"/><rect id="uuid-246f4211-3961-4e52-8833-ffc035cd06b2" x="85.85" y="260.39" width="33.65" height="15.78" transform="translate(-182.67 301.37) rotate(-75.67)" fill="#336"/><rect id="uuid-96e65cbd-83f8-44b6-875a-f7271f251d0a" x="79" y="291.92" width="33.65" height="15.78" transform="translate(-215.57 345.58) rotate(-80.64)" fill="#336"/><rect id="uuid-088325dd-79bf-4985-b0c6-15682e6cebba" x="182.82" y="313.36" width="16.83" height="16.83" transform="translate(-115.21 106.83) rotate(-24.23)" fill="#eec6a2"/><rect id="uuid-bcf16566-64b0-4765-8463-2b7a2d391188" x="83.51" y="314.95" width="16.83" height="16.83" transform="translate(-242.09 361.45) rotate(-80.64)" fill="#eec6a2"/><polygon id="uuid-a2adcf02-4cfb-4d6b-b859-2c34fc87d727" points="194.86 367.77 178.81 381.36 202.42 409.26 207.18 414.88 231.26 394.5 226.51 388.88 218.48 395.67 194.86 367.77" fill="none" stroke="#000" stroke-linecap="round" stroke-linejoin="round"/><rect id="uuid-9361b844-4170-4173-98e4-82b1236a05f9" x="161.61" y="342.3" width="21.03" height="41.52" transform="translate(-218.48 268.9) rotate(-51.08)" fill="none" stroke="#000" stroke-linecap="round" stroke-linejoin="round"/><polygon id="uuid-180d8f37-d936-4dd9-abed-e296250cc444" points="127 389 148 389 148 426 159 426 159 434 127 434 127 426.46 127 426.46 127 389" fill="none" stroke="#000" stroke-linecap="round" stroke-linejoin="round"/><rect id="uuid-122d714e-5253-43e6-a6d4-9c7daf6942ef" x="120.55" y="352.88" width="21.03" height="41.52" transform="translate(-110.38 59.81) rotate(-18.24)" fill="none" stroke="#000" stroke-linecap="round" stroke-linejoin="round"/><polygon id="uuid-e57fde9a-025b-4a07-ad72-72d4b2ad5007" points="151.02 311.7 151.05 311 150.82 311 143.32 270.88 148.79 262 132.28 262 137.75 270.88 130.25 311 130.02 311 130.04 311.7 130.02 312 130.15 312 140.53 325.34 150.92 312 151.05 312 151.02 311.7" fill="none" stroke="#000" stroke-linecap="round" stroke-linejoin="round"/><path id="uuid-85eaf01e-533c-4366-b103-ab42f21cfa02" d="M112,253v105h59v-105h-59ZM140.53,305.6l-20.85-51.6h41.69l-20.85,51.6Z" fill="none" stroke="#000" stroke-linecap="round" stroke-linejoin="round"/><path id="uuid-463e8b41-41ee-40d2-804a-20a0cf9b7eed" d="M169.52,239c2.11-5.64,3.3-11.99,3.3-18.72,0-23.23-14.13-42.07-31.55-42.07-17.43,0-31.55,18.83-31.55,42.07,0,6.73,1.19,13.08,3.3,18.72h56.51Z" fill="none" stroke="#000" stroke-linecap="round" stroke-linejoin="round"/><path id="uuid-2d247999-0699-45fc-b6bf-92f70682dbe2" d="M114.09,245c5.6,11.71,15.42,19.49,26.62,19.49s21.02-7.78,26.62-19.49h-53.23Z" fill="none" stroke="#000" stroke-linecap="round" stroke-linejoin="round"/><ellipse id="uuid-b89d433b-f3db-49d5-84a1-84670dc8f59f" cx="150" cy="219.5" rx="3" ry="4.5" fill="none" stroke="#000" stroke-linecap="round" stroke-linejoin="round"/><ellipse id="uuid-2391cc35-2b1a-4967-a97b-4cd5694e739b" cx="133" cy="219.5" rx="3" ry="4.5" fill="none" stroke="#000" stroke-linecap="round" stroke-linejoin="round"/><path id="uuid-c39bb830-2078-4d93-a8a4-c425d149afe2" d="M115.18,185.45c10.3-10.93,30.92-10.22,41.14-9.86,12.79.44,27.74,3.13,28.07,6.99.29,3.42-11.1,5.45-11.13,10.68-.02,3.81,5.98,6.18,5.32,7.19-1.4,2.14-27.28-10.28-32.91-4.93-2.53,2.4.76,6.75-1.94,8.42-2.79,1.73-7.06-2.43-17.42-4.93-8.92-2.15-13.32-.89-15-3.49-2.24-3.46,3.2-9.35,3.87-10.07Z" fill="none" stroke="#000" stroke-linecap="round" stroke-linejoin="round"/><rect id="uuid-96e018b4-2cdb-4939-a26a-5b3b213fd5d0" x="174.36" y="283.5" width="15.78" height="33.65" transform="translate(-94.72 84.22) rotate(-20.79)" fill="none" stroke="#000" stroke-linecap="round" stroke-linejoin="round"/><rect id="uuid-961df15f-64fa-4183-9b9e-323570c83739" x="165.81" y="252.5" width="15.78" height="33.65" transform="translate(-37.56 28.34) rotate(-8.42)" fill="none" stroke="#000" stroke-linecap="round" stroke-linejoin="round"/><rect id="uuid-e9d27d72-da6a-4096-b669-75879ebe530c" x="85.85" y="260.39" width="33.65" height="15.78" transform="translate(-182.67 301.37) rotate(-75.67)" fill="none" stroke="#000" stroke-linecap="round" stroke-linejoin="round"/><rect id="uuid-445ec788-1c31-4b33-8bca-40c6939fb70c" x="79" y="291.92" width="33.65" height="15.78" transform="translate(-215.57 345.58) rotate(-80.64)" fill="none" stroke="#000" stroke-linecap="round" stroke-linejoin="round"/><rect id="uuid-9263d44e-1671-46ab-b914-89a13601469c" x="182.82" y="313.36" width="16.83" height="16.83" transform="translate(-115.21 106.83) rotate(-24.23)" fill="none" stroke="#000" stroke-linecap="round" stroke-linejoin="round"/><rect id="uuid-fdaa7fba-fa36-4309-8d13-afca20241071" x="83.51" y="314.95" width="16.83" height="16.83" transform="translate(-242.09 361.45) rotate(-80.64)" fill="none" stroke="#000" stroke-linecap="round" stroke-linejoin="round"/></g></svg>