<?xml version="1.0" encoding="UTF-8"?><svg id="uuid-57249d1b-1b64-430b-84fc-f00f4126e504" xmlns="http://www.w3.org/2000/svg" viewBox="0 0 500 500"><rect x="214" y="283" width="132" height="66" fill="#3e2723"/><path d="M214,393h-11v-110h11v110ZM345,283v110h70v-110h-70Z" fill="#6d4c41"/><rect x="353" y="308" width="55" height="40" fill="#3e2723"/><path d="M408,315h-55v-7h55v7ZM408,341h-55v7h55v-7Z" fill="#8d6e63"/><rect x="214" y="297" width="132" height="7" fill="#5d4037"/><path d="M408,308h-55v-22h55v22ZM408,349h-55v33h55v-33Z" fill="#8d6e63"/><path d="M384.093022,293.670187c0,2.019997-1.639758,3.659748-3.659748,3.659748-2.020004,0-3.659748-1.639751-3.659748-3.659748s1.639758-3.659748,3.659748-3.659748c2.020437,0,3.659748,1.639311,3.659748,3.659748ZM380.433274,352.226628c-2.020004,0-3.659748,1.639758-3.659748,3.659748,0,2.020004,1.639758,3.659748,3.659748,3.659748,2.020004,0,3.659748-1.639758,3.659748-3.659748,0-2.020437-1.639311-3.659748-3.659748-3.659748Z" fill="#fdd835"/><rect x="196" y="276" width="227" height="7" fill="#6d4c41"/><rect x="214" y="283" width="132" height="66" fill="none" stroke="#000" stroke-linecap="round" stroke-linejoin="round"/><path d="M214,393h-11v-110h11v110ZM345,283v110h70v-110h-70Z" fill="none" stroke="#000" stroke-linecap="round" stroke-linejoin="round"/><rect x="353" y="308" width="55" height="40" fill="none" stroke="#000" stroke-linecap="round" stroke-linejoin="round"/><path d="M408,315h-55v-7h55v7ZM408,341h-55v7h55v-7Z" fill="none" stroke="#000" stroke-linecap="round" stroke-linejoin="round"/><rect x="214" y="297" width="132" height="7" fill="none" stroke="#000" stroke-linecap="round" stroke-linejoin="round"/><path d="M408,308h-55v-22h55v22ZM408,349h-55v33h55v-33Z" fill="none" stroke="#000" stroke-linecap="round" stroke-linejoin="round"/><path d="M384.093022,293.670187c0,2.019997-1.639758,3.659748-3.659748,3.659748-2.020004,0-3.659748-1.639751-3.659748-3.659748s1.639758-3.659748,3.659748-3.659748c2.020437,0,3.659748,1.639311,3.659748,3.659748ZM380.433274,352.226628c-2.020004,0-3.659748,1.639758-3.659748,3.659748,0,2.020004,1.639758,3.659748,3.659748,3.659748,2.020004,0,3.659748-1.639758,3.659748-3.659748,0-2.020437-1.639311-3.659748-3.659748-3.659748Z" fill="none" stroke="#000" stroke-linecap="round" stroke-linejoin="round"/><rect x="196" y="276" width="227" height="7" fill="none" stroke="#000" stroke-linecap="round" stroke-linejoin="round"/><g id="uuid-6e364813-f116-4a4c-9cf0-0f9c4ab5471a"><rect id="uuid-9b8c5b9a-3b7b-49a8-8843-74a7faf86df7" x="138.253615" y="272.786113" width="31.912601" height="14.959007" transform="translate(-164.655174 254.681087) rotate(-56.59182)" fill="#404040"/><rect id="uuid-fadb0c0e-09a8-4f26-bcac-78dc6a990677" x="152.108531" y="240.927628" width="14.959007" height="31.912601" transform="translate(-42.577969 31.969277) rotate(-10.100556)" fill="#404040"/><rect id="uuid-2ad3b473-5eb1-4b51-9ddc-315bd8538f72" x="133.147777" y="291.3682" width="15.956303" height="15.956303" transform="translate(-186.463131 252.333861) rotate(-56.59182)" fill="#eec6a2"/><rect id="uuid-9127619c-e5e4-4ef5-bfc0-b90f9dcff617" x="85.539719" y="264.70187" width="14.959007" height="31.912601" transform="translate(-139.160733 97.589733) rotate(-33.40818)" fill="#404040"/><rect id="uuid-7d1f9549-2814-4caf-9e45-2a378948d2ee" x="71.684803" y="249.796979" width="31.912601" height="14.959007" transform="translate(-181.018144 298.439087) rotate(-79.899444)" fill="#404040"/><rect id="uuid-601da9f7-2d83-439e-9cf7-da883c7c0087" x="98.125058" y="291.760754" width="15.956303" height="15.956303" transform="translate(-147.504707 107.946499) rotate(-33.40818)" fill="#eec6a2"/><polygon id="uuid-ffe75e59-9811-4c17-ad8d-cbe7863177d6" points="100 381 120 381 120 415.959792 120 423 90 423 90 416 100 416 100 381" fill="#404040"/><rect id="uuid-6984b876-4174-4e43-8e58-05d0e6a4ac6f" x="99.999985" y="342" width="20.000015" height="39" fill="#404040"/><polygon id="uuid-df752b3d-9a68-49aa-befa-76b938043926" points="128.000031 381 148 381 148 416 158 416 158 423 128 423 128 415.959792 128.000031 415.959792 128.000031 381" fill="#404040"/><rect id="uuid-e257e01c-8a99-4880-8d16-203cd2bfe153" x="127.999985" y="342" width="20.000031" height="39" fill="#404040"/><polygon id="uuid-1a673f2a-0ae2-4a62-ba96-ffd3c0af4c4c" points="113.763776 297.879475 113.738789 298 113.847573 298 121.039767 259.521649 115.795689 251 131.627268 251 126.383191 259.521649 133.575385 298 133.684168 298 133.659182 297.879475 133.684168 298 133.556284 298 123.711479 310.811467 113.866674 298 113.738789 298 113.763776 297.879475" fill="#c1272d"/><path id="uuid-9b12fce0-d3ad-4e90-a236-df555d393aa3" d="M152,242v100h-56v-100h56ZM123.711479,291.92768l19.766986-48.92768h-39.533973l19.766986,48.92768Z" fill="#404040"/><path id="uuid-40b8e4bc-ac71-4922-950c-4894df1b0a62" d="M96.529504,230.789839c-2.076169-5.318121-3.294255-11.326614-3.388305-17.706275-.324752-22.028643,12.805304-40.083872,29.326801-40.327436,16.521498-.243564,30.178082,17.416768,30.502835,39.445411.094051,6.379661-.946386,12.42145-2.864885,17.798461l-53.576446.789839Z" fill="#eec6a2"/><path id="uuid-226edf76-ec6a-4a53-be5e-5363c943f236" d="M148.787735,235c-5.31123,11.108678-14.626388,18.483075-25.23917,18.483075s-19.92794-7.374397-25.23917-18.483075h50.478341Z" fill="#eec6a2"/><ellipse id="uuid-78cc10b9-8cd8-457d-9322-ea852e58a6a1" cx="118" cy="221.5" rx="2.987586" ry="4.50793" transform="translate(-17.291554 10.117774) rotate(-4.574947)" fill="#333"/><ellipse id="uuid-2920e79d-888f-49dd-8688-064c3cf733d1" cx="132" cy="220.5" rx="2.987586" ry="4.50793" transform="translate(-17.167185 11.231271) rotate(-4.574947)" fill="#333"/><path id="uuid-71593a04-dde3-4215-9692-f168c72ab923" d="M96.63678,181.261267c9.519313-10.593031,29.086151-10.371805,38.777159-10.262226,12.134176.137193,26.368298,2.352426,26.764286,5.99859.350905,3.231063-10.401141,5.410202-10.314642,10.374914.062911,3.611018,5.807934,5.727836,5.20626,6.698503-1.276294,2.059033-26.091449-9.137504-31.306443-3.943474-2.342997,2.33357.872113,6.380255-1.648041,8.028304-2.603626,1.702647-6.748727-2.150074-16.625532-4.287406-8.500272-1.839452-12.648016-.54776-14.2997-2.977799-2.197379-3.232872,2.822238-8.934573,3.446653-9.629405Z" fill="#534741"/><rect id="uuid-1b3e2ce1-0796-4f11-8272-aabf2da9b2b5" x="138.253615" y="272.786113" width="31.912601" height="14.959007" transform="translate(-164.655174 254.681087) rotate(-56.59182)" fill="none" stroke="#000" stroke-linecap="round" stroke-linejoin="round"/><rect id="uuid-421e44b7-ad43-4881-a7ef-28a226831cae" x="152.108531" y="240.927628" width="14.959007" height="31.912601" transform="translate(-42.577969 31.969277) rotate(-10.100556)" fill="none" stroke="#000" stroke-linecap="round" stroke-linejoin="round"/><rect id="uuid-0050545a-ad8a-4344-84fe-1704d55be4a3" x="133.147777" y="291.3682" width="15.956303" height="15.956303" transform="translate(-186.463131 252.333861) rotate(-56.59182)" fill="none" stroke="#000" stroke-linecap="round" stroke-linejoin="round"/><rect id="uuid-f69dd6cb-ad4e-415b-be7e-7a9dc8264061" x="85.539719" y="264.70187" width="14.959007" height="31.912601" transform="translate(-139.160733 97.589733) rotate(-33.40818)" fill="none" stroke="#000" stroke-linecap="round" stroke-linejoin="round"/><rect id="uuid-9d6cc12b-9e2d-4e4e-a30a-672863451792" x="71.684803" y="249.796979" width="31.912601" height="14.959007" transform="translate(-181.018144 298.439087) rotate(-79.899444)" fill="none" stroke="#000" stroke-linecap="round" stroke-linejoin="round"/><rect id="uuid-cb6f9f2a-8787-493d-b2cb-e75e3eb0b005" x="98.125058" y="291.760754" width="15.956303" height="15.956303" transform="translate(-147.504707 107.946499) rotate(-33.40818)" fill="none" stroke="#000" stroke-linecap="round" stroke-linejoin="round"/><polygon id="uuid-b0f61690-6a9c-48f1-a39d-5e2405303fbd" points="100 381 120 381 120 415.959792 120 423 90 423 90 416 100 416 100 381" fill="none" stroke="#000" stroke-linecap="round" stroke-linejoin="round"/><rect id="uuid-92ab9bbf-ae82-4870-ab57-b86dba589477" x="99.999985" y="342" width="20.000015" height="39" fill="none" stroke="#000" stroke-linecap="round" stroke-linejoin="round"/><polygon id="uuid-ba88fefb-1e81-4bfd-862d-9bd61e7d1594" points="128.000031 381 148 381 148 416 158 416 158 423 128 423 128 415.959792 128.000031 415.959792 128.000031 381" fill="none" stroke="#000" stroke-linecap="round" stroke-linejoin="round"/><rect id="uuid-f8bf9bae-92b5-44eb-be38-0055e1effc35" x="127.999985" y="342" width="20.000031" height="39" fill="none" stroke="#000" stroke-linecap="round" stroke-linejoin="round"/><polygon id="uuid-53bf75d2-e13f-46fe-935e-a1d22ff00f40" points="113.763776 297.879475 113.738789 298 113.847573 298 121.039767 259.521649 115.795689 251 131.627268 251 126.383191 259.521649 133.575385 298 133.684168 298 133.659182 297.879475 133.684168 298 133.556284 298 123.711479 310.811467 113.866674 298 113.738789 298 113.763776 297.879475" fill="none" stroke="#000" stroke-linecap="round" stroke-linejoin="round"/><path id="uuid-d9a48cc5-784d-4447-833d-e1fe68d0d4d3" d="M152,242v100h-56v-100h56ZM123.711479,291.92768l19.766986-48.92768h-39.533973l19.766986,48.92768Z" fill="none" stroke="#000" stroke-linecap="round" stroke-linejoin="round"/><path id="uuid-16994bcc-7e86-4908-a84b-70fc886a67db" d="M96.529504,230.789839c-2.076169-5.318121-3.294255-11.326614-3.388305-17.706275-.324752-22.028643,12.805304-40.083872,29.326801-40.327436,16.521498-.243564,30.178082,17.416768,30.502835,39.445411.094051,6.379661-.946386,12.42145-2.864885,17.798461l-53.576446.789839Z" fill="none" stroke="#000" stroke-linecap="round" stroke-linejoin="round"/><path id="uuid-a2a7d4dc-1d72-4f59-a3e6-9e6662de4b8f" d="M148.787735,235c-5.31123,11.108678-14.626388,18.483075-25.23917,18.483075s-19.92794-7.374397-25.23917-18.483075h50.478341Z" fill="none" stroke="#000" stroke-linecap="round" stroke-linejoin="round"/><ellipse id="uuid-68a932c4-047d-48ad-a535-cf0b9b66da02" cx="118" cy="221.5" rx="2.987586" ry="4.50793" transform="translate(-17.291554 10.117774) rotate(-4.574947)" fill="none" stroke="#000" stroke-linecap="round" stroke-linejoin="round"/><ellipse id="uuid-6ae8cd6b-3647-4907-b480-ca149cd6be00" cx="132" cy="220.5" rx="2.987586" ry="4.50793" transform="translate(-17.167185 11.231271) rotate(-4.574947)" fill="none" stroke="#000" stroke-linecap="round" stroke-linejoin="round"/><path id="uuid-3731f136-deae-453b-9c0b-ef2cea1b4a42" d="M96.63678,181.261267c9.519313-10.593031,29.086151-10.371805,38.777159-10.262226,12.134176.137193,26.368298,2.352426,26.764286,5.99859.350905,3.231063-10.401141,5.410202-10.314642,10.374914.062911,3.611018,5.807934,5.727836,5.20626,6.698503-1.276294,2.059033-26.091449-9.137504-31.306443-3.943474-2.342997,2.33357.872113,6.380255-1.648041,8.028304-2.603626,1.702647-6.748727-2.150074-16.625532-4.287406-8.500272-1.839452-12.648016-.54776-14.2997-2.977799-2.197379-3.232872,2.822238-8.934573,3.446653-9.629405Z" fill="none" stroke="#000" stroke-linecap="round" stroke-linejoin="round"/></g><text transform="translate(58.750854 93.195679)" fill="#333" font-family="ComicNeue-Regular, &apos;Comic Neue&apos;" font-size="24"><tspan x="0" y="0">It was the only way he could stay in </tspan><tspan x="0" y="28.799805">power and continue the conscription.</tspan></text></svg>