<?xml version="1.0" encoding="UTF-8"?><svg id="uuid-a6dabd1b-4956-400d-9251-35887a5c090c" xmlns="http://www.w3.org/2000/svg" viewBox="0 0 500 500"><rect x="214" y="283" width="132" height="66" fill="#3e2723"/><path d="M214,393h-11v-110h11v110ZM345,283v110h70v-110h-70Z" fill="#6d4c41"/><rect x="353" y="308" width="55" height="40" fill="#3e2723"/><path d="M408,315h-55v-7h55v7ZM408,341h-55v7h55v-7Z" fill="#8d6e63"/><rect x="214" y="297" width="132" height="7" fill="#5d4037"/><path d="M408,308h-55v-22h55v22ZM408,349h-55v33h55v-33Z" fill="#8d6e63"/><path d="M384.09,293.67c0,2.02-1.64,3.66-3.66,3.66s-3.66-1.64-3.66-3.66,1.64-3.66,3.66-3.66,3.66,1.64,3.66,3.66ZM380.43,352.23c-2.02,0-3.66,1.64-3.66,3.66s1.64,3.66,3.66,3.66,3.66-1.64,3.66-3.66-1.64-3.66-3.66-3.66Z" fill="#fdd835"/><rect x="196" y="276" width="227" height="7" fill="#6d4c41"/><rect x="214" y="283" width="132" height="66" fill="none" stroke="#000" stroke-linecap="round" stroke-linejoin="round"/><path d="M214,393h-11v-110h11v110ZM345,283v110h70v-110h-70Z" fill="none" stroke="#000" stroke-linecap="round" stroke-linejoin="round"/><rect x="353" y="308" width="55" height="40" fill="none" stroke="#000" stroke-linecap="round" stroke-linejoin="round"/><path d="M408,315h-55v-7h55v7ZM408,341h-55v7h55v-7Z" fill="none" stroke="#000" stroke-linecap="round" stroke-linejoin="round"/><rect x="214" y="297" width="132" height="7" fill="none" stroke="#000" stroke-linecap="round" stroke-linejoin="round"/><path d="M408,308h-55v-22h55v22ZM408,349h-55v33h55v-33Z" fill="none" stroke="#000" stroke-linecap="round" stroke-linejoin="round"/><path d="M384.09,293.67c0,2.02-1.64,3.66-3.66,3.66s-3.66-1.64-3.66-3.66,1.64-3.66,3.66-3.66,3.66,1.64,3.66,3.66ZM380.43,352.23c-2.02,0-3.66,1.64-3.66,3.66s1.64,3.66,3.66,3.66,3.66-1.64,3.66-3.66-1.64-3.66-3.66-3.66Z" fill="none" stroke="#000" stroke-linecap="round" stroke-linejoin="round"/><rect x="196" y="276" width="227" height="7" fill="none" stroke="#000" stroke-linecap="round" stroke-linejoin="round"/><g id="uuid-1c89dbd0-585b-445b-858a-7f3273e46bf3"><rect id="uuid-2b1f4147-4fe7-46d9-8381-42afcf479641" x="138.25" y="272.79" width="31.91" height="14.96" transform="translate(-164.66 254.68) rotate(-56.59)" fill="#404040"/><rect id="uuid-f116f031-67cc-4e71-85e4-678dac15c77e" x="152.11" y="240.93" width="14.96" height="31.91" transform="translate(-42.58 31.97) rotate(-10.1)" fill="#404040"/><rect id="uuid-9a781404-f58e-463f-bd37-f08cae3c2978" x="133.15" y="291.37" width="15.96" height="15.96" transform="translate(-186.46 252.33) rotate(-56.59)" fill="#eec6a2"/><rect id="uuid-26632ea2-e18a-42db-8876-ab7e935c462b" x="85.54" y="264.7" width="14.96" height="31.91" transform="translate(-139.16 97.59) rotate(-33.41)" fill="#404040"/><rect id="uuid-d36289ec-f135-459c-af80-b233cd8feccf" x="71.68" y="249.8" width="31.91" height="14.96" transform="translate(-181.02 298.44) rotate(-79.9)" fill="#404040"/><rect id="uuid-872e9449-8292-4fc5-8c7a-28dc96f275e5" x="98.13" y="291.76" width="15.96" height="15.96" transform="translate(-147.5 107.95) rotate(-33.41)" fill="#eec6a2"/><polygon id="uuid-f03583e3-0997-4095-a94c-487891efeeea" points="100 381 120 381 120 415.96 120 423 90 423 90 416 100 416 100 381" fill="#404040"/><rect id="uuid-3aa867ce-db63-42e9-98f7-0b0538381caa" x="100" y="342" width="20" height="39" fill="#404040"/><polygon id="uuid-64c1739b-a364-4a1f-9e72-5983575deadb" points="128 381 148 381 148 416 158 416 158 423 128 423 128 415.96 128 415.96 128 381" fill="#404040"/><rect id="uuid-2d0e5ed1-dbb9-478f-b500-d52e68cfb1ef" x="128" y="342" width="20" height="39" fill="#404040"/><polygon id="uuid-a0c5d218-4944-4ff0-a96e-8f1d0dddc9b6" points="113.76 297.88 113.74 298 113.85 298 121.04 259.52 115.8 251 131.63 251 126.38 259.52 133.58 298 133.68 298 133.66 297.88 133.68 298 133.56 298 123.71 310.81 113.87 298 113.74 298 113.76 297.88" fill="#c1272d"/><path id="uuid-e1e05d2d-66fb-472d-b99e-2e2f6a13ae2c" d="M152,242v100h-56v-100h56ZM123.71,291.93l19.77-48.93h-39.53l19.77,48.93Z" fill="#404040"/><path id="uuid-76835060-6cf3-4f0a-89c6-fe66c59bbd6a" d="M96.53,230.79c-2.08-5.32-3.29-11.33-3.39-17.71-.32-22.03,12.81-40.08,29.33-40.33,16.52-.24,30.18,17.42,30.5,39.45.09,6.38-.95,12.42-2.86,17.8l-53.58.79Z" fill="#eec6a2"/><path id="uuid-6dfa344c-f93c-4922-a448-a7dd4d3ea2d4" d="M148.79,235c-5.31,11.11-14.63,18.48-25.24,18.48s-19.93-7.37-25.24-18.48h50.48Z" fill="#eec6a2"/><ellipse id="uuid-b990c3c2-41f7-4011-b79a-6fbfb56fa8df" cx="118" cy="221.5" rx="2.99" ry="4.51" transform="translate(-17.29 10.12) rotate(-4.57)" fill="#333"/><ellipse id="uuid-e58f72c6-b74b-45a2-806b-d4f4eb407c2e" cx="132" cy="220.5" rx="2.99" ry="4.51" transform="translate(-17.17 11.23) rotate(-4.57)" fill="#333"/><path id="uuid-6a74638f-711d-4d31-a510-9d26d8035c3b" d="M96.64,181.26c9.52-10.59,29.09-10.37,38.78-10.26,12.13.14,26.37,2.35,26.76,6,.35,3.23-10.4,5.41-10.31,10.37.06,3.61,5.81,5.73,5.21,6.7-1.28,2.06-26.09-9.14-31.31-3.94-2.34,2.33.87,6.38-1.65,8.03-2.6,1.7-6.75-2.15-16.63-4.29-8.5-1.84-12.65-.55-14.3-2.98-2.2-3.23,2.82-8.93,3.45-9.63Z" fill="#534741"/><rect id="uuid-ba9504db-e031-47a3-9760-f850b416bde6" x="138.25" y="272.79" width="31.91" height="14.96" transform="translate(-164.66 254.68) rotate(-56.59)" fill="none" stroke="#000" stroke-linecap="round" stroke-linejoin="round"/><rect id="uuid-e5803bda-1f54-475a-a24e-151f479270c7" x="152.11" y="240.93" width="14.96" height="31.91" transform="translate(-42.58 31.97) rotate(-10.1)" fill="none" stroke="#000" stroke-linecap="round" stroke-linejoin="round"/><rect id="uuid-a55fcabc-ada4-4d94-892c-b4c1b53236ad" x="133.15" y="291.37" width="15.96" height="15.96" transform="translate(-186.46 252.33) rotate(-56.59)" fill="none" stroke="#000" stroke-linecap="round" stroke-linejoin="round"/><rect id="uuid-91fa4861-49af-47b6-92fb-8b9e21c628bb" x="85.54" y="264.7" width="14.96" height="31.91" transform="translate(-139.16 97.59) rotate(-33.41)" fill="none" stroke="#000" stroke-linecap="round" stroke-linejoin="round"/><rect id="uuid-57080e7d-f20b-4734-9f8d-a2f94da56bc4" x="71.68" y="249.8" width="31.91" height="14.96" transform="translate(-181.02 298.44) rotate(-79.9)" fill="none" stroke="#000" stroke-linecap="round" stroke-linejoin="round"/><rect id="uuid-a31313f5-7174-4151-80aa-04423653e969" x="98.13" y="291.76" width="15.96" height="15.96" transform="translate(-147.5 107.95) rotate(-33.41)" fill="none" stroke="#000" stroke-linecap="round" stroke-linejoin="round"/><polygon id="uuid-e97e2d77-730d-49ec-aeab-3de44accae56" points="100 381 120 381 120 415.96 120 423 90 423 90 416 100 416 100 381" fill="none" stroke="#000" stroke-linecap="round" stroke-linejoin="round"/><rect id="uuid-7374d489-c07c-42d7-97b0-d3d3c348d1d2" x="100" y="342" width="20" height="39" fill="none" stroke="#000" stroke-linecap="round" stroke-linejoin="round"/><polygon id="uuid-83a5aaf6-1e10-407c-96e1-9e5a54dc47c8" points="128 381 148 381 148 416 158 416 158 423 128 423 128 415.96 128 415.96 128 381" fill="none" stroke="#000" stroke-linecap="round" stroke-linejoin="round"/><rect id="uuid-af9def16-b23b-4c32-bbc1-74644d09e507" x="128" y="342" width="20" height="39" fill="none" stroke="#000" stroke-linecap="round" stroke-linejoin="round"/><polygon id="uuid-721664e5-e89d-44ca-b471-c54cce573f25" points="113.76 297.88 113.74 298 113.85 298 121.04 259.52 115.8 251 131.63 251 126.38 259.52 133.58 298 133.68 298 133.66 297.88 133.68 298 133.56 298 123.71 310.81 113.87 298 113.74 298 113.76 297.88" fill="none" stroke="#000" stroke-linecap="round" stroke-linejoin="round"/><path id="uuid-6ad1a9fc-e85e-4987-9675-699d3e2f7f1f" d="M152,242v100h-56v-100h56ZM123.71,291.93l19.77-48.93h-39.53l19.77,48.93Z" fill="none" stroke="#000" stroke-linecap="round" stroke-linejoin="round"/><path id="uuid-69ff5c5a-11dd-43cb-92d2-35528dd2249b" d="M96.53,230.79c-2.08-5.32-3.29-11.33-3.39-17.71-.32-22.03,12.81-40.08,29.33-40.33,16.52-.24,30.18,17.42,30.5,39.45.09,6.38-.95,12.42-2.86,17.8l-53.58.79Z" fill="none" stroke="#000" stroke-linecap="round" stroke-linejoin="round"/><path id="uuid-f603bc20-2bbf-4168-9c35-a710060b9547" d="M148.79,235c-5.31,11.11-14.63,18.48-25.24,18.48s-19.93-7.37-25.24-18.48h50.48Z" fill="none" stroke="#000" stroke-linecap="round" stroke-linejoin="round"/><ellipse id="uuid-383398d2-f858-4f46-bd7d-d5fb295d238d" cx="118" cy="221.5" rx="2.99" ry="4.51" transform="translate(-17.29 10.12) rotate(-4.57)" fill="none" stroke="#000" stroke-linecap="round" stroke-linejoin="round"/><ellipse id="uuid-fd4867aa-038f-438d-851b-36f645ecdf3d" cx="132" cy="220.5" rx="2.99" ry="4.51" transform="translate(-17.17 11.23) rotate(-4.57)" fill="none" stroke="#000" stroke-linecap="round" stroke-linejoin="round"/><path id="uuid-8e905192-d570-40b7-bb25-5394d44d4e46" d="M96.64,181.26c9.52-10.59,29.09-10.37,38.78-10.26,12.13.14,26.37,2.35,26.76,6,.35,3.23-10.4,5.41-10.31,10.37.06,3.61,5.81,5.73,5.21,6.7-1.28,2.06-26.09-9.14-31.31-3.94-2.34,2.33.87,6.38-1.65,8.03-2.6,1.7-6.75-2.15-16.63-4.29-8.5-1.84-12.65-.55-14.3-2.98-2.2-3.23,2.82-8.93,3.45-9.63Z" fill="none" stroke="#000" stroke-linecap="round" stroke-linejoin="round"/></g><text transform="translate(58.75 93.2)" fill="#333" font-family="ComicNeue-Regular, &apos;Comic Neue&apos;" font-size="24"><tspan x="0" y="0">It was the only way he could stay in </tspan><tspan x="0" y="28.8">power and continue the conscription.</tspan></text></svg>