<?xml version="1.0" encoding="UTF-8"?><svg id="uuid-b4b1e503-11b6-4456-b614-2513b3c5fb18" xmlns="http://www.w3.org/2000/svg" viewBox="0 0 500 500"><text transform="translate(106.61 99.19)" fill="#333" font-family="ComicNeue-Regular, &apos;Comic Neue&apos;" font-size="24"><tspan x="0" y="0">12 April 1917</tspan><tspan x="0" y="28.8">In Vimy was another battle.</tspan></text><path d="M69.13,390.86c1.72,1.63,19.44,2.74,27.93,6.63,14.97,6.83,16.64,11.9,35.69,14.65,19,2.72,34.31-1.88,56.75-.33,23.12,1.6,32.94,8.37,57.04,9,27.64.74,27.79-8.39,58.91-9.49,31.12-1.09,35.39,3.91,60.53.53,24.74-3.32,27.1-10.09,40.35-14.74,13.25-4.65,22.53-5.77,22.53-5.77,0,0-37.55-39.22-149.87-41.73-121.7-2.7-209.86,41.24-209.86,41.24Z" fill="#754c24"/><path d="M135.7,384.91s26.02.7,53.9-2.21c27.88-2.91,53.61-7.46,56.65-4.7,2.75,2.49-23.61,12.07-23.61,12.07,0,0,12.27,4.21,39.52,2.84,27.25-1.37,47.03-6.3,56.75-9.21,9.72-2.91,25.28-7.39,46.05-9.86,20.77-2.46,32.89-1.6,32.89-1.6,0,0-25.33-12.6-50.42-15.72-54.44-6.77-69.27-4.63-104.17.21-55.91,7.74-107.56,28.18-107.56,28.18Z" fill="#42210b"/><path d="M167.88,391.84c-.35,6.29,27.4,7.03,26.93-.18-.23-3.14-.58-27.18-.58-27.18,0-3.88.93-7.77,2.57-10.72l21.22-39.39c1.75-3.14,3.61-6.1,5.83-8.51,3.26-3.7,8.05-9.06,9.56-10.72,2.33-2.4,5.6-1.66,6.88-.55s7,4.07,7,4.07l1.87-4.07s-6.88-6.29-8.51-7.95c-3.61-3.33-8.51-1.85-11.19.55-3.15,2.77-8.16,7.77-8.16,7.77,0,0-.35-9.43-.58-15.35,0-2.22.35-4.62,1.17-6.47,2.57-5.55,7.81-16.64,7.81-16.64l-2.57-2.96s-7.46,10.17-9.09,13.13c-.93,1.85-3.5,3.88-5.13,1.11-1.4-2.4-5.25-7.77-5.25-7.77l-1.98,2.59,6.41,12.57c.58,1.11.93,2.59.93,3.88v21.45c.12,0-17.02,27.74-19.24,31.06-.35-25.89,4.55-26.44,4.31-40.86-.23-10.17-5.25-18.12-7.7-22.37-1.98-3.51-12.01-19.23-16.32-25.7-1.05-1.66-2.68-4.07-3.03-7.77-.35-3.33-.93-7.95-1.17-10.72-.58-4.81.7-9.06,2.45-12.94,1.52-3.33,6.41-14.61,7.93-17.38s3.73-6.29,6.53-7.58c2.8-1.29,11.08-6.84,11.08-6.84l-.93-3.51s-11.89,4.62-13.53,5.36c-1.63.74-4.08,1.85-7,6.66-2.91,4.81-13.88,19.6-15.27,21.63-1.52,2.03-4.08,5.92-4.08,11.28s.82,17.57.82,17.57l-12.94-1.48c-2.45,0-6.41-2.4-8.05-5.18l-9.44-16.46-3.03,3.88,7.46,17.94-17.49,6.84.47,4.25s11.78-2.4,14.23-2.96c2.45-.55,8.51.74,15.74,2.59,7.58,1.85,12.71,1.48,19.71,14.98,1.63,3.14,5.95,12.02,9.21,18.86,2.45,4.99,3.03,11.65,1.63,17.57-3.03,12.94-7.58,20.15-6.76,39.76.58,12.39-.58,48.82-.82,52.33l.12.55Z" fill="#875c51"/><path d="M243.15,263.13c2.11-5.88-1.36-13.08-8.24-16.59-6.88-3.51-14.74-2.11-18.27,3.05-2.47-.85-4.06-1.13-4.29-.68-.54,1.06,6.6,5.8,15.95,10.58,9.35,4.78,17.37,7.79,17.91,6.73.23-.45-.93-1.57-3.06-3.08Z" fill="#6a6a6a"/><path d="M304.9,364.4c-.21,3.78,16.45,4.22,16.17-.11-.14-1.89-.35-16.32-.35-16.32,0-2.33.56-4.66,1.54-6.44l12.74-23.65c1.05-1.89,2.17-3.66,3.5-5.11,1.96-2.22,4.83-5.44,5.74-6.44,1.4-1.44,3.36-1,4.13-.33s4.2,2.44,4.2,2.44l1.12-2.44s-4.13-3.78-5.11-4.77c-2.17-2-5.11-1.11-6.72.33-1.89,1.67-4.9,4.66-4.9,4.66,0,0-.21-5.66-.35-9.22,0-1.33.21-2.78.7-3.89,1.54-3.33,4.69-9.99,4.69-9.99l-1.54-1.78s-4.48,6.11-5.46,7.88c-.56,1.11-2.1,2.33-3.08.67-.84-1.44-3.15-4.66-3.15-4.66l-1.19,1.55,3.85,7.55c.35.67.56,1.55.56,2.33v12.88c.07,0-10.22,16.65-11.55,18.65-.21-15.54,2.73-15.88,2.59-24.54-.14-6.11-3.15-10.88-4.62-13.43-1.19-2.11-7.21-11.55-9.8-15.43-.63-1-1.61-2.44-1.82-4.66-.21-2-.56-4.77-.7-6.44-.35-2.89.42-5.44,1.47-7.77.91-2,3.85-8.77,4.76-10.44s2.24-3.78,3.92-4.55c1.68-.78,6.65-4.11,6.65-4.11l-.56-2.11s-7.14,2.78-8.12,3.22c-.98.44-2.45,1.11-4.2,4-1.75,2.89-8.33,11.77-9.17,12.99-.91,1.22-2.45,3.55-2.45,6.77s.49,10.55.49,10.55l-7.77-.89c-1.47,0-3.85-1.44-4.83-3.11l-5.67-9.88-1.82,2.33,4.48,10.77-10.5,4.11.28,2.55s7.07-1.44,8.54-1.78c1.47-.33,5.11.44,9.45,1.55,4.55,1.11,7.63.89,11.83,8.99.98,1.89,3.57,7.22,5.53,11.33,1.47,3,1.82,6.99.98,10.55-1.82,7.77-4.55,12.1-4.06,23.87.35,7.44-.35,29.31-.49,31.42l.07.33Z" fill="#875c51"/><path d="M69.13,390.86c1.72,1.63,19.44,2.74,27.93,6.63,14.97,6.83,16.64,11.9,35.69,14.65,19,2.72,34.31-1.88,56.75-.33,23.12,1.6,32.94,8.37,57.04,9,27.64.74,27.79-8.39,58.91-9.49,31.12-1.09,35.39,3.91,60.53.53,24.74-3.32,27.1-10.09,40.35-14.74,13.25-4.65,22.53-5.77,22.53-5.77,0,0-37.55-39.22-149.87-41.73-121.7-2.7-209.86,41.24-209.86,41.24Z" fill="none" stroke="#000" stroke-linecap="round" stroke-linejoin="round"/><path d="M135.7,384.91s26.02.7,53.9-2.21c27.88-2.91,53.61-7.46,56.65-4.7,2.75,2.49-23.61,12.07-23.61,12.07,0,0,12.27,4.21,39.52,2.84,27.25-1.37,47.03-6.3,56.75-9.21,9.72-2.91,25.28-7.39,46.05-9.86,20.77-2.46,32.89-1.6,32.89-1.6,0,0-25.33-12.6-50.42-15.72-54.44-6.77-69.27-4.63-104.17.21-55.91,7.74-107.56,28.18-107.56,28.18Z" fill="none" stroke="#000" stroke-linecap="round" stroke-linejoin="round"/><path d="M69.13,390.86c1.72,1.63,19.44,2.74,27.93,6.63,14.97,6.83,16.64,11.9,35.69,14.65,19,2.72,34.31-1.88,56.75-.33,23.12,1.6,32.94,8.37,57.04,9,27.64.74,27.79-8.39,58.91-9.49,31.12-1.09,35.39,3.91,60.53.53,24.74-3.32,27.1-10.09,40.35-14.74,13.25-4.65,22.53-5.77,22.53-5.77,0,0-37.55-39.22-149.87-41.73-121.7-2.7-209.86,41.24-209.86,41.24Z" fill="none" stroke="#000" stroke-linecap="round" stroke-linejoin="round"/><path d="M135.7,384.91s26.02.7,53.9-2.21c27.88-2.91,53.61-7.46,56.65-4.7,2.75,2.49-23.61,12.07-23.61,12.07,0,0,12.27,4.21,39.52,2.84,27.25-1.37,47.03-6.3,56.75-9.21,9.72-2.91,25.28-7.39,46.05-9.86,20.77-2.46,32.89-1.6,32.89-1.6,0,0-25.33-12.6-50.42-15.72-54.44-6.77-69.27-4.63-104.17.21-55.91,7.74-107.56,28.18-107.56,28.18Z" fill="none" stroke="#000" stroke-linecap="round" stroke-linejoin="round"/><path d="M167.88,391.84c-.35,6.29,27.4,7.03,26.93-.18-.23-3.14-.58-27.18-.58-27.18,0-3.88.93-7.77,2.57-10.72l21.22-39.39c1.75-3.14,3.61-6.1,5.83-8.51,3.26-3.7,8.05-9.06,9.56-10.72,2.33-2.4,5.6-1.66,6.88-.55s7,4.07,7,4.07l1.87-4.07s-6.88-6.29-8.51-7.95c-3.61-3.33-8.51-1.85-11.19.55-3.15,2.77-8.16,7.77-8.16,7.77,0,0-.35-9.43-.58-15.35,0-2.22.35-4.62,1.17-6.47,2.57-5.55,7.81-16.64,7.81-16.64l-2.57-2.96s-7.46,10.17-9.09,13.13c-.93,1.85-3.5,3.88-5.13,1.11-1.4-2.4-5.25-7.77-5.25-7.77l-1.98,2.59,6.41,12.57c.58,1.11.93,2.59.93,3.88v21.45c.12,0-17.02,27.74-19.24,31.06-.35-25.89,4.55-26.44,4.31-40.86-.23-10.17-5.25-18.12-7.7-22.37-1.98-3.51-12.01-19.23-16.32-25.7-1.05-1.66-2.68-4.07-3.03-7.77-.35-3.33-.93-7.95-1.17-10.72-.58-4.81.7-9.06,2.45-12.94,1.52-3.33,6.41-14.61,7.93-17.38s3.73-6.29,6.53-7.58c2.8-1.29,11.08-6.84,11.08-6.84l-.93-3.51s-11.89,4.62-13.53,5.36c-1.63.74-4.08,1.85-7,6.66-2.91,4.81-13.88,19.6-15.27,21.63-1.52,2.03-4.08,5.92-4.08,11.28s.82,17.57.82,17.57l-12.94-1.48c-2.45,0-6.41-2.4-8.05-5.18l-9.44-16.46-3.03,3.88,7.46,17.94-17.49,6.84.47,4.25s11.78-2.4,14.23-2.96c2.45-.55,8.51.74,15.74,2.59,7.58,1.85,12.71,1.48,19.71,14.98,1.63,3.14,5.95,12.02,9.21,18.86,2.45,4.99,3.03,11.65,1.63,17.57-3.03,12.94-7.58,20.15-6.76,39.76.58,12.39-.58,48.82-.82,52.33l.12.55Z" fill="none" stroke="#000" stroke-linecap="round" stroke-linejoin="round"/><path d="M243.15,263.13c2.11-5.88-1.36-13.08-8.24-16.59-6.88-3.51-14.74-2.11-18.27,3.05-2.47-.85-4.06-1.13-4.29-.68-.54,1.06,6.6,5.8,15.95,10.58,9.35,4.78,17.37,7.79,17.91,6.73.23-.45-.93-1.57-3.06-3.08Z" fill="none" stroke="#000" stroke-linecap="round" stroke-linejoin="round"/><path d="M304.9,364.4c-.21,3.78,16.45,4.22,16.17-.11-.14-1.89-.35-16.32-.35-16.32,0-2.33.56-4.66,1.54-6.44l12.74-23.65c1.05-1.89,2.17-3.66,3.5-5.11,1.96-2.22,4.83-5.44,5.74-6.44,1.4-1.44,3.36-1,4.13-.33s4.2,2.44,4.2,2.44l1.12-2.44s-4.13-3.78-5.11-4.77c-2.17-2-5.11-1.11-6.72.33-1.89,1.67-4.9,4.66-4.9,4.66,0,0-.21-5.66-.35-9.22,0-1.33.21-2.78.7-3.89,1.54-3.33,4.69-9.99,4.69-9.99l-1.54-1.78s-4.48,6.11-5.46,7.88c-.56,1.11-2.1,2.33-3.08.67-.84-1.44-3.15-4.66-3.15-4.66l-1.19,1.55,3.85,7.55c.35.67.56,1.55.56,2.33v12.88c.07,0-10.22,16.65-11.55,18.65-.21-15.54,2.73-15.88,2.59-24.54-.14-6.11-3.15-10.88-4.62-13.43-1.19-2.11-7.21-11.55-9.8-15.43-.63-1-1.61-2.44-1.82-4.66-.21-2-.56-4.77-.7-6.44-.35-2.89.42-5.44,1.47-7.77.91-2,3.85-8.77,4.76-10.44s2.24-3.78,3.92-4.55c1.68-.78,6.65-4.11,6.65-4.11l-.56-2.11s-7.14,2.78-8.12,3.22c-.98.44-2.45,1.11-4.2,4-1.75,2.89-8.33,11.77-9.17,12.99-.91,1.22-2.45,3.55-2.45,6.77s.49,10.55.49,10.55l-7.77-.89c-1.47,0-3.85-1.44-4.83-3.11l-5.67-9.88-1.82,2.33,4.48,10.77-10.5,4.11.28,2.55s7.07-1.44,8.54-1.78c1.47-.33,5.11.44,9.45,1.55,4.55,1.11,7.63.89,11.83,8.99.98,1.89,3.57,7.22,5.53,11.33,1.47,3,1.82,6.99.98,10.55-1.82,7.77-4.55,12.1-4.06,23.87.35,7.44-.35,29.31-.49,31.42l.07.33Z" fill="none" stroke="#000" stroke-linecap="round" stroke-linejoin="round"/></svg>