<?xml version="1.0" encoding="UTF-8"?><svg id="uuid-080bc623-1579-4c65-9062-2af189cf2caa" xmlns="http://www.w3.org/2000/svg" viewBox="0 0 500 500"><text transform="translate(106.606079 99.189575)" fill="#333" font-family="ComicNeue-Regular, &apos;Comic Neue&apos;" font-size="24"><tspan x="0" y="0">12 April 1917</tspan><tspan x="0" y="28.799805">In Vimy was another battle.</tspan></text><path d="M69.132541,390.864417c1.718168,1.627343,19.439817,2.743249,27.932465,6.625637,14.972586,6.834877,16.641663,11.902912,35.688766,14.646161,18.998003,2.719996,34.314221-1.883071,56.748578-.325469,23.121602,1.604108,32.939694,8.369227,57.043109,8.996929,27.637915.743931,27.785181-8.39248,58.908551-9.485132,31.123371-1.092652,35.394217,3.905642,60.528546.534709,24.741596-3.324445,27.097917-10.089564,40.352364-14.739137,13.254447-4.649573,22.53254-5.765478,22.53254-5.765478,0,0-37.554209-39.219152-149.873167-41.729925-121.695291-2.696761-209.861752,41.241704-209.861752,41.241704Z" fill="#754c24"/><path d="M135.699211,384.912952s26.01794.697443,53.901322-2.20854c27.883382-2.905983,53.606773-7.462562,56.650395-4.696061,2.749072,2.487521-23.612518,12.065647-23.612518,12.065647,0,0,12.272615,4.207858,39.517816,2.836242,27.24522-1.371615,47.028669-6.300169,56.748559-9.206152,9.71989-2.905983,25.281594-7.392821,46.046838-9.857089,20.765281-2.464268,32.890593-1.604108,32.890593-1.604108,0,0-25.330658-12.600338-50.415885-15.71556-54.441302-6.765137-69.266641-4.62632-104.169961.209222-55.914012,7.741543-107.557159,28.176399-107.557159,28.176399Z" fill="#42210b"/><path d="M167.876031,391.842629c-.349797,6.286869,27.40086,7.026503,26.93447-.184905-.233195-3.143428-.582997-27.181446-.582997-27.181446,0-3.883062.932799-7.766123,2.565184-10.72466l21.221092-39.385361c1.748991-3.143428,3.61458-6.101964,5.829971-8.505758,3.264787-3.698157,8.045362-9.060487,9.561149-10.72466,2.331988-2.403808,5.596776-1.664173,6.879368-.554729s6.995965,4.067967,6.995965,4.067967l1.865589-4.067967s-6.879368-6.286869-8.511762-7.951043c-3.61458-3.32834-8.511762-1.849078-11.193543.554729-3.148181,2.773618-8.16196,7.766123-8.16196,7.766123,0,0-.349802-9.430297-.582997-15.347349,0-2.218895.349802-4.622696,1.165994-6.471774,2.565184-5.547235,7.812158-16.641705,7.812158-16.641705l-2.565184-2.958523s-7.462365,10.169931-9.094759,13.128454c-.932799,1.849078-3.497983,3.883062-5.130376,1.109444-1.39919-2.4038-5.246974-7.766131-5.246974-7.766131l-1.982187,2.588713,6.412968,12.573731c.582997,1.109444.932799,2.588713.932799,3.883062v21.449313c.116598,0-17.023514,27.736175-19.238905,31.064508-.349802-25.887097,4.547379-26.441826,4.314175-40.864629-.233195-10.169931-5.246974-18.120966-7.69556-22.373845-1.982187-3.513252-12.00974-19.230418-16.323919-25.702192-1.049397-1.664173-2.681786-4.067974-3.031583-7.766131-.349797-3.32834-.932795-7.951036-1.165994-10.724653-.582997-4.807604.699595-9.060483,2.448586-12.943549,1.515792-3.32834,6.412968-14.607718,7.928764-17.381336s3.731178-6.286866,6.529566-7.581222c2.798388-1.294354,11.076945-6.84159,11.076945-6.84159l-.932799-3.513249s-11.893138,4.622696-13.525531,5.362327c-1.632394.739632-4.08098,1.849078-6.995965,6.656681-2.914986,4.807603-13.875324,19.600235-15.274514,21.634222-1.515792,2.033987-4.08098,5.917052-4.08098,11.279379s.816197,17.566248.816197,17.566248l-12.942539-1.479268c-2.448588,0-6.412968-2.4038-8.04536-5.177418l-9.444554-16.4568-3.031585,3.883065,7.462363,17.936058-17.489914,6.841591.466397,4.252879s11.776542-2.4038,14.225128-2.958523c2.448586-.554722,8.511757.739634,15.740922,2.588713,7.578963,1.849078,12.709335,1.479261,19.7053,14.977532,1.632394,3.143435,5.946569,12.019009,9.211356,18.860601,2.448586,4.992513,3.031583,11.649192,1.632394,17.566237-3.031583,12.943549-7.578963,20.154957-6.762766,39.755185.582997,12.388819-.582997,48.815671-.816197,52.328923l.116602.554729Z" fill="#875c51"/><path d="M243.154818,263.130283c2.106527-5.88436-1.356869-13.076192-8.235634-16.591163-6.878766-3.514972-14.7361-2.107906-18.270441,3.046858-2.467216-.846135-4.056983-1.134028-4.288306-.68133-.543367,1.063364,6.59576,5.798478,15.94568,10.576182,9.34992,4.777704,17.370012,7.788778,17.913378,6.725415.231324-.452698-.933432-1.572335-3.064677-3.075961Z" fill="#6a6a6a"/><path d="M304.904877,364.395157c-.210039,3.775011,16.453111,4.219132,16.173063-.111028-.140024-1.887501-.350066-16.321362-.350066-16.321362,0-2.331622.560108-4.663244,1.540289-6.439726l12.74241-23.64932c1.050199-1.887501,2.17041-3.663983,3.500663-5.107364,1.960373-2.220594,4.830915-5.440457,5.741084-6.439726,1.400265-1.443389,3.360638-.999269,4.130783-.333092s4.200795,2.44265,4.200795,2.44265l1.120211-2.44265s-4.130783-3.775011-5.110969-4.77428c-2.17041-1.998534-5.110969-1.110297-6.721271.333092-1.890356,1.665445-4.900928,4.663244-4.900928,4.663244,0,0-.210042-5.662513-.350066-9.215464,0-1.332357.210042-2.775742.700133-3.886039,1.540289-3.330891,4.690886-9.992673,4.690886-9.992673l-1.540289-1.776473s-4.480849,6.106633-5.461036,7.883107c-.560108,1.110297-2.100398,2.331622-3.080584.666176-.840157-1.443385-3.150596-4.663248-3.150596-4.663248l-1.190223,1.554417,3.850729,7.550019c.350066.666176.560108,1.554417.560108,2.331622v12.879447c.070012,0-10.221934,16.654455-11.552186,18.652984-.210042-15.544158,2.730518-15.87725,2.590488-24.537561-.140024-6.106633-3.150596-10.880909-4.620873-13.434592-1.190223-2.109566-7.211364-11.54709-9.801855-15.43313-.63012-.999269-1.610304-2.442654-1.820343-4.663248-.210039-1.998534-.560105-4.774276-.700133-6.439722-.350066-2.886773.420078-5.440455,1.470277-7.772079.910172-1.998534,3.850729-8.771346,4.760903-10.436791s2.240422-3.775009,3.920741-4.552218c1.680319-.777208,6.651259-4.108099,6.651259-4.108099l-.560108-2.109564s-7.141349,2.775742-8.121536,3.219861c-.980187.444119-2.450464,1.110297-4.200795,3.997068-1.750331,2.886771-8.331573,11.76915-9.171729,12.990477-.910172,1.221327-2.450464,3.552951-2.450464,6.772812s.490093,10.547823.490093,10.547823l-7.771472-.888241c-1.470279,0-3.850729-1.443385-4.830914-3.108831l-5.671074-9.881645-1.820345,2.331624,4.480848,10.769879-10.501988,4.1081.280053,2.553682s7.071339-1.443385,8.541616-1.776473c1.470277-.333088,5.110967.44412,9.451789,1.554417,4.550861,1.110297,7.631443.888237,11.832238,8.993404.980187,1.887506,3.570675,7.21693,5.531048,11.32503,1.470277,2.997803,1.820343,6.99487.980187,10.547817-1.820343,7.772079-4.550861,12.102239-4.060768,23.871385.350066,7.438986-.350066,29.311842-.490093,31.421408l.070015.333092Z" fill="#875c51"/><path d="M69.132541,390.864417c1.718168,1.627343,19.439817,2.743249,27.932465,6.625637,14.972586,6.834877,16.641663,11.902912,35.688766,14.646161,18.998003,2.719996,34.314221-1.883071,56.748578-.325469,23.121602,1.604108,32.939694,8.369227,57.043109,8.996929,27.637915.743931,27.785181-8.39248,58.908551-9.485132,31.123371-1.092652,35.394217,3.905642,60.528546.534709,24.741596-3.324445,27.097917-10.089564,40.352364-14.739137,13.254447-4.649573,22.53254-5.765478,22.53254-5.765478,0,0-37.554209-39.219152-149.873167-41.729925-121.695291-2.696761-209.861752,41.241704-209.861752,41.241704Z" fill="none" stroke="#000" stroke-linecap="round" stroke-linejoin="round"/><path d="M135.699211,384.912952s26.01794.697443,53.901322-2.20854c27.883382-2.905983,53.606773-7.462562,56.650395-4.696061,2.749072,2.487521-23.612518,12.065647-23.612518,12.065647,0,0,12.272615,4.207858,39.517816,2.836242,27.24522-1.371615,47.028669-6.300169,56.748559-9.206152,9.71989-2.905983,25.281594-7.392821,46.046838-9.857089,20.765281-2.464268,32.890593-1.604108,32.890593-1.604108,0,0-25.330658-12.600338-50.415885-15.71556-54.441302-6.765137-69.266641-4.62632-104.169961.209222-55.914012,7.741543-107.557159,28.176399-107.557159,28.176399Z" fill="none" stroke="#000" stroke-linecap="round" stroke-linejoin="round"/><path d="M69.132541,390.864417c1.718168,1.627343,19.439817,2.743249,27.932465,6.625637,14.972586,6.834877,16.641663,11.902912,35.688766,14.646161,18.998003,2.719996,34.314221-1.883071,56.748578-.325469,23.121602,1.604108,32.939694,8.369227,57.043109,8.996929,27.637915.743931,27.785181-8.39248,58.908551-9.485132,31.123371-1.092652,35.394217,3.905642,60.528546.534709,24.741596-3.324445,27.097917-10.089564,40.352364-14.739137,13.254447-4.649573,22.53254-5.765478,22.53254-5.765478,0,0-37.554209-39.219152-149.873167-41.729925-121.695291-2.696761-209.861752,41.241704-209.861752,41.241704Z" fill="none" stroke="#000" stroke-linecap="round" stroke-linejoin="round"/><path d="M135.699211,384.912952s26.01794.697443,53.901322-2.20854c27.883382-2.905983,53.606773-7.462562,56.650395-4.696061,2.749072,2.487521-23.612518,12.065647-23.612518,12.065647,0,0,12.272615,4.207858,39.517816,2.836242,27.24522-1.371615,47.028669-6.300169,56.748559-9.206152,9.71989-2.905983,25.281594-7.392821,46.046838-9.857089,20.765281-2.464268,32.890593-1.604108,32.890593-1.604108,0,0-25.330658-12.600338-50.415885-15.71556-54.441302-6.765137-69.266641-4.62632-104.169961.209222-55.914012,7.741543-107.557159,28.176399-107.557159,28.176399Z" fill="none" stroke="#000" stroke-linecap="round" stroke-linejoin="round"/><path d="M167.876031,391.842629c-.349797,6.286869,27.40086,7.026503,26.93447-.184905-.233195-3.143428-.582997-27.181446-.582997-27.181446,0-3.883062.932799-7.766123,2.565184-10.72466l21.221092-39.385361c1.748991-3.143428,3.61458-6.101964,5.829971-8.505758,3.264787-3.698157,8.045362-9.060487,9.561149-10.72466,2.331988-2.403808,5.596776-1.664173,6.879368-.554729s6.995965,4.067967,6.995965,4.067967l1.865589-4.067967s-6.879368-6.286869-8.511762-7.951043c-3.61458-3.32834-8.511762-1.849078-11.193543.554729-3.148181,2.773618-8.16196,7.766123-8.16196,7.766123,0,0-.349802-9.430297-.582997-15.347349,0-2.218895.349802-4.622696,1.165994-6.471774,2.565184-5.547235,7.812158-16.641705,7.812158-16.641705l-2.565184-2.958523s-7.462365,10.169931-9.094759,13.128454c-.932799,1.849078-3.497983,3.883062-5.130376,1.109444-1.39919-2.4038-5.246974-7.766131-5.246974-7.766131l-1.982187,2.588713,6.412968,12.573731c.582997,1.109444.932799,2.588713.932799,3.883062v21.449313c.116598,0-17.023514,27.736175-19.238905,31.064508-.349802-25.887097,4.547379-26.441826,4.314175-40.864629-.233195-10.169931-5.246974-18.120966-7.69556-22.373845-1.982187-3.513252-12.00974-19.230418-16.323919-25.702192-1.049397-1.664173-2.681786-4.067974-3.031583-7.766131-.349797-3.32834-.932795-7.951036-1.165994-10.724653-.582997-4.807604.699595-9.060483,2.448586-12.943549,1.515792-3.32834,6.412968-14.607718,7.928764-17.381336s3.731178-6.286866,6.529566-7.581222c2.798388-1.294354,11.076945-6.84159,11.076945-6.84159l-.932799-3.513249s-11.893138,4.622696-13.525531,5.362327c-1.632394.739632-4.08098,1.849078-6.995965,6.656681-2.914986,4.807603-13.875324,19.600235-15.274514,21.634222-1.515792,2.033987-4.08098,5.917052-4.08098,11.279379s.816197,17.566248.816197,17.566248l-12.942539-1.479268c-2.448588,0-6.412968-2.4038-8.04536-5.177418l-9.444554-16.4568-3.031585,3.883065,7.462363,17.936058-17.489914,6.841591.466397,4.252879s11.776542-2.4038,14.225128-2.958523c2.448586-.554722,8.511757.739634,15.740922,2.588713,7.578963,1.849078,12.709335,1.479261,19.7053,14.977532,1.632394,3.143435,5.946569,12.019009,9.211356,18.860601,2.448586,4.992513,3.031583,11.649192,1.632394,17.566237-3.031583,12.943549-7.578963,20.154957-6.762766,39.755185.582997,12.388819-.582997,48.815671-.816197,52.328923l.116602.554729Z" fill="none" stroke="#000" stroke-linecap="round" stroke-linejoin="round"/><path d="M243.154818,263.130283c2.106527-5.88436-1.356869-13.076192-8.235634-16.591163-6.878766-3.514972-14.7361-2.107906-18.270441,3.046858-2.467216-.846135-4.056983-1.134028-4.288306-.68133-.543367,1.063364,6.59576,5.798478,15.94568,10.576182,9.34992,4.777704,17.370012,7.788778,17.913378,6.725415.231324-.452698-.933432-1.572335-3.064677-3.075961Z" fill="none" stroke="#000" stroke-linecap="round" stroke-linejoin="round"/><path d="M304.904877,364.395157c-.210039,3.775011,16.453111,4.219132,16.173063-.111028-.140024-1.887501-.350066-16.321362-.350066-16.321362,0-2.331622.560108-4.663244,1.540289-6.439726l12.74241-23.64932c1.050199-1.887501,2.17041-3.663983,3.500663-5.107364,1.960373-2.220594,4.830915-5.440457,5.741084-6.439726,1.400265-1.443389,3.360638-.999269,4.130783-.333092s4.200795,2.44265,4.200795,2.44265l1.120211-2.44265s-4.130783-3.775011-5.110969-4.77428c-2.17041-1.998534-5.110969-1.110297-6.721271.333092-1.890356,1.665445-4.900928,4.663244-4.900928,4.663244,0,0-.210042-5.662513-.350066-9.215464,0-1.332357.210042-2.775742.700133-3.886039,1.540289-3.330891,4.690886-9.992673,4.690886-9.992673l-1.540289-1.776473s-4.480849,6.106633-5.461036,7.883107c-.560108,1.110297-2.100398,2.331622-3.080584.666176-.840157-1.443385-3.150596-4.663248-3.150596-4.663248l-1.190223,1.554417,3.850729,7.550019c.350066.666176.560108,1.554417.560108,2.331622v12.879447c.070012,0-10.221934,16.654455-11.552186,18.652984-.210042-15.544158,2.730518-15.87725,2.590488-24.537561-.140024-6.106633-3.150596-10.880909-4.620873-13.434592-1.190223-2.109566-7.211364-11.54709-9.801855-15.43313-.63012-.999269-1.610304-2.442654-1.820343-4.663248-.210039-1.998534-.560105-4.774276-.700133-6.439722-.350066-2.886773.420078-5.440455,1.470277-7.772079.910172-1.998534,3.850729-8.771346,4.760903-10.436791s2.240422-3.775009,3.920741-4.552218c1.680319-.777208,6.651259-4.108099,6.651259-4.108099l-.560108-2.109564s-7.141349,2.775742-8.121536,3.219861c-.980187.444119-2.450464,1.110297-4.200795,3.997068-1.750331,2.886771-8.331573,11.76915-9.171729,12.990477-.910172,1.221327-2.450464,3.552951-2.450464,6.772812s.490093,10.547823.490093,10.547823l-7.771472-.888241c-1.470279,0-3.850729-1.443385-4.830914-3.108831l-5.671074-9.881645-1.820345,2.331624,4.480848,10.769879-10.501988,4.1081.280053,2.553682s7.071339-1.443385,8.541616-1.776473c1.470277-.333088,5.110967.44412,9.451789,1.554417,4.550861,1.110297,7.631443.888237,11.832238,8.993404.980187,1.887506,3.570675,7.21693,5.531048,11.32503,1.470277,2.997803,1.820343,6.99487.980187,10.547817-1.820343,7.772079-4.550861,12.102239-4.060768,23.871385.350066,7.438986-.350066,29.311842-.490093,31.421408l.070015.333092Z" fill="none" stroke="#000" stroke-linecap="round" stroke-linejoin="round"/></svg>