<?xml version="1.0" encoding="UTF-8"?><svg id="uuid-4827e160-1d38-49da-9e96-9e304beaaa34" xmlns="http://www.w3.org/2000/svg" xmlns:xlink="http://www.w3.org/1999/xlink" viewBox="0 0 500 500"><defs><linearGradient id="uuid-00280026-c998-489e-b2ff-f6bf9cc7d443" x1="1022.95" y1="-270.78" x2="1022.95" y2="-270.8" gradientTransform="translate(2.35 1294.28) rotate(-90) scale(1 -1)" gradientUnits="userSpaceOnUse"><stop offset="0" stop-color="#ce8963"/><stop offset="1" stop-color="#d08a61" stop-opacity="0"/></linearGradient><radialGradient id="uuid-7f68e0aa-55b9-412f-9de2-68b97a32ea12" cx="212.59" cy="-278.12" fx="212.59" fy="-278.12" r="6.5" gradientTransform="translate(97.45 33.3) rotate(90) scale(1.18 .6)" gradientUnits="userSpaceOnUse"><stop offset=".06" stop-color="#ffa726"/><stop offset=".14" stop-color="#ffa726"/><stop offset="1" stop-color="#ffa726" stop-opacity=".1"/></radialGradient><linearGradient id="uuid-f36f1d22-2fe3-4b20-b001-370c0e0ef57a" x1="145.47" y1="-263.15" x2="150.47" y2="-263.15" gradientTransform="translate(2.35 135.53) rotate(90)" gradientUnits="userSpaceOnUse"><stop offset="0" stop-color="#8a5140"/><stop offset="1" stop-color="#8a5140"/></linearGradient></defs><path d="M157.56,187.65l13.31-26.53c1.86-3.76,4.87-6.4,8.16-7.34,3.86-1.13,9.44-3.57,13.45-9.78,7.15-10.72,11.02-17.87,11.02-17.87l-3.29-3.76s-8.44,10.72-12.02,14.86c-3,3.39-6.3,5.83-12.74,6.4-2.29.19-4.15-2.07-4.15-5.08,0-4.14-.14-8.65-.29-11.67,0-2.07.43-4.14,1.43-5.83l3.43-5.64-2.86-2.45-4.58,7.15c-1.14,1.69-3.15,2.26-4.58,1.13l-8.59-6.59-1.29,3.39,7.58,6.96c1.57,1.51,2.43,3.95,2.43,6.59v15.8l-19.17,27.47,12.59,12.98.14-.19Z" fill="#6c4a41"/><path d="M129.31,106.37c0-.68-.29-13.84-.57-22.01,0-4.08.72-8.17,2.43-11.35l1.29-2.5-3-2.95-5.58,8.62c-2.43,3.86-3.86,8.85-4.01,14.3l-.72,29.5,10.16-13.62Z" fill="#6c4a41"/><path d="M138.75,244l-28.19-20.52,2.86-20.34-3.72-3.13-7.73,20.34c-.72,1.91-2.29,3.3-4.15,3.48l-9.87.87c-2.72.17-5.58-.87-7.73-2.96l-17.17-16.69-2.86,3.3,14.6,18.61c.72,1.04.29,2.61-.86,2.78l-10.87,1.74.43,3.83,32.34-1.74c4.87-.17,9.73,1.91,13.31,5.91,9.01,9.91,25.61,28,25.76,27.47,0-.87,4.01-22.95,4.01-22.95,0,0-.14,0-.14,0Z" fill="#6c4a41"/><path d="M129.62,333.52c-.43,7.72,33.63,8.62,33.05-.23-.29-3.86-.72-33.36-.72-33.36,0-4.77,1.14-9.53,3.15-13.16l26.04-48.33c2.15-3.86,4.44-7.49,7.15-10.44,4.01-4.54,9.87-11.12,11.73-13.16,2.86-2.95,6.87-2.04,8.44-.68,1.57,1.36,8.59,4.99,8.59,4.99l2.29-4.99s-8.44-7.72-10.45-9.76c-4.44-4.08-10.45-2.27-13.74.68-3.86,3.4-10.02,9.53-10.02,9.53,0,0-.43-11.57-.72-18.83,0-2.72.43-5.67,1.43-7.94,3.15-6.81,9.59-20.42,9.59-20.42l-3.15-3.63s-9.16,12.48-11.16,16.11c-1.14,2.27-4.29,4.77-6.3,1.36-1.72-2.95-6.44-9.53-6.44-9.53l-2.43,3.18,7.87,15.43c.72,1.36,1.14,3.18,1.14,4.77v26.32c.14,0-20.89,34.04-23.61,38.12-.43-31.77,5.58-32.45,5.29-50.15-.29-12.48-6.44-22.24-9.44-27.46-2.43-4.31-14.74-23.6-20.03-31.54-1.29-2.04-3.29-4.99-3.72-9.53-.43-4.08-1.14-9.76-1.43-13.16-.72-5.9.86-11.12,3-15.88,1.86-4.08,7.87-17.93,9.73-21.33,1.86-3.4,4.58-7.72,8.01-9.3,3.43-1.59,13.59-8.4,13.59-8.4l-1.14-4.31s-14.6,5.67-16.6,6.58-5.01,2.27-8.59,8.17c-3.58,5.9-17.03,24.05-18.75,26.55-1.86,2.5-5.01,7.26-5.01,13.84s1,21.56,1,21.56l-15.88-1.82c-3,0-7.87-2.95-9.87-6.35l-11.59-20.2-3.72,4.77,9.16,22.01-21.46,8.4.57,5.22s14.45-2.95,17.46-3.63,10.45.91,19.32,3.18c9.3,2.27,15.6,1.82,24.18,18.38,2,3.86,7.3,14.75,11.3,23.15,3,6.13,3.72,14.3,2,21.56-3.72,15.88-9.3,24.73-8.3,48.79.72,15.2-.72,59.91-1,64.22l.14.68Z" fill="#875c51"/><path d="M157.56,187.65l13.31-26.53c1.86-3.76,4.87-6.4,8.16-7.34,3.86-1.13,9.44-3.57,13.45-9.78,7.15-10.72,11.02-17.87,11.02-17.87l-3.29-3.76s-8.44,10.72-12.02,14.86c-3,3.39-6.3,5.83-12.74,6.4-2.29.19-4.15-2.07-4.15-5.08,0-4.14-.14-8.65-.29-11.67,0-2.07.43-4.14,1.43-5.83l3.43-5.64-2.86-2.45-4.58,7.15c-1.14,1.69-3.15,2.26-4.58,1.13l-8.59-6.59-1.29,3.39,7.58,6.96c1.57,1.51,2.43,3.95,2.43,6.59v15.8l-19.17,27.47,12.59,12.98.14-.19Z" fill="none" stroke="#000" stroke-linecap="round" stroke-linejoin="round"/><path d="M129.31,106.37c0-.68-.29-13.84-.57-22.01,0-4.08.72-8.17,2.43-11.35l1.29-2.5-3-2.95-5.58,8.62c-2.43,3.86-3.86,8.85-4.01,14.3l-.72,29.5,10.16-13.62Z" fill="none" stroke="#000" stroke-linecap="round" stroke-linejoin="round"/><path d="M138.75,244l-28.19-20.52,2.86-20.34-3.72-3.13-7.73,20.34c-.72,1.91-2.29,3.3-4.15,3.48l-9.87.87c-2.72.17-5.58-.87-7.73-2.96l-17.17-16.69-2.86,3.3,14.6,18.61c.72,1.04.29,2.61-.86,2.78l-10.87,1.74.43,3.83,32.34-1.74c4.87-.17,9.73,1.91,13.31,5.91,9.01,9.91,25.61,28,25.76,27.47,0-.87,4.01-22.95,4.01-22.95,0,0-.14,0-.14,0Z" fill="none" stroke="#000" stroke-linecap="round" stroke-linejoin="round"/><path d="M129.62,333.52c-.43,7.72,33.63,8.62,33.05-.23-.29-3.86-.72-33.36-.72-33.36,0-4.77,1.14-9.53,3.15-13.16l26.04-48.33c2.15-3.86,4.44-7.49,7.15-10.44,4.01-4.54,9.87-11.12,11.73-13.16,2.86-2.95,6.87-2.04,8.44-.68,1.57,1.36,8.59,4.99,8.59,4.99l2.29-4.99s-8.44-7.72-10.45-9.76c-4.44-4.08-10.45-2.27-13.74.68-3.86,3.4-10.02,9.53-10.02,9.53,0,0-.43-11.57-.72-18.83,0-2.72.43-5.67,1.43-7.94,3.15-6.81,9.59-20.42,9.59-20.42l-3.15-3.63s-9.16,12.48-11.16,16.11c-1.14,2.27-4.29,4.77-6.3,1.36-1.72-2.95-6.44-9.53-6.44-9.53l-2.43,3.18,7.87,15.43c.72,1.36,1.14,3.18,1.14,4.77v26.32c.14,0-20.89,34.04-23.61,38.12-.43-31.77,5.58-32.45,5.29-50.15-.29-12.48-6.44-22.24-9.44-27.46-2.43-4.31-14.74-23.6-20.03-31.54-1.29-2.04-3.29-4.99-3.72-9.53-.43-4.08-1.14-9.76-1.43-13.16-.72-5.9.86-11.12,3-15.88,1.86-4.08,7.87-17.93,9.73-21.33,1.86-3.4,4.58-7.72,8.01-9.3,3.43-1.59,13.59-8.4,13.59-8.4l-1.14-4.31s-14.6,5.67-16.6,6.58-5.01,2.27-8.59,8.17c-3.58,5.9-17.03,24.05-18.75,26.55-1.86,2.5-5.01,7.26-5.01,13.84s1,21.56,1,21.56l-15.88-1.82c-3,0-7.87-2.95-9.87-6.35l-11.59-20.2-3.72,4.77,9.16,22.01-21.46,8.4.57,5.22s14.45-2.95,17.46-3.63,10.45.91,19.32,3.18c9.3,2.27,15.6,1.82,24.18,18.38,2,3.86,7.3,14.75,11.3,23.15,3,6.13,3.72,14.3,2,21.56-3.72,15.88-9.3,24.73-8.3,48.79.72,15.2-.72,59.91-1,64.22l.14.68Z" fill="none" stroke="#000" stroke-linecap="round" stroke-linejoin="round"/><g id="uuid-eaecfe20-e117-4f34-a1f7-d1cea57b64c5"><polygon id="uuid-4c78579a-4bc0-4f04-9137-47bc33d16e97" points="135 309 121 309 121 333.97 121 339 142 339 142 334 135 334 135 309" fill="#5f5f5f"/><rect id="uuid-bb645085-807c-425c-ab14-43e80b3f6af8" x="119" y="274" width="18" height="35" fill="#727272"/><polygon id="uuid-3bd29b88-c0cc-44e6-a96c-568458416cd6" points="113 309 99 309 99 334 92 334 92 339 113 339 113 333.97 113 333.97 113 309" fill="#5f5f5f"/><rect id="uuid-a79d9231-93b8-4afd-994f-b37f22167a9e" x="97" y="274" width="18" height="35" fill="#727272"/><path id="uuid-d962a59b-b364-46b3-8ffd-cc329400f024" d="M97,203v71h40v-71h-40Z" fill="#727272"/><rect id="uuid-867b05a1-29c9-4261-8ce2-8f63ac382235" x="97" y="244" width="40" height="12" fill="#acacac"/><rect id="uuid-e97d94f9-4171-4c3c-8688-58c68d598012" x="125" y="202" width="5" height="42" fill="#acacac"/><rect id="uuid-2ccd74db-4f05-4d2e-bdfb-4ebf0d095569" x="104" y="202" width="5" height="42" fill="#acacac"/><path id="uuid-6877364b-2cc8-4e3a-9578-4e70ceccefc8" d="M136.01,195c1.42-3.81,2.23-8.1,2.23-12.65,0-15.7-9.54-28.42-21.32-28.42s-21.32,12.72-21.32,28.42c0,4.55.8,8.84,2.23,12.65h38.18Z" fill="#ccc"/><path id="uuid-73d1bad2-7116-4868-a573-aa43228c96f3" d="M98.94,198c3.78,7.91,10.42,13.17,17.98,13.17s14.2-5.25,17.98-13.17h-35.96Z" fill="#ccc"/><ellipse id="uuid-ad06d34d-604d-4b12-8d0b-98af773d20be" cx="129" cy="186" rx="2" ry="3" fill="#333"/><ellipse id="uuid-72f8a21e-198c-416d-a728-1b4ca32c2210" cx="117" cy="186" rx="2" ry="3" fill="#333"/><rect id="uuid-3e5cb45d-1e1f-42e4-ad3d-38da9de2d9b3" x="138.02" y="225.75" width="10.66" height="22.74" transform="translate(-9.07 5.73) rotate(-2.22)" fill="#727272"/><rect id="uuid-8ecf4331-1cdd-43e7-932e-dd740bda0d74" x="137.14" y="203.03" width="10.66" height="22.74" transform="translate(-8.19 5.67) rotate(-2.22)" fill="#727272"/><rect id="uuid-6e2886f8-f147-4bec-8175-871d562fc3a9" x="79.73" y="208.88" width="22.74" height="10.66" transform="translate(-126.89 295.87) rotate(-87.5)" fill="#727272"/><rect id="uuid-099acf0e-816c-4f5f-8430-3e56e810074d" x="78.73" y="231.6" width="22.74" height="10.66" transform="translate(-150.53 316.61) rotate(-87.5)" fill="#727272"/><rect id="uuid-b418fec8-5ede-4472-b442-f1cf04ce9ff8" x="138.33" y="248.71" width="11.37" height="11.37" transform="translate(-9.74 5.76) rotate(-2.22)" fill="#ccc"/><rect id="uuid-bfdeae03-2c47-43b8-aef7-79467ca75b33" x="83.67" y="248.28" width="11.37" height="11.37" transform="translate(-168.26 332.16) rotate(-87.5)" fill="#ccc"/><circle id="uuid-733e68c1-2685-4fea-ac7c-cf63a4cd564f" cx="116.5" cy="236.5" r="1.5" fill="#333"/><circle id="uuid-e5934614-f7a8-449c-9753-f7303f1c22e7" cx="116.5" cy="230.5" r="1.5" fill="#333"/><circle id="uuid-903bcc7a-00ca-4b55-9600-f372f0abf71d" cx="116.5" cy="224.5" r="1.5" fill="#333"/><circle id="uuid-bb83e8cf-fc9c-4a31-a6e4-956fbc974c57" cx="116.5" cy="217.5" r="1.5" fill="#333"/><path d="M140.75,166.17c-1.28-9.92-11.46-17.65-23.82-17.65s-22.54,7.73-23.82,17.65c-4.13.59-6.61,1.34-6.61,2.15,0,1.91,13.63,3.46,30.43,3.46s30.43-1.55,30.43-3.46c0-.81-2.48-1.56-6.61-2.15Z" fill="#6a6a6a"/><polygon id="uuid-ac34fb52-be71-4cc0-8604-5f526a2d3e40" points="135 309 121 309 121 333.97 121 339 142 339 142 334 135 334 135 309" fill="none" stroke="#000" stroke-linecap="round" stroke-linejoin="round"/><rect id="uuid-e7c33e41-5b31-4d83-b6cb-ac115a0ead3e" x="119" y="274" width="18" height="35" fill="none" stroke="#000" stroke-linecap="round" stroke-linejoin="round"/><polygon id="uuid-67900253-461d-4949-93a2-5dd2e0bbc603" points="113 309 99 309 99 334 92 334 92 339 113 339 113 333.97 113 333.97 113 309" fill="none" stroke="#000" stroke-linecap="round" stroke-linejoin="round"/><rect id="uuid-f4a2eae8-c102-47f9-89e9-02991193bd22" x="97" y="274" width="18" height="35" fill="none" stroke="#000" stroke-linecap="round" stroke-linejoin="round"/><path id="uuid-6155ac18-b3ff-4cdc-897a-1b41f3933754" d="M97,203v71h40v-71h-40Z" fill="none" stroke="#000" stroke-linecap="round" stroke-linejoin="round"/><rect id="uuid-226ae2a1-0622-4276-815a-9f30d5fff02b" x="97" y="244" width="40" height="12" fill="none" stroke="#000" stroke-linecap="round" stroke-linejoin="round"/><rect id="uuid-bc351797-35b7-493a-93dc-14e289499cd7" x="125" y="202" width="5" height="42" fill="none" stroke="#000" stroke-linecap="round" stroke-linejoin="round"/><rect id="uuid-dd36f621-4df7-4648-b4c2-bbff804e09fa" x="104" y="202" width="5" height="42" fill="none" stroke="#000" stroke-linecap="round" stroke-linejoin="round"/><path id="uuid-4899cbc8-3a30-44f7-b392-f1913a0451b7" d="M136.01,195c1.42-3.81,2.23-8.1,2.23-12.65,0-15.7-9.54-28.42-21.32-28.42s-21.32,12.72-21.32,28.42c0,4.55.8,8.84,2.23,12.65h38.18Z" fill="none" stroke="#000" stroke-linecap="round" stroke-linejoin="round"/><path id="uuid-77c00007-d422-4331-807d-585c5286c713" d="M98.94,198c3.78,7.91,10.42,13.17,17.98,13.17s14.2-5.25,17.98-13.17h-35.96Z" fill="none" stroke="#000" stroke-linecap="round" stroke-linejoin="round"/><ellipse id="uuid-4b7d2be9-192a-47aa-947b-b53a9ea1bb5e" cx="129" cy="186" rx="2" ry="3" fill="none" stroke="#000" stroke-linecap="round" stroke-linejoin="round"/><ellipse id="uuid-ebe758b0-9951-4550-8176-ca260528e0b5" cx="117" cy="186" rx="2" ry="3" fill="none" stroke="#000" stroke-linecap="round" stroke-linejoin="round"/><rect id="uuid-09035807-a924-4c60-a08b-a7f53b250e8b" x="138.02" y="225.75" width="10.66" height="22.74" transform="translate(-9.07 5.73) rotate(-2.22)" fill="none" stroke="#000" stroke-linecap="round" stroke-linejoin="round"/><rect id="uuid-5dcf48ca-3963-4970-9114-a75d34a2307e" x="137.14" y="203.03" width="10.66" height="22.74" transform="translate(-8.19 5.67) rotate(-2.22)" fill="none" stroke="#000" stroke-linecap="round" stroke-linejoin="round"/><rect id="uuid-3ee0f6b3-0664-4123-8393-e532dc673704" x="79.73" y="208.88" width="22.74" height="10.66" transform="translate(-126.89 295.87) rotate(-87.5)" fill="none" stroke="#000" stroke-linecap="round" stroke-linejoin="round"/><rect id="uuid-99014639-3881-4d99-94df-ec8942fd3bcc" x="78.73" y="231.6" width="22.74" height="10.66" transform="translate(-150.53 316.61) rotate(-87.5)" fill="none" stroke="#000" stroke-linecap="round" stroke-linejoin="round"/><rect id="uuid-02c1ad2b-a2ff-4a95-8acd-c776fd22f446" x="138.33" y="248.71" width="11.37" height="11.37" transform="translate(-9.74 5.76) rotate(-2.22)" fill="none" stroke="#000" stroke-linecap="round" stroke-linejoin="round"/><rect id="uuid-5f553ed3-3cc4-4fe7-aaeb-a841fbca114d" x="83.67" y="248.28" width="11.37" height="11.37" transform="translate(-168.26 332.16) rotate(-87.5)" fill="none" stroke="#000" stroke-linecap="round" stroke-linejoin="round"/><circle id="uuid-e5a81152-1508-4cde-9990-ecb4ef21356c" cx="116.5" cy="236.5" r="1.5" fill="none" stroke="#000" stroke-linecap="round" stroke-linejoin="round"/><circle id="uuid-b0c8a2a7-0a3c-4c44-ab6a-b734b9f3aaa4" cx="116.5" cy="230.5" r="1.5" fill="none" stroke="#000" stroke-linecap="round" stroke-linejoin="round"/><circle id="uuid-a863e485-1c7a-4913-b829-4458352d382b" cx="116.5" cy="224.5" r="1.5" fill="none" stroke="#000" stroke-linecap="round" stroke-linejoin="round"/><circle id="uuid-e1c7392e-445e-4d0f-8f32-1367cfd32a39" cx="116.5" cy="217.5" r="1.5" fill="none" stroke="#000" stroke-linecap="round" stroke-linejoin="round"/><path d="M140.75,166.17c-1.28-9.92-11.46-17.65-23.82-17.65s-22.54,7.73-23.82,17.65c-4.13.59-6.61,1.34-6.61,2.15,0,1.91,13.63,3.46,30.43,3.46s30.43-1.55,30.43-3.46c0-.81-2.48-1.56-6.61-2.15Z" fill="none" stroke="#000" stroke-linecap="round" stroke-linejoin="round"/></g><polygon points="369.31 290.47 374.27 293 351.94 293 364.35 289.84 369.31 290.47" fill="#633d35"/><path d="M266,272h23.78c0-.21,2.19-.29,2.75-.74.37-.29-.41-.94-2.67-1.72-.3-.11-.34-.25-.1-.36.66-.3,1.96-.95,5.89-1.35,4.34-.45,7.99-.36,9.54-.29.52.02,1,.09,1.37.17,3.32.73,31.53,5.29,31.53,5.29,0,0,15.53-.06,24.9-.06,8.54,0,15.67,3.78,17.32,8.8l-2.94,2.8,2.21,3.23c-.61,1.03-1.44,1.99-2.48,2.85l-23.16,2.16,19.75.61s-6.34,1.62-10.7,1.62c-9.44,0-97,.61-97,.61v-23.61Z" fill="#ad7156"/><path d="M273.18,271.26c-.02.05-.04.1-.07.14.04-.05.06-.11.07-.14Z" fill="url(#uuid-00280026-c998-489e-b2ff-f6bf9cc7d443)"/><path d="M283.29,288.17c6.16.1,12.26.27,18.35.46l9.11.28c3.03.09,6.03.2,8.95.18,2.99,0,6.05-.04,9.09-.08l9.17-.11c6.12-.07,12.25-.14,18.41-.12-6.02.36-12.1.62-18.2.82-6.11.2-12.2.36-18.46.39-3.22,0-6.32-.12-9.37-.23-3.04-.13-6.08-.26-9.09-.43-6.03-.32-12.02-.69-17.96-1.15Z" fill="#ce8963"/><path d="M314.3,291.74c.78-.08,1.62-.09,2.42-.11.82-.02,1.64-.03,2.46-.04,1.64-.01,3.28-.02,4.92-.01,3.28,0,6.54.04,9.81.09,3.27.05,6.52.11,9.78.18,3.26.06,6.51.16,9.77.24h-.4s5.77-.42,5.77-.42l5.79-.41c3.88-.26,7.75-.51,11.68-.72-3.72.4-7.5.76-11.27,1.1l-5.68.51-5.68.49-.18.02h-.21c-3.24-.08-6.5-.14-9.76-.23-3.24-.08-6.5-.16-9.74-.25l-9.73-.27-4.87-.13c-.81-.02-1.63-.04-2.44-.05-.81,0-1.63-.04-2.44,0Z" fill="#ce8963"/><path d="M350.28,285h27.68s2.21-2.4,2.21-2.4c0,0-16.61,1.5-29.9,2.4Z" fill="#ce8963"/><path d="M331.46,275.3c-14.34-1.7-29.82-7.71-29.82-7.71l-.48-.18c1.95-.03,3.37,0,4.14.04.34.02.91.09,1.12.14,2.61.58,20.4,4.4,31.67,4.4,0,0,16-.06,25.41-.06,4.22,0,10.02,1.26,13.34,3.96l-32.11-1.2,9.97,2.7s-13.15-.9-23.24-2.1Z" fill="#965b44"/><path d="M288.97,271.83c4.56-.08,3.53-.92,3.53-.92,1.71.97,2.67,2.38.63,3.2-2.25.9-13.96,1.33-13.96,1.33l-6.76-.6-6.23-2.83,22.8-.17Z" fill="#965b44"/><path d="M261.28,284.4c.14,6.02,2.24,10.8,4.81,10.8,2.66,0,4.82-5.12,4.82-11.43s-2.16-11.43-4.82-11.43c-2.56,0-4.65,4.74-4.81,10.72" fill="#ffcc80"/><path d="M261.28,284.4c.17,2.15.51,4.3,1.25,6.3.36,1,.81,1.97,1.44,2.78.32.4.67.77,1.08,1.01.4.25.85.35,1.28.28.43-.07.84-.32,1.19-.65.35-.33.66-.74.92-1.17.52-.88.89-1.87,1.17-2.87.56-2.03.79-4.15.79-6.27,0-2.12-.22-4.24-.77-6.27-.28-1.01-.64-2-1.15-2.88-.26-.44-.55-.85-.9-1.19-.34-.34-.74-.6-1.17-.68-.43-.1-.88,0-1.29.23-.41.23-.77.59-1.09.99-.64.8-1.09,1.77-1.46,2.77-.75,2-1.09,4.14-1.27,6.29,0-.54,0-1.08.01-1.62.03-.54.07-1.08.14-1.62.13-1.08.33-2.15.64-3.21.32-1.05.74-2.09,1.4-3.02.33-.47.73-.9,1.25-1.22.51-.32,1.18-.5,1.82-.39.64.1,1.19.45,1.63.85.44.4.79.87,1.09,1.36.59.97,1,2.02,1.32,3.08.61,2.14.85,4.34.86,6.54-.02,2.2-.26,4.41-.89,6.54-.32,1.06-.74,2.11-1.34,3.08-.3.48-.66.95-1.11,1.34-.44.39-1.01.72-1.65.8-.32.04-.65.02-.95-.06-.31-.08-.59-.22-.84-.39-.51-.33-.9-.78-1.22-1.24-.64-.94-1.06-1.97-1.37-3.02-.31-1.05-.5-2.13-.63-3.21-.06-.54-.11-1.08-.13-1.62-.02-.54-.02-1.09-.01-1.63Z" fill="#ce8963"/><path d="M265.3,295.37c2.11,0,3.82-4.3,3.82-9.61,0-5.31-1.71-9.61-3.82-9.61-2.11,0-4.54,1.88-3.82,9.61.5,5.28,1.71,9.61,3.82,9.61Z" fill="url(#uuid-7f68e0aa-55b9-412f-9de2-68b97a32ea12)"/><g opacity=".66"><path d="M265.59,292.62c.42,0,.79-.24,1.08-.54.29-.3.51-.66.7-1.04.37-.75.61-1.57.8-2.39.35-1.64.47-3.33.45-5.01s-.19-3.35-.59-4.97c-.2-.8-.47-1.6-.84-2.33-.19-.36-.41-.7-.68-.98-.27-.27-.59-.47-.92-.46-.33,0-.64.21-.9.48-.26.28-.47.62-.65.98-.36.73-.6,1.52-.78,2.33-.19.81-.31,1.63-.39,2.45-.09.83-.13,1.66-.14,2.49-.01,1.67.07,3.34.39,4.98.17.82.38,1.63.74,2.39.18.38.4.74.68,1.04.28.3.65.55,1.07.56ZM265.59,292.68c-.44,0-.84-.25-1.14-.55-.3-.31-.55-.66-.75-1.04-.41-.75-.7-1.56-.93-2.38-.46-1.64-.68-3.35-.7-5.06,0-.86.03-1.71.12-2.56.09-.85.23-1.7.44-2.54.21-.83.48-1.66.89-2.44.2-.39.45-.77.77-1.1.17-.16.35-.32.57-.43.22-.12.47-.19.73-.19s.51.08.73.2c.21.12.4.27.56.44.31.34.55.71.74,1.11.39.78.64,1.61.83,2.44.38,1.67.51,3.37.5,5.07-.03,1.7-.21,3.4-.64,5.04-.21.82-.48,1.63-.87,2.38-.19.38-.43.74-.72,1.05-.29.3-.68.56-1.12.57Z" fill="#7f441c"/></g><path d="M265.25,290.6c1.11,0,2.02-2.9,2.02-6.47,0-3.57-.9-6.47-2.02-6.47-1.11,0-2.02,2.9-2.02,6.47,0,3.57.9,6.47,2.02,6.47ZM265.25,289.49c-.83,0-1.51-2.29-1.51-5.11,0-2.82.68-5.11,1.51-5.11s1.51,2.29,1.51,5.11c0,2.82-.68,5.11-1.51,5.11Z" fill="#b5772c" isolation="isolate" opacity=".82"/><ellipse cx="265.5" cy="283.5" rx=".5" ry="2.5" fill="url(#uuid-f36f1d22-2fe3-4b20-b001-370c0e0ef57a)" isolation="isolate" opacity=".74"/><polygon points="369.31 290.47 374.27 293 351.94 293 364.35 289.84 369.31 290.47" fill="none" stroke="#000" stroke-linecap="round" stroke-linejoin="round"/><path d="M266,272h23.78c0-.21,2.19-.29,2.75-.74.37-.29-.41-.94-2.67-1.72-.3-.11-.34-.25-.1-.36.66-.3,1.96-.95,5.89-1.35,4.34-.45,7.99-.36,9.54-.29.52.02,1,.09,1.37.17,3.32.73,31.53,5.29,31.53,5.29,0,0,15.53-.06,24.9-.06,8.54,0,15.67,3.78,17.32,8.8l-2.94,2.8,2.21,3.23c-.61,1.03-1.44,1.99-2.48,2.85l-23.16,2.16,19.75.61s-6.34,1.62-10.7,1.62c-9.44,0-97,.61-97,.61v-23.61Z" fill="none" stroke="#000" stroke-linecap="round" stroke-linejoin="round"/><path d="M273.18,271.26c-.02.05-.04.1-.07.14.04-.05.06-.11.07-.14Z" fill="none" stroke="#000" stroke-linecap="round" stroke-linejoin="round"/><path d="M283.29,288.17c6.16.1,12.26.27,18.35.46l9.11.28c3.03.09,6.03.2,8.95.18,2.99,0,6.05-.04,9.09-.08l9.17-.11c6.12-.07,12.25-.14,18.41-.12-6.02.36-12.1.62-18.2.82-6.11.2-12.2.36-18.46.39-3.22,0-6.32-.12-9.37-.23-3.04-.13-6.08-.26-9.09-.43-6.03-.32-12.02-.69-17.96-1.15Z" fill="none" stroke="#000" stroke-linecap="round" stroke-linejoin="round"/><path d="M314.3,291.74c.78-.08,1.62-.09,2.42-.11.82-.02,1.64-.03,2.46-.04,1.64-.01,3.28-.02,4.92-.01,3.28,0,6.54.04,9.81.09,3.27.05,6.52.11,9.78.18,3.26.06,6.51.16,9.77.24h-.4s5.77-.42,5.77-.42l5.79-.41c3.88-.26,7.75-.51,11.68-.72-3.72.4-7.5.76-11.27,1.1l-5.68.51-5.68.49-.18.02h-.21c-3.24-.08-6.5-.14-9.76-.23-3.24-.08-6.5-.16-9.74-.25l-9.73-.27-4.87-.13c-.81-.02-1.63-.04-2.44-.05-.81,0-1.63-.04-2.44,0Z" fill="none" stroke="#000" stroke-linecap="round" stroke-linejoin="round"/><path d="M350.28,285h27.68s2.21-2.4,2.21-2.4c0,0-16.61,1.5-29.9,2.4Z" fill="none" stroke="#000" stroke-linecap="round" stroke-linejoin="round"/><path d="M331.46,275.3c-14.34-1.7-29.82-7.71-29.82-7.71l-.48-.18c1.95-.03,3.37,0,4.14.04.34.02.91.09,1.12.14,2.61.58,20.4,4.4,31.67,4.4,0,0,16-.06,25.41-.06,4.22,0,10.02,1.26,13.34,3.96l-32.11-1.2,9.97,2.7s-13.15-.9-23.24-2.1Z" fill="none" stroke="#000" stroke-linecap="round" stroke-linejoin="round"/><path d="M288.97,271.83c4.56-.08,3.53-.92,3.53-.92,1.71.97,2.67,2.38.63,3.2-2.25.9-13.96,1.33-13.96,1.33l-6.76-.6-6.23-2.83,22.8-.17Z" fill="none" stroke="#000" stroke-linecap="round" stroke-linejoin="round"/><path d="M261.28,284.4c.14,6.02,2.24,10.8,4.81,10.8,2.66,0,4.82-5.12,4.82-11.43s-2.16-11.43-4.82-11.43c-2.56,0-4.65,4.74-4.81,10.72" fill="none" stroke="#000" stroke-linecap="round" stroke-linejoin="round"/><path d="M261.28,284.4c.17,2.15.51,4.3,1.25,6.3.36,1,.81,1.97,1.44,2.78.32.4.67.77,1.08,1.01.4.25.85.35,1.28.28.43-.07.84-.32,1.19-.65.35-.33.66-.74.92-1.17.52-.88.89-1.87,1.17-2.87.56-2.03.79-4.15.79-6.27,0-2.12-.22-4.24-.77-6.27-.28-1.01-.64-2-1.15-2.88-.26-.44-.55-.85-.9-1.19-.34-.34-.74-.6-1.17-.68-.43-.1-.88,0-1.29.23-.41.23-.77.59-1.09.99-.64.8-1.09,1.77-1.46,2.77-.75,2-1.09,4.14-1.27,6.29,0-.54,0-1.08.01-1.62.03-.54.07-1.08.14-1.62.13-1.08.33-2.15.64-3.21.32-1.05.74-2.09,1.4-3.02.33-.47.73-.9,1.25-1.22.51-.32,1.18-.5,1.82-.39.64.1,1.19.45,1.63.85.44.4.79.87,1.09,1.36.59.97,1,2.02,1.32,3.08.61,2.14.85,4.34.86,6.54-.02,2.2-.26,4.41-.89,6.54-.32,1.06-.74,2.11-1.34,3.08-.3.48-.66.95-1.11,1.34-.44.39-1.01.72-1.65.8-.32.04-.65.02-.95-.06-.31-.08-.59-.22-.84-.39-.51-.33-.9-.78-1.22-1.24-.64-.94-1.06-1.97-1.37-3.02-.31-1.05-.5-2.13-.63-3.21-.06-.54-.11-1.08-.13-1.62-.02-.54-.02-1.09-.01-1.63Z" fill="none" stroke="#000" stroke-linecap="round" stroke-linejoin="round"/><path d="M265.3,295.37c2.11,0,3.82-4.3,3.82-9.61,0-5.31-1.71-9.61-3.82-9.61-2.11,0-4.54,1.88-3.82,9.61.5,5.28,1.71,9.61,3.82,9.61Z" fill="none" stroke="#000" stroke-linecap="round" stroke-linejoin="round"/><path d="M265.59,292.62c.42,0,.79-.24,1.08-.54.29-.3.51-.66.7-1.04.37-.75.61-1.57.8-2.39.35-1.64.47-3.33.45-5.01s-.19-3.35-.59-4.97c-.2-.8-.47-1.6-.84-2.33-.19-.36-.41-.7-.68-.98-.27-.27-.59-.47-.92-.46-.33,0-.64.21-.9.48-.26.28-.47.62-.65.98-.36.73-.6,1.52-.78,2.33-.19.81-.31,1.63-.39,2.45-.09.83-.13,1.66-.14,2.49-.01,1.67.07,3.34.39,4.98.17.82.38,1.63.74,2.39.18.38.4.74.68,1.04.28.3.65.55,1.07.56ZM265.59,292.68c-.44,0-.84-.25-1.14-.55-.3-.31-.55-.66-.75-1.04-.41-.75-.7-1.56-.93-2.38-.46-1.64-.68-3.35-.7-5.06,0-.86.03-1.71.12-2.56.09-.85.23-1.7.44-2.54.21-.83.48-1.66.89-2.44.2-.39.45-.77.77-1.1.17-.16.35-.32.57-.43.22-.12.47-.19.73-.19s.51.08.73.2c.21.12.4.27.56.44.31.34.55.71.74,1.11.39.78.64,1.61.83,2.44.38,1.67.51,3.37.5,5.07-.03,1.7-.21,3.4-.64,5.04-.21.82-.48,1.63-.87,2.38-.19.38-.43.74-.72,1.05-.29.3-.68.56-1.12.57Z" fill="none" stroke="#000" stroke-linecap="round" stroke-linejoin="round"/><path d="M265.25,290.6c1.11,0,2.02-2.9,2.02-6.47,0-3.57-.9-6.47-2.02-6.47-1.11,0-2.02,2.9-2.02,6.47,0,3.57.9,6.47,2.02,6.47ZM265.25,289.49c-.83,0-1.51-2.29-1.51-5.11,0-2.82.68-5.11,1.51-5.11s1.51,2.29,1.51,5.11c0,2.82-.68,5.11-1.51,5.11Z" fill="none" stroke="#000" stroke-linecap="round" stroke-linejoin="round"/><ellipse cx="265.5" cy="283.5" rx=".5" ry="2.5" fill="none" stroke="#000" stroke-linecap="round" stroke-linejoin="round"/><g id="uuid-935b28a4-1805-4711-b391-d720622a7c08"><polygon id="uuid-18a553a5-48ba-43de-9b10-52207a169cb0" points="369.84 291.6 361.83 294.41 366.72 308.34 367.7 311.14 379.72 306.92 378.74 304.12 374.73 305.52 369.84 291.6" fill="#5f5f5f"/><rect id="uuid-1f7d66b2-d806-4574-aa77-5219029fe239" x="354.93" y="275.63" width="10.57" height="20.86" transform="translate(-99.72 279.5) rotate(-37.64)" fill="#727272"/><polygon id="uuid-ebf896c1-4c9c-4bdd-95b5-278cf86e8cfd" points="343.57 298.2 351.65 295.59 356.17 309.64 360.21 308.34 361.12 311.17 349 315.07 348.09 312.24 348.09 312.24 343.57 298.2" fill="#5f5f5f"/><rect id="uuid-a57f0d02-bfb2-4349-8ded-049cfeb01e90" x="338.21" y="278.01" width="10.57" height="20.86" transform="translate(-89.49 171.35) rotate(-24.89)" fill="#727272"/><path id="uuid-d61b6f1c-793f-47d2-8784-ef0f620c5307" d="M334,239v42h24v-42h-24Z" fill="#727272"/><rect id="uuid-87a4af4c-0bf3-47fa-a4e7-607e1af785ae" x="334" y="264" width="24" height="7" fill="#acacac"/><rect id="uuid-d32b35ee-6d1b-4ffc-b912-4d4058aed34f" x="351" y="239" width="3" height="25" fill="#acacac"/><rect id="uuid-46804ace-75a2-4654-bc57-5756592f3cce" x="339" y="239" width="3" height="25" fill="#acacac"/><path id="uuid-cb02a864-337a-41c3-876c-83505ea2afa5" d="M357.62,230.47c.5-2.38.59-4.99.19-7.67-1.4-9.27-8.17-15.94-15.13-14.89-6.96,1.05-11.46,9.42-10.06,18.69.4,2.69,1.26,5.15,2.44,7.28l22.56-3.4Z" fill="#ccc"/><path id="uuid-b70324bb-f465-44eb-a070-484c07df7a65" d="M335.52,236c2.26,4.73,6.23,7.87,10.74,7.87s8.48-3.14,10.74-7.87h-21.49Z" fill="#ccc"/><ellipse id="uuid-33d4e5af-6ec2-42e1-bd03-6016b15a15a8" cx="352" cy="223" rx=".99" ry="2" transform="translate(-16.8 29.05) rotate(-4.62)" fill="#333"/><ellipse id="uuid-b6ff2629-753c-4bd3-b864-be79a65aeb45" cx="344" cy="225" rx=".99" ry="2" transform="translate(-16.99 28.41) rotate(-4.62)" fill="#333"/><rect id="uuid-99da3e32-6844-4098-a64f-726620766232" x="358.87" y="252.65" width="6.37" height="13.59" transform="translate(-9.77 14.21) rotate(-2.22)" fill="#727272"/><rect id="uuid-5d5703cf-79e4-480d-92bb-9b3266e60615" x="358.35" y="239.08" width="6.37" height="13.59" transform="translate(-9.24 14.18) rotate(-2.22)" fill="#727272"/><rect id="uuid-09703ca8-7bea-4c8e-89c7-28005665ee85" x="323.74" y="242.35" width="13.59" height="6.37" transform="translate(43.58 540.82) rotate(-82.43)" fill="#727272"/><rect id="uuid-737e59ea-2112-479a-85d8-fdc2cecbe0a8" x="321.95" y="255.82" width="13.59" height="6.37" transform="translate(28.67 550.74) rotate(-82.43)" fill="#727272"/><rect id="uuid-88fc9743-fe42-4cf0-91ba-427256970f6c" x="359.06" y="266.37" width="6.79" height="6.79" transform="translate(-10.17 14.23) rotate(-2.22)" fill="#ccc"/><rect id="uuid-a5065b5f-5663-4caa-9917-11bfe17a7dca" x="324" y="265.7" width="6.79" height="6.79" transform="translate(17.49 558.18) rotate(-82.43)" fill="#ccc"/><circle id="uuid-5dbd878b-0acf-41d1-a973-c4b9e60ea48f" cx="346" cy="259" r="1" fill="#333"/><circle id="uuid-cbb1b936-0d20-425d-8d1e-f150029f7d8b" cx="346" cy="256" r="1" fill="#333"/><circle id="uuid-81718035-e0a8-479e-889d-8cb19957cf0a" cx="346" cy="252" r="1" fill="#333"/><circle id="uuid-3731cc67-5e0a-45b3-bbe1-c6a651c8e35f" cx="346" cy="248" r="1" fill="#333"/><path d="M357.84,212.97c-1.64-5.75-8.34-9.41-15.65-8.31s-12.63,6.57-12.5,12.55c-2.39.72-3.79,1.38-3.71,1.86.17,1.13,8.36.83,18.29-.67,9.93-1.5,17.84-3.63,17.67-4.76-.07-.48-1.6-.7-4.1-.68Z" fill="#6a6a6a"/><polygon id="uuid-cfb4887c-3bd9-4112-9de3-f57535c512a0" points="369.84 291.6 361.83 294.41 366.72 308.34 367.7 311.14 379.72 306.92 378.74 304.12 374.73 305.52 369.84 291.6" fill="none" stroke="#000" stroke-linecap="round" stroke-linejoin="round"/><rect id="uuid-ae58b621-e79d-4c0f-8faa-f6dc6a77fbfd" x="354.93" y="275.63" width="10.57" height="20.86" transform="translate(-99.72 279.5) rotate(-37.64)" fill="none" stroke="#000" stroke-linecap="round" stroke-linejoin="round"/><polygon id="uuid-5d769bd0-f049-4fe2-b4eb-64f3a831d3cf" points="343.57 298.2 351.65 295.59 356.17 309.64 360.21 308.34 361.12 311.17 349 315.07 348.09 312.24 348.09 312.24 343.57 298.2" fill="none" stroke="#000" stroke-linecap="round" stroke-linejoin="round"/><rect id="uuid-2df57970-3784-47e3-b052-fac15f2960da" x="338.21" y="278.01" width="10.57" height="20.86" transform="translate(-89.49 171.35) rotate(-24.89)" fill="none" stroke="#000" stroke-linecap="round" stroke-linejoin="round"/><path id="uuid-030347f6-6fd0-4315-83f0-bf5625b66cb5" d="M334,239v42h24v-42h-24Z" fill="none" stroke="#000" stroke-linecap="round" stroke-linejoin="round"/><rect id="uuid-7e578dad-a502-4e88-8273-1cdd04dcf75f" x="334" y="264" width="24" height="7" fill="none" stroke="#000" stroke-linecap="round" stroke-linejoin="round"/><rect id="uuid-13c41589-a0c8-4f46-88ac-44f9870f5176" x="351" y="239" width="3" height="25" fill="none" stroke="#000" stroke-linecap="round" stroke-linejoin="round"/><rect id="uuid-141fb4ab-9fbb-4a5f-a9c4-8deba4d94d15" x="339" y="239" width="3" height="25" fill="none" stroke="#000" stroke-linecap="round" stroke-linejoin="round"/><path id="uuid-02951000-5f2e-4c6e-a77b-57551daa824a" d="M357.62,230.47c.5-2.38.59-4.99.19-7.67-1.4-9.27-8.17-15.94-15.13-14.89-6.96,1.05-11.46,9.42-10.06,18.69.4,2.69,1.26,5.15,2.44,7.28l22.56-3.4Z" fill="none" stroke="#000" stroke-linecap="round" stroke-linejoin="round"/><path id="uuid-5a5b12e4-e87c-47b1-98ac-1439dfe0a6a7" d="M335.52,236c2.26,4.73,6.23,7.87,10.74,7.87s8.48-3.14,10.74-7.87h-21.49Z" fill="none" stroke="#000" stroke-linecap="round" stroke-linejoin="round"/><ellipse id="uuid-0d75f540-9d6b-4b70-9d42-a7911fecd05d" cx="352" cy="223" rx=".99" ry="2" transform="translate(-16.8 29.05) rotate(-4.62)" fill="none" stroke="#000" stroke-linecap="round" stroke-linejoin="round"/><ellipse id="uuid-7217f89d-5f1c-4b7f-82af-58ff1dc49e80" cx="344" cy="225" rx=".99" ry="2" transform="translate(-16.99 28.41) rotate(-4.62)" fill="none" stroke="#000" stroke-linecap="round" stroke-linejoin="round"/><rect id="uuid-15e527d0-19e5-42de-a211-d60874a21353" x="358.87" y="252.65" width="6.37" height="13.59" transform="translate(-9.77 14.21) rotate(-2.22)" fill="none" stroke="#000" stroke-linecap="round" stroke-linejoin="round"/><rect id="uuid-c461112d-8218-4085-a32f-80ee3e8a0af1" x="358.35" y="239.08" width="6.37" height="13.59" transform="translate(-9.24 14.18) rotate(-2.22)" fill="none" stroke="#000" stroke-linecap="round" stroke-linejoin="round"/><rect id="uuid-e7d1a435-5cab-4169-b9a5-c0c99a6afb13" x="323.74" y="242.35" width="13.59" height="6.37" transform="translate(43.58 540.82) rotate(-82.43)" fill="none" stroke="#000" stroke-linecap="round" stroke-linejoin="round"/><rect id="uuid-36c6c903-45ba-4fba-8097-aaeb500d80bd" x="321.95" y="255.82" width="13.59" height="6.37" transform="translate(28.67 550.74) rotate(-82.43)" fill="none" stroke="#000" stroke-linecap="round" stroke-linejoin="round"/><rect id="uuid-a91aca89-7867-44ba-b626-a888a3a1e81a" x="359.06" y="266.37" width="6.79" height="6.79" transform="translate(-10.17 14.23) rotate(-2.22)" fill="none" stroke="#000" stroke-linecap="round" stroke-linejoin="round"/><rect id="uuid-47053650-29e0-4141-bd5c-3dcda5eb359f" x="324" y="265.7" width="6.79" height="6.79" transform="translate(17.49 558.18) rotate(-82.43)" fill="none" stroke="#000" stroke-linecap="round" stroke-linejoin="round"/><circle id="uuid-312e3048-aff5-4119-be8e-33755023f36c" cx="346" cy="259" r="1" fill="none" stroke="#000" stroke-linecap="round" stroke-linejoin="round"/><circle id="uuid-b5c83d96-e65d-4676-aef2-c16f989106f4" cx="346" cy="256" r="1" fill="none" stroke="#000" stroke-linecap="round" stroke-linejoin="round"/><circle id="uuid-a8f5fc0a-f815-4432-a040-db1f1ed38802" cx="346" cy="252" r="1" fill="none" stroke="#000" stroke-linecap="round" stroke-linejoin="round"/><circle id="uuid-0cefc551-2938-484f-851d-0f1bd0d25ea2" cx="346" cy="248" r="1" fill="none" stroke="#000" stroke-linecap="round" stroke-linejoin="round"/><path d="M357.84,212.97c-1.64-5.75-8.34-9.41-15.65-8.31s-12.63,6.57-12.5,12.55c-2.39.72-3.79,1.38-3.71,1.86.17,1.13,8.36.83,18.29-.67,9.93-1.5,17.84-3.63,17.67-4.76-.07-.48-1.6-.7-4.1-.68Z" fill="none" stroke="#000" stroke-linecap="round" stroke-linejoin="round"/></g><path d="M324,191.18c-3.75-1.93-18.59-10.24-23.78-30.87-2.3-9.16-1.91-17.58-1.22-23.13" fill="none" stroke="#333" stroke-miterlimit="10" stroke-width="2"/><text transform="translate(225.5 82.68)" fill="#333" font-family="ComicNeue-Bold, &apos;Comic Neue&apos;" font-size="24" font-weight="700"><tspan x="0" y="0">We should attack from </tspan><tspan x="0" y="28.8">the right this time.</tspan></text><text transform="translate(55.83 395.3)" fill="#333" font-family="ComicNeue-Regular, &apos;Comic Neue&apos;" font-size="24"><tspan x="0" y="0">At night, Canadians ventured across </tspan><tspan x="0" y="28.8">German lines to gather intelligence.</tspan></text></svg>