<?xml version="1.0" encoding="UTF-8"?><svg id="uuid-4b052b74-a9f6-434e-a3c2-950b739244f8" xmlns="http://www.w3.org/2000/svg" xmlns:xlink="http://www.w3.org/1999/xlink" viewBox="0 0 500 500"><defs><linearGradient id="uuid-87245cbc-9b60-49a7-a78b-cd806fd88997" x1="1022.950869" y1="-270.78109" x2="1022.945376" y2="-270.800265" gradientTransform="translate(2.352628 1294.278173) rotate(-89.999994) scale(1 -1)" gradientUnits="userSpaceOnUse"><stop offset="0" stop-color="#ce8963"/><stop offset="1" stop-color="#d08a61" stop-opacity="0"/></linearGradient><radialGradient id="uuid-566eda24-348a-48f7-be08-d17a7f4c2e8c" cx="212.59398" cy="-278.117433" fx="212.59398" fy="-278.117433" r="6.502018" gradientTransform="translate(97.451654 33.30019) rotate(90.000006) scale(1.1788 .60002)" gradientUnits="userSpaceOnUse"><stop offset=".0561" stop-color="#ffa726"/><stop offset=".135" stop-color="#ffa726"/><stop offset="1" stop-color="#ffa726" stop-opacity=".1"/></radialGradient><linearGradient id="uuid-60535a30-6913-47de-b83c-17ff98ab104d" x1="145.471797" y1="-263.147259" x2="150.471797" y2="-263.147259" gradientTransform="translate(2.352758 135.528173) rotate(90.000006)" gradientUnits="userSpaceOnUse"><stop offset=".000359" stop-color="#8a5140"/><stop offset="1" stop-color="#8a5140"/></linearGradient></defs><path d="M157.560868,187.650043l13.307545-26.529167c1.860198-3.763003,4.865124-6.397108,8.15623-7.337858,3.863475-1.128898,9.444059-3.574856,13.450634-9.783809,7.154592-10.72456,11.018067-17.874264,11.018067-17.874264l-3.291117-3.763003s-8.44242,10.72456-12.019716,14.863861c-3.004926,3.386701-6.296043,5.832655-12.735175,6.397104-2.289467.188147-4.149665-2.069649-4.149665-5.080055,0-4.139305-.14309-8.654907-.286179-11.66531,0-2.069652.42928-4.139305,1.430918-5.832655l3.434206-5.644504-2.861837-2.44595-4.578934,7.149704c-1.144739,1.693351-3.148016,2.257803-4.578934,1.128902l-8.58551-6.585255-1.287829,3.386708,7.583872,6.961557c1.574008,1.5052,2.432557,3.951154,2.432557,6.585255v15.804608l-19.174297,27.469925,12.592086,12.982363.143079-.188154Z" fill="#6c4a41"/><path d="M129.30948,106.37373c0-.68076-.286185-13.842152-.57237-22.011289,0-4.08457.715459-8.169138,2.432562-11.346026l1.287829-2.496125-3.004926-2.949966-5.580584,8.62298c-2.432562,3.857648-3.863481,8.849899-4.00657,14.295993l-.715459,29.499664,10.159518-13.615231Z" fill="#6c4a41"/><path d="M138.753539,243.999987l-28.189087-20.518186,2.861837-20.344299-3.720385-3.129891-7.726961,20.344293c-.715459,1.912709-2.289467,3.303778-4.149663,3.477658l-9.873336.869414c-2.718744.17388-5.580581-.869414-7.726958-2.956004l-17.171024-16.692755-2.861837,3.303778,14.595367,18.605464c.715459,1.043295.286183,2.608243-.858552,2.782124l-10.874979,1.738829.429276,3.825432,32.338755-1.738829c4.865122-.17388,9.730246,1.912709,13.307542,5.912021,9.014784,9.911319,25.61344,27.995142,25.75653,27.473502,0-.869414,4.00657-22.952536,4.00657-22.952536,0,0-.143095,0-.143095-.000013Z" fill="#6c4a41"/><path d="M129.623471,333.521168c-.429274,7.715301,33.626575,8.622986,33.054217-.226917-.286179-3.857642-.715459-33.357308-.715459-33.357308,0-4.765327,1.144739-9.530655,3.148016-13.161397l26.042709-48.334059c2.146377-3.857642,4.435845-7.488384,7.154592-10.43834,4.006576-4.53841,9.873339-11.119109,11.733526-13.161397,2.861837-2.949974,6.868412-2.042288,8.44242-.680768,1.574008,1.36152,8.58551,4.992244,8.58551,4.992244l2.289467-4.992244s-8.44242-7.715301-10.445708-9.757589c-4.435845-4.084567-10.445708-2.269205-13.736814.680768-3.863475,3.403808-10.016428,9.530655-10.016428,9.530655,0,0-.42928-11.572943-.715459-18.834401,0-2.723048.42928-5.673013,1.430918-7.942218,3.148016-6.807615,9.587148-20.422846,9.587148-20.422846l-3.148016-3.630725s-9.157879,12.480628-11.161167,16.111353c-1.144739,2.269205-4.292755,4.765327-6.296043,1.36152-1.717098-2.949965-6.439132-9.530663-6.439132-9.530663l-2.432557,3.176891,7.870051,15.430593c.715459,1.36152,1.144739,3.176891,1.144739,4.765327v26.322785c.14309,0-20.891405,34.038077-23.610152,38.122636-.42928-31.768872,5.580584-32.44964,5.294393-50.14943-.286179-12.480628-6.439132-22.238209-9.444059-27.457379-2.432557-4.311493-14.738458-23.599737-20.032857-31.541955-1.287829-2.042288-3.291111-4.992253-3.720385-9.530663-.429274-4.084567-1.144734-9.75758-1.430918-13.161388-.715459-5.899934.858549-11.119104,3.004926-15.884436,1.860193-4.084567,7.870051-17.92672,9.730249-21.330527,1.860198-3.403808,4.578934-7.715297,8.01314-9.303742,3.434206-1.588443,13.593724-8.396059,13.593724-8.396059l-1.144739-4.31149s-14.595363,5.673013-16.59865,6.580695-5.008214,2.269205-8.58551,8.169137c-3.577296,5.899932-17.027919,24.05358-18.745017,26.549706-1.860193,2.496127-5.008214,7.261458-5.008214,13.842152s1.001644,21.557453,1.001644,21.557453l-15.883197-1.815371c-3.004929,0-7.870051-2.949965-9.873336-6.353773l-11.590439-20.195929-3.720388,4.765332,9.157877,22.011287-21.463775,8.396061.572367,5.21917s14.452276-2.949965,17.457202-3.630725,10.445703.907686,19.317397,3.176891c9.300969,2.269205,15.597006,1.815362,24.182516,18.380558,2.003288,3.85765,7.297681,14.749833,11.304257,23.145894,3.004926,6.126856,3.720385,14.295991,2.003288,21.55744-3.720385,15.884436-9.300969,24.734339-8.299325,48.78791.715459,15.203667-.715459,59.907019-1.001644,64.218512l.143095.680768Z" fill="#875c51"/><path d="M157.560868,187.650043l13.307545-26.529167c1.860198-3.763003,4.865124-6.397108,8.15623-7.337858,3.863475-1.128898,9.444059-3.574856,13.450634-9.783809,7.154592-10.72456,11.018067-17.874264,11.018067-17.874264l-3.291117-3.763003s-8.44242,10.72456-12.019716,14.863861c-3.004926,3.386701-6.296043,5.832655-12.735175,6.397104-2.289467.188147-4.149665-2.069649-4.149665-5.080055,0-4.139305-.14309-8.654907-.286179-11.66531,0-2.069652.42928-4.139305,1.430918-5.832655l3.434206-5.644504-2.861837-2.44595-4.578934,7.149704c-1.144739,1.693351-3.148016,2.257803-4.578934,1.128902l-8.58551-6.585255-1.287829,3.386708,7.583872,6.961557c1.574008,1.5052,2.432557,3.951154,2.432557,6.585255v15.804608l-19.174297,27.469925,12.592086,12.982363.143079-.188154Z" fill="none" stroke="#000" stroke-linecap="round" stroke-linejoin="round"/><path d="M129.30948,106.37373c0-.68076-.286185-13.842152-.57237-22.011289,0-4.08457.715459-8.169138,2.432562-11.346026l1.287829-2.496125-3.004926-2.949966-5.580584,8.62298c-2.432562,3.857648-3.863481,8.849899-4.00657,14.295993l-.715459,29.499664,10.159518-13.615231Z" fill="none" stroke="#000" stroke-linecap="round" stroke-linejoin="round"/><path d="M138.753539,243.999987l-28.189087-20.518186,2.861837-20.344299-3.720385-3.129891-7.726961,20.344293c-.715459,1.912709-2.289467,3.303778-4.149663,3.477658l-9.873336.869414c-2.718744.17388-5.580581-.869414-7.726958-2.956004l-17.171024-16.692755-2.861837,3.303778,14.595367,18.605464c.715459,1.043295.286183,2.608243-.858552,2.782124l-10.874979,1.738829.429276,3.825432,32.338755-1.738829c4.865122-.17388,9.730246,1.912709,13.307542,5.912021,9.014784,9.911319,25.61344,27.995142,25.75653,27.473502,0-.869414,4.00657-22.952536,4.00657-22.952536,0,0-.143095,0-.143095-.000013Z" fill="none" stroke="#000" stroke-linecap="round" stroke-linejoin="round"/><path d="M129.623471,333.521168c-.429274,7.715301,33.626575,8.622986,33.054217-.226917-.286179-3.857642-.715459-33.357308-.715459-33.357308,0-4.765327,1.144739-9.530655,3.148016-13.161397l26.042709-48.334059c2.146377-3.857642,4.435845-7.488384,7.154592-10.43834,4.006576-4.53841,9.873339-11.119109,11.733526-13.161397,2.861837-2.949974,6.868412-2.042288,8.44242-.680768,1.574008,1.36152,8.58551,4.992244,8.58551,4.992244l2.289467-4.992244s-8.44242-7.715301-10.445708-9.757589c-4.435845-4.084567-10.445708-2.269205-13.736814.680768-3.863475,3.403808-10.016428,9.530655-10.016428,9.530655,0,0-.42928-11.572943-.715459-18.834401,0-2.723048.42928-5.673013,1.430918-7.942218,3.148016-6.807615,9.587148-20.422846,9.587148-20.422846l-3.148016-3.630725s-9.157879,12.480628-11.161167,16.111353c-1.144739,2.269205-4.292755,4.765327-6.296043,1.36152-1.717098-2.949965-6.439132-9.530663-6.439132-9.530663l-2.432557,3.176891,7.870051,15.430593c.715459,1.36152,1.144739,3.176891,1.144739,4.765327v26.322785c.14309,0-20.891405,34.038077-23.610152,38.122636-.42928-31.768872,5.580584-32.44964,5.294393-50.14943-.286179-12.480628-6.439132-22.238209-9.444059-27.457379-2.432557-4.311493-14.738458-23.599737-20.032857-31.541955-1.287829-2.042288-3.291111-4.992253-3.720385-9.530663-.429274-4.084567-1.144734-9.75758-1.430918-13.161388-.715459-5.899934.858549-11.119104,3.004926-15.884436,1.860193-4.084567,7.870051-17.92672,9.730249-21.330527,1.860198-3.403808,4.578934-7.715297,8.01314-9.303742,3.434206-1.588443,13.593724-8.396059,13.593724-8.396059l-1.144739-4.31149s-14.595363,5.673013-16.59865,6.580695-5.008214,2.269205-8.58551,8.169137c-3.577296,5.899932-17.027919,24.05358-18.745017,26.549706-1.860193,2.496127-5.008214,7.261458-5.008214,13.842152s1.001644,21.557453,1.001644,21.557453l-15.883197-1.815371c-3.004929,0-7.870051-2.949965-9.873336-6.353773l-11.590439-20.195929-3.720388,4.765332,9.157877,22.011287-21.463775,8.396061.572367,5.21917s14.452276-2.949965,17.457202-3.630725,10.445703.907686,19.317397,3.176891c9.300969,2.269205,15.597006,1.815362,24.182516,18.380558,2.003288,3.85765,7.297681,14.749833,11.304257,23.145894,3.004926,6.126856,3.720385,14.295991,2.003288,21.55744-3.720385,15.884436-9.300969,24.734339-8.299325,48.78791.715459,15.203667-.715459,59.907019-1.001644,64.218512l.143095.680768Z" fill="none" stroke="#000" stroke-linecap="round" stroke-linejoin="round"/><g id="uuid-5f67e945-bb06-4ea7-a0e8-bfe508e964a0"><polygon id="uuid-64f37ff8-17b4-4792-ad28-05aa8bbe9753" points="135 309 121 309 121 333.97128 121 339 142 339 142 334 135 334 135 309" fill="#5f5f5f"/><rect id="uuid-dc526a3d-2350-449c-bfe5-b672ac47dced" x="119" y="274" width="18.000014" height="35" fill="#727272"/><polygon id="uuid-346a199e-e442-4197-a723-4519630b7da0" points="112.999979 309 99 309 99 334 92 334 92 339 113 339 113 333.97128 112.999979 333.97128 112.999979 309" fill="#5f5f5f"/><rect id="uuid-45f03bc1-77da-4f60-b037-060178953975" x="96.999986" y="274" width="18.000027" height="35" fill="#727272"/><path id="uuid-6118fd2e-b150-471c-837c-b9c789f1becc" d="M97,203v71h40v-71h-40Z" fill="#727272"/><rect id="uuid-89ce463c-65b6-4ea7-99dc-0b788e93d84c" x="97" y="244" width="40" height="12" fill="#acacac"/><rect id="uuid-4426b2a4-c8b9-47cc-b326-bb4c90a5a215" x="125" y="202" width="5" height="42" fill="#acacac"/><rect id="uuid-565edc58-627e-4177-8a7a-3833eaa44326" x="104" y="202" width="5" height="42" fill="#acacac"/><path id="uuid-4268280c-effc-4c92-bdf3-cb6aed2c98bf" d="M136.012765,195c1.423211-3.810436,2.227872-8.103682,2.227872-12.649544,0-15.696626-9.543481-28.421283-21.315962-28.421283s-21.315962,12.724656-21.315962,28.421283c0,4.545861.804661,8.839107,2.227872,12.649544h38.17618Z" fill="#ccc"/><path id="uuid-fab214b4-505b-4620-b982-eb96bb925769" d="M98.942325,198c3.784134,7.914687,10.420978,13.168782,17.982351,13.168782s14.198217-5.254095,17.982351-13.168782h-35.964701Z" fill="#ccc"/><ellipse id="uuid-d1885916-62e8-4be0-bbff-974d14ab2541" cx="129" cy="186" rx="2" ry="3" fill="#333"/><ellipse id="uuid-1a7d813b-8ebb-4ae3-b45e-ade2e8da0d59" cx="117" cy="186" rx="2" ry="3" fill="#333"/><rect id="uuid-0ff0c7aa-7277-40e4-82f4-7d188acd66af" x="138.019515" y="225.751355" width="10.657961" height="22.737023" transform="translate(-9.069856 5.725682) rotate(-2.218075)" fill="#727272"/><rect id="uuid-8119984a-ca75-4f38-a3cd-28266af61e11" x="137.139504" y="203.031365" width="10.657961" height="22.737023" transform="translate(-8.191182 5.6746) rotate(-2.218075)" fill="#727272"/><rect id="uuid-4dffb7f5-bb49-458e-800d-eb458a73a24f" x="79.725328" y="208.881119" width="22.737023" height="10.657961" transform="translate(-126.886343 295.872173) rotate(-87.499645)" fill="#727272"/><rect id="uuid-5c8e917e-790e-4569-b50d-8e867de29bd9" x="78.733432" y="231.596499" width="22.737023" height="10.657961" transform="translate(-150.528722 316.605629) rotate(-87.499645)" fill="#727272"/><rect id="uuid-8f9fe523-667b-4044-bde5-eeb21ffbf6e0" x="138.333233" y="248.707573" width="11.368513" height="11.368513" transform="translate(-9.738045 5.764647) rotate(-2.218124)" fill="#ccc"/><rect id="uuid-d9e9b2d6-e055-41c2-9c82-dbad2c8787cc" x="83.673764" y="248.277758" width="11.368513" height="11.368513" transform="translate(-168.260438 332.155942) rotate(-87.499694)" fill="#ccc"/><circle id="uuid-95010063-47ef-448e-ade9-7926fd71b788" cx="116.5" cy="236.5" r="1.5" fill="#333"/><circle id="uuid-05e28c81-66f6-48f9-9936-1e8b01a421fd" cx="116.5" cy="230.5" r="1.5" fill="#333"/><circle id="uuid-c45ca0a7-5db4-4c7e-8cab-b975760c53b6" cx="116.5" cy="224.5" r="1.5" fill="#333"/><circle id="uuid-2e87cd01-c837-4bdb-ae74-bb7dc640fb38" cx="116.5" cy="217.5" r="1.5" fill="#333"/><path d="M140.748923,166.174525c-1.283351-9.922209-11.458674-17.651088-23.824248-17.651088s-22.540897,7.728879-23.824248,17.651088c-4.133199.590968-6.609024,1.338558-6.609024,2.152348,0,1.91155,13.625441,3.461155,30.433271,3.461155s30.433271-1.549605,30.433271-3.461155c0-.81379-2.475825-1.561379-6.609024-2.152348Z" fill="#6a6a6a"/><polygon id="uuid-6814a4d5-3851-42dc-8483-c2c76c1cb434" points="135 309 121 309 121 333.97128 121 339 142 339 142 334 135 334 135 309" fill="none" stroke="#000" stroke-linecap="round" stroke-linejoin="round"/><rect id="uuid-702539f3-8a24-4324-8524-e1219241b39f" x="119" y="274" width="18.000014" height="35" fill="none" stroke="#000" stroke-linecap="round" stroke-linejoin="round"/><polygon id="uuid-9f140399-e03a-450c-a7ca-e2886afba579" points="112.999979 309 99 309 99 334 92 334 92 339 113 339 113 333.97128 112.999979 333.97128 112.999979 309" fill="none" stroke="#000" stroke-linecap="round" stroke-linejoin="round"/><rect id="uuid-4680dc9d-2bb4-45c8-9317-f0fb2d4d9782" x="96.999986" y="274" width="18.000027" height="35" fill="none" stroke="#000" stroke-linecap="round" stroke-linejoin="round"/><path id="uuid-39877347-cae9-465c-a631-9923d37a92db" d="M97,203v71h40v-71h-40Z" fill="none" stroke="#000" stroke-linecap="round" stroke-linejoin="round"/><rect id="uuid-1fea8feb-85c6-4324-a137-3ca66666a3d9" x="97" y="244" width="40" height="12" fill="none" stroke="#000" stroke-linecap="round" stroke-linejoin="round"/><rect id="uuid-5098eac7-7f86-46ad-ae3e-247c8d4913b7" x="125" y="202" width="5" height="42" fill="none" stroke="#000" stroke-linecap="round" stroke-linejoin="round"/><rect id="uuid-82775e7b-3524-47da-a119-f873eb7222ba" x="104" y="202" width="5" height="42" fill="none" stroke="#000" stroke-linecap="round" stroke-linejoin="round"/><path id="uuid-271036d3-cce6-4f69-8555-cc6edc53c807" d="M136.012765,195c1.423211-3.810436,2.227872-8.103682,2.227872-12.649544,0-15.696626-9.543481-28.421283-21.315962-28.421283s-21.315962,12.724656-21.315962,28.421283c0,4.545861.804661,8.839107,2.227872,12.649544h38.17618Z" fill="none" stroke="#000" stroke-linecap="round" stroke-linejoin="round"/><path id="uuid-0b63945f-4596-4e81-b40c-d32838bc3f29" d="M98.942325,198c3.784134,7.914687,10.420978,13.168782,17.982351,13.168782s14.198217-5.254095,17.982351-13.168782h-35.964701Z" fill="none" stroke="#000" stroke-linecap="round" stroke-linejoin="round"/><ellipse id="uuid-08d63fcc-0fe3-4986-b569-ab1ebbbf10d0" cx="129" cy="186" rx="2" ry="3" fill="none" stroke="#000" stroke-linecap="round" stroke-linejoin="round"/><ellipse id="uuid-bdb4a9a0-d3e4-44a0-b503-d1800282b195" cx="117" cy="186" rx="2" ry="3" fill="none" stroke="#000" stroke-linecap="round" stroke-linejoin="round"/><rect id="uuid-7c1e28a0-f869-4edd-9daf-846c9cb94103" x="138.019515" y="225.751355" width="10.657961" height="22.737023" transform="translate(-9.069856 5.725682) rotate(-2.218075)" fill="none" stroke="#000" stroke-linecap="round" stroke-linejoin="round"/><rect id="uuid-ef636e53-cb50-4d03-829c-2b7dc8acf80c" x="137.139504" y="203.031365" width="10.657961" height="22.737023" transform="translate(-8.191182 5.6746) rotate(-2.218075)" fill="none" stroke="#000" stroke-linecap="round" stroke-linejoin="round"/><rect id="uuid-8403336c-1b29-4421-869d-b21111af4cd2" x="79.725328" y="208.881119" width="22.737023" height="10.657961" transform="translate(-126.886343 295.872173) rotate(-87.499645)" fill="none" stroke="#000" stroke-linecap="round" stroke-linejoin="round"/><rect id="uuid-e87c6d08-14a6-483d-a8f0-84a59a59b4f4" x="78.733432" y="231.596499" width="22.737023" height="10.657961" transform="translate(-150.528722 316.605629) rotate(-87.499645)" fill="none" stroke="#000" stroke-linecap="round" stroke-linejoin="round"/><rect id="uuid-880bed3b-52ec-4d10-9554-cab3f2d36610" x="138.333233" y="248.707573" width="11.368513" height="11.368513" transform="translate(-9.738045 5.764647) rotate(-2.218124)" fill="none" stroke="#000" stroke-linecap="round" stroke-linejoin="round"/><rect id="uuid-bc3bbb8e-2e24-4be0-9e66-de85accc72c8" x="83.673764" y="248.277758" width="11.368513" height="11.368513" transform="translate(-168.260438 332.155942) rotate(-87.499694)" fill="none" stroke="#000" stroke-linecap="round" stroke-linejoin="round"/><circle id="uuid-b0b22acf-3a41-4478-95c9-e5f48014ea2e" cx="116.5" cy="236.5" r="1.5" fill="none" stroke="#000" stroke-linecap="round" stroke-linejoin="round"/><circle id="uuid-8ab66fad-7feb-4514-9ae3-640b9c14a352" cx="116.5" cy="230.5" r="1.5" fill="none" stroke="#000" stroke-linecap="round" stroke-linejoin="round"/><circle id="uuid-14b034ad-9553-4b6d-8a73-41adaa7a6322" cx="116.5" cy="224.5" r="1.5" fill="none" stroke="#000" stroke-linecap="round" stroke-linejoin="round"/><circle id="uuid-4a27f67d-ae53-4d9c-a5e0-f123dbcc92cd" cx="116.5" cy="217.5" r="1.5" fill="none" stroke="#000" stroke-linecap="round" stroke-linejoin="round"/><path d="M140.748923,166.174525c-1.283351-9.922209-11.458674-17.651088-23.824248-17.651088s-22.540897,7.728879-23.824248,17.651088c-4.133199.590968-6.609024,1.338558-6.609024,2.152348,0,1.91155,13.625441,3.461155,30.433271,3.461155s30.433271-1.549605,30.433271-3.461155c0-.81379-2.475825-1.561379-6.609024-2.152348Z" fill="none" stroke="#000" stroke-linecap="round" stroke-linejoin="round"/></g><polygon points="369.305981 290.473301 374.266525 293 351.944058 292.999999 364.345429 289.843127 369.305981 290.473301" fill="#633d35"/><path d="M266,272h23.782186c0-.214048,2.192385-.29207,2.746018-.739193.3654-.294082-.409687-.93626-2.668509-1.719477-.298962-.105029-.343254-.246068-.099654-.360099.664358-.300083,1.959861-.945262,5.890652-1.350373,4.340483-.447123,7.994458-.3631,9.544627-.294082.520416.024007.996541.090026,1.373011.171047,3.321792.729202,31.534917,5.292176,31.534917,5.292176,0,0,15.529995-.057711,24.896053-.057711,8.539641,0,15.668863,3.777281,17.321695,8.798268l-2.942043,2.801941,2.214798,3.231899c-.606043,1.027283-1.443473,1.98531-2.479252,2.845226l-23.161707,2.15556,19.745851.605982s-6.335863,1.618835-10.699343,1.618835c-9.44319,0-96.9993.605978-96.9993.605978v-23.605978Z" fill="#ad7156"/><path d="M273.177037,271.260807c-.018005.051014-.042011.096026-.069019.138038.03601-.054015.057015-.105029.069019-.138038Z" fill="url(#uuid-87245cbc-9b60-49a7-a78b-cd806fd88997)"/><path d="M283.293603,288.165768c6.156397.099028,12.257428.273076,18.347388.459127l9.112794.279078c3.033909.087024,6.034597.201055,8.946703.177049,2.989613,0,6.045668-.039011,9.090648-.081022l9.168157-.11103c6.123177-.07202,12.246353-.135037,18.413821-.123033-6.023527.3601-12.102412.615169-18.203447.822227-6.112102.204056-12.202062.3631-18.458113.393109-3.222146.006002-6.322485-.120034-9.367465-.234065-3.04498-.132036-6.078885-.264074-9.090648-.429119-6.034593-.32109-12.024899-.687192-17.959838-1.15232Z" fill="#ce8963"/><path d="M314.297033,291.74147c.775082-.081023,1.616607-.090025,2.424914-.114032.819374-.015004,1.638757-.030008,2.458131-.03601,1.638757-.012004,3.277505-.018005,4.916261-.012003,3.277505.006002,6.543943.039011,9.810372.087025,3.26643.045013,6.521793.105029,9.777156.177049,3.255363.063017,6.510718.156043,9.766081.243068l-.398616.009002,5.768852-.426117,5.791002-.405111c3.875429-.261072,7.750858-.510141,11.681654-.7232-3.720413.396109-7.496184.756209-11.271963,1.104305l-5.680269.510141-5.680294.486133-.177167.015004-.210383-.006002c-3.244288-.075021-6.499651-.138038-9.755006-.222062-3.244288-.075021-6.499651-.159044-9.743939-.246069l-9.732864-.267074-4.87197-.129036c-.808307-.021006-1.627682-.039011-2.435981-.054015-.808291-.006001-1.627673-.03601-2.435972.009003Z" fill="#ce8963"/><path d="M350.283163,285h27.681636s2.214532-2.400663,2.214532-2.400663c0,0-16.608982,1.500414-29.896168,2.400663Z" fill="#ce8963"/><path d="M331.459655,275.300912c-14.339083-1.704472-29.818656-7.706132-29.818656-7.706132l-.476124-.177048c1.948785-.033009,3.366088-.006001,4.141175.042012.343254.021006.907957.090026,1.118336.138038,2.613147.576159,20.395826,4.402217,31.667788,4.402218,0,0,15.999982-.060015,25.411747-.060015,4.218679,0,10.020755,1.260348,13.34255,3.961095l-32.110697-1.200333,9.965388,2.700747c.011067,0-13.154318-.903251-23.241507-2.100581Z" fill="#965b44"/><path d="M288.971128,271.831955c4.564713-.078022,3.527793-.924256,3.527793-.924256,1.713177.972268,2.671201,2.38266.631171,3.198886-2.25418.900249-13.964644,1.326366-13.964644,1.326366l-6.762539-.600166-6.232807-2.832784,22.801027-.168045Z" fill="#965b44"/><path d="M261.281747,284.395437c.138037,6.016663,2.238618,10.796985,4.810329,10.796986,2.661736,0,4.816332-5.116414,4.816333-11.427159s-2.157595-11.42716-4.81633-11.427161c-2.559708,0-4.654287,4.735308-4.807331,10.715962" fill="#ffcc80"/><path d="M261.281747,284.395437c.171047,2.151596.510141,4.297188,1.248345,6.298742.3631.996275.813225,1.968544,1.440398,2.781769.315087.39911.669185.768212,1.077298,1.011279.402111.25207.852236.354098,1.284355.282078.429119-.07202.837231-.315087,1.185328-.648179.348096-.333092.657182-.735203.915253-1.173324.519143-.879243.888246-1.866516,1.167323-2.874795.558154-2.02556.79222-4.150148.789219-6.268733.006002-2.115586-.21906-4.243173-.771212-6.271735-.276076-1.008279-.639177-2.001553-1.149317-2.883798-.255071-.441122-.552153-.852235-.900249-1.188328-.342094-.339093-.744206-.600166-1.173324-.684189-.429119-.099028-.879243.003001-1.287356.231063-.408113.234064-.771213.591164-1.089301.987273-.639177.801221-1.092302,1.773491-1.461404,2.766765-.747207,1.995552-1.092303,4.141146-1.272352,6.29274-.009002-.54015-.006002-1.080298.012003-1.62345.027008-.54015.07202-1.0833.135037-1.620448.132037-1.077297.327091-2.154596.639177-3.207888.32409-1.047289.741205-2.085576,1.398387-3.015835.330091-.465129.732202-.897247,1.248345-1.221337.513142-.321089,1.179326-.504139,1.818503-.387107.642177.102027,1.191329.450125,1.62645.846234.441122.40211.786217.870241,1.0863,1.356374.594164.972268.999277,2.022559,1.317364,3.084853.612169,2.136592.852235,4.342201.861237,6.541809-.018006,2.196607-.261072,4.405218-.885246,6.538808-.321089,1.062294-.735204,2.109583-1.33537,3.078851-.303084.483134-.660183.945261-1.107306,1.344371-.444123.390108-1.01128.720199-1.653457.804222-.318088.03901-.645178.018005-.954264-.063017-.309086-.078022-.588162-.222061-.843233-.387107-.510141-.333092-.897248-.777215-1.224338-1.242343-.642178-.93926-1.056292-1.974547-1.37438-3.024837-.306085-1.053291-.498137-2.130589-.627173-3.210888-.060016-.540149-.105029-1.080298-.129035-1.623449-.024005-.543146-.024005-1.086297-.012002-1.626446Z" fill="#ce8963"/><path d="M265.296855,295.369472c2.109583,0,3.820057-4.300188,3.820057-9.608656,0-5.308468-1.710471-9.608656-3.820055-9.608656-2.109583,0-4.543256,1.875518-3.823058,9.608655.495136,5.284461,1.710472,9.608657,3.823056,9.608657Z" fill="url(#uuid-566eda24-348a-48f7-be08-d17a7f4c2e8c)"/><g opacity=".66"><path d="M265.587937,292.617711c.417115.003001.792219-.243067,1.0833-.537148.288079-.303083.513142-.663183.702194-1.038287.372103-.753208.612169-1.566433.798221-2.38566.345095-1.644454.46813-3.33092.447124-5.005384s-.189052-3.354928-.585161-4.972375c-.204056-.804222-.465128-1.599443-.840232-2.325643-.186052-.360099-.414114-.699194-.678187-.978271-.270075-.270075-.594164-.47113-.924255-.462128-.32709.003001-.642177.207058-.90325.483134-.258071.282079-.474131.621172-.65118.984272-.357099.7262-.597165,1.52142-.783217,2.325643-.186051.807224-.309086,1.629451-.393109,2.454679-.090025.825228-.132037,1.659458-.138038,2.490688-.012003,1.66546.072019,3.339924.387106,4.981378.168046.816226.384106,1.629451.738204,2.38566.18005.375104.396109.735204.675187,1.044289.279077.297082.645178.549152,1.065295.555154ZM265.587937,292.683729c-.444123.006002-.837231-.249069-1.137314-.549153-.300083-.309085-.546151-.663183-.747206-1.041288-.411114-.750207-.702194-1.55743-.933258-2.379658-.456126-1.644455-.681188-3.354928-.699193-5.062401-.003001-.855236.033009-1.710472.117033-2.562709.090025-.852235.234065-1.698468.438122-2.5357.213059-.83423.483134-1.659458.891247-2.442675.204057-.390109.450125-.765212.771213-1.101304.165046-.162045.351097-.315088.567157-.43212.21606-.117032.47113-.192053.732203-.189051s.513142.081021.726201.201055c.213059.120034.396109.273077.555154.438121.312087.336094.549152.714197.741205,1.107307.387107.783217.639176,1.608445.83123,2.442675.375104,1.668461.513142,3.372932.501138,5.071403-.030009,1.695469-.213059,3.396939-.639178,5.038393-.213059.819226-.483134,1.629451-.873242,2.382658-.192053.378104-.429119.735203-.720199,1.04729-.294082.303084-.678188.564156-1.122311.567157Z" fill="#7f441c"/></g><path d="M265.251844,290.598152c1.113308,0,2.016558-2.898801,2.016558-6.472789,0-3.573988-.903249-6.472789-2.016557-6.472789-1.113308,0-2.016558,2.898802-2.016558,6.472789,0,3.573987.903249,6.472789,2.016557,6.472789ZM265.251844,289.493847c-.834231,0-1.512418-2.286632-1.512418-5.110414,0-2.823782.678188-5.110413,1.512419-5.110412s1.512418,2.286633,1.512418,5.110413c0,2.82378-.678188,5.110414-1.512419,5.110414Z" fill="#b5772c" isolation="isolate" opacity=".82"/><ellipse cx="265.5" cy="283.5" rx=".5" ry="2.5" fill="url(#uuid-60535a30-6913-47de-b83c-17ff98ab104d)" isolation="isolate" opacity=".74"/><polygon points="369.305981 290.473301 374.266525 293 351.944058 292.999999 364.345429 289.843127 369.305981 290.473301" fill="none" stroke="#000" stroke-linecap="round" stroke-linejoin="round"/><path d="M266,272h23.782186c0-.214048,2.192385-.29207,2.746018-.739193.3654-.294082-.409687-.93626-2.668509-1.719477-.298962-.105029-.343254-.246068-.099654-.360099.664358-.300083,1.959861-.945262,5.890652-1.350373,4.340483-.447123,7.994458-.3631,9.544627-.294082.520416.024007.996541.090026,1.373011.171047,3.321792.729202,31.534917,5.292176,31.534917,5.292176,0,0,15.529995-.057711,24.896053-.057711,8.539641,0,15.668863,3.777281,17.321695,8.798268l-2.942043,2.801941,2.214798,3.231899c-.606043,1.027283-1.443473,1.98531-2.479252,2.845226l-23.161707,2.15556,19.745851.605982s-6.335863,1.618835-10.699343,1.618835c-9.44319,0-96.9993.605978-96.9993.605978v-23.605978Z" fill="none" stroke="#000" stroke-linecap="round" stroke-linejoin="round"/><path d="M273.177037,271.260807c-.018005.051014-.042011.096026-.069019.138038.03601-.054015.057015-.105029.069019-.138038Z" fill="none" stroke="#000" stroke-linecap="round" stroke-linejoin="round"/><path d="M283.293603,288.165768c6.156397.099028,12.257428.273076,18.347388.459127l9.112794.279078c3.033909.087024,6.034597.201055,8.946703.177049,2.989613,0,6.045668-.039011,9.090648-.081022l9.168157-.11103c6.123177-.07202,12.246353-.135037,18.413821-.123033-6.023527.3601-12.102412.615169-18.203447.822227-6.112102.204056-12.202062.3631-18.458113.393109-3.222146.006002-6.322485-.120034-9.367465-.234065-3.04498-.132036-6.078885-.264074-9.090648-.429119-6.034593-.32109-12.024899-.687192-17.959838-1.15232Z" fill="none" stroke="#000" stroke-linecap="round" stroke-linejoin="round"/><path d="M314.297033,291.74147c.775082-.081023,1.616607-.090025,2.424914-.114032.819374-.015004,1.638757-.030008,2.458131-.03601,1.638757-.012004,3.277505-.018005,4.916261-.012003,3.277505.006002,6.543943.039011,9.810372.087025,3.26643.045013,6.521793.105029,9.777156.177049,3.255363.063017,6.510718.156043,9.766081.243068l-.398616.009002,5.768852-.426117,5.791002-.405111c3.875429-.261072,7.750858-.510141,11.681654-.7232-3.720413.396109-7.496184.756209-11.271963,1.104305l-5.680269.510141-5.680294.486133-.177167.015004-.210383-.006002c-3.244288-.075021-6.499651-.138038-9.755006-.222062-3.244288-.075021-6.499651-.159044-9.743939-.246069l-9.732864-.267074-4.87197-.129036c-.808307-.021006-1.627682-.039011-2.435981-.054015-.808291-.006001-1.627673-.03601-2.435972.009003Z" fill="none" stroke="#000" stroke-linecap="round" stroke-linejoin="round"/><path d="M350.283163,285h27.681636s2.214532-2.400663,2.214532-2.400663c0,0-16.608982,1.500414-29.896168,2.400663Z" fill="none" stroke="#000" stroke-linecap="round" stroke-linejoin="round"/><path d="M331.459655,275.300912c-14.339083-1.704472-29.818656-7.706132-29.818656-7.706132l-.476124-.177048c1.948785-.033009,3.366088-.006001,4.141175.042012.343254.021006.907957.090026,1.118336.138038,2.613147.576159,20.395826,4.402217,31.667788,4.402218,0,0,15.999982-.060015,25.411747-.060015,4.218679,0,10.020755,1.260348,13.34255,3.961095l-32.110697-1.200333,9.965388,2.700747c.011067,0-13.154318-.903251-23.241507-2.100581Z" fill="none" stroke="#000" stroke-linecap="round" stroke-linejoin="round"/><path d="M288.971128,271.831955c4.564713-.078022,3.527793-.924256,3.527793-.924256,1.713177.972268,2.671201,2.38266.631171,3.198886-2.25418.900249-13.964644,1.326366-13.964644,1.326366l-6.762539-.600166-6.232807-2.832784,22.801027-.168045Z" fill="none" stroke="#000" stroke-linecap="round" stroke-linejoin="round"/><path d="M261.281747,284.395437c.138037,6.016663,2.238618,10.796985,4.810329,10.796986,2.661736,0,4.816332-5.116414,4.816333-11.427159s-2.157595-11.42716-4.81633-11.427161c-2.559708,0-4.654287,4.735308-4.807331,10.715962" fill="none" stroke="#000" stroke-linecap="round" stroke-linejoin="round"/><path d="M261.281747,284.395437c.171047,2.151596.510141,4.297188,1.248345,6.298742.3631.996275.813225,1.968544,1.440398,2.781769.315087.39911.669185.768212,1.077298,1.011279.402111.25207.852236.354098,1.284355.282078.429119-.07202.837231-.315087,1.185328-.648179.348096-.333092.657182-.735203.915253-1.173324.519143-.879243.888246-1.866516,1.167323-2.874795.558154-2.02556.79222-4.150148.789219-6.268733.006002-2.115586-.21906-4.243173-.771212-6.271735-.276076-1.008279-.639177-2.001553-1.149317-2.883798-.255071-.441122-.552153-.852235-.900249-1.188328-.342094-.339093-.744206-.600166-1.173324-.684189-.429119-.099028-.879243.003001-1.287356.231063-.408113.234064-.771213.591164-1.089301.987273-.639177.801221-1.092302,1.773491-1.461404,2.766765-.747207,1.995552-1.092303,4.141146-1.272352,6.29274-.009002-.54015-.006002-1.080298.012003-1.62345.027008-.54015.07202-1.0833.135037-1.620448.132037-1.077297.327091-2.154596.639177-3.207888.32409-1.047289.741205-2.085576,1.398387-3.015835.330091-.465129.732202-.897247,1.248345-1.221337.513142-.321089,1.179326-.504139,1.818503-.387107.642177.102027,1.191329.450125,1.62645.846234.441122.40211.786217.870241,1.0863,1.356374.594164.972268.999277,2.022559,1.317364,3.084853.612169,2.136592.852235,4.342201.861237,6.541809-.018006,2.196607-.261072,4.405218-.885246,6.538808-.321089,1.062294-.735204,2.109583-1.33537,3.078851-.303084.483134-.660183.945261-1.107306,1.344371-.444123.390108-1.01128.720199-1.653457.804222-.318088.03901-.645178.018005-.954264-.063017-.309086-.078022-.588162-.222061-.843233-.387107-.510141-.333092-.897248-.777215-1.224338-1.242343-.642178-.93926-1.056292-1.974547-1.37438-3.024837-.306085-1.053291-.498137-2.130589-.627173-3.210888-.060016-.540149-.105029-1.080298-.129035-1.623449-.024005-.543146-.024005-1.086297-.012002-1.626446Z" fill="none" stroke="#000" stroke-linecap="round" stroke-linejoin="round"/><path d="M265.296855,295.369472c2.109583,0,3.820057-4.300188,3.820057-9.608656,0-5.308468-1.710471-9.608656-3.820055-9.608656-2.109583,0-4.543256,1.875518-3.823058,9.608655.495136,5.284461,1.710472,9.608657,3.823056,9.608657Z" fill="none" stroke="#000" stroke-linecap="round" stroke-linejoin="round"/><path d="M265.587937,292.617711c.417115.003001.792219-.243067,1.0833-.537148.288079-.303083.513142-.663183.702194-1.038287.372103-.753208.612169-1.566433.798221-2.38566.345095-1.644454.46813-3.33092.447124-5.005384s-.189052-3.354928-.585161-4.972375c-.204056-.804222-.465128-1.599443-.840232-2.325643-.186052-.360099-.414114-.699194-.678187-.978271-.270075-.270075-.594164-.47113-.924255-.462128-.32709.003001-.642177.207058-.90325.483134-.258071.282079-.474131.621172-.65118.984272-.357099.7262-.597165,1.52142-.783217,2.325643-.186051.807224-.309086,1.629451-.393109,2.454679-.090025.825228-.132037,1.659458-.138038,2.490688-.012003,1.66546.072019,3.339924.387106,4.981378.168046.816226.384106,1.629451.738204,2.38566.18005.375104.396109.735204.675187,1.044289.279077.297082.645178.549152,1.065295.555154ZM265.587937,292.683729c-.444123.006002-.837231-.249069-1.137314-.549153-.300083-.309085-.546151-.663183-.747206-1.041288-.411114-.750207-.702194-1.55743-.933258-2.379658-.456126-1.644455-.681188-3.354928-.699193-5.062401-.003001-.855236.033009-1.710472.117033-2.562709.090025-.852235.234065-1.698468.438122-2.5357.213059-.83423.483134-1.659458.891247-2.442675.204057-.390109.450125-.765212.771213-1.101304.165046-.162045.351097-.315088.567157-.43212.21606-.117032.47113-.192053.732203-.189051s.513142.081021.726201.201055c.213059.120034.396109.273077.555154.438121.312087.336094.549152.714197.741205,1.107307.387107.783217.639176,1.608445.83123,2.442675.375104,1.668461.513142,3.372932.501138,5.071403-.030009,1.695469-.213059,3.396939-.639178,5.038393-.213059.819226-.483134,1.629451-.873242,2.382658-.192053.378104-.429119.735203-.720199,1.04729-.294082.303084-.678188.564156-1.122311.567157Z" fill="none" stroke="#000" stroke-linecap="round" stroke-linejoin="round"/><path d="M265.251844,290.598152c1.113308,0,2.016558-2.898801,2.016558-6.472789,0-3.573988-.903249-6.472789-2.016557-6.472789-1.113308,0-2.016558,2.898802-2.016558,6.472789,0,3.573987.903249,6.472789,2.016557,6.472789ZM265.251844,289.493847c-.834231,0-1.512418-2.286632-1.512418-5.110414,0-2.823782.678188-5.110413,1.512419-5.110412s1.512418,2.286633,1.512418,5.110413c0,2.82378-.678188,5.110414-1.512419,5.110414Z" fill="none" stroke="#000" stroke-linecap="round" stroke-linejoin="round"/><ellipse cx="265.5" cy="283.5" rx=".5" ry="2.5" fill="none" stroke="#000" stroke-linecap="round" stroke-linejoin="round"/><g id="uuid-4f1c05c8-0b1a-4570-9d67-5c431c8f3e60"><polygon id="uuid-8178ec08-e6f1-4eb2-9113-b5d00042c9e3" points="369.842266 291.598933 361.830697 294.411084 366.718242 308.335264 367.702497 311.139317 379.719867 306.921084 378.735613 304.11703 374.72981 305.523112 369.842266 291.598933" fill="#5f5f5f"/><rect id="uuid-39075215-3470-4e39-af6e-fc0649a0d399" x="354.934811" y="275.631587" width="10.569775" height="20.864629" transform="translate(-99.723406 279.496714) rotate(-37.636371)" fill="#727272"/><polygon id="uuid-8902592d-8bbb-4021-9d44-41b462ab130a" points="343.567995 298.195664 351.650541 295.594535 356.171328 309.642074 360.212607 308.341507 361.123004 311.170402 348.999167 315.072103 348.08877 312.243207 348.088783 312.243203 343.567995 298.195664" fill="#5f5f5f"/><rect id="uuid-0f863215-ade2-4a71-afd7-e58cbd07177a" x="338.207277" y="278.008242" width="10.569767" height="20.864629" transform="translate(-89.491937 171.352597) rotate(-24.889126)" fill="#727272"/><path id="uuid-5b522fef-a969-4b16-84cf-d50d25c5d28d" d="M334,239v42h24v-42h-24Z" fill="#727272"/><rect id="uuid-1652d294-c431-464d-9432-35a77e004037" x="334" y="264" width="24" height="7" fill="#acacac"/><rect id="uuid-90eed132-27cb-449c-b839-d8d5ce39e1e5" x="351" y="239" width="3" height="25" fill="#acacac"/><rect id="uuid-0e36f0ec-ef66-492b-857f-72bdb9ffafa3" x="339" y="239" width="3" height="25" fill="#acacac"/><path id="uuid-189c076d-64e9-4722-8261-0d24c4484f02" d="M357.618932,230.469087c.501435-2.378052.594412-4.986258.189479-7.672036-1.398215-9.273855-8.170159-15.941707-15.125557-14.893044-6.955398,1.048663-11.460382,9.416732-10.062166,18.690587.404934,2.685778,1.262774,5.15063,2.443057,7.27513l22.555188-3.400637Z" fill="#ccc"/><path id="uuid-c0e5ebf9-3d76-487f-b5ee-e0c8a3e44284" d="M335.523413,236c2.261004,4.728992,6.22649,7.868291,10.744377,7.868291s8.483374-3.139299,10.744377-7.868291h-21.488755Z" fill="#ccc"/><ellipse id="uuid-488f3102-b6d0-4e55-a578-26fa69ac7039" cx="352" cy="223" rx=".989889" ry="2.004764" transform="translate(-16.804682 29.051279) rotate(-4.615995)" fill="#333"/><ellipse id="uuid-f8001eca-24b9-4d94-a584-e3f04ef9d352" cx="344" cy="225" rx=".989889" ry="2.004764" transform="translate(-16.991585 28.413948) rotate(-4.615995)" fill="#333"/><rect id="uuid-2c576955-121d-4e6a-a2d0-54ddb09c202f" x="358.871867" y="252.651146" width="6.368086" height="13.585274" transform="translate(-9.769994 14.207049) rotate(-2.218075)" fill="#727272"/><rect id="uuid-236bae95-1cf5-4bb8-bb77-4902d272880f" x="358.346064" y="239.076049" width="6.368086" height="13.585274" transform="translate(-9.24499 14.176528) rotate(-2.218075)" fill="#727272"/><rect id="uuid-25cfe61f-f58d-4b7e-b1ff-8062734cb5f7" x="323.740556" y="242.350354" width="13.585274" height="6.368086" transform="translate(43.576348 540.822563) rotate(-82.426354)" fill="#727272"/><rect id="uuid-525b849f-164a-4156-bdbb-48ecf9381416" x="321.950022" y="255.817117" width="13.585274" height="6.368086" transform="translate(28.672524 550.739487) rotate(-82.426354)" fill="#727272"/><rect id="uuid-b4606db7-e586-4972-a008-fca140bd7ce9" x="359.059312" y="266.367388" width="6.792638" height="6.792638" transform="translate(-10.169326 14.230571) rotate(-2.218124)" fill="#ccc"/><rect id="uuid-faf46fb1-08da-4dc2-a517-f72a15dc197d" x="324.00344" y="265.704914" width="6.792638" height="6.792638" transform="translate(17.494904 558.177445) rotate(-82.426403)" fill="#ccc"/><circle id="uuid-a94c3a60-83bf-4004-96b4-2afe06b2c4b7" cx="346" cy="259" r="1" fill="#333"/><circle id="uuid-aba6bd24-e7ca-4e7d-8b86-8d16b2354be3" cx="346" cy="256" r="1" fill="#333"/><circle id="uuid-8b2aeb7d-916d-4b65-adc6-1208d4f16031" cx="346" cy="252" r="1" fill="#333"/><circle id="uuid-7dcfbb1d-8560-419a-a0fd-e98daff10c07" cx="346" cy="248" r="1" fill="#333"/><path d="M357.84236,212.969615c-1.642072-5.747906-8.342309-9.407878-15.648117-8.306384s-12.629107,6.574249-12.503489,12.55079c-2.389328.71733-3.785497,1.379559-3.713007,1.860361.170276,1.129379,8.358472.831194,18.288847-.666004,9.930375-1.497199,17.842501-3.626453,17.672225-4.755832-.07249-.480802-1.601847-.701951-4.096458-.682931Z" fill="#6a6a6a"/><polygon id="uuid-f739c82c-e080-4ca1-b0d0-ab8963330dca" points="369.842266 291.598933 361.830697 294.411084 366.718242 308.335264 367.702497 311.139317 379.719867 306.921084 378.735613 304.11703 374.72981 305.523112 369.842266 291.598933" fill="none" stroke="#000" stroke-linecap="round" stroke-linejoin="round"/><rect id="uuid-f4ebb63c-0381-4203-8503-a7bccd303ef0" x="354.934811" y="275.631587" width="10.569775" height="20.864629" transform="translate(-99.723406 279.496714) rotate(-37.636371)" fill="none" stroke="#000" stroke-linecap="round" stroke-linejoin="round"/><polygon id="uuid-ce330fdf-07bb-4db1-994b-6b6186da2bcc" points="343.567995 298.195664 351.650541 295.594535 356.171328 309.642074 360.212607 308.341507 361.123004 311.170402 348.999167 315.072103 348.08877 312.243207 348.088783 312.243203 343.567995 298.195664" fill="none" stroke="#000" stroke-linecap="round" stroke-linejoin="round"/><rect id="uuid-4f9abb81-9567-4200-b1a2-3f9c1fb9bbd0" x="338.207277" y="278.008242" width="10.569767" height="20.864629" transform="translate(-89.491937 171.352597) rotate(-24.889126)" fill="none" stroke="#000" stroke-linecap="round" stroke-linejoin="round"/><path id="uuid-86ae31e7-7ea2-4b14-97c8-6811e3d667ea" d="M334,239v42h24v-42h-24Z" fill="none" stroke="#000" stroke-linecap="round" stroke-linejoin="round"/><rect id="uuid-f459d41b-cb42-4430-b2b7-d72e07d92e57" x="334" y="264" width="24" height="7" fill="none" stroke="#000" stroke-linecap="round" stroke-linejoin="round"/><rect id="uuid-45993658-370a-4adc-869b-009e596008d6" x="351" y="239" width="3" height="25" fill="none" stroke="#000" stroke-linecap="round" stroke-linejoin="round"/><rect id="uuid-e94c26ff-a948-465d-98c4-9647dd472209" x="339" y="239" width="3" height="25" fill="none" stroke="#000" stroke-linecap="round" stroke-linejoin="round"/><path id="uuid-4d3a2e00-fe33-47be-9798-08f356a5398c" d="M357.618932,230.469087c.501435-2.378052.594412-4.986258.189479-7.672036-1.398215-9.273855-8.170159-15.941707-15.125557-14.893044-6.955398,1.048663-11.460382,9.416732-10.062166,18.690587.404934,2.685778,1.262774,5.15063,2.443057,7.27513l22.555188-3.400637Z" fill="none" stroke="#000" stroke-linecap="round" stroke-linejoin="round"/><path id="uuid-272fd9d7-151d-4079-8fba-d27766c9ac79" d="M335.523413,236c2.261004,4.728992,6.22649,7.868291,10.744377,7.868291s8.483374-3.139299,10.744377-7.868291h-21.488755Z" fill="none" stroke="#000" stroke-linecap="round" stroke-linejoin="round"/><ellipse id="uuid-eae6b2ff-18e5-4dd1-94ca-16aa228e5135" cx="352" cy="223" rx=".989889" ry="2.004764" transform="translate(-16.804682 29.051279) rotate(-4.615995)" fill="none" stroke="#000" stroke-linecap="round" stroke-linejoin="round"/><ellipse id="uuid-992a071f-1d1d-4135-b3ca-3297cf43f350" cx="344" cy="225" rx=".989889" ry="2.004764" transform="translate(-16.991585 28.413948) rotate(-4.615995)" fill="none" stroke="#000" stroke-linecap="round" stroke-linejoin="round"/><rect id="uuid-b405d836-7848-44cc-9831-e2a0dd6b75b0" x="358.871867" y="252.651146" width="6.368086" height="13.585274" transform="translate(-9.769994 14.207049) rotate(-2.218075)" fill="none" stroke="#000" stroke-linecap="round" stroke-linejoin="round"/><rect id="uuid-ef7275f2-d5d4-4f7d-8a3b-be0c0fe58207" x="358.346064" y="239.076049" width="6.368086" height="13.585274" transform="translate(-9.24499 14.176528) rotate(-2.218075)" fill="none" stroke="#000" stroke-linecap="round" stroke-linejoin="round"/><rect id="uuid-2b4f9d57-c412-4bb7-9bf9-6de4a745994d" x="323.740556" y="242.350354" width="13.585274" height="6.368086" transform="translate(43.576348 540.822563) rotate(-82.426354)" fill="none" stroke="#000" stroke-linecap="round" stroke-linejoin="round"/><rect id="uuid-4287604d-db2b-4d9a-9500-431bc02ed4fc" x="321.950022" y="255.817117" width="13.585274" height="6.368086" transform="translate(28.672524 550.739487) rotate(-82.426354)" fill="none" stroke="#000" stroke-linecap="round" stroke-linejoin="round"/><rect id="uuid-11f1abd7-b5d0-4805-b377-de7aca6fe15f" x="359.059312" y="266.367388" width="6.792638" height="6.792638" transform="translate(-10.169326 14.230571) rotate(-2.218124)" fill="none" stroke="#000" stroke-linecap="round" stroke-linejoin="round"/><rect id="uuid-a60f5d64-d15a-4ff3-ab52-f787e75ad079" x="324.00344" y="265.704914" width="6.792638" height="6.792638" transform="translate(17.494904 558.177445) rotate(-82.426403)" fill="none" stroke="#000" stroke-linecap="round" stroke-linejoin="round"/><circle id="uuid-d948c731-79a0-45d4-88cd-1ce912475f60" cx="346" cy="259" r="1" fill="none" stroke="#000" stroke-linecap="round" stroke-linejoin="round"/><circle id="uuid-ea0c487a-fc2a-4513-8acd-964985511b0c" cx="346" cy="256" r="1" fill="none" stroke="#000" stroke-linecap="round" stroke-linejoin="round"/><circle id="uuid-7931fb47-615a-4549-90ce-2aeb87339249" cx="346" cy="252" r="1" fill="none" stroke="#000" stroke-linecap="round" stroke-linejoin="round"/><circle id="uuid-4d114ecb-a26e-44b3-b5c2-619fa3353a7f" cx="346" cy="248" r="1" fill="none" stroke="#000" stroke-linecap="round" stroke-linejoin="round"/><path d="M357.84236,212.969615c-1.642072-5.747906-8.342309-9.407878-15.648117-8.306384s-12.629107,6.574249-12.503489,12.55079c-2.389328.71733-3.785497,1.379559-3.713007,1.860361.170276,1.129379,8.358472.831194,18.288847-.666004,9.930375-1.497199,17.842501-3.626453,17.672225-4.755832-.07249-.480802-1.601847-.701951-4.096458-.682931Z" fill="none" stroke="#000" stroke-linecap="round" stroke-linejoin="round"/></g><path d="M323.99959,191.182788c-3.751555-1.931593-18.594012-10.24452-23.780422-30.868202-2.302577-9.156161-1.908613-17.584148-1.219578-23.131798" fill="none" stroke="#333" stroke-miterlimit="10" stroke-width="2"/><text transform="translate(225.502991 82.6828)" fill="#333" font-family="ComicNeue-Bold, &apos;Comic Neue&apos;" font-size="24" font-weight="700"><tspan x="0" y="0">We should attack from </tspan><tspan x="0" y="28.799805">the right this time.</tspan></text><text transform="translate(55.825562 395.297546)" fill="#333" font-family="ComicNeue-Regular, &apos;Comic Neue&apos;" font-size="24"><tspan x="0" y="0">At night, Canadians ventured across </tspan><tspan x="0" y="28.799805">German lines to gather intelligence.</tspan></text></svg>