<?xml version="1.0" encoding="UTF-8"?><svg id="uuid-501cf607-7f44-4157-b65f-a23c5acbd49d" xmlns="http://www.w3.org/2000/svg" xmlns:xlink="http://www.w3.org/1999/xlink" viewBox="0 0 500 500"><defs><linearGradient id="uuid-91759339-2813-4297-9e45-c571a1fa4cfe" x1="118.760078" y1="-1453.665977" x2="127.322323" y2="-1453.665977" gradientTransform="translate(0 -1058) scale(1 -1)" gradientUnits="userSpaceOnUse"><stop offset=".000381" stop-color="#4c5c64"/><stop offset="1" stop-color="#8e8884" stop-opacity="0"/></linearGradient><clipPath id="uuid-b2e9d7ea-33a7-43c5-9130-d4d703e0eb03"><path d="M297.359741,326.480686c.313471.105728.670966.030445.842925-.252173.903804-1.594087,3.804894-6.610431,4.417861-7.493663.626121-.998001,1.504834-.54836,2.034684-.301524,18.094477,8.308356,18.313671,19.171251,18.863245,22.49027.336911,2.13177-.297857,3.407866-2.084895,4.388993-3.816805,2.050704-12.544263,7.375541-29.495513-.964485-.878713-.449641-1.095502-1.195475-.853197-1.888648.180606-.560711,2.573645-6.216756,3.296448-7.854865.123413-.264927-.031252-.5385-.247646-.679602-.596085-.277687-1.655798-.771349-2.070882-1.005015-2.141622-1.199191,1.088986-8.480177,3.442481-7.303202.463614.215979,1.324639.617079,1.854488.863913Z" fill="none"/></clipPath><clipPath id="uuid-fedd4d49-94f0-4b77-802a-e2f325f10be1"><path d="M267.574238,320.947826s23.339965,10.631045,24.249534,11.014452c1.81911.766826,4.56963-4.964494,2.745999-5.894641-1.227562-.652454-23.994062-11.822402-23.994062-11.822402l-3.001471,6.702591Z" fill="none"/></clipPath><clipPath id="uuid-f3d53bee-e4da-46da-8fe9-8b23deb6d943"><path d="M264.823757,320.190454s2.185663,1.018179,2.914202,1.357576c2.035504.907929,5.491154-6.510048,3.486506-7.484212-.662319-.30854-2.004646-.974161-2.600731-1.251848,1.207413-3.024451-.347987-5.482048-1.624491-6.721548-1.965568-1.923213-7.812071-5.291634-8.724931-4.024177-.220504.300307-.546733.914085-.546733.914085,0,0-.246825.529855.366948.856084,0,0,5.37383,2.825806,6.173141,3.35937,1.165847.784918,1.85983,2.236688,1.432807,3.931978-.365323,1.562831-2.820881,6.141884-3.905701,7.691954-.912861,1.267453-1.931855,2.243653-3.578597,1.798936-1.236194-.374364-6.702596-3.001474-7.197067-3.151221-.644631-.259997-1.112371-.034565-1.297497.36283-.171959.282617-.277682.596087-.365718.958099-.427432,1.090563,5.198156,4.154565,9.612671,4.800461,2.922439.474755,4.898319-1.949909,5.855189-3.398367Z" fill="none"/></clipPath><clipPath id="uuid-3849dff9-2d95-4901-822a-c367762a59bf"><path d="M250.856194,318.076686c.557866-4.052501,4.940349-11.64325,7.317734-14.324197.158791-.167839.35296-.238594.533961-.194574,1.412689.255062,3.006772,1.158876,4.39352,2.248222.234083.189645.340216.480901.234492.794371-.959782,3.704058-4.159958,10.314089-7.216532,13.847408-.189647.234075-.498598.291664-.728144.265335-1.624531-.232855-3.364253-1.083598-4.322764-2.05405-.167832-.158794-.207746-.419193-.212267-.582514Z" fill="none"/></clipPath><clipPath id="uuid-c750e1ae-cffd-4c02-84a2-dc7c49e18229"><path d="M297.359741,326.480686c.313471.105728.670966.030445.842925-.252173.903804-1.594087,3.804894-6.610431,4.417861-7.493663.626121-.998001,1.504834-.54836,2.034684-.301524,18.094477,8.308356,18.313671,19.171251,18.863245,22.49027.336911,2.13177-.297857,3.407866-2.084895,4.388993-3.816805,2.050704-12.544263,7.375541-29.495513-.964485-.878713-.449641-1.095502-1.195475-.853197-1.888648.180606-.560711,2.573645-6.216756,3.296448-7.854865.123413-.264927-.031252-.5385-.247646-.679602-.596085-.277687-1.655798-.771349-2.070882-1.005015-2.141622-1.199191,1.088986-8.480177,3.442481-7.303202.463614.215979,1.324639.617079,1.854488.863913Z" fill="none"/></clipPath><clipPath id="uuid-99e5dfa1-9fc5-446e-b8fa-2e4434963093"><path d="M267.574238,320.947826s23.339965,10.631045,24.249534,11.014452c1.81911.766826,4.56963-4.964494,2.745999-5.894641-1.227562-.652454-23.994062-11.822402-23.994062-11.822402l-3.001471,6.702591Z" fill="none"/></clipPath><clipPath id="uuid-0daff075-c9a5-4ad5-a4e1-a5ce0d418669"><path d="M264.823757,320.190454s2.185663,1.018179,2.914202,1.357576c2.035504.907929,5.491154-6.510048,3.486506-7.484212-.662319-.30854-2.004646-.974161-2.600731-1.251848,1.207413-3.024451-.347987-5.482048-1.624491-6.721548-1.965568-1.923213-7.812071-5.291634-8.724931-4.024177-.220504.300307-.546733.914085-.546733.914085,0,0-.246825.529855.366948.856084,0,0,5.37383,2.825806,6.173141,3.35937,1.165847.784918,1.85983,2.236688,1.432807,3.931978-.365323,1.562831-2.820881,6.141884-3.905701,7.691954-.912861,1.267453-1.931855,2.243653-3.578597,1.798936-1.236194-.374364-6.702596-3.001474-7.197067-3.151221-.644631-.259997-1.112371-.034565-1.297497.36283-.171959.282617-.277682.596087-.365718.958099-.427432,1.090563,5.198156,4.154565,9.612671,4.800461,2.922439.474755,4.898319-1.949909,5.855189-3.398367Z" fill="none"/></clipPath><clipPath id="uuid-57877ee6-7d0c-4b00-9ee2-83ac2ff650aa"><path d="M250.856194,318.076686c.557866-4.052501,4.940349-11.64325,7.317734-14.324197.158791-.167839.35296-.238594.533961-.194574,1.412689.255062,3.006772,1.158876,4.39352,2.248222.234083.189645.340216.480901.234492.794371-.959782,3.704058-4.159958,10.314089-7.216532,13.847408-.189647.234075-.498598.291664-.728144.265335-1.624531-.232855-3.364253-1.083598-4.322764-2.05405-.167832-.158794-.207746-.419193-.212267-.582514Z" fill="none"/></clipPath></defs><path d="M109.092555,416.393678c-.156213-.368427-.306531-.736854-.453902-1.105281-1.111176-2.802991.282952-5.331874,1.526761-7.807704l1.803818-3.584058c.362532-.722117.919593-1.329284,1.603394-1.753713l5.187452-3.218578,5.125556-5.299453c.318321-.330111.725064-.562956,1.170124-.669064h0l3.48974-.842961c1.68887-.403796,2.413934-.338953,2.959206.436218,1.889295,2.682148,3.153734,4.889763,4.83671,7.563069.916646,1.456023,3.032891,4.801341,3.165524,5.022397.406743.6838.241688,1.2556.22695,2.039611-.03537,1.806765.282952,3.622374.943172,5.305348.197476.50106.424429.996226.527588,1.523813.094317.474534-.032422,3.489741-.129687,4.509547-.079579.828223-2.036663,3.920064-2.738149,4.294385-.772224.412639-6.496105,2.517093-7.760546,2.876678-1.264442.359585-6.746634-.893067-9.593838-1.329285-1.759608-.268216-3.522162-.539378-5.281769-.807591-1.526761-.232846-3.04468-.056002-3.899431-1.597499-1.005067-1.803819-1.906976-3.657744-2.708673-5.55588Z" fill="#8e8884"/><path d="M115.697714,423.544109c1.759608.268216,3.522162.539378,5.28177.807591.916646.141477,2.107403.365479,3.34237.595377-.831171-.984436-2.072033-2.151614-2.903205-3.13605-.179793-.212214-.362532-.43327-.427376-.704432-.06779-.288848.008842-.586535.088422-.872435.253478-.937278.318321-1.954136.571798-2.891414-1.570972.365479-5.190399,1.061069-5.488088.975594-.330111-.094317-.598326-.333057-.85475-.565903-1.865714-1.703606-3.324685-3.42195-4.751234-5.499877-.168003-.244636-.338953-.498114-.400848-.789908-.058948-.27411-.014737-.557061.029474-.831171.106107-.6838.3419-2.578989.530535-4.250173l-.554114,1.099386c-1.240861,2.475829-2.634989,5.004712-1.520866,7.807703.147371.371375.297689.739802.453902,1.105281.79875,1.898136,1.703607,3.752061,2.70278,5.549984.851803,1.544445,2.372669,1.367601,3.899431,1.600447Z" fill="#aea298"/><path d="M131.528285,392.581506c-.362533-.427375-1.069911-.344848-1.812661.333058l-2.670358,2.670359c-.165055.165055-.253478.392006-.23874.624852l.285897,5.452719c.008842.182739.076633.35369.194531.492218.949068,1.108228,4.303227,6.434208,5.275875,6.434208.9697,0,2.664464-3.778587,3.528057-3.757955.147371.002947.916646.050106,1.668236.280005.701484.212214.975594-.751591.831171-1.435391-.725064-1.149493-1.700658-2.690991-2.248877-3.563426-1.67708-2.661515-2.938574-4.863235-4.81313-7.530646Z" fill="#aea298"/><path d="M119.101979,403.315994c.98149-.147371,4.256068-.704432,4.872078-.94612,1.202546-.474534,2.263615-2.496461,2.9651-3.584058,0,0,.241688,3.545741,0,4.931026-.168003.963805-.801697,6.003886-1.438338,7.212326l-3.849324,6.413577c-1.886347-1.886347-3.769745-3.769745-5.656092-5.656092-.480429-.480428-.78696-.733906-.960858-1.41476-.397901-1.556235-1.120018-3.852272-1.122965-5.205136s3.643006-1.520864,5.190399-1.750763Z" fill="#aea298"/><path d="M126.255358,395.761768c-.377269-.450955-.483376-1.090544-.353689-1.662342.109055-.477481,1.099387-1.400022,1.420654-1.691817l-2.266562.548219c-.445059.109054-.851803.338953-1.170124.669063l-5.125558,5.299453s4.963448-2.069085,7.495279-3.162577Z" fill="url(#uuid-91759339-2813-4297-9e45-c571a1fa4cfe)"/><path d="M141.201703,414.003323c-.038316-.191582-.094317-.380217-.159161-.565903-.050106.173896-.159161.365479-.394953.545271-.677907.518746-3.292263,1.317495-6.168941,3.837537-1.877505,1.644659-1.88045,1.865715-2.284247,3.678374-.66022,2.968048-1.709502,4.046801-1.909926,4.229541.109055-.01179.206318-.026526.2859-.050106,1.26739-.356637,6.988322-2.46404,7.760546-2.876678.701484-.374321,2.65857-3.466162,2.738149-4.294385.100211-1.013909.22695-4.029117.132633-4.503651Z" fill="#aea298"/><path d="M109.092555,416.393678c-.156213-.368427-.306531-.736854-.453902-1.105281-1.111176-2.802991.282952-5.331874,1.526761-7.807704l1.803818-3.584058c.362532-.722117.919593-1.329284,1.603394-1.753713l5.187452-3.218578,5.125556-5.299453c.318321-.330111.725064-.562956,1.170124-.669064h0l3.48974-.842961c1.68887-.403796,2.413934-.338953,2.959206.436218,1.889295,2.682148,3.153734,4.889763,4.83671,7.563069.916646,1.456023,3.032891,4.801341,3.165524,5.022397.406743.6838.241688,1.2556.22695,2.039611-.03537,1.806765.282952,3.622374.943172,5.305348.197476.50106.424429.996226.527588,1.523813.094317.474534-.032422,3.489741-.129687,4.509547-.079579.828223-2.036663,3.920064-2.738149,4.294385-.772224.412639-6.496105,2.517093-7.760546,2.876678-1.264442.359585-6.746634-.893067-9.593838-1.329285-1.759608-.268216-3.522162-.539378-5.281769-.807591-1.526761-.232846-3.04468-.056002-3.899431-1.597499-1.005067-1.803819-1.906976-3.657744-2.708673-5.55588Z" fill="none" stroke="#000" stroke-linecap="round" stroke-linejoin="round"/><path d="M115.697714,423.544109c1.759608.268216,3.522162.539378,5.28177.807591.916646.141477,2.107403.365479,3.34237.595377-.831171-.984436-2.072033-2.151614-2.903205-3.13605-.179793-.212214-.362532-.43327-.427376-.704432-.06779-.288848.008842-.586535.088422-.872435.253478-.937278.318321-1.954136.571798-2.891414-1.570972.365479-5.190399,1.061069-5.488088.975594-.330111-.094317-.598326-.333057-.85475-.565903-1.865714-1.703606-3.324685-3.42195-4.751234-5.499877-.168003-.244636-.338953-.498114-.400848-.789908-.058948-.27411-.014737-.557061.029474-.831171.106107-.6838.3419-2.578989.530535-4.250173l-.554114,1.099386c-1.240861,2.475829-2.634989,5.004712-1.520866,7.807703.147371.371375.297689.739802.453902,1.105281.79875,1.898136,1.703607,3.752061,2.70278,5.549984.851803,1.544445,2.372669,1.367601,3.899431,1.600447Z" fill="none" stroke="#000" stroke-linecap="round" stroke-linejoin="round"/><path d="M131.528285,392.581506c-.362533-.427375-1.069911-.344848-1.812661.333058l-2.670358,2.670359c-.165055.165055-.253478.392006-.23874.624852l.285897,5.452719c.008842.182739.076633.35369.194531.492218.949068,1.108228,4.303227,6.434208,5.275875,6.434208.9697,0,2.664464-3.778587,3.528057-3.757955.147371.002947.916646.050106,1.668236.280005.701484.212214.975594-.751591.831171-1.435391-.725064-1.149493-1.700658-2.690991-2.248877-3.563426-1.67708-2.661515-2.938574-4.863235-4.81313-7.530646Z" fill="none" stroke="#000" stroke-linecap="round" stroke-linejoin="round"/><path d="M119.101979,403.315994c.98149-.147371,4.256068-.704432,4.872078-.94612,1.202546-.474534,2.263615-2.496461,2.9651-3.584058,0,0,.241688,3.545741,0,4.931026-.168003.963805-.801697,6.003886-1.438338,7.212326l-3.849324,6.413577c-1.886347-1.886347-3.769745-3.769745-5.656092-5.656092-.480429-.480428-.78696-.733906-.960858-1.41476-.397901-1.556235-1.120018-3.852272-1.122965-5.205136s3.643006-1.520864,5.190399-1.750763Z" fill="none" stroke="#000" stroke-linecap="round" stroke-linejoin="round"/><path d="M126.255358,395.761768c-.377269-.450955-.483376-1.090544-.353689-1.662342.109055-.477481,1.099387-1.400022,1.420654-1.691817l-2.266562.548219c-.445059.109054-.851803.338953-1.170124.669063l-5.125558,5.299453s4.963448-2.069085,7.495279-3.162577Z" fill="none" stroke="#000" stroke-linecap="round" stroke-linejoin="round"/><path d="M140.674115,412.47951c-.495166-1.261494-.798749-2.596673-.901908-3.94659-1.691816,1.158334-2.637936,2.661516-5.36135,3.029943-.722116.097265-1.839187.232846-2.543619.418532-.872435.229898-1.680026.875383-2.988679.996226-.931384.088423-3.280473.020632-2.926784.545271s2.461092,1.582763,2.985731,2.010137c.745696.598325,1.394129,1.302757,2.016034,2.027821.324215.380217.810539,1.302757,1.376443,1.553287.144423.064844.29769.082527.450954.03537.268216-.079579.483376-.27411.692642-.459796,2.024875-1.794977,4.315016-3.292263,6.770214-4.427017.26232-.120845.545271-.256426.674958-.515798.056002-.114949.079579-.271162.082527-.439164-.103161-.277056-.21811-.551165-.327163-.828223Z" fill="none" stroke="#000" stroke-linecap="round" stroke-linejoin="round"/><path d="M141.201703,414.003323c-.038316-.191582-.094317-.380217-.159161-.565903-.050106.173896-.159161.365479-.394953.545271-.677907.518746-3.292263,1.317495-6.168941,3.837537-1.877505,1.644659-1.88045,1.865715-2.284247,3.678374-.66022,2.968048-1.709502,4.046801-1.909926,4.229541.109055-.01179.206318-.026526.2859-.050106,1.26739-.356637,6.988322-2.46404,7.760546-2.876678.701484-.374321,2.65857-3.466162,2.738149-4.294385.100211-1.013909.22695-4.029117.132633-4.503651Z" fill="none" stroke="#000" stroke-linecap="round" stroke-linejoin="round"/><path d="M108.074826,313.373065c2.527958,41.515961,52.650413,59.77807,90.833366,73.689998,80.642729,29.382142,192.923408,16.67246,201.131026-55.267499,5.890689-51.631927-42.654648-126.522646-85.642888-155.275354-96.075919-64.26041-210.318036,71.219607-206.321504,136.852854Z" fill="#736357"/><path d="M216.231309,367.598966c23.187288,11.655022,47.928428-8.404723,66.77605-23.686112,39.806358-32.274417,66.25128-93.941475,29.80665-120.606674-26.156621-19.137848-81.034675-17.558303-109.328711-4.438207-63.235317,29.322567-23.911157,130.305404,12.74601,148.730993Z" fill="#333"/><path d="M352.411951,182.571088c-88.484242-99.249916-254.299359,20.000957-268.625014,94.62984-9.061629,47.206012,41.46532,81.894188,79.956374,108.319349,81.293494,55.810196,209.815108,73.475587,239.518672-4.748261,21.318562-56.141941-11.258605-153.792476-50.850032-198.200928ZM366.579372,360.235111c-22.897163,60.29929-121.968699,46.68196-184.63413,3.660249-29.671013-20.369953-68.619958-47.109461-61.634718-83.498596,11.042932-57.527899,138.862375-149.452987,207.07094-72.945795,30.519179,34.232469,55.631482,109.506908,39.197907,152.784142Z" fill="#c7b299"/><path d="M108.074826,313.373065c2.527958,41.515961,52.650413,59.77807,90.833366,73.689998,80.642729,29.382142,192.923408,16.67246,201.131026-55.267499,5.890689-51.631927-42.654648-126.522646-85.642888-155.275354-96.075919-64.26041-210.318036,71.219607-206.321504,136.852854Z" fill="none" stroke="#000" stroke-linecap="round" stroke-linejoin="round"/><path d="M216.231309,367.598966c23.187288,11.655022,47.928428-8.404723,66.77605-23.686112,39.806358-32.274417,66.25128-93.941475,29.80665-120.606674-26.156621-19.137848-81.034675-17.558303-109.328711-4.438207-63.235317,29.322567-23.911157,130.305404,12.74601,148.730993Z" fill="none" stroke="#000" stroke-linecap="round" stroke-linejoin="round"/><path d="M352.411951,182.571088c-88.484242-99.249916-254.299359,20.000957-268.625014,94.62984-9.061629,47.206012,41.46532,81.894188,79.956374,108.319349,81.293494,55.810196,209.815108,73.475587,239.518672-4.748261,21.318562-56.141941-11.258605-153.792476-50.850032-198.200928ZM366.579372,360.235111c-22.897163,60.29929-121.968699,46.68196-184.63413,3.660249-29.671013-20.369953-68.619958-47.109461-61.634718-83.498596,11.042932-57.527899,138.862375-149.452987,207.07094-72.945795,30.519179,34.232469,55.631482,109.506908,39.197907,152.784142Z" fill="none" stroke="#000" stroke-linecap="round" stroke-linejoin="round"/><path d="M297.359744,326.480685c.313471.105728.670959.030447.842917-.25217.903811-1.594089,3.804901-6.610433,4.417861-7.493663.626128-.998004,1.50483-.548358,2.034688-.301526,18.094477,8.308356,18.313668,19.171253,18.863249,22.490269.336903,2.131773-.297865,3.407869-2.084903,4.388995-3.816798,2.050701-12.544259,7.375539-29.495513-.964485-.878704-.449644-1.095496-1.195477-.853188-1.888651.1806-.560709,2.573636-6.216753,3.296443-7.854862.123416-.264929-.03126-.538497-.247646-.679602-.596088-.277686-1.655798-.771349-2.070878-1.005016-2.141634-1.199187,1.088982-8.480175,3.442478-7.303201.463621.215977,1.324635.617081,1.854492.863911Z" fill="#82aec0"/><g clip-path="url(#uuid-b2e9d7ea-33a7-43c5-9130-d4d703e0eb03)"><path d="M290.397019,343.589921l2.017405.254658c.344324.039495.71498-.15056.86925-.481719l4.063675-9.06925c.123416-.264929.414673-.371062.63106-.229957l1.541025.758184c.264929.123416.371062.414673.247646.679602l-4.191621,9.17086c-.30854.662319-1.049848,1.042429-1.791566.81781l-3.540739-.9643.153866-.935888ZM295.023938,325.352252c1.05971.493663,1.718321,1.848341,1.264557,3.168456-.092563.198696.044427.423721.194579.533972,2.636113,1.348933,13.215938,6.841752,13.547098,6.996022.397391.185124.648749-.181414.282211-.43277-5.277157-3.465913-7.17318-7.009141-6.674992-7.905532.714164-1.360016,2.73777-5.011821,3.390227-6.239373.092563-.198696.335278-.287141.533972-.194579,4.141756,2.010033,10.279929,5.877045,14.522433,13.294253.34473.644224.80795.255472.684127-.084329s-3.254773-8.931902-3.254773-8.931902l-17.693379-9.169372,2.548887,2.920404c.269453.286733.296188.661913.141918.993073-.899291,1.757408-3.786801,7.263706-4.514133,8.738498-.092563.198696-.286732.269451-.485429.17689-.529857-.246831-.90544-.824823-2.183166-3.878504-.349254-.80754-2.304137.014793-2.304137.014793Z" fill="#2f7889"/></g><path d="M267.574242,320.947825s23.339968,10.631043,24.249523,11.014456c1.819117.766824,4.569642-4.964498,2.746003-5.894642-1.227554-.652457-23.994053-11.822405-23.994053-11.822405l-3.001473,6.702591Z" fill="#a06841"/><g clip-path="url(#uuid-fedd4d49-94f0-4b77-802a-e2f325f10be1)"><path d="M277.626339,316.240066c-1.2428,2.92737-5.778692,5.570043-9.92416,4.60615l3.376247-7.334054,6.547913,2.727904Z" fill="#7d5133"/></g><path d="M264.82376,320.190453s2.185655,1.018182,2.914205,1.357575c2.0355.90793,5.491144-6.510044,3.486496-7.484209-.662319-.30854-2.004646-.974161-2.600735-1.251847,1.207422-3.024454-.347987-5.482048-1.624491-6.721548-1.965559-1.923216-7.812065-5.291636-8.724925-4.024179-.220502.300306-.54673.914084-.54673.914084,0,0-.246829.529856.366947.856085,0,0,5.373834,2.825805,6.173141,3.35937,1.165843.78492,1.859833,2.236686,1.432807,3.931978-.365317,1.562829-2.820875,6.141882-3.905695,7.691952-.912861,1.267453-1.931855,2.243653-3.578606,1.798939-1.236194-.374364-6.70259-3.001476-7.197067-3.151221-.644631-.259997-1.112371-.034565-1.297494.362829-.171959.282617-.277685.596088-.365723.958101-.427432,1.090563,5.198165,4.154562,9.612677,4.800459,2.92244.474754,4.898314-1.949907,5.855193-3.398368Z" fill="#82aec0"/><g clip-path="url(#uuid-f3d53bee-e4da-46da-8fe9-8b23deb6d943)"><path d="M272.604202,317.85017l-4.375831-2.19968c-.33116-.15427-.454982-.494069-.300712-.825229l.726923-2.079521,1.138293-.799712,4.388995,2.084903-1.577667,3.819239ZM249.588743,317.163824c-.44883,2.088161,7.025922,4.643293,8.619604,4.942377,1.297902.241902,2.966051-.310981,4.267254-1.71995,1.649646-1.81088,3.955459-5.895455,4.558152-8.919502.343103-1.77469-.324554-3.456004-1.397836-4.439621-1.342733-1.270349-7.176075-4.753546-8.323009-3.675736-1.146934,1.077809-7.724165,13.812432-7.724165,13.812432Z" fill="#2f7889"/></g><path d="M250.856197,318.076685c.55786-4.052498,4.940343-11.643248,7.317725-14.324194.158794-.16784.352966-.238596.533973-.194579,1.412677.255066,3.006767,1.158878,4.39352,2.248222.234073.189648.340207.480905.234481.794375-.959776,3.704056-4.159946,10.314084-7.216523,13.847404-.189647.234075-.498595.291663-.728144.265335-1.624537-.232853-3.364256-1.083597-4.322764-2.05405-.167842-.158791-.207743-.419194-.212268-.582514Z" fill="#a06841"/><g clip-path="url(#uuid-3849dff9-2d95-4901-822a-c367762a59bf)"><path d="M250.607738,316.187628c.636396,1.142818,4.120766,3.612357,7.637663,1.94588-.28963,2.525048-1.784599,4.609496-1.784599,4.609496l-7.272346-3.508709,1.419282-3.046668Z" fill="#7d5133"/></g><path d="M297.359744,326.480685c.313471.105728.670959.030447.842917-.25217.903811-1.594089,3.804901-6.610433,4.417861-7.493663.626128-.998004,1.50483-.548358,2.034688-.301526,18.094477,8.308356,18.313668,19.171253,18.863249,22.490269.336903,2.131773-.297865,3.407869-2.084903,4.388995-3.816798,2.050701-12.544259,7.375539-29.495513-.964485-.878704-.449644-1.095496-1.195477-.853188-1.888651.1806-.560709,2.573636-6.216753,3.296443-7.854862.123416-.264929-.03126-.538497-.247646-.679602-.596088-.277686-1.655798-.771349-2.070878-1.005016-2.141634-1.199187,1.088982-8.480175,3.442478-7.303201.463621.215977,1.324635.617081,1.854492.863911Z" fill="none" stroke="#000" stroke-linecap="round" stroke-linejoin="round"/><g clip-path="url(#uuid-c750e1ae-cffd-4c02-84a2-dc7c49e18229)"><path d="M290.397019,343.589921l2.017405.254658c.344324.039495.71498-.15056.86925-.481719l4.063675-9.06925c.123416-.264929.414673-.371062.63106-.229957l1.541025.758184c.264929.123416.371062.414673.247646.679602l-4.191621,9.17086c-.30854.662319-1.049848,1.042429-1.791566.81781l-3.540739-.9643.153866-.935888ZM295.023938,325.352252c1.05971.493663,1.718321,1.848341,1.264557,3.168456-.092563.198696.044427.423721.194579.533972,2.636113,1.348933,13.215938,6.841752,13.547098,6.996022.397391.185124.648749-.181414.282211-.43277-5.277157-3.465913-7.17318-7.009141-6.674992-7.905532.714164-1.360016,2.73777-5.011821,3.390227-6.239373.092563-.198696.335278-.287141.533972-.194579,4.141756,2.010033,10.279929,5.877045,14.522433,13.294253.34473.644224.80795.255472.684127-.084329s-3.254773-8.931902-3.254773-8.931902l-17.693379-9.169372,2.548887,2.920404c.269453.286733.296188.661913.141918.993073-.899291,1.757408-3.786801,7.263706-4.514133,8.738498-.092563.198696-.286732.269451-.485429.17689-.529857-.246831-.90544-.824823-2.183166-3.878504-.349254-.80754-2.304137.014793-2.304137.014793Z" fill="none" stroke="#000" stroke-linecap="round" stroke-linejoin="round"/></g><path d="M267.574242,320.947825s23.339968,10.631043,24.249523,11.014456c1.819117.766824,4.569642-4.964498,2.746003-5.894642-1.227554-.652457-23.994053-11.822405-23.994053-11.822405l-3.001473,6.702591Z" fill="none" stroke="#000" stroke-linecap="round" stroke-linejoin="round"/><g clip-path="url(#uuid-99e5dfa1-9fc5-446e-b8fa-2e4434963093)"><path d="M277.626339,316.240066c-1.2428,2.92737-5.778692,5.570043-9.92416,4.60615l3.376247-7.334054,6.547913,2.727904Z" fill="none" stroke="#000" stroke-linecap="round" stroke-linejoin="round"/></g><path d="M264.82376,320.190453s2.185655,1.018182,2.914205,1.357575c2.0355.90793,5.491144-6.510044,3.486496-7.484209-.662319-.30854-2.004646-.974161-2.600735-1.251847,1.207422-3.024454-.347987-5.482048-1.624491-6.721548-1.965559-1.923216-7.812065-5.291636-8.724925-4.024179-.220502.300306-.54673.914084-.54673.914084,0,0-.246829.529856.366947.856085,0,0,5.373834,2.825805,6.173141,3.35937,1.165843.78492,1.859833,2.236686,1.432807,3.931978-.365317,1.562829-2.820875,6.141882-3.905695,7.691952-.912861,1.267453-1.931855,2.243653-3.578606,1.798939-1.236194-.374364-6.70259-3.001476-7.197067-3.151221-.644631-.259997-1.112371-.034565-1.297494.362829-.171959.282617-.277685.596088-.365723.958101-.427432,1.090563,5.198165,4.154562,9.612677,4.800459,2.92244.474754,4.898314-1.949907,5.855193-3.398368Z" fill="none" stroke="#000" stroke-linecap="round" stroke-linejoin="round"/><g clip-path="url(#uuid-0daff075-c9a5-4ad5-a4e1-a5ce0d418669)"><path d="M272.604202,317.85017l-4.375831-2.19968c-.33116-.15427-.454982-.494069-.300712-.825229l.726923-2.079521,1.138293-.799712,4.388995,2.084903-1.577667,3.819239ZM249.588743,317.163824c-.44883,2.088161,7.025922,4.643293,8.619604,4.942377,1.297902.241902,2.966051-.310981,4.267254-1.71995,1.649646-1.81088,3.955459-5.895455,4.558152-8.919502.343103-1.77469-.324554-3.456004-1.397836-4.439621-1.342733-1.270349-7.176075-4.753546-8.323009-3.675736-1.146934,1.077809-7.724165,13.812432-7.724165,13.812432Z" fill="none" stroke="#000" stroke-linecap="round" stroke-linejoin="round"/></g><path d="M250.856197,318.076685c.55786-4.052498,4.940343-11.643248,7.317725-14.324194.158794-.16784.352966-.238596.533973-.194579,1.412677.255066,3.006767,1.158878,4.39352,2.248222.234073.189648.340207.480905.234481.794375-.959776,3.704056-4.159946,10.314084-7.216523,13.847404-.189647.234075-.498595.291663-.728144.265335-1.624537-.232853-3.364256-1.083597-4.322764-2.05405-.167842-.158791-.207743-.419194-.212268-.582514Z" fill="none" stroke="#000" stroke-linecap="round" stroke-linejoin="round"/><g clip-path="url(#uuid-57877ee6-7d0c-4b00-9ee2-83ac2ff650aa)"><path d="M250.607738,316.187628c.636396,1.142818,4.120766,3.612357,7.637663,1.94588-.28963,2.525048-1.784599,4.609496-1.784599,4.609496l-7.272346-3.508709,1.419282-3.046668Z" fill="none" stroke="#000" stroke-linecap="round" stroke-linejoin="round"/></g><g id="uuid-ad6b81d1-64f5-47c3-af2d-ab2d4ec7a90b"><polygon id="uuid-0420d85d-ff9b-425d-b171-cf2422660fd6" points="259.237011 344.883019 247.757391 347.628442 252.654299 368.104215 253.640439 372.227628 270.85987 368.109495 269.879362 364.00963 264.139551 365.382342 259.237011 344.883019" fill="#5f5f5f"/><rect id="uuid-a1b1e796-2275-4797-9f47-d014735f0303" x="236.892378" y="325.691193" width="15.175745" height="29.508371" transform="translate(-172.281252 295.908899) rotate(-48.217496)" fill="#727272"/><polygon id="uuid-d1985490-e301-4152-9112-5c7921a29b31" points="219.999982 366 208 366 208 387 202 387 202 391 220 391 220 386.8094 219.999982 386.8094 219.999982 366" fill="#5f5f5f"/><rect id="uuid-4e1e5b73-040f-4f9e-9a8e-911dc88138ca" x="206.999989" y="336" width="15.000023" height="30" fill="#727272"/><path id="uuid-3de855a3-bafb-4cde-9c11-ee435f772ce6" d="M206,277v60h34v-60h-34Z" fill="#727272"/><rect id="uuid-2c97d5f9-0970-46a9-9f2e-ab430c1afd3c" x="206" y="311" width="34" height="10" fill="#acacac"/><rect id="uuid-b3927ab8-466f-4b07-9ae7-388a38097a32" x="230" y="276" width="4" height="35" fill="#acacac"/><rect id="uuid-f03a7d9c-50b3-407c-8aca-4f5cf656e7a7" x="213" y="276" width="4" height="35" fill="#acacac"/><path id="uuid-b6a3c388-a625-470f-ae0a-7b2e4f371e00" d="M239.674679,266.537252c.851384-3.32197,1.140932-6.993216.733268-10.804072-1.407643-13.158691-10.549193-22.970099-20.418221-21.914365s-16.728332,12.578823-15.320689,25.737514c.407664,3.810856,1.467232,7.337781,3.002041,10.40449l32.0036-3.423566Z" fill="#ccc"/><path id="uuid-2a85f804-fd61-47f0-b24a-9cd021255dfb" d="M208.105688,273c3.190389,6.672843,8.785888,11.102551,15.160853,11.102551s11.970464-4.429708,15.160853-11.102551h-30.321706Z" fill="#ccc"/><ellipse id="uuid-f8c2110d-4206-49ab-b634-8b10b4fbabb0" cx="235.5" cy="261.5" rx="1.49078" ry="2.505269" transform="translate(-20.521322 20.055218) rotate(-4.673011)" fill="#333"/><ellipse id="uuid-0eedebac-cf0a-4f58-8ab6-b1ec72bf4d9f" cx="225.5" cy="262.5" rx="1.49078" ry="2.505269" transform="translate(-20.636032 19.243852) rotate(-4.673011)" fill="#333"/><rect id="uuid-af2c69b2-3701-4d30-8b7b-21f211823517" x="247.796293" y="289.06735" width="8.985688" height="19.1695" transform="translate(-60.443233 64.043169) rotate(-12.933346)" fill="#727272"/><rect id="uuid-d595aaa7-91dc-4c8a-ab10-6273958a369f" x="240.309588" y="276.656981" width="8.985688" height="19.1695" transform="translate(-130.568984 317.207183) rotate(-54.177769)" fill="#727272"/><rect id="uuid-2a4fdaca-f7dc-4c54-aca4-6b8963dad298" x="191.903909" y="281.588887" width="19.1695" height="8.985688" transform="translate(-93.110768 474.89808) rotate(-87.499645)" fill="#727272"/><rect id="uuid-20c69328-670a-4d7d-a47e-7804d470ba6c" x="191.067645" y="300.74014" width="19.1695" height="8.985688" transform="translate(-113.04357 492.37838) rotate(-87.499645)" fill="#727272"/><rect id="uuid-e3cc1313-dda8-4717-bb4e-e3452f47f815" x="249.746979" y="305.049268" width="9.584751" height="9.584751" transform="translate(-46.072851 44.46563) rotate(-9.158816)" fill="#ccc"/><rect id="uuid-2bbe6e49-9cd3-404d-93e0-3ffdfc6abda6" x="195.232821" y="314.804048" width="9.584751" height="9.584751" transform="translate(-127.993012 505.488886) rotate(-87.499694)" fill="#ccc"/><circle id="uuid-9d5c4080-1178-4575-b1d6-83a1762934c4" cx="222.5" cy="305.5" r="1.5" fill="#333"/><circle id="uuid-de5a625b-5fc9-4d17-aa8b-31e1150f22a4" cx="222.5" cy="299.5" r="1.5" fill="#333"/><circle id="uuid-e76e27c0-15f2-4d66-9afb-9fd54089fda7" cx="222.5" cy="294.5" r="1.5" fill="#333"/><circle id="uuid-d6cd2bc7-3038-4559-9b19-7c71f7a8035f" cx="222.5" cy="289.5" r="1.5" fill="#333"/><path d="M241.042918,241.787591c-1.965655-8.202832-11.188874-13.769551-21.5551-12.66063-10.366225,1.108921-18.203223,8.500647-18.389269,16.933655-3.411918.866074-5.420393,1.714815-5.347414,2.397026.171424,1.602478,11.732778,1.679629,25.823006.172335,14.090228-1.507294,25.373651-4.028252,25.202227-5.630729-.072979-.682211-2.215539-1.086898-5.733451-1.211657Z" fill="#6a6a6a"/><polygon id="uuid-782345a5-f66a-4496-98d8-872485ffa203" points="259.237011 344.883019 247.757391 347.628442 252.654299 368.104215 253.640439 372.227628 270.85987 368.109495 269.879362 364.00963 264.139551 365.382342 259.237011 344.883019" fill="none" stroke="#000" stroke-linecap="round" stroke-linejoin="round"/><rect id="uuid-dd6bc130-fa86-4df7-bdf9-17f80cd9c700" x="236.892378" y="325.691193" width="15.175745" height="29.508371" transform="translate(-172.281252 295.908899) rotate(-48.217496)" fill="none" stroke="#000" stroke-linecap="round" stroke-linejoin="round"/><polygon id="uuid-5482548d-e822-4587-bcf6-e9099ba57c12" points="219.999982 366 208 366 208 387 202 387 202 391 220 391 220 386.8094 219.999982 386.8094 219.999982 366" fill="none" stroke="#000" stroke-linecap="round" stroke-linejoin="round"/><rect id="uuid-46cb3ed6-ffbd-4fba-a68e-ec269ec4e070" x="206.999989" y="336" width="15.000023" height="30" fill="none" stroke="#000" stroke-linecap="round" stroke-linejoin="round"/><path id="uuid-e982ff90-6908-4e8d-b118-cb29b7f5179d" d="M206,277v60h34v-60h-34Z" fill="none" stroke="#000" stroke-linecap="round" stroke-linejoin="round"/><rect id="uuid-0a8d62e3-682c-42f4-a06a-faefc2ca6860" x="206" y="311" width="34" height="10" fill="none" stroke="#000" stroke-linecap="round" stroke-linejoin="round"/><rect id="uuid-89ae8bb7-bda2-4799-bd5b-97f49aa0d896" x="230" y="276" width="4" height="35" fill="none" stroke="#000" stroke-linecap="round" stroke-linejoin="round"/><rect id="uuid-33b0cb9a-7468-412d-a1c7-2c6047d95632" x="213" y="276" width="4" height="35" fill="none" stroke="#000" stroke-linecap="round" stroke-linejoin="round"/><path id="uuid-8b143b5d-1706-4f74-9e59-8deb911356dd" d="M239.674679,266.537252c.851384-3.32197,1.140932-6.993216.733268-10.804072-1.407643-13.158691-10.549193-22.970099-20.418221-21.914365s-16.728332,12.578823-15.320689,25.737514c.407664,3.810856,1.467232,7.337781,3.002041,10.40449l32.0036-3.423566Z" fill="none" stroke="#000" stroke-linecap="round" stroke-linejoin="round"/><path id="uuid-99b23e1b-0d1e-4b1b-9eed-a646fa46ea64" d="M208.105688,273c3.190389,6.672843,8.785888,11.102551,15.160853,11.102551s11.970464-4.429708,15.160853-11.102551h-30.321706Z" fill="none" stroke="#000" stroke-linecap="round" stroke-linejoin="round"/><ellipse id="uuid-94547335-8c86-474f-98d2-f4ec0e9d1211" cx="235.5" cy="261.5" rx="1.49078" ry="2.505269" transform="translate(-20.521322 20.055218) rotate(-4.673011)" fill="none" stroke="#000" stroke-linecap="round" stroke-linejoin="round"/><ellipse id="uuid-5a5c56a1-aaf0-474a-90c8-760f51e21822" cx="225.5" cy="262.5" rx="1.49078" ry="2.505269" transform="translate(-20.636032 19.243852) rotate(-4.673011)" fill="none" stroke="#000" stroke-linecap="round" stroke-linejoin="round"/><rect id="uuid-e2f00aee-870b-4132-8125-207db810e851" x="247.796293" y="289.06735" width="8.985688" height="19.1695" transform="translate(-60.443233 64.043169) rotate(-12.933346)" fill="none" stroke="#000" stroke-linecap="round" stroke-linejoin="round"/><rect id="uuid-2ce78759-2e50-4d9b-bdaa-77980a72d586" x="240.309588" y="276.656981" width="8.985688" height="19.1695" transform="translate(-130.568984 317.207183) rotate(-54.177769)" fill="none" stroke="#000" stroke-linecap="round" stroke-linejoin="round"/><rect id="uuid-4d654ebb-3b3b-4b61-a425-a37405aa9835" x="191.903909" y="281.588887" width="19.1695" height="8.985688" transform="translate(-93.110768 474.89808) rotate(-87.499645)" fill="none" stroke="#000" stroke-linecap="round" stroke-linejoin="round"/><rect id="uuid-1caf960d-869e-4253-adfb-58ef12883bbd" x="191.067645" y="300.74014" width="19.1695" height="8.985688" transform="translate(-113.04357 492.37838) rotate(-87.499645)" fill="none" stroke="#000" stroke-linecap="round" stroke-linejoin="round"/><rect id="uuid-aef8747b-5a57-46be-89b3-0c65bcda5a65" x="249.746979" y="305.049268" width="9.584751" height="9.584751" transform="translate(-46.072851 44.46563) rotate(-9.158816)" fill="none" stroke="#000" stroke-linecap="round" stroke-linejoin="round"/><rect id="uuid-4c67ddaa-fc74-43b2-a0dd-c34aa814c2eb" x="195.232821" y="314.804048" width="9.584751" height="9.584751" transform="translate(-127.993012 505.488886) rotate(-87.499694)" fill="none" stroke="#000" stroke-linecap="round" stroke-linejoin="round"/><circle id="uuid-e8ed260c-a5c2-4431-96de-3c5586970ee1" cx="222.5" cy="305.5" r="1.5" fill="none" stroke="#000" stroke-linecap="round" stroke-linejoin="round"/><circle id="uuid-c75af2c4-dffb-4a7c-ba91-8700987791b9" cx="222.5" cy="299.5" r="1.5" fill="none" stroke="#000" stroke-linecap="round" stroke-linejoin="round"/><circle id="uuid-6d276b20-4438-4384-b01a-ffd516a734da" cx="222.5" cy="294.5" r="1.5" fill="none" stroke="#000" stroke-linecap="round" stroke-linejoin="round"/><circle id="uuid-d5e0ed77-ccac-4367-b040-0c08dd673b37" cx="222.5" cy="289.5" r="1.5" fill="none" stroke="#000" stroke-linecap="round" stroke-linejoin="round"/><path d="M241.042918,241.787591c-1.965655-8.202832-11.188874-13.769551-21.5551-12.66063-10.366225,1.108921-18.203223,8.500647-18.389269,16.933655-3.411918.866074-5.420393,1.714815-5.347414,2.397026.171424,1.602478,11.732778,1.679629,25.823006.172335,14.090228-1.507294,25.373651-4.028252,25.202227-5.630729-.072979-.682211-2.215539-1.086898-5.733451-1.211657Z" fill="none" stroke="#000" stroke-linecap="round" stroke-linejoin="round"/></g><text transform="translate(54.6371 86.514854)" fill="#333" font-family="ComicNeue-Regular, &apos;Comic Neue&apos;" font-size="24"><tspan x="0" y="0">They dug tunnels for surprise attacks.</tspan></text></svg>