<?xml version="1.0" encoding="UTF-8"?><svg id="uuid-8a244f90-53cf-4021-8d28-97a00d74f446" xmlns="http://www.w3.org/2000/svg" xmlns:xlink="http://www.w3.org/1999/xlink" viewBox="0 0 500 500"><defs><linearGradient id="uuid-c42b31d8-020e-43c6-9910-056a0181ff01" x1="118.76" y1="-1453.67" x2="127.32" y2="-1453.67" gradientTransform="translate(0 -1058) scale(1 -1)" gradientUnits="userSpaceOnUse"><stop offset="0" stop-color="#4c5c64"/><stop offset="1" stop-color="#8e8884" stop-opacity="0"/></linearGradient><clipPath id="uuid-4dce65c1-57a2-42cb-bf80-31ea974a3931"><path d="M297.36,326.48c.31.11.67.03.84-.25.9-1.59,3.8-6.61,4.42-7.49.63-1,1.5-.55,2.03-.3,18.09,8.31,18.31,19.17,18.86,22.49.34,2.13-.3,3.41-2.08,4.39-3.82,2.05-12.54,7.38-29.5-.96-.88-.45-1.1-1.2-.85-1.89.18-.56,2.57-6.22,3.3-7.85.12-.26-.03-.54-.25-.68-.6-.28-1.66-.77-2.07-1.01-2.14-1.2,1.09-8.48,3.44-7.3.46.22,1.32.62,1.85.86Z" fill="none"/></clipPath><clipPath id="uuid-5185664b-b7db-4b68-ad7c-71191687fcfd"><path d="M267.57,320.95s23.34,10.63,24.25,11.01c1.82.77,4.57-4.96,2.75-5.89-1.23-.65-23.99-11.82-23.99-11.82l-3,6.7Z" fill="none"/></clipPath><clipPath id="uuid-2d3cf637-8d91-425c-ab4d-073e59c137b5"><path d="M264.82,320.19s2.19,1.02,2.91,1.36c2.04.91,5.49-6.51,3.49-7.48-.66-.31-2-.97-2.6-1.25,1.21-3.02-.35-5.48-1.62-6.72-1.97-1.92-7.81-5.29-8.72-4.02-.22.3-.55.91-.55.91,0,0-.25.53.37.86,0,0,5.37,2.83,6.17,3.36,1.17.78,1.86,2.24,1.43,3.93-.37,1.56-2.82,6.14-3.91,7.69-.91,1.27-1.93,2.24-3.58,1.8-1.24-.37-6.7-3-7.2-3.15-.64-.26-1.11-.03-1.3.36-.17.28-.28.6-.37.96-.43,1.09,5.2,4.15,9.61,4.8,2.92.47,4.9-1.95,5.86-3.4Z" fill="none"/></clipPath><clipPath id="uuid-51b8c5f4-ceaa-4738-91c7-ff1cbfe13103"><path d="M250.86,318.08c.56-4.05,4.94-11.64,7.32-14.32.16-.17.35-.24.53-.19,1.41.26,3.01,1.16,4.39,2.25.23.19.34.48.23.79-.96,3.7-4.16,10.31-7.22,13.85-.19.23-.5.29-.73.27-1.62-.23-3.36-1.08-4.32-2.05-.17-.16-.21-.42-.21-.58Z" fill="none"/></clipPath><clipPath id="uuid-354ce8f9-5d4a-4669-bbf7-fb7e55d92734"><path d="M297.36,326.48c.31.11.67.03.84-.25.9-1.59,3.8-6.61,4.42-7.49.63-1,1.5-.55,2.03-.3,18.09,8.31,18.31,19.17,18.86,22.49.34,2.13-.3,3.41-2.08,4.39-3.82,2.05-12.54,7.38-29.5-.96-.88-.45-1.1-1.2-.85-1.89.18-.56,2.57-6.22,3.3-7.85.12-.26-.03-.54-.25-.68-.6-.28-1.66-.77-2.07-1.01-2.14-1.2,1.09-8.48,3.44-7.3.46.22,1.32.62,1.85.86Z" fill="none"/></clipPath><clipPath id="uuid-193f512b-57a3-42de-91e5-29ae630c43c9"><path d="M267.57,320.95s23.34,10.63,24.25,11.01c1.82.77,4.57-4.96,2.75-5.89-1.23-.65-23.99-11.82-23.99-11.82l-3,6.7Z" fill="none"/></clipPath><clipPath id="uuid-42ff0233-2e5b-4a84-a958-305e8ac24016"><path d="M264.82,320.19s2.19,1.02,2.91,1.36c2.04.91,5.49-6.51,3.49-7.48-.66-.31-2-.97-2.6-1.25,1.21-3.02-.35-5.48-1.62-6.72-1.97-1.92-7.81-5.29-8.72-4.02-.22.3-.55.91-.55.91,0,0-.25.53.37.86,0,0,5.37,2.83,6.17,3.36,1.17.78,1.86,2.24,1.43,3.93-.37,1.56-2.82,6.14-3.91,7.69-.91,1.27-1.93,2.24-3.58,1.8-1.24-.37-6.7-3-7.2-3.15-.64-.26-1.11-.03-1.3.36-.17.28-.28.6-.37.96-.43,1.09,5.2,4.15,9.61,4.8,2.92.47,4.9-1.95,5.86-3.4Z" fill="none"/></clipPath><clipPath id="uuid-57cf5165-c3dd-4b6d-91a3-6705691cbbed"><path d="M250.86,318.08c.56-4.05,4.94-11.64,7.32-14.32.16-.17.35-.24.53-.19,1.41.26,3.01,1.16,4.39,2.25.23.19.34.48.23.79-.96,3.7-4.16,10.31-7.22,13.85-.19.23-.5.29-.73.27-1.62-.23-3.36-1.08-4.32-2.05-.17-.16-.21-.42-.21-.58Z" fill="none"/></clipPath></defs><path d="M109.09,416.39c-.16-.37-.31-.74-.45-1.11-1.11-2.8.28-5.33,1.53-7.81l1.8-3.58c.36-.72.92-1.33,1.6-1.75l5.19-3.22,5.13-5.3c.32-.33.73-.56,1.17-.67h0l3.49-.84c1.69-.4,2.41-.34,2.96.44,1.89,2.68,3.15,4.89,4.84,7.56.92,1.46,3.03,4.8,3.17,5.02.41.68.24,1.26.23,2.04-.04,1.81.28,3.62.94,5.31.2.5.42,1,.53,1.52.09.47-.03,3.49-.13,4.51-.08.83-2.04,3.92-2.74,4.29-.77.41-6.5,2.52-7.76,2.88-1.26.36-6.75-.89-9.59-1.33-1.76-.27-3.52-.54-5.28-.81-1.53-.23-3.04-.06-3.9-1.6-1.01-1.8-1.91-3.66-2.71-5.56Z" fill="#8e8884"/><path d="M115.7,423.54c1.76.27,3.52.54,5.28.81.92.14,2.11.37,3.34.6-.83-.98-2.07-2.15-2.9-3.14-.18-.21-.36-.43-.43-.7-.07-.29,0-.59.09-.87.25-.94.32-1.95.57-2.89-1.57.37-5.19,1.06-5.49.98-.33-.09-.6-.33-.85-.57-1.87-1.7-3.32-3.42-4.75-5.5-.17-.24-.34-.5-.4-.79-.06-.27-.01-.56.03-.83.11-.68.34-2.58.53-4.25l-.55,1.1c-1.24,2.48-2.63,5-1.52,7.81.15.37.3.74.45,1.11.8,1.9,1.7,3.75,2.7,5.55.85,1.54,2.37,1.37,3.9,1.6Z" fill="#aea298"/><path d="M131.53,392.58c-.36-.43-1.07-.34-1.81.33l-2.67,2.67c-.17.17-.25.39-.24.62l.29,5.45c0,.18.08.35.19.49.95,1.11,4.3,6.43,5.28,6.43s2.66-3.78,3.53-3.76c.15,0,.92.05,1.67.28.7.21.98-.75.83-1.44-.73-1.15-1.7-2.69-2.25-3.56-1.68-2.66-2.94-4.86-4.81-7.53Z" fill="#aea298"/><path d="M119.1,403.32c.98-.15,4.26-.7,4.87-.95,1.2-.47,2.26-2.5,2.97-3.58,0,0,.24,3.55,0,4.93-.17.96-.8,6-1.44,7.21l-3.85,6.41c-1.89-1.89-3.77-3.77-5.66-5.66-.48-.48-.79-.73-.96-1.41-.4-1.56-1.12-3.85-1.12-5.21s3.64-1.52,5.19-1.75Z" fill="#aea298"/><path d="M126.26,395.76c-.38-.45-.48-1.09-.35-1.66.11-.48,1.1-1.4,1.42-1.69l-2.27.55c-.45.11-.85.34-1.17.67l-5.13,5.3s4.96-2.07,7.5-3.16Z" fill="url(#uuid-c42b31d8-020e-43c6-9910-056a0181ff01)"/><path d="M141.2,414c-.04-.19-.09-.38-.16-.57-.05.17-.16.37-.39.55-.68.52-3.29,1.32-6.17,3.84-1.88,1.64-1.88,1.87-2.28,3.68-.66,2.97-1.71,4.05-1.91,4.23.11-.01.21-.03.29-.05,1.27-.36,6.99-2.46,7.76-2.88.7-.37,2.66-3.47,2.74-4.29.1-1.01.23-4.03.13-4.5Z" fill="#aea298"/><path d="M109.09,416.39c-.16-.37-.31-.74-.45-1.11-1.11-2.8.28-5.33,1.53-7.81l1.8-3.58c.36-.72.92-1.33,1.6-1.75l5.19-3.22,5.13-5.3c.32-.33.73-.56,1.17-.67h0l3.49-.84c1.69-.4,2.41-.34,2.96.44,1.89,2.68,3.15,4.89,4.84,7.56.92,1.46,3.03,4.8,3.17,5.02.41.68.24,1.26.23,2.04-.04,1.81.28,3.62.94,5.31.2.5.42,1,.53,1.52.09.47-.03,3.49-.13,4.51-.08.83-2.04,3.92-2.74,4.29-.77.41-6.5,2.52-7.76,2.88-1.26.36-6.75-.89-9.59-1.33-1.76-.27-3.52-.54-5.28-.81-1.53-.23-3.04-.06-3.9-1.6-1.01-1.8-1.91-3.66-2.71-5.56Z" fill="none" stroke="#000" stroke-linecap="round" stroke-linejoin="round"/><path d="M115.7,423.54c1.76.27,3.52.54,5.28.81.92.14,2.11.37,3.34.6-.83-.98-2.07-2.15-2.9-3.14-.18-.21-.36-.43-.43-.7-.07-.29,0-.59.09-.87.25-.94.32-1.95.57-2.89-1.57.37-5.19,1.06-5.49.98-.33-.09-.6-.33-.85-.57-1.87-1.7-3.32-3.42-4.75-5.5-.17-.24-.34-.5-.4-.79-.06-.27-.01-.56.03-.83.11-.68.34-2.58.53-4.25l-.55,1.1c-1.24,2.48-2.63,5-1.52,7.81.15.37.3.74.45,1.11.8,1.9,1.7,3.75,2.7,5.55.85,1.54,2.37,1.37,3.9,1.6Z" fill="none" stroke="#000" stroke-linecap="round" stroke-linejoin="round"/><path d="M131.53,392.58c-.36-.43-1.07-.34-1.81.33l-2.67,2.67c-.17.17-.25.39-.24.62l.29,5.45c0,.18.08.35.19.49.95,1.11,4.3,6.43,5.28,6.43s2.66-3.78,3.53-3.76c.15,0,.92.05,1.67.28.7.21.98-.75.83-1.44-.73-1.15-1.7-2.69-2.25-3.56-1.68-2.66-2.94-4.86-4.81-7.53Z" fill="none" stroke="#000" stroke-linecap="round" stroke-linejoin="round"/><path d="M119.1,403.32c.98-.15,4.26-.7,4.87-.95,1.2-.47,2.26-2.5,2.97-3.58,0,0,.24,3.55,0,4.93-.17.96-.8,6-1.44,7.21l-3.85,6.41c-1.89-1.89-3.77-3.77-5.66-5.66-.48-.48-.79-.73-.96-1.41-.4-1.56-1.12-3.85-1.12-5.21s3.64-1.52,5.19-1.75Z" fill="none" stroke="#000" stroke-linecap="round" stroke-linejoin="round"/><path d="M126.26,395.76c-.38-.45-.48-1.09-.35-1.66.11-.48,1.1-1.4,1.42-1.69l-2.27.55c-.45.11-.85.34-1.17.67l-5.13,5.3s4.96-2.07,7.5-3.16Z" fill="none" stroke="#000" stroke-linecap="round" stroke-linejoin="round"/><path d="M140.67,412.48c-.5-1.26-.8-2.6-.9-3.95-1.69,1.16-2.64,2.66-5.36,3.03-.72.1-1.84.23-2.54.42-.87.23-1.68.88-2.99,1-.93.09-3.28.02-2.93.55s2.46,1.58,2.99,2.01c.75.6,1.39,1.3,2.02,2.03.32.38.81,1.3,1.38,1.55.14.06.3.08.45.04.27-.08.48-.27.69-.46,2.02-1.79,4.32-3.29,6.77-4.43.26-.12.55-.26.67-.52.06-.11.08-.27.08-.44-.1-.28-.22-.55-.33-.83Z" fill="none" stroke="#000" stroke-linecap="round" stroke-linejoin="round"/><path d="M141.2,414c-.04-.19-.09-.38-.16-.57-.05.17-.16.37-.39.55-.68.52-3.29,1.32-6.17,3.84-1.88,1.64-1.88,1.87-2.28,3.68-.66,2.97-1.71,4.05-1.91,4.23.11-.01.21-.03.29-.05,1.27-.36,6.99-2.46,7.76-2.88.7-.37,2.66-3.47,2.74-4.29.1-1.01.23-4.03.13-4.5Z" fill="none" stroke="#000" stroke-linecap="round" stroke-linejoin="round"/><path d="M108.07,313.37c2.53,41.52,52.65,59.78,90.83,73.69,80.64,29.38,192.92,16.67,201.13-55.27,5.89-51.63-42.65-126.52-85.64-155.28-96.08-64.26-210.32,71.22-206.32,136.85Z" fill="#736357"/><path d="M216.23,367.6c23.19,11.66,47.93-8.4,66.78-23.69,39.81-32.27,66.25-93.94,29.81-120.61-26.16-19.14-81.03-17.56-109.33-4.44-63.24,29.32-23.91,130.31,12.75,148.73Z" fill="#333"/><path d="M352.41,182.57c-88.48-99.25-254.3,20-268.63,94.63-9.06,47.21,41.47,81.89,79.96,108.32,81.29,55.81,209.82,73.48,239.52-4.75,21.32-56.14-11.26-153.79-50.85-198.2ZM366.58,360.24c-22.9,60.3-121.97,46.68-184.63,3.66-29.67-20.37-68.62-47.11-61.63-83.5,11.04-57.53,138.86-149.45,207.07-72.95,30.52,34.23,55.63,109.51,39.2,152.78Z" fill="#c7b299"/><path d="M108.07,313.37c2.53,41.52,52.65,59.78,90.83,73.69,80.64,29.38,192.92,16.67,201.13-55.27,5.89-51.63-42.65-126.52-85.64-155.28-96.08-64.26-210.32,71.22-206.32,136.85Z" fill="none" stroke="#000" stroke-linecap="round" stroke-linejoin="round"/><path d="M216.23,367.6c23.19,11.66,47.93-8.4,66.78-23.69,39.81-32.27,66.25-93.94,29.81-120.61-26.16-19.14-81.03-17.56-109.33-4.44-63.24,29.32-23.91,130.31,12.75,148.73Z" fill="none" stroke="#000" stroke-linecap="round" stroke-linejoin="round"/><path d="M352.41,182.57c-88.48-99.25-254.3,20-268.63,94.63-9.06,47.21,41.47,81.89,79.96,108.32,81.29,55.81,209.82,73.48,239.52-4.75,21.32-56.14-11.26-153.79-50.85-198.2ZM366.58,360.24c-22.9,60.3-121.97,46.68-184.63,3.66-29.67-20.37-68.62-47.11-61.63-83.5,11.04-57.53,138.86-149.45,207.07-72.95,30.52,34.23,55.63,109.51,39.2,152.78Z" fill="none" stroke="#000" stroke-linecap="round" stroke-linejoin="round"/><path d="M297.36,326.48c.31.11.67.03.84-.25.9-1.59,3.8-6.61,4.42-7.49.63-1,1.5-.55,2.03-.3,18.09,8.31,18.31,19.17,18.86,22.49.34,2.13-.3,3.41-2.08,4.39-3.82,2.05-12.54,7.38-29.5-.96-.88-.45-1.1-1.2-.85-1.89.18-.56,2.57-6.22,3.3-7.85.12-.26-.03-.54-.25-.68-.6-.28-1.66-.77-2.07-1.01-2.14-1.2,1.09-8.48,3.44-7.3.46.22,1.32.62,1.85.86Z" fill="#82aec0"/><g clip-path="url(#uuid-4dce65c1-57a2-42cb-bf80-31ea974a3931)"><path d="M290.4,343.59l2.02.25c.34.04.71-.15.87-.48l4.06-9.07c.12-.26.41-.37.63-.23l1.54.76c.26.12.37.41.25.68l-4.19,9.17c-.31.66-1.05,1.04-1.79.82l-3.54-.96.15-.94ZM295.02,325.35c1.06.49,1.72,1.85,1.26,3.17-.09.2.04.42.19.53,2.64,1.35,13.22,6.84,13.55,7,.4.19.65-.18.28-.43-5.28-3.47-7.17-7.01-6.67-7.91.71-1.36,2.74-5.01,3.39-6.24.09-.2.34-.29.53-.19,4.14,2.01,10.28,5.88,14.52,13.29.34.64.81.26.68-.08s-3.25-8.93-3.25-8.93l-17.69-9.17,2.55,2.92c.27.29.3.66.14.99-.9,1.76-3.79,7.26-4.51,8.74-.09.2-.29.27-.49.18-.53-.25-.91-.82-2.18-3.88-.35-.81-2.3.01-2.3.01Z" fill="#2f7889"/></g><path d="M267.57,320.95s23.34,10.63,24.25,11.01c1.82.77,4.57-4.96,2.75-5.89-1.23-.65-23.99-11.82-23.99-11.82l-3,6.7Z" fill="#a06841"/><g clip-path="url(#uuid-5185664b-b7db-4b68-ad7c-71191687fcfd)"><path d="M277.63,316.24c-1.24,2.93-5.78,5.57-9.92,4.61l3.38-7.33,6.55,2.73Z" fill="#7d5133"/></g><path d="M264.82,320.19s2.19,1.02,2.91,1.36c2.04.91,5.49-6.51,3.49-7.48-.66-.31-2-.97-2.6-1.25,1.21-3.02-.35-5.48-1.62-6.72-1.97-1.92-7.81-5.29-8.72-4.02-.22.3-.55.91-.55.91,0,0-.25.53.37.86,0,0,5.37,2.83,6.17,3.36,1.17.78,1.86,2.24,1.43,3.93-.37,1.56-2.82,6.14-3.91,7.69-.91,1.27-1.93,2.24-3.58,1.8-1.24-.37-6.7-3-7.2-3.15-.64-.26-1.11-.03-1.3.36-.17.28-.28.6-.37.96-.43,1.09,5.2,4.15,9.61,4.8,2.92.47,4.9-1.95,5.86-3.4Z" fill="#82aec0"/><g clip-path="url(#uuid-2d3cf637-8d91-425c-ab4d-073e59c137b5)"><path d="M272.6,317.85l-4.38-2.2c-.33-.15-.45-.49-.3-.83l.73-2.08,1.14-.8,4.39,2.08-1.58,3.82ZM249.59,317.16c-.45,2.09,7.03,4.64,8.62,4.94,1.3.24,2.97-.31,4.27-1.72,1.65-1.81,3.96-5.9,4.56-8.92.34-1.77-.32-3.46-1.4-4.44-1.34-1.27-7.18-4.75-8.32-3.68-1.15,1.08-7.72,13.81-7.72,13.81Z" fill="#2f7889"/></g><path d="M250.86,318.08c.56-4.05,4.94-11.64,7.32-14.32.16-.17.35-.24.53-.19,1.41.26,3.01,1.16,4.39,2.25.23.19.34.48.23.79-.96,3.7-4.16,10.31-7.22,13.85-.19.23-.5.29-.73.27-1.62-.23-3.36-1.08-4.32-2.05-.17-.16-.21-.42-.21-.58Z" fill="#a06841"/><g clip-path="url(#uuid-51b8c5f4-ceaa-4738-91c7-ff1cbfe13103)"><path d="M250.61,316.19c.64,1.14,4.12,3.61,7.64,1.95-.29,2.53-1.78,4.61-1.78,4.61l-7.27-3.51,1.42-3.05Z" fill="#7d5133"/></g><path d="M297.36,326.48c.31.11.67.03.84-.25.9-1.59,3.8-6.61,4.42-7.49.63-1,1.5-.55,2.03-.3,18.09,8.31,18.31,19.17,18.86,22.49.34,2.13-.3,3.41-2.08,4.39-3.82,2.05-12.54,7.38-29.5-.96-.88-.45-1.1-1.2-.85-1.89.18-.56,2.57-6.22,3.3-7.85.12-.26-.03-.54-.25-.68-.6-.28-1.66-.77-2.07-1.01-2.14-1.2,1.09-8.48,3.44-7.3.46.22,1.32.62,1.85.86Z" fill="none" stroke="#000" stroke-linecap="round" stroke-linejoin="round"/><g clip-path="url(#uuid-354ce8f9-5d4a-4669-bbf7-fb7e55d92734)"><path d="M290.4,343.59l2.02.25c.34.04.71-.15.87-.48l4.06-9.07c.12-.26.41-.37.63-.23l1.54.76c.26.12.37.41.25.68l-4.19,9.17c-.31.66-1.05,1.04-1.79.82l-3.54-.96.15-.94ZM295.02,325.35c1.06.49,1.72,1.85,1.26,3.17-.09.2.04.42.19.53,2.64,1.35,13.22,6.84,13.55,7,.4.19.65-.18.28-.43-5.28-3.47-7.17-7.01-6.67-7.91.71-1.36,2.74-5.01,3.39-6.24.09-.2.34-.29.53-.19,4.14,2.01,10.28,5.88,14.52,13.29.34.64.81.26.68-.08s-3.25-8.93-3.25-8.93l-17.69-9.17,2.55,2.92c.27.29.3.66.14.99-.9,1.76-3.79,7.26-4.51,8.74-.09.2-.29.27-.49.18-.53-.25-.91-.82-2.18-3.88-.35-.81-2.3.01-2.3.01Z" fill="none" stroke="#000" stroke-linecap="round" stroke-linejoin="round"/></g><path d="M267.57,320.95s23.34,10.63,24.25,11.01c1.82.77,4.57-4.96,2.75-5.89-1.23-.65-23.99-11.82-23.99-11.82l-3,6.7Z" fill="none" stroke="#000" stroke-linecap="round" stroke-linejoin="round"/><g clip-path="url(#uuid-193f512b-57a3-42de-91e5-29ae630c43c9)"><path d="M277.63,316.24c-1.24,2.93-5.78,5.57-9.92,4.61l3.38-7.33,6.55,2.73Z" fill="none" stroke="#000" stroke-linecap="round" stroke-linejoin="round"/></g><path d="M264.82,320.19s2.19,1.02,2.91,1.36c2.04.91,5.49-6.51,3.49-7.48-.66-.31-2-.97-2.6-1.25,1.21-3.02-.35-5.48-1.62-6.72-1.97-1.92-7.81-5.29-8.72-4.02-.22.3-.55.91-.55.91,0,0-.25.53.37.86,0,0,5.37,2.83,6.17,3.36,1.17.78,1.86,2.24,1.43,3.93-.37,1.56-2.82,6.14-3.91,7.69-.91,1.27-1.93,2.24-3.58,1.8-1.24-.37-6.7-3-7.2-3.15-.64-.26-1.11-.03-1.3.36-.17.28-.28.6-.37.96-.43,1.09,5.2,4.15,9.61,4.8,2.92.47,4.9-1.95,5.86-3.4Z" fill="none" stroke="#000" stroke-linecap="round" stroke-linejoin="round"/><g clip-path="url(#uuid-42ff0233-2e5b-4a84-a958-305e8ac24016)"><path d="M272.6,317.85l-4.38-2.2c-.33-.15-.45-.49-.3-.83l.73-2.08,1.14-.8,4.39,2.08-1.58,3.82ZM249.59,317.16c-.45,2.09,7.03,4.64,8.62,4.94,1.3.24,2.97-.31,4.27-1.72,1.65-1.81,3.96-5.9,4.56-8.92.34-1.77-.32-3.46-1.4-4.44-1.34-1.27-7.18-4.75-8.32-3.68-1.15,1.08-7.72,13.81-7.72,13.81Z" fill="none" stroke="#000" stroke-linecap="round" stroke-linejoin="round"/></g><path d="M250.86,318.08c.56-4.05,4.94-11.64,7.32-14.32.16-.17.35-.24.53-.19,1.41.26,3.01,1.16,4.39,2.25.23.19.34.48.23.79-.96,3.7-4.16,10.31-7.22,13.85-.19.23-.5.29-.73.27-1.62-.23-3.36-1.08-4.32-2.05-.17-.16-.21-.42-.21-.58Z" fill="none" stroke="#000" stroke-linecap="round" stroke-linejoin="round"/><g clip-path="url(#uuid-57cf5165-c3dd-4b6d-91a3-6705691cbbed)"><path d="M250.61,316.19c.64,1.14,4.12,3.61,7.64,1.95-.29,2.53-1.78,4.61-1.78,4.61l-7.27-3.51,1.42-3.05Z" fill="none" stroke="#000" stroke-linecap="round" stroke-linejoin="round"/></g><g id="uuid-b939d232-8ce7-4617-b9c4-429bd58052f8"><polygon id="uuid-64f26f98-2d81-4cae-a529-8b14320b76d7" points="259.24 344.88 247.76 347.63 252.65 368.1 253.64 372.23 270.86 368.11 269.88 364.01 264.14 365.38 259.24 344.88" fill="#5f5f5f"/><rect id="uuid-a7c51d87-0f5a-44e0-a358-5e2b671b55ec" x="236.89" y="325.69" width="15.18" height="29.51" transform="translate(-172.28 295.91) rotate(-48.22)" fill="#727272"/><polygon id="uuid-2c80d1a5-aedf-4f98-8ae4-e6372e8c61bf" points="220 366 208 366 208 387 202 387 202 391 220 391 220 386.81 220 386.81 220 366" fill="#5f5f5f"/><rect id="uuid-24f67b4a-d2c2-440c-a3be-e778953c9b4f" x="207" y="336" width="15" height="30" fill="#727272"/><path id="uuid-00b3b6f7-ae55-4b94-80ec-89ba0de4fa75" d="M206,277v60h34v-60h-34Z" fill="#727272"/><rect id="uuid-4bd21bd1-4585-42b8-91bd-db2b550d0dc5" x="206" y="311" width="34" height="10" fill="#acacac"/><rect id="uuid-4786f983-78c8-416c-8b5d-7647ceaf5673" x="230" y="276" width="4" height="35" fill="#acacac"/><rect id="uuid-9e293a8a-82bb-4914-b93c-b7502e29b2d2" x="213" y="276" width="4" height="35" fill="#acacac"/><path id="uuid-bdb04550-0430-4499-b67b-97563c38e992" d="M239.67,266.54c.85-3.32,1.14-6.99.73-10.8-1.41-13.16-10.55-22.97-20.42-21.91s-16.73,12.58-15.32,25.74c.41,3.81,1.47,7.34,3,10.4l32-3.42Z" fill="#ccc"/><path id="uuid-2962c6f4-d541-4f52-9191-97a167b91e79" d="M208.11,273c3.19,6.67,8.79,11.1,15.16,11.1s11.97-4.43,15.16-11.1h-30.32Z" fill="#ccc"/><ellipse id="uuid-37f50c6f-df1f-4010-96fa-42efd80e5994" cx="235.5" cy="261.5" rx="1.49" ry="2.51" transform="translate(-20.52 20.06) rotate(-4.67)" fill="#333"/><ellipse id="uuid-5add5387-660c-4975-8df5-a67fe90ded62" cx="225.5" cy="262.5" rx="1.49" ry="2.51" transform="translate(-20.64 19.24) rotate(-4.67)" fill="#333"/><rect id="uuid-267212ee-4a59-4381-9044-33d2eb840302" x="247.8" y="289.07" width="8.99" height="19.17" transform="translate(-60.44 64.04) rotate(-12.93)" fill="#727272"/><rect id="uuid-2e06e884-86a1-4d76-9736-4da9d5c19593" x="240.31" y="276.66" width="8.99" height="19.17" transform="translate(-130.57 317.21) rotate(-54.18)" fill="#727272"/><rect id="uuid-45220b13-b13d-4112-8f4c-5d08af65712d" x="191.9" y="281.59" width="19.17" height="8.99" transform="translate(-93.11 474.9) rotate(-87.5)" fill="#727272"/><rect id="uuid-aa416411-1d25-4d3b-b715-b91b6aef762c" x="191.07" y="300.74" width="19.17" height="8.99" transform="translate(-113.04 492.38) rotate(-87.5)" fill="#727272"/><rect id="uuid-1b9e1361-9e6c-4355-96d5-0ff60bcb5aeb" x="249.75" y="305.05" width="9.58" height="9.58" transform="translate(-46.07 44.47) rotate(-9.16)" fill="#ccc"/><rect id="uuid-f6c6b579-4494-46f3-b326-3297d7b8f197" x="195.23" y="314.8" width="9.58" height="9.58" transform="translate(-127.99 505.49) rotate(-87.5)" fill="#ccc"/><circle id="uuid-89fc514b-bf31-4e14-ac7c-064ae7a7118b" cx="222.5" cy="305.5" r="1.5" fill="#333"/><circle id="uuid-e978aecb-c0c5-4e7f-a893-84750b7662e3" cx="222.5" cy="299.5" r="1.5" fill="#333"/><circle id="uuid-9b471299-92f7-49f6-8716-0db4063eb002" cx="222.5" cy="294.5" r="1.5" fill="#333"/><circle id="uuid-9dbfe092-8988-40e3-8475-b97d979fe6d5" cx="222.5" cy="289.5" r="1.5" fill="#333"/><path d="M241.04,241.79c-1.97-8.2-11.19-13.77-21.56-12.66-10.37,1.11-18.2,8.5-18.39,16.93-3.41.87-5.42,1.71-5.35,2.4.17,1.6,11.73,1.68,25.82.17,14.09-1.51,25.37-4.03,25.2-5.63-.07-.68-2.22-1.09-5.73-1.21Z" fill="#6a6a6a"/><polygon id="uuid-66c28fc4-38f5-4999-af47-8547713cd7e7" points="259.24 344.88 247.76 347.63 252.65 368.1 253.64 372.23 270.86 368.11 269.88 364.01 264.14 365.38 259.24 344.88" fill="none" stroke="#000" stroke-linecap="round" stroke-linejoin="round"/><rect id="uuid-88352819-f7e5-45be-852f-adb750b40c7e" x="236.89" y="325.69" width="15.18" height="29.51" transform="translate(-172.28 295.91) rotate(-48.22)" fill="none" stroke="#000" stroke-linecap="round" stroke-linejoin="round"/><polygon id="uuid-657e4270-310f-445a-89ba-c87d85b24c1a" points="220 366 208 366 208 387 202 387 202 391 220 391 220 386.81 220 386.81 220 366" fill="none" stroke="#000" stroke-linecap="round" stroke-linejoin="round"/><rect id="uuid-b7f12122-ea44-4eda-abc7-a2e0542e2e72" x="207" y="336" width="15" height="30" fill="none" stroke="#000" stroke-linecap="round" stroke-linejoin="round"/><path id="uuid-7db75fa4-a9a6-4339-bcd9-77f9f04499c9" d="M206,277v60h34v-60h-34Z" fill="none" stroke="#000" stroke-linecap="round" stroke-linejoin="round"/><rect id="uuid-5bb5a7e3-c03c-4250-b3f4-5355227e6f45" x="206" y="311" width="34" height="10" fill="none" stroke="#000" stroke-linecap="round" stroke-linejoin="round"/><rect id="uuid-1a26dcd9-5507-4267-943e-ab84ccffc1c0" x="230" y="276" width="4" height="35" fill="none" stroke="#000" stroke-linecap="round" stroke-linejoin="round"/><rect id="uuid-b3706965-ff74-4fe8-a218-15ee5b42aea0" x="213" y="276" width="4" height="35" fill="none" stroke="#000" stroke-linecap="round" stroke-linejoin="round"/><path id="uuid-33b24630-786a-4de7-9193-fc8cdfd02dcb" d="M239.67,266.54c.85-3.32,1.14-6.99.73-10.8-1.41-13.16-10.55-22.97-20.42-21.91s-16.73,12.58-15.32,25.74c.41,3.81,1.47,7.34,3,10.4l32-3.42Z" fill="none" stroke="#000" stroke-linecap="round" stroke-linejoin="round"/><path id="uuid-3ef906db-6e14-4492-b72e-7de684202b5c" d="M208.11,273c3.19,6.67,8.79,11.1,15.16,11.1s11.97-4.43,15.16-11.1h-30.32Z" fill="none" stroke="#000" stroke-linecap="round" stroke-linejoin="round"/><ellipse id="uuid-148894fb-8c28-4e9a-a185-fca27c273412" cx="235.5" cy="261.5" rx="1.49" ry="2.51" transform="translate(-20.52 20.06) rotate(-4.67)" fill="none" stroke="#000" stroke-linecap="round" stroke-linejoin="round"/><ellipse id="uuid-8c0e48c7-b02b-466e-8049-e2d258a8b761" cx="225.5" cy="262.5" rx="1.49" ry="2.51" transform="translate(-20.64 19.24) rotate(-4.67)" fill="none" stroke="#000" stroke-linecap="round" stroke-linejoin="round"/><rect id="uuid-737ef025-f4b8-42eb-bcad-8a329e497ff9" x="247.8" y="289.07" width="8.99" height="19.17" transform="translate(-60.44 64.04) rotate(-12.93)" fill="none" stroke="#000" stroke-linecap="round" stroke-linejoin="round"/><rect id="uuid-592c7001-6bfd-493c-a99a-7e9a5b7fc937" x="240.31" y="276.66" width="8.99" height="19.17" transform="translate(-130.57 317.21) rotate(-54.18)" fill="none" stroke="#000" stroke-linecap="round" stroke-linejoin="round"/><rect id="uuid-6b378cc8-5868-4984-b80a-b448d6bca811" x="191.9" y="281.59" width="19.17" height="8.99" transform="translate(-93.11 474.9) rotate(-87.5)" fill="none" stroke="#000" stroke-linecap="round" stroke-linejoin="round"/><rect id="uuid-3fa2d237-51e7-4096-be3f-bd6e0ad0bca0" x="191.07" y="300.74" width="19.17" height="8.99" transform="translate(-113.04 492.38) rotate(-87.5)" fill="none" stroke="#000" stroke-linecap="round" stroke-linejoin="round"/><rect id="uuid-3f88e779-08c4-45b3-8881-6974d04a5ba9" x="249.75" y="305.05" width="9.58" height="9.58" transform="translate(-46.07 44.47) rotate(-9.16)" fill="none" stroke="#000" stroke-linecap="round" stroke-linejoin="round"/><rect id="uuid-cf84a14c-8443-4282-a7c9-cf10282142ad" x="195.23" y="314.8" width="9.58" height="9.58" transform="translate(-127.99 505.49) rotate(-87.5)" fill="none" stroke="#000" stroke-linecap="round" stroke-linejoin="round"/><circle id="uuid-73d4c34a-192d-4106-885c-d0432c71c27a" cx="222.5" cy="305.5" r="1.5" fill="none" stroke="#000" stroke-linecap="round" stroke-linejoin="round"/><circle id="uuid-c7b204df-80c7-4273-80f6-df63078c70b1" cx="222.5" cy="299.5" r="1.5" fill="none" stroke="#000" stroke-linecap="round" stroke-linejoin="round"/><circle id="uuid-e4523068-a700-448e-a99e-926ac156fc29" cx="222.5" cy="294.5" r="1.5" fill="none" stroke="#000" stroke-linecap="round" stroke-linejoin="round"/><circle id="uuid-d1a76e85-6211-4fbc-a1e5-40217229aaea" cx="222.5" cy="289.5" r="1.5" fill="none" stroke="#000" stroke-linecap="round" stroke-linejoin="round"/><path d="M241.04,241.79c-1.97-8.2-11.19-13.77-21.56-12.66-10.37,1.11-18.2,8.5-18.39,16.93-3.41.87-5.42,1.71-5.35,2.4.17,1.6,11.73,1.68,25.82.17,14.09-1.51,25.37-4.03,25.2-5.63-.07-.68-2.22-1.09-5.73-1.21Z" fill="none" stroke="#000" stroke-linecap="round" stroke-linejoin="round"/></g><text transform="translate(54.64 86.51)" fill="#333" font-family="ComicNeue-Regular, &apos;Comic Neue&apos;" font-size="24"><tspan x="0" y="0">They dug tunnels for surprise attacks.</tspan></text></svg>