<?xml version="1.0" encoding="UTF-8"?><svg id="uuid-c8fc0ec0-d884-4197-9330-ddf0545d9ecc" xmlns="http://www.w3.org/2000/svg" viewBox="0 0 500 500"><g id="uuid-ca0896e1-8d9c-4da4-b664-7f6b8ff752af"><polygon id="uuid-2b431bd8-6f2e-410b-bdf0-f104a1631cab" points="160.082968 296.658143 144.826188 300.678182 151.813054 327.194607 153.22007 332.534488 176.105275 326.504419 174.698259 321.164538 167.069834 323.174567 160.082968 296.658143" fill="#5f4d2f"/><rect id="uuid-832ca5a0-62be-4647-8c64-200067e87ec0" x="135.020038" y="263.225165" width="19.640684" height="38.77051" transform="translate(-110.061833 93.210718) rotate(-26.251038)" fill="#726038"/><polygon id="uuid-263b4127-9b52-4d66-aeb7-8d574ec5b592" points="118.999976 308 103 308 103 336 95 336 95 341 119 341 119 335.468408 118.999976 335.468408 118.999976 308" fill="#5f4d2f"/><rect id="uuid-73bd3a56-fa20-451e-b6df-49dff1c776ab" x="100.999986" y="270" width="19.000029" height="39" fill="#726038"/><path id="uuid-fd70892a-1444-47f8-adab-f7694ca42a18" d="M101,191v79h44v-79h-44Z" fill="#726038"/><rect id="uuid-3311ee6a-9622-49c4-b446-13db309e466e" x="101" y="237" width="44" height="13" fill="#ac935a"/><rect id="uuid-338b9944-1ebc-482a-ab48-0a4024f62f5e" x="133" y="191" width="5" height="46" fill="#ac935a"/><rect id="uuid-8b5001a6-2942-4b23-b780-0c40197aaa12" x="109" y="191" width="5" height="46" fill="#ac935a"/><path id="uuid-b7799442-f99c-4088-9ec2-931185a3504c" d="M145.025116,178.034906c1.157118-4.36529,1.578169-9.196606,1.082614-14.219318-1.711126-17.343167-13.642842-30.362253-26.650229-29.078907-13.007387,1.283346-22.164813,16.383147-20.453687,33.726314.495555,5.022712,1.85264,9.678592,3.840527,13.733587l42.180775-4.161675Z" fill="#eec6a2"/><path id="uuid-714fa3df-bc8c-4d12-bc07-6ba75df4683d" d="M103.608784,185c4.201382,8.78738,11.57002,14.620804,19.965128,14.620804s15.763746-5.833424,19.965128-14.620804h-39.930257Z" fill="#eec6a2"/><ellipse id="uuid-df1766d3-1503-4cd7-8b41-67a6e44931fa" cx="138.5" cy="167.5" rx="2.5" ry="3.5" fill="#333"/><ellipse id="uuid-367c5251-d04a-4816-bc1a-fb34caf739fb" cx="125.5" cy="169.5" rx="2.5" ry="3.5" fill="#333"/><rect id="uuid-a435dbc7-ac37-43ab-9e50-f8c4634a86c1" x="147.327829" y="204.940491" width="25.244062" height="11.833134" transform="translate(-104.113679 193.105885) rotate(-48.971319)" fill="#726038"/><rect id="uuid-255fa018-e324-4d86-a424-784448890ce5" x="145.533609" y="190.587774" width="11.833134" height="25.244062" transform="translate(-19.220485 15.85211) rotate(-5.634698)" fill="#726038"/><rect id="uuid-f7014f58-6dda-41c1-b8ec-a7be54bcad28" x="81.812487" y="197.293237" width="25.244062" height="11.833134" transform="translate(-115.772509 280.831378) rotate(-85.342327)" fill="#726038"/><rect id="uuid-495b672f-5a0f-4d43-ba9c-3bf1ba8ebc3e" x="79.318588" y="221.497119" width="25.244062" height="11.833134" transform="translate(-146.235785 286.082782) rotate(-81.825072)" fill="#726038"/><rect id="uuid-b68090e8-26c5-4fd7-9ec9-182659f79d94" x="166.127534" y="190.193964" width="12.622033" height="12.622033" transform="translate(-88.996087 197.596408) rotate(-48.971349)" fill="#eec6a2"/><rect id="uuid-a402f1a7-8a95-4c40-aa6f-e1b4b36d6b70" x="82.928483" y="239.90542" width="12.622033" height="12.622033" transform="translate(-167.164476 299.538323) rotate(-81.825102)" fill="#eec6a2"/><circle id="uuid-dfea7d40-5a45-4a26-9e8e-3eae35ad00de" cx="123.5" cy="227.5" r="1.5" fill="#333"/><circle id="uuid-d4a16e0f-9ec1-4231-90ce-0b06beb23aba" cx="123.5" cy="220.5" r="1.5" fill="#333"/><circle id="uuid-633da67c-093c-43e6-b76a-b8a92c68286b" cx="123.5" cy="214.5" r="1.5" fill="#333"/><circle id="uuid-6d7ab93f-8647-493f-8eb4-05f01fc668df" cx="123.5" cy="207.5" r="1.5" fill="#333"/><path d="M147.085904,145.366868c-2.499615-10.823125-14.584849-18.25351-28.247544-16.90551-13.662694,1.348-24.062842,10.996857-24.39917,22.099785-4.502339,1.103529-7.156376,2.199434-7.067663,3.098589.208383,2.112067,15.432028,2.338881,34.002961.50662,18.570933-1.832261,33.456726-5.029758,33.248344-7.141825-.088713-.899155-2.905743-1.455269-7.536928-1.657659Z" fill="#596a66"/><path d="M408,117h-177v135h177V117Z" fill="#ccc"/><path d="M258.926009,108.880774c-1.198239.003867-2.17274-.964367-2.176607-2.162606-.00243-.753483.386241-1.454269,1.026708-1.851187l53.578714-33.574836c5.094338-3.196421,11.568325-3.196421,16.662663,0l52.754252,33.054129c.997039.664608,1.266533,2.011641.601929,3.008683-.637444.956283-1.910003,1.249596-2.901718.668819l-52.754252-33.064976c-3.692469-2.298831-8.370615-2.298833-12.063077,0l-53.578717,33.585686c-.342883.220564-.742198.337344-1.149895.336288Z" fill="#515151"/><path d="M415.830382,117h-192.660764c-1.198247,0-2.169618-.971371-2.169618-2.169618v-8.645508c-.005998-1.200624.954359-2.178826,2.145018-2.184874.007241-.000037.014481-.000037.021722,0h192.66652c1.190662-.006048,2.160736.962347,2.16674,2.162971.00004.007301.00004.014602,0,.021903v8.645508c0,1.198247-.971371,2.169618-2.169618,2.169618Z" fill="#515151"/><path d="M415.83326,263h-192.66652c-1.190659.006054-2.160742-.96235-2.16674-2.162964-.000036-.007308-.000036-.014602,0-.02191v-8.630252c0-1.206668.970083-2.184874,2.16674-2.184874h192.66652c1.196653,0,2.16674.978206,2.16674,2.184874h0v8.630252c.006004,1.200627-.954363,2.17882-2.145012,2.184874-.007247.00004-.014481.00004-.021728,0Z" fill="#515151"/><path d="M228.074041,113c-1.195779-.339173-2.074041-2.502858-2.074041-2.502858v-6.497142h-2.938144c-1.133023-.006048-2.056148.962347-2.061856,2.162971-.000035.007301-.000035.014602,0,.021903v8.645508c0,1.198247.971371,2.169618,2.169618,2.169618h192.56552s2.169618-.520604,2.264862-1.718853v-2.281147h-189.925959Z" fill="#353535"/><path d="M228.169614,258c-1.198245,0-2.169614-1.015233-2.169614-2.267575v.265057-5.997482h-2.938144c-1.138731,0-2.061856.978206-2.061856,2.184874h0v8.630252c-.005708,1.200627.908161,2.17882,2.041186,2.184874.00689.00004-.140136.000042-.132886,0h192.922086c1.192242.006283,2.163602-.998777,2.169614-2.244836.00004-.007584.00004-.015155,0-.022739v-2.732425h-189.830386Z" fill="#353535"/><path d="M309.05686,216.478775l10.44314,13.054037,10.443067-13.053888c1.978848-2.47357,3.056933-5.546964,3.056933-8.714675v-.595368c0-6.177463-4.093188-11.752029-10.093826-13.219472-8.929828-2.183769-16.906174,4.518324-16.906174,13.083402v.731466c0,3.167644,1.078059,6.240974,3.05686,8.714497ZM319.312328,211.532813c2.509888,0,4.544551-2.034664,4.544551-4.544551s-2.034663-4.544551-4.544551-4.544551-4.544551,2.034664-4.544551,4.544551,2.034664,4.544551,4.544551,4.544551Z" fill="#f44336" fill-rule="evenodd"/><polygon id="uuid-cf24e357-89a6-4808-81d5-38443bea9a6b" points="160.082968 296.658143 144.826188 300.678182 151.813054 327.194607 153.22007 332.534488 176.105275 326.504419 174.698259 321.164538 167.069834 323.174567 160.082968 296.658143" fill="none" stroke="#000" stroke-linecap="round" stroke-linejoin="round"/><rect id="uuid-09f5f4b3-a80c-48cc-ad20-d7d72c0d92bd" x="135.020038" y="263.225165" width="19.640684" height="38.77051" transform="translate(-110.061833 93.210718) rotate(-26.251038)" fill="none" stroke="#000" stroke-linecap="round" stroke-linejoin="round"/><polygon id="uuid-66d13f0e-ccbd-4bb5-8dff-10a7f40562b0" points="118.999976 308 103 308 103 336 95 336 95 341 119 341 119 335.468408 118.999976 335.468408 118.999976 308" fill="none" stroke="#000" stroke-linecap="round" stroke-linejoin="round"/><rect id="uuid-7cc4b2b3-38de-4437-8692-66269081488f" x="100.999986" y="270" width="19.000029" height="39" fill="none" stroke="#000" stroke-linecap="round" stroke-linejoin="round"/><path id="uuid-ff0de99b-5f10-4fdb-8ce0-3f0405014c39" d="M101,191v79h44v-79h-44Z" fill="none" stroke="#000" stroke-linecap="round" stroke-linejoin="round"/><rect id="uuid-4a5495ac-8844-4c25-a047-30229fade69c" x="101" y="237" width="44" height="13" fill="none" stroke="#000" stroke-linecap="round" stroke-linejoin="round"/><rect id="uuid-de27058c-5227-43e5-a2b1-3cc8f8071077" x="133" y="191" width="5" height="46" fill="none" stroke="#000" stroke-linecap="round" stroke-linejoin="round"/><rect id="uuid-7bb37f77-f80e-4b61-a8bd-2d971e8a52a7" x="109" y="191" width="5" height="46" fill="none" stroke="#000" stroke-linecap="round" stroke-linejoin="round"/><path id="uuid-5ac1bf4a-0e7e-4390-85ee-bd0295ac29d8" d="M145.025116,178.034906c1.157118-4.36529,1.578169-9.196606,1.082614-14.219318-1.711126-17.343167-13.642842-30.362253-26.650229-29.078907-13.007387,1.283346-22.164813,16.383147-20.453687,33.726314.495555,5.022712,1.85264,9.678592,3.840527,13.733587l42.180775-4.161675Z" fill="none" stroke="#000" stroke-linecap="round" stroke-linejoin="round"/><path id="uuid-049773ad-fd3c-4458-8090-b32ece5df904" d="M103.608784,185c4.201382,8.78738,11.57002,14.620804,19.965128,14.620804s15.763746-5.833424,19.965128-14.620804h-39.930257Z" fill="none" stroke="#000" stroke-linecap="round" stroke-linejoin="round"/><ellipse id="uuid-7d070446-946e-4878-a674-6c43d4cc2094" cx="138.5" cy="167.5" rx="2.5" ry="3.5" fill="none" stroke="#000" stroke-linecap="round" stroke-linejoin="round"/><ellipse id="uuid-2909a804-db14-4f5d-80e6-857fe598499f" cx="125.5" cy="169.5" rx="2.5" ry="3.5" fill="none" stroke="#000" stroke-linecap="round" stroke-linejoin="round"/><rect id="uuid-9ea20308-1937-45ae-9ff7-464e748c2333" x="147.327829" y="204.940491" width="25.244062" height="11.833134" transform="translate(-104.113679 193.105885) rotate(-48.971319)" fill="none" stroke="#000" stroke-linecap="round" stroke-linejoin="round"/><rect id="uuid-193b75f7-4673-4911-9bb1-1ca592526746" x="145.533609" y="190.587774" width="11.833134" height="25.244062" transform="translate(-19.220485 15.85211) rotate(-5.634698)" fill="none" stroke="#000" stroke-linecap="round" stroke-linejoin="round"/><rect id="uuid-cbff07f9-5d8b-4e2e-b76c-064d47e73179" x="81.812487" y="197.293237" width="25.244062" height="11.833134" transform="translate(-115.772509 280.831378) rotate(-85.342327)" fill="none" stroke="#000" stroke-linecap="round" stroke-linejoin="round"/><rect id="uuid-ee8ab3a5-6bd8-4ba2-9788-4f33eea607d4" x="79.318588" y="221.497119" width="25.244062" height="11.833134" transform="translate(-146.235785 286.082782) rotate(-81.825072)" fill="none" stroke="#000" stroke-linecap="round" stroke-linejoin="round"/><rect id="uuid-9cc44078-ecf1-4352-b30c-c7690c8feb04" x="166.127534" y="190.193964" width="12.622033" height="12.622033" transform="translate(-88.996087 197.596408) rotate(-48.971349)" fill="none" stroke="#000" stroke-linecap="round" stroke-linejoin="round"/><rect id="uuid-6fa36236-4c87-4cf3-8f98-3eff54430533" x="82.928483" y="239.90542" width="12.622033" height="12.622033" transform="translate(-167.164476 299.538323) rotate(-81.825102)" fill="none" stroke="#000" stroke-linecap="round" stroke-linejoin="round"/><circle id="uuid-78e24710-89c4-4ede-82af-5eda94049dcf" cx="123.5" cy="227.5" r="1.5" fill="none" stroke="#000" stroke-linecap="round" stroke-linejoin="round"/><circle id="uuid-f2bb23e3-fbca-403f-828a-281ad757dbb3" cx="123.5" cy="220.5" r="1.5" fill="none" stroke="#000" stroke-linecap="round" stroke-linejoin="round"/><circle id="uuid-861dc77d-c793-45a8-9591-09fc3e2a8d19" cx="123.5" cy="214.5" r="1.5" fill="none" stroke="#000" stroke-linecap="round" stroke-linejoin="round"/><circle id="uuid-a8fcc98b-df7b-4695-9778-4360a75fea2e" cx="123.5" cy="207.5" r="1.5" fill="none" stroke="#000" stroke-linecap="round" stroke-linejoin="round"/><path d="M147.085904,145.366868c-2.499615-10.823125-14.584849-18.25351-28.247544-16.90551-13.662694,1.348-24.062842,10.996857-24.39917,22.099785-4.502339,1.103529-7.156376,2.199434-7.067663,3.098589.208383,2.112067,15.432028,2.338881,34.002961.50662,18.570933-1.832261,33.456726-5.029758,33.248344-7.141825-.088713-.899155-2.905743-1.455269-7.536928-1.657659Z" fill="none" stroke="#000" stroke-linecap="round" stroke-linejoin="round"/><path d="M408,117h-177v135h177V117Z" fill="none" stroke="#000" stroke-linecap="round" stroke-linejoin="round"/><path d="M258.926009,108.880774c-1.198239.003867-2.17274-.964367-2.176607-2.162606-.00243-.753483.386241-1.454269,1.026708-1.851187l53.578714-33.574836c5.094338-3.196421,11.568325-3.196421,16.662663,0l52.754252,33.054129c.997039.664608,1.266533,2.011641.601929,3.008683-.637444.956283-1.910003,1.249596-2.901718.668819l-52.754252-33.064976c-3.692469-2.298831-8.370615-2.298833-12.063077,0l-53.578717,33.585686c-.342883.220564-.742198.337344-1.149895.336288Z" fill="none" stroke="#000" stroke-linecap="round" stroke-linejoin="round"/><path d="M415.830382,117h-192.660764c-1.198247,0-2.169618-.971371-2.169618-2.169618v-8.645508c-.005998-1.200624.954359-2.178826,2.145018-2.184874.007241-.000037.014481-.000037.021722,0h192.66652c1.190662-.006048,2.160736.962347,2.16674,2.162971.00004.007301.00004.014602,0,.021903v8.645508c0,1.198247-.971371,2.169618-2.169618,2.169618Z" fill="none" stroke="#000" stroke-linecap="round" stroke-linejoin="round"/><path d="M415.83326,263h-192.66652c-1.190659.006054-2.160742-.96235-2.16674-2.162964-.000036-.007308-.000036-.014602,0-.02191v-8.630252c0-1.206668.970083-2.184874,2.16674-2.184874h192.66652c1.196653,0,2.16674.978206,2.16674,2.184874h0v8.630252c.006004,1.200627-.954363,2.17882-2.145012,2.184874-.007247.00004-.014481.00004-.021728,0Z" fill="none" stroke="#000" stroke-linecap="round" stroke-linejoin="round"/><path d="M228.074041,113c-1.195779-.339173-2.074041-2.502858-2.074041-2.502858v-6.497142h-2.938144c-1.133023-.006048-2.056148.962347-2.061856,2.162971-.000035.007301-.000035.014602,0,.021903v8.645508c0,1.198247.971371,2.169618,2.169618,2.169618h192.56552s2.169618-.520604,2.264862-1.718853v-2.281147h-189.925959Z" fill="none" stroke="#000" stroke-linecap="round" stroke-linejoin="round"/><path d="M228.169614,258c-1.198245,0-2.169614-1.015233-2.169614-2.267575v.265057-5.997482h-2.938144c-1.138731,0-2.061856.978206-2.061856,2.184874h0v8.630252c-.005708,1.200627.908161,2.17882,2.041186,2.184874.00689.00004-.140136.000042-.132886,0h192.922086c1.192242.006283,2.163602-.998777,2.169614-2.244836.00004-.007584.00004-.015155,0-.022739v-2.732425h-189.830386Z" fill="none" stroke="#000" stroke-linecap="round" stroke-linejoin="round"/><path d="M309.05686,216.478775l10.44314,13.054037,10.443067-13.053888c1.978848-2.47357,3.056933-5.546964,3.056933-8.714675v-.595368c0-6.177463-4.093188-11.752029-10.093826-13.219472-8.929828-2.183769-16.906174,4.518324-16.906174,13.083402v.731466c0,3.167644,1.078059,6.240974,3.05686,8.714497ZM319.312328,211.532813c2.509888,0,4.544551-2.034664,4.544551-4.544551s-2.034663-4.544551-4.544551-4.544551-4.544551,2.034664-4.544551,4.544551,2.034664,4.544551,4.544551,4.544551Z" fill="none" stroke="#000" stroke-linecap="round" stroke-linejoin="round"/></g><text transform="translate(91.500854 391.445892)" fill="#333" font-family="ComicNeue-Regular, &apos;Comic Neue&apos;" font-size="24"><tspan x="0" y="0">Troops were given detailed </tspan><tspan x="0" y="28.799805">information of the enemy.</tspan></text><text transform="translate(246.739868 152.174805)" fill="#333" font-family="ComicNeue-Regular, &apos;Comic Neue&apos;" font-size="18"><tspan x="0" y="0">Location of Enemy </tspan><tspan x="20.493164" y="21.600098">Strong Points</tspan></text></svg>