<?xml version="1.0" encoding="UTF-8"?><svg id="uuid-72859d3d-5134-4aaa-969d-e6548f696c8f" xmlns="http://www.w3.org/2000/svg" viewBox="0 0 500 500"><g id="uuid-040e5274-4391-4abd-8c62-f81a04a19c29"><polygon id="uuid-264177c3-834d-4b59-a029-6be43e1c3b38" points="160.08 296.66 144.83 300.68 151.81 327.19 153.22 332.53 176.11 326.5 174.7 321.16 167.07 323.17 160.08 296.66" fill="#5f4d2f"/><rect id="uuid-424e2dcf-d314-4deb-aa5b-8da221e872dc" x="135.02" y="263.23" width="19.64" height="38.77" transform="translate(-110.06 93.21) rotate(-26.25)" fill="#726038"/><polygon id="uuid-228c5805-b628-4c38-8df5-dbb3a0dc9325" points="119 308 103 308 103 336 95 336 95 341 119 341 119 335.47 119 335.47 119 308" fill="#5f4d2f"/><rect id="uuid-3c5af196-86e1-4b01-9d88-321089a19a97" x="101" y="270" width="19" height="39" fill="#726038"/><path id="uuid-56e384db-dc44-41e1-8679-3544cc161420" d="M101,191v79h44v-79h-44Z" fill="#726038"/><rect id="uuid-982358b4-93dd-4d75-81f2-fb3607b276ac" x="101" y="237" width="44" height="13" fill="#ac935a"/><rect id="uuid-f134964d-6363-431b-9dcb-70ab49a6a604" x="133" y="191" width="5" height="46" fill="#ac935a"/><rect id="uuid-7148d9d5-5045-4e3a-a83b-195c313101bb" x="109" y="191" width="5" height="46" fill="#ac935a"/><path id="uuid-5466ff75-a413-4390-8c78-94d865187dc4" d="M145.03,178.03c1.16-4.37,1.58-9.2,1.08-14.22-1.71-17.34-13.64-30.36-26.65-29.08-13.01,1.28-22.16,16.38-20.45,33.73.5,5.02,1.85,9.68,3.84,13.73l42.18-4.16Z" fill="#eec6a2"/><path id="uuid-6d1607ef-2779-4f11-9a89-ddf33903d62f" d="M103.61,185c4.2,8.79,11.57,14.62,19.97,14.62s15.76-5.83,19.97-14.62h-39.93Z" fill="#eec6a2"/><ellipse id="uuid-cddc106a-19a8-423e-b5c8-d7992ae6192c" cx="138.5" cy="167.5" rx="2.5" ry="3.5" fill="#333"/><ellipse id="uuid-e88eb5b1-d38c-4a37-b812-314bea29150e" cx="125.5" cy="169.5" rx="2.5" ry="3.5" fill="#333"/><rect id="uuid-437fc05c-610f-4899-a48e-979f21e6a61e" x="147.33" y="204.94" width="25.24" height="11.83" transform="translate(-104.11 193.11) rotate(-48.97)" fill="#726038"/><rect id="uuid-2dfb89ac-546c-4caf-946f-788ffc3aca84" x="145.53" y="190.59" width="11.83" height="25.24" transform="translate(-19.22 15.85) rotate(-5.63)" fill="#726038"/><rect id="uuid-2cae8b90-dfbb-4af2-a5d0-b73b93f25c72" x="81.81" y="197.29" width="25.24" height="11.83" transform="translate(-115.77 280.83) rotate(-85.34)" fill="#726038"/><rect id="uuid-83a2e6e7-b1ea-4398-bbb5-54c596ae5a18" x="79.32" y="221.5" width="25.24" height="11.83" transform="translate(-146.24 286.08) rotate(-81.83)" fill="#726038"/><rect id="uuid-290281f0-e154-4ea7-994b-173b6c86f5ae" x="166.13" y="190.19" width="12.62" height="12.62" transform="translate(-89 197.6) rotate(-48.97)" fill="#eec6a2"/><rect id="uuid-1c0df3a4-464f-43bf-9aea-007ddff436ce" x="82.93" y="239.91" width="12.62" height="12.62" transform="translate(-167.16 299.54) rotate(-81.83)" fill="#eec6a2"/><circle id="uuid-1a3e2383-84c1-4a74-ada2-32c6e5bf7b44" cx="123.5" cy="227.5" r="1.5" fill="#333"/><circle id="uuid-ef081c5d-ee20-4406-9329-ae1f390eb6a9" cx="123.5" cy="220.5" r="1.5" fill="#333"/><circle id="uuid-bbd41acb-0af6-4fdc-9734-971e7b763433" cx="123.5" cy="214.5" r="1.5" fill="#333"/><circle id="uuid-c82cc4b8-4990-40de-a84c-42053c98916b" cx="123.5" cy="207.5" r="1.5" fill="#333"/><path d="M147.09,145.37c-2.5-10.82-14.58-18.25-28.25-16.91-13.66,1.35-24.06,11-24.4,22.1-4.5,1.1-7.16,2.2-7.07,3.1.21,2.11,15.43,2.34,34,.51,18.57-1.83,33.46-5.03,33.25-7.14-.09-.9-2.91-1.46-7.54-1.66Z" fill="#596a66"/><path d="M408,117h-177v135h177V117Z" fill="#ccc"/><path d="M258.93,108.88c-1.2,0-2.17-.96-2.18-2.16,0-.75.39-1.45,1.03-1.85l53.58-33.57c5.09-3.2,11.57-3.2,16.66,0l52.75,33.05c1,.66,1.27,2.01.6,3.01-.64.96-1.91,1.25-2.9.67l-52.75-33.06c-3.69-2.3-8.37-2.3-12.06,0l-53.58,33.59c-.34.22-.74.34-1.15.34Z" fill="#515151"/><path d="M415.83,117h-192.66c-1.2,0-2.17-.97-2.17-2.17v-8.65c0-1.2.95-2.18,2.15-2.18,0,0,.01,0,.02,0h192.67c1.19,0,2.16.96,2.17,2.16,0,0,0,.01,0,.02v8.65c0,1.2-.97,2.17-2.17,2.17Z" fill="#515151"/><path d="M415.83,263h-192.67c-1.19,0-2.16-.96-2.17-2.16,0,0,0-.01,0-.02v-8.63c0-1.21.97-2.18,2.17-2.18h192.67c1.2,0,2.17.98,2.17,2.18h0v8.63c0,1.2-.95,2.18-2.15,2.18,0,0-.01,0-.02,0Z" fill="#515151"/><path d="M228.07,113c-1.2-.34-2.07-2.5-2.07-2.5v-6.5h-2.94c-1.13,0-2.06.96-2.06,2.16,0,0,0,.01,0,.02v8.65c0,1.2.97,2.17,2.17,2.17h192.57s2.17-.52,2.26-1.72v-2.28h-189.93Z" fill="#353535"/><path d="M228.17,258c-1.2,0-2.17-1.02-2.17-2.27v.27-6h-2.94c-1.14,0-2.06.98-2.06,2.18h0v8.63c0,1.2.91,2.18,2.04,2.18,0,0-.14,0-.13,0h192.92c1.19,0,2.16-1,2.17-2.24,0,0,0-.02,0-.02v-2.73h-189.83Z" fill="#353535"/><path d="M309.06,216.48l10.44,13.05,10.44-13.05c1.98-2.47,3.06-5.55,3.06-8.71v-.6c0-6.18-4.09-11.75-10.09-13.22-8.93-2.18-16.91,4.52-16.91,13.08v.73c0,3.17,1.08,6.24,3.06,8.71ZM319.31,211.53c2.51,0,4.54-2.03,4.54-4.54s-2.03-4.54-4.54-4.54-4.54,2.03-4.54,4.54,2.03,4.54,4.54,4.54Z" fill="#f44336" fill-rule="evenodd"/><polygon id="uuid-75aae632-2f44-4c22-8f83-899dcd4936fe" points="160.08 296.66 144.83 300.68 151.81 327.19 153.22 332.53 176.11 326.5 174.7 321.16 167.07 323.17 160.08 296.66" fill="none" stroke="#000" stroke-linecap="round" stroke-linejoin="round"/><rect id="uuid-570bd765-5d8c-4417-bac5-186720f7674e" x="135.02" y="263.23" width="19.64" height="38.77" transform="translate(-110.06 93.21) rotate(-26.25)" fill="none" stroke="#000" stroke-linecap="round" stroke-linejoin="round"/><polygon id="uuid-bf170e16-e319-43a0-97b1-17c5d5c696b3" points="119 308 103 308 103 336 95 336 95 341 119 341 119 335.47 119 335.47 119 308" fill="none" stroke="#000" stroke-linecap="round" stroke-linejoin="round"/><rect id="uuid-d760452a-9d64-460d-8f03-74ec7bf0e5c7" x="101" y="270" width="19" height="39" fill="none" stroke="#000" stroke-linecap="round" stroke-linejoin="round"/><path id="uuid-8b62fcfb-77b2-48b6-b287-4e4d1e8c4867" d="M101,191v79h44v-79h-44Z" fill="none" stroke="#000" stroke-linecap="round" stroke-linejoin="round"/><rect id="uuid-bc2b621c-8677-4af3-94ce-534e3159ce36" x="101" y="237" width="44" height="13" fill="none" stroke="#000" stroke-linecap="round" stroke-linejoin="round"/><rect id="uuid-004aca15-cdfe-45e4-97fa-df2bfa1c80d3" x="133" y="191" width="5" height="46" fill="none" stroke="#000" stroke-linecap="round" stroke-linejoin="round"/><rect id="uuid-168ad321-d98e-4c1a-a7a6-193fef63667e" x="109" y="191" width="5" height="46" fill="none" stroke="#000" stroke-linecap="round" stroke-linejoin="round"/><path id="uuid-2bbdcd12-080b-4c44-8f6a-52b4d0f802c7" d="M145.03,178.03c1.16-4.37,1.58-9.2,1.08-14.22-1.71-17.34-13.64-30.36-26.65-29.08-13.01,1.28-22.16,16.38-20.45,33.73.5,5.02,1.85,9.68,3.84,13.73l42.18-4.16Z" fill="none" stroke="#000" stroke-linecap="round" stroke-linejoin="round"/><path id="uuid-b6d0c670-f877-44f9-9770-caa4d95cc4ed" d="M103.61,185c4.2,8.79,11.57,14.62,19.97,14.62s15.76-5.83,19.97-14.62h-39.93Z" fill="none" stroke="#000" stroke-linecap="round" stroke-linejoin="round"/><ellipse id="uuid-cd0e899e-f3a4-408f-a5e5-540e961ebce4" cx="138.5" cy="167.5" rx="2.5" ry="3.5" fill="none" stroke="#000" stroke-linecap="round" stroke-linejoin="round"/><ellipse id="uuid-9c0477b3-0232-4dde-8dc0-b101b75821b3" cx="125.5" cy="169.5" rx="2.5" ry="3.5" fill="none" stroke="#000" stroke-linecap="round" stroke-linejoin="round"/><rect id="uuid-0f65dad2-e728-4cc8-bda8-f1edd384c25b" x="147.33" y="204.94" width="25.24" height="11.83" transform="translate(-104.11 193.11) rotate(-48.97)" fill="none" stroke="#000" stroke-linecap="round" stroke-linejoin="round"/><rect id="uuid-36e3252c-9012-464c-828d-a8e3bc4f7412" x="145.53" y="190.59" width="11.83" height="25.24" transform="translate(-19.22 15.85) rotate(-5.63)" fill="none" stroke="#000" stroke-linecap="round" stroke-linejoin="round"/><rect id="uuid-eb1f065f-6749-4df3-8132-42755186d2a7" x="81.81" y="197.29" width="25.24" height="11.83" transform="translate(-115.77 280.83) rotate(-85.34)" fill="none" stroke="#000" stroke-linecap="round" stroke-linejoin="round"/><rect id="uuid-60cdfa6a-2a7a-4b25-b0ca-b8060acc7d2d" x="79.32" y="221.5" width="25.24" height="11.83" transform="translate(-146.24 286.08) rotate(-81.83)" fill="none" stroke="#000" stroke-linecap="round" stroke-linejoin="round"/><rect id="uuid-c1839da3-7db1-43ae-a579-27c30530135a" x="166.13" y="190.19" width="12.62" height="12.62" transform="translate(-89 197.6) rotate(-48.97)" fill="none" stroke="#000" stroke-linecap="round" stroke-linejoin="round"/><rect id="uuid-8927f62d-02d4-41f7-a465-4cd1697e78b3" x="82.93" y="239.91" width="12.62" height="12.62" transform="translate(-167.16 299.54) rotate(-81.83)" fill="none" stroke="#000" stroke-linecap="round" stroke-linejoin="round"/><circle id="uuid-1cc8f720-5b7f-4563-abe7-9b78e6ff8bc1" cx="123.5" cy="227.5" r="1.5" fill="none" stroke="#000" stroke-linecap="round" stroke-linejoin="round"/><circle id="uuid-bf2b059f-3616-4eae-95b3-7bee2634e157" cx="123.5" cy="220.5" r="1.5" fill="none" stroke="#000" stroke-linecap="round" stroke-linejoin="round"/><circle id="uuid-c8d914be-875b-4aa4-926a-150e24c14576" cx="123.5" cy="214.5" r="1.5" fill="none" stroke="#000" stroke-linecap="round" stroke-linejoin="round"/><circle id="uuid-c6eb3ca4-52f0-4fd7-af9a-8ffc68398e2e" cx="123.5" cy="207.5" r="1.5" fill="none" stroke="#000" stroke-linecap="round" stroke-linejoin="round"/><path d="M147.09,145.37c-2.5-10.82-14.58-18.25-28.25-16.91-13.66,1.35-24.06,11-24.4,22.1-4.5,1.1-7.16,2.2-7.07,3.1.21,2.11,15.43,2.34,34,.51,18.57-1.83,33.46-5.03,33.25-7.14-.09-.9-2.91-1.46-7.54-1.66Z" fill="none" stroke="#000" stroke-linecap="round" stroke-linejoin="round"/><path d="M408,117h-177v135h177V117Z" fill="none" stroke="#000" stroke-linecap="round" stroke-linejoin="round"/><path d="M258.93,108.88c-1.2,0-2.17-.96-2.18-2.16,0-.75.39-1.45,1.03-1.85l53.58-33.57c5.09-3.2,11.57-3.2,16.66,0l52.75,33.05c1,.66,1.27,2.01.6,3.01-.64.96-1.91,1.25-2.9.67l-52.75-33.06c-3.69-2.3-8.37-2.3-12.06,0l-53.58,33.59c-.34.22-.74.34-1.15.34Z" fill="none" stroke="#000" stroke-linecap="round" stroke-linejoin="round"/><path d="M415.83,117h-192.66c-1.2,0-2.17-.97-2.17-2.17v-8.65c0-1.2.95-2.18,2.15-2.18,0,0,.01,0,.02,0h192.67c1.19,0,2.16.96,2.17,2.16,0,0,0,.01,0,.02v8.65c0,1.2-.97,2.17-2.17,2.17Z" fill="none" stroke="#000" stroke-linecap="round" stroke-linejoin="round"/><path d="M415.83,263h-192.67c-1.19,0-2.16-.96-2.17-2.16,0,0,0-.01,0-.02v-8.63c0-1.21.97-2.18,2.17-2.18h192.67c1.2,0,2.17.98,2.17,2.18h0v8.63c0,1.2-.95,2.18-2.15,2.18,0,0-.01,0-.02,0Z" fill="none" stroke="#000" stroke-linecap="round" stroke-linejoin="round"/><path d="M228.07,113c-1.2-.34-2.07-2.5-2.07-2.5v-6.5h-2.94c-1.13,0-2.06.96-2.06,2.16,0,0,0,.01,0,.02v8.65c0,1.2.97,2.17,2.17,2.17h192.57s2.17-.52,2.26-1.72v-2.28h-189.93Z" fill="none" stroke="#000" stroke-linecap="round" stroke-linejoin="round"/><path d="M228.17,258c-1.2,0-2.17-1.02-2.17-2.27v.27-6h-2.94c-1.14,0-2.06.98-2.06,2.18h0v8.63c0,1.2.91,2.18,2.04,2.18,0,0-.14,0-.13,0h192.92c1.19,0,2.16-1,2.17-2.24,0,0,0-.02,0-.02v-2.73h-189.83Z" fill="none" stroke="#000" stroke-linecap="round" stroke-linejoin="round"/><path d="M309.06,216.48l10.44,13.05,10.44-13.05c1.98-2.47,3.06-5.55,3.06-8.71v-.6c0-6.18-4.09-11.75-10.09-13.22-8.93-2.18-16.91,4.52-16.91,13.08v.73c0,3.17,1.08,6.24,3.06,8.71ZM319.31,211.53c2.51,0,4.54-2.03,4.54-4.54s-2.03-4.54-4.54-4.54-4.54,2.03-4.54,4.54,2.03,4.54,4.54,4.54Z" fill="none" stroke="#000" stroke-linecap="round" stroke-linejoin="round"/></g><text transform="translate(91.5 391.45)" fill="#333" font-family="ComicNeue-Regular, &apos;Comic Neue&apos;" font-size="24"><tspan x="0" y="0">Troops were given detailed </tspan><tspan x="0" y="28.8">information of the enemy.</tspan></text><text transform="translate(246.74 152.17)" fill="#333" font-family="ComicNeue-Regular, &apos;Comic Neue&apos;" font-size="18"><tspan x="0" y="0">Location of Enemy </tspan><tspan x="20.49" y="21.6">Strong Points</tspan></text></svg>