<?xml version="1.0" encoding="UTF-8"?><svg id="uuid-f122964c-afe3-4699-8fe8-8532421b85e3" xmlns="http://www.w3.org/2000/svg" viewBox="0 0 500 500"><text transform="translate(103.15 108.65)" fill="#333" font-family="ComicNeue-Regular, &apos;Comic Neue&apos;" font-size="24"><tspan x="0" y="0">And it was a battle they won.</tspan></text><path d="M335.9,276.55c.2.02.37.12.56.16.25-.01.5-.06.76-.04l-1.31-.12Z" fill="#ce1126"/><path d="M353.02,242.44c-.04.08-.12.14-.16.22-.05.11-.07.24-.13.35l.29-.57Z" fill="#ce1126"/><path d="M348,304.19c0,.14-.06.27-.07.41.01.15.07.28.07.43v-.84Z" fill="#ce1126"/><path d="M359.24,348.77l.57-3.76c.25-1.65-.27-3.33-1.42-4.54-1.15-1.21-5.07-1.91-5.98-2.36l-3.2-1.61c-1.17-.58-2.09-1.57-2.59-2.77l-1.23-2.94c-.74-1.78-.49-3.82.67-5.36l.26-.35c1.82-3.78-7.36-8.26-5.35-12.56.66-1.42,1.96-2.45,3.48-2.86l-.46.12c2.25-.6,3.8-2.56,3.98-4.85-.08-1-.39-1.98-.98-2.79l-2.63-3.57c-.88-1.2-1.23-2.7-.97-4.17.26-1.46.7-4.74-.34-7.15l-1.62-3.78c-.29-.67-.43-1.4-.43-2.14v.97c0-2.61-1.88-4.76-4.4-5.26-1.8.09-3.46,1.01-4.4,2.58l-1.56,2.6c-1.4,2.34-6.28.12-5.43-2.55l2.67-8.39c.21-.65.53-1.25.97-1.78l9.14-11.21c1.04-1.28,1.44-2.97,1.1-4.59-.35-1.61,2.54-1.78,2.15-3.32-.38-1.53,3.1-5.36,5.26-4.87l.57.13c2.35.54,4.74-.56,5.93-2.65.12-.28.24-.56.31-.85l7.48-32.04c.34-1.48.05-3.04-.8-4.29-.85-1.26-2.19-2.11-3.7-2.33l-18.53-2.78c-.81-.12-1.59-.43-2.27-.9l-8.14-5.6c-.71-.48-1.51-.79-2.35-.91l-11.53-1.58c-.84-.11-1.64-.42-2.34-.9l-9.27-6.34c-1.18-.81-1.99-2.03-2.26-3.43l.03.15c-.5-2.54-4.52-4.1-5.37-3.6l.1-.06c-1.32.8-2.92.99-4.4.54-1.48-.46-2.69-1.52-3.33-2.92l-.28-.58c-.65-1.42-1.88-2.49-3.38-2.93l-2.73-.82c-.86-.26-1.65-.73-2.29-1.36l-4.16-4.17c-.42-.41-.76-.89-1.02-1.41l-1.11-2.21c-1.02-2.04-2.98-3.26-2.98-3.26-2.6.29-5.04-1.31-5.81-3.81l.27.87c-.84-2.75-3.68-4.36-6.48-3.69l-10.43,2.51c-1.95.47-3.48,1.98-3.99,3.92l-5.5,21c-.45,1.72-1.72,3.11-3.38,3.73l-11.99,4.44c-1.65.61-2.91,1.99-3.37,3.7l-.96,3.61c-.54,2-2.16,3.53-4.2,3.93l-5.08,1.01c-.78.16-1.6.14-2.39-.06l-8.64-2.16c-1.85-.46-3.33-1.86-3.88-3.68l-.61-1.97c-.64-2.08-2.45-3.57-4.61-3.81l-.63-.07c-.86-.09-1.75-.03-2.56.27-2.6.98-3.94,3.59-3.49,6.09l2.85,15.88c.22,1.24-2.23,1.38-2.85,3.45-.63,2.06-2.4,3.56-4.54,3.83l-8,.28c-1.41.08-2.79-.4-3.85-1.32l-6.24-5.41c-1.1-.94-2.52-1.42-3.95-1.31l-4.4.31c-1.48.1-2.85.81-3.79,1.94l.21-.24c-1.2,1.44-3.06,2.16-4.91,1.91l-5.67-.75c-.63-.09-1.27-.06-1.9.08l-4.33.97c-1.56.34-2.41,1.75-3.63,2.77-1.29,1.07-1.23,2.1-1.23,2.1.72,1.81,2.65,3.13,2.65,3.13,1.73.25,4.07,1.92,5.99,2.88,4.91,2.67-1.88,4.2-2.13,5.98-.25,1.77,1.7,3.39,3.01,4.6l1.95,1.8c.39.35.83.65,1.3.88l33.24,16.35c2.25,1.1,3.45,3.59,2.93,6.02l-.48,2.22c-.35,1.64.07,3.34,1.14,4.63l10.3,12.36c.54.64,1.21,1.15,1.98,1.49l.84.37c2.23.99,3.53,3.33,3.18,5.75l-1.02,7.16c-.2,1.41.16,2.85,1.01,4l6.82,9.25c.54.74.89,1.59,1.01,2.5l.89,6.53c.22,1.56.84,3.4,3.4,5.11,1.31.87.22,2.56.22,2.56-2.82,0-6.82-3.64-7.07-6.44l-.64-6.99c-.12-1.38-2.15-2.44-4.02-1.78-1.86.66-3.23,2.29-3.55,4.24l-1.23,7.36c-.23,1.36,1.11,7.24-.48,9.09l-.27.32c-.58.68-.99,1.49-1.18,2.36l-4.6,20.68c-.15.69-.44,1.34-.84,1.92l-2.39,3.45c-1.58,2.28-1.19,5.37.9,7.2l5.67,4.96c.6.53,1.31.91,2.09,1.14l31.39,8.97c2.01.58,4.18-.05,5.57-1.62l.49-.55c1.44-1.61,3.69-2.23,5.75-1.56l16.85,5.45c1,.32,1.88.93,2.54,1.74l3.13,3.82c1.03,1.26,2.57,1.99,4.2,1.99h11.99c2.94,0,5.35-2.34,5.44-5.28l.4-12.67c.05-1.61.81-3.13,2.09-4.12l10.84-8.49c1.19-.93,2.72-1.33,4.23-1.08l24.99,4.07.37.07,19.07,4.49c1.59.37,3.26.02,4.55-.97l17.98-13.75c1.12-.85,1.86-2.11,2.07-3.52Z" fill="#ce1126"/><path d="M375.48,386.19l-2.41-8.44c-.04-.16-.07-.33-.07-.5v-6.49c0-.54-.24-1.06-.66-1.4-.41-.34-.94-.47-1.46-.37-.67.15-1.19.65-1.36,1.31l-.84,3.34c-.1.43-.37.81-.73,1.06l-9.05,6.22c-.4.28-.67.71-.76,1.18l-1.69,9.56c-.06.37,0,.76.16,1.1l7.19,14.99c.16.32.4.59.71.77l4.36,2.61c.42.25.91.32,1.38.2.47-.12.87-.42,1.11-.84l3.33-5.7c.15-.26.23-.55.24-.85l.62-17.18c0-.19-.02-.38-.07-.57Z" fill="#ce1126"/><rect id="uuid-e3499c73-5b43-4fb7-a7df-eaa689cbfdb6" x="219" y="206" width="96" height="48" fill="#002369"/><path id="uuid-18294e21-c529-4f56-864a-9970dc86ea60" d="M219,206v5.37l85.27,42.63h10.73v-5.37l-85.27-42.63h-10.73ZM315,206v5.37l-85.27,42.63h-10.73v-5.37l85.27-42.63h10.73Z" fill="#fff"/><path id="uuid-e51c75b5-b8f3-4878-96a1-075a7739c603" d="M259,206v48h16v-48h-16ZM219,222v16h96v-16h-96Z" fill="#fff"/><path id="uuid-0d93ac9e-e07d-4b81-acf3-a74fda285e5a" d="M219,225v10h96v-10h-96ZM262,206v48h10v-48h-10Z" fill="#ce1126"/><path id="uuid-e122eaa2-6d37-4e50-a3b1-03e5182c5348" d="M218.79,254l32-16h7.16l-32,16h-7.16ZM219,205.96l32.08,16.04h-7.17l-24.91-12.45v-3.59ZM275.78,222l32-16h7.16l-32,16h-7.16ZM315,254.04l-32.08-16.04h7.17l24.91,12.45v3.59Z" fill="#ce1126"/><path d="M335.9,276.55c.2.02.37.12.56.16.25-.01.5-.06.76-.04l-1.31-.12Z" fill="none" stroke="#000" stroke-linecap="round" stroke-linejoin="round"/><path d="M353.02,242.44c-.04.08-.12.14-.16.22-.05.11-.07.24-.13.35l.29-.57Z" fill="none" stroke="#000" stroke-linecap="round" stroke-linejoin="round"/><path d="M348,304.19c0,.14-.06.27-.07.41.01.15.07.28.07.43v-.84Z" fill="none" stroke="#000" stroke-linecap="round" stroke-linejoin="round"/><path d="M359.24,348.77l.57-3.76c.25-1.65-.27-3.33-1.42-4.54-1.15-1.21-5.07-1.91-5.98-2.36l-3.2-1.61c-1.17-.58-2.09-1.57-2.59-2.77l-1.23-2.94c-.74-1.78-.49-3.82.67-5.36l.26-.35c1.82-3.78-7.36-8.26-5.35-12.56.66-1.42,1.96-2.45,3.48-2.86l-.46.12c2.25-.6,3.8-2.56,3.98-4.85-.08-1-.39-1.98-.98-2.79l-2.63-3.57c-.88-1.2-1.23-2.7-.97-4.17.26-1.46.7-4.74-.34-7.15l-1.62-3.78c-.29-.67-.43-1.4-.43-2.14v.97c0-2.61-1.88-4.76-4.4-5.26-1.8.09-3.46,1.01-4.4,2.58l-1.56,2.6c-1.4,2.34-6.28.12-5.43-2.55l2.67-8.39c.21-.65.53-1.25.97-1.78l9.14-11.21c1.04-1.28,1.44-2.97,1.1-4.59-.35-1.61,2.54-1.78,2.15-3.32-.38-1.53,3.1-5.36,5.26-4.87l.57.13c2.35.54,4.74-.56,5.93-2.65.12-.28.24-.56.31-.85l7.48-32.04c.34-1.48.05-3.04-.8-4.29-.85-1.26-2.19-2.11-3.7-2.33l-18.53-2.78c-.81-.12-1.59-.43-2.27-.9l-8.14-5.6c-.71-.48-1.51-.79-2.35-.91l-11.53-1.58c-.84-.11-1.64-.42-2.34-.9l-9.27-6.34c-1.18-.81-1.99-2.03-2.26-3.43l.03.15c-.5-2.54-4.52-4.1-5.37-3.6l.1-.06c-1.32.8-2.92.99-4.4.54-1.48-.46-2.69-1.52-3.33-2.92l-.28-.58c-.65-1.42-1.88-2.49-3.38-2.93l-2.73-.82c-.86-.26-1.65-.73-2.29-1.36l-4.16-4.17c-.42-.41-.76-.89-1.02-1.41l-1.11-2.21c-1.02-2.04-2.98-3.26-2.98-3.26-2.6.29-5.04-1.31-5.81-3.81l.27.87c-.84-2.75-3.68-4.36-6.48-3.69l-10.43,2.51c-1.95.47-3.48,1.98-3.99,3.92l-5.5,21c-.45,1.72-1.72,3.11-3.38,3.73l-11.99,4.44c-1.65.61-2.91,1.99-3.37,3.7l-.96,3.61c-.54,2-2.16,3.53-4.2,3.93l-5.08,1.01c-.78.16-1.6.14-2.39-.06l-8.64-2.16c-1.85-.46-3.33-1.86-3.88-3.68l-.61-1.97c-.64-2.08-2.45-3.57-4.61-3.81l-.63-.07c-.86-.09-1.75-.03-2.56.27-2.6.98-3.94,3.59-3.49,6.09l2.85,15.88c.22,1.24-2.23,1.38-2.85,3.45-.63,2.06-2.4,3.56-4.54,3.83l-8,.28c-1.41.08-2.79-.4-3.85-1.32l-6.24-5.41c-1.1-.94-2.52-1.42-3.95-1.31l-4.4.31c-1.48.1-2.85.81-3.79,1.94l.21-.24c-1.2,1.44-3.06,2.16-4.91,1.91l-5.67-.75c-.63-.09-1.27-.06-1.9.08l-4.33.97c-1.56.34-2.41,1.75-3.63,2.77-1.29,1.07-1.23,2.1-1.23,2.1.72,1.81,2.65,3.13,2.65,3.13,1.73.25,4.07,1.92,5.99,2.88,4.91,2.67-1.88,4.2-2.13,5.98-.25,1.77,1.7,3.39,3.01,4.6l1.95,1.8c.39.35.83.65,1.3.88l33.24,16.35c2.25,1.1,3.45,3.59,2.93,6.02l-.48,2.22c-.35,1.64.07,3.34,1.14,4.63l10.3,12.36c.54.64,1.21,1.15,1.98,1.49l.84.37c2.23.99,3.53,3.33,3.18,5.75l-1.02,7.16c-.2,1.41.16,2.85,1.01,4l6.82,9.25c.54.74.89,1.59,1.01,2.5l.89,6.53c.22,1.56.84,3.4,3.4,5.11,1.31.87.22,2.56.22,2.56-2.82,0-6.82-3.64-7.07-6.44l-.64-6.99c-.12-1.38-2.15-2.44-4.02-1.78-1.86.66-3.23,2.29-3.55,4.24l-1.23,7.36c-.23,1.36,1.11,7.24-.48,9.09l-.27.32c-.58.68-.99,1.49-1.18,2.36l-4.6,20.68c-.15.69-.44,1.34-.84,1.92l-2.39,3.45c-1.58,2.28-1.19,5.37.9,7.2l5.67,4.96c.6.53,1.31.91,2.09,1.14l31.39,8.97c2.01.58,4.18-.05,5.57-1.62l.49-.55c1.44-1.61,3.69-2.23,5.75-1.56l16.85,5.45c1,.32,1.88.93,2.54,1.74l3.13,3.82c1.03,1.26,2.57,1.99,4.2,1.99h11.99c2.94,0,5.35-2.34,5.44-5.28l.4-12.67c.05-1.61.81-3.13,2.09-4.12l10.84-8.49c1.19-.93,2.72-1.33,4.23-1.08l24.99,4.07.37.07,19.07,4.49c1.59.37,3.26.02,4.55-.97l17.98-13.75c1.12-.85,1.86-2.11,2.07-3.52Z" fill="none" stroke="#000" stroke-linecap="round" stroke-linejoin="round"/><path d="M375.48,386.19l-2.41-8.44c-.04-.16-.07-.33-.07-.5v-6.49c0-.54-.24-1.06-.66-1.4-.41-.34-.94-.47-1.46-.37-.67.15-1.19.65-1.36,1.31l-.84,3.34c-.1.43-.37.81-.73,1.06l-9.05,6.22c-.4.28-.67.71-.76,1.18l-1.69,9.56c-.06.37,0,.76.16,1.1l7.19,14.99c.16.32.4.59.71.77l4.36,2.61c.42.25.91.32,1.38.2.47-.12.87-.42,1.11-.84l3.33-5.7c.15-.26.23-.55.24-.85l.62-17.18c0-.19-.02-.38-.07-.57Z" fill="none" stroke="#000" stroke-linecap="round" stroke-linejoin="round"/><rect id="uuid-5d9eae65-7b52-465d-aec6-2f6d20b444b2" x="219" y="206" width="96" height="48" fill="none" stroke="#000" stroke-linecap="round" stroke-linejoin="round"/><path id="uuid-28f13dc0-83de-4733-b7fb-ae76d421569a" d="M219,206v5.37l85.27,42.63h10.73v-5.37l-85.27-42.63h-10.73ZM315,206v5.37l-85.27,42.63h-10.73v-5.37l85.27-42.63h10.73Z" fill="none" stroke="#000" stroke-linecap="round" stroke-linejoin="round"/><path id="uuid-fabededb-42db-4e9a-a896-f33c94af6aa1" d="M259,206v48h16v-48h-16ZM219,222v16h96v-16h-96Z" fill="none" stroke="#000" stroke-linecap="round" stroke-linejoin="round"/><path id="uuid-3096218d-5678-4bba-8ef7-1708fb1da753" d="M219,225v10h96v-10h-96ZM262,206v48h10v-48h-10Z" fill="none" stroke="#000" stroke-linecap="round" stroke-linejoin="round"/><path id="uuid-a6227be3-4ea1-4364-bd2e-154321ec67d3" d="M218.79,254l32-16h7.16l-32,16h-7.16ZM219,205.96l32.08,16.04h-7.17l-24.91-12.45v-3.59ZM275.78,222l32-16h7.16l-32,16h-7.16ZM315,254.04l-32.08-16.04h7.17l24.91,12.45v3.59Z" fill="none" stroke="#000" stroke-linecap="round" stroke-linejoin="round"/></svg>