<?xml version="1.0" encoding="UTF-8"?><svg id="uuid-799a084a-a86f-4032-9c7e-9729debb010f" xmlns="http://www.w3.org/2000/svg" viewBox="0 0 500 500"><text transform="translate(103.153564 108.647003)" fill="#333" font-family="ComicNeue-Regular, &apos;Comic Neue&apos;" font-size="24"><tspan x="0" y="0">And it was a battle they won.</tspan></text><path d="M335.902843,276.548114c.200658.017271.365767.121925.556781.161039.252981-.012697.500381-.060959.757951-.039115l-1.314732-.121925Z" fill="#ce1126"/><path d="M353.017133,242.437901c-.043688.082299-.117855.139195-.161543.217424-.04775.11329-.069594.239268-.125979.347984l.287522-.565409Z" fill="#ce1126"/><path d="M348,304.185802c0,.144273-.056897.274825-.069594.413516.013209.147823.069594.282964.069594.430787v-.844303Z" fill="#ce1126"/><path d="M359.244596,348.76547l.565928-3.764855c.251973-1.654081-.270267-3.329991-1.419378-4.543627-1.149111-1.214643-5.074998-1.910612-5.980276-2.363259l-3.202989-1.60582c-1.166894-.583199-2.089442-1.571775-2.58576-2.772713l-1.226782-2.941042c-.742583-1.780241-.487702-3.820516.670017-5.363362l.26112-.347984c1.819175-3.778064-7.355966-8.260716-5.353389-12.556943.661428-1.42344,1.958874-2.450635,3.481891-2.855004l-.461778.121917c2.2459-.600981,3.799908-2.563405,3.97821-4.848435-.082291-1.000777-.391672-1.975648-.983506-2.789984l-2.628441-3.573329c-.879356-1.196861-1.227341-2.70312-.966236-4.165674.26112-1.462043.695969-4.735649-.339349-7.146658l-1.619028-3.778064c-.287026-.674125-.434849-1.401085-.434849-2.140749v.966228c0-2.611674-1.884707-4.757501-4.3963-5.262455-1.797331.086872-3.464109,1.009924-4.404439,2.581187l-1.558566,2.598465c-1.401085,2.337353-6.284572.117855-5.431618-2.554777l2.672129-8.391284c.209293-.648219.530876-1.253766.966236-1.784633l9.140088-11.212251c1.03583-1.28323,1.444773-2.968294,1.096788-4.587314-.348496-1.614959,2.542073-1.78006,2.149888-3.316278-.383037-1.531645,3.098854-5.362032,5.257889-4.866209l.574563.13056c2.354624.544076,4.743788-.561859,5.932014-2.650789.117855-.278391.239772-.556774.309382-.848373l7.477371-32.042623c.339861-1.479829.052323-3.037891-.800615-4.291653-.852939-1.261893-2.193576-2.106201-3.699819-2.32871l-18.532645-2.780837c-.809251-.121921-1.593107-.426725-2.271821-.896127l-8.139357-5.59925c-.705116-.483114-1.505731-.791984-2.35005-.90527l-11.525687-1.575333c-.844303-.113286-1.644934-.422663-2.341911-.901208l-9.27016-6.341469c-1.175017-.805193-1.985291-2.032541-2.263682-3.430072l.026417.147831c-.504954-2.542074-4.518232-4.1042-5.371171-3.595175l.096011-.06096c-1.323367.800621-2.924598.992648-4.404935.539505-1.479825-.456699-2.689911-1.523517-3.333557-2.924604l-.278391-.583701c-.652793-1.418867-1.880133-2.489242-3.377245-2.933239l-2.733087-.822973c-.862086-.256545-1.645446-.72696-2.289588-1.36197l-4.161101-4.169732c-.417578-.413518-.757439-.892063-1.018559-1.414803l-1.114059-2.214917c-1.018559-2.041177-2.977433-3.255826-2.977433-3.255826-2.602023.291597-5.039945-1.305581-5.80602-3.808538l.270267.87479c-.844303-2.746293-3.682037-4.361251-6.476594-3.687124l-10.428395,2.511593c-1.949735.470416-3.481891,1.976152-3.986853,3.917252l-5.501731,20.996491c-.453143,1.7191-1.71504,3.107487-3.377237,3.725733l-11.986968,4.439484c-1.654073.613674-2.907335,1.993426-3.368601,3.699823l-.957593,3.612447c-.539503,2.002062-2.159035,3.525579-4.195642,3.934526l-5.083641,1.014493c-.783353.161039-1.60175.139195-2.385607-.056389l-8.635126-2.159035c-1.854227-.46127-3.325425-1.858293-3.882199-3.682045l-.609105-1.967009c-.635522-2.076229-2.446061-3.573329-4.605097-3.813109l-.625446-.067748c-.863669-.093553-1.750059-.034597-2.563185.271187-2.598129.97705-3.939162,3.591502-3.488121,6.090277l2.846369,15.877799c.217936,1.235984-2.228633,1.379241-2.846369,3.446834-.626883,2.06302-2.402881,3.564693-4.544134,3.830379l-7.999608.278391c-1.410232.078237-2.78541-.400819-3.847654-1.323363l-6.241392-5.405716c-1.096788-.944388-2.515659-1.419375-3.951796-1.314724l-4.404939.313439c-1.479829.10465-2.845863.809258-3.794823,1.941099l.208791-.243334c-1.200931,1.436141-3.055162,2.158528-4.909391,1.91062l-5.666832-.752869c-.626882-.086868-1.271037-.060962-1.897919.078233l-4.326198.966232c-1.558061.343415-2.411008,1.749581-3.62972,2.768136-1.288309,1.070371-1.227348,2.098077-1.227348,2.098077.722388,1.810539,2.646215,3.133395,2.646215,3.133395,1.732308.247911,4.065082,1.923829,5.989419,2.881422,4.909391,2.668059-1.880647,4.204277-2.132619,5.975702-.252988,1.771425,1.697256,3.386384,3.011473,4.600523l1.949736,1.801904c.391675.352558.827038.652793,1.297453.879364l33.243558,16.347704c2.245904,1.096788,3.447346,3.586537,2.925114,6.023452l-.477814,2.216606c-.352769,1.636515.067418,3.34432,1.139242,4.630329l10.298346,12.356285c.539503.640088,1.210078,1.149111,1.975648,1.488461l.835676.374402c2.228629.98808,3.525579,3.334564,3.177595,5.745573l-1.018559,7.163928c-.200154,1.410232.156977,2.846881,1.009924,4.000054l6.815951,9.248796c.539503.735595.887999,1.593107,1.009412,2.498385l.887999,6.528422c.217936,1.558054.844815,3.403662,3.403654,5.110051,1.305585.870225.217424,2.559343.217424,2.559343-2.820463,0-6.815951-3.638861-7.068428-6.441542l-.635522-6.989688c-.121925-1.37569-2.149888-2.441999-4.021394-1.784633-1.86287.661428-3.229406,2.285014-3.551485,4.238818l-1.227348,7.364601c-.234703,1.362482,1.105935,7.242173-.478545,9.091826l-.269755.318017c-.583195.67921-.992649,1.488461-1.184168,2.359197l-4.59595,20.682549c-.147831.687845-.435364,1.336064-.835672,1.915186l-2.393734,3.44735c-1.57584,2.280456-1.192803,5.374721.896127,7.198485l5.666832,4.962228c.600973.526302,1.314724.913913,2.089442,1.135903l31.385826,8.969405c2.012166.575035,4.175847-.053923,5.56619-1.618028l.487691-.548642c1.436137-1.614455,3.69068-2.228629,5.745069-1.562628l16.849907,5.450285c.997244.322569,1.88065.925197,2.544839,1.735998l3.125748,3.815718c1.032023,1.259829,2.574719,1.990318,4.203289,1.990318h11.986968c2.94238,0,5.353389-2.337353,5.440765-5.27516l.400308-12.665667c.052323-1.614951.809762-3.125271,2.089442-4.117413l10.837345-8.487295c1.192799-.931695,2.724452-1.327429,4.230695-1.084091l24.991011,4.070898.366724.072917,19.072667,4.487241c1.593107.374402,3.264459.017271,4.552773-.974871l17.975368-13.745185c1.120632-.851915,1.860289-2.114309,2.069597-3.515905Z" fill="#ce1126"/><path d="M375.480602,386.194604l-2.411009-8.439034c-.043176-.161543-.069594-.330714-.069594-.500381v-6.494377c0-.539511-.24385-1.057674-.661428-1.401085-.413516-.335287-.94033-.46584-1.463066-.374402-.666001.152396-1.188226.652793-1.357397,1.31422l-.835668,3.342688c-.104646.430787-.365767.809762-.731533,1.057674l-9.053208,6.219552c-.400308.278391-.670575.705116-.757439,1.184164l-1.688622,9.557666c-.060959.374402-.008635.756927.15697,1.101362l7.189834,14.985222c.15697.322079.400819.591834.705627.77471l4.360751,2.61117c.417578.252981.913913.322079,1.383814.200658.470413-.117855.870721-.41809,1.11457-.840242l3.325417-5.701885c.147823-.256547.234703-.552719.24385-.848381l.618251-17.183388c.00862-.191511-.017286-.383037-.070121-.565913Z" fill="#ce1126"/><rect id="uuid-40964aef-0ce0-463c-93a8-bf3fbf62d724" x="219" y="206" width="96" height="48" fill="#002369"/><path id="uuid-9ab4f202-9376-4a95-8e4a-bba2b074a6a9" d="M219,206v5.366561l85.266884,42.633439h10.733116v-5.366561l-85.266881-42.633439h-10.733119ZM315,206v5.366481l-85.266881,42.633519h-10.733119v-5.366722l85.266884-42.633278h10.733116Z" fill="#fff"/><path id="uuid-b6a69116-938f-4f24-8a80-46bc4fc8c952" d="M259,206v48h16v-48h-16ZM219,222v16h96v-16h-96Z" fill="#fff"/><path id="uuid-9b6cd264-78bf-48b2-b979-38679aba2694" d="M219,225v10h96v-10h-96ZM262,206v48h10v-48h-10Z" fill="#ce1126"/><path id="uuid-4a4a1835-c681-4b61-b1cc-e3bffc54e811" d="M218.79212,254l31.999997-16h7.155359l-31.999934,16h-7.155423ZM219,205.960621l32.078757,16.039379h-7.172971l-24.905787-12.452862v-3.586518ZM275.776663,222l31.999996-16h7.155357l-31.999996,16h-7.155357ZM315,254.03938l-32.078754-16.03938h7.172968l24.905786,12.452814v3.586566Z" fill="#ce1126"/><path d="M335.902843,276.548114c.200658.017271.365767.121925.556781.161039.252981-.012697.500381-.060959.757951-.039115l-1.314732-.121925Z" fill="none" stroke="#000" stroke-linecap="round" stroke-linejoin="round"/><path d="M353.017133,242.437901c-.043688.082299-.117855.139195-.161543.217424-.04775.11329-.069594.239268-.125979.347984l.287522-.565409Z" fill="none" stroke="#000" stroke-linecap="round" stroke-linejoin="round"/><path d="M348,304.185802c0,.144273-.056897.274825-.069594.413516.013209.147823.069594.282964.069594.430787v-.844303Z" fill="none" stroke="#000" stroke-linecap="round" stroke-linejoin="round"/><path d="M359.244596,348.76547l.565928-3.764855c.251973-1.654081-.270267-3.329991-1.419378-4.543627-1.149111-1.214643-5.074998-1.910612-5.980276-2.363259l-3.202989-1.60582c-1.166894-.583199-2.089442-1.571775-2.58576-2.772713l-1.226782-2.941042c-.742583-1.780241-.487702-3.820516.670017-5.363362l.26112-.347984c1.819175-3.778064-7.355966-8.260716-5.353389-12.556943.661428-1.42344,1.958874-2.450635,3.481891-2.855004l-.461778.121917c2.2459-.600981,3.799908-2.563405,3.97821-4.848435-.082291-1.000777-.391672-1.975648-.983506-2.789984l-2.628441-3.573329c-.879356-1.196861-1.227341-2.70312-.966236-4.165674.26112-1.462043.695969-4.735649-.339349-7.146658l-1.619028-3.778064c-.287026-.674125-.434849-1.401085-.434849-2.140749v.966228c0-2.611674-1.884707-4.757501-4.3963-5.262455-1.797331.086872-3.464109,1.009924-4.404439,2.581187l-1.558566,2.598465c-1.401085,2.337353-6.284572.117855-5.431618-2.554777l2.672129-8.391284c.209293-.648219.530876-1.253766.966236-1.784633l9.140088-11.212251c1.03583-1.28323,1.444773-2.968294,1.096788-4.587314-.348496-1.614959,2.542073-1.78006,2.149888-3.316278-.383037-1.531645,3.098854-5.362032,5.257889-4.866209l.574563.13056c2.354624.544076,4.743788-.561859,5.932014-2.650789.117855-.278391.239772-.556774.309382-.848373l7.477371-32.042623c.339861-1.479829.052323-3.037891-.800615-4.291653-.852939-1.261893-2.193576-2.106201-3.699819-2.32871l-18.532645-2.780837c-.809251-.121921-1.593107-.426725-2.271821-.896127l-8.139357-5.59925c-.705116-.483114-1.505731-.791984-2.35005-.90527l-11.525687-1.575333c-.844303-.113286-1.644934-.422663-2.341911-.901208l-9.27016-6.341469c-1.175017-.805193-1.985291-2.032541-2.263682-3.430072l.026417.147831c-.504954-2.542074-4.518232-4.1042-5.371171-3.595175l.096011-.06096c-1.323367.800621-2.924598.992648-4.404935.539505-1.479825-.456699-2.689911-1.523517-3.333557-2.924604l-.278391-.583701c-.652793-1.418867-1.880133-2.489242-3.377245-2.933239l-2.733087-.822973c-.862086-.256545-1.645446-.72696-2.289588-1.36197l-4.161101-4.169732c-.417578-.413518-.757439-.892063-1.018559-1.414803l-1.114059-2.214917c-1.018559-2.041177-2.977433-3.255826-2.977433-3.255826-2.602023.291597-5.039945-1.305581-5.80602-3.808538l.270267.87479c-.844303-2.746293-3.682037-4.361251-6.476594-3.687124l-10.428395,2.511593c-1.949735.470416-3.481891,1.976152-3.986853,3.917252l-5.501731,20.996491c-.453143,1.7191-1.71504,3.107487-3.377237,3.725733l-11.986968,4.439484c-1.654073.613674-2.907335,1.993426-3.368601,3.699823l-.957593,3.612447c-.539503,2.002062-2.159035,3.525579-4.195642,3.934526l-5.083641,1.014493c-.783353.161039-1.60175.139195-2.385607-.056389l-8.635126-2.159035c-1.854227-.46127-3.325425-1.858293-3.882199-3.682045l-.609105-1.967009c-.635522-2.076229-2.446061-3.573329-4.605097-3.813109l-.625446-.067748c-.863669-.093553-1.750059-.034597-2.563185.271187-2.598129.97705-3.939162,3.591502-3.488121,6.090277l2.846369,15.877799c.217936,1.235984-2.228633,1.379241-2.846369,3.446834-.626883,2.06302-2.402881,3.564693-4.544134,3.830379l-7.999608.278391c-1.410232.078237-2.78541-.400819-3.847654-1.323363l-6.241392-5.405716c-1.096788-.944388-2.515659-1.419375-3.951796-1.314724l-4.404939.313439c-1.479829.10465-2.845863.809258-3.794823,1.941099l.208791-.243334c-1.200931,1.436141-3.055162,2.158528-4.909391,1.91062l-5.666832-.752869c-.626882-.086868-1.271037-.060962-1.897919.078233l-4.326198.966232c-1.558061.343415-2.411008,1.749581-3.62972,2.768136-1.288309,1.070371-1.227348,2.098077-1.227348,2.098077.722388,1.810539,2.646215,3.133395,2.646215,3.133395,1.732308.247911,4.065082,1.923829,5.989419,2.881422,4.909391,2.668059-1.880647,4.204277-2.132619,5.975702-.252988,1.771425,1.697256,3.386384,3.011473,4.600523l1.949736,1.801904c.391675.352558.827038.652793,1.297453.879364l33.243558,16.347704c2.245904,1.096788,3.447346,3.586537,2.925114,6.023452l-.477814,2.216606c-.352769,1.636515.067418,3.34432,1.139242,4.630329l10.298346,12.356285c.539503.640088,1.210078,1.149111,1.975648,1.488461l.835676.374402c2.228629.98808,3.525579,3.334564,3.177595,5.745573l-1.018559,7.163928c-.200154,1.410232.156977,2.846881,1.009924,4.000054l6.815951,9.248796c.539503.735595.887999,1.593107,1.009412,2.498385l.887999,6.528422c.217936,1.558054.844815,3.403662,3.403654,5.110051,1.305585.870225.217424,2.559343.217424,2.559343-2.820463,0-6.815951-3.638861-7.068428-6.441542l-.635522-6.989688c-.121925-1.37569-2.149888-2.441999-4.021394-1.784633-1.86287.661428-3.229406,2.285014-3.551485,4.238818l-1.227348,7.364601c-.234703,1.362482,1.105935,7.242173-.478545,9.091826l-.269755.318017c-.583195.67921-.992649,1.488461-1.184168,2.359197l-4.59595,20.682549c-.147831.687845-.435364,1.336064-.835672,1.915186l-2.393734,3.44735c-1.57584,2.280456-1.192803,5.374721.896127,7.198485l5.666832,4.962228c.600973.526302,1.314724.913913,2.089442,1.135903l31.385826,8.969405c2.012166.575035,4.175847-.053923,5.56619-1.618028l.487691-.548642c1.436137-1.614455,3.69068-2.228629,5.745069-1.562628l16.849907,5.450285c.997244.322569,1.88065.925197,2.544839,1.735998l3.125748,3.815718c1.032023,1.259829,2.574719,1.990318,4.203289,1.990318h11.986968c2.94238,0,5.353389-2.337353,5.440765-5.27516l.400308-12.665667c.052323-1.614951.809762-3.125271,2.089442-4.117413l10.837345-8.487295c1.192799-.931695,2.724452-1.327429,4.230695-1.084091l24.991011,4.070898.366724.072917,19.072667,4.487241c1.593107.374402,3.264459.017271,4.552773-.974871l17.975368-13.745185c1.120632-.851915,1.860289-2.114309,2.069597-3.515905Z" fill="none" stroke="#000" stroke-linecap="round" stroke-linejoin="round"/><path d="M375.480602,386.194604l-2.411009-8.439034c-.043176-.161543-.069594-.330714-.069594-.500381v-6.494377c0-.539511-.24385-1.057674-.661428-1.401085-.413516-.335287-.94033-.46584-1.463066-.374402-.666001.152396-1.188226.652793-1.357397,1.31422l-.835668,3.342688c-.104646.430787-.365767.809762-.731533,1.057674l-9.053208,6.219552c-.400308.278391-.670575.705116-.757439,1.184164l-1.688622,9.557666c-.060959.374402-.008635.756927.15697,1.101362l7.189834,14.985222c.15697.322079.400819.591834.705627.77471l4.360751,2.61117c.417578.252981.913913.322079,1.383814.200658.470413-.117855.870721-.41809,1.11457-.840242l3.325417-5.701885c.147823-.256547.234703-.552719.24385-.848381l.618251-17.183388c.00862-.191511-.017286-.383037-.070121-.565913Z" fill="none" stroke="#000" stroke-linecap="round" stroke-linejoin="round"/><rect id="uuid-35e6f3a2-818d-423e-ad3f-c5d65af36669" x="219" y="206" width="96" height="48" fill="none" stroke="#000" stroke-linecap="round" stroke-linejoin="round"/><path id="uuid-3ffe086d-ebae-476c-8313-f3f67920d10f" d="M219,206v5.366561l85.266884,42.633439h10.733116v-5.366561l-85.266881-42.633439h-10.733119ZM315,206v5.366481l-85.266881,42.633519h-10.733119v-5.366722l85.266884-42.633278h10.733116Z" fill="none" stroke="#000" stroke-linecap="round" stroke-linejoin="round"/><path id="uuid-12c4d925-dbae-45b4-a64b-d1c2ed174a6b" d="M259,206v48h16v-48h-16ZM219,222v16h96v-16h-96Z" fill="none" stroke="#000" stroke-linecap="round" stroke-linejoin="round"/><path id="uuid-2317fd13-fba7-49f3-9015-98637fd261ec" d="M219,225v10h96v-10h-96ZM262,206v48h10v-48h-10Z" fill="none" stroke="#000" stroke-linecap="round" stroke-linejoin="round"/><path id="uuid-565dea45-0bb6-459c-b1a3-5d762c9f779f" d="M218.79212,254l31.999997-16h7.155359l-31.999934,16h-7.155423ZM219,205.960621l32.078757,16.039379h-7.172971l-24.905787-12.452862v-3.586518ZM275.776663,222l31.999996-16h7.155357l-31.999996,16h-7.155357ZM315,254.03938l-32.078754-16.03938h7.172968l24.905786,12.452814v3.586566Z" fill="none" stroke="#000" stroke-linecap="round" stroke-linejoin="round"/></svg>