<?xml version="1.0" encoding="UTF-8"?><svg id="uuid-8c855a25-8729-43e0-92d6-6e9547d00c46" xmlns="http://www.w3.org/2000/svg" xmlns:xlink="http://www.w3.org/1999/xlink" viewBox="0 0 500 500"><defs><radialGradient id="uuid-977cf6a9-b73c-4d35-a549-143a25920cc1" cx="-301.76" cy="-563.87" fx="-301.76" fy="-563.87" r="9.8" gradientTransform="translate(-364.27 508.76) rotate(90.16) scale(1 1.04)" gradientUnits="userSpaceOnUse"><stop offset=".4" stop-color="#af0d1a"/><stop offset=".53" stop-color="#ab0c19"/><stop offset=".67" stop-color="#9f0b17"/><stop offset=".8" stop-color="#8a0813"/><stop offset=".94" stop-color="#6e050d"/><stop offset=".96" stop-color="#68040c"/></radialGradient></defs><path d="M161,327.56l.76,22.15c0,1.67,1.11,2.78,3.66,2.78s3.68-1.12,3.68-2.76l.83-23.89-8.92,1.73h0Z" fill="#9e5737"/><polygon points="168.94 243 160 243 159.92 281.66 169 280.09 168.94 243" fill="#9e5737"/><path d="M163.73,217.65c-1.35.2-54.31,8-54.31,8-2.17.42-3.94,2.4-3.96,4.94l.03,1.09,5.88,6.93s16.76,13.54,18.01,13.3,44.2-31.27,44.2-31.27c-.81-.98-1.64-1.43-5.18-2.34-1.67-.43-3.32-.84-4.67-.65Z" fill="#f0aa6b"/><path d="M111.81,263l-.56-28.85c.01-2.51-.65-3.56-1.99-4.31-1.46-.88-3.27.25-3.26,2.06l.1,27.9c0,.86-.1,3.2,1.54,3.77l3.36,1.04v26.02l9-1.74v-25.89h-8.19Z" fill="#9e5737"/><path d="M149,318.45v-8.48c-3.39.42-5.02-.11-5.02-.11l-36.98-17.54v4.66c0,2.03,0,3.34,2.97,4.78l.48.24,1.87,60.2c.01,1.67,1.28,2.78,3.81,2.78s3.8-1.12,3.8-2.76l1.46-43.23,20.19,9.97-.5-10.85c2.47,1.21,5.2.72,7.92.36v-.02Z" fill="#9e5737"/><path d="M141.71,317.5l2.06,64.31c0,1.67,1.2,2.78,3.72,2.78s3.75-1.12,3.75-2.76l1.74-51.8,41.99-8.14,1.48,47.44c0,1.67,1.24,2.78,3.76,2.78s3.71-1.12,3.71-2.76l2.1-61.34h0l1.01-.19c1.71-.33,2.95-1.82,2.95-3.56v-5.43l-3.32,1.8-58.45,11.35c-1.3.29-2.23.06-2.23,1.39v5.55l-4.29-1.4v-.02Z" fill="#ba793e"/><path d="M208.3,300.1l-58.68,11.24c-2.67.5-5.43.14-7.87-1.08l-33.41-16.58c-1.57-.79-1.29-3.35,1.02-3.69l59.04-10.04c2.34-.45,4.81-.5,6.96.55l33.44,15.89c1.7.84,1.36,3.35-.5,3.72h0Z" fill="#f0aa6b"/><path d="M170.49,220.49l-56.68,8.41c-2.46.59-2.81,2.54-2.81,3.92l.11,29.58c0,1.8,1.77,2.35,3.54,2.01l56.93-9.14c1.35-.27,2.4-1.88,2.42-3.97l-.11-29.58c0-1.8-1.69-1.46-3.4-1.22h0Z" fill="#ba793e"/><path d="M322.45,330.83l.83,23.89c0,1.64,1.12,2.76,3.68,2.76s3.65-1.11,3.66-2.78l.76-22.15-8.92-1.73h0Z" fill="#9e5737"/><polygon points="323.94 285.09 333 286.66 332.92 248 324 248 323.94 285.09" fill="#9e5737"/><path d="M323.96,223.3c-3.53.91-4.36,1.36-5.18,2.34,0,0,42.95,31.03,44.2,31.27s18.01-13.3,18.01-13.3l5.88-6.93.03-1.09c-.01-2.54-1.78-4.52-3.96-4.94,0,0-52.97-7.8-54.31-8s-3,.21-4.67.65h0Z" fill="#f0aa6b"/><path d="M373,268v25.89l9,1.74v-26.02l3.43-1.04c1.68-.58,1.57-2.92,1.57-3.77l.11-27.9c.01-1.81-1.84-2.95-3.32-2.06-1.37.74-2.05,1.8-2.03,4.31l-.57,28.85h-8.19Z" fill="#9e5737"/><path d="M350.92,323.09l-.5,10.85,20.19-9.97,1.46,43.23c0,1.64,1.25,2.76,3.8,2.76s3.8-1.11,3.81-2.78l1.87-60.2.48-.24c2.97-1.44,2.97-2.75,2.97-4.78v-4.66l-36.98,17.54s-1.63.53-5.02.11v8.48c2.72.35,5.46.84,7.92-.36v.02Z" fill="#9e5737"/><path d="M347,323.9v-5.55c0-1.33-.93-1.09-2.23-1.39l-58.45-11.35-3.32-1.8v5.43c0,1.74,1.24,3.24,2.95,3.56l1.01.19h.01l2.1,61.34c0,1.64,1.17,2.76,3.71,2.76s3.75-1.11,3.76-2.78l1.48-47.44,41.99,8.14,1.74,51.8c0,1.64,1.21,2.76,3.75,2.76s3.71-1.11,3.72-2.78l2.06-64.31-4.29,1.4v.02Z" fill="#ba793e"/><path d="M283.57,301.39l33.44-15.89c2.15-1.05,4.61-1,6.96-.55l59.04,10.04c2.31.34,2.6,2.9,1.02,3.69l-33.41,16.58c-2.44,1.22-5.2,1.59-7.87,1.08l-58.68-11.24c-1.87-.36-2.2-2.88-.5-3.72h0Z" fill="#f0aa6b"/><path d="M318,226.64l-.11,29.68c.01,2.1,1.07,3.72,2.42,3.99l57.14,9.18c1.78.34,3.55-.21,3.55-2.02l.11-29.68c0-1.38-.35-3.34-2.82-3.93l-56.88-8.44c-1.72-.24-3.4-.58-3.41,1.23h0Z" fill="#ba793e"/><polygon id="uuid-1064b7de-c1ed-4286-9b97-4fcb0bf19546" points="210.94 323 193.28 329.22 204.1 359.92 206.28 366.11 232.77 356.77 230.59 350.58 221.76 353.7 210.94 323" fill="#5f4d2f"/><rect id="uuid-fd219183-ca37-407f-b882-a30b774a7eba" x="175.78" y="290.53" width="23.32" height="46.03" transform="translate(-164.76 216.61) rotate(-43.74)" fill="#726038"/><polygon id="uuid-142b567a-8930-4d91-b00c-011623dfbb1e" points="154.67 334.29 173.58 332.43 176.82 365.27 185.78 364.39 186.37 370.36 158.5 373.11 157.86 366.6 157.86 366.6 154.67 334.29" fill="#5f4d2f"/><rect id="uuid-b2f33828-16d2-49cf-9dc3-5cc7e6fcf28e" x="142.53" y="295.82" width="23" height="46" transform="translate(-141.39 123.63) rotate(-30.76)" fill="#726038"/><path id="uuid-852985ee-c037-4db5-ae38-5bdc96f8fafe" d="M132,212v94h52v-94h-52Z" fill="#726038"/><rect id="uuid-6ce28b25-ccdc-48de-8852-0621a9a6672f" x="132" y="267" width="52" height="16" fill="#ac935a"/><rect id="uuid-2de9fcc1-f00d-4703-bb0b-06ce196631ca" x="170" y="212" width="6" height="55" fill="#ac935a"/><rect id="uuid-3f95f2a7-858a-49a9-83e4-170133df06de" x="141" y="212" width="6" height="55" fill="#ac935a"/><path id="uuid-870551b5-eb70-4941-bff5-b5e857f9133e" d="M184.18,196.98c1.37-5.18,1.87-10.92,1.29-16.88-2.03-20.59-16.2-36.04-31.64-34.52-15.44,1.52-26.31,19.45-24.28,40.04.59,5.96,2.2,11.49,4.56,16.3l50.07-4.94Z" fill="#eec6a2"/><path id="uuid-3b114097-2fba-4a76-a9ff-7d63b94ae441" d="M135.02,206c4.99,10.43,13.74,17.36,23.7,17.36s18.71-6.93,23.7-17.36h-47.4,0Z" fill="#eec6a2"/><ellipse id="uuid-126268a1-fc32-49e8-b310-a83e75828595" cx="176" cy="185" rx="3" ry="4" fill="#333"/><ellipse id="uuid-bda7f388-3afe-4207-8bb7-562e0d0b8178" cx="161" cy="187" rx="3" ry="4" fill="#333"/><rect id="uuid-35704396-39f3-42f9-92b9-c312a860956c" x="186.04" y="232.06" width="29.97" height="14.05" transform="translate(-106.45 184.03) rotate(-39.79)" fill="#726038"/><rect id="uuid-2be0b27d-308b-40bb-8feb-087ec1d50808" x="183.78" y="211.9" width="14.05" height="29.97" transform="translate(-21.34 19.81) rotate(-5.63)" fill="#726038"/><rect id="uuid-df40b91c-3d86-473a-8ef2-ad2f44e62704" x="111.15" y="218.85" width="29.97" height="14.05" transform="translate(-119.22 307.91) rotate(-79.31)" fill="#726038"/><rect id="uuid-b719d136-c684-4108-b207-fd21a0641b6c" x="101.51" y="243.33" width="29.97" height="14.05" transform="translate(-158.55 225.92) rotate(-59.97)" fill="#726038"/><rect id="uuid-83809fd3-6b5c-4928-9b9f-9bd427adfa19" x="209.89" y="218.13" width="14.98" height="14.98" transform="translate(-94.05 191.37) rotate(-39.79)" fill="#eec6a2"/><rect id="uuid-0a9e607d-9e02-4b6f-b71c-31751f2a6e18" x="97.71" y="262.39" width="14.98" height="14.98" transform="translate(-181.1 225.89) rotate(-59.97)" fill="#eec6a2"/><circle id="uuid-fbdc08cc-bcc5-432c-913b-e09d9d9a63b0" cx="158" cy="256" r="2" fill="#333"/><circle id="uuid-1c414402-4b06-4300-9c7d-120e3dd60a72" cx="158" cy="248" r="2" fill="#333"/><circle id="uuid-a40a4893-df78-40fc-b936-083dd14e5603" cx="158" cy="241" r="2" fill="#333"/><circle id="uuid-01ca0eaf-d674-4f8d-b6e7-9487bb157927" cx="158" cy="232" r="2" fill="#333"/><path d="M186.63,158.2c-2.97-12.85-17.31-21.67-33.53-20.07s-28.57,13.05-28.97,26.24c-5.34,1.31-8.5,2.61-8.39,3.68.25,2.51,18.32,2.78,40.37.6s39.72-5.97,39.47-8.48c-.11-1.07-3.45-1.73-8.95-1.97h0Z" fill="#596a66"/><g id="uuid-84a8e6f7-1bce-4768-837f-3850e4ec01bc"><polygon id="uuid-75341787-7c6a-4500-a20b-124be9c2d9ed" points="281.02 323.47 298.69 329.69 287.87 360.39 285.69 366.58 259.19 357.24 261.37 351.05 270.2 354.17 281.02 323.47" fill="#4f4f4f"/><rect id="uuid-290a60ae-4248-462b-bff8-743f61d35a17" x="281.51" y="302.34" width="46.03" height="23.32" transform="translate(-132.88 316.92) rotate(-46.26)" fill="#616161"/><polygon id="uuid-dd8b3a6e-3871-4ed9-89b2-b4352087fda6" points="352.96 326.82 367.81 338.67 347.23 364.47 354.26 370.08 350.52 374.77 328.63 357.31 332.71 352.2 332.71 352.2 352.96 326.82" fill="#4f4f4f"/><rect id="uuid-eef8f826-bd63-4661-ad3c-d5659668e585" x="348.74" y="294.3" width="23" height="46" transform="translate(-111.6 228.88) rotate(-30.76)" fill="#616161"/><path id="uuid-ad467601-9cac-4567-a2d1-6bb4d45da153" d="M308,212v94h52v-94h-52Z" fill="#616161"/><rect id="uuid-6bf48193-e04d-431f-aef9-fed21815f856" x="308" y="267" width="52" height="16" fill="#949494"/><rect id="uuid-7e69a5e0-cfd3-4ed3-8bbd-39ab64ee5379" x="316" y="212" width="6" height="55" fill="#949494"/><rect id="uuid-80adf840-a9d3-4db4-aee8-0168369a8a98" x="345" y="212" width="6" height="55" fill="#949494"/><path id="uuid-718437c9-2d99-4c7f-92df-bcdb63f68d1d" d="M307.78,197.45c-1.37-5.18-1.87-10.92-1.29-16.88,2.03-20.59,16.2-36.04,31.64-34.52,15.44,1.52,26.31,19.45,24.28,40.04-.59,5.96-2.2,11.49-4.56,16.3l-50.07-4.94Z" fill="#cecece"/><path id="uuid-cda300f6-0367-4dc9-8aff-3fda131c35f6" d="M356.94,206c-4.99,10.43-13.74,17.36-23.7,17.36s-18.71-6.93-23.7-17.36h47.4Z" fill="#cecece"/><ellipse id="uuid-35776420-3a65-407a-97d0-e9d2401f9fe8" cx="316" cy="185" rx="3" ry="4" fill="#333"/><ellipse id="uuid-c3963113-4840-494f-a219-6f41c21141c0" cx="331" cy="187" rx="3" ry="4" fill="#333"/><rect id="uuid-2a344536-7339-434b-88fc-9890c91afaf9" x="282.91" y="223.6" width="14.05" height="29.97" transform="translate(-78.94 308.68) rotate(-50.21)" fill="#616161"/><rect id="uuid-4c540985-df0f-4134-b5e5-c00058d0582d" x="285.14" y="220.29" width="29.97" height="14.05" transform="translate(44.46 503.69) rotate(-84.37)" fill="#616161"/><rect id="uuid-bb003030-a094-4544-b85a-3c680c6d6c1a" x="359.82" y="212.34" width="14.05" height="29.97" transform="translate(-17.26 30.55) rotate(-4.66)" fill="#616161"/><rect id="uuid-59fb1e5b-8b95-4e3b-89c7-d2dde0a5548b" x="362.61" y="230.69" width="29.97" height="14.05" transform="translate(-62.58 310.72) rotate(-41.61)" fill="#616161"/><rect id="uuid-6e06d60e-eba8-4d9a-af1e-f8cb2a6275a8" x="265.09" y="216.64" width="14.98" height="14.98" transform="translate(-74.08 290.14) rotate(-50.21)" fill="#cecece"/><rect id="uuid-8ff010cc-54ba-4829-9289-f06e913b3377" x="386.96" y="215.25" width="14.98" height="14.98" transform="translate(-48.39 318.14) rotate(-41.61)" fill="#cecece"/><circle id="uuid-3e3dfc0f-970f-48fe-a3be-3824d2bff385" cx="334" cy="256" r="2" fill="#333"/><circle id="uuid-bf6dd37f-da9c-4391-a3fe-a5915c5249af" cx="334" cy="248" r="2" fill="#333"/><circle id="uuid-d6f0fce3-aa01-4d46-aa48-ee8e1d8e365b" cx="334" cy="241" r="2" fill="#333"/><circle id="uuid-d359e4a8-f829-4a57-bf2f-a7622f3146e8" cx="334" cy="232" r="2" fill="#333"/><path d="M305.33,158.67c2.97-12.85,17.31-21.67,33.53-20.07s28.57,13.05,28.97,26.24c5.34,1.31,8.5,2.61,8.39,3.68-.25,2.51-18.32,2.78-40.37.6s-39.72-5.97-39.47-8.48c.11-1.07,3.45-1.73,8.95-1.97h0Z" fill="#646464"/></g><path d="M217.41,193.93l4.19,2.53,6.27.19,3.89-2.52.55,1.64s2.45,7.31,2.26,11.4c-.17,3.83-.6,7.22-3.78,10.28-2.4,2.3-4.8,2.5-4.8,2.5l.05,7.82s3.14.16,4.98,1.48c1.67,1.2,1.94,2.35,1.94,3.12s-.65,4.7-8.49,4.6c-7.84-.1-8.31-4.35-8.31-5.11s.74-2.24,2.95-3.17c2.08-.87,3.88-.77,3.88-.77v-8.12s-2.91-.82-5.12-3.17c-1.37-1.45-3.65-4.75-3.32-10.12.28-4.71,2.86-12.58,2.86-12.58Z" fill="#fff" isolation="isolate" opacity=".5"/><path d="M217.03,193.93l1.84-1.69,2.86-1.24h6.6l3.02,1.65,1.59,1.48.61,1.64s2.71,7.31,2.5,11.4c-.19,3.83-.66,7.22-4.19,10.28-2.66,2.3-5.32,2.5-5.86,2.5v7.81c.57,0,4.07.4,6.11,1.73,1.85,1.2,2.15,2.12,2.15,2.89s-.72,4.7-9.41,4.6c-8.69-.1-9.2-4.35-9.2-5.11s.82-2.24,3.27-3.17c2.3-.87,4.27-.93,4.07-.93v-7.96c.22,0-3-.82-5.45-3.17-1.52-1.45-4.04-4.75-3.68-10.12.31-4.71,3.17-12.58,3.17-12.58h0Z" fill="#e0e0e0" isolation="isolate" opacity=".7"/><path d="M222.95,219.98c-.11-.03-2.62-.64-4.33-1.98-3.32-2.6-4.89-5.46-5.09-9.29-.12-2.26.81-6.09,1.47-8.78.67-2.74,1.49-4.78,1.5-4.81,0,0,.11-.31.22-.25.24.12,0,1.2,0,1.2-.19.69-.36,1.34-1.02,4.04-.65,2.64-1.5,6.4-1.38,8.55.19,3.58,1.67,6.27,4.8,8.72,1.59,1.24,3.61,1.73,3.88,1.86s.63.19.58.55-.62.18-.62.18h-.01Z" fill="#d4d4d4"/><path d="M226.84,220.08c-.29.03-.57-.02-.6-.31-.03-.35.4-.37.4-.37.29-.1,1.76-.22,3.21-1.1,4.1-2.46,6.08-6.32,5.83-11.32-.36-6.9-3.06-12.15-3.09-12.2l.51-.75c.03.05,2.99,5.85,3.35,12.91.28,5.31-1.71,9.42-6.07,12.03-1.59.95-3.4,1.08-3.55,1.1h.01Z" fill="#9e9e9e"/><path d="M225.48,197.84h-.29c-3.41-.05-6.33-1.01-7.74-2.38-.5-.48-.57-.82-.6-1.36-.05-.92,1.04-3.21,8.17-3.18,4.7.02,8.18,1.48,8.2,3.3,0,.55-.09,1-.61,1.52-1.34,1.31-3.99,2.09-7.12,2.09h0ZM224.67,192c-4.67.04-6.67,1.33-6.65,2.16,0,.21.02.33.28.6.93.97,3.43,1.97,6.92,2.02h0c3.47.06,5.68-.87,6.58-1.76.29-.28.44-.38.44-.6,0-.88-1.89-2.3-6.88-2.41h-.69Z" fill="#c8c8c8"/><path d="M225.56,196.99c-.31,0-.64,0-.98-.03-5.43-.29-6.48-2.46-6.53-2.56-.09-.19-.14-.57,0-.61.2-.06.3.12.5.3.33.3,1.5,1.87,6.41,1.99,4.81.11,6.35-1.35,6.64-1.61.21-.19.44-.6.62-.48s.09.58-.02.76c-.16.28-1.38,2.24-6.64,2.24h0Z" fill="#fff"/><path d="M224.96,220.25c-.83,0-.66.64-.71,4.89-.03,3.39.32,4,.67,4.03.35.03.67-.22.67-3.81,0-4.16.13-5.12-.64-5.12h.01Z" fill="#9e9e9e"/><path d="M226.25,228.13c-.32.03.03.72-.4,1.27-.34.43-.98.69-.95,1.18.03.49,2.54.17,2.54-.75,0-.36-.26-.61-.52-.95s-.5-.76-.66-.75h0Z" fill="#fff"/><path d="M220.45,231.62s1.1,1.48,4.51,1.51c3.44.03,4.28-1.01,4.41-1.42.09-.31-1.07-1.93-1.21-1.91-.14.03-.52,1.54-3.18,1.44-2.66-.1-2.73-1.14-2.94-1.34-.17-.16-1.59,1.71-1.59,1.71h0Z" fill="#9e9e9e"/><path d="M217.27,230.9c-.86.11-.9,1.11-.35,2.02,1.12,1.85,4.86,3.11,5.05,2.11.17-.9-1.79-1.12-1.59-2.63.14-1.1,2.11-2.11,1.56-2.69s-1.38.78-2.51,1.04c-.98.23-1.5.06-2.16.15h0Z" fill="#fff"/><path d="M229.74,229.43c-.48.38.95.78.9,1.96-.06,1.18-1.24,1.69-1.01,2.02.35.49,2.38-.55,2.31-2.17-.06-1.32-1.76-2.16-2.19-1.81h0Z" fill="#cacaca"/><path d="M229.22,234.89c.17.55,2.47.31,3.55-1.24,1.12-1.62.35-2.97-.09-2.83-.43.14.17,1.16-.92,2.22-1.1,1.07-2.74,1.24-2.54,1.85h0Z" fill="#fff"/><path d="M215.66,231.81c-.1-.09-.28.82.02,1.57.26.64,1.59,3.95,9.56,4.01,8.86.07,9.32-3.73,9.2-4.8-.07-.7-.21-.94-.28-.94s-.14.62-.19.96c-.19,1.05-1.23,3.71-8.59,3.77-6.7.05-8.66-2.69-9.01-3.18-.24-.35-.66-1.35-.72-1.4h0Z" fill="#9e9e9e"/><path d="M215.07,207.91l1.19,3.24,4.37,2.35,5.59,1.05,5.56-4.83,1.95-2.88s-1.92-.81-4.08-1.13c-3.37-.5-6.24-.62-9.61,0-4.14.77-4.96,2.18-4.96,2.18v.02Z" fill="#cc1935"/><path d="M222.7,212.8c3.9.13,4.43-2.15,7.61-4.4,3.18-2.25,4.46-1.59,4.46-1.59,0,0,1.07,4.83-2.61,8.66-3.21,3.34-9.08,4.34-13.72.41-3.44-2.91-3.38-7.99-3.38-7.99,0,0,2.71,4.73,7.64,4.89v.02Z" fill="url(#uuid-977cf6a9-b73c-4d35-a549-143a25920cc1)"/><path d="M217.71,197.12s-.55,1.54-1.24,4.63c-.59,2.65-.84,4.34-.84,4.34,0,0,1.25-.62,2.64-.98,1.26-.33,2.35-.26,2.35-.26,0,0-.03-2.02.13-3.48.14-1.2.43-2.75.43-2.75,0,0-1.09-.26-1.76-.56-.66-.3-1.72-.93-1.72-.93h0Z" fill="#fff"/><path d="M272.73,212.23c.05.17,9.3-1.52,9.3-1.52l5.75-8.46-6.69-.79-8.83-5.58-3.35-4.68-4.3,9.08s8.08,11.79,8.12,11.95Z" fill="#fff" isolation="isolate" opacity=".5"/><path d="M280.84,191.39l-4.85-2.21-4.18-.75-3.1.9-11.97,25.53-1.81,3.04s.62,4.6,6.42,7.95c5.8,3.35,10.29,2.08,10.29,2.08l1.78-3.16,15.93-23.19-.23-2.76-4.24-4.66-4.04-2.77h0Z" fill="#e0e0e0" isolation="isolate" opacity=".7"/><path d="M264.49,203.82l.12-2.24s.28-.52.53-.79,1.6-1.4,5.42-.11c3.03,1.02,6.44,3.07,8.55,5.19,1.43,1.44,2.57,3.3,2.28,4.33-.33,1.17-1.03,1.34-1.03,1.34l-3.27,1.73-12.32-7.34-.28-2.12h0Z" fill="#fcf9e9"/><path d="M257.3,216.32c-.11.44.39,3.63,5.16,6.38,4.77,2.76,7.91,2.21,8.19,1.84s9.59-13.38,9.59-13.38c0,0-3.43,1.42-9.59-2.3s-6.68-7.28-6.68-7.28c0,0-6.55,14.28-6.66,14.75h-.01Z" fill="#f0e7ba"/><path d="M269.5,197.27c-.71-.35-1.37-.03-1.85,1.13-.33.78-.59,1.67.43,2.14,1.03.47,1.65-.53,1.88-1.18.34-.96.33-1.7-.46-2.09h0Z" fill="#fff"/><path d="M267.81,200.96c-.69-.33-1.13-.06-1.72,1.18-.78,1.63-5.64,11.88-6.06,12.77-.42.89-.22,1.42.3,1.72s1.24.03,1.56-.58c.32-.6,5.86-12.26,6.16-12.94.3-.68.73-1.69-.23-2.15h0Z" fill="#fff"/><path d="M256.59,217.15c-.49.4-.42,1.84.54,3.32,1.06,1.65,2.82,2.51,3.22,1.89.42-.65-.73-1.08-1.87-2.75-.94-1.38-1.11-3.09-1.89-2.46Z" fill="#fff"/><path d="M262.86,224.82c-.35.47,2.34,1.79,4.72,2.26,2.71.53,4.01-.19,3.96-.72s-1.13.15-3.78-.41c-3.67-.79-4.37-1.83-4.9-1.12h0Z" fill="#d5d5d5"/><path d="M276.8,199.99l-.21-.12c-6.48-3.8-7.93-6.91-8.19-8.47-.17-1.02.08-1.87.64-2.52v-.02c1.8-1.57,6.48-1.18,12.49,2.26,6.76,3.88,8.85,8.26,8.08,9.98-.25.55-.87,1.41-2.12,1.77-2.27.66-6.18-.27-10.68-2.87h-.01ZM270.28,189.91c-.37.43-.61.8-.49,1.53.19,1.12,1.04,3.68,7.39,7.41l.21.12c5.72,3.3,8.27,3.1,9.52,2.7.7-.22,1.11-.54,1.35-1.07.5-1.13-1.14-4.81-7.31-8.33-6.57-3.75-9.76-3.38-10.62-2.38l-.05.02h0Z" fill="#c8c8c8"/><path d="M271.75,189.2c-.05-.21-.57-.4-1.21-.17-.57.2-1.49.75-1.35,2.05.14,1.31,1.24,4.24,8.03,8.28,6.14,3.66,10.32,3.26,11.23,1.88s0-1.85-.11-1.66-.16.7-.49,1.14c-.39.51-3.12,2.07-10.31-2.07-6.89-3.96-7.85-7.49-7.42-8.19.67-1.08,1.75-.8,1.64-1.27h-.01Z" fill="#fff"/><path d="M161,327.56l.76,22.15c0,1.67,1.11,2.78,3.66,2.78s3.68-1.12,3.68-2.76l.83-23.89-8.92,1.73h0Z" fill="none" stroke="#000" stroke-linecap="round" stroke-linejoin="round"/><polygon points="168.94 243 160 243 159.92 281.66 169 280.09 168.94 243" fill="none" stroke="#000" stroke-linecap="round" stroke-linejoin="round"/><path d="M163.73,217.65c-1.35.2-54.31,8-54.31,8-2.17.42-3.94,2.4-3.96,4.94l.03,1.09,5.88,6.93s16.76,13.54,18.01,13.3,44.2-31.27,44.2-31.27c-.81-.98-1.64-1.43-5.18-2.34-1.67-.43-3.32-.84-4.67-.65Z" fill="none" stroke="#000" stroke-linecap="round" stroke-linejoin="round"/><path d="M111.81,263l-.56-28.85c.01-2.51-.65-3.56-1.99-4.31-1.46-.88-3.27.25-3.26,2.06l.1,27.9c0,.86-.1,3.2,1.54,3.77l3.36,1.04v26.02l9-1.74v-25.89h-8.19Z" fill="none" stroke="#000" stroke-linecap="round" stroke-linejoin="round"/><path d="M149,318.45v-8.48c-3.39.42-5.02-.11-5.02-.11l-36.98-17.54v4.66c0,2.03,0,3.34,2.97,4.78l.48.24,1.87,60.2c.01,1.67,1.28,2.78,3.81,2.78s3.8-1.12,3.8-2.76l1.46-43.23,20.19,9.97-.5-10.85c2.47,1.21,5.2.72,7.92.36v-.02Z" fill="none" stroke="#000" stroke-linecap="round" stroke-linejoin="round"/><path d="M141.71,317.5l2.06,64.31c0,1.67,1.2,2.78,3.72,2.78s3.75-1.12,3.75-2.76l1.74-51.8,41.99-8.14,1.48,47.44c0,1.67,1.24,2.78,3.76,2.78s3.71-1.12,3.71-2.76l2.1-61.34h0l1.01-.19c1.71-.33,2.95-1.82,2.95-3.56v-5.43l-3.32,1.8-58.45,11.35c-1.3.29-2.23.06-2.23,1.39v5.55l-4.29-1.4v-.02Z" fill="none" stroke="#000" stroke-linecap="round" stroke-linejoin="round"/><path d="M208.3,300.1l-58.68,11.24c-2.67.5-5.43.14-7.87-1.08l-33.41-16.58c-1.57-.79-1.29-3.35,1.02-3.69l59.04-10.04c2.34-.45,4.81-.5,6.96.55l33.44,15.89c1.7.84,1.36,3.35-.5,3.72h0Z" fill="none" stroke="#000" stroke-linecap="round" stroke-linejoin="round"/><path d="M170.49,220.49l-56.68,8.41c-2.46.59-2.81,2.54-2.81,3.92l.11,29.58c0,1.8,1.77,2.35,3.54,2.01l56.93-9.14c1.35-.27,2.4-1.88,2.42-3.97l-.11-29.58c0-1.8-1.69-1.46-3.4-1.22h0Z" fill="none" stroke="#000" stroke-linecap="round" stroke-linejoin="round"/><path d="M322.45,330.83l.83,23.89c0,1.64,1.12,2.76,3.68,2.76s3.65-1.11,3.66-2.78l.76-22.15-8.92-1.73h0Z" fill="none" stroke="#000" stroke-linecap="round" stroke-linejoin="round"/><polygon points="323.94 285.09 333 286.66 332.92 248 324 248 323.94 285.09" fill="none" stroke="#000" stroke-linecap="round" stroke-linejoin="round"/><path d="M323.96,223.3c-3.53.91-4.36,1.36-5.18,2.34,0,0,42.95,31.03,44.2,31.27s18.01-13.3,18.01-13.3l5.88-6.93.03-1.09c-.01-2.54-1.78-4.52-3.96-4.94,0,0-52.97-7.8-54.31-8s-3,.21-4.67.65h0Z" fill="none" stroke="#000" stroke-linecap="round" stroke-linejoin="round"/><path d="M373,268v25.89l9,1.74v-26.02l3.43-1.04c1.68-.58,1.57-2.92,1.57-3.77l.11-27.9c.01-1.81-1.84-2.95-3.32-2.06-1.37.74-2.05,1.8-2.03,4.31l-.57,28.85h-8.19Z" fill="none" stroke="#000" stroke-linecap="round" stroke-linejoin="round"/><path d="M350.92,323.09l-.5,10.85,20.19-9.97,1.46,43.23c0,1.64,1.25,2.76,3.8,2.76s3.8-1.11,3.81-2.78l1.87-60.2.48-.24c2.97-1.44,2.97-2.75,2.97-4.78v-4.66l-36.98,17.54s-1.63.53-5.02.11v8.48c2.72.35,5.46.84,7.92-.36v.02Z" fill="none" stroke="#000" stroke-linecap="round" stroke-linejoin="round"/><path d="M347,323.9v-5.55c0-1.33-.93-1.09-2.23-1.39l-58.45-11.35-3.32-1.8v5.43c0,1.74,1.24,3.24,2.95,3.56l1.01.19h.01l2.1,61.34c0,1.64,1.17,2.76,3.71,2.76s3.75-1.11,3.76-2.78l1.48-47.44,41.99,8.14,1.74,51.8c0,1.64,1.21,2.76,3.75,2.76s3.71-1.11,3.72-2.78l2.06-64.31-4.29,1.4v.02Z" fill="none" stroke="#000" stroke-linecap="round" stroke-linejoin="round"/><path d="M283.57,301.39l33.44-15.89c2.15-1.05,4.61-1,6.96-.55l59.04,10.04c2.31.34,2.6,2.9,1.02,3.69l-33.41,16.58c-2.44,1.22-5.2,1.59-7.87,1.08l-58.68-11.24c-1.87-.36-2.2-2.88-.5-3.72h0Z" fill="none" stroke="#000" stroke-linecap="round" stroke-linejoin="round"/><path d="M318,226.64l-.11,29.68c.01,2.1,1.07,3.72,2.42,3.99l57.14,9.18c1.78.34,3.55-.21,3.55-2.02l.11-29.68c0-1.38-.35-3.34-2.82-3.93l-56.88-8.44c-1.72-.24-3.4-.58-3.41,1.23h0Z" fill="none" stroke="#000" stroke-linecap="round" stroke-linejoin="round"/><polygon id="uuid-20145ee5-3b0a-42a6-a001-255e37aa50c7" points="210.94 323 193.28 329.22 204.1 359.92 206.28 366.11 232.77 356.77 230.59 350.58 221.76 353.7 210.94 323" fill="none" stroke="#000" stroke-linecap="round" stroke-linejoin="round"/><rect id="uuid-9d048ce8-c51c-4524-8177-abec017d2387" x="175.78" y="290.53" width="23.32" height="46.03" transform="translate(-164.76 216.61) rotate(-43.74)" fill="none" stroke="#000" stroke-linecap="round" stroke-linejoin="round" stroke-width="1"/><polygon id="uuid-d1fa1509-1b1b-44e9-8a32-b3c8a931fe92" points="154.67 334.29 173.58 332.43 176.82 365.27 185.78 364.39 186.37 370.36 158.5 373.11 157.86 366.6 157.86 366.6 154.67 334.29" fill="none" stroke="#000" stroke-linecap="round" stroke-linejoin="round"/><rect id="uuid-6ff35a5b-c7da-4b66-87d9-d2056a4393e5" x="142.53" y="295.82" width="23" height="46" transform="translate(-141.39 123.63) rotate(-30.76)" fill="none" stroke="#000" stroke-linecap="round" stroke-linejoin="round" stroke-width="1"/><path id="uuid-f7febff7-9ebf-4235-8a85-88f38683db93" d="M132,212v94h52v-94h-52Z" fill="none" stroke="#000" stroke-linecap="round" stroke-linejoin="round"/><rect id="uuid-4a40a676-de33-49ce-a8f0-927a842cb87d" x="132" y="267" width="52" height="16" fill="none" stroke="#000" stroke-linecap="round" stroke-linejoin="round"/><rect id="uuid-9f0dec35-3b58-45b9-962b-e5f97e1ee9ac" x="170" y="212" width="6" height="55" fill="none" stroke="#000" stroke-linecap="round" stroke-linejoin="round"/><rect id="uuid-7d57cdc3-1864-4526-9e04-5e82441fcc74" x="141" y="212" width="6" height="55" fill="none" stroke="#000" stroke-linecap="round" stroke-linejoin="round"/><path id="uuid-b7ad0ead-957b-40d9-8f58-52b4c41d679d" d="M184.18,196.98c1.37-5.18,1.87-10.92,1.29-16.88-2.03-20.59-16.2-36.04-31.64-34.52-15.44,1.52-26.31,19.45-24.28,40.04.59,5.96,2.2,11.49,4.56,16.3l50.07-4.94Z" fill="none" stroke="#000" stroke-linecap="round" stroke-linejoin="round"/><path id="uuid-b4debeec-d65c-498e-ac7a-02c7ffd362ba" d="M135.02,206c4.99,10.43,13.74,17.36,23.7,17.36s18.71-6.93,23.7-17.36h-47.4,0Z" fill="none" stroke="#000" stroke-linecap="round" stroke-linejoin="round"/><ellipse id="uuid-099d13ca-5de9-4db8-bbb9-e3c3e691bb72" cx="176" cy="185" rx="3" ry="4" fill="none" stroke="#000" stroke-linecap="round" stroke-linejoin="round"/><ellipse id="uuid-871672ed-ee68-4fd6-a0cf-0eae7b667276" cx="161" cy="187" rx="3" ry="4" fill="none" stroke="#000" stroke-linecap="round" stroke-linejoin="round"/><rect id="uuid-7288adcc-246d-4b84-8e67-de6aa5922753" x="186.04" y="232.06" width="29.97" height="14.05" transform="translate(-106.45 184.03) rotate(-39.79)" fill="none" stroke="#000" stroke-linecap="round" stroke-linejoin="round" stroke-width="1"/><rect id="uuid-2e491ad7-fc7b-4dd3-a9e9-9664b14304b3" x="183.78" y="211.9" width="14.05" height="29.97" transform="translate(-21.34 19.81) rotate(-5.63)" fill="none" stroke="#000" stroke-linecap="round" stroke-linejoin="round" stroke-width="1"/><rect id="uuid-7921cc0d-54db-4ca8-849b-350a272e1724" x="111.15" y="218.85" width="29.97" height="14.05" transform="translate(-119.22 307.91) rotate(-79.31)" fill="none" stroke="#000" stroke-linecap="round" stroke-linejoin="round" stroke-width="1"/><rect id="uuid-991c216b-3a3b-4df4-a404-4a3fdf391d15" x="101.51" y="243.33" width="29.97" height="14.05" transform="translate(-158.55 225.92) rotate(-59.97)" fill="none" stroke="#000" stroke-linecap="round" stroke-linejoin="round" stroke-width="1"/><rect id="uuid-4b33338d-1a45-4d50-afe1-c1279f9869e8" x="209.89" y="218.13" width="14.98" height="14.98" transform="translate(-94.05 191.37) rotate(-39.79)" fill="none" stroke="#000" stroke-linecap="round" stroke-linejoin="round" stroke-width="1"/><rect id="uuid-6982d47b-e904-485a-ba68-1954f6b5dbd1" x="97.71" y="262.39" width="14.98" height="14.98" transform="translate(-181.1 225.89) rotate(-59.97)" fill="none" stroke="#000" stroke-linecap="round" stroke-linejoin="round" stroke-width="1"/><circle id="uuid-029ba796-d17b-42d8-a941-5c6f3279cd41" cx="158" cy="256" r="2" fill="none" stroke="#000" stroke-linecap="round" stroke-linejoin="round"/><circle id="uuid-a51d3c66-fd3a-4bcc-9fb1-aa47cefdf211" cx="158" cy="248" r="2" fill="none" stroke="#000" stroke-linecap="round" stroke-linejoin="round"/><circle id="uuid-085a3f99-7158-4a42-b687-8ef1715089ea" cx="158" cy="241" r="2" fill="none" stroke="#000" stroke-linecap="round" stroke-linejoin="round"/><circle id="uuid-470e0378-20bb-4146-909f-304e0c9db94e" cx="158" cy="232" r="2" fill="none" stroke="#000" stroke-linecap="round" stroke-linejoin="round"/><path d="M186.63,158.2c-2.97-12.85-17.31-21.67-33.53-20.07s-28.57,13.05-28.97,26.24c-5.34,1.31-8.5,2.61-8.39,3.68.25,2.51,18.32,2.78,40.37.6s39.72-5.97,39.47-8.48c-.11-1.07-3.45-1.73-8.95-1.97h0Z" fill="none" stroke="#000" stroke-linecap="round" stroke-linejoin="round"/><g id="uuid-ef2d325c-9ca4-486f-9f3c-4ce931b89d2b"><polygon id="uuid-3ee52d7c-6b6c-4035-ab57-320e6731a496" points="281.02 323.47 298.69 329.69 287.87 360.39 285.69 366.58 259.19 357.24 261.37 351.05 270.2 354.17 281.02 323.47" fill="none" stroke="#000" stroke-linecap="round" stroke-linejoin="round"/><rect id="uuid-1358c91a-08e9-4f04-b804-c48da46c3bf7" x="281.51" y="302.34" width="46.03" height="23.32" transform="translate(-132.88 316.92) rotate(-46.26)" fill="none" stroke="#000" stroke-linecap="round" stroke-linejoin="round" stroke-width="1"/><polygon id="uuid-fc950196-9142-48bc-b6a6-bb40524a0b97" points="352.96 326.82 367.81 338.67 347.23 364.47 354.26 370.08 350.52 374.77 328.63 357.31 332.71 352.2 332.71 352.2 352.96 326.82" fill="none" stroke="#000" stroke-linecap="round" stroke-linejoin="round"/><rect id="uuid-31f64e7b-a68b-492f-84fb-cfbe900aab53" x="348.74" y="294.3" width="23" height="46" transform="translate(-111.6 228.88) rotate(-30.76)" fill="none" stroke="#000" stroke-linecap="round" stroke-linejoin="round" stroke-width="1"/><path id="uuid-5ef81dd0-30c0-43e2-8d5f-31606518a570" d="M308,212v94h52v-94h-52Z" fill="none" stroke="#000" stroke-linecap="round" stroke-linejoin="round"/><rect id="uuid-202d9a7e-7767-49f7-94fe-3550103ef3de" x="308" y="267" width="52" height="16" fill="none" stroke="#000" stroke-linecap="round" stroke-linejoin="round"/><rect id="uuid-1063e59b-d37d-45fc-8d61-732877ad6d08" x="316" y="212" width="6" height="55" fill="none" stroke="#000" stroke-linecap="round" stroke-linejoin="round"/><rect id="uuid-b5f2d67f-63c3-4149-be02-080b741b16ce" x="345" y="212" width="6" height="55" fill="none" stroke="#000" stroke-linecap="round" stroke-linejoin="round"/><path id="uuid-0ccdeafc-da13-40ce-871a-a4bac5eb3ede" d="M307.78,197.45c-1.37-5.18-1.87-10.92-1.29-16.88,2.03-20.59,16.2-36.04,31.64-34.52,15.44,1.52,26.31,19.45,24.28,40.04-.59,5.96-2.2,11.49-4.56,16.3l-50.07-4.94Z" fill="none" stroke="#000" stroke-linecap="round" stroke-linejoin="round"/><path id="uuid-5147e0dd-1ea7-4d7b-9ea9-f75ecb56a337" d="M356.94,206c-4.99,10.43-13.74,17.36-23.7,17.36s-18.71-6.93-23.7-17.36h47.4Z" fill="none" stroke="#000" stroke-linecap="round" stroke-linejoin="round"/><ellipse id="uuid-1f1c0144-c2dd-4de6-bb11-5810a296f9fb" cx="316" cy="185" rx="3" ry="4" fill="none" stroke="#000" stroke-linecap="round" stroke-linejoin="round"/><ellipse id="uuid-171c9aad-a2ad-4656-b32d-e547acd31c31" cx="331" cy="187" rx="3" ry="4" fill="none" stroke="#000" stroke-linecap="round" stroke-linejoin="round"/><rect id="uuid-4171fdec-b3a3-4f92-8cf8-82145083b1a3" x="282.91" y="223.6" width="14.05" height="29.97" transform="translate(-78.94 308.68) rotate(-50.21)" fill="none" stroke="#000" stroke-linecap="round" stroke-linejoin="round" stroke-width="1"/><rect id="uuid-ecda766d-67bb-4ce7-9770-09be96b9b7e1" x="285.14" y="220.29" width="29.97" height="14.05" transform="translate(44.46 503.69) rotate(-84.37)" fill="none" stroke="#000" stroke-linecap="round" stroke-linejoin="round" stroke-width="1"/><rect id="uuid-cd8f4b75-9f7c-41d3-9989-cd04e7cd8b7c" x="359.82" y="212.34" width="14.05" height="29.97" transform="translate(-17.26 30.55) rotate(-4.66)" fill="none" stroke="#000" stroke-linecap="round" stroke-linejoin="round" stroke-width="1"/><rect id="uuid-f9fb786c-075b-4cf2-be07-46294dd317ec" x="362.61" y="230.69" width="29.97" height="14.05" transform="translate(-62.58 310.72) rotate(-41.61)" fill="none" stroke="#000" stroke-linecap="round" stroke-linejoin="round" stroke-width="1"/><rect id="uuid-140b727e-1848-4580-aa54-a5f3046c5b56" x="265.09" y="216.64" width="14.98" height="14.98" transform="translate(-74.08 290.14) rotate(-50.21)" fill="none" stroke="#000" stroke-linecap="round" stroke-linejoin="round" stroke-width="1"/><rect id="uuid-db0f64e8-d040-4c4c-bbe1-adb9cf14c6e9" x="386.96" y="215.25" width="14.98" height="14.98" transform="translate(-48.39 318.14) rotate(-41.61)" fill="none" stroke="#000" stroke-linecap="round" stroke-linejoin="round" stroke-width="1"/><circle id="uuid-2fa3efe3-2a93-49f2-b784-9d0ccaf2a4f7" cx="334" cy="256" r="2" fill="none" stroke="#000" stroke-linecap="round" stroke-linejoin="round"/><circle id="uuid-f706e0b3-8d3c-4d5b-89e9-4e4c4d2dc34b" cx="334" cy="248" r="2" fill="none" stroke="#000" stroke-linecap="round" stroke-linejoin="round"/><circle id="uuid-25bf65c0-9173-4372-a8f9-b4437e6d9efe" cx="334" cy="241" r="2" fill="none" stroke="#000" stroke-linecap="round" stroke-linejoin="round"/><circle id="uuid-9bc5e152-aeef-42aa-b1b4-b630f7455a76" cx="334" cy="232" r="2" fill="none" stroke="#000" stroke-linecap="round" stroke-linejoin="round"/><path d="M305.33,158.67c2.97-12.85,17.31-21.67,33.53-20.07s28.57,13.05,28.97,26.24c5.34,1.31,8.5,2.61,8.39,3.68-.25,2.51-18.32,2.78-40.37.6s-39.72-5.97-39.47-8.48c.11-1.07,3.45-1.73,8.95-1.97h0Z" fill="none" stroke="#000" stroke-linecap="round" stroke-linejoin="round"/><polygon id="uuid-2443cb60-bcf6-49c1-863a-726a11306146" points="281.02 323.47 298.69 329.69 287.87 360.39 285.69 366.58 259.19 357.24 261.37 351.05 270.2 354.17 281.02 323.47" fill="none" stroke="#000" stroke-linecap="round" stroke-linejoin="round"/><rect id="uuid-6a98918a-9ba3-4ba1-8549-f26288ddce44" x="281.51" y="302.34" width="46.03" height="23.32" transform="translate(-132.88 316.92) rotate(-46.26)" fill="none" stroke="#000" stroke-linecap="round" stroke-linejoin="round" stroke-width="1"/><polygon id="uuid-a8ab1ff9-e7fd-4017-b4b6-2c2caccd8f92" points="352.96 326.82 367.81 338.67 347.23 364.47 354.26 370.08 350.52 374.77 328.63 357.31 332.71 352.2 332.71 352.2 352.96 326.82" fill="none" stroke="#000" stroke-linecap="round" stroke-linejoin="round"/><rect id="uuid-95846797-27f6-4732-998f-ac792830512d" x="348.74" y="294.3" width="23" height="46" transform="translate(-111.6 228.88) rotate(-30.76)" fill="none" stroke="#000" stroke-linecap="round" stroke-linejoin="round" stroke-width="1"/><path id="uuid-28bcfbe9-f8a1-490f-809f-6b7b2d6e2ef9" d="M308,212v94h52v-94h-52Z" fill="none" stroke="#000" stroke-linecap="round" stroke-linejoin="round"/><rect id="uuid-c97f0b13-7828-47dc-91e6-aa17ece2d078" x="308" y="267" width="52" height="16" fill="none" stroke="#000" stroke-linecap="round" stroke-linejoin="round"/><rect id="uuid-36fc68bd-5185-42bd-a3b3-9a9fe98c83a5" x="316" y="212" width="6" height="55" fill="none" stroke="#000" stroke-linecap="round" stroke-linejoin="round"/><rect id="uuid-25e62c9d-3eea-4615-9b7a-d3d9e7c4b7ad" x="345" y="212" width="6" height="55" fill="none" stroke="#000" stroke-linecap="round" stroke-linejoin="round"/><path id="uuid-3872cbc4-5da5-45b1-9df5-f8bee0bd681c" d="M307.78,197.45c-1.37-5.18-1.87-10.92-1.29-16.88,2.03-20.59,16.2-36.04,31.64-34.52,15.44,1.52,26.31,19.45,24.28,40.04-.59,5.96-2.2,11.49-4.56,16.3l-50.07-4.94Z" fill="none" stroke="#000" stroke-linecap="round" stroke-linejoin="round"/><path id="uuid-13157996-0e1d-4ceb-8f0c-669c9733b34c" d="M356.94,206c-4.99,10.43-13.74,17.36-23.7,17.36s-18.71-6.93-23.7-17.36h47.4Z" fill="none" stroke="#000" stroke-linecap="round" stroke-linejoin="round"/><ellipse id="uuid-fdec63b9-08b2-45a4-9bdd-4ced3cf0f456" cx="316" cy="185" rx="3" ry="4" fill="none" stroke="#000" stroke-linecap="round" stroke-linejoin="round"/><ellipse id="uuid-9e794e6f-e833-4f77-b448-cf6a90b55d13" cx="331" cy="187" rx="3" ry="4" fill="none" stroke="#000" stroke-linecap="round" stroke-linejoin="round"/><rect id="uuid-e85faf6b-3325-4c04-87c6-a4de3071d1f1" x="282.91" y="223.6" width="14.05" height="29.97" transform="translate(-78.94 308.68) rotate(-50.21)" fill="none" stroke="#000" stroke-linecap="round" stroke-linejoin="round" stroke-width="1"/><rect id="uuid-af620546-d147-4fea-bc2d-b6b4ab059ed8" x="285.14" y="220.29" width="29.97" height="14.05" transform="translate(44.46 503.69) rotate(-84.37)" fill="none" stroke="#000" stroke-linecap="round" stroke-linejoin="round" stroke-width="1"/><rect id="uuid-4fd5fc67-b7fd-40f1-86c6-733620e0c3d3" x="359.82" y="212.34" width="14.05" height="29.97" transform="translate(-17.26 30.55) rotate(-4.66)" fill="none" stroke="#000" stroke-linecap="round" stroke-linejoin="round" stroke-width="1"/><rect id="uuid-8f8aeb98-ec5a-45a0-9777-ca3bad9b4d50" x="362.61" y="230.69" width="29.97" height="14.05" transform="translate(-62.58 310.72) rotate(-41.61)" fill="none" stroke="#000" stroke-linecap="round" stroke-linejoin="round" stroke-width="1"/><rect id="uuid-229dde6c-754c-4fec-b702-45b27fec4a74" x="265.09" y="216.64" width="14.98" height="14.98" transform="translate(-74.08 290.14) rotate(-50.21)" fill="none" stroke="#000" stroke-linecap="round" stroke-linejoin="round" stroke-width="1"/><rect id="uuid-a82e48d8-2ced-4c1e-9970-a7417df3ba59" x="386.96" y="215.25" width="14.98" height="14.98" transform="translate(-48.39 318.14) rotate(-41.61)" fill="none" stroke="#000" stroke-linecap="round" stroke-linejoin="round" stroke-width="1"/><circle id="uuid-ae36fea0-c0df-43e8-afff-66df283f2921" cx="334" cy="256" r="2" fill="none" stroke="#000" stroke-linecap="round" stroke-linejoin="round"/><circle id="uuid-2cf1b2cc-c457-4cfc-9d8e-5ddcc114e17e" cx="334" cy="248" r="2" fill="none" stroke="#000" stroke-linecap="round" stroke-linejoin="round"/><circle id="uuid-3dd21b6c-aaa0-4a53-b2f4-02be5b3b597e" cx="334" cy="241" r="2" fill="none" stroke="#000" stroke-linecap="round" stroke-linejoin="round"/><circle id="uuid-45fe0fe5-a43c-4056-8ef2-5204e667a007" cx="334" cy="232" r="2" fill="none" stroke="#000" stroke-linecap="round" stroke-linejoin="round"/><path d="M305.33,158.67c2.97-12.85,17.31-21.67,33.53-20.07s28.57,13.05,28.97,26.24c5.34,1.31,8.5,2.61,8.39,3.68-.25,2.51-18.32,2.78-40.37.6s-39.72-5.97-39.47-8.48c.11-1.07,3.45-1.73,8.95-1.97h0Z" fill="none" stroke="#000" stroke-linecap="round" stroke-linejoin="round"/></g><path d="M217.41,193.93l4.19,2.53,6.27.19,3.89-2.52.55,1.64s2.45,7.31,2.26,11.4c-.17,3.83-.6,7.22-3.78,10.28-2.4,2.3-4.8,2.5-4.8,2.5l.05,7.82s3.14.16,4.98,1.48c1.67,1.2,1.94,2.35,1.94,3.12s-.65,4.7-8.49,4.6c-7.84-.1-8.31-4.35-8.31-5.11s.74-2.24,2.95-3.17c2.08-.87,3.88-.77,3.88-.77v-8.12s-2.91-.82-5.12-3.17c-1.37-1.45-3.65-4.75-3.32-10.12.28-4.71,2.86-12.58,2.86-12.58Z" fill="none" stroke="#000" stroke-linecap="round" stroke-linejoin="round"/><path d="M217.03,193.93l1.84-1.69,2.86-1.24h6.6l3.02,1.65,1.59,1.48.61,1.64s2.71,7.31,2.5,11.4c-.19,3.83-.66,7.22-4.19,10.28-2.66,2.3-5.32,2.5-5.86,2.5v7.81c.57,0,4.07.4,6.11,1.73,1.85,1.2,2.15,2.12,2.15,2.89s-.72,4.7-9.41,4.6c-8.69-.1-9.2-4.35-9.2-5.11s.82-2.24,3.27-3.17c2.3-.87,4.27-.93,4.07-.93v-7.96c.22,0-3-.82-5.45-3.17-1.52-1.45-4.04-4.75-3.68-10.12.31-4.71,3.17-12.58,3.17-12.58h0Z" fill="none" stroke="#000" stroke-linecap="round" stroke-linejoin="round"/><path d="M222.95,219.98c-.11-.03-2.62-.64-4.33-1.98-3.32-2.6-4.89-5.46-5.09-9.29-.12-2.26.81-6.09,1.47-8.78.67-2.74,1.49-4.78,1.5-4.81,0,0,.11-.31.22-.25.24.12,0,1.2,0,1.2-.19.69-.36,1.34-1.02,4.04-.65,2.64-1.5,6.4-1.38,8.55.19,3.58,1.67,6.27,4.8,8.72,1.59,1.24,3.61,1.73,3.88,1.86s.63.19.58.55-.62.18-.62.18h-.01Z" fill="none" stroke="#000" stroke-linecap="round" stroke-linejoin="round"/><path d="M226.84,220.08c-.29.03-.57-.02-.6-.31-.03-.35.4-.37.4-.37.29-.1,1.76-.22,3.21-1.1,4.1-2.46,6.08-6.32,5.83-11.32-.36-6.9-3.06-12.15-3.09-12.2l.51-.75c.03.05,2.99,5.85,3.35,12.91.28,5.31-1.71,9.42-6.07,12.03-1.59.95-3.4,1.08-3.55,1.1h.01Z" fill="none" stroke="#000" stroke-linecap="round" stroke-linejoin="round"/><path d="M225.48,197.84h-.29c-3.41-.05-6.33-1.01-7.74-2.38-.5-.48-.57-.82-.6-1.36-.05-.92,1.04-3.21,8.17-3.18,4.7.02,8.18,1.48,8.2,3.3,0,.55-.09,1-.61,1.52-1.34,1.31-3.99,2.09-7.12,2.09h0ZM224.67,192c-4.67.04-6.67,1.33-6.65,2.16,0,.21.02.33.28.6.93.97,3.43,1.97,6.92,2.02h0c3.47.06,5.68-.87,6.58-1.76.29-.28.44-.38.44-.6,0-.88-1.89-2.3-6.88-2.41h-.69Z" fill="none" stroke="#000" stroke-linecap="round" stroke-linejoin="round"/><path d="M225.56,196.99c-.31,0-.64,0-.98-.03-5.43-.29-6.48-2.46-6.53-2.56-.09-.19-.14-.57,0-.61.2-.06.3.12.5.3.33.3,1.5,1.87,6.41,1.99,4.81.11,6.35-1.35,6.64-1.61.21-.19.44-.6.62-.48s.09.58-.02.76c-.16.28-1.38,2.24-6.64,2.24h0Z" fill="none" stroke="#000" stroke-linecap="round" stroke-linejoin="round"/><path d="M224.96,220.25c-.83,0-.66.64-.71,4.89-.03,3.39.32,4,.67,4.03.35.03.67-.22.67-3.81,0-4.16.13-5.12-.64-5.12h.01Z" fill="none" stroke="#000" stroke-linecap="round" stroke-linejoin="round"/><path d="M226.25,228.13c-.32.03.03.72-.4,1.27-.34.43-.98.69-.95,1.18.03.49,2.54.17,2.54-.75,0-.36-.26-.61-.52-.95s-.5-.76-.66-.75h0Z" fill="none" stroke="#000" stroke-linecap="round" stroke-linejoin="round"/><path d="M220.45,231.62s1.1,1.48,4.51,1.51c3.44.03,4.28-1.01,4.41-1.42.09-.31-1.07-1.93-1.21-1.91-.14.03-.52,1.54-3.18,1.44-2.66-.1-2.73-1.14-2.94-1.34-.17-.16-1.59,1.71-1.59,1.71h0Z" fill="none" stroke="#000" stroke-linecap="round" stroke-linejoin="round"/><path d="M217.27,230.9c-.86.11-.9,1.11-.35,2.02,1.12,1.85,4.86,3.11,5.05,2.11.17-.9-1.79-1.12-1.59-2.63.14-1.1,2.11-2.11,1.56-2.69s-1.38.78-2.51,1.04c-.98.23-1.5.06-2.16.15h0Z" fill="none" stroke="#000" stroke-linecap="round" stroke-linejoin="round"/><path d="M229.74,229.43c-.48.38.95.78.9,1.96-.06,1.18-1.24,1.69-1.01,2.02.35.49,2.38-.55,2.31-2.17-.06-1.32-1.76-2.16-2.19-1.81h0Z" fill="none" stroke="#000" stroke-linecap="round" stroke-linejoin="round"/><path d="M229.22,234.89c.17.55,2.47.31,3.55-1.24,1.12-1.62.35-2.97-.09-2.83-.43.14.17,1.16-.92,2.22-1.1,1.07-2.74,1.24-2.54,1.85h0Z" fill="none" stroke="#000" stroke-linecap="round" stroke-linejoin="round"/><path d="M215.66,231.81c-.1-.09-.28.82.02,1.57.26.64,1.59,3.95,9.56,4.01,8.86.07,9.32-3.73,9.2-4.8-.07-.7-.21-.94-.28-.94s-.14.62-.19.96c-.19,1.05-1.23,3.71-8.59,3.77-6.7.05-8.66-2.69-9.01-3.18-.24-.35-.66-1.35-.72-1.4h0Z" fill="none" stroke="#000" stroke-linecap="round" stroke-linejoin="round"/><path d="M215.07,207.91l1.19,3.24,4.37,2.35,5.59,1.05,5.56-4.83,1.95-2.88s-1.92-.81-4.08-1.13c-3.37-.5-6.24-.62-9.61,0-4.14.77-4.96,2.18-4.96,2.18v.02Z" fill="none" stroke="#000" stroke-linecap="round" stroke-linejoin="round"/><path d="M222.7,212.8c3.9.13,4.43-2.15,7.61-4.4,3.18-2.25,4.46-1.59,4.46-1.59,0,0,1.07,4.83-2.61,8.66-3.21,3.34-9.08,4.34-13.72.41-3.44-2.91-3.38-7.99-3.38-7.99,0,0,2.71,4.73,7.64,4.89v.02Z" fill="none" stroke="#000" stroke-linecap="round" stroke-linejoin="round"/><path d="M217.71,197.12s-.55,1.54-1.24,4.63c-.59,2.65-.84,4.34-.84,4.34,0,0,1.25-.62,2.64-.98,1.26-.33,2.35-.26,2.35-.26,0,0-.03-2.02.13-3.48.14-1.2.43-2.75.43-2.75,0,0-1.09-.26-1.76-.56-.66-.3-1.72-.93-1.72-.93h0Z" fill="none" stroke="#000" stroke-linecap="round" stroke-linejoin="round"/><path d="M272.73,212.23c.05.17,9.3-1.52,9.3-1.52l5.75-8.46-6.69-.79-8.83-5.58-3.35-4.68-4.3,9.08s8.08,11.79,8.12,11.95Z" fill="none" stroke="#000" stroke-linecap="round" stroke-linejoin="round"/><path d="M280.84,191.39l-4.85-2.21-4.18-.75-3.1.9-11.97,25.53-1.81,3.04s.62,4.6,6.42,7.95c5.8,3.35,10.29,2.08,10.29,2.08l1.78-3.16,15.93-23.19-.23-2.76-4.24-4.66-4.04-2.77h0Z" fill="none" stroke="#000" stroke-linecap="round" stroke-linejoin="round"/><path d="M264.59,200.26c-.46.79-7.42,15.16-7.4,16.14.02.98,1.03,4.59,5.59,7.12s8.46,2.13,9.1,1.59c.64-.55,10.14-14.39,10.14-14.39,0,0,.79-1.64-1.84-4.61s-6.83-5.1-9.12-5.87c-2.88-.96-5.95-.86-6.46.03h-.01Z" fill="none" stroke="#000" stroke-linecap="round" stroke-linejoin="round"/><path d="M264.49,203.82l.12-2.24s.28-.52.53-.79,1.6-1.4,5.42-.11c3.03,1.02,6.44,3.07,8.55,5.19,1.43,1.44,2.57,3.3,2.28,4.33-.33,1.17-1.03,1.34-1.03,1.34l-3.27,1.73-12.32-7.34-.28-2.12h0Z" fill="none" stroke="#000" stroke-linecap="round" stroke-linejoin="round"/><path d="M257.96,216.32c-.11.44.39,3.63,5.16,6.38,4.77,2.76,7.91,2.21,8.19,1.84s9.59-13.38,9.59-13.38c0,0-3.43,1.42-9.59-2.3s-6.68-7.28-6.68-7.28c0,0-6.55,14.28-6.66,14.75h-.01Z" fill="none" stroke="#000" stroke-linecap="round" stroke-linejoin="round"/><path d="M269.5,197.27c-.71-.35-1.37-.03-1.85,1.13-.33.78-.59,1.67.43,2.14,1.03.47,1.65-.53,1.88-1.18.34-.96.33-1.7-.46-2.09h0Z" fill="none" stroke="#000" stroke-linecap="round" stroke-linejoin="round"/><path d="M267.81,200.96c-.69-.33-1.13-.06-1.72,1.18-.78,1.63-5.64,11.88-6.06,12.77-.42.89-.22,1.42.3,1.72s1.24.03,1.56-.58c.32-.6,5.86-12.26,6.16-12.94.3-.68.73-1.69-.23-2.15h0Z" fill="none" stroke="#000" stroke-linecap="round" stroke-linejoin="round"/><path d="M256.59,217.15c-.49.4-.42,1.84.54,3.32,1.06,1.65,2.82,2.51,3.22,1.89.42-.65-.73-1.08-1.87-2.75-.94-1.38-1.11-3.09-1.89-2.46Z" fill="none" stroke="#000" stroke-linecap="round" stroke-linejoin="round"/><path d="M262.86,224.82c-.35.47,2.34,1.79,4.72,2.26,2.71.53,4.01-.19,3.96-.72s-1.13.15-3.78-.41c-3.67-.79-4.37-1.83-4.9-1.12h0Z" fill="none" stroke="#000" stroke-linecap="round" stroke-linejoin="round"/><path d="M276.8,199.99l-.21-.12c-6.48-3.8-7.93-6.91-8.19-8.47-.17-1.02.08-1.87.64-2.52v-.02c1.8-1.57,6.48-1.18,12.49,2.26,6.76,3.88,8.85,8.26,8.08,9.98-.25.55-.87,1.41-2.12,1.77-2.27.66-6.18-.27-10.68-2.87h-.01ZM270.28,189.91c-.37.43-.61.8-.49,1.53.19,1.12,1.04,3.68,7.39,7.41l.21.12c5.72,3.3,8.27,3.1,9.52,2.7.7-.22,1.11-.54,1.35-1.07.5-1.13-1.14-4.81-7.31-8.33-6.57-3.75-9.76-3.38-10.62-2.38l-.05.02h0Z" fill="none" stroke="#000" stroke-linecap="round" stroke-linejoin="round"/><path d="M271.75,189.2c-.05-.21-.57-.4-1.21-.17-.57.2-1.49.75-1.35,2.05.14,1.31,1.24,4.24,8.03,8.28,6.14,3.66,10.32,3.26,11.23,1.88s0-1.85-.11-1.66-.16.7-.49,1.14c-.39.51-3.12,2.07-10.31-2.07-6.89-3.96-7.85-7.49-7.42-8.19.67-1.08,1.75-.8,1.64-1.27h-.01Z" fill="none" stroke="#000" stroke-linecap="round" stroke-linejoin="round"/><path d="M153.14,118.26c-.2-.44-1-2.56-1.53-13.18-.23-4.72-.34-9.49-.38-12.7" fill="none" stroke="#333" stroke-miterlimit="10" stroke-width="2"/><g isolation="isolate"><text transform="translate(68.02 68.65)" fill="#333" font-family="ComicNeue-Bold, &apos;Comic Neue&apos;" font-size="24" font-weight="700" isolation="isolate"><tspan x="0" y="0">Dude why are you drinking milk?</tspan></text></g><g isolation="isolate"><text transform="translate(64.87 438.94)" fill="#333" font-family="ComicNeue-Regular, &apos;Comic Neue&apos;" font-size="24" isolation="isolate"><tspan x="0" y="0">It was something worth celebrating.</tspan></text></g></svg>