<?xml version="1.0" encoding="UTF-8"?><svg id="uuid-9fbf6e34-b787-443f-bf3b-b727aac37adc" xmlns="http://www.w3.org/2000/svg" xmlns:xlink="http://www.w3.org/1999/xlink" viewBox="0 0 500 500"><defs><radialGradient id="uuid-faadd6ce-c857-405c-8528-4bddbc871b4e" cx="-301.03" cy="1075.21" fx="-301.03" fy="1075.21" r="9.8" gradientTransform="translate(-896.06 506.55) rotate(90.16) scale(1 -1.04)" gradientUnits="userSpaceOnUse"><stop offset=".4" stop-color="#af0d1a"/><stop offset=".53" stop-color="#ab0c19"/><stop offset=".67" stop-color="#9f0b17"/><stop offset=".8" stop-color="#8a0813"/><stop offset=".94" stop-color="#6e050d"/><stop offset=".96" stop-color="#68040c"/></radialGradient></defs><path d="M161,327.56l.76,22.15c.01,1.67,1.11,2.78,3.66,2.78s3.68-1.12,3.68-2.76l.83-23.89-8.92,1.73Z" fill="#9e5737"/><polygon points="168.94 243 160 243 159.92 281.66 169 280.09 168.94 243" fill="#9e5737"/><path d="M163.73,217.65c-1.35.2-54.31,8-54.31,8-2.17.42-3.94,2.4-3.96,4.94l.03,1.09,5.88,6.93s16.76,13.54,18.01,13.3,44.2-31.27,44.2-31.27c-.81-.98-1.64-1.43-5.18-2.34-1.67-.43-3.32-.84-4.67-.65Z" fill="#f0aa6b"/><path d="M111.81,263l-.56-28.85c.01-2.51-.65-3.56-1.99-4.31-1.46-.88-3.27.25-3.26,2.06l.1,27.9c0,.86-.1,3.2,1.54,3.77l3.36,1.04v26.02l9-1.74v-25.89h-8.19Z" fill="#9e5737"/><path d="M149,318.45v-8.48c-3.39.42-5.02-.11-5.02-.11l-36.98-17.54v4.66c0,2.03,0,3.34,2.97,4.78l.48.24,1.87,60.2c.01,1.67,1.28,2.78,3.81,2.78s3.8-1.12,3.8-2.76l1.46-43.23,20.19,9.97-.5-10.85c2.47,1.21,5.2.72,7.92.36Z" fill="#9e5737"/><path d="M141.71,317.5l2.06,64.31c.01,1.67,1.2,2.78,3.72,2.78s3.75-1.12,3.75-2.76l1.74-51.8,41.99-8.14,1.48,47.44c.01,1.67,1.24,2.78,3.76,2.78s3.71-1.12,3.71-2.76l2.1-61.34h.01l1.01-.19c1.71-.33,2.95-1.82,2.95-3.56v-5.43l-3.32,1.8-58.45,11.35c-1.3.29-2.23.06-2.23,1.39v5.55l-4.29-1.4Z" fill="#ba793e"/><path d="M208.3,300.1l-58.68,11.24c-2.67.5-5.43.14-7.87-1.08l-33.41-16.58c-1.57-.79-1.29-3.35,1.02-3.69l59.04-10.04c2.34-.45,4.81-.5,6.96.55l33.44,15.89c1.7.84,1.36,3.35-.5,3.72Z" fill="#f0aa6b"/><path d="M170.49,220.49l-56.68,8.41c-2.46.59-2.81,2.54-2.81,3.92l.11,29.58c0,1.8,1.77,2.35,3.54,2.01l56.93-9.14c1.35-.27,2.4-1.88,2.42-3.97l-.11-29.58c-.01-1.8-1.69-1.46-3.4-1.22Z" fill="#ba793e"/><path d="M322.45,330.83l.83,23.89c0,1.64,1.12,2.76,3.68,2.76,2.55,0,3.65-1.11,3.66-2.78l.76-22.15-8.92-1.73Z" fill="#9e5737"/><polygon points="323.94 285.09 333 286.66 332.92 248 324 248 323.94 285.09" fill="#9e5737"/><path d="M323.96,223.3c-3.53.91-4.36,1.36-5.18,2.34,0,0,42.95,31.03,44.2,31.27s18.01-13.3,18.01-13.3l5.88-6.93.03-1.09c-.01-2.54-1.78-4.52-3.96-4.94,0,0-52.97-7.8-54.31-8s-3,.21-4.67.65Z" fill="#f0aa6b"/><path d="M373,268v25.89s9,1.74,9,1.74v-26.02s3.43-1.04,3.43-1.04c1.68-.58,1.57-2.92,1.57-3.77l.11-27.9c.01-1.81-1.84-2.95-3.32-2.06-1.37.74-2.05,1.8-2.03,4.31l-.57,28.85h-8.18Z" fill="#9e5737"/><path d="M350.92,323.09l-.5,10.85,20.19-9.97,1.46,43.23c0,1.64,1.25,2.76,3.8,2.76,2.54,0,3.8-1.11,3.81-2.78l1.87-60.2.48-.24c2.97-1.44,2.97-2.75,2.97-4.78v-4.66s-36.98,17.54-36.98,17.54c0,0-1.63.53-5.02.11v8.48c2.72.35,5.46.84,7.92-.36Z" fill="#9e5737"/><path d="M347,323.9v-5.55c0-1.33-.93-1.09-2.23-1.39l-58.45-11.35-3.32-1.8v5.43c0,1.74,1.24,3.24,2.95,3.56l1.01.19h.01l2.1,61.34c0,1.64,1.17,2.76,3.71,2.76s3.75-1.11,3.76-2.78l1.48-47.44,41.99,8.14,1.74,51.8c0,1.64,1.21,2.76,3.75,2.76,2.52,0,3.71-1.11,3.72-2.78l2.06-64.31-4.29,1.4Z" fill="#ba793e"/><path d="M283.57,301.39l33.44-15.89c2.15-1.05,4.61-1,6.96-.55l59.04,10.04c2.31.34,2.6,2.9,1.02,3.69l-33.41,16.58c-2.44,1.22-5.2,1.59-7.87,1.08l-58.68-11.24c-1.87-.36-2.2-2.88-.5-3.72Z" fill="#f0aa6b"/><path d="M318,226.64l-.11,29.68c.01,2.1,1.07,3.72,2.42,3.99l57.14,9.18c1.78.34,3.55-.21,3.55-2.02l.11-29.68c0-1.38-.35-3.34-2.82-3.93l-56.88-8.44c-1.72-.24-3.4-.58-3.41,1.23Z" fill="#ba793e"/><polygon id="uuid-af274dbb-ccfd-4eb8-93b3-db60f047f535" points="210.94 323 193.28 329.22 204.1 359.92 206.28 366.11 232.77 356.77 230.59 350.58 221.76 353.7 210.94 323" fill="#5f4d2f"/><rect id="uuid-c999c0c5-bd37-4f9e-aa13-ba481d769285" x="175.78" y="290.53" width="23.32" height="46.03" transform="translate(-164.76 216.61) rotate(-43.74)" fill="#726038"/><polygon id="uuid-3ee7c4c8-a541-499f-a970-14071c31ef8a" points="154.67 334.29 173.58 332.43 176.82 365.27 185.78 364.39 186.37 370.36 158.5 373.11 157.86 366.6 157.86 366.6 154.67 334.29" fill="#5f4d2f"/><rect id="uuid-6a96b28e-be39-4c8c-8450-8eff62a23e20" x="142.52" y="295.83" width="23" height="46" transform="translate(-141.39 123.62) rotate(-30.76)" fill="#726038"/><path id="uuid-d4674f0a-ad78-4d1c-8102-f5d586a2c548" d="M132,212v94h52v-94h-52Z" fill="#726038"/><rect id="uuid-e6f3ebd5-0d28-4185-9bf4-5cb10eee0186" x="132" y="267" width="52" height="16" fill="#ac935a"/><rect id="uuid-07276a5a-a045-49ef-8720-cf9de414612d" x="170" y="212" width="6" height="55" fill="#ac935a"/><rect id="uuid-5cde41a3-1ef1-45a7-80ef-f8aa586caf4c" x="141" y="212" width="6" height="55" fill="#ac935a"/><path id="uuid-9d0021a7-abe9-4f1f-acdd-b172ad552807" d="M184.18,196.98c1.37-5.18,1.87-10.92,1.29-16.88-2.03-20.59-16.2-36.04-31.64-34.52-15.44,1.52-26.31,19.45-24.28,40.04.59,5.96,2.2,11.49,4.56,16.3l50.07-4.94Z" fill="#eec6a2"/><path id="uuid-76492a90-76ad-4304-b50f-97e884e7b4e1" d="M135.02,206c4.99,10.43,13.74,17.36,23.7,17.36s18.71-6.93,23.7-17.36h-47.4Z" fill="#eec6a2"/><ellipse id="uuid-792e8ded-b5e3-4705-9c3b-7277c3ee3092" cx="176" cy="185" rx="3" ry="4" fill="#333"/><ellipse id="uuid-735c94df-c98f-43fe-9b21-eb6c6fcd0e27" cx="161" cy="187" rx="3" ry="4" fill="#333"/><rect id="uuid-5e5d804b-089a-4d86-8ed0-2d346fc3a06c" x="186.04" y="232.08" width="29.97" height="14.05" transform="translate(-106.46 184.01) rotate(-39.79)" fill="#726038"/><rect id="uuid-a91f2af3-bb62-45af-a53c-5dc229d9989a" x="183.79" y="211.88" width="14.05" height="29.97" transform="translate(-21.35 19.83) rotate(-5.63)" fill="#726038"/><rect id="uuid-b92384f8-5579-4567-8543-313842304ee9" x="111.14" y="218.84" width="29.97" height="14.05" transform="translate(-119.21 307.91) rotate(-79.31)" fill="#726038"/><rect id="uuid-d3735843-29cc-463c-9f27-877a216e00bc" x="101.51" y="243.35" width="29.97" height="14.05" transform="translate(-158.57 225.91) rotate(-59.97)" fill="#726038"/><rect id="uuid-57f412ae-13ac-4eff-8aaa-bea971d48c0b" x="209.89" y="218.15" width="14.98" height="14.98" transform="translate(-94.06 191.36) rotate(-39.79)" fill="#eec6a2"/><rect id="uuid-c51c0067-b47a-4c5c-b459-506e032ef214" x="97.71" y="262.4" width="14.98" height="14.98" transform="translate(-181.11 225.89) rotate(-59.97)" fill="#eec6a2"/><circle id="uuid-1c917d87-dfc9-47c5-bd98-ee9351c91b94" cx="158" cy="256" r="2" fill="#333"/><circle id="uuid-d4d84cec-cc4f-48c9-88ec-5adb1df91c98" cx="158" cy="248" r="2" fill="#333"/><circle id="uuid-c46a6042-68f4-490e-bdfd-8670a253334f" cx="158" cy="241" r="2" fill="#333"/><circle id="uuid-4e43e6ce-5093-4b14-8782-39cc0e8d1359" cx="158" cy="232" r="2" fill="#333"/><path d="M186.63,158.2c-2.97-12.85-17.31-21.67-33.53-20.07-16.22,1.6-28.57,13.05-28.97,26.24-5.34,1.31-8.5,2.61-8.39,3.68.25,2.51,18.32,2.78,40.37.6,22.05-2.18,39.72-5.97,39.47-8.48-.11-1.07-3.45-1.73-8.95-1.97Z" fill="#596a66"/><g id="uuid-fb4e8075-52ac-41d1-8bae-9fcb6e9ee976"><polygon id="uuid-c242f25b-eb8f-467d-917b-a465630cb867" points="281.02 323.47 298.69 329.69 287.87 360.39 285.69 366.58 259.19 357.24 261.37 351.05 270.2 354.17 281.02 323.47" fill="#4f4f4f"/><rect id="uuid-9e160cd5-845b-4679-9853-58dc18645829" x="281.51" y="302.35" width="46.03" height="23.32" transform="translate(-132.89 316.91) rotate(-46.26)" fill="#616161"/><polygon id="uuid-986e7367-3616-4218-a315-af7e12ffe87a" points="352.96 326.82 367.81 338.67 347.23 364.47 354.26 370.08 350.52 374.77 328.63 357.31 332.71 352.2 332.71 352.2 352.96 326.82" fill="#4f4f4f"/><rect id="uuid-52ff4ae2-5675-40a9-83aa-57cbd76da65f" x="348.74" y="294.3" width="23" height="46" transform="translate(-111.6 228.88) rotate(-30.76)" fill="#616161"/><path id="uuid-b5953c2a-139b-4f32-b98f-3cffa2c7ff41" d="M308,212v94s52,0,52,0v-94s-52,0-52,0Z" fill="#616161"/><rect id="uuid-ef1f8913-93a5-4a83-87b7-6e3e83b192af" x="308" y="267" width="52" height="16" fill="#949494"/><rect id="uuid-c24eef73-f49f-4543-9109-3f058496d15c" x="316" y="212" width="6" height="55" fill="#949494"/><rect id="uuid-3b88bad5-8c7d-44e7-9f19-f43238f19751" x="345" y="212" width="6" height="55" fill="#949494"/><path id="uuid-cc1c42b4-d85b-4fdc-af7b-c8a6c4387ad2" d="M307.78,197.45c-1.37-5.18-1.87-10.92-1.29-16.88,2.03-20.59,16.2-36.04,31.64-34.52,15.44,1.52,26.31,19.45,24.28,40.04-.59,5.96-2.2,11.49-4.56,16.3l-50.07-4.94Z" fill="#cecece"/><path id="uuid-a985d9a1-4569-4047-8b66-3ee42fdad1ce" d="M356.94,206c-4.99,10.43-13.74,17.36-23.7,17.36-9.97,0-18.71-6.93-23.7-17.36h47.4Z" fill="#cecece"/><ellipse id="uuid-47f58fc6-564b-4a33-8791-4ed614379f30" cx="316" cy="185" rx="3" ry="4" fill="#333"/><ellipse id="uuid-7b42853b-880d-49ab-982f-068618314dab" cx="331" cy="187" rx="3" ry="4" fill="#333"/><rect id="uuid-4da0c15b-8c75-4cac-bde0-12c36b52b05b" x="282.91" y="223.58" width="14.05" height="29.97" transform="translate(-78.93 308.69) rotate(-50.21)" fill="#616161"/><rect id="uuid-64ef68b8-a67b-412e-8f4d-6d70ba010a71" x="285.16" y="220.31" width="29.97" height="14.05" transform="translate(44.44 503.71) rotate(-84.37)" fill="#616161"/><rect id="uuid-b1af5b68-be70-48d9-b54a-bc819585a79a" x="359.81" y="212.35" width="14.05" height="29.97" transform="translate(-17.25 30.54) rotate(-4.66)" fill="#616161"/><rect id="uuid-b873a897-061e-4ffd-ad44-b32a25f36b0a" x="362.61" y="230.7" width="29.97" height="14.05" transform="translate(-62.59 310.72) rotate(-41.61)" fill="#616161"/><rect id="uuid-ab987939-5a8f-4714-83e8-7ba38e7feb15" x="265.09" y="216.62" width="14.98" height="14.98" transform="translate(-74.07 290.15) rotate(-50.21)" fill="#cecece"/><rect id="uuid-c052b9db-65be-4c6e-af4a-2963e0d45425" x="386.96" y="215.25" width="14.98" height="14.98" transform="translate(-48.39 318.14) rotate(-41.61)" fill="#cecece"/><circle id="uuid-8e2d7115-8140-4a5b-ab7e-5da255ed51bc" cx="334" cy="256" r="2" fill="#333"/><circle id="uuid-75fde4f2-5d39-46b2-84a6-ac55f558416a" cx="334" cy="248" r="2" fill="#333"/><circle id="uuid-55a51824-bfe3-45df-8ef8-5977274048ae" cx="334" cy="241" r="2" fill="#333"/><circle id="uuid-d4e965e7-a8f6-4c1e-9f35-d8c99b540a45" cx="334" cy="232" r="2" fill="#333"/><path d="M305.33,158.67c2.97-12.85,17.31-21.67,33.53-20.07,16.22,1.6,28.57,13.05,28.97,26.24,5.34,1.31,8.5,2.61,8.39,3.68-.25,2.51-18.32,2.78-40.37.6-22.05-2.18-39.72-5.97-39.47-8.48.11-1.07,3.45-1.73,8.95-1.97Z" fill="#646464"/></g><path d="M217.41,193.93l4.19,2.53,6.27.19,3.89-2.52.55,1.64s2.45,7.31,2.26,11.4c-.17,3.83-.6,7.22-3.78,10.28-2.4,2.3-4.8,2.5-4.8,2.5l.05,7.82s3.14.16,4.98,1.48c1.67,1.2,1.94,2.35,1.94,3.12s-.65,4.7-8.49,4.6c-7.84-.1-8.31-4.35-8.31-5.11s.74-2.24,2.95-3.17c2.08-.87,3.88-.77,3.88-.77v-8.12s-2.91-.82-5.12-3.17c-1.37-1.45-3.65-4.75-3.32-10.12.28-4.71,2.86-12.58,2.86-12.58Z" fill="#fff" isolation="isolate" opacity=".5"/><path d="M217.03,193.93l1.84-1.69,2.86-1.24h6.6l3.02,1.65,1.59,1.48.61,1.64s2.71,7.31,2.5,11.4c-.19,3.83-.66,7.22-4.19,10.28-2.66,2.3-5.32,2.5-5.86,2.5v7.81c.57,0,4.07.4,6.11,1.73,1.85,1.2,2.15,2.12,2.15,2.89s-.72,4.7-9.41,4.6c-8.69-.1-9.2-4.35-9.2-5.11s.82-2.24,3.27-3.17c2.3-.87,4.27-.93,4.07-.93v-7.96c.22,0-3-.82-5.45-3.17-1.52-1.45-4.04-4.75-3.68-10.12.31-4.71,3.17-12.58,3.17-12.58Z" fill="#e0e0e0" isolation="isolate" opacity=".7"/><path d="M222.95,219.98c-.11-.03-2.62-.64-4.33-1.98-3.32-2.6-4.89-5.46-5.09-9.29-.12-2.26.81-6.09,1.47-8.78.67-2.74,1.49-4.78,1.5-4.81,0,0,.11-.31.22-.25.24.12,0,1.2,0,1.2-.19.69-.36,1.34-1.02,4.04-.65,2.64-1.5,6.4-1.38,8.55.19,3.58,1.67,6.27,4.8,8.72,1.59,1.24,3.61,1.73,3.88,1.86s.63.19.58.55c-.05.36-.62.18-.62.18Z" fill="#d4d4d4"/><path d="M226.84,220.08c-.29.03-.57-.02-.6-.31-.03-.35.4-.37.4-.37.29-.1,1.76-.22,3.21-1.1,4.1-2.46,6.08-6.32,5.83-11.32-.36-6.9-3.06-12.15-3.09-12.2l.51-.75c.03.05,2.99,5.85,3.35,12.91.28,5.31-1.71,9.42-6.07,12.03-1.59.95-3.4,1.08-3.55,1.1Z" fill="#9e9e9e"/><path d="M225.48,197.84c-.1,0-.19,0-.29,0-3.41-.05-6.33-1.01-7.74-2.38-.5-.48-.57-.82-.6-1.36-.05-.92,1.04-3.21,8.17-3.18,4.7.02,8.18,1.48,8.2,3.3,0,.55-.09,1-.61,1.52-1.34,1.31-3.99,2.09-7.12,2.09ZM224.67,192c-4.67.04-6.67,1.33-6.65,2.16,0,.21.02.33.28.6.93.97,3.43,1.97,6.92,2.02h0c3.47.06,5.68-.87,6.58-1.76.29-.28.44-.38.44-.6,0-.88-1.89-2.3-6.88-2.41-.23,0-.46,0-.68,0Z" fill="#c8c8c8"/><path d="M225.56,196.99c-.31,0-.64,0-.98-.03-5.43-.29-6.48-2.46-6.53-2.56-.09-.19-.14-.57.01-.61.2-.06.3.12.5.3.33.3,1.5,1.87,6.41,1.99,4.81.11,6.35-1.35,6.64-1.61.21-.19.44-.6.62-.48s.09.58-.02.76c-.16.28-1.38,2.24-6.64,2.24Z" fill="#fff"/><path d="M224.96,220.25c-.83,0-.66.64-.71,4.89-.03,3.39.32,4,.67,4.03.35.03.67-.22.67-3.81,0-4.16.13-5.12-.64-5.12Z" fill="#9e9e9e"/><path d="M226.25,228.13c-.32.03.03.72-.4,1.27-.34.43-.98.69-.95,1.18.03.49,2.54.17,2.54-.75,0-.36-.26-.61-.52-.95s-.5-.76-.66-.75Z" fill="#fff"/><path d="M220.45,231.62s1.1,1.48,4.51,1.51c3.44.03,4.28-1.01,4.41-1.42.09-.31-1.07-1.93-1.21-1.91-.14.03-.52,1.54-3.18,1.44-2.66-.1-2.73-1.14-2.94-1.34-.17-.16-1.59,1.71-1.59,1.71Z" fill="#9e9e9e"/><path d="M217.27,230.9c-.86.11-.9,1.11-.35,2.02,1.12,1.85,4.86,3.11,5.05,2.11.17-.9-1.79-1.12-1.59-2.63.14-1.1,2.11-2.11,1.56-2.69-.55-.58-1.38.78-2.51,1.04-.98.23-1.5.06-2.16.15Z" fill="#fff"/><path d="M229.74,229.43c-.48.38.95.78.9,1.96-.06,1.18-1.24,1.69-1.01,2.02.35.49,2.38-.55,2.31-2.17-.06-1.32-1.76-2.16-2.19-1.81Z" fill="#cacaca"/><path d="M229.22,234.89c.17.55,2.47.31,3.55-1.24,1.12-1.62.35-2.97-.09-2.83-.43.14.17,1.16-.92,2.22-1.1,1.07-2.74,1.24-2.54,1.85Z" fill="#fff"/><path d="M215.66,231.81c-.1-.09-.28.82.02,1.57.26.64,1.59,3.95,9.56,4.01,8.86.07,9.32-3.73,9.2-4.8-.07-.7-.21-.94-.28-.94-.07,0-.14.62-.19.96-.19,1.05-1.23,3.71-8.59,3.77-6.7.05-8.66-2.69-9.01-3.18-.24-.35-.66-1.35-.72-1.4Z" fill="#9e9e9e"/><path d="M215.07,207.91l1.19,3.24,4.37,2.35,5.59,1.05,5.56-4.83,1.95-2.88s-1.92-.81-4.08-1.13c-3.37-.5-6.24-.62-9.61,0-4.14.77-4.96,2.18-4.96,2.18Z" fill="#cc1935"/><path d="M222.7,212.8c3.9.13,4.43-2.15,7.61-4.4,3.18-2.25,4.46-1.59,4.46-1.59,0,0,1.07,4.83-2.61,8.66-3.21,3.34-9.08,4.34-13.72.41-3.44-2.91-3.38-7.99-3.38-7.99,0,0,2.71,4.73,7.64,4.89Z" fill="url(#uuid-faadd6ce-c857-405c-8528-4bddbc871b4e)"/><path d="M217.71,197.12s-.55,1.54-1.24,4.63c-.59,2.65-.84,4.34-.84,4.34,0,0,1.25-.62,2.64-.98,1.26-.33,2.35-.26,2.35-.26,0,0-.03-2.02.13-3.48.14-1.2.43-2.75.43-2.75,0,0-1.09-.26-1.76-.56-.66-.3-1.72-.93-1.72-.93Z" fill="#fff"/><path d="M272.73,212.23c.05.17,9.3-1.52,9.3-1.52l5.75-8.46-6.69-.79-8.83-5.58-3.35-4.68-4.3,9.08s8.08,11.79,8.12,11.95Z" fill="#fff" isolation="isolate" opacity=".5"/><path d="M280.84,191.39l-4.85-2.21-4.18-.75-3.1.9-11.97,25.53-1.81,3.04s.62,4.6,6.42,7.95c5.8,3.35,10.29,2.08,10.29,2.08l1.78-3.16,15.93-23.19-.23-2.76-4.24-4.66-4.04-2.77Z" fill="#e0e0e0" isolation="isolate" opacity=".7"/><path d="M264.59,200.26c-.46.79-7.42,15.16-7.4,16.14.02.98,1.03,4.59,5.59,7.12,4.56,2.53,8.46,2.13,9.1,1.59.64-.55,10.14-14.39,10.14-14.39,0,0,.79-1.64-1.84-4.61s-6.83-5.1-9.12-5.87c-2.88-.96-5.95-.86-6.46.03Z" fill="silver"/><path d="M264.49,203.82l.12-2.24s.28-.52.53-.79,1.6-1.4,5.42-.11c3.03,1.02,6.44,3.07,8.55,5.19,1.43,1.44,2.57,3.3,2.28,4.33-.33,1.17-1.03,1.34-1.03,1.34l-3.27,1.73-12.32-7.34-.28-2.12Z" fill="#fcf9e9"/><path d="M257.96,216.32c-.11.44.39,3.63,5.16,6.38,4.77,2.76,7.91,2.21,8.19,1.84s9.59-13.38,9.59-13.38c0,0-3.43,1.42-9.59-2.3s-6.68-7.28-6.68-7.28c0,0-6.55,14.28-6.66,14.75Z" fill="#f0e7ba"/><path d="M269.5,197.27c-.71-.35-1.37-.03-1.85,1.13-.33.78-.59,1.67.43,2.14,1.03.47,1.65-.53,1.88-1.18.34-.96.33-1.7-.46-2.09Z" fill="#fff"/><path d="M267.81,200.96c-.69-.33-1.13-.06-1.72,1.18-.78,1.63-5.64,11.88-6.06,12.77-.42.89-.22,1.42.3,1.72s1.24.03,1.56-.58c.32-.6,5.86-12.26,6.16-12.94.3-.68.73-1.69-.23-2.15Z" fill="#fff"/><path d="M256.59,217.15c-.49.4-.42,1.84.54,3.32,1.06,1.65,2.82,2.51,3.22,1.89.42-.65-.73-1.08-1.87-2.75-.94-1.38-1.11-3.09-1.89-2.46Z" fill="#fff"/><path d="M262.86,224.82c-.35.47,2.34,1.79,4.72,2.26,2.71.53,4.01-.19,3.96-.72s-1.13.15-3.78-.41c-3.67-.79-4.37-1.83-4.9-1.12Z" fill="#d5d5d5"/><path d="M276.8,199.99l-.21-.12c-6.48-3.8-7.93-6.91-8.19-8.47-.17-1.02.08-1.87.64-2.52v-.02c1.8-1.57,6.48-1.18,12.49,2.26,6.76,3.88,8.85,8.26,8.08,9.98-.25.55-.87,1.41-2.12,1.77-2.27.66-6.18-.27-10.68-2.87ZM270.28,189.91c-.37.43-.61.8-.49,1.53.19,1.12,1.04,3.68,7.39,7.41l.21.12c5.72,3.3,8.27,3.1,9.52,2.7.7-.22,1.11-.54,1.35-1.07.5-1.13-1.14-4.81-7.31-8.33-6.57-3.75-9.76-3.38-10.62-2.38l-.05.02Z" fill="#c8c8c8"/><path d="M271.75,189.2c-.05-.21-.57-.4-1.21-.17-.57.2-1.49.75-1.35,2.05.14,1.31,1.24,4.24,8.03,8.28,6.14,3.66,10.32,3.26,11.23,1.88s0-1.85-.11-1.66-.16.7-.49,1.14c-.39.51-3.12,2.07-10.31-2.07-6.89-3.96-7.85-7.49-7.42-8.19.67-1.08,1.75-.8,1.64-1.27Z" fill="#fff"/><path d="M161,327.56l.76,22.15c.01,1.67,1.11,2.78,3.66,2.78s3.68-1.12,3.68-2.76l.83-23.89-8.92,1.73Z" fill="none" stroke="#000" stroke-linecap="round" stroke-linejoin="round"/><polygon points="168.94 243 160 243 159.92 281.66 169 280.09 168.94 243" fill="none" stroke="#000" stroke-linecap="round" stroke-linejoin="round"/><path d="M163.73,217.65c-1.35.2-54.31,8-54.31,8-2.17.42-3.94,2.4-3.96,4.94l.03,1.09,5.88,6.93s16.76,13.54,18.01,13.3,44.2-31.27,44.2-31.27c-.81-.98-1.64-1.43-5.18-2.34-1.67-.43-3.32-.84-4.67-.65Z" fill="none" stroke="#000" stroke-linecap="round" stroke-linejoin="round"/><path d="M111.81,263l-.56-28.85c.01-2.51-.65-3.56-1.99-4.31-1.46-.88-3.27.25-3.26,2.06l.1,27.9c0,.86-.1,3.2,1.54,3.77l3.36,1.04v26.02l9-1.74v-25.89h-8.19Z" fill="none" stroke="#000" stroke-linecap="round" stroke-linejoin="round"/><path d="M149,318.45v-8.48c-3.39.42-5.02-.11-5.02-.11l-36.98-17.54v4.66c0,2.03,0,3.34,2.97,4.78l.48.24,1.87,60.2c.01,1.67,1.28,2.78,3.81,2.78s3.8-1.12,3.8-2.76l1.46-43.23,20.19,9.97-.5-10.85c2.47,1.21,5.2.72,7.92.36Z" fill="none" stroke="#000" stroke-linecap="round" stroke-linejoin="round"/><path d="M141.71,317.5l2.06,64.31c.01,1.67,1.2,2.78,3.72,2.78s3.75-1.12,3.75-2.76l1.74-51.8,41.99-8.14,1.48,47.44c.01,1.67,1.24,2.78,3.76,2.78s3.71-1.12,3.71-2.76l2.1-61.34h.01l1.01-.19c1.71-.33,2.95-1.82,2.95-3.56v-5.43l-3.32,1.8-58.45,11.35c-1.3.29-2.23.06-2.23,1.39v5.55l-4.29-1.4Z" fill="none" stroke="#000" stroke-linecap="round" stroke-linejoin="round"/><path d="M208.3,300.1l-58.68,11.24c-2.67.5-5.43.14-7.87-1.08l-33.41-16.58c-1.57-.79-1.29-3.35,1.02-3.69l59.04-10.04c2.34-.45,4.81-.5,6.96.55l33.44,15.89c1.7.84,1.36,3.35-.5,3.72Z" fill="none" stroke="#000" stroke-linecap="round" stroke-linejoin="round"/><path d="M170.49,220.49l-56.68,8.41c-2.46.59-2.81,2.54-2.81,3.92l.11,29.58c0,1.8,1.77,2.35,3.54,2.01l56.93-9.14c1.35-.27,2.4-1.88,2.42-3.97l-.11-29.58c-.01-1.8-1.69-1.46-3.4-1.22Z" fill="none" stroke="#000" stroke-linecap="round" stroke-linejoin="round"/><path d="M322.45,330.83l.83,23.89c0,1.64,1.12,2.76,3.68,2.76,2.55,0,3.65-1.11,3.66-2.78l.76-22.15-8.92-1.73Z" fill="none" stroke="#000" stroke-linecap="round" stroke-linejoin="round"/><polygon points="323.94 285.09 333 286.66 332.92 248 324 248 323.94 285.09" fill="none" stroke="#000" stroke-linecap="round" stroke-linejoin="round"/><path d="M323.96,223.3c-3.53.91-4.36,1.36-5.18,2.34,0,0,42.95,31.03,44.2,31.27s18.01-13.3,18.01-13.3l5.88-6.93.03-1.09c-.01-2.54-1.78-4.52-3.96-4.94,0,0-52.97-7.8-54.31-8s-3,.21-4.67.65Z" fill="none" stroke="#000" stroke-linecap="round" stroke-linejoin="round"/><path d="M373,268v25.89s9,1.74,9,1.74v-26.02s3.43-1.04,3.43-1.04c1.68-.58,1.57-2.92,1.57-3.77l.11-27.9c.01-1.81-1.84-2.95-3.32-2.06-1.37.74-2.05,1.8-2.03,4.31l-.57,28.85h-8.18Z" fill="none" stroke="#000" stroke-linecap="round" stroke-linejoin="round"/><path d="M350.92,323.09l-.5,10.85,20.19-9.97,1.46,43.23c0,1.64,1.25,2.76,3.8,2.76,2.54,0,3.8-1.11,3.81-2.78l1.87-60.2.48-.24c2.97-1.44,2.97-2.75,2.97-4.78v-4.66s-36.98,17.54-36.98,17.54c0,0-1.63.53-5.02.11v8.48c2.72.35,5.46.84,7.92-.36Z" fill="none" stroke="#000" stroke-linecap="round" stroke-linejoin="round"/><path d="M347,323.9v-5.55c0-1.33-.93-1.09-2.23-1.39l-58.45-11.35-3.32-1.8v5.43c0,1.74,1.24,3.24,2.95,3.56l1.01.19h.01l2.1,61.34c0,1.64,1.17,2.76,3.71,2.76s3.75-1.11,3.76-2.78l1.48-47.44,41.99,8.14,1.74,51.8c0,1.64,1.21,2.76,3.75,2.76,2.52,0,3.71-1.11,3.72-2.78l2.06-64.31-4.29,1.4Z" fill="none" stroke="#000" stroke-linecap="round" stroke-linejoin="round"/><path d="M283.57,301.39l33.44-15.89c2.15-1.05,4.61-1,6.96-.55l59.04,10.04c2.31.34,2.6,2.9,1.02,3.69l-33.41,16.58c-2.44,1.22-5.2,1.59-7.87,1.08l-58.68-11.24c-1.87-.36-2.2-2.88-.5-3.72Z" fill="none" stroke="#000" stroke-linecap="round" stroke-linejoin="round"/><path d="M318,226.64l-.11,29.68c.01,2.1,1.07,3.72,2.42,3.99l57.14,9.18c1.78.34,3.55-.21,3.55-2.02l.11-29.68c0-1.38-.35-3.34-2.82-3.93l-56.88-8.44c-1.72-.24-3.4-.58-3.41,1.23Z" fill="none" stroke="#000" stroke-linecap="round" stroke-linejoin="round"/><polygon id="uuid-d39a9354-3992-47aa-b25d-4f0b24a95a21" points="210.94 323 193.28 329.22 204.1 359.92 206.28 366.11 232.77 356.77 230.59 350.58 221.76 353.7 210.94 323" fill="none" stroke="#000" stroke-linecap="round" stroke-linejoin="round"/><rect id="uuid-c29c15fe-2a4b-46a0-ab0a-77662a8498b7" x="175.78" y="290.53" width="23.32" height="46.03" transform="translate(-164.76 216.61) rotate(-43.74)" fill="none" stroke="#000" stroke-linecap="round" stroke-linejoin="round"/><polygon id="uuid-a2301fd3-51ad-4264-bd70-19c6b1c2d387" points="154.67 334.29 173.58 332.43 176.82 365.27 185.78 364.39 186.37 370.36 158.5 373.11 157.86 366.6 157.86 366.6 154.67 334.29" fill="none" stroke="#000" stroke-linecap="round" stroke-linejoin="round"/><rect id="uuid-2ae96916-e54d-4bf5-921b-66f8fb1595b0" x="142.52" y="295.83" width="23" height="46" transform="translate(-141.39 123.62) rotate(-30.76)" fill="none" stroke="#000" stroke-linecap="round" stroke-linejoin="round"/><path id="uuid-94b6ed84-2adb-478d-bfa9-0640c28c1f24" d="M132,212v94h52v-94h-52Z" fill="none" stroke="#000" stroke-linecap="round" stroke-linejoin="round"/><rect id="uuid-9cdbe295-1abd-4c70-a04b-d3c1cfe80f00" x="132" y="267" width="52" height="16" fill="none" stroke="#000" stroke-linecap="round" stroke-linejoin="round"/><rect id="uuid-fa9df2c7-38db-493d-8c35-cdd29b252783" x="170" y="212" width="6" height="55" fill="none" stroke="#000" stroke-linecap="round" stroke-linejoin="round"/><rect id="uuid-a90101ac-d8e8-4f47-9e53-1e2a01eafe6e" x="141" y="212" width="6" height="55" fill="none" stroke="#000" stroke-linecap="round" stroke-linejoin="round"/><path id="uuid-c65a5539-6d5b-4442-827c-d3e921425e1e" d="M184.18,196.98c1.37-5.18,1.87-10.92,1.29-16.88-2.03-20.59-16.2-36.04-31.64-34.52-15.44,1.52-26.31,19.45-24.28,40.04.59,5.96,2.2,11.49,4.56,16.3l50.07-4.94Z" fill="none" stroke="#000" stroke-linecap="round" stroke-linejoin="round"/><path id="uuid-6d85950f-ceab-4b4a-9b3e-2b44689422fd" d="M135.02,206c4.99,10.43,13.74,17.36,23.7,17.36s18.71-6.93,23.7-17.36h-47.4Z" fill="none" stroke="#000" stroke-linecap="round" stroke-linejoin="round"/><ellipse id="uuid-252dff1c-1b25-44b8-bf4b-eeb80292e9e3" cx="176" cy="185" rx="3" ry="4" fill="none" stroke="#000" stroke-linecap="round" stroke-linejoin="round"/><ellipse id="uuid-7cf13427-5403-49ea-bcf5-055f8a12bc2a" cx="161" cy="187" rx="3" ry="4" fill="none" stroke="#000" stroke-linecap="round" stroke-linejoin="round"/><rect id="uuid-6cb1f746-7854-4a87-9e29-56562b6f5c04" x="186.04" y="232.08" width="29.97" height="14.05" transform="translate(-106.46 184.01) rotate(-39.79)" fill="none" stroke="#000" stroke-linecap="round" stroke-linejoin="round"/><rect id="uuid-3ed263a8-bc95-4343-b2dd-f22493fa76c0" x="183.79" y="211.88" width="14.05" height="29.97" transform="translate(-21.35 19.83) rotate(-5.63)" fill="none" stroke="#000" stroke-linecap="round" stroke-linejoin="round"/><rect id="uuid-10949cc2-0ac7-420b-ad89-bade46a994a2" x="111.14" y="218.84" width="29.97" height="14.05" transform="translate(-119.21 307.91) rotate(-79.31)" fill="none" stroke="#000" stroke-linecap="round" stroke-linejoin="round"/><rect id="uuid-2fa842f1-c887-4ddd-a818-f2445163b37d" x="101.51" y="243.35" width="29.97" height="14.05" transform="translate(-158.57 225.91) rotate(-59.97)" fill="none" stroke="#000" stroke-linecap="round" stroke-linejoin="round"/><rect id="uuid-02db329c-3926-4103-975d-e2013f2a2e88" x="209.89" y="218.15" width="14.98" height="14.98" transform="translate(-94.06 191.36) rotate(-39.79)" fill="none" stroke="#000" stroke-linecap="round" stroke-linejoin="round"/><rect id="uuid-58841103-5793-490e-a83a-908e8255332d" x="97.71" y="262.4" width="14.98" height="14.98" transform="translate(-181.11 225.89) rotate(-59.97)" fill="none" stroke="#000" stroke-linecap="round" stroke-linejoin="round"/><circle id="uuid-0c807d6c-a65c-4c5c-aac4-1e26bbca5d63" cx="158" cy="256" r="2" fill="none" stroke="#000" stroke-linecap="round" stroke-linejoin="round"/><circle id="uuid-83c1c79d-21ef-43ff-a547-d3323ba06746" cx="158" cy="248" r="2" fill="none" stroke="#000" stroke-linecap="round" stroke-linejoin="round"/><circle id="uuid-e23fc87f-5afb-48a1-86b5-ae59b36af7d4" cx="158" cy="241" r="2" fill="none" stroke="#000" stroke-linecap="round" stroke-linejoin="round"/><circle id="uuid-613414c8-b362-464b-8b8c-7804b8692b03" cx="158" cy="232" r="2" fill="none" stroke="#000" stroke-linecap="round" stroke-linejoin="round"/><path d="M186.63,158.2c-2.97-12.85-17.31-21.67-33.53-20.07-16.22,1.6-28.57,13.05-28.97,26.24-5.34,1.31-8.5,2.61-8.39,3.68.25,2.51,18.32,2.78,40.37.6,22.05-2.18,39.72-5.97,39.47-8.48-.11-1.07-3.45-1.73-8.95-1.97Z" fill="none" stroke="#000" stroke-linecap="round" stroke-linejoin="round"/><g id="uuid-ccb6192a-6bb9-413d-86af-0dabb224cb3a"><polygon id="uuid-69b5f313-ba5e-4323-89b6-462811c71a1e" points="281.02 323.47 298.69 329.69 287.87 360.39 285.69 366.58 259.19 357.24 261.37 351.05 270.2 354.17 281.02 323.47" fill="none" stroke="#000" stroke-linecap="round" stroke-linejoin="round"/><rect id="uuid-75b9596e-98ad-4437-b988-52e0663d4cd5" x="281.51" y="302.35" width="46.03" height="23.32" transform="translate(-132.89 316.91) rotate(-46.26)" fill="none" stroke="#000" stroke-linecap="round" stroke-linejoin="round"/><polygon id="uuid-8633422a-77f9-4a29-b204-9c5ae3da92ab" points="352.96 326.82 367.81 338.67 347.23 364.47 354.26 370.08 350.52 374.77 328.63 357.31 332.71 352.2 332.71 352.2 352.96 326.82" fill="none" stroke="#000" stroke-linecap="round" stroke-linejoin="round"/><rect id="uuid-939900d7-7871-43f0-b5a4-7260d3ff3872" x="348.74" y="294.3" width="23" height="46" transform="translate(-111.6 228.88) rotate(-30.76)" fill="none" stroke="#000" stroke-linecap="round" stroke-linejoin="round"/><path id="uuid-1603f309-214a-48ed-bfdc-cc38d26bf7fd" d="M308,212v94s52,0,52,0v-94s-52,0-52,0Z" fill="none" stroke="#000" stroke-linecap="round" stroke-linejoin="round"/><rect id="uuid-bab4e454-2899-41ec-a29f-25357fe61951" x="308" y="267" width="52" height="16" fill="none" stroke="#000" stroke-linecap="round" stroke-linejoin="round"/><rect id="uuid-1f71439c-383a-40e2-babd-88290506fbc3" x="316" y="212" width="6" height="55" fill="none" stroke="#000" stroke-linecap="round" stroke-linejoin="round"/><rect id="uuid-3bc2ce93-6303-43bf-9621-f214a775cacf" x="345" y="212" width="6" height="55" fill="none" stroke="#000" stroke-linecap="round" stroke-linejoin="round"/><path id="uuid-b8a0dc47-88b8-4d08-9349-f8778212e07d" d="M307.78,197.45c-1.37-5.18-1.87-10.92-1.29-16.88,2.03-20.59,16.2-36.04,31.64-34.52,15.44,1.52,26.31,19.45,24.28,40.04-.59,5.96-2.2,11.49-4.56,16.3l-50.07-4.94Z" fill="none" stroke="#000" stroke-linecap="round" stroke-linejoin="round"/><path id="uuid-496fa5c8-7a6b-444e-b0d1-4b4409859593" d="M356.94,206c-4.99,10.43-13.74,17.36-23.7,17.36-9.97,0-18.71-6.93-23.7-17.36h47.4Z" fill="none" stroke="#000" stroke-linecap="round" stroke-linejoin="round"/><ellipse id="uuid-f3aecd95-1c0f-4003-a55b-4813e4c94d50" cx="316" cy="185" rx="3" ry="4" fill="none" stroke="#000" stroke-linecap="round" stroke-linejoin="round"/><ellipse id="uuid-ddec876a-cbea-49ad-959e-49d72494e889" cx="331" cy="187" rx="3" ry="4" fill="none" stroke="#000" stroke-linecap="round" stroke-linejoin="round"/><rect id="uuid-e90f6f64-7043-45b1-9ffc-d026a12095c4" x="282.91" y="223.58" width="14.05" height="29.97" transform="translate(-78.93 308.69) rotate(-50.21)" fill="none" stroke="#000" stroke-linecap="round" stroke-linejoin="round"/><rect id="uuid-2e5e56bd-d768-47db-b7c8-083a4f141e14" x="285.16" y="220.31" width="29.97" height="14.05" transform="translate(44.44 503.71) rotate(-84.37)" fill="none" stroke="#000" stroke-linecap="round" stroke-linejoin="round"/><rect id="uuid-2c03ff9c-118a-4de3-aeb3-5097a65b3883" x="359.81" y="212.35" width="14.05" height="29.97" transform="translate(-17.25 30.54) rotate(-4.66)" fill="none" stroke="#000" stroke-linecap="round" stroke-linejoin="round"/><rect id="uuid-6c71b85c-8cbb-45d5-b329-8164a5cd7c29" x="362.61" y="230.7" width="29.97" height="14.05" transform="translate(-62.59 310.72) rotate(-41.61)" fill="none" stroke="#000" stroke-linecap="round" stroke-linejoin="round"/><rect id="uuid-5012ade1-7116-4da4-bdfe-6ff7cb89daa0" x="265.09" y="216.62" width="14.98" height="14.98" transform="translate(-74.07 290.15) rotate(-50.21)" fill="none" stroke="#000" stroke-linecap="round" stroke-linejoin="round"/><rect id="uuid-50227d76-3d10-48dc-b9d6-deefbf639e06" x="386.96" y="215.25" width="14.98" height="14.98" transform="translate(-48.39 318.14) rotate(-41.61)" fill="none" stroke="#000" stroke-linecap="round" stroke-linejoin="round"/><circle id="uuid-b3ba9df6-4b8d-4b3d-a78b-d6eafb31c134" cx="334" cy="256" r="2" fill="none" stroke="#000" stroke-linecap="round" stroke-linejoin="round"/><circle id="uuid-8a01cc6a-4497-4a4e-b95e-c4e9b1e60132" cx="334" cy="248" r="2" fill="none" stroke="#000" stroke-linecap="round" stroke-linejoin="round"/><circle id="uuid-a3cc836f-8f95-40e6-acd5-8d8f7b11778c" cx="334" cy="241" r="2" fill="none" stroke="#000" stroke-linecap="round" stroke-linejoin="round"/><circle id="uuid-8bd8a484-702e-4598-974c-92fa7c790384" cx="334" cy="232" r="2" fill="none" stroke="#000" stroke-linecap="round" stroke-linejoin="round"/><path d="M305.33,158.67c2.97-12.85,17.31-21.67,33.53-20.07,16.22,1.6,28.57,13.05,28.97,26.24,5.34,1.31,8.5,2.61,8.39,3.68-.25,2.51-18.32,2.78-40.37.6-22.05-2.18-39.72-5.97-39.47-8.48.11-1.07,3.45-1.73,8.95-1.97Z" fill="none" stroke="#000" stroke-linecap="round" stroke-linejoin="round"/><polygon id="uuid-dfd730e7-1fea-49ff-86d6-8aa3ec464d22" points="281.02 323.47 298.69 329.69 287.87 360.39 285.69 366.58 259.19 357.24 261.37 351.05 270.2 354.17 281.02 323.47" fill="none" stroke="#000" stroke-linecap="round" stroke-linejoin="round"/><rect id="uuid-fd35e915-90e6-4f9b-9a41-fa80f5944c7b" x="281.51" y="302.35" width="46.03" height="23.32" transform="translate(-132.89 316.91) rotate(-46.26)" fill="none" stroke="#000" stroke-linecap="round" stroke-linejoin="round"/><polygon id="uuid-aea709e7-be1e-40fb-a294-e97f7fa8256e" points="352.96 326.82 367.81 338.67 347.23 364.47 354.26 370.08 350.52 374.77 328.63 357.31 332.71 352.2 332.71 352.2 352.96 326.82" fill="none" stroke="#000" stroke-linecap="round" stroke-linejoin="round"/><rect id="uuid-87b54599-fb99-4dff-9149-ad6c8c49beff" x="348.74" y="294.3" width="23" height="46" transform="translate(-111.6 228.88) rotate(-30.76)" fill="none" stroke="#000" stroke-linecap="round" stroke-linejoin="round"/><path id="uuid-40a1bfed-404a-4b1d-a315-4eb2be17c2d6" d="M308,212v94s52,0,52,0v-94s-52,0-52,0Z" fill="none" stroke="#000" stroke-linecap="round" stroke-linejoin="round"/><rect id="uuid-f4f3935b-85e2-4d72-ab9d-78af4e75f0e7" x="308" y="267" width="52" height="16" fill="none" stroke="#000" stroke-linecap="round" stroke-linejoin="round"/><rect id="uuid-1c9bdb92-e1b3-4d1e-b662-98c7f41e7c45" x="316" y="212" width="6" height="55" fill="none" stroke="#000" stroke-linecap="round" stroke-linejoin="round"/><rect id="uuid-6bed6bd7-eedd-4bb2-9383-6d7bb18b046d" x="345" y="212" width="6" height="55" fill="none" stroke="#000" stroke-linecap="round" stroke-linejoin="round"/><path id="uuid-388c4e37-a436-41e5-a3b0-22e37871d78f" d="M307.78,197.45c-1.37-5.18-1.87-10.92-1.29-16.88,2.03-20.59,16.2-36.04,31.64-34.52,15.44,1.52,26.31,19.45,24.28,40.04-.59,5.96-2.2,11.49-4.56,16.3l-50.07-4.94Z" fill="none" stroke="#000" stroke-linecap="round" stroke-linejoin="round"/><path id="uuid-ca937012-bbae-40f9-93e9-ecef5cfdc182" d="M356.94,206c-4.99,10.43-13.74,17.36-23.7,17.36-9.97,0-18.71-6.93-23.7-17.36h47.4Z" fill="none" stroke="#000" stroke-linecap="round" stroke-linejoin="round"/><ellipse id="uuid-35de7092-9ebb-4459-aaf7-94dc24bb2937" cx="316" cy="185" rx="3" ry="4" fill="none" stroke="#000" stroke-linecap="round" stroke-linejoin="round"/><ellipse id="uuid-740bb786-5d58-42de-bcd9-b24b0fe7ff5d" cx="331" cy="187" rx="3" ry="4" fill="none" stroke="#000" stroke-linecap="round" stroke-linejoin="round"/><rect id="uuid-adf5f798-5b46-4512-9ef2-53ca46b7dfa1" x="282.91" y="223.58" width="14.05" height="29.97" transform="translate(-78.93 308.69) rotate(-50.21)" fill="none" stroke="#000" stroke-linecap="round" stroke-linejoin="round"/><rect id="uuid-34106728-3749-42d9-835e-a2062c8c9520" x="285.16" y="220.31" width="29.97" height="14.05" transform="translate(44.44 503.71) rotate(-84.37)" fill="none" stroke="#000" stroke-linecap="round" stroke-linejoin="round"/><rect id="uuid-7e7ad435-0bf5-4716-b3bb-cd26e6a846ec" x="359.81" y="212.35" width="14.05" height="29.97" transform="translate(-17.25 30.54) rotate(-4.66)" fill="none" stroke="#000" stroke-linecap="round" stroke-linejoin="round"/><rect id="uuid-4563099b-e0f7-4c10-b011-54d2228bdea3" x="362.61" y="230.7" width="29.97" height="14.05" transform="translate(-62.59 310.72) rotate(-41.61)" fill="none" stroke="#000" stroke-linecap="round" stroke-linejoin="round"/><rect id="uuid-2d3d7de7-2f14-4c06-9d72-ffaaed6c3570" x="265.09" y="216.62" width="14.98" height="14.98" transform="translate(-74.07 290.15) rotate(-50.21)" fill="none" stroke="#000" stroke-linecap="round" stroke-linejoin="round"/><rect id="uuid-399ba828-6077-4451-be77-bec02ee71b42" x="386.96" y="215.25" width="14.98" height="14.98" transform="translate(-48.39 318.14) rotate(-41.61)" fill="none" stroke="#000" stroke-linecap="round" stroke-linejoin="round"/><circle id="uuid-c9682fe3-5a89-4522-92c5-120ef1c6c875" cx="334" cy="256" r="2" fill="none" stroke="#000" stroke-linecap="round" stroke-linejoin="round"/><circle id="uuid-4775f034-5aeb-4f96-90ba-4eba78033b68" cx="334" cy="248" r="2" fill="none" stroke="#000" stroke-linecap="round" stroke-linejoin="round"/><circle id="uuid-8e951502-d3ec-443a-9035-73719e1e0ee0" cx="334" cy="241" r="2" fill="none" stroke="#000" stroke-linecap="round" stroke-linejoin="round"/><circle id="uuid-2bec1eef-d4af-4d28-8db2-904b42940c88" cx="334" cy="232" r="2" fill="none" stroke="#000" stroke-linecap="round" stroke-linejoin="round"/><path d="M305.33,158.67c2.97-12.85,17.31-21.67,33.53-20.07,16.22,1.6,28.57,13.05,28.97,26.24,5.34,1.31,8.5,2.61,8.39,3.68-.25,2.51-18.32,2.78-40.37.6-22.05-2.18-39.72-5.97-39.47-8.48.11-1.07,3.45-1.73,8.95-1.97Z" fill="none" stroke="#000" stroke-linecap="round" stroke-linejoin="round"/></g><path d="M217.41,193.93l4.19,2.53,6.27.19,3.89-2.52.55,1.64s2.45,7.31,2.26,11.4c-.17,3.83-.6,7.22-3.78,10.28-2.4,2.3-4.8,2.5-4.8,2.5l.05,7.82s3.14.16,4.98,1.48c1.67,1.2,1.94,2.35,1.94,3.12s-.65,4.7-8.49,4.6c-7.84-.1-8.31-4.35-8.31-5.11s.74-2.24,2.95-3.17c2.08-.87,3.88-.77,3.88-.77v-8.12s-2.91-.82-5.12-3.17c-1.37-1.45-3.65-4.75-3.32-10.12.28-4.71,2.86-12.58,2.86-12.58Z" fill="none" stroke="#000" stroke-linecap="round" stroke-linejoin="round"/><path d="M217.03,193.93l1.84-1.69,2.86-1.24h6.6l3.02,1.65,1.59,1.48.61,1.64s2.71,7.31,2.5,11.4c-.19,3.83-.66,7.22-4.19,10.28-2.66,2.3-5.32,2.5-5.86,2.5v7.81c.57,0,4.07.4,6.11,1.73,1.85,1.2,2.15,2.12,2.15,2.89s-.72,4.7-9.41,4.6c-8.69-.1-9.2-4.35-9.2-5.11s.82-2.24,3.27-3.17c2.3-.87,4.27-.93,4.07-.93v-7.96c.22,0-3-.82-5.45-3.17-1.52-1.45-4.04-4.75-3.68-10.12.31-4.71,3.17-12.58,3.17-12.58Z" fill="none" stroke="#000" stroke-linecap="round" stroke-linejoin="round"/><path d="M222.95,219.98c-.11-.03-2.62-.64-4.33-1.98-3.32-2.6-4.89-5.46-5.09-9.29-.12-2.26.81-6.09,1.47-8.78.67-2.74,1.49-4.78,1.5-4.81,0,0,.11-.31.22-.25.24.12,0,1.2,0,1.2-.19.69-.36,1.34-1.02,4.04-.65,2.64-1.5,6.4-1.38,8.55.19,3.58,1.67,6.27,4.8,8.72,1.59,1.24,3.61,1.73,3.88,1.86s.63.19.58.55c-.05.36-.62.18-.62.18Z" fill="none" stroke="#000" stroke-linecap="round" stroke-linejoin="round"/><path d="M226.84,220.08c-.29.03-.57-.02-.6-.31-.03-.35.4-.37.4-.37.29-.1,1.76-.22,3.21-1.1,4.1-2.46,6.08-6.32,5.83-11.32-.36-6.9-3.06-12.15-3.09-12.2l.51-.75c.03.05,2.99,5.85,3.35,12.91.28,5.31-1.71,9.42-6.07,12.03-1.59.95-3.4,1.08-3.55,1.1Z" fill="none" stroke="#000" stroke-linecap="round" stroke-linejoin="round"/><path d="M225.48,197.84c-.1,0-.19,0-.29,0-3.41-.05-6.33-1.01-7.74-2.38-.5-.48-.57-.82-.6-1.36-.05-.92,1.04-3.21,8.17-3.18,4.7.02,8.18,1.48,8.2,3.3,0,.55-.09,1-.61,1.52-1.34,1.31-3.99,2.09-7.12,2.09ZM224.67,192c-4.67.04-6.67,1.33-6.65,2.16,0,.21.02.33.28.6.93.97,3.43,1.97,6.92,2.02h0c3.47.06,5.68-.87,6.58-1.76.29-.28.44-.38.44-.6,0-.88-1.89-2.3-6.88-2.41-.23,0-.46,0-.68,0Z" fill="none" stroke="#000" stroke-linecap="round" stroke-linejoin="round"/><path d="M225.56,196.99c-.31,0-.64,0-.98-.03-5.43-.29-6.48-2.46-6.53-2.56-.09-.19-.14-.57.01-.61.2-.06.3.12.5.3.33.3,1.5,1.87,6.41,1.99,4.81.11,6.35-1.35,6.64-1.61.21-.19.44-.6.62-.48s.09.58-.02.76c-.16.28-1.38,2.24-6.64,2.24Z" fill="none" stroke="#000" stroke-linecap="round" stroke-linejoin="round"/><path d="M224.96,220.25c-.83,0-.66.64-.71,4.89-.03,3.39.32,4,.67,4.03.35.03.67-.22.67-3.81,0-4.16.13-5.12-.64-5.12Z" fill="none" stroke="#000" stroke-linecap="round" stroke-linejoin="round"/><path d="M226.25,228.13c-.32.03.03.72-.4,1.27-.34.43-.98.69-.95,1.18.03.49,2.54.17,2.54-.75,0-.36-.26-.61-.52-.95s-.5-.76-.66-.75Z" fill="none" stroke="#000" stroke-linecap="round" stroke-linejoin="round"/><path d="M220.45,231.62s1.1,1.48,4.51,1.51c3.44.03,4.28-1.01,4.41-1.42.09-.31-1.07-1.93-1.21-1.91-.14.03-.52,1.54-3.18,1.44-2.66-.1-2.73-1.14-2.94-1.34-.17-.16-1.59,1.71-1.59,1.71Z" fill="none" stroke="#000" stroke-linecap="round" stroke-linejoin="round"/><path d="M217.27,230.9c-.86.11-.9,1.11-.35,2.02,1.12,1.85,4.86,3.11,5.05,2.11.17-.9-1.79-1.12-1.59-2.63.14-1.1,2.11-2.11,1.56-2.69-.55-.58-1.38.78-2.51,1.04-.98.23-1.5.06-2.16.15Z" fill="none" stroke="#000" stroke-linecap="round" stroke-linejoin="round"/><path d="M229.74,229.43c-.48.38.95.78.9,1.96-.06,1.18-1.24,1.69-1.01,2.02.35.49,2.38-.55,2.31-2.17-.06-1.32-1.76-2.16-2.19-1.81Z" fill="none" stroke="#000" stroke-linecap="round" stroke-linejoin="round"/><path d="M229.22,234.89c.17.55,2.47.31,3.55-1.24,1.12-1.62.35-2.97-.09-2.83-.43.14.17,1.16-.92,2.22-1.1,1.07-2.74,1.24-2.54,1.85Z" fill="none" stroke="#000" stroke-linecap="round" stroke-linejoin="round"/><path d="M215.66,231.81c-.1-.09-.28.82.02,1.57.26.64,1.59,3.95,9.56,4.01,8.86.07,9.32-3.73,9.2-4.8-.07-.7-.21-.94-.28-.94-.07,0-.14.62-.19.96-.19,1.05-1.23,3.71-8.59,3.77-6.7.05-8.66-2.69-9.01-3.18-.24-.35-.66-1.35-.72-1.4Z" fill="none" stroke="#000" stroke-linecap="round" stroke-linejoin="round"/><path d="M215.07,207.91l1.19,3.24,4.37,2.35,5.59,1.05,5.56-4.83,1.95-2.88s-1.92-.81-4.08-1.13c-3.37-.5-6.24-.62-9.61,0-4.14.77-4.96,2.18-4.96,2.18Z" fill="none" stroke="#000" stroke-linecap="round" stroke-linejoin="round"/><path d="M222.7,212.8c3.9.13,4.43-2.15,7.61-4.4,3.18-2.25,4.46-1.59,4.46-1.59,0,0,1.07,4.83-2.61,8.66-3.21,3.34-9.08,4.34-13.72.41-3.44-2.91-3.38-7.99-3.38-7.99,0,0,2.71,4.73,7.64,4.89Z" fill="none" stroke="#000" stroke-linecap="round" stroke-linejoin="round"/><path d="M217.71,197.12s-.55,1.54-1.24,4.63c-.59,2.65-.84,4.34-.84,4.34,0,0,1.25-.62,2.64-.98,1.26-.33,2.35-.26,2.35-.26,0,0-.03-2.02.13-3.48.14-1.2.43-2.75.43-2.75,0,0-1.09-.26-1.76-.56-.66-.3-1.72-.93-1.72-.93Z" fill="none" stroke="#000" stroke-linecap="round" stroke-linejoin="round"/><path d="M272.73,212.23c.05.17,9.3-1.52,9.3-1.52l5.75-8.46-6.69-.79-8.83-5.58-3.35-4.68-4.3,9.08s8.08,11.79,8.12,11.95Z" fill="none" stroke="#000" stroke-linecap="round" stroke-linejoin="round"/><path d="M280.84,191.39l-4.85-2.21-4.18-.75-3.1.9-11.97,25.53-1.81,3.04s.62,4.6,6.42,7.95c5.8,3.35,10.29,2.08,10.29,2.08l1.78-3.16,15.93-23.19-.23-2.76-4.24-4.66-4.04-2.77Z" fill="none" stroke="#000" stroke-linecap="round" stroke-linejoin="round"/><path d="M264.59,200.26c-.46.79-7.42,15.16-7.4,16.14.02.98,1.03,4.59,5.59,7.12,4.56,2.53,8.46,2.13,9.1,1.59.64-.55,10.14-14.39,10.14-14.39,0,0,.79-1.64-1.84-4.61s-6.83-5.1-9.12-5.87c-2.88-.96-5.95-.86-6.46.03Z" fill="none" stroke="#000" stroke-linecap="round" stroke-linejoin="round"/><path d="M264.49,203.82l.12-2.24s.28-.52.53-.79,1.6-1.4,5.42-.11c3.03,1.02,6.44,3.07,8.55,5.19,1.43,1.44,2.57,3.3,2.28,4.33-.33,1.17-1.03,1.34-1.03,1.34l-3.27,1.73-12.32-7.34-.28-2.12Z" fill="none" stroke="#000" stroke-linecap="round" stroke-linejoin="round"/><path d="M257.96,216.32c-.11.44.39,3.63,5.16,6.38,4.77,2.76,7.91,2.21,8.19,1.84s9.59-13.38,9.59-13.38c0,0-3.43,1.42-9.59-2.3s-6.68-7.28-6.68-7.28c0,0-6.55,14.28-6.66,14.75Z" fill="none" stroke="#000" stroke-linecap="round" stroke-linejoin="round"/><path d="M269.5,197.27c-.71-.35-1.37-.03-1.85,1.13-.33.78-.59,1.67.43,2.14,1.03.47,1.65-.53,1.88-1.18.34-.96.33-1.7-.46-2.09Z" fill="none" stroke="#000" stroke-linecap="round" stroke-linejoin="round"/><path d="M267.81,200.96c-.69-.33-1.13-.06-1.72,1.18-.78,1.63-5.64,11.88-6.06,12.77-.42.89-.22,1.42.3,1.72s1.24.03,1.56-.58c.32-.6,5.86-12.26,6.16-12.94.3-.68.73-1.69-.23-2.15Z" fill="none" stroke="#000" stroke-linecap="round" stroke-linejoin="round"/><path d="M256.59,217.15c-.49.4-.42,1.84.54,3.32,1.06,1.65,2.82,2.51,3.22,1.89.42-.65-.73-1.08-1.87-2.75-.94-1.38-1.11-3.09-1.89-2.46Z" fill="none" stroke="#000" stroke-linecap="round" stroke-linejoin="round"/><path d="M262.86,224.82c-.35.47,2.34,1.79,4.72,2.26,2.71.53,4.01-.19,3.96-.72s-1.13.15-3.78-.41c-3.67-.79-4.37-1.83-4.9-1.12Z" fill="none" stroke="#000" stroke-linecap="round" stroke-linejoin="round"/><path d="M276.8,199.99l-.21-.12c-6.48-3.8-7.93-6.91-8.19-8.47-.17-1.02.08-1.87.64-2.52v-.02c1.8-1.57,6.48-1.18,12.49,2.26,6.76,3.88,8.85,8.26,8.08,9.98-.25.55-.87,1.41-2.12,1.77-2.27.66-6.18-.27-10.68-2.87ZM270.28,189.91c-.37.43-.61.8-.49,1.53.19,1.12,1.04,3.68,7.39,7.41l.21.12c5.72,3.3,8.27,3.1,9.52,2.7.7-.22,1.11-.54,1.35-1.07.5-1.13-1.14-4.81-7.31-8.33-6.57-3.75-9.76-3.38-10.62-2.38l-.05.02Z" fill="none" stroke="#000" stroke-linecap="round" stroke-linejoin="round"/><path d="M271.75,189.2c-.05-.21-.57-.4-1.21-.17-.57.2-1.49.75-1.35,2.05.14,1.31,1.24,4.24,8.03,8.28,6.14,3.66,10.32,3.26,11.23,1.88s0-1.85-.11-1.66-.16.7-.49,1.14c-.39.51-3.12,2.07-10.31-2.07-6.89-3.96-7.85-7.49-7.42-8.19.67-1.08,1.75-.8,1.64-1.27Z" fill="none" stroke="#000" stroke-linecap="round" stroke-linejoin="round"/><path d="M153.14,118.26c-.2-.44-1-2.56-1.53-13.18-.23-4.72-.34-9.49-.38-12.7" fill="none" stroke="#333" stroke-miterlimit="10" stroke-width="2"/><text transform="translate(68.02 68.65)" fill="#333" font-family="ComicNeue-Bold, &apos;Comic Neue&apos;" font-size="24" font-weight="700"><tspan x="0" y="0">Dude why are you drinking milk?</tspan></text><text transform="translate(64.87 438.94)" fill="#333" font-family="ComicNeue-Regular, &apos;Comic Neue&apos;" font-size="24"><tspan x="0" y="0">It was something worth celebrating.</tspan></text></svg>