<?xml version="1.0" encoding="UTF-8"?><svg id="uuid-752f19ca-8949-4fcc-ac50-c560039c61c2" xmlns="http://www.w3.org/2000/svg" xmlns:xlink="http://www.w3.org/1999/xlink" viewBox="0 0 500 500"><defs><radialGradient id="uuid-73907e01-e617-4a0c-96bb-2d8713bd0f36" cx="-301.033148" cy="1075.214085" fx="-301.033148" fy="1075.214085" r="9.801946" gradientTransform="translate(-896.056271 506.554167) rotate(90.155429) scale(1.000004 -1.041904)" gradientUnits="userSpaceOnUse"><stop offset=".4039" stop-color="#af0d1a"/><stop offset=".5347" stop-color="#ab0c19"/><stop offset=".6675" stop-color="#9f0b17"/><stop offset=".8013" stop-color="#8a0813"/><stop offset=".9351" stop-color="#6e050d"/><stop offset=".9597" stop-color="#68040c"/></radialGradient></defs><path d="M160.996567,327.555343l.757466,22.148841c.01403,1.669232,1.108145,2.777377,3.661082,2.777377s3.675112-1.122175,3.675112-2.763346l.827596-23.888202-8.921256,1.725331Z" fill="#9e5737"/><polygon points="168.943749 243 160 243 159.915618 281.658774 169 280.087732 168.943749 243" fill="#9e5737"/><path d="M163.731864,217.652772c-1.346603.19638-54.313052,7.995465-54.313052,7.995465-2.174204.420814-3.941623,2.398639-3.95565,4.937551l.028055,1.094116,5.877366,6.929402s16.762422,13.536181,18.010836,13.297719,44.199486-31.266474,44.199486-31.266474c-.813576-.981899-1.641172-1.430767-5.176015-2.342531-1.669221-.434841-3.324423-.841628-4.671026-.645248Z" fill="#f0aa6b"/><path d="M111.80729,263l-.559896-28.853807c.013019-2.510856-.651041-3.562891-1.992187-4.306329-1.458334-.883709-3.268228.252489-3.255207,2.061989l.104167,27.899963c0,.855656-.104167,3.198184,1.536458,3.773296l3.359376,1.03801v26.020326l9-1.739367v-25.894082h-8.19271Z" fill="#9e5737"/><path d="M149,318.454458v-8.484145c-3.393654.420705-5.02037-.11219-5.02037-.11219l-36.97963-17.543226v4.655759c0,2.03339,0,3.337564,2.972956,4.78197l.476795.238395,1.865111,60.20234c.014021,1.668785,1.276127,2.776633,3.814359,2.776633,2.552253,0,3.800333-1.121874,3.800333-2.762606l1.458432-43.234061,20.193659,9.970619-.504842-10.854088c2.468106,1.206011,5.202665.715184,7.923197.3646Z" fill="#9e5737"/><path d="M141.706384,317.496373l2.063167,64.314392c.013938,1.669232,1.198868,2.777377,3.722063,2.777377,2.537138,0,3.749944-1.122175,3.749944-2.763346l1.74254-51.802194,41.98824-8.13574,1.47767,47.439755c.013943,1.669232,1.240688,2.777377,3.763882,2.777377,2.537138,0,3.70813-1.122175,3.70813-2.763346l2.104991-61.340647h.013943l1.009886-.192249c1.711116-.32574,2.94916-1.8217,2.94916-3.563546v-5.431975l-3.317792,1.795476-58.451759,11.347954c-1.29645.294568-2.230449.05611-2.230449,1.388683v5.554742l-4.293616-1.402713Z" fill="#ba793e"/><path d="M208.296054,300.104249l-58.67549,11.235735c-2.665157.504978-5.428498.140269-7.869221-1.080084l-33.412622-16.580079c-1.57104-.785521-1.290496-3.352483,1.02398-3.689137l59.04019-10.043425c2.342528-.448868,4.811306-.504978,6.957456.547057l33.440674,15.892742c1.697292.841626,1.360644,3.352483-.504967,3.717192Z" fill="#f0aa6b"/><path d="M170.489067,220.488558l-56.680329,8.41217c-2.457646.589835-2.808738,2.541907-2.808738,3.918188l.112352,29.576011c0,1.79759,1.769502,2.345293,3.53901,2.008248l56.933121-9.142444c1.348193-.266831,2.40147-1.881855,2.415516-3.974364l-.112363-29.576007c-.014047-1.797592-1.685238-1.460544-3.39857-1.221801Z" fill="#ba793e"/><path d="M322.4485,330.830012l.827596,23.888202c0,1.641172,1.122175,2.763346,3.675112,2.763346,2.552937,0,3.647052-1.108145,3.661082-2.777377l.757466-22.148841-8.921256-1.725331Z" fill="#9e5737"/><polygon points="323.943924 285.087732 333 286.658774 332.915881 248 324 248 323.943924 285.087732" fill="#9e5737"/><path d="M323.963433,223.29802c-3.534843.911764-4.362438,1.360632-5.176015,2.342531,0,0,42.951073,31.028012,44.199486,31.266474s18.010836-13.297719,18.010836-13.297719l5.877366-6.929402.028055-1.094116c-.014027-2.538911-1.781446-4.516736-3.95565-4.937551,0,0-52.966448-7.799085-54.313052-7.995465s-3.001805.210407-4.671026.645248Z" fill="#f0aa6b"/><path d="M373,268v25.894082s9,1.739367,9,1.739367v-26.020326s3.430852-1.03801,3.430852-1.03801c1.675531-.575112,1.569148-2.91764,1.569148-3.773296l.106383-27.899963c.013298-1.8095-1.835104-2.945698-3.324466-2.061989-1.369681.743438-2.04787,1.795472-2.034574,4.306329l-.571809,28.853807h-8.175534Z" fill="#9e5737"/><path d="M350.923197,323.089858l-.504842,10.854088,20.193659-9.970619,1.458432,43.234061c0,1.640732,1.248079,2.762606,3.800333,2.762606,2.538232,0,3.800338-1.107848,3.814359-2.776633l1.865111-60.20234.476795-.238395c2.972956-1.444406,2.972956-2.74858,2.972956-4.78197v-4.655759s-36.97963,17.543226-36.97963,17.543226c0,0-1.626716.532895-5.02037.11219v8.484145c2.720532.350584,5.455091.841411,7.923197-.3646Z" fill="#9e5737"/><path d="M347,323.899087v-5.554742c0-1.332573-.933999-1.094114-2.230449-1.388683l-58.451759-11.347954-3.317792-1.795476v5.431975c0,1.741845,1.238044,3.237805,2.94916,3.563546l1.009886.192249h.013943l2.104991,61.340647c0,1.641172,1.170992,2.763346,3.70813,2.763346,2.523194,0,3.749939-1.108145,3.763882-2.777377l1.47767-47.439755,41.98824,8.13574,1.74254,51.802194c0,1.641172,1.212806,2.763346,3.749944,2.763346,2.523194,0,3.708125-1.108145,3.722063-2.777377l2.063167-64.314392-4.293616,1.402713Z" fill="#ba793e"/><path d="M283.565303,301.387057l33.440674-15.892742c2.146149-1.052035,4.614927-.995925,6.957456-.547057l59.04019,10.043425c2.314476.336653,2.59502,2.903616,1.02398,3.689137l-33.412622,16.580079c-2.440723,1.220354-5.204064,1.585062-7.869221,1.080084l-58.67549-11.235735c-1.865611-.364708-2.202259-2.875566-.504967-3.717192Z" fill="#f0aa6b"/><path d="M318,226.636561l-.112765,29.681879c.014097,2.1,1.071144,3.720805,2.424163,3.988591l57.136923,9.175171c1.775842.338252,3.551679-.211412,3.551679-2.015437l.112754-29.681883c0-1.381208-.352349-3.340267-2.818792-3.932214l-56.883226-8.442283c-1.719465-.239597-3.396639-.577852-3.410736,1.226175Z" fill="#ba793e"/><polygon id="uuid-fbe6dc45-bafa-4609-a023-cecec3faafcb" points="210.940275 322.995712 193.275297 329.221842 204.096369 359.923737 206.275518 366.106489 232.773025 356.767279 230.593876 350.584527 221.761347 353.697607 210.940275 322.995712" fill="#5f4d2f"/><rect id="uuid-e6edbf29-6e69-48cf-a1c3-73ace5c78259" x="175.782512" y="290.530382" width="23.316197" height="46.025937" transform="translate(-164.764205 216.614599) rotate(-43.741222)" fill="#726038"/><polygon id="uuid-117cdeac-4974-4cca-8b71-a90fb669d986" points="154.673155 334.294643 173.58132 332.42911 176.821461 365.269657 185.777974 364.385982 186.36709 370.35699 158.502384 373.106201 157.860509 366.600453 157.860537 366.60045 154.673155 334.294643" fill="#5f4d2f"/><rect id="uuid-587f4b49-ce59-4d16-a851-34fcf7abf349" x="142.520091" y="295.825819" width="23.000035" height="46" transform="translate(-141.391604 123.623318) rotate(-30.759511)" fill="#726038"/><path id="uuid-2d9c0059-94f6-4519-b286-d4a5e2c23607" d="M132,212v94h52v-94h-52Z" fill="#726038"/><rect id="uuid-436083af-40aa-4c2d-8d26-29871fc02c6a" x="132" y="267" width="52" height="16" fill="#ac935a"/><rect id="uuid-a1d2e653-e631-4d7c-b562-71f012b14dfd" x="170" y="212" width="6" height="55" fill="#ac935a"/><rect id="uuid-4c878f53-0c91-4976-897b-2e4db5f937ad" x="141" y="212" width="6" height="55" fill="#ac935a"/><path id="uuid-87f7a1be-5db5-44d0-ae6d-c0cf9481ab10" d="M184.184964,196.977888c1.373658-5.182201,1.873504-10.917638,1.285212-16.880289-2.031343-20.588728-16.195932-36.044177-31.637493-34.520669-15.44156,1.523508-26.312687,19.449052-24.281344,40.037781.588292,5.962651,2.199339,11.489822,4.559235,16.303659l50.07439-4.940482Z" fill="#eec6a2"/><path id="uuid-57de9d97-b80b-43e9-9c14-1001e655afe6" d="M135.018072,206c4.987619,10.43183,13.735208,17.356909,23.701358,17.356909s18.713739-6.925078,23.701358-17.356909h-47.402716Z" fill="#eec6a2"/><ellipse id="uuid-5dc0ffdb-1dd5-4626-b0be-4994086ee5a2" cx="176" cy="185" rx="3" ry="4" fill="#333"/><ellipse id="uuid-0896efcd-81b1-476e-be3c-81a7ba98321a" cx="161" cy="187" rx="3" ry="4" fill="#333"/><rect id="uuid-ba31340e-068d-48c5-8b7e-1a5b2953f95c" x="186.042035" y="232.075323" width="29.968179" height="14.047561" transform="translate(-106.456059 184.011983) rotate(-39.786958)" fill="#726038"/><rect id="uuid-edb9acb9-7d60-44f4-8b54-46e98a2ac4b6" x="183.788615" y="211.879872" width="14.047561" height="29.968179" transform="translate(-21.352789 19.831206) rotate(-5.634698)" fill="#726038"/><rect id="uuid-ba368bb5-2862-4765-9528-e21a1f88479a" x="111.142864" y="218.840181" width="29.968179" height="14.047561" transform="translate(-119.212375 307.907555) rotate(-79.310516)" fill="#726038"/><rect id="uuid-216a90e1-275b-4224-82ec-119302cdbef2" x="101.509314" y="243.347637" width="29.968179" height="14.047561" transform="translate(-158.56694 225.909878) rotate(-59.96624)" fill="#726038"/><rect id="uuid-6e8b8843-2a74-40e8-8275-767629b037cd" x="209.889253" y="218.153962" width="14.984092" height="14.984092" transform="translate(-94.059592 191.363049) rotate(-39.786988)" fill="#eec6a2"/><rect id="uuid-1656bb5c-fc28-4282-8cf0-46f25a519502" x="97.714552" y="262.402119" width="14.984092" height="14.984092" transform="translate(-181.106048 225.890109) rotate(-59.96627)" fill="#eec6a2"/><circle id="uuid-a2e7bd83-c9f7-4eb9-a99d-ffe7d63661ba" cx="158" cy="256" r="2" fill="#333"/><circle id="uuid-ef04ac85-4bb6-48a9-9e9c-25ae698ca938" cx="158" cy="248" r="2" fill="#333"/><circle id="uuid-805880bb-43fc-4971-a9e8-2a7c6feccb13" cx="158" cy="241" r="2" fill="#333"/><circle id="uuid-b4211362-7daa-49f5-a33a-0cd052baf9fd" cx="158" cy="232" r="2" fill="#333"/><path d="M186.631403,158.196427c-2.967387-12.848541-17.314226-21.669431-33.533726-20.069169-16.2195,1.600262-28.565909,13.054785-28.965177,26.235489-5.344896,1.310041-8.495604,2.611032-8.390289,3.678452.247379,2.507315,18.319943,2.776574,40.366199.601427,22.046256-2.175146,39.717743-5.971015,39.470364-8.47833-.105315-1.06742-3.449518-1.727605-8.947372-1.967869Z" fill="#596a66"/><g id="uuid-f58ebd24-442f-4748-a66a-64e5daf062fc"><polygon id="uuid-aea8c4ed-8728-4e49-ab2c-287cad4e31d0" points="281.021201 323.465051 298.686178 329.691181 287.865106 360.393076 285.685957 366.575827 259.18845 357.236618 261.367599 351.053866 270.200129 354.166945 281.021201 323.465051" fill="#4f4f4f"/><rect id="uuid-66a8c235-d251-462b-8396-9f0b3b026ae5" x="281.507896" y="302.35459" width="46.025937" height="23.316197" transform="translate(-132.8903 316.91073) rotate(-46.258778)" fill="#616161"/><polygon id="uuid-b371093b-3132-4e3e-8e2b-8f681d8495ef" points="352.957753 326.820893 367.809714 338.67071 347.228421 364.46626 354.26357 370.07934 350.521517 374.76944 328.634384 357.306524 332.711561 352.196398 332.711583 352.196416 352.957753 326.820893" fill="#4f4f4f"/><rect id="uuid-f1c9a703-df75-478c-8cfa-56e840bb0790" x="348.739606" y="294.295157" width="23.000035" height="46" transform="translate(-111.598123 228.876017) rotate(-30.759511)" fill="#616161"/><path id="uuid-77f4bb10-4569-49d3-a9cc-07a14e30289b" d="M308,212v94s52,0,52,0v-94s-52,0-52,0Z" fill="#616161"/><rect id="uuid-e43e63b7-2a4f-41ee-a4f6-aa81e00391b5" x="308" y="267" width="52" height="16" fill="#949494"/><rect id="uuid-3c7caaec-64b3-4616-93f8-e2a9c91d60fe" x="316" y="212" width="6" height="55" fill="#949494"/><rect id="uuid-73358cfa-fde9-4cdf-a142-43d95d6a911a" x="345" y="212" width="6" height="55" fill="#949494"/><path id="uuid-b8454ba1-0b6e-4624-8b28-1fa1cc2c0635" d="M307.776511,197.447227c-1.373658-5.182201-1.873504-10.917638-1.285212-16.880289,2.031343-20.588728,16.195932-36.044177,31.637493-34.520669,15.44156,1.523508,26.312687,19.449052,24.281344,40.037781-.588292,5.962651-2.199339,11.489822-4.559235,16.303659l-50.07439-4.940482Z" fill="#cecece"/><path id="uuid-38f86068-9447-48c3-9f75-f2335658152c" d="M356.943403,206c-4.987619,10.43183-13.735208,17.356909-23.701358,17.356909-9.96615,0-18.713739-6.925078-23.701358-17.356909h47.402716Z" fill="#cecece"/><ellipse id="uuid-d65b4bde-ea5f-406f-b1cf-5a6aeedc8806" cx="316" cy="185" rx="3" ry="4" fill="#333"/><ellipse id="uuid-a2a2de36-93fd-47ac-811b-efe4e8835d48" cx="331" cy="187" rx="3" ry="4" fill="#333"/><rect id="uuid-7d9aa452-7969-4b8f-beed-0951451bca4c" x="282.91157" y="223.584352" width="14.047561" height="29.968179" transform="translate(-78.92733 308.694984) rotate(-50.213042)" fill="#616161"/><rect id="uuid-c7e0af59-5c0f-4940-a221-311cf58eae29" x="285.16499" y="220.30952" width="29.968179" height="14.047561" transform="translate(44.443913 503.711243) rotate(-84.365302)" fill="#616161"/><rect id="uuid-e7869232-9b22-4a1a-8a07-82991846901e" x="359.810741" y="212.349211" width="14.047561" height="29.968179" transform="translate(-17.248553 30.538515) rotate(-4.657673)" fill="#616161"/><rect id="uuid-c0885873-38ca-4c74-872a-15ac36a34ba0" x="362.607778" y="230.697682" width="29.968179" height="14.047561" transform="translate(-62.587266 310.724494) rotate(-41.610094)" fill="#616161"/><rect id="uuid-a77ae513-b3c7-4808-9625-6653faca3320" x="265.08813" y="216.623301" width="14.984092" height="14.984092" transform="translate(-74.070179 290.154522) rotate(-50.213012)" fill="#cecece"/><rect id="uuid-65c7c479-95e1-437b-844d-a546d6db0472" x="386.96048" y="215.25451" width="14.984092" height="14.984092" transform="translate(-48.388848 318.142262) rotate(-41.610064)" fill="#cecece"/><circle id="uuid-57eacf00-e456-4a45-943f-54a8d96537e6" cx="334" cy="256" r="2" fill="#333"/><circle id="uuid-3c9b9425-259d-4628-ad39-56a71ae33d3f" cx="334" cy="248" r="2" fill="#333"/><circle id="uuid-dba52eb2-9f90-4cee-b4a0-60d1feabb249" cx="334" cy="241" r="2" fill="#333"/><circle id="uuid-4f2435b9-9587-4d63-9fd3-2a42fd6f4cf4" cx="334" cy="232" r="2" fill="#333"/><path d="M305.330072,158.665766c2.967387-12.848541,17.314226-21.669431,33.533726-20.069169,16.2195,1.600262,28.565909,13.054785,28.965177,26.235489,5.344896,1.310041,8.495604,2.611032,8.390289,3.678452-.247379,2.507315-18.319943,2.776574-40.366199.601427-22.046256-2.175146-39.717743-5.971015-39.470364-8.47833.105315-1.06742,3.449518-1.727605,8.947372-1.967869Z" fill="#646464"/></g><path d="M217.413075,193.92514l4.193695,2.531771,6.27304.18998,3.889145-2.520139.553092,1.636152s2.446905,7.312281,2.261375,11.402661c-.171528,3.830612-.595098,7.219229-3.784127,10.278291-2.401398,2.299143-4.799295,2.50463-4.799295,2.50463l.045507,7.824063s3.140021.155086,4.984826,1.481066c1.666277,1.198034,1.939322,2.353422,1.939322,3.117219,0,.767675-.647607,4.702967-8.492409,4.602163-7.844802-.100803-8.310377-4.346271-8.310377-5.113945s.742123-2.244863,2.954489-3.171499c2.075844-.868478,3.878642-.767675,3.878642-.767675v-8.122602s-2.908983-.818076-5.12485-3.171499c-1.368727-1.453927-3.647604-4.753371-3.32205-10.123206.280048-4.706843,2.859975-12.577432,2.859975-12.577432Z" fill="#fff" isolation="isolate" opacity=".5"/><path d="M217.034998,193.92514l1.84164-1.686555,2.861328-1.238585h6.595012l3.016412,1.649562,1.585751,1.481066.612588,1.636152s2.710118,7.312282,2.50463,11.40266c-.189979,3.830612-.659112,7.219231-4.191185,10.278292-2.659717,2.299143-5.315555,2.50463-5.861175,2.50463v7.808555c.568882,0,4.066061.399345,6.11319,1.729203,1.845518,1.198034,2.151812,2.120795,2.151812,2.888466s-.71727,4.702967-9.405936,4.602163c-8.688666-.100803-9.204323-4.346271-9.204323-5.113945s.821953-2.244863,3.272303-3.171499c2.299143-.868478,4.268728-.930514,4.072954-.930514v-7.963641c.222913,0-2.998988-.818076-5.453216-3.171499-1.515961-1.453927-4.039976-4.753371-3.679403-10.123206.310166-4.710718,3.167616-12.581308,3.167616-12.581308Z" fill="#e0e0e0" isolation="isolate" opacity=".7"/><path d="M222.947633,219.979503c-.112437-.034893-2.624822-.643606-4.330763-1.977339-3.31883-2.597681-4.892947-5.462887-5.094558-9.285744-.120192-2.256494.806445-6.090983,1.465557-8.777839.674623-2.737259,1.488822-4.784388,1.496575-4.807651,0,0,.108559-.310171.224875-.252014.24426.124068,0,1.201912,0,1.201912-.186102.690131-.36445,1.341489-1.023564,4.039977-.647481,2.64033-1.496575,6.397276-1.384138,8.549088.18998,3.578598,1.667169,6.26933,4.796019,8.715803,1.589626,1.244561,3.609615,1.733081,3.884892,1.864902s.631974.193857.581571.546678c-.05428.364452-.616465.182226-.616465.182226Z" fill="#d4d4d4"/><path d="M226.836402,220.076431c-.290785.02714-.573818-.023262-.59708-.306294-.031018-.348943.403223-.372205.403223-.372205.286907-.104681,1.756343-.224875,3.210269-1.097231,4.098134-2.458104,6.08323-6.315857,5.827337-11.317365-.356696-6.897428-3.062939-12.150949-3.090079-12.201351l.511782-.752165c.02714.05428,2.985395,5.846723,3.353724,12.914745.275276,5.307801-1.705941,9.421442-6.067721,12.034635-1.589626.953778-3.400248,1.081722-3.551456,1.097231Z" fill="#9e9e9e"/><path d="M225.483279,197.837171c-.096928,0-.193857,0-.290785-.003877-3.411881-.050402-6.327488-1.011933-7.738766-2.376685-.504028-.484642-.573816-.821953-.600956-1.356998-.050403-.918882,1.042949-3.214147,8.165252-3.175375,4.695214.023263,8.180759,1.477189,8.200146,3.299444.007753.550554-.089175,1.000301-.612588,1.519838-1.337611,1.314349-3.989575,2.093654-7.122302,2.093654ZM224.669081,191.996123c-4.668072.038771-6.668675,1.325981-6.64929,2.159565.003876.213243.019385.333434.275276.597079.930514.969284,3.431267,1.969586,6.916813,2.019989h0c3.473915.058157,5.680007-.872356,6.579503-1.76022.290785-.283031.438115-.376082.438115-.600956,0-.88011-1.888167-2.30302-6.881919-2.411579-.22875,0-.457502-.003877-.678499-.003877Z" fill="#c8c8c8"/><path d="M225.556946,196.991955c-.314047,0-.643605-.007754-.984793-.02714-5.427992-.286908-6.482574-2.461982-6.532976-2.562788-.093052-.193857-.135699-.569939.011631-.612588.197733-.058157.302416.116314.504028.302417.32568.302417,1.500452,1.872658,6.405031,1.985094,4.807651.112437,6.354628-1.353121,6.63766-1.609012.213244-.193857.438115-.597079.616463-.480765s.085297.581571-.019387.763796c-.162839.279154-1.376382,2.240985-6.637657,2.240985Z" fill="#fff"/><path d="M224.963744,220.254779c-.833585,0-.66299.639728-.705639,4.892948-.031018,3.392495.321803,3.997328.670745,4.032224.352819.031018.670745-.224875.670745-3.807349.003878-4.156292.131821-5.117823-.63585-5.117823Z" fill="#9e9e9e"/><path d="M226.250954,228.129247c-.317925.02714.02714.721148-.403223,1.271701-.341187.43424-.980915.694008-.953775,1.182528.02714.492395,2.539526.17447,2.539526-.752166,0-.360574-.263645-.612588-.519535-.953775s-.504032-.763797-.662993-.748288Z" fill="#fff"/><path d="M220.446879,231.622546s1.104984,1.481066,4.509111,1.512084c3.435143.031018,4.284237-1.008055,4.412183-1.419034.09305-.310172-1.070091-1.934691-1.213543-1.907551-.143455.02714-.519535,1.535346-3.175375,1.438418-2.655839-.096928-2.725627-1.139879-2.938869-1.337611-.170596-.158961-1.593507,1.713694-1.593507,1.713694Z" fill="#9e9e9e"/><path d="M217.271504,230.901398c-.860725.112437-.899496,1.11274-.345065,2.019988,1.12437,1.849393,4.858053,3.113341,5.05191,2.109164.174471-.895618-1.787361-1.12437-1.589626-2.628699.143454-1.097231,2.109162-2.109164,1.558609-2.686856-.546676-.577693-1.384138.779305-2.512385,1.039073-.984793.228753-1.500453.062036-2.163443.14733Z" fill="#fff"/><path d="M229.744255,229.428088c-.480764.383836.953775.779305.895618,1.961831-.058158,1.182528-1.240683,1.69431-1.011933,2.019988.345065.492395,2.380562-.550553,2.310774-2.167318-.058158-1.322105-1.760221-2.159565-2.194458-1.8145Z" fill="#cacaca"/><path d="M229.224717,234.887098c.17447.546678,2.469738.310172,3.551459-1.240683,1.12437-1.616766.345065-2.973764-.085297-2.830311-.43424.143455.17447,1.155388-.922758,2.221601-1.101109,1.06621-2.737261,1.236805-2.543404,1.849393Z" fill="#fff"/><path d="M215.658614,231.80865c-.100805-.09305-.283031.821954.023263,1.574117.259767.63585,1.589626,3.954679,9.557143,4.012837,8.863136.065911,9.316761-3.733682,9.204323-4.79602-.073667-.701761-.209366-.942145-.279154-.942145-.065911-.003878-.135699.620341-.193857.957653-.186104,1.054582-1.225177,3.714298-8.58786,3.772453-6.699693.05428-8.661525-2.686856-9.00659-3.175376-.244259-.348937-.659112-1.349239-.717268-1.403519Z" fill="#9e9e9e"/><path d="M215.065411,207.906097l1.190281,3.241287,4.365656,2.349546,5.586956,1.05458,5.555939-4.827036,1.9502-2.876837s-1.915307-.814198-4.07875-1.132123c-3.373108-.496273-6.238314-.620341-9.611424.007754-4.144658.771551-4.958858,2.182829-4.958858,2.182829Z" fill="#cc1935"/><path d="M222.703372,212.799044c3.900399.131823,4.431568-2.147934,7.606945-4.396674,3.175376-2.248739,4.462586-1.585749,4.462586-1.585749,0,0,1.066213,4.834791-2.61319,8.661525-3.206394,3.338216-9.080255,4.342393-13.717313.414854-3.43902-2.911731-3.376986-7.986902-3.376986-7.986902,0,0,2.710117,4.726231,7.637958,4.892947Z" fill="url(#uuid-73907e01-e617-4a0c-96bb-2d8713bd0f36)"/><path d="M217.713497,197.123778s-.546676,1.539223-1.236806,4.625426c-.593202,2.651962-.837462,4.338516-.837462,4.338516,0,0,1.248439-.620341,2.640331-.984793,1.26007-.329556,2.349546-.263645,2.349546-.263645,0,0-.034894-2.019988.131823-3.477793.135699-1.201913.430362-2.74889.430362-2.74889,0,0-1.093353-.263645-1.756343-.562185-.662993-.298538-1.721451-.926635-1.721451-.926635Z" fill="#fff"/><path d="M272.726102,212.234322c.045151.168903,9.295511-1.518869,9.295511-1.518869l5.74773-8.459854-6.687037-.79005-8.830787-5.580096-3.346582-4.678826-4.301563,9.075946c-.002894-.00167,8.078796,11.787414,8.122728,11.951749Z" fill="#fff" isolation="isolate" opacity=".5"/><path d="M280.83678,191.389449l-4.84642-2.211393-4.184882-.752156-3.096187.896145-11.966569,25.531736-1.809804,3.036959s.616272,4.601654,6.415936,7.954642c5.799664,3.352989,10.292714,2.083435,10.292714,2.083435l1.775636-3.164776,15.930831-23.189685-.227683-2.763758-4.240218-4.655149-4.043354-2.766Z" fill="#e0e0e0" isolation="isolate" opacity=".7"/><path d="M264.589814,200.259298c-.456541.78968-7.420162,15.157776-7.397345,16.139683.022816.981907,1.028697,4.589228,5.585083,7.115371,4.556387,2.526143,8.461916,2.132642,9.098341,1.585897.639316-.545073,10.144501-14.38936,10.144501-14.38936,0,0,.786577-1.640919-1.844594-4.613234s-6.833171-5.096744-9.124838-5.865879c-2.881669-.963579-5.949419-.857614-6.461148.027522Z" fill="silver"/><path d="M264.487732,203.82042l.120693-2.238158s.278644-.522024.525332-.788505,1.60306-1.404307,5.416779-.110286c3.027654,1.024821,6.444311,3.065721,8.551744,5.194926,1.427494,1.442791,2.567756,3.302297,2.279527,4.328224-.326647,1.165811-1.025848,1.340491-1.025848,1.340491l-3.266586,1.73161-12.316825-7.340774-.284816-2.117528Z" fill="#fcf9e9"/><path d="M257.956255,216.319531c-.105809.436694.389526,3.625349,5.156531,6.381322,4.767003,2.755972,7.913629,2.213178,8.192361,1.837863s9.590692-13.378035,9.590692-13.378035c0,0-3.431597,1.416224-9.593693-2.304534s-6.68414-7.283784-6.68414-7.283784c0,0-6.549567,14.279423-6.661751,14.747168Z" fill="#f0e7ba"/><path d="M269.501402,197.271131c-.707739-.351277-1.366217-.033411-1.851596,1.133257-.325967.784122-.589473,1.673824.431842,2.13692,1.032886.469786,1.652138-.534579,1.878353-1.179539.341381-.964323.326019-1.698775-.458599-2.090639Z" fill="#fff"/><path d="M267.813896,200.957707c-.689614-.32922-1.132774-.056686-1.719622,1.178682-.776995,1.631021-5.642311,11.882359-6.061655,12.77459-.422238.890561-.220573,1.416248.297203,1.715593s1.242331.027398,1.560343-.576071c.318011-.603469,5.861383-12.261288,6.156977-12.939468.300158-.6794.728408-1.693845-.233247-2.153326Z" fill="#fff"/><path d="M256.591478,217.151462c-.492696.398272-.41542,1.84006.538181,3.321492,1.062977,1.65273,2.823713,2.512435,3.220548,1.892788.416902-.65436-.731009-1.078723-1.872223-2.749668-.944561-1.383581-1.114987-3.091489-1.886506-2.464612Z" fill="#fff"/><path d="M262.855509,224.821451c-.351726.468193,2.340381,1.79303,4.719371,2.257584,2.706082.526295,4.005638-.192825,3.964376-.722264s-1.131736.148465-3.781681-.414846c-3.666247-.788086-4.370906-1.832279-4.902066-1.120474Z" fill="#d5d5d5"/><path d="M276.804911,199.992228l-.205374-.118734c-6.479152-3.799856-7.929729-6.911686-8.192899-8.472523-.168939-1.016212.079063-1.872423.636438-2.52276l.013378-.023141c1.782539-1.574562,6.471099-1.179595,12.47216,2.258953,6.763487,3.875474,8.846722,8.25617,8.076326,9.975913-.248949.550769-.871184,1.406752-2.117994,1.774285-2.26614.66203-6.184042-.271545-10.682036-2.871993ZM270.282824,189.911426c-.365603.425437-.614505.80256-.490942,1.530098.188328,1.116188,1.037426,3.679592,7.392197,7.407538l.214052.123751c5.715778,3.304491,8.268464,3.10144,9.518754,2.701184.700693-.223991,1.109275-.543532,1.347739-1.069488.504272-1.13259-1.135359-4.805271-7.31088-8.329242-6.574699-3.754751-9.759016-3.380407-10.619034-2.380157l-.051885.016316Z" fill="#c8c8c8"/><path d="M271.748118,189.199357c-.049896-.214099-.570339-.395343-1.208026-.173521-.565869.197733-1.485362.74678-1.350187,2.048366.137615,1.310716,1.237283,4.23511,8.029333,8.281474,6.137553,3.656398,10.317473,3.255577,11.228702,1.879696s.003133-1.854571-.110584-1.657874-.157698.700011-.494374,1.142171c-.390057.507785-3.120739,2.066792-10.313099-2.068206-6.888636-3.959405-7.851398-7.487766-7.416868-8.185968.673535-1.084906,1.745878-.796857,1.635104-1.266139Z" fill="#fff"/><path d="M160.996567,327.555343l.757466,22.148841c.01403,1.669232,1.108145,2.777377,3.661082,2.777377s3.675112-1.122175,3.675112-2.763346l.827596-23.888202-8.921256,1.725331Z" fill="none" stroke="#000" stroke-linecap="round" stroke-linejoin="round"/><polygon points="168.943749 243 160 243 159.915618 281.658774 169 280.087732 168.943749 243" fill="none" stroke="#000" stroke-linecap="round" stroke-linejoin="round"/><path d="M163.731864,217.652772c-1.346603.19638-54.313052,7.995465-54.313052,7.995465-2.174204.420814-3.941623,2.398639-3.95565,4.937551l.028055,1.094116,5.877366,6.929402s16.762422,13.536181,18.010836,13.297719,44.199486-31.266474,44.199486-31.266474c-.813576-.981899-1.641172-1.430767-5.176015-2.342531-1.669221-.434841-3.324423-.841628-4.671026-.645248Z" fill="none" stroke="#000" stroke-linecap="round" stroke-linejoin="round"/><path d="M111.80729,263l-.559896-28.853807c.013019-2.510856-.651041-3.562891-1.992187-4.306329-1.458334-.883709-3.268228.252489-3.255207,2.061989l.104167,27.899963c0,.855656-.104167,3.198184,1.536458,3.773296l3.359376,1.03801v26.020326l9-1.739367v-25.894082h-8.19271Z" fill="none" stroke="#000" stroke-linecap="round" stroke-linejoin="round"/><path d="M149,318.454458v-8.484145c-3.393654.420705-5.02037-.11219-5.02037-.11219l-36.97963-17.543226v4.655759c0,2.03339,0,3.337564,2.972956,4.78197l.476795.238395,1.865111,60.20234c.014021,1.668785,1.276127,2.776633,3.814359,2.776633,2.552253,0,3.800333-1.121874,3.800333-2.762606l1.458432-43.234061,20.193659,9.970619-.504842-10.854088c2.468106,1.206011,5.202665.715184,7.923197.3646Z" fill="none" stroke="#000" stroke-linecap="round" stroke-linejoin="round"/><path d="M141.706384,317.496373l2.063167,64.314392c.013938,1.669232,1.198868,2.777377,3.722063,2.777377,2.537138,0,3.749944-1.122175,3.749944-2.763346l1.74254-51.802194,41.98824-8.13574,1.47767,47.439755c.013943,1.669232,1.240688,2.777377,3.763882,2.777377,2.537138,0,3.70813-1.122175,3.70813-2.763346l2.104991-61.340647h.013943l1.009886-.192249c1.711116-.32574,2.94916-1.8217,2.94916-3.563546v-5.431975l-3.317792,1.795476-58.451759,11.347954c-1.29645.294568-2.230449.05611-2.230449,1.388683v5.554742l-4.293616-1.402713Z" fill="none" stroke="#000" stroke-linecap="round" stroke-linejoin="round"/><path d="M208.296054,300.104249l-58.67549,11.235735c-2.665157.504978-5.428498.140269-7.869221-1.080084l-33.412622-16.580079c-1.57104-.785521-1.290496-3.352483,1.02398-3.689137l59.04019-10.043425c2.342528-.448868,4.811306-.504978,6.957456.547057l33.440674,15.892742c1.697292.841626,1.360644,3.352483-.504967,3.717192Z" fill="none" stroke="#000" stroke-linecap="round" stroke-linejoin="round"/><path d="M170.489067,220.488558l-56.680329,8.41217c-2.457646.589835-2.808738,2.541907-2.808738,3.918188l.112352,29.576011c0,1.79759,1.769502,2.345293,3.53901,2.008248l56.933121-9.142444c1.348193-.266831,2.40147-1.881855,2.415516-3.974364l-.112363-29.576007c-.014047-1.797592-1.685238-1.460544-3.39857-1.221801Z" fill="none" stroke="#000" stroke-linecap="round" stroke-linejoin="round"/><path d="M322.4485,330.830012l.827596,23.888202c0,1.641172,1.122175,2.763346,3.675112,2.763346,2.552937,0,3.647052-1.108145,3.661082-2.777377l.757466-22.148841-8.921256-1.725331Z" fill="none" stroke="#000" stroke-linecap="round" stroke-linejoin="round"/><polygon points="323.943924 285.087732 333 286.658774 332.915881 248 324 248 323.943924 285.087732" fill="none" stroke="#000" stroke-linecap="round" stroke-linejoin="round"/><path d="M323.963433,223.29802c-3.534843.911764-4.362438,1.360632-5.176015,2.342531,0,0,42.951073,31.028012,44.199486,31.266474s18.010836-13.297719,18.010836-13.297719l5.877366-6.929402.028055-1.094116c-.014027-2.538911-1.781446-4.516736-3.95565-4.937551,0,0-52.966448-7.799085-54.313052-7.995465s-3.001805.210407-4.671026.645248Z" fill="none" stroke="#000" stroke-linecap="round" stroke-linejoin="round"/><path d="M373,268v25.894082s9,1.739367,9,1.739367v-26.020326s3.430852-1.03801,3.430852-1.03801c1.675531-.575112,1.569148-2.91764,1.569148-3.773296l.106383-27.899963c.013298-1.8095-1.835104-2.945698-3.324466-2.061989-1.369681.743438-2.04787,1.795472-2.034574,4.306329l-.571809,28.853807h-8.175534Z" fill="none" stroke="#000" stroke-linecap="round" stroke-linejoin="round"/><path d="M350.923197,323.089858l-.504842,10.854088,20.193659-9.970619,1.458432,43.234061c0,1.640732,1.248079,2.762606,3.800333,2.762606,2.538232,0,3.800338-1.107848,3.814359-2.776633l1.865111-60.20234.476795-.238395c2.972956-1.444406,2.972956-2.74858,2.972956-4.78197v-4.655759s-36.97963,17.543226-36.97963,17.543226c0,0-1.626716.532895-5.02037.11219v8.484145c2.720532.350584,5.455091.841411,7.923197-.3646Z" fill="none" stroke="#000" stroke-linecap="round" stroke-linejoin="round"/><path d="M347,323.899087v-5.554742c0-1.332573-.933999-1.094114-2.230449-1.388683l-58.451759-11.347954-3.317792-1.795476v5.431975c0,1.741845,1.238044,3.237805,2.94916,3.563546l1.009886.192249h.013943l2.104991,61.340647c0,1.641172,1.170992,2.763346,3.70813,2.763346,2.523194,0,3.749939-1.108145,3.763882-2.777377l1.47767-47.439755,41.98824,8.13574,1.74254,51.802194c0,1.641172,1.212806,2.763346,3.749944,2.763346,2.523194,0,3.708125-1.108145,3.722063-2.777377l2.063167-64.314392-4.293616,1.402713Z" fill="none" stroke="#000" stroke-linecap="round" stroke-linejoin="round"/><path d="M283.565303,301.387057l33.440674-15.892742c2.146149-1.052035,4.614927-.995925,6.957456-.547057l59.04019,10.043425c2.314476.336653,2.59502,2.903616,1.02398,3.689137l-33.412622,16.580079c-2.440723,1.220354-5.204064,1.585062-7.869221,1.080084l-58.67549-11.235735c-1.865611-.364708-2.202259-2.875566-.504967-3.717192Z" fill="none" stroke="#000" stroke-linecap="round" stroke-linejoin="round"/><path d="M318,226.636561l-.112765,29.681879c.014097,2.1,1.071144,3.720805,2.424163,3.988591l57.136923,9.175171c1.775842.338252,3.551679-.211412,3.551679-2.015437l.112754-29.681883c0-1.381208-.352349-3.340267-2.818792-3.932214l-56.883226-8.442283c-1.719465-.239597-3.396639-.577852-3.410736,1.226175Z" fill="none" stroke="#000" stroke-linecap="round" stroke-linejoin="round"/><polygon id="uuid-43ce22d4-f005-4a12-a6b8-afb6b894147b" points="210.940275 322.995712 193.275297 329.221842 204.096369 359.923737 206.275518 366.106489 232.773025 356.767279 230.593876 350.584527 221.761347 353.697607 210.940275 322.995712" fill="none" stroke="#000" stroke-linecap="round" stroke-linejoin="round"/><rect id="uuid-78970870-4de4-4520-ab84-96845dcbd1f3" x="175.782512" y="290.530382" width="23.316197" height="46.025937" transform="translate(-164.764205 216.614599) rotate(-43.741222)" fill="none" stroke="#000" stroke-linecap="round" stroke-linejoin="round"/><polygon id="uuid-20426ca0-83f7-4073-81fb-b66a86265abb" points="154.673155 334.294643 173.58132 332.42911 176.821461 365.269657 185.777974 364.385982 186.36709 370.35699 158.502384 373.106201 157.860509 366.600453 157.860537 366.60045 154.673155 334.294643" fill="none" stroke="#000" stroke-linecap="round" stroke-linejoin="round"/><rect id="uuid-2c6508a1-9bd2-47a8-a980-9f79772abfe7" x="142.520091" y="295.825819" width="23.000035" height="46" transform="translate(-141.391604 123.623318) rotate(-30.759511)" fill="none" stroke="#000" stroke-linecap="round" stroke-linejoin="round"/><path id="uuid-704736cb-64fd-4c3d-8fc0-5e9a4f3cf221" d="M132,212v94h52v-94h-52Z" fill="none" stroke="#000" stroke-linecap="round" stroke-linejoin="round"/><rect id="uuid-00963a2d-26d4-4860-bf1f-cc1b8d876233" x="132" y="267" width="52" height="16" fill="none" stroke="#000" stroke-linecap="round" stroke-linejoin="round"/><rect id="uuid-759e9446-18d1-4084-874e-1947ef170fe0" x="170" y="212" width="6" height="55" fill="none" stroke="#000" stroke-linecap="round" stroke-linejoin="round"/><rect id="uuid-5f2a41b5-bc2b-4aaa-8fff-a9d9c2bbc163" x="141" y="212" width="6" height="55" fill="none" stroke="#000" stroke-linecap="round" stroke-linejoin="round"/><path id="uuid-084fc4cf-ab79-4773-9e8e-b3e3fd088c29" d="M184.184964,196.977888c1.373658-5.182201,1.873504-10.917638,1.285212-16.880289-2.031343-20.588728-16.195932-36.044177-31.637493-34.520669-15.44156,1.523508-26.312687,19.449052-24.281344,40.037781.588292,5.962651,2.199339,11.489822,4.559235,16.303659l50.07439-4.940482Z" fill="none" stroke="#000" stroke-linecap="round" stroke-linejoin="round"/><path id="uuid-fb497fa5-ee41-46a8-a935-6f5fcae0c2a1" d="M135.018072,206c4.987619,10.43183,13.735208,17.356909,23.701358,17.356909s18.713739-6.925078,23.701358-17.356909h-47.402716Z" fill="none" stroke="#000" stroke-linecap="round" stroke-linejoin="round"/><ellipse id="uuid-f772a51c-af1c-4c6a-850e-f80c9d21fb8d" cx="176" cy="185" rx="3" ry="4" fill="none" stroke="#000" stroke-linecap="round" stroke-linejoin="round"/><ellipse id="uuid-fa706639-5a48-4405-b799-cf16d63384df" cx="161" cy="187" rx="3" ry="4" fill="none" stroke="#000" stroke-linecap="round" stroke-linejoin="round"/><rect id="uuid-ed2980d0-f9a5-4fe5-a76b-e6b2fb5958ae" x="186.042035" y="232.075323" width="29.968179" height="14.047561" transform="translate(-106.456059 184.011983) rotate(-39.786958)" fill="none" stroke="#000" stroke-linecap="round" stroke-linejoin="round"/><rect id="uuid-ef2fa6c6-f32b-4f8b-9a09-4c32a9fea292" x="183.788615" y="211.879872" width="14.047561" height="29.968179" transform="translate(-21.352789 19.831206) rotate(-5.634698)" fill="none" stroke="#000" stroke-linecap="round" stroke-linejoin="round"/><rect id="uuid-2bbf7e98-4f46-435e-aaa0-ec9bdf5514e2" x="111.142864" y="218.840181" width="29.968179" height="14.047561" transform="translate(-119.212375 307.907555) rotate(-79.310516)" fill="none" stroke="#000" stroke-linecap="round" stroke-linejoin="round"/><rect id="uuid-ba652b31-6f18-494b-9dc7-aac87da00b5c" x="101.509314" y="243.347637" width="29.968179" height="14.047561" transform="translate(-158.56694 225.909878) rotate(-59.96624)" fill="none" stroke="#000" stroke-linecap="round" stroke-linejoin="round"/><rect id="uuid-567d1f02-f25e-4186-80f9-8fe6efd55fd2" x="209.889253" y="218.153962" width="14.984092" height="14.984092" transform="translate(-94.059592 191.363049) rotate(-39.786988)" fill="none" stroke="#000" stroke-linecap="round" stroke-linejoin="round"/><rect id="uuid-fc6e5fe3-8b99-480d-a682-1fbffd923ecc" x="97.714552" y="262.402119" width="14.984092" height="14.984092" transform="translate(-181.106048 225.890109) rotate(-59.96627)" fill="none" stroke="#000" stroke-linecap="round" stroke-linejoin="round"/><circle id="uuid-813224fc-fb80-4454-bcab-f6e691d88275" cx="158" cy="256" r="2" fill="none" stroke="#000" stroke-linecap="round" stroke-linejoin="round"/><circle id="uuid-02a800ad-9e93-46af-98fe-2963398294c8" cx="158" cy="248" r="2" fill="none" stroke="#000" stroke-linecap="round" stroke-linejoin="round"/><circle id="uuid-bce6d77a-c55a-4c6f-be44-406dd88d0b39" cx="158" cy="241" r="2" fill="none" stroke="#000" stroke-linecap="round" stroke-linejoin="round"/><circle id="uuid-72945626-3fa9-4815-8b2b-063534e6e89d" cx="158" cy="232" r="2" fill="none" stroke="#000" stroke-linecap="round" stroke-linejoin="round"/><path d="M186.631403,158.196427c-2.967387-12.848541-17.314226-21.669431-33.533726-20.069169-16.2195,1.600262-28.565909,13.054785-28.965177,26.235489-5.344896,1.310041-8.495604,2.611032-8.390289,3.678452.247379,2.507315,18.319943,2.776574,40.366199.601427,22.046256-2.175146,39.717743-5.971015,39.470364-8.47833-.105315-1.06742-3.449518-1.727605-8.947372-1.967869Z" fill="none" stroke="#000" stroke-linecap="round" stroke-linejoin="round"/><g id="uuid-15ca32c1-af9e-48e0-85ea-13c4e3cdfb37"><polygon id="uuid-87cdc983-7aec-432a-8615-2394f09fcc8b" points="281.021201 323.465051 298.686178 329.691181 287.865106 360.393076 285.685957 366.575827 259.18845 357.236618 261.367599 351.053866 270.200129 354.166945 281.021201 323.465051" fill="none" stroke="#000" stroke-linecap="round" stroke-linejoin="round"/><rect id="uuid-e9e22bc2-216b-40d6-97b0-bc43806a4dbf" x="281.507896" y="302.35459" width="46.025937" height="23.316197" transform="translate(-132.8903 316.91073) rotate(-46.258778)" fill="none" stroke="#000" stroke-linecap="round" stroke-linejoin="round"/><polygon id="uuid-ae833feb-34d4-4666-8fe2-46abcb0bbf0a" points="352.957753 326.820893 367.809714 338.67071 347.228421 364.46626 354.26357 370.07934 350.521517 374.76944 328.634384 357.306524 332.711561 352.196398 332.711583 352.196416 352.957753 326.820893" fill="none" stroke="#000" stroke-linecap="round" stroke-linejoin="round"/><rect id="uuid-1174faff-79c6-4699-9a46-b596e23b3f82" x="348.739606" y="294.295157" width="23.000035" height="46" transform="translate(-111.598123 228.876017) rotate(-30.759511)" fill="none" stroke="#000" stroke-linecap="round" stroke-linejoin="round"/><path id="uuid-ebb19ed6-2888-4d05-9fd1-822a74331e9a" d="M308,212v94s52,0,52,0v-94s-52,0-52,0Z" fill="none" stroke="#000" stroke-linecap="round" stroke-linejoin="round"/><rect id="uuid-290023c9-a439-45bd-a9e5-2ac099d49a3e" x="308" y="267" width="52" height="16" fill="none" stroke="#000" stroke-linecap="round" stroke-linejoin="round"/><rect id="uuid-20da1e0f-5b22-4a5d-82e1-b9879bdd5012" x="316" y="212" width="6" height="55" fill="none" stroke="#000" stroke-linecap="round" stroke-linejoin="round"/><rect id="uuid-61a014ee-73c1-47e6-a1dd-ad2d705b5c50" x="345" y="212" width="6" height="55" fill="none" stroke="#000" stroke-linecap="round" stroke-linejoin="round"/><path id="uuid-6e343d2e-aa02-4c2d-91b5-66fe2c398d21" d="M307.776511,197.447227c-1.373658-5.182201-1.873504-10.917638-1.285212-16.880289,2.031343-20.588728,16.195932-36.044177,31.637493-34.520669,15.44156,1.523508,26.312687,19.449052,24.281344,40.037781-.588292,5.962651-2.199339,11.489822-4.559235,16.303659l-50.07439-4.940482Z" fill="none" stroke="#000" stroke-linecap="round" stroke-linejoin="round"/><path id="uuid-760e9d43-0fd3-4191-bb0e-9dd33240ef02" d="M356.943403,206c-4.987619,10.43183-13.735208,17.356909-23.701358,17.356909-9.96615,0-18.713739-6.925078-23.701358-17.356909h47.402716Z" fill="none" stroke="#000" stroke-linecap="round" stroke-linejoin="round"/><ellipse id="uuid-76e9fb5a-5b5e-4592-b92a-419fdd4e64d5" cx="316" cy="185" rx="3" ry="4" fill="none" stroke="#000" stroke-linecap="round" stroke-linejoin="round"/><ellipse id="uuid-013d2fcd-132e-4b6b-bc25-28ea99cd18d2" cx="331" cy="187" rx="3" ry="4" fill="none" stroke="#000" stroke-linecap="round" stroke-linejoin="round"/><rect id="uuid-bbfc834f-ded5-40c2-964d-22d5384edb82" x="282.91157" y="223.584352" width="14.047561" height="29.968179" transform="translate(-78.92733 308.694984) rotate(-50.213042)" fill="none" stroke="#000" stroke-linecap="round" stroke-linejoin="round"/><rect id="uuid-029b7fd3-4fae-4df6-b1e9-f1a2fd5b83a0" x="285.16499" y="220.30952" width="29.968179" height="14.047561" transform="translate(44.443913 503.711243) rotate(-84.365302)" fill="none" stroke="#000" stroke-linecap="round" stroke-linejoin="round"/><rect id="uuid-4b21d613-f446-4f1d-b7e1-b49e6e169abb" x="359.810741" y="212.349211" width="14.047561" height="29.968179" transform="translate(-17.248553 30.538515) rotate(-4.657673)" fill="none" stroke="#000" stroke-linecap="round" stroke-linejoin="round"/><rect id="uuid-3a1c460c-3a62-4525-9ee0-d9ef48d211a0" x="362.607778" y="230.697682" width="29.968179" height="14.047561" transform="translate(-62.587266 310.724494) rotate(-41.610094)" fill="none" stroke="#000" stroke-linecap="round" stroke-linejoin="round"/><rect id="uuid-29ab8bd6-1b4a-4285-ba31-bdf3413a7466" x="265.08813" y="216.623301" width="14.984092" height="14.984092" transform="translate(-74.070179 290.154522) rotate(-50.213012)" fill="none" stroke="#000" stroke-linecap="round" stroke-linejoin="round"/><rect id="uuid-9a444db8-d544-4577-9732-046af34d3d37" x="386.96048" y="215.25451" width="14.984092" height="14.984092" transform="translate(-48.388848 318.142262) rotate(-41.610064)" fill="none" stroke="#000" stroke-linecap="round" stroke-linejoin="round"/><circle id="uuid-954490e2-e72a-403c-a228-541eabac285c" cx="334" cy="256" r="2" fill="none" stroke="#000" stroke-linecap="round" stroke-linejoin="round"/><circle id="uuid-3163667c-dedf-4185-9373-c565345d91da" cx="334" cy="248" r="2" fill="none" stroke="#000" stroke-linecap="round" stroke-linejoin="round"/><circle id="uuid-9a761adc-dfc6-4b10-a7ad-c04801a18f15" cx="334" cy="241" r="2" fill="none" stroke="#000" stroke-linecap="round" stroke-linejoin="round"/><circle id="uuid-c815a7b1-2f81-4231-a48a-25e0e3247342" cx="334" cy="232" r="2" fill="none" stroke="#000" stroke-linecap="round" stroke-linejoin="round"/><path d="M305.330072,158.665766c2.967387-12.848541,17.314226-21.669431,33.533726-20.069169,16.2195,1.600262,28.565909,13.054785,28.965177,26.235489,5.344896,1.310041,8.495604,2.611032,8.390289,3.678452-.247379,2.507315-18.319943,2.776574-40.366199.601427-22.046256-2.175146-39.717743-5.971015-39.470364-8.47833.105315-1.06742,3.449518-1.727605,8.947372-1.967869Z" fill="none" stroke="#000" stroke-linecap="round" stroke-linejoin="round"/><polygon id="uuid-4e2e94c9-5ca3-4512-9845-920c61bb1f37" points="281.021201 323.465051 298.686178 329.691181 287.865106 360.393076 285.685957 366.575827 259.18845 357.236618 261.367599 351.053866 270.200129 354.166945 281.021201 323.465051" fill="none" stroke="#000" stroke-linecap="round" stroke-linejoin="round"/><rect id="uuid-4f076f2a-6d96-446d-8f59-994f4f94dedd" x="281.507896" y="302.35459" width="46.025937" height="23.316197" transform="translate(-132.8903 316.91073) rotate(-46.258778)" fill="none" stroke="#000" stroke-linecap="round" stroke-linejoin="round"/><polygon id="uuid-53b68a36-616c-42ea-9652-58631568d6c0" points="352.957753 326.820893 367.809714 338.67071 347.228421 364.46626 354.26357 370.07934 350.521517 374.76944 328.634384 357.306524 332.711561 352.196398 332.711583 352.196416 352.957753 326.820893" fill="none" stroke="#000" stroke-linecap="round" stroke-linejoin="round"/><rect id="uuid-6de383ab-cd17-4d47-a8f2-396a81138a1e" x="348.739606" y="294.295157" width="23.000035" height="46" transform="translate(-111.598123 228.876017) rotate(-30.759511)" fill="none" stroke="#000" stroke-linecap="round" stroke-linejoin="round"/><path id="uuid-79f2e987-74a7-4075-ad15-2939c33ef426" d="M308,212v94s52,0,52,0v-94s-52,0-52,0Z" fill="none" stroke="#000" stroke-linecap="round" stroke-linejoin="round"/><rect id="uuid-a7131bdf-4cfc-4906-9513-478dc9728c16" x="308" y="267" width="52" height="16" fill="none" stroke="#000" stroke-linecap="round" stroke-linejoin="round"/><rect id="uuid-7bfa8b8b-52d1-4f17-ad08-39e31ff14f48" x="316" y="212" width="6" height="55" fill="none" stroke="#000" stroke-linecap="round" stroke-linejoin="round"/><rect id="uuid-5cc3426c-da58-4412-9de0-f24611f34c0a" x="345" y="212" width="6" height="55" fill="none" stroke="#000" stroke-linecap="round" stroke-linejoin="round"/><path id="uuid-b97af030-5c2d-41a6-81dd-bbfb73c4cbba" d="M307.776511,197.447227c-1.373658-5.182201-1.873504-10.917638-1.285212-16.880289,2.031343-20.588728,16.195932-36.044177,31.637493-34.520669,15.44156,1.523508,26.312687,19.449052,24.281344,40.037781-.588292,5.962651-2.199339,11.489822-4.559235,16.303659l-50.07439-4.940482Z" fill="none" stroke="#000" stroke-linecap="round" stroke-linejoin="round"/><path id="uuid-7638df01-d8f3-4219-a214-90baab83a24b" d="M356.943403,206c-4.987619,10.43183-13.735208,17.356909-23.701358,17.356909-9.96615,0-18.713739-6.925078-23.701358-17.356909h47.402716Z" fill="none" stroke="#000" stroke-linecap="round" stroke-linejoin="round"/><ellipse id="uuid-6cfa4abf-857c-439a-8ba9-4a593506c8a7" cx="316" cy="185" rx="3" ry="4" fill="none" stroke="#000" stroke-linecap="round" stroke-linejoin="round"/><ellipse id="uuid-80cad49d-1cd3-4054-87db-823150547920" cx="331" cy="187" rx="3" ry="4" fill="none" stroke="#000" stroke-linecap="round" stroke-linejoin="round"/><rect id="uuid-29f611b8-7307-4dc2-96f7-15109017d258" x="282.91157" y="223.584352" width="14.047561" height="29.968179" transform="translate(-78.92733 308.694984) rotate(-50.213042)" fill="none" stroke="#000" stroke-linecap="round" stroke-linejoin="round"/><rect id="uuid-2e5a2fab-d47c-40bb-a69f-c6f3cc2e6872" x="285.16499" y="220.30952" width="29.968179" height="14.047561" transform="translate(44.443913 503.711243) rotate(-84.365302)" fill="none" stroke="#000" stroke-linecap="round" stroke-linejoin="round"/><rect id="uuid-4f237800-1a13-40e9-825b-f9a6035400d3" x="359.810741" y="212.349211" width="14.047561" height="29.968179" transform="translate(-17.248553 30.538515) rotate(-4.657673)" fill="none" stroke="#000" stroke-linecap="round" stroke-linejoin="round"/><rect id="uuid-454d9266-13f7-4ba0-907b-91e66c4b7596" x="362.607778" y="230.697682" width="29.968179" height="14.047561" transform="translate(-62.587266 310.724494) rotate(-41.610094)" fill="none" stroke="#000" stroke-linecap="round" stroke-linejoin="round"/><rect id="uuid-b78ad026-fce2-42cf-b1d4-b90e9749ae07" x="265.08813" y="216.623301" width="14.984092" height="14.984092" transform="translate(-74.070179 290.154522) rotate(-50.213012)" fill="none" stroke="#000" stroke-linecap="round" stroke-linejoin="round"/><rect id="uuid-b13e8aa0-53ea-4d1d-ad9b-b633a32cc25a" x="386.96048" y="215.25451" width="14.984092" height="14.984092" transform="translate(-48.388848 318.142262) rotate(-41.610064)" fill="none" stroke="#000" stroke-linecap="round" stroke-linejoin="round"/><circle id="uuid-33c1913c-b4a4-4110-a28d-ee6e01675be9" cx="334" cy="256" r="2" fill="none" stroke="#000" stroke-linecap="round" stroke-linejoin="round"/><circle id="uuid-733d8804-af79-4262-8fcb-a31ac9dde399" cx="334" cy="248" r="2" fill="none" stroke="#000" stroke-linecap="round" stroke-linejoin="round"/><circle id="uuid-b2cf2a26-fc0d-421e-af17-909918f3d263" cx="334" cy="241" r="2" fill="none" stroke="#000" stroke-linecap="round" stroke-linejoin="round"/><circle id="uuid-6b039868-3662-4a94-91b1-a4d84bca84ff" cx="334" cy="232" r="2" fill="none" stroke="#000" stroke-linecap="round" stroke-linejoin="round"/><path d="M305.330072,158.665766c2.967387-12.848541,17.314226-21.669431,33.533726-20.069169,16.2195,1.600262,28.565909,13.054785,28.965177,26.235489,5.344896,1.310041,8.495604,2.611032,8.390289,3.678452-.247379,2.507315-18.319943,2.776574-40.366199.601427-22.046256-2.175146-39.717743-5.971015-39.470364-8.47833.105315-1.06742,3.449518-1.727605,8.947372-1.967869Z" fill="none" stroke="#000" stroke-linecap="round" stroke-linejoin="round"/></g><path d="M217.413075,193.92514l4.193695,2.531771,6.27304.18998,3.889145-2.520139.553092,1.636152s2.446905,7.312281,2.261375,11.402661c-.171528,3.830612-.595098,7.219229-3.784127,10.278291-2.401398,2.299143-4.799295,2.50463-4.799295,2.50463l.045507,7.824063s3.140021.155086,4.984826,1.481066c1.666277,1.198034,1.939322,2.353422,1.939322,3.117219,0,.767675-.647607,4.702967-8.492409,4.602163-7.844802-.100803-8.310377-4.346271-8.310377-5.113945s.742123-2.244863,2.954489-3.171499c2.075844-.868478,3.878642-.767675,3.878642-.767675v-8.122602s-2.908983-.818076-5.12485-3.171499c-1.368727-1.453927-3.647604-4.753371-3.32205-10.123206.280048-4.706843,2.859975-12.577432,2.859975-12.577432Z" fill="none" stroke="#000" stroke-linecap="round" stroke-linejoin="round"/><path d="M217.034998,193.92514l1.84164-1.686555,2.861328-1.238585h6.595012l3.016412,1.649562,1.585751,1.481066.612588,1.636152s2.710118,7.312282,2.50463,11.40266c-.189979,3.830612-.659112,7.219231-4.191185,10.278292-2.659717,2.299143-5.315555,2.50463-5.861175,2.50463v7.808555c.568882,0,4.066061.399345,6.11319,1.729203,1.845518,1.198034,2.151812,2.120795,2.151812,2.888466s-.71727,4.702967-9.405936,4.602163c-8.688666-.100803-9.204323-4.346271-9.204323-5.113945s.821953-2.244863,3.272303-3.171499c2.299143-.868478,4.268728-.930514,4.072954-.930514v-7.963641c.222913,0-2.998988-.818076-5.453216-3.171499-1.515961-1.453927-4.039976-4.753371-3.679403-10.123206.310166-4.710718,3.167616-12.581308,3.167616-12.581308Z" fill="none" stroke="#000" stroke-linecap="round" stroke-linejoin="round"/><path d="M222.947633,219.979503c-.112437-.034893-2.624822-.643606-4.330763-1.977339-3.31883-2.597681-4.892947-5.462887-5.094558-9.285744-.120192-2.256494.806445-6.090983,1.465557-8.777839.674623-2.737259,1.488822-4.784388,1.496575-4.807651,0,0,.108559-.310171.224875-.252014.24426.124068,0,1.201912,0,1.201912-.186102.690131-.36445,1.341489-1.023564,4.039977-.647481,2.64033-1.496575,6.397276-1.384138,8.549088.18998,3.578598,1.667169,6.26933,4.796019,8.715803,1.589626,1.244561,3.609615,1.733081,3.884892,1.864902s.631974.193857.581571.546678c-.05428.364452-.616465.182226-.616465.182226Z" fill="none" stroke="#000" stroke-linecap="round" stroke-linejoin="round"/><path d="M226.836402,220.076431c-.290785.02714-.573818-.023262-.59708-.306294-.031018-.348943.403223-.372205.403223-.372205.286907-.104681,1.756343-.224875,3.210269-1.097231,4.098134-2.458104,6.08323-6.315857,5.827337-11.317365-.356696-6.897428-3.062939-12.150949-3.090079-12.201351l.511782-.752165c.02714.05428,2.985395,5.846723,3.353724,12.914745.275276,5.307801-1.705941,9.421442-6.067721,12.034635-1.589626.953778-3.400248,1.081722-3.551456,1.097231Z" fill="none" stroke="#000" stroke-linecap="round" stroke-linejoin="round"/><path d="M225.483279,197.837171c-.096928,0-.193857,0-.290785-.003877-3.411881-.050402-6.327488-1.011933-7.738766-2.376685-.504028-.484642-.573816-.821953-.600956-1.356998-.050403-.918882,1.042949-3.214147,8.165252-3.175375,4.695214.023263,8.180759,1.477189,8.200146,3.299444.007753.550554-.089175,1.000301-.612588,1.519838-1.337611,1.314349-3.989575,2.093654-7.122302,2.093654ZM224.669081,191.996123c-4.668072.038771-6.668675,1.325981-6.64929,2.159565.003876.213243.019385.333434.275276.597079.930514.969284,3.431267,1.969586,6.916813,2.019989h0c3.473915.058157,5.680007-.872356,6.579503-1.76022.290785-.283031.438115-.376082.438115-.600956,0-.88011-1.888167-2.30302-6.881919-2.411579-.22875,0-.457502-.003877-.678499-.003877Z" fill="none" stroke="#000" stroke-linecap="round" stroke-linejoin="round"/><path d="M225.556946,196.991955c-.314047,0-.643605-.007754-.984793-.02714-5.427992-.286908-6.482574-2.461982-6.532976-2.562788-.093052-.193857-.135699-.569939.011631-.612588.197733-.058157.302416.116314.504028.302417.32568.302417,1.500452,1.872658,6.405031,1.985094,4.807651.112437,6.354628-1.353121,6.63766-1.609012.213244-.193857.438115-.597079.616463-.480765s.085297.581571-.019387.763796c-.162839.279154-1.376382,2.240985-6.637657,2.240985Z" fill="none" stroke="#000" stroke-linecap="round" stroke-linejoin="round"/><path d="M224.963744,220.254779c-.833585,0-.66299.639728-.705639,4.892948-.031018,3.392495.321803,3.997328.670745,4.032224.352819.031018.670745-.224875.670745-3.807349.003878-4.156292.131821-5.117823-.63585-5.117823Z" fill="none" stroke="#000" stroke-linecap="round" stroke-linejoin="round"/><path d="M226.250954,228.129247c-.317925.02714.02714.721148-.403223,1.271701-.341187.43424-.980915.694008-.953775,1.182528.02714.492395,2.539526.17447,2.539526-.752166,0-.360574-.263645-.612588-.519535-.953775s-.504032-.763797-.662993-.748288Z" fill="none" stroke="#000" stroke-linecap="round" stroke-linejoin="round"/><path d="M220.446879,231.622546s1.104984,1.481066,4.509111,1.512084c3.435143.031018,4.284237-1.008055,4.412183-1.419034.09305-.310172-1.070091-1.934691-1.213543-1.907551-.143455.02714-.519535,1.535346-3.175375,1.438418-2.655839-.096928-2.725627-1.139879-2.938869-1.337611-.170596-.158961-1.593507,1.713694-1.593507,1.713694Z" fill="none" stroke="#000" stroke-linecap="round" stroke-linejoin="round"/><path d="M217.271504,230.901398c-.860725.112437-.899496,1.11274-.345065,2.019988,1.12437,1.849393,4.858053,3.113341,5.05191,2.109164.174471-.895618-1.787361-1.12437-1.589626-2.628699.143454-1.097231,2.109162-2.109164,1.558609-2.686856-.546676-.577693-1.384138.779305-2.512385,1.039073-.984793.228753-1.500453.062036-2.163443.14733Z" fill="none" stroke="#000" stroke-linecap="round" stroke-linejoin="round"/><path d="M229.744255,229.428088c-.480764.383836.953775.779305.895618,1.961831-.058158,1.182528-1.240683,1.69431-1.011933,2.019988.345065.492395,2.380562-.550553,2.310774-2.167318-.058158-1.322105-1.760221-2.159565-2.194458-1.8145Z" fill="none" stroke="#000" stroke-linecap="round" stroke-linejoin="round"/><path d="M229.224717,234.887098c.17447.546678,2.469738.310172,3.551459-1.240683,1.12437-1.616766.345065-2.973764-.085297-2.830311-.43424.143455.17447,1.155388-.922758,2.221601-1.101109,1.06621-2.737261,1.236805-2.543404,1.849393Z" fill="none" stroke="#000" stroke-linecap="round" stroke-linejoin="round"/><path d="M215.658614,231.80865c-.100805-.09305-.283031.821954.023263,1.574117.259767.63585,1.589626,3.954679,9.557143,4.012837,8.863136.065911,9.316761-3.733682,9.204323-4.79602-.073667-.701761-.209366-.942145-.279154-.942145-.065911-.003878-.135699.620341-.193857.957653-.186104,1.054582-1.225177,3.714298-8.58786,3.772453-6.699693.05428-8.661525-2.686856-9.00659-3.175376-.244259-.348937-.659112-1.349239-.717268-1.403519Z" fill="none" stroke="#000" stroke-linecap="round" stroke-linejoin="round"/><path d="M215.065411,207.906097l1.190281,3.241287,4.365656,2.349546,5.586956,1.05458,5.555939-4.827036,1.9502-2.876837s-1.915307-.814198-4.07875-1.132123c-3.373108-.496273-6.238314-.620341-9.611424.007754-4.144658.771551-4.958858,2.182829-4.958858,2.182829Z" fill="none" stroke="#000" stroke-linecap="round" stroke-linejoin="round"/><path d="M222.703372,212.799044c3.900399.131823,4.431568-2.147934,7.606945-4.396674,3.175376-2.248739,4.462586-1.585749,4.462586-1.585749,0,0,1.066213,4.834791-2.61319,8.661525-3.206394,3.338216-9.080255,4.342393-13.717313.414854-3.43902-2.911731-3.376986-7.986902-3.376986-7.986902,0,0,2.710117,4.726231,7.637958,4.892947Z" fill="none" stroke="#000" stroke-linecap="round" stroke-linejoin="round"/><path d="M217.713497,197.123778s-.546676,1.539223-1.236806,4.625426c-.593202,2.651962-.837462,4.338516-.837462,4.338516,0,0,1.248439-.620341,2.640331-.984793,1.26007-.329556,2.349546-.263645,2.349546-.263645,0,0-.034894-2.019988.131823-3.477793.135699-1.201913.430362-2.74889.430362-2.74889,0,0-1.093353-.263645-1.756343-.562185-.662993-.298538-1.721451-.926635-1.721451-.926635Z" fill="none" stroke="#000" stroke-linecap="round" stroke-linejoin="round"/><path d="M272.726102,212.234322c.045151.168903,9.295511-1.518869,9.295511-1.518869l5.74773-8.459854-6.687037-.79005-8.830787-5.580096-3.346582-4.678826-4.301563,9.075946c-.002894-.00167,8.078796,11.787414,8.122728,11.951749Z" fill="none" stroke="#000" stroke-linecap="round" stroke-linejoin="round"/><path d="M280.83678,191.389449l-4.84642-2.211393-4.184882-.752156-3.096187.896145-11.966569,25.531736-1.809804,3.036959s.616272,4.601654,6.415936,7.954642c5.799664,3.352989,10.292714,2.083435,10.292714,2.083435l1.775636-3.164776,15.930831-23.189685-.227683-2.763758-4.240218-4.655149-4.043354-2.766Z" fill="none" stroke="#000" stroke-linecap="round" stroke-linejoin="round"/><path d="M264.589814,200.259298c-.456541.78968-7.420162,15.157776-7.397345,16.139683.022816.981907,1.028697,4.589228,5.585083,7.115371,4.556387,2.526143,8.461916,2.132642,9.098341,1.585897.639316-.545073,10.144501-14.38936,10.144501-14.38936,0,0,.786577-1.640919-1.844594-4.613234s-6.833171-5.096744-9.124838-5.865879c-2.881669-.963579-5.949419-.857614-6.461148.027522Z" fill="none" stroke="#000" stroke-linecap="round" stroke-linejoin="round"/><path d="M264.487732,203.82042l.120693-2.238158s.278644-.522024.525332-.788505,1.60306-1.404307,5.416779-.110286c3.027654,1.024821,6.444311,3.065721,8.551744,5.194926,1.427494,1.442791,2.567756,3.302297,2.279527,4.328224-.326647,1.165811-1.025848,1.340491-1.025848,1.340491l-3.266586,1.73161-12.316825-7.340774-.284816-2.117528Z" fill="none" stroke="#000" stroke-linecap="round" stroke-linejoin="round"/><path d="M257.956255,216.319531c-.105809.436694.389526,3.625349,5.156531,6.381322,4.767003,2.755972,7.913629,2.213178,8.192361,1.837863s9.590692-13.378035,9.590692-13.378035c0,0-3.431597,1.416224-9.593693-2.304534s-6.68414-7.283784-6.68414-7.283784c0,0-6.549567,14.279423-6.661751,14.747168Z" fill="none" stroke="#000" stroke-linecap="round" stroke-linejoin="round"/><path d="M269.501402,197.271131c-.707739-.351277-1.366217-.033411-1.851596,1.133257-.325967.784122-.589473,1.673824.431842,2.13692,1.032886.469786,1.652138-.534579,1.878353-1.179539.341381-.964323.326019-1.698775-.458599-2.090639Z" fill="none" stroke="#000" stroke-linecap="round" stroke-linejoin="round"/><path d="M267.813896,200.957707c-.689614-.32922-1.132774-.056686-1.719622,1.178682-.776995,1.631021-5.642311,11.882359-6.061655,12.77459-.422238.890561-.220573,1.416248.297203,1.715593s1.242331.027398,1.560343-.576071c.318011-.603469,5.861383-12.261288,6.156977-12.939468.300158-.6794.728408-1.693845-.233247-2.153326Z" fill="none" stroke="#000" stroke-linecap="round" stroke-linejoin="round"/><path d="M256.591478,217.151462c-.492696.398272-.41542,1.84006.538181,3.321492,1.062977,1.65273,2.823713,2.512435,3.220548,1.892788.416902-.65436-.731009-1.078723-1.872223-2.749668-.944561-1.383581-1.114987-3.091489-1.886506-2.464612Z" fill="none" stroke="#000" stroke-linecap="round" stroke-linejoin="round"/><path d="M262.855509,224.821451c-.351726.468193,2.340381,1.79303,4.719371,2.257584,2.706082.526295,4.005638-.192825,3.964376-.722264s-1.131736.148465-3.781681-.414846c-3.666247-.788086-4.370906-1.832279-4.902066-1.120474Z" fill="none" stroke="#000" stroke-linecap="round" stroke-linejoin="round"/><path d="M276.804911,199.992228l-.205374-.118734c-6.479152-3.799856-7.929729-6.911686-8.192899-8.472523-.168939-1.016212.079063-1.872423.636438-2.52276l.013378-.023141c1.782539-1.574562,6.471099-1.179595,12.47216,2.258953,6.763487,3.875474,8.846722,8.25617,8.076326,9.975913-.248949.550769-.871184,1.406752-2.117994,1.774285-2.26614.66203-6.184042-.271545-10.682036-2.871993ZM270.282824,189.911426c-.365603.425437-.614505.80256-.490942,1.530098.188328,1.116188,1.037426,3.679592,7.392197,7.407538l.214052.123751c5.715778,3.304491,8.268464,3.10144,9.518754,2.701184.700693-.223991,1.109275-.543532,1.347739-1.069488.504272-1.13259-1.135359-4.805271-7.31088-8.329242-6.574699-3.754751-9.759016-3.380407-10.619034-2.380157l-.051885.016316Z" fill="none" stroke="#000" stroke-linecap="round" stroke-linejoin="round"/><path d="M271.748118,189.199357c-.049896-.214099-.570339-.395343-1.208026-.173521-.565869.197733-1.485362.74678-1.350187,2.048366.137615,1.310716,1.237283,4.23511,8.029333,8.281474,6.137553,3.656398,10.317473,3.255577,11.228702,1.879696s.003133-1.854571-.110584-1.657874-.157698.700011-.494374,1.142171c-.390057.507785-3.120739,2.066792-10.313099-2.068206-6.888636-3.959405-7.851398-7.487766-7.416868-8.185968.673535-1.084906,1.745878-.796857,1.635104-1.266139Z" fill="none" stroke="#000" stroke-linecap="round" stroke-linejoin="round"/><path d="M153.136949,118.255704c-.200247-.440095-1.001924-2.555533-1.531086-13.179865-.234929-4.716815-.335203-9.485624-.38138-12.697675" fill="none" stroke="#333" stroke-miterlimit="10" stroke-width="2"/><text transform="translate(68.015381 68.650116)" fill="#333" font-family="ComicNeue-Bold, &apos;Comic Neue&apos;" font-size="24" font-weight="700"><tspan x="0" y="0">Dude why are you drinking milk?</tspan></text><text transform="translate(64.86853 438.939972)" fill="#333" font-family="ComicNeue-Regular, &apos;Comic Neue&apos;" font-size="24"><tspan x="0" y="0">It was something worth celebrating.</tspan></text></svg>