<?xml version="1.0" encoding="UTF-8"?><svg id="uuid-318ab8e0-53a0-4e17-ae28-c60bdf87ab4a" xmlns="http://www.w3.org/2000/svg" viewBox="0 0 500 500"><text transform="translate(72.34 404.22)" fill="#333" font-family="ComicNeue-Regular, &apos;Comic Neue&apos;" font-size="24"><tspan x="0" y="0">As the war drags on, however, </tspan><tspan x="0" y="28.8">Canada is in more debt than ever.</tspan></text><circle cx="392" cy="311" r="15" fill="#d68f30"/><path d="M386.8,297.64l-1.53.18c-.39.21-.77.43-1.13.67l2.73-.32-.06-.52Z" fill="#bc6f00"/><path d="M384.11,299.7l-1.84.22c-.27.24-.54.5-.79.76l2.71-.32-.08-.65Z" fill="#bc6f00"/><path d="M381.97,302.25l-1.99.24c-.2.28-.38.57-.56.86l2.64-.31-.09-.79Z" fill="#bc6f00"/><path d="M380.47,305.26l-2.14.25c-.11.27-.21.55-.31.83l2.54-.3-.09-.79Z" fill="#bc6f00"/><path d="M379.69,308.56l-2.26.27c-.04.27-.08.54-.11.81l2.46-.29-.09-.79Z" fill="#bc6f00"/><path d="M379.72,312.31l-2.41.29c.01.12.02.24.03.36.02.14.04.29.06.43l2.41-.29-.09-.79Z" fill="#bc6f00"/><path d="M380.58,315.97l-2.46.29c.09.26.19.51.29.76l2.26-.27-.09-.79Z" fill="#bc6f00"/><path d="M382.14,318.98l-2.54.3c.16.25.33.5.5.74l2.13-.25-.09-.79Z" fill="#bc6f00"/><path d="M384.32,321.55l-2.64.31c.24.24.49.48.75.71l1.98-.24-.09-.79Z" fill="#bc6f00"/><path d="M387.09,324.3l-.08-.65-2.71.32c.31.19.63.38.95.55l1.84-.22Z" fill="#bc6f00"/><path d="M390.19,325.66l-.06-.52-2.73.32c.42.14.84.27,1.27.38l1.52-.18Z" fill="#bc6f00"/><circle cx="394" cy="311" r="15" fill="#fff176"/><circle cx="394" cy="311" r="14" fill="#f2bc1a"/><path d="M391.56,297.37c1.79-.31,3.65-.22,5.44.21,1.78.45,3.48,1.27,4.97,2.37,2.99,2.22,4.98,5.72,5.44,9.43.42,3.72-.7,7.59-3.08,10.44-1.19,1.43-2.65,2.61-4.28,3.47-1.64.83-3.43,1.36-5.24,1.48v-.05c1.79-.22,3.53-.79,5.11-1.67,1.57-.88,2.97-2.07,4.09-3.48,1.12-1.41,1.96-3.04,2.45-4.78.5-1.73.64-3.56.43-5.35s-.78-3.53-1.67-5.1c-.88-1.57-2.09-2.96-3.51-4.07s-3.06-1.94-4.79-2.43c-1.74-.49-3.57-.63-5.36-.42v-.05Z" fill="#e08f00"/><path d="M408.72,309.23c-.99-8.29-8.51-14.22-16.8-13.23-8.29.99-14.22,8.51-13.23,16.8.99,8.29,8.51,14.22,16.8,13.23,8.29-.99,14.22-8.51,13.23-16.8ZM380.03,312.64c-.9-7.56,4.5-14.41,12.05-15.31,7.56-.9,14.41,4.5,15.31,12.05s-4.5,14.41-12.05,15.31c-7.56.9-14.41-4.5-15.31-12.05Z" fill="#fff176"/><polygon points="403.39 302.96 402.4 303.41 402.94 304.44 402.53 304.49 401.79 303.69 401.22 304.1 400.8 304.15 401.33 303.2 400.59 302.4 401.01 302.35 401.66 302.61 402.19 301.66 402.61 301.61 402.32 302.74 403.39 302.96" fill="#d38200"/><polygon points="396.99 299.47 396 299.93 396.54 300.96 396.13 301.01 395.39 300.21 394.81 300.62 394.4 300.67 394.93 299.72 394.19 298.92 394.6 298.87 395.26 299.13 395.79 298.18 396.2 298.13 395.92 299.26 396.99 299.47" fill="#d38200"/><polygon points="389.69 300.22 388.7 300.67 389.25 301.71 388.83 301.75 388.09 300.96 387.52 301.36 387.1 301.41 387.63 300.46 386.89 299.66 387.31 299.61 387.96 299.87 388.5 298.92 388.91 298.87 388.62 300.01 389.69 300.22" fill="#d38200"/><polygon points="384.44 305.37 383.45 305.83 384 306.86 383.58 306.91 382.84 306.11 382.27 306.52 381.85 306.57 382.39 305.61 381.65 304.82 382.06 304.77 382.71 305.03 383.25 304.08 383.66 304.03 383.37 305.16 384.44 305.37" fill="#d38200"/><polygon points="405.01 316.57 403.94 316.36 404.23 315.23 403.81 315.28 403.28 316.23 402.63 315.97 402.21 316.02 402.95 316.82 402.42 317.77 402.84 317.72 403.41 317.31 404.15 318.11 404.56 318.06 404.02 317.03 405.01 316.57" fill="#d38200"/><polygon points="399.6 321.46 398.53 321.25 398.82 320.12 398.4 320.17 397.87 321.12 397.22 320.85 396.8 320.9 397.54 321.7 397.01 322.65 397.43 322.6 398 322.2 398.74 323 399.15 322.95 398.61 321.91 399.6 321.46" fill="#d38200"/><polygon points="392.34 322.45 391.27 322.24 391.55 321.1 391.14 321.15 390.61 322.1 389.95 321.84 389.54 321.89 390.28 322.69 389.75 323.64 390.16 323.59 390.73 323.19 391.48 323.99 391.89 323.94 391.35 322.9 392.34 322.45" fill="#d38200"/><polygon points="386.02 318.67 384.96 318.46 385.24 317.33 384.83 317.37 384.29 318.32 383.64 318.06 383.23 318.11 383.97 318.91 383.43 319.86 383.85 319.81 384.42 319.41 385.16 320.21 385.58 320.16 385.03 319.12 386.02 318.67" fill="#d38200"/><polygon points="386.44 318.62 385.45 319.07 385.58 320.16 384.84 319.36 383.85 319.81 384.38 318.86 383.64 318.06 384.71 318.28 385.24 317.33 385.37 318.41 386.44 318.62" fill="#fff176"/><polygon points="392.75 322.4 391.76 322.85 391.89 323.94 391.15 323.14 390.16 323.59 390.69 322.64 389.95 321.84 391.02 322.05 391.55 321.1 391.68 322.19 392.75 322.4" fill="#fff176"/><polygon points="400.02 321.41 399.03 321.86 399.15 322.95 398.41 322.15 397.43 322.6 397.96 321.65 397.22 320.85 398.29 321.07 398.82 320.12 398.95 321.2 400.02 321.41" fill="#fff176"/><polygon points="405.43 316.52 404.44 316.98 404.57 318.06 403.83 317.26 402.84 317.72 403.37 316.77 402.63 315.97 403.7 316.18 404.23 315.23 404.36 316.31 405.43 316.52" fill="#fff176"/><polygon points="382.96 312.3 381.97 312.76 382.51 313.79 382.1 313.84 381.36 313.04 380.78 313.45 380.37 313.5 380.9 312.55 380.16 311.75 380.57 311.7 381.23 311.96 381.76 311.01 382.17 310.96 381.89 312.09 382.96 312.3" fill="#d38200"/><polygon points="383.51 312.24 382.52 312.7 382.65 313.78 381.91 312.98 380.92 313.44 381.45 312.48 380.71 311.68 381.78 311.9 382.31 310.94 382.44 312.03 383.51 312.24" fill="#fff176"/><polygon points="406.42 309.51 405.43 309.97 405.97 311 405.56 311.05 404.82 310.25 404.24 310.66 403.83 310.71 404.36 309.76 403.62 308.96 404.03 308.91 404.69 309.17 405.22 308.22 405.63 308.17 405.35 309.3 406.42 309.51" fill="#d38200"/><polygon points="406.83 309.46 405.84 309.92 405.97 311 405.23 310.2 404.24 310.66 404.77 309.71 404.03 308.91 405.1 309.12 405.63 308.17 405.76 309.25 406.83 309.46" fill="#fff176"/><polygon points="384.86 305.32 383.79 305.11 383.66 304.03 383.13 304.98 382.06 304.77 382.8 305.56 382.27 306.52 383.26 306.06 384 306.86 383.87 305.78 384.86 305.32" fill="#fff176"/><polygon points="390.11 300.17 389.04 299.96 388.91 298.87 388.38 299.83 387.31 299.61 388.05 300.41 387.52 301.36 388.51 300.91 389.25 301.71 389.12 300.62 390.11 300.17" fill="#fff176"/><polygon points="397.4 299.42 396.33 299.21 396.2 298.13 395.67 299.08 394.6 298.87 395.34 299.67 394.81 300.62 395.8 300.16 396.54 300.96 396.41 299.88 397.4 299.42" fill="#fff176"/><polygon points="403.81 302.91 402.74 302.69 402.61 301.61 402.08 302.56 401.01 302.35 401.75 303.15 401.22 304.1 402.21 303.64 402.95 304.44 402.82 303.36 403.81 302.91" fill="#fff176"/><path d="M398.14,318.77c.09-.01-1.94-16.33-1.94-16.33l-.46-.09-.75.09c-.14.02-.23.14-.22.28l.96,8.11h0l.95,8c.02.14.14.23.28.22l.73-.09.45-.19Z" fill="#d38200"/><path d="M388.38,319.96l-1.94-16.29-.68-1.02-.7.1c-.08.01-.13.08-.12.16l2.15,18.05c0,.08.08.13.16.13l.69-.07.44-1.05Z" fill="#d38200"/><path d="M388.9,306.04l-.11-.94c-.02-.15.45-.34.61-.36l.22,1.49c-.15.02-.7-.04-.72-.2Z" fill="#d38200"/><path d="M393.99,305.79l-.19-1.58c-.01-.12.05-.23.16-.28l1.01-.25.27,2.31-1.04.02c-.12-.02-.21-.11-.22-.23Z" fill="#d38200"/><path d="M388.44,304.82l.19,1.58c.01.12-.03.36-.14.4,0,0-.49.05-.68.07s-.34-.04-.37-.21l-.22-1.82c-.02-.18.13-.27.3-.29s.68-.09.68-.09c.12.02.22.24.24.36Z" fill="#d38200"/><path d="M390.35,318.22l-.11-.94c-.02-.15.45-.34.61-.36l.22,1.49c-.15.02-.7-.04-.72-.2Z" fill="#d38200"/><path d="M395.44,317.79l-.19-1.58c-.01-.12.05-.23.16-.28l1.01-.25.27,2.31-1.04.02c-.12-.02-.21-.11-.22-.23Z" fill="#d38200"/><path d="M389.88,316.99l.19,1.58c.01.12-.03.36-.14.4,0,0-.49.05-.68.07s-.34-.04-.37-.21l-.22-1.82c-.02-.18.13-.27.3-.29s.68-.09.68-.09c.12.02.22.24.24.36Z" fill="#d38200"/><path d="M389.86,314.16l-.11-.94c-.02-.15.45-.34.61-.36l.22,1.49c-.15.02-.7-.04-.72-.2Z" fill="#d38200"/><path d="M394.96,313.79l-.19-1.58c-.01-.12.05-.23.16-.28l1.01-.25.27,2.31-1.04.02c-.12-.02-.21-.11-.22-.23Z" fill="#d38200"/><path d="M389.4,312.94l.19,1.58c.01.12-.03.36-.14.4,0,0-.49.05-.68.07s-.34-.04-.37-.21l-.22-1.82c-.02-.18.13-.27.3-.29s.68-.09.68-.09c.12.02.22.24.24.36Z" fill="#d38200"/><path d="M389.38,310.1l-.11-.94c-.02-.15.45-.34.61-.36l.22,1.49c-.15.02-.7-.04-.72-.2Z" fill="#d38200"/><path d="M394.47,309.79l-.19-1.58c-.01-.12.05-.23.16-.28l1.01-.25.27,2.31-1.04.02c-.12-.02-.21-.11-.22-.23Z" fill="#d38200"/><path d="M388.92,308.88l.19,1.58c.01.12-.03.36-.14.4,0,0-.49.05-.68.07s-.34-.04-.37-.21l-.22-1.82c-.02-.18.13-.27.3-.29s.68-.09.68-.09c.12.02.22.24.24.36Z" fill="#d38200"/><path d="M398.86,318.81c.09-.01.17-.07.21-.14l3.66-8.71-5.6-7.62c-.06-.07-.15-.11-.24-.1l-1.15.12c-.14.02-.25.15-.23.29l1.91,16.08c.02.14.15.25.29.23l1.14-.15Z" fill="#fff176"/><polygon points="398.93 316.72 401.73 310.06 397.44 304.24 398.93 316.72" fill="#f2bc1a"/><polygon points="399.09 314.37 400.86 310.16 398.15 306.48 399.09 314.37" fill="#fff176"/><path d="M389.23,319.35l-1.83-15.39c-.02-.15-.1-.29-.23-.38l-1.31-.92c-.09-.06-.21,0-.2.12l2.15,18.11c.01.11.15.15.22.07l1.05-1.2c.1-.11.15-.27.13-.42Z" fill="#fff176"/><path d="M390.82,318.16l-.11-.94c-.02-.15.09-.3.25-.31l4.18-.5c.15-.02.3.09.31.25l.11.94c.02.15-.09.3-.25.31l-4.19.5c-.15.02-.29-.09-.31-.25Z" fill="#fff176"/><path d="M395.91,317.88l-.19-1.58c-.01-.12.05-.23.16-.28l.4-.17c.16-.07.34.04.37.21l.22,1.82c.02.18-.13.32-.3.29l-.43-.07c-.12-.02-.21-.12-.22-.23Z" fill="#fff176"/><path d="M390.36,316.94l.19,1.58c.01.12-.05.23-.16.28l-.4.17c-.16.07-.34-.04-.37-.21l-.22-1.82c-.02-.18.13-.32.3-.29l.43.07c.12.02.21.12.22.23Z" fill="#fff176"/><path d="M389.37,305.99l-.11-.94c-.02-.15.09-.3.25-.31l4.18-.5c.15-.02.3.09.31.25l.11.94c.02.15-.09.3-.25.31l-4.19.5c-.15.02-.29-.1-.31-.25Z" fill="#fff176"/><path d="M394.47,305.7l-.19-1.58c-.01-.12.05-.23.16-.28l.4-.17c.16-.07.34.04.37.21l.22,1.82c.02.18-.13.32-.3.29l-.43-.07c-.12-.02-.21-.11-.22-.23Z" fill="#fff176"/><path d="M388.91,304.76l.19,1.58c.01.12-.05.23-.16.28l-.4.17c-.16.07-.34-.04-.37-.21l-.22-1.82c-.02-.18.13-.32.3-.29l.43.07c.12.02.21.11.22.23Z" fill="#fff176"/><path d="M389.85,310.04l-.11-.94c-.02-.15.09-.3.25-.31l4.18-.5c.15-.02.3.09.31.25l.11.94c.02.15-.09.3-.25.31l-4.19.5c-.15.02-.29-.09-.31-.25Z" fill="#fff176"/><path d="M394.95,309.76l-.19-1.58c-.01-.12.05-.23.16-.28l.4-.17c.16-.07.34.04.37.21l.22,1.82c.02.18-.13.32-.3.29l-.43-.07c-.12-.02-.21-.11-.22-.23Z" fill="#fff176"/><path d="M389.39,308.82l.19,1.58c.01.12-.05.23-.16.28l-.4.17c-.16.07-.34-.04-.37-.21l-.22-1.82c-.02-.18.13-.32.3-.29l.43.07c.12.02.21.11.22.23Z" fill="#fff176"/><path d="M390.34,314.1l-.11-.94c-.02-.15.09-.3.25-.31l4.18-.5c.15-.02.3.09.31.25l.11.94c.02.15-.09.3-.25.31l-4.19.5c-.15.02-.29-.09-.31-.25Z" fill="#fff176"/><path d="M395.43,313.82l-.19-1.58c-.01-.12.05-.23.16-.28l.4-.17c.16-.07.34.04.37.21l.22,1.82c.02.18-.13.32-.3.29l-.43-.07c-.12-.02-.21-.11-.22-.23Z" fill="#fff176"/><path d="M389.87,312.88l.19,1.58c.01.12-.05.23-.16.28l-.4.17c-.16.07-.34-.04-.37-.21l-.22-1.82c-.02-.18.13-.32.3-.29l.43.07c.12.02.21.12.22.23Z" fill="#fff176"/><circle cx="392" cy="311" r="15" fill="none" stroke="#000" stroke-linecap="round" stroke-linejoin="round"/><path d="M386.8,297.64l-1.53.18c-.39.21-.77.43-1.13.67l2.73-.32-.06-.52Z" fill="none" stroke="#000" stroke-linecap="round" stroke-linejoin="round"/><path d="M384.11,299.7l-1.84.22c-.27.24-.54.5-.79.76l2.71-.32-.08-.65Z" fill="none" stroke="#000" stroke-linecap="round" stroke-linejoin="round"/><path d="M381.97,302.25l-1.99.24c-.2.28-.38.57-.56.86l2.64-.31-.09-.79Z" fill="none" stroke="#000" stroke-linecap="round" stroke-linejoin="round"/><path d="M380.47,305.26l-2.14.25c-.11.27-.21.55-.31.83l2.54-.3-.09-.79Z" fill="none" stroke="#000" stroke-linecap="round" stroke-linejoin="round"/><path d="M379.69,308.56l-2.26.27c-.04.27-.08.54-.11.81l2.46-.29-.09-.79Z" fill="none" stroke="#000" stroke-linecap="round" stroke-linejoin="round"/><path d="M379.72,312.31l-2.41.29c.01.12.02.24.03.36.02.14.04.29.06.43l2.41-.29-.09-.79Z" fill="none" stroke="#000" stroke-linecap="round" stroke-linejoin="round"/><path d="M380.58,315.97l-2.46.29c.09.26.19.51.29.76l2.26-.27-.09-.79Z" fill="none" stroke="#000" stroke-linecap="round" stroke-linejoin="round"/><path d="M382.14,318.98l-2.54.3c.16.25.33.5.5.74l2.13-.25-.09-.79Z" fill="none" stroke="#000" stroke-linecap="round" stroke-linejoin="round"/><path d="M384.32,321.55l-2.64.31c.24.24.49.48.75.71l1.98-.24-.09-.79Z" fill="none" stroke="#000" stroke-linecap="round" stroke-linejoin="round"/><path d="M387.09,324.3l-.08-.65-2.71.32c.31.19.63.38.95.55l1.84-.22Z" fill="none" stroke="#000" stroke-linecap="round" stroke-linejoin="round"/><path d="M390.19,325.66l-.06-.52-2.73.32c.42.14.84.27,1.27.38l1.52-.18Z" fill="none" stroke="#000" stroke-linecap="round" stroke-linejoin="round"/><circle cx="394" cy="311" r="15" fill="none" stroke="#000" stroke-linecap="round" stroke-linejoin="round"/><circle cx="394" cy="311" r="14" fill="none" stroke="#000" stroke-linecap="round" stroke-linejoin="round"/><path d="M391.56,297.37c1.79-.31,3.65-.22,5.44.21,1.78.45,3.48,1.27,4.97,2.37,2.99,2.22,4.98,5.72,5.44,9.43.42,3.72-.7,7.59-3.08,10.44-1.19,1.43-2.65,2.61-4.28,3.47-1.64.83-3.43,1.36-5.24,1.48v-.05c1.79-.22,3.53-.79,5.11-1.67,1.57-.88,2.97-2.07,4.09-3.48,1.12-1.41,1.96-3.04,2.45-4.78.5-1.73.64-3.56.43-5.35s-.78-3.53-1.67-5.1c-.88-1.57-2.09-2.96-3.51-4.07s-3.06-1.94-4.79-2.43c-1.74-.49-3.57-.63-5.36-.42v-.05Z" fill="none" stroke="#000" stroke-linecap="round" stroke-linejoin="round"/><path d="M408.72,309.23c-.99-8.29-8.51-14.22-16.8-13.23-8.29.99-14.22,8.51-13.23,16.8.99,8.29,8.51,14.22,16.8,13.23,8.29-.99,14.22-8.51,13.23-16.8ZM380.03,312.64c-.9-7.56,4.5-14.41,12.05-15.31,7.56-.9,14.41,4.5,15.31,12.05s-4.5,14.41-12.05,15.31c-7.56.9-14.41-4.5-15.31-12.05Z" fill="none" stroke="#000" stroke-linecap="round" stroke-linejoin="round"/><polygon points="403.39 302.96 402.4 303.41 402.94 304.44 402.53 304.49 401.79 303.69 401.22 304.1 400.8 304.15 401.33 303.2 400.59 302.4 401.01 302.35 401.66 302.61 402.19 301.66 402.61 301.61 402.32 302.74 403.39 302.96" fill="none" stroke="#000" stroke-linecap="round" stroke-linejoin="round"/><polygon points="396.99 299.47 396 299.93 396.54 300.96 396.13 301.01 395.39 300.21 394.81 300.62 394.4 300.67 394.93 299.72 394.19 298.92 394.6 298.87 395.26 299.13 395.79 298.18 396.2 298.13 395.92 299.26 396.99 299.47" fill="none" stroke="#000" stroke-linecap="round" stroke-linejoin="round"/><polygon points="389.69 300.22 388.7 300.67 389.25 301.71 388.83 301.75 388.09 300.96 387.52 301.36 387.1 301.41 387.63 300.46 386.89 299.66 387.31 299.61 387.96 299.87 388.5 298.92 388.91 298.87 388.62 300.01 389.69 300.22" fill="none" stroke="#000" stroke-linecap="round" stroke-linejoin="round"/><polygon points="384.44 305.37 383.45 305.83 384 306.86 383.58 306.91 382.84 306.11 382.27 306.52 381.85 306.57 382.39 305.61 381.65 304.82 382.06 304.77 382.71 305.03 383.25 304.08 383.66 304.03 383.37 305.16 384.44 305.37" fill="none" stroke="#000" stroke-linecap="round" stroke-linejoin="round"/><polygon points="405.01 316.57 403.94 316.36 404.23 315.23 403.81 315.28 403.28 316.23 402.63 315.97 402.21 316.02 402.95 316.82 402.42 317.77 402.84 317.72 403.41 317.31 404.15 318.11 404.56 318.06 404.02 317.03 405.01 316.57" fill="none" stroke="#000" stroke-linecap="round" stroke-linejoin="round"/><polygon points="399.6 321.46 398.53 321.25 398.82 320.12 398.4 320.17 397.87 321.12 397.22 320.85 396.8 320.9 397.54 321.7 397.01 322.65 397.43 322.6 398 322.2 398.74 323 399.15 322.95 398.61 321.91 399.6 321.46" fill="none" stroke="#000" stroke-linecap="round" stroke-linejoin="round"/><polygon points="392.34 322.45 391.27 322.24 391.55 321.1 391.14 321.15 390.61 322.1 389.95 321.84 389.54 321.89 390.28 322.69 389.75 323.64 390.16 323.59 390.73 323.19 391.48 323.99 391.89 323.94 391.35 322.9 392.34 322.45" fill="none" stroke="#000" stroke-linecap="round" stroke-linejoin="round"/><polygon points="386.02 318.67 384.96 318.46 385.24 317.33 384.83 317.37 384.29 318.32 383.64 318.06 383.23 318.11 383.97 318.91 383.43 319.86 383.85 319.81 384.42 319.41 385.16 320.21 385.58 320.16 385.03 319.12 386.02 318.67" fill="none" stroke="#000" stroke-linecap="round" stroke-linejoin="round"/><polygon points="386.44 318.62 385.45 319.07 385.58 320.16 384.84 319.36 383.85 319.81 384.38 318.86 383.64 318.06 384.71 318.28 385.24 317.33 385.37 318.41 386.44 318.62" fill="none" stroke="#000" stroke-linecap="round" stroke-linejoin="round"/><polygon points="392.75 322.4 391.76 322.85 391.89 323.94 391.15 323.14 390.16 323.59 390.69 322.64 389.95 321.84 391.02 322.05 391.55 321.1 391.68 322.19 392.75 322.4" fill="none" stroke="#000" stroke-linecap="round" stroke-linejoin="round"/><polygon points="400.02 321.41 399.03 321.86 399.15 322.95 398.41 322.15 397.43 322.6 397.96 321.65 397.22 320.85 398.29 321.07 398.82 320.12 398.95 321.2 400.02 321.41" fill="none" stroke="#000" stroke-linecap="round" stroke-linejoin="round"/><polygon points="405.43 316.52 404.44 316.98 404.57 318.06 403.83 317.26 402.84 317.72 403.37 316.77 402.63 315.97 403.7 316.18 404.23 315.23 404.36 316.31 405.43 316.52" fill="none" stroke="#000" stroke-linecap="round" stroke-linejoin="round"/><polygon points="382.96 312.3 381.97 312.76 382.51 313.79 382.1 313.84 381.36 313.04 380.78 313.45 380.37 313.5 380.9 312.55 380.16 311.75 380.57 311.7 381.23 311.96 381.76 311.01 382.17 310.96 381.89 312.09 382.96 312.3" fill="none" stroke="#000" stroke-linecap="round" stroke-linejoin="round"/><polygon points="383.51 312.24 382.52 312.7 382.65 313.78 381.91 312.98 380.92 313.44 381.45 312.48 380.71 311.68 381.78 311.9 382.31 310.94 382.44 312.03 383.51 312.24" fill="none" stroke="#000" stroke-linecap="round" stroke-linejoin="round"/><polygon points="406.42 309.51 405.43 309.97 405.97 311 405.56 311.05 404.82 310.25 404.24 310.66 403.83 310.71 404.36 309.76 403.62 308.96 404.03 308.91 404.69 309.17 405.22 308.22 405.63 308.17 405.35 309.3 406.42 309.51" fill="none" stroke="#000" stroke-linecap="round" stroke-linejoin="round"/><polygon points="406.83 309.46 405.84 309.92 405.97 311 405.23 310.2 404.24 310.66 404.77 309.71 404.03 308.91 405.1 309.12 405.63 308.17 405.76 309.25 406.83 309.46" fill="none" stroke="#000" stroke-linecap="round" stroke-linejoin="round"/><polygon points="384.86 305.32 383.79 305.11 383.66 304.03 383.13 304.98 382.06 304.77 382.8 305.56 382.27 306.52 383.26 306.06 384 306.86 383.87 305.78 384.86 305.32" fill="none" stroke="#000" stroke-linecap="round" stroke-linejoin="round"/><polygon points="390.11 300.17 389.04 299.96 388.91 298.87 388.38 299.83 387.31 299.61 388.05 300.41 387.52 301.36 388.51 300.91 389.25 301.71 389.12 300.62 390.11 300.17" fill="none" stroke="#000" stroke-linecap="round" stroke-linejoin="round"/><polygon points="397.4 299.42 396.33 299.21 396.2 298.13 395.67 299.08 394.6 298.87 395.34 299.67 394.81 300.62 395.8 300.16 396.54 300.96 396.41 299.88 397.4 299.42" fill="none" stroke="#000" stroke-linecap="round" stroke-linejoin="round"/><polygon points="403.81 302.91 402.74 302.69 402.61 301.61 402.08 302.56 401.01 302.35 401.75 303.15 401.22 304.1 402.21 303.64 402.95 304.44 402.82 303.36 403.81 302.91" fill="none" stroke="#000" stroke-linecap="round" stroke-linejoin="round"/><path d="M398.14,318.77c.09-.01-1.94-16.33-1.94-16.33l-.46-.09-.75.09c-.14.02-.23.14-.22.28l.96,8.11h0l.95,8c.02.14.14.23.28.22l.73-.09.45-.19Z" fill="none" stroke="#000" stroke-linecap="round" stroke-linejoin="round"/><path d="M388.38,319.96l-1.94-16.29-.68-1.02-.7.1c-.08.01-.13.08-.12.16l2.15,18.05c0,.08.08.13.16.13l.69-.07.44-1.05Z" fill="none" stroke="#000" stroke-linecap="round" stroke-linejoin="round"/><path d="M388.9,306.04l-.11-.94c-.02-.15.45-.34.61-.36l.22,1.49c-.15.02-.7-.04-.72-.2Z" fill="none" stroke="#000" stroke-linecap="round" stroke-linejoin="round"/><path d="M393.99,305.79l-.19-1.58c-.01-.12.05-.23.16-.28l1.01-.25.27,2.31-1.04.02c-.12-.02-.21-.11-.22-.23Z" fill="none" stroke="#000" stroke-linecap="round" stroke-linejoin="round"/><path d="M388.44,304.82l.19,1.58c.01.12-.03.36-.14.4,0,0-.49.05-.68.07s-.34-.04-.37-.21l-.22-1.82c-.02-.18.13-.27.3-.29s.68-.09.68-.09c.12.02.22.24.24.36Z" fill="none" stroke="#000" stroke-linecap="round" stroke-linejoin="round"/><path d="M390.35,318.22l-.11-.94c-.02-.15.45-.34.61-.36l.22,1.49c-.15.02-.7-.04-.72-.2Z" fill="none" stroke="#000" stroke-linecap="round" stroke-linejoin="round"/><path d="M395.44,317.79l-.19-1.58c-.01-.12.05-.23.16-.28l1.01-.25.27,2.31-1.04.02c-.12-.02-.21-.11-.22-.23Z" fill="none" stroke="#000" stroke-linecap="round" stroke-linejoin="round"/><path d="M389.88,316.99l.19,1.58c.01.12-.03.36-.14.4,0,0-.49.05-.68.07s-.34-.04-.37-.21l-.22-1.82c-.02-.18.13-.27.3-.29s.68-.09.68-.09c.12.02.22.24.24.36Z" fill="none" stroke="#000" stroke-linecap="round" stroke-linejoin="round"/><path d="M389.86,314.16l-.11-.94c-.02-.15.45-.34.61-.36l.22,1.49c-.15.02-.7-.04-.72-.2Z" fill="none" stroke="#000" stroke-linecap="round" stroke-linejoin="round"/><path d="M394.96,313.79l-.19-1.58c-.01-.12.05-.23.16-.28l1.01-.25.27,2.31-1.04.02c-.12-.02-.21-.11-.22-.23Z" fill="none" stroke="#000" stroke-linecap="round" stroke-linejoin="round"/><path d="M389.4,312.94l.19,1.58c.01.12-.03.36-.14.4,0,0-.49.05-.68.07s-.34-.04-.37-.21l-.22-1.82c-.02-.18.13-.27.3-.29s.68-.09.68-.09c.12.02.22.24.24.36Z" fill="none" stroke="#000" stroke-linecap="round" stroke-linejoin="round"/><path d="M389.38,310.1l-.11-.94c-.02-.15.45-.34.61-.36l.22,1.49c-.15.02-.7-.04-.72-.2Z" fill="none" stroke="#000" stroke-linecap="round" stroke-linejoin="round"/><path d="M394.47,309.79l-.19-1.58c-.01-.12.05-.23.16-.28l1.01-.25.27,2.31-1.04.02c-.12-.02-.21-.11-.22-.23Z" fill="none" stroke="#000" stroke-linecap="round" stroke-linejoin="round"/><path d="M388.92,308.88l.19,1.58c.01.12-.03.36-.14.4,0,0-.49.05-.68.07s-.34-.04-.37-.21l-.22-1.82c-.02-.18.13-.27.3-.29s.68-.09.68-.09c.12.02.22.24.24.36Z" fill="none" stroke="#000" stroke-linecap="round" stroke-linejoin="round"/><path d="M398.86,318.81c.09-.01.17-.07.21-.14l3.66-8.71-5.6-7.62c-.06-.07-.15-.11-.24-.1l-1.15.12c-.14.02-.25.15-.23.29l1.91,16.08c.02.14.15.25.29.23l1.14-.15Z" fill="none" stroke="#000" stroke-linecap="round" stroke-linejoin="round"/><polygon points="398.93 316.72 401.73 310.06 397.44 304.24 398.93 316.72" fill="none" stroke="#000" stroke-linecap="round" stroke-linejoin="round"/><polygon points="399.09 314.37 400.86 310.16 398.15 306.48 399.09 314.37" fill="none" stroke="#000" stroke-linecap="round" stroke-linejoin="round"/><path d="M389.23,319.35l-1.83-15.39c-.02-.15-.1-.29-.23-.38l-1.31-.92c-.09-.06-.21,0-.2.12l2.15,18.11c.01.11.15.15.22.07l1.05-1.2c.1-.11.15-.27.13-.42Z" fill="none" stroke="#000" stroke-linecap="round" stroke-linejoin="round"/><path d="M390.82,318.16l-.11-.94c-.02-.15.09-.3.25-.31l4.18-.5c.15-.02.3.09.31.25l.11.94c.02.15-.09.3-.25.31l-4.19.5c-.15.02-.29-.09-.31-.25Z" fill="none" stroke="#000" stroke-linecap="round" stroke-linejoin="round"/><path d="M395.91,317.88l-.19-1.58c-.01-.12.05-.23.16-.28l.4-.17c.16-.07.34.04.37.21l.22,1.82c.02.18-.13.32-.3.29l-.43-.07c-.12-.02-.21-.12-.22-.23Z" fill="none" stroke="#000" stroke-linecap="round" stroke-linejoin="round"/><path d="M390.36,316.94l.19,1.58c.01.12-.05.23-.16.28l-.4.17c-.16.07-.34-.04-.37-.21l-.22-1.82c-.02-.18.13-.32.3-.29l.43.07c.12.02.21.12.22.23Z" fill="none" stroke="#000" stroke-linecap="round" stroke-linejoin="round"/><path d="M389.37,305.99l-.11-.94c-.02-.15.09-.3.25-.31l4.18-.5c.15-.02.3.09.31.25l.11.94c.02.15-.09.3-.25.31l-4.19.5c-.15.02-.29-.1-.31-.25Z" fill="none" stroke="#000" stroke-linecap="round" stroke-linejoin="round"/><path d="M394.47,305.7l-.19-1.58c-.01-.12.05-.23.16-.28l.4-.17c.16-.07.34.04.37.21l.22,1.82c.02.18-.13.32-.3.29l-.43-.07c-.12-.02-.21-.11-.22-.23Z" fill="none" stroke="#000" stroke-linecap="round" stroke-linejoin="round"/><path d="M388.91,304.76l.19,1.58c.01.12-.05.23-.16.28l-.4.17c-.16.07-.34-.04-.37-.21l-.22-1.82c-.02-.18.13-.32.3-.29l.43.07c.12.02.21.11.22.23Z" fill="none" stroke="#000" stroke-linecap="round" stroke-linejoin="round"/><path d="M389.85,310.04l-.11-.94c-.02-.15.09-.3.25-.31l4.18-.5c.15-.02.3.09.31.25l.11.94c.02.15-.09.3-.25.31l-4.19.5c-.15.02-.29-.09-.31-.25Z" fill="none" stroke="#000" stroke-linecap="round" stroke-linejoin="round"/><path d="M394.95,309.76l-.19-1.58c-.01-.12.05-.23.16-.28l.4-.17c.16-.07.34.04.37.21l.22,1.82c.02.18-.13.32-.3.29l-.43-.07c-.12-.02-.21-.11-.22-.23Z" fill="none" stroke="#000" stroke-linecap="round" stroke-linejoin="round"/><path d="M389.39,308.82l.19,1.58c.01.12-.05.23-.16.28l-.4.17c-.16.07-.34-.04-.37-.21l-.22-1.82c-.02-.18.13-.32.3-.29l.43.07c.12.02.21.11.22.23Z" fill="none" stroke="#000" stroke-linecap="round" stroke-linejoin="round"/><path d="M390.34,314.1l-.11-.94c-.02-.15.09-.3.25-.31l4.18-.5c.15-.02.3.09.31.25l.11.94c.02.15-.09.3-.25.31l-4.19.5c-.15.02-.29-.09-.31-.25Z" fill="none" stroke="#000" stroke-linecap="round" stroke-linejoin="round"/><path d="M395.43,313.82l-.19-1.58c-.01-.12.05-.23.16-.28l.4-.17c.16-.07.34.04.37.21l.22,1.82c.02.18-.13.32-.3.29l-.43-.07c-.12-.02-.21-.11-.22-.23Z" fill="none" stroke="#000" stroke-linecap="round" stroke-linejoin="round"/><path d="M389.87,312.88l.19,1.58c.01.12-.05.23-.16.28l-.4.17c-.16.07-.34-.04-.37-.21l-.22-1.82c-.02-.18.13-.32.3-.29l.43.07c.12.02.21.12.22.23Z" fill="none" stroke="#000" stroke-linecap="round" stroke-linejoin="round"/><g id="uuid-c2bd26a6-ac80-4594-bbb7-54c57b9e8702"><polygon id="uuid-50ef7a16-bb87-4047-aa87-2183d8fbe272" points="146.48 296.23 136.44 278.93 106.2 296.47 100.11 300 115.16 325.95 121.22 322.44 116.2 313.79 146.48 296.23" fill="#393939"/><rect id="uuid-13f43707-7de5-4990-a60d-78f810b66336" x="124.12" y="265.37" width="39" height="20" transform="translate(-164.75 312.27) rotate(-69.28)" fill="#393939"/><polygon id="uuid-cd370b3a-dc34-47b8-ae75-665a569f8902" points="179.82 284.25 198.53 291.33 186.14 324.07 195.5 327.6 193.02 334.15 164.96 323.54 167.45 316.95 167.45 316.95 179.82 284.25" fill="#393939"/><rect id="uuid-dcb944fd-8f9d-43c4-a240-8c900c7fbb19" x="172.54" y="257.1" width="20" height="39" transform="translate(-89.21 86.91) rotate(-21.66)" fill="#393939"/><polygon id="uuid-40a26213-80e0-4362-bfa9-f36761a3bf12" points="191.67 227.84 191.65 227.96 191.54 227.92 198.43 189.39 206.35 183.28 191.54 177.67 193.43 187.5 173.09 220.94 172.99 220.91 173.06 220.8 172.99 220.91 173.11 220.95 177.79 236.42 191.53 227.92 191.65 227.96 191.67 227.84" fill="#565656"/><path id="uuid-046448ec-a7af-4ce0-898b-23ae6e18752e" d="M175.92,162.14l-35.38,93.53,52.38,19.81,35.38-93.53-52.38-19.81ZM184.47,218.76l-1.18-52.76,36.98,13.99-35.8,38.77Z" fill="#393939"/><path id="uuid-f51f5358-0373-4ff3-8bc5-20698a76e8f5" d="M234.97,159.03c2.72-5.02,4.68-10.83,5.57-17.14,3.07-21.82-7.7-41.37-24.06-43.68-16.36-2.31-32.12,13.51-35.19,35.32-.89,6.32-.61,12.44.62,18.02l53.06,7.48Z" fill="#cecece"/><path id="uuid-cfda7223-b520-400e-aea9-a9b3c6b460e5" d="M181.16,156.64c1.04,12.27,7.14,22.46,17.07,26.22s21.25.15,30.15-8.36l-47.21-17.86Z" fill="#cecece"/><ellipse id="uuid-f55ef664-8369-47d5-8f52-47ea76022929" cx="225" cy="145.5" rx="4.51" ry="2.98" transform="translate(58 355.04) rotate(-84.33)" fill="#333"/><ellipse id="uuid-bacc1e96-f60e-4e29-9703-75f9ac7c4071" cx="209" cy="142.5" rx="4.51" ry="2.98" transform="translate(46.56 336.41) rotate(-84.33)" fill="#333"/><path id="uuid-b469e825-41f8-406b-b43d-d4272a161626" d="M184.22,104.63c10.69-9.41,30.09-6.92,39.71-5.68,12.04,1.55,25.92,5.4,25.89,9.07-.03,3.25-10.96,4.16-11.45,9.11-.36,3.59,5.1,6.36,4.39,7.26-1.51,1.9-24.85-12.11-30.64-7.56-2.6,2.05.12,6.44-2.57,7.78-2.78,1.39-6.45-2.92-16.01-6.19-8.23-2.82-12.5-2.01-13.86-4.62-1.81-3.47,3.84-8.55,4.54-9.16Z" fill="#4a4a4a"/><rect id="uuid-b33056c9-9bcb-44ab-9206-1ae91e527ddf" x="248.36" y="167.05" width="31.91" height="14.96" transform="translate(-51.84 155.26) rotate(-29.95)" fill="#393939"/><rect id="uuid-de988223-e9fc-4c4f-88ef-207500694a40" x="220.41" y="178.82" width="31.91" height="14.96" transform="translate(-41.31 70.23) rotate(-15.56)" fill="#393939"/><rect id="uuid-1d7fb298-e02e-43d2-b4d2-90d9afd031ab" x="147.47" y="166.47" width="31.91" height="14.96" transform="translate(-43.88 55.66) rotate(-17.08)" fill="#393939"/><rect id="uuid-f8804b6e-705c-47e9-aba4-97db96fb2c77" x="120.43" y="177.85" width="31.91" height="14.96" transform="translate(-75.96 96.7) rotate(-31)" fill="#393939"/><rect id="uuid-0e0b557f-3e9e-477f-a506-559ef385b056" x="275.59" y="155.46" width="15.96" height="15.96" transform="translate(-43.73 163.39) rotate(-29.95)" fill="#cecece"/><rect id="uuid-62e9ae79-c528-4fdb-8601-e860b90b6225" x="108.96" y="189.04" width="15.96" height="15.96" transform="translate(-84.76 88.35) rotate(-31)" fill="#cecece"/><polygon id="uuid-9fbc1742-c48c-4da9-9400-c156e5fd4a4c" points="146.48 296.23 136.44 278.93 106.2 296.47 100.11 300 115.16 325.95 121.22 322.44 116.2 313.79 146.48 296.23" fill="none" stroke="#000" stroke-linecap="round" stroke-linejoin="round"/><rect id="uuid-fe75e6c4-a029-4528-9303-7184ae4c81e3" x="124.12" y="265.37" width="39" height="20" transform="translate(-164.75 312.27) rotate(-69.28)" fill="none" stroke="#000" stroke-linecap="round" stroke-linejoin="round"/><polygon id="uuid-80575698-b953-4beb-bdef-f213dcddf95c" points="179.82 284.25 198.53 291.33 186.14 324.07 195.5 327.6 193.02 334.15 164.96 323.54 167.45 316.95 167.45 316.95 179.82 284.25" fill="none" stroke="#000" stroke-linecap="round" stroke-linejoin="round"/><rect id="uuid-70328f26-af7b-4249-808d-bd0d9c3c606b" x="172.54" y="257.1" width="20" height="39" transform="translate(-89.21 86.91) rotate(-21.66)" fill="none" stroke="#000" stroke-linecap="round" stroke-linejoin="round"/><polygon id="uuid-7a56fa0b-1bb5-422c-b68b-9f409a96cf47" points="191.67 227.84 191.65 227.96 191.54 227.92 198.43 189.39 206.35 183.28 191.54 177.67 193.43 187.5 173.09 220.94 172.99 220.91 173.06 220.8 172.99 220.91 173.11 220.95 177.79 236.42 191.53 227.92 191.65 227.96 191.67 227.84" fill="none" stroke="#000" stroke-linecap="round" stroke-linejoin="round"/><path id="uuid-dc7068e7-bb01-450d-88e5-cde32cfb5557" d="M175.92,162.14l-35.38,93.53,52.38,19.81,35.38-93.53-52.38-19.81ZM184.47,218.76l-1.18-52.76,36.98,13.99-35.8,38.77Z" fill="none" stroke="#000" stroke-linecap="round" stroke-linejoin="round"/><path id="uuid-64d2a890-444c-4ef5-8ba9-525b29696c77" d="M234.97,159.03c2.72-5.02,4.68-10.83,5.57-17.14,3.07-21.82-7.7-41.37-24.06-43.68-16.36-2.31-32.12,13.51-35.19,35.32-.89,6.32-.61,12.44.62,18.02l53.06,7.48Z" fill="none" stroke="#000" stroke-linecap="round" stroke-linejoin="round"/><path id="uuid-30cdb065-5715-4daa-8666-3917ffbb147d" d="M181.16,156.64c1.04,12.27,7.14,22.46,17.07,26.22s21.25.15,30.15-8.36l-47.21-17.86Z" fill="none" stroke="#000" stroke-linecap="round" stroke-linejoin="round"/><ellipse id="uuid-086742d5-f430-4b15-ac0a-c50000a56043" cx="225" cy="145.5" rx="4.51" ry="2.98" transform="translate(58 355.04) rotate(-84.33)" fill="none" stroke="#000" stroke-linecap="round" stroke-linejoin="round"/><ellipse id="uuid-30f6ef93-513a-4c6e-bfa0-e2b79babb9d3" cx="209" cy="142.5" rx="4.51" ry="2.98" transform="translate(46.56 336.41) rotate(-84.33)" fill="none" stroke="#000" stroke-linecap="round" stroke-linejoin="round"/><path id="uuid-7383eb1b-4e20-4250-bac2-b33cb5016797" d="M184.22,104.63c10.69-9.41,30.09-6.92,39.71-5.68,12.04,1.55,25.92,5.4,25.89,9.07-.03,3.25-10.96,4.16-11.45,9.11-.36,3.59,5.1,6.36,4.39,7.26-1.51,1.9-24.85-12.11-30.64-7.56-2.6,2.05.12,6.44-2.57,7.78-2.78,1.39-6.45-2.92-16.01-6.19-8.23-2.82-12.5-2.01-13.86-4.62-1.81-3.47,3.84-8.55,4.54-9.16Z" fill="none" stroke="#000" stroke-linecap="round" stroke-linejoin="round"/><rect id="uuid-e2a909ca-4495-481f-9132-67f7192643fe" x="248.36" y="167.05" width="31.91" height="14.96" transform="translate(-51.84 155.26) rotate(-29.95)" fill="none" stroke="#000" stroke-linecap="round" stroke-linejoin="round"/><rect id="uuid-95ff1b55-b80f-4895-820d-e2b11466e383" x="220.41" y="178.82" width="31.91" height="14.96" transform="translate(-41.31 70.23) rotate(-15.56)" fill="none" stroke="#000" stroke-linecap="round" stroke-linejoin="round"/><rect id="uuid-d0172d88-2854-4263-9819-8ca85a0b5d88" x="147.47" y="166.47" width="31.91" height="14.96" transform="translate(-43.88 55.66) rotate(-17.08)" fill="none" stroke="#000" stroke-linecap="round" stroke-linejoin="round"/><rect id="uuid-c0ffefaf-4b78-40ce-a290-5588e1a5728d" x="120.43" y="177.85" width="31.91" height="14.96" transform="translate(-75.96 96.7) rotate(-31)" fill="none" stroke="#000" stroke-linecap="round" stroke-linejoin="round"/><rect id="uuid-ce8e4d50-063b-4d44-b896-148df259bd75" x="275.59" y="155.46" width="15.96" height="15.96" transform="translate(-43.73 163.39) rotate(-29.95)" fill="none" stroke="#000" stroke-linecap="round" stroke-linejoin="round"/><rect id="uuid-3272e38b-4d3c-45a3-b435-7ce8af6cca53" x="108.96" y="189.04" width="15.96" height="15.96" transform="translate(-84.76 88.35) rotate(-31)" fill="none" stroke="#000" stroke-linecap="round" stroke-linejoin="round"/></g><path d="M114,196h-35v23h35v-23Z" fill="#9a4b21"/><path d="M82,198h0v1h1-1v-1ZM82,216h1v-1h0v1h-1ZM111,216h0v-1h-1,1v1ZM111,200v-2h-1v1h0v1h1ZM85,198v1h2v-1h-2ZM88,198v1h2v-1h-2ZM92,198v1h2v-1h-2ZM95,198v1h2v-1h-2ZM99,198v1h2v-1h-2ZM103,198v1h2v-1h-2ZM106,198v1h2v-1h-2ZM111,201h-1v2h1v-2ZM111,204h-1v2h1v-2ZM111,208h-1v2h1v-2ZM111,211h-1v2h1v-2ZM108,216v-1h-2v1h2ZM105,216v-1h-2v1h2ZM101,216v-1h-2v1h2ZM97,216v-1h-2v1h2ZM94,216v-1h-2v1h2ZM90,216v-1h-2v1h2ZM86,216v-1h-2v1h2ZM82,213h1v-2h-1v2ZM82,210h1v-2h-1v2ZM82,206h1v-2h-1v2ZM82,203h1v-2h-1v2Z" fill="#673216" fill-rule="evenodd"/><path d="M90,203h-14v8h14v-8Z" fill="#673216"/><path d="M85.74,209.12c1.08,0,1.95-.87,1.95-1.95s-.87-1.95-1.95-1.95-1.95.87-1.95,1.95.87,1.95,1.95,1.95Z" fill="#ffea28"/><path d="M114,196h-35v23h35v-23Z" fill="none" stroke="#000" stroke-linecap="round" stroke-linejoin="round"/><path d="M82,198h0v1h1-1v-1ZM82,216h1v-1h0v1h-1ZM111,216h0v-1h-1,1v1ZM111,200v-2h-1v1h0v1h1ZM85,198v1h2v-1h-2ZM88,198v1h2v-1h-2ZM92,198v1h2v-1h-2ZM95,198v1h2v-1h-2ZM99,198v1h2v-1h-2ZM103,198v1h2v-1h-2ZM106,198v1h2v-1h-2ZM111,201h-1v2h1v-2ZM111,204h-1v2h1v-2ZM111,208h-1v2h1v-2ZM111,211h-1v2h1v-2ZM108,216v-1h-2v1h2ZM105,216v-1h-2v1h2ZM101,216v-1h-2v1h2ZM97,216v-1h-2v1h2ZM94,216v-1h-2v1h2ZM90,216v-1h-2v1h2ZM86,216v-1h-2v1h2ZM82,213h1v-2h-1v2ZM82,210h1v-2h-1v2ZM82,206h1v-2h-1v2ZM82,203h1v-2h-1v2Z" fill="none" stroke="#000" stroke-linecap="round" stroke-linejoin="round"/><path d="M90,203h-14v8h14v-8Z" fill="none" stroke="#000" stroke-linecap="round" stroke-linejoin="round"/><path d="M85.74,209.12c1.08,0,1.95-.87,1.95-1.95s-.87-1.95-1.95-1.95-1.95.87-1.95,1.95.87,1.95,1.95,1.95Z" fill="none" stroke="#000" stroke-linecap="round" stroke-linejoin="round"/><path d="M273.14,124.11c5.25-.44,26.28-2.56,40.16-13.18,6.16-4.72,8.79-9.49,10-12.7" fill="none" stroke="#333" stroke-miterlimit="10" stroke-width="2"/><text transform="translate(285.03 77.51)" fill="#333" font-family="ComicNeue-Bold, &apos;Comic Neue&apos;" font-size="24" font-weight="700"><tspan x="0" y="0">COME BACK.</tspan></text></svg>