<?xml version="1.0" encoding="UTF-8"?><svg id="uuid-fc05d0dc-135f-4353-8edd-b15de93cf0fe" xmlns="http://www.w3.org/2000/svg" viewBox="0 0 500 500"><text transform="translate(72.342529 404.221069)" fill="#333" font-family="ComicNeue-Regular, &apos;Comic Neue&apos;" font-size="24"><tspan x="0" y="0">As the war drags on, however, </tspan><tspan x="0" y="28.799805">Canada is in more debt than ever.</tspan></text><circle cx="392" cy="311" r="14.998534" fill="#d68f30"/><path d="M386.795064,297.640263l-1.534121.182386c-.387109.20532-.766803.428342-1.131538.665516l2.727907-.324311-.062248-.523591Z" fill="#bc6f00"/><path d="M384.111012,299.695702l-1.84304.219113c-.270929.244606-.535689.496444-.788732.757509l2.709582-.322133-.07781-.654488Z" fill="#bc6f00"/><path d="M381.972028,302.24919l-1.987028.236231c-.197572.281019-.383737.568647-.561117.863196l2.641514-.31404-.09337-.785386Z" fill="#bc6f00"/><path d="M380.473861,305.257486l-2.136251.253971c-.110868.273366-.213261.551035-.309793.833317l2.539414-.301902-.09337-.785386Z" fill="#bc6f00"/><path d="M379.685158,308.561094l-2.261912.268911c-.04249.267893-.076815.537469-.105593.80904l2.460877-.292565-.093372-.785386Z" fill="#bc6f00"/><path d="M379.722397,312.313428l-2.411135.286651c.011387.118119.020158.23655.034475.356976.017118.143988.04209.287041.061515.428099l2.408517-.28634-.093372-.785386Z" fill="#bc6f00"/><path d="M380.584291,315.967724l-2.460877.292565c.091649.257255.190838.510959.294953.761421l2.259293-.2686-.09337-.785386Z" fill="#bc6f00"/><path d="M382.140344,318.984606l-2.542033.302213c.160025.25178.329901.497079.50439.736522l2.131014-.253349-.093372-.785386Z" fill="#bc6f00"/><path d="M384.31685,321.548069l-2.644133.314352c.244111.244439.492526.480401.753095.706954l1.984409-.23592-.093372-.785386Z" fill="#bc6f00"/><path d="M387.094569,324.300237l-.07781-.654488-2.709582.322133c.309817.194149.626554.379508.949589.550846l1.837803-.21849Z" fill="#bc6f00"/><path d="M390.194949,325.657365l-.062248-.523591-2.733144.324934c.418032.144114.844667.271275,1.27436.379487l1.521032-.18083Z" fill="#bc6f00"/><circle cx="394" cy="311" r="14.998534" fill="#fff176"/><circle cx="394" cy="311" r="13.998632" fill="#f2bc1a"/><path d="M391.557637,297.368758c1.789637-.310997,3.654006-.216706,5.440845.208053,1.784716.45156,3.482546,1.26656,4.973267,2.371676,2.987922,2.220084,4.983829,5.720976,5.443804,9.433673.420705,3.717367-.695823,7.590939-3.083182,10.444761-1.187135,1.426134-2.649486,2.614179-4.275963,3.471284-1.639751.83479-3.427427,1.363259-5.240406,1.47791l-.006225-.052358c1.792676-.218434,3.53841-.787052,5.111412-1.66966,1.573313-.879989,2.971276-2.073657,4.091278-3.483843,1.11969-1.412805,1.961107-3.044749,2.453237-4.778533.495059-1.731479.638524-3.561868.425948-5.349931s-.781195-3.533796-1.668415-5.10094c-.884914-1.570073-2.085501-2.959249-3.505226-4.070151s-3.058276-1.940914-4.794057-2.427497c-1.736091-.489201-3.566483-.632666-5.360403-.424703l-.005914-.049741Z" fill="#e08f00"/><path d="M408.724531,309.22654c-.986006-8.293678-8.508174-14.21732-16.801852-13.231314-8.293678.986006-14.21732,8.508175-13.231314,16.801852.986006,8.293678,8.508175,14.21732,16.801852,13.231314,8.293678-.986006,14.21732-8.508175,13.231314-16.801852ZM380.029139,312.638035c-.898237-7.555415,4.497168-14.406797,12.052583-15.305034,7.558032-.898548,14.409415,4.496857,15.307652,12.052271s-4.497167,14.406797-12.052582,15.305034c-7.555415.898237-14.409416-4.496857-15.307653-12.052271Z" fill="#fff176"/><polygon points="403.391173 302.955064 402.401844 303.409861 402.944334 304.444519 402.530698 304.493694 401.79027 303.69231 401.217507 304.100239 400.801253 304.149726 401.333462 303.199698 400.593034 302.398315 401.009288 302.348827 401.661728 302.611095 402.193937 301.661068 402.607573 301.611893 402.322478 302.742283 403.391173 302.955064" fill="#d38200"/><polygon points="396.987709 299.47373 395.998692 299.931145 396.540871 300.963184 396.127233 301.01236 395.387117 300.213595 394.811737 300.621834 394.398099 300.67101 394.929997 299.718364 394.18988 298.919599 394.603517 298.870423 395.258575 299.13238 395.790472 298.179734 396.20411 298.130558 395.919325 299.263567 396.987709 299.47373" fill="#d38200"/><polygon points="389.692551 300.216243 388.703533 300.673658 389.245713 301.705697 388.832075 301.754873 388.091959 300.956108 387.516578 301.364347 387.102941 301.413523 387.634839 300.460877 386.894722 299.662112 387.308359 299.612936 387.963417 299.874893 388.495314 298.922247 388.908951 298.873071 388.624167 300.00608 389.692551 300.216243" fill="#d38200"/><polygon points="384.443083 305.369688 383.454066 305.827104 383.996244 306.859142 383.582607 306.908318 382.84249 306.109553 382.269729 306.517482 381.853475 306.566968 382.385371 305.614322 381.645256 304.815557 382.06151 304.76607 382.713949 305.028339 383.245846 304.075692 383.659483 304.026516 383.374699 305.159526 384.443083 305.369688" fill="#d38200"/><polygon points="405.01024 316.57366 403.941857 316.363496 404.22664 315.230487 403.813004 315.279663 403.281107 316.232308 402.628667 315.970041 402.212412 316.019528 402.952529 316.818294 402.420631 317.770939 402.836886 317.721452 403.409649 317.313525 404.149765 318.112289 404.563401 318.063113 404.021223 317.031075 405.01024 316.57366" fill="#d38200"/><polygon points="399.601497 321.459305 398.532803 321.246524 398.817898 320.116134 398.404261 320.16531 397.872052 321.115337 397.216995 320.85338 396.803357 320.902556 397.543785 321.703939 397.011577 322.653968 397.425214 322.604792 398.000594 322.196553 398.741022 322.997936 399.154659 322.94876 398.612169 321.914103 399.601497 321.459305" fill="#d38200"/><polygon points="392.335596 322.447906 391.266901 322.235125 391.551997 321.104735 391.138359 321.153911 390.60615 322.103938 389.951093 321.841981 389.537456 321.891157 390.277884 322.69254 389.745675 323.642569 390.159312 323.593393 390.734692 323.185152 391.47512 323.986537 391.888758 323.937361 391.346267 322.902704 392.335596 322.447906" fill="#d38200"/><polygon points="386.024179 318.668894 384.955484 318.456113 385.24058 317.325721 384.826942 317.374897 384.294734 318.324926 383.642295 318.062658 383.226041 318.112145 383.966467 318.913528 383.43426 319.863555 383.850514 319.814068 384.423275 319.40614 385.163703 320.207523 385.577341 320.158347 385.03485 319.12369 386.024179 318.668894" fill="#d38200"/><polygon points="386.440435 318.619407 385.451106 319.074203 385.579959 320.158036 384.839531 319.356653 383.850514 319.814068 384.382723 318.864041 383.642295 318.062658 384.710989 318.275439 385.243198 317.32541 385.37174 318.406626 386.440435 318.619407" fill="#fff176"/><polygon points="392.749233 322.39873 391.759904 322.853528 391.888758 323.937361 391.148329 323.135976 390.159312 323.593393 390.691521 322.643364 389.951093 321.841981 391.019788 322.054762 391.551997 321.104735 391.680538 322.185949 392.749233 322.39873" fill="#fff176"/><polygon points="400.015133 321.410129 399.025806 321.864927 399.154659 322.94876 398.414231 322.147377 397.425214 322.604792 397.957423 321.654763 397.216995 320.85338 398.285689 321.066161 398.817898 320.116134 398.94644 321.197348 400.015133 321.410129" fill="#fff176"/><polygon points="405.426495 316.524173 404.437478 316.981588 404.566019 318.062802 403.825903 317.264038 402.836886 317.721452 403.368783 316.768807 402.628667 315.970041 403.697361 316.182821 404.229258 315.230176 404.358112 316.314009 405.426495 316.524173" fill="#fff176"/><polygon points="382.957568 312.30316 381.968551 312.760575 382.51073 313.792613 382.097093 313.841789 381.356976 313.043025 380.781596 313.451264 380.367959 313.500439 380.899856 312.547794 380.159739 311.749028 380.573377 311.699852 381.228434 311.961809 381.760332 311.009163 382.173969 310.959987 381.889185 312.092996 382.957568 312.30316" fill="#d38200"/><polygon points="383.507338 312.2378 382.518321 312.695215 382.646862 313.776429 381.906746 312.977664 380.917729 313.435079 381.449626 312.482434 380.709509 311.683667 381.778204 311.896449 382.310101 310.943803 382.438955 312.027636 383.507338 312.2378" fill="#fff176"/><polygon points="406.417052 309.514144 405.428035 309.971559 405.970213 311.003597 405.556576 311.052773 404.81646 310.254008 404.241079 310.662247 403.827442 310.711423 404.35934 309.758778 403.619223 308.960011 404.03286 308.910836 404.687918 309.172793 405.219815 308.220147 405.633452 308.170971 405.348669 309.30398 406.417052 309.514144" fill="#d38200"/><polygon points="406.830688 309.464968 405.841671 309.922383 405.970213 311.003597 405.230096 310.204832 404.241079 310.662247 404.772977 309.709602 404.03286 308.910836 405.101555 309.123617 405.633452 308.170971 405.762305 309.254804 406.830688 309.464968" fill="#fff176"/><polygon points="384.859338 305.320201 383.790955 305.110039 383.662102 304.026205 383.130204 304.978851 382.06151 304.76607 382.801627 305.564835 382.269729 306.517482 383.258746 306.060066 383.998863 306.858831 383.870321 305.777617 384.859338 305.320201" fill="#fff176"/><polygon points="390.106188 300.167067 389.037805 299.956904 388.908951 298.873071 388.377054 299.825717 387.308359 299.612936 388.048476 300.411701 387.516578 301.364347 388.505596 300.906932 389.245713 301.705697 389.117171 300.624482 390.106188 300.167067" fill="#fff176"/><polygon points="397.401345 299.424554 396.332963 299.214391 396.20411 298.130558 395.672212 299.083204 394.603517 298.870423 395.343634 299.669188 394.811737 300.621834 395.800754 300.164419 396.540871 300.963184 396.412329 299.881969 397.401345 299.424554" fill="#fff176"/><polygon points="403.807428 302.905577 402.738733 302.692796 402.610191 301.611581 402.077982 302.561608 401.009288 302.348827 401.749716 303.150211 401.217507 304.100239 402.206524 303.642823 402.946952 304.444207 402.818099 303.360374 403.807428 302.905577" fill="#fff176"/><path d="M398.14319,318.773291c.091628-.010893-1.941511-16.330796-1.941511-16.330796l-.457246-.094318-.751352.089326c-.136134.016184-.233015.13921-.216831.275344l.964531,8.113039h0l.951459,8.003085c.016184.136133.13921.233016.275344.216832l.730409-.086836.445197-.185676Z" fill="#d38200"/><path d="M388.381024,319.957775l-1.93622-16.28629-.676627-1.02402-.702674.096813c-.07561.011644-.13097.081944-.121633.160483l2.145373,18.045556c.009026.075921.077021.134211.155869.127493l.692696-.069077.443216-1.050958Z" fill="#d38200"/><path d="M388.898463,306.042699l-.111424-.937227c-.018363-.154459.453637-.338012.608095-.356375l.224841,1.489249c-.154458.018362-.703461-.043807-.721513-.195648Z" fill="#d38200"/><path d="M393.991703,305.788996l-.187677-1.578626c-.014006-.117808.052394-.229245.16092-.276662l1.014228-.245361.274824,2.311654-1.041306.017599c-.116307-.018032-.206984-.110795-.220989-.228603Z" fill="#d38200"/><path d="M388.43722,304.820501l.187677,1.578626c.014006.117808-.031596.359521-.140434.404319,0,0-.490492.050348-.68422.07338s-.344435-.0387-.365288-.214103l-.216311-1.819478c-.020853-.175402.126887-.272616.304908-.29378s.677115-.088464.677115-.088464c.11662.020651.222547.241693.236553.359501Z" fill="#d38200"/><path d="M390.345726,318.216183l-.111424-.937228c-.018363-.154458.453637-.338012.608095-.356375l.224841,1.489249c-.154458.018365-.703149-.041186-.721512-.195647Z" fill="#d38200"/><path d="M395.438966,317.788996l-.187677-1.578626c-.014006-.117807.052394-.229244.16092-.276662l1.014228-.245361.274824,2.311654-1.041306.017599c-.116307-.018031-.206984-.110794-.220989-.228603Z" fill="#d38200"/><path d="M389.884483,316.993986l.187677,1.578626c.014006.117807-.031596.35952-.140434.404319,0,0-.490492.050348-.68422.07338s-.344435-.038701-.365288-.214103l-.216311-1.819477c-.020853-.175402.126887-.272616.304908-.29378s.677115-.088464.677115-.088464c.11662.020649.222547.241693.236552.3595Z" fill="#d38200"/><path d="M389.863305,314.158355l-.111424-.937228c-.018363-.154458.453637-.338012.608095-.356375l.224841,1.489249c-.154458.018365-.703149-.041186-.721512-.195647Z" fill="#d38200"/><path d="M394.956545,313.788996l-.187677-1.578626c-.014006-.117807.052394-.229244.16092-.276662l1.014228-.245361.274824,2.311654-1.041306.017599c-.116307-.018031-.206984-.110794-.220989-.228603Z" fill="#d38200"/><path d="M389.402062,312.936157l.187677,1.578626c.014006.117807-.031596.35952-.140434.404319,0,0-.490492.050348-.68422.07338s-.344435-.038701-.365288-.214103l-.216311-1.819477c-.020853-.175402.126887-.272616.304908-.29378s.677115-.088464.677115-.088464c.11662.020649.222547.241693.236552.3595Z" fill="#d38200"/><path d="M389.380884,310.100528l-.111424-.937227c-.018363-.154459.453637-.338012.608095-.356375l.224841,1.489249c-.154458.018362-.703149-.041188-.721513-.195648Z" fill="#d38200"/><path d="M394.474124,309.788996l-.187677-1.578626c-.014006-.117808.052394-.229245.16092-.276662l1.014228-.245361.274824,2.311654-1.041306.017599c-.116307-.018032-.206984-.110795-.220989-.228603Z" fill="#d38200"/><path d="M388.919641,308.878329l.187677,1.578626c.014006.117808-.031596.359521-.140434.404319,0,0-.490492.050348-.68422.07338s-.344435-.0387-.365288-.214103l-.216311-1.819478c-.020853-.175402.126887-.272616.304908-.29378s.677115-.088464.677115-.088464c.11662.020651.222547.241693.236553.359501Z" fill="#d38200"/><path d="M398.858807,318.807686c.091628-.010893.172419-.068288.205902-.143951l3.663334-8.713674-5.600232-7.622981c-.05646-.072936-.148766-.112407-.240395-.101514l-1.145602.122922c-.143987.017118-.24779.148932-.230671.292919l1.911944,16.08209c.017118.143988.148932.24779.292919.230671l1.142801-.146484Z" fill="#fff176"/><polygon points="398.926643 316.720791 401.726741 310.058483 397.442654 304.238388 398.926643 316.720791" fill="#f2bc1a"/><polygon points="399.085649 314.373492 400.85758 310.161814 398.147573 306.482979 399.085649 314.373492" fill="#fff176"/><path d="M389.232315,319.346817l-1.829465-15.388332c-.018052-.151842-.100619-.288048-.225329-.376765l-1.306438-.917285c-.089871-.063655-.211305.009192-.198232.119146l2.153154,18.111003c.012761.107337.147887.14968.220642.069347l1.054646-1.200639c.100745-.112867.148764-.267253.131024-.416476Z" fill="#fff176"/><path d="M390.819575,318.159849l-.111424-.937228c-.018363-.154458.09236-.295061.246818-.313424l4.183491-.497361c.154459-.018363.295061.09236.313424.246818l.111424.937228c.018363.154458-.092359.29506-.246818.313424l-4.186108.497672c-.15446.018363-.292444-.092669-.310807-.247129Z" fill="#fff176"/><path d="M395.913127,317.880855l-.187677-1.578626c-.014006-.117807.052394-.229244.16092-.276662l.401938-.169913c.161635-.069661.344435.038701.365288.214103l.216311,1.819477c.020853.175402-.131756.320984-.304908.29378l-.430572-.070939c-.116618-.020651-.207606-.116031-.221301-.231221Z" fill="#fff176"/><path d="M390.355715,316.937963l.187677,1.578626c.014006.117807-.052395.229244-.160921.276662l-.401937.169913c-.161635.069661-.344435-.038701-.365288-.214103l-.216311-1.819477c-.020853-.175402.131756-.320984.304908-.29378l.430571.070939c.119237.02034.207607.116031.221302.231221Z" fill="#fff176"/><path d="M389.372312,305.986365l-.111424-.937227c-.018363-.154459.09236-.295061.246818-.313424l4.183491-.497361c.154459-.018363.29506.092359.313424.246818l.111424.937228c.018363.154459-.092359.29506-.246818.313424l-4.186108.497672c-.154772.015744-.292755-.09529-.310807-.24713Z" fill="#fff176"/><path d="M394.465552,305.704751l-.187677-1.578626c-.014006-.117808.052394-.229245.16092-.276662l.401938-.169913c.161635-.06966.344435.0387.365288.214103l.216311,1.819478c.020853.175402-.131756.320984-.304908.29378l-.430572-.070939c-.116618-.020651-.207295-.113414-.221301-.231222Z" fill="#fff176"/><path d="M388.908452,304.764478l.187677,1.578626c.014006.117808-.052395.229245-.160921.276662l-.401937.169913c-.161635.06966-.344435-.0387-.365288-.214103l-.216311-1.819478c-.020853-.175402.131756-.320984.304908-.29378l.430571.070939c.119237.02034.207296.113414.221302.231222Z" fill="#fff176"/><path d="M389.854733,310.044193l-.111424-.937227c-.018363-.154459.09236-.295061.246818-.313424l4.183491-.497361c.154459-.018363.29506.092359.313424.246818l.111424.937228c.018363.154459-.092359.29506-.246818.313424l-4.186108.497672c-.154772.015744-.292444-.092671-.310807-.24713Z" fill="#fff176"/><path d="M394.947973,309.76258l-.187677-1.578626c-.014006-.117808.052394-.229245.16092-.276662l.401938-.169913c.161635-.06966.344435.0387.365288.214103l.216311,1.819478c.020853.175402-.131756.320984-.304908.29378l-.430572-.070939c-.116618-.020651-.207295-.113414-.221301-.231222Z" fill="#fff176"/><path d="M389.390873,308.822306l.187677,1.578626c.014006.117808-.052395.229245-.160921.276662l-.401937.169913c-.161635.06966-.344435-.0387-.365288-.214103l-.216311-1.819478c-.020853-.175402.131756-.320984.304908-.29378l.430571.070939c.119237.02034.207296.113414.221302.231222Z" fill="#fff176"/><path d="M390.337154,314.102021l-.111424-.937228c-.018363-.154458.09236-.295061.246818-.313424l4.183491-.497361c.154459-.018363.295061.09236.313424.246818l.111424.937228c.018363.154458-.092359.29506-.246818.313424l-4.186108.497672c-.154771.015747-.292444-.092669-.310807-.247129Z" fill="#fff176"/><path d="M395.430394,313.820408l-.187677-1.578626c-.014006-.117807.052394-.229244.16092-.276662l.401938-.169913c.161635-.069661.344435.038701.365288.214103l.216311,1.819477c.020853.175402-.131756.320984-.304908.29378l-.430572-.070939c-.116618-.020649-.207295-.113412-.221301-.231221Z" fill="#fff176"/><path d="M389.873294,312.880134l.187677,1.578626c.014006.117807-.052395.229244-.160921.276662l-.401937.169913c-.161635.069661-.344435-.038701-.365288-.214103l-.216311-1.819477c-.020853-.175402.131756-.320984.304908-.29378l.430571.070939c.119237.02034.207607.116031.221302.231221Z" fill="#fff176"/><circle cx="392" cy="311" r="14.998534" fill="none" stroke="#000" stroke-linecap="round" stroke-linejoin="round"/><path d="M386.795064,297.640263l-1.534121.182386c-.387109.20532-.766803.428342-1.131538.665516l2.727907-.324311-.062248-.523591Z" fill="none" stroke="#000" stroke-linecap="round" stroke-linejoin="round"/><path d="M384.111012,299.695702l-1.84304.219113c-.270929.244606-.535689.496444-.788732.757509l2.709582-.322133-.07781-.654488Z" fill="none" stroke="#000" stroke-linecap="round" stroke-linejoin="round"/><path d="M381.972028,302.24919l-1.987028.236231c-.197572.281019-.383737.568647-.561117.863196l2.641514-.31404-.09337-.785386Z" fill="none" stroke="#000" stroke-linecap="round" stroke-linejoin="round"/><path d="M380.473861,305.257486l-2.136251.253971c-.110868.273366-.213261.551035-.309793.833317l2.539414-.301902-.09337-.785386Z" fill="none" stroke="#000" stroke-linecap="round" stroke-linejoin="round"/><path d="M379.685158,308.561094l-2.261912.268911c-.04249.267893-.076815.537469-.105593.80904l2.460877-.292565-.093372-.785386Z" fill="none" stroke="#000" stroke-linecap="round" stroke-linejoin="round"/><path d="M379.722397,312.313428l-2.411135.286651c.011387.118119.020158.23655.034475.356976.017118.143988.04209.287041.061515.428099l2.408517-.28634-.093372-.785386Z" fill="none" stroke="#000" stroke-linecap="round" stroke-linejoin="round"/><path d="M380.584291,315.967724l-2.460877.292565c.091649.257255.190838.510959.294953.761421l2.259293-.2686-.09337-.785386Z" fill="none" stroke="#000" stroke-linecap="round" stroke-linejoin="round"/><path d="M382.140344,318.984606l-2.542033.302213c.160025.25178.329901.497079.50439.736522l2.131014-.253349-.093372-.785386Z" fill="none" stroke="#000" stroke-linecap="round" stroke-linejoin="round"/><path d="M384.31685,321.548069l-2.644133.314352c.244111.244439.492526.480401.753095.706954l1.984409-.23592-.093372-.785386Z" fill="none" stroke="#000" stroke-linecap="round" stroke-linejoin="round"/><path d="M387.094569,324.300237l-.07781-.654488-2.709582.322133c.309817.194149.626554.379508.949589.550846l1.837803-.21849Z" fill="none" stroke="#000" stroke-linecap="round" stroke-linejoin="round"/><path d="M390.194949,325.657365l-.062248-.523591-2.733144.324934c.418032.144114.844667.271275,1.27436.379487l1.521032-.18083Z" fill="none" stroke="#000" stroke-linecap="round" stroke-linejoin="round"/><circle cx="394" cy="311" r="14.998534" fill="none" stroke="#000" stroke-linecap="round" stroke-linejoin="round"/><circle cx="394" cy="311" r="13.998632" fill="none" stroke="#000" stroke-linecap="round" stroke-linejoin="round"/><path d="M391.557637,297.368758c1.789637-.310997,3.654006-.216706,5.440845.208053,1.784716.45156,3.482546,1.26656,4.973267,2.371676,2.987922,2.220084,4.983829,5.720976,5.443804,9.433673.420705,3.717367-.695823,7.590939-3.083182,10.444761-1.187135,1.426134-2.649486,2.614179-4.275963,3.471284-1.639751.83479-3.427427,1.363259-5.240406,1.47791l-.006225-.052358c1.792676-.218434,3.53841-.787052,5.111412-1.66966,1.573313-.879989,2.971276-2.073657,4.091278-3.483843,1.11969-1.412805,1.961107-3.044749,2.453237-4.778533.495059-1.731479.638524-3.561868.425948-5.349931s-.781195-3.533796-1.668415-5.10094c-.884914-1.570073-2.085501-2.959249-3.505226-4.070151s-3.058276-1.940914-4.794057-2.427497c-1.736091-.489201-3.566483-.632666-5.360403-.424703l-.005914-.049741Z" fill="none" stroke="#000" stroke-linecap="round" stroke-linejoin="round"/><path d="M408.724531,309.22654c-.986006-8.293678-8.508174-14.21732-16.801852-13.231314-8.293678.986006-14.21732,8.508175-13.231314,16.801852.986006,8.293678,8.508175,14.21732,16.801852,13.231314,8.293678-.986006,14.21732-8.508175,13.231314-16.801852ZM380.029139,312.638035c-.898237-7.555415,4.497168-14.406797,12.052583-15.305034,7.558032-.898548,14.409415,4.496857,15.307652,12.052271s-4.497167,14.406797-12.052582,15.305034c-7.555415.898237-14.409416-4.496857-15.307653-12.052271Z" fill="none" stroke="#000" stroke-linecap="round" stroke-linejoin="round"/><polygon points="403.391173 302.955064 402.401844 303.409861 402.944334 304.444519 402.530698 304.493694 401.79027 303.69231 401.217507 304.100239 400.801253 304.149726 401.333462 303.199698 400.593034 302.398315 401.009288 302.348827 401.661728 302.611095 402.193937 301.661068 402.607573 301.611893 402.322478 302.742283 403.391173 302.955064" fill="none" stroke="#000" stroke-linecap="round" stroke-linejoin="round"/><polygon points="396.987709 299.47373 395.998692 299.931145 396.540871 300.963184 396.127233 301.01236 395.387117 300.213595 394.811737 300.621834 394.398099 300.67101 394.929997 299.718364 394.18988 298.919599 394.603517 298.870423 395.258575 299.13238 395.790472 298.179734 396.20411 298.130558 395.919325 299.263567 396.987709 299.47373" fill="none" stroke="#000" stroke-linecap="round" stroke-linejoin="round"/><polygon points="389.692551 300.216243 388.703533 300.673658 389.245713 301.705697 388.832075 301.754873 388.091959 300.956108 387.516578 301.364347 387.102941 301.413523 387.634839 300.460877 386.894722 299.662112 387.308359 299.612936 387.963417 299.874893 388.495314 298.922247 388.908951 298.873071 388.624167 300.00608 389.692551 300.216243" fill="none" stroke="#000" stroke-linecap="round" stroke-linejoin="round"/><polygon points="384.443083 305.369688 383.454066 305.827104 383.996244 306.859142 383.582607 306.908318 382.84249 306.109553 382.269729 306.517482 381.853475 306.566968 382.385371 305.614322 381.645256 304.815557 382.06151 304.76607 382.713949 305.028339 383.245846 304.075692 383.659483 304.026516 383.374699 305.159526 384.443083 305.369688" fill="none" stroke="#000" stroke-linecap="round" stroke-linejoin="round"/><polygon points="405.01024 316.57366 403.941857 316.363496 404.22664 315.230487 403.813004 315.279663 403.281107 316.232308 402.628667 315.970041 402.212412 316.019528 402.952529 316.818294 402.420631 317.770939 402.836886 317.721452 403.409649 317.313525 404.149765 318.112289 404.563401 318.063113 404.021223 317.031075 405.01024 316.57366" fill="none" stroke="#000" stroke-linecap="round" stroke-linejoin="round"/><polygon points="399.601497 321.459305 398.532803 321.246524 398.817898 320.116134 398.404261 320.16531 397.872052 321.115337 397.216995 320.85338 396.803357 320.902556 397.543785 321.703939 397.011577 322.653968 397.425214 322.604792 398.000594 322.196553 398.741022 322.997936 399.154659 322.94876 398.612169 321.914103 399.601497 321.459305" fill="none" stroke="#000" stroke-linecap="round" stroke-linejoin="round"/><polygon points="392.335596 322.447906 391.266901 322.235125 391.551997 321.104735 391.138359 321.153911 390.60615 322.103938 389.951093 321.841981 389.537456 321.891157 390.277884 322.69254 389.745675 323.642569 390.159312 323.593393 390.734692 323.185152 391.47512 323.986537 391.888758 323.937361 391.346267 322.902704 392.335596 322.447906" fill="none" stroke="#000" stroke-linecap="round" stroke-linejoin="round"/><polygon points="386.024179 318.668894 384.955484 318.456113 385.24058 317.325721 384.826942 317.374897 384.294734 318.324926 383.642295 318.062658 383.226041 318.112145 383.966467 318.913528 383.43426 319.863555 383.850514 319.814068 384.423275 319.40614 385.163703 320.207523 385.577341 320.158347 385.03485 319.12369 386.024179 318.668894" fill="none" stroke="#000" stroke-linecap="round" stroke-linejoin="round"/><polygon points="386.440435 318.619407 385.451106 319.074203 385.579959 320.158036 384.839531 319.356653 383.850514 319.814068 384.382723 318.864041 383.642295 318.062658 384.710989 318.275439 385.243198 317.32541 385.37174 318.406626 386.440435 318.619407" fill="none" stroke="#000" stroke-linecap="round" stroke-linejoin="round"/><polygon points="392.749233 322.39873 391.759904 322.853528 391.888758 323.937361 391.148329 323.135976 390.159312 323.593393 390.691521 322.643364 389.951093 321.841981 391.019788 322.054762 391.551997 321.104735 391.680538 322.185949 392.749233 322.39873" fill="none" stroke="#000" stroke-linecap="round" stroke-linejoin="round"/><polygon points="400.015133 321.410129 399.025806 321.864927 399.154659 322.94876 398.414231 322.147377 397.425214 322.604792 397.957423 321.654763 397.216995 320.85338 398.285689 321.066161 398.817898 320.116134 398.94644 321.197348 400.015133 321.410129" fill="none" stroke="#000" stroke-linecap="round" stroke-linejoin="round"/><polygon points="405.426495 316.524173 404.437478 316.981588 404.566019 318.062802 403.825903 317.264038 402.836886 317.721452 403.368783 316.768807 402.628667 315.970041 403.697361 316.182821 404.229258 315.230176 404.358112 316.314009 405.426495 316.524173" fill="none" stroke="#000" stroke-linecap="round" stroke-linejoin="round"/><polygon points="382.957568 312.30316 381.968551 312.760575 382.51073 313.792613 382.097093 313.841789 381.356976 313.043025 380.781596 313.451264 380.367959 313.500439 380.899856 312.547794 380.159739 311.749028 380.573377 311.699852 381.228434 311.961809 381.760332 311.009163 382.173969 310.959987 381.889185 312.092996 382.957568 312.30316" fill="none" stroke="#000" stroke-linecap="round" stroke-linejoin="round"/><polygon points="383.507338 312.2378 382.518321 312.695215 382.646862 313.776429 381.906746 312.977664 380.917729 313.435079 381.449626 312.482434 380.709509 311.683667 381.778204 311.896449 382.310101 310.943803 382.438955 312.027636 383.507338 312.2378" fill="none" stroke="#000" stroke-linecap="round" stroke-linejoin="round"/><polygon points="406.417052 309.514144 405.428035 309.971559 405.970213 311.003597 405.556576 311.052773 404.81646 310.254008 404.241079 310.662247 403.827442 310.711423 404.35934 309.758778 403.619223 308.960011 404.03286 308.910836 404.687918 309.172793 405.219815 308.220147 405.633452 308.170971 405.348669 309.30398 406.417052 309.514144" fill="none" stroke="#000" stroke-linecap="round" stroke-linejoin="round"/><polygon points="406.830688 309.464968 405.841671 309.922383 405.970213 311.003597 405.230096 310.204832 404.241079 310.662247 404.772977 309.709602 404.03286 308.910836 405.101555 309.123617 405.633452 308.170971 405.762305 309.254804 406.830688 309.464968" fill="none" stroke="#000" stroke-linecap="round" stroke-linejoin="round"/><polygon points="384.859338 305.320201 383.790955 305.110039 383.662102 304.026205 383.130204 304.978851 382.06151 304.76607 382.801627 305.564835 382.269729 306.517482 383.258746 306.060066 383.998863 306.858831 383.870321 305.777617 384.859338 305.320201" fill="none" stroke="#000" stroke-linecap="round" stroke-linejoin="round"/><polygon points="390.106188 300.167067 389.037805 299.956904 388.908951 298.873071 388.377054 299.825717 387.308359 299.612936 388.048476 300.411701 387.516578 301.364347 388.505596 300.906932 389.245713 301.705697 389.117171 300.624482 390.106188 300.167067" fill="none" stroke="#000" stroke-linecap="round" stroke-linejoin="round"/><polygon points="397.401345 299.424554 396.332963 299.214391 396.20411 298.130558 395.672212 299.083204 394.603517 298.870423 395.343634 299.669188 394.811737 300.621834 395.800754 300.164419 396.540871 300.963184 396.412329 299.881969 397.401345 299.424554" fill="none" stroke="#000" stroke-linecap="round" stroke-linejoin="round"/><polygon points="403.807428 302.905577 402.738733 302.692796 402.610191 301.611581 402.077982 302.561608 401.009288 302.348827 401.749716 303.150211 401.217507 304.100239 402.206524 303.642823 402.946952 304.444207 402.818099 303.360374 403.807428 302.905577" fill="none" stroke="#000" stroke-linecap="round" stroke-linejoin="round"/><path d="M398.14319,318.773291c.091628-.010893-1.941511-16.330796-1.941511-16.330796l-.457246-.094318-.751352.089326c-.136134.016184-.233015.13921-.216831.275344l.964531,8.113039h0l.951459,8.003085c.016184.136133.13921.233016.275344.216832l.730409-.086836.445197-.185676Z" fill="none" stroke="#000" stroke-linecap="round" stroke-linejoin="round"/><path d="M388.381024,319.957775l-1.93622-16.28629-.676627-1.02402-.702674.096813c-.07561.011644-.13097.081944-.121633.160483l2.145373,18.045556c.009026.075921.077021.134211.155869.127493l.692696-.069077.443216-1.050958Z" fill="none" stroke="#000" stroke-linecap="round" stroke-linejoin="round"/><path d="M388.898463,306.042699l-.111424-.937227c-.018363-.154459.453637-.338012.608095-.356375l.224841,1.489249c-.154458.018362-.703461-.043807-.721513-.195648Z" fill="none" stroke="#000" stroke-linecap="round" stroke-linejoin="round"/><path d="M393.991703,305.788996l-.187677-1.578626c-.014006-.117808.052394-.229245.16092-.276662l1.014228-.245361.274824,2.311654-1.041306.017599c-.116307-.018032-.206984-.110795-.220989-.228603Z" fill="none" stroke="#000" stroke-linecap="round" stroke-linejoin="round"/><path d="M388.43722,304.820501l.187677,1.578626c.014006.117808-.031596.359521-.140434.404319,0,0-.490492.050348-.68422.07338s-.344435-.0387-.365288-.214103l-.216311-1.819478c-.020853-.175402.126887-.272616.304908-.29378s.677115-.088464.677115-.088464c.11662.020651.222547.241693.236553.359501Z" fill="none" stroke="#000" stroke-linecap="round" stroke-linejoin="round"/><path d="M390.345726,318.216183l-.111424-.937228c-.018363-.154458.453637-.338012.608095-.356375l.224841,1.489249c-.154458.018365-.703149-.041186-.721512-.195647Z" fill="none" stroke="#000" stroke-linecap="round" stroke-linejoin="round"/><path d="M395.438966,317.788996l-.187677-1.578626c-.014006-.117807.052394-.229244.16092-.276662l1.014228-.245361.274824,2.311654-1.041306.017599c-.116307-.018031-.206984-.110794-.220989-.228603Z" fill="none" stroke="#000" stroke-linecap="round" stroke-linejoin="round"/><path d="M389.884483,316.993986l.187677,1.578626c.014006.117807-.031596.35952-.140434.404319,0,0-.490492.050348-.68422.07338s-.344435-.038701-.365288-.214103l-.216311-1.819477c-.020853-.175402.126887-.272616.304908-.29378s.677115-.088464.677115-.088464c.11662.020649.222547.241693.236552.3595Z" fill="none" stroke="#000" stroke-linecap="round" stroke-linejoin="round"/><path d="M389.863305,314.158355l-.111424-.937228c-.018363-.154458.453637-.338012.608095-.356375l.224841,1.489249c-.154458.018365-.703149-.041186-.721512-.195647Z" fill="none" stroke="#000" stroke-linecap="round" stroke-linejoin="round"/><path d="M394.956545,313.788996l-.187677-1.578626c-.014006-.117807.052394-.229244.16092-.276662l1.014228-.245361.274824,2.311654-1.041306.017599c-.116307-.018031-.206984-.110794-.220989-.228603Z" fill="none" stroke="#000" stroke-linecap="round" stroke-linejoin="round"/><path d="M389.402062,312.936157l.187677,1.578626c.014006.117807-.031596.35952-.140434.404319,0,0-.490492.050348-.68422.07338s-.344435-.038701-.365288-.214103l-.216311-1.819477c-.020853-.175402.126887-.272616.304908-.29378s.677115-.088464.677115-.088464c.11662.020649.222547.241693.236552.3595Z" fill="none" stroke="#000" stroke-linecap="round" stroke-linejoin="round"/><path d="M389.380884,310.100528l-.111424-.937227c-.018363-.154459.453637-.338012.608095-.356375l.224841,1.489249c-.154458.018362-.703149-.041188-.721513-.195648Z" fill="none" stroke="#000" stroke-linecap="round" stroke-linejoin="round"/><path d="M394.474124,309.788996l-.187677-1.578626c-.014006-.117808.052394-.229245.16092-.276662l1.014228-.245361.274824,2.311654-1.041306.017599c-.116307-.018032-.206984-.110795-.220989-.228603Z" fill="none" stroke="#000" stroke-linecap="round" stroke-linejoin="round"/><path d="M388.919641,308.878329l.187677,1.578626c.014006.117808-.031596.359521-.140434.404319,0,0-.490492.050348-.68422.07338s-.344435-.0387-.365288-.214103l-.216311-1.819478c-.020853-.175402.126887-.272616.304908-.29378s.677115-.088464.677115-.088464c.11662.020651.222547.241693.236553.359501Z" fill="none" stroke="#000" stroke-linecap="round" stroke-linejoin="round"/><path d="M398.858807,318.807686c.091628-.010893.172419-.068288.205902-.143951l3.663334-8.713674-5.600232-7.622981c-.05646-.072936-.148766-.112407-.240395-.101514l-1.145602.122922c-.143987.017118-.24779.148932-.230671.292919l1.911944,16.08209c.017118.143988.148932.24779.292919.230671l1.142801-.146484Z" fill="none" stroke="#000" stroke-linecap="round" stroke-linejoin="round"/><polygon points="398.926643 316.720791 401.726741 310.058483 397.442654 304.238388 398.926643 316.720791" fill="none" stroke="#000" stroke-linecap="round" stroke-linejoin="round"/><polygon points="399.085649 314.373492 400.85758 310.161814 398.147573 306.482979 399.085649 314.373492" fill="none" stroke="#000" stroke-linecap="round" stroke-linejoin="round"/><path d="M389.232315,319.346817l-1.829465-15.388332c-.018052-.151842-.100619-.288048-.225329-.376765l-1.306438-.917285c-.089871-.063655-.211305.009192-.198232.119146l2.153154,18.111003c.012761.107337.147887.14968.220642.069347l1.054646-1.200639c.100745-.112867.148764-.267253.131024-.416476Z" fill="none" stroke="#000" stroke-linecap="round" stroke-linejoin="round"/><path d="M390.819575,318.159849l-.111424-.937228c-.018363-.154458.09236-.295061.246818-.313424l4.183491-.497361c.154459-.018363.295061.09236.313424.246818l.111424.937228c.018363.154458-.092359.29506-.246818.313424l-4.186108.497672c-.15446.018363-.292444-.092669-.310807-.247129Z" fill="none" stroke="#000" stroke-linecap="round" stroke-linejoin="round"/><path d="M395.913127,317.880855l-.187677-1.578626c-.014006-.117807.052394-.229244.16092-.276662l.401938-.169913c.161635-.069661.344435.038701.365288.214103l.216311,1.819477c.020853.175402-.131756.320984-.304908.29378l-.430572-.070939c-.116618-.020651-.207606-.116031-.221301-.231221Z" fill="none" stroke="#000" stroke-linecap="round" stroke-linejoin="round"/><path d="M390.355715,316.937963l.187677,1.578626c.014006.117807-.052395.229244-.160921.276662l-.401937.169913c-.161635.069661-.344435-.038701-.365288-.214103l-.216311-1.819477c-.020853-.175402.131756-.320984.304908-.29378l.430571.070939c.119237.02034.207607.116031.221302.231221Z" fill="none" stroke="#000" stroke-linecap="round" stroke-linejoin="round"/><path d="M389.372312,305.986365l-.111424-.937227c-.018363-.154459.09236-.295061.246818-.313424l4.183491-.497361c.154459-.018363.29506.092359.313424.246818l.111424.937228c.018363.154459-.092359.29506-.246818.313424l-4.186108.497672c-.154772.015744-.292755-.09529-.310807-.24713Z" fill="none" stroke="#000" stroke-linecap="round" stroke-linejoin="round"/><path d="M394.465552,305.704751l-.187677-1.578626c-.014006-.117808.052394-.229245.16092-.276662l.401938-.169913c.161635-.06966.344435.0387.365288.214103l.216311,1.819478c.020853.175402-.131756.320984-.304908.29378l-.430572-.070939c-.116618-.020651-.207295-.113414-.221301-.231222Z" fill="none" stroke="#000" stroke-linecap="round" stroke-linejoin="round"/><path d="M388.908452,304.764478l.187677,1.578626c.014006.117808-.052395.229245-.160921.276662l-.401937.169913c-.161635.06966-.344435-.0387-.365288-.214103l-.216311-1.819478c-.020853-.175402.131756-.320984.304908-.29378l.430571.070939c.119237.02034.207296.113414.221302.231222Z" fill="none" stroke="#000" stroke-linecap="round" stroke-linejoin="round"/><path d="M389.854733,310.044193l-.111424-.937227c-.018363-.154459.09236-.295061.246818-.313424l4.183491-.497361c.154459-.018363.29506.092359.313424.246818l.111424.937228c.018363.154459-.092359.29506-.246818.313424l-4.186108.497672c-.154772.015744-.292444-.092671-.310807-.24713Z" fill="none" stroke="#000" stroke-linecap="round" stroke-linejoin="round"/><path d="M394.947973,309.76258l-.187677-1.578626c-.014006-.117808.052394-.229245.16092-.276662l.401938-.169913c.161635-.06966.344435.0387.365288.214103l.216311,1.819478c.020853.175402-.131756.320984-.304908.29378l-.430572-.070939c-.116618-.020651-.207295-.113414-.221301-.231222Z" fill="none" stroke="#000" stroke-linecap="round" stroke-linejoin="round"/><path d="M389.390873,308.822306l.187677,1.578626c.014006.117808-.052395.229245-.160921.276662l-.401937.169913c-.161635.06966-.344435-.0387-.365288-.214103l-.216311-1.819478c-.020853-.175402.131756-.320984.304908-.29378l.430571.070939c.119237.02034.207296.113414.221302.231222Z" fill="none" stroke="#000" stroke-linecap="round" stroke-linejoin="round"/><path d="M390.337154,314.102021l-.111424-.937228c-.018363-.154458.09236-.295061.246818-.313424l4.183491-.497361c.154459-.018363.295061.09236.313424.246818l.111424.937228c.018363.154458-.092359.29506-.246818.313424l-4.186108.497672c-.154771.015747-.292444-.092669-.310807-.247129Z" fill="none" stroke="#000" stroke-linecap="round" stroke-linejoin="round"/><path d="M395.430394,313.820408l-.187677-1.578626c-.014006-.117807.052394-.229244.16092-.276662l.401938-.169913c.161635-.069661.344435.038701.365288.214103l.216311,1.819477c.020853.175402-.131756.320984-.304908.29378l-.430572-.070939c-.116618-.020649-.207295-.113412-.221301-.231221Z" fill="none" stroke="#000" stroke-linecap="round" stroke-linejoin="round"/><path d="M389.873294,312.880134l.187677,1.578626c.014006.117807-.052395.229244-.160921.276662l-.401937.169913c-.161635.069661-.344435-.038701-.365288-.214103l-.216311-1.819477c-.020853-.175402.131756-.320984.304908-.29378l.430571.070939c.119237.02034.207607.116031.221302.231221Z" fill="none" stroke="#000" stroke-linecap="round" stroke-linejoin="round"/><g id="uuid-b709dbba-cca8-4ea2-a053-ce672eb86c19"><polygon id="uuid-f5ed818d-037a-4380-895d-3af1819eb510" points="146.476086 296.229084 136.44116 278.928787 106.200421 296.469733 100.110537 300.002131 115.162925 325.952576 121.218029 322.440352 116.200566 313.790203 146.476086 296.229084" fill="#393939"/><rect id="uuid-9d56d90f-b77f-4958-9570-734398e088b6" x="124.120492" y="265.371828" width="39.000008" height="20.000032" transform="translate(-164.754109 312.271741) rotate(-69.279186)" fill="#393939"/><polygon id="uuid-9c489a07-9774-41b6-a9b4-913e009309a8" points="179.819363 284.254123 198.525637 291.330427 186.142085 324.066457 195.495237 327.604614 193.018526 334.15182 164.959072 323.537348 167.450009 316.952535 167.450037 316.952546 179.819363 284.254123" fill="#393939"/><rect id="uuid-5b5bddff-d90b-4d42-bef0-be66ba29cf30" x="172.543056" y="257.103604" width="20.000031" height="39" transform="translate(-89.209013 86.913512) rotate(-21.661345)" fill="#393939"/><polygon id="uuid-87d0b240-b8cc-4bd7-b64d-e8468321cd3b" points="191.666017 227.841776 191.646743 227.963345 191.544997 227.924856 198.432275 189.39076 206.352234 183.27577 191.544719 177.674308 193.43449 187.500172 173.093275 220.944845 172.991528 220.906356 173.057542 220.802467 172.991528 220.906356 173.111141 220.951603 177.786237 236.41761 191.527131 227.918098 191.646743 227.963345 191.666017 227.841776" fill="#565656"/><path id="uuid-a26e3b65-e954-4663-ba22-90383cf3c286" d="M175.922732,162.142318l-35.381576,93.531514,52.377648,19.813683,35.381576-93.531514-52.377648-19.813683ZM184.467618,218.755318l-1.176977-52.756671,36.976723,13.987743-35.799746,38.768929Z" fill="#393939"/><path id="uuid-04d56736-ee7f-499f-902c-611865bf4814" d="M234.972131,159.026474c2.724444-5.017,4.683798-10.826187,5.574309-17.144091,3.074888-21.815399-7.696086-41.36983-24.05765-43.675999-16.361565-2.306168-32.117928,13.509225-35.192817,35.324624-.890511,6.317904-.613206,12.442349.618348,18.016948l53.057809,7.478517Z" fill="#cecece"/><path id="uuid-3a4c2be4-74fa-4c05-a16d-cc3ad77cdf7b" d="M181.155326,156.637622c1.037249,12.269311,7.140679,22.462546,17.066975,26.217516s21.248082.153434,30.146181-8.357484l-47.213156-17.860032Z" fill="#cecece"/><ellipse id="uuid-7fc47b76-44b6-493f-9f94-603052230194" cx="225" cy="145.5" rx="4.512399" ry="2.981181" transform="translate(57.997415 355.036122) rotate(-84.334173)" fill="#333"/><ellipse id="uuid-d1e1d3b9-c854-4c6c-8a1e-c302f1f0ddfa" cx="209" cy="142.5" rx="4.512399" ry="2.981181" transform="translate(46.562379 336.410467) rotate(-84.334173)" fill="#333"/><path id="uuid-d683bc7a-08bd-4951-8d78-6d2fbb6e0247" d="M184.221753,104.630603c10.686544-9.414213,30.094912-6.919158,39.707434-5.683404,12.035903,1.547286,25.915861,5.402704,25.885168,9.07018-.027199,3.249948-10.959704,4.164002-11.451113,9.105091-.357423,3.593836,5.102471,6.364354,4.392004,7.25847-1.50707,1.89665-24.851887-12.109558-30.63549-7.557192-2.598461,2.045283.124269,6.438384-2.570432,7.782196-2.783955,1.388333-6.452921-2.920263-16.014181-6.19162-8.228705-2.815427-12.498514-2.014819-13.856416-4.620438-1.806537-3.466462,3.842049-8.545776,4.543026-9.163284Z" fill="#4a4a4a"/><rect id="uuid-cdcd561a-7401-491e-ac9a-c0e53b3e9fef" x="248.355231" y="167.049598" width="31.912601" height="14.959007" transform="translate(-51.836752 155.261102) rotate(-29.949777)" fill="#393939"/><rect id="uuid-dd967791-d770-493f-9b79-36bd124fe24d" x="220.405461" y="178.824885" width="31.912601" height="14.959007" transform="translate(-41.313008 70.231437) rotate(-15.559996)" fill="#393939"/><rect id="uuid-b6e5eacd-8543-4bc1-8d01-eba8fb4933da" x="147.474762" y="166.474012" width="31.912601" height="14.959007" transform="translate(-43.87839 55.664342) rotate(-17.077632)" fill="#393939"/><rect id="uuid-221b58fa-2eb5-49dd-a814-3c95130f5f53" x="120.427448" y="177.849248" width="31.912601" height="14.959007" transform="translate(-75.964877 96.698429) rotate(-30.995845)" fill="#393939"/><rect id="uuid-d54ac2a2-100f-400f-a23b-ebf382cdc931" x="275.588629" y="155.45642" width="15.956303" height="15.956303" transform="translate(-43.72663 163.392579) rotate(-29.949777)" fill="#cecece"/><rect id="uuid-7c1e0493-5141-431a-b547-91ea13e982d7" x="108.955859" y="189.035262" width="15.956303" height="15.956303" transform="translate(-84.759529 88.350798) rotate(-30.995845)" fill="#cecece"/><polygon id="uuid-5713ad57-d7a3-45d5-8091-ca3792b147d0" points="146.476086 296.229084 136.44116 278.928787 106.200421 296.469733 100.110537 300.002131 115.162925 325.952576 121.218029 322.440352 116.200566 313.790203 146.476086 296.229084" fill="none" stroke="#000" stroke-linecap="round" stroke-linejoin="round"/><rect id="uuid-94f1707a-675b-49b7-bbc9-bb467bcfc5c2" x="124.120492" y="265.371828" width="39.000008" height="20.000032" transform="translate(-164.754109 312.271741) rotate(-69.279186)" fill="none" stroke="#000" stroke-linecap="round" stroke-linejoin="round"/><polygon id="uuid-32d04e65-15a3-4215-be60-b81c76d0280b" points="179.819363 284.254123 198.525637 291.330427 186.142085 324.066457 195.495237 327.604614 193.018526 334.15182 164.959072 323.537348 167.450009 316.952535 167.450037 316.952546 179.819363 284.254123" fill="none" stroke="#000" stroke-linecap="round" stroke-linejoin="round"/><rect id="uuid-65b437c4-37e5-4800-980c-79fb53056ae5" x="172.543056" y="257.103604" width="20.000031" height="39" transform="translate(-89.209013 86.913512) rotate(-21.661345)" fill="none" stroke="#000" stroke-linecap="round" stroke-linejoin="round"/><polygon id="uuid-ad0ef7b1-20f6-45b5-90c6-e7fe428a7dcf" points="191.666017 227.841776 191.646743 227.963345 191.544997 227.924856 198.432275 189.39076 206.352234 183.27577 191.544719 177.674308 193.43449 187.500172 173.093275 220.944845 172.991528 220.906356 173.057542 220.802467 172.991528 220.906356 173.111141 220.951603 177.786237 236.41761 191.527131 227.918098 191.646743 227.963345 191.666017 227.841776" fill="none" stroke="#000" stroke-linecap="round" stroke-linejoin="round"/><path id="uuid-70062203-9299-4398-b673-87b732df784d" d="M175.922732,162.142318l-35.381576,93.531514,52.377648,19.813683,35.381576-93.531514-52.377648-19.813683ZM184.467618,218.755318l-1.176977-52.756671,36.976723,13.987743-35.799746,38.768929Z" fill="none" stroke="#000" stroke-linecap="round" stroke-linejoin="round"/><path id="uuid-57ca4799-aa40-4700-bc0c-7a2d97216d29" d="M234.972131,159.026474c2.724444-5.017,4.683798-10.826187,5.574309-17.144091,3.074888-21.815399-7.696086-41.36983-24.05765-43.675999-16.361565-2.306168-32.117928,13.509225-35.192817,35.324624-.890511,6.317904-.613206,12.442349.618348,18.016948l53.057809,7.478517Z" fill="none" stroke="#000" stroke-linecap="round" stroke-linejoin="round"/><path id="uuid-645dfe78-7166-498c-9256-55566df8030b" d="M181.155326,156.637622c1.037249,12.269311,7.140679,22.462546,17.066975,26.217516s21.248082.153434,30.146181-8.357484l-47.213156-17.860032Z" fill="none" stroke="#000" stroke-linecap="round" stroke-linejoin="round"/><ellipse id="uuid-fd723661-358a-444e-b536-ef710836299b" cx="225" cy="145.5" rx="4.512399" ry="2.981181" transform="translate(57.997415 355.036122) rotate(-84.334173)" fill="none" stroke="#000" stroke-linecap="round" stroke-linejoin="round"/><ellipse id="uuid-259ccfed-25d9-4f3c-a298-a60785d7656c" cx="209" cy="142.5" rx="4.512399" ry="2.981181" transform="translate(46.562379 336.410467) rotate(-84.334173)" fill="none" stroke="#000" stroke-linecap="round" stroke-linejoin="round"/><path id="uuid-e6616243-c35d-4642-a1fd-65a50596a007" d="M184.221753,104.630603c10.686544-9.414213,30.094912-6.919158,39.707434-5.683404,12.035903,1.547286,25.915861,5.402704,25.885168,9.07018-.027199,3.249948-10.959704,4.164002-11.451113,9.105091-.357423,3.593836,5.102471,6.364354,4.392004,7.25847-1.50707,1.89665-24.851887-12.109558-30.63549-7.557192-2.598461,2.045283.124269,6.438384-2.570432,7.782196-2.783955,1.388333-6.452921-2.920263-16.014181-6.19162-8.228705-2.815427-12.498514-2.014819-13.856416-4.620438-1.806537-3.466462,3.842049-8.545776,4.543026-9.163284Z" fill="none" stroke="#000" stroke-linecap="round" stroke-linejoin="round"/><rect id="uuid-cb31a500-193e-4d74-97ba-a6718476f788" x="248.355231" y="167.049598" width="31.912601" height="14.959007" transform="translate(-51.836752 155.261102) rotate(-29.949777)" fill="none" stroke="#000" stroke-linecap="round" stroke-linejoin="round"/><rect id="uuid-ba9fe75c-d582-4fcf-a89e-dbf045c7e906" x="220.405461" y="178.824885" width="31.912601" height="14.959007" transform="translate(-41.313008 70.231437) rotate(-15.559996)" fill="none" stroke="#000" stroke-linecap="round" stroke-linejoin="round"/><rect id="uuid-f8ae3abd-96d8-4a97-b831-b356d681a5db" x="147.474762" y="166.474012" width="31.912601" height="14.959007" transform="translate(-43.87839 55.664342) rotate(-17.077632)" fill="none" stroke="#000" stroke-linecap="round" stroke-linejoin="round"/><rect id="uuid-e64df134-ca95-42bc-8631-d402858127d0" x="120.427448" y="177.849248" width="31.912601" height="14.959007" transform="translate(-75.964877 96.698429) rotate(-30.995845)" fill="none" stroke="#000" stroke-linecap="round" stroke-linejoin="round"/><rect id="uuid-7c090ef6-8662-4d9a-a0d6-5f3ae17f9494" x="275.588629" y="155.45642" width="15.956303" height="15.956303" transform="translate(-43.72663 163.392579) rotate(-29.949777)" fill="none" stroke="#000" stroke-linecap="round" stroke-linejoin="round"/><rect id="uuid-1443daf4-d59c-4f28-8593-0d6fe99e62c6" x="108.955859" y="189.035262" width="15.956303" height="15.956303" transform="translate(-84.759529 88.350798) rotate(-30.995845)" fill="none" stroke="#000" stroke-linecap="round" stroke-linejoin="round"/></g><path d="M114,196h-35v23h35v-23Z" fill="#9a4b21"/><path d="M82,198h0v1h1-1v-1ZM82,216h1v-1h0v1h-1ZM111,216h0v-1h-1,1v1ZM111,200v-2h-1v1h0v1h1ZM85,198v1h2v-1h-2ZM88,198v1h2v-1h-2ZM92,198v1h2v-1h-2ZM95,198v1h2v-1h-2ZM99,198v1h2v-1h-2ZM103,198v1h2v-1h-2ZM106,198v1h2v-1h-2ZM111,201h-1v2h1v-2ZM111,204h-1v2h1v-2ZM111,208h-1v2h1v-2ZM111,211h-1v2h1v-2ZM108,216v-1h-2v1h2ZM105,216v-1h-2v1h2ZM101,216v-1h-2v1h2ZM97,216v-1h-2v1h2ZM94,216v-1h-2v1h2ZM90,216v-1h-2v1h2ZM86,216v-1h-2v1h2ZM82,213h1v-2h-1v2ZM82,210h1v-2h-1v2ZM82,206h1v-2h-1v2ZM82,203h1v-2h-1v2Z" fill="#673216" fill-rule="evenodd"/><path d="M90,203h-14v8h14v-8Z" fill="#673216"/><path d="M85.74359,209.122326c1.076278,0,1.948718-.87244,1.948718-1.948718s-.87244-1.948718-1.948718-1.948718-1.948718.87244-1.948718,1.948718.87244,1.948718,1.948718,1.948718Z" fill="#ffea28"/><path d="M114,196h-35v23h35v-23Z" fill="none" stroke="#000" stroke-linecap="round" stroke-linejoin="round"/><path d="M82,198h0v1h1-1v-1ZM82,216h1v-1h0v1h-1ZM111,216h0v-1h-1,1v1ZM111,200v-2h-1v1h0v1h1ZM85,198v1h2v-1h-2ZM88,198v1h2v-1h-2ZM92,198v1h2v-1h-2ZM95,198v1h2v-1h-2ZM99,198v1h2v-1h-2ZM103,198v1h2v-1h-2ZM106,198v1h2v-1h-2ZM111,201h-1v2h1v-2ZM111,204h-1v2h1v-2ZM111,208h-1v2h1v-2ZM111,211h-1v2h1v-2ZM108,216v-1h-2v1h2ZM105,216v-1h-2v1h2ZM101,216v-1h-2v1h2ZM97,216v-1h-2v1h2ZM94,216v-1h-2v1h2ZM90,216v-1h-2v1h2ZM86,216v-1h-2v1h2ZM82,213h1v-2h-1v2ZM82,210h1v-2h-1v2ZM82,206h1v-2h-1v2ZM82,203h1v-2h-1v2Z" fill="none" stroke="#000" stroke-linecap="round" stroke-linejoin="round"/><path d="M90,203h-14v8h14v-8Z" fill="none" stroke="#000" stroke-linecap="round" stroke-linejoin="round"/><path d="M85.74359,209.122326c1.076278,0,1.948718-.87244,1.948718-1.948718s-.87244-1.948718-1.948718-1.948718-1.948718.87244-1.948718,1.948718.87244,1.948718,1.948718,1.948718Z" fill="none" stroke="#000" stroke-linecap="round" stroke-linejoin="round"/><path d="M273.136949,124.114098c5.251973-.440093,26.277902-2.555524,40.156554-13.179851,6.161616-4.716813,8.791588-9.485621,10.00273-12.697671" fill="none" stroke="#333" stroke-miterlimit="10" stroke-width="2"/><text transform="translate(285.031616 77.508667)" fill="#333" font-family="ComicNeue-Bold, &apos;Comic Neue&apos;" font-size="24" font-weight="700"><tspan x="0" y="0">COME BACK.</tspan></text></svg>