<?xml version="1.0" encoding="UTF-8"?><svg id="uuid-3b85e495-1d0e-4a1d-9c7d-43c3b31391b1" xmlns="http://www.w3.org/2000/svg" viewBox="0 0 500 500"><polygon points="141.65 303 131.16 345 369.53 345 359.05 303 141.65 303" fill="#603813"/><polygon points="146.35 285 354.03 285 343.54 243 156.84 243 146.35 285" fill="#603813"/><polygon points="171.02 187 328.92 187 338.24 224 161.69 224 171.02 187" fill="#603813"/><polygon points="126.04 364 116.72 401 383.09 401 373.77 364 126.04 364" fill="#603813"/><path d="M129.5,187l-54.14,214h41.36l9.33-37h247.73l9.33,37h41.55l-54.2-214h-41.52l9.32,37h-176.55l9.33-37h-41.52ZM156.84,243h186.71l10.49,42h-207.68l10.49-42ZM131.16,345l10.49-42h217.4l10.49,42h-238.37Z" fill="#8c6239"/><polygon points="171.03 187 129.54 187 75.4 401 116.89 401 171.03 187" fill="#9d6e41"/><polygon points="328.91 187 370.4 187 424.6 401 382.92 401 328.91 187" fill="#9d6e41"/><g id="uuid-203e9d35-2b10-42e4-a588-6d38c46d8b81"><polygon id="uuid-3183198e-0306-45d1-9bd6-2959f3ff55da" points="268.14 361.9 282.72 367.04 273.79 392.38 271.99 397.48 250.12 389.77 251.92 384.67 259.21 387.24 268.14 361.9" fill="#eec6a2"/><rect id="uuid-781d4cd1-2767-413c-a7d7-857caa8f567c" x="268.54" y="344.48" width="37.99" height="19.24" transform="translate(-167.09 317.01) rotate(-46.26)"/><polygon id="uuid-a6af1be2-28c1-4715-a22b-b0be1ae99317" points="313.72 373.3 298.25 370.73 293.78 397.59 286.45 396.37 285.64 401.26 308.44 405.05 309.32 399.73 309.32 399.73 313.72 373.3" fill="#eec6a2"/><rect id="uuid-55f82d7f-5745-4cd9-829b-5b356680d44a" x="295.59" y="349.31" width="37.97" height="18.98" transform="translate(-154.64 445.62) rotate(-59.24)"/><path id="uuid-c9350dc8-8657-47fe-af51-de88095c65e5" d="M290,270v78s43,0,43,0v-78s-43,0-43,0Z" fill="#726038"/><rect id="uuid-54a70f51-046b-4333-a23e-da234428b3e6" x="325" y="316" width="8" height="13" fill="#ac935a"/><path id="uuid-8e46181d-65ce-4f1f-8555-a8d7b6e5150b" d="M290.23,257.89c-1.13-4.28-1.55-9.01-1.06-13.93,1.68-16.99,13.37-29.75,26.11-28.49,12.74,1.26,21.72,16.05,20.04,33.05-.49,4.92-1.82,9.48-3.76,13.46l-41.33-4.08Z" fill="#eec6a2"/><path id="uuid-861a1fc3-2db6-40f3-abd3-a031eda969f2" d="M330.81,265c-4.12,8.61-11.34,14.33-19.56,14.33-8.23,0-15.45-5.72-19.56-14.33h39.12Z" fill="#eec6a2"/><ellipse id="uuid-8817a62a-4053-4874-be91-f8ba65fbfad7" cx="296.5" cy="247.5" rx="2.5" ry="3.5" fill="#333"/><ellipse id="uuid-cf7bda09-30d4-4bdd-a3f2-0c2ba86328b2" cx="309.5" cy="249.5" rx="2.5" ry="3.5" fill="#333"/><rect id="uuid-ff786888-9c47-4036-926c-761b472ea1e8" x="271.56" y="276.76" width="24.73" height="11.59" transform="translate(-25.14 537.37) rotate(-84.37)" fill="#726038"/><rect id="uuid-2b888b56-dce9-4510-bb91-c6351b5c99f5" x="334" y="270.19" width="11.59" height="24.73" transform="translate(-21.82 28.53) rotate(-4.66)" fill="#726038"/><rect id="uuid-d8fb3234-1faf-47a2-addc-bcdccb1c16ea" x="336.31" y="285.33" width="24.73" height="11.59" transform="translate(-105.35 305) rotate(-41.61)" fill="#eec6a2"/><rect id="uuid-e7fb0e01-ad4b-46e7-90f3-e7f5d29b2ea2" x="356.4" y="272.59" width="12.37" height="12.37" transform="translate(-93.63 311.12) rotate(-41.61)" fill="#eec6a2"/><circle id="uuid-e698126c-ecdf-4af5-af14-e087739a6bcc" cx="311.5" cy="306.5" r="1.5" fill="#333"/><circle id="uuid-65a9c590-96f5-491c-b910-39471e333104" cx="311.5" cy="299.5" r="1.5" fill="#333"/><circle id="uuid-768b2a1b-0463-4ce5-918d-ea3bde865311" cx="311.5" cy="286.5" r="1.5" fill="#333"/><rect id="uuid-4fa46ec5-92da-43f2-8b1a-fd7354591579" x="290" y="328" width="8" height="13" fill="#ac935a"/><rect id="uuid-70269bcc-582f-4c7f-b265-00cbeaf10685" x="276.05" y="348.43" width="13.21" height="8.47" transform="translate(-168.72 329.81) rotate(-48.39)" fill="#ac935a"/><rect id="uuid-cc2cd401-9164-4c63-a597-802d8746093e" x="305.91" y="354.66" width="8.47" height="13.21" transform="translate(-161.65 297.1) rotate(-41.61)" fill="#ac935a"/><path d="M310,210.6c-.31,0-.55.27-.83.4-8.76,4.26-13.45,6.22-17.5,6.82s-13.26,3.1-13.26,3.1l15.9,3.51,3.91,3.1,8.47-1.68,6.6,1.68s5.98-2.48,5.36,0,2.27,0,2.27,0l6.19,2.48h5.74l1.89-1.2s26.63-17.78-24.75-18.2Z" fill="#999"/><rect id="uuid-c7424b1c-507b-4292-a9ef-eb56ad727326" x="270.53" y="280.29" width="11.59" height="24.73" transform="translate(-125.39 317.71) rotate(-50.21)" fill="#eec6a2"/><rect id="uuid-ccf8a649-6b68-443e-a4de-017de081e14e" x="256.64" y="275.37" width="12.37" height="12.37" transform="translate(-121.72 303.34) rotate(-50.21)" fill="#eec6a2"/></g><g id="uuid-a8a7d481-47d4-45e6-a3c1-825c76b4eb9f"><g id="uuid-429eb972-ce95-4ee5-844c-f61ac083d796"><polygon id="uuid-d8adb356-2778-4911-8609-3a20770c468a" points="142.17 363.09 156.75 368.23 147.82 393.57 146.02 398.67 124.15 390.96 125.95 385.86 133.24 388.43 142.17 363.09" fill="#eec6a2"/><rect id="uuid-00af6d5c-28fe-4fa0-85c2-1a8563a0caec" x="142.57" y="345.66" width="37.99" height="19.24" transform="translate(-206.82 226.37) rotate(-46.26)"/><polygon id="uuid-6d341fc4-639a-415d-b4c4-77ad0ec5c611" points="184.08 375.11 197.91 382.5 185.07 406.52 191.62 410.03 189.29 414.39 168.91 403.5 171.45 398.74 171.45 398.74 184.08 375.11" fill="#eec6a2"/><rect id="uuid-98185c09-d9ca-4301-8390-c58cf6caf9c1" x="174.73" y="353.42" width="37.97" height="18.98" transform="translate(-199.18 484.84) rotate(-79.15)"/><path id="uuid-792e7625-c9d3-48ef-9a6e-6f33f319f202" d="M164,271v78s43,0,43,0v-78s-43,0-43,0Z" fill="#726038"/><rect id="uuid-09f65603-194e-48de-a48e-432857a779e9" x="199" y="317" width="8" height="13" fill="#ac935a"/><path id="uuid-f1bd700d-8ec0-4c92-adea-083ab16648c6" d="M164.84,261.89c-2.09-3.9-3.59-8.41-4.25-13.31-2.3-16.92,6.12-32.03,18.81-33.76,12.69-1.73,24.84,10.59,27.14,27.51.67,4.9.43,9.65-.55,13.96l-41.15,5.59Z" fill="#eec6a2"/><path id="uuid-2b57b78a-8f78-4274-bd0a-d775f0defca6" d="M204.83,266c-4.12,8.61-11.34,14.33-19.56,14.33-8.23,0-15.45-5.72-19.56-14.33h39.12Z" fill="#eec6a2"/><ellipse id="uuid-499a9581-bd54-4f2a-a50b-d908785bd7fd" cx="188.5" cy="250.5" rx="2.49" ry="3.5" transform="translate(-16.66 13.46) rotate(-3.92)" fill="#333"/><ellipse id="uuid-c777ba59-be8e-403e-b959-a2e3f625cb90" cx="200.5" cy="250.5" rx="2.5" ry="3.5" transform="translate(-7.53 6.22) rotate(-1.74)" fill="#333"/><rect id="uuid-ae214e71-2f3c-47d3-8a77-1af92b931856" x="141.22" y="295.86" width="24.73" height="11.59" transform="translate(-181.82 347.37) rotate(-70.78)" fill="#eec6a2"/><rect id="uuid-2c4a3f4a-fddd-44eb-ac4b-272dd53a755d" x="145.59" y="277.95" width="24.73" height="11.59" transform="translate(-139.93 413.08) rotate(-84.37)" fill="#726038"/><rect id="uuid-172ee42e-323a-4af9-bb6b-af10029809f0" x="208.03" y="271.38" width="11.59" height="24.73" transform="translate(-22.33 18.3) rotate(-4.66)" fill="#726038"/><rect id="uuid-353ce1ba-9026-4210-85c9-acf7dd53815c" x="210.33" y="286.52" width="24.73" height="11.59" transform="translate(-137.93 221.64) rotate(-41.61)" fill="#eec6a2"/><rect id="uuid-6e683d59-a36b-4c72-ba25-4e8304a97cb9" x="141.27" y="313.08" width="12.37" height="12.37" transform="translate(-202.56 353.38) rotate(-70.78)" fill="#eec6a2"/><rect id="uuid-bb590a19-ec6a-496b-9922-77f3be742971" x="230.43" y="273.78" width="12.37" height="12.37" transform="translate(-126.21 227.77) rotate(-41.61)" fill="#eec6a2"/><circle id="uuid-6a4b23c8-7678-4085-8a7d-363460d82759" cx="185.5" cy="307.5" r="1.5" fill="#333"/><circle id="uuid-85bf46c0-e060-4028-a389-5f376c711599" cx="185.5" cy="301.5" r="1.5" fill="#333"/><circle id="uuid-de5199a9-b5d6-4865-9c65-ad18c4ce644b" cx="185.5" cy="287.5" r="1.5" fill="#333"/><rect id="uuid-1e511133-ee21-420a-b642-3bd4665cfd14" x="164" y="329" width="8" height="13" fill="#ac935a"/><rect id="uuid-00899ace-a5f0-48b5-8ab2-da87db42bffe" x="150.08" y="349.62" width="13.21" height="8.47" transform="translate(-211.93 236.02) rotate(-48.39)" fill="#ac935a"/><rect id="uuid-2077f3fd-1c9c-416c-ae54-6553642ffdba" x="188.79" y="363.46" width="13.21" height="8.47" transform="translate(-42.04 25.64) rotate(-6.78)" fill="#ac935a"/><path d="M173.24,211.7c-.3.07-.48.39-.71.58-7.54,6.17-11.64,9.16-15.44,10.68s-12.18,6.08-12.18,6.03h16.28l4.52,1.89,7.85-3.89h6.81c0,.4,5.24-3.39,5.21-.84s2.21-.53,2.21-.53l6.59.98,5.59-1.33,1.56-1.6s21.8-23.46-28.29-11.98Z" fill="#999"/></g></g><polygon points="141.65 303 131.16 345 369.53 345 359.05 303 141.65 303" fill="none" stroke="#000" stroke-linecap="round" stroke-linejoin="round"/><polygon points="146.35 285 354.03 285 343.54 243 156.84 243 146.35 285" fill="none" stroke="#000" stroke-linecap="round" stroke-linejoin="round"/><polygon points="171.02 187 328.92 187 338.24 224 161.69 224 171.02 187" fill="none" stroke="#000" stroke-linecap="round" stroke-linejoin="round"/><polygon points="126.04 364 116.72 401 383.09 401 373.77 364 126.04 364" fill="none" stroke="#000" stroke-linecap="round" stroke-linejoin="round"/><path d="M129.5,187l-54.14,214h41.36l9.33-37h247.73l9.33,37h41.55l-54.2-214h-41.52l9.32,37h-176.55l9.33-37h-41.52ZM156.84,243h186.71l10.49,42h-207.68l10.49-42ZM131.16,345l10.49-42h217.4l10.49,42h-238.37Z" fill="none" stroke="#000" stroke-linecap="round" stroke-linejoin="round"/><polygon points="171.03 187 129.54 187 75.4 401 116.89 401 171.03 187" fill="none" stroke="#000" stroke-linecap="round" stroke-linejoin="round"/><polygon points="328.91 187 370.4 187 424.6 401 382.92 401 328.91 187" fill="none" stroke="#000" stroke-linecap="round" stroke-linejoin="round"/><g id="uuid-6660ce17-5957-4249-a3f2-328a5fabf6fd"><polygon id="uuid-18be35c9-acdc-45ca-a3dd-9f3b0380cc42" points="268.14 361.9 282.72 367.04 273.79 392.38 271.99 397.48 250.12 389.77 251.92 384.67 259.21 387.24 268.14 361.9" fill="none" stroke="#000" stroke-linecap="round" stroke-linejoin="round"/><rect id="uuid-e33fc303-6b38-43ff-8447-98f7514e6969" x="268.54" y="344.48" width="37.99" height="19.24" transform="translate(-167.09 317.01) rotate(-46.26)" fill="none" stroke="#000" stroke-linecap="round" stroke-linejoin="round"/><polygon id="uuid-89dd08a6-d28e-47d9-9711-3df6a8aaa003" points="313.72 373.3 298.25 370.73 293.78 397.59 286.45 396.37 285.64 401.26 308.44 405.05 309.32 399.73 309.32 399.73 313.72 373.3" fill="none" stroke="#000" stroke-linecap="round" stroke-linejoin="round"/><rect id="uuid-a683ed71-d49b-45fd-802c-293d62836e78" x="295.59" y="349.31" width="37.97" height="18.98" transform="translate(-154.64 445.62) rotate(-59.24)" fill="none" stroke="#000" stroke-linecap="round" stroke-linejoin="round"/><path id="uuid-36b14ed3-5705-4ebd-a954-614f1eb83fdd" d="M290,270v78s43,0,43,0v-78s-43,0-43,0Z" fill="none" stroke="#000" stroke-linecap="round" stroke-linejoin="round"/><rect id="uuid-35c8ddf9-531a-4386-b24c-c960cef26038" x="325" y="316" width="8" height="13" fill="none" stroke="#000" stroke-linecap="round" stroke-linejoin="round"/><path id="uuid-7526033d-f038-4268-85d1-f94c1eb54e90" d="M290.23,257.89c-1.13-4.28-1.55-9.01-1.06-13.93,1.68-16.99,13.37-29.75,26.11-28.49,12.74,1.26,21.72,16.05,20.04,33.05-.49,4.92-1.82,9.48-3.76,13.46l-41.33-4.08Z" fill="none" stroke="#000" stroke-linecap="round" stroke-linejoin="round"/><path id="uuid-530f8d12-3a8c-49a5-96d6-3cc5a3cad7e7" d="M330.81,265c-4.12,8.61-11.34,14.33-19.56,14.33-8.23,0-15.45-5.72-19.56-14.33h39.12Z" fill="none" stroke="#000" stroke-linecap="round" stroke-linejoin="round"/><ellipse id="uuid-7443a20c-a7c6-4c47-bf78-22897eeca645" cx="296.5" cy="247.5" rx="2.5" ry="3.5" fill="none" stroke="#000" stroke-linecap="round" stroke-linejoin="round"/><ellipse id="uuid-953c22a9-b935-4524-a11e-fc5d1638dc96" cx="309.5" cy="249.5" rx="2.5" ry="3.5" fill="none" stroke="#000" stroke-linecap="round" stroke-linejoin="round"/><rect id="uuid-be781db2-c1c8-427c-b3c3-f39a7e087e12" x="271.56" y="276.76" width="24.73" height="11.59" transform="translate(-25.14 537.37) rotate(-84.37)" fill="none" stroke="#000" stroke-linecap="round" stroke-linejoin="round"/><rect id="uuid-b142f49d-24dc-4a9f-b022-018859ad9bec" x="334" y="270.19" width="11.59" height="24.73" transform="translate(-21.82 28.53) rotate(-4.66)" fill="none" stroke="#000" stroke-linecap="round" stroke-linejoin="round"/><rect id="uuid-91bfca8c-a3cf-4ca3-a07a-49928eadc46a" x="336.31" y="285.33" width="24.73" height="11.59" transform="translate(-105.35 305) rotate(-41.61)" fill="none" stroke="#000" stroke-linecap="round" stroke-linejoin="round"/><rect id="uuid-a85b4555-418d-4b7e-9836-83ec416c2e7d" x="356.4" y="272.59" width="12.37" height="12.37" transform="translate(-93.63 311.12) rotate(-41.61)" fill="none" stroke="#000" stroke-linecap="round" stroke-linejoin="round"/><circle id="uuid-9d751f18-0e74-41f5-9c69-fe2f23ec10da" cx="311.5" cy="306.5" r="1.5" fill="none" stroke="#000" stroke-linecap="round" stroke-linejoin="round"/><circle id="uuid-9ce85ce2-dd3c-4c3b-bd40-acc92e7bf515" cx="311.5" cy="299.5" r="1.5" fill="none" stroke="#000" stroke-linecap="round" stroke-linejoin="round"/><circle id="uuid-b02b6cf5-806a-42af-88b3-c16ebbf00712" cx="311.5" cy="286.5" r="1.5" fill="none" stroke="#000" stroke-linecap="round" stroke-linejoin="round"/><rect id="uuid-d7de2ccc-f2f9-4e7f-a1c3-b319617c6004" x="290" y="328" width="8" height="13" fill="none" stroke="#000" stroke-linecap="round" stroke-linejoin="round"/><rect id="uuid-514849f3-d7a1-420d-a8a3-1d147903c3a5" x="276.05" y="348.43" width="13.21" height="8.47" transform="translate(-168.72 329.81) rotate(-48.39)" fill="none" stroke="#000" stroke-linecap="round" stroke-linejoin="round"/><rect id="uuid-0cbe0dd7-135f-4758-9fe3-0aad288df306" x="305.91" y="354.66" width="8.47" height="13.21" transform="translate(-161.65 297.1) rotate(-41.61)" fill="none" stroke="#000" stroke-linecap="round" stroke-linejoin="round"/><path d="M310,210.6c-.31,0-.55.27-.83.4-8.76,4.26-13.45,6.22-17.5,6.82s-13.26,3.1-13.26,3.1l15.9,3.51,3.91,3.1,8.47-1.68,6.6,1.68s5.98-2.48,5.36,0,2.27,0,2.27,0l6.19,2.48h5.74l1.89-1.2s26.63-17.78-24.75-18.2Z" fill="none" stroke="#000" stroke-linecap="round" stroke-linejoin="round"/><rect id="uuid-656b2738-9b10-4a2d-a308-3d70f60a3854" x="270.53" y="280.29" width="11.59" height="24.73" transform="translate(-125.39 317.71) rotate(-50.21)" fill="none" stroke="#000" stroke-linecap="round" stroke-linejoin="round"/><rect id="uuid-aa8f0808-6ba5-4e28-9ebb-4e2515261e91" x="256.64" y="275.37" width="12.37" height="12.37" transform="translate(-121.72 303.34) rotate(-50.21)" fill="none" stroke="#000" stroke-linecap="round" stroke-linejoin="round"/><polygon id="uuid-6605b0fd-bd6b-4f12-9642-a8bc19eb5e84" points="268.14 361.9 282.72 367.04 273.79 392.38 271.99 397.48 250.12 389.77 251.92 384.67 259.21 387.24 268.14 361.9" fill="none" stroke="#000" stroke-linecap="round" stroke-linejoin="round"/><rect id="uuid-8d9fd0ae-8849-41f6-bca4-e941fe52e30f" x="268.54" y="344.48" width="37.99" height="19.24" transform="translate(-167.09 317.01) rotate(-46.26)" fill="none" stroke="#000" stroke-linecap="round" stroke-linejoin="round"/><polygon id="uuid-17d7ffb7-29e7-441b-80f2-35d0f85978ef" points="313.72 373.3 298.25 370.73 293.78 397.59 286.45 396.37 285.64 401.26 308.44 405.05 309.32 399.73 309.32 399.73 313.72 373.3" fill="none" stroke="#000" stroke-linecap="round" stroke-linejoin="round"/><rect id="uuid-6ddbdf6e-2022-4525-8e3f-6c8b5c4dc19d" x="295.59" y="349.31" width="37.97" height="18.98" transform="translate(-154.64 445.62) rotate(-59.24)" fill="none" stroke="#000" stroke-linecap="round" stroke-linejoin="round"/><path id="uuid-690cf349-da51-49db-afc9-40067471adcc" d="M290,270v78s43,0,43,0v-78s-43,0-43,0Z" fill="none" stroke="#000" stroke-linecap="round" stroke-linejoin="round"/><rect id="uuid-3a8b911a-757c-4ae6-81a5-8d8773954b53" x="325" y="316" width="8" height="13" fill="none" stroke="#000" stroke-linecap="round" stroke-linejoin="round"/><path id="uuid-54660413-f377-49e3-940c-2e4d327a0799" d="M290.23,257.89c-1.13-4.28-1.55-9.01-1.06-13.93,1.68-16.99,13.37-29.75,26.11-28.49,12.74,1.26,21.72,16.05,20.04,33.05-.49,4.92-1.82,9.48-3.76,13.46l-41.33-4.08Z" fill="none" stroke="#000" stroke-linecap="round" stroke-linejoin="round"/><path id="uuid-9d0ea9ca-37e2-4b57-807b-159db26cc4e0" d="M330.81,265c-4.12,8.61-11.34,14.33-19.56,14.33-8.23,0-15.45-5.72-19.56-14.33h39.12Z" fill="none" stroke="#000" stroke-linecap="round" stroke-linejoin="round"/><ellipse id="uuid-c40932fb-d950-4686-b880-d42641769a01" cx="296.5" cy="247.5" rx="2.5" ry="3.5" fill="none" stroke="#000" stroke-linecap="round" stroke-linejoin="round"/><ellipse id="uuid-2c9c57e2-2bac-4482-8c98-db57c5be1aeb" cx="309.5" cy="249.5" rx="2.5" ry="3.5" fill="none" stroke="#000" stroke-linecap="round" stroke-linejoin="round"/><rect id="uuid-447374b6-c137-4cdb-ba24-969162f0445a" x="271.56" y="276.76" width="24.73" height="11.59" transform="translate(-25.14 537.37) rotate(-84.37)" fill="none" stroke="#000" stroke-linecap="round" stroke-linejoin="round"/><rect id="uuid-c52d7b66-7ac9-42bb-8659-2b34e602efea" x="334" y="270.19" width="11.59" height="24.73" transform="translate(-21.82 28.53) rotate(-4.66)" fill="none" stroke="#000" stroke-linecap="round" stroke-linejoin="round"/><rect id="uuid-e74b9234-4257-4981-a073-1331e4a06d83" x="336.31" y="285.33" width="24.73" height="11.59" transform="translate(-105.35 305) rotate(-41.61)" fill="none" stroke="#000" stroke-linecap="round" stroke-linejoin="round"/><rect id="uuid-15b92f2f-a73e-43ac-a9ac-a814bb43a87c" x="356.4" y="272.59" width="12.37" height="12.37" transform="translate(-93.63 311.12) rotate(-41.61)" fill="none" stroke="#000" stroke-linecap="round" stroke-linejoin="round"/><circle id="uuid-86422c9c-1206-454e-a2a2-1bf38d4e0a87" cx="311.5" cy="306.5" r="1.5" fill="none" stroke="#000" stroke-linecap="round" stroke-linejoin="round"/><circle id="uuid-e0cec57e-3dbe-4bee-9b6d-1e04055ca71e" cx="311.5" cy="299.5" r="1.5" fill="none" stroke="#000" stroke-linecap="round" stroke-linejoin="round"/><circle id="uuid-43c30986-90b0-45c6-8f96-077e6c270171" cx="311.5" cy="286.5" r="1.5" fill="none" stroke="#000" stroke-linecap="round" stroke-linejoin="round"/><rect id="uuid-98ef964a-24d1-4ced-a102-6cb304776548" x="290" y="328" width="8" height="13" fill="none" stroke="#000" stroke-linecap="round" stroke-linejoin="round"/><rect id="uuid-593eda14-657c-4645-8cf9-3ae8c0580708" x="276.05" y="348.43" width="13.21" height="8.47" transform="translate(-168.72 329.81) rotate(-48.39)" fill="none" stroke="#000" stroke-linecap="round" stroke-linejoin="round"/><rect id="uuid-e0d21eae-2612-4458-b7bb-bf32dccd8d6c" x="305.91" y="354.66" width="8.47" height="13.21" transform="translate(-161.65 297.1) rotate(-41.61)" fill="none" stroke="#000" stroke-linecap="round" stroke-linejoin="round"/><path d="M310,210.6c-.31,0-.55.27-.83.4-8.76,4.26-13.45,6.22-17.5,6.82s-13.26,3.1-13.26,3.1l15.9,3.51,3.91,3.1,8.47-1.68,6.6,1.68s5.98-2.48,5.36,0,2.27,0,2.27,0l6.19,2.48h5.74l1.89-1.2s26.63-17.78-24.75-18.2Z" fill="none" stroke="#000" stroke-linecap="round" stroke-linejoin="round"/><rect id="uuid-ad8d46c7-146b-4994-b3a1-1b95012e41c2" x="270.53" y="280.29" width="11.59" height="24.73" transform="translate(-125.39 317.71) rotate(-50.21)" fill="none" stroke="#000" stroke-linecap="round" stroke-linejoin="round"/><rect id="uuid-86526f1e-1e10-4c8d-a6bc-d0bfccb6307b" x="256.64" y="275.37" width="12.37" height="12.37" transform="translate(-121.72 303.34) rotate(-50.21)" fill="none" stroke="#000" stroke-linecap="round" stroke-linejoin="round"/></g><g id="uuid-6a649ebe-a5b3-4f08-a75b-9fde256499b3"><g id="uuid-57bd97e1-4ace-4d25-8767-59e8815cec06"><polygon id="uuid-ce2a61a6-37ec-4446-83c5-80d8160a41b4" points="142.17 363.09 156.75 368.23 147.82 393.57 146.02 398.67 124.15 390.96 125.95 385.86 133.24 388.43 142.17 363.09" fill="none" stroke="#000" stroke-linecap="round" stroke-linejoin="round"/><rect id="uuid-8c89be1b-f038-4eef-9d7d-932ff441f6c1" x="142.57" y="345.66" width="37.99" height="19.24" transform="translate(-206.82 226.37) rotate(-46.26)" fill="none" stroke="#000" stroke-linecap="round" stroke-linejoin="round"/><polygon id="uuid-874ed074-3d0c-442c-abba-c08dd9c8dacd" points="184.08 375.11 197.91 382.5 185.07 406.52 191.62 410.03 189.29 414.39 168.91 403.5 171.45 398.74 171.45 398.74 184.08 375.11" fill="none" stroke="#000" stroke-linecap="round" stroke-linejoin="round"/><rect id="uuid-033d7f54-85e8-4c27-9c96-c19b3695cdf0" x="174.73" y="353.42" width="37.97" height="18.98" transform="translate(-199.18 484.84) rotate(-79.15)" fill="none" stroke="#000" stroke-linecap="round" stroke-linejoin="round"/><path id="uuid-e29e8542-70c1-4ab1-9221-9ada3ae28858" d="M164,271v78s43,0,43,0v-78s-43,0-43,0Z" fill="none" stroke="#000" stroke-linecap="round" stroke-linejoin="round"/><rect id="uuid-f29a4491-d26e-40f8-8314-4daa43e128dc" x="199" y="317" width="8" height="13" fill="none" stroke="#000" stroke-linecap="round" stroke-linejoin="round"/><path id="uuid-b8b109ca-a26b-4f8f-a8f1-e5e04c221630" d="M164.84,261.89c-2.09-3.9-3.59-8.41-4.25-13.31-2.3-16.92,6.12-32.03,18.81-33.76,12.69-1.73,24.84,10.59,27.14,27.51.67,4.9.43,9.65-.55,13.96l-41.15,5.59Z" fill="none" stroke="#000" stroke-linecap="round" stroke-linejoin="round"/><path id="uuid-2fd39a8f-1d9a-473a-9ad2-85f28f340106" d="M204.83,266c-4.12,8.61-11.34,14.33-19.56,14.33-8.23,0-15.45-5.72-19.56-14.33h39.12Z" fill="none" stroke="#000" stroke-linecap="round" stroke-linejoin="round"/><ellipse id="uuid-037ac1f2-d7f9-4f91-a950-6d719a67c849" cx="188.5" cy="250.5" rx="2.49" ry="3.5" transform="translate(-16.66 13.46) rotate(-3.92)" fill="none" stroke="#000" stroke-linecap="round" stroke-linejoin="round"/><ellipse id="uuid-b6962f2d-3af3-4962-8599-e7e5e8f45eaa" cx="200.5" cy="250.5" rx="2.5" ry="3.5" transform="translate(-7.53 6.22) rotate(-1.74)" fill="none" stroke="#000" stroke-linecap="round" stroke-linejoin="round"/><rect id="uuid-6c40791b-c9ea-48ca-b305-ea3932984bec" x="141.22" y="295.86" width="24.73" height="11.59" transform="translate(-181.82 347.37) rotate(-70.78)" fill="none" stroke="#000" stroke-linecap="round" stroke-linejoin="round"/><rect id="uuid-0d3526c8-b53a-47ca-a411-489de7a1eb5b" x="145.59" y="277.95" width="24.73" height="11.59" transform="translate(-139.93 413.08) rotate(-84.37)" fill="none" stroke="#000" stroke-linecap="round" stroke-linejoin="round"/><rect id="uuid-3e068cf1-1291-4b77-ab14-5fd081810e64" x="208.03" y="271.38" width="11.59" height="24.73" transform="translate(-22.33 18.3) rotate(-4.66)" fill="none" stroke="#000" stroke-linecap="round" stroke-linejoin="round"/><rect id="uuid-46a16ae3-0769-4de2-911b-ea866542634c" x="210.33" y="286.52" width="24.73" height="11.59" transform="translate(-137.93 221.64) rotate(-41.61)" fill="none" stroke="#000" stroke-linecap="round" stroke-linejoin="round"/><rect id="uuid-aec46943-dfed-4afb-9b03-92dbaff1c671" x="141.27" y="313.08" width="12.37" height="12.37" transform="translate(-202.56 353.38) rotate(-70.78)" fill="none" stroke="#000" stroke-linecap="round" stroke-linejoin="round"/><rect id="uuid-18a28e26-0192-4e7a-bdf5-55b45f008c8b" x="230.43" y="273.78" width="12.37" height="12.37" transform="translate(-126.21 227.77) rotate(-41.61)" fill="none" stroke="#000" stroke-linecap="round" stroke-linejoin="round"/><circle id="uuid-e48f8fc3-a3a2-49bc-b3fb-f85329af769d" cx="185.5" cy="307.5" r="1.5" fill="none" stroke="#000" stroke-linecap="round" stroke-linejoin="round"/><circle id="uuid-a66fb478-e3fa-44cc-a718-f070f89242f5" cx="185.5" cy="301.5" r="1.5" fill="none" stroke="#000" stroke-linecap="round" stroke-linejoin="round"/><circle id="uuid-edc25695-2422-4e16-9dd2-97988b5d80bd" cx="185.5" cy="287.5" r="1.5" fill="none" stroke="#000" stroke-linecap="round" stroke-linejoin="round"/><rect id="uuid-de7220d2-9f1b-4bb1-b902-3ea673bcba24" x="164" y="329" width="8" height="13" fill="none" stroke="#000" stroke-linecap="round" stroke-linejoin="round"/><rect id="uuid-dec28b7e-0a7d-47b7-b946-493570181742" x="150.08" y="349.62" width="13.21" height="8.47" transform="translate(-211.93 236.02) rotate(-48.39)" fill="none" stroke="#000" stroke-linecap="round" stroke-linejoin="round"/><rect id="uuid-5606b9fc-6a5e-4ea5-a3c9-1013321ee3cf" x="188.79" y="363.46" width="13.21" height="8.47" transform="translate(-42.04 25.64) rotate(-6.78)" fill="none" stroke="#000" stroke-linecap="round" stroke-linejoin="round"/><path d="M173.24,211.7c-.3.07-.48.39-.71.58-7.54,6.17-11.64,9.16-15.44,10.68s-12.18,6.08-12.18,6.03h16.28l4.52,1.89,7.85-3.89h6.81c0,.4,5.24-3.39,5.21-.84s2.21-.53,2.21-.53l6.59.98,5.59-1.33,1.56-1.6s21.8-23.46-28.29-11.98Z" fill="none" stroke="#000" stroke-linecap="round" stroke-linejoin="round"/><polygon id="uuid-617e280c-156a-4d9e-8395-f648203e0d7e" points="142.17 363.09 156.75 368.23 147.82 393.57 146.02 398.67 124.15 390.96 125.95 385.86 133.24 388.43 142.17 363.09" fill="none" stroke="#000" stroke-linecap="round" stroke-linejoin="round"/><rect id="uuid-9510bfbf-4968-4493-9a38-194e218bbc73" x="142.57" y="345.66" width="37.99" height="19.24" transform="translate(-206.82 226.37) rotate(-46.26)" fill="none" stroke="#000" stroke-linecap="round" stroke-linejoin="round"/><polygon id="uuid-00a3bd27-5722-406f-9cda-fbade020d97b" points="184.08 375.11 197.91 382.5 185.07 406.52 191.62 410.03 189.29 414.39 168.91 403.5 171.45 398.74 171.45 398.74 184.08 375.11" fill="none" stroke="#000" stroke-linecap="round" stroke-linejoin="round"/><rect id="uuid-5e4fe750-700d-448c-a541-281b5b18c533" x="174.73" y="353.42" width="37.97" height="18.98" transform="translate(-199.18 484.84) rotate(-79.15)" fill="none" stroke="#000" stroke-linecap="round" stroke-linejoin="round"/><path id="uuid-3008c075-c76e-461b-b2eb-fecc0b1c1eb8" d="M164,271v78s43,0,43,0v-78s-43,0-43,0Z" fill="none" stroke="#000" stroke-linecap="round" stroke-linejoin="round"/><rect id="uuid-565504c2-5618-4f0b-89aa-145d4f77a23b" x="199" y="317" width="8" height="13" fill="none" stroke="#000" stroke-linecap="round" stroke-linejoin="round"/><path id="uuid-2389a4be-440b-4edc-bdc4-ed4a356d3c8b" d="M164.84,261.89c-2.09-3.9-3.59-8.41-4.25-13.31-2.3-16.92,6.12-32.03,18.81-33.76,12.69-1.73,24.84,10.59,27.14,27.51.67,4.9.43,9.65-.55,13.96l-41.15,5.59Z" fill="none" stroke="#000" stroke-linecap="round" stroke-linejoin="round"/><path id="uuid-d8357c1e-cf8c-47d1-b496-186a8088dee0" d="M204.83,266c-4.12,8.61-11.34,14.33-19.56,14.33-8.23,0-15.45-5.72-19.56-14.33h39.12Z" fill="none" stroke="#000" stroke-linecap="round" stroke-linejoin="round"/><ellipse id="uuid-94a2936e-0c83-4304-b5c5-5fe3f907ef74" cx="188.5" cy="250.5" rx="2.49" ry="3.5" transform="translate(-16.66 13.46) rotate(-3.92)" fill="none" stroke="#000" stroke-linecap="round" stroke-linejoin="round"/><ellipse id="uuid-8ccd3845-e929-487e-9529-915f44558c51" cx="200.5" cy="250.5" rx="2.5" ry="3.5" transform="translate(-7.53 6.22) rotate(-1.74)" fill="none" stroke="#000" stroke-linecap="round" stroke-linejoin="round"/><rect id="uuid-fbfebd33-b14b-4fbb-9578-590ff7bee3b2" x="141.22" y="295.86" width="24.73" height="11.59" transform="translate(-181.82 347.37) rotate(-70.78)" fill="none" stroke="#000" stroke-linecap="round" stroke-linejoin="round"/><rect id="uuid-42687564-9b5d-49e4-9a34-1276ce5c1b96" x="145.59" y="277.95" width="24.73" height="11.59" transform="translate(-139.93 413.08) rotate(-84.37)" fill="none" stroke="#000" stroke-linecap="round" stroke-linejoin="round"/><rect id="uuid-04267345-d83c-4d63-8acd-fcfe3bfd54ca" x="208.03" y="271.38" width="11.59" height="24.73" transform="translate(-22.33 18.3) rotate(-4.66)" fill="none" stroke="#000" stroke-linecap="round" stroke-linejoin="round"/><rect id="uuid-1c0023e9-e89e-42fd-b7c8-eea40543826f" x="210.33" y="286.52" width="24.73" height="11.59" transform="translate(-137.93 221.64) rotate(-41.61)" fill="none" stroke="#000" stroke-linecap="round" stroke-linejoin="round"/><rect id="uuid-93ad79ce-4501-4799-a213-2fe301d265cc" x="141.27" y="313.08" width="12.37" height="12.37" transform="translate(-202.56 353.38) rotate(-70.78)" fill="none" stroke="#000" stroke-linecap="round" stroke-linejoin="round"/><rect id="uuid-bc1f5ab8-45b4-4019-8b2e-6d85bf0daa24" x="230.43" y="273.78" width="12.37" height="12.37" transform="translate(-126.21 227.77) rotate(-41.61)" fill="none" stroke="#000" stroke-linecap="round" stroke-linejoin="round"/><circle id="uuid-8ab3a006-bd8e-4b7c-a143-017bf73bf9be" cx="185.5" cy="307.5" r="1.5" fill="none" stroke="#000" stroke-linecap="round" stroke-linejoin="round"/><circle id="uuid-6ef24fa5-df93-478d-b458-c2f431daef9e" cx="185.5" cy="301.5" r="1.5" fill="none" stroke="#000" stroke-linecap="round" stroke-linejoin="round"/><circle id="uuid-35b4f3bd-2470-4552-9f74-1583028292ec" cx="185.5" cy="287.5" r="1.5" fill="none" stroke="#000" stroke-linecap="round" stroke-linejoin="round"/><rect id="uuid-53bf4384-73a5-4581-a566-9944991738f9" x="164" y="329" width="8" height="13" fill="none" stroke="#000" stroke-linecap="round" stroke-linejoin="round"/><rect id="uuid-73e69b4d-2b0a-4f43-bca4-17cf6a9635b7" x="150.08" y="349.62" width="13.21" height="8.47" transform="translate(-211.93 236.02) rotate(-48.39)" fill="none" stroke="#000" stroke-linecap="round" stroke-linejoin="round"/><rect id="uuid-33e5f032-3c6f-459d-9ad6-7fe2be693b10" x="188.79" y="363.46" width="13.21" height="8.47" transform="translate(-42.04 25.64) rotate(-6.78)" fill="none" stroke="#000" stroke-linecap="round" stroke-linejoin="round"/><path d="M173.24,211.7c-.3.07-.48.39-.71.58-7.54,6.17-11.64,9.16-15.44,10.68s-12.18,6.08-12.18,6.03h16.28l4.52,1.89,7.85-3.89h6.81c0,.4,5.24-3.39,5.21-.84s2.21-.53,2.21-.53l6.59.98,5.59-1.33,1.56-1.6s21.8-23.46-28.29-11.98Z" fill="none" stroke="#000" stroke-linecap="round" stroke-linejoin="round"/></g><g id="uuid-bbd36d4b-308d-4a95-a37f-174dea1165e8"><polygon id="uuid-0152fb0d-10cb-49e8-9b90-2fdef4d831c0" points="142.17 363.09 156.75 368.23 147.82 393.57 146.02 398.67 124.15 390.96 125.95 385.86 133.24 388.43 142.17 363.09" fill="none" stroke="#000" stroke-linecap="round" stroke-linejoin="round"/><rect id="uuid-cffe37d9-562b-4664-9c19-37e2f3c19b88" x="142.57" y="345.66" width="37.99" height="19.24" transform="translate(-206.82 226.37) rotate(-46.26)" fill="none" stroke="#000" stroke-linecap="round" stroke-linejoin="round"/><polygon id="uuid-155e1132-b9b3-411c-9360-273e468953f0" points="184.08 375.11 197.91 382.5 185.07 406.52 191.62 410.03 189.29 414.39 168.91 403.5 171.45 398.74 171.45 398.74 184.08 375.11" fill="none" stroke="#000" stroke-linecap="round" stroke-linejoin="round"/><rect id="uuid-989094df-08ec-4c7a-a2b9-c3b2683b8ca9" x="174.73" y="353.42" width="37.97" height="18.98" transform="translate(-199.18 484.84) rotate(-79.15)" fill="none" stroke="#000" stroke-linecap="round" stroke-linejoin="round"/><path id="uuid-9774348e-92b1-4a80-b888-93c5d0e80557" d="M164,271v78s43,0,43,0v-78s-43,0-43,0Z" fill="none" stroke="#000" stroke-linecap="round" stroke-linejoin="round"/><rect id="uuid-83193a95-1a30-421b-8ac3-fc8b8d3dc657" x="199" y="317" width="8" height="13" fill="none" stroke="#000" stroke-linecap="round" stroke-linejoin="round"/><path id="uuid-db32001d-fb9d-4fe9-895a-0d7eeeb43b96" d="M164.84,261.89c-2.09-3.9-3.59-8.41-4.25-13.31-2.3-16.92,6.12-32.03,18.81-33.76,12.69-1.73,24.84,10.59,27.14,27.51.67,4.9.43,9.65-.55,13.96l-41.15,5.59Z" fill="none" stroke="#000" stroke-linecap="round" stroke-linejoin="round"/><path id="uuid-7fd36184-5b4f-45f8-be6b-dcda11e2cfe6" d="M204.83,266c-4.12,8.61-11.34,14.33-19.56,14.33-8.23,0-15.45-5.72-19.56-14.33h39.12Z" fill="none" stroke="#000" stroke-linecap="round" stroke-linejoin="round"/><ellipse id="uuid-766d277b-b24d-4786-a410-66f510a3949a" cx="188.5" cy="250.5" rx="2.49" ry="3.5" transform="translate(-16.66 13.46) rotate(-3.92)" fill="none" stroke="#000" stroke-linecap="round" stroke-linejoin="round"/><ellipse id="uuid-b9e0b599-159f-44ec-9544-a294aed53fc8" cx="200.5" cy="250.5" rx="2.5" ry="3.5" transform="translate(-7.53 6.22) rotate(-1.74)" fill="none" stroke="#000" stroke-linecap="round" stroke-linejoin="round"/><rect id="uuid-5b358d68-a411-4800-ace3-0be7f05c1fa4" x="141.22" y="295.86" width="24.73" height="11.59" transform="translate(-181.82 347.37) rotate(-70.78)" fill="none" stroke="#000" stroke-linecap="round" stroke-linejoin="round"/><rect id="uuid-76b8044a-87f9-4445-9e79-942cd81b8955" x="145.59" y="277.95" width="24.73" height="11.59" transform="translate(-139.93 413.08) rotate(-84.37)" fill="none" stroke="#000" stroke-linecap="round" stroke-linejoin="round"/><rect id="uuid-9a7c0082-89a5-467e-b6a1-833b5ad8edff" x="208.03" y="271.38" width="11.59" height="24.73" transform="translate(-22.33 18.3) rotate(-4.66)" fill="none" stroke="#000" stroke-linecap="round" stroke-linejoin="round"/><rect id="uuid-da7916e0-cc2e-4157-8a23-bff5cd73c497" x="210.33" y="286.52" width="24.73" height="11.59" transform="translate(-137.93 221.64) rotate(-41.61)" fill="none" stroke="#000" stroke-linecap="round" stroke-linejoin="round"/><rect id="uuid-c29b74c9-a6f9-442f-bb0e-c55c866be1f2" x="141.27" y="313.08" width="12.37" height="12.37" transform="translate(-202.56 353.38) rotate(-70.78)" fill="none" stroke="#000" stroke-linecap="round" stroke-linejoin="round"/><rect id="uuid-ffa6dc9d-863b-4596-9365-b6cf4bc3c8a7" x="230.43" y="273.78" width="12.37" height="12.37" transform="translate(-126.21 227.77) rotate(-41.61)" fill="none" stroke="#000" stroke-linecap="round" stroke-linejoin="round"/><circle id="uuid-b2e24a55-d7c5-4b4d-aab7-3b9b4d63f882" cx="185.5" cy="307.5" r="1.5" fill="none" stroke="#000" stroke-linecap="round" stroke-linejoin="round"/><circle id="uuid-f963ef6c-8b6d-485c-a39d-f5e438275135" cx="185.5" cy="301.5" r="1.5" fill="none" stroke="#000" stroke-linecap="round" stroke-linejoin="round"/><circle id="uuid-e0c1ff66-ae9b-4e4d-9ddf-396cf29da98e" cx="185.5" cy="287.5" r="1.5" fill="none" stroke="#000" stroke-linecap="round" stroke-linejoin="round"/><rect id="uuid-5b14b157-8d0a-40c1-86c3-23c2d5c065b6" x="164" y="329" width="8" height="13" fill="none" stroke="#000" stroke-linecap="round" stroke-linejoin="round"/><rect id="uuid-ebcfb6e6-76bc-4cb7-9078-e97580f7d13e" x="150.08" y="349.62" width="13.21" height="8.47" transform="translate(-211.93 236.02) rotate(-48.39)" fill="none" stroke="#000" stroke-linecap="round" stroke-linejoin="round"/><rect id="uuid-f7c23d64-ede2-4780-ade6-f3a0a7b7520f" x="188.79" y="363.46" width="13.21" height="8.47" transform="translate(-42.04 25.64) rotate(-6.78)" fill="none" stroke="#000" stroke-linecap="round" stroke-linejoin="round"/><path d="M173.24,211.7c-.3.07-.48.39-.71.58-7.54,6.17-11.64,9.16-15.44,10.68s-12.18,6.08-12.18,6.03h16.28l4.52,1.89,7.85-3.89h6.81c0,.4,5.24-3.39,5.21-.84s2.21-.53,2.21-.53l6.59.98,5.59-1.33,1.56-1.6s21.8-23.46-28.29-11.98Z" fill="none" stroke="#000" stroke-linecap="round" stroke-linejoin="round"/><polygon id="uuid-17f367db-cb52-4006-bf49-84fe05268c59" points="142.17 363.09 156.75 368.23 147.82 393.57 146.02 398.67 124.15 390.96 125.95 385.86 133.24 388.43 142.17 363.09" fill="none" stroke="#000" stroke-linecap="round" stroke-linejoin="round"/><rect id="uuid-7ff18cd5-57d5-4749-a5d5-6dad57c5b7c5" x="142.57" y="345.66" width="37.99" height="19.24" transform="translate(-206.82 226.37) rotate(-46.26)" fill="none" stroke="#000" stroke-linecap="round" stroke-linejoin="round"/><polygon id="uuid-c63e592b-9059-41c6-a5f7-257ddba4016d" points="184.08 375.11 197.91 382.5 185.07 406.52 191.62 410.03 189.29 414.39 168.91 403.5 171.45 398.74 171.45 398.74 184.08 375.11" fill="none" stroke="#000" stroke-linecap="round" stroke-linejoin="round"/><rect id="uuid-63b16b8f-669d-42d8-932d-565668c9ac11" x="174.73" y="353.42" width="37.97" height="18.98" transform="translate(-199.18 484.84) rotate(-79.15)" fill="none" stroke="#000" stroke-linecap="round" stroke-linejoin="round"/><path id="uuid-d30b45e6-efdf-4414-8fde-732e30233f0e" d="M164,271v78s43,0,43,0v-78s-43,0-43,0Z" fill="none" stroke="#000" stroke-linecap="round" stroke-linejoin="round"/><rect id="uuid-8c781bb5-9854-4c93-8573-567455f070de" x="199" y="317" width="8" height="13" fill="none" stroke="#000" stroke-linecap="round" stroke-linejoin="round"/><path id="uuid-7f0f5190-837e-4af8-90c1-b6f1bf651ace" d="M164.84,261.89c-2.09-3.9-3.59-8.41-4.25-13.31-2.3-16.92,6.12-32.03,18.81-33.76,12.69-1.73,24.84,10.59,27.14,27.51.67,4.9.43,9.65-.55,13.96l-41.15,5.59Z" fill="none" stroke="#000" stroke-linecap="round" stroke-linejoin="round"/><path id="uuid-e0cfed3e-292f-4cd1-8755-4934f74bc5e4" d="M204.83,266c-4.12,8.61-11.34,14.33-19.56,14.33-8.23,0-15.45-5.72-19.56-14.33h39.12Z" fill="none" stroke="#000" stroke-linecap="round" stroke-linejoin="round"/><ellipse id="uuid-7a2df2a0-a97a-4739-8726-4d1a9a1a463a" cx="188.5" cy="250.5" rx="2.49" ry="3.5" transform="translate(-16.66 13.46) rotate(-3.92)" fill="none" stroke="#000" stroke-linecap="round" stroke-linejoin="round"/><ellipse id="uuid-6d0436f1-7160-49b6-b4f3-0012075c6cf4" cx="200.5" cy="250.5" rx="2.5" ry="3.5" transform="translate(-7.53 6.22) rotate(-1.74)" fill="none" stroke="#000" stroke-linecap="round" stroke-linejoin="round"/><rect id="uuid-f133c430-4a59-4a97-a5c3-f228169fa4ca" x="141.22" y="295.86" width="24.73" height="11.59" transform="translate(-181.82 347.37) rotate(-70.78)" fill="none" stroke="#000" stroke-linecap="round" stroke-linejoin="round"/><rect id="uuid-4302ab86-7527-4d30-9db9-b5b13244c3b7" x="145.59" y="277.95" width="24.73" height="11.59" transform="translate(-139.93 413.08) rotate(-84.37)" fill="none" stroke="#000" stroke-linecap="round" stroke-linejoin="round"/><rect id="uuid-a3695e68-66b7-432a-81ac-38572edd0f55" x="208.03" y="271.38" width="11.59" height="24.73" transform="translate(-22.33 18.3) rotate(-4.66)" fill="none" stroke="#000" stroke-linecap="round" stroke-linejoin="round"/><rect id="uuid-9fd1bbc2-cb05-4b91-9f35-c93422c75480" x="210.33" y="286.52" width="24.73" height="11.59" transform="translate(-137.93 221.64) rotate(-41.61)" fill="none" stroke="#000" stroke-linecap="round" stroke-linejoin="round"/><rect id="uuid-087e1ef5-91f2-498e-96ee-cb170be4e6be" x="141.27" y="313.08" width="12.37" height="12.37" transform="translate(-202.56 353.38) rotate(-70.78)" fill="none" stroke="#000" stroke-linecap="round" stroke-linejoin="round"/><rect id="uuid-70534543-94ef-4c1d-9ac9-3580a1666816" x="230.43" y="273.78" width="12.37" height="12.37" transform="translate(-126.21 227.77) rotate(-41.61)" fill="none" stroke="#000" stroke-linecap="round" stroke-linejoin="round"/><circle id="uuid-41a5b723-2d72-4bd3-9b42-76027cbe93ad" cx="185.5" cy="307.5" r="1.5" fill="none" stroke="#000" stroke-linecap="round" stroke-linejoin="round"/><circle id="uuid-4c110430-4b94-43df-ae96-1470829a098c" cx="185.5" cy="301.5" r="1.5" fill="none" stroke="#000" stroke-linecap="round" stroke-linejoin="round"/><circle id="uuid-e114d36b-5cd7-4918-a78b-109dabdb112f" cx="185.5" cy="287.5" r="1.5" fill="none" stroke="#000" stroke-linecap="round" stroke-linejoin="round"/><rect id="uuid-890d5b22-7251-4b93-b7c5-b7c64199ade1" x="164" y="329" width="8" height="13" fill="none" stroke="#000" stroke-linecap="round" stroke-linejoin="round"/><rect id="uuid-45229dfb-1efe-4f9a-9b05-bdc8e51c2bb2" x="150.08" y="349.62" width="13.21" height="8.47" transform="translate(-211.93 236.02) rotate(-48.39)" fill="none" stroke="#000" stroke-linecap="round" stroke-linejoin="round"/><rect id="uuid-b508ead2-6ab0-4219-a4de-0cab14263dfe" x="188.79" y="363.46" width="13.21" height="8.47" transform="translate(-42.04 25.64) rotate(-6.78)" fill="none" stroke="#000" stroke-linecap="round" stroke-linejoin="round"/><path d="M173.24,211.7c-.3.07-.48.39-.71.58-7.54,6.17-11.64,9.16-15.44,10.68s-12.18,6.08-12.18,6.03h16.28l4.52,1.89,7.85-3.89h6.81c0,.4,5.24-3.39,5.21-.84s2.21-.53,2.21-.53l6.59.98,5.59-1.33,1.56-1.6s21.8-23.46-28.29-11.98Z" fill="none" stroke="#000" stroke-linecap="round" stroke-linejoin="round"/></g></g><text transform="translate(82.34 105.65)" fill="#333" font-family="ComicNeue-Regular, &apos;Comic Neue&apos;" font-size="24"><tspan x="0" y="0">Food and fuel shortages led to </tspan><tspan x="0" y="28.8">malnutrition and hopelessness.</tspan></text></svg>