<?xml version="1.0" encoding="UTF-8"?><svg id="uuid-6217c320-e033-4abf-9e30-73412d1f64f0" xmlns="http://www.w3.org/2000/svg" viewBox="0 0 500 500"><polygon points="141.647724 303 131.162176 345 369.533639 345 359.04809 303 141.647724 303" fill="#603813"/><polygon points="146.350799 285 354.028845 285 343.543297 243 156.836353 243 146.350799 285" fill="#603813"/><polygon points="171.01869 187 328.918846 187 338.24363 224 161.693099 224 171.01869 187" fill="#603813"/><polygon points="126.040738 364 116.71516 401 383.094925 401 373.769347 364 126.040738 364" fill="#603813"/><path d="M129.497924,187l-54.138358,214h41.355594l9.325578-37h247.728609l9.325578,37h41.54545l-54.201412-214h-41.520118l9.324784,37h-176.550531l9.325591-37h-41.520766ZM156.836353,243h186.706944l10.485548,42h-207.678046l10.485553-42ZM131.162176,345l10.485548-42h217.400366l10.485548,42h-238.371463Z" fill="#8c6239"/><polygon points="171.025417 187 129.536255 187 75.397897 401 116.88706 401 171.025417 187" fill="#9d6e41"/><polygon points="328.912175 187 370.400634 187 424.602046 401 382.923319 401 328.912175 187" fill="#9d6e41"/><g id="uuid-59a24857-6524-4d0b-8348-ae72e715bf89"><polygon id="uuid-f565a4fe-0ce1-47de-83ba-d31338742a53" points="268.14294 361.898755 282.72266 367.037467 273.791531 392.377154 271.992979 397.480064 250.123367 389.771984 251.921919 384.669075 259.211812 387.238442 268.14294 361.898755" fill="#eec6a2"/><rect id="uuid-79dab6ed-629b-49cc-831b-d91508f6cdeb" x="268.544633" y="344.47532" width="37.987324" height="19.243931" transform="translate(-167.090996 317.011346) rotate(-46.258778)"/><polygon id="uuid-58d58053-2767-435f-965a-7b011ccbdd1e" points="313.721125 373.30252 298.252442 370.727469 293.779977 397.594169 286.452695 396.374406 285.63952 401.25926 308.435508 405.054079 309.321508 399.731756 309.321485 399.731753 313.721125 373.30252" fill="#eec6a2"/><rect id="uuid-d4870124-c611-463e-86aa-7d41835a5461" x="295.586087" y="349.314965" width="37.965917" height="18.982988" transform="translate(-154.64292 445.615965) rotate(-59.240489)"/><path id="uuid-4ea349ed-f46e-46a2-bbc2-ec09d74d767f" d="M290,270v78s43,0,43,0v-78s-43,0-43,0Z" fill="#726038"/><rect id="uuid-4af933b1-42ed-416c-b4d8-eec68173176f" x="325" y="316" width="8" height="13" fill="#ac935a"/><path id="uuid-f7af3a60-c753-49bb-8192-6a25e469ecf6" d="M290.22533,257.890445c-1.133743-4.277109-1.546289-9.010829-1.060745-13.932079,1.67656-16.992825,13.367249-29.748919,26.111879-28.491497,12.744631,1.257422,21.717071,16.052198,20.040511,33.045023-.485545,4.92125-1.815216,9.483079-3.762946,13.45616l-41.328699-4.077607Z" fill="#eec6a2"/><path id="uuid-322d3905-e354-4053-9075-014453d4c6fe" d="M330.805029,265c-4.116512,8.60987-11.336299,14.325456-19.561821,14.325456-8.225522,0-15.44531-5.715586-19.561821-14.325456h39.123643Z" fill="#eec6a2"/><ellipse id="uuid-7f64db11-d4b4-4dd8-8d53-d2cc789a7211" cx="296.5" cy="247.5" rx="2.5" ry="3.5" fill="#333"/><ellipse id="uuid-ece1d654-f37e-41d1-9995-26a6d938e8de" cx="309.5" cy="249.5" rx="2.5" ry="3.5" fill="#333"/><rect id="uuid-43848084-249a-4796-a6bf-d72754d583c2" x="271.563" y="276.759748" width="24.734118" height="11.594098" transform="translate(-25.139297 537.371936) rotate(-84.365302)" fill="#726038"/><rect id="uuid-811cf07d-1a9e-4775-acd4-6655eda67411" x="333.996921" y="270.189738" width="11.594098" height="24.734118" transform="translate(-21.822121 28.525129) rotate(-4.657673)" fill="#726038"/><rect id="uuid-c7ac9ef7-3815-4df0-abeb-896b81d685c1" x="336.305444" y="285.333576" width="24.734118" height="11.594098" transform="translate(-105.350947 304.9965) rotate(-41.610094)" fill="#eec6a2"/><rect id="uuid-0048c2f7-00a4-4186-af0a-54e3eb5bc298" x="356.40485" y="272.587615" width="12.367061" height="12.367061" transform="translate(-93.632314 311.118678) rotate(-41.610064)" fill="#eec6a2"/><circle id="uuid-44d60dc7-8f62-46d3-adce-ce3027045895" cx="311.5" cy="306.5" r="1.5" fill="#333"/><circle id="uuid-e503c317-2cea-4f32-96c0-7e994168e40c" cx="311.5" cy="299.5" r="1.5" fill="#333"/><circle id="uuid-447b19c1-2938-424f-8e3e-8cfe6c81f117" cx="311.5" cy="286.5" r="1.5" fill="#333"/><rect id="uuid-67b52d29-a2ff-4f06-af45-5574ffa26362" x="290" y="328" width="8" height="13" fill="#ac935a"/><rect id="uuid-ad05d05c-702e-48c2-8454-e8981ff6a079" x="276.0535" y="348.428055" width="13.205536" height="8.467131" transform="translate(-168.722317 329.810862) rotate(-48.389936)" fill="#ac935a"/><rect id="uuid-981b9cf7-7546-4306-9453-00e96517a3ea" x="305.90658" y="354.66162" width="8.467131" height="13.205536" transform="translate(-161.646237 297.104606) rotate(-41.610064)" fill="#ac935a"/><path d="M310.003189,210.604368c-.310589-.002494-.554155.270429-.825329.402322-8.758044,4.259716-13.445689,6.219037-17.496475,6.819456-4.17621.61901-13.255016,3.095048-13.255016,3.095048l15.895245,3.507721,3.913059,3.095048,8.467131-1.679765,6.602768,1.679765s5.976424-2.476038,5.357415,0,2.269702,0,2.269702,0l6.190095,2.476038h5.741037l1.893413-1.198715s26.632078-17.784244-24.753047-18.196917Z" fill="#999"/><rect id="uuid-ea292dad-694c-4dbf-af92-a2343b70fd00" x="270.528495" y="280.287963" width="11.594098" height="24.734118" transform="translate(-125.389455 317.711507) rotate(-50.213042)" fill="#eec6a2"/><rect id="uuid-77d2b387-2426-4643-bc30-820cd29dc6e3" x="256.643336" y="275.368034" width="12.367061" height="12.367061" transform="translate(-121.71765 303.340556) rotate(-50.213012)" fill="#eec6a2"/></g><g id="uuid-a8932a77-ba7f-4e4d-b7a0-ff0c8a5e796e"><g id="uuid-de4ab6a0-741f-41ed-8a62-66f65b9eeab4"><polygon id="uuid-fcf51485-dcf2-44c8-9f69-430ef2a97a85" points="142.171897 363.087997 156.751616 368.226708 147.820487 393.566395 146.021935 398.669305 124.152323 390.961225 125.950875 385.858316 133.240768 388.427683 142.171897 363.087997" fill="#eec6a2"/><rect id="uuid-50113299-658b-4032-96aa-00e62a94b50d" x="142.573589" y="345.664561" width="37.987324" height="19.243931" transform="translate(-206.824552 226.368055) rotate(-46.258778)"/><polygon id="uuid-41942281-9357-4c64-8f1c-952ded271df0" points="184.080527 375.111296 197.910672 382.503056 185.072332 406.523871 191.623463 410.025237 189.28922 414.392657 168.907922 403.49952 171.451212 398.740971 171.451232 398.740982 184.080527 375.111296" fill="#eec6a2"/><rect id="uuid-11941c1a-6e35-4d93-aa05-7eb7fd95d5b5" x="174.730871" y="353.419652" width="37.965917" height="18.982988" transform="translate(-199.175249 484.844401) rotate(-79.149447)"/><path id="uuid-9dc0496b-d67b-44d6-9096-9f5cb3ac6be1" d="M164,271v78s43,0,43,0v-78s-43,0-43,0Z" fill="#726038"/><rect id="uuid-730ce017-aec7-4f79-8449-8854a7ee66d5" x="199" y="317" width="8" height="13" fill="#ac935a"/><path id="uuid-ae53c131-0e17-4161-aafe-07feaf2392da" d="M164.838593,261.886621c-2.092446-3.898808-3.58889-8.408681-4.254989-13.30876-2.300004-16.919721,6.122588-32.034285,18.81239-33.759289,12.689802-1.725004,24.841445,10.592775,27.141448,27.512496.666098,4.900079.427821,9.645764-.54795,13.961653l-41.1509,5.5939Z" fill="#eec6a2"/><path id="uuid-36fb9c74-9ba7-41c1-94ab-ed50fff631ff" d="M204.833985,266c-4.116512,8.60987-11.336299,14.325456-19.561821,14.325456-8.225522,0-15.44531-5.715586-19.561821-14.325456h39.123643Z" fill="#eec6a2"/><ellipse id="uuid-00c03fa8-c43f-45e2-af8f-ea933a9b8c1c" cx="188.5" cy="250.5" rx="2.494133" ry="3.503918" transform="translate(-16.664293 13.455462) rotate(-3.91522)" fill="#333"/><ellipse id="uuid-c7fe8716-21db-475d-86a8-b9fd9bb2a728" cx="200.5" cy="250.5" rx="2.498833" ry="3.50077" transform="translate(-7.53148 6.218598) rotate(-1.744159)" fill="#333"/><rect id="uuid-10d61cec-2364-4062-bee6-5b3b2f938d44" x="141.223882" y="295.863617" width="24.734118" height="11.594098" transform="translate(-181.819484 347.368236) rotate(-70.777117)" fill="#eec6a2"/><rect id="uuid-826025ba-a6b3-4e66-9d9e-194dc6456ca5" x="145.591957" y="277.948989" width="24.734118" height="11.594098" transform="translate(-139.925295 413.082044) rotate(-84.365302)" fill="#726038"/><rect id="uuid-3230ee07-5317-4781-9304-3ae7abaf5707" x="208.025877" y="271.378979" width="11.594098" height="24.734118" transform="translate(-22.334691 18.299927) rotate(-4.657673)" fill="#726038"/><rect id="uuid-4ce5ac7b-4460-409a-a2fb-f260b1609631" x="210.3344" y="286.522817" width="24.734118" height="11.594098" transform="translate(-137.925545 221.644496) rotate(-41.610094)" fill="#eec6a2"/><rect id="uuid-2a85d3ec-dc92-49b2-9bac-5ae0df808495" x="141.27009" y="313.078481" width="12.367061" height="12.367061" transform="translate(-202.556128 353.379129) rotate(-70.777087)" fill="#eec6a2"/><rect id="uuid-44fa32cf-f65d-4f9a-b870-9773860b1a3d" x="230.433807" y="273.776856" width="12.367061" height="12.367061" transform="translate(-126.206868 227.766723) rotate(-41.610064)" fill="#eec6a2"/><circle id="uuid-72a8233d-a062-4918-9d1c-cf6a0e18689a" cx="185.5" cy="307.5" r="1.5" fill="#333"/><circle id="uuid-3688d007-0ebb-437c-8814-ec91ac0b7d2d" cx="185.5" cy="301.5" r="1.5" fill="#333"/><circle id="uuid-4229acc6-62b3-473a-94c4-843db5a6b9b6" cx="185.5" cy="287.5" r="1.5" fill="#333"/><rect id="uuid-864937ad-727e-49ab-bda6-c09f9b0dde37" x="164" y="329" width="8" height="13" fill="#ac935a"/><rect id="uuid-1fc5eaa7-827d-422e-8ddd-96e6b0eb6324" x="150.082456" y="349.617296" width="13.205536" height="8.467131" transform="translate(-211.930512 236.024164) rotate(-48.389936)" fill="#ac935a"/><rect id="uuid-0d16966f-f277-45f9-8ad0-40eb86179b12" x="188.790262" y="363.456374" width="13.205536" height="8.467131" transform="translate(-42.041314 25.638393) rotate(-6.779873)" fill="#ac935a"/><path d="M173.235095,211.704076c-.302741.069424-.476563.391291-.709868.582338-7.535035,6.170232-11.642254,9.160834-15.444257,10.682066-3.919723,1.568334-12.179452,6.077478-12.179452,6.03152h16.275531l4.522913,1.887203,7.848854-3.887203h6.812251c0,.400964,5.241503-3.390481,5.212087-.838409s2.208132-.525068,2.208132-.525068l6.594981.976868,5.585303-1.32812,1.564743-1.604216s21.795472-23.462828-28.291219-11.976979Z" fill="#999"/></g></g><polygon points="141.647724 303 131.162176 345 369.533639 345 359.04809 303 141.647724 303" fill="none" stroke="#000" stroke-linecap="round" stroke-linejoin="round"/><polygon points="146.350799 285 354.028845 285 343.543297 243 156.836353 243 146.350799 285" fill="none" stroke="#000" stroke-linecap="round" stroke-linejoin="round"/><polygon points="171.01869 187 328.918846 187 338.24363 224 161.693099 224 171.01869 187" fill="none" stroke="#000" stroke-linecap="round" stroke-linejoin="round"/><polygon points="126.040738 364 116.71516 401 383.094925 401 373.769347 364 126.040738 364" fill="none" stroke="#000" stroke-linecap="round" stroke-linejoin="round"/><path d="M129.497924,187l-54.138358,214h41.355594l9.325578-37h247.728609l9.325578,37h41.54545l-54.201412-214h-41.520118l9.324784,37h-176.550531l9.325591-37h-41.520766ZM156.836353,243h186.706944l10.485548,42h-207.678046l10.485553-42ZM131.162176,345l10.485548-42h217.400366l10.485548,42h-238.371463Z" fill="none" stroke="#000" stroke-linecap="round" stroke-linejoin="round"/><polygon points="171.025417 187 129.536255 187 75.397897 401 116.88706 401 171.025417 187" fill="none" stroke="#000" stroke-linecap="round" stroke-linejoin="round"/><polygon points="328.912175 187 370.400634 187 424.602046 401 382.923319 401 328.912175 187" fill="none" stroke="#000" stroke-linecap="round" stroke-linejoin="round"/><g id="uuid-155d1bbc-d957-4213-977e-553d3db5ead7"><polygon id="uuid-eb6b3300-e64e-4444-bf4f-813e54c1d224" points="268.14294 361.898755 282.72266 367.037467 273.791531 392.377154 271.992979 397.480064 250.123367 389.771984 251.921919 384.669075 259.211812 387.238442 268.14294 361.898755" fill="none" stroke="#000" stroke-linecap="round" stroke-linejoin="round"/><rect id="uuid-536cdf93-8f40-42c7-9a8e-2f36b6f9ed9b" x="268.544633" y="344.47532" width="37.987324" height="19.243931" transform="translate(-167.090996 317.011346) rotate(-46.258778)" fill="none" stroke="#000" stroke-linecap="round" stroke-linejoin="round"/><polygon id="uuid-9d68cbef-eabd-428d-9d54-93d200bfc793" points="313.721125 373.30252 298.252442 370.727469 293.779977 397.594169 286.452695 396.374406 285.63952 401.25926 308.435508 405.054079 309.321508 399.731756 309.321485 399.731753 313.721125 373.30252" fill="none" stroke="#000" stroke-linecap="round" stroke-linejoin="round"/><rect id="uuid-61e282df-2880-4702-976e-c2e433ec3070" x="295.586087" y="349.314965" width="37.965917" height="18.982988" transform="translate(-154.64292 445.615965) rotate(-59.240489)" fill="none" stroke="#000" stroke-linecap="round" stroke-linejoin="round"/><path id="uuid-70fbfde4-8745-490a-b66a-e124be58258f" d="M290,270v78s43,0,43,0v-78s-43,0-43,0Z" fill="none" stroke="#000" stroke-linecap="round" stroke-linejoin="round"/><rect id="uuid-086546fe-45c6-4917-8200-05dd535516a8" x="325" y="316" width="8" height="13" fill="none" stroke="#000" stroke-linecap="round" stroke-linejoin="round"/><path id="uuid-2bb2f1fe-f9e1-4bc6-8403-dceb67dd9831" d="M290.22533,257.890445c-1.133743-4.277109-1.546289-9.010829-1.060745-13.932079,1.67656-16.992825,13.367249-29.748919,26.111879-28.491497,12.744631,1.257422,21.717071,16.052198,20.040511,33.045023-.485545,4.92125-1.815216,9.483079-3.762946,13.45616l-41.328699-4.077607Z" fill="none" stroke="#000" stroke-linecap="round" stroke-linejoin="round"/><path id="uuid-1f3f9307-e6c6-4fa4-af24-133b5dbbbba7" d="M330.805029,265c-4.116512,8.60987-11.336299,14.325456-19.561821,14.325456-8.225522,0-15.44531-5.715586-19.561821-14.325456h39.123643Z" fill="none" stroke="#000" stroke-linecap="round" stroke-linejoin="round"/><ellipse id="uuid-add151fc-43f2-44f8-89c4-686daef52ba3" cx="296.5" cy="247.5" rx="2.5" ry="3.5" fill="none" stroke="#000" stroke-linecap="round" stroke-linejoin="round"/><ellipse id="uuid-0cbf1415-7225-4299-bd64-3888cf83eab0" cx="309.5" cy="249.5" rx="2.5" ry="3.5" fill="none" stroke="#000" stroke-linecap="round" stroke-linejoin="round"/><rect id="uuid-bdc5a98f-a9af-4d67-89d3-203aeef0ab63" x="271.563" y="276.759748" width="24.734118" height="11.594098" transform="translate(-25.139297 537.371936) rotate(-84.365302)" fill="none" stroke="#000" stroke-linecap="round" stroke-linejoin="round"/><rect id="uuid-355d3d5b-7a37-4d8b-8f4a-be9338a88863" x="333.996921" y="270.189738" width="11.594098" height="24.734118" transform="translate(-21.822121 28.525129) rotate(-4.657673)" fill="none" stroke="#000" stroke-linecap="round" stroke-linejoin="round"/><rect id="uuid-89d6c9a3-6b1a-4b92-86ce-045a6269b130" x="336.305444" y="285.333576" width="24.734118" height="11.594098" transform="translate(-105.350947 304.9965) rotate(-41.610094)" fill="none" stroke="#000" stroke-linecap="round" stroke-linejoin="round"/><rect id="uuid-aff5152a-1d86-4589-8765-4cc283b3eed4" x="356.40485" y="272.587615" width="12.367061" height="12.367061" transform="translate(-93.632314 311.118678) rotate(-41.610064)" fill="none" stroke="#000" stroke-linecap="round" stroke-linejoin="round"/><circle id="uuid-466fd7d4-541a-4fda-97a8-4702029cad94" cx="311.5" cy="306.5" r="1.5" fill="none" stroke="#000" stroke-linecap="round" stroke-linejoin="round"/><circle id="uuid-26f5cd58-6d19-431b-bafa-ff927ada7e7b" cx="311.5" cy="299.5" r="1.5" fill="none" stroke="#000" stroke-linecap="round" stroke-linejoin="round"/><circle id="uuid-74fa9ec5-6da6-48a4-8a12-ae68a738fa7b" cx="311.5" cy="286.5" r="1.5" fill="none" stroke="#000" stroke-linecap="round" stroke-linejoin="round"/><rect id="uuid-be5360cd-0352-4cd0-8af4-39b17b05f775" x="290" y="328" width="8" height="13" fill="none" stroke="#000" stroke-linecap="round" stroke-linejoin="round"/><rect id="uuid-05362202-0793-40c1-83e9-01e61724be2b" x="276.0535" y="348.428055" width="13.205536" height="8.467131" transform="translate(-168.722317 329.810862) rotate(-48.389936)" fill="none" stroke="#000" stroke-linecap="round" stroke-linejoin="round"/><rect id="uuid-0bea357e-79b2-4e0d-a9ae-c6f4ded15469" x="305.90658" y="354.66162" width="8.467131" height="13.205536" transform="translate(-161.646237 297.104606) rotate(-41.610064)" fill="none" stroke="#000" stroke-linecap="round" stroke-linejoin="round"/><path d="M310.003189,210.604368c-.310589-.002494-.554155.270429-.825329.402322-8.758044,4.259716-13.445689,6.219037-17.496475,6.819456-4.17621.61901-13.255016,3.095048-13.255016,3.095048l15.895245,3.507721,3.913059,3.095048,8.467131-1.679765,6.602768,1.679765s5.976424-2.476038,5.357415,0,2.269702,0,2.269702,0l6.190095,2.476038h5.741037l1.893413-1.198715s26.632078-17.784244-24.753047-18.196917Z" fill="none" stroke="#000" stroke-linecap="round" stroke-linejoin="round"/><rect id="uuid-630fdccf-4d82-4dd9-814d-551336942071" x="270.528495" y="280.287963" width="11.594098" height="24.734118" transform="translate(-125.389455 317.711507) rotate(-50.213042)" fill="none" stroke="#000" stroke-linecap="round" stroke-linejoin="round"/><rect id="uuid-62c7ea3b-0e90-4ad9-b5c2-8c5bfc7abc09" x="256.643336" y="275.368034" width="12.367061" height="12.367061" transform="translate(-121.71765 303.340556) rotate(-50.213012)" fill="none" stroke="#000" stroke-linecap="round" stroke-linejoin="round"/><polygon id="uuid-af4a0ab4-bd92-4512-8752-18b8f949ee63" points="268.14294 361.898755 282.72266 367.037467 273.791531 392.377154 271.992979 397.480064 250.123367 389.771984 251.921919 384.669075 259.211812 387.238442 268.14294 361.898755" fill="none" stroke="#000" stroke-linecap="round" stroke-linejoin="round"/><rect id="uuid-1b55cd53-9773-472e-b09f-0096f2debf87" x="268.544633" y="344.47532" width="37.987324" height="19.243931" transform="translate(-167.090996 317.011346) rotate(-46.258778)" fill="none" stroke="#000" stroke-linecap="round" stroke-linejoin="round"/><polygon id="uuid-8e57f497-eaa3-4f97-b506-de70ddfa582f" points="313.721125 373.30252 298.252442 370.727469 293.779977 397.594169 286.452695 396.374406 285.63952 401.25926 308.435508 405.054079 309.321508 399.731756 309.321485 399.731753 313.721125 373.30252" fill="none" stroke="#000" stroke-linecap="round" stroke-linejoin="round"/><rect id="uuid-bfd09e57-bb54-4433-95ab-0becdde1ff6a" x="295.586087" y="349.314965" width="37.965917" height="18.982988" transform="translate(-154.64292 445.615965) rotate(-59.240489)" fill="none" stroke="#000" stroke-linecap="round" stroke-linejoin="round"/><path id="uuid-5ad6c095-8f89-4918-8811-0a958dbaa7e8" d="M290,270v78s43,0,43,0v-78s-43,0-43,0Z" fill="none" stroke="#000" stroke-linecap="round" stroke-linejoin="round"/><rect id="uuid-49a34c2c-3404-4c35-85b9-b8a8e0a9ce91" x="325" y="316" width="8" height="13" fill="none" stroke="#000" stroke-linecap="round" stroke-linejoin="round"/><path id="uuid-08233221-3e77-4d39-875c-9e0e1bca20ab" d="M290.22533,257.890445c-1.133743-4.277109-1.546289-9.010829-1.060745-13.932079,1.67656-16.992825,13.367249-29.748919,26.111879-28.491497,12.744631,1.257422,21.717071,16.052198,20.040511,33.045023-.485545,4.92125-1.815216,9.483079-3.762946,13.45616l-41.328699-4.077607Z" fill="none" stroke="#000" stroke-linecap="round" stroke-linejoin="round"/><path id="uuid-e5e70497-d33c-465b-a8c2-7d490d269e53" d="M330.805029,265c-4.116512,8.60987-11.336299,14.325456-19.561821,14.325456-8.225522,0-15.44531-5.715586-19.561821-14.325456h39.123643Z" fill="none" stroke="#000" stroke-linecap="round" stroke-linejoin="round"/><ellipse id="uuid-354e1caa-9520-4a8b-ae25-15d91bc32f36" cx="296.5" cy="247.5" rx="2.5" ry="3.5" fill="none" stroke="#000" stroke-linecap="round" stroke-linejoin="round"/><ellipse id="uuid-e6407e43-3226-467b-8ef2-d617e654f888" cx="309.5" cy="249.5" rx="2.5" ry="3.5" fill="none" stroke="#000" stroke-linecap="round" stroke-linejoin="round"/><rect id="uuid-64b6fd40-5add-460f-ba92-20fcc9cc775b" x="271.563" y="276.759748" width="24.734118" height="11.594098" transform="translate(-25.139297 537.371936) rotate(-84.365302)" fill="none" stroke="#000" stroke-linecap="round" stroke-linejoin="round"/><rect id="uuid-199b2976-426b-4763-a743-396948d93145" x="333.996921" y="270.189738" width="11.594098" height="24.734118" transform="translate(-21.822121 28.525129) rotate(-4.657673)" fill="none" stroke="#000" stroke-linecap="round" stroke-linejoin="round"/><rect id="uuid-49fc6685-4834-449f-b658-e8148599b3ee" x="336.305444" y="285.333576" width="24.734118" height="11.594098" transform="translate(-105.350947 304.9965) rotate(-41.610094)" fill="none" stroke="#000" stroke-linecap="round" stroke-linejoin="round"/><rect id="uuid-721dd7d8-48f4-40a1-9336-d50a583d8d33" x="356.40485" y="272.587615" width="12.367061" height="12.367061" transform="translate(-93.632314 311.118678) rotate(-41.610064)" fill="none" stroke="#000" stroke-linecap="round" stroke-linejoin="round"/><circle id="uuid-2af41222-3dbd-44cc-b5df-c8c51893effc" cx="311.5" cy="306.5" r="1.5" fill="none" stroke="#000" stroke-linecap="round" stroke-linejoin="round"/><circle id="uuid-b44a58eb-7386-4e73-a1e9-cb61edebbaec" cx="311.5" cy="299.5" r="1.5" fill="none" stroke="#000" stroke-linecap="round" stroke-linejoin="round"/><circle id="uuid-0dc06244-337d-42b1-aaae-999c513dfe9b" cx="311.5" cy="286.5" r="1.5" fill="none" stroke="#000" stroke-linecap="round" stroke-linejoin="round"/><rect id="uuid-165de9d5-db18-464c-86de-e6f8efb5f957" x="290" y="328" width="8" height="13" fill="none" stroke="#000" stroke-linecap="round" stroke-linejoin="round"/><rect id="uuid-d97cfb6c-1f9c-4156-bbf4-15912d088a33" x="276.0535" y="348.428055" width="13.205536" height="8.467131" transform="translate(-168.722317 329.810862) rotate(-48.389936)" fill="none" stroke="#000" stroke-linecap="round" stroke-linejoin="round"/><rect id="uuid-0cfc769e-dd6d-4b84-875d-3c95d40f2e20" x="305.90658" y="354.66162" width="8.467131" height="13.205536" transform="translate(-161.646237 297.104606) rotate(-41.610064)" fill="none" stroke="#000" stroke-linecap="round" stroke-linejoin="round"/><path d="M310.003189,210.604368c-.310589-.002494-.554155.270429-.825329.402322-8.758044,4.259716-13.445689,6.219037-17.496475,6.819456-4.17621.61901-13.255016,3.095048-13.255016,3.095048l15.895245,3.507721,3.913059,3.095048,8.467131-1.679765,6.602768,1.679765s5.976424-2.476038,5.357415,0,2.269702,0,2.269702,0l6.190095,2.476038h5.741037l1.893413-1.198715s26.632078-17.784244-24.753047-18.196917Z" fill="none" stroke="#000" stroke-linecap="round" stroke-linejoin="round"/><rect id="uuid-97c826bf-809a-4057-9d05-fd523318b753" x="270.528495" y="280.287963" width="11.594098" height="24.734118" transform="translate(-125.389455 317.711507) rotate(-50.213042)" fill="none" stroke="#000" stroke-linecap="round" stroke-linejoin="round"/><rect id="uuid-2b22a859-6f42-4115-a32a-3e7f8ea5d16f" x="256.643336" y="275.368034" width="12.367061" height="12.367061" transform="translate(-121.71765 303.340556) rotate(-50.213012)" fill="none" stroke="#000" stroke-linecap="round" stroke-linejoin="round"/></g><g id="uuid-97481df4-700c-449b-a71f-ae5f0e983ee8"><g id="uuid-95143bbc-e3c7-41ff-b67d-f857d5e5f90d"><polygon id="uuid-ccbfac4a-5379-4ddc-97e2-fec0f4bab8c1" points="142.171897 363.087997 156.751616 368.226708 147.820487 393.566395 146.021935 398.669305 124.152323 390.961225 125.950875 385.858316 133.240768 388.427683 142.171897 363.087997" fill="none" stroke="#000" stroke-linecap="round" stroke-linejoin="round"/><rect id="uuid-741286e0-135c-4b5b-be62-c8c0517e0914" x="142.573589" y="345.664561" width="37.987324" height="19.243931" transform="translate(-206.824552 226.368055) rotate(-46.258778)" fill="none" stroke="#000" stroke-linecap="round" stroke-linejoin="round"/><polygon id="uuid-270a4bc9-a9ba-4986-9a6c-018c56f25ad9" points="184.080527 375.111296 197.910672 382.503056 185.072332 406.523871 191.623463 410.025237 189.28922 414.392657 168.907922 403.49952 171.451212 398.740971 171.451232 398.740982 184.080527 375.111296" fill="none" stroke="#000" stroke-linecap="round" stroke-linejoin="round"/><rect id="uuid-8980ff8d-ac95-4d2e-8078-786cbf7ffd84" x="174.730871" y="353.419652" width="37.965917" height="18.982988" transform="translate(-199.175249 484.844401) rotate(-79.149447)" fill="none" stroke="#000" stroke-linecap="round" stroke-linejoin="round"/><path id="uuid-fed678f3-b9ed-4f8f-a2bb-ac8568e710f3" d="M164,271v78s43,0,43,0v-78s-43,0-43,0Z" fill="none" stroke="#000" stroke-linecap="round" stroke-linejoin="round"/><rect id="uuid-bb584e58-7d84-493d-9980-1bc8f3be5eef" x="199" y="317" width="8" height="13" fill="none" stroke="#000" stroke-linecap="round" stroke-linejoin="round"/><path id="uuid-cd2d8685-bc6f-4706-87b5-a917bc13dedc" d="M164.838593,261.886621c-2.092446-3.898808-3.58889-8.408681-4.254989-13.30876-2.300004-16.919721,6.122588-32.034285,18.81239-33.759289,12.689802-1.725004,24.841445,10.592775,27.141448,27.512496.666098,4.900079.427821,9.645764-.54795,13.961653l-41.1509,5.5939Z" fill="none" stroke="#000" stroke-linecap="round" stroke-linejoin="round"/><path id="uuid-a841ab17-913b-43c7-b03d-fd498230274e" d="M204.833985,266c-4.116512,8.60987-11.336299,14.325456-19.561821,14.325456-8.225522,0-15.44531-5.715586-19.561821-14.325456h39.123643Z" fill="none" stroke="#000" stroke-linecap="round" stroke-linejoin="round"/><ellipse id="uuid-f91a525f-bd70-4b22-9c4b-d1e7c1e6f681" cx="188.5" cy="250.5" rx="2.494133" ry="3.503918" transform="translate(-16.664293 13.455462) rotate(-3.91522)" fill="none" stroke="#000" stroke-linecap="round" stroke-linejoin="round"/><ellipse id="uuid-98947bdf-755f-4ed3-aa45-0a5216e3f244" cx="200.5" cy="250.5" rx="2.498833" ry="3.50077" transform="translate(-7.53148 6.218598) rotate(-1.744159)" fill="none" stroke="#000" stroke-linecap="round" stroke-linejoin="round"/><rect id="uuid-a6ce8eeb-3def-41ba-8225-38c02f503409" x="141.223882" y="295.863617" width="24.734118" height="11.594098" transform="translate(-181.819484 347.368236) rotate(-70.777117)" fill="none" stroke="#000" stroke-linecap="round" stroke-linejoin="round"/><rect id="uuid-2372e2ae-70f2-4156-9e55-e1933941316e" x="145.591957" y="277.948989" width="24.734118" height="11.594098" transform="translate(-139.925295 413.082044) rotate(-84.365302)" fill="none" stroke="#000" stroke-linecap="round" stroke-linejoin="round"/><rect id="uuid-ea5bfae6-089e-4e5d-8b81-23f8dbd163ad" x="208.025877" y="271.378979" width="11.594098" height="24.734118" transform="translate(-22.334691 18.299927) rotate(-4.657673)" fill="none" stroke="#000" stroke-linecap="round" stroke-linejoin="round"/><rect id="uuid-cca436db-ca5a-4d99-9f50-c6f8c8e4ffe7" x="210.3344" y="286.522817" width="24.734118" height="11.594098" transform="translate(-137.925545 221.644496) rotate(-41.610094)" fill="none" stroke="#000" stroke-linecap="round" stroke-linejoin="round"/><rect id="uuid-c1e45c83-b065-47e9-9660-1cbcf758b601" x="141.27009" y="313.078481" width="12.367061" height="12.367061" transform="translate(-202.556128 353.379129) rotate(-70.777087)" fill="none" stroke="#000" stroke-linecap="round" stroke-linejoin="round"/><rect id="uuid-e43646cd-4457-42eb-a105-2d9530b9080b" x="230.433807" y="273.776856" width="12.367061" height="12.367061" transform="translate(-126.206868 227.766723) rotate(-41.610064)" fill="none" stroke="#000" stroke-linecap="round" stroke-linejoin="round"/><circle id="uuid-fa4b9e2f-0ca1-4e10-983b-aee949042aff" cx="185.5" cy="307.5" r="1.5" fill="none" stroke="#000" stroke-linecap="round" stroke-linejoin="round"/><circle id="uuid-8337acf4-1ae4-4c8f-9ac7-af13ccdd9623" cx="185.5" cy="301.5" r="1.5" fill="none" stroke="#000" stroke-linecap="round" stroke-linejoin="round"/><circle id="uuid-362c1043-0ad8-4869-8a87-0f67679cdb93" cx="185.5" cy="287.5" r="1.5" fill="none" stroke="#000" stroke-linecap="round" stroke-linejoin="round"/><rect id="uuid-3a1ce299-6436-4392-8497-c04a33525f9e" x="164" y="329" width="8" height="13" fill="none" stroke="#000" stroke-linecap="round" stroke-linejoin="round"/><rect id="uuid-bfed1be7-a2fc-4380-90d6-e34ae2d9b6b1" x="150.082456" y="349.617296" width="13.205536" height="8.467131" transform="translate(-211.930512 236.024164) rotate(-48.389936)" fill="none" stroke="#000" stroke-linecap="round" stroke-linejoin="round"/><rect id="uuid-d41f2dae-5cc4-4f74-8ec7-1b42d885f7da" x="188.790262" y="363.456374" width="13.205536" height="8.467131" transform="translate(-42.041314 25.638393) rotate(-6.779873)" fill="none" stroke="#000" stroke-linecap="round" stroke-linejoin="round"/><path d="M173.235095,211.704076c-.302741.069424-.476563.391291-.709868.582338-7.535035,6.170232-11.642254,9.160834-15.444257,10.682066-3.919723,1.568334-12.179452,6.077478-12.179452,6.03152h16.275531l4.522913,1.887203,7.848854-3.887203h6.812251c0,.400964,5.241503-3.390481,5.212087-.838409s2.208132-.525068,2.208132-.525068l6.594981.976868,5.585303-1.32812,1.564743-1.604216s21.795472-23.462828-28.291219-11.976979Z" fill="none" stroke="#000" stroke-linecap="round" stroke-linejoin="round"/><polygon id="uuid-f2b59da2-306f-4dce-899e-de43fe95fdd5" points="142.171897 363.087997 156.751616 368.226708 147.820487 393.566395 146.021935 398.669305 124.152323 390.961225 125.950875 385.858316 133.240768 388.427683 142.171897 363.087997" fill="none" stroke="#000" stroke-linecap="round" stroke-linejoin="round"/><rect id="uuid-00da1f24-7f6b-4c7e-ad8e-398a5322e0aa" x="142.573589" y="345.664561" width="37.987324" height="19.243931" transform="translate(-206.824552 226.368055) rotate(-46.258778)" fill="none" stroke="#000" stroke-linecap="round" stroke-linejoin="round"/><polygon id="uuid-9765431e-0e06-4139-aa7a-c1c4a3f3e424" points="184.080527 375.111296 197.910672 382.503056 185.072332 406.523871 191.623463 410.025237 189.28922 414.392657 168.907922 403.49952 171.451212 398.740971 171.451232 398.740982 184.080527 375.111296" fill="none" stroke="#000" stroke-linecap="round" stroke-linejoin="round"/><rect id="uuid-76c8e64d-cee7-4db0-9008-a315eac95135" x="174.730871" y="353.419652" width="37.965917" height="18.982988" transform="translate(-199.175249 484.844401) rotate(-79.149447)" fill="none" stroke="#000" stroke-linecap="round" stroke-linejoin="round"/><path id="uuid-27f0a169-495f-437e-a460-493fcff132e1" d="M164,271v78s43,0,43,0v-78s-43,0-43,0Z" fill="none" stroke="#000" stroke-linecap="round" stroke-linejoin="round"/><rect id="uuid-a0848439-c718-4a1d-b7b3-e1fd2e02fd67" x="199" y="317" width="8" height="13" fill="none" stroke="#000" stroke-linecap="round" stroke-linejoin="round"/><path id="uuid-d98c6649-b736-42c6-9ec1-f7c6fed768fa" d="M164.838593,261.886621c-2.092446-3.898808-3.58889-8.408681-4.254989-13.30876-2.300004-16.919721,6.122588-32.034285,18.81239-33.759289,12.689802-1.725004,24.841445,10.592775,27.141448,27.512496.666098,4.900079.427821,9.645764-.54795,13.961653l-41.1509,5.5939Z" fill="none" stroke="#000" stroke-linecap="round" stroke-linejoin="round"/><path id="uuid-5ed8a97d-a218-4555-8a9e-733ed9deeef9" d="M204.833985,266c-4.116512,8.60987-11.336299,14.325456-19.561821,14.325456-8.225522,0-15.44531-5.715586-19.561821-14.325456h39.123643Z" fill="none" stroke="#000" stroke-linecap="round" stroke-linejoin="round"/><ellipse id="uuid-7104de18-4d5c-41d2-88d3-68bc6848d117" cx="188.5" cy="250.5" rx="2.494133" ry="3.503918" transform="translate(-16.664293 13.455462) rotate(-3.91522)" fill="none" stroke="#000" stroke-linecap="round" stroke-linejoin="round"/><ellipse id="uuid-3fe15b30-746d-4867-91a0-8325d3d4a9af" cx="200.5" cy="250.5" rx="2.498833" ry="3.50077" transform="translate(-7.53148 6.218598) rotate(-1.744159)" fill="none" stroke="#000" stroke-linecap="round" stroke-linejoin="round"/><rect id="uuid-6fec403e-631c-4cd2-a8eb-f75d1e11b5f8" x="141.223882" y="295.863617" width="24.734118" height="11.594098" transform="translate(-181.819484 347.368236) rotate(-70.777117)" fill="none" stroke="#000" stroke-linecap="round" stroke-linejoin="round"/><rect id="uuid-e4970433-f4aa-4f41-8c5a-365be4510224" x="145.591957" y="277.948989" width="24.734118" height="11.594098" transform="translate(-139.925295 413.082044) rotate(-84.365302)" fill="none" stroke="#000" stroke-linecap="round" stroke-linejoin="round"/><rect id="uuid-a06c64b1-b576-4999-aaec-7a8929b07599" x="208.025877" y="271.378979" width="11.594098" height="24.734118" transform="translate(-22.334691 18.299927) rotate(-4.657673)" fill="none" stroke="#000" stroke-linecap="round" stroke-linejoin="round"/><rect id="uuid-cd5632d1-d113-483a-b28f-a24d9f17173e" x="210.3344" y="286.522817" width="24.734118" height="11.594098" transform="translate(-137.925545 221.644496) rotate(-41.610094)" fill="none" stroke="#000" stroke-linecap="round" stroke-linejoin="round"/><rect id="uuid-0549df4c-cc5b-48ce-8227-ff832d6412b1" x="141.27009" y="313.078481" width="12.367061" height="12.367061" transform="translate(-202.556128 353.379129) rotate(-70.777087)" fill="none" stroke="#000" stroke-linecap="round" stroke-linejoin="round"/><rect id="uuid-b05c12eb-ad23-4f20-bd25-df293a4cfdec" x="230.433807" y="273.776856" width="12.367061" height="12.367061" transform="translate(-126.206868 227.766723) rotate(-41.610064)" fill="none" stroke="#000" stroke-linecap="round" stroke-linejoin="round"/><circle id="uuid-11543627-f7ef-4680-88a8-422c8986820f" cx="185.5" cy="307.5" r="1.5" fill="none" stroke="#000" stroke-linecap="round" stroke-linejoin="round"/><circle id="uuid-7371fd6b-38b6-4d0d-a8c5-1dbd74d6c418" cx="185.5" cy="301.5" r="1.5" fill="none" stroke="#000" stroke-linecap="round" stroke-linejoin="round"/><circle id="uuid-182f6db7-b276-4e2e-8a22-51840dd81b1d" cx="185.5" cy="287.5" r="1.5" fill="none" stroke="#000" stroke-linecap="round" stroke-linejoin="round"/><rect id="uuid-7d02fcbb-291c-4641-acb9-5d29236691ee" x="164" y="329" width="8" height="13" fill="none" stroke="#000" stroke-linecap="round" stroke-linejoin="round"/><rect id="uuid-6a8d253a-6c91-4bea-a117-393df10e8ecb" x="150.082456" y="349.617296" width="13.205536" height="8.467131" transform="translate(-211.930512 236.024164) rotate(-48.389936)" fill="none" stroke="#000" stroke-linecap="round" stroke-linejoin="round"/><rect id="uuid-14b23131-818f-45fe-b445-7892ba037cd6" x="188.790262" y="363.456374" width="13.205536" height="8.467131" transform="translate(-42.041314 25.638393) rotate(-6.779873)" fill="none" stroke="#000" stroke-linecap="round" stroke-linejoin="round"/><path d="M173.235095,211.704076c-.302741.069424-.476563.391291-.709868.582338-7.535035,6.170232-11.642254,9.160834-15.444257,10.682066-3.919723,1.568334-12.179452,6.077478-12.179452,6.03152h16.275531l4.522913,1.887203,7.848854-3.887203h6.812251c0,.400964,5.241503-3.390481,5.212087-.838409s2.208132-.525068,2.208132-.525068l6.594981.976868,5.585303-1.32812,1.564743-1.604216s21.795472-23.462828-28.291219-11.976979Z" fill="none" stroke="#000" stroke-linecap="round" stroke-linejoin="round"/></g><g id="uuid-7be003c9-5164-4a48-98a7-64fca94d4a22"><polygon id="uuid-439292b4-0fd9-4140-ab1f-64fc02d8b4c2" points="142.171897 363.087997 156.751616 368.226708 147.820487 393.566395 146.021935 398.669305 124.152323 390.961225 125.950875 385.858316 133.240768 388.427683 142.171897 363.087997" fill="none" stroke="#000" stroke-linecap="round" stroke-linejoin="round"/><rect id="uuid-1b04c33f-71b4-49f6-9af5-91a4df302e12" x="142.573589" y="345.664561" width="37.987324" height="19.243931" transform="translate(-206.824552 226.368055) rotate(-46.258778)" fill="none" stroke="#000" stroke-linecap="round" stroke-linejoin="round"/><polygon id="uuid-157b807b-526e-4eaf-a453-ed5b2985e5b8" points="184.080527 375.111296 197.910672 382.503056 185.072332 406.523871 191.623463 410.025237 189.28922 414.392657 168.907922 403.49952 171.451212 398.740971 171.451232 398.740982 184.080527 375.111296" fill="none" stroke="#000" stroke-linecap="round" stroke-linejoin="round"/><rect id="uuid-ac1c8378-f30e-4de9-9025-011722c1eef4" x="174.730871" y="353.419652" width="37.965917" height="18.982988" transform="translate(-199.175249 484.844401) rotate(-79.149447)" fill="none" stroke="#000" stroke-linecap="round" stroke-linejoin="round"/><path id="uuid-4f4ac8e3-65ce-4044-ac78-f05a6d06fb62" d="M164,271v78s43,0,43,0v-78s-43,0-43,0Z" fill="none" stroke="#000" stroke-linecap="round" stroke-linejoin="round"/><rect id="uuid-96b80145-68e7-458d-af63-f1ebd558574b" x="199" y="317" width="8" height="13" fill="none" stroke="#000" stroke-linecap="round" stroke-linejoin="round"/><path id="uuid-f47365a5-97c1-404a-a56c-bebdcd2dd507" d="M164.838593,261.886621c-2.092446-3.898808-3.58889-8.408681-4.254989-13.30876-2.300004-16.919721,6.122588-32.034285,18.81239-33.759289,12.689802-1.725004,24.841445,10.592775,27.141448,27.512496.666098,4.900079.427821,9.645764-.54795,13.961653l-41.1509,5.5939Z" fill="none" stroke="#000" stroke-linecap="round" stroke-linejoin="round"/><path id="uuid-ac47a3a4-fc17-44a7-8b4d-c1a18f750bb4" d="M204.833985,266c-4.116512,8.60987-11.336299,14.325456-19.561821,14.325456-8.225522,0-15.44531-5.715586-19.561821-14.325456h39.123643Z" fill="none" stroke="#000" stroke-linecap="round" stroke-linejoin="round"/><ellipse id="uuid-51583dd8-a8af-4a2d-bd07-c3e7f107f58c" cx="188.5" cy="250.5" rx="2.494133" ry="3.503918" transform="translate(-16.664293 13.455462) rotate(-3.91522)" fill="none" stroke="#000" stroke-linecap="round" stroke-linejoin="round"/><ellipse id="uuid-c6d5ffd6-f5cc-4884-9a28-729fa76a0e8a" cx="200.5" cy="250.5" rx="2.498833" ry="3.50077" transform="translate(-7.53148 6.218598) rotate(-1.744159)" fill="none" stroke="#000" stroke-linecap="round" stroke-linejoin="round"/><rect id="uuid-1d94171a-a952-4252-8bbd-2053ee13153a" x="141.223882" y="295.863617" width="24.734118" height="11.594098" transform="translate(-181.819484 347.368236) rotate(-70.777117)" fill="none" stroke="#000" stroke-linecap="round" stroke-linejoin="round"/><rect id="uuid-c619459e-15fc-4d81-b2e9-0709c083a594" x="145.591957" y="277.948989" width="24.734118" height="11.594098" transform="translate(-139.925295 413.082044) rotate(-84.365302)" fill="none" stroke="#000" stroke-linecap="round" stroke-linejoin="round"/><rect id="uuid-98acad0b-f902-4ce3-b037-6bfb2a17ed7a" x="208.025877" y="271.378979" width="11.594098" height="24.734118" transform="translate(-22.334691 18.299927) rotate(-4.657673)" fill="none" stroke="#000" stroke-linecap="round" stroke-linejoin="round"/><rect id="uuid-dd497957-489e-4b51-8016-8574e6273ef8" x="210.3344" y="286.522817" width="24.734118" height="11.594098" transform="translate(-137.925545 221.644496) rotate(-41.610094)" fill="none" stroke="#000" stroke-linecap="round" stroke-linejoin="round"/><rect id="uuid-054fa17f-34e9-445c-bcf0-eb551453c4be" x="141.27009" y="313.078481" width="12.367061" height="12.367061" transform="translate(-202.556128 353.379129) rotate(-70.777087)" fill="none" stroke="#000" stroke-linecap="round" stroke-linejoin="round"/><rect id="uuid-d118dc68-d701-466f-a044-34e14e783016" x="230.433807" y="273.776856" width="12.367061" height="12.367061" transform="translate(-126.206868 227.766723) rotate(-41.610064)" fill="none" stroke="#000" stroke-linecap="round" stroke-linejoin="round"/><circle id="uuid-089718fd-3dd5-4b6c-837c-e5088baba8b5" cx="185.5" cy="307.5" r="1.5" fill="none" stroke="#000" stroke-linecap="round" stroke-linejoin="round"/><circle id="uuid-92270047-5dd4-4529-97fb-7f279ac9b3ac" cx="185.5" cy="301.5" r="1.5" fill="none" stroke="#000" stroke-linecap="round" stroke-linejoin="round"/><circle id="uuid-269178d7-a99b-4f35-b254-f75b78843e8e" cx="185.5" cy="287.5" r="1.5" fill="none" stroke="#000" stroke-linecap="round" stroke-linejoin="round"/><rect id="uuid-e5be2a43-182b-40a1-abdf-be8a03613ab0" x="164" y="329" width="8" height="13" fill="none" stroke="#000" stroke-linecap="round" stroke-linejoin="round"/><rect id="uuid-8cc4b564-3174-4078-9bd7-4a324968961c" x="150.082456" y="349.617296" width="13.205536" height="8.467131" transform="translate(-211.930512 236.024164) rotate(-48.389936)" fill="none" stroke="#000" stroke-linecap="round" stroke-linejoin="round"/><rect id="uuid-eed5a086-b212-4444-9d4c-1c71aa332dee" x="188.790262" y="363.456374" width="13.205536" height="8.467131" transform="translate(-42.041314 25.638393) rotate(-6.779873)" fill="none" stroke="#000" stroke-linecap="round" stroke-linejoin="round"/><path d="M173.235095,211.704076c-.302741.069424-.476563.391291-.709868.582338-7.535035,6.170232-11.642254,9.160834-15.444257,10.682066-3.919723,1.568334-12.179452,6.077478-12.179452,6.03152h16.275531l4.522913,1.887203,7.848854-3.887203h6.812251c0,.400964,5.241503-3.390481,5.212087-.838409s2.208132-.525068,2.208132-.525068l6.594981.976868,5.585303-1.32812,1.564743-1.604216s21.795472-23.462828-28.291219-11.976979Z" fill="none" stroke="#000" stroke-linecap="round" stroke-linejoin="round"/><polygon id="uuid-33d9a3d7-95bf-4936-96ab-2625d3b0e834" points="142.171897 363.087997 156.751616 368.226708 147.820487 393.566395 146.021935 398.669305 124.152323 390.961225 125.950875 385.858316 133.240768 388.427683 142.171897 363.087997" fill="none" stroke="#000" stroke-linecap="round" stroke-linejoin="round"/><rect id="uuid-ca7403ba-01f4-4f1a-be32-bf45432bc204" x="142.573589" y="345.664561" width="37.987324" height="19.243931" transform="translate(-206.824552 226.368055) rotate(-46.258778)" fill="none" stroke="#000" stroke-linecap="round" stroke-linejoin="round"/><polygon id="uuid-ce6925e9-3e01-4f14-9dc3-a629fb64b501" points="184.080527 375.111296 197.910672 382.503056 185.072332 406.523871 191.623463 410.025237 189.28922 414.392657 168.907922 403.49952 171.451212 398.740971 171.451232 398.740982 184.080527 375.111296" fill="none" stroke="#000" stroke-linecap="round" stroke-linejoin="round"/><rect id="uuid-0d026526-51da-45a0-a142-37741512b524" x="174.730871" y="353.419652" width="37.965917" height="18.982988" transform="translate(-199.175249 484.844401) rotate(-79.149447)" fill="none" stroke="#000" stroke-linecap="round" stroke-linejoin="round"/><path id="uuid-fc058ec0-9bfe-4865-9807-e0f2eee56a4e" d="M164,271v78s43,0,43,0v-78s-43,0-43,0Z" fill="none" stroke="#000" stroke-linecap="round" stroke-linejoin="round"/><rect id="uuid-ed723a6b-352f-43cd-825c-592723257f8d" x="199" y="317" width="8" height="13" fill="none" stroke="#000" stroke-linecap="round" stroke-linejoin="round"/><path id="uuid-a08defa3-017f-441b-80f3-0cea39f7e700" d="M164.838593,261.886621c-2.092446-3.898808-3.58889-8.408681-4.254989-13.30876-2.300004-16.919721,6.122588-32.034285,18.81239-33.759289,12.689802-1.725004,24.841445,10.592775,27.141448,27.512496.666098,4.900079.427821,9.645764-.54795,13.961653l-41.1509,5.5939Z" fill="none" stroke="#000" stroke-linecap="round" stroke-linejoin="round"/><path id="uuid-5b4ab1d4-27c7-4bea-b7a4-86c83a7ed508" d="M204.833985,266c-4.116512,8.60987-11.336299,14.325456-19.561821,14.325456-8.225522,0-15.44531-5.715586-19.561821-14.325456h39.123643Z" fill="none" stroke="#000" stroke-linecap="round" stroke-linejoin="round"/><ellipse id="uuid-765f6abe-cd3f-4106-862d-de82e66969e7" cx="188.5" cy="250.5" rx="2.494133" ry="3.503918" transform="translate(-16.664293 13.455462) rotate(-3.91522)" fill="none" stroke="#000" stroke-linecap="round" stroke-linejoin="round"/><ellipse id="uuid-5a4707b3-3cf3-453b-bd99-877bc2bd27a3" cx="200.5" cy="250.5" rx="2.498833" ry="3.50077" transform="translate(-7.53148 6.218598) rotate(-1.744159)" fill="none" stroke="#000" stroke-linecap="round" stroke-linejoin="round"/><rect id="uuid-624d4c82-cf23-4f37-bb68-822c5e129c0c" x="141.223882" y="295.863617" width="24.734118" height="11.594098" transform="translate(-181.819484 347.368236) rotate(-70.777117)" fill="none" stroke="#000" stroke-linecap="round" stroke-linejoin="round"/><rect id="uuid-0ac6d737-9d6f-4a0c-ab4d-8e88fcbe9984" x="145.591957" y="277.948989" width="24.734118" height="11.594098" transform="translate(-139.925295 413.082044) rotate(-84.365302)" fill="none" stroke="#000" stroke-linecap="round" stroke-linejoin="round"/><rect id="uuid-27c1a890-92c7-4683-87eb-d78b4c7a1f16" x="208.025877" y="271.378979" width="11.594098" height="24.734118" transform="translate(-22.334691 18.299927) rotate(-4.657673)" fill="none" stroke="#000" stroke-linecap="round" stroke-linejoin="round"/><rect id="uuid-6d4ddba8-baec-4071-ab00-5466c79898e2" x="210.3344" y="286.522817" width="24.734118" height="11.594098" transform="translate(-137.925545 221.644496) rotate(-41.610094)" fill="none" stroke="#000" stroke-linecap="round" stroke-linejoin="round"/><rect id="uuid-e05a495c-d30a-4f43-877a-913ff734055b" x="141.27009" y="313.078481" width="12.367061" height="12.367061" transform="translate(-202.556128 353.379129) rotate(-70.777087)" fill="none" stroke="#000" stroke-linecap="round" stroke-linejoin="round"/><rect id="uuid-671781e3-a8be-42cc-9348-b150c46d53ce" x="230.433807" y="273.776856" width="12.367061" height="12.367061" transform="translate(-126.206868 227.766723) rotate(-41.610064)" fill="none" stroke="#000" stroke-linecap="round" stroke-linejoin="round"/><circle id="uuid-811ee4d3-fea7-4ea6-a2ce-f30da66d60bd" cx="185.5" cy="307.5" r="1.5" fill="none" stroke="#000" stroke-linecap="round" stroke-linejoin="round"/><circle id="uuid-943ee2f2-4b2c-45ca-83a8-956b18b82356" cx="185.5" cy="301.5" r="1.5" fill="none" stroke="#000" stroke-linecap="round" stroke-linejoin="round"/><circle id="uuid-a94ee07a-0549-4031-902f-921515f78887" cx="185.5" cy="287.5" r="1.5" fill="none" stroke="#000" stroke-linecap="round" stroke-linejoin="round"/><rect id="uuid-5def23aa-a4af-46f1-8109-3c5b4284c51f" x="164" y="329" width="8" height="13" fill="none" stroke="#000" stroke-linecap="round" stroke-linejoin="round"/><rect id="uuid-7f2f312f-4431-4c46-aea8-3e64d71d9779" x="150.082456" y="349.617296" width="13.205536" height="8.467131" transform="translate(-211.930512 236.024164) rotate(-48.389936)" fill="none" stroke="#000" stroke-linecap="round" stroke-linejoin="round"/><rect id="uuid-f048e0ba-da1c-4f14-97d6-0d9ad5c1b7db" x="188.790262" y="363.456374" width="13.205536" height="8.467131" transform="translate(-42.041314 25.638393) rotate(-6.779873)" fill="none" stroke="#000" stroke-linecap="round" stroke-linejoin="round"/><path d="M173.235095,211.704076c-.302741.069424-.476563.391291-.709868.582338-7.535035,6.170232-11.642254,9.160834-15.444257,10.682066-3.919723,1.568334-12.179452,6.077478-12.179452,6.03152h16.275531l4.522913,1.887203,7.848854-3.887203h6.812251c0,.400964,5.241503-3.390481,5.212087-.838409s2.208132-.525068,2.208132-.525068l6.594981.976868,5.585303-1.32812,1.564743-1.604216s21.795472-23.462828-28.291219-11.976979Z" fill="none" stroke="#000" stroke-linecap="round" stroke-linejoin="round"/></g></g><text transform="translate(82.342529 105.647644)" fill="#333" font-family="ComicNeue-Regular, &apos;Comic Neue&apos;" font-size="24"><tspan x="0" y="0">Food and fuel shortages led to </tspan><tspan x="0" y="28.799805">malnutrition and hopelessness.</tspan></text></svg>