<?xml version="1.0" encoding="UTF-8"?><svg id="uuid-4a6947cd-d712-4481-ab89-645da346e525" xmlns="http://www.w3.org/2000/svg" xmlns:xlink="http://www.w3.org/1999/xlink" viewBox="0 0 500 500"><defs><radialGradient id="uuid-c18fc18e-51ea-4c84-b349-6854ea5dc2e2" cx="423.76831" cy="-1631.698618" fx="423.76831" fy="-1631.698618" r="22.674787" gradientTransform="translate(-1710.353129 -2541.319253) rotate(136.487334) scale(1.184661 2.0157)" gradientUnits="userSpaceOnUse"><stop offset=".4156" stop-color="#82aec0"/><stop offset="1" stop-color="#7fa9bb" stop-opacity="0"/></radialGradient></defs><path d="M294.295481,187.066269l-18.141348-38.077023-13.201425,14.109188,7.073892,8.831229c.67282,2.424617-.649638,5.07901.023174,7.503634.349197,1.244433,1.203077,2.293052,2.208329,3.109419,2.081696,1.689096,5.077384,2.811484,5.690556,5.434392.719149,3.088917-1.647207,6.415651,1.036566,9.05598,2.471558,2.416829,17.415211-5.324964,15.310257-9.966818Z" fill="#c62828"/><path d="M301.661589,191.990068l1.176526-.532629c4.641861-2.104948,6.70027-7.565236,4.595315-12.20709l-19.108304-42.117067-15.133861,14.367858c.927571,2.058809,1.280652,2.803737,2.198908,4.87139.832197,1.883743.806158,3.236517,2.667865,4.302218,1.844034,1.047071,3.808066,2.369768,4.40602,4.529017.67282,2.424617-.649638,5.07901.023174,7.503634.349197,1.244433,1.203077,2.293052,2.208329,3.109419,2.081696,1.689096,5.077384,2.811484,5.690556,5.434392.719149,3.088917-1.647207,6.415651,1.036566,9.05598,2.453407,2.416337,7.122755,3.100759,10.238907,1.682878Z" fill="#f44336"/><path d="M287.925506,178.062556c1.733209,1.116864,1.052762,2.134723.195019,2.984474-2.079663,2.08064-5.70567,3.894041-7.68573,4.587488-.751893.271151-1.537268.432428-2.311443.512254-.582842.057537-1.168871-.112105-1.594686-.50467-1.22346-1.158128-2.918121-2.010566-4.252398-3.098908-.551491-.450334-1.055471-.981183-1.449112-1.563666-.315004-.462358-.043867-1.109336.495706-1.249745,1.362673-.355212,3.733299-1.047591,4.998354-1.841353,2.511493-1.569835,3.770652-2.836093,4.701023-3.683951.688706-.636136,1.803579-.543597,2.34705.21536.376896.527549.837143.993678,1.326264,1.396972.987578.797737,2.131107,1.535946,3.229952,2.245745Z" fill="#a12524"/><path d="M291.413832,190.297867c5.014549,2.78261,9.43372,1.2078,12.887369-1.663766,3.351204-2.774306,3.859385-6.603473,3.859385-6.603473,1.929233,11.059383-13.643007,17.821992-17.210077,18.764901-5.451171,1.439001-7.939348.011861-11.735404-3.520292-.239667-.215148-.600065-1.378116.701546-1.480575,1.966383-.166947,3.542431-1.043468,5.232132-2.098707,2.077545-1.299514,2.9116-2.286135,3.663605-2.911536.965733-.810612,1.616602-1.038973,2.601443-.486553Z" fill="#a12524"/><path d="M288.334434,137.124431l5.113306,11.223806s-5.536562-2.269308-11.924895,5.176852c-4.327659,5.047103-4.170365,8.085103-4.170365,8.085103l-7.097806-6.860716,18.07976-17.625044Z" fill="#c62828"/><path d="M232.842213,238.255285s9.356825-53.204789,34.872939-78.757452c10.976653-10.987703,19.117762-18.769868,21.082836-20.635479,6.165305-5.853247,4.987916-21.380388-9.654034-36.802955-14.64195-15.422566-32.536815-18.212597-38.702112-12.359357-.912691.866495-10.115359,10.701227-22.224108,21.559622-28.487042,25.575445-77.48896,29.971272-77.48896,29.971272l92.11344,97.024348Z" fill="#e0e0e0"/><path d="M221.407416,183.275281c2.838419.882133,6.92426,5.148501,10.411447,9.381151,2.491849,3.035032,7.330593,2.443059,8.994566-1.119909,11.402702-24.247747,26.867721-37.725898,26.867721-37.725898l2.085727,3.633078c-.67149.672911-1.352289,1.354674-2.042409,2.045272-15.41584,15.432391-24.935019,40.955331-30.047935,58.753544,0,0-1.3044-8.536089-6.145711-17.291185-5.059049-9.115002-10.123405-17.676053-10.123405-17.676053Z" fill="#bdbdbd"/><path d="M250.943754,128.832233c-8.355463-8.800923-20.605484-15.940756-30.72605-19.382782,11.099271-10.112503,19.348703-18.918292,20.214826-19.740576,6.165305-5.853247,24.060159-3.063213,38.702112,12.359357,14.641953,15.42257,15.828643,30.940868,9.654031,36.802951-1.965074,1.865612-10.106175,9.647769-21.082836,20.635479-.065192.061892-.130855.141943-.196047.203835-2.936476-11.448873-8.237098-22.10528-16.566036-30.878265Z" fill="#f44336"/><ellipse cx="187" cy="190" rx="26.787016" ry="66.960429" transform="translate(-79.42413 180.662835) rotate(-43.448745)" fill="#2f7889"/><path d="M167.376898,208.169335c-27.763122-29.243276-41.957217-57.716392-29.300652-69.732342,12.656565-12.01595,43.139822.974775,70.911786,30.227365,27.771963,29.25259,39.163274,60.368921,26.506709,72.384871-12.656565,12.01595-40.34588-3.627304-68.117843-32.879893ZM170.170841,205.516808c25.579204,26.942926,52.158549,37.406978,60.018844,29.944533s-1.210337-34.549002-26.789541-61.491928c-25.579204-26.942926-52.167862-37.398135-60.018844-29.944533-7.850982,7.453603,1.219175,34.558311,26.78954,61.491927Z" fill="#e0e0e0"/><path d="M168.23112,144.833604c2.995574,1.476648,10.805738,3.641488,27.941039,18.892623.577069.514579,3.218632,2.681473,4.587662,1.381737.912688-.866492-.12581-2.501249-1.92953-4.401131-7.029199-7.403951-16.012755-14.404467-26.528853-19.755231-5.944106-3.015665-8.205293,1.858005-4.070318,3.882003Z" fill="#fff"/><path d="M192.196821,163.250585l-15.656657,18.759816,17.595101,18.533161,20.459973-13.439299c-12.753254-15.745957-22.398417-23.853678-22.398417-23.853678Z" fill="url(#uuid-c18fc18e-51ea-4c84-b349-6854ea5dc2e2)"/><ellipse cx="185.000001" cy="191.000001" rx="6.064036" ry="12.772402" transform="translate(-80.872242 186.763144) rotate(-45.001247)" fill="#e0e0e0"/><path d="M272.764218,159.202002l1.847917.54758,2.554261,8.677543c.308763,1.052629-.102192,2.186491-1.025964,2.780181l-6.011472,3.777102s-3.307266-.66722-4.010593-.867151-.857293-.567272-.857293-.567272l6.780229-4.347575c.009315-.008844.589703-9.767699.722915-10.000408Z" fill="#353738"/><path d="M273,167.073913l-.131044-7.897029-7.002068,6.594537-.703848,7.166826c.002483.953842.902215,1.286042,1.688181.752351l4.504393-3.107709c1.128649-.788211,1.76264-2.116121,1.644386-3.508977Z" fill="#616161"/><path d="M210.714622,129.804252c-6.647246,4.823374-14.183729,8.560873-22.261349,10.049768,10.279258,5.026689,20.552413,13.087135,27.306355,22.346071,1.465794-3.976878,2.95953-7.980284,5.071353-11.649714,1.769014-3.060648,3.948994-5.85629,6.208542-8.568106,5.664266-6.847283,11.472479-12.591704,18.022807-18.580294-.18626.176832-4.827589-3.686109-8.686818-6.184375-3.859232-2.49827-6.446199-3.619134-6.446199-3.619134,0,0-12.910145,11.63694-19.214691,16.205784Z" fill="#fff"/><path d="M232.054355,110.819568c9.29016-8.306421,19.491239-17.760979,19.491239-17.760979,0,0,8.320719-.356217,17.433376,7.61959,0,0-10.756686,10.212234-20.358181,19.664185-6.666198-5.641396-13.108503-8.361154-16.566433-9.522796Z" fill="#ff7555"/><path d="M294.295481,187.066269l-18.141348-38.077023-13.201425,14.109188,7.073892,8.831229c.67282,2.424617-.649638,5.07901.023174,7.503634.349197,1.244433,1.203077,2.293052,2.208329,3.109419,2.081696,1.689096,5.077384,2.811484,5.690556,5.434392.719149,3.088917-1.647207,6.415651,1.036566,9.05598,2.471558,2.416829,17.415211-5.324964,15.310257-9.966818Z" fill="none" stroke="#000" stroke-linecap="round" stroke-linejoin="round"/><path d="M301.661589,191.990068l1.176526-.532629c4.641861-2.104948,6.70027-7.565236,4.595315-12.20709l-19.108304-42.117067-15.133861,14.367858c.927571,2.058809,1.280652,2.803737,2.198908,4.87139.832197,1.883743.806158,3.236517,2.667865,4.302218,1.844034,1.047071,3.808066,2.369768,4.40602,4.529017.67282,2.424617-.649638,5.07901.023174,7.503634.349197,1.244433,1.203077,2.293052,2.208329,3.109419,2.081696,1.689096,5.077384,2.811484,5.690556,5.434392.719149,3.088917-1.647207,6.415651,1.036566,9.05598,2.453407,2.416337,7.122755,3.100759,10.238907,1.682878Z" fill="none" stroke="#000" stroke-linecap="round" stroke-linejoin="round"/><path d="M287.925506,178.062556c1.733209,1.116864,1.052762,2.134723.195019,2.984474-2.079663,2.08064-5.70567,3.894041-7.68573,4.587488-.751893.271151-1.537268.432428-2.311443.512254-.582842.057537-1.168871-.112105-1.594686-.50467-1.22346-1.158128-2.918121-2.010566-4.252398-3.098908-.551491-.450334-1.055471-.981183-1.449112-1.563666-.315004-.462358-.043867-1.109336.495706-1.249745,1.362673-.355212,3.733299-1.047591,4.998354-1.841353,2.511493-1.569835,3.770652-2.836093,4.701023-3.683951.688706-.636136,1.803579-.543597,2.34705.21536.376896.527549.837143.993678,1.326264,1.396972.987578.797737,2.131107,1.535946,3.229952,2.245745Z" fill="none" stroke="#000" stroke-linecap="round" stroke-linejoin="round"/><path d="M291.413832,190.297867c5.014549,2.78261,9.43372,1.2078,12.887369-1.663766,3.351204-2.774306,3.859385-6.603473,3.859385-6.603473,1.929233,11.059383-13.643007,17.821992-17.210077,18.764901-5.451171,1.439001-7.939348.011861-11.735404-3.520292-.239667-.215148-.600065-1.378116.701546-1.480575,1.966383-.166947,3.542431-1.043468,5.232132-2.098707,2.077545-1.299514,2.9116-2.286135,3.663605-2.911536.965733-.810612,1.616602-1.038973,2.601443-.486553Z" fill="none" stroke="#000" stroke-linecap="round" stroke-linejoin="round"/><path d="M288.334434,137.124431l5.113306,11.223806s-5.536562-2.269308-11.924895,5.176852c-4.327659,5.047103-4.170365,8.085103-4.170365,8.085103l-7.097806-6.860716,18.07976-17.625044Z" fill="none" stroke="#000" stroke-linecap="round" stroke-linejoin="round"/><path d="M232.842213,238.255285s9.356825-53.204789,34.872939-78.757452c10.976653-10.987703,19.117762-18.769868,21.082836-20.635479,6.165305-5.853247,4.987916-21.380388-9.654034-36.802955-14.64195-15.422566-32.536815-18.212597-38.702112-12.359357-.912691.866495-10.115359,10.701227-22.224108,21.559622-28.487042,25.575445-77.48896,29.971272-77.48896,29.971272l92.11344,97.024348Z" fill="none" stroke="#000" stroke-linecap="round" stroke-linejoin="round"/><path d="M221.407416,183.275281c2.838419.882133,6.92426,5.148501,10.411447,9.381151,2.491849,3.035032,7.330593,2.443059,8.994566-1.119909,11.402702-24.247747,26.867721-37.725898,26.867721-37.725898l2.085727,3.633078c-.67149.672911-1.352289,1.354674-2.042409,2.045272-15.41584,15.432391-24.935019,40.955331-30.047935,58.753544,0,0-1.3044-8.536089-6.145711-17.291185-5.059049-9.115002-10.123405-17.676053-10.123405-17.676053Z" fill="none" stroke="#000" stroke-linecap="round" stroke-linejoin="round"/><path d="M250.943754,128.832233c-8.355463-8.800923-20.605484-15.940756-30.72605-19.382782,11.099271-10.112503,19.348703-18.918292,20.214826-19.740576,6.165305-5.853247,24.060159-3.063213,38.702112,12.359357,14.641953,15.42257,15.828643,30.940868,9.654031,36.802951-1.965074,1.865612-10.106175,9.647769-21.082836,20.635479-.065192.061892-.130855.141943-.196047.203835-2.936476-11.448873-8.237098-22.10528-16.566036-30.878265Z" fill="none" stroke="#000" stroke-linecap="round" stroke-linejoin="round"/><ellipse cx="187" cy="190" rx="26.787016" ry="66.960429" transform="translate(-79.42413 180.662835) rotate(-43.448745)" fill="none" stroke="#000" stroke-linecap="round" stroke-linejoin="round"/><path d="M167.376898,208.169335c-27.763122-29.243276-41.957217-57.716392-29.300652-69.732342,12.656565-12.01595,43.139822.974775,70.911786,30.227365,27.771963,29.25259,39.163274,60.368921,26.506709,72.384871-12.656565,12.01595-40.34588-3.627304-68.117843-32.879893ZM170.170841,205.516808c25.579204,26.942926,52.158549,37.406978,60.018844,29.944533s-1.210337-34.549002-26.789541-61.491928c-25.579204-26.942926-52.167862-37.398135-60.018844-29.944533-7.850982,7.453603,1.219175,34.558311,26.78954,61.491927Z" fill="none" stroke="#000" stroke-linecap="round" stroke-linejoin="round"/><path d="M168.23112,144.833604c2.995574,1.476648,10.805738,3.641488,27.941039,18.892623.577069.514579,3.218632,2.681473,4.587662,1.381737.912688-.866492-.12581-2.501249-1.92953-4.401131-7.029199-7.403951-16.012755-14.404467-26.528853-19.755231-5.944106-3.015665-8.205293,1.858005-4.070318,3.882003Z" fill="none" stroke="#000" stroke-linecap="round" stroke-linejoin="round"/><path d="M192.196821,163.250585l-15.656657,18.759816,17.595101,18.533161,20.459973-13.439299c-12.753254-15.745957-22.398417-23.853678-22.398417-23.853678Z" fill="none" stroke="#000" stroke-linecap="round" stroke-linejoin="round"/><ellipse cx="185.000001" cy="191.000001" rx="6.064036" ry="12.772402" transform="translate(-80.872242 186.763144) rotate(-45.001247)" fill="none" stroke="#000" stroke-linecap="round" stroke-linejoin="round"/><path d="M272.764218,159.202002l1.847917.54758,2.554261,8.677543c.308763,1.052629-.102192,2.186491-1.025964,2.780181l-6.011472,3.777102s-3.307266-.66722-4.010593-.867151-.857293-.567272-.857293-.567272l6.780229-4.347575c.009315-.008844.589703-9.767699.722915-10.000408Z" fill="none" stroke="#000" stroke-linecap="round" stroke-linejoin="round"/><path d="M273,167.073913l-.131044-7.897029-7.002068,6.594537-.703848,7.166826c.002483.953842.902215,1.286042,1.688181.752351l4.504393-3.107709c1.128649-.788211,1.76264-2.116121,1.644386-3.508977Z" fill="none" stroke="#000" stroke-linecap="round" stroke-linejoin="round"/><path d="M210.714622,129.804252c-6.647246,4.823374-14.183729,8.560873-22.261349,10.049768,10.279258,5.026689,20.552413,13.087135,27.306355,22.346071,1.465794-3.976878,2.95953-7.980284,5.071353-11.649714,1.769014-3.060648,3.948994-5.85629,6.208542-8.568106,5.664266-6.847283,11.472479-12.591704,18.022807-18.580294-.18626.176832-4.827589-3.686109-8.686818-6.184375-3.859232-2.49827-6.446199-3.619134-6.446199-3.619134,0,0-12.910145,11.63694-19.214691,16.205784Z" fill="none" stroke="#000" stroke-linecap="round" stroke-linejoin="round"/><path d="M232.054355,110.819568c9.29016-8.306421,19.491239-17.760979,19.491239-17.760979,0,0,8.320719-.356217,17.433376,7.61959,0,0-10.756686,10.212234-20.358181,19.664185-6.666198-5.641396-13.108503-8.361154-16.566433-9.522796Z" fill="none" stroke="#000" stroke-linecap="round" stroke-linejoin="round"/><text transform="translate(58.171234 408.540222)" fill="#333" font-family="ComicNeue-Regular, &apos;Comic Neue&apos;" font-size="24"><tspan x="0" y="0">Censorship, propaganda, and </tspan><tspan x="0" y="28.799805">surveillance suppressed civil liberties.</tspan></text><g id="uuid-e71b7427-1205-451f-a712-1ec6e6d2ad3a"><polygon id="uuid-b084783b-370f-470c-bf7a-3c585c5ec467" points="92.696971 323.068668 103.245848 320.376447 107.951822 338.815774 108.899512 342.529088 93.076196 346.56742 92.133919 342.875313 97.408358 341.529202 92.696971 323.068668" fill="#097039"/><rect id="uuid-99f87bdd-f61b-4f4a-84cb-0f379795707f" x="93.267939" y="313.982246" width="21.229658" height="10.887012" transform="translate(-205.395391 188.385831) rotate(-49.022401)" fill="#097039"/><polygon id="uuid-3344f3d1-fb38-4c10-b4ad-65ba32d15b27" points="142.062137 324.157367 138.642222 334.49326 156.730061 340.47812 155.020101 345.646074 158.637669 346.843046 163.767549 331.339184 160.129202 330.135336 160.129197 330.135352 142.062137 324.157367" fill="#097039"/><rect id="uuid-0e031090-b69f-44e2-94f6-e7adc4eed62e" x="131.148706" y="312.199796" width="10.887021" height="21.229658" transform="translate(-158.052593 132.943217) rotate(-34.267324)" fill="#097039"/><polygon id="uuid-c58a0c4f-4ba0-4406-9697-ebab9eb47f83" points="116.030024 292.933327 116.016201 293 116.076379 293 120.05504 271.714104 117.154061 267 125.911956 267 123.010977 271.714104 126.989637 293 127.049815 293 127.035993 292.933327 127.049815 293 126.979071 293 121.533008 300.087195 116.086946 293 116.016201 293 116.030024 292.933327" fill="#c1272d"/><path id="uuid-1b019aaa-e297-49a5-a98b-80e17fe38a23" d="M137,263v54h-30v-54h30ZM121.533008,289.633792l10.760163-26.633792h-21.520326l10.760163,26.633792Z" fill="#097039"/><path id="uuid-58dcdbb8-37b4-461b-a0e0-28a8f128c8f9" d="M107.371932,256.447212c-1.522032-2.709474-2.63381-5.856098-3.167789-9.287951-1.843805-11.850014,3.866249-22.577393,12.753768-23.960248,8.887518-1.382855,17.586978,7.102473,19.430783,18.952487.53398,3.431853.430815,6.767517-.19603,9.811346l-28.820731,4.484367Z" fill="#eec6a2"/><path id="uuid-0d3343cc-4f09-4153-babe-b390503fa1f9" d="M135.183274,259c-2.891169,6.047011-7.961877,10.061266-13.738947,10.061266s-10.847778-4.014255-13.738947-10.061266h27.477895Z" fill="#eec6a2"/><ellipse id="uuid-a06dade5-2666-4220-a8d5-ec1c98b62d91" cx="122.5" cy="247.5" rx="1.5" ry="2.5" fill="#333"/><ellipse id="uuid-aa614d7f-850a-4ece-ab99-0987e912a2dd" cx="131.5" cy="245.5" rx="1.5" ry="2.5" fill="#333"/><path id="uuid-6af8ddfb-072c-4612-aaa9-00230c19324b" d="M103.850514,230.969572c4.328959-6.43133,14.893288-7.794334,20.125559-8.469393,6.551362-.845251,14.392125-.729407,14.881793,1.206073.433921,1.715133-5.196929,3.70431-4.774207,6.374002.307459,1.941766,3.56469,2.647638,3.313887,3.216459-.532012,1.206612-14.756882-2.949084-17.174576.245829-1.086224,1.435409.953442,3.373232-.28021,4.452529-1.274512,1.115051-3.8008-.647765-9.286835-1.051699-4.721445-.347637-6.859451.662859-7.93388-.521941-1.429406-1.576231.844512-5.030006,1.128469-5.451859Z" fill="#534741"/><rect id="uuid-a3f018d7-cd78-4cad-ae94-73d1d6e7d90c" x="85.347491" y="250.952448" width="8.142938" height="17.371631" transform="translate(-99.961619 60.784613) rotate(-24.59862)" fill="#097039"/><rect id="uuid-28115528-f590-4e4d-8f3e-e21e7ea9ec4b" x="94.309604" y="257.380349" width="8.142938" height="17.371631" transform="translate(-176.569213 335.868599) rotate(-83.952439)" fill="#097039"/><rect id="uuid-51343e6f-6d83-496e-8eb1-23ccfae5fcbc" x="139.176081" y="260.500571" width="8.142938" height="17.371631" transform="translate(-159.829671 302.732912) rotate(-68.296475)" fill="#097039"/><rect id="uuid-6f439c14-f3be-4d39-8a53-19a6ab028181" x="148.372679" y="269.384707" width="8.142938" height="17.371631" transform="translate(-110.442258 100.720103) rotate(-27.262826)" fill="#097039"/><rect id="uuid-0d2ac863-3d03-45b9-a34a-0c8afcd80e7f" x="80.040573" y="244.296213" width="8.685817" height="8.685817" transform="translate(-95.840118 57.690335) rotate(-24.59862)" fill="#eec6a2"/><rect id="uuid-d2bbd98a-4433-4b7e-9637-4b1221186d9b" x="153.75897" y="284.706737" width="8.685817" height="8.685817" transform="translate(-114.843006 104.531376) rotate(-27.262826)" fill="#eec6a2"/><polygon id="uuid-73f17908-2aa2-402b-a305-b01dc209357b" points="92.696971 323.068668 103.245848 320.376447 107.951822 338.815774 108.899512 342.529088 93.076196 346.56742 92.133919 342.875313 97.408358 341.529202 92.696971 323.068668" fill="none" stroke="#000" stroke-linecap="round" stroke-linejoin="round"/><rect id="uuid-59fc5ed3-a444-466a-bb6c-71c3e09abe3b" x="93.267939" y="313.982246" width="21.229658" height="10.887012" transform="translate(-205.395391 188.385831) rotate(-49.022401)" fill="none" stroke="#000" stroke-linecap="round" stroke-linejoin="round"/><polygon id="uuid-708aaf64-417b-49ab-948c-1821a67e81a6" points="142.062137 324.157367 138.642222 334.49326 156.730061 340.47812 155.020101 345.646074 158.637669 346.843046 163.767549 331.339184 160.129202 330.135336 160.129197 330.135352 142.062137 324.157367" fill="none" stroke="#000" stroke-linecap="round" stroke-linejoin="round"/><rect id="uuid-f9fd10aa-7099-4702-8fc7-fcc3d5e51891" x="131.148706" y="312.199796" width="10.887021" height="21.229658" transform="translate(-158.052593 132.943217) rotate(-34.267324)" fill="none" stroke="#000" stroke-linecap="round" stroke-linejoin="round"/><polygon id="uuid-6eb9c599-faa1-4cec-b0d7-846d46434c12" points="116.030024 292.933327 116.016201 293 116.076379 293 120.05504 271.714104 117.154061 267 125.911956 267 123.010977 271.714104 126.989637 293 127.049815 293 127.035993 292.933327 127.049815 293 126.979071 293 121.533008 300.087195 116.086946 293 116.016201 293 116.030024 292.933327" fill="none" stroke="#000" stroke-linecap="round" stroke-linejoin="round"/><path id="uuid-0889a29a-f91c-4933-8b4c-60ee8d185541" d="M137,263v54h-30v-54h30ZM121.533008,289.633792l10.760163-26.633792h-21.520326l10.760163,26.633792Z" fill="none" stroke="#000" stroke-linecap="round" stroke-linejoin="round"/><path id="uuid-204dd195-9b24-42a5-8869-c4b6f40084bf" d="M107.371932,256.447212c-1.522032-2.709474-2.63381-5.856098-3.167789-9.287951-1.843805-11.850014,3.866249-22.577393,12.753768-23.960248,8.887518-1.382855,17.586978,7.102473,19.430783,18.952487.53398,3.431853.430815,6.767517-.19603,9.811346l-28.820731,4.484367Z" fill="none" stroke="#000" stroke-linecap="round" stroke-linejoin="round"/><path id="uuid-e866140d-82f0-42fd-977b-0fde49577398" d="M135.183274,259c-2.891169,6.047011-7.961877,10.061266-13.738947,10.061266s-10.847778-4.014255-13.738947-10.061266h27.477895Z" fill="none" stroke="#000" stroke-linecap="round" stroke-linejoin="round"/><ellipse id="uuid-cf77047d-0eeb-4d46-ba71-4fd2b2ed1d57" cx="122.5" cy="247.5" rx="1.5" ry="2.5" fill="none" stroke="#000" stroke-linecap="round" stroke-linejoin="round"/><ellipse id="uuid-6a32a490-b37c-4fa5-a055-3c592e5e6fab" cx="131.5" cy="245.5" rx="1.5" ry="2.5" fill="none" stroke="#000" stroke-linecap="round" stroke-linejoin="round"/><path id="uuid-d43814ee-156c-494a-b035-95e8cf33ab8d" d="M103.850514,230.969572c4.328959-6.43133,14.893288-7.794334,20.125559-8.469393,6.551362-.845251,14.392125-.729407,14.881793,1.206073.433921,1.715133-5.196929,3.70431-4.774207,6.374002.307459,1.941766,3.56469,2.647638,3.313887,3.216459-.532012,1.206612-14.756882-2.949084-17.174576.245829-1.086224,1.435409.953442,3.373232-.28021,4.452529-1.274512,1.115051-3.8008-.647765-9.286835-1.051699-4.721445-.347637-6.859451.662859-7.93388-.521941-1.429406-1.576231.844512-5.030006,1.128469-5.451859Z" fill="none" stroke="#000" stroke-linecap="round" stroke-linejoin="round"/><rect id="uuid-6d49f0e4-e49d-4b68-8f10-805e243df697" x="85.347491" y="250.952448" width="8.142938" height="17.371631" transform="translate(-99.961619 60.784613) rotate(-24.59862)" fill="none" stroke="#000" stroke-linecap="round" stroke-linejoin="round"/><rect id="uuid-e83a3289-3933-4080-8e78-eafc76b63203" x="94.309604" y="257.380349" width="8.142938" height="17.371631" transform="translate(-176.569213 335.868599) rotate(-83.952439)" fill="none" stroke="#000" stroke-linecap="round" stroke-linejoin="round"/><rect id="uuid-c852a7b4-17f8-4726-a47d-4942d14e9906" x="139.176081" y="260.500571" width="8.142938" height="17.371631" transform="translate(-159.829671 302.732912) rotate(-68.296475)" fill="none" stroke="#000" stroke-linecap="round" stroke-linejoin="round"/><rect id="uuid-0031f4c9-0435-455f-95a3-7480bb6386c1" x="148.372679" y="269.384707" width="8.142938" height="17.371631" transform="translate(-110.442258 100.720103) rotate(-27.262826)" fill="none" stroke="#000" stroke-linecap="round" stroke-linejoin="round"/><rect id="uuid-3dfa779f-eec8-44db-8863-efd67010f042" x="80.040573" y="244.296213" width="8.685817" height="8.685817" transform="translate(-95.840118 57.690335) rotate(-24.59862)" fill="none" stroke="#000" stroke-linecap="round" stroke-linejoin="round"/><rect id="uuid-6dc27b19-54b1-4f5c-8a1e-a7871500c0ea" x="153.75897" y="284.706737" width="8.685817" height="8.685817" transform="translate(-114.843006 104.531376) rotate(-27.262826)" fill="none" stroke="#000" stroke-linecap="round" stroke-linejoin="round"/></g><polygon points="437.089669 259 335.040328 259 340.694934 241 429.560066 241 437.089669 259" fill="#37474f"/><path d="M444.940748,269.495563l-10.940431-26.686944c-.598222-1.683143-2.190118-2.808619-3.974649-2.808619h-89.531051c-1.784538,0-3.376426,1.125476-3.974651,2.808619l-10.96071,26.686944c-.415716,1.226868.496831,2.504437,1.794677,2.504437h115.792135c1.297844,0,2.210393-1.277569,1.794681-2.504437ZM436.325697,267h-102.151311c-1.29971,0-2.212484-1.279869-1.795783-2.510127l8.472922-19.555188c.416701-1.16081,1.517983-1.934685,2.748244-1.934685h83.320385c1.230258,0,2.331541.773874,2.74824,1.934685l8.472924,19.555188c.406783,1.230258-.515912,2.510127-1.815621,2.510127Z" fill="#82aec0"/><path d="M326,270.209691v65.323935c0,1.362141,1.104233,2.466374,2.466374,2.466374h113.063625c1.364144,0,2.470001-1.105857,2.470001-2.470001v-65.529999l-118,.209691Z" fill="#37474f"/><path d="M428,270.010132v-31.768834l-2-1.67v-7.749527c0-1.006137-.815635-1.821771-1.821771-1.821771h-18.356457c-1.006137,0-1.821771.815635-1.821771,1.821771v3.938736c0,1.789122-1.45037,3.239492-3.239492,3.239492h-55.310507c-1.3475,0-2.450001,1.1025-2.450001,2.450001v31.549999h85v.010132Z" fill="#f3ab47"/><path d="M426,236v-6.43c0-1.419372-1.150628-2.57-2.57-2.57h-16.860001c-1.419372,0-2.57,1.150628-2.57,2.57v1.808652c0,1.870787-1.242327,3.974158-3.932411,4.621348h25.932411Z" fill="#7cb342"/><rect x="343" y="241" width="85" height="5" fill="#de7340" isolation="isolate" opacity=".75"/><path d="M434,270v-23.20603c0-1.543067-1.250903-2.79397-2.79397-2.79397h-28.12545c-2.810535,0-5.080579-2.303873-5.080579-5.134062v-1.955938c0-1.607149-1.302851-2.91-2.91-2.91h-19.18c-1.607149,0-2.91,1.302851-2.91,2.91v1.955938c0,2.84012-2.279874,5.134062-5.080579,5.134062h-28.131373c-1.53443,0-2.788048,1.246231-2.788048,2.79397v23.20603h97Z" fill="#ffca28"/><path d="M398,238.865938v-1.955938c0-1.607149-1.302851-2.91-2.91-2.91h-19.18c-1.607149,0-2.91,1.302851-2.91,2.91v1.955938c0,2.84012-2.279874,5.134062-5.080579,5.134062h35.170988c-2.810535,0-5.090409-2.303873-5.090409-5.134062Z" fill="#0288d1"/><rect x="334" y="252" width="100" height="5" fill="#f3ab47"/><path d="M439,270.010002v-12.940002c0-1.695514-1.374486-3.07-3.07-3.07h-68.220001c-3.153545,0-5.709999-2.556454-5.709999-5.709999v-2.080002c0-1.772834-1.437166-3.209999-3.209999-3.209999h-21.580001c-1.772834,0-3.21,1.437166-3.21,3.21v7.909999c-1.105769,0-2,.93-2,2.079998v13.800003h107v.010002Z" fill="#ffe36c"/><path d="M362,248.351619v-2.14162c0-1.772834-1.437166-3.209999-3.209999-3.209999h-21.580001c-1.772834,0-3.21,1.437166-3.21,3.21v7.79h33.701675c-3.149875,0-5.701675-2.522482-5.701675-5.648381Z" fill="#f44336"/><path d="M438.783814,265.463661c.250626,2.295739-.611529,2.536339-1.924809,2.536339h-103.218005c-1.313282,0-2.215538.100249-1.924811-2.31579l-3.959898.130327-1.523809,3.709272c-.411027,1.213031.491228,2.476191,1.774435,2.476191h114.486165c1.283206,0,2.185463-1.263156,1.774432-2.476191l-1.754385-4.300751-3.729315.240603Z" fill="#82aec0"/><polygon points="437.089669 259 335.040328 259 340.694934 241 429.560066 241 437.089669 259" fill="none" stroke="#000" stroke-linecap="round" stroke-linejoin="round"/><path d="M444.940748,269.495563l-10.940431-26.686944c-.598222-1.683143-2.190118-2.808619-3.974649-2.808619h-89.531051c-1.784538,0-3.376426,1.125476-3.974651,2.808619l-10.96071,26.686944c-.415716,1.226868.496831,2.504437,1.794677,2.504437h115.792135c1.297844,0,2.210393-1.277569,1.794681-2.504437ZM436.325697,267h-102.151311c-1.29971,0-2.212484-1.279869-1.795783-2.510127l8.472922-19.555188c.416701-1.16081,1.517983-1.934685,2.748244-1.934685h83.320385c1.230258,0,2.331541.773874,2.74824,1.934685l8.472924,19.555188c.406783,1.230258-.515912,2.510127-1.815621,2.510127Z" fill="none" stroke="#000" stroke-linecap="round" stroke-linejoin="round"/><path d="M326,270.209691v65.323935c0,1.362141,1.104233,2.466374,2.466374,2.466374h113.063625c1.364144,0,2.470001-1.105857,2.470001-2.470001v-65.529999l-118,.209691Z" fill="none" stroke="#000" stroke-linecap="round" stroke-linejoin="round"/><path d="M428,270.010132v-31.768834l-2-1.67v-7.749527c0-1.006137-.815635-1.821771-1.821771-1.821771h-18.356457c-1.006137,0-1.821771.815635-1.821771,1.821771v3.938736c0,1.789122-1.45037,3.239492-3.239492,3.239492h-55.310507c-1.3475,0-2.450001,1.1025-2.450001,2.450001v31.549999h85v.010132Z" fill="none" stroke="#000" stroke-linecap="round" stroke-linejoin="round"/><path d="M426,236v-6.43c0-1.419372-1.150628-2.57-2.57-2.57h-16.860001c-1.419372,0-2.57,1.150628-2.57,2.57v1.808652c0,1.870787-1.242327,3.974158-3.932411,4.621348h25.932411Z" fill="none" stroke="#000" stroke-linecap="round" stroke-linejoin="round"/><rect x="343" y="241" width="85" height="5" fill="none" stroke="#000" stroke-linecap="round" stroke-linejoin="round"/><path d="M434,270v-23.20603c0-1.543067-1.250903-2.79397-2.79397-2.79397h-28.12545c-2.810535,0-5.080579-2.303873-5.080579-5.134062v-1.955938c0-1.607149-1.302851-2.91-2.91-2.91h-19.18c-1.607149,0-2.91,1.302851-2.91,2.91v1.955938c0,2.84012-2.279874,5.134062-5.080579,5.134062h-28.131373c-1.53443,0-2.788048,1.246231-2.788048,2.79397v23.20603h97Z" fill="none" stroke="#000" stroke-linecap="round" stroke-linejoin="round"/><path d="M398,238.865938v-1.955938c0-1.607149-1.302851-2.91-2.91-2.91h-19.18c-1.607149,0-2.91,1.302851-2.91,2.91v1.955938c0,2.84012-2.279874,5.134062-5.080579,5.134062h35.170988c-2.810535,0-5.090409-2.303873-5.090409-5.134062Z" fill="none" stroke="#000" stroke-linecap="round" stroke-linejoin="round"/><rect x="334" y="252" width="100" height="5" fill="none" stroke="#000" stroke-linecap="round" stroke-linejoin="round"/><path d="M439,270.010002v-12.940002c0-1.695514-1.374486-3.07-3.07-3.07h-68.220001c-3.153545,0-5.709999-2.556454-5.709999-5.709999v-2.080002c0-1.772834-1.437166-3.209999-3.209999-3.209999h-21.580001c-1.772834,0-3.21,1.437166-3.21,3.21v7.909999c-1.105769,0-2,.93-2,2.079998v13.800003h107v.010002Z" fill="none" stroke="#000" stroke-linecap="round" stroke-linejoin="round"/><path d="M362,248.351619v-2.14162c0-1.772834-1.437166-3.209999-3.209999-3.209999h-21.580001c-1.772834,0-3.21,1.437166-3.21,3.21v7.79h33.701675c-3.149875,0-5.701675-2.522482-5.701675-5.648381Z" fill="none" stroke="#000" stroke-linecap="round" stroke-linejoin="round"/><path d="M438.783814,265.463661c.250626,2.295739-.611529,2.536339-1.924809,2.536339h-103.218005c-1.313282,0-2.215538.100249-1.924811-2.31579l-3.959898.130327-1.523809,3.709272c-.411027,1.213031.491228,2.476191,1.774435,2.476191h114.486165c1.283206,0,2.185463-1.263156,1.774432-2.476191l-1.754385-4.300751-3.729315.240603Z" fill="none" stroke="#000" stroke-linecap="round" stroke-linejoin="round"/><path d="M397.005803,306h-.002902c-.034814-.690419-.789102-1.335749-2.0917-1.716184-2.787967-.814412-5.880549-1.290661-9.4083-1.318841-3.524849.02818-6.617431.504429-9.4083,1.318841-1.302598.380434-2.051085,1.025765-2.088799,1.716184h-.005802v14.112722c-.031912.789051.876135,1.634462,2.97654,2.212158,2.17003.597424,5.105953.983494,8.52346.983494s6.353431-.386072,8.52346-.983494c2.201941-.605878,3.092584-1.504832,2.964935-2.324879h.011605v-14h.005803Z" fill="#e2a610"/><path d="M387.541624,319.15312l-1.302223-3.068492c.887624-.429942,1.447784-1.431916,1.194811-2.530208-.177629-.771185-.793944-1.412435-1.558863-1.615357-1.485873-.39418-2.829151.720855-2.829151,2.144374,0,.826578.452443,1.548746,1.122406,1.931585l-1.212315,3.1584c-.152968.398521.141235.826578.568105.826578h3.456646c.436267,0,.731016-.445282.560584-.84688Z" fill="#4e342e"/><path d="M387.416913,319h-4.347514l-.116011.434427c-.153714.400237.142114.826578.568454.565573h3.457129c.437942.261006.730869-.185637.559753-.585874l-.121811-.414126Z" fill="#9e740b"/><path d="M384.365822,315.94017c.052205-.150813-.0029-.31323-.130513-.406039-.174016-.127613-.408939-.353834-.556852-.713468-.539451-1.299325.101509-1.876479.101509-1.876479-.452443.406039-.73667.994795-.73667,1.650258,0,.826578.452443,1.548748,1.122406,1.931583l.20012-.585855Z" fill="#9e740b"/><path d="M386.833956,313.010892s.63806,1.281921-.092809,2.1027c-.249424.278426-.461143.426341-.617758.498848-.153714.072507-.22332.255223-.150813.40894l.269726.568454c.74247-.359634,1.25582-1.119507,1.25582-2.001191-.005802-.942592-.664166-1.577751-.664166-1.577751Z" fill="#9e740b"/><path d="M394.165854,304.498581c-2.642152-.768574-5.574331-1.215216-8.915448-1.244219-3.341118.026103-6.273296.475645-8.915448,1.241318-2.647952.768574-2.911877,2.685655.83818,3.712353,2.056296.562654,4.840561.925189,8.077268.925189s6.020973-.362534,8.077268-.925189c3.750057-1.023797,3.486133-2.943779.83818-3.709452Z" fill="#fdd835"/><path d="M393.253224,306s-.108442.498848-1.529895.498848-1.723329-.498848-1.723329-.498848v-6.395108c0-2.906077-2.242088-5.266901-5-5.266901s-5,2.363725-5,5.266901v6.728944s-.570785.465284-1.609558.465284-1.390442-.465284-1.390442-.465284v-6.728944c0-4.681045,3.589343-8.486207,7.999999-8.486207s8.000001,3.808062,8.000001,8.486207v6.395108h.253224Z" fill="#84b0c1" stroke="#84b0c1" stroke-miterlimit="10" stroke-width="1.9584"/><path d="M381.569956,294.524532c-1.490742.887484-1.719864,1.487841-2.134603,1.763368-.30743.20302-.716369.040604-.449543-.664163.229122-.603257.780174-1.745966,2.154905-2.624749,2.366625-1.513944,4.408419-1.444337,4.298209-.287127-.092809,1.023798-2.279617.867182-3.868968,1.812672Z" fill="#b9e4ea"/><path d="M397.005803,306h-.002902c-.034814-.690419-.789102-1.335749-2.0917-1.716184-2.787967-.814412-5.880549-1.290661-9.4083-1.318841-3.524849.02818-6.617431.504429-9.4083,1.318841-1.302598.380434-2.051085,1.025765-2.088799,1.716184h-.005802v14.112722c-.031912.789051.876135,1.634462,2.97654,2.212158,2.17003.597424,5.105953.983494,8.52346.983494s6.353431-.386072,8.52346-.983494c2.201941-.605878,3.092584-1.504832,2.964935-2.324879h.011605v-14h.005803Z" fill="none" stroke="#000" stroke-linecap="round" stroke-linejoin="round"/><line x1="374" y1="306" x2="397" y2="306" fill="none" stroke="#000" stroke-linecap="round" stroke-linejoin="round"/><path d="M387.541624,319.15312l-1.302223-3.068492c.887624-.429942,1.447784-1.431916,1.194811-2.530208-.177629-.771185-.793944-1.412435-1.558863-1.615357-1.485873-.39418-2.829151.720855-2.829151,2.144374,0,.826578.452443,1.548746,1.122406,1.931585l-1.212315,3.1584c-.152968.398521.141235.826578.568105.826578h3.456646c.436267,0,.731016-.445282.560584-.84688Z" fill="none" stroke="#000" stroke-linecap="round" stroke-linejoin="round"/><path d="M387.416913,319h-4.347514l-.116011.434427c-.153714.400237.142114.826578.568454.565573h3.457129c.437942.261006.730869-.185637.559753-.585874l-.121811-.414126Z" fill="none" stroke="#000" stroke-linecap="round" stroke-linejoin="round"/><path d="M384.365822,315.94017c.052205-.150813-.0029-.31323-.130513-.406039-.174016-.127613-.408939-.353834-.556852-.713468-.539451-1.299325.101509-1.876479.101509-1.876479-.452443.406039-.73667.994795-.73667,1.650258,0,.826578.452443,1.548748,1.122406,1.931583l.20012-.585855Z" fill="none" stroke="#000" stroke-linecap="round" stroke-linejoin="round"/><path d="M386.833956,313.010892s.63806,1.281921-.092809,2.1027c-.249424.278426-.461143.426341-.617758.498848-.153714.072507-.22332.255223-.150813.40894l.269726.568454c.74247-.359634,1.25582-1.119507,1.25582-2.001191-.005802-.942592-.664166-1.577751-.664166-1.577751Z" fill="none" stroke="#000" stroke-linecap="round" stroke-linejoin="round"/><path d="M394.165854,304.498581c-2.642152-.768574-5.574331-1.215216-8.915448-1.244219-3.341118.026103-6.273296.475645-8.915448,1.241318-2.647952.768574-2.911877,2.685655.83818,3.712353,2.056296.562654,4.840561.925189,8.077268.925189s6.020973-.362534,8.077268-.925189c3.750057-1.023797,3.486133-2.943779.83818-3.709452Z" fill="none" stroke="#000" stroke-linecap="round" stroke-linejoin="round"/><path d="M393.253224,306s-.108442.498848-1.529895.498848-1.723329-.498848-1.723329-.498848v-6.395108c0-2.906077-2.242088-5.266901-5-5.266901s-5,2.363725-5,5.266901v6.728944s-.570785.465284-1.609558.465284-1.390442-.465284-1.390442-.465284v-6.728944c0-4.681045,3.589343-8.486207,7.999999-8.486207s8.000001,3.808062,8.000001,8.486207v6.395108h.253224Z" fill="none" stroke="#000" stroke-linecap="round" stroke-linejoin="round"/><path d="M381.569956,294.524532c-1.490742.887484-1.719864,1.487841-2.134603,1.763368-.30743.20302-.716369.040604-.449543-.664163.229122-.603257.780174-1.745966,2.154905-2.624749,2.366625-1.513944,4.408419-1.444337,4.298209-.287127-.092809,1.023798-2.279617.867182-3.868968,1.812672Z" fill="none" stroke="#000" stroke-linecap="round" stroke-linejoin="round"/><path d="M399.320001,169.320003c-34.029999,0-53.560001-33.129997-56.939999-39.380001,3.07-6.27,20.91-39.259998,56.939999-39.259998s53.870003,32.98,56.939995,39.259998c-3.379997,6.250004-22.919998,39.380001-56.939995,39.380001Z" fill="#fafafa"/><path d="M399.320001,93.120004c15.809998,0,29.840004,6.42,41.700005,19.089998,6.629997,7.080002,10.729996,14.260002,12.489998,17.669998-4.510002,7.989998-23.049995,36.989998-54.189995,36.989998-14.880001,0-28.629997-6.449997-40.889999-19.169998-6.889999-7.150002-11.37-14.410004-13.3-17.82,1.75-3.41,5.86-10.599998,12.489999-17.669998,11.859993-12.669998,25.889992-19.089998,41.699993-19.089998M399.320001,88.240003c-41.76,0-59.66,41.76-59.66,41.76,0,0,20.25,41.759995,59.66,41.759995s59.650002-41.759995,59.650002-41.759995c0,0-17.900002-41.76-59.650002-41.76h0Z" fill="#b0bec5"/><path d="M399.320001,103.000003c26.970001,0,45.470001,16.510002,53.659996,27.709999.959999,1.309998,1.989998-4.989998,1.120003-6.360001-7.840004-12.260002-25.409996-32.91-54.769997-32.91s-46.950003,20.66-54.790002,32.920002c-.88,1.369999.3,6.830002,1.41,5.639999,8.54-9.169998,26.39-27,53.37-27Z" fill="#b0bec5"/><circle cx="385" cy="128" r="32.991915" fill="#c1272d"/><path d="M379.275045,104.780817c10.513237-2.76203,20.372741-2.581365,29.111312-.803454-8.053551-7.789272-19.861628-11.29391-31.487115-8.239671-11.876955,3.120305-20.545209,12.314645-23.556836,23.362493,6.674818-6.116806,15.158266-11.488734,25.932638-14.319369Z" fill="#7d0007"/><circle cx="378.5" cy="135.5" r="15.496203" fill="#212121"/><circle cx="408.5" cy="120.500001" r="7.498162" fill="#ffcfd1"/><path d="M342.210001,133.210002c-.52,0-1.05-.129997-1.54-.400002-1.55-.849998-2.12-2.800003-1.27-4.349998.85-1.549999,21.28-40.209999,59.92-40.209999s58.470001,37.889999,59.290001,39.41c.839996,1.560001.269997,3.500004-1.290001,4.350002-1.559998.839996-3.5.269997-4.349998-1.290001-.18-.339996-18.879997-33.860001-53.660004-33.860001-34.790001,0-54.110001,34.339996-54.299999,34.690002-.579998,1.059998-1.669998,1.659996-2.799998,1.659996Z" fill="#616161"/><path d="M399.320001,169.320003c-34.029999,0-53.560001-33.129997-56.939999-39.380001,3.07-6.27,20.91-39.259998,56.939999-39.259998s53.870003,32.98,56.939995,39.259998c-3.379997,6.250004-22.919998,39.380001-56.939995,39.380001Z" fill="none" stroke="#000" stroke-linecap="round" stroke-linejoin="round"/><path d="M399.320001,93.120004c15.809998,0,29.840004,6.42,41.700005,19.089998,6.629997,7.080002,10.729996,14.260002,12.489998,17.669998-4.510002,7.989998-23.049995,36.989998-54.189995,36.989998-14.880001,0-28.629997-6.449997-40.889999-19.169998-6.889999-7.150002-11.37-14.410004-13.3-17.82,1.75-3.41,5.86-10.599998,12.489999-17.669998,11.859993-12.669998,25.889992-19.089998,41.699993-19.089998M399.320001,88.240003c-41.76,0-59.66,41.76-59.66,41.76,0,0,20.25,41.759995,59.66,41.759995s59.650002-41.759995,59.650002-41.759995c0,0-17.900002-41.76-59.650002-41.76h0Z" fill="none" stroke="#000" stroke-linecap="round" stroke-linejoin="round"/><path d="M399.320001,103.000003c26.970001,0,45.470001,16.510002,53.659996,27.709999.959999,1.309998,1.989998-4.989998,1.120003-6.360001-7.840004-12.260002-25.409996-32.91-54.769997-32.91s-46.950003,20.66-54.790002,32.920002c-.88,1.369999.3,6.830002,1.41,5.639999,8.54-9.169998,26.39-27,53.37-27Z" fill="none" stroke="#000" stroke-linecap="round" stroke-linejoin="round"/><circle cx="385" cy="128" r="32.991915" fill="none" stroke="#000" stroke-linecap="round" stroke-linejoin="round"/><path d="M379.275045,104.780817c10.513237-2.76203,20.372741-2.581365,29.111312-.803454-8.053551-7.789272-19.861628-11.29391-31.487115-8.239671-11.876955,3.120305-20.545209,12.314645-23.556836,23.362493,6.674818-6.116806,15.158266-11.488734,25.932638-14.319369Z" fill="none" stroke="#000" stroke-linecap="round" stroke-linejoin="round"/><circle cx="378.5" cy="135.5" r="15.496203" fill="none" stroke="#000" stroke-linecap="round" stroke-linejoin="round"/><circle cx="408.5" cy="120.500001" r="7.498162" fill="none" stroke="#000" stroke-linecap="round" stroke-linejoin="round"/><path d="M342.210001,133.210002c-.52,0-1.05-.129997-1.54-.400002-1.55-.849998-2.12-2.800003-1.27-4.349998.85-1.549999,21.28-40.209999,59.92-40.209999s58.470001,37.889999,59.290001,39.41c.839996,1.560001.269997,3.500004-1.290001,4.350002-1.559998.839996-3.5.269997-4.349998-1.290001-.18-.339996-18.879997-33.860001-53.660004-33.860001-34.790001,0-54.110001,34.339996-54.299999,34.690002-.579998,1.059998-1.669998,1.659996-2.799998,1.659996Z" fill="none" stroke="#000" stroke-linecap="round" stroke-linejoin="round"/></svg>