<?xml version="1.0" encoding="UTF-8"?><svg id="uuid-addd708d-5858-4ca6-a306-97eb239a28fd" xmlns="http://www.w3.org/2000/svg" xmlns:xlink="http://www.w3.org/1999/xlink" viewBox="0 0 500 500"><defs><radialGradient id="uuid-01637e09-8cb0-42c6-89d3-fe40a2885a4a" cx="423.77" cy="-1631.7" fx="423.77" fy="-1631.7" r="22.67" gradientTransform="translate(-1710.35 -2541.32) rotate(136.49) scale(1.18 2.02)" gradientUnits="userSpaceOnUse"><stop offset=".42" stop-color="#82aec0"/><stop offset="1" stop-color="#7fa9bb" stop-opacity="0"/></radialGradient></defs><path d="M294.3,187.07l-18.14-38.08-13.2,14.11,7.07,8.83c.67,2.42-.65,5.08.02,7.5.35,1.24,1.2,2.29,2.21,3.11,2.08,1.69,5.08,2.81,5.69,5.43.72,3.09-1.65,6.42,1.04,9.06,2.47,2.42,17.42-5.32,15.31-9.97Z" fill="#c62828"/><path d="M301.66,191.99l1.18-.53c4.64-2.1,6.7-7.57,4.6-12.21l-19.11-42.12-15.13,14.37c.93,2.06,1.28,2.8,2.2,4.87.83,1.88.81,3.24,2.67,4.3,1.84,1.05,3.81,2.37,4.41,4.53.67,2.42-.65,5.08.02,7.5.35,1.24,1.2,2.29,2.21,3.11,2.08,1.69,5.08,2.81,5.69,5.43.72,3.09-1.65,6.42,1.04,9.06,2.45,2.42,7.12,3.1,10.24,1.68Z" fill="#f44336"/><path d="M287.93,178.06c1.73,1.12,1.05,2.13.2,2.98-2.08,2.08-5.71,3.89-7.69,4.59-.75.27-1.54.43-2.31.51-.58.06-1.17-.11-1.59-.5-1.22-1.16-2.92-2.01-4.25-3.1-.55-.45-1.06-.98-1.45-1.56-.32-.46-.04-1.11.5-1.25,1.36-.36,3.73-1.05,5-1.84,2.51-1.57,3.77-2.84,4.7-3.68.69-.64,1.8-.54,2.35.22.38.53.84.99,1.33,1.4.99.8,2.13,1.54,3.23,2.25Z" fill="#a12524"/><path d="M291.41,190.3c5.01,2.78,9.43,1.21,12.89-1.66,3.35-2.77,3.86-6.6,3.86-6.6,1.93,11.06-13.64,17.82-17.21,18.76-5.45,1.44-7.94.01-11.74-3.52-.24-.22-.6-1.38.7-1.48,1.97-.17,3.54-1.04,5.23-2.1,2.08-1.3,2.91-2.29,3.66-2.91.97-.81,1.62-1.04,2.6-.49Z" fill="#a12524"/><path d="M288.33,137.12l5.11,11.22s-5.54-2.27-11.92,5.18c-4.33,5.05-4.17,8.09-4.17,8.09l-7.1-6.86,18.08-17.63Z" fill="#c62828"/><path d="M232.84,238.26s9.36-53.2,34.87-78.76c10.98-10.99,19.12-18.77,21.08-20.64,6.17-5.85,4.99-21.38-9.65-36.8-14.64-15.42-32.54-18.21-38.7-12.36-.91.87-10.12,10.7-22.22,21.56-28.49,25.58-77.49,29.97-77.49,29.97l92.11,97.02Z" fill="#e0e0e0"/><path d="M221.41,183.28c2.84.88,6.92,5.15,10.41,9.38,2.49,3.04,7.33,2.44,8.99-1.12,11.4-24.25,26.87-37.73,26.87-37.73l2.09,3.63c-.67.67-1.35,1.35-2.04,2.05-15.42,15.43-24.94,40.96-30.05,58.75,0,0-1.3-8.54-6.15-17.29-5.06-9.12-10.12-17.68-10.12-17.68Z" fill="#bdbdbd"/><path d="M250.94,128.83c-8.36-8.8-20.61-15.94-30.73-19.38,11.1-10.11,19.35-18.92,20.21-19.74,6.17-5.85,24.06-3.06,38.7,12.36,14.64,15.42,15.83,30.94,9.65,36.8-1.97,1.87-10.11,9.65-21.08,20.64-.07.06-.13.14-.2.2-2.94-11.45-8.24-22.11-16.57-30.88Z" fill="#f44336"/><ellipse cx="187" cy="190" rx="26.79" ry="66.96" transform="translate(-79.42 180.66) rotate(-43.45)" fill="#2f7889"/><path d="M167.38,208.17c-27.76-29.24-41.96-57.72-29.3-69.73,12.66-12.02,43.14.97,70.91,30.23,27.77,29.25,39.16,60.37,26.51,72.38-12.66,12.02-40.35-3.63-68.12-32.88ZM170.17,205.52c25.58,26.94,52.16,37.41,60.02,29.94s-1.21-34.55-26.79-61.49c-25.58-26.94-52.17-37.4-60.02-29.94-7.85,7.45,1.22,34.56,26.79,61.49Z" fill="#e0e0e0"/><path d="M168.23,144.83c3,1.48,10.81,3.64,27.94,18.89.58.51,3.22,2.68,4.59,1.38.91-.87-.13-2.5-1.93-4.4-7.03-7.4-16.01-14.4-26.53-19.76-5.94-3.02-8.21,1.86-4.07,3.88Z" fill="#fff"/><path d="M192.2,163.25l-15.66,18.76,17.6,18.53,20.46-13.44c-12.75-15.75-22.4-23.85-22.4-23.85Z" fill="url(#uuid-01637e09-8cb0-42c6-89d3-fe40a2885a4a)"/><ellipse cx="185" cy="191" rx="6.06" ry="12.77" transform="translate(-80.87 186.76) rotate(-45)" fill="#e0e0e0"/><path d="M272.76,159.2l1.85.55,2.55,8.68c.31,1.05-.1,2.19-1.03,2.78l-6.01,3.78s-3.31-.67-4.01-.87-.86-.57-.86-.57l6.78-4.35s.59-9.77.72-10Z" fill="#353738"/><path d="M273,167.07l-.13-7.9-7,6.59-.7,7.17c0,.95.9,1.29,1.69.75l4.5-3.11c1.13-.79,1.76-2.12,1.64-3.51Z" fill="#616161"/><path d="M210.71,129.8c-6.65,4.82-14.18,8.56-22.26,10.05,10.28,5.03,20.55,13.09,27.31,22.35,1.47-3.98,2.96-7.98,5.07-11.65,1.77-3.06,3.95-5.86,6.21-8.57,5.66-6.85,11.47-12.59,18.02-18.58-.19.18-4.83-3.69-8.69-6.18-3.86-2.5-6.45-3.62-6.45-3.62,0,0-12.91,11.64-19.21,16.21Z" fill="#fff"/><path d="M232.05,110.82c9.29-8.31,19.49-17.76,19.49-17.76,0,0,8.32-.36,17.43,7.62,0,0-10.76,10.21-20.36,19.66-6.67-5.64-13.11-8.36-16.57-9.52Z" fill="#ff7555"/><path d="M294.3,187.07l-18.14-38.08-13.2,14.11,7.07,8.83c.67,2.42-.65,5.08.02,7.5.35,1.24,1.2,2.29,2.21,3.11,2.08,1.69,5.08,2.81,5.69,5.43.72,3.09-1.65,6.42,1.04,9.06,2.47,2.42,17.42-5.32,15.31-9.97Z" fill="none" stroke="#000" stroke-linecap="round" stroke-linejoin="round"/><path d="M301.66,191.99l1.18-.53c4.64-2.1,6.7-7.57,4.6-12.21l-19.11-42.12-15.13,14.37c.93,2.06,1.28,2.8,2.2,4.87.83,1.88.81,3.24,2.67,4.3,1.84,1.05,3.81,2.37,4.41,4.53.67,2.42-.65,5.08.02,7.5.35,1.24,1.2,2.29,2.21,3.11,2.08,1.69,5.08,2.81,5.69,5.43.72,3.09-1.65,6.42,1.04,9.06,2.45,2.42,7.12,3.1,10.24,1.68Z" fill="none" stroke="#000" stroke-linecap="round" stroke-linejoin="round"/><path d="M287.93,178.06c1.73,1.12,1.05,2.13.2,2.98-2.08,2.08-5.71,3.89-7.69,4.59-.75.27-1.54.43-2.31.51-.58.06-1.17-.11-1.59-.5-1.22-1.16-2.92-2.01-4.25-3.1-.55-.45-1.06-.98-1.45-1.56-.32-.46-.04-1.11.5-1.25,1.36-.36,3.73-1.05,5-1.84,2.51-1.57,3.77-2.84,4.7-3.68.69-.64,1.8-.54,2.35.22.38.53.84.99,1.33,1.4.99.8,2.13,1.54,3.23,2.25Z" fill="none" stroke="#000" stroke-linecap="round" stroke-linejoin="round"/><path d="M291.41,190.3c5.01,2.78,9.43,1.21,12.89-1.66,3.35-2.77,3.86-6.6,3.86-6.6,1.93,11.06-13.64,17.82-17.21,18.76-5.45,1.44-7.94.01-11.74-3.52-.24-.22-.6-1.38.7-1.48,1.97-.17,3.54-1.04,5.23-2.1,2.08-1.3,2.91-2.29,3.66-2.91.97-.81,1.62-1.04,2.6-.49Z" fill="none" stroke="#000" stroke-linecap="round" stroke-linejoin="round"/><path d="M288.33,137.12l5.11,11.22s-5.54-2.27-11.92,5.18c-4.33,5.05-4.17,8.09-4.17,8.09l-7.1-6.86,18.08-17.63Z" fill="none" stroke="#000" stroke-linecap="round" stroke-linejoin="round"/><path d="M232.84,238.26s9.36-53.2,34.87-78.76c10.98-10.99,19.12-18.77,21.08-20.64,6.17-5.85,4.99-21.38-9.65-36.8-14.64-15.42-32.54-18.21-38.7-12.36-.91.87-10.12,10.7-22.22,21.56-28.49,25.58-77.49,29.97-77.49,29.97l92.11,97.02Z" fill="none" stroke="#000" stroke-linecap="round" stroke-linejoin="round"/><path d="M221.41,183.28c2.84.88,6.92,5.15,10.41,9.38,2.49,3.04,7.33,2.44,8.99-1.12,11.4-24.25,26.87-37.73,26.87-37.73l2.09,3.63c-.67.67-1.35,1.35-2.04,2.05-15.42,15.43-24.94,40.96-30.05,58.75,0,0-1.3-8.54-6.15-17.29-5.06-9.12-10.12-17.68-10.12-17.68Z" fill="none" stroke="#000" stroke-linecap="round" stroke-linejoin="round"/><path d="M250.94,128.83c-8.36-8.8-20.61-15.94-30.73-19.38,11.1-10.11,19.35-18.92,20.21-19.74,6.17-5.85,24.06-3.06,38.7,12.36,14.64,15.42,15.83,30.94,9.65,36.8-1.97,1.87-10.11,9.65-21.08,20.64-.07.06-.13.14-.2.2-2.94-11.45-8.24-22.11-16.57-30.88Z" fill="none" stroke="#000" stroke-linecap="round" stroke-linejoin="round"/><ellipse cx="187" cy="190" rx="26.79" ry="66.96" transform="translate(-79.42 180.66) rotate(-43.45)" fill="none" stroke="#000" stroke-linecap="round" stroke-linejoin="round"/><path d="M167.38,208.17c-27.76-29.24-41.96-57.72-29.3-69.73,12.66-12.02,43.14.97,70.91,30.23,27.77,29.25,39.16,60.37,26.51,72.38-12.66,12.02-40.35-3.63-68.12-32.88ZM170.17,205.52c25.58,26.94,52.16,37.41,60.02,29.94s-1.21-34.55-26.79-61.49c-25.58-26.94-52.17-37.4-60.02-29.94-7.85,7.45,1.22,34.56,26.79,61.49Z" fill="none" stroke="#000" stroke-linecap="round" stroke-linejoin="round"/><path d="M168.23,144.83c3,1.48,10.81,3.64,27.94,18.89.58.51,3.22,2.68,4.59,1.38.91-.87-.13-2.5-1.93-4.4-7.03-7.4-16.01-14.4-26.53-19.76-5.94-3.02-8.21,1.86-4.07,3.88Z" fill="none" stroke="#000" stroke-linecap="round" stroke-linejoin="round"/><path d="M192.2,163.25l-15.66,18.76,17.6,18.53,20.46-13.44c-12.75-15.75-22.4-23.85-22.4-23.85Z" fill="none" stroke="#000" stroke-linecap="round" stroke-linejoin="round"/><ellipse cx="185" cy="191" rx="6.06" ry="12.77" transform="translate(-80.87 186.76) rotate(-45)" fill="none" stroke="#000" stroke-linecap="round" stroke-linejoin="round"/><path d="M272.76,159.2l1.85.55,2.55,8.68c.31,1.05-.1,2.19-1.03,2.78l-6.01,3.78s-3.31-.67-4.01-.87-.86-.57-.86-.57l6.78-4.35s.59-9.77.72-10Z" fill="none" stroke="#000" stroke-linecap="round" stroke-linejoin="round"/><path d="M273,167.07l-.13-7.9-7,6.59-.7,7.17c0,.95.9,1.29,1.69.75l4.5-3.11c1.13-.79,1.76-2.12,1.64-3.51Z" fill="none" stroke="#000" stroke-linecap="round" stroke-linejoin="round"/><path d="M210.71,129.8c-6.65,4.82-14.18,8.56-22.26,10.05,10.28,5.03,20.55,13.09,27.31,22.35,1.47-3.98,2.96-7.98,5.07-11.65,1.77-3.06,3.95-5.86,6.21-8.57,5.66-6.85,11.47-12.59,18.02-18.58-.19.18-4.83-3.69-8.69-6.18-3.86-2.5-6.45-3.62-6.45-3.62,0,0-12.91,11.64-19.21,16.21Z" fill="none" stroke="#000" stroke-linecap="round" stroke-linejoin="round"/><path d="M232.05,110.82c9.29-8.31,19.49-17.76,19.49-17.76,0,0,8.32-.36,17.43,7.62,0,0-10.76,10.21-20.36,19.66-6.67-5.64-13.11-8.36-16.57-9.52Z" fill="none" stroke="#000" stroke-linecap="round" stroke-linejoin="round"/><text transform="translate(58.17 408.54)" fill="#333" font-family="ComicNeue-Regular, &apos;Comic Neue&apos;" font-size="24"><tspan x="0" y="0">Censorship, propaganda, and </tspan><tspan x="0" y="28.8">surveillance suppressed civil liberties.</tspan></text><g id="uuid-b68ef9fe-a518-47f0-adb2-cf3b36335348"><polygon id="uuid-ce223c8e-e242-4515-b41a-801527b8c2a1" points="92.7 323.07 103.25 320.38 107.95 338.82 108.9 342.53 93.08 346.57 92.13 342.88 97.41 341.53 92.7 323.07" fill="#097039"/><rect id="uuid-1987e6d7-5eb3-48c5-b72d-79e61d706688" x="93.27" y="313.98" width="21.23" height="10.89" transform="translate(-205.4 188.39) rotate(-49.02)" fill="#097039"/><polygon id="uuid-6f28ff45-25e2-43a0-b893-0008821ca418" points="142.06 324.16 138.64 334.49 156.73 340.48 155.02 345.65 158.64 346.84 163.77 331.34 160.13 330.14 160.13 330.14 142.06 324.16" fill="#097039"/><rect id="uuid-30724ba7-b3bc-4cea-bb7f-758f4907b5e8" x="131.15" y="312.2" width="10.89" height="21.23" transform="translate(-158.05 132.94) rotate(-34.27)" fill="#097039"/><polygon id="uuid-0c22b3ec-cef8-4a8a-965a-a5678d04bdfa" points="116.03 292.93 116.02 293 116.08 293 120.06 271.71 117.15 267 125.91 267 123.01 271.71 126.99 293 127.05 293 127.04 292.93 127.05 293 126.98 293 121.53 300.09 116.09 293 116.02 293 116.03 292.93" fill="#c1272d"/><path id="uuid-1ddf9421-f51e-4ef0-b71e-91c2d2315bb4" d="M137,263v54h-30v-54h30ZM121.53,289.63l10.76-26.63h-21.52l10.76,26.63Z" fill="#097039"/><path id="uuid-e221b21b-fcfe-45db-9f32-d1ba719a0253" d="M107.37,256.45c-1.52-2.71-2.63-5.86-3.17-9.29-1.84-11.85,3.87-22.58,12.75-23.96,8.89-1.38,17.59,7.1,19.43,18.95.53,3.43.43,6.77-.2,9.81l-28.82,4.48Z" fill="#eec6a2"/><path id="uuid-71459734-79f6-4df4-9040-dadcf4725bca" d="M135.18,259c-2.89,6.05-7.96,10.06-13.74,10.06s-10.85-4.01-13.74-10.06h27.48Z" fill="#eec6a2"/><ellipse id="uuid-dd452bd5-f919-4870-8ccb-f8bc661ff2c2" cx="122.5" cy="247.5" rx="1.5" ry="2.5" fill="#333"/><ellipse id="uuid-d04b26bb-b458-4793-8207-05e0dc72c28a" cx="131.5" cy="245.5" rx="1.5" ry="2.5" fill="#333"/><path id="uuid-76c8e8c9-e1c8-4ed4-9ec9-0f044bddebab" d="M103.85,230.97c4.33-6.43,14.89-7.79,20.13-8.47,6.55-.85,14.39-.73,14.88,1.21.43,1.72-5.2,3.7-4.77,6.37.31,1.94,3.56,2.65,3.31,3.22-.53,1.21-14.76-2.95-17.17.25-1.09,1.44.95,3.37-.28,4.45-1.27,1.12-3.8-.65-9.29-1.05-4.72-.35-6.86.66-7.93-.52-1.43-1.58.84-5.03,1.13-5.45Z" fill="#534741"/><rect id="uuid-23a2a9b9-0b74-4cbb-b77d-7eefa7325cac" x="85.35" y="250.95" width="8.14" height="17.37" transform="translate(-99.96 60.78) rotate(-24.6)" fill="#097039"/><rect id="uuid-458316b9-8ac0-492f-ba4d-96678baecc0d" x="94.31" y="257.38" width="8.14" height="17.37" transform="translate(-176.57 335.87) rotate(-83.95)" fill="#097039"/><rect id="uuid-362fae97-5a8d-488a-bf70-47b0ee82071b" x="139.18" y="260.5" width="8.14" height="17.37" transform="translate(-159.83 302.73) rotate(-68.3)" fill="#097039"/><rect id="uuid-b33251b6-a5a5-406a-a4a1-2b991d887b6d" x="148.37" y="269.38" width="8.14" height="17.37" transform="translate(-110.44 100.72) rotate(-27.26)" fill="#097039"/><rect id="uuid-33384821-9c1c-4b7b-be52-e0616eda2fc5" x="80.04" y="244.3" width="8.69" height="8.69" transform="translate(-95.84 57.69) rotate(-24.6)" fill="#eec6a2"/><rect id="uuid-4852810a-4e19-48eb-a60d-5e7e941d67df" x="153.76" y="284.71" width="8.69" height="8.69" transform="translate(-114.84 104.53) rotate(-27.26)" fill="#eec6a2"/><polygon id="uuid-48bd622b-fc07-4108-8df4-b19a5ee2ca39" points="92.7 323.07 103.25 320.38 107.95 338.82 108.9 342.53 93.08 346.57 92.13 342.88 97.41 341.53 92.7 323.07" fill="none" stroke="#000" stroke-linecap="round" stroke-linejoin="round"/><rect id="uuid-5791391e-d11a-4b1b-a21d-e9134da50058" x="93.27" y="313.98" width="21.23" height="10.89" transform="translate(-205.4 188.39) rotate(-49.02)" fill="none" stroke="#000" stroke-linecap="round" stroke-linejoin="round"/><polygon id="uuid-3bcc4564-e083-490f-b4a6-07baaf48b25e" points="142.06 324.16 138.64 334.49 156.73 340.48 155.02 345.65 158.64 346.84 163.77 331.34 160.13 330.14 160.13 330.14 142.06 324.16" fill="none" stroke="#000" stroke-linecap="round" stroke-linejoin="round"/><rect id="uuid-e0533cf5-8fcc-4694-afce-e3b6631a5979" x="131.15" y="312.2" width="10.89" height="21.23" transform="translate(-158.05 132.94) rotate(-34.27)" fill="none" stroke="#000" stroke-linecap="round" stroke-linejoin="round"/><polygon id="uuid-48680e00-ccfa-4276-9baf-8e493bdaa7b4" points="116.03 292.93 116.02 293 116.08 293 120.06 271.71 117.15 267 125.91 267 123.01 271.71 126.99 293 127.05 293 127.04 292.93 127.05 293 126.98 293 121.53 300.09 116.09 293 116.02 293 116.03 292.93" fill="none" stroke="#000" stroke-linecap="round" stroke-linejoin="round"/><path id="uuid-da212cc5-45af-4912-a518-440b69ce4375" d="M137,263v54h-30v-54h30ZM121.53,289.63l10.76-26.63h-21.52l10.76,26.63Z" fill="none" stroke="#000" stroke-linecap="round" stroke-linejoin="round"/><path id="uuid-52774c0a-f16b-4b7f-8e85-3232286e0635" d="M107.37,256.45c-1.52-2.71-2.63-5.86-3.17-9.29-1.84-11.85,3.87-22.58,12.75-23.96,8.89-1.38,17.59,7.1,19.43,18.95.53,3.43.43,6.77-.2,9.81l-28.82,4.48Z" fill="none" stroke="#000" stroke-linecap="round" stroke-linejoin="round"/><path id="uuid-123bab2f-9c0f-49e8-9fc3-7e8b6333ac8f" d="M135.18,259c-2.89,6.05-7.96,10.06-13.74,10.06s-10.85-4.01-13.74-10.06h27.48Z" fill="none" stroke="#000" stroke-linecap="round" stroke-linejoin="round"/><ellipse id="uuid-655f7c4d-2455-419c-b930-81012ec17066" cx="122.5" cy="247.5" rx="1.5" ry="2.5" fill="none" stroke="#000" stroke-linecap="round" stroke-linejoin="round"/><ellipse id="uuid-882f5c5f-9a1b-4ed7-ae3c-803c53ee0bfc" cx="131.5" cy="245.5" rx="1.5" ry="2.5" fill="none" stroke="#000" stroke-linecap="round" stroke-linejoin="round"/><path id="uuid-fc65d653-c25a-40de-944d-b611feb56cf9" d="M103.85,230.97c4.33-6.43,14.89-7.79,20.13-8.47,6.55-.85,14.39-.73,14.88,1.21.43,1.72-5.2,3.7-4.77,6.37.31,1.94,3.56,2.65,3.31,3.22-.53,1.21-14.76-2.95-17.17.25-1.09,1.44.95,3.37-.28,4.45-1.27,1.12-3.8-.65-9.29-1.05-4.72-.35-6.86.66-7.93-.52-1.43-1.58.84-5.03,1.13-5.45Z" fill="none" stroke="#000" stroke-linecap="round" stroke-linejoin="round"/><rect id="uuid-b65902f2-5182-4539-a8d7-79e4d379d78c" x="85.35" y="250.95" width="8.14" height="17.37" transform="translate(-99.96 60.78) rotate(-24.6)" fill="none" stroke="#000" stroke-linecap="round" stroke-linejoin="round"/><rect id="uuid-e78351df-33fc-4007-9482-7edfcd269fa8" x="94.31" y="257.38" width="8.14" height="17.37" transform="translate(-176.57 335.87) rotate(-83.95)" fill="none" stroke="#000" stroke-linecap="round" stroke-linejoin="round"/><rect id="uuid-f963c659-64cc-4d6f-99f1-d2bb4dc01213" x="139.18" y="260.5" width="8.14" height="17.37" transform="translate(-159.83 302.73) rotate(-68.3)" fill="none" stroke="#000" stroke-linecap="round" stroke-linejoin="round"/><rect id="uuid-ecc9bfcb-1976-4612-916d-55c0153b7c98" x="148.37" y="269.38" width="8.14" height="17.37" transform="translate(-110.44 100.72) rotate(-27.26)" fill="none" stroke="#000" stroke-linecap="round" stroke-linejoin="round"/><rect id="uuid-9172fb96-24de-4efb-b01d-8eb364d35e43" x="80.04" y="244.3" width="8.69" height="8.69" transform="translate(-95.84 57.69) rotate(-24.6)" fill="none" stroke="#000" stroke-linecap="round" stroke-linejoin="round"/><rect id="uuid-fdf54326-5387-4119-865b-5653114e0380" x="153.76" y="284.71" width="8.69" height="8.69" transform="translate(-114.84 104.53) rotate(-27.26)" fill="none" stroke="#000" stroke-linecap="round" stroke-linejoin="round"/></g><polygon points="437.09 259 335.04 259 340.69 241 429.56 241 437.09 259" fill="#37474f"/><path d="M444.94,269.5l-10.94-26.69c-.6-1.68-2.19-2.81-3.97-2.81h-89.53c-1.78,0-3.38,1.13-3.97,2.81l-10.96,26.69c-.42,1.23.5,2.5,1.79,2.5h115.79c1.3,0,2.21-1.28,1.79-2.5ZM436.33,267h-102.15c-1.3,0-2.21-1.28-1.8-2.51l8.47-19.56c.42-1.16,1.52-1.93,2.75-1.93h83.32c1.23,0,2.33.77,2.75,1.93l8.47,19.56c.41,1.23-.52,2.51-1.82,2.51Z" fill="#82aec0"/><path d="M326,270.21v65.32c0,1.36,1.1,2.47,2.47,2.47h113.06c1.36,0,2.47-1.11,2.47-2.47v-65.53l-118,.21Z" fill="#37474f"/><path d="M428,270.01v-31.77l-2-1.67v-7.75c0-1.01-.82-1.82-1.82-1.82h-18.36c-1.01,0-1.82.82-1.82,1.82v3.94c0,1.79-1.45,3.24-3.24,3.24h-55.31c-1.35,0-2.45,1.1-2.45,2.45v31.55h85Z" fill="#f3ab47"/><path d="M426,236v-6.43c0-1.42-1.15-2.57-2.57-2.57h-16.86c-1.42,0-2.57,1.15-2.57,2.57v1.81c0,1.87-1.24,3.97-3.93,4.62h25.93Z" fill="#7cb342"/><rect x="343" y="241" width="85" height="5" fill="#de7340" isolation="isolate" opacity=".75"/><path d="M434,270v-23.21c0-1.54-1.25-2.79-2.79-2.79h-28.13c-2.81,0-5.08-2.3-5.08-5.13v-1.96c0-1.61-1.3-2.91-2.91-2.91h-19.18c-1.61,0-2.91,1.3-2.91,2.91v1.96c0,2.84-2.28,5.13-5.08,5.13h-28.13c-1.53,0-2.79,1.25-2.79,2.79v23.21h97Z" fill="#ffca28"/><path d="M398,238.87v-1.96c0-1.61-1.3-2.91-2.91-2.91h-19.18c-1.61,0-2.91,1.3-2.91,2.91v1.96c0,2.84-2.28,5.13-5.08,5.13h35.17c-2.81,0-5.09-2.3-5.09-5.13Z" fill="#0288d1"/><rect x="334" y="252" width="100" height="5" fill="#f3ab47"/><path d="M439,270.01v-12.94c0-1.7-1.37-3.07-3.07-3.07h-68.22c-3.15,0-5.71-2.56-5.71-5.71v-2.08c0-1.77-1.44-3.21-3.21-3.21h-21.58c-1.77,0-3.21,1.44-3.21,3.21v7.91c-1.11,0-2,.93-2,2.08v13.8h107Z" fill="#ffe36c"/><path d="M362,248.35v-2.14c0-1.77-1.44-3.21-3.21-3.21h-21.58c-1.77,0-3.21,1.44-3.21,3.21v7.79h33.7c-3.15,0-5.7-2.52-5.7-5.65Z" fill="#f44336"/><path d="M438.78,265.46c.25,2.3-.61,2.54-1.92,2.54h-103.22c-1.31,0-2.22.1-1.92-2.32l-3.96.13-1.52,3.71c-.41,1.21.49,2.48,1.77,2.48h114.49c1.28,0,2.19-1.26,1.77-2.48l-1.75-4.3-3.73.24Z" fill="#82aec0"/><polygon points="437.09 259 335.04 259 340.69 241 429.56 241 437.09 259" fill="none" stroke="#000" stroke-linecap="round" stroke-linejoin="round"/><path d="M444.94,269.5l-10.94-26.69c-.6-1.68-2.19-2.81-3.97-2.81h-89.53c-1.78,0-3.38,1.13-3.97,2.81l-10.96,26.69c-.42,1.23.5,2.5,1.79,2.5h115.79c1.3,0,2.21-1.28,1.79-2.5ZM436.33,267h-102.15c-1.3,0-2.21-1.28-1.8-2.51l8.47-19.56c.42-1.16,1.52-1.93,2.75-1.93h83.32c1.23,0,2.33.77,2.75,1.93l8.47,19.56c.41,1.23-.52,2.51-1.82,2.51Z" fill="none" stroke="#000" stroke-linecap="round" stroke-linejoin="round"/><path d="M326,270.21v65.32c0,1.36,1.1,2.47,2.47,2.47h113.06c1.36,0,2.47-1.11,2.47-2.47v-65.53l-118,.21Z" fill="none" stroke="#000" stroke-linecap="round" stroke-linejoin="round"/><path d="M428,270.01v-31.77l-2-1.67v-7.75c0-1.01-.82-1.82-1.82-1.82h-18.36c-1.01,0-1.82.82-1.82,1.82v3.94c0,1.79-1.45,3.24-3.24,3.24h-55.31c-1.35,0-2.45,1.1-2.45,2.45v31.55h85Z" fill="none" stroke="#000" stroke-linecap="round" stroke-linejoin="round"/><path d="M426,236v-6.43c0-1.42-1.15-2.57-2.57-2.57h-16.86c-1.42,0-2.57,1.15-2.57,2.57v1.81c0,1.87-1.24,3.97-3.93,4.62h25.93Z" fill="none" stroke="#000" stroke-linecap="round" stroke-linejoin="round"/><rect x="343" y="241" width="85" height="5" fill="none" stroke="#000" stroke-linecap="round" stroke-linejoin="round"/><path d="M434,270v-23.21c0-1.54-1.25-2.79-2.79-2.79h-28.13c-2.81,0-5.08-2.3-5.08-5.13v-1.96c0-1.61-1.3-2.91-2.91-2.91h-19.18c-1.61,0-2.91,1.3-2.91,2.91v1.96c0,2.84-2.28,5.13-5.08,5.13h-28.13c-1.53,0-2.79,1.25-2.79,2.79v23.21h97Z" fill="none" stroke="#000" stroke-linecap="round" stroke-linejoin="round"/><path d="M398,238.87v-1.96c0-1.61-1.3-2.91-2.91-2.91h-19.18c-1.61,0-2.91,1.3-2.91,2.91v1.96c0,2.84-2.28,5.13-5.08,5.13h35.17c-2.81,0-5.09-2.3-5.09-5.13Z" fill="none" stroke="#000" stroke-linecap="round" stroke-linejoin="round"/><rect x="334" y="252" width="100" height="5" fill="none" stroke="#000" stroke-linecap="round" stroke-linejoin="round"/><path d="M439,270.01v-12.94c0-1.7-1.37-3.07-3.07-3.07h-68.22c-3.15,0-5.71-2.56-5.71-5.71v-2.08c0-1.77-1.44-3.21-3.21-3.21h-21.58c-1.77,0-3.21,1.44-3.21,3.21v7.91c-1.11,0-2,.93-2,2.08v13.8h107Z" fill="none" stroke="#000" stroke-linecap="round" stroke-linejoin="round"/><path d="M362,248.35v-2.14c0-1.77-1.44-3.21-3.21-3.21h-21.58c-1.77,0-3.21,1.44-3.21,3.21v7.79h33.7c-3.15,0-5.7-2.52-5.7-5.65Z" fill="none" stroke="#000" stroke-linecap="round" stroke-linejoin="round"/><path d="M438.78,265.46c.25,2.3-.61,2.54-1.92,2.54h-103.22c-1.31,0-2.22.1-1.92-2.32l-3.96.13-1.52,3.71c-.41,1.21.49,2.48,1.77,2.48h114.49c1.28,0,2.19-1.26,1.77-2.48l-1.75-4.3-3.73.24Z" fill="none" stroke="#000" stroke-linecap="round" stroke-linejoin="round"/><path d="M397.01,306h0c-.03-.69-.79-1.34-2.09-1.72-2.79-.81-5.88-1.29-9.41-1.32-3.52.03-6.62.5-9.41,1.32-1.3.38-2.05,1.03-2.09,1.72h0v.09h0v14.02c-.03.79.88,1.63,2.98,2.21,2.17.6,5.11.98,8.52.98s6.35-.39,8.52-.98c2.2-.61,3.09-1.5,2.96-2.32h.01v-14h0Z" fill="#e2a610"/><path d="M387.54,319.15l-1.3-3.07c.89-.43,1.45-1.43,1.19-2.53-.18-.77-.79-1.41-1.56-1.62-1.49-.39-2.83.72-2.83,2.14,0,.83.45,1.55,1.12,1.93l-1.21,3.16c-.15.4.14.83.57.83h3.46c.44,0,.73-.45.56-.85Z" fill="#4e342e"/><path d="M387.42,319h-4.35l-.12.43c-.15.4.14.83.57.57h3.46c.44.26.73-.19.56-.59l-.12-.41Z" fill="#9e740b"/><path d="M384.37,315.94c.05-.15,0-.31-.13-.41-.17-.13-.41-.35-.56-.71-.54-1.3.1-1.88.1-1.88-.45.41-.74.99-.74,1.65,0,.83.45,1.55,1.12,1.93l.2-.59Z" fill="#9e740b"/><path d="M386.83,313.01s.64,1.28-.09,2.1c-.25.28-.46.43-.62.5-.15.07-.22.26-.15.41l.27.57c.74-.36,1.26-1.12,1.26-2,0-.94-.66-1.58-.66-1.58Z" fill="#9e740b"/><path d="M394.17,304.5c-2.64-.77-5.57-1.22-8.92-1.24-3.34.03-6.27.48-8.92,1.24-2.65.77-2.91,2.69.84,3.71,2.06.56,4.84.93,8.08.93s6.02-.36,8.08-.93c3.75-1.02,3.49-2.94.84-3.71Z" fill="#fdd835"/><path d="M393.25,306s-.11.5-1.53.5-1.72-.5-1.72-.5v-6.4c0-2.91-2.24-5.27-5-5.27s-5,2.36-5,5.27v6.73s-.57.47-1.61.47-1.39-.47-1.39-.47v-6.73c0-4.68,3.59-8.49,8-8.49s8,3.81,8,8.49v6.4h.25Z" fill="#84b0c1" stroke="#84b0c1" stroke-miterlimit="10" stroke-width="1.96"/><path d="M381.57,294.52c-1.49.89-1.72,1.49-2.13,1.76-.31.2-.72.04-.45-.66.23-.6.78-1.75,2.15-2.62,2.37-1.51,4.41-1.44,4.3-.29-.09,1.02-2.28.87-3.87,1.81Z" fill="#b9e4ea"/><path d="M397.01,306h0c-.03-.69-.79-1.34-2.09-1.72-2.79-.81-5.88-1.29-9.41-1.32-3.52.03-6.62.5-9.41,1.32-1.3.38-2.05,1.03-2.09,1.72h0v.09h0v14.02c-.03.79.88,1.63,2.98,2.21,2.17.6,5.11.98,8.52.98s6.35-.39,8.52-.98c2.2-.61,3.09-1.5,2.96-2.32h.01v-14h0Z" fill="none" stroke="#000" stroke-linecap="round" stroke-linejoin="round"/><line x1="374" y1="306" x2="397" y2="306" fill="none" stroke="#000" stroke-linecap="round" stroke-linejoin="round"/><path d="M387.54,319.15l-1.3-3.07c.89-.43,1.45-1.43,1.19-2.53-.18-.77-.79-1.41-1.56-1.62-1.49-.39-2.83.72-2.83,2.14,0,.83.45,1.55,1.12,1.93l-1.21,3.16c-.15.4.14.83.57.83h3.46c.44,0,.73-.45.56-.85Z" fill="none" stroke="#000" stroke-linecap="round" stroke-linejoin="round"/><path d="M387.42,319h-4.35l-.12.43c-.15.4.14.83.57.57h3.46c.44.26.73-.19.56-.59l-.12-.41Z" fill="none" stroke="#000" stroke-linecap="round" stroke-linejoin="round"/><path d="M384.37,315.94c.05-.15,0-.31-.13-.41-.17-.13-.41-.35-.56-.71-.54-1.3.1-1.88.1-1.88-.45.41-.74.99-.74,1.65,0,.83.45,1.55,1.12,1.93l.2-.59Z" fill="none" stroke="#000" stroke-linecap="round" stroke-linejoin="round"/><path d="M386.83,313.01s.64,1.28-.09,2.1c-.25.28-.46.43-.62.5-.15.07-.22.26-.15.41l.27.57c.74-.36,1.26-1.12,1.26-2,0-.94-.66-1.58-.66-1.58Z" fill="none" stroke="#000" stroke-linecap="round" stroke-linejoin="round"/><path d="M394.17,304.5c-2.64-.77-5.57-1.22-8.92-1.24-3.34.03-6.27.48-8.92,1.24-2.65.77-2.91,2.69.84,3.71,2.06.56,4.84.93,8.08.93s6.02-.36,8.08-.93c3.75-1.02,3.49-2.94.84-3.71Z" fill="none" stroke="#000" stroke-linecap="round" stroke-linejoin="round"/><path d="M393.25,306s-.11.5-1.53.5-1.72-.5-1.72-.5v-6.4c0-2.91-2.24-5.27-5-5.27s-5,2.36-5,5.27v6.73s-.57.47-1.61.47-1.39-.47-1.39-.47v-6.73c0-4.68,3.59-8.49,8-8.49s8,3.81,8,8.49v6.4h.25Z" fill="none" stroke="#000" stroke-linecap="round" stroke-linejoin="round"/><path d="M381.57,294.52c-1.49.89-1.72,1.49-2.13,1.76-.31.2-.72.04-.45-.66.23-.6.78-1.75,2.15-2.62,2.37-1.51,4.41-1.44,4.3-.29-.09,1.02-2.28.87-3.87,1.81Z" fill="none" stroke="#000" stroke-linecap="round" stroke-linejoin="round"/><path d="M399.32,169.32c-34.03,0-53.56-33.13-56.94-39.38,3.07-6.27,20.91-39.26,56.94-39.26s53.87,32.98,56.94,39.26c-3.38,6.25-22.92,39.38-56.94,39.38Z" fill="#fafafa"/><path d="M399.32,93.12c15.81,0,29.84,6.42,41.7,19.09,6.63,7.08,10.73,14.26,12.49,17.67-4.51,7.99-23.05,36.99-54.19,36.99-14.88,0-28.63-6.45-40.89-19.17-6.89-7.15-11.37-14.41-13.3-17.82,1.75-3.41,5.86-10.6,12.49-17.67,11.86-12.67,25.89-19.09,41.7-19.09M399.32,88.24c-41.76,0-59.66,41.76-59.66,41.76,0,0,20.25,41.76,59.66,41.76s59.65-41.76,59.65-41.76c0,0-17.9-41.76-59.65-41.76h0Z" fill="#b0bec5"/><path d="M399.32,103c26.97,0,45.47,16.51,53.66,27.71.96,1.31,1.99-4.99,1.12-6.36-7.84-12.26-25.41-32.91-54.77-32.91s-46.95,20.66-54.79,32.92c-.88,1.37.3,6.83,1.41,5.64,8.54-9.17,26.39-27,53.37-27Z" fill="#b0bec5"/><circle cx="385" cy="128" r="32.99" fill="#c1272d"/><path d="M379.28,104.78c10.51-2.76,20.37-2.58,29.11-.8-8.05-7.79-19.86-11.29-31.49-8.24-11.88,3.12-20.55,12.31-23.56,23.36,6.67-6.12,15.16-11.49,25.93-14.32Z" fill="#7d0007"/><circle cx="378.5" cy="135.5" r="15.5" fill="#212121"/><circle cx="408.5" cy="120.5" r="7.5" fill="#ffcfd1"/><path d="M342.21,133.21c-.52,0-1.05-.13-1.54-.4-1.55-.85-2.12-2.8-1.27-4.35.85-1.55,21.28-40.21,59.92-40.21s58.47,37.89,59.29,39.41c.84,1.56.27,3.5-1.29,4.35-1.56.84-3.5.27-4.35-1.29-.18-.34-18.88-33.86-53.66-33.86s-54.11,34.34-54.3,34.69c-.58,1.06-1.67,1.66-2.8,1.66Z" fill="#616161"/><path d="M399.32,169.32c-34.03,0-53.56-33.13-56.94-39.38,3.07-6.27,20.91-39.26,56.94-39.26s53.87,32.98,56.94,39.26c-3.38,6.25-22.92,39.38-56.94,39.38Z" fill="none" stroke="#000" stroke-linecap="round" stroke-linejoin="round"/><path d="M399.32,93.12c15.81,0,29.84,6.42,41.7,19.09,6.63,7.08,10.73,14.26,12.49,17.67-4.51,7.99-23.05,36.99-54.19,36.99-14.88,0-28.63-6.45-40.89-19.17-6.89-7.15-11.37-14.41-13.3-17.82,1.75-3.41,5.86-10.6,12.49-17.67,11.86-12.67,25.89-19.09,41.7-19.09M399.32,88.24c-41.76,0-59.66,41.76-59.66,41.76,0,0,20.25,41.76,59.66,41.76s59.65-41.76,59.65-41.76c0,0-17.9-41.76-59.65-41.76h0Z" fill="none" stroke="#000" stroke-linecap="round" stroke-linejoin="round"/><path d="M399.32,103c26.97,0,45.47,16.51,53.66,27.71.96,1.31,1.99-4.99,1.12-6.36-7.84-12.26-25.41-32.91-54.77-32.91s-46.95,20.66-54.79,32.92c-.88,1.37.3,6.83,1.41,5.64,8.54-9.17,26.39-27,53.37-27Z" fill="none" stroke="#000" stroke-linecap="round" stroke-linejoin="round"/><circle cx="385" cy="128" r="32.99" fill="none" stroke="#000" stroke-linecap="round" stroke-linejoin="round"/><path d="M379.28,104.78c10.51-2.76,20.37-2.58,29.11-.8-8.05-7.79-19.86-11.29-31.49-8.24-11.88,3.12-20.55,12.31-23.56,23.36,6.67-6.12,15.16-11.49,25.93-14.32Z" fill="none" stroke="#000" stroke-linecap="round" stroke-linejoin="round"/><circle cx="378.5" cy="135.5" r="15.5" fill="none" stroke="#000" stroke-linecap="round" stroke-linejoin="round"/><circle cx="408.5" cy="120.5" r="7.5" fill="none" stroke="#000" stroke-linecap="round" stroke-linejoin="round"/><path d="M342.21,133.21c-.52,0-1.05-.13-1.54-.4-1.55-.85-2.12-2.8-1.27-4.35.85-1.55,21.28-40.21,59.92-40.21s58.47,37.89,59.29,39.41c.84,1.56.27,3.5-1.29,4.35-1.56.84-3.5.27-4.35-1.29-.18-.34-18.88-33.86-53.66-33.86s-54.11,34.34-54.3,34.69c-.58,1.06-1.67,1.66-2.8,1.66Z" fill="none" stroke="#000" stroke-linecap="round" stroke-linejoin="round"/></svg>