<?xml version="1.0" encoding="UTF-8"?><svg id="uuid-45549256-fc01-41a4-9e25-786cec9bc9e9" xmlns="http://www.w3.org/2000/svg" viewBox="0 0 500 500"><g id="uuid-bb1cd07c-fd2a-4cee-9ed2-b179744ea829"><polygon id="uuid-853c88eb-27f4-46f6-867b-1ce4fc6b966c" points="410 393 390 393 390 427.959792 390 435 420 435 420 428 410 428 410 393" fill="#336"/><rect id="uuid-31dace5c-8b0a-4437-aa60-abdc28d64753" x="390" y="354" width="20.000015" height="39" fill="#336"/><polygon id="uuid-d2149704-60dd-447f-89d4-431686f9d9da" points="381.999969 393 362 393 362 428 352 428 352 435 382 435 382 427.959792 381.999969 427.959792 381.999969 393" fill="#336"/><rect id="uuid-81d7d509-f2c5-4319-8aae-088adf5d9336" x="361.999985" y="354" width="20.000031" height="39" fill="#336"/><polygon id="uuid-0c19c652-973b-4f3c-b78d-67462338085f" points="395.811119 309.879475 395.836105 310 395.727322 310 388.535128 271.521649 393.779205 263 377.947626 263 383.191704 271.521649 375.999509 310 375.890726 310 375.915713 309.879475 375.890726 310 376.018611 310 385.863416 322.811467 395.708221 310 395.836105 310 395.811119 309.879475" fill="#c1272d"/><path id="uuid-f946eda9-eed9-4035-80eb-4d0a15c38f86" d="M358,254v100h56v-100h-56ZM385.863416,303.92768l-19.766986-48.92768h39.533973l-19.766986,48.92768Z" fill="#336"/><path id="uuid-a230b768-2c89-4a18-b80c-fbaae2d17a68" d="M411.878059,242.860964c2.796053-4.977446,4.838447-10.757961,5.819396-17.062456,3.387167-21.769099-7.102504-41.475861-23.429343-44.016239-16.32684-2.540378-32.308205,13.047617-35.695373,34.816717-.980949,6.304495-.79143,12.432285.360118,18.023959l52.945202,8.238019Z" fill="#eec6a2"/><path id="uuid-307db772-d035-450a-95ee-85e63479b40f" d="M360.787159,247c5.31123,11.108678,14.626388,18.483075,25.23917,18.483075s19.92794-7.374397,25.23917-18.483075h-50.478341Z" fill="#eec6a2"/><ellipse id="uuid-b3c7f4d1-b259-4074-8304-6cefd8383168" cx="388" cy="222.5" rx="3" ry="4.5" fill="#333"/><ellipse id="uuid-9958b6b1-3caa-40e9-9cb8-d04c118aecbf" cx="372" cy="219.5" rx="3" ry="4.5" fill="#333"/><path id="uuid-18bf285a-6b44-4fa9-8799-3ea5451f64d4" d="M361.912335,187.74347c10.820344-9.260118,30.190968-6.487215,39.784795-5.113849,12.012496,1.71959,25.835785,5.7735,25.752543,9.44016-.073765,3.249225-11.018245,4.006532-11.580405,8.940072-.408883,3.588346,5.010752,6.436814,4.287546,7.320658-1.534092,1.874861-24.675817-12.46442-30.524057-7.995394-2.627501,2.00784.032,6.439504-2.68168,7.744565-2.803563,1.348299-6.410414-3.012428-15.923817-6.420453-8.187517-2.933048-12.468361-2.193704-13.788786-4.818514-1.756681-3.491992,3.964108-8.489845,4.673861-9.097246Z" fill="#534741"/><rect id="uuid-bb428d3c-226e-4878-8672-2f5180e34ca8" x="423.718341" y="220.385734" width="14.959007" height="31.912601" transform="translate(-21.121886 43.479389) rotate(-5.634698)" fill="#336"/><rect id="uuid-96646bd0-dac2-404c-a331-88ce10d11b82" x="406.962843" y="247.354703" width="31.912601" height="14.959007" transform="translate(-68.803553 299.665717) rotate(-36.280878)" fill="#336"/><rect id="uuid-5a5db851-1b27-4124-8b69-eac1c97a26d7" x="338.493154" y="240.604273" width="14.959007" height="31.912601" transform="translate(-20.342336 483.130062) rotate(-68.296475)" fill="#336"/><rect id="uuid-e71a818c-35fb-47a6-97ed-5fe73df5c546" x="313.373808" y="232.707935" width="31.912601" height="14.959007" transform="translate(-30.267549 432.119329) rotate(-64.194719)" fill="#336"/><rect id="uuid-ca38a705-006f-4770-8fc2-358840e639fb" x="421.037733" y="206.248454" width="15.956303" height="15.956303" transform="translate(-18.961012 43.158293) rotate(-5.634698)" fill="#eec6a2"/><rect id="uuid-957098ee-8470-4eac-873c-d26ee2dbab80" x="331.229115" y="211.782211" width="15.956303" height="15.956303" transform="translate(-6.299997 429.476641) rotate(-64.194719)" fill="#eec6a2"/><polygon id="uuid-c166d723-6408-4577-98dd-fea9a7b47429" points="410 393 390 393 390 427.959792 390 435 420 435 420 428 410 428 410 393" fill="none" stroke="#000" stroke-linecap="round" stroke-linejoin="round"/><rect id="uuid-20ae339b-8a3f-4d59-8285-6d1dcca77699" x="390" y="354" width="20.000015" height="39" fill="none" stroke="#000" stroke-linecap="round" stroke-linejoin="round"/><polygon id="uuid-60f3413b-d2a5-4bdf-8619-f4d640b2d8f9" points="381.999969 393 362 393 362 428 352 428 352 435 382 435 382 427.959792 381.999969 427.959792 381.999969 393" fill="none" stroke="#000" stroke-linecap="round" stroke-linejoin="round"/><rect id="uuid-aac07573-eb94-4875-a40c-69af570099f7" x="361.999985" y="354" width="20.000031" height="39" fill="none" stroke="#000" stroke-linecap="round" stroke-linejoin="round"/><polygon id="uuid-03826a2b-2589-4ea0-9dfd-3c2ec596ca55" points="395.811119 309.879475 395.836105 310 395.727322 310 388.535128 271.521649 393.779205 263 377.947626 263 383.191704 271.521649 375.999509 310 375.890726 310 375.915713 309.879475 375.890726 310 376.018611 310 385.863416 322.811467 395.708221 310 395.836105 310 395.811119 309.879475" fill="none" stroke="#000" stroke-linecap="round" stroke-linejoin="round"/><path id="uuid-bd056cbc-985d-415a-ab25-cbce8026d8b7" d="M358,254v100h56v-100h-56ZM385.863416,303.92768l-19.766986-48.92768h39.533973l-19.766986,48.92768Z" fill="none" stroke="#000" stroke-linecap="round" stroke-linejoin="round"/><path id="uuid-143bb4dd-1a32-4a65-99ae-f47d6d373c5a" d="M411.878059,242.860964c2.796053-4.977446,4.838447-10.757961,5.819396-17.062456,3.387167-21.769099-7.102504-41.475861-23.429343-44.016239-16.32684-2.540378-32.308205,13.047617-35.695373,34.816717-.980949,6.304495-.79143,12.432285.360118,18.023959l52.945202,8.238019Z" fill="none" stroke="#000" stroke-linecap="round" stroke-linejoin="round"/><path id="uuid-caed15a0-6228-4550-a3d4-7fbe02f634ab" d="M360.787159,247c5.31123,11.108678,14.626388,18.483075,25.23917,18.483075s19.92794-7.374397,25.23917-18.483075h-50.478341Z" fill="none" stroke="#000" stroke-linecap="round" stroke-linejoin="round"/><ellipse id="uuid-1ac6b608-f86c-4f22-be50-d6f4fb97c2be" cx="388" cy="222.5" rx="3" ry="4.5" fill="none" stroke="#000" stroke-linecap="round" stroke-linejoin="round"/><ellipse id="uuid-5866646a-da0c-4670-9736-2cb878207c30" cx="372" cy="219.5" rx="3" ry="4.5" fill="none" stroke="#000" stroke-linecap="round" stroke-linejoin="round"/><path id="uuid-52db8f92-5b3c-4cfa-8d9e-703cb62f0afe" d="M361.912335,187.74347c10.820344-9.260118,30.190968-6.487215,39.784795-5.113849,12.012496,1.71959,25.835785,5.7735,25.752543,9.44016-.073765,3.249225-11.018245,4.006532-11.580405,8.940072-.408883,3.588346,5.010752,6.436814,4.287546,7.320658-1.534092,1.874861-24.675817-12.46442-30.524057-7.995394-2.627501,2.00784.032,6.439504-2.68168,7.744565-2.803563,1.348299-6.410414-3.012428-15.923817-6.420453-8.187517-2.933048-12.468361-2.193704-13.788786-4.818514-1.756681-3.491992,3.964108-8.489845,4.673861-9.097246Z" fill="none" stroke="#000" stroke-linecap="round" stroke-linejoin="round"/><rect id="uuid-c5fc666c-2da2-443f-a3d6-3c91c8f5c8ce" x="423.718341" y="220.385734" width="14.959007" height="31.912601" transform="translate(-21.121886 43.479389) rotate(-5.634698)" fill="none" stroke="#000" stroke-linecap="round" stroke-linejoin="round"/><rect id="uuid-1900035f-af35-4e67-8b2d-0a0c46aaa7ea" x="406.962843" y="247.354703" width="31.912601" height="14.959007" transform="translate(-68.803553 299.665717) rotate(-36.280878)" fill="none" stroke="#000" stroke-linecap="round" stroke-linejoin="round"/><rect id="uuid-92d3c51c-fe01-476d-b38d-7f0dfbd4d34f" x="338.493154" y="240.604273" width="14.959007" height="31.912601" transform="translate(-20.342336 483.130062) rotate(-68.296475)" fill="none" stroke="#000" stroke-linecap="round" stroke-linejoin="round"/><rect id="uuid-8c6f735c-fe03-4611-b24c-d1bf79ba7ac3" x="313.373808" y="232.707935" width="31.912601" height="14.959007" transform="translate(-30.267549 432.119329) rotate(-64.194719)" fill="none" stroke="#000" stroke-linecap="round" stroke-linejoin="round"/><rect id="uuid-a57acf73-4fba-4f96-b7f8-3af9e6aa43b4" x="421.037733" y="206.248454" width="15.956303" height="15.956303" transform="translate(-18.961012 43.158293) rotate(-5.634698)" fill="none" stroke="#000" stroke-linecap="round" stroke-linejoin="round"/><rect id="uuid-59da4651-869f-41c1-9793-c4c58d1aa48c" x="331.229115" y="211.782211" width="15.956303" height="15.956303" transform="translate(-6.299997 429.476641) rotate(-64.194719)" fill="none" stroke="#000" stroke-linecap="round" stroke-linejoin="round"/></g><path d="M335.770631,187.153983c-2.058019-.438751-10.297163-2.547728-15.735567-13.13961-2.414453-4.702409-3.445008-9.456653-3.91959-12.658893" fill="none" stroke="#333" stroke-miterlimit="10" stroke-width="2"/><text transform="translate(284.679199 111.13623)" fill="#333" font-family="ComicNeue-Bold, &apos;Comic Neue&apos;" font-size="24" font-weight="700"><tspan x="0" y="0">STABLE pay? </tspan><tspan x="0" y="28.799805">I want!</tspan></text><text transform="translate(59.791992 357.61377)" fill="#333" font-family="ComicNeue-Regular, &apos;Comic Neue&apos;" font-size="24"><tspan x="0" y="0">So he enlisted </tspan><tspan x="0" y="28.799805">in the summer </tspan><tspan x="0" y="57.599609">of 1914.</tspan></text><rect x="62" y="65" width="181" height="238" fill="#c6b96e"/><path d="M152.088278,212.221488s1.218519-2.809922,3.981832-4.594422c1.345032-.865616,3.695516-2.203991,4.121664-1.451571.18644.32627-.419489,1.171911-1.032082,2.483651-.246369.539345-.799028,2.297211-.799028,2.297211,0,0,2.437044-3.189461,6.705193-4.028443,3.355926-.665858,6.984852-.23305,7.404346.512711.452784.805689-1.92433,2.576871-2.670093,4.121663-.745763,1.544792-1.311742,3.515732-1.311742,3.515732,0,0,4.494543-2.124088,5.6265-2.576871,1.404961-.559321,4.454594-1.731231,4.874082-1.218521s-1.345032,3.489097-1.731231,4.028443c-.466099.6592-1.171912,1.87772-1.171912,1.87772,0,0,2.157379-.98547,2.996362-1.498181.845638-.512711,2.716703-1.970941,3.142852-1.684622.419489.279661.419489,3.129533.13983,4.361373-.372879,1.638011-2.11077,3.422511-2.11077,3.422511,0,0,2.483654.559321,3.842,2.297212,1.358346,1.737891,2.150724,3.089582,2.716703,4.827473.845638,2.576871,1.218522,6.092602,1.032082,6.751803s-1.218522-.233049-3.142852-.372882c-1.138617-.086562-1.404961-.09322-1.404961-.09322,0,0,1.085347,1.291764,1.591401,2.483651.659198,1.544791,1.378326,3.981832,1.77784,5.013912.419489,1.07869.752418,1.92433,1.358352,3.142849.17978.359564-1.265132.705808-2.716703-.659201-.486079-.452784-1.078692-.89225-1.078692-.89225,0,0,.858958,5.107132.799028,8.529643-.04661,2.530264-.612588,7.124682-1.358352,7.544176-.752418.419489-2.250599-2.809923-2.250599-2.809923,0,0-.652543,3.675535-1.404961,6.139214-.892248,2.903143-1.737891,4.261494-2.250599,5.999385-.612588,2.06416-1.218522,3.562341-1.638011,2.903143-.366224-.565979-.752418-1.451571-1.125302-2.11077-.286319-.499394-.938863-1.83111-.938863-1.83111,0,0-.659198,3.981835-3.842,6.658583-3.182802,2.676748-5.246961,4.827473-6.751803,5.013912-.885593.113195.13983-3.88861.13983-3.88861,0,0-4.967302,3.90193-7.357736,5.673115-1.078692.799028-2.06416,3.422511-2.809923,3.236072-.752421-.18644-2.670093-3.096242-3.888612-3.981835s-3.515731-1.92433-3.842003-2.11077-1.87772-1.171912-1.87772-1.171912c0,0,.386199,2.177354-.04661,2.390429-.93886.466099-4.547813-2.11077-5.579893-3.70217-1.03208-1.591401-2.856533-4.874082-2.856533-4.874082,0,0-.233049,3.142852-.98547,2.623483-.79903-.546004-4.687643-3.422511-6.045993-5.579891-.958836-1.524816-2.623482-5.81294-2.623482-5.81294,0,0-1.451571,1.498181-1.87772,1.684621s-1.498181.612588-1.31174-1.032082c.186441-1.638011-1.098666-5.353501-1.31174-7.590785-.279661-2.903143.279661-5.906165.279661-5.906165,0,0-2.390431,3.189462-3.515732,3.142852s-.466101-6.185824-.18644-8.063544,1.218521-5.153742,1.591402-6.325654c.372881-1.171909,1.777842-2.903143,1.777842-2.903143,0,0-3.469122,1.171909-3.981832.705811s.279661-4.641033.75242-7.171294c.239709-1.298424,1.26513-3.329291,2.576871-4.827473,1.31174-1.498181,3.329291-1.218521,3.515732-1.87772s-.745762-1.178569-1.404961-2.250602c-.98547-1.591401-1.544791-4.874082-1.03208-5.440062.319612-.346247,2.110771,1.03208,4.268152,1.26513,2.157381.233051,4.075052.09322,4.075052.09322,0,0-1.245156-1.464889-1.777842-2.670092-.752419-1.684621-.79903-3.702172-.32627-4.221542s2.110771,1.07869,4.314761,1.638011c2.203992.559321,5.486673.61259,5.486673.61259,0,0-1.404961-1.498181-1.77784-3.236071-.372882-1.731231-.279659-2.809922.326272-2.996362.612588-.18644,2.397089,1.484864,3.655563,1.87772,1.358352.419491,5.952772.13983,8.016934.75242s4.261497,3.835345,4.261497,3.835345ZM153.493237,262.746815s4.780863-1.311742,7.777225-2.809923c2.996362-1.498181,14.156149-7.777225,14.995126-15.467888.845638-7.684005,0-9.748165-3.562341-14.435808-3.562341-4.687643-9.808095-5.766333-13.030846-5.060522-3.842.84564-4.501203,3.648903-6.185824,3.748783-1.591401.09322-1.1253-1.684621-5.719723-3.375901-5.879527-2.164039-21.973323,3.628928-19.123449,19.123451,1.498181,8.156764,13.383752,15.114981,14.901908,15.933989,3.668883,1.97094,9.947924,2.343819,9.947924,2.343819ZM162.372497,239.293749c1.534911.602507,3.284005-.159868,3.906708-1.702813s-.116791-3.282178-1.651703-3.884685-3.284005.159868-3.906708,1.702813c-.622702,1.542945.116791,3.282178,1.651703,3.884685ZM139.729162,236.611937c.633986,1.53837,2.388478,2.287632,3.91877,1.673526,1.530292-.614106,2.256891-2.359031,1.622905-3.8974-.633986-1.53837-2.388478-2.287632-3.91877-1.673526-1.530292.614106-2.256891,2.359031-1.622905,3.8974ZM146.469125,245.056918c-.486843.48684.434681,3.152886,1.251881,4.514885.8172,1.361999,3.152884,3.587567,4.462721,3.535403,1.304042-.05216,3.755644-2.776162,4.514885-4.787286s.979482-3.263002.654917-3.755644-4.190325.110121-5.656647.110121-4.73512-.104319-5.227757.382521ZM151.923902,250.956353s-2.417066,2.630138-3.469121,3.029657c-1.471546.559319-3.748783.079905-3.815368.985472-.059927.938863,1.404961,1.92433,3.748783,1.611376,2.590188-.346244,3.562341-1.93765,3.562341-1.93765,0,0,1.471546,2.090795,4.314764,2.217309,2.843213.126515,3.502416-1.684621,2.716703-1.93765-1.065372-.339589-1.731231-.273004-3.342606-.779053-1.278457-.412834-3.715496-3.189462-3.715496-3.189462Z" fill="#2e2f2f" stroke="#000" stroke-miterlimit="10"/><rect x="62" y="65" width="181" height="238" fill="none" stroke="#000" stroke-linecap="round" stroke-linejoin="round"/><path d="M152.088278,212.221488s1.218519-2.809922,3.981832-4.594422c1.345032-.865616,3.695516-2.203991,4.121664-1.451571.18644.32627-.419489,1.171911-1.032082,2.483651-.246369.539345-.799028,2.297211-.799028,2.297211,0,0,2.437044-3.189461,6.705193-4.028443,3.355926-.665858,6.984852-.23305,7.404346.512711.452784.805689-1.92433,2.576871-2.670093,4.121663-.745763,1.544792-1.311742,3.515732-1.311742,3.515732,0,0,4.494543-2.124088,5.6265-2.576871,1.404961-.559321,4.454594-1.731231,4.874082-1.218521s-1.345032,3.489097-1.731231,4.028443c-.466099.6592-1.171912,1.87772-1.171912,1.87772,0,0,2.157379-.98547,2.996362-1.498181.845638-.512711,2.716703-1.970941,3.142852-1.684622.419489.279661.419489,3.129533.13983,4.361373-.372879,1.638011-2.11077,3.422511-2.11077,3.422511,0,0,2.483654.559321,3.842,2.297212,1.358346,1.737891,2.150724,3.089582,2.716703,4.827473.845638,2.576871,1.218522,6.092602,1.032082,6.751803s-1.218522-.233049-3.142852-.372882c-1.138617-.086562-1.404961-.09322-1.404961-.09322,0,0,1.085347,1.291764,1.591401,2.483651.659198,1.544791,1.378326,3.981832,1.77784,5.013912.419489,1.07869.752418,1.92433,1.358352,3.142849.17978.359564-1.265132.705808-2.716703-.659201-.486079-.452784-1.078692-.89225-1.078692-.89225,0,0,.858958,5.107132.799028,8.529643-.04661,2.530264-.612588,7.124682-1.358352,7.544176-.752418.419489-2.250599-2.809923-2.250599-2.809923,0,0-.652543,3.675535-1.404961,6.139214-.892248,2.903143-1.737891,4.261494-2.250599,5.999385-.612588,2.06416-1.218522,3.562341-1.638011,2.903143-.366224-.565979-.752418-1.451571-1.125302-2.11077-.286319-.499394-.938863-1.83111-.938863-1.83111,0,0-.659198,3.981835-3.842,6.658583-3.182802,2.676748-5.246961,4.827473-6.751803,5.013912-.885593.113195.13983-3.88861.13983-3.88861,0,0-4.967302,3.90193-7.357736,5.673115-1.078692.799028-2.06416,3.422511-2.809923,3.236072-.752421-.18644-2.670093-3.096242-3.888612-3.981835s-3.515731-1.92433-3.842003-2.11077-1.87772-1.171912-1.87772-1.171912c0,0,.386199,2.177354-.04661,2.390429-.93886.466099-4.547813-2.11077-5.579893-3.70217-1.03208-1.591401-2.856533-4.874082-2.856533-4.874082,0,0-.233049,3.142852-.98547,2.623483-.79903-.546004-4.687643-3.422511-6.045993-5.579891-.958836-1.524816-2.623482-5.81294-2.623482-5.81294,0,0-1.451571,1.498181-1.87772,1.684621s-1.498181.612588-1.31174-1.032082c.186441-1.638011-1.098666-5.353501-1.31174-7.590785-.279661-2.903143.279661-5.906165.279661-5.906165,0,0-2.390431,3.189462-3.515732,3.142852s-.466101-6.185824-.18644-8.063544,1.218521-5.153742,1.591402-6.325654c.372881-1.171909,1.777842-2.903143,1.777842-2.903143,0,0-3.469122,1.171909-3.981832.705811s.279661-4.641033.75242-7.171294c.239709-1.298424,1.26513-3.329291,2.576871-4.827473,1.31174-1.498181,3.329291-1.218521,3.515732-1.87772s-.745762-1.178569-1.404961-2.250602c-.98547-1.591401-1.544791-4.874082-1.03208-5.440062.319612-.346247,2.110771,1.03208,4.268152,1.26513,2.157381.233051,4.075052.09322,4.075052.09322,0,0-1.245156-1.464889-1.777842-2.670092-.752419-1.684621-.79903-3.702172-.32627-4.221542s2.110771,1.07869,4.314761,1.638011c2.203992.559321,5.486673.61259,5.486673.61259,0,0-1.404961-1.498181-1.77784-3.236071-.372882-1.731231-.279659-2.809922.326272-2.996362.612588-.18644,2.397089,1.484864,3.655563,1.87772,1.358352.419491,5.952772.13983,8.016934.75242s4.261497,3.835345,4.261497,3.835345ZM153.493237,262.746815s4.780863-1.311742,7.777225-2.809923c2.996362-1.498181,14.156149-7.777225,14.995126-15.467888.845638-7.684005,0-9.748165-3.562341-14.435808-3.562341-4.687643-9.808095-5.766333-13.030846-5.060522-3.842.84564-4.501203,3.648903-6.185824,3.748783-1.591401.09322-1.1253-1.684621-5.719723-3.375901-5.879527-2.164039-21.973323,3.628928-19.123449,19.123451,1.498181,8.156764,13.383752,15.114981,14.901908,15.933989,3.668883,1.97094,9.947924,2.343819,9.947924,2.343819ZM162.372497,239.293749c1.534911.602507,3.284005-.159868,3.906708-1.702813s-.116791-3.282178-1.651703-3.884685-3.284005.159868-3.906708,1.702813c-.622702,1.542945.116791,3.282178,1.651703,3.884685ZM139.729162,236.611937c.633986,1.53837,2.388478,2.287632,3.91877,1.673526,1.530292-.614106,2.256891-2.359031,1.622905-3.8974-.633986-1.53837-2.388478-2.287632-3.91877-1.673526-1.530292.614106-2.256891,2.359031-1.622905,3.8974ZM146.469125,245.056918c-.486843.48684.434681,3.152886,1.251881,4.514885.8172,1.361999,3.152884,3.587567,4.462721,3.535403,1.304042-.05216,3.755644-2.776162,4.514885-4.787286s.979482-3.263002.654917-3.755644-4.190325.110121-5.656647.110121-4.73512-.104319-5.227757.382521ZM151.923902,250.956353s-2.417066,2.630138-3.469121,3.029657c-1.471546.559319-3.748783.079905-3.815368.985472-.059927.938863,1.404961,1.92433,3.748783,1.611376,2.590188-.346244,3.562341-1.93765,3.562341-1.93765,0,0,1.471546,2.090795,4.314764,2.217309,2.843213.126515,3.502416-1.684621,2.716703-1.93765-1.065372-.339589-1.731231-.273004-3.342606-.779053-1.278457-.412834-3.715496-3.189462-3.715496-3.189462Z" fill="none" stroke="#000" stroke-linecap="round" stroke-linejoin="round"/><text transform="translate(81.176758 133.002441)" fill="#333"><tspan font-family="ComicNeue-Bold, &apos;Comic Neue&apos;" font-size="60" font-weight="700"><tspan x="0" y="0">Enlist</tspan></tspan><tspan font-family="ComicNeue-Regular, &apos;Comic Neue&apos;" font-size="24"><tspan x="56.579102" y="28.799805">for</tspan></tspan><tspan font-family="ComicNeue-Regular, &apos;Comic Neue&apos;" font-size="24"><tspan x="17.447266" y="57.599609">Stable Pay</tspan></tspan></text><g id="uuid-84f586d3-ef1c-41c9-b4c8-56157e1c8e6c"><path d="M283.761068,376.444703l39.73426-1.025209v39.794284c0,2.828317-8.895662,5.121546-19.86713,5.121546s-19.86713-2.293229-19.86713-5.121546" fill="#b7d5e5"/><ellipse cx="303.247663" cy="374.910148" rx="20.247664" ry="4.910148" fill="#e0e0e0"/><ellipse cx="303.247664" cy="374.910148" rx="8.395373" ry="1.964059" fill="#82aec0"/><ellipse cx="303.741509" cy="375.401162" rx="6.913836" ry="1.473044" fill="#2f7889"/><path d="M303.689671,370.486801c-.958759,0-2.351675.031476-2.817487.049462-.470335.017986-.42511.269792,0,.292274s6.711318.33724,10.152904.719445c4.96113.548576,8.918275,1.64573,10.5147,2.61698.556263.33724,2.04867.930781,1.325078,2.414636-.189942.386702-.691935,1.155608-3.179283,2.185313-.936147.386702,3.324001.665486,4.255625-.287778,0,0,.058791-1.982969.058791-2.864289.000003-2.832814-9.094647-5.126044-20.310329-5.126044Z" fill="#b7d5e5"/><path d="M312.83641,385.950365s-5.562617-2.302222-16.470768-3.916477c-10.844839-1.605261-12.377951-5.229464-12.377951-5.229464v37.856282c1.370303,5.809515,18.180257,6.097293,23.295149,6.668354,2.686337.301267,6.516851,2.302224,6.516851,2.302224,1.415526-2.778855-1.510497-10.976026-1.659739-13.089397-.244213-3.439846,1.230107-3.367899,1.230107-6.767278s-1.270808-4.617934-1.682353-8.772729c-.411541-4.154795,1.212017-4.815784,1.148703-9.051516Z" fill="#fff"/><path d="M295.68041,383.06809c10.519224,1.72217,17.112959,2.886773,17.112959,2.886773-.230646-.094427-5.503823-2.527049-16.366752-4.136807-10.166475-1.506337-11.550345-4.59995-13.047276-5.975888,0,0,.330139,5.265436,12.301069,7.225922Z" fill="#eee"/><path d="M311.825561,389.295784c-.606007,1.551303-1.297945,3.309446-1.067299,5.652137.212556,2.171824.642187,3.619707,1.022075,4.89672.696458,1.884047,1.202974,3.925472.126628,6.947136-.981371,2.760869-1.19845,5.751061.452245,10.090213.221599.58455,1.334122,3.696148,1.501454,7.109012,0,0,.004523,0,.004523.004497,0,0,.909014-2.549531.321094-5.445297-.755249-3.723126-1.637129-4.163787-1.745667-6.76278-.144718-3.574739,1.302465-4.343645,1.424573-7.868926.135675-4.001912-1.320555-4.793298-1.745667-9.105472-.407021-4.136807,1.334122-4.869742.673844-8.862659-.221599,1.088161-.438675,1.987467-.967804,3.345419Z" fill="#81b6cc"/><path d="M307.33079,420.789475c-.809519-.143889-1.899428-.175364-3.152149-.269791-3.545602-.274289-8.398193-.647501-12.536237-1.582777-5.341016-1.20507-6.919351-2.760869-7.272102-3.893993,0,0,.140196-31.839922.05427-33.683502-.117584-2.576511-1.424572-5.517242-1.424572-5.517242v39.380602c1.42005,6.02535,18.867668,6.331114,24.177025,6.924656,2.785828.310262,4.915906,1.137621,6.313342,1.852571.000003-.004501-.235166-2.158339-6.159577-3.210525Z" fill="#b7d5e5"/><path d="M322.536567,380.208298c-.063314,1.780626-.416065,35.009978-.416065,35.009978-.01809.220329-4.970173,3.493802-9.320773.094427l.619577,4.361632c6.014862-.881319,10.076022-2.545037,10.076022-4.456062l.058791-39.614422c-.00452.004497-.922581,1.848075-1.017552,4.604448Z" fill="#81b6cc"/><path d="M283.761068,376.444703l39.73426-1.025209v39.794284c0,2.828317-8.895662,5.121546-19.86713,5.121546s-19.86713-2.293229-19.86713-5.121546" fill="none" stroke="#000" stroke-linecap="round" stroke-linejoin="round"/><ellipse cx="303.247663" cy="374.910148" rx="20.247664" ry="4.910148" fill="none" stroke="#000" stroke-linecap="round" stroke-linejoin="round"/><ellipse cx="303.247664" cy="374.910148" rx="8.395373" ry="1.964059" fill="none" stroke="#000" stroke-linecap="round" stroke-linejoin="round"/><ellipse cx="303.741509" cy="375.401162" rx="6.913836" ry="1.473044" fill="none" stroke="#000" stroke-linecap="round" stroke-linejoin="round"/><path d="M303.689671,370.486801c-.958759,0-2.351675.031476-2.817487.049462-.470335.017986-.42511.269792,0,.292274s6.711318.33724,10.152904.719445c4.96113.548576,8.918275,1.64573,10.5147,2.61698.556263.33724,2.04867.930781,1.325078,2.414636-.189942.386702-.691935,1.155608-3.179283,2.185313-.936147.386702,3.324001.665486,4.255625-.287778,0,0,.058791-1.982969.058791-2.864289.000003-2.832814-9.094647-5.126044-20.310329-5.126044Z" fill="none" stroke="#000" stroke-linecap="round" stroke-linejoin="round"/><path d="M312.83641,385.950365s-5.562617-2.302222-16.470768-3.916477c-10.844839-1.605261-12.377951-5.229464-12.377951-5.229464v37.856282c1.370303,5.809515,18.180257,6.097293,23.295149,6.668354,2.686337.301267,6.516851,2.302224,6.516851,2.302224,1.415526-2.778855-1.510497-10.976026-1.659739-13.089397-.244213-3.439846,1.230107-3.367899,1.230107-6.767278s-1.270808-4.617934-1.682353-8.772729c-.411541-4.154795,1.212017-4.815784,1.148703-9.051516Z" fill="none" stroke="#000" stroke-linecap="round" stroke-linejoin="round"/><path d="M295.68041,383.06809c10.519224,1.72217,17.112959,2.886773,17.112959,2.886773-.230646-.094427-5.503823-2.527049-16.366752-4.136807-10.166475-1.506337-11.550345-4.59995-13.047276-5.975888,0,0,.330139,5.265436,12.301069,7.225922Z" fill="none" stroke="#000" stroke-linecap="round" stroke-linejoin="round"/><path d="M311.825561,389.295784c-.606007,1.551303-1.297945,3.309446-1.067299,5.652137.212556,2.171824.642187,3.619707,1.022075,4.89672.696458,1.884047,1.202974,3.925472.126628,6.947136-.981371,2.760869-1.19845,5.751061.452245,10.090213.221599.58455,1.334122,3.696148,1.501454,7.109012,0,0,.004523,0,.004523.004497,0,0,.909014-2.549531.321094-5.445297-.755249-3.723126-1.637129-4.163787-1.745667-6.76278-.144718-3.574739,1.302465-4.343645,1.424573-7.868926.135675-4.001912-1.320555-4.793298-1.745667-9.105472-.407021-4.136807,1.334122-4.869742.673844-8.862659-.221599,1.088161-.438675,1.987467-.967804,3.345419Z" fill="none" stroke="#000" stroke-linecap="round" stroke-linejoin="round"/><path d="M307.33079,420.789475c-.809519-.143889-1.899428-.175364-3.152149-.269791-3.545602-.274289-8.398193-.647501-12.536237-1.582777-5.341016-1.20507-6.919351-2.760869-7.272102-3.893993,0,0,.140196-31.839922.05427-33.683502-.117584-2.576511-1.424572-5.517242-1.424572-5.517242v39.380602c1.42005,6.02535,18.867668,6.331114,24.177025,6.924656,2.785828.310262,4.915906,1.137621,6.313342,1.852571.000003-.004501-.235166-2.158339-6.159577-3.210525Z" fill="none" stroke="#000" stroke-linecap="round" stroke-linejoin="round"/><path d="M322.536567,380.208298c-.063314,1.780626-.416065,35.009978-.416065,35.009978-.01809.220329-4.970173,3.493802-9.320773.094427l.619577,4.361632c6.014862-.881319,10.076022-2.545037,10.076022-4.456062l.058791-39.614422c-.00452.004497-.922581,1.848075-1.017552,4.604448Z" fill="none" stroke="#000" stroke-linecap="round" stroke-linejoin="round"/><path d="M283.761068,376.444703l39.73426-1.025209v39.794284c0,2.828317-8.895662,5.121546-19.86713,5.121546s-19.86713-2.293229-19.86713-5.121546" fill="none" stroke="#000" stroke-linecap="round" stroke-linejoin="round"/><ellipse cx="303.247663" cy="374.910148" rx="20.247664" ry="4.910148" fill="none" stroke="#000" stroke-linecap="round" stroke-linejoin="round"/><ellipse cx="303.247664" cy="374.910148" rx="8.395373" ry="1.964059" fill="none" stroke="#000" stroke-linecap="round" stroke-linejoin="round"/><ellipse cx="303.741509" cy="375.401162" rx="6.913836" ry="1.473044" fill="none" stroke="#000" stroke-linecap="round" stroke-linejoin="round"/><path d="M303.689671,370.486801c-.958759,0-2.351675.031476-2.817487.049462-.470335.017986-.42511.269792,0,.292274s6.711318.33724,10.152904.719445c4.96113.548576,8.918275,1.64573,10.5147,2.61698.556263.33724,2.04867.930781,1.325078,2.414636-.189942.386702-.691935,1.155608-3.179283,2.185313-.936147.386702,3.324001.665486,4.255625-.287778,0,0,.058791-1.982969.058791-2.864289.000003-2.832814-9.094647-5.126044-20.310329-5.126044Z" fill="none" stroke="#000" stroke-linecap="round" stroke-linejoin="round"/><path d="M312.83641,385.950365s-5.562617-2.302222-16.470768-3.916477c-10.844839-1.605261-12.377951-5.229464-12.377951-5.229464v37.856282c1.370303,5.809515,18.180257,6.097293,23.295149,6.668354,2.686337.301267,6.516851,2.302224,6.516851,2.302224,1.415526-2.778855-1.510497-10.976026-1.659739-13.089397-.244213-3.439846,1.230107-3.367899,1.230107-6.767278s-1.270808-4.617934-1.682353-8.772729c-.411541-4.154795,1.212017-4.815784,1.148703-9.051516Z" fill="none" stroke="#000" stroke-linecap="round" stroke-linejoin="round"/><path d="M295.68041,383.06809c10.519224,1.72217,17.112959,2.886773,17.112959,2.886773-.230646-.094427-5.503823-2.527049-16.366752-4.136807-10.166475-1.506337-11.550345-4.59995-13.047276-5.975888,0,0,.330139,5.265436,12.301069,7.225922Z" fill="none" stroke="#000" stroke-linecap="round" stroke-linejoin="round"/><path d="M311.825561,389.295784c-.606007,1.551303-1.297945,3.309446-1.067299,5.652137.212556,2.171824.642187,3.619707,1.022075,4.89672.696458,1.884047,1.202974,3.925472.126628,6.947136-.981371,2.760869-1.19845,5.751061.452245,10.090213.221599.58455,1.334122,3.696148,1.501454,7.109012,0,0,.004523,0,.004523.004497,0,0,.909014-2.549531.321094-5.445297-.755249-3.723126-1.637129-4.163787-1.745667-6.76278-.144718-3.574739,1.302465-4.343645,1.424573-7.868926.135675-4.001912-1.320555-4.793298-1.745667-9.105472-.407021-4.136807,1.334122-4.869742.673844-8.862659-.221599,1.088161-.438675,1.987467-.967804,3.345419Z" fill="none" stroke="#000" stroke-linecap="round" stroke-linejoin="round"/><path d="M307.33079,420.789475c-.809519-.143889-1.899428-.175364-3.152149-.269791-3.545602-.274289-8.398193-.647501-12.536237-1.582777-5.341016-1.20507-6.919351-2.760869-7.272102-3.893993,0,0,.140196-31.839922.05427-33.683502-.117584-2.576511-1.424572-5.517242-1.424572-5.517242v39.380602c1.42005,6.02535,18.867668,6.331114,24.177025,6.924656,2.785828.310262,4.915906,1.137621,6.313342,1.852571.000003-.004501-.235166-2.158339-6.159577-3.210525Z" fill="none" stroke="#000" stroke-linecap="round" stroke-linejoin="round"/><path d="M322.536567,380.208298c-.063314,1.780626-.416065,35.009978-.416065,35.009978-.01809.220329-4.970173,3.493802-9.320773.094427l.619577,4.361632c6.014862-.881319,10.076022-2.545037,10.076022-4.456062l.058791-39.614422c-.00452.004497-.922581,1.848075-1.017552,4.604448Z" fill="none" stroke="#000" stroke-linecap="round" stroke-linejoin="round"/></g><g id="uuid-adf8315f-f8a8-40d1-a9c8-358b30b0b187"><path d="M243.761068,376.444703l39.73426-1.025209v39.794284c0,2.828317-8.895662,5.121546-19.86713,5.121546s-19.86713-2.293229-19.86713-5.121546" fill="#b7d5e5"/><ellipse cx="263.247663" cy="374.910148" rx="20.247664" ry="4.910148" fill="#e0e0e0"/><ellipse cx="263.247664" cy="374.910148" rx="8.395373" ry="1.964059" fill="#82aec0"/><ellipse cx="263.741509" cy="375.401162" rx="6.913836" ry="1.473044" fill="#2f7889"/><path d="M263.689671,370.486801c-.958759,0-2.351675.031476-2.817487.049462-.470335.017986-.42511.269792,0,.292274s6.711318.33724,10.152904.719445c4.96113.548576,8.918275,1.64573,10.5147,2.61698.556263.33724,2.04867.930781,1.325078,2.414636-.189942.386702-.691935,1.155608-3.179283,2.185313-.936147.386702,3.324001.665486,4.255625-.287778,0,0,.058791-1.982969.058791-2.864289.000003-2.832814-9.094647-5.126044-20.310329-5.126044Z" fill="#b7d5e5"/><path d="M272.83641,385.950365s-5.562617-2.302222-16.470768-3.916477c-10.844839-1.605261-12.377951-5.229464-12.377951-5.229464v37.856282c1.370303,5.809515,18.180257,6.097293,23.295149,6.668354,2.686337.301267,6.516851,2.302224,6.516851,2.302224,1.415526-2.778855-1.510497-10.976026-1.659739-13.089397-.244213-3.439846,1.230107-3.367899,1.230107-6.767278s-1.270808-4.617934-1.682353-8.772729c-.411541-4.154795,1.212017-4.815784,1.148703-9.051516Z" fill="#fff"/><path d="M255.68041,383.06809c10.519224,1.72217,17.112959,2.886773,17.112959,2.886773-.230646-.094427-5.503823-2.527049-16.366752-4.136807-10.166475-1.506337-11.550345-4.59995-13.047276-5.975888,0,0,.330139,5.265436,12.301069,7.225922Z" fill="#eee"/><path d="M271.825561,389.295784c-.606007,1.551303-1.297945,3.309446-1.067299,5.652137.212556,2.171824.642187,3.619707,1.022075,4.89672.696458,1.884047,1.202974,3.925472.126628,6.947136-.981371,2.760869-1.19845,5.751061.452245,10.090213.221599.58455,1.334122,3.696148,1.501454,7.109012,0,0,.004523,0,.004523.004497,0,0,.909014-2.549531.321094-5.445297-.755249-3.723126-1.637129-4.163787-1.745667-6.76278-.144718-3.574739,1.302465-4.343645,1.424573-7.868926.135675-4.001912-1.320555-4.793298-1.745667-9.105472-.407021-4.136807,1.334122-4.869742.673844-8.862659-.221599,1.088161-.438675,1.987467-.967804,3.345419Z" fill="#81b6cc"/><path d="M267.33079,420.789475c-.809519-.143889-1.899428-.175364-3.152149-.269791-3.545602-.274289-8.398193-.647501-12.536237-1.582777-5.341016-1.20507-6.919351-2.760869-7.272102-3.893993,0,0,.140196-31.839922.05427-33.683502-.117584-2.576511-1.424572-5.517242-1.424572-5.517242v39.380602c1.42005,6.02535,18.867668,6.331114,24.177025,6.924656,2.785828.310262,4.915906,1.137621,6.313342,1.852571.000003-.004501-.235166-2.158339-6.159577-3.210525Z" fill="#b7d5e5"/><path d="M282.536567,380.208298c-.063314,1.780626-.416065,35.009978-.416065,35.009978-.01809.220329-4.970173,3.493802-9.320773.094427l.619577,4.361632c6.014862-.881319,10.076022-2.545037,10.076022-4.456062l.058791-39.614422c-.00452.004497-.922581,1.848075-1.017552,4.604448Z" fill="#81b6cc"/><path d="M243.761068,376.444703l39.73426-1.025209v39.794284c0,2.828317-8.895662,5.121546-19.86713,5.121546s-19.86713-2.293229-19.86713-5.121546" fill="none" stroke="#000" stroke-linecap="round" stroke-linejoin="round"/><ellipse cx="263.247663" cy="374.910148" rx="20.247664" ry="4.910148" fill="none" stroke="#000" stroke-linecap="round" stroke-linejoin="round"/><ellipse cx="263.247664" cy="374.910148" rx="8.395373" ry="1.964059" fill="none" stroke="#000" stroke-linecap="round" stroke-linejoin="round"/><ellipse cx="263.741509" cy="375.401162" rx="6.913836" ry="1.473044" fill="none" stroke="#000" stroke-linecap="round" stroke-linejoin="round"/><path d="M263.689671,370.486801c-.958759,0-2.351675.031476-2.817487.049462-.470335.017986-.42511.269792,0,.292274s6.711318.33724,10.152904.719445c4.96113.548576,8.918275,1.64573,10.5147,2.61698.556263.33724,2.04867.930781,1.325078,2.414636-.189942.386702-.691935,1.155608-3.179283,2.185313-.936147.386702,3.324001.665486,4.255625-.287778,0,0,.058791-1.982969.058791-2.864289.000003-2.832814-9.094647-5.126044-20.310329-5.126044Z" fill="none" stroke="#000" stroke-linecap="round" stroke-linejoin="round"/><path d="M272.83641,385.950365s-5.562617-2.302222-16.470768-3.916477c-10.844839-1.605261-12.377951-5.229464-12.377951-5.229464v37.856282c1.370303,5.809515,18.180257,6.097293,23.295149,6.668354,2.686337.301267,6.516851,2.302224,6.516851,2.302224,1.415526-2.778855-1.510497-10.976026-1.659739-13.089397-.244213-3.439846,1.230107-3.367899,1.230107-6.767278s-1.270808-4.617934-1.682353-8.772729c-.411541-4.154795,1.212017-4.815784,1.148703-9.051516Z" fill="none" stroke="#000" stroke-linecap="round" stroke-linejoin="round"/><path d="M255.68041,383.06809c10.519224,1.72217,17.112959,2.886773,17.112959,2.886773-.230646-.094427-5.503823-2.527049-16.366752-4.136807-10.166475-1.506337-11.550345-4.59995-13.047276-5.975888,0,0,.330139,5.265436,12.301069,7.225922Z" fill="none" stroke="#000" stroke-linecap="round" stroke-linejoin="round"/><path d="M271.825561,389.295784c-.606007,1.551303-1.297945,3.309446-1.067299,5.652137.212556,2.171824.642187,3.619707,1.022075,4.89672.696458,1.884047,1.202974,3.925472.126628,6.947136-.981371,2.760869-1.19845,5.751061.452245,10.090213.221599.58455,1.334122,3.696148,1.501454,7.109012,0,0,.004523,0,.004523.004497,0,0,.909014-2.549531.321094-5.445297-.755249-3.723126-1.637129-4.163787-1.745667-6.76278-.144718-3.574739,1.302465-4.343645,1.424573-7.868926.135675-4.001912-1.320555-4.793298-1.745667-9.105472-.407021-4.136807,1.334122-4.869742.673844-8.862659-.221599,1.088161-.438675,1.987467-.967804,3.345419Z" fill="none" stroke="#000" stroke-linecap="round" stroke-linejoin="round"/><path d="M267.33079,420.789475c-.809519-.143889-1.899428-.175364-3.152149-.269791-3.545602-.274289-8.398193-.647501-12.536237-1.582777-5.341016-1.20507-6.919351-2.760869-7.272102-3.893993,0,0,.140196-31.839922.05427-33.683502-.117584-2.576511-1.424572-5.517242-1.424572-5.517242v39.380602c1.42005,6.02535,18.867668,6.331114,24.177025,6.924656,2.785828.310262,4.915906,1.137621,6.313342,1.852571.000003-.004501-.235166-2.158339-6.159577-3.210525Z" fill="none" stroke="#000" stroke-linecap="round" stroke-linejoin="round"/><path d="M282.536567,380.208298c-.063314,1.780626-.416065,35.009978-.416065,35.009978-.01809.220329-4.970173,3.493802-9.320773.094427l.619577,4.361632c6.014862-.881319,10.076022-2.545037,10.076022-4.456062l.058791-39.614422c-.00452.004497-.922581,1.848075-1.017552,4.604448Z" fill="none" stroke="#000" stroke-linecap="round" stroke-linejoin="round"/><path d="M243.761068,376.444703l39.73426-1.025209v39.794284c0,2.828317-8.895662,5.121546-19.86713,5.121546s-19.86713-2.293229-19.86713-5.121546" fill="none" stroke="#000" stroke-linecap="round" stroke-linejoin="round"/><ellipse cx="263.247663" cy="374.910148" rx="20.247664" ry="4.910148" fill="none" stroke="#000" stroke-linecap="round" stroke-linejoin="round"/><ellipse cx="263.247664" cy="374.910148" rx="8.395373" ry="1.964059" fill="none" stroke="#000" stroke-linecap="round" stroke-linejoin="round"/><ellipse cx="263.741509" cy="375.401162" rx="6.913836" ry="1.473044" fill="none" stroke="#000" stroke-linecap="round" stroke-linejoin="round"/><path d="M263.689671,370.486801c-.958759,0-2.351675.031476-2.817487.049462-.470335.017986-.42511.269792,0,.292274s6.711318.33724,10.152904.719445c4.96113.548576,8.918275,1.64573,10.5147,2.61698.556263.33724,2.04867.930781,1.325078,2.414636-.189942.386702-.691935,1.155608-3.179283,2.185313-.936147.386702,3.324001.665486,4.255625-.287778,0,0,.058791-1.982969.058791-2.864289.000003-2.832814-9.094647-5.126044-20.310329-5.126044Z" fill="none" stroke="#000" stroke-linecap="round" stroke-linejoin="round"/><path d="M272.83641,385.950365s-5.562617-2.302222-16.470768-3.916477c-10.844839-1.605261-12.377951-5.229464-12.377951-5.229464v37.856282c1.370303,5.809515,18.180257,6.097293,23.295149,6.668354,2.686337.301267,6.516851,2.302224,6.516851,2.302224,1.415526-2.778855-1.510497-10.976026-1.659739-13.089397-.244213-3.439846,1.230107-3.367899,1.230107-6.767278s-1.270808-4.617934-1.682353-8.772729c-.411541-4.154795,1.212017-4.815784,1.148703-9.051516Z" fill="none" stroke="#000" stroke-linecap="round" stroke-linejoin="round"/><path d="M255.68041,383.06809c10.519224,1.72217,17.112959,2.886773,17.112959,2.886773-.230646-.094427-5.503823-2.527049-16.366752-4.136807-10.166475-1.506337-11.550345-4.59995-13.047276-5.975888,0,0,.330139,5.265436,12.301069,7.225922Z" fill="none" stroke="#000" stroke-linecap="round" stroke-linejoin="round"/><path d="M271.825561,389.295784c-.606007,1.551303-1.297945,3.309446-1.067299,5.652137.212556,2.171824.642187,3.619707,1.022075,4.89672.696458,1.884047,1.202974,3.925472.126628,6.947136-.981371,2.760869-1.19845,5.751061.452245,10.090213.221599.58455,1.334122,3.696148,1.501454,7.109012,0,0,.004523,0,.004523.004497,0,0,.909014-2.549531.321094-5.445297-.755249-3.723126-1.637129-4.163787-1.745667-6.76278-.144718-3.574739,1.302465-4.343645,1.424573-7.868926.135675-4.001912-1.320555-4.793298-1.745667-9.105472-.407021-4.136807,1.334122-4.869742.673844-8.862659-.221599,1.088161-.438675,1.987467-.967804,3.345419Z" fill="none" stroke="#000" stroke-linecap="round" stroke-linejoin="round"/><path d="M267.33079,420.789475c-.809519-.143889-1.899428-.175364-3.152149-.269791-3.545602-.274289-8.398193-.647501-12.536237-1.582777-5.341016-1.20507-6.919351-2.760869-7.272102-3.893993,0,0,.140196-31.839922.05427-33.683502-.117584-2.576511-1.424572-5.517242-1.424572-5.517242v39.380602c1.42005,6.02535,18.867668,6.331114,24.177025,6.924656,2.785828.310262,4.915906,1.137621,6.313342,1.852571.000003-.004501-.235166-2.158339-6.159577-3.210525Z" fill="none" stroke="#000" stroke-linecap="round" stroke-linejoin="round"/><path d="M282.536567,380.208298c-.063314,1.780626-.416065,35.009978-.416065,35.009978-.01809.220329-4.970173,3.493802-9.320773.094427l.619577,4.361632c6.014862-.881319,10.076022-2.545037,10.076022-4.456062l.058791-39.614422c-.00452.004497-.922581,1.848075-1.017552,4.604448Z" fill="none" stroke="#000" stroke-linecap="round" stroke-linejoin="round"/></g><g id="uuid-977e9ee5-45e1-4ae5-8f4e-9e0d288352cc"><path d="M264.761068,385.444703l39.73426-1.025209v39.794284c0,2.828317-8.895662,5.121546-19.86713,5.121546s-19.86713-2.293229-19.86713-5.121546" fill="#b7d5e5"/><ellipse cx="284.247663" cy="383.910148" rx="20.247664" ry="4.910148" fill="#e0e0e0"/><ellipse cx="284.247664" cy="383.910148" rx="8.395373" ry="1.964059" fill="#82aec0"/><ellipse cx="284.741509" cy="384.401162" rx="6.913836" ry="1.473044" fill="#2f7889"/><path d="M284.689671,379.486801c-.958759,0-2.351675.031476-2.817487.049462-.470335.017986-.42511.269792,0,.292274s6.711318.33724,10.152904.719445c4.96113.548576,8.918275,1.64573,10.5147,2.61698.556263.33724,2.04867.930781,1.325078,2.414636-.189942.386702-.691935,1.155608-3.179283,2.185313-.936147.386702,3.324001.665486,4.255625-.287778,0,0,.058791-1.982969.058791-2.864289.000003-2.832814-9.094647-5.126044-20.310329-5.126044Z" fill="#b7d5e5"/><path d="M293.83641,394.950365s-5.562617-2.302222-16.470768-3.916477c-10.844839-1.605261-12.377951-5.229464-12.377951-5.229464v37.856282c1.370303,5.809515,18.180257,6.097293,23.295149,6.668354,2.686337.301267,6.516851,2.302224,6.516851,2.302224,1.415526-2.778855-1.510497-10.976026-1.659739-13.089397-.244213-3.439846,1.230107-3.367899,1.230107-6.767278s-1.270808-4.617934-1.682353-8.772729c-.411541-4.154795,1.212017-4.815784,1.148703-9.051516Z" fill="#fff"/><path d="M276.68041,392.06809c10.519224,1.72217,17.112959,2.886773,17.112959,2.886773-.230646-.094427-5.503823-2.527049-16.366752-4.136807-10.166475-1.506337-11.550345-4.59995-13.047276-5.975888,0,0,.330139,5.265436,12.301069,7.225922Z" fill="#eee"/><path d="M292.825561,398.295784c-.606007,1.551303-1.297945,3.309446-1.067299,5.652137.212556,2.171824.642187,3.619707,1.022075,4.89672.696458,1.884047,1.202974,3.925472.126628,6.947136-.981371,2.760869-1.19845,5.751061.452245,10.090213.221599.58455,1.334122,3.696148,1.501454,7.109012,0,0,.004523,0,.004523.004497,0,0,.909014-2.549531.321094-5.445297-.755249-3.723126-1.637129-4.163787-1.745667-6.76278-.144718-3.574739,1.302465-4.343645,1.424573-7.868926.135675-4.001912-1.320555-4.793298-1.745667-9.105472-.407021-4.136807,1.334122-4.869742.673844-8.862659-.221599,1.088161-.438675,1.987467-.967804,3.345419Z" fill="#81b6cc"/><path d="M288.33079,429.789475c-.809519-.143889-1.899428-.175364-3.152149-.269791-3.545602-.274289-8.398193-.647501-12.536237-1.582777-5.341016-1.20507-6.919351-2.760869-7.272102-3.893993,0,0,.140196-31.839922.05427-33.683502-.117584-2.576511-1.424572-5.517242-1.424572-5.517242v39.380602c1.42005,6.02535,18.867668,6.331114,24.177025,6.924656,2.785828.310262,4.915906,1.137621,6.313342,1.852571.000003-.004501-.235166-2.158339-6.159577-3.210525Z" fill="#b7d5e5"/><path d="M303.536567,389.208298c-.063314,1.780626-.416065,35.009978-.416065,35.009978-.01809.220329-4.970173,3.493802-9.320773.094427l.619577,4.361632c6.014862-.881319,10.076022-2.545037,10.076022-4.456062l.058791-39.614422c-.00452.004497-.922581,1.848075-1.017552,4.604448Z" fill="#81b6cc"/><path d="M264.761068,385.444703l39.73426-1.025209v39.794284c0,2.828317-8.895662,5.121546-19.86713,5.121546s-19.86713-2.293229-19.86713-5.121546" fill="none" stroke="#000" stroke-linecap="round" stroke-linejoin="round"/><ellipse cx="284.247663" cy="383.910148" rx="20.247664" ry="4.910148" fill="none" stroke="#000" stroke-linecap="round" stroke-linejoin="round"/><ellipse cx="284.247664" cy="383.910148" rx="8.395373" ry="1.964059" fill="none" stroke="#000" stroke-linecap="round" stroke-linejoin="round"/><ellipse cx="284.741509" cy="384.401162" rx="6.913836" ry="1.473044" fill="none" stroke="#000" stroke-linecap="round" stroke-linejoin="round"/><path d="M284.689671,379.486801c-.958759,0-2.351675.031476-2.817487.049462-.470335.017986-.42511.269792,0,.292274s6.711318.33724,10.152904.719445c4.96113.548576,8.918275,1.64573,10.5147,2.61698.556263.33724,2.04867.930781,1.325078,2.414636-.189942.386702-.691935,1.155608-3.179283,2.185313-.936147.386702,3.324001.665486,4.255625-.287778,0,0,.058791-1.982969.058791-2.864289.000003-2.832814-9.094647-5.126044-20.310329-5.126044Z" fill="none" stroke="#000" stroke-linecap="round" stroke-linejoin="round"/><path d="M293.83641,394.950365s-5.562617-2.302222-16.470768-3.916477c-10.844839-1.605261-12.377951-5.229464-12.377951-5.229464v37.856282c1.370303,5.809515,18.180257,6.097293,23.295149,6.668354,2.686337.301267,6.516851,2.302224,6.516851,2.302224,1.415526-2.778855-1.510497-10.976026-1.659739-13.089397-.244213-3.439846,1.230107-3.367899,1.230107-6.767278s-1.270808-4.617934-1.682353-8.772729c-.411541-4.154795,1.212017-4.815784,1.148703-9.051516Z" fill="none" stroke="#000" stroke-linecap="round" stroke-linejoin="round"/><path d="M276.68041,392.06809c10.519224,1.72217,17.112959,2.886773,17.112959,2.886773-.230646-.094427-5.503823-2.527049-16.366752-4.136807-10.166475-1.506337-11.550345-4.59995-13.047276-5.975888,0,0,.330139,5.265436,12.301069,7.225922Z" fill="none" stroke="#000" stroke-linecap="round" stroke-linejoin="round"/><path d="M292.825561,398.295784c-.606007,1.551303-1.297945,3.309446-1.067299,5.652137.212556,2.171824.642187,3.619707,1.022075,4.89672.696458,1.884047,1.202974,3.925472.126628,6.947136-.981371,2.760869-1.19845,5.751061.452245,10.090213.221599.58455,1.334122,3.696148,1.501454,7.109012,0,0,.004523,0,.004523.004497,0,0,.909014-2.549531.321094-5.445297-.755249-3.723126-1.637129-4.163787-1.745667-6.76278-.144718-3.574739,1.302465-4.343645,1.424573-7.868926.135675-4.001912-1.320555-4.793298-1.745667-9.105472-.407021-4.136807,1.334122-4.869742.673844-8.862659-.221599,1.088161-.438675,1.987467-.967804,3.345419Z" fill="none" stroke="#000" stroke-linecap="round" stroke-linejoin="round"/><path d="M288.33079,429.789475c-.809519-.143889-1.899428-.175364-3.152149-.269791-3.545602-.274289-8.398193-.647501-12.536237-1.582777-5.341016-1.20507-6.919351-2.760869-7.272102-3.893993,0,0,.140196-31.839922.05427-33.683502-.117584-2.576511-1.424572-5.517242-1.424572-5.517242v39.380602c1.42005,6.02535,18.867668,6.331114,24.177025,6.924656,2.785828.310262,4.915906,1.137621,6.313342,1.852571.000003-.004501-.235166-2.158339-6.159577-3.210525Z" fill="none" stroke="#000" stroke-linecap="round" stroke-linejoin="round"/><path d="M303.536567,389.208298c-.063314,1.780626-.416065,35.009978-.416065,35.009978-.01809.220329-4.970173,3.493802-9.320773.094427l.619577,4.361632c6.014862-.881319,10.076022-2.545037,10.076022-4.456062l.058791-39.614422c-.00452.004497-.922581,1.848075-1.017552,4.604448Z" fill="none" stroke="#000" stroke-linecap="round" stroke-linejoin="round"/><path d="M264.761068,385.444703l39.73426-1.025209v39.794284c0,2.828317-8.895662,5.121546-19.86713,5.121546s-19.86713-2.293229-19.86713-5.121546" fill="none" stroke="#000" stroke-linecap="round" stroke-linejoin="round"/><ellipse cx="284.247663" cy="383.910148" rx="20.247664" ry="4.910148" fill="none" stroke="#000" stroke-linecap="round" stroke-linejoin="round"/><ellipse cx="284.247664" cy="383.910148" rx="8.395373" ry="1.964059" fill="none" stroke="#000" stroke-linecap="round" stroke-linejoin="round"/><ellipse cx="284.741509" cy="384.401162" rx="6.913836" ry="1.473044" fill="none" stroke="#000" stroke-linecap="round" stroke-linejoin="round"/><path d="M284.689671,379.486801c-.958759,0-2.351675.031476-2.817487.049462-.470335.017986-.42511.269792,0,.292274s6.711318.33724,10.152904.719445c4.96113.548576,8.918275,1.64573,10.5147,2.61698.556263.33724,2.04867.930781,1.325078,2.414636-.189942.386702-.691935,1.155608-3.179283,2.185313-.936147.386702,3.324001.665486,4.255625-.287778,0,0,.058791-1.982969.058791-2.864289.000003-2.832814-9.094647-5.126044-20.310329-5.126044Z" fill="none" stroke="#000" stroke-linecap="round" stroke-linejoin="round"/><path d="M293.83641,394.950365s-5.562617-2.302222-16.470768-3.916477c-10.844839-1.605261-12.377951-5.229464-12.377951-5.229464v37.856282c1.370303,5.809515,18.180257,6.097293,23.295149,6.668354,2.686337.301267,6.516851,2.302224,6.516851,2.302224,1.415526-2.778855-1.510497-10.976026-1.659739-13.089397-.244213-3.439846,1.230107-3.367899,1.230107-6.767278s-1.270808-4.617934-1.682353-8.772729c-.411541-4.154795,1.212017-4.815784,1.148703-9.051516Z" fill="none" stroke="#000" stroke-linecap="round" stroke-linejoin="round"/><path d="M276.68041,392.06809c10.519224,1.72217,17.112959,2.886773,17.112959,2.886773-.230646-.094427-5.503823-2.527049-16.366752-4.136807-10.166475-1.506337-11.550345-4.59995-13.047276-5.975888,0,0,.330139,5.265436,12.301069,7.225922Z" fill="none" stroke="#000" stroke-linecap="round" stroke-linejoin="round"/><path d="M292.825561,398.295784c-.606007,1.551303-1.297945,3.309446-1.067299,5.652137.212556,2.171824.642187,3.619707,1.022075,4.89672.696458,1.884047,1.202974,3.925472.126628,6.947136-.981371,2.760869-1.19845,5.751061.452245,10.090213.221599.58455,1.334122,3.696148,1.501454,7.109012,0,0,.004523,0,.004523.004497,0,0,.909014-2.549531.321094-5.445297-.755249-3.723126-1.637129-4.163787-1.745667-6.76278-.144718-3.574739,1.302465-4.343645,1.424573-7.868926.135675-4.001912-1.320555-4.793298-1.745667-9.105472-.407021-4.136807,1.334122-4.869742.673844-8.862659-.221599,1.088161-.438675,1.987467-.967804,3.345419Z" fill="none" stroke="#000" stroke-linecap="round" stroke-linejoin="round"/><path d="M288.33079,429.789475c-.809519-.143889-1.899428-.175364-3.152149-.269791-3.545602-.274289-8.398193-.647501-12.536237-1.582777-5.341016-1.20507-6.919351-2.760869-7.272102-3.893993,0,0,.140196-31.839922.05427-33.683502-.117584-2.576511-1.424572-5.517242-1.424572-5.517242v39.380602c1.42005,6.02535,18.867668,6.331114,24.177025,6.924656,2.785828.310262,4.915906,1.137621,6.313342,1.852571.000003-.004501-.235166-2.158339-6.159577-3.210525Z" fill="none" stroke="#000" stroke-linecap="round" stroke-linejoin="round"/><path d="M303.536567,389.208298c-.063314,1.780626-.416065,35.009978-.416065,35.009978-.01809.220329-4.970173,3.493802-9.320773.094427l.619577,4.361632c6.014862-.881319,10.076022-2.545037,10.076022-4.456062l.058791-39.614422c-.00452.004497-.922581,1.848075-1.017552,4.604448Z" fill="none" stroke="#000" stroke-linecap="round" stroke-linejoin="round"/></g></svg>