<?xml version="1.0" encoding="UTF-8"?><svg id="uuid-942b98a3-5570-4f80-be1a-d725ed0503d6" xmlns="http://www.w3.org/2000/svg" viewBox="0 0 500 500"><g id="uuid-412602e1-8fdb-44c7-b79b-7c33789dbf32"><polygon id="uuid-39f81a7e-2d51-473b-83b9-828598707e29" points="410 393 390 393 390 427.96 390 435 420 435 420 428 410 428 410 393" fill="#336"/><rect id="uuid-97b7df92-f960-4555-8f41-cc7576ceb17d" x="390" y="354" width="20" height="39" fill="#336"/><polygon id="uuid-5cb4ac26-6075-492f-b9b8-1dc999f4a6a7" points="382 393 362 393 362 428 352 428 352 435 382 435 382 427.96 382 427.96 382 393" fill="#336"/><rect id="uuid-c8ae7cde-dc39-49fb-ad52-eec63e658c51" x="362" y="354" width="20" height="39" fill="#336"/><polygon id="uuid-64bae922-410e-4aab-8de5-3b208ff85a9b" points="395.81 309.88 395.84 310 395.73 310 388.54 271.52 393.78 263 377.95 263 383.19 271.52 376 310 375.89 310 375.92 309.88 375.89 310 376.02 310 385.86 322.81 395.71 310 395.84 310 395.81 309.88" fill="#c1272d"/><path id="uuid-f2e718d6-1f35-4ad0-bef6-a6a27288ef18" d="M358,254v100h56v-100h-56ZM385.86,303.93l-19.77-48.93h39.53l-19.77,48.93Z" fill="#336"/><path id="uuid-b9768603-2a7a-4a9e-bc83-98fccc98d5ef" d="M411.88,242.86c2.8-4.98,4.84-10.76,5.82-17.06,3.39-21.77-7.1-41.48-23.43-44.02-16.33-2.54-32.31,13.05-35.7,34.82-.98,6.3-.79,12.43.36,18.02l52.95,8.24Z" fill="#eec6a2"/><path id="uuid-67c96281-810a-453c-8658-6c44b249b848" d="M360.79,247c5.31,11.11,14.63,18.48,25.24,18.48s19.93-7.37,25.24-18.48h-50.48Z" fill="#eec6a2"/><ellipse id="uuid-21be1888-e9f8-44ea-9068-5712c990762c" cx="388" cy="222.5" rx="3" ry="4.5" fill="#333"/><ellipse id="uuid-3e9244f1-3c49-4a04-bb96-2cad981eb3ff" cx="372" cy="219.5" rx="3" ry="4.5" fill="#333"/><path id="uuid-513d34df-35db-4240-a406-32cc682ffc2e" d="M361.91,187.74c10.82-9.26,30.19-6.49,39.78-5.11,12.01,1.72,25.84,5.77,25.75,9.44-.07,3.25-11.02,4.01-11.58,8.94-.41,3.59,5.01,6.44,4.29,7.32-1.53,1.87-24.68-12.46-30.52-8-2.63,2.01.03,6.44-2.68,7.74-2.8,1.35-6.41-3.01-15.92-6.42-8.19-2.93-12.47-2.19-13.79-4.82-1.76-3.49,3.96-8.49,4.67-9.1Z" fill="#534741"/><rect id="uuid-23fce240-e721-485f-9cd0-e690cc9225bb" x="423.72" y="220.39" width="14.96" height="31.91" transform="translate(-21.12 43.48) rotate(-5.63)" fill="#336"/><rect id="uuid-26838f77-e0e9-4b9c-b241-55b413279c18" x="406.96" y="247.35" width="31.91" height="14.96" transform="translate(-68.8 299.67) rotate(-36.28)" fill="#336"/><rect id="uuid-f6b1dff7-e2fc-4f2f-a29b-5d32d2b88320" x="338.49" y="240.6" width="14.96" height="31.91" transform="translate(-20.34 483.13) rotate(-68.3)" fill="#336"/><rect id="uuid-9f56774b-078e-4e7d-b4c0-bd804c78bef8" x="313.37" y="232.71" width="31.91" height="14.96" transform="translate(-30.27 432.12) rotate(-64.19)" fill="#336"/><rect id="uuid-1a7d49c8-b2ba-4bd7-884a-2bf799f07319" x="421.04" y="206.25" width="15.96" height="15.96" transform="translate(-18.96 43.16) rotate(-5.63)" fill="#eec6a2"/><rect id="uuid-64464537-62ff-4e51-a5d8-a0e3978c9a81" x="331.23" y="211.78" width="15.96" height="15.96" transform="translate(-6.3 429.48) rotate(-64.19)" fill="#eec6a2"/><polygon id="uuid-50a8e7eb-f648-4a80-8dab-9bc62fd84565" points="410 393 390 393 390 427.96 390 435 420 435 420 428 410 428 410 393" fill="none" stroke="#000" stroke-linecap="round" stroke-linejoin="round"/><rect id="uuid-6066c42b-1045-4bfb-b741-011f882611b0" x="390" y="354" width="20" height="39" fill="none" stroke="#000" stroke-linecap="round" stroke-linejoin="round"/><polygon id="uuid-a942c26a-c2ca-4333-adcb-280e8371a14a" points="382 393 362 393 362 428 352 428 352 435 382 435 382 427.96 382 427.96 382 393" fill="none" stroke="#000" stroke-linecap="round" stroke-linejoin="round"/><rect id="uuid-663a5976-d27d-4aa8-bf1d-154bb5c67373" x="362" y="354" width="20" height="39" fill="none" stroke="#000" stroke-linecap="round" stroke-linejoin="round"/><polygon id="uuid-70005cd1-f1ad-41d6-8df3-45e774613a41" points="395.81 309.88 395.84 310 395.73 310 388.54 271.52 393.78 263 377.95 263 383.19 271.52 376 310 375.89 310 375.92 309.88 375.89 310 376.02 310 385.86 322.81 395.71 310 395.84 310 395.81 309.88" fill="none" stroke="#000" stroke-linecap="round" stroke-linejoin="round"/><path id="uuid-c73ce89b-4fe6-4b4e-a978-748c1824151f" d="M358,254v100h56v-100h-56ZM385.86,303.93l-19.77-48.93h39.53l-19.77,48.93Z" fill="none" stroke="#000" stroke-linecap="round" stroke-linejoin="round"/><path id="uuid-859acda6-9042-42ca-bfb1-856a4aa3da25" d="M411.88,242.86c2.8-4.98,4.84-10.76,5.82-17.06,3.39-21.77-7.1-41.48-23.43-44.02-16.33-2.54-32.31,13.05-35.7,34.82-.98,6.3-.79,12.43.36,18.02l52.95,8.24Z" fill="none" stroke="#000" stroke-linecap="round" stroke-linejoin="round"/><path id="uuid-44a91e15-609e-429a-95d2-b2ba79c403f9" d="M360.79,247c5.31,11.11,14.63,18.48,25.24,18.48s19.93-7.37,25.24-18.48h-50.48Z" fill="none" stroke="#000" stroke-linecap="round" stroke-linejoin="round"/><ellipse id="uuid-ba289b74-aacb-4e8a-b50b-783d7c8202b0" cx="388" cy="222.5" rx="3" ry="4.5" fill="none" stroke="#000" stroke-linecap="round" stroke-linejoin="round"/><ellipse id="uuid-65904b29-65b0-4836-b1fb-d9a45d380e3a" cx="372" cy="219.5" rx="3" ry="4.5" fill="none" stroke="#000" stroke-linecap="round" stroke-linejoin="round"/><path id="uuid-59c9757c-4d7d-4ef5-b62a-384eb95835fc" d="M361.91,187.74c10.82-9.26,30.19-6.49,39.78-5.11,12.01,1.72,25.84,5.77,25.75,9.44-.07,3.25-11.02,4.01-11.58,8.94-.41,3.59,5.01,6.44,4.29,7.32-1.53,1.87-24.68-12.46-30.52-8-2.63,2.01.03,6.44-2.68,7.74-2.8,1.35-6.41-3.01-15.92-6.42-8.19-2.93-12.47-2.19-13.79-4.82-1.76-3.49,3.96-8.49,4.67-9.1Z" fill="none" stroke="#000" stroke-linecap="round" stroke-linejoin="round"/><rect id="uuid-27362bf0-36da-4c81-88ac-9234c1ea149b" x="423.72" y="220.39" width="14.96" height="31.91" transform="translate(-21.12 43.48) rotate(-5.63)" fill="none" stroke="#000" stroke-linecap="round" stroke-linejoin="round"/><rect id="uuid-c7c52b89-b5d6-4723-adf5-98e18a518cbc" x="406.96" y="247.35" width="31.91" height="14.96" transform="translate(-68.8 299.67) rotate(-36.28)" fill="none" stroke="#000" stroke-linecap="round" stroke-linejoin="round"/><rect id="uuid-bd76758c-327c-4137-81f2-d2e8e93c3feb" x="338.49" y="240.6" width="14.96" height="31.91" transform="translate(-20.34 483.13) rotate(-68.3)" fill="none" stroke="#000" stroke-linecap="round" stroke-linejoin="round"/><rect id="uuid-727355a9-11c7-4aad-9192-b06de4f730ea" x="313.37" y="232.71" width="31.91" height="14.96" transform="translate(-30.27 432.12) rotate(-64.19)" fill="none" stroke="#000" stroke-linecap="round" stroke-linejoin="round"/><rect id="uuid-e6cefbba-3ecf-4c22-b93e-b1a45cd4de12" x="421.04" y="206.25" width="15.96" height="15.96" transform="translate(-18.96 43.16) rotate(-5.63)" fill="none" stroke="#000" stroke-linecap="round" stroke-linejoin="round"/><rect id="uuid-5dd036db-6580-4793-af56-723becadedf4" x="331.23" y="211.78" width="15.96" height="15.96" transform="translate(-6.3 429.48) rotate(-64.19)" fill="none" stroke="#000" stroke-linecap="round" stroke-linejoin="round"/></g><path d="M335.77,187.15c-2.06-.44-10.3-2.55-15.74-13.14-2.41-4.7-3.45-9.46-3.92-12.66" fill="none" stroke="#333" stroke-miterlimit="10" stroke-width="2"/><text transform="translate(284.68 111.14)" fill="#333" font-family="ComicNeue-Bold, &apos;Comic Neue&apos;" font-size="24" font-weight="700"><tspan x="0" y="0">STABLE pay? </tspan><tspan x="0" y="28.8">I want!</tspan></text><text transform="translate(59.79 357.61)" fill="#333" font-family="ComicNeue-Regular, &apos;Comic Neue&apos;" font-size="24"><tspan x="0" y="0">So he enlisted </tspan><tspan x="0" y="28.8">in the summer </tspan><tspan x="0" y="57.6">of 1914.</tspan></text><rect x="62" y="65" width="181" height="238" fill="#c6b96e"/><path d="M152.09,212.22s1.22-2.81,3.98-4.59c1.35-.87,3.7-2.2,4.12-1.45.19.33-.42,1.17-1.03,2.48-.25.54-.8,2.3-.8,2.3,0,0,2.44-3.19,6.71-4.03,3.36-.67,6.98-.23,7.4.51.45.81-1.92,2.58-2.67,4.12-.75,1.54-1.31,3.52-1.31,3.52,0,0,4.49-2.12,5.63-2.58,1.4-.56,4.45-1.73,4.87-1.22s-1.35,3.49-1.73,4.03c-.47.66-1.17,1.88-1.17,1.88,0,0,2.16-.99,3-1.5.85-.51,2.72-1.97,3.14-1.68.42.28.42,3.13.14,4.36-.37,1.64-2.11,3.42-2.11,3.42,0,0,2.48.56,3.84,2.3,1.36,1.74,2.15,3.09,2.72,4.83.85,2.58,1.22,6.09,1.03,6.75s-1.22-.23-3.14-.37c-1.14-.09-1.4-.09-1.4-.09,0,0,1.09,1.29,1.59,2.48.66,1.54,1.38,3.98,1.78,5.01.42,1.08.75,1.92,1.36,3.14.18.36-1.27.71-2.72-.66-.49-.45-1.08-.89-1.08-.89,0,0,.86,5.11.8,8.53-.05,2.53-.61,7.12-1.36,7.54-.75.42-2.25-2.81-2.25-2.81,0,0-.65,3.68-1.4,6.14-.89,2.9-1.74,4.26-2.25,6-.61,2.06-1.22,3.56-1.64,2.9-.37-.57-.75-1.45-1.13-2.11-.29-.5-.94-1.83-.94-1.83,0,0-.66,3.98-3.84,6.66-3.18,2.68-5.25,4.83-6.75,5.01-.89.11.14-3.89.14-3.89,0,0-4.97,3.9-7.36,5.67-1.08.8-2.06,3.42-2.81,3.24-.75-.19-2.67-3.1-3.89-3.98s-3.52-1.92-3.84-2.11-1.88-1.17-1.88-1.17c0,0,.39,2.18-.05,2.39-.94.47-4.55-2.11-5.58-3.7-1.03-1.59-2.86-4.87-2.86-4.87,0,0-.23,3.14-.99,2.62-.8-.55-4.69-3.42-6.05-5.58-.96-1.52-2.62-5.81-2.62-5.81,0,0-1.45,1.5-1.88,1.68s-1.5.61-1.31-1.03c.19-1.64-1.1-5.35-1.31-7.59-.28-2.9.28-5.91.28-5.91,0,0-2.39,3.19-3.52,3.14s-.47-6.19-.19-8.06,1.22-5.15,1.59-6.33c.37-1.17,1.78-2.9,1.78-2.9,0,0-3.47,1.17-3.98.71s.28-4.64.75-7.17c.24-1.3,1.27-3.33,2.58-4.83,1.31-1.5,3.33-1.22,3.52-1.88s-.75-1.18-1.4-2.25c-.99-1.59-1.54-4.87-1.03-5.44.32-.35,2.11,1.03,4.27,1.27,2.16.23,4.08.09,4.08.09,0,0-1.25-1.46-1.78-2.67-.75-1.68-.8-3.7-.33-4.22s2.11,1.08,4.31,1.64c2.2.56,5.49.61,5.49.61,0,0-1.4-1.5-1.78-3.24-.37-1.73-.28-2.81.33-3,.61-.19,2.4,1.48,3.66,1.88,1.36.42,5.95.14,8.02.75s4.26,3.84,4.26,3.84ZM153.49,262.75s4.78-1.31,7.78-2.81c3-1.5,14.16-7.78,15-15.47.85-7.68,0-9.75-3.56-14.44-3.56-4.69-9.81-5.77-13.03-5.06-3.84.85-4.5,3.65-6.19,3.75-1.59.09-1.13-1.68-5.72-3.38-5.88-2.16-21.97,3.63-19.12,19.12,1.5,8.16,13.38,15.11,14.9,15.93,3.67,1.97,9.95,2.34,9.95,2.34ZM162.37,239.29c1.53.6,3.28-.16,3.91-1.7s-.12-3.28-1.65-3.88-3.28.16-3.91,1.7c-.62,1.54.12,3.28,1.65,3.88ZM139.73,236.61c.63,1.54,2.39,2.29,3.92,1.67,1.53-.61,2.26-2.36,1.62-3.9-.63-1.54-2.39-2.29-3.92-1.67-1.53.61-2.26,2.36-1.62,3.9ZM146.47,245.06c-.49.49.43,3.15,1.25,4.51.82,1.36,3.15,3.59,4.46,3.54,1.3-.05,3.76-2.78,4.51-4.79s.98-3.26.65-3.76-4.19.11-5.66.11-4.74-.1-5.23.38ZM151.92,250.96s-2.42,2.63-3.47,3.03c-1.47.56-3.75.08-3.82.99-.06.94,1.4,1.92,3.75,1.61,2.59-.35,3.56-1.94,3.56-1.94,0,0,1.47,2.09,4.31,2.22,2.84.13,3.5-1.68,2.72-1.94-1.07-.34-1.73-.27-3.34-.78-1.28-.41-3.72-3.19-3.72-3.19Z" fill="#2e2f2f" stroke="#000" stroke-miterlimit="10"/><rect x="62" y="65" width="181" height="238" fill="none" stroke="#000" stroke-linecap="round" stroke-linejoin="round"/><path d="M152.09,212.22s1.22-2.81,3.98-4.59c1.35-.87,3.7-2.2,4.12-1.45.19.33-.42,1.17-1.03,2.48-.25.54-.8,2.3-.8,2.3,0,0,2.44-3.19,6.71-4.03,3.36-.67,6.98-.23,7.4.51.45.81-1.92,2.58-2.67,4.12-.75,1.54-1.31,3.52-1.31,3.52,0,0,4.49-2.12,5.63-2.58,1.4-.56,4.45-1.73,4.87-1.22s-1.35,3.49-1.73,4.03c-.47.66-1.17,1.88-1.17,1.88,0,0,2.16-.99,3-1.5.85-.51,2.72-1.97,3.14-1.68.42.28.42,3.13.14,4.36-.37,1.64-2.11,3.42-2.11,3.42,0,0,2.48.56,3.84,2.3,1.36,1.74,2.15,3.09,2.72,4.83.85,2.58,1.22,6.09,1.03,6.75s-1.22-.23-3.14-.37c-1.14-.09-1.4-.09-1.4-.09,0,0,1.09,1.29,1.59,2.48.66,1.54,1.38,3.98,1.78,5.01.42,1.08.75,1.92,1.36,3.14.18.36-1.27.71-2.72-.66-.49-.45-1.08-.89-1.08-.89,0,0,.86,5.11.8,8.53-.05,2.53-.61,7.12-1.36,7.54-.75.42-2.25-2.81-2.25-2.81,0,0-.65,3.68-1.4,6.14-.89,2.9-1.74,4.26-2.25,6-.61,2.06-1.22,3.56-1.64,2.9-.37-.57-.75-1.45-1.13-2.11-.29-.5-.94-1.83-.94-1.83,0,0-.66,3.98-3.84,6.66-3.18,2.68-5.25,4.83-6.75,5.01-.89.11.14-3.89.14-3.89,0,0-4.97,3.9-7.36,5.67-1.08.8-2.06,3.42-2.81,3.24-.75-.19-2.67-3.1-3.89-3.98s-3.52-1.92-3.84-2.11-1.88-1.17-1.88-1.17c0,0,.39,2.18-.05,2.39-.94.47-4.55-2.11-5.58-3.7-1.03-1.59-2.86-4.87-2.86-4.87,0,0-.23,3.14-.99,2.62-.8-.55-4.69-3.42-6.05-5.58-.96-1.52-2.62-5.81-2.62-5.81,0,0-1.45,1.5-1.88,1.68s-1.5.61-1.31-1.03c.19-1.64-1.1-5.35-1.31-7.59-.28-2.9.28-5.91.28-5.91,0,0-2.39,3.19-3.52,3.14s-.47-6.19-.19-8.06,1.22-5.15,1.59-6.33c.37-1.17,1.78-2.9,1.78-2.9,0,0-3.47,1.17-3.98.71s.28-4.64.75-7.17c.24-1.3,1.27-3.33,2.58-4.83,1.31-1.5,3.33-1.22,3.52-1.88s-.75-1.18-1.4-2.25c-.99-1.59-1.54-4.87-1.03-5.44.32-.35,2.11,1.03,4.27,1.27,2.16.23,4.08.09,4.08.09,0,0-1.25-1.46-1.78-2.67-.75-1.68-.8-3.7-.33-4.22s2.11,1.08,4.31,1.64c2.2.56,5.49.61,5.49.61,0,0-1.4-1.5-1.78-3.24-.37-1.73-.28-2.81.33-3,.61-.19,2.4,1.48,3.66,1.88,1.36.42,5.95.14,8.02.75s4.26,3.84,4.26,3.84ZM153.49,262.75s4.78-1.31,7.78-2.81c3-1.5,14.16-7.78,15-15.47.85-7.68,0-9.75-3.56-14.44-3.56-4.69-9.81-5.77-13.03-5.06-3.84.85-4.5,3.65-6.19,3.75-1.59.09-1.13-1.68-5.72-3.38-5.88-2.16-21.97,3.63-19.12,19.12,1.5,8.16,13.38,15.11,14.9,15.93,3.67,1.97,9.95,2.34,9.95,2.34ZM162.37,239.29c1.53.6,3.28-.16,3.91-1.7s-.12-3.28-1.65-3.88-3.28.16-3.91,1.7c-.62,1.54.12,3.28,1.65,3.88ZM139.73,236.61c.63,1.54,2.39,2.29,3.92,1.67,1.53-.61,2.26-2.36,1.62-3.9-.63-1.54-2.39-2.29-3.92-1.67-1.53.61-2.26,2.36-1.62,3.9ZM146.47,245.06c-.49.49.43,3.15,1.25,4.51.82,1.36,3.15,3.59,4.46,3.54,1.3-.05,3.76-2.78,4.51-4.79s.98-3.26.65-3.76-4.19.11-5.66.11-4.74-.1-5.23.38ZM151.92,250.96s-2.42,2.63-3.47,3.03c-1.47.56-3.75.08-3.82.99-.06.94,1.4,1.92,3.75,1.61,2.59-.35,3.56-1.94,3.56-1.94,0,0,1.47,2.09,4.31,2.22,2.84.13,3.5-1.68,2.72-1.94-1.07-.34-1.73-.27-3.34-.78-1.28-.41-3.72-3.19-3.72-3.19Z" fill="none" stroke="#000" stroke-linecap="round" stroke-linejoin="round"/><text transform="translate(81.18 133)" fill="#333"><tspan font-family="ComicNeue-Bold, &apos;Comic Neue&apos;" font-size="60" font-weight="700"><tspan x="0" y="0">Enlist</tspan></tspan><tspan font-family="ComicNeue-Regular, &apos;Comic Neue&apos;" font-size="24"><tspan x="56.58" y="28.8">for</tspan></tspan><tspan font-family="ComicNeue-Regular, &apos;Comic Neue&apos;" font-size="24"><tspan x="17.45" y="57.6">Stable Pay</tspan></tspan></text><g id="uuid-e26626b3-45ca-4f2f-8cf2-d714644e6292"><path d="M283.27,376.44l39.73-1.03v39.79c0,2.83-8.9,5.12-19.87,5.12s-19.87-2.29-19.87-5.12" fill="#b7d5e5"/><ellipse cx="303" cy="375" rx="20" ry="5" fill="#e0e0e0"/><ellipse cx="303.5" cy="375" rx="8.5" ry="2" fill="#82aec0"/><ellipse cx="304" cy="375.5" rx="7" ry="1.5" fill="#2f7889"/><path d="M303.69,370.49c-.96,0-2.35.03-2.82.05-.47.02-.43.27,0,.29s6.71.34,10.15.72c4.96.55,8.92,1.65,10.51,2.62.56.34,2.05.93,1.33,2.41-.19.39-.69,1.16-3.18,2.19-.94.39,3.32.67,4.26-.29,0,0,.06-1.98.06-2.86,0-2.83-9.09-5.13-20.31-5.13Z" fill="#b7d5e5"/><path d="M312.85,385.95s-5.56-2.3-16.47-3.92c-10.84-1.61-12.38-5.23-12.38-5.23v37.86c1.37,5.81,18.18,6.1,23.3,6.67,2.69.3,6.52,2.3,6.52,2.3,1.42-2.78-1.51-10.98-1.66-13.09-.24-3.44,1.23-3.37,1.23-6.77s-1.27-4.62-1.68-8.77c-.41-4.15,1.21-4.82,1.15-9.05Z" fill="#fff"/><path d="M295.68,383.07c10.52,1.72,17.11,2.89,17.11,2.89-.23-.09-5.5-2.53-16.37-4.14-10.17-1.51-11.55-4.6-13.05-5.98,0,0,.33,5.27,12.3,7.23Z" fill="#eee"/><path d="M311.83,389.3c-.61,1.55-1.3,3.31-1.07,5.65.21,2.17.64,3.62,1.02,4.9.7,1.88,1.2,3.93.13,6.95-.98,2.76-1.2,5.75.45,10.09.22.58,1.33,3.7,1.5,7.11,0,0,0,0,0,0,0,0,.91-2.55.32-5.45-.76-3.72-1.64-4.16-1.75-6.76-.14-3.57,1.3-4.34,1.42-7.87.14-4-1.32-4.79-1.75-9.11-.41-4.14,1.33-4.87.67-8.86-.22,1.09-.44,1.99-.97,3.35Z" fill="#81b6cc"/><path d="M307.33,420.79c-.81-.14-1.9-.18-3.15-.27-3.55-.27-8.4-.65-12.54-1.58-5.34-1.21-6.92-2.76-7.27-3.89,0,0,.14-31.84.05-33.68-.12-2.58-1.42-5.52-1.42-5.52v39.38c1.42,6.03,18.87,6.33,24.18,6.92,2.79.31,4.92,1.14,6.31,1.85,0,0-.24-2.16-6.16-3.21Z" fill="#b7d5e5"/><path d="M322.04,380.21c-.06,1.78-.42,35.01-.42,35.01-.02.22-4.97,3.49-9.32.09l.62,4.36c6.01-.88,10.08-2.55,10.08-4.46l.06-39.61s-.92,1.85-1.02,4.6Z" fill="#81b6cc"/><path d="M283.27,376.44l39.73-1.03v39.79c0,2.83-8.9,5.12-19.87,5.12s-19.87-2.29-19.87-5.12" fill="none" stroke="#000" stroke-linecap="round" stroke-linejoin="round"/><ellipse cx="303" cy="375" rx="20" ry="5" fill="none" stroke="#000" stroke-linecap="round" stroke-linejoin="round"/><ellipse cx="303.5" cy="375" rx="8.5" ry="2" fill="none" stroke="#000" stroke-linecap="round" stroke-linejoin="round"/><ellipse cx="304" cy="375.5" rx="7" ry="1.5" fill="none" stroke="#000" stroke-linecap="round" stroke-linejoin="round"/><path d="M303.69,370.49c-.96,0-2.35.03-2.82.05-.47.02-.43.27,0,.29s6.71.34,10.15.72c4.96.55,8.92,1.65,10.51,2.62.56.34,2.05.93,1.33,2.41-.19.39-.69,1.16-3.18,2.19-.94.39,3.32.67,4.26-.29,0,0,.06-1.98.06-2.86,0-2.83-9.09-5.13-20.31-5.13Z" fill="none" stroke="#000" stroke-linecap="round" stroke-linejoin="round"/><path d="M312.85,385.95s-5.56-2.3-16.47-3.92c-10.84-1.61-12.38-5.23-12.38-5.23v37.86c1.37,5.81,18.18,6.1,23.3,6.67,2.69.3,6.52,2.3,6.52,2.3,1.42-2.78-1.51-10.98-1.66-13.09-.24-3.44,1.23-3.37,1.23-6.77s-1.27-4.62-1.68-8.77c-.41-4.15,1.21-4.82,1.15-9.05Z" fill="none" stroke="#000" stroke-linecap="round" stroke-linejoin="round"/><path d="M295.68,383.07c10.52,1.72,17.11,2.89,17.11,2.89-.23-.09-5.5-2.53-16.37-4.14-10.17-1.51-11.55-4.6-13.05-5.98,0,0,.33,5.27,12.3,7.23Z" fill="none" stroke="#000" stroke-linecap="round" stroke-linejoin="round"/><path d="M311.83,389.3c-.61,1.55-1.3,3.31-1.07,5.65.21,2.17.64,3.62,1.02,4.9.7,1.88,1.2,3.93.13,6.95-.98,2.76-1.2,5.75.45,10.09.22.58,1.33,3.7,1.5,7.11,0,0,0,0,0,0,0,0,.91-2.55.32-5.45-.76-3.72-1.64-4.16-1.75-6.76-.14-3.57,1.3-4.34,1.42-7.87.14-4-1.32-4.79-1.75-9.11-.41-4.14,1.33-4.87.67-8.86-.22,1.09-.44,1.99-.97,3.35Z" fill="none" stroke="#000" stroke-linecap="round" stroke-linejoin="round"/><path d="M307.33,420.79c-.81-.14-1.9-.18-3.15-.27-3.55-.27-8.4-.65-12.54-1.58-5.34-1.21-6.92-2.76-7.27-3.89,0,0,.14-31.84.05-33.68-.12-2.58-1.42-5.52-1.42-5.52v39.38c1.42,6.03,18.87,6.33,24.18,6.92,2.79.31,4.92,1.14,6.31,1.85,0,0-.24-2.16-6.16-3.21Z" fill="none" stroke="#000" stroke-linecap="round" stroke-linejoin="round"/><path d="M322.04,380.21c-.06,1.78-.42,35.01-.42,35.01-.02.22-4.97,3.49-9.32.09l.62,4.36c6.01-.88,10.08-2.55,10.08-4.46l.06-39.61s-.92,1.85-1.02,4.6Z" fill="none" stroke="#000" stroke-linecap="round" stroke-linejoin="round"/><path d="M283.27,376.44l39.73-1.03v39.79c0,2.83-8.9,5.12-19.87,5.12s-19.87-2.29-19.87-5.12" fill="none" stroke="#000" stroke-linecap="round" stroke-linejoin="round"/><ellipse cx="303" cy="375" rx="20" ry="5" fill="none" stroke="#000" stroke-linecap="round" stroke-linejoin="round"/><ellipse cx="303.5" cy="375" rx="8.5" ry="2" fill="none" stroke="#000" stroke-linecap="round" stroke-linejoin="round"/><ellipse cx="304" cy="375.5" rx="7" ry="1.5" fill="none" stroke="#000" stroke-linecap="round" stroke-linejoin="round"/><path d="M303.69,370.49c-.96,0-2.35.03-2.82.05-.47.02-.43.27,0,.29s6.71.34,10.15.72c4.96.55,8.92,1.65,10.51,2.62.56.34,2.05.93,1.33,2.41-.19.39-.69,1.16-3.18,2.19-.94.39,3.32.67,4.26-.29,0,0,.06-1.98.06-2.86,0-2.83-9.09-5.13-20.31-5.13Z" fill="none" stroke="#000" stroke-linecap="round" stroke-linejoin="round"/><path d="M312.85,385.95s-5.56-2.3-16.47-3.92c-10.84-1.61-12.38-5.23-12.38-5.23v37.86c1.37,5.81,18.18,6.1,23.3,6.67,2.69.3,6.52,2.3,6.52,2.3,1.42-2.78-1.51-10.98-1.66-13.09-.24-3.44,1.23-3.37,1.23-6.77s-1.27-4.62-1.68-8.77c-.41-4.15,1.21-4.82,1.15-9.05Z" fill="none" stroke="#000" stroke-linecap="round" stroke-linejoin="round"/><path d="M295.68,383.07c10.52,1.72,17.11,2.89,17.11,2.89-.23-.09-5.5-2.53-16.37-4.14-10.17-1.51-11.55-4.6-13.05-5.98,0,0,.33,5.27,12.3,7.23Z" fill="none" stroke="#000" stroke-linecap="round" stroke-linejoin="round"/><path d="M311.83,389.3c-.61,1.55-1.3,3.31-1.07,5.65.21,2.17.64,3.62,1.02,4.9.7,1.88,1.2,3.93.13,6.95-.98,2.76-1.2,5.75.45,10.09.22.58,1.33,3.7,1.5,7.11,0,0,0,0,0,0,0,0,.91-2.55.32-5.45-.76-3.72-1.64-4.16-1.75-6.76-.14-3.57,1.3-4.34,1.42-7.87.14-4-1.32-4.79-1.75-9.11-.41-4.14,1.33-4.87.67-8.86-.22,1.09-.44,1.99-.97,3.35Z" fill="none" stroke="#000" stroke-linecap="round" stroke-linejoin="round"/><path d="M307.33,420.79c-.81-.14-1.9-.18-3.15-.27-3.55-.27-8.4-.65-12.54-1.58-5.34-1.21-6.92-2.76-7.27-3.89,0,0,.14-31.84.05-33.68-.12-2.58-1.42-5.52-1.42-5.52v39.38c1.42,6.03,18.87,6.33,24.18,6.92,2.79.31,4.92,1.14,6.31,1.85,0,0-.24-2.16-6.16-3.21Z" fill="none" stroke="#000" stroke-linecap="round" stroke-linejoin="round"/><path d="M322.04,380.21c-.06,1.78-.42,35.01-.42,35.01-.02.22-4.97,3.49-9.32.09l.62,4.36c6.01-.88,10.08-2.55,10.08-4.46l.06-39.61s-.92,1.85-1.02,4.6Z" fill="none" stroke="#000" stroke-linecap="round" stroke-linejoin="round"/></g><g id="uuid-27bdd5ab-857a-421a-9683-12726c9662f9"><path d="M243.27,376.44l39.73-1.03v39.79c0,2.83-8.9,5.12-19.87,5.12s-19.87-2.29-19.87-5.12" fill="#b7d5e5"/><ellipse cx="263" cy="375" rx="20" ry="5" fill="#e0e0e0"/><ellipse cx="263.5" cy="375" rx="8.5" ry="2" fill="#82aec0"/><ellipse cx="264" cy="375.5" rx="7" ry="1.5" fill="#2f7889"/><path d="M263.69,370.49c-.96,0-2.35.03-2.82.05-.47.02-.43.27,0,.29s6.71.34,10.15.72c4.96.55,8.92,1.65,10.51,2.62.56.34,2.05.93,1.33,2.41-.19.39-.69,1.16-3.18,2.19-.94.39,3.32.67,4.26-.29,0,0,.06-1.98.06-2.86,0-2.83-9.09-5.13-20.31-5.13Z" fill="#b7d5e5"/><path d="M272.85,385.95s-5.56-2.3-16.47-3.92c-10.84-1.61-12.38-5.23-12.38-5.23v37.86c1.37,5.81,18.18,6.1,23.3,6.67,2.69.3,6.52,2.3,6.52,2.3,1.42-2.78-1.51-10.98-1.66-13.09-.24-3.44,1.23-3.37,1.23-6.77s-1.27-4.62-1.68-8.77c-.41-4.15,1.21-4.82,1.15-9.05Z" fill="#fff"/><path d="M255.68,383.07c10.52,1.72,17.11,2.89,17.11,2.89-.23-.09-5.5-2.53-16.37-4.14-10.17-1.51-11.55-4.6-13.05-5.98,0,0,.33,5.27,12.3,7.23Z" fill="#eee"/><path d="M271.83,389.3c-.61,1.55-1.3,3.31-1.07,5.65.21,2.17.64,3.62,1.02,4.9.7,1.88,1.2,3.93.13,6.95-.98,2.76-1.2,5.75.45,10.09.22.58,1.33,3.7,1.5,7.11,0,0,0,0,0,0,0,0,.91-2.55.32-5.45-.76-3.72-1.64-4.16-1.75-6.76-.14-3.57,1.3-4.34,1.42-7.87.14-4-1.32-4.79-1.75-9.11-.41-4.14,1.33-4.87.67-8.86-.22,1.09-.44,1.99-.97,3.35Z" fill="#81b6cc"/><path d="M267.33,420.79c-.81-.14-1.9-.18-3.15-.27-3.55-.27-8.4-.65-12.54-1.58-5.34-1.21-6.92-2.76-7.27-3.89,0,0,.14-31.84.05-33.68-.12-2.58-1.42-5.52-1.42-5.52v39.38c1.42,6.03,18.87,6.33,24.18,6.92,2.79.31,4.92,1.14,6.31,1.85,0,0-.24-2.16-6.16-3.21Z" fill="#b7d5e5"/><path d="M282.04,380.21c-.06,1.78-.42,35.01-.42,35.01-.02.22-4.97,3.49-9.32.09l.62,4.36c6.01-.88,10.08-2.55,10.08-4.46l.06-39.61s-.92,1.85-1.02,4.6Z" fill="#81b6cc"/><path d="M243.27,376.44l39.73-1.03v39.79c0,2.83-8.9,5.12-19.87,5.12s-19.87-2.29-19.87-5.12" fill="none" stroke="#000" stroke-linecap="round" stroke-linejoin="round"/><ellipse cx="263" cy="375" rx="20" ry="5" fill="none" stroke="#000" stroke-linecap="round" stroke-linejoin="round"/><ellipse cx="263.5" cy="375" rx="8.5" ry="2" fill="none" stroke="#000" stroke-linecap="round" stroke-linejoin="round"/><ellipse cx="264" cy="375.5" rx="7" ry="1.5" fill="none" stroke="#000" stroke-linecap="round" stroke-linejoin="round"/><path d="M263.69,370.49c-.96,0-2.35.03-2.82.05-.47.02-.43.27,0,.29s6.71.34,10.15.72c4.96.55,8.92,1.65,10.51,2.62.56.34,2.05.93,1.33,2.41-.19.39-.69,1.16-3.18,2.19-.94.39,3.32.67,4.26-.29,0,0,.06-1.98.06-2.86,0-2.83-9.09-5.13-20.31-5.13Z" fill="none" stroke="#000" stroke-linecap="round" stroke-linejoin="round"/><path d="M272.85,385.95s-5.56-2.3-16.47-3.92c-10.84-1.61-12.38-5.23-12.38-5.23v37.86c1.37,5.81,18.18,6.1,23.3,6.67,2.69.3,6.52,2.3,6.52,2.3,1.42-2.78-1.51-10.98-1.66-13.09-.24-3.44,1.23-3.37,1.23-6.77s-1.27-4.62-1.68-8.77c-.41-4.15,1.21-4.82,1.15-9.05Z" fill="none" stroke="#000" stroke-linecap="round" stroke-linejoin="round"/><path d="M255.68,383.07c10.52,1.72,17.11,2.89,17.11,2.89-.23-.09-5.5-2.53-16.37-4.14-10.17-1.51-11.55-4.6-13.05-5.98,0,0,.33,5.27,12.3,7.23Z" fill="none" stroke="#000" stroke-linecap="round" stroke-linejoin="round"/><path d="M271.83,389.3c-.61,1.55-1.3,3.31-1.07,5.65.21,2.17.64,3.62,1.02,4.9.7,1.88,1.2,3.93.13,6.95-.98,2.76-1.2,5.75.45,10.09.22.58,1.33,3.7,1.5,7.11,0,0,0,0,0,0,0,0,.91-2.55.32-5.45-.76-3.72-1.64-4.16-1.75-6.76-.14-3.57,1.3-4.34,1.42-7.87.14-4-1.32-4.79-1.75-9.11-.41-4.14,1.33-4.87.67-8.86-.22,1.09-.44,1.99-.97,3.35Z" fill="none" stroke="#000" stroke-linecap="round" stroke-linejoin="round"/><path d="M267.33,420.79c-.81-.14-1.9-.18-3.15-.27-3.55-.27-8.4-.65-12.54-1.58-5.34-1.21-6.92-2.76-7.27-3.89,0,0,.14-31.84.05-33.68-.12-2.58-1.42-5.52-1.42-5.52v39.38c1.42,6.03,18.87,6.33,24.18,6.92,2.79.31,4.92,1.14,6.31,1.85,0,0-.24-2.16-6.16-3.21Z" fill="none" stroke="#000" stroke-linecap="round" stroke-linejoin="round"/><path d="M282.04,380.21c-.06,1.78-.42,35.01-.42,35.01-.02.22-4.97,3.49-9.32.09l.62,4.36c6.01-.88,10.08-2.55,10.08-4.46l.06-39.61s-.92,1.85-1.02,4.6Z" fill="none" stroke="#000" stroke-linecap="round" stroke-linejoin="round"/><path d="M243.27,376.44l39.73-1.03v39.79c0,2.83-8.9,5.12-19.87,5.12s-19.87-2.29-19.87-5.12" fill="none" stroke="#000" stroke-linecap="round" stroke-linejoin="round"/><ellipse cx="263" cy="375" rx="20" ry="5" fill="none" stroke="#000" stroke-linecap="round" stroke-linejoin="round"/><ellipse cx="263.5" cy="375" rx="8.5" ry="2" fill="none" stroke="#000" stroke-linecap="round" stroke-linejoin="round"/><ellipse cx="264" cy="375.5" rx="7" ry="1.5" fill="none" stroke="#000" stroke-linecap="round" stroke-linejoin="round"/><path d="M263.69,370.49c-.96,0-2.35.03-2.82.05-.47.02-.43.27,0,.29s6.71.34,10.15.72c4.96.55,8.92,1.65,10.51,2.62.56.34,2.05.93,1.33,2.41-.19.39-.69,1.16-3.18,2.19-.94.39,3.32.67,4.26-.29,0,0,.06-1.98.06-2.86,0-2.83-9.09-5.13-20.31-5.13Z" fill="none" stroke="#000" stroke-linecap="round" stroke-linejoin="round"/><path d="M272.85,385.95s-5.56-2.3-16.47-3.92c-10.84-1.61-12.38-5.23-12.38-5.23v37.86c1.37,5.81,18.18,6.1,23.3,6.67,2.69.3,6.52,2.3,6.52,2.3,1.42-2.78-1.51-10.98-1.66-13.09-.24-3.44,1.23-3.37,1.23-6.77s-1.27-4.62-1.68-8.77c-.41-4.15,1.21-4.82,1.15-9.05Z" fill="none" stroke="#000" stroke-linecap="round" stroke-linejoin="round"/><path d="M255.68,383.07c10.52,1.72,17.11,2.89,17.11,2.89-.23-.09-5.5-2.53-16.37-4.14-10.17-1.51-11.55-4.6-13.05-5.98,0,0,.33,5.27,12.3,7.23Z" fill="none" stroke="#000" stroke-linecap="round" stroke-linejoin="round"/><path d="M271.83,389.3c-.61,1.55-1.3,3.31-1.07,5.65.21,2.17.64,3.62,1.02,4.9.7,1.88,1.2,3.93.13,6.95-.98,2.76-1.2,5.75.45,10.09.22.58,1.33,3.7,1.5,7.11,0,0,0,0,0,0,0,0,.91-2.55.32-5.45-.76-3.72-1.64-4.16-1.75-6.76-.14-3.57,1.3-4.34,1.42-7.87.14-4-1.32-4.79-1.75-9.11-.41-4.14,1.33-4.87.67-8.86-.22,1.09-.44,1.99-.97,3.35Z" fill="none" stroke="#000" stroke-linecap="round" stroke-linejoin="round"/><path d="M267.33,420.79c-.81-.14-1.9-.18-3.15-.27-3.55-.27-8.4-.65-12.54-1.58-5.34-1.21-6.92-2.76-7.27-3.89,0,0,.14-31.84.05-33.68-.12-2.58-1.42-5.52-1.42-5.52v39.38c1.42,6.03,18.87,6.33,24.18,6.92,2.79.31,4.92,1.14,6.31,1.85,0,0-.24-2.16-6.16-3.21Z" fill="none" stroke="#000" stroke-linecap="round" stroke-linejoin="round"/><path d="M282.04,380.21c-.06,1.78-.42,35.01-.42,35.01-.02.22-4.97,3.49-9.32.09l.62,4.36c6.01-.88,10.08-2.55,10.08-4.46l.06-39.61s-.92,1.85-1.02,4.6Z" fill="none" stroke="#000" stroke-linecap="round" stroke-linejoin="round"/></g><g id="uuid-1a56e222-9a80-470e-b8ec-351e9659d031"><path d="M264.27,385.44l39.73-1.03v39.79c0,2.83-8.9,5.12-19.87,5.12s-19.87-2.29-19.87-5.12" fill="#b7d5e5"/><ellipse cx="284" cy="384" rx="20" ry="5" fill="#e0e0e0"/><ellipse cx="284.5" cy="384" rx="8.5" ry="2" fill="#82aec0"/><ellipse cx="285" cy="384.5" rx="7" ry="1.5" fill="#2f7889"/><path d="M284.69,379.49c-.96,0-2.35.03-2.82.05-.47.02-.43.27,0,.29s6.71.34,10.15.72c4.96.55,8.92,1.65,10.51,2.62.56.34,2.05.93,1.33,2.41-.19.39-.69,1.16-3.18,2.19-.94.39,3.32.67,4.26-.29,0,0,.06-1.98.06-2.86,0-2.83-9.09-5.13-20.31-5.13Z" fill="#b7d5e5"/><path d="M293.85,394.95s-5.56-2.3-16.47-3.92c-10.84-1.61-12.38-5.23-12.38-5.23v37.86c1.37,5.81,18.18,6.1,23.3,6.67,2.69.3,6.52,2.3,6.52,2.3,1.42-2.78-1.51-10.98-1.66-13.09-.24-3.44,1.23-3.37,1.23-6.77s-1.27-4.62-1.68-8.77c-.41-4.15,1.21-4.82,1.15-9.05Z" fill="#fff"/><path d="M276.68,392.07c10.52,1.72,17.11,2.89,17.11,2.89-.23-.09-5.5-2.53-16.37-4.14-10.17-1.51-11.55-4.6-13.05-5.98,0,0,.33,5.27,12.3,7.23Z" fill="#eee"/><path d="M292.83,398.3c-.61,1.55-1.3,3.31-1.07,5.65.21,2.17.64,3.62,1.02,4.9.7,1.88,1.2,3.93.13,6.95-.98,2.76-1.2,5.75.45,10.09.22.58,1.33,3.7,1.5,7.11,0,0,0,0,0,0,0,0,.91-2.55.32-5.45-.76-3.72-1.64-4.16-1.75-6.76-.14-3.57,1.3-4.34,1.42-7.87.14-4-1.32-4.79-1.75-9.11-.41-4.14,1.33-4.87.67-8.86-.22,1.09-.44,1.99-.97,3.35Z" fill="#81b6cc"/><path d="M288.33,429.79c-.81-.14-1.9-.18-3.15-.27-3.55-.27-8.4-.65-12.54-1.58-5.34-1.21-6.92-2.76-7.27-3.89,0,0,.14-31.84.05-33.68-.12-2.58-1.42-5.52-1.42-5.52v39.38c1.42,6.03,18.87,6.33,24.18,6.92,2.79.31,4.92,1.14,6.31,1.85,0,0-.24-2.16-6.16-3.21Z" fill="#b7d5e5"/><path d="M303.04,389.21c-.06,1.78-.42,35.01-.42,35.01-.02.22-4.97,3.49-9.32.09l.62,4.36c6.01-.88,10.08-2.55,10.08-4.46l.06-39.61s-.92,1.85-1.02,4.6Z" fill="#81b6cc"/><path d="M264.27,385.44l39.73-1.03v39.79c0,2.83-8.9,5.12-19.87,5.12s-19.87-2.29-19.87-5.12" fill="none" stroke="#000" stroke-linecap="round" stroke-linejoin="round"/><ellipse cx="284" cy="384" rx="20" ry="5" fill="none" stroke="#000" stroke-linecap="round" stroke-linejoin="round"/><ellipse cx="284.5" cy="384" rx="8.5" ry="2" fill="none" stroke="#000" stroke-linecap="round" stroke-linejoin="round"/><ellipse cx="285" cy="384.5" rx="7" ry="1.5" fill="none" stroke="#000" stroke-linecap="round" stroke-linejoin="round"/><path d="M284.69,379.49c-.96,0-2.35.03-2.82.05-.47.02-.43.27,0,.29s6.71.34,10.15.72c4.96.55,8.92,1.65,10.51,2.62.56.34,2.05.93,1.33,2.41-.19.39-.69,1.16-3.18,2.19-.94.39,3.32.67,4.26-.29,0,0,.06-1.98.06-2.86,0-2.83-9.09-5.13-20.31-5.13Z" fill="none" stroke="#000" stroke-linecap="round" stroke-linejoin="round"/><path d="M293.85,394.95s-5.56-2.3-16.47-3.92c-10.84-1.61-12.38-5.23-12.38-5.23v37.86c1.37,5.81,18.18,6.1,23.3,6.67,2.69.3,6.52,2.3,6.52,2.3,1.42-2.78-1.51-10.98-1.66-13.09-.24-3.44,1.23-3.37,1.23-6.77s-1.27-4.62-1.68-8.77c-.41-4.15,1.21-4.82,1.15-9.05Z" fill="none" stroke="#000" stroke-linecap="round" stroke-linejoin="round"/><path d="M276.68,392.07c10.52,1.72,17.11,2.89,17.11,2.89-.23-.09-5.5-2.53-16.37-4.14-10.17-1.51-11.55-4.6-13.05-5.98,0,0,.33,5.27,12.3,7.23Z" fill="none" stroke="#000" stroke-linecap="round" stroke-linejoin="round"/><path d="M292.83,398.3c-.61,1.55-1.3,3.31-1.07,5.65.21,2.17.64,3.62,1.02,4.9.7,1.88,1.2,3.93.13,6.95-.98,2.76-1.2,5.75.45,10.09.22.58,1.33,3.7,1.5,7.11,0,0,0,0,0,0,0,0,.91-2.55.32-5.45-.76-3.72-1.64-4.16-1.75-6.76-.14-3.57,1.3-4.34,1.42-7.87.14-4-1.32-4.79-1.75-9.11-.41-4.14,1.33-4.87.67-8.86-.22,1.09-.44,1.99-.97,3.35Z" fill="none" stroke="#000" stroke-linecap="round" stroke-linejoin="round"/><path d="M288.33,429.79c-.81-.14-1.9-.18-3.15-.27-3.55-.27-8.4-.65-12.54-1.58-5.34-1.21-6.92-2.76-7.27-3.89,0,0,.14-31.84.05-33.68-.12-2.58-1.42-5.52-1.42-5.52v39.38c1.42,6.03,18.87,6.33,24.18,6.92,2.79.31,4.92,1.14,6.31,1.85,0,0-.24-2.16-6.16-3.21Z" fill="none" stroke="#000" stroke-linecap="round" stroke-linejoin="round"/><path d="M303.04,389.21c-.06,1.78-.42,35.01-.42,35.01-.02.22-4.97,3.49-9.32.09l.62,4.36c6.01-.88,10.08-2.55,10.08-4.46l.06-39.61s-.92,1.85-1.02,4.6Z" fill="none" stroke="#000" stroke-linecap="round" stroke-linejoin="round"/><path d="M264.27,385.44l39.73-1.03v39.79c0,2.83-8.9,5.12-19.87,5.12s-19.87-2.29-19.87-5.12" fill="none" stroke="#000" stroke-linecap="round" stroke-linejoin="round"/><ellipse cx="284" cy="384" rx="20" ry="5" fill="none" stroke="#000" stroke-linecap="round" stroke-linejoin="round"/><ellipse cx="284.5" cy="384" rx="8.5" ry="2" fill="none" stroke="#000" stroke-linecap="round" stroke-linejoin="round"/><ellipse cx="285" cy="384.5" rx="7" ry="1.5" fill="none" stroke="#000" stroke-linecap="round" stroke-linejoin="round"/><path d="M284.69,379.49c-.96,0-2.35.03-2.82.05-.47.02-.43.27,0,.29s6.71.34,10.15.72c4.96.55,8.92,1.65,10.51,2.62.56.34,2.05.93,1.33,2.41-.19.39-.69,1.16-3.18,2.19-.94.39,3.32.67,4.26-.29,0,0,.06-1.98.06-2.86,0-2.83-9.09-5.13-20.31-5.13Z" fill="none" stroke="#000" stroke-linecap="round" stroke-linejoin="round"/><path d="M293.85,394.95s-5.56-2.3-16.47-3.92c-10.84-1.61-12.38-5.23-12.38-5.23v37.86c1.37,5.81,18.18,6.1,23.3,6.67,2.69.3,6.52,2.3,6.52,2.3,1.42-2.78-1.51-10.98-1.66-13.09-.24-3.44,1.23-3.37,1.23-6.77s-1.27-4.62-1.68-8.77c-.41-4.15,1.21-4.82,1.15-9.05Z" fill="none" stroke="#000" stroke-linecap="round" stroke-linejoin="round"/><path d="M276.68,392.07c10.52,1.72,17.11,2.89,17.11,2.89-.23-.09-5.5-2.53-16.37-4.14-10.17-1.51-11.55-4.6-13.05-5.98,0,0,.33,5.27,12.3,7.23Z" fill="none" stroke="#000" stroke-linecap="round" stroke-linejoin="round"/><path d="M292.83,398.3c-.61,1.55-1.3,3.31-1.07,5.65.21,2.17.64,3.62,1.02,4.9.7,1.88,1.2,3.93.13,6.95-.98,2.76-1.2,5.75.45,10.09.22.58,1.33,3.7,1.5,7.11,0,0,0,0,0,0,0,0,.91-2.55.32-5.45-.76-3.72-1.64-4.16-1.75-6.76-.14-3.57,1.3-4.34,1.42-7.87.14-4-1.32-4.79-1.75-9.11-.41-4.14,1.33-4.87.67-8.86-.22,1.09-.44,1.99-.97,3.35Z" fill="none" stroke="#000" stroke-linecap="round" stroke-linejoin="round"/><path d="M288.33,429.79c-.81-.14-1.9-.18-3.15-.27-3.55-.27-8.4-.65-12.54-1.58-5.34-1.21-6.92-2.76-7.27-3.89,0,0,.14-31.84.05-33.68-.12-2.58-1.42-5.52-1.42-5.52v39.38c1.42,6.03,18.87,6.33,24.18,6.92,2.79.31,4.92,1.14,6.31,1.85,0,0-.24-2.16-6.16-3.21Z" fill="none" stroke="#000" stroke-linecap="round" stroke-linejoin="round"/><path d="M303.04,389.21c-.06,1.78-.42,35.01-.42,35.01-.02.22-4.97,3.49-9.32.09l.62,4.36c6.01-.88,10.08-2.55,10.08-4.46l.06-39.61s-.92,1.85-1.02,4.6Z" fill="none" stroke="#000" stroke-linecap="round" stroke-linejoin="round"/></g></svg>