<?xml version="1.0" encoding="UTF-8"?><svg id="uuid-d8f48785-c546-489c-bd78-a1382e2f3636" xmlns="http://www.w3.org/2000/svg" viewBox="0 0 500 500"><path d="M263.41,166.64c-.37-.41-.89-.64-1.45-.64h-19.4c-.55,0-1.08.23-1.45.64-.37.41-.55.96-.5,1.51l3.91,39.09c.1,1,.94,1.76,1.94,1.76h11.73c1.01,0,1.85-.76,1.94-1.77l3.77-39.09c.05-.55-.13-1.09-.5-1.5Z" fill="#da4453"/><path d="M243.51,194l1.33,13.31c.09.96.9,1.69,1.87,1.69h11.2c1,0,1.83-.76,1.92-1.75l1.28-13.25h-17.6Z" fill="#434a54"/><path d="M270.41,144.65c-.71-3.3-2.56-6.56-5.49-9.69-2.98-3.17-4.66-6.87-5.01-11.01-.26-3.14.39-5.37.4-5.38.21-.68.03-1.42-.47-1.92-.5-.51-1.23-.7-1.91-.5-6.37,1.82-11.22,4.79-14.42,8.81-2.19,2.77-3.62,6.05-4.27,9.8,0,0-.01-.02-.02-.03-.42-.53-1.09-.8-1.77-.71-.67.09-1.25.52-1.52,1.15-1.62,3.73-2.33,7.4-2.1,10.88.21,3.18,1.18,6.14,2.9,8.82,1.81,2.82,4.41,5.21,7.5,6.91,2.89,1.58,6.14,2.49,9.14,2.55.15,0,.29,0,.44,0,2.76,0,5.99-1.09,8.87-2.99,3.1-2.05,5.54-4.86,6.86-7.93,1.22-2.82,1.51-5.78.87-8.78Z" fill="#f6bb42"/><path d="M259.9,146.62c-3.51-4.16-5.05-8.3-5.06-8.34-.22-.61-.73-1.07-1.37-1.22-.63-.15-1.29.02-1.77.46-3.91,3.63-6.53,7.11-7.8,10.34-1.15,2.93-1.23,5.69-.24,8.21.92,2.35,2.8,4.45,5.43,6.07,1.41.87,3.54,1.84,4.33,1.85h0c.23,0,.46-.04.67-.12,2.49-.93,6.88-4.07,8.07-8.58.55-2.08.6-5.28-2.26-8.68Z" fill="#ffce54"/><path d="M266.07,158h-27.13c-1.07,0-1.93.87-1.93,1.93v8.13c0,1.07.87,1.94,1.94,1.94h27.13c1.07,0,1.93-.87,1.93-1.93v-8.13c0-1.07-.87-1.93-1.93-1.93Z" fill="#ed5564"/><path d="M260,160.93c1.07,0,1.94-.86,1.94-1.93h-3.87c0,1.07.86,1.93,1.93,1.93Z" fill="#da4453"/><path d="M252.26,160.93c1.07,0,1.94-.86,1.94-1.93h-3.87c0,1.07.86,1.93,1.93,1.93Z" fill="#da4453"/><path d="M244.53,160.93c1.07,0,1.93-.86,1.93-1.93h-3.87c0,1.07.87,1.93,1.94,1.93Z" fill="#da4453"/><g id="uuid-f3866ca7-ec29-406c-9d93-489419e8185d"><polygon id="uuid-d23fc787-3df0-4599-9ccd-22d4eaf09959" points="176.47 359.95 159.57 354.45 149.96 384 148.02 389.94 173.38 398.19 175.3 392.28 166.85 389.53 176.47 359.95" fill="#393939"/><rect id="uuid-3b75f377-e81d-4ed2-b4dd-68286f93fd03" x="157.82" y="327.18" width="17.77" height="34.66" transform="translate(-8.92 4.46) rotate(-1.49)" fill="#393939"/><polygon id="uuid-55a059e7-ad52-4ec8-8981-adc00fb00f90" points="199.53 352.62 217.29 353.18 216.32 384.27 225.2 384.54 225.01 390.76 198.36 389.93 198.56 383.68 198.56 383.68 199.53 352.62" fill="#393939"/><rect id="uuid-98524489-61ba-4c74-bc62-416cab31cb0e" x="194.83" y="324.12" width="17.77" height="34.66" transform="translate(-94.96 79) rotate(-17.87)" fill="#393939"/><polygon id="uuid-a05935a5-ee24-4d69-a099-6e55dc3581a8" points="190.26 289.26 190.29 289.37 190.19 289.37 182.91 255.36 187.37 247.66 173.31 248.03 178.17 255.48 172.67 289.83 172.57 289.83 172.59 289.72 172.57 289.83 172.68 289.83 181.73 300.98 190.18 289.37 190.29 289.37 190.26 289.26" fill="#565656"/><path id="uuid-6ee9c3af-c98f-4a83-b815-396e3dfaf0f5" d="M155.24,240.5l2.32,88.84,49.75-1.3-2.32-88.84-49.75,1.3ZM181.29,284.21l-18.69-43.01,35.12-.92-16.43,43.92Z" fill="#393939"/><path id="uuid-a10fe213-0389-489a-9180-f9322911b7f6" d="M202.77,218.1c.56-5.04.22-10.48-1.17-15.98-4.8-18.98-20.23-31.45-34.47-27.85-14.24,3.6-21.89,21.91-17.09,40.89,1.39,5.5,3.68,10.44,6.56,14.62l46.16-11.67Z" fill="#cecece"/><path id="uuid-a795f7ad-3127-447f-abf5-6f098ea1724a" d="M157.69,234.21c4.98,9.75,13.42,16.08,22.85,15.84,9.43-.25,17.53-7.01,21.99-17l-44.84,1.17Z" fill="#cecece"/><path id="uuid-7f4df46e-0bdf-467c-a374-1cf028f9e44b" d="M192.64,209.99c.71,2.14.32,4.32-.86,4.88-1.18.56-2.72-.72-3.43-2.85-.71-2.14-.32-4.32.86-4.88,1.18-.56,2.72.72,3.43,2.85Z" fill="#333"/><path id="uuid-b1009758-946b-479f-adbe-cceeaadcfd37" d="M177.64,211.99c.71,2.14.32,4.32-.86,4.88-1.18.56-2.72-.72-3.43-2.85s-.32-4.32.86-4.88c1.18-.56,2.72.72,3.43,2.85Z" fill="#333"/><path id="uuid-a73080f4-a4d0-4d8a-9e6b-5164e64299ae" d="M142.74,190.4c5.63-11.34,22.43-15.8,30.76-18.02,10.42-2.77,23.14-4.26,24.34-1.23,1.07,2.68-7.62,7.11-6.36,11.34.91,3.08,6.34,3.52,6.05,4.5-.6,2.07-24.51-1.61-27.74,4.08-1.45,2.56,2.27,5.26.5,7.27-1.82,2.08-6.29-.23-15.26.29-7.72.45-10.96,2.54-12.95.85-2.65-2.24.29-8.32.66-9.07Z" fill="#4a4a4a"/><rect id="uuid-c0e3293f-18ac-4e92-819f-94806bdd32fc" x="217.94" y="214.35" width="28.36" height="13.29" transform="translate(-84.8 268.76) rotate(-52.16)" fill="#393939"/><rect id="uuid-fac9473d-a98a-49c5-831a-22ae245f8a95" x="198.9" y="233.42" width="28.36" height="13.29" transform="translate(-102.4 180.84) rotate(-37.77)" fill="#393939"/><rect id="uuid-13a29748-9ba7-4471-ba58-eb7299f6de3e" x="134.75" y="247.77" width="28.36" height="13.29" transform="translate(-127.45 151.83) rotate(-39.29)" fill="#393939"/><rect id="uuid-b5b90793-546d-4989-b562-3d49670b20cc" x="117.21" y="266.21" width="28.36" height="13.29" transform="translate(-165.82 214.67) rotate(-53.21)" fill="#393939"/><rect id="uuid-f47f4d62-ed7a-46a8-8866-aac270367956" x="237.14" y="198.31" width="14.18" height="14.18" transform="translate(-67.8 272.3) rotate(-52.16)" fill="#cecece"/><rect id="uuid-319d3aa1-f397-4c43-9864-75465a35b040" x="112.22" y="281.92" width="14.18" height="14.18" transform="translate(-183.59 211.48) rotate(-53.21)" fill="#cecece"/></g><g id="uuid-9570149c-a33b-433c-ac5d-c1cbe46d948f"><polygon id="uuid-1d0e6c3e-69c3-43a2-9e03-4b240749c23b" points="320 404 302 404 302 434.8 302 441 329 441 329 435 320 435 320 404" fill="#393939"/><rect id="uuid-16482bf8-c1d8-4bad-b60e-d36eaa6d31d5" x="302" y="369" width="18" height="35" fill="#393939"/><polygon id="uuid-5be17cf6-253d-4c3f-94f3-b4f22c93d828" points="295 404 278 404 278 435 268 435 268 441 295 441 295 434.8 295 434.8 295 404" fill="#393939"/><rect id="uuid-88cdafbb-5c48-4513-bbe9-ddeae2fa5686" x="277" y="369" width="18" height="35" fill="#393939"/><polygon id="uuid-d1487845-3a72-4a98-b988-5495f554e41d" points="307.81 329.89 307.83 330 307.73 330 301.31 295.62 305.99 288 291.84 288 296.53 295.62 290.1 330 290.01 330 290.03 329.89 290.01 330 290.12 330 298.92 341.45 307.72 330 307.83 330 307.81 329.89" fill="#565656"/><path id="uuid-0cfbfc62-46a1-4c27-b82a-a0f269709d76" d="M274,280v89h50v-89h-50ZM298.92,324.48l-17.57-43.48h35.13l-17.57,43.48Z" fill="#393939"/><path id="uuid-e9e9d229-fa22-4079-a9f7-2b9c9441118d" d="M322.82,261.4c.97-4.98,1.09-10.43.16-16.02-3.2-19.32-17.54-33.03-32.03-30.63-14.49,2.4-23.63,20.01-20.43,39.32.93,5.59,2.79,10.71,5.32,15.11l46.98-7.79Z" fill="#cecece"/><path id="uuid-35d60b9b-4561-4402-ab19-421f2c080f6d" d="M276.63,274c4.72,9.87,13,16.43,22.43,16.43s17.71-6.55,22.43-16.43h-44.86Z" fill="#cecece"/><ellipse id="uuid-472d318a-bca5-4084-874f-ab745364d9e1" cx="315.5" cy="251" rx="2.46" ry="4.03" transform="translate(-33.03 48.35) rotate(-8.33)" fill="#333"/><ellipse id="uuid-f59f3617-6784-4455-9d95-b7436e2d8bc0" cx="301.5" cy="253" rx="2.46" ry="4.03" transform="translate(-33.47 46.34) rotate(-8.33)" fill="#333"/><path id="uuid-1ba796fc-d00a-4250-b0fc-d646c3eb95f8" d="M265.27,228.61c6.55-10.83,23.67-13.88,32.15-15.39,10.62-1.89,23.41-2.32,24.36.8.84,2.76-8.18,6.45-7.28,10.77.65,3.14,6.02,4.04,5.66,4.98-.77,2.01-24.3-3.65-27.99,1.75-1.66,2.43,1.82,5.43-.11,7.28-1.99,1.92-6.25-.76-15.23-.99-7.73-.2-11.13,1.62-12.98-.23-2.45-2.46.98-8.27,1.41-8.98Z" fill="#4a4a4a"/><rect id="uuid-f7a5d089-67dc-4cac-9dae-02a25ddf157c" x="349.47" y="280.4" width="28.36" height="13.29" transform="translate(-4.98 6.43) rotate(-1.01)" fill="#393939"/><rect id="uuid-5aa6ffb6-b5de-4bd0-a030-08b2f2e46176" x="322" y="281" width="28" height="13" fill="#393939"/><rect id="uuid-5b129d56-5788-4636-af55-e04fdbe43928" x="252.26" y="285.82" width="28.36" height="13.29" transform="translate(-88.04 468.18) rotate(-74.03)" fill="#393939"/><rect id="uuid-db98c990-2a59-469c-b286-bdf3fe3362e0" x="247.6" y="311.59" width="28.36" height="13.29" transform="translate(-79.2 549.61) rotate(-84.72)" fill="#393939"/><rect id="uuid-b44047f8-cf60-4ea3-b556-87062a4dfeff" x="376.31" y="279.61" width="14.18" height="14.18" transform="translate(-4.97 6.77) rotate(-1.01)" fill="#cecece"/><rect id="uuid-4d05d945-3835-4ded-a665-586ff53345fd" x="252.83" y="331.22" width="14.18" height="14.18" transform="translate(-100.88 565.99) rotate(-84.72)" fill="#cecece"/></g><path d="M263.41,166.64c-.37-.41-.89-.64-1.45-.64h-19.4c-.55,0-1.08.23-1.45.64-.37.41-.55.96-.5,1.51l3.91,39.09c.1,1,.94,1.76,1.94,1.76h11.73c1.01,0,1.85-.76,1.94-1.77l3.77-39.09c.05-.55-.13-1.09-.5-1.5Z" fill="none" stroke="#000" stroke-linecap="round" stroke-linejoin="round"/><path d="M243.51,194l1.33,13.31c.09.96.9,1.69,1.87,1.69h11.2c1,0,1.83-.76,1.92-1.75l1.28-13.25h-17.6Z" fill="none" stroke="#000" stroke-linecap="round" stroke-linejoin="round"/><path d="M270.41,144.65c-.71-3.3-2.56-6.56-5.49-9.69-2.98-3.17-4.66-6.87-5.01-11.01-.26-3.14.39-5.37.4-5.38.21-.68.03-1.42-.47-1.92-.5-.51-1.23-.7-1.91-.5-6.37,1.82-11.22,4.79-14.42,8.81-2.19,2.77-3.62,6.05-4.27,9.8,0,0-.01-.02-.02-.03-.42-.53-1.09-.8-1.77-.71-.67.09-1.25.52-1.52,1.15-1.62,3.73-2.33,7.4-2.1,10.88.21,3.18,1.18,6.14,2.9,8.82,1.81,2.82,4.41,5.21,7.5,6.91,2.89,1.58,6.14,2.49,9.14,2.55.15,0,.29,0,.44,0,2.76,0,5.99-1.09,8.87-2.99,3.1-2.05,5.54-4.86,6.86-7.93,1.22-2.82,1.51-5.78.87-8.78Z" fill="none" stroke="#000" stroke-linecap="round" stroke-linejoin="round"/><path d="M259.9,146.62c-3.51-4.16-5.05-8.3-5.06-8.34-.22-.61-.73-1.07-1.37-1.22-.63-.15-1.29.02-1.77.46-3.91,3.63-6.53,7.11-7.8,10.34-1.15,2.93-1.23,5.69-.24,8.21.92,2.35,2.8,4.45,5.43,6.07,1.41.87,3.54,1.84,4.33,1.85h0c.23,0,.46-.04.67-.12,2.49-.93,6.88-4.07,8.07-8.58.55-2.08.6-5.28-2.26-8.68Z" fill="none" stroke="#000" stroke-linecap="round" stroke-linejoin="round"/><path d="M266.07,158h-27.13c-1.07,0-1.93.87-1.93,1.93v8.13c0,1.07.87,1.94,1.94,1.94h27.13c1.07,0,1.93-.87,1.93-1.93v-8.13c0-1.07-.87-1.93-1.93-1.93Z" fill="none" stroke="#000" stroke-linecap="round" stroke-linejoin="round"/><path d="M260,160.93c1.07,0,1.94-.86,1.94-1.93h-3.87c0,1.07.86,1.93,1.93,1.93Z" fill="none" stroke="#000" stroke-linecap="round" stroke-linejoin="round"/><path d="M252.26,160.93c1.07,0,1.94-.86,1.94-1.93h-3.87c0,1.07.86,1.93,1.93,1.93Z" fill="none" stroke="#000" stroke-linecap="round" stroke-linejoin="round"/><path d="M244.53,160.93c1.07,0,1.93-.86,1.93-1.93h-3.87c0,1.07.87,1.93,1.94,1.93Z" fill="none" stroke="#000" stroke-linecap="round" stroke-linejoin="round"/><g id="uuid-36377f7a-b108-458d-a12d-eda55ed9ca25"><polygon id="uuid-bf076cdb-99ee-4004-9d0a-f6bc50db38c2" points="176.47 359.95 159.57 354.45 149.96 384 148.02 389.94 173.38 398.19 175.3 392.28 166.85 389.53 176.47 359.95" fill="none" stroke="#000" stroke-linecap="round" stroke-linejoin="round"/><rect id="uuid-fc55a921-713a-423e-83ca-c50b679e6286" x="157.82" y="327.18" width="17.77" height="34.66" transform="translate(-8.92 4.46) rotate(-1.49)" fill="none" stroke="#000" stroke-linecap="round" stroke-linejoin="round"/><polygon id="uuid-d8a9fb3e-98b0-41aa-807f-839325114465" points="199.53 352.62 217.29 353.18 216.32 384.27 225.2 384.54 225.01 390.76 198.36 389.93 198.56 383.68 198.56 383.68 199.53 352.62" fill="none" stroke="#000" stroke-linecap="round" stroke-linejoin="round"/><rect id="uuid-37582c58-703a-4c9a-85be-5b3fedf385fb" x="194.83" y="324.12" width="17.77" height="34.66" transform="translate(-94.96 79) rotate(-17.87)" fill="none" stroke="#000" stroke-linecap="round" stroke-linejoin="round"/><polygon id="uuid-494b8172-d1ca-450c-bd7f-3a7101e525dd" points="190.26 289.26 190.29 289.37 190.19 289.37 182.91 255.36 187.37 247.66 173.31 248.03 178.17 255.48 172.67 289.83 172.57 289.83 172.59 289.72 172.57 289.83 172.68 289.83 181.73 300.98 190.18 289.37 190.29 289.37 190.26 289.26" fill="none" stroke="#000" stroke-linecap="round" stroke-linejoin="round"/><path id="uuid-a944bce3-728a-48c7-a337-d3d2501ab5e2" d="M155.24,240.5l2.32,88.84,49.75-1.3-2.32-88.84-49.75,1.3ZM181.29,284.21l-18.69-43.01,35.12-.92-16.43,43.92Z" fill="none" stroke="#000" stroke-linecap="round" stroke-linejoin="round"/><path id="uuid-0e6eba4f-da8b-448a-b1d4-ba06097c4dcf" d="M202.77,218.1c.56-5.04.22-10.48-1.17-15.98-4.8-18.98-20.23-31.45-34.47-27.85-14.24,3.6-21.89,21.91-17.09,40.89,1.39,5.5,3.68,10.44,6.56,14.62l46.16-11.67Z" fill="none" stroke="#000" stroke-linecap="round" stroke-linejoin="round"/><path id="uuid-5bd46492-a8af-46c4-8d49-ec956eae7aa8" d="M157.69,234.21c4.98,9.75,13.42,16.08,22.85,15.84,9.43-.25,17.53-7.01,21.99-17l-44.84,1.17Z" fill="none" stroke="#000" stroke-linecap="round" stroke-linejoin="round"/><path id="uuid-d4834963-1a98-4f7d-a9a1-24b8694e1809" d="M192.64,209.99c.71,2.14.32,4.32-.86,4.88-1.18.56-2.72-.72-3.43-2.85-.71-2.14-.32-4.32.86-4.88,1.18-.56,2.72.72,3.43,2.85Z" fill="none" stroke="#000" stroke-linecap="round" stroke-linejoin="round"/><path id="uuid-8d50ae43-cd86-4c2b-83a2-c5cb2ad4cdf0" d="M177.64,211.99c.71,2.14.32,4.32-.86,4.88-1.18.56-2.72-.72-3.43-2.85s-.32-4.32.86-4.88c1.18-.56,2.72.72,3.43,2.85Z" fill="none" stroke="#000" stroke-linecap="round" stroke-linejoin="round"/><path id="uuid-adeb48ee-6fce-4454-9b57-d8654bac2a7d" d="M142.74,190.4c5.63-11.34,22.43-15.8,30.76-18.02,10.42-2.77,23.14-4.26,24.34-1.23,1.07,2.68-7.62,7.11-6.36,11.34.91,3.08,6.34,3.52,6.05,4.5-.6,2.07-24.51-1.61-27.74,4.08-1.45,2.56,2.27,5.26.5,7.27-1.82,2.08-6.29-.23-15.26.29-7.72.45-10.96,2.54-12.95.85-2.65-2.24.29-8.32.66-9.07Z" fill="none" stroke="#000" stroke-linecap="round" stroke-linejoin="round"/><rect id="uuid-4f6a71b7-fcd5-40e5-b1f2-b5bfd07da58e" x="217.94" y="214.35" width="28.36" height="13.29" transform="translate(-84.8 268.76) rotate(-52.16)" fill="none" stroke="#000" stroke-linecap="round" stroke-linejoin="round"/><rect id="uuid-1bd19734-0fe1-4aa3-9ff5-7e13443ad5f1" x="198.9" y="233.42" width="28.36" height="13.29" transform="translate(-102.4 180.84) rotate(-37.77)" fill="none" stroke="#000" stroke-linecap="round" stroke-linejoin="round"/><rect id="uuid-c6371026-3377-499c-a347-ed13c7093ec2" x="134.75" y="247.77" width="28.36" height="13.29" transform="translate(-127.45 151.83) rotate(-39.29)" fill="none" stroke="#000" stroke-linecap="round" stroke-linejoin="round"/><rect id="uuid-0e48b7e5-3658-4c8b-8a6a-775502094794" x="117.21" y="266.21" width="28.36" height="13.29" transform="translate(-165.82 214.67) rotate(-53.21)" fill="none" stroke="#000" stroke-linecap="round" stroke-linejoin="round"/><rect id="uuid-b20cbe3b-7855-4f81-9431-8ce4ba65c0ad" x="237.14" y="198.31" width="14.18" height="14.18" transform="translate(-67.8 272.3) rotate(-52.16)" fill="none" stroke="#000" stroke-linecap="round" stroke-linejoin="round"/><rect id="uuid-7c17aa7c-0193-43d5-b657-841460deee01" x="112.22" y="281.92" width="14.18" height="14.18" transform="translate(-183.59 211.48) rotate(-53.21)" fill="none" stroke="#000" stroke-linecap="round" stroke-linejoin="round"/><polygon id="uuid-73e73b82-75a6-4bf9-890c-cd97dadf0bdd" points="176.47 359.95 159.57 354.45 149.96 384 148.02 389.94 173.38 398.19 175.3 392.28 166.85 389.53 176.47 359.95" fill="none" stroke="#000" stroke-linecap="round" stroke-linejoin="round"/><rect id="uuid-4d645b14-739b-40cc-b4a9-d407fe83c8f4" x="157.82" y="327.18" width="17.77" height="34.66" transform="translate(-8.92 4.46) rotate(-1.49)" fill="none" stroke="#000" stroke-linecap="round" stroke-linejoin="round"/><polygon id="uuid-9c28618d-9b0b-465a-a2fb-acfa1aee3b6f" points="199.53 352.62 217.29 353.18 216.32 384.27 225.2 384.54 225.01 390.76 198.36 389.93 198.56 383.68 198.56 383.68 199.53 352.62" fill="none" stroke="#000" stroke-linecap="round" stroke-linejoin="round"/><rect id="uuid-b532547d-c76e-4af9-a1a5-189211e23271" x="194.83" y="324.12" width="17.77" height="34.66" transform="translate(-94.96 79) rotate(-17.87)" fill="none" stroke="#000" stroke-linecap="round" stroke-linejoin="round"/><polygon id="uuid-cc155351-8234-40fb-9063-9d3f5b432064" points="190.26 289.26 190.29 289.37 190.19 289.37 182.91 255.36 187.37 247.66 173.31 248.03 178.17 255.48 172.67 289.83 172.57 289.83 172.59 289.72 172.57 289.83 172.68 289.83 181.73 300.98 190.18 289.37 190.29 289.37 190.26 289.26" fill="none" stroke="#000" stroke-linecap="round" stroke-linejoin="round"/><path id="uuid-a7f84bae-baaf-453a-9dea-57de91a6585c" d="M155.24,240.5l2.32,88.84,49.75-1.3-2.32-88.84-49.75,1.3ZM181.29,284.21l-18.69-43.01,35.12-.92-16.43,43.92Z" fill="none" stroke="#000" stroke-linecap="round" stroke-linejoin="round"/><path id="uuid-35ebf3a3-f242-4603-a9a2-d2480ec24dd8" d="M202.77,218.1c.56-5.04.22-10.48-1.17-15.98-4.8-18.98-20.23-31.45-34.47-27.85-14.24,3.6-21.89,21.91-17.09,40.89,1.39,5.5,3.68,10.44,6.56,14.62l46.16-11.67Z" fill="none" stroke="#000" stroke-linecap="round" stroke-linejoin="round"/><path id="uuid-e4d619e1-f1a3-4cb9-8bca-1555fba91a4a" d="M157.69,234.21c4.98,9.75,13.42,16.08,22.85,15.84,9.43-.25,17.53-7.01,21.99-17l-44.84,1.17Z" fill="none" stroke="#000" stroke-linecap="round" stroke-linejoin="round"/><path id="uuid-82d3df8f-1278-47a1-9765-a2144428ff0d" d="M192.64,209.99c.71,2.14.32,4.32-.86,4.88-1.18.56-2.72-.72-3.43-2.85-.71-2.14-.32-4.32.86-4.88,1.18-.56,2.72.72,3.43,2.85Z" fill="none" stroke="#000" stroke-linecap="round" stroke-linejoin="round"/><path id="uuid-01920778-781e-4838-bcc2-5a1f7155518d" d="M177.64,211.99c.71,2.14.32,4.32-.86,4.88-1.18.56-2.72-.72-3.43-2.85s-.32-4.32.86-4.88c1.18-.56,2.72.72,3.43,2.85Z" fill="none" stroke="#000" stroke-linecap="round" stroke-linejoin="round"/><path id="uuid-a5c31d8a-0ae7-4221-a719-5029f708851b" d="M142.74,190.4c5.63-11.34,22.43-15.8,30.76-18.02,10.42-2.77,23.14-4.26,24.34-1.23,1.07,2.68-7.62,7.11-6.36,11.34.91,3.08,6.34,3.52,6.05,4.5-.6,2.07-24.51-1.61-27.74,4.08-1.45,2.56,2.27,5.26.5,7.27-1.82,2.08-6.29-.23-15.26.29-7.72.45-10.96,2.54-12.95.85-2.65-2.24.29-8.32.66-9.07Z" fill="none" stroke="#000" stroke-linecap="round" stroke-linejoin="round"/><rect id="uuid-ee5a24af-ef72-4d4e-a88e-97219d193da0" x="217.94" y="214.35" width="28.36" height="13.29" transform="translate(-84.8 268.76) rotate(-52.16)" fill="none" stroke="#000" stroke-linecap="round" stroke-linejoin="round"/><rect id="uuid-baab8bb7-2a49-4b13-995d-df418513d9ff" x="198.9" y="233.42" width="28.36" height="13.29" transform="translate(-102.4 180.84) rotate(-37.77)" fill="none" stroke="#000" stroke-linecap="round" stroke-linejoin="round"/><rect id="uuid-768e4dd6-244d-4baf-9d53-9daae3aa7d5c" x="134.75" y="247.77" width="28.36" height="13.29" transform="translate(-127.45 151.83) rotate(-39.29)" fill="none" stroke="#000" stroke-linecap="round" stroke-linejoin="round"/><rect id="uuid-bc918b9d-d80e-44b6-8018-b4dc3b38a019" x="117.21" y="266.21" width="28.36" height="13.29" transform="translate(-165.82 214.67) rotate(-53.21)" fill="none" stroke="#000" stroke-linecap="round" stroke-linejoin="round"/><rect id="uuid-94f9f062-c560-49c9-906e-54dd5ec997a2" x="237.14" y="198.31" width="14.18" height="14.18" transform="translate(-67.8 272.3) rotate(-52.16)" fill="none" stroke="#000" stroke-linecap="round" stroke-linejoin="round"/><rect id="uuid-4bdb9cef-f265-413e-8d95-b3c350a4206f" x="112.22" y="281.92" width="14.18" height="14.18" transform="translate(-183.59 211.48) rotate(-53.21)" fill="none" stroke="#000" stroke-linecap="round" stroke-linejoin="round"/></g><g id="uuid-dcde52b7-5043-43ad-b44e-3e28f20138c0"><polygon id="uuid-d4d6ecc6-9186-4613-aab9-de1ba7c9b1c6" points="320 404 302 404 302 434.8 302 441 329 441 329 435 320 435 320 404" fill="none" stroke="#000" stroke-linecap="round" stroke-linejoin="round"/><rect id="uuid-4c486b5f-573d-44b3-a9a2-8a233c77e91e" x="302" y="369" width="18" height="35" fill="none" stroke="#000" stroke-linecap="round" stroke-linejoin="round"/><polygon id="uuid-5f77e2f7-a911-472a-a6b8-ae709c717589" points="295 404 278 404 278 435 268 435 268 441 295 441 295 434.8 295 434.8 295 404" fill="none" stroke="#000" stroke-linecap="round" stroke-linejoin="round"/><rect id="uuid-b9dd4d8f-c90e-43cb-80ac-0c409d0cffb7" x="277" y="369" width="18" height="35" fill="none" stroke="#000" stroke-linecap="round" stroke-linejoin="round"/><polygon id="uuid-14387143-2fec-4a09-b9b8-6f1e83f41452" points="307.81 329.89 307.83 330 307.73 330 301.31 295.62 305.99 288 291.84 288 296.53 295.62 290.1 330 290.01 330 290.03 329.89 290.01 330 290.12 330 298.92 341.45 307.72 330 307.83 330 307.81 329.89" fill="none" stroke="#000" stroke-linecap="round" stroke-linejoin="round"/><path id="uuid-fabce231-6b93-4978-a035-1dc9371454fa" d="M274,280v89h50v-89h-50ZM298.92,324.48l-17.57-43.48h35.13l-17.57,43.48Z" fill="none" stroke="#000" stroke-linecap="round" stroke-linejoin="round"/><path id="uuid-de6d6662-4604-4537-b0cb-6e52b5bc9997" d="M322.82,261.4c.97-4.98,1.09-10.43.16-16.02-3.2-19.32-17.54-33.03-32.03-30.63-14.49,2.4-23.63,20.01-20.43,39.32.93,5.59,2.79,10.71,5.32,15.11l46.98-7.79Z" fill="none" stroke="#000" stroke-linecap="round" stroke-linejoin="round"/><path id="uuid-6d855f6e-a6d6-44fa-845f-4103218f915a" d="M276.63,274c4.72,9.87,13,16.43,22.43,16.43s17.71-6.55,22.43-16.43h-44.86Z" fill="none" stroke="#000" stroke-linecap="round" stroke-linejoin="round"/><ellipse id="uuid-2c2c4d8e-b646-43aa-8441-fb4fe01973ed" cx="315.5" cy="251" rx="2.46" ry="4.03" transform="translate(-33.03 48.35) rotate(-8.33)" fill="none" stroke="#000" stroke-linecap="round" stroke-linejoin="round"/><ellipse id="uuid-f2d173d6-1d21-450f-a90b-738c7696c71e" cx="301.5" cy="253" rx="2.46" ry="4.03" transform="translate(-33.47 46.34) rotate(-8.33)" fill="none" stroke="#000" stroke-linecap="round" stroke-linejoin="round"/><path id="uuid-6c0c9c12-b9c0-4967-9f81-d6848919d3e8" d="M265.27,228.61c6.55-10.83,23.67-13.88,32.15-15.39,10.62-1.89,23.41-2.32,24.36.8.84,2.76-8.18,6.45-7.28,10.77.65,3.14,6.02,4.04,5.66,4.98-.77,2.01-24.3-3.65-27.99,1.75-1.66,2.43,1.82,5.43-.11,7.28-1.99,1.92-6.25-.76-15.23-.99-7.73-.2-11.13,1.62-12.98-.23-2.45-2.46.98-8.27,1.41-8.98Z" fill="none" stroke="#000" stroke-linecap="round" stroke-linejoin="round"/><rect id="uuid-29b204b1-cec9-4657-bbf8-9a6c8f59d16c" x="349.47" y="280.4" width="28.36" height="13.29" transform="translate(-4.98 6.43) rotate(-1.01)" fill="none" stroke="#000" stroke-linecap="round" stroke-linejoin="round"/><rect id="uuid-8147f0a3-a74c-4658-a086-224b8a8b59a7" x="322" y="281" width="28" height="13" fill="none" stroke="#000" stroke-linecap="round" stroke-linejoin="round"/><rect id="uuid-7eff68f8-f617-4baa-8668-00b999f66e9b" x="252.26" y="285.82" width="28.36" height="13.29" transform="translate(-88.04 468.18) rotate(-74.03)" fill="none" stroke="#000" stroke-linecap="round" stroke-linejoin="round"/><rect id="uuid-ee4cb015-e852-4723-a84c-f615110fc2c8" x="247.6" y="311.59" width="28.36" height="13.29" transform="translate(-79.2 549.61) rotate(-84.72)" fill="none" stroke="#000" stroke-linecap="round" stroke-linejoin="round"/><rect id="uuid-690eb4d3-cadb-4a48-aa83-16006301cf63" x="376.31" y="279.61" width="14.18" height="14.18" transform="translate(-4.97 6.77) rotate(-1.01)" fill="none" stroke="#000" stroke-linecap="round" stroke-linejoin="round"/><rect id="uuid-64633272-8545-4eeb-8289-0af5116cc7db" x="252.83" y="331.22" width="14.18" height="14.18" transform="translate(-100.88 565.99) rotate(-84.72)" fill="none" stroke="#000" stroke-linecap="round" stroke-linejoin="round"/><polygon id="uuid-2e166ffa-86bb-4bf2-b1ba-615d04132bdc" points="320 404 302 404 302 434.8 302 441 329 441 329 435 320 435 320 404" fill="none" stroke="#000" stroke-linecap="round" stroke-linejoin="round"/><rect id="uuid-15416750-ca9d-44e1-9f85-f435445c6daa" x="302" y="369" width="18" height="35" fill="none" stroke="#000" stroke-linecap="round" stroke-linejoin="round"/><polygon id="uuid-a035bcec-7971-4ca5-8be5-41f659333a77" points="295 404 278 404 278 435 268 435 268 441 295 441 295 434.8 295 434.8 295 404" fill="none" stroke="#000" stroke-linecap="round" stroke-linejoin="round"/><rect id="uuid-b59a4a97-0046-4715-9669-7412ac5c9edc" x="277" y="369" width="18" height="35" fill="none" stroke="#000" stroke-linecap="round" stroke-linejoin="round"/><polygon id="uuid-dd50671c-5453-4a78-b8fe-fbdba205b66e" points="307.81 329.89 307.83 330 307.73 330 301.31 295.62 305.99 288 291.84 288 296.53 295.62 290.1 330 290.01 330 290.03 329.89 290.01 330 290.12 330 298.92 341.45 307.72 330 307.83 330 307.81 329.89" fill="none" stroke="#000" stroke-linecap="round" stroke-linejoin="round"/><path id="uuid-36768260-bd40-4bfa-8dcd-33d9c6e1b7e3" d="M274,280v89h50v-89h-50ZM298.92,324.48l-17.57-43.48h35.13l-17.57,43.48Z" fill="none" stroke="#000" stroke-linecap="round" stroke-linejoin="round"/><path id="uuid-dea1264b-dde9-4200-99ed-a572b4fe23c9" d="M322.82,261.4c.97-4.98,1.09-10.43.16-16.02-3.2-19.32-17.54-33.03-32.03-30.63-14.49,2.4-23.63,20.01-20.43,39.32.93,5.59,2.79,10.71,5.32,15.11l46.98-7.79Z" fill="none" stroke="#000" stroke-linecap="round" stroke-linejoin="round"/><path id="uuid-5bbf3ad5-8387-495a-9b5b-59ec1ee29fe4" d="M276.63,274c4.72,9.87,13,16.43,22.43,16.43s17.71-6.55,22.43-16.43h-44.86Z" fill="none" stroke="#000" stroke-linecap="round" stroke-linejoin="round"/><ellipse id="uuid-0278dee0-3834-46ce-bad5-18007b44e871" cx="315.5" cy="251" rx="2.46" ry="4.03" transform="translate(-33.03 48.35) rotate(-8.33)" fill="none" stroke="#000" stroke-linecap="round" stroke-linejoin="round"/><ellipse id="uuid-50159c75-72e6-4215-a9c2-9a524b54dccc" cx="301.5" cy="253" rx="2.46" ry="4.03" transform="translate(-33.47 46.34) rotate(-8.33)" fill="none" stroke="#000" stroke-linecap="round" stroke-linejoin="round"/><path id="uuid-dd805bec-57e8-4d55-86b9-6edfb35a6534" d="M265.27,228.61c6.55-10.83,23.67-13.88,32.15-15.39,10.62-1.89,23.41-2.32,24.36.8.84,2.76-8.18,6.45-7.28,10.77.65,3.14,6.02,4.04,5.66,4.98-.77,2.01-24.3-3.65-27.99,1.75-1.66,2.43,1.82,5.43-.11,7.28-1.99,1.92-6.25-.76-15.23-.99-7.73-.2-11.13,1.62-12.98-.23-2.45-2.46.98-8.27,1.41-8.98Z" fill="none" stroke="#000" stroke-linecap="round" stroke-linejoin="round"/><rect id="uuid-18117975-3ebb-4bd3-adfd-287f73e3f568" x="349.47" y="280.4" width="28.36" height="13.29" transform="translate(-4.98 6.43) rotate(-1.01)" fill="none" stroke="#000" stroke-linecap="round" stroke-linejoin="round"/><rect id="uuid-7da720b3-3cc7-4c8d-b190-cc72a7785f7f" x="322" y="281" width="28" height="13" fill="none" stroke="#000" stroke-linecap="round" stroke-linejoin="round"/><rect id="uuid-3ae7ac39-a070-49dd-808d-91c3fd5de32f" x="252.26" y="285.82" width="28.36" height="13.29" transform="translate(-88.04 468.18) rotate(-74.03)" fill="none" stroke="#000" stroke-linecap="round" stroke-linejoin="round"/><rect id="uuid-b09cceae-1c07-4306-9897-6bb4bd018993" x="247.6" y="311.59" width="28.36" height="13.29" transform="translate(-79.2 549.61) rotate(-84.72)" fill="none" stroke="#000" stroke-linecap="round" stroke-linejoin="round"/><rect id="uuid-8ad2f328-bad2-45c8-841d-7f87a931817f" x="376.31" y="279.61" width="14.18" height="14.18" transform="translate(-4.97 6.77) rotate(-1.01)" fill="none" stroke="#000" stroke-linecap="round" stroke-linejoin="round"/><rect id="uuid-cc14678f-a584-4402-bfa5-a4cb94ec1f5c" x="252.83" y="331.22" width="14.18" height="14.18" transform="translate(-100.88 565.99) rotate(-84.72)" fill="none" stroke="#000" stroke-linecap="round" stroke-linejoin="round"/></g><text transform="translate(67.37 78.85)" fill="#333" font-family="ComicNeue-Regular, &apos;Comic Neue&apos;" font-size="24"><tspan x="0" y="0">There were protests, riots, violence.</tspan></text></svg>