<?xml version="1.0" encoding="UTF-8"?><svg id="uuid-b2d5a1ad-c500-47de-bedd-08755f707cc1" xmlns="http://www.w3.org/2000/svg" viewBox="0 0 500 500"><path d="M263.412042,166.638616c-.36953-.40674-.893584-.638616-1.446413-.638616h-19.40187c-.552832,0-1.079817.232055-1.449165.641548-.372282.409492-.552647.956638-.495459,1.506536l3.909408,39.093344c.097333.999532.939409,1.758573,1.944621,1.758573h11.726572c1.005215,0,1.847291-.764724,1.944624-1.767187l3.76625-39.090597c.05426-.549892-.126108-1.094113-.498569-1.503599Z" fill="#da4453"/><path d="M243.511023,194l1.33267,13.312797c.093383.958967.901284,1.687203,1.865701,1.687203h11.197464c.995593,0,1.828314-.756268,1.923897-1.747261l1.278256-13.252739h-17.597988Z" fill="#434a54"/><path d="M270.409035,144.65474c-.70838-3.303953-2.558578-6.562747-5.494374-9.688246-2.980959-3.170656-4.664124-6.874318-5.00689-11.0058-.257888-3.136923.391006-5.369784.396806-5.38393.206926-.680087.02557-1.416757-.470438-1.921109-.49583-.507254-1.229779-.699855-1.912766-.504352-6.371234,1.819187-11.222521,4.785998-14.416026,8.812474-2.193324,2.765687-3.624227,6.052774-4.273121,9.804314-.005623-.008523-.011243-.017048-.019767-.025571-.422198-.527022-1.093762-.796155-1.765323-.705477-.671564.090678-1.246826.52412-1.515958,1.147624-1.623685,3.734856-2.329342,7.395718-2.099746,10.88121.209649,3.179362,1.18444,6.143269,2.896081,8.815377,1.813565,2.824989,4.406238,5.213817,7.503442,6.911134,2.890278,1.583969,6.140368,2.490752,9.138191,2.550237.147264.005623.294704.005623.442145.005623,2.755713,0,5.986214-1.088139,8.865249-2.986759,3.099924-2.045884,5.536631-4.86253,6.862894-7.928544,1.220885-2.824815,1.512872-5.777298.869601-8.778204Z" fill="#f6bb42"/><path d="M259.896341,146.621152c-3.510882-4.162676-5.048239-8.29978-5.062385-8.336596-.221073-.612078-.733949-1.068371-1.365797-1.221255-.629125-.153065-1.294705.019768-1.768043.461914-3.907508,3.632752-6.528834,7.112438-7.801049,10.342762-1.150525,2.927094-1.23268,5.69278-.243742,8.214725.920929,2.349111,2.7996,4.445954,5.429269,6.06964,1.414036.87269,3.538992,1.844758,4.329704,1.847658h.0029c.229596,0,.459014-.042439.674464-.121871,2.489479-.926552,6.884474-4.074898,8.068914-8.580338.546792-2.082879.600655-5.282008-2.264233-8.676639Z" fill="#ffce54"/><path d="M266.067464,158h-27.134928c-1.06731,0-1.932536.865226-1.932536,1.932536v8.132028c0,1.068912.866524,1.935436,1.935436,1.935436h27.132028c1.06731,0,1.932536-.865226,1.932536-1.932536v-8.134928c0-1.06731-.865226-1.932536-1.932536-1.932536Z" fill="#ed5564"/><path d="M259.998443,160.932536c1.06837,0,1.935436-.864346,1.935436-1.932536h-3.867972c-.000177,1.068372.864166,1.932536,1.932536,1.932536Z" fill="#da4453"/><path d="M252.264135,160.932536c1.068007,0,1.935073-.864346,1.935073-1.932536h-3.867789c0,1.068372.864343,1.932536,1.932716,1.932536Z" fill="#da4453"/><path d="M244.531094,160.932536c1.065469,0,1.932536-.864346,1.932536-1.932536h-3.867972c0,1.068372.867064,1.932536,1.935436,1.932536Z" fill="#da4453"/><g id="uuid-84872e45-57fb-4f90-a10d-ce2082ca781b"><polygon id="uuid-d2cd1f9d-b6fd-4f44-bf28-9a20a19ffb8b" points="176.47262 359.949447 159.570782 354.450948 149.959463 383.995186 148.023934 389.944809 173.376692 398.192557 175.301166 392.276914 166.850247 389.527664 176.47262 359.949447" fill="#393939"/><rect id="uuid-f22862e5-5b7f-40df-95cf-ac5131463321" x="157.819445" y="327.180587" width="17.773763" height="34.65879" transform="translate(-8.924718 4.463128) rotate(-1.493871)" fill="#393939"/><polygon id="uuid-acd7a311-6472-4f83-bb53-435e817fd9be" points="199.526224 352.621942 217.29126 353.177054 216.319812 384.265916 225.202344 384.543472 225.008054 390.761245 198.360459 389.928575 198.555864 383.675088 198.555891 383.675089 199.526224 352.621942" fill="#393939"/><rect id="uuid-4bee85ca-6b9c-4529-9c48-fe273d776eb4" x="194.834569" y="324.124" width="17.773762" height="34.658782" transform="translate(-94.958821 78.997788) rotate(-17.872075)" fill="#393939"/><polygon id="uuid-2b14de47-8cd2-4c33-8843-59e5f77ded56" points="190.264704 289.262953 190.289694 289.369447 190.193052 289.371967 182.912189 255.355011 187.373526 247.663018 173.308993 248.029789 178.165173 255.478802 172.667165 289.829002 172.570524 289.831522 172.58993 289.72387 172.570524 289.831522 172.684135 289.828559 181.726912 300.981996 190.176083 289.37241 190.289694 289.369447 190.264704 289.262953" fill="#565656"/><path id="uuid-4c1f50ea-9028-4d38-989f-035036554220" d="M155.237789,240.500144l2.3167,88.83847,49.749543-1.297352-2.3167-88.83847-49.749543,1.297352ZM181.289431,284.205929l-18.694196-43.008661,35.121377-.915884-16.427181,43.924544Z" fill="#393939"/><path id="uuid-f43ce815-7958-42b8-8f2c-a4f5bbeb4d2f" d="M202.772175,218.096486c.555785-5.042994.215945-10.480674-1.174182-15.977763-4.80004-18.981168-20.231717-31.450072-34.467606-27.850039-14.235889,3.600033-21.885148,21.905745-17.085108,40.886912,1.390128,5.497089,3.676043,10.442637,6.562297,14.615194l46.164599-11.674303Z" fill="#cecece"/><path id="uuid-f1807bce-f797-43c6-a603-7f0f42173155" d="M157.693225,234.21319c4.97577,9.745734,13.422057,16.081231,22.85029,15.835365,9.428233-.245866,17.532834-7.012972,21.993895-17.004797l-44.844186,1.169432Z" fill="#cecece"/><path id="uuid-d00491a0-5f76-4b08-a0e4-b3239412b58b" d="M192.644206,209.985935c.709527,2.13641.324718,4.322325-.859495,4.882378-1.184212.560053-2.719391-.717838-3.428918-2.854248-.709527-2.13641-.324718-4.322325.859495-4.882378,1.184212-.560053,2.719391.717838,3.428918,2.854248Z" fill="#333"/><path id="uuid-4bbeac21-4cc9-468c-8f28-9c5f65237990" d="M177.644206,211.985935c.709527,2.13641.324718,4.322325-.859495,4.882378-1.184212.560053-2.719391-.717838-3.428918-2.854248s-.324718-4.322325.859495-4.882378c1.184212-.560053,2.719391.717838,3.428918,2.854248Z" fill="#333"/><path id="uuid-a3aa4082-7c71-498c-90bf-2496b2eec277" d="M142.742052,190.395531c5.628954-11.335891,22.434982-15.804228,30.758628-18.017284,10.422089-2.770992,23.136841-4.262619,24.343835-1.23499,1.069582,2.682945-7.617723,7.108202-6.361846,11.338459.913443,3.076823,6.336297,3.521705,6.052197,4.496026-.60264,2.066782-24.514941-1.612751-27.743679,4.075835-1.450612,2.555766,2.26549,5.255252.50001,7.266237-1.823953,2.077603-6.290153-.234431-15.255573.286665-7.715907.448471-10.959778,2.541776-12.952424.854318-2.650986-2.244953.289621-8.321706.658852-9.065267Z" fill="#4a4a4a"/><rect id="uuid-b1dcf04d-4705-40b1-964f-3d3de1c7e531" x="217.938991" y="214.346083" width="28.360305" height="13.293871" transform="translate(-84.796746 268.758379) rotate(-52.164461)" fill="#393939"/><rect id="uuid-1295e2e9-49cd-455b-846c-a426a6c2c510" x="198.900491" y="233.424807" width="28.360305" height="13.293871" transform="translate(-102.401613 180.837061) rotate(-37.77468)" fill="#393939"/><rect id="uuid-26f6f038-f0cc-4a31-85f8-5935b4e26144" x="134.748935" y="247.767663" width="28.360305" height="13.293871" transform="translate(-127.445814 151.830124) rotate(-39.292316)" fill="#393939"/><rect id="uuid-6472d4dc-fee6-41dc-82c1-bf7531278695" x="117.207178" y="266.214036" width="28.360305" height="13.293871" transform="translate(-165.815819 214.671384) rotate(-53.210529)" fill="#393939"/><rect id="uuid-fd7d3a19-e957-4d88-8ea4-2c4b3f333676" x="237.143114" y="198.305591" width="14.180155" height="14.180155" transform="translate(-67.795027 272.295766) rotate(-52.164461)" fill="#cecece"/><rect id="uuid-e55f5835-37ac-4e2a-ba4d-83a8ba7b8b15" x="112.221475" y="281.919107" width="14.180155" height="14.180155" transform="translate(-183.591856 211.478029) rotate(-53.210529)" fill="#cecece"/></g><g id="uuid-6d684574-0310-46a8-befd-09eae5eb37ac"><polygon id="uuid-cd93ff66-96db-43ea-bc69-423cc1c783d1" points="320 404 302 404 302 434.797912 302 441 329 441 329 435 320 435 320 404" fill="#393939"/><rect id="uuid-a719210a-657c-467c-9074-2bd0c5eb6765" x="302" y="369" width="18.000014" height="35" fill="#393939"/><polygon id="uuid-ad738cb3-8478-441c-89f0-7bffbbf735f3" points="294.999973 404 278 404 278 435 268 435 268 441 295 441 295 434.797912 294.999973 434.797912 294.999973 404" fill="#393939"/><rect id="uuid-abf12b94-347f-4a29-8b0b-d7cacc5d2b2c" x="276.999986" y="369" width="18.000027" height="35" fill="#393939"/><polygon id="uuid-73e8c600-a0f6-4fd1-a6fd-f5b0952e9687" points="307.807523 329.892297 307.829852 330 307.732641 330 301.305574 295.61509 305.991771 288 291.844403 288 296.5306 295.61509 290.103532 330 290.006322 330 290.02865 329.892297 290.006322 330 290.120602 330 298.918087 341.448545 307.715572 330 307.829852 330 307.807523 329.892297" fill="#565656"/><path id="uuid-1f2c0903-e5ac-4db0-9360-436bbcd1c5eb" d="M274,280v89h50v-89h-50ZM298.918087,324.48138l-17.566658-43.48138h35.133317l-17.566658,43.48138Z" fill="#393939"/><path id="uuid-f936eb3e-0e70-481e-bf31-f57162e322a4" d="M322.819625,261.397012c.974149-4.979129,1.088682-10.426214.161532-16.020035-3.201399-19.315179-17.540196-33.026822-32.026594-30.62577-14.486398,2.401051-23.634692,20.005566-20.433293,39.320746.927149,5.593821,2.792936,10.712678,5.321397,15.111266l46.976958-7.786206Z" fill="#cecece"/><path id="uuid-f242b157-71af-4174-a967-8e40bb091ccd" d="M276.633151,274c4.72002,9.872134,12.998277,16.425663,22.429716,16.425663s17.709696-6.553529,22.429716-16.425663h-44.859431Z" fill="#cecece"/><ellipse id="uuid-5812b011-b59c-4b5d-96e3-fc1cd2af5500" cx="315.5" cy="251" rx="2.456279" ry="4.026202" transform="translate(-33.031399 48.349774) rotate(-8.328997)" fill="#333"/><ellipse id="uuid-3ba79cf5-5c21-4224-8c4a-f085d041a668" cx="301.5" cy="253" rx="2.456279" ry="4.026202" transform="translate(-33.468776 46.342871) rotate(-8.328997)" fill="#333"/><path id="uuid-b6d13de2-00cf-415b-8052-ed1e9de5000a" d="M265.274409,228.611061c6.554134-10.827321,23.674097-13.879452,32.153226-15.391094,10.616772-1.892746,23.411604-2.319502,24.362068.798187.842257,2.762753-8.183637,6.448591-7.28469,10.768799.653835,3.142247,6.020745,4.037537,5.65643,4.984791-.772794,2.009366-24.295241-3.650281-27.986849,1.749422-1.65857,2.425976,1.819622,5.425781-.107317,7.28263-1.990761,1.918362-6.248732-.757854-15.226389-.985773-7.726439-.196154-11.133486,1.619515-12.978563-.228144-2.454663-2.458083.982167-8.268617,1.412084-8.978818Z" fill="#4a4a4a"/><rect id="uuid-d5e2d77a-6cbe-464d-9267-ed5832979008" x="349.472908" y="280.403672" width="28.360305" height="13.293871" transform="translate(-4.982024 6.426706) rotate(-1.005652)" fill="#393939"/><rect id="uuid-84039ddf-0549-469f-b2f7-1f11386af66c" x="322.000003" y="281" width="27.999993" height="13" fill="#393939"/><rect id="uuid-fe652219-b07a-4872-8deb-6ed028e1176a" x="252.260168" y="285.823182" width="28.360305" height="13.293871" transform="translate(-88.036755 468.183567) rotate(-74.033981)" fill="#393939"/><rect id="uuid-dfecee40-fabe-48c9-a0c7-6ad313a7a2e0" x="247.597509" y="311.585422" width="28.360305" height="13.293871" transform="translate(-79.197339 549.609596) rotate(-84.719165)" fill="#393939"/><rect id="uuid-fb941c88-1a6c-43cc-9402-63469a35d319" x="376.309055" y="279.613913" width="14.180155" height="14.180155" transform="translate(-4.972899 6.773217) rotate(-1.005652)" fill="#cecece"/><rect id="uuid-5b43e56e-09ee-40ca-a474-45671ccbb7e6" x="252.831734" y="331.220752" width="14.180155" height="14.180155" transform="translate(-100.87563 565.992123) rotate(-84.719165)" fill="#cecece"/></g><path d="M263.412042,166.638616c-.36953-.40674-.893584-.638616-1.446413-.638616h-19.40187c-.552832,0-1.079817.232055-1.449165.641548-.372282.409492-.552647.956638-.495459,1.506536l3.909408,39.093344c.097333.999532.939409,1.758573,1.944621,1.758573h11.726572c1.005215,0,1.847291-.764724,1.944624-1.767187l3.76625-39.090597c.05426-.549892-.126108-1.094113-.498569-1.503599Z" fill="none" stroke="#000" stroke-linecap="round" stroke-linejoin="round"/><path d="M243.511023,194l1.33267,13.312797c.093383.958967.901284,1.687203,1.865701,1.687203h11.197464c.995593,0,1.828314-.756268,1.923897-1.747261l1.278256-13.252739h-17.597988Z" fill="none" stroke="#000" stroke-linecap="round" stroke-linejoin="round"/><path d="M270.409035,144.65474c-.70838-3.303953-2.558578-6.562747-5.494374-9.688246-2.980959-3.170656-4.664124-6.874318-5.00689-11.0058-.257888-3.136923.391006-5.369784.396806-5.38393.206926-.680087.02557-1.416757-.470438-1.921109-.49583-.507254-1.229779-.699855-1.912766-.504352-6.371234,1.819187-11.222521,4.785998-14.416026,8.812474-2.193324,2.765687-3.624227,6.052774-4.273121,9.804314-.005623-.008523-.011243-.017048-.019767-.025571-.422198-.527022-1.093762-.796155-1.765323-.705477-.671564.090678-1.246826.52412-1.515958,1.147624-1.623685,3.734856-2.329342,7.395718-2.099746,10.88121.209649,3.179362,1.18444,6.143269,2.896081,8.815377,1.813565,2.824989,4.406238,5.213817,7.503442,6.911134,2.890278,1.583969,6.140368,2.490752,9.138191,2.550237.147264.005623.294704.005623.442145.005623,2.755713,0,5.986214-1.088139,8.865249-2.986759,3.099924-2.045884,5.536631-4.86253,6.862894-7.928544,1.220885-2.824815,1.512872-5.777298.869601-8.778204Z" fill="none" stroke="#000" stroke-linecap="round" stroke-linejoin="round"/><path d="M259.896341,146.621152c-3.510882-4.162676-5.048239-8.29978-5.062385-8.336596-.221073-.612078-.733949-1.068371-1.365797-1.221255-.629125-.153065-1.294705.019768-1.768043.461914-3.907508,3.632752-6.528834,7.112438-7.801049,10.342762-1.150525,2.927094-1.23268,5.69278-.243742,8.214725.920929,2.349111,2.7996,4.445954,5.429269,6.06964,1.414036.87269,3.538992,1.844758,4.329704,1.847658h.0029c.229596,0,.459014-.042439.674464-.121871,2.489479-.926552,6.884474-4.074898,8.068914-8.580338.546792-2.082879.600655-5.282008-2.264233-8.676639Z" fill="none" stroke="#000" stroke-linecap="round" stroke-linejoin="round"/><path d="M266.067464,158h-27.134928c-1.06731,0-1.932536.865226-1.932536,1.932536v8.132028c0,1.068912.866524,1.935436,1.935436,1.935436h27.132028c1.06731,0,1.932536-.865226,1.932536-1.932536v-8.134928c0-1.06731-.865226-1.932536-1.932536-1.932536Z" fill="none" stroke="#000" stroke-linecap="round" stroke-linejoin="round"/><path d="M259.998443,160.932536c1.06837,0,1.935436-.864346,1.935436-1.932536h-3.867972c-.000177,1.068372.864166,1.932536,1.932536,1.932536Z" fill="none" stroke="#000" stroke-linecap="round" stroke-linejoin="round"/><path d="M252.264135,160.932536c1.068007,0,1.935073-.864346,1.935073-1.932536h-3.867789c0,1.068372.864343,1.932536,1.932716,1.932536Z" fill="none" stroke="#000" stroke-linecap="round" stroke-linejoin="round"/><path d="M244.531094,160.932536c1.065469,0,1.932536-.864346,1.932536-1.932536h-3.867972c0,1.068372.867064,1.932536,1.935436,1.932536Z" fill="none" stroke="#000" stroke-linecap="round" stroke-linejoin="round"/><g id="uuid-3a693c09-89a6-47e2-9dc1-29070fae68e0"><polygon id="uuid-ce2980a0-bce3-474a-9ca3-8df482f05067" points="176.47262 359.949447 159.570782 354.450948 149.959463 383.995186 148.023934 389.944809 173.376692 398.192557 175.301166 392.276914 166.850247 389.527664 176.47262 359.949447" fill="none" stroke="#000" stroke-linecap="round" stroke-linejoin="round"/><rect id="uuid-2165b149-f792-4a36-85a8-b521b56f4ad6" x="157.819445" y="327.180587" width="17.773763" height="34.65879" transform="translate(-8.924718 4.463128) rotate(-1.493871)" fill="none" stroke="#000" stroke-linecap="round" stroke-linejoin="round"/><polygon id="uuid-bc8dfb06-ad53-4672-9476-4dd23aac5fb3" points="199.526224 352.621942 217.29126 353.177054 216.319812 384.265916 225.202344 384.543472 225.008054 390.761245 198.360459 389.928575 198.555864 383.675088 198.555891 383.675089 199.526224 352.621942" fill="none" stroke="#000" stroke-linecap="round" stroke-linejoin="round"/><rect id="uuid-25f58b0e-f5c3-4b1e-b5db-929a80406a34" x="194.834569" y="324.124" width="17.773762" height="34.658782" transform="translate(-94.958821 78.997788) rotate(-17.872075)" fill="none" stroke="#000" stroke-linecap="round" stroke-linejoin="round"/><polygon id="uuid-9005ecdb-8790-45eb-9a7b-5d9dc0192d24" points="190.264704 289.262953 190.289694 289.369447 190.193052 289.371967 182.912189 255.355011 187.373526 247.663018 173.308993 248.029789 178.165173 255.478802 172.667165 289.829002 172.570524 289.831522 172.58993 289.72387 172.570524 289.831522 172.684135 289.828559 181.726912 300.981996 190.176083 289.37241 190.289694 289.369447 190.264704 289.262953" fill="none" stroke="#000" stroke-linecap="round" stroke-linejoin="round"/><path id="uuid-45257d34-4863-4a83-9cac-e7237c52bbf8" d="M155.237789,240.500144l2.3167,88.83847,49.749543-1.297352-2.3167-88.83847-49.749543,1.297352ZM181.289431,284.205929l-18.694196-43.008661,35.121377-.915884-16.427181,43.924544Z" fill="none" stroke="#000" stroke-linecap="round" stroke-linejoin="round"/><path id="uuid-7936507d-7073-483c-a788-c088597e539e" d="M202.772175,218.096486c.555785-5.042994.215945-10.480674-1.174182-15.977763-4.80004-18.981168-20.231717-31.450072-34.467606-27.850039-14.235889,3.600033-21.885148,21.905745-17.085108,40.886912,1.390128,5.497089,3.676043,10.442637,6.562297,14.615194l46.164599-11.674303Z" fill="none" stroke="#000" stroke-linecap="round" stroke-linejoin="round"/><path id="uuid-5b554db3-5c77-4298-970e-1fbb9b49b065" d="M157.693225,234.21319c4.97577,9.745734,13.422057,16.081231,22.85029,15.835365,9.428233-.245866,17.532834-7.012972,21.993895-17.004797l-44.844186,1.169432Z" fill="none" stroke="#000" stroke-linecap="round" stroke-linejoin="round"/><path id="uuid-30bab26a-7bdd-478c-894a-331a64cd66ea" d="M192.644206,209.985935c.709527,2.13641.324718,4.322325-.859495,4.882378-1.184212.560053-2.719391-.717838-3.428918-2.854248-.709527-2.13641-.324718-4.322325.859495-4.882378,1.184212-.560053,2.719391.717838,3.428918,2.854248Z" fill="none" stroke="#000" stroke-linecap="round" stroke-linejoin="round"/><path id="uuid-cb8d5132-0d73-446d-9a2e-f16a951e6273" d="M177.644206,211.985935c.709527,2.13641.324718,4.322325-.859495,4.882378-1.184212.560053-2.719391-.717838-3.428918-2.854248s-.324718-4.322325.859495-4.882378c1.184212-.560053,2.719391.717838,3.428918,2.854248Z" fill="none" stroke="#000" stroke-linecap="round" stroke-linejoin="round"/><path id="uuid-9a71347b-2e15-4ae0-a14b-931224038a8c" d="M142.742052,190.395531c5.628954-11.335891,22.434982-15.804228,30.758628-18.017284,10.422089-2.770992,23.136841-4.262619,24.343835-1.23499,1.069582,2.682945-7.617723,7.108202-6.361846,11.338459.913443,3.076823,6.336297,3.521705,6.052197,4.496026-.60264,2.066782-24.514941-1.612751-27.743679,4.075835-1.450612,2.555766,2.26549,5.255252.50001,7.266237-1.823953,2.077603-6.290153-.234431-15.255573.286665-7.715907.448471-10.959778,2.541776-12.952424.854318-2.650986-2.244953.289621-8.321706.658852-9.065267Z" fill="none" stroke="#000" stroke-linecap="round" stroke-linejoin="round"/><rect id="uuid-dfc7d63b-aa55-4a29-9188-ab324cba4a2c" x="217.938991" y="214.346083" width="28.360305" height="13.293871" transform="translate(-84.796746 268.758379) rotate(-52.164461)" fill="none" stroke="#000" stroke-linecap="round" stroke-linejoin="round"/><rect id="uuid-f9aadf51-46e5-4cc6-a529-bdbb4133cdae" x="198.900491" y="233.424807" width="28.360305" height="13.293871" transform="translate(-102.401613 180.837061) rotate(-37.77468)" fill="none" stroke="#000" stroke-linecap="round" stroke-linejoin="round"/><rect id="uuid-acb9ce5b-555a-432c-a9d9-dd77ca22ee89" x="134.748935" y="247.767663" width="28.360305" height="13.293871" transform="translate(-127.445814 151.830124) rotate(-39.292316)" fill="none" stroke="#000" stroke-linecap="round" stroke-linejoin="round"/><rect id="uuid-c8707f4c-cb82-4b50-9131-cf7014700189" x="117.207178" y="266.214036" width="28.360305" height="13.293871" transform="translate(-165.815819 214.671384) rotate(-53.210529)" fill="none" stroke="#000" stroke-linecap="round" stroke-linejoin="round"/><rect id="uuid-aaa4c62f-f184-465d-83f6-fe318c078dff" x="237.143114" y="198.305591" width="14.180155" height="14.180155" transform="translate(-67.795027 272.295766) rotate(-52.164461)" fill="none" stroke="#000" stroke-linecap="round" stroke-linejoin="round"/><rect id="uuid-8e49f5ce-566e-4640-b3fb-b4e0a075c7d8" x="112.221475" y="281.919107" width="14.180155" height="14.180155" transform="translate(-183.591856 211.478029) rotate(-53.210529)" fill="none" stroke="#000" stroke-linecap="round" stroke-linejoin="round"/><polygon id="uuid-5411ca97-7970-4199-bb1e-6117dcda8b9c" points="176.47262 359.949447 159.570782 354.450948 149.959463 383.995186 148.023934 389.944809 173.376692 398.192557 175.301166 392.276914 166.850247 389.527664 176.47262 359.949447" fill="none" stroke="#000" stroke-linecap="round" stroke-linejoin="round"/><rect id="uuid-c9027540-326f-45c0-bd53-1b45ae0eda1d" x="157.819445" y="327.180587" width="17.773763" height="34.65879" transform="translate(-8.924718 4.463128) rotate(-1.493871)" fill="none" stroke="#000" stroke-linecap="round" stroke-linejoin="round"/><polygon id="uuid-46065ff9-2e4f-4afe-b4cf-8fe15eb99548" points="199.526224 352.621942 217.29126 353.177054 216.319812 384.265916 225.202344 384.543472 225.008054 390.761245 198.360459 389.928575 198.555864 383.675088 198.555891 383.675089 199.526224 352.621942" fill="none" stroke="#000" stroke-linecap="round" stroke-linejoin="round"/><rect id="uuid-8d2a91a0-ac0a-434e-9df9-31705eb05043" x="194.834569" y="324.124" width="17.773762" height="34.658782" transform="translate(-94.958821 78.997788) rotate(-17.872075)" fill="none" stroke="#000" stroke-linecap="round" stroke-linejoin="round"/><polygon id="uuid-b56354f1-5427-4bc2-a0ff-1bb4fbba1ae7" points="190.264704 289.262953 190.289694 289.369447 190.193052 289.371967 182.912189 255.355011 187.373526 247.663018 173.308993 248.029789 178.165173 255.478802 172.667165 289.829002 172.570524 289.831522 172.58993 289.72387 172.570524 289.831522 172.684135 289.828559 181.726912 300.981996 190.176083 289.37241 190.289694 289.369447 190.264704 289.262953" fill="none" stroke="#000" stroke-linecap="round" stroke-linejoin="round"/><path id="uuid-ce2908c9-4920-4439-b989-31c8ab01721d" d="M155.237789,240.500144l2.3167,88.83847,49.749543-1.297352-2.3167-88.83847-49.749543,1.297352ZM181.289431,284.205929l-18.694196-43.008661,35.121377-.915884-16.427181,43.924544Z" fill="none" stroke="#000" stroke-linecap="round" stroke-linejoin="round"/><path id="uuid-3f113b55-2d9a-4017-9364-ec515ad5bd54" d="M202.772175,218.096486c.555785-5.042994.215945-10.480674-1.174182-15.977763-4.80004-18.981168-20.231717-31.450072-34.467606-27.850039-14.235889,3.600033-21.885148,21.905745-17.085108,40.886912,1.390128,5.497089,3.676043,10.442637,6.562297,14.615194l46.164599-11.674303Z" fill="none" stroke="#000" stroke-linecap="round" stroke-linejoin="round"/><path id="uuid-e669e4da-6db7-4480-bb7a-341b4aa02b9f" d="M157.693225,234.21319c4.97577,9.745734,13.422057,16.081231,22.85029,15.835365,9.428233-.245866,17.532834-7.012972,21.993895-17.004797l-44.844186,1.169432Z" fill="none" stroke="#000" stroke-linecap="round" stroke-linejoin="round"/><path id="uuid-b8364801-e479-44c7-9565-0eb42b4f77b0" d="M192.644206,209.985935c.709527,2.13641.324718,4.322325-.859495,4.882378-1.184212.560053-2.719391-.717838-3.428918-2.854248-.709527-2.13641-.324718-4.322325.859495-4.882378,1.184212-.560053,2.719391.717838,3.428918,2.854248Z" fill="none" stroke="#000" stroke-linecap="round" stroke-linejoin="round"/><path id="uuid-9010e71f-629a-4c90-be7f-20a9d0805799" d="M177.644206,211.985935c.709527,2.13641.324718,4.322325-.859495,4.882378-1.184212.560053-2.719391-.717838-3.428918-2.854248s-.324718-4.322325.859495-4.882378c1.184212-.560053,2.719391.717838,3.428918,2.854248Z" fill="none" stroke="#000" stroke-linecap="round" stroke-linejoin="round"/><path id="uuid-3792ccf5-3f25-47f3-8e86-24b701a30d66" d="M142.742052,190.395531c5.628954-11.335891,22.434982-15.804228,30.758628-18.017284,10.422089-2.770992,23.136841-4.262619,24.343835-1.23499,1.069582,2.682945-7.617723,7.108202-6.361846,11.338459.913443,3.076823,6.336297,3.521705,6.052197,4.496026-.60264,2.066782-24.514941-1.612751-27.743679,4.075835-1.450612,2.555766,2.26549,5.255252.50001,7.266237-1.823953,2.077603-6.290153-.234431-15.255573.286665-7.715907.448471-10.959778,2.541776-12.952424.854318-2.650986-2.244953.289621-8.321706.658852-9.065267Z" fill="none" stroke="#000" stroke-linecap="round" stroke-linejoin="round"/><rect id="uuid-bc563ea0-cfd2-4416-b329-758a6a3a2d0a" x="217.938991" y="214.346083" width="28.360305" height="13.293871" transform="translate(-84.796746 268.758379) rotate(-52.164461)" fill="none" stroke="#000" stroke-linecap="round" stroke-linejoin="round"/><rect id="uuid-02e2407b-2e0a-4145-9058-2517692c2e64" x="198.900491" y="233.424807" width="28.360305" height="13.293871" transform="translate(-102.401613 180.837061) rotate(-37.77468)" fill="none" stroke="#000" stroke-linecap="round" stroke-linejoin="round"/><rect id="uuid-45f0fd01-5cf6-4dfb-b03c-183cf6dfb89a" x="134.748935" y="247.767663" width="28.360305" height="13.293871" transform="translate(-127.445814 151.830124) rotate(-39.292316)" fill="none" stroke="#000" stroke-linecap="round" stroke-linejoin="round"/><rect id="uuid-e13f06d9-6129-4931-ad03-38f4b7e941f5" x="117.207178" y="266.214036" width="28.360305" height="13.293871" transform="translate(-165.815819 214.671384) rotate(-53.210529)" fill="none" stroke="#000" stroke-linecap="round" stroke-linejoin="round"/><rect id="uuid-31a55b4a-cbab-4556-b519-297554d1af86" x="237.143114" y="198.305591" width="14.180155" height="14.180155" transform="translate(-67.795027 272.295766) rotate(-52.164461)" fill="none" stroke="#000" stroke-linecap="round" stroke-linejoin="round"/><rect id="uuid-9af2d259-27c6-4dc4-9a3d-fee326621b85" x="112.221475" y="281.919107" width="14.180155" height="14.180155" transform="translate(-183.591856 211.478029) rotate(-53.210529)" fill="none" stroke="#000" stroke-linecap="round" stroke-linejoin="round"/></g><g id="uuid-7543f385-fc7f-4d55-a330-4486dcb00a76"><polygon id="uuid-4b335d4b-e122-4f81-8301-6809f2cb1bab" points="320 404 302 404 302 434.797912 302 441 329 441 329 435 320 435 320 404" fill="none" stroke="#000" stroke-linecap="round" stroke-linejoin="round"/><rect id="uuid-5d5337ba-dd10-4dc5-94b9-53064eedbf38" x="302" y="369" width="18.000014" height="35" fill="none" stroke="#000" stroke-linecap="round" stroke-linejoin="round"/><polygon id="uuid-a877ce94-f0da-4841-b6da-354207e00bc9" points="294.999973 404 278 404 278 435 268 435 268 441 295 441 295 434.797912 294.999973 434.797912 294.999973 404" fill="none" stroke="#000" stroke-linecap="round" stroke-linejoin="round"/><rect id="uuid-a48af125-28dc-4a7c-8f85-a55635f86cdb" x="276.999986" y="369" width="18.000027" height="35" fill="none" stroke="#000" stroke-linecap="round" stroke-linejoin="round"/><polygon id="uuid-407baee9-a422-46d4-8a57-0dd12f1accf4" points="307.807523 329.892297 307.829852 330 307.732641 330 301.305574 295.61509 305.991771 288 291.844403 288 296.5306 295.61509 290.103532 330 290.006322 330 290.02865 329.892297 290.006322 330 290.120602 330 298.918087 341.448545 307.715572 330 307.829852 330 307.807523 329.892297" fill="none" stroke="#000" stroke-linecap="round" stroke-linejoin="round"/><path id="uuid-196e6f97-c21e-44e2-8efb-5656dcafc694" d="M274,280v89h50v-89h-50ZM298.918087,324.48138l-17.566658-43.48138h35.133317l-17.566658,43.48138Z" fill="none" stroke="#000" stroke-linecap="round" stroke-linejoin="round"/><path id="uuid-ff58d9d1-443a-47ff-ad9a-f0708d613c95" d="M322.819625,261.397012c.974149-4.979129,1.088682-10.426214.161532-16.020035-3.201399-19.315179-17.540196-33.026822-32.026594-30.62577-14.486398,2.401051-23.634692,20.005566-20.433293,39.320746.927149,5.593821,2.792936,10.712678,5.321397,15.111266l46.976958-7.786206Z" fill="none" stroke="#000" stroke-linecap="round" stroke-linejoin="round"/><path id="uuid-8527d2a1-42c0-4c2a-98f2-6e0eb3c42060" d="M276.633151,274c4.72002,9.872134,12.998277,16.425663,22.429716,16.425663s17.709696-6.553529,22.429716-16.425663h-44.859431Z" fill="none" stroke="#000" stroke-linecap="round" stroke-linejoin="round"/><ellipse id="uuid-01a23213-6c4e-4b40-abeb-b4df0303248b" cx="315.5" cy="251" rx="2.456279" ry="4.026202" transform="translate(-33.031399 48.349774) rotate(-8.328997)" fill="none" stroke="#000" stroke-linecap="round" stroke-linejoin="round"/><ellipse id="uuid-a6dfe001-db9e-4edb-9f65-3aa6b0caecb2" cx="301.5" cy="253" rx="2.456279" ry="4.026202" transform="translate(-33.468776 46.342871) rotate(-8.328997)" fill="none" stroke="#000" stroke-linecap="round" stroke-linejoin="round"/><path id="uuid-eebf3971-8634-4bd2-8936-0c8e2163ef81" d="M265.274409,228.611061c6.554134-10.827321,23.674097-13.879452,32.153226-15.391094,10.616772-1.892746,23.411604-2.319502,24.362068.798187.842257,2.762753-8.183637,6.448591-7.28469,10.768799.653835,3.142247,6.020745,4.037537,5.65643,4.984791-.772794,2.009366-24.295241-3.650281-27.986849,1.749422-1.65857,2.425976,1.819622,5.425781-.107317,7.28263-1.990761,1.918362-6.248732-.757854-15.226389-.985773-7.726439-.196154-11.133486,1.619515-12.978563-.228144-2.454663-2.458083.982167-8.268617,1.412084-8.978818Z" fill="none" stroke="#000" stroke-linecap="round" stroke-linejoin="round"/><rect id="uuid-d91124bf-3c95-4546-9c52-56d75ce32834" x="349.472908" y="280.403672" width="28.360305" height="13.293871" transform="translate(-4.982024 6.426706) rotate(-1.005652)" fill="none" stroke="#000" stroke-linecap="round" stroke-linejoin="round"/><rect id="uuid-8ae33a17-0e56-484b-927f-44400bf94551" x="322.000003" y="281" width="27.999993" height="13" fill="none" stroke="#000" stroke-linecap="round" stroke-linejoin="round"/><rect id="uuid-df141027-8eb3-42d7-ade3-e4fadb80625b" x="252.260168" y="285.823182" width="28.360305" height="13.293871" transform="translate(-88.036755 468.183567) rotate(-74.033981)" fill="none" stroke="#000" stroke-linecap="round" stroke-linejoin="round"/><rect id="uuid-bbccd9b0-4375-47ca-a965-f445d32fd590" x="247.597509" y="311.585422" width="28.360305" height="13.293871" transform="translate(-79.197339 549.609596) rotate(-84.719165)" fill="none" stroke="#000" stroke-linecap="round" stroke-linejoin="round"/><rect id="uuid-c42c8251-b73f-4934-9fb2-cd7385044838" x="376.309055" y="279.613913" width="14.180155" height="14.180155" transform="translate(-4.972899 6.773217) rotate(-1.005652)" fill="none" stroke="#000" stroke-linecap="round" stroke-linejoin="round"/><rect id="uuid-13bd7169-d451-40c3-b4e0-64e6903a0447" x="252.831734" y="331.220752" width="14.180155" height="14.180155" transform="translate(-100.87563 565.992123) rotate(-84.719165)" fill="none" stroke="#000" stroke-linecap="round" stroke-linejoin="round"/><polygon id="uuid-9ec60bc0-8050-4353-ae5e-ff3f84b9f71d" points="320 404 302 404 302 434.797912 302 441 329 441 329 435 320 435 320 404" fill="none" stroke="#000" stroke-linecap="round" stroke-linejoin="round"/><rect id="uuid-93ad6805-d56f-4a3e-8495-930c291184b4" x="302" y="369" width="18.000014" height="35" fill="none" stroke="#000" stroke-linecap="round" stroke-linejoin="round"/><polygon id="uuid-30c84375-5a1a-4290-adb6-5deb4a94ce09" points="294.999973 404 278 404 278 435 268 435 268 441 295 441 295 434.797912 294.999973 434.797912 294.999973 404" fill="none" stroke="#000" stroke-linecap="round" stroke-linejoin="round"/><rect id="uuid-9bc949e6-ae7d-4056-b1e8-35dc0ac99dca" x="276.999986" y="369" width="18.000027" height="35" fill="none" stroke="#000" stroke-linecap="round" stroke-linejoin="round"/><polygon id="uuid-5267e08a-a3c1-4537-ac43-20a67fa6b422" points="307.807523 329.892297 307.829852 330 307.732641 330 301.305574 295.61509 305.991771 288 291.844403 288 296.5306 295.61509 290.103532 330 290.006322 330 290.02865 329.892297 290.006322 330 290.120602 330 298.918087 341.448545 307.715572 330 307.829852 330 307.807523 329.892297" fill="none" stroke="#000" stroke-linecap="round" stroke-linejoin="round"/><path id="uuid-d704112c-7174-4789-a2f2-1d41dfc9aad6" d="M274,280v89h50v-89h-50ZM298.918087,324.48138l-17.566658-43.48138h35.133317l-17.566658,43.48138Z" fill="none" stroke="#000" stroke-linecap="round" stroke-linejoin="round"/><path id="uuid-941292ca-4e4f-462d-a1e3-45f0feb4fd03" d="M322.819625,261.397012c.974149-4.979129,1.088682-10.426214.161532-16.020035-3.201399-19.315179-17.540196-33.026822-32.026594-30.62577-14.486398,2.401051-23.634692,20.005566-20.433293,39.320746.927149,5.593821,2.792936,10.712678,5.321397,15.111266l46.976958-7.786206Z" fill="none" stroke="#000" stroke-linecap="round" stroke-linejoin="round"/><path id="uuid-3baa03e1-6863-4719-bc34-f1cca4b3779e" d="M276.633151,274c4.72002,9.872134,12.998277,16.425663,22.429716,16.425663s17.709696-6.553529,22.429716-16.425663h-44.859431Z" fill="none" stroke="#000" stroke-linecap="round" stroke-linejoin="round"/><ellipse id="uuid-64e608ac-56a0-4496-ac59-2de016cc37f4" cx="315.5" cy="251" rx="2.456279" ry="4.026202" transform="translate(-33.031399 48.349774) rotate(-8.328997)" fill="none" stroke="#000" stroke-linecap="round" stroke-linejoin="round"/><ellipse id="uuid-b9e3a9af-f0f8-463d-ae2f-91aae526844a" cx="301.5" cy="253" rx="2.456279" ry="4.026202" transform="translate(-33.468776 46.342871) rotate(-8.328997)" fill="none" stroke="#000" stroke-linecap="round" stroke-linejoin="round"/><path id="uuid-be70fc0a-81f0-4313-8af7-e1419c6f550e" d="M265.274409,228.611061c6.554134-10.827321,23.674097-13.879452,32.153226-15.391094,10.616772-1.892746,23.411604-2.319502,24.362068.798187.842257,2.762753-8.183637,6.448591-7.28469,10.768799.653835,3.142247,6.020745,4.037537,5.65643,4.984791-.772794,2.009366-24.295241-3.650281-27.986849,1.749422-1.65857,2.425976,1.819622,5.425781-.107317,7.28263-1.990761,1.918362-6.248732-.757854-15.226389-.985773-7.726439-.196154-11.133486,1.619515-12.978563-.228144-2.454663-2.458083.982167-8.268617,1.412084-8.978818Z" fill="none" stroke="#000" stroke-linecap="round" stroke-linejoin="round"/><rect id="uuid-5cb409d2-40c0-446e-b827-137bd2cf770c" x="349.472908" y="280.403672" width="28.360305" height="13.293871" transform="translate(-4.982024 6.426706) rotate(-1.005652)" fill="none" stroke="#000" stroke-linecap="round" stroke-linejoin="round"/><rect id="uuid-8475641a-cf3e-4ef1-b874-a33c3f2da95e" x="322.000003" y="281" width="27.999993" height="13" fill="none" stroke="#000" stroke-linecap="round" stroke-linejoin="round"/><rect id="uuid-8fb1d20c-4e43-4aeb-a290-5ca668d883ec" x="252.260168" y="285.823182" width="28.360305" height="13.293871" transform="translate(-88.036755 468.183567) rotate(-74.033981)" fill="none" stroke="#000" stroke-linecap="round" stroke-linejoin="round"/><rect id="uuid-d73f5728-d94c-4678-ac3e-d053342f409a" x="247.597509" y="311.585422" width="28.360305" height="13.293871" transform="translate(-79.197339 549.609596) rotate(-84.719165)" fill="none" stroke="#000" stroke-linecap="round" stroke-linejoin="round"/><rect id="uuid-637335ab-73ce-4ae1-9cb8-af4ec0c649eb" x="376.309055" y="279.613913" width="14.180155" height="14.180155" transform="translate(-4.972899 6.773217) rotate(-1.005652)" fill="none" stroke="#000" stroke-linecap="round" stroke-linejoin="round"/><rect id="uuid-5fc12164-68d9-4606-a305-3b34bef91866" x="252.831734" y="331.220752" width="14.180155" height="14.180155" transform="translate(-100.87563 565.992123) rotate(-84.719165)" fill="none" stroke="#000" stroke-linecap="round" stroke-linejoin="round"/></g><text transform="translate(67.371277 78.851257)" fill="#333" font-family="ComicNeue-Regular, &apos;Comic Neue&apos;" font-size="24"><tspan x="0" y="0">There were protests, riots, violence.</tspan></text></svg>