<?xml version="1.0" encoding="UTF-8"?><svg id="uuid-7b1b4b43-9662-417a-b4fd-9a845af8b22e" xmlns="http://www.w3.org/2000/svg" viewBox="0 0 500 500"><path d="M74.38,123.94s39.85,28.67,63.93,90.33c24.07,61.67,33.74,98.24,33.74,98.24l169.33-38.27s-12.98-87.11-41.99-121.21c-29.01-34.1-72.44-71.77-72.44-71.77l-152.57,42.67Z" fill="#fff" stroke="#938c8c" stroke-miterlimit="10" stroke-width="5.67"/><path d="M129.32,141.27s20.98-1.17,21.78-2c.79-.83,2.08-3,2.08-3l6.88-4.67s10.48-2.5,15.66-4.33c5.17-1.83,10.64-3.17,12.41-4,1.77-.83,4.47-4.17,6.12-4,1.65.17,10.41-3.5,11.03-4.67.62-1.17,6.91-4,6.91-4,0,0,1.05,1.17,2.88,0,1.83-1.17,10.58-4,10.58-4" fill="#fff" stroke="#938c8c" stroke-miterlimit="10" stroke-width="5.67"/><path d="M133.53,160.6s16.77-.5,17.56-1.33c.79-.83,6.78-5.63,8.28-6.23,1.51-.6,6.69-4.27,10.6-6.43,3.91-2.17,13.7-4.5,15.8-5.33,2.11-.83,17.66-2.83,18.38-3.33s11.64-3.5,12.68-4,11.31-6,11.31-6l6.02-2" fill="#fff" stroke="#938c8c" stroke-miterlimit="10" stroke-width="5.67"/><path d="M140.06,170.6c1.82-.17,15.91,1.17,17.37,0,1.46-1.17,2.62-1.97,2.62-1.97,0,0,1.82-2.53,5.33-3.37,3.51-.83,10.33-4.5,13.42-4.67,3.09-.17,7.23,1.17,11.66-3,4.43-4.17-7.57-4.17,11.43-9.17s23.75-7.17,23.75-7.17l8.54-5.67" fill="#fff" stroke="#938c8c" stroke-miterlimit="10" stroke-width="5.67"/><polygon points="221.39 151.27 248.69 200.27 292.88 182.44 260.75 133.27 221.39 151.27" fill="#fff" stroke="#938c8c" stroke-miterlimit="10" stroke-width="5.67"/><path d="M152.16,184.8l5.27,10.8s2.79,5.17,2.62,6c-.17.83.72,2.83,2.78,5.33,2.06,2.5,6.61,1.5,5.33,3-1.27,1.5,1.27,2.5,0,5l-1.27,2.5,3.09,3.61.52,3.89" fill="#fff" stroke="#938c8c" stroke-miterlimit="10"/><path d="M165.49,182.94s4.05,7.83,2.78,9.67l-1.27,1.83s2.22,6.33,3.61,7.17l1.39.83s1.67.87,1.83,2.43,1.99,3.57,5.08,9.07c3.09,5.5,6.88,6.5,6.98,9s1.57,2.5,2.34,6l.77,3.5v1.56" fill="#fff" stroke="#938c8c" stroke-miterlimit="10" stroke-width="5.67"/><path d="M177.47,176.73l6.38,15.54s-.18-.5,1.93,2.33c2.11,2.83,6.8,10.27,6.8,10.27,0,0,2.97,2.57,3.14,3.57s4.04,5.33,3.6,7.17l-.44,1.83" fill="#fff" stroke="#938c8c" stroke-miterlimit="10" stroke-width="5.67"/><path d="M193,173h6.32s4.32-2.85,5.94-4.05c1.62-1.2,6.75-2.37,6.75-2.37l4.83-3.33" fill="#fff" stroke="#938c8c" stroke-miterlimit="10" stroke-width="5.67"/><path d="M199,183h3.05s5.83-4.5,7.83-4.5,10.55-4,10.28-3.5.28-.5.28-.5" fill="#fff" stroke="#938c8c" stroke-miterlimit="10" stroke-width="5.67"/><path d="M74.38,123.94s39.85,28.67,63.93,90.33c24.07,61.67,33.74,98.24,33.74,98.24l169.33-38.27s-12.98-87.11-41.99-121.21c-29.01-34.1-72.44-71.77-72.44-71.77l-152.57,42.67Z" fill="none" stroke="#000" stroke-linecap="round" stroke-linejoin="round"/><path d="M129.32,141.27s20.98-1.17,21.78-2c.79-.83,2.08-3,2.08-3l6.88-4.67s10.48-2.5,15.66-4.33c5.17-1.83,10.64-3.17,12.41-4,1.77-.83,4.47-4.17,6.12-4,1.65.17,10.41-3.5,11.03-4.67.62-1.17,6.91-4,6.91-4,0,0,1.05,1.17,2.88,0,1.83-1.17,10.58-4,10.58-4" fill="none" stroke="#000" stroke-linecap="round" stroke-linejoin="round"/><path d="M133.53,160.6s16.77-.5,17.56-1.33c.79-.83,6.78-5.63,8.28-6.23,1.51-.6,6.69-4.27,10.6-6.43,3.91-2.17,13.7-4.5,15.8-5.33,2.11-.83,17.66-2.83,18.38-3.33s11.64-3.5,12.68-4,11.31-6,11.31-6l6.02-2" fill="none" stroke="#000" stroke-linecap="round" stroke-linejoin="round"/><path d="M140.06,170.6c1.82-.17,15.91,1.17,17.37,0,1.46-1.17,2.62-1.97,2.62-1.97,0,0,1.82-2.53,5.33-3.37,3.51-.83,10.33-4.5,13.42-4.67,3.09-.17,7.23,1.17,11.66-3,4.43-4.17-7.57-4.17,11.43-9.17s23.75-7.17,23.75-7.17l8.54-5.67" fill="none" stroke="#000" stroke-linecap="round" stroke-linejoin="round"/><polygon points="221.39 151.27 248.69 200.27 292.88 182.44 260.75 133.27 221.39 151.27" fill="none" stroke="#000" stroke-linecap="round" stroke-linejoin="round"/><path d="M152.16,184.8l5.27,10.8s2.79,5.17,2.62,6c-.17.83.72,2.83,2.78,5.33,2.06,2.5,6.61,1.5,5.33,3-1.27,1.5,1.27,2.5,0,5l-1.27,2.5,3.09,3.61.52,3.89" fill="none" stroke="#000" stroke-linecap="round" stroke-linejoin="round"/><path d="M165.49,182.94s4.05,7.83,2.78,9.67l-1.27,1.83s2.22,6.33,3.61,7.17l1.39.83s1.67.87,1.83,2.43,1.99,3.57,5.08,9.07c3.09,5.5,6.88,6.5,6.98,9s1.57,2.5,2.34,6l.77,3.5v1.56" fill="none" stroke="#000" stroke-linecap="round" stroke-linejoin="round"/><path d="M177.47,176.73l6.38,15.54s-.18-.5,1.93,2.33c2.11,2.83,6.8,10.27,6.8,10.27,0,0,2.97,2.57,3.14,3.57s4.04,5.33,3.6,7.17l-.44,1.83" fill="none" stroke="#000" stroke-linecap="round" stroke-linejoin="round"/><path d="M193,173h6.32s4.32-2.85,5.94-4.05c1.62-1.2,6.75-2.37,6.75-2.37l4.83-3.33" fill="none" stroke="#000" stroke-linecap="round" stroke-linejoin="round"/><path d="M199,183h3.05s5.83-4.5,7.83-4.5,10.55-4,10.28-3.5.28-.5.28-.5" fill="none" stroke="#000" stroke-linecap="round" stroke-linejoin="round"/><text transform="translate(81.49 405.56)" fill="#333" font-family="ComicNeue-Regular, &apos;Comic Neue&apos;" font-size="24"><tspan x="0" y="0">Especially in Québec, people did </tspan><tspan x="0" y="28.8">not want to fight oversea.</tspan></text><path d="M303.03,148.53c-9.1-10.56-21.53-13.27-21.48-32.35-6.29,9.75-6.34,23.18-2.58,29.9,3.76,6.72,11.58,29.49,5.48,35.31-6.11,5.82-13.45-8.16-12.62-18.1.83-9.94-3.64-16.94-3.64-16.94,0,0,2.36,10.17-.73,18.66-3.09,8.49-1.18,17.42,3.39,28.62,4.57,11.2-2.1,28.57-10.48,30.73-8.38,2.16-15.76-10.06-16.27-23.19-.51-13.13-1.88-27.26-5.82-34.47-3.94-7.2-4.76-13.64-4.27-21.2-4.22,6.44-6.62,8.86-4.85,18.42,1.77,9.56-.2,21.27-4.44,27.03-4.24,5.76-10.2,10.89-10.2,24.21s.49,22.32-7.15,20.54c-7.63-1.77-11.24-13.66-9.68-22.69-4.45.21-7.33,11.25-5.4,26.3,1.92,15.04-2.14,26.15-8.63,28.71-6.5,2.56-12.54-1.62-14.88,11.11-2.34,12.72-9.83,37.16-15.34,29.28-5.51-7.88-3.54-17.47-1.92-27.5,1.61-10.04-1.16-15.26-1.16-15.26,0,0-.24,10.22-4.59,22.38-4.35,12.16-4.69,37.48-1.83,47.1,2.86,9.62,8.13,14.86,8.13,14.86h164.96v-164.78c0-15.91-4.87-26.13-13.97-36.69Z" fill="#ff7b07"/><polygon points="359.27 281.72 350.35 281.33 343.68 241.06 331.92 191 296.61 191 281.4 224.22 268.95 227.89 262.56 215.89 249.61 213.22 245.56 191 222.44 204.02 210.27 245.93 178.35 259.46 159.29 295.7 145.33 303.76 133 348.98 133 350 379.3 350 359.27 281.72" fill="#603330"/><polygon points="137 266.02 148.57 251 158 251 158 273 170 273 170 232 180 232 180 283.91 185.31 287.81 187.7 298.58 191.12 302.89 197 327.5 197 342 137 342 137 266.02" fill="#291612"/><polygon points="202 319 195.59 319 192.65 325.68 189.72 333 179.89 333 174.87 327.24 171.43 315.59 160.59 311.18 155.3 288.65 137.84 282 127 282 127 329.5 121.46 332.8 119.35 350 202 350 202 319" fill="#351d19"/><path d="M141.66,293.6c-1.64,1.6-1.68,1.63-2.52,1.79.58-1,1.4-1.46,2.52-1.79Z" fill="#452a25"/><path d="M139.14,295.39s-.02.02-.03.04c0,0-.01,0-.02.01,0-.02,0-.03,0-.04.02,0,.03,0,.05,0Z" fill="#452a25"/><path d="M128.21,304.62c-.07.13-.14.25-.21.38v-.28s.07-.07.1-.11c.02-.02.07,0,.11.01Z" fill="#452a25"/><path d="M146.03,350h-.01c-.12-1.46-.35-2.9-.81-4.24-.6-1.75-.85-3.65-1.34-5.43-.51-1.85.41-3.86-.5-5.61.63-.85-.08-.99-.42-1.06-1.23-.25-1.8-1.23-2.35-2.59-.65-1.62-1.93-2.6-3.12-3.59-.13-.11-.3-.13-.46-.08-1.37.44-2.57-.25-3.76-.92-.62-.35-1.22-.88-1.86-1-.73-.14-1.39-.55-1.87-1.11s-.98-.87-1.51-.98v-.74c.77.12,1.48.5,2.11,1.35.3.4.82.68,1.34.81.63.16,1.23.47,1.8.86,1.13.78,2.29,1.13,3.57.89.41-.08.85-.11,1.2.22,1.28,1.2,2.76,2.07,3.59,3.96.5,1.13,2.37,2.05,3.35,1.77.77-.22,1.02-.74,1.1-1.85.1-1.51.28-3.01.43-4.52.75-2.28.94-4.71,1.19-7.13.05-.48.05-1.26-.02-1.74-.23-1.62-.58-3.22-1.14-4.68-.54-1.4-.87-2.77-.94-4.34-.09-2.34.08-4.55,1.11-6.55.35-.7.51-1.47.7-2.26.28-1.14,0-2.35.39-3.44.64-2.36.67-4.63-.56-6.74-.1-.17-.12-.43-.18-.64-.27-.73-.63-1-1.17-.36-.73,1.43-1.32,3.01-2.61,3.83,1.03-1.18,1.37-2.96,2.31-4.21.23-.45.45-.87.13-1.44-.25-.44-.16-.98-.18-1.51,0-.06.01-.12.01-.18l.71.27c-.02.46.06.89.37,1.23.53.59.61,1.23.72,1.96.65.25.64,1.13.82,1.7.64,2.08.95,4.24-.25,6.24.13,2.19-.13,4.21-1,6.2-1.35,3.09-1.39,6.34-.15,9.56.14.37.27.74.39,1.12.24.76.42,1.55.71,2.28.29.74.05,1.62.63,2.36.4.51-.57,1.25-.4,2.07.03.16.03.36,0,.53-.28,1.29.14,2.68-.43,3.94-.69,1.53-.66,3.26-.66,4.95,0,.88.01,1.76.02,2.64,1.33.49,2.65,1.09,4,.09.18-.14.43-.12.65-.17,2.22-1.57,4.41-3.24,6.84-4.28.96-.41,1.85-.99,2.72-1.64,2.2-1.64,4.67-2.28,7.04-3.26.47-.52,1.06-.34,1.59-.35,1.2-.03,2.43-.05,3.5-.77.14-.1.29-.16.44-.25l.17.57c-.13.07-.27.12-.4.21-.81.52-1.74.7-2.68.72-.87.02-1.73.16-2.6.25-2.92,1.3-5.89,2.41-8.59,4.43-1.26.95-2.69,1.43-3.97,2.35-1.15.83-2.2,1.88-3.45,2.46-.73.71-1.53,1.24-2.4,1.59-.48.19-.86.43-1.31-.26-.27-.41-.98-.65-1.17.45-.07.43-.32.38-.63.36-1.13-.07-1.3.15-1.33,1.45-.01.47.01.95-.15,1.38-.39,1.02-.36,2.14-.02,3.06.43,1.17.63,2.42.92,3.62.5,2.04,1.28,4,1.24,6.2h-1.37Z" fill="#452a25"/><path d="M127.55,304.59s-.03.02-.04.04c0,0-.02,0-.02,0,0,0,0-.01,0-.02.02,0,.03-.01.05-.01Z" fill="#452a25"/><path d="M127.55,304.59c.72-.93,1.73-1.11,2.61-1.63-.72.93-1.62,1.42-2.61,1.63Z" fill="#452a25"/><path d="M134.92,299.25c.27-.43.52-.64.84-.63-.16.39-.37.69-.84.63Z" fill="#452a25"/><path d="M148.73,346.16c.08-.24.26-.55.5-.32.2.18.15.53.03.79-.12.27-.33.38-.64.43-.12-.41.03-.66.11-.89Z" fill="#452a25"/><path d="M194.18,332.68c1.5.07,2.96-.3,4.45-.72-1.34,1.6-2.91.99-4.45.72Z" fill="#452a25"/><path d="M147.51,348.72c.13.43.14.85.11,1.28h-.19c0-.43.1-.86.08-1.28Z" fill="#452a25"/><path d="M135.77,298.62s.01-.02.02-.03c.01,0,.03,0,.04,0,0,0-.01.01-.02.02-.01,0-.02,0-.03,0Z" fill="#452a25"/><path d="M138.97,296.03c-.83.87-1.59,1.85-2.53,2.51-.19.13-.41.13-.62.06,1.04-1.14,2.06-2.3,3.27-3.16.05.22.02.44-.12.59Z" fill="#452a25"/><path d="M199.75,332.05c-.3.16-.53.09-.58-.44.79-.4,1.59-.8,2.38-1.2.09-.57.24-1.14.26-1.72.02-.56.08-1.08.19-1.58v5.31c-.1-.5-.16-1.03-.15-1.59-.7.4-1.4.82-2.11,1.2Z" fill="#452a25"/><polygon points="281 253.38 296.93 213.39 306.21 216.36 314.44 231.28 320.56 226.15 324.41 229.49 325.99 236.18 339.12 238.88 349.45 230.83 356.62 232.55 374.28 258 281 258 281 253.38" fill="#291612"/><polygon points="245 348.3 254.12 339.07 273.15 338.42 284.08 327.56 289.93 309.72 292.28 310.59 295.43 316.24 307.31 313 326.41 313.22 337.76 321.32 351.01 302.08 357.72 287.67 362.89 288.48 364.26 317.99 381.64 326.65 388.01 341.46 398.94 344.83 401.43 350 245 350 245 348.3" fill="#291612"/><path d="M383.75,332.69s.35,5.66-4.03,8.36c-4.38,2.7-6.13-4.03-6.48-9.38-.35-5.35-2.62-1.33-6.48-4.76-3.85-3.43,3.15-10.82,3.15-10.82,0,0-9.8-.22-12.85,5.78-3.05,6-6.4,2.9-11.66,1.99-5.25-.92-4.9-7.77-2.2-13.73,2.7-5.96,1.32-15.2-1.83-15.15-1.23,7.4-4.55,5.96-7.99,12.76-3.44,6.79-7.24,7.46-8.47,15.85-1.22,8.39-4.55,10.32-12.04,8.67-7.49-1.65-3.71-5.03-1.14-12.24,2.57-7.21,0-13.31,0-13.31,0,0-4.85,4.92-9.26,10.67-4.41,5.74-7.49,16.08-14.85,15.52-7.35-.56-5.95-13.69,0-26.19,5.95-12.5,9.1-25.81,6.47-28.92-2.28,7.13-9.27,9.79-15.22,11.7-5.95,1.91-7.35,15.35-13.94,16.13s-8.12-18.93-6.49-25.73c-5.19,6.98-7.92,14.82-8.88,23.34-.96,8.52.26,14.19-5,19.97-5.25,5.78-11.76,14.96-5.54,26.8h147.86c4.56-9.29-3.16-17.31-3.16-17.31Z" fill="#ff7b07"/><path d="M309,249v-17h-52.41l-21.14,15.44-14.36-7.58-19.26,12.03-28.37,4.46-10.51,16.04-5.96,3.15v74.45h116v-63h24v63h12v-82h59v82h9v-82h12v-19h-80ZM188,324h-17v-19h17v19ZM188,301h-17v-4h17v4ZM212,324h-22v-19h22v19ZM212,301h-22v-4h22v4ZM235,324h-22v-19h22v19ZM235,301h-22v-4h22v4ZM254,324h-17v-19h17v19ZM254,301h-17v-4h17v4Z" fill="#351d19"/><polygon points="344.34 334.63 334.71 331.51 331.91 324.17 319.83 321.27 317.03 307.69 306 302.12 306 350 353.09 350 344.34 334.63" fill="#351d19"/><path d="M158,288.63c.13.13.29.1.54-.25.08-.11.26-.22.37-.18,1.23.42,2.34-.33,3.49-.58,1.01-.21,2-.44,3.03-.3.44.06.88.2,1.08.67.89,2.05,2.5,3.3,3.47,5.22.62,1.22,1.31,2.36,1.67,3.78h.66c-.13-.59-.33-1.16-.6-1.75-1.01-2.22-2.33-4.08-3.69-5.92-.66-.89-.75-2.24-.23-3.26,1.2-2.36,2.45-4.62,4.66-5.62.17-.07.31-.26.44-.43.53-.7,1.14-.83,1.89-.69,1.1.2,2.21.13,3.24-.54.25-.16.53-.29.8-.13.61.36,1.09.17,1.67-.27.83-.64,1.43-.23,1.78,1.01.19.69.5,1.33.99,1.64.85.53,1.26,1.49,1.75,2.4.81,1.19,1.52,2.43,2,3.93.5,1.56,1.42,2.73,2.86,3.03.39.08.85.16,1.13.61.46.74.96.54,1.53.27.77-.35,1.55-.84,2.41-.35.87.49,1.8.52,2.71.64,1.38.17,2.74.33,4.02,1.16.81.52,1.76.7,2.7.72.88.02,1.75.16,2.62.25,2.36,1.04,4.75,1.97,7.01,3.33v-.02h.74c-.13-.09-.27-.16-.39-.26-2.27-1.77-4.85-2.42-7.33-3.43-.48-.52-1.07-.34-1.61-.35-1.21-.03-2.45-.05-3.53-.77-1.15-.77-2.35-1.02-3.6-1.18-1.2-.15-2.41-.19-3.56-.77-.24-.12-.61-.14-.85-.03-1.3.56-2.44.36-3.77-.3-1.44-.71-2.37-1.7-2.88-3.46-.39-1.35-1.03-2.49-1.93-3.37-.43-1.03-.85-2.05-1.05-3.22-.11-.63-.3-1.26-.7-1.75-.56-.69-.67-1.43-.2-2.32.3-.55.35-1.18-.25-1.96.11,1.57-.6,2.63-.5,3.98-.63-.06-1.08-.66-1.58-.36-1.44.88-3.07.45-4.52,1.15-.86.42-1.66-.36-2.46-.04-.66.27-.98-.08-1.28-.67.09,1.22-.3,2.05-1.26,2.46-.3.13-.57.38-.87.55-.86.51-1.59,1.17-1.99,2.32-.4,1.17-1.36,1.74-1.9,2.76-.18.33-.48.33-.75.32-1.88-.08-3.65.55-5.45,1.12-.82.26-1.68.46-2.52.18v1.02Z" fill="#452a25"/><path d="M172.27,278.02c-.02-.27-.04-.56-.08-1.18-.1.67-.25,1.01.08,1.18Z" fill="#452a25"/><path d="M172.28,278.09s.03-.04.03-.04c-.02,0-.02-.02-.04-.03,0,.02,0,.05,0,.07Z" fill="#452a25"/><path d="M172.28,278.09s.02.04.03.06c0-.04,0-.06,0-.1l-.03.04Z" fill="#452a25"/><path d="M253.89,346.77c.24-.71.25-1.45.12-2.2-.64.67,0,1.47-.12,2.2Z" fill="#452a25"/><path d="M254.01,344.58s0-.01.02-.02c0-.01-.01-.02-.01-.04,0,0,0,.01,0,.02,0,.02,0,.03,0,.05Z" fill="#452a25"/><path d="M235,299.12v1.25c.59-.69,1.28-1.27,1.96-1.83.01,0,.03,0,.04-.01v-.91c-.19.02-.38.09-.55.25-.47.44-.97.83-1.45,1.25Z" fill="#452a25"/><path d="M231.65,304.53c1.25-.25,1.82-1.24,2.38-2.62.13-.33.31-.62.49-.91h-1.23c-.1.18-.2.37-.29.57-.5,1.14-2.4,2.08-3.39,1.8-.78-.22-1.04-.75-1.11-1.87-.01-.17-.03-.33-.04-.49h-.89c0,.55,0,1.1-.01,1.65-1.34.49-2.68,1.11-4.06.09-.18-.14-.44-.12-.66-.17-.74-.52-1.48-1.05-2.22-1.57h-1.28c.93.73,1.83,1.53,2.87,2.01.74.72,1.55,1.26,2.44,1.61.48.19.87.43,1.33-.27.27-.41.99-.66,1.18.45.02.09.04.14.07.2h3.76c.02-.33.44-.42.68-.47Z" fill="#452a25"/><path d="M366.52,262.55c-.16-1.98-1.7-3.31-1.46-5.42-.88-.43-.26-.96.02-1.21,1.04-.91,1.23-2.13,1.26-3.68.03-1.16.36-2.22.8-3.24h-.89c-.48,1.07-.89,2.18-.96,3.5-.07,1.31-1.47,3.2-2.46,3.49-.78.23-1.19-.11-1.64-1.09-.61-1.33-1.29-2.6-1.95-3.9-.53-.61-1-1.29-1.43-2h-.92c.17.32.37.62.64.86,1.16,1.02,1.72,2.62,2.31,4.18.3.8.59,1.62.89,2.43-1.05,1.18-2.05,2.47-3.64,2.31-.21-.02-.44.13-.66.21-2.67-.21-5.33-.54-8.01-.08-.85.15-1.71.11-2.56,0-2.66-.36-5.22.46-7.82.9-.61-.22-1.08.28-1.58.56-1.11.64-2.25,1.3-3.47,1.24-1.31-.07-2.49.36-3.67.9-1.14.52-2.25,1.16-3.49,1.25-.26.02-.61.22-.8.45-.99,1.23-2.09,1.67-3.53,1.8-1.56.14-2.73-.25-3.81-1.58-.82-1.02-1.79-1.72-2.91-2.03-.71-.68-1.41-1.34-1.98-2.24-.34-.54-.72-1.1-1.29-1.34-.77-.32-1.14-.94-1.01-2.03.08-.67-.09-1.27-.9-1.66.64,1.38.36,2.74.91,3.92-.59.29-1.21-.01-1.56.55-1,1.6-2.64,2.11-3.71,3.55-.64.86-1.64.58-2.25,1.32-.5.61-.92.46-1.39.09.5,1.07.43,2.04-.3,2.95-.23.29-.39.66-.6.98-.61.94-1.04,1.95-1.01,3.23.04,1.29-.64,2.34-.78,3.58-.05.4-.32.57-.58.71-1.73.96-3.13,2.52-4.57,4.03-.81.85-1.7,1.66-2.86,1.64-.05.15-.09.29-.14.44.23.02.53-.06.68.09.38.37.65.6.84-.2.03-.15.16-.34.27-.37,1.26-.29,2.01-1.59,2.98-2.45.89-.79,1.77-1.6,2.83-2.03.37-.15.81-.1,1.12.17,1.49,1.32,3.36,1.6,4.87,2.8,1.31,1.04,2.7,1.87,3.56,3.84.42.95.79,1.88,1.05,2.84v-2.27c-.15-.25-.3-.49-.41-.77-.47-1.13-1.08-1.98-1.93-2.73-1.68-1.47-3.52-2.45-5.39-3.4-.9-.46-1.45-1.64-1.33-2.86.28-2.83.64-5.58,2.3-7.71.13-.16.19-.41.25-.63.24-.93.75-1.39,1.48-1.68,1.06-.42,2.05-1.09,2.76-2.27.17-.29.38-.56.68-.56.68,0,1.05-.44,1.42-1.16.54-1.04,1.23-1,1.97-.05.41.52.91.94,1.46.96.95.02,1.66.67,2.42,1.23,1.14.64,2.21,1.39,3.16,2.5.99,1.16,2.23,1.72,3.63,1.2.39-.14.83-.32,1.23-.06.67.43,1.05-.04,1.48-.6.51-.67,1-1.43,1.77-1.61s1.6-.33,2.34-.66c1.54-.68,3.01-1.51,4.7-1.45.92.03,1.83-.33,2.7-.83.8-.46,1.64-.82,2.47-1.22,3.12-.43,6.23-1.07,9.39-.71,1.48.17,2.95-.18,4.44-.05,1.33.12,2.66.5,4.01.34.91.25,1.83.29,2.75.12.5-.09.93-.08,1.11-.97.11-.52.68-1.14,1.22-.24.22.36.42.17.7-.03,1.01-.69,1.24-.59,1.72.59.17.43.31.87.61,1.18.71.72,1.06,1.77,1.07,2.79,0,1.32.26,2.56.4,3.83.04.33.07.66.1,1h1.43c-.08-1.84-.46-3.63-.61-5.45Z" fill="#452a25"/><path d="M228.47,341.38c-.26.02-.41.15-.37.43.05.43.38.47.62.59.18.09.32-.1.26-.41-.07-.38-.2-.66-.51-.61Z" fill="#452a25"/><path d="M255.85,342.47c.15-.07.52-.33.24-.82-.55.17-.91.75-1.37,1.09-.34.26-.62.34-.98-.02-1.28-1.29-2.84-2.07-3.96-3.66-.26-.37-.59-.73-1-.86-.56-.39-1.08-.93-1.68-1.14-1.01-.35-1.68-1.03-2.18-2.19-.37-.85-.89-1.61-1.71-1.86.9,1.3,1.44,3.02,2.61,3.95.91.72,1.95,1.19,2.93,1.77,1.09,1.4,2.26,2.68,3.63,3.61.73.5,1.38,1.1,1.64,2.17.47-.88,1-1.67,1.83-2.05Z" fill="#452a25"/><path d="M221.19,345.57c.04.42.17.79.4.69.3-.13.49-.52.47-.98-.01-.25-.12-.44-.34-.43-.42.02-.54.35-.52.72Z" fill="#452a25"/><path d="M308.47,290.16c-.45-.9-1.03-.73-1.53-.61-.98.25-1.97.31-2.96.48-.1.07-.12.16-.07.29,1.52.56,2.96-.58,4.56-.17Z" fill="#452a25"/><path d="M377,273.49s-.06.02-.08.02c-2.5.8-4.89,1.96-7.18,3.46-.1.07-.15.27-.22.41-.07.07-.14.15-.22.21-1.02.87-.98.84-1.3-.75,0,0,0,0,0,0v3.33c.16-.2.31-.41.47-.61.83-1,1.8-1.83,2.7-2.74,1.88-.99,3.73-2.13,5.82-2.85v-.49Z" fill="#452a25"/><path d="M374.47,291.22c-.23.16-.32.36-.19.59.19.36.51.22.75.19.19-.02.26-.26.1-.51-.19-.31-.4-.49-.66-.27Z" fill="#452a25"/><path d="M303.99,290.03c-.52-.24-.92.16-1.66.34.76.39,1.16-.15,1.59-.04-.05-.13-.03-.22.07-.29Z" fill="#452a25"/><path d="M369.91,299.4c.22-.28.27-.74.09-1.14-.1-.22-.25-.33-.46-.2-.37.25-.37.61-.23.94.17.36.42.61.59.41Z" fill="#452a25"/><path d="M302.31,264.8c-.11-.23-.23-.49-.47-1.02.13.66.12,1.05.47,1.02Z" fill="#452a25"/><path d="M302.34,264.86s.02-.05.02-.05c-.02,0-.03,0-.05,0,0,.02.02.04.03.06Z" fill="#452a25"/><path d="M302.34,264.86s.03.02.05.04c-.01-.03-.02-.06-.03-.09l-.02.05Z" fill="#452a25"/><path d="M302.21,350c2.21-1.07,4.47-1.99,6.79-2.68v-.69s-.04.03-.08.04c-.9.1-1.8.21-2.61.73-1.69,1.08-3.55,1.68-5.3,2.61h1.2Z" fill="#452a25"/><path d="M309,307.73v-.35c-.06-.12-.12-.23-.18-.35.05.24.11.47.18.7Z" fill="#452a25"/><path d="M308.19,290.46c.27.23.55.39.81.57v-.43c-.23-.05-.47-.24-.81-.14Z" fill="#452a25"/><path d="M238.04,327.8c-.32-.58-.61-.63-.84-.69-2.56-.65-5.14-.92-7.74-.82-.11,0-.23.17-.34.26-.09.02-.18.06-.27.07-1.2.22-1.18.22-.95-1.26.07-.45.14-.9.21-1.35h-1.54c0,.28.02.56.05.83.16,1.49-.45,2.31-1.32,2.98-.31.24-.66.4-.98.65-.74.58-1.65,1-2.17,1.82-.84,1.33-1.94,1.84-3.08,2.48-1.31.73-2.79,1.16-3.69,2.78-.64,1.15-1.51,2.04-2.4,2.87-.51.48-.89,1.13-.95,1.97-.81,1.01-1.8,1.83-2.23,3.25-.47,1.55-.44,1.56-1.71,1.49-1.04-.06-2.04.15-2.96.82,1.09-.14,2.15-.42,3.25-.21.83.16.89.23.67,1.33-.14.71-.56,1.39-.18,2.24.25-1.01.51-1.94.72-2.88.42-1.93.95-3.77,2.29-5.01.17-.16.27-.46.4-.69,2.23-4.13,5.15-6.98,9.01-8.11.44.88.11,1.84.28,3.02.14-.96.13-1.61.16-2.23.05-1.03.3-1.85.91-2.42,1.45-1.35,3.07-2.32,4.76-3.02,1.1-.45,2.27-.67,3.4-1,2.35.15,4.72.07,7.22.84Z" fill="#452a25"/><path d="M168.08,302.9c-.97-.31-1.89-.8-2.83-1.19-.11,0-.17.08-.16.22,1.18,1.34,2.87,1.09,4.17,2.34-.1-1.05-.69-1.23-1.18-1.38Z" fill="#452a25"/><path d="M165.18,343.43c.5.22,1.09.06,1.64.08.46.02.95-.09,1.37.09,1.5.66,3.07.67,4.6,1.05,2.07.47,4.13.94,6.2,1.43.9.21,1.79.54,2.7.7,1,.18,1.69-1,2.63-1.15.26-.04.52-.23.77-.38.16-.1.29-.25.26-.58-.86.09-1.61.61-2.37,1.04-.65.37-1.42.44-2.14.25-2.29-.62-4.59-1.16-6.89-1.73-.58-.18-1.19-.2-1.77-.25-1.47-.13-2.87-.75-4.32-.94-1.32-.17-2.66-.01-3.95-.58-.51-.23-1.07-.04-1.43.33-1.42,1.46-3.16,2.29-4.48,3.96v.82c1.13-1.35,2.38-2.49,3.81-3.37,1.11-.69,2.1-1.32,3.38-.76Z" fill="#452a25"/><path d="M253.89,348.22c-.17.65-.24,1.23-.24,1.78h.4c-.06-.55-.1-1.14-.16-1.78Z" fill="#452a25"/><path d="M162.16,339.59c.03.95.35,1.1.87,1.22.83.19.81.29.79-.79-.6.47-1.12.3-1.66-.43Z" fill="#452a25"/><path d="M165.25,301.71c-.39-.5-.88-.36-1.61-.61.56.76,1.09.5,1.45.83,0-.14.05-.22.16-.23Z" fill="#452a25"/><path d="M262.23,295.57c-.35-.78,0-1.5-.46-2.12-.02.52-.1.94-.04,1.32.27,1.71-.31,3.1-.97,4.46-.5,1.03-.88,1.15-1.49.28-.8-1.15-1.82-1.75-2.87-2.32-1.32-.72-2.56-1.55-3.41-3.12-.23-.43-.51-.84-.94-.99-.44-.47-.93-1.13-.67-1.77.4-1,.16-1.83-.1-2.67-.24-.79-.01-1.5.29-1.99,1.3-2.12,2.87-3.67,5.15-3.58.85.04,1.71.07,2.52-.41-.1-.11-.2-.21-.3-.32-.87,0-1.74.03-2.61.19-.77.14-1.55.27-2.31-.09.05-.57-.35-.78-.57-1.12-.74-1.14-1.85-1.76-2.59-2.83-1.25-1.79-3.14-2.29-4.45-3.9-.02-.02-.07,0-.11.01.49,1.02,1.16,1.74,2.03,2.21.54.29,1.14.53,1.53,1.14,1.19,1.87,2.9,3,4.16,4.77,0,.36-.2.57-.41.61-1.63.32-2.13,2.17-2.88,3.6-.34.64-.42,1.58-.05,2.36.19.41.02.75.02,1.12,0,1.2-.79,1.57-1.25,2.31-.45.73-.84.84-1.5.72-1.3-.23-2.54-.05-3.55,1.31-.31.41-.83.69-1.37.82-.62.15-1.21.46-1.77.85-.33.23-.67.41-1.01.56h1.43c.47-.31.93-.64,1.42-.74.74-.15,1.41-.57,1.91-1.14.91-1.04,1.88-1.24,3-.74.66.29,1.21.16,1.7-.59.57-.87,1.29-1.02,2.07-.41,1.45,2.48,3.41,4,5.65,5.01.52.23.94.64,1.32,1.21.5.76,1.07,1.43,1.54,2.53.35-1.89,1.3-3.15,1.76-4.73.53-1.84,1.93-2.97,3.49-2.92.03-.44-.38-.63-.35-.98-1.05.52-1.98,1.41-2.98,2.08Z" fill="#452a25"/><path d="M164.45,320.06c-.39,2.67.2,5.16.92,7.62-.82.18-1.43-.58-2.25-.37,1.17.84,1.51.96,2.97.97-1.13-2.67-1.34-5.46-1.64-8.23Z" fill="#452a25"/><path d="M312.21,251.32c-.39.4-.53.97-.74,1.53.18.05.26.08.35.1.26.09.52.18.78.26-.02-.4.31-.87-.16-1.21-.1-.07-.09-.41-.12-.63.3-.38.61-.75,1.08-1.34-.76.23-1.08.62-1.19,1.29Z" fill="#452a25"/><path d="M246.25,274.86c-.72-.93-1.73-1.11-2.61-1.63.72.93,1.62,1.42,2.61,1.63Z" fill="#452a25"/><path d="M265.56,294.76l.02-.03s-.02,0-.02,0c0,.01,0,.02,0,.03Z" fill="#452a25"/><path d="M246.25,274.86s.03.02.04.04c0,0,.02,0,.02,0,0,0,0-.01,0-.02-.02,0-.03-.01-.05-.01Z" fill="#452a25"/><path d="M170,307.58v-.74c-.39.2-.27.84-.46,1.21.21-.11.35-.28.46-.47Z" fill="#452a25"/><path d="M237.97,268.87s.01.01.02.02c.01,0,.02,0,.03,0,0-.01-.01-.02-.02-.03-.01,0-.03,0-.04,0Z" fill="#452a25"/><path d="M238.03,268.89c.16.39.37.69.84.63-.27-.43-.52-.64-.84-.63Z" fill="#452a25"/><path d="M208.58,249.56c2.39.74,4.81,1.34,7.23,1.99.76.2,1.42-.09,2.04-.63,2.62.01,5.24.32,7.85-.26.35-.08.69.1.88.48.5,1.01,1.19,1.92,1.43,3.1.19.92.54,2.08-.1,2.8-.53.59-.61,1.23-.72,1.96-.65.25-.64,1.13-.82,1.69-.64,2.08-.95,4.24.25,6.24-.13,2.19.13,4.21,1,6.2,1.35,3.09,1.39,6.34.15,9.56-.14.37-.27.74-.39,1.12-.24.76-.42,1.55-.71,2.28-.29.74-.05,1.62-.63,2.36-.4.51.57,1.25.4,2.07-.03.16-.03.36,0,.53.28,1.29-.14,2.68.43,3.94.29.64.45,1.32.54,2.01h.62s0-.05,0-.08c-.76-2.31-.94-4.78-1.2-7.23-.04-.42-.04-1.11.02-1.53.23-1.66.58-3.29,1.15-4.79.54-1.4.87-2.77.94-4.34.09-2.34-.08-4.55-1.11-6.55-.35-.7-.51-1.47-.7-2.26-.28-1.14,0-2.35-.39-3.44-.64-2.36-.67-4.63.56-6.74.1-.17.12-.43.18-.64.27-.73.63-1,1.17-.36.73,1.43,1.32,3.01,2.61,3.83-1.03-1.18-1.37-2.96-2.31-4.21-.23-.45-.45-.87-.13-1.44.25-.44.16-.98.18-1.51.05-1.54-.58-2.72-1.17-3.91-.43-.86-.54-1.92-.32-2.9.4-1.77.8-3.52,1.45-5.14l-.81-.43c-.63,1.52-1.02,3.18-1.41,4.81-.29,1.25-.75,1.92-1.74,2.02-.32.03-.63.13-.95.18-2.05.37-4.11.11-6.17.29-.86.13-1.7.44-2.57.21-2.28-.6-4.56-1.19-6.82-1.84-.28-.08-.56-.14-.84-.21l-.57.35c.5.11,1,.24,1.51.4Z" fill="#452a25"/><path d="M234.66,265.66s.02.02.03.04c0,0,.01,0,.02.01,0-.02,0-.03,0-.04-.02,0-.03,0-.05,0Z" fill="#452a25"/><path d="M232.14,263.87c1.64,1.6,1.68,1.63,2.52,1.79-.58-1-1.4-1.46-2.52-1.79Z" fill="#452a25"/><path d="M187.27,270.75c-.76-.2-1.18-.03-1.51.52-.48.15-.8.58-1.18.97.14.14.21.21.28.28.21.22.41.44.61.67.12-.38.57-.62.26-1.18-.07-.12.06-.42.1-.63.4-.17.8-.35,1.43-.62Z" fill="#452a25"/><path d="M170,305.94v-.65c-.17-.18-.33-.44-.64-.52.21.44.45.8.64,1.17Z" fill="#452a25"/><path d="M174.17,302.12c.3.16.53.09.58-.44-.45-.23-.9-.45-1.35-.68h-1.18c.65.38,1.3.76,1.95,1.12Z" fill="#452a25"/><path d="M234.82,266.3c.83.87,1.59,1.85,2.53,2.51.19.13.41.13.62.06-1.04-1.14-2.06-2.3-3.27-3.16-.05.22-.02.44.12.59Z" fill="#452a25"/><path d="M175.17,302.23c1.34,1.6,2.91.99,4.45.72-1.5.07-2.96-.3-4.45-.72Z" fill="#452a25"/><path d="M172.07,301h-.57c-.05,1.4-.28,2.73-.88,4h.46c.54-1.23.99-2.5.98-4Z" fill="#452a25"/><path d="M285.12,142.95s-.19-.07-.45-.23c-.13-.08-.3-.17-.46-.3-.17-.11-.35-.29-.54-.41-.19-.11-.38-.22-.56-.34-.18-.13-.37-.27-.56-.41-.21-.16-.39-.32-.59-.52-.22-.19-.41-.42-.62-.64-.2-.25-.42-.54-.6-.83-.19-.26-.36-.65-.51-.98-.15-.34-.28-.68-.35-1.05-.08-.37-.13-.71-.16-1.03-.05-.31.02-.63.04-.89.02-.26.07-.49.11-.68.08-.37.17-.57.17-.57,0,0,.18.12.43.32.12.1.27.22.41.35.15.13.28.29.47.42.18.13.35.27.51.42.15.16.35.29.53.45.18.16.33.32.54.52.2.19.37.39.57.62.2.25.4.5.58.77.19.27.37.61.52.91.16.29.29.65.4,1.01.11.35.19.69.25,1,.05.3.02.57.02.82,0,.24-.03.47-.04.66-.04.37-.09.61-.09.61Z" fill="#ffc454"/><path d="M147.05,156.26s-.19-.07-.45-.23c-.13-.08-.3-.17-.46-.3-.17-.11-.35-.29-.54-.41-.19-.11-.38-.22-.56-.34-.18-.13-.37-.27-.56-.41-.21-.16-.39-.32-.59-.52-.22-.19-.41-.42-.62-.64-.2-.25-.42-.54-.6-.83-.19-.26-.36-.65-.51-.98-.15-.34-.28-.68-.35-1.05-.08-.37-.13-.71-.16-1.03-.05-.31.02-.63.04-.89.02-.26.07-.49.11-.68.08-.37.17-.57.17-.57,0,0,.18.12.43.32.12.1.27.22.41.35.15.13.28.29.47.42.18.13.35.27.51.42.15.16.35.29.53.45.18.16.33.32.54.52.2.19.37.39.57.62.2.25.4.5.58.77.19.27.37.61.52.91.16.29.29.65.4,1.01.11.35.19.69.25,1,.05.3.02.57.02.82,0,.24-.03.47-.04.66-.04.37-.09.61-.09.61Z" fill="#ffc454"/><path d="M103.87,224.94s-.19-.07-.45-.23c-.13-.08-.3-.17-.46-.3-.17-.11-.35-.29-.54-.41-.19-.11-.38-.22-.56-.34-.18-.13-.37-.27-.56-.41-.21-.16-.39-.32-.59-.52-.22-.19-.41-.42-.62-.64-.2-.25-.42-.54-.6-.83-.19-.26-.36-.65-.51-.98-.15-.34-.28-.68-.35-1.05-.08-.37-.13-.71-.16-1.03-.05-.31.02-.63.04-.89.02-.26.07-.49.11-.68.08-.37.17-.57.17-.57,0,0,.18.12.43.32.12.1.27.22.41.35.15.13.28.29.47.42.18.13.35.27.51.42.15.16.35.29.53.45.18.16.33.32.54.52.2.19.37.39.57.62.2.25.4.5.58.77.19.27.37.61.52.91.16.29.29.65.4,1.01.11.35.19.69.25,1,.05.3.02.57.02.82,0,.24-.03.47-.04.66-.04.37-.09.61-.09.61Z" fill="#ffc454"/><path d="M273.63,45.51s-.19-.07-.45-.23c-.13-.08-.3-.17-.46-.3-.17-.11-.35-.29-.54-.41-.19-.11-.38-.22-.56-.34-.18-.13-.37-.27-.56-.41-.21-.16-.39-.32-.59-.52-.22-.19-.41-.42-.62-.64-.2-.25-.42-.54-.6-.83-.19-.26-.36-.65-.51-.98-.15-.34-.28-.68-.35-1.05-.08-.37-.13-.71-.16-1.03-.05-.31.02-.63.04-.89.02-.26.07-.49.11-.68.08-.37.17-.57.17-.57,0,0,.18.12.43.32.12.1.27.22.41.36.15.13.28.29.47.42.18.13.35.27.51.42.15.16.35.29.53.45.18.16.33.32.54.52.2.19.37.39.57.62.2.25.4.5.58.77.19.27.37.61.52.91.16.29.29.65.4,1.01.11.35.19.69.25,1,.05.3.02.57.02.82,0,.24-.03.47-.04.66-.04.37-.09.61-.09.61Z" fill="#ffc454"/><path d="M135.56,58.82s-.19-.07-.45-.23c-.13-.08-.3-.17-.46-.3-.17-.11-.35-.29-.54-.41-.19-.11-.38-.22-.56-.34-.18-.13-.37-.27-.56-.41-.21-.16-.39-.32-.59-.52-.22-.19-.41-.42-.62-.64-.2-.25-.42-.54-.6-.83-.19-.26-.36-.65-.51-.98-.15-.34-.28-.68-.35-1.05-.08-.37-.13-.71-.16-1.03-.05-.31.02-.63.04-.89.02-.26.07-.49.11-.68.08-.37.17-.57.17-.57,0,0,.18.12.43.32.12.1.27.22.41.35.15.13.28.29.47.42.18.13.35.27.51.42.15.16.35.29.53.45.18.16.33.32.54.52.2.19.37.39.57.62.2.25.4.5.58.77.19.27.37.61.52.91.16.29.29.65.4,1.01.11.35.19.69.25,1,.05.3.02.57.02.82,0,.24-.03.47-.04.66-.04.37-.09.61-.09.61Z" fill="#ffc454"/><path d="M274.01,261.34s-.12-.04-.3-.15c-.09-.05-.2-.11-.3-.2-.11-.07-.23-.19-.36-.27-.13-.07-.25-.14-.37-.22-.12-.09-.24-.18-.37-.27-.14-.1-.26-.21-.39-.35-.14-.13-.27-.28-.41-.43-.13-.17-.28-.35-.4-.55-.13-.17-.24-.43-.34-.65-.1-.23-.19-.45-.23-.7-.05-.24-.08-.47-.11-.68-.03-.2.01-.42.03-.59.01-.17.05-.33.08-.45.05-.24.11-.38.11-.38,0,0,.12.08.28.22.08.07.18.14.27.23.1.08.19.19.31.28.12.09.23.18.34.28.1.11.23.2.35.3.12.1.22.21.35.34.14.12.24.26.38.41.13.17.26.33.38.51.12.18.24.4.34.6.1.19.19.43.27.67.07.23.13.46.16.66.03.2.01.38.01.54,0,.16-.02.31-.03.43-.02.25-.06.4-.06.4Z" fill="#ffc454"/><path d="M108,350.16s8.62-3.53,8.16-7.77c-.46-4.24-1.29-9.55,2.11-12.16-.7,2.51.85,9.43,4.27,8.57,3.42-.86,2.6-4.23,3.2-7.88.6-3.65,1.64-5.27,3.5-7.6,1.86-2.34,2.24-3.67,1.46-7.31,3.64,2.27,5.3,6.68,3.31,11.07-1.99,4.4-.55,10.28,2.65,10.64,3.2.36,4.08-4.14,4.08-4.14,0,0,2.87,1.11,2.32,4.35-.55,3.24,2.21,6.39,4.97,5.24,2.76-1.15,4.97-4.24,7.73-2.42,2.76,1.83,5.49,3.09,6.06.28,2.55.98,2.48,3.81.92,5.84-1.57,2.03.79,3.71,3.98,4.13h-58.72v-.84Z" fill="#ffc454"/><path d="M303.03,148.53c-9.1-10.56-21.53-13.27-21.48-32.35-6.29,9.75-6.34,23.18-2.58,29.9,3.76,6.72,11.58,29.49,5.48,35.31-6.11,5.82-13.45-8.16-12.62-18.1.83-9.94-3.64-16.94-3.64-16.94,0,0,2.36,10.17-.73,18.66-3.09,8.49-1.18,17.42,3.39,28.62,4.57,11.2-2.1,28.57-10.48,30.73-8.38,2.16-15.76-10.06-16.27-23.19-.51-13.13-1.88-27.26-5.82-34.47-3.94-7.2-4.76-13.64-4.27-21.2-4.22,6.44-6.62,8.86-4.85,18.42,1.77,9.56-.2,21.27-4.44,27.03-4.24,5.76-10.2,10.89-10.2,24.21s.49,22.32-7.15,20.54c-7.63-1.77-11.24-13.66-9.68-22.69-4.45.21-7.33,11.25-5.4,26.3,1.92,15.04-2.14,26.15-8.63,28.71-6.5,2.56-12.54-1.62-14.88,11.11-2.34,12.72-9.83,37.16-15.34,29.28-5.51-7.88-3.54-17.47-1.92-27.5,1.61-10.04-1.16-15.26-1.16-15.26,0,0-.24,10.22-4.59,22.38-4.35,12.16-4.69,37.48-1.83,47.1,2.86,9.62,8.13,14.86,8.13,14.86h164.96v-164.78c0-15.91-4.87-26.13-13.97-36.69Z" fill="none" stroke="#000" stroke-linecap="round" stroke-linejoin="round"/><polygon points="359.27 281.72 350.35 281.33 343.68 241.06 331.92 191 296.61 191 281.4 224.22 268.95 227.89 262.56 215.89 249.61 213.22 245.56 191 222.44 204.02 210.27 245.93 178.35 259.46 159.29 295.7 145.33 303.76 133 348.98 133 350 379.3 350 359.27 281.72" fill="none" stroke="#000" stroke-linecap="round" stroke-linejoin="round"/><polygon points="137 266.02 148.57 251 158 251 158 273 170 273 170 232 180 232 180 283.91 185.31 287.81 187.7 298.58 191.12 302.89 197 327.5 197 342 137 342 137 266.02" fill="none" stroke="#000" stroke-linecap="round" stroke-linejoin="round"/><polygon points="202 319 195.59 319 192.65 325.68 189.72 333 179.89 333 174.87 327.24 171.43 315.59 160.59 311.18 155.3 288.65 137.84 282 127 282 127 329.5 121.46 332.8 119.35 350 202 350 202 319" fill="none" stroke="#000" stroke-linecap="round" stroke-linejoin="round"/><path d="M141.66,293.6c-1.64,1.6-1.68,1.63-2.52,1.79.58-1,1.4-1.46,2.52-1.79Z" fill="none" stroke="#000" stroke-linecap="round" stroke-linejoin="round"/><path d="M139.14,295.39s-.02.02-.03.04c0,0-.01,0-.02.01,0-.02,0-.03,0-.04.02,0,.03,0,.05,0Z" fill="none" stroke="#000" stroke-linecap="round" stroke-linejoin="round"/><path d="M128.21,304.62c-.07.13-.14.25-.21.38v-.28s.07-.07.1-.11c.02-.02.07,0,.11.01Z" fill="none" stroke="#000" stroke-linecap="round" stroke-linejoin="round"/><path d="M146.03,350h-.01c-.12-1.46-.35-2.9-.81-4.24-.6-1.75-.85-3.65-1.34-5.43-.51-1.85.41-3.86-.5-5.61.63-.85-.08-.99-.42-1.06-1.23-.25-1.8-1.23-2.35-2.59-.65-1.62-1.93-2.6-3.12-3.59-.13-.11-.3-.13-.46-.08-1.37.44-2.57-.25-3.76-.92-.62-.35-1.22-.88-1.86-1-.73-.14-1.39-.55-1.87-1.11s-.98-.87-1.51-.98v-.74c.77.12,1.48.5,2.11,1.35.3.4.82.68,1.34.81.63.16,1.23.47,1.8.86,1.13.78,2.29,1.13,3.57.89.41-.08.85-.11,1.2.22,1.28,1.2,2.76,2.07,3.59,3.96.5,1.13,2.37,2.05,3.35,1.77.77-.22,1.02-.74,1.1-1.85.1-1.51.28-3.01.43-4.52.75-2.28.94-4.71,1.19-7.13.05-.48.05-1.26-.02-1.74-.23-1.62-.58-3.22-1.14-4.68-.54-1.4-.87-2.77-.94-4.34-.09-2.34.08-4.55,1.11-6.55.35-.7.51-1.47.7-2.26.28-1.14,0-2.35.39-3.44.64-2.36.67-4.63-.56-6.74-.1-.17-.12-.43-.18-.64-.27-.73-.63-1-1.17-.36-.73,1.43-1.32,3.01-2.61,3.83,1.03-1.18,1.37-2.96,2.31-4.21.23-.45.45-.87.13-1.44-.25-.44-.16-.98-.18-1.51,0-.06.01-.12.01-.18l.71.27c-.02.46.06.89.37,1.23.53.59.61,1.23.72,1.96.65.25.64,1.13.82,1.7.64,2.08.95,4.24-.25,6.24.13,2.19-.13,4.21-1,6.2-1.35,3.09-1.39,6.34-.15,9.56.14.37.27.74.39,1.12.24.76.42,1.55.71,2.28.29.74.05,1.62.63,2.36.4.51-.57,1.25-.4,2.07.03.16.03.36,0,.53-.28,1.29.14,2.68-.43,3.94-.69,1.53-.66,3.26-.66,4.95,0,.88.01,1.76.02,2.64,1.33.49,2.65,1.09,4,.09.18-.14.43-.12.65-.17,2.22-1.57,4.41-3.24,6.84-4.28.96-.41,1.85-.99,2.72-1.64,2.2-1.64,4.67-2.28,7.04-3.26.47-.52,1.06-.34,1.59-.35,1.2-.03,2.43-.05,3.5-.77.14-.1.29-.16.44-.25l.17.57c-.13.07-.27.12-.4.21-.81.52-1.74.7-2.68.72-.87.02-1.73.16-2.6.25-2.92,1.3-5.89,2.41-8.59,4.43-1.26.95-2.69,1.43-3.97,2.35-1.15.83-2.2,1.88-3.45,2.46-.73.71-1.53,1.24-2.4,1.59-.48.19-.86.43-1.31-.26-.27-.41-.98-.65-1.17.45-.07.43-.32.38-.63.36-1.13-.07-1.3.15-1.33,1.45-.01.47.01.95-.15,1.38-.39,1.02-.36,2.14-.02,3.06.43,1.17.63,2.42.92,3.62.5,2.04,1.28,4,1.24,6.2h-1.37Z" fill="none" stroke="#000" stroke-linecap="round" stroke-linejoin="round"/><path d="M127.55,304.59s-.03.02-.04.04c0,0-.02,0-.02,0,0,0,0-.01,0-.02.02,0,.03-.01.05-.01Z" fill="none" stroke="#000" stroke-linecap="round" stroke-linejoin="round"/><path d="M127.55,304.59c.72-.93,1.73-1.11,2.61-1.63-.72.93-1.62,1.42-2.61,1.63Z" fill="none" stroke="#000" stroke-linecap="round" stroke-linejoin="round"/><path d="M134.92,299.25c.27-.43.52-.64.84-.63-.16.39-.37.69-.84.63Z" fill="none" stroke="#000" stroke-linecap="round" stroke-linejoin="round"/><path d="M148.73,346.16c.08-.24.26-.55.5-.32.2.18.15.53.03.79-.12.27-.33.38-.64.43-.12-.41.03-.66.11-.89Z" fill="none" stroke="#000" stroke-linecap="round" stroke-linejoin="round"/><path d="M194.18,332.68c1.5.07,2.96-.3,4.45-.72-1.34,1.6-2.91.99-4.45.72Z" fill="none" stroke="#000" stroke-linecap="round" stroke-linejoin="round"/><path d="M147.51,348.72c.13.43.14.85.11,1.28h-.19c0-.43.1-.86.08-1.28Z" fill="none" stroke="#000" stroke-linecap="round" stroke-linejoin="round"/><path d="M135.77,298.62s.01-.02.02-.03c.01,0,.03,0,.04,0,0,0-.01.01-.02.02-.01,0-.02,0-.03,0Z" fill="none" stroke="#000" stroke-linecap="round" stroke-linejoin="round"/><path d="M138.97,296.03c-.83.87-1.59,1.85-2.53,2.51-.19.13-.41.13-.62.06,1.04-1.14,2.06-2.3,3.27-3.16.05.22.02.44-.12.59Z" fill="none" stroke="#000" stroke-linecap="round" stroke-linejoin="round"/><path d="M199.75,332.05c-.3.16-.53.09-.58-.44.79-.4,1.59-.8,2.38-1.2.09-.57.24-1.14.26-1.72.02-.56.08-1.08.19-1.58v5.31c-.1-.5-.16-1.03-.15-1.59-.7.4-1.4.82-2.11,1.2Z" fill="none" stroke="#000" stroke-linecap="round" stroke-linejoin="round"/><polygon points="281 253.38 296.93 213.39 306.21 216.36 314.44 231.28 320.56 226.15 324.41 229.49 325.99 236.18 339.12 238.88 349.45 230.83 356.62 232.55 374.28 258 281 258 281 253.38" fill="none" stroke="#000" stroke-linecap="round" stroke-linejoin="round"/><polygon points="245 348.3 254.12 339.07 273.15 338.42 284.08 327.56 289.93 309.72 292.28 310.59 295.43 316.24 307.31 313 326.41 313.22 337.76 321.32 351.01 302.08 357.72 287.67 362.89 288.48 364.26 317.99 381.64 326.65 388.01 341.46 398.94 344.83 401.43 350 245 350 245 348.3" fill="none" stroke="#000" stroke-linecap="round" stroke-linejoin="round"/><path d="M383.75,332.69s.35,5.66-4.03,8.36c-4.38,2.7-6.13-4.03-6.48-9.38-.35-5.35-2.62-1.33-6.48-4.76-3.85-3.43,3.15-10.82,3.15-10.82,0,0-9.8-.22-12.85,5.78-3.05,6-6.4,2.9-11.66,1.99-5.25-.92-4.9-7.77-2.2-13.73,2.7-5.96,1.32-15.2-1.83-15.15-1.23,7.4-4.55,5.96-7.99,12.76-3.44,6.79-7.24,7.46-8.47,15.85-1.22,8.39-4.55,10.32-12.04,8.67-7.49-1.65-3.71-5.03-1.14-12.24,2.57-7.21,0-13.31,0-13.31,0,0-4.85,4.92-9.26,10.67-4.41,5.74-7.49,16.08-14.85,15.52-7.35-.56-5.95-13.69,0-26.19,5.95-12.5,9.1-25.81,6.47-28.92-2.28,7.13-9.27,9.79-15.22,11.7-5.95,1.91-7.35,15.35-13.94,16.13s-8.12-18.93-6.49-25.73c-5.19,6.98-7.92,14.82-8.88,23.34-.96,8.52.26,14.19-5,19.97-5.25,5.78-11.76,14.96-5.54,26.8h147.86c4.56-9.29-3.16-17.31-3.16-17.31Z" fill="none" stroke="#000" stroke-linecap="round" stroke-linejoin="round"/><path d="M309,249v-17h-52.41l-21.14,15.44-14.36-7.58-19.26,12.03-28.37,4.46-10.51,16.04-5.96,3.15v74.45h116v-63h24v63h12v-82h59v82h9v-82h12v-19h-80ZM188,324h-17v-19h17v19ZM188,301h-17v-4h17v4ZM212,324h-22v-19h22v19ZM212,301h-22v-4h22v4ZM235,324h-22v-19h22v19ZM235,301h-22v-4h22v4ZM254,324h-17v-19h17v19ZM254,301h-17v-4h17v4Z" fill="none" stroke="#000" stroke-linecap="round" stroke-linejoin="round"/><polygon points="344.34 334.63 334.71 331.51 331.91 324.17 319.83 321.27 317.03 307.69 306 302.12 306 350 353.09 350 344.34 334.63" fill="none" stroke="#000" stroke-linecap="round" stroke-linejoin="round"/><path d="M158,288.63c.13.13.29.1.54-.25.08-.11.26-.22.37-.18,1.23.42,2.34-.33,3.49-.58,1.01-.21,2-.44,3.03-.3.44.06.88.2,1.08.67.89,2.05,2.5,3.3,3.47,5.22.62,1.22,1.31,2.36,1.67,3.78h.66c-.13-.59-.33-1.16-.6-1.75-1.01-2.22-2.33-4.08-3.69-5.92-.66-.89-.75-2.24-.23-3.26,1.2-2.36,2.45-4.62,4.66-5.62.17-.07.31-.26.44-.43.53-.7,1.14-.83,1.89-.69,1.1.2,2.21.13,3.24-.54.25-.16.53-.29.8-.13.61.36,1.09.17,1.67-.27.83-.64,1.43-.23,1.78,1.01.19.69.5,1.33.99,1.64.85.53,1.26,1.49,1.75,2.4.81,1.19,1.52,2.43,2,3.93.5,1.56,1.42,2.73,2.86,3.03.39.08.85.16,1.13.61.46.74.96.54,1.53.27.77-.35,1.55-.84,2.41-.35.87.49,1.8.52,2.71.64,1.38.17,2.74.33,4.02,1.16.81.52,1.76.7,2.7.72.88.02,1.75.16,2.62.25,2.36,1.04,4.75,1.97,7.01,3.33v-.02h.74c-.13-.09-.27-.16-.39-.26-2.27-1.77-4.85-2.42-7.33-3.43-.48-.52-1.07-.34-1.61-.35-1.21-.03-2.45-.05-3.53-.77-1.15-.77-2.35-1.02-3.6-1.18-1.2-.15-2.41-.19-3.56-.77-.24-.12-.61-.14-.85-.03-1.3.56-2.44.36-3.77-.3-1.44-.71-2.37-1.7-2.88-3.46-.39-1.35-1.03-2.49-1.93-3.37-.43-1.03-.85-2.05-1.05-3.22-.11-.63-.3-1.26-.7-1.75-.56-.69-.67-1.43-.2-2.32.3-.55.35-1.18-.25-1.96.11,1.57-.6,2.63-.5,3.98-.63-.06-1.08-.66-1.58-.36-1.44.88-3.07.45-4.52,1.15-.86.42-1.66-.36-2.46-.04-.66.27-.98-.08-1.28-.67.09,1.22-.3,2.05-1.26,2.46-.3.13-.57.38-.87.55-.86.51-1.59,1.17-1.99,2.32-.4,1.17-1.36,1.74-1.9,2.76-.18.33-.48.33-.75.32-1.88-.08-3.65.55-5.45,1.12-.82.26-1.68.46-2.52.18v1.02Z" fill="none" stroke="#000" stroke-linecap="round" stroke-linejoin="round"/><path d="M172.27,278.02c-.02-.27-.04-.56-.08-1.18-.1.67-.25,1.01.08,1.18Z" fill="none" stroke="#000" stroke-linecap="round" stroke-linejoin="round"/><path d="M172.28,278.09s.03-.04.03-.04c-.02,0-.02-.02-.04-.03,0,.02,0,.05,0,.07Z" fill="none" stroke="#000" stroke-linecap="round" stroke-linejoin="round"/><path d="M172.28,278.09s.02.04.03.06c0-.04,0-.06,0-.1l-.03.04Z" fill="none" stroke="#000" stroke-linecap="round" stroke-linejoin="round"/><path d="M253.89,346.77c.24-.71.25-1.45.12-2.2-.64.67,0,1.47-.12,2.2Z" fill="none" stroke="#000" stroke-linecap="round" stroke-linejoin="round"/><path d="M254.01,344.58s0-.01.02-.02c0-.01-.01-.02-.01-.04,0,0,0,.01,0,.02,0,.02,0,.03,0,.05Z" fill="none" stroke="#000" stroke-linecap="round" stroke-linejoin="round"/><path d="M235,299.12v1.25c.59-.69,1.28-1.27,1.96-1.83.01,0,.03,0,.04-.01v-.91c-.19.02-.38.09-.55.25-.47.44-.97.83-1.45,1.25Z" fill="none" stroke="#000" stroke-linecap="round" stroke-linejoin="round"/><path d="M231.65,304.53c1.25-.25,1.82-1.24,2.38-2.62.13-.33.31-.62.49-.91h-1.23c-.1.18-.2.37-.29.57-.5,1.14-2.4,2.08-3.39,1.8-.78-.22-1.04-.75-1.11-1.87-.01-.17-.03-.33-.04-.49h-.89c0,.55,0,1.1-.01,1.65-1.34.49-2.68,1.11-4.06.09-.18-.14-.44-.12-.66-.17-.74-.52-1.48-1.05-2.22-1.57h-1.28c.93.73,1.83,1.53,2.87,2.01.74.72,1.55,1.26,2.44,1.61.48.19.87.43,1.33-.27.27-.41.99-.66,1.18.45.02.09.04.14.07.2h3.76c.02-.33.44-.42.68-.47Z" fill="none" stroke="#000" stroke-linecap="round" stroke-linejoin="round"/><path d="M366.52,262.55c-.16-1.98-1.7-3.31-1.46-5.42-.88-.43-.26-.96.02-1.21,1.04-.91,1.23-2.13,1.26-3.68.03-1.16.36-2.22.8-3.24h-.89c-.48,1.07-.89,2.18-.96,3.5-.07,1.31-1.47,3.2-2.46,3.49-.78.23-1.19-.11-1.64-1.09-.61-1.33-1.29-2.6-1.95-3.9-.53-.61-1-1.29-1.43-2h-.92c.17.32.37.62.64.86,1.16,1.02,1.72,2.62,2.31,4.18.3.8.59,1.62.89,2.43-1.05,1.18-2.05,2.47-3.64,2.31-.21-.02-.44.13-.66.21-2.67-.21-5.33-.54-8.01-.08-.85.15-1.71.11-2.56,0-2.66-.36-5.22.46-7.82.9-.61-.22-1.08.28-1.58.56-1.11.64-2.25,1.3-3.47,1.24-1.31-.07-2.49.36-3.67.9-1.14.52-2.25,1.16-3.49,1.25-.26.02-.61.22-.8.45-.99,1.23-2.09,1.67-3.53,1.8-1.56.14-2.73-.25-3.81-1.58-.82-1.02-1.79-1.72-2.91-2.03-.71-.68-1.41-1.34-1.98-2.24-.34-.54-.72-1.1-1.29-1.34-.77-.32-1.14-.94-1.01-2.03.08-.67-.09-1.27-.9-1.66.64,1.38.36,2.74.91,3.92-.59.29-1.21-.01-1.56.55-1,1.6-2.64,2.11-3.71,3.55-.64.86-1.64.58-2.25,1.32-.5.61-.92.46-1.39.09.5,1.07.43,2.04-.3,2.95-.23.29-.39.66-.6.98-.61.94-1.04,1.95-1.01,3.23.04,1.29-.64,2.34-.78,3.58-.05.4-.32.57-.58.71-1.73.96-3.13,2.52-4.57,4.03-.81.85-1.7,1.66-2.86,1.64-.05.15-.09.29-.14.44.23.02.53-.06.68.09.38.37.65.6.84-.2.03-.15.16-.34.27-.37,1.26-.29,2.01-1.59,2.98-2.45.89-.79,1.77-1.6,2.83-2.03.37-.15.81-.1,1.12.17,1.49,1.32,3.36,1.6,4.87,2.8,1.31,1.04,2.7,1.87,3.56,3.84.42.95.79,1.88,1.05,2.84v-2.27c-.15-.25-.3-.49-.41-.77-.47-1.13-1.08-1.98-1.93-2.73-1.68-1.47-3.52-2.45-5.39-3.4-.9-.46-1.45-1.64-1.33-2.86.28-2.83.64-5.58,2.3-7.71.13-.16.19-.41.25-.63.24-.93.75-1.39,1.48-1.68,1.06-.42,2.05-1.09,2.76-2.27.17-.29.38-.56.68-.56.68,0,1.05-.44,1.42-1.16.54-1.04,1.23-1,1.97-.05.41.52.91.94,1.46.96.95.02,1.66.67,2.42,1.23,1.14.64,2.21,1.39,3.16,2.5.99,1.16,2.23,1.72,3.63,1.2.39-.14.83-.32,1.23-.06.67.43,1.05-.04,1.48-.6.51-.67,1-1.43,1.77-1.61s1.6-.33,2.34-.66c1.54-.68,3.01-1.51,4.7-1.45.92.03,1.83-.33,2.7-.83.8-.46,1.64-.82,2.47-1.22,3.12-.43,6.23-1.07,9.39-.71,1.48.17,2.95-.18,4.44-.05,1.33.12,2.66.5,4.01.34.91.25,1.83.29,2.75.12.5-.09.93-.08,1.11-.97.11-.52.68-1.14,1.22-.24.22.36.42.17.7-.03,1.01-.69,1.24-.59,1.72.59.17.43.31.87.61,1.18.71.72,1.06,1.77,1.07,2.79,0,1.32.26,2.56.4,3.83.04.33.07.66.1,1h1.43c-.08-1.84-.46-3.63-.61-5.45Z" fill="none" stroke="#000" stroke-linecap="round" stroke-linejoin="round"/><path d="M228.47,341.38c-.26.02-.41.15-.37.43.05.43.38.47.62.59.18.09.32-.1.26-.41-.07-.38-.2-.66-.51-.61Z" fill="none" stroke="#000" stroke-linecap="round" stroke-linejoin="round"/><path d="M255.85,342.47c.15-.07.52-.33.24-.82-.55.17-.91.75-1.37,1.09-.34.26-.62.34-.98-.02-1.28-1.29-2.84-2.07-3.96-3.66-.26-.37-.59-.73-1-.86-.56-.39-1.08-.93-1.68-1.14-1.01-.35-1.68-1.03-2.18-2.19-.37-.85-.89-1.61-1.71-1.86.9,1.3,1.44,3.02,2.61,3.95.91.72,1.95,1.19,2.93,1.77,1.09,1.4,2.26,2.68,3.63,3.61.73.5,1.38,1.1,1.64,2.17.47-.88,1-1.67,1.83-2.05Z" fill="none" stroke="#000" stroke-linecap="round" stroke-linejoin="round"/><path d="M221.19,345.57c.04.42.17.79.4.69.3-.13.49-.52.47-.98-.01-.25-.12-.44-.34-.43-.42.02-.54.35-.52.72Z" fill="none" stroke="#000" stroke-linecap="round" stroke-linejoin="round"/><path d="M308.47,290.16c-.45-.9-1.03-.73-1.53-.61-.98.25-1.97.31-2.96.48-.1.07-.12.16-.07.29,1.52.56,2.96-.58,4.56-.17Z" fill="none" stroke="#000" stroke-linecap="round" stroke-linejoin="round"/><path d="M377,273.49s-.06.02-.08.02c-2.5.8-4.89,1.96-7.18,3.46-.1.07-.15.27-.22.41-.07.07-.14.15-.22.21-1.02.87-.98.84-1.3-.75,0,0,0,0,0,0v3.33c.16-.2.31-.41.47-.61.83-1,1.8-1.83,2.7-2.74,1.88-.99,3.73-2.13,5.82-2.85v-.49Z" fill="none" stroke="#000" stroke-linecap="round" stroke-linejoin="round"/><path d="M374.47,291.22c-.23.16-.32.36-.19.59.19.36.51.22.75.19.19-.02.26-.26.1-.51-.19-.31-.4-.49-.66-.27Z" fill="none" stroke="#000" stroke-linecap="round" stroke-linejoin="round"/><path d="M303.99,290.03c-.52-.24-.92.16-1.66.34.76.39,1.16-.15,1.59-.04-.05-.13-.03-.22.07-.29Z" fill="none" stroke="#000" stroke-linecap="round" stroke-linejoin="round"/><path d="M369.91,299.4c.22-.28.27-.74.09-1.14-.1-.22-.25-.33-.46-.2-.37.25-.37.61-.23.94.17.36.42.61.59.41Z" fill="none" stroke="#000" stroke-linecap="round" stroke-linejoin="round"/><path d="M302.31,264.8c-.11-.23-.23-.49-.47-1.02.13.66.12,1.05.47,1.02Z" fill="none" stroke="#000" stroke-linecap="round" stroke-linejoin="round"/><path d="M302.34,264.86s.02-.05.02-.05c-.02,0-.03,0-.05,0,0,.02.02.04.03.06Z" fill="none" stroke="#000" stroke-linecap="round" stroke-linejoin="round"/><path d="M302.34,264.86s.03.02.05.04c-.01-.03-.02-.06-.03-.09l-.02.05Z" fill="none" stroke="#000" stroke-linecap="round" stroke-linejoin="round"/><path d="M302.21,350c2.21-1.07,4.47-1.99,6.79-2.68v-.69s-.04.03-.08.04c-.9.1-1.8.21-2.61.73-1.69,1.08-3.55,1.68-5.3,2.61h1.2Z" fill="none" stroke="#000" stroke-linecap="round" stroke-linejoin="round"/><path d="M309,307.73v-.35c-.06-.12-.12-.23-.18-.35.05.24.11.47.18.7Z" fill="none" stroke="#000" stroke-linecap="round" stroke-linejoin="round"/><path d="M308.19,290.46c.27.23.55.39.81.57v-.43c-.23-.05-.47-.24-.81-.14Z" fill="none" stroke="#000" stroke-linecap="round" stroke-linejoin="round"/><path d="M238.04,327.8c-.32-.58-.61-.63-.84-.69-2.56-.65-5.14-.92-7.74-.82-.11,0-.23.17-.34.26-.09.02-.18.06-.27.07-1.2.22-1.18.22-.95-1.26.07-.45.14-.9.21-1.35h-1.54c0,.28.02.56.05.83.16,1.49-.45,2.31-1.32,2.98-.31.24-.66.4-.98.65-.74.58-1.65,1-2.17,1.82-.84,1.33-1.94,1.84-3.08,2.48-1.31.73-2.79,1.16-3.69,2.78-.64,1.15-1.51,2.04-2.4,2.87-.51.48-.89,1.13-.95,1.97-.81,1.01-1.8,1.83-2.23,3.25-.47,1.55-.44,1.56-1.71,1.49-1.04-.06-2.04.15-2.96.82,1.09-.14,2.15-.42,3.25-.21.83.16.89.23.67,1.33-.14.71-.56,1.39-.18,2.24.25-1.01.51-1.94.72-2.88.42-1.93.95-3.77,2.29-5.01.17-.16.27-.46.4-.69,2.23-4.13,5.15-6.98,9.01-8.11.44.88.11,1.84.28,3.02.14-.96.13-1.61.16-2.23.05-1.03.3-1.85.91-2.42,1.45-1.35,3.07-2.32,4.76-3.02,1.1-.45,2.27-.67,3.4-1,2.35.15,4.72.07,7.22.84Z" fill="none" stroke="#000" stroke-linecap="round" stroke-linejoin="round"/><path d="M168.08,302.9c-.97-.31-1.89-.8-2.83-1.19-.11,0-.17.08-.16.22,1.18,1.34,2.87,1.09,4.17,2.34-.1-1.05-.69-1.23-1.18-1.38Z" fill="none" stroke="#000" stroke-linecap="round" stroke-linejoin="round"/><path d="M165.18,343.43c.5.22,1.09.06,1.64.08.46.02.95-.09,1.37.09,1.5.66,3.07.67,4.6,1.05,2.07.47,4.13.94,6.2,1.43.9.21,1.79.54,2.7.7,1,.18,1.69-1,2.63-1.15.26-.04.52-.23.77-.38.16-.1.29-.25.26-.58-.86.09-1.61.61-2.37,1.04-.65.37-1.42.44-2.14.25-2.29-.62-4.59-1.16-6.89-1.73-.58-.18-1.19-.2-1.77-.25-1.47-.13-2.87-.75-4.32-.94-1.32-.17-2.66-.01-3.95-.58-.51-.23-1.07-.04-1.43.33-1.42,1.46-3.16,2.29-4.48,3.96v.82c1.13-1.35,2.38-2.49,3.81-3.37,1.11-.69,2.1-1.32,3.38-.76Z" fill="none" stroke="#000" stroke-linecap="round" stroke-linejoin="round"/><path d="M253.89,348.22c-.17.65-.24,1.23-.24,1.78h.4c-.06-.55-.1-1.14-.16-1.78Z" fill="none" stroke="#000" stroke-linecap="round" stroke-linejoin="round"/><path d="M162.16,339.59c.03.95.35,1.1.87,1.22.83.19.81.29.79-.79-.6.47-1.12.3-1.66-.43Z" fill="none" stroke="#000" stroke-linecap="round" stroke-linejoin="round"/><path d="M165.25,301.71c-.39-.5-.88-.36-1.61-.61.56.76,1.09.5,1.45.83,0-.14.05-.22.16-.23Z" fill="none" stroke="#000" stroke-linecap="round" stroke-linejoin="round"/><path d="M262.23,295.57c-.35-.78,0-1.5-.46-2.12-.02.52-.1.94-.04,1.32.27,1.71-.31,3.1-.97,4.46-.5,1.03-.88,1.15-1.49.28-.8-1.15-1.82-1.75-2.87-2.32-1.32-.72-2.56-1.55-3.41-3.12-.23-.43-.51-.84-.94-.99-.44-.47-.93-1.13-.67-1.77.4-1,.16-1.83-.1-2.67-.24-.79-.01-1.5.29-1.99,1.3-2.12,2.87-3.67,5.15-3.58.85.04,1.71.07,2.52-.41-.1-.11-.2-.21-.3-.32-.87,0-1.74.03-2.61.19-.77.14-1.55.27-2.31-.09.05-.57-.35-.78-.57-1.12-.74-1.14-1.85-1.76-2.59-2.83-1.25-1.79-3.14-2.29-4.45-3.9-.02-.02-.07,0-.11.01.49,1.02,1.16,1.74,2.03,2.21.54.29,1.14.53,1.53,1.14,1.19,1.87,2.9,3,4.16,4.77,0,.36-.2.57-.41.61-1.63.32-2.13,2.17-2.88,3.6-.34.64-.42,1.58-.05,2.36.19.41.02.75.02,1.12,0,1.2-.79,1.57-1.25,2.31-.45.73-.84.84-1.5.72-1.3-.23-2.54-.05-3.55,1.31-.31.41-.83.69-1.37.82-.62.15-1.21.46-1.77.85-.33.23-.67.41-1.01.56h1.43c.47-.31.93-.64,1.42-.74.74-.15,1.41-.57,1.91-1.14.91-1.04,1.88-1.24,3-.74.66.29,1.21.16,1.7-.59.57-.87,1.29-1.02,2.07-.41,1.45,2.48,3.41,4,5.65,5.01.52.23.94.64,1.32,1.21.5.76,1.07,1.43,1.54,2.53.35-1.89,1.3-3.15,1.76-4.73.53-1.84,1.93-2.97,3.49-2.92.03-.44-.38-.63-.35-.98-1.05.52-1.98,1.41-2.98,2.08Z" fill="none" stroke="#000" stroke-linecap="round" stroke-linejoin="round"/><path d="M164.45,320.06c-.39,2.67.2,5.16.92,7.62-.82.18-1.43-.58-2.25-.37,1.17.84,1.51.96,2.97.97-1.13-2.67-1.34-5.46-1.64-8.23Z" fill="none" stroke="#000" stroke-linecap="round" stroke-linejoin="round"/><path d="M312.21,251.32c-.39.4-.53.97-.74,1.53.18.05.26.08.35.1.26.09.52.18.78.26-.02-.4.31-.87-.16-1.21-.1-.07-.09-.41-.12-.63.3-.38.61-.75,1.08-1.34-.76.23-1.08.62-1.19,1.29Z" fill="none" stroke="#000" stroke-linecap="round" stroke-linejoin="round"/><path d="M246.25,274.86c-.72-.93-1.73-1.11-2.61-1.63.72.93,1.62,1.42,2.61,1.63Z" fill="none" stroke="#000" stroke-linecap="round" stroke-linejoin="round"/><path d="M265.56,294.76l.02-.03s-.02,0-.02,0c0,.01,0,.02,0,.03Z" fill="none" stroke="#000" stroke-linecap="round" stroke-linejoin="round"/><path d="M246.25,274.86s.03.02.04.04c0,0,.02,0,.02,0,0,0,0-.01,0-.02-.02,0-.03-.01-.05-.01Z" fill="none" stroke="#000" stroke-linecap="round" stroke-linejoin="round"/><path d="M170,307.58v-.74c-.39.2-.27.84-.46,1.21.21-.11.35-.28.46-.47Z" fill="none" stroke="#000" stroke-linecap="round" stroke-linejoin="round"/><path d="M237.97,268.87s.01.01.02.02c.01,0,.02,0,.03,0,0-.01-.01-.02-.02-.03-.01,0-.03,0-.04,0Z" fill="none" stroke="#000" stroke-linecap="round" stroke-linejoin="round"/><path d="M238.03,268.89c.16.39.37.69.84.63-.27-.43-.52-.64-.84-.63Z" fill="none" stroke="#000" stroke-linecap="round" stroke-linejoin="round"/><path d="M208.58,249.56c2.39.74,4.81,1.34,7.23,1.99.76.2,1.42-.09,2.04-.63,2.62.01,5.24.32,7.85-.26.35-.08.69.1.88.48.5,1.01,1.19,1.92,1.43,3.1.19.92.54,2.08-.1,2.8-.53.59-.61,1.23-.72,1.96-.65.25-.64,1.13-.82,1.69-.64,2.08-.95,4.24.25,6.24-.13,2.19.13,4.21,1,6.2,1.35,3.09,1.39,6.34.15,9.56-.14.37-.27.74-.39,1.12-.24.76-.42,1.55-.71,2.28-.29.74-.05,1.62-.63,2.36-.4.51.57,1.25.4,2.07-.03.16-.03.36,0,.53.28,1.29-.14,2.68.43,3.94.29.64.45,1.32.54,2.01h.62s0-.05,0-.08c-.76-2.31-.94-4.78-1.2-7.23-.04-.42-.04-1.11.02-1.53.23-1.66.58-3.29,1.15-4.79.54-1.4.87-2.77.94-4.34.09-2.34-.08-4.55-1.11-6.55-.35-.7-.51-1.47-.7-2.26-.28-1.14,0-2.35-.39-3.44-.64-2.36-.67-4.63.56-6.74.1-.17.12-.43.18-.64.27-.73.63-1,1.17-.36.73,1.43,1.32,3.01,2.61,3.83-1.03-1.18-1.37-2.96-2.31-4.21-.23-.45-.45-.87-.13-1.44.25-.44.16-.98.18-1.51.05-1.54-.58-2.72-1.17-3.91-.43-.86-.54-1.92-.32-2.9.4-1.77.8-3.52,1.45-5.14l-.81-.43c-.63,1.52-1.02,3.18-1.41,4.81-.29,1.25-.75,1.92-1.74,2.02-.32.03-.63.13-.95.18-2.05.37-4.11.11-6.17.29-.86.13-1.7.44-2.57.21-2.28-.6-4.56-1.19-6.82-1.84-.28-.08-.56-.14-.84-.21l-.57.35c.5.11,1,.24,1.51.4Z" fill="none" stroke="#000" stroke-linecap="round" stroke-linejoin="round"/><path d="M234.66,265.66s.02.02.03.04c0,0,.01,0,.02.01,0-.02,0-.03,0-.04-.02,0-.03,0-.05,0Z" fill="none" stroke="#000" stroke-linecap="round" stroke-linejoin="round"/><path d="M232.14,263.87c1.64,1.6,1.68,1.63,2.52,1.79-.58-1-1.4-1.46-2.52-1.79Z" fill="none" stroke="#000" stroke-linecap="round" stroke-linejoin="round"/><path d="M187.27,270.75c-.76-.2-1.18-.03-1.51.52-.48.15-.8.58-1.18.97.14.14.21.21.28.28.21.22.41.44.61.67.12-.38.57-.62.26-1.18-.07-.12.06-.42.1-.63.4-.17.8-.35,1.43-.62Z" fill="none" stroke="#000" stroke-linecap="round" stroke-linejoin="round"/><path d="M170,305.94v-.65c-.17-.18-.33-.44-.64-.52.21.44.45.8.64,1.17Z" fill="none" stroke="#000" stroke-linecap="round" stroke-linejoin="round"/><path d="M174.17,302.12c.3.16.53.09.58-.44-.45-.23-.9-.45-1.35-.68h-1.18c.65.38,1.3.76,1.95,1.12Z" fill="none" stroke="#000" stroke-linecap="round" stroke-linejoin="round"/><path d="M234.82,266.3c.83.87,1.59,1.85,2.53,2.51.19.13.41.13.62.06-1.04-1.14-2.06-2.3-3.27-3.16-.05.22-.02.44.12.59Z" fill="none" stroke="#000" stroke-linecap="round" stroke-linejoin="round"/><path d="M175.17,302.23c1.34,1.6,2.91.99,4.45.72-1.5.07-2.96-.3-4.45-.72Z" fill="none" stroke="#000" stroke-linecap="round" stroke-linejoin="round"/><path d="M172.07,301h-.57c-.05,1.4-.28,2.73-.88,4h.46c.54-1.23.99-2.5.98-4Z" fill="none" stroke="#000" stroke-linecap="round" stroke-linejoin="round"/><path d="M285.12,142.95s-.19-.07-.45-.23c-.13-.08-.3-.17-.46-.3-.17-.11-.35-.29-.54-.41-.19-.11-.38-.22-.56-.34-.18-.13-.37-.27-.56-.41-.21-.16-.39-.32-.59-.52-.22-.19-.41-.42-.62-.64-.2-.25-.42-.54-.6-.83-.19-.26-.36-.65-.51-.98-.15-.34-.28-.68-.35-1.05-.08-.37-.13-.71-.16-1.03-.05-.31.02-.63.04-.89.02-.26.07-.49.11-.68.08-.37.17-.57.17-.57,0,0,.18.12.43.32.12.1.27.22.41.35.15.13.28.29.47.42.18.13.35.27.51.42.15.16.35.29.53.45.18.16.33.32.54.52.2.19.37.39.57.62.2.25.4.5.58.77.19.27.37.61.52.91.16.29.29.65.4,1.01.11.35.19.69.25,1,.05.3.02.57.02.82,0,.24-.03.47-.04.66-.04.37-.09.61-.09.61Z" fill="none" stroke="#000" stroke-linecap="round" stroke-linejoin="round"/><path d="M147.05,156.26s-.19-.07-.45-.23c-.13-.08-.3-.17-.46-.3-.17-.11-.35-.29-.54-.41-.19-.11-.38-.22-.56-.34-.18-.13-.37-.27-.56-.41-.21-.16-.39-.32-.59-.52-.22-.19-.41-.42-.62-.64-.2-.25-.42-.54-.6-.83-.19-.26-.36-.65-.51-.98-.15-.34-.28-.68-.35-1.05-.08-.37-.13-.71-.16-1.03-.05-.31.02-.63.04-.89.02-.26.07-.49.11-.68.08-.37.17-.57.17-.57,0,0,.18.12.43.32.12.1.27.22.41.35.15.13.28.29.47.42.18.13.35.27.51.42.15.16.35.29.53.45.18.16.33.32.54.52.2.19.37.39.57.62.2.25.4.5.58.77.19.27.37.61.52.91.16.29.29.65.4,1.01.11.35.19.69.25,1,.05.3.02.57.02.82,0,.24-.03.47-.04.66-.04.37-.09.61-.09.61Z" fill="none" stroke="#000" stroke-linecap="round" stroke-linejoin="round"/><path d="M103.87,224.94s-.19-.07-.45-.23c-.13-.08-.3-.17-.46-.3-.17-.11-.35-.29-.54-.41-.19-.11-.38-.22-.56-.34-.18-.13-.37-.27-.56-.41-.21-.16-.39-.32-.59-.52-.22-.19-.41-.42-.62-.64-.2-.25-.42-.54-.6-.83-.19-.26-.36-.65-.51-.98-.15-.34-.28-.68-.35-1.05-.08-.37-.13-.71-.16-1.03-.05-.31.02-.63.04-.89.02-.26.07-.49.11-.68.08-.37.17-.57.17-.57,0,0,.18.12.43.32.12.1.27.22.41.35.15.13.28.29.47.42.18.13.35.27.51.42.15.16.35.29.53.45.18.16.33.32.54.52.2.19.37.39.57.62.2.25.4.5.58.77.19.27.37.61.52.91.16.29.29.65.4,1.01.11.35.19.69.25,1,.05.3.02.57.02.82,0,.24-.03.47-.04.66-.04.37-.09.61-.09.61Z" fill="none" stroke="#000" stroke-linecap="round" stroke-linejoin="round"/><path d="M273.63,45.51s-.19-.07-.45-.23c-.13-.08-.3-.17-.46-.3-.17-.11-.35-.29-.54-.41-.19-.11-.38-.22-.56-.34-.18-.13-.37-.27-.56-.41-.21-.16-.39-.32-.59-.52-.22-.19-.41-.42-.62-.64-.2-.25-.42-.54-.6-.83-.19-.26-.36-.65-.51-.98-.15-.34-.28-.68-.35-1.05-.08-.37-.13-.71-.16-1.03-.05-.31.02-.63.04-.89.02-.26.07-.49.11-.68.08-.37.17-.57.17-.57,0,0,.18.12.43.32.12.1.27.22.41.36.15.13.28.29.47.42.18.13.35.27.51.42.15.16.35.29.53.45.18.16.33.32.54.52.2.19.37.39.57.62.2.25.4.5.58.77.19.27.37.61.52.91.16.29.29.65.4,1.01.11.35.19.69.25,1,.05.3.02.57.02.82,0,.24-.03.47-.04.66-.04.37-.09.61-.09.61Z" fill="none" stroke="#000" stroke-linecap="round" stroke-linejoin="round"/><path d="M135.56,58.82s-.19-.07-.45-.23c-.13-.08-.3-.17-.46-.3-.17-.11-.35-.29-.54-.41-.19-.11-.38-.22-.56-.34-.18-.13-.37-.27-.56-.41-.21-.16-.39-.32-.59-.52-.22-.19-.41-.42-.62-.64-.2-.25-.42-.54-.6-.83-.19-.26-.36-.65-.51-.98-.15-.34-.28-.68-.35-1.05-.08-.37-.13-.71-.16-1.03-.05-.31.02-.63.04-.89.02-.26.07-.49.11-.68.08-.37.17-.57.17-.57,0,0,.18.12.43.32.12.1.27.22.41.35.15.13.28.29.47.42.18.13.35.27.51.42.15.16.35.29.53.45.18.16.33.32.54.52.2.19.37.39.57.62.2.25.4.5.58.77.19.27.37.61.52.91.16.29.29.65.4,1.01.11.35.19.69.25,1,.05.3.02.57.02.82,0,.24-.03.47-.04.66-.04.37-.09.61-.09.61Z" fill="none" stroke="#000" stroke-linecap="round" stroke-linejoin="round"/><path d="M274.01,261.34s-.12-.04-.3-.15c-.09-.05-.2-.11-.3-.2-.11-.07-.23-.19-.36-.27-.13-.07-.25-.14-.37-.22-.12-.09-.24-.18-.37-.27-.14-.1-.26-.21-.39-.35-.14-.13-.27-.28-.41-.43-.13-.17-.28-.35-.4-.55-.13-.17-.24-.43-.34-.65-.1-.23-.19-.45-.23-.7-.05-.24-.08-.47-.11-.68-.03-.2.01-.42.03-.59.01-.17.05-.33.08-.45.05-.24.11-.38.11-.38,0,0,.12.08.28.22.08.07.18.14.27.23.1.08.19.19.31.28.12.09.23.18.34.28.1.11.23.2.35.3.12.1.22.21.35.34.14.12.24.26.38.41.13.17.26.33.38.51.12.18.24.4.34.6.1.19.19.43.27.67.07.23.13.46.16.66.03.2.01.38.01.54,0,.16-.02.31-.03.43-.02.25-.06.4-.06.4Z" fill="none" stroke="#000" stroke-linecap="round" stroke-linejoin="round"/><path d="M108,350.16s8.62-3.53,8.16-7.77c-.46-4.24-1.29-9.55,2.11-12.16-.7,2.51.85,9.43,4.27,8.57,3.42-.86,2.6-4.23,3.2-7.88.6-3.65,1.64-5.27,3.5-7.6,1.86-2.34,2.24-3.67,1.46-7.31,3.64,2.27,5.3,6.68,3.31,11.07-1.99,4.4-.55,10.28,2.65,10.64,3.2.36,4.08-4.14,4.08-4.14,0,0,2.87,1.11,2.32,4.35-.55,3.24,2.21,6.39,4.97,5.24,2.76-1.15,4.97-4.24,7.73-2.42,2.76,1.83,5.49,3.09,6.06.28,2.55.98,2.48,3.81.92,5.84-1.57,2.03.79,3.71,3.98,4.13h-58.72v-.84Z" fill="none" stroke="#000" stroke-linecap="round" stroke-linejoin="round"/></svg>