<?xml version="1.0" encoding="UTF-8"?><svg id="uuid-a0563ed3-ce5d-413a-a2e1-3ac15fa59835" xmlns="http://www.w3.org/2000/svg" viewBox="0 0 500 500"><path d="M74.382319,123.93529s39.852988,28.666667,63.926494,90.333333c24.073506,61.666667,33.740173,98.244058,33.740173,98.244058l169.333333-38.271223s-12.976452-87.106277-41.988226-121.206223c-29.011774-34.099946-72.438195-71.766612-72.438195-71.766612l-152.573578,42.666667Z" fill="#fff" stroke="#938c8c" stroke-miterlimit="10" stroke-width="5.669291"/><path d="M129.315492,141.268623s20.983572-1.166667,21.7752-2c.791627-.833333,2.08187-3,2.08187-3l6.876069-4.666667s10.48471-2.5,15.659199-4.333333c5.174489-1.833333,10.639493-3.166667,12.406991-4,1.767498-.833333,4.470352-4.166667,6.118925-4,1.648573.166667,10.406339-3.5,11.027456-4.666667.621117-1.166667,6.90934-4,6.90934-4,0,0,1.045445,1.166667,2.878611,0,1.833166-1.166667,10.581625-4,10.581625-4" fill="#fff" stroke="#938c8c" stroke-miterlimit="10" stroke-width="5.669291"/><path d="M133.533944,160.601956s16.76512-.5,17.556748-1.333333c.791627-.833333,6.77824-5.633442,8.284934-6.233388,1.506693-.599946,6.688739-4.266612,10.597716-6.433279,3.908977-2.166667,13.698119-4.5,15.803548-5.333333,2.105429-.833333,17.657704-2.833333,18.381566-3.333333s11.639287-3.5,12.681575-4,11.307456-6,11.307456-6l6.02196-2" fill="#fff" stroke="#938c8c" stroke-miterlimit="10" stroke-width="5.669291"/><path d="M140.058173,170.601956c1.824146-.166667,15.911046,1.166667,17.367596,0,1.45655-1.166667,2.622862-1.966779,2.622862-1.966779,0,0,1.823246-2.533221,5.328467-3.366554,3.505221-.833333,10.331197-4.5,13.418209-4.666667,3.087012-.166667,7.227878,1.166667,11.657445-3,4.429567-4.166667-7.570433-4.166667,11.429567-9.166667s23.748459-7.166667,23.748459-7.166667l8.538669-5.666667" fill="#fff" stroke="#938c8c" stroke-miterlimit="10" stroke-width="5.669291"/><polygon points="221.38601 151.268623 248.685289 200.268623 292.882319 182.43529 260.747381 133.268623 221.38601 151.268623" fill="#fff" stroke="#938c8c" stroke-miterlimit="10" stroke-width="5.669291"/><path d="M152.159249,184.80282l5.26652,10.799137s2.789174,5.166667,2.622862,6c-.166312.833333.719344,2.833333,2.776516,5.333333,2.057172,2.5,6.605763,1.5,5.331467,3-1.274295,1.5,1.274295,2.5,0,5l-1.274295,2.5,3.091023,3.610982.521258,3.889018" fill="#fff" stroke="#938c8c" stroke-miterlimit="10"/><path d="M165.494779,182.93529s4.053811,7.833333,2.779516,9.666667l-1.274295,1.833333s2.224563,6.333333,3.612281,7.166667l1.387719.833333s1.666667.86753,1.833333,2.433765,1.992643,3.566235,5.079655,9.066235c3.087012,5.5,6.876154,6.5,6.981583,9s1.570433,2.5,2.337931,6l.767498,3.5v1.56471" fill="#fff" stroke="#938c8c" stroke-miterlimit="10" stroke-width="5.669291"/><path d="M177.473135,176.726421l6.378561,15.542202s-.180235-.5,1.925194,2.333333c2.105429,2.833333,6.802737,10.267098,6.802737,10.267098,0,0,2.969358,2.566235,3.136025,3.566235s4.041887,5.333333,3.604277,7.166667l-.43761,1.833333" fill="#fff" stroke="#938c8c" stroke-miterlimit="10" stroke-width="5.669291"/><path d="M193,173h6.319929s4.320156-2.845735,5.941273-4.045622c1.621117-1.199887,6.753204-2.366554,6.753204-2.366554l4.825625-3.333333" fill="#fff" stroke="#938c8c" stroke-miterlimit="10" stroke-width="5.669291"/><path d="M199,183h3.048986s5.833333-4.5,7.833333-4.5,10.553391-4,10.276695-3.5.276695-.5.276695-.5" fill="#fff" stroke="#938c8c" stroke-miterlimit="10" stroke-width="5.669291"/><path d="M74.382319,123.93529s39.852988,28.666667,63.926494,90.333333c24.073506,61.666667,33.740173,98.244058,33.740173,98.244058l169.333333-38.271223s-12.976452-87.106277-41.988226-121.206223c-29.011774-34.099946-72.438195-71.766612-72.438195-71.766612l-152.573578,42.666667Z" fill="none" stroke="#000" stroke-linecap="round" stroke-linejoin="round"/><path d="M129.315492,141.268623s20.983572-1.166667,21.7752-2c.791627-.833333,2.08187-3,2.08187-3l6.876069-4.666667s10.48471-2.5,15.659199-4.333333c5.174489-1.833333,10.639493-3.166667,12.406991-4,1.767498-.833333,4.470352-4.166667,6.118925-4,1.648573.166667,10.406339-3.5,11.027456-4.666667.621117-1.166667,6.90934-4,6.90934-4,0,0,1.045445,1.166667,2.878611,0,1.833166-1.166667,10.581625-4,10.581625-4" fill="none" stroke="#000" stroke-linecap="round" stroke-linejoin="round"/><path d="M133.533944,160.601956s16.76512-.5,17.556748-1.333333c.791627-.833333,6.77824-5.633442,8.284934-6.233388,1.506693-.599946,6.688739-4.266612,10.597716-6.433279,3.908977-2.166667,13.698119-4.5,15.803548-5.333333,2.105429-.833333,17.657704-2.833333,18.381566-3.333333s11.639287-3.5,12.681575-4,11.307456-6,11.307456-6l6.02196-2" fill="none" stroke="#000" stroke-linecap="round" stroke-linejoin="round"/><path d="M140.058173,170.601956c1.824146-.166667,15.911046,1.166667,17.367596,0,1.45655-1.166667,2.622862-1.966779,2.622862-1.966779,0,0,1.823246-2.533221,5.328467-3.366554,3.505221-.833333,10.331197-4.5,13.418209-4.666667,3.087012-.166667,7.227878,1.166667,11.657445-3,4.429567-4.166667-7.570433-4.166667,11.429567-9.166667s23.748459-7.166667,23.748459-7.166667l8.538669-5.666667" fill="none" stroke="#000" stroke-linecap="round" stroke-linejoin="round"/><polygon points="221.38601 151.268623 248.685289 200.268623 292.882319 182.43529 260.747381 133.268623 221.38601 151.268623" fill="none" stroke="#000" stroke-linecap="round" stroke-linejoin="round"/><path d="M152.159249,184.80282l5.26652,10.799137s2.789174,5.166667,2.622862,6c-.166312.833333.719344,2.833333,2.776516,5.333333,2.057172,2.5,6.605763,1.5,5.331467,3-1.274295,1.5,1.274295,2.5,0,5l-1.274295,2.5,3.091023,3.610982.521258,3.889018" fill="none" stroke="#000" stroke-linecap="round" stroke-linejoin="round"/><path d="M165.494779,182.93529s4.053811,7.833333,2.779516,9.666667l-1.274295,1.833333s2.224563,6.333333,3.612281,7.166667l1.387719.833333s1.666667.86753,1.833333,2.433765,1.992643,3.566235,5.079655,9.066235c3.087012,5.5,6.876154,6.5,6.981583,9s1.570433,2.5,2.337931,6l.767498,3.5v1.56471" fill="none" stroke="#000" stroke-linecap="round" stroke-linejoin="round"/><path d="M177.473135,176.726421l6.378561,15.542202s-.180235-.5,1.925194,2.333333c2.105429,2.833333,6.802737,10.267098,6.802737,10.267098,0,0,2.969358,2.566235,3.136025,3.566235s4.041887,5.333333,3.604277,7.166667l-.43761,1.833333" fill="none" stroke="#000" stroke-linecap="round" stroke-linejoin="round"/><path d="M193,173h6.319929s4.320156-2.845735,5.941273-4.045622c1.621117-1.199887,6.753204-2.366554,6.753204-2.366554l4.825625-3.333333" fill="none" stroke="#000" stroke-linecap="round" stroke-linejoin="round"/><path d="M199,183h3.048986s5.833333-4.5,7.833333-4.5,10.553391-4,10.276695-3.5.276695-.5.276695-.5" fill="none" stroke="#000" stroke-linecap="round" stroke-linejoin="round"/><text transform="translate(81.492798 405.55603)" fill="#333" font-family="ComicNeue-Regular, &apos;Comic Neue&apos;" font-size="24"><tspan x="0" y="0">Especially in Québec, people did </tspan><tspan x="0" y="28.799805">not want to fight oversea.</tspan></text><path d="M303.030878,148.528785c-9.096484-10.56363-21.525894-13.274807-21.483416-32.346937-6.292456,9.750697-6.338425,23.182242-2.57958,29.897939,3.758845,6.715697,11.58343,29.492222,5.477985,35.314443-6.105445,5.820871-13.452231-8.161428-12.621565-18.09961.831536-9.938032-3.636347-16.935106-3.636347-16.935106,0,0,2.355916,10.171113-.730369,18.657714-3.086285,8.486601-1.180048,17.422866,3.389873,28.624994,4.569921,11.202278-2.103435,28.573848-10.484089,30.73427-8.381525,2.159072-15.76479-10.061172-16.274106-23.190941-.509317-13.131269-1.880728-27.264306-5.824059-34.469262-3.94333-7.204957-4.75527-13.640927-4.268945-21.196105-4.223056,6.43612-6.623207,8.858721-4.854703,18.420434,1.769288,9.563213-.198155,21.267799-4.439065,27.028525-4.240911,5.760726-10.197566,10.891653-10.197566,24.207557,0,13.315754.487203,22.316513-7.146976,20.544109-7.634092-1.773754-11.238226-13.655626-9.679717-22.685632-4.451777.205033-7.326413,11.253424-5.402327,26.296135,1.924869,15.044212-2.140001,26.145398-8.634878,28.710037-6.49566,2.563289-12.541555-1.618517-14.87884,11.107036-2.337285,12.724053-9.829378,37.158541-15.342274,29.27834-5.51281-7.880201-3.535181-17.465312-1.924869-27.503086,1.610312-10.037774-1.160546-15.259444-1.160546-15.259444,0,0-.241512,10.222258-4.588639,22.379508-4.348085,12.155749-4.689022,37.476365-1.832234,47.096723,2.856701,9.620208,8.128956,14.859577,8.128956,14.859577h164.957419v-164.779885c0-15.91429-4.873421-26.127699-13.969122-36.69133Z" fill="#ff7b07"/><polygon points="359.269613 281.71561 350.35321 281.332314 343.681114 241.060589 331.922317 191 296.611036 191 281.395 224.219791 268.95475 227.887032 262.559681 215.889623 249.60531 213.223294 245.562063 191 222.444932 204.017881 210.265902 245.928897 178.346808 259.459627 159.291913 295.704259 145.330532 303.758309 133 348.978189 133 350 379.301281 350 359.269613 281.71561" fill="#603330"/><polygon points="137 266.015184 148.570385 251 158 251 158 273 170 273 170 232 180 232 180 283.906716 185.3125 287.807746 187.703125 298.577474 191.116831 302.891676 197 327.503535 197 342 137 342 137 266.015184" fill="#291612"/><polygon points="202 319 195.587498 319 192.654596 325.679388 189.721694 333 179.892036 333 174.867293 327.244946 171.42931 315.5864 160.586443 311.177251 155.297239 288.652683 137.842867 282 127 282 127 329.499213 121.456818 332.799592 119.34513 350 202 350 202 319" fill="#351d19"/><path d="M141.660679,293.598445c-1.641135,1.595829-1.679051,1.628432-2.524244,1.791583.582613-.998278,1.399028-1.460204,2.524244-1.791583Z" fill="#452a25"/><path d="M139.136434,295.390027c-.009243.014431-.021532.024853-.029724.040487-.006197.003875-.010293.009086-.016385.013095-.002101-.015767.001996-.028728-.002101-.044362.018486-.004009.030774-.006547.04821-.00922Z" fill="#452a25"/><path d="M128.21332,304.616918c-.065645.134422-.141478.251874-.21332.375741v-.275258c.033828-.039151.071842-.071754.104612-.112241.017443-.022181.065645-.001336.108708.011759Z" fill="#452a25"/><path d="M146.02981,349.999998l-.010241-.009426c-.123284-1.453683-.350592-2.88885-.809428-4.22874-.600424-1.753354-.84661-3.645481-1.342522-5.42967-.514859-1.851712.412356-3.858557-.504574-5.609786.634919-.854636-.084131-.992933-.424645-1.060813-1.231922-.245327-1.799095-1.227972-2.348938-2.588896-.651505-1.615989-1.927001-2.60396-3.118145-3.585413-.129491-.106695-.303813-.128875-.463725-.078083-1.374372.436539-2.567156-.247436-3.764172-.924495-.617823-.34985-1.217675-.87863-1.85953-1.001003-.726054-.138426-1.386217-.554372-1.869092-1.113968-.482352-.558991-.983054-.873102-1.514798-.977673v-.742395c.765159.117452,1.48117.503615,2.109885,1.349165.30061.404755.815864.67619,1.337113.810566.63142.162779,1.232202.465939,1.798583.856558,1.126842.777156,2.290676,1.129207,3.565247.891841.407209-.075763.845193-.114914,1.2021.217935,1.279073,1.195235,2.763282,2.066841,3.594086,3.962915.495436,1.130028,2.372465,2.048668,3.345798,1.774613.765272-.216599,1.024701-.742529,1.097585-1.850376.100516-1.51098.280961-3.011671.428741-4.517439.746687-2.280943.938469-4.710745,1.189915-7.128779.049889-.479762.048399-1.263919-.020066-1.741385-.232406-1.620778-.575584-3.217141-1.13813-4.682421-.536399-1.398872-.874917-2.766344-.936466-4.338789-.090223-2.33956.08308-4.547504,1.107774-6.547935.354903-.695494.510876-1.473165.70361-2.25872.27697-1.139114-.003046-2.34878.387787-3.440993.644154-2.359202.667681-4.62968-.556993-6.739681-.101558-.174909-.119001-.426784-.175404-.644585-.27276-.733443-.633869-1.004826-1.167222-.361577-.726184,1.431476-1.324245,3.005257-2.607309,3.828626,1.027731-1.179601,1.373392-2.959559,2.309858-4.208242.230756-.450167.453319-.870403.126144-1.435484-.254388-.438409-.157968-.982511-.175404-1.509644-.001996-.062668.011343-.11625.011343-.177448l.710752.271383c-.015335.459253.063649.892451.367192,1.23051.527261.589801.611392,1.227838.721045,1.955936.648258.254547.643217,1.131364.815469,1.695109.640066,2.083944.94781,4.23697-.252287,6.23994.13024,2.189638-.133391,4.214789-1.003153,6.198251-1.353977,3.089972-1.393889,6.339087-.151779,9.559606.142529.367991.273819.742529.39387,1.120942.237906.759365.424645,1.550131.707706,2.279564.288208.742529.053356,1.620682.625684,2.359202.395971.50896-.572328,1.248816-.404172,2.074858.032875.164353.028779.360107-.008193.525796-.283062,1.286631.137487,2.678956-.431787,3.940734-.688267,1.528083-.656451,3.255795-.659497,4.954645-.002101.878287.010188,1.757777.017443,2.63593,1.326232.487982,2.647326,1.092213,4.00329.092599.182546-.135625.433888-.117319.65435-.170901,2.223456-1.573591,4.407367-3.243368,6.842311-4.283452.955551-.408163,1.853718-.992884,2.723061-1.641892,2.1973-1.640393,4.667189-2.279028,7.044938-3.255849.473896-.523258,1.055459-.337926,1.590808-.352357,1.201147-.033806,2.432018-.054784,3.495678-.77246.144629-.09781.291254-.164353.436934-.24653l.16722.568822c-.133391.07309-.268786.124-.401126.210185-.805176.52446-1.740592.695494-2.676008.720214-.867775.022181-1.73345.159276-2.600175.245327-2.918107,1.297053-5.894717,2.410112-8.586164,4.427513-1.261646.946033-2.686301,1.431476-3.965382,2.353991-1.14569.827378-2.199162,1.877768-3.450515,2.462357-.728179.711128-1.527272,1.243472-2.404185,1.591954-.478001.189207-.855486.42665-1.312901-.264969-.270773-.405805-.98058-.64846-1.168264.44509-.074896.434534-.316995.377077-.632932.356232-1.129305-.07309-1.300613.14872-1.330337,1.453523-.011238.469809.012289.946166-.152822,1.379364-.389774,1.019123-.356899,2.141267-.020481,3.056033.431787,1.17439.625676,2.415323.921026,3.62098.497537,2.037043,1.278031,4.003402,1.239064,6.203462l-1.37445-.000002Z" fill="#452a25"/><path d="M127.546037,304.586854c-.011343.014431-.025733.022181-.036971.036612-.007142-.001336-.015335-.004009-.023632-.006547.002101-.005211.006197-.010422.008298-.015634.018381-.004009.034878-.010422.052306-.014431Z" fill="#452a25"/><path d="M127.546037,304.586854c.723049-.930399,1.732407-1.110386,2.610363-1.628432-.723146.934274-1.617494,1.415708-2.610363,1.628432Z" fill="#452a25"/><path d="M134.924857,299.253795c.271823-.429322.516968-.636701.844248-.630288-.164165.387633-.367289.691619-.844248.630288Z" fill="#452a25"/><path d="M148.727756,346.159241c.081085-.243991.259534-.545439.496487-.324831.199036.182659.149776.525796.032875.791968-.118056.268844-.32728.375874-.643217.426784-.119947-.408478.031825-.655141.113855-.893921Z" fill="#452a25"/><path d="M194.175776,332.679746c1.502589.06534,2.959069-.301314,4.453571-.720214-1.336533,1.597165-2.907919.989058-4.453571.720214Z" fill="#452a25"/><path d="M147.509278,348.716041c.13234.425314.140533.854636.112804,1.283959h-.192839c-.001996-.427986.096428-.858645.080034-1.283959Z" fill="#452a25"/><path d="M135.769105,298.623508c.004096-.011759.010188-.020845.015335-.032603.013347.005211.025628.002672.038967.007884-.006092.006547-.013339.012961-.019431.020845-.012394-.001336-.022582.003875-.034871.003875Z" fill="#452a25"/><path d="M138.973319,296.029401c-.826708.867731-1.58777,1.845164-2.533479,2.513267-.190738.134422-.406159.129211-.616433.056121,1.036982-1.139248,2.063776-2.299207,3.266918-3.155179.045059.224349.019431.442284-.117006.585792Z" fill="#452a25"/><path d="M199.746527,332.054803c-.296401.163017-.534403.086052-.576416-.43587.790787-.398055,1.58672-.797313,2.380658-1.196571.090223-.571495.241049-1.14045.258484-1.715953.016395-.555861.084131-1.075244.190748-1.582868v5.31355c-.100525-.502413-.157978-1.027007-.147685-1.585406-.701614.403133-1.399028.818158-2.105789,1.203118Z" fill="#452a25"/><polygon points="281 253.37807 296.930219 213.385878 306.206759 216.355859 314.435919 231.275915 320.562441 226.154244 324.413969 229.494755 325.98945 236.175776 339.118463 238.879452 349.446269 230.830959 356.623113 232.545577 374.277552 258 281 258 281 253.37807" fill="#291612"/><polygon points="245 348.304325 254.116565 339.072943 273.151181 338.416214 284.077513 327.55969 289.927329 309.716353 292.282639 310.59243 295.434374 316.238726 307.307456 313 326.407632 313.219348 337.764493 321.319447 351.01382 302.080561 357.724692 287.667191 362.886902 288.477858 364.263147 317.985758 381.643274 326.652746 388.009311 341.458709 398.937708 344.825761 401.431056 350 245 350 245 348.304325" fill="#291612"/><path d="M383.754516,332.694685s.350807,5.664437-4.02588,8.361699c-4.376688,2.697128-6.126522-4.033466-6.478275-9.383494-.351858-5.350028-2.624857-1.330993-6.475334-4.7629-3.850477-3.431773,3.150963-10.821384,3.150963-10.821384,0,0-9.803696-.22181-12.853093,5.782023-3.049397,6.003699-6.403492,2.904641-11.655097,1.988539-5.251605-.915968-4.900798-7.769226-2.196011-13.728697,2.704787-5.959337,1.321094-15.197987-1.829869-15.14975-1.225725,7.397494-4.551041,5.964682-7.988111,12.755272-3.437175,6.790724-7.242489,7.462701-8.467268,15.853128-1.224674,8.390427-4.551041,10.316432-12.04067,8.667022-7.489734-1.649277-3.714145-5.031611-1.142644-12.237226,2.571396-7.205615,0-13.305922,0-13.305922,0,0-4.846496,4.923378-9.255954,10.666117-4.409563,5.742872-7.494881,16.082821-14.847128,15.522952-7.352247-.559736-5.951119-13.693421,0-26.189069,5.951224-12.495514,9.103132-25.809319,6.469137-28.920136-2.284238,7.132525-9.269293,9.791838-15.221462,11.704748-5.952169,1.913044-7.352247,15.345504-13.941331,16.125847s-8.11541-18.928669-6.494765-25.727143c-5.190056,6.982469-7.922571,14.815699-8.878458,23.33654-.956013,8.520974.255322,14.194631-4.996283,19.969973-5.251605,5.775476-11.757608,14.958005-5.538763,26.797175h147.864521c4.558169-9.293434-3.158224-17.305315-3.158224-17.305315Z" fill="#ff7b07"/><path d="M309,249v-17h-52.40684l-21.140869,15.442648-14.359665-7.575064-19.262145,12.032399-28.368402,4.455998-10.506816,16.043199-5.955263,3.147809v74.45301h116v-63h24v63h12v-82h59v82h9v-82h12v-19h-80ZM188,324h-17v-19h17v19ZM188,301h-17v-4h17v4ZM212,324h-22v-19h22v19ZM212,301h-22v-4h22v4ZM235,324h-22v-19h22v19ZM235,301h-22v-4h22v4ZM254,324h-17v-19h17v19ZM254,301h-17v-4h17v4Z" fill="#351d19"/><polygon points="344.336717 334.633651 334.708424 331.514951 331.908163 324.165827 319.829472 321.271609 317.028371 307.68642 306 302.118457 306 350 353.089042 350 344.336717 334.633651" fill="#351d19"/><path d="M158,288.630418c.131431.130547.290843.100483.537275-.246663.079706-.113444.261801-.216599.365364-.179987,1.229609.421439,2.338191-.331512,3.493393-.575503,1.008199-.210051,2.004951-.439745,3.034879-.301448.440928.059996.876663.199629,1.080592.670775.885036,2.045996,2.504926,3.303899,3.473696,5.222153.617935,1.220088,1.314614,2.360538,1.672763,3.780255h.658319c-.13461-.591137-.331226-1.163968-.598327-1.747221-1.014075-2.215234-2.33441-4.07683-3.687963-5.922705-.655465-.893875-.752826-2.236139-.232485-3.262348,1.198048-2.362774,2.448257-4.618567,4.657413-5.615012.165666-.074427.310558-.260961.436794-.429322.529008-.700706,1.137616-.82858,1.894189-.692956,1.097233.195754,2.206867.134422,3.235735-.535016.25258-.163017.525828-.290892.798025-.130414.609659.357568,1.094044.173573,1.667463-.266172.831192-.638171,1.434712-.225819,1.780354,1.012576.192588.687611.499966,1.330993.989545,1.640191.845713.532477,1.262793,1.491471,1.753432,2.398353.811477,1.188821,1.517493,2.429754,1.997744,3.926436.50304,1.564562,1.418072,2.731201,2.855752,3.027304.393347.08231.850907.161814,1.125109.610779.455449.743731.958489.535016,1.532013.271383.772154-.354896,1.554696-.836464,2.40963-.35356.865322.489318,1.795828.521921,2.714994.635365,1.378749.169698,2.737782.32884,4.024424,1.156218.812537.524594,1.756505.695494,2.700473.720214.875709.022181,1.749298.159276,2.623956.245327,2.356942,1.038765,4.750038,1.966492,7.005449,3.327549v-.01697h.735905c-.128357-.09006-.268055-.160478-.393338-.257086-2.273006-1.768199-4.853496-2.416659-7.334565-3.426696-.478132-.523258-1.065117-.337926-1.60536-.352223-1.212129-.03394-2.454253-.054918-3.527522-.772593-1.148013-.767248-2.351768-1.021662-3.595906-1.175592-1.199693-.147774-2.410767-.185463-3.555348-.774288-.235947-.121382-.609961-.135024-.853656-.030062-1.297941.559037-2.443722.358224-3.774347-.298286-1.443934-.7138-2.369353-1.695109-2.884785-3.457963-.394407-1.351971-1.025803-2.491086-1.931508-3.37445-.427515-1.028893-.852953-2.046327-1.054038-3.21758-.107957-.628813-.303273-1.25748-.702827-1.75489-.557194-.693659-.669017-1.431928-.197307-2.317994.296028-.554525.347752-1.179601-.247395-1.958608.109702,1.567234-.599387,2.633258-.502086,3.977346-.628217-.061332-1.082606-.662891-1.583632-.355029-1.435666.883498-3.074202.450301-4.518136,1.153545-.862248.420236-1.663338-.362779-2.456267-.039151-.658319.268844-.981277-.084849-1.276254-.670641.090094,1.221291-.304304,2.047332-1.255479,2.459685-.30229.130414-.573516.375741-.865428.547977-.859068.506421-1.591899,1.167976-1.98937,2.322724-.401605,1.169179-1.35808,1.740807-1.904577,2.762469-.175947.331512-.475058.332715-.75456.320956-1.875535-.083513-3.650695.549447-5.447583,1.118403-.820911.259624-1.682099.455378-2.524632.181323v1.019123Z" fill="#452a25"/><path d="M172.274902,278.024977c-.018486-.271383-.038967-.563745-.081085-1.176929-.104612.668102-.247132,1.012576.081085,1.176929Z" fill="#452a25"/><path d="M172.278999,278.092856c0,.001336.034871-.037815.034871-.037815-.019527-.007884-.022582-.022181-.038967-.030065.00105.022181.001996.045698.004096.067879Z" fill="#452a25"/><path d="M172.278999,278.094192c.010293.022181.022582.039151.03382.061332-.001996-.036612.005147-.064004.00105-.100483l-.034871.039151Z" fill="#452a25"/><path d="M253.889151,346.774289c.238003-.7138.252287-1.448445.124148-2.196185-.635969.669438-.005147,1.473299-.124148,2.196185Z" fill="#452a25"/><path d="M254.013299,344.578103c.006092-.006547.009138-.014297.016385-.022181-.003046-.014297-.010293-.02472-.014389-.039151-.001996.005211-.005147.010422-.008193.015767.003046.015634.003046.029931.006197.045565Z" fill="#452a25"/><path d="M235,299.116217v1.253485c.5908-.689525,1.2822-1.267225,1.9609-1.826224.0108-.008778.0284-.006234.0391-.01374v-.91432c-.1943.02239-.3838.091979-.5537.24973-.4688.438523-.9668.831119-1.4463,1.251068Z" fill="#452a25"/><path d="M231.645828,304.532063c1.247952-.24852,1.822506-1.243816,2.379504-2.622585.133956-.333119.309621-.623871.490392-.909479h-1.229226c-.102781.182464-.202583.3675-.291959.571081-.501883,1.144733-2.403327,2.075327-3.389336,1.797706-.775116-.219417-1.038027-.752056-1.111762-1.874319-.010427-.165274-.030207-.329194-.04373-.494467h-.893538c-.00415.549964-.006278,1.09844-.011385,1.647051-1.343499.494467-2.68189,1.106426-4.055499.093939-.184921-.137525-.439534-.118981-.662865-.17326-.738834-.523434-1.475433-1.049575-2.216288-1.56773h-1.279117c.927894.732293,1.830795,1.525498,2.865737,2.009272.737663.720382,1.547146,1.259788,2.43547,1.61267.484221.191669.866619.432202,1.329986-.268282.274403-.411086.99335-.657034,1.183581.450746.015534.087171.041496.142669.069585.195594h3.755135c.023833-.333119.436342-.42029.675314-.467937Z" fill="#452a25"/><path d="M366.524819,262.551479c-.163537-1.984007-1.703327-3.309257-1.464689-5.4245-.876146-.430757-.263601-.956921.024963-1.208807,1.044911-.90915,1.228304-2.125829,1.263707-3.679079.027096-1.155743.362506-2.219879.795924-3.239093h-.887667c-.479184,1.068207-.889588,2.178893-.955301,3.49885-.065607,1.310729-1.471943,3.19675-2.457527,3.487043-.777163.226507-1.194914-.111421-1.641774-1.0868-.612665-1.327964-1.292937-2.604357-1.94614-3.903143-.53435-.609629-.995946-1.290914-1.433418-1.99595h-.924058c.166645.323407.365692.621571.638574.861514,1.156389,1.019079,1.721036,2.6201,2.306485,4.176064.304246.803157.594836,1.6169.889694,2.426707-1.048004,1.184786-2.051204,2.473121-3.637826,2.309993-.214636-.022529-.437593.13395-.658416.208186-2.666026-.213984-5.328517-.544587-8.006506-.080251-.846873.146839-1.709384.111545-2.56109-.004005-2.663258-.361321-5.222403.463312-7.815686.901935-.614572-.216057-1.083422.27835-1.579261.561993-1.112651.63745-2.248132,1.302721-3.471195,1.235136-1.306379-.070164-2.48677.359236-3.670256.903857-1.138076.524713-2.248227,1.156547-3.487274,1.248476-.258339.019167-.611999.216642-.79708.446733-.986082,1.225883-2.094782,1.672552-3.528954,1.803778-1.557392.140464-2.73469-.249171-3.808724-1.581207-.821954-1.021793-1.78771-1.718957-2.91379-2.029064-.708461-.675857-1.410615-1.341264-1.981556-2.237114-.34169-.535529-.724984-1.1001-1.287603-1.338686-.768828-.324629-1.137614-.942264-1.011521-2.031643.078088-.671921-.088543-1.273679-.897055-1.659379.637614,1.377093.359505,2.744821.910616,3.922957-.592822.290293-1.212728-.010586-1.561671.547471-1.000106,1.600886-2.637826,2.107236-3.7077,3.546486-.639641.861514-1.635587.584521-2.246093,1.317379-.504172.609764-.919896.463871-1.389706.088893.502145,1.070786.427139,2.044943-.295806,2.947443-.229263.286357-.391734.660114-.596982.97945-.607318.937107-1.044911,1.946957-1.009494,3.225929.036484,1.292136-.635481,2.343107-.78131,3.581093-.045872.401443-.316727.56715-.575101.710329-1.73245.956921-3.128426,2.515464-4.565071,4.026371-.810433.850793-1.704287,1.6606-2.856516,1.638071-.045872.145757-.091743.294229-.137508.441343.231278.022529.525069-.060917.681352.090114.3802.369821.649989.597686.835502-.198821.033284-.148336.162471-.343221.268722-.367107,1.262641-.291514,2.010667-1.591657,2.977382-2.451814.8934-.793773,1.769195-1.599287,2.830872-2.025378.37401-.150104.814298-.097956,1.11584.169414,1.494116,1.324797,3.356727,1.597048,4.868837,2.799585,1.312673,1.041743,2.702367,1.874079,3.560804,3.835557.415617.950271.787604,1.88195,1.053232,2.838871v-2.271721c-.15319-.2451-.299018-.494271-.410497-.765971-.465649-1.1305-1.076167-1.980071-1.930338-2.727586-1.683501-1.472285-3.523162-2.451709-5.387777-3.397999-.90341-.45848-1.450828-1.636079-1.330481-2.86395.27705-2.826662.637862-5.581751,2.302109-7.712415.125027-.158921.192767-.410807.248986-.634736.239599-.933036.749105-1.386321,1.483464-1.679193,1.063686-.424107,2.050244-1.092093,2.755492-2.272943.173992-.288936.378173-.5567.680285-.559279.677192-.008007,1.053232-.444057,1.423084-1.162393.536496-1.044321,1.226157-.997907,1.965862-.053064.411457.524943.911563.944979,1.462674.958279.951128.022529,1.65947.671921,2.416884,1.232557,1.144975.642743,2.213781,1.391614,3.163855,2.499586.993919,1.156964,2.226263,1.721671,3.633772,1.202021.386507-.141821.829221-.320693,1.233411-.060936.668871.430757,1.054298-.03705,1.484531-.595107.514932-.667999,1.002636-1.431231,1.767689-1.612095.792214-.187285,1.595943-.331569,2.340287-.661162,1.538231-.681124,3.007547-1.506675,4.698184-1.449522.918817.033114,1.834541-.330057,2.70034-.827043.803178-.462514,1.643908-.819036,2.468955-1.221971,3.120117-.433336,6.231914-1.068207,9.392676-.7144,1.481437.165707,2.954447-.18145,4.444205-.047636,1.334541.121871,2.660776.4997,4.008745.339286.91263.246457,1.827287.290293,2.752398.123229.502133-.092693.930339-.084821,1.112651-.974157.108278-.522093.675058-1.139729,1.223063-.241164.21869.356521.420845.169643.702154-.025243,1.010454-.69445,1.243865-.5871,1.719969.592529.171858.425329.313527.874679.613612,1.179493.708342.718336,1.062633,1.765371,1.068807,2.791236.008321,1.316021.256347,2.561743.400042,3.831486.037565.330057.067741.662693.095904.995329h1.433432c-.081289-1.843543-.462556-3.627507-.613612-5.448521Z" fill="#452a25"/><path d="M228.469072,341.37589c-.258379.015767-.406159.150189-.372224.429322.051245.425447.383567.473684.616423.587262.181495.088724.320978-.095271.263526-.408478-.071737-.383624-.19788-.658882-.507725-.608107Z" fill="#452a25"/><path d="M255.846214,342.466901c.148725-.067879.517924-.332848.238948-.816955-.551828.173573-.909788.74774-1.371299,1.094886-.342615.255749-.618534.341801-.978584-.020978-1.279081-1.290506-2.842169-2.070849-3.962336-3.664139-.256383-.366654-.588705-.726761-1.003057-.857309-.558036-.391374-1.083196-.932938-1.678098-1.137778-1.005157-.34581-1.679043-1.029545-2.180676-2.192177-.365092-.845684-.887196-1.608924-1.708767-1.864673.900545,1.304803,1.436009,3.020757,2.613514,3.951156.911784.72155,1.94572,1.190023,2.926299,1.772074,1.094434,1.3962,2.259661,2.676283,3.63201,3.614432.728293.499874,1.380647,1.097425,1.641127,2.171332.471804-.882028.998015-1.671458,1.83092-2.049871Z" fill="#452a25"/><path d="M221.188667,345.573709c.036981.417564.174353.785554.397967.691619.295465-.126539.49239-.519249.467718-.979972-.013349-.253077-.116911-.441081-.34252-.431861-.415507.020845-.5385.349685-.523165.720214Z" fill="#452a25"/><path d="M308.474019,290.157845c-.449222-.896459-1.033936-.733309-1.530318-.605434-.978584.254413-1.972398.309198-2.956128.480098-.098415.067879-.123098.164487-.072787.292361,1.521075.563745,2.963271-.584589,4.559233-.167026Z" fill="#452a25"/><path d="M377,273.485689c-.028439.009115-.05784.015589-.084217.024572-2.49763.803742-4.892974,1.961004-7.184787,3.457519-.100416.06579-.146003.272142-.217032.412836-.073002.070942-.140915.147036-.217032.211504-1.024003.872157-.977752.838757-1.296933-.750758-.000118-.00004.000057.000019-.000061-.000021l-.000004,3.329782c.157218-.201332.309244-.410326.472589-.606374.834585-1.002432,1.797936-1.829425,2.702525-2.736344,1.882139-.994638,3.729816-2.127328,5.82495-2.848503v-.494214Z" fill="#452a25"/><path d="M374.467893,291.22133c-.22771.156603-.315937.358771-.190843.592339.190843.355029.506675.216732.754971.191879.193798-.019509.258484-.260961.100516-.512835-.19494-.306659-.402063-.486646-.664643-.271383Z" fill="#452a25"/><path d="M303.985577,290.031307c-.521064-.241452-.919031.159142-1.661608.33659.761063.386297,1.156929-.14872,1.590816-.043026-.05031-.127875-.025628-.224482.070792-.293564Z" fill="#452a25"/><path d="M369.909605,299.402909c.223613-.275258.268777-.737184.090223-1.14045-.097365-.220474-.254283-.334051-.455314-.202168-.367297.24653-.367297.610645-.22771.936813.174353.356232.422544.613318.592801.405805Z" fill="#452a25"/><path d="M302.313676,264.802568c-.108708-.234905-.225714-.487982-.471804-1.017787.132235.660219.119947,1.049054.471804,1.017787Z" fill="#452a25"/><path d="M302.340354,264.861361c0,.001203.018486-.053582.018486-.053582-.020586.003875-.027728-.00775-.045164-.005211.008193.019642.017435.040487.026678.058793Z" fill="#452a25"/><path d="M302.340354,264.862564c.017435.014431.03382.023517.051256.036612-.014389-.031401-.016385-.060129-.03277-.091396l-.018486.054784Z" fill="#452a25"/><path d="M302.213981,350c2.213446-1.073907,4.471006-1.992548,6.786019-2.682831v-.688947c-.02739.011559-.043223.031766-.079066.035868-.901686.103183-1.800783.210417-2.609661.727701-1.690477,1.081076-3.548743,1.683793-5.29739,2.608208h1.200097Z" fill="#452a25"/><path d="M309,307.729465v-.353693c-.060498-.116116-.120052-.233569-.1795-.349685.051256.242788.114905.472348.1795.703378Z" fill="#452a25"/><path d="M308.194824,290.460629c.270773.22956.549738.39271.805176.570158v-.434534c-.232856-.053448-.474955-.240116-.805176-.135625Z" fill="#452a25"/><path d="M238.044113,327.798561c-.321073-.575503-.608241-.63296-.844248-.692956-2.555011-.649796-5.138696-.919977-7.741916-.822033-.114905.003875-.22771.167026-.340619.257086-.090223.02472-.17845.056121-.269722.07309-1.197051.22181-1.182661.224349-.949805-1.26445.070792-.448965.140533-.899132.210274-1.349299h-1.539561c.009243.279267.021532.557197.050205.832455.155973,1.491605-.448162,2.305754-1.318993,2.975192-.313931.240116-.664643.40193-.977534.645921-.742577.580714-1.649319,1.003489-2.167337,1.824186-.841097,1.328454-1.941623,1.842492-3.079121,2.477991-1.305917.729928-2.789486,1.15978-3.690953,2.781037-.640383,1.151706-1.50983,2.037734-2.404427,2.871329-.50988.475111-.887164,1.128952-.947118,1.972149-.810332,1.009903-1.8011,1.834608-2.228896,3.25045-.469704,1.554139-.44102,1.561889-1.707707,1.490135-1.042138-.058659-2.039103.152728-2.958134.816955,1.090233-.144845,2.153893-.420236,3.253474-.212724.833955.156603.888256.233569.672836,1.332329-.137372.708455-.558981,1.392191-.176349,2.239077.252287-1.007364.510771-1.936427.716949-2.884999.419498-1.933888.946759-3.771169,2.292431-5.012102.171307-.159276.266686-.458051.395971-.691619,2.230882-4.127401,5.153085-6.981133,9.013855-8.105949.436934.876817.111754,1.835945.27697,3.019554.138432-.957791.134336-1.605049.16407-2.228789.0503-1.02567.298491-1.850376.906732-2.419331,1.448288-1.347829,3.066832-2.320051,4.764361-3.015546,1.104728-.45284,2.267853-.67465,3.403355-1.002153,2.353979.152728,4.719197.074427,7.220957.843011Z" fill="#452a25"/><path d="M168.081811,302.901359c-.969236-.306659-1.885221-.801188-2.830922-1.186149-.111868.007884-.166169.082177-.164174.224482,1.182661,1.341415,2.873048,1.094752,4.17156,2.344905-.101566-1.054399-.685124-1.227972-1.176465-1.383239Z" fill="#452a25"/><path d="M165.18304,343.427231c.496382.220474,1.093384.061332,1.644173.083513.458465.01697.952851-.09006,1.369303.093935,1.495552.655007,3.068933.67465,4.597255,1.045179,2.065771.473684,4.131552.939619,6.195213,1.427601.901596.21406,1.789852.535016,2.695544.695494,1.002111.177448,1.687341-.998278,2.634004-1.149537.264681-.041823.518009-.232366.769351-.37721.16301-.095271.291254-.24653.263526-.578042-.863073.092054-1.611264.612601-2.370708,1.044083-.648511.368455-1.422341.439331-2.142477.24509-2.288902-.617383-4.590544-1.160604-6.885424-1.734129-.580512-.178784-1.188753-.20484-1.76622-.254413-1.474957-.126672-2.867902-.751615-4.324382-.940821-1.318048-.169698-2.664761-.014431-3.948997-.583253-.512863-.227155-1.073953-.036612-1.433898.334051-1.417513,1.461407-3.163252,2.292659-4.479304,3.961578v.818158c1.129305-1.351838,2.376561-2.488413,3.805418-3.373114,1.11187-.690283,2.104738-1.323109,3.377622-.758162Z" fill="#452a25"/><path d="M253.88705,348.221512c-.173303.653671-.241049,1.233049-.237898,1.778488h.399962c-.056402-.554525-.102511-1.137778-.162065-1.778488Z" fill="#452a25"/><path d="M162.15632,339.585643c.031833.953916.347761,1.099963.872922,1.217416.825657.186668.811268.291025.78564-.785554-.595952.469809-1.115966.296236-1.658562-.431861Z" fill="#452a25"/><path d="M165.249839,301.713874c-.388732-.503615-.883118-.360107-1.613407-.605434.555935.76471,1.094434.498538,1.450283.831253-.001996-.142306.052306-.216599.163123-.225819Z" fill="#452a25"/><path d="M262.227124,295.573736c-.352908-.780343-.006197-1.50323-.45857-2.124431-.01942.516844-.099465.938283-.038967,1.324579.265731,1.706734-.31079,3.101597-.96514,4.462655-.497432,1.034757-.88416,1.153545-1.487255.280603-.795933-1.151006-1.81757-1.746018-2.873048-2.321388-1.315947-.719012-2.563203-1.5516-3.414594-3.120037-.230756-.425447-.512767-.835128-.939512-.985183-.439034-.469809-.929219-1.1327-.66979-1.77341.404164-.996942.160069-1.830733-.095369-2.669736-.241049-.790766-.012289-1.501894.285162-1.986,1.296527-2.120556,2.872009-3.672023,5.148989-3.578088.845193.036612,1.714019.074427,2.518145-.40968-.099465-.105694-.199036-.211388-.298501-.317081-.871871-.003875-1.737546.028728-2.605321.193082-.765159.144845-1.546703.266172-2.307765-.087388.051256-.572831-.347761-.775132-.569274-1.115731-.739531-1.135239-1.846254-1.760315-2.589882-2.826339-1.250407-1.794255-3.136679-2.292659-4.447479-3.904255-.017435-.022181-.065645-.001336-.108708.011759.491235,1.016451,1.159029,1.740673,2.030901,2.210483.539456.292361,1.14464.531141,1.530318,1.135239,1.1939,1.873893,2.904779,2.996037,4.160216,4.774659.004096.358771-.198931.568822-.410255.609309-1.632923.318417-2.12627,2.166121-2.87809,3.598932-.336418.639374-.418542,1.57632-.053356,2.355327.192839.411016.019536.747606.017435,1.119606-.005147,1.19911-.788791,1.570975-1.246206,2.312168-.451323.73077-.837001.840339-1.501644.724223-1.302608-.227021-2.535569-.052112-3.545884,1.306273-.306103.41203-.834797.685951-1.365755.817677-.623762.154749-1.211017.464288-1.769853.849274-.332929.229357-.6691.407929-1.010324.559165h1.428857c.468267-.305552.9328-.63661,1.421263-.737019.738773-.151863,1.413237-.570994,1.909076-1.139318.906216-1.038691,1.875744-1.237577,2.998265-.74396.657501.289689,1.212386.160478,1.696478-.587128.566228-.87174,1.29242-1.017787,2.073019-.409814,1.448288,2.477991,3.408397,4.002199,5.652618,5.009563.52306.234771.944659.641913,1.316998,1.208329.497432.758029,1.074899,1.430139,1.542606,2.528767.345672-1.894604,1.297567-3.147295,1.758132-4.732835.532303-1.838483,1.925238-2.965973,3.492539-2.924149.033809-.442417-.378547-.634163-.351858-.976097-1.052328.519383-1.980601,1.411833-2.978616,2.077397Z" fill="#452a25"/><path d="M164.453897,320.057954c-.39177,2.673745.199036,5.159619.915985,7.621843-.824712.182793-1.433995-.583253-2.248422-.366654,1.165235.8378,1.50574.957791,2.968417.973425-1.133401-2.674947-1.337479-5.463472-1.63598-8.228613Z" fill="#452a25"/><path d="M312.205599,251.316526c-.386728.399391-.527261.965675-.736485,1.525411.17845.052246.264576.075763.350807.103155.259429.087388.517926.177448.778498.264836-.023632-.404469.310802-.87027-.164165-1.213541-.100516-.071754-.085076-.411016-.122047-.625076.303648-.377077.605195-.752817,1.079112-1.343954-.756979.233569-1.075016.618529-1.18572,1.28917Z" fill="#452a25"/><path d="M246.249746,274.855367c-.723146-.930265-1.732505-1.110386-2.610468-1.628432.723146.934274,1.617494,1.415842,2.610468,1.628432Z" fill="#452a25"/><path d="M265.560633,294.758931l.021532-.030065c-.008193,0-.016385.001336-.024566.001336-.00105.010422.004085.018172.003035.028728Z" fill="#452a25"/><path d="M246.249746,274.855367c.011238.014431.025628.022181.036866.036612.007142-.001336.01545-.003875.023632-.006547-.002101-.005211-.006197-.010422-.008182-.015634-.018496-.003875-.034881-.010422-.052317-.014431Z" fill="#452a25"/><path d="M170,307.57941v-.741192c-.388724.198293-.267727.839003-.458465,1.210868.211325-.109569.352803-.275258.458465-.469676Z" fill="#452a25"/><path d="M237.972271,268.867301c.006197.006547.01335.013095.019536.020845.012289-.001336.022477.004009.034871.004009-.004201-.011759-.010293-.020978-.01544-.032737-.013339.005211-.025617.002672-.038967.007884Z" fill="#452a25"/><path d="M238.026678,268.892155c.16406.387499.367192.691486.844143.630154-.271813-.429322-.516968-.636701-.844143-.630154Z" fill="#452a25"/><path d="M208.583764,249.560741c2.38885.741192,4.814671,1.341415,7.226103,1.992548.758017.203638,1.42266-.093935,2.041194-.632826,2.617224.010655,5.240814.321404,7.846844-.259915.345686-.077111.694078.101496.881528.478964.50303,1.012952,1.191462,1.924075,1.432223,3.097945.188743.91864.543646,2.076061-.104612,2.797744-.527261.589801-.611287,1.227838-.721045,1.956069-.648258.254413-.643112,1.131231-.815469,1.694975-.640056,2.083944-.947705,4.23697.252287,6.23994-.13024,2.189638.133391,4.214789,1.003162,6.198251,1.353969,3.089972,1.393986,6.339087.151771,9.559606-.142529.367991-.273819.742529-.39387,1.120942-.237898.759365-.424645,1.550131-.707706,2.279564-.288198.742529-.053356,1.620682-.625676,2.359202-.395866.50896.57232,1.248816.404164,2.074858-.032875.164353-.028779.360107.008193.525796.283062,1.286631-.137487,2.678956.431787,3.940867.289258.641913.446176,1.319234.5385,2.014729h.619595c-.002101-.02619-.006207-.053582-.008308-.079638-.75759-2.314249-.943951-4.781735-1.200921-7.234698-.044179-.421718-.04274-1.111007.016219-1.530913.232622-1.656718.578358-3.290232,1.152982-4.786974.536399-1.398872.874917-2.766344.936466-4.338789.090223-2.33956-.08308-4.547504-1.107774-6.547802-.354903-.695494-.510771-1.473299-.70361-2.258853-.27697-1.139114.003046-2.34878-.387779-3.440993-.644162-2.359202-.667679-4.62968.556995-6.739681.101556-.174909.118991-.42665.175404-.644585.272863-.733443.633859-1.004826,1.167212-.361443.726192,1.431342,1.324245,3.005123,2.607317,3.828492-1.027739-1.179601-1.3734-2.959559-2.309866-4.208242-.230756-.450167-.453319-.870403-.126144-1.435351.254388-.438542.157968-.982645.175404-1.509777.054111-1.541538-.584415-2.720901-1.167525-3.905036-.425113-.863286-.53916-1.916166-.317517-2.895065.400096-1.767044.802314-3.517,1.450171-5.137013l-.814419-.430659c-.631873,1.517661-1.021647,3.17736-1.40721,4.809801-.294415,1.248816-.746778,1.916919-1.739657,2.018737-.317922.032603-.631873.125202-.948755.183995-2.048336.369193-4.114107.109569-6.16759.2949-.855381.129077-1.697529.444956-2.574547.211388-2.276991-.604232-4.560179-1.194032-6.824986-1.843828-.283062-.080974-.563067-.144845-.843093-.207513l-.566228.353693c.500583.110905,1.003162.240116,1.508786.396585Z" fill="#452a25"/><path d="M234.659254,265.658541c.009232.014431.021521.024853.029714.040487.006197.003875.010293.009086.016385.013095.002101-.015634-.001985-.028728.002101-.044362-.018486-.004009-.030774-.006547-.048199-.00922Z" fill="#452a25"/><path d="M232.135007,263.866958c1.641127,1.595829,1.679043,1.628566,2.524247,1.791583-.582623-.998145-1.399028-1.46007-2.524247-1.791583Z" fill="#452a25"/><path d="M187.272751,270.752819c-.763163-.203504-1.179616-.029931-1.506791.515508-.484093.147383-.803075.581917-1.180561.973425.143579.144845.21332.212724.281066.284478.205128.220474.408155.44362.613387.66543.11585-.378413.574316-.615857.26258-1.184812-.066695-.119991.062494-.417564.101461-.63149.401118-.174909.80108-.348482,1.428857-.622538Z" fill="#452a25"/><path d="M170,305.936547v-.649796c-.174353-.18012-.331263-.443753-.641011-.524594.205128.441081.452268.798516.641011,1.17439Z" fill="#452a25"/><path d="M174.169366,302.115731c.296401.163151.534412.086052.576425-.43587-.449231-.225685-.901604-.45284-1.352927-.679861h-1.176465c.650368.375874,1.297567.759498,1.952967,1.115731Z" fill="#452a25"/><path d="M234.822359,266.297914c.826708.867865,1.587781,1.845164,2.533479,2.513267.190749.134422.406159.129211.616433.056121-1.036972-1.139114-2.063671-2.299207-3.266918-3.155179-.045048.224349-.019431.442284.117006.585792Z" fill="#452a25"/><path d="M175.166331,302.228045c1.336533,1.597165,2.907928.989058,4.453676.720348-1.502685.065207-2.959174-.301448-4.453676-.720348Z" fill="#452a25"/><path d="M172.069768,301h-.566255c-.049901,1.401239-.278552,2.733715-.879059,4h.461337c.541357-1.227979.991212-2.501032.983977-4Z" fill="#452a25"/><path d="M285.121812,142.946561s-.185592-.067746-.454369-.225685c-.13234-.080974-.300497-.172237-.460566-.301448-.170257-.112241-.354903-.288353-.544591-.407141-.190843-.105694-.38052-.217935-.556974-.337926-.177411-.130547-.365208-.268844-.557942-.411016-.206178-.157939-.385678-.322292-.586709-.523258-.216471-.194418-.414457-.421572-.615488-.644719-.196935-.251741-.420549-.537555-.602032-.827244-.194951-.262297-.363107-.647257-.513934-.983847-.151771-.341935-.283062-.675986-.349757-1.054399-.075938-.365318-.127194-.709792-.159019-1.02567-.045059-.309198.020586-.632826.042118-.892451.021532-.260961.074888-.493327.113855-.677322.08308-.367991.170257-.572831.170257-.572831,0,0,.18055.122664.425695.324965.120997.103021.273819.216599.409205.354896.154922.125336.282116.291025.469809.416228.17636.133086.351764.274055.514867.422775.145691.159276.346711.2949.525161.451503.182546.157939.328225.318417.535454.515508.203027.186534.367192.391374.566123.618529.199036.250538.400079.497068.576533.768585.18663.273922.36508.60677.516956.913429.156918.289555.292304.647124.402074,1.012576.109747.35356.190727.690283.248179.996942.052306.301314.018486.570158.018486.820697.001996.241452-.026678.472348-.043063.65768-.036971.374538-.090328.610645-.090328.610645Z" fill="#ffc454"/><path d="M147.052809,156.257694s-.185592-.067746-.454369-.225685c-.13234-.08084-.300497-.172237-.460566-.301448-.170257-.112241-.354903-.288353-.544591-.407141-.190843-.105694-.380531-.217935-.556985-.337926-.177391-.130547-.365197-.268844-.558036-.411016-.206073-.157939-.385573-.322292-.586604-.523258-.216463-.194418-.414457-.421439-.615488-.644585-.196935-.251874-.420549-.537689-.602044-.827378-.19494-.262297-.363096-.647257-.513922-.983847-.151771-.341935-.283062-.675986-.349757-1.054399-.075938-.365318-.127194-.709792-.159019-1.025537-.045059-.309331.020586-.63296.042118-.892584.021532-.260961.074888-.493327.113855-.677322.08308-.367857.170257-.572831.170257-.572831,0,0,.18055.122664.425695.324965.120997.103021.273819.216599.409205.354896.154922.125336.282116.291025.469817.416228.176341.13322.351744.274055.514859.422909.14568.159142.346711.2949.525161.45137.182554.157939.328225.318417.535462.515508.203019.186534.367184.391508.566123.618529.199028.250538.400059.497068.576513.768585.186642.274055.365092.60677.516968.913429.156918.289689.292304.647124.402063,1.012576.109759.35356.190738.690283.248191.996942.052314.301448.018486.570158.018486.820697.001996.241452-.026678.472348-.043063.65768-.036971.374538-.090328.610645-.090328.610645Z" fill="#ffc454"/><path d="M103.8676,224.935251s-.185592-.067879-.454362-.225685c-.13234-.080974-.300504-.172237-.460573-.301448-.170257-.112241-.354903-.288353-.544584-.407141-.19085-.105694-.380538-.217935-.556992-.337926-.177504-.130547-.36519-.268844-.558036-.41115-.206178-.157806-.385573-.322292-.586709-.523258-.216366-.194418-.414352-.421439-.615383-.644585-.196935-.251874-.420549-.537555-.602044-.827244-.19494-.262297-.363089-.647257-.513922-.983847-.151771-.341935-.283062-.675986-.349757-1.054399-.075938-.365318-.127194-.709925-.159012-1.02567-.045066-.309198.020579-.632826.042111-.892584.021532-.260961.074888-.493193.113855-.677188.08308-.367991.170257-.572831.170257-.572831,0,0,.18055.122664.425695.324965.120997.103021.273819.216599.409205.354896.154929.125202.282116.291025.469809.416228.176349.133086.351753.274055.514874.422775.145673.159276.346704.2949.525161.451503.182539.157939.328218.318417.535447.515374.203027.186668.367192.391508.566123.618529.199036.250538.400067.497202.576521.768585.186642.274055.365092.60677.516863.913429.157023.289689.292409.647257.402168,1.012576.109654.353693.190738.690283.248198.996942.052299.301448.018479.570292.018479.82083.001996.241452-.026678.472348-.043168.65768-.036866.374538-.090223.610645-.090223.610645Z" fill="#ffc454"/><path d="M273.625733,45.512018s-.185592-.067879-.454358-.225819c-.13234-.08084-.300508-.172237-.460577-.301314-.170257-.112241-.354903-.288486-.54458-.407141-.190855-.105694-.380543-.217935-.556997-.33806-.177504-.130414-.365185-.268711-.558036-.411016-.206178-.157806-.385573-.322292-.586709-.523258-.216366-.194418-.414352-.421439-.615383-.644585-.196935-.251874-.420549-.537555-.602044-.827244-.19494-.262297-.363085-.647257-.513922-.983981-.151771-.341801-.283062-.675852-.349757-1.054265-.075938-.365452-.127194-.709925-.159007-1.02567-.04507-.309331.020575-.632826.042107-.892584.021532-.260961.074888-.493193.113855-.677188.08308-.367991.170257-.572831.170257-.572831,0,0,.18055.122664.425695.324831.120997.103155.273819.216599.409205.355029.154934.125202.282116.290892.469809.416228.176349.133086.351753.274055.514879.422775.145668.159142.3467.2949.525161.451503.182535.157806.328214.318417.535442.515374.203027.186668.367192.391508.566123.618529.199036.250538.400067.497202.576521.768585.186642.274055.365092.60677.516863.913429.157023.289689.292409.647257.402168,1.012576.109654.353693.190738.690283.248202.996942.052295.301448.018474.570292.018474.82083.001996.241318-.026678.472348-.043168.65768-.036866.374404-.090223.610645-.090223.610645Z" fill="#ffc454"/><path d="M135.55673,58.823151s-.185592-.067879-.454369-.225685c-.13234-.080974-.300497-.172237-.460566-.301448-.170257-.112241-.354903-.288353-.544591-.407141-.190843-.105694-.380531-.217935-.556985-.337926-.177504-.130547-.365197-.268844-.558036-.41115-.20617-.157806-.385678-.322292-.586709-.523258-.216366-.194418-.414352-.421439-.615383-.644585-.196935-.251874-.420549-.537555-.602044-.827244-.194932-.262297-.363096-.647257-.513922-.983981-.151771-.341801-.283062-.675852-.349757-1.054265-.075931-.365452-.127194-.709925-.159019-1.02567-.045051-.309198.020586-.632826.042126-.892584.021524-.260961.07488-.493193.113847-.677188.08308-.367991.170257-.572831.170257-.572831,0,0,.18055.122664.425695.324965.121005.103021.273819.216599.409205.354896.154922.125202.282124.291025.469809.416228.176349.133086.351753.274055.514867.422775.14568.159142.346719.2949.525161.451503.182546.157939.328225.318417.535454.515374.203035.186668.367192.391508.566123.618529.199036.250538.400067.497202.576521.768585.186642.274055.365092.60677.516863.913429.157023.289689.292409.647257.402168,1.012576.109661.353693.190738.690283.248191.996942.052306.301448.018486.570292.018486.82083.001996.241318-.026678.472348-.043168.65768-.036866.374404-.090223.610645-.090223.610645Z" fill="#ffc454"/><path d="M274.012461,261.339067s-.123098-.044496-.300602-.148853c-.087177-.054784-.198931-.11478-.304593-.199629-.112804-.074427-.23484-.191745-.36005-.270047-.126144-.069215-.252287-.143642-.368243-.223146-.117951-.086185-.241994-.177448-.369188-.272719-.137487-.104491-.255438-.212724-.388724-.34581-.142634-.127875-.273924-.27793-.407209-.426784-.130345-.165689-.27802-.354896-.397955-.546641-.129306-.173573-.240115-.42812-.34063-.651132-.100504-.225819-.186631-.447628-.230744-.696831-.050217-.242788-.084142-.469809-.105674-.679861-.029724-.203638.014389-.4189.027728-.589801.014389-.173573.050205-.326301.075938-.447628.054302-.243991.111754-.379749.111754-.379749,0,0,.120052.080974.282116.215396.079929.067879.181495.143508.270773.234905.102511.082177.186642.191745.31079.275258.116901.087388.232856.181323.340525.279267.096408.105694.229694.195754.347656.298775.121091.104358.21751.211388.353958.341935.135375.122664.243033.258288.375373.408344.13129.165823.264576.32884.381582.50896.123098.181323.241049.400594.341564.604232.103562.191745.193784.427986.265626.669305.072787.233569.126144.456715.164071.660352.034859.199629.012382.377077.012382.542766.001996.159276-.017435.31187-.028779.434534-.023516.248-.059448.404603-.059448.404603Z" fill="#ffc454"/><path d="M108,350.156989s8.624081-3.525842,8.158473-7.768023c-.464662-4.242181-1.294416-9.547847,2.106734-12.162799-.695418,2.513133.85034,9.427723,4.273126,8.569211,3.423836-.858645,2.600175-4.230423,3.202219-7.882803.603199-3.651178,1.643227-5.265313,3.503871-7.602334,1.859593-2.335685,2.238024-3.671889,1.464673-7.306098,3.644299,2.266603,5.300865,6.677146,3.313028,11.074594-1.987838,4.396246-.551839,10.279954,2.65038,10.638725,3.201273.358904,4.0844-4.139026,4.0844-4.139026,0,0,2.869881,1.110386,2.318059,4.349211-.551855,3.240028,2.208389,6.387323,4.968527,5.235115,2.761189-1.153545,4.96856-4.243517,7.729732-2.416659,2.760139,1.825522,5.490553,3.089972,6.057831.280603,2.553961.982511,2.482119,3.814195.91693,5.839346-1.565188,2.026487.793938,3.712376,3.975675,4.133949h-58.723658v-.843011Z" fill="#ffc454"/><path d="M303.030878,148.528785c-9.096484-10.56363-21.525894-13.274807-21.483416-32.346937-6.292456,9.750697-6.338425,23.182242-2.57958,29.897939,3.758845,6.715697,11.58343,29.492222,5.477985,35.314443-6.105445,5.820871-13.452231-8.161428-12.621565-18.09961.831536-9.938032-3.636347-16.935106-3.636347-16.935106,0,0,2.355916,10.171113-.730369,18.657714-3.086285,8.486601-1.180048,17.422866,3.389873,28.624994,4.569921,11.202278-2.103435,28.573848-10.484089,30.73427-8.381525,2.159072-15.76479-10.061172-16.274106-23.190941-.509317-13.131269-1.880728-27.264306-5.824059-34.469262-3.94333-7.204957-4.75527-13.640927-4.268945-21.196105-4.223056,6.43612-6.623207,8.858721-4.854703,18.420434,1.769288,9.563213-.198155,21.267799-4.439065,27.028525-4.240911,5.760726-10.197566,10.891653-10.197566,24.207557,0,13.315754.487203,22.316513-7.146976,20.544109-7.634092-1.773754-11.238226-13.655626-9.679717-22.685632-4.451777.205033-7.326413,11.253424-5.402327,26.296135,1.924869,15.044212-2.140001,26.145398-8.634878,28.710037-6.49566,2.563289-12.541555-1.618517-14.87884,11.107036-2.337285,12.724053-9.829378,37.158541-15.342274,29.27834-5.51281-7.880201-3.535181-17.465312-1.924869-27.503086,1.610312-10.037774-1.160546-15.259444-1.160546-15.259444,0,0-.241512,10.222258-4.588639,22.379508-4.348085,12.155749-4.689022,37.476365-1.832234,47.096723,2.856701,9.620208,8.128956,14.859577,8.128956,14.859577h164.957419v-164.779885c0-15.91429-4.873421-26.127699-13.969122-36.69133Z" fill="none" stroke="#000" stroke-linecap="round" stroke-linejoin="round"/><polygon points="359.269613 281.71561 350.35321 281.332314 343.681114 241.060589 331.922317 191 296.611036 191 281.395 224.219791 268.95475 227.887032 262.559681 215.889623 249.60531 213.223294 245.562063 191 222.444932 204.017881 210.265902 245.928897 178.346808 259.459627 159.291913 295.704259 145.330532 303.758309 133 348.978189 133 350 379.301281 350 359.269613 281.71561" fill="none" stroke="#000" stroke-linecap="round" stroke-linejoin="round"/><polygon points="137 266.015184 148.570385 251 158 251 158 273 170 273 170 232 180 232 180 283.906716 185.3125 287.807746 187.703125 298.577474 191.116831 302.891676 197 327.503535 197 342 137 342 137 266.015184" fill="none" stroke="#000" stroke-linecap="round" stroke-linejoin="round"/><polygon points="202 319 195.587498 319 192.654596 325.679388 189.721694 333 179.892036 333 174.867293 327.244946 171.42931 315.5864 160.586443 311.177251 155.297239 288.652683 137.842867 282 127 282 127 329.499213 121.456818 332.799592 119.34513 350 202 350 202 319" fill="none" stroke="#000" stroke-linecap="round" stroke-linejoin="round"/><path d="M141.660679,293.598445c-1.641135,1.595829-1.679051,1.628432-2.524244,1.791583.582613-.998278,1.399028-1.460204,2.524244-1.791583Z" fill="none" stroke="#000" stroke-linecap="round" stroke-linejoin="round"/><path d="M139.136434,295.390027c-.009243.014431-.021532.024853-.029724.040487-.006197.003875-.010293.009086-.016385.013095-.002101-.015767.001996-.028728-.002101-.044362.018486-.004009.030774-.006547.04821-.00922Z" fill="none" stroke="#000" stroke-linecap="round" stroke-linejoin="round"/><path d="M128.21332,304.616918c-.065645.134422-.141478.251874-.21332.375741v-.275258c.033828-.039151.071842-.071754.104612-.112241.017443-.022181.065645-.001336.108708.011759Z" fill="none" stroke="#000" stroke-linecap="round" stroke-linejoin="round"/><path d="M146.02981,349.999998l-.010241-.009426c-.123284-1.453683-.350592-2.88885-.809428-4.22874-.600424-1.753354-.84661-3.645481-1.342522-5.42967-.514859-1.851712.412356-3.858557-.504574-5.609786.634919-.854636-.084131-.992933-.424645-1.060813-1.231922-.245327-1.799095-1.227972-2.348938-2.588896-.651505-1.615989-1.927001-2.60396-3.118145-3.585413-.129491-.106695-.303813-.128875-.463725-.078083-1.374372.436539-2.567156-.247436-3.764172-.924495-.617823-.34985-1.217675-.87863-1.85953-1.001003-.726054-.138426-1.386217-.554372-1.869092-1.113968-.482352-.558991-.983054-.873102-1.514798-.977673v-.742395c.765159.117452,1.48117.503615,2.109885,1.349165.30061.404755.815864.67619,1.337113.810566.63142.162779,1.232202.465939,1.798583.856558,1.126842.777156,2.290676,1.129207,3.565247.891841.407209-.075763.845193-.114914,1.2021.217935,1.279073,1.195235,2.763282,2.066841,3.594086,3.962915.495436,1.130028,2.372465,2.048668,3.345798,1.774613.765272-.216599,1.024701-.742529,1.097585-1.850376.100516-1.51098.280961-3.011671.428741-4.517439.746687-2.280943.938469-4.710745,1.189915-7.128779.049889-.479762.048399-1.263919-.020066-1.741385-.232406-1.620778-.575584-3.217141-1.13813-4.682421-.536399-1.398872-.874917-2.766344-.936466-4.338789-.090223-2.33956.08308-4.547504,1.107774-6.547935.354903-.695494.510876-1.473165.70361-2.25872.27697-1.139114-.003046-2.34878.387787-3.440993.644154-2.359202.667681-4.62968-.556993-6.739681-.101558-.174909-.119001-.426784-.175404-.644585-.27276-.733443-.633869-1.004826-1.167222-.361577-.726184,1.431476-1.324245,3.005257-2.607309,3.828626,1.027731-1.179601,1.373392-2.959559,2.309858-4.208242.230756-.450167.453319-.870403.126144-1.435484-.254388-.438409-.157968-.982511-.175404-1.509644-.001996-.062668.011343-.11625.011343-.177448l.710752.271383c-.015335.459253.063649.892451.367192,1.23051.527261.589801.611392,1.227838.721045,1.955936.648258.254547.643217,1.131364.815469,1.695109.640066,2.083944.94781,4.23697-.252287,6.23994.13024,2.189638-.133391,4.214789-1.003153,6.198251-1.353977,3.089972-1.393889,6.339087-.151779,9.559606.142529.367991.273819.742529.39387,1.120942.237906.759365.424645,1.550131.707706,2.279564.288208.742529.053356,1.620682.625684,2.359202.395971.50896-.572328,1.248816-.404172,2.074858.032875.164353.028779.360107-.008193.525796-.283062,1.286631.137487,2.678956-.431787,3.940734-.688267,1.528083-.656451,3.255795-.659497,4.954645-.002101.878287.010188,1.757777.017443,2.63593,1.326232.487982,2.647326,1.092213,4.00329.092599.182546-.135625.433888-.117319.65435-.170901,2.223456-1.573591,4.407367-3.243368,6.842311-4.283452.955551-.408163,1.853718-.992884,2.723061-1.641892,2.1973-1.640393,4.667189-2.279028,7.044938-3.255849.473896-.523258,1.055459-.337926,1.590808-.352357,1.201147-.033806,2.432018-.054784,3.495678-.77246.144629-.09781.291254-.164353.436934-.24653l.16722.568822c-.133391.07309-.268786.124-.401126.210185-.805176.52446-1.740592.695494-2.676008.720214-.867775.022181-1.73345.159276-2.600175.245327-2.918107,1.297053-5.894717,2.410112-8.586164,4.427513-1.261646.946033-2.686301,1.431476-3.965382,2.353991-1.14569.827378-2.199162,1.877768-3.450515,2.462357-.728179.711128-1.527272,1.243472-2.404185,1.591954-.478001.189207-.855486.42665-1.312901-.264969-.270773-.405805-.98058-.64846-1.168264.44509-.074896.434534-.316995.377077-.632932.356232-1.129305-.07309-1.300613.14872-1.330337,1.453523-.011238.469809.012289.946166-.152822,1.379364-.389774,1.019123-.356899,2.141267-.020481,3.056033.431787,1.17439.625676,2.415323.921026,3.62098.497537,2.037043,1.278031,4.003402,1.239064,6.203462l-1.37445-.000002Z" fill="none" stroke="#000" stroke-linecap="round" stroke-linejoin="round"/><path d="M127.546037,304.586854c-.011343.014431-.025733.022181-.036971.036612-.007142-.001336-.015335-.004009-.023632-.006547.002101-.005211.006197-.010422.008298-.015634.018381-.004009.034878-.010422.052306-.014431Z" fill="none" stroke="#000" stroke-linecap="round" stroke-linejoin="round"/><path d="M127.546037,304.586854c.723049-.930399,1.732407-1.110386,2.610363-1.628432-.723146.934274-1.617494,1.415708-2.610363,1.628432Z" fill="none" stroke="#000" stroke-linecap="round" stroke-linejoin="round"/><path d="M134.924857,299.253795c.271823-.429322.516968-.636701.844248-.630288-.164165.387633-.367289.691619-.844248.630288Z" fill="none" stroke="#000" stroke-linecap="round" stroke-linejoin="round"/><path d="M148.727756,346.159241c.081085-.243991.259534-.545439.496487-.324831.199036.182659.149776.525796.032875.791968-.118056.268844-.32728.375874-.643217.426784-.119947-.408478.031825-.655141.113855-.893921Z" fill="none" stroke="#000" stroke-linecap="round" stroke-linejoin="round"/><path d="M194.175776,332.679746c1.502589.06534,2.959069-.301314,4.453571-.720214-1.336533,1.597165-2.907919.989058-4.453571.720214Z" fill="none" stroke="#000" stroke-linecap="round" stroke-linejoin="round"/><path d="M147.509278,348.716041c.13234.425314.140533.854636.112804,1.283959h-.192839c-.001996-.427986.096428-.858645.080034-1.283959Z" fill="none" stroke="#000" stroke-linecap="round" stroke-linejoin="round"/><path d="M135.769105,298.623508c.004096-.011759.010188-.020845.015335-.032603.013347.005211.025628.002672.038967.007884-.006092.006547-.013339.012961-.019431.020845-.012394-.001336-.022582.003875-.034871.003875Z" fill="none" stroke="#000" stroke-linecap="round" stroke-linejoin="round"/><path d="M138.973319,296.029401c-.826708.867731-1.58777,1.845164-2.533479,2.513267-.190738.134422-.406159.129211-.616433.056121,1.036982-1.139248,2.063776-2.299207,3.266918-3.155179.045059.224349.019431.442284-.117006.585792Z" fill="none" stroke="#000" stroke-linecap="round" stroke-linejoin="round"/><path d="M199.746527,332.054803c-.296401.163017-.534403.086052-.576416-.43587.790787-.398055,1.58672-.797313,2.380658-1.196571.090223-.571495.241049-1.14045.258484-1.715953.016395-.555861.084131-1.075244.190748-1.582868v5.31355c-.100525-.502413-.157978-1.027007-.147685-1.585406-.701614.403133-1.399028.818158-2.105789,1.203118Z" fill="none" stroke="#000" stroke-linecap="round" stroke-linejoin="round"/><polygon points="281 253.37807 296.930219 213.385878 306.206759 216.355859 314.435919 231.275915 320.562441 226.154244 324.413969 229.494755 325.98945 236.175776 339.118463 238.879452 349.446269 230.830959 356.623113 232.545577 374.277552 258 281 258 281 253.37807" fill="none" stroke="#000" stroke-linecap="round" stroke-linejoin="round"/><polygon points="245 348.304325 254.116565 339.072943 273.151181 338.416214 284.077513 327.55969 289.927329 309.716353 292.282639 310.59243 295.434374 316.238726 307.307456 313 326.407632 313.219348 337.764493 321.319447 351.01382 302.080561 357.724692 287.667191 362.886902 288.477858 364.263147 317.985758 381.643274 326.652746 388.009311 341.458709 398.937708 344.825761 401.431056 350 245 350 245 348.304325" fill="none" stroke="#000" stroke-linecap="round" stroke-linejoin="round"/><path d="M383.754516,332.694685s.350807,5.664437-4.02588,8.361699c-4.376688,2.697128-6.126522-4.033466-6.478275-9.383494-.351858-5.350028-2.624857-1.330993-6.475334-4.7629-3.850477-3.431773,3.150963-10.821384,3.150963-10.821384,0,0-9.803696-.22181-12.853093,5.782023-3.049397,6.003699-6.403492,2.904641-11.655097,1.988539-5.251605-.915968-4.900798-7.769226-2.196011-13.728697,2.704787-5.959337,1.321094-15.197987-1.829869-15.14975-1.225725,7.397494-4.551041,5.964682-7.988111,12.755272-3.437175,6.790724-7.242489,7.462701-8.467268,15.853128-1.224674,8.390427-4.551041,10.316432-12.04067,8.667022-7.489734-1.649277-3.714145-5.031611-1.142644-12.237226,2.571396-7.205615,0-13.305922,0-13.305922,0,0-4.846496,4.923378-9.255954,10.666117-4.409563,5.742872-7.494881,16.082821-14.847128,15.522952-7.352247-.559736-5.951119-13.693421,0-26.189069,5.951224-12.495514,9.103132-25.809319,6.469137-28.920136-2.284238,7.132525-9.269293,9.791838-15.221462,11.704748-5.952169,1.913044-7.352247,15.345504-13.941331,16.125847s-8.11541-18.928669-6.494765-25.727143c-5.190056,6.982469-7.922571,14.815699-8.878458,23.33654-.956013,8.520974.255322,14.194631-4.996283,19.969973-5.251605,5.775476-11.757608,14.958005-5.538763,26.797175h147.864521c4.558169-9.293434-3.158224-17.305315-3.158224-17.305315Z" fill="none" stroke="#000" stroke-linecap="round" stroke-linejoin="round"/><path d="M309,249v-17h-52.40684l-21.140869,15.442648-14.359665-7.575064-19.262145,12.032399-28.368402,4.455998-10.506816,16.043199-5.955263,3.147809v74.45301h116v-63h24v63h12v-82h59v82h9v-82h12v-19h-80ZM188,324h-17v-19h17v19ZM188,301h-17v-4h17v4ZM212,324h-22v-19h22v19ZM212,301h-22v-4h22v4ZM235,324h-22v-19h22v19ZM235,301h-22v-4h22v4ZM254,324h-17v-19h17v19ZM254,301h-17v-4h17v4Z" fill="none" stroke="#000" stroke-linecap="round" stroke-linejoin="round"/><polygon points="344.336717 334.633651 334.708424 331.514951 331.908163 324.165827 319.829472 321.271609 317.028371 307.68642 306 302.118457 306 350 353.089042 350 344.336717 334.633651" fill="none" stroke="#000" stroke-linecap="round" stroke-linejoin="round"/><path d="M158,288.630418c.131431.130547.290843.100483.537275-.246663.079706-.113444.261801-.216599.365364-.179987,1.229609.421439,2.338191-.331512,3.493393-.575503,1.008199-.210051,2.004951-.439745,3.034879-.301448.440928.059996.876663.199629,1.080592.670775.885036,2.045996,2.504926,3.303899,3.473696,5.222153.617935,1.220088,1.314614,2.360538,1.672763,3.780255h.658319c-.13461-.591137-.331226-1.163968-.598327-1.747221-1.014075-2.215234-2.33441-4.07683-3.687963-5.922705-.655465-.893875-.752826-2.236139-.232485-3.262348,1.198048-2.362774,2.448257-4.618567,4.657413-5.615012.165666-.074427.310558-.260961.436794-.429322.529008-.700706,1.137616-.82858,1.894189-.692956,1.097233.195754,2.206867.134422,3.235735-.535016.25258-.163017.525828-.290892.798025-.130414.609659.357568,1.094044.173573,1.667463-.266172.831192-.638171,1.434712-.225819,1.780354,1.012576.192588.687611.499966,1.330993.989545,1.640191.845713.532477,1.262793,1.491471,1.753432,2.398353.811477,1.188821,1.517493,2.429754,1.997744,3.926436.50304,1.564562,1.418072,2.731201,2.855752,3.027304.393347.08231.850907.161814,1.125109.610779.455449.743731.958489.535016,1.532013.271383.772154-.354896,1.554696-.836464,2.40963-.35356.865322.489318,1.795828.521921,2.714994.635365,1.378749.169698,2.737782.32884,4.024424,1.156218.812537.524594,1.756505.695494,2.700473.720214.875709.022181,1.749298.159276,2.623956.245327,2.356942,1.038765,4.750038,1.966492,7.005449,3.327549v-.01697h.735905c-.128357-.09006-.268055-.160478-.393338-.257086-2.273006-1.768199-4.853496-2.416659-7.334565-3.426696-.478132-.523258-1.065117-.337926-1.60536-.352223-1.212129-.03394-2.454253-.054918-3.527522-.772593-1.148013-.767248-2.351768-1.021662-3.595906-1.175592-1.199693-.147774-2.410767-.185463-3.555348-.774288-.235947-.121382-.609961-.135024-.853656-.030062-1.297941.559037-2.443722.358224-3.774347-.298286-1.443934-.7138-2.369353-1.695109-2.884785-3.457963-.394407-1.351971-1.025803-2.491086-1.931508-3.37445-.427515-1.028893-.852953-2.046327-1.054038-3.21758-.107957-.628813-.303273-1.25748-.702827-1.75489-.557194-.693659-.669017-1.431928-.197307-2.317994.296028-.554525.347752-1.179601-.247395-1.958608.109702,1.567234-.599387,2.633258-.502086,3.977346-.628217-.061332-1.082606-.662891-1.583632-.355029-1.435666.883498-3.074202.450301-4.518136,1.153545-.862248.420236-1.663338-.362779-2.456267-.039151-.658319.268844-.981277-.084849-1.276254-.670641.090094,1.221291-.304304,2.047332-1.255479,2.459685-.30229.130414-.573516.375741-.865428.547977-.859068.506421-1.591899,1.167976-1.98937,2.322724-.401605,1.169179-1.35808,1.740807-1.904577,2.762469-.175947.331512-.475058.332715-.75456.320956-1.875535-.083513-3.650695.549447-5.447583,1.118403-.820911.259624-1.682099.455378-2.524632.181323v1.019123Z" fill="none" stroke="#000" stroke-linecap="round" stroke-linejoin="round"/><path d="M172.274902,278.024977c-.018486-.271383-.038967-.563745-.081085-1.176929-.104612.668102-.247132,1.012576.081085,1.176929Z" fill="none" stroke="#000" stroke-linecap="round" stroke-linejoin="round"/><path d="M172.278999,278.092856c0,.001336.034871-.037815.034871-.037815-.019527-.007884-.022582-.022181-.038967-.030065.00105.022181.001996.045698.004096.067879Z" fill="none" stroke="#000" stroke-linecap="round" stroke-linejoin="round"/><path d="M172.278999,278.094192c.010293.022181.022582.039151.03382.061332-.001996-.036612.005147-.064004.00105-.100483l-.034871.039151Z" fill="none" stroke="#000" stroke-linecap="round" stroke-linejoin="round"/><path d="M253.889151,346.774289c.238003-.7138.252287-1.448445.124148-2.196185-.635969.669438-.005147,1.473299-.124148,2.196185Z" fill="none" stroke="#000" stroke-linecap="round" stroke-linejoin="round"/><path d="M254.013299,344.578103c.006092-.006547.009138-.014297.016385-.022181-.003046-.014297-.010293-.02472-.014389-.039151-.001996.005211-.005147.010422-.008193.015767.003046.015634.003046.029931.006197.045565Z" fill="none" stroke="#000" stroke-linecap="round" stroke-linejoin="round"/><path d="M235,299.116217v1.253485c.5908-.689525,1.2822-1.267225,1.9609-1.826224.0108-.008778.0284-.006234.0391-.01374v-.91432c-.1943.02239-.3838.091979-.5537.24973-.4688.438523-.9668.831119-1.4463,1.251068Z" fill="none" stroke="#000" stroke-linecap="round" stroke-linejoin="round"/><path d="M231.645828,304.532063c1.247952-.24852,1.822506-1.243816,2.379504-2.622585.133956-.333119.309621-.623871.490392-.909479h-1.229226c-.102781.182464-.202583.3675-.291959.571081-.501883,1.144733-2.403327,2.075327-3.389336,1.797706-.775116-.219417-1.038027-.752056-1.111762-1.874319-.010427-.165274-.030207-.329194-.04373-.494467h-.893538c-.00415.549964-.006278,1.09844-.011385,1.647051-1.343499.494467-2.68189,1.106426-4.055499.093939-.184921-.137525-.439534-.118981-.662865-.17326-.738834-.523434-1.475433-1.049575-2.216288-1.56773h-1.279117c.927894.732293,1.830795,1.525498,2.865737,2.009272.737663.720382,1.547146,1.259788,2.43547,1.61267.484221.191669.866619.432202,1.329986-.268282.274403-.411086.99335-.657034,1.183581.450746.015534.087171.041496.142669.069585.195594h3.755135c.023833-.333119.436342-.42029.675314-.467937Z" fill="none" stroke="#000" stroke-linecap="round" stroke-linejoin="round"/><path d="M366.524819,262.551479c-.163537-1.984007-1.703327-3.309257-1.464689-5.4245-.876146-.430757-.263601-.956921.024963-1.208807,1.044911-.90915,1.228304-2.125829,1.263707-3.679079.027096-1.155743.362506-2.219879.795924-3.239093h-.887667c-.479184,1.068207-.889588,2.178893-.955301,3.49885-.065607,1.310729-1.471943,3.19675-2.457527,3.487043-.777163.226507-1.194914-.111421-1.641774-1.0868-.612665-1.327964-1.292937-2.604357-1.94614-3.903143-.53435-.609629-.995946-1.290914-1.433418-1.99595h-.924058c.166645.323407.365692.621571.638574.861514,1.156389,1.019079,1.721036,2.6201,2.306485,4.176064.304246.803157.594836,1.6169.889694,2.426707-1.048004,1.184786-2.051204,2.473121-3.637826,2.309993-.214636-.022529-.437593.13395-.658416.208186-2.666026-.213984-5.328517-.544587-8.006506-.080251-.846873.146839-1.709384.111545-2.56109-.004005-2.663258-.361321-5.222403.463312-7.815686.901935-.614572-.216057-1.083422.27835-1.579261.561993-1.112651.63745-2.248132,1.302721-3.471195,1.235136-1.306379-.070164-2.48677.359236-3.670256.903857-1.138076.524713-2.248227,1.156547-3.487274,1.248476-.258339.019167-.611999.216642-.79708.446733-.986082,1.225883-2.094782,1.672552-3.528954,1.803778-1.557392.140464-2.73469-.249171-3.808724-1.581207-.821954-1.021793-1.78771-1.718957-2.91379-2.029064-.708461-.675857-1.410615-1.341264-1.981556-2.237114-.34169-.535529-.724984-1.1001-1.287603-1.338686-.768828-.324629-1.137614-.942264-1.011521-2.031643.078088-.671921-.088543-1.273679-.897055-1.659379.637614,1.377093.359505,2.744821.910616,3.922957-.592822.290293-1.212728-.010586-1.561671.547471-1.000106,1.600886-2.637826,2.107236-3.7077,3.546486-.639641.861514-1.635587.584521-2.246093,1.317379-.504172.609764-.919896.463871-1.389706.088893.502145,1.070786.427139,2.044943-.295806,2.947443-.229263.286357-.391734.660114-.596982.97945-.607318.937107-1.044911,1.946957-1.009494,3.225929.036484,1.292136-.635481,2.343107-.78131,3.581093-.045872.401443-.316727.56715-.575101.710329-1.73245.956921-3.128426,2.515464-4.565071,4.026371-.810433.850793-1.704287,1.6606-2.856516,1.638071-.045872.145757-.091743.294229-.137508.441343.231278.022529.525069-.060917.681352.090114.3802.369821.649989.597686.835502-.198821.033284-.148336.162471-.343221.268722-.367107,1.262641-.291514,2.010667-1.591657,2.977382-2.451814.8934-.793773,1.769195-1.599287,2.830872-2.025378.37401-.150104.814298-.097956,1.11584.169414,1.494116,1.324797,3.356727,1.597048,4.868837,2.799585,1.312673,1.041743,2.702367,1.874079,3.560804,3.835557.415617.950271.787604,1.88195,1.053232,2.838871v-2.271721c-.15319-.2451-.299018-.494271-.410497-.765971-.465649-1.1305-1.076167-1.980071-1.930338-2.727586-1.683501-1.472285-3.523162-2.451709-5.387777-3.397999-.90341-.45848-1.450828-1.636079-1.330481-2.86395.27705-2.826662.637862-5.581751,2.302109-7.712415.125027-.158921.192767-.410807.248986-.634736.239599-.933036.749105-1.386321,1.483464-1.679193,1.063686-.424107,2.050244-1.092093,2.755492-2.272943.173992-.288936.378173-.5567.680285-.559279.677192-.008007,1.053232-.444057,1.423084-1.162393.536496-1.044321,1.226157-.997907,1.965862-.053064.411457.524943.911563.944979,1.462674.958279.951128.022529,1.65947.671921,2.416884,1.232557,1.144975.642743,2.213781,1.391614,3.163855,2.499586.993919,1.156964,2.226263,1.721671,3.633772,1.202021.386507-.141821.829221-.320693,1.233411-.060936.668871.430757,1.054298-.03705,1.484531-.595107.514932-.667999,1.002636-1.431231,1.767689-1.612095.792214-.187285,1.595943-.331569,2.340287-.661162,1.538231-.681124,3.007547-1.506675,4.698184-1.449522.918817.033114,1.834541-.330057,2.70034-.827043.803178-.462514,1.643908-.819036,2.468955-1.221971,3.120117-.433336,6.231914-1.068207,9.392676-.7144,1.481437.165707,2.954447-.18145,4.444205-.047636,1.334541.121871,2.660776.4997,4.008745.339286.91263.246457,1.827287.290293,2.752398.123229.502133-.092693.930339-.084821,1.112651-.974157.108278-.522093.675058-1.139729,1.223063-.241164.21869.356521.420845.169643.702154-.025243,1.010454-.69445,1.243865-.5871,1.719969.592529.171858.425329.313527.874679.613612,1.179493.708342.718336,1.062633,1.765371,1.068807,2.791236.008321,1.316021.256347,2.561743.400042,3.831486.037565.330057.067741.662693.095904.995329h1.433432c-.081289-1.843543-.462556-3.627507-.613612-5.448521Z" fill="none" stroke="#000" stroke-linecap="round" stroke-linejoin="round"/><path d="M228.469072,341.37589c-.258379.015767-.406159.150189-.372224.429322.051245.425447.383567.473684.616423.587262.181495.088724.320978-.095271.263526-.408478-.071737-.383624-.19788-.658882-.507725-.608107Z" fill="none" stroke="#000" stroke-linecap="round" stroke-linejoin="round"/><path d="M255.846214,342.466901c.148725-.067879.517924-.332848.238948-.816955-.551828.173573-.909788.74774-1.371299,1.094886-.342615.255749-.618534.341801-.978584-.020978-1.279081-1.290506-2.842169-2.070849-3.962336-3.664139-.256383-.366654-.588705-.726761-1.003057-.857309-.558036-.391374-1.083196-.932938-1.678098-1.137778-1.005157-.34581-1.679043-1.029545-2.180676-2.192177-.365092-.845684-.887196-1.608924-1.708767-1.864673.900545,1.304803,1.436009,3.020757,2.613514,3.951156.911784.72155,1.94572,1.190023,2.926299,1.772074,1.094434,1.3962,2.259661,2.676283,3.63201,3.614432.728293.499874,1.380647,1.097425,1.641127,2.171332.471804-.882028.998015-1.671458,1.83092-2.049871Z" fill="none" stroke="#000" stroke-linecap="round" stroke-linejoin="round"/><path d="M221.188667,345.573709c.036981.417564.174353.785554.397967.691619.295465-.126539.49239-.519249.467718-.979972-.013349-.253077-.116911-.441081-.34252-.431861-.415507.020845-.5385.349685-.523165.720214Z" fill="none" stroke="#000" stroke-linecap="round" stroke-linejoin="round"/><path d="M308.474019,290.157845c-.449222-.896459-1.033936-.733309-1.530318-.605434-.978584.254413-1.972398.309198-2.956128.480098-.098415.067879-.123098.164487-.072787.292361,1.521075.563745,2.963271-.584589,4.559233-.167026Z" fill="none" stroke="#000" stroke-linecap="round" stroke-linejoin="round"/><path d="M377,273.485689c-.028439.009115-.05784.015589-.084217.024572-2.49763.803742-4.892974,1.961004-7.184787,3.457519-.100416.06579-.146003.272142-.217032.412836-.073002.070942-.140915.147036-.217032.211504-1.024003.872157-.977752.838757-1.296933-.750758-.000118-.00004.000057.000019-.000061-.000021l-.000004,3.329782c.157218-.201332.309244-.410326.472589-.606374.834585-1.002432,1.797936-1.829425,2.702525-2.736344,1.882139-.994638,3.729816-2.127328,5.82495-2.848503v-.494214Z" fill="none" stroke="#000" stroke-linecap="round" stroke-linejoin="round"/><path d="M374.467893,291.22133c-.22771.156603-.315937.358771-.190843.592339.190843.355029.506675.216732.754971.191879.193798-.019509.258484-.260961.100516-.512835-.19494-.306659-.402063-.486646-.664643-.271383Z" fill="none" stroke="#000" stroke-linecap="round" stroke-linejoin="round"/><path d="M303.985577,290.031307c-.521064-.241452-.919031.159142-1.661608.33659.761063.386297,1.156929-.14872,1.590816-.043026-.05031-.127875-.025628-.224482.070792-.293564Z" fill="none" stroke="#000" stroke-linecap="round" stroke-linejoin="round"/><path d="M369.909605,299.402909c.223613-.275258.268777-.737184.090223-1.14045-.097365-.220474-.254283-.334051-.455314-.202168-.367297.24653-.367297.610645-.22771.936813.174353.356232.422544.613318.592801.405805Z" fill="none" stroke="#000" stroke-linecap="round" stroke-linejoin="round"/><path d="M302.313676,264.802568c-.108708-.234905-.225714-.487982-.471804-1.017787.132235.660219.119947,1.049054.471804,1.017787Z" fill="none" stroke="#000" stroke-linecap="round" stroke-linejoin="round"/><path d="M302.340354,264.861361c0,.001203.018486-.053582.018486-.053582-.020586.003875-.027728-.00775-.045164-.005211.008193.019642.017435.040487.026678.058793Z" fill="none" stroke="#000" stroke-linecap="round" stroke-linejoin="round"/><path d="M302.340354,264.862564c.017435.014431.03382.023517.051256.036612-.014389-.031401-.016385-.060129-.03277-.091396l-.018486.054784Z" fill="none" stroke="#000" stroke-linecap="round" stroke-linejoin="round"/><path d="M302.213981,350c2.213446-1.073907,4.471006-1.992548,6.786019-2.682831v-.688947c-.02739.011559-.043223.031766-.079066.035868-.901686.103183-1.800783.210417-2.609661.727701-1.690477,1.081076-3.548743,1.683793-5.29739,2.608208h1.200097Z" fill="none" stroke="#000" stroke-linecap="round" stroke-linejoin="round"/><path d="M309,307.729465v-.353693c-.060498-.116116-.120052-.233569-.1795-.349685.051256.242788.114905.472348.1795.703378Z" fill="none" stroke="#000" stroke-linecap="round" stroke-linejoin="round"/><path d="M308.194824,290.460629c.270773.22956.549738.39271.805176.570158v-.434534c-.232856-.053448-.474955-.240116-.805176-.135625Z" fill="none" stroke="#000" stroke-linecap="round" stroke-linejoin="round"/><path d="M238.044113,327.798561c-.321073-.575503-.608241-.63296-.844248-.692956-2.555011-.649796-5.138696-.919977-7.741916-.822033-.114905.003875-.22771.167026-.340619.257086-.090223.02472-.17845.056121-.269722.07309-1.197051.22181-1.182661.224349-.949805-1.26445.070792-.448965.140533-.899132.210274-1.349299h-1.539561c.009243.279267.021532.557197.050205.832455.155973,1.491605-.448162,2.305754-1.318993,2.975192-.313931.240116-.664643.40193-.977534.645921-.742577.580714-1.649319,1.003489-2.167337,1.824186-.841097,1.328454-1.941623,1.842492-3.079121,2.477991-1.305917.729928-2.789486,1.15978-3.690953,2.781037-.640383,1.151706-1.50983,2.037734-2.404427,2.871329-.50988.475111-.887164,1.128952-.947118,1.972149-.810332,1.009903-1.8011,1.834608-2.228896,3.25045-.469704,1.554139-.44102,1.561889-1.707707,1.490135-1.042138-.058659-2.039103.152728-2.958134.816955,1.090233-.144845,2.153893-.420236,3.253474-.212724.833955.156603.888256.233569.672836,1.332329-.137372.708455-.558981,1.392191-.176349,2.239077.252287-1.007364.510771-1.936427.716949-2.884999.419498-1.933888.946759-3.771169,2.292431-5.012102.171307-.159276.266686-.458051.395971-.691619,2.230882-4.127401,5.153085-6.981133,9.013855-8.105949.436934.876817.111754,1.835945.27697,3.019554.138432-.957791.134336-1.605049.16407-2.228789.0503-1.02567.298491-1.850376.906732-2.419331,1.448288-1.347829,3.066832-2.320051,4.764361-3.015546,1.104728-.45284,2.267853-.67465,3.403355-1.002153,2.353979.152728,4.719197.074427,7.220957.843011Z" fill="none" stroke="#000" stroke-linecap="round" stroke-linejoin="round"/><path d="M168.081811,302.901359c-.969236-.306659-1.885221-.801188-2.830922-1.186149-.111868.007884-.166169.082177-.164174.224482,1.182661,1.341415,2.873048,1.094752,4.17156,2.344905-.101566-1.054399-.685124-1.227972-1.176465-1.383239Z" fill="none" stroke="#000" stroke-linecap="round" stroke-linejoin="round"/><path d="M165.18304,343.427231c.496382.220474,1.093384.061332,1.644173.083513.458465.01697.952851-.09006,1.369303.093935,1.495552.655007,3.068933.67465,4.597255,1.045179,2.065771.473684,4.131552.939619,6.195213,1.427601.901596.21406,1.789852.535016,2.695544.695494,1.002111.177448,1.687341-.998278,2.634004-1.149537.264681-.041823.518009-.232366.769351-.37721.16301-.095271.291254-.24653.263526-.578042-.863073.092054-1.611264.612601-2.370708,1.044083-.648511.368455-1.422341.439331-2.142477.24509-2.288902-.617383-4.590544-1.160604-6.885424-1.734129-.580512-.178784-1.188753-.20484-1.76622-.254413-1.474957-.126672-2.867902-.751615-4.324382-.940821-1.318048-.169698-2.664761-.014431-3.948997-.583253-.512863-.227155-1.073953-.036612-1.433898.334051-1.417513,1.461407-3.163252,2.292659-4.479304,3.961578v.818158c1.129305-1.351838,2.376561-2.488413,3.805418-3.373114,1.11187-.690283,2.104738-1.323109,3.377622-.758162Z" fill="none" stroke="#000" stroke-linecap="round" stroke-linejoin="round"/><path d="M253.88705,348.221512c-.173303.653671-.241049,1.233049-.237898,1.778488h.399962c-.056402-.554525-.102511-1.137778-.162065-1.778488Z" fill="none" stroke="#000" stroke-linecap="round" stroke-linejoin="round"/><path d="M162.15632,339.585643c.031833.953916.347761,1.099963.872922,1.217416.825657.186668.811268.291025.78564-.785554-.595952.469809-1.115966.296236-1.658562-.431861Z" fill="none" stroke="#000" stroke-linecap="round" stroke-linejoin="round"/><path d="M165.249839,301.713874c-.388732-.503615-.883118-.360107-1.613407-.605434.555935.76471,1.094434.498538,1.450283.831253-.001996-.142306.052306-.216599.163123-.225819Z" fill="none" stroke="#000" stroke-linecap="round" stroke-linejoin="round"/><path d="M262.227124,295.573736c-.352908-.780343-.006197-1.50323-.45857-2.124431-.01942.516844-.099465.938283-.038967,1.324579.265731,1.706734-.31079,3.101597-.96514,4.462655-.497432,1.034757-.88416,1.153545-1.487255.280603-.795933-1.151006-1.81757-1.746018-2.873048-2.321388-1.315947-.719012-2.563203-1.5516-3.414594-3.120037-.230756-.425447-.512767-.835128-.939512-.985183-.439034-.469809-.929219-1.1327-.66979-1.77341.404164-.996942.160069-1.830733-.095369-2.669736-.241049-.790766-.012289-1.501894.285162-1.986,1.296527-2.120556,2.872009-3.672023,5.148989-3.578088.845193.036612,1.714019.074427,2.518145-.40968-.099465-.105694-.199036-.211388-.298501-.317081-.871871-.003875-1.737546.028728-2.605321.193082-.765159.144845-1.546703.266172-2.307765-.087388.051256-.572831-.347761-.775132-.569274-1.115731-.739531-1.135239-1.846254-1.760315-2.589882-2.826339-1.250407-1.794255-3.136679-2.292659-4.447479-3.904255-.017435-.022181-.065645-.001336-.108708.011759.491235,1.016451,1.159029,1.740673,2.030901,2.210483.539456.292361,1.14464.531141,1.530318,1.135239,1.1939,1.873893,2.904779,2.996037,4.160216,4.774659.004096.358771-.198931.568822-.410255.609309-1.632923.318417-2.12627,2.166121-2.87809,3.598932-.336418.639374-.418542,1.57632-.053356,2.355327.192839.411016.019536.747606.017435,1.119606-.005147,1.19911-.788791,1.570975-1.246206,2.312168-.451323.73077-.837001.840339-1.501644.724223-1.302608-.227021-2.535569-.052112-3.545884,1.306273-.306103.41203-.834797.685951-1.365755.817677-.623762.154749-1.211017.464288-1.769853.849274-.332929.229357-.6691.407929-1.010324.559165h1.428857c.468267-.305552.9328-.63661,1.421263-.737019.738773-.151863,1.413237-.570994,1.909076-1.139318.906216-1.038691,1.875744-1.237577,2.998265-.74396.657501.289689,1.212386.160478,1.696478-.587128.566228-.87174,1.29242-1.017787,2.073019-.409814,1.448288,2.477991,3.408397,4.002199,5.652618,5.009563.52306.234771.944659.641913,1.316998,1.208329.497432.758029,1.074899,1.430139,1.542606,2.528767.345672-1.894604,1.297567-3.147295,1.758132-4.732835.532303-1.838483,1.925238-2.965973,3.492539-2.924149.033809-.442417-.378547-.634163-.351858-.976097-1.052328.519383-1.980601,1.411833-2.978616,2.077397Z" fill="none" stroke="#000" stroke-linecap="round" stroke-linejoin="round"/><path d="M164.453897,320.057954c-.39177,2.673745.199036,5.159619.915985,7.621843-.824712.182793-1.433995-.583253-2.248422-.366654,1.165235.8378,1.50574.957791,2.968417.973425-1.133401-2.674947-1.337479-5.463472-1.63598-8.228613Z" fill="none" stroke="#000" stroke-linecap="round" stroke-linejoin="round"/><path d="M312.205599,251.316526c-.386728.399391-.527261.965675-.736485,1.525411.17845.052246.264576.075763.350807.103155.259429.087388.517926.177448.778498.264836-.023632-.404469.310802-.87027-.164165-1.213541-.100516-.071754-.085076-.411016-.122047-.625076.303648-.377077.605195-.752817,1.079112-1.343954-.756979.233569-1.075016.618529-1.18572,1.28917Z" fill="none" stroke="#000" stroke-linecap="round" stroke-linejoin="round"/><path d="M246.249746,274.855367c-.723146-.930265-1.732505-1.110386-2.610468-1.628432.723146.934274,1.617494,1.415842,2.610468,1.628432Z" fill="none" stroke="#000" stroke-linecap="round" stroke-linejoin="round"/><path d="M265.560633,294.758931l.021532-.030065c-.008193,0-.016385.001336-.024566.001336-.00105.010422.004085.018172.003035.028728Z" fill="none" stroke="#000" stroke-linecap="round" stroke-linejoin="round"/><path d="M246.249746,274.855367c.011238.014431.025628.022181.036866.036612.007142-.001336.01545-.003875.023632-.006547-.002101-.005211-.006197-.010422-.008182-.015634-.018496-.003875-.034881-.010422-.052317-.014431Z" fill="none" stroke="#000" stroke-linecap="round" stroke-linejoin="round"/><path d="M170,307.57941v-.741192c-.388724.198293-.267727.839003-.458465,1.210868.211325-.109569.352803-.275258.458465-.469676Z" fill="none" stroke="#000" stroke-linecap="round" stroke-linejoin="round"/><path d="M237.972271,268.867301c.006197.006547.01335.013095.019536.020845.012289-.001336.022477.004009.034871.004009-.004201-.011759-.010293-.020978-.01544-.032737-.013339.005211-.025617.002672-.038967.007884Z" fill="none" stroke="#000" stroke-linecap="round" stroke-linejoin="round"/><path d="M238.026678,268.892155c.16406.387499.367192.691486.844143.630154-.271813-.429322-.516968-.636701-.844143-.630154Z" fill="none" stroke="#000" stroke-linecap="round" stroke-linejoin="round"/><path d="M208.583764,249.560741c2.38885.741192,4.814671,1.341415,7.226103,1.992548.758017.203638,1.42266-.093935,2.041194-.632826,2.617224.010655,5.240814.321404,7.846844-.259915.345686-.077111.694078.101496.881528.478964.50303,1.012952,1.191462,1.924075,1.432223,3.097945.188743.91864.543646,2.076061-.104612,2.797744-.527261.589801-.611287,1.227838-.721045,1.956069-.648258.254413-.643112,1.131231-.815469,1.694975-.640056,2.083944-.947705,4.23697.252287,6.23994-.13024,2.189638.133391,4.214789,1.003162,6.198251,1.353969,3.089972,1.393986,6.339087.151771,9.559606-.142529.367991-.273819.742529-.39387,1.120942-.237898.759365-.424645,1.550131-.707706,2.279564-.288198.742529-.053356,1.620682-.625676,2.359202-.395866.50896.57232,1.248816.404164,2.074858-.032875.164353-.028779.360107.008193.525796.283062,1.286631-.137487,2.678956.431787,3.940867.289258.641913.446176,1.319234.5385,2.014729h.619595c-.002101-.02619-.006207-.053582-.008308-.079638-.75759-2.314249-.943951-4.781735-1.200921-7.234698-.044179-.421718-.04274-1.111007.016219-1.530913.232622-1.656718.578358-3.290232,1.152982-4.786974.536399-1.398872.874917-2.766344.936466-4.338789.090223-2.33956-.08308-4.547504-1.107774-6.547802-.354903-.695494-.510771-1.473299-.70361-2.258853-.27697-1.139114.003046-2.34878-.387779-3.440993-.644162-2.359202-.667679-4.62968.556995-6.739681.101556-.174909.118991-.42665.175404-.644585.272863-.733443.633859-1.004826,1.167212-.361443.726192,1.431342,1.324245,3.005123,2.607317,3.828492-1.027739-1.179601-1.3734-2.959559-2.309866-4.208242-.230756-.450167-.453319-.870403-.126144-1.435351.254388-.438542.157968-.982645.175404-1.509777.054111-1.541538-.584415-2.720901-1.167525-3.905036-.425113-.863286-.53916-1.916166-.317517-2.895065.400096-1.767044.802314-3.517,1.450171-5.137013l-.814419-.430659c-.631873,1.517661-1.021647,3.17736-1.40721,4.809801-.294415,1.248816-.746778,1.916919-1.739657,2.018737-.317922.032603-.631873.125202-.948755.183995-2.048336.369193-4.114107.109569-6.16759.2949-.855381.129077-1.697529.444956-2.574547.211388-2.276991-.604232-4.560179-1.194032-6.824986-1.843828-.283062-.080974-.563067-.144845-.843093-.207513l-.566228.353693c.500583.110905,1.003162.240116,1.508786.396585Z" fill="none" stroke="#000" stroke-linecap="round" stroke-linejoin="round"/><path d="M234.659254,265.658541c.009232.014431.021521.024853.029714.040487.006197.003875.010293.009086.016385.013095.002101-.015634-.001985-.028728.002101-.044362-.018486-.004009-.030774-.006547-.048199-.00922Z" fill="none" stroke="#000" stroke-linecap="round" stroke-linejoin="round"/><path d="M232.135007,263.866958c1.641127,1.595829,1.679043,1.628566,2.524247,1.791583-.582623-.998145-1.399028-1.46007-2.524247-1.791583Z" fill="none" stroke="#000" stroke-linecap="round" stroke-linejoin="round"/><path d="M187.272751,270.752819c-.763163-.203504-1.179616-.029931-1.506791.515508-.484093.147383-.803075.581917-1.180561.973425.143579.144845.21332.212724.281066.284478.205128.220474.408155.44362.613387.66543.11585-.378413.574316-.615857.26258-1.184812-.066695-.119991.062494-.417564.101461-.63149.401118-.174909.80108-.348482,1.428857-.622538Z" fill="none" stroke="#000" stroke-linecap="round" stroke-linejoin="round"/><path d="M170,305.936547v-.649796c-.174353-.18012-.331263-.443753-.641011-.524594.205128.441081.452268.798516.641011,1.17439Z" fill="none" stroke="#000" stroke-linecap="round" stroke-linejoin="round"/><path d="M174.169366,302.115731c.296401.163151.534412.086052.576425-.43587-.449231-.225685-.901604-.45284-1.352927-.679861h-1.176465c.650368.375874,1.297567.759498,1.952967,1.115731Z" fill="none" stroke="#000" stroke-linecap="round" stroke-linejoin="round"/><path d="M234.822359,266.297914c.826708.867865,1.587781,1.845164,2.533479,2.513267.190749.134422.406159.129211.616433.056121-1.036972-1.139114-2.063671-2.299207-3.266918-3.155179-.045048.224349-.019431.442284.117006.585792Z" fill="none" stroke="#000" stroke-linecap="round" stroke-linejoin="round"/><path d="M175.166331,302.228045c1.336533,1.597165,2.907928.989058,4.453676.720348-1.502685.065207-2.959174-.301448-4.453676-.720348Z" fill="none" stroke="#000" stroke-linecap="round" stroke-linejoin="round"/><path d="M172.069768,301h-.566255c-.049901,1.401239-.278552,2.733715-.879059,4h.461337c.541357-1.227979.991212-2.501032.983977-4Z" fill="none" stroke="#000" stroke-linecap="round" stroke-linejoin="round"/><path d="M285.121812,142.946561s-.185592-.067746-.454369-.225685c-.13234-.080974-.300497-.172237-.460566-.301448-.170257-.112241-.354903-.288353-.544591-.407141-.190843-.105694-.38052-.217935-.556974-.337926-.177411-.130547-.365208-.268844-.557942-.411016-.206178-.157939-.385678-.322292-.586709-.523258-.216471-.194418-.414457-.421572-.615488-.644719-.196935-.251741-.420549-.537555-.602032-.827244-.194951-.262297-.363107-.647257-.513934-.983847-.151771-.341935-.283062-.675986-.349757-1.054399-.075938-.365318-.127194-.709792-.159019-1.02567-.045059-.309198.020586-.632826.042118-.892451.021532-.260961.074888-.493327.113855-.677322.08308-.367991.170257-.572831.170257-.572831,0,0,.18055.122664.425695.324965.120997.103021.273819.216599.409205.354896.154922.125336.282116.291025.469809.416228.17636.133086.351764.274055.514867.422775.145691.159276.346711.2949.525161.451503.182546.157939.328225.318417.535454.515508.203027.186534.367192.391374.566123.618529.199036.250538.400079.497068.576533.768585.18663.273922.36508.60677.516956.913429.156918.289555.292304.647124.402074,1.012576.109747.35356.190727.690283.248179.996942.052306.301314.018486.570158.018486.820697.001996.241452-.026678.472348-.043063.65768-.036971.374538-.090328.610645-.090328.610645Z" fill="none" stroke="#000" stroke-linecap="round" stroke-linejoin="round"/><path d="M147.052809,156.257694s-.185592-.067746-.454369-.225685c-.13234-.08084-.300497-.172237-.460566-.301448-.170257-.112241-.354903-.288353-.544591-.407141-.190843-.105694-.380531-.217935-.556985-.337926-.177391-.130547-.365197-.268844-.558036-.411016-.206073-.157939-.385573-.322292-.586604-.523258-.216463-.194418-.414457-.421439-.615488-.644585-.196935-.251874-.420549-.537689-.602044-.827378-.19494-.262297-.363096-.647257-.513922-.983847-.151771-.341935-.283062-.675986-.349757-1.054399-.075938-.365318-.127194-.709792-.159019-1.025537-.045059-.309331.020586-.63296.042118-.892584.021532-.260961.074888-.493327.113855-.677322.08308-.367857.170257-.572831.170257-.572831,0,0,.18055.122664.425695.324965.120997.103021.273819.216599.409205.354896.154922.125336.282116.291025.469817.416228.176341.13322.351744.274055.514859.422909.14568.159142.346711.2949.525161.45137.182554.157939.328225.318417.535462.515508.203019.186534.367184.391508.566123.618529.199028.250538.400059.497068.576513.768585.186642.274055.365092.60677.516968.913429.156918.289689.292304.647124.402063,1.012576.109759.35356.190738.690283.248191.996942.052314.301448.018486.570158.018486.820697.001996.241452-.026678.472348-.043063.65768-.036971.374538-.090328.610645-.090328.610645Z" fill="none" stroke="#000" stroke-linecap="round" stroke-linejoin="round"/><path d="M103.8676,224.935251s-.185592-.067879-.454362-.225685c-.13234-.080974-.300504-.172237-.460573-.301448-.170257-.112241-.354903-.288353-.544584-.407141-.19085-.105694-.380538-.217935-.556992-.337926-.177504-.130547-.36519-.268844-.558036-.41115-.206178-.157806-.385573-.322292-.586709-.523258-.216366-.194418-.414352-.421439-.615383-.644585-.196935-.251874-.420549-.537555-.602044-.827244-.19494-.262297-.363089-.647257-.513922-.983847-.151771-.341935-.283062-.675986-.349757-1.054399-.075938-.365318-.127194-.709925-.159012-1.02567-.045066-.309198.020579-.632826.042111-.892584.021532-.260961.074888-.493193.113855-.677188.08308-.367991.170257-.572831.170257-.572831,0,0,.18055.122664.425695.324965.120997.103021.273819.216599.409205.354896.154929.125202.282116.291025.469809.416228.176349.133086.351753.274055.514874.422775.145673.159276.346704.2949.525161.451503.182539.157939.328218.318417.535447.515374.203027.186668.367192.391508.566123.618529.199036.250538.400067.497202.576521.768585.186642.274055.365092.60677.516863.913429.157023.289689.292409.647257.402168,1.012576.109654.353693.190738.690283.248198.996942.052299.301448.018479.570292.018479.82083.001996.241452-.026678.472348-.043168.65768-.036866.374538-.090223.610645-.090223.610645Z" fill="none" stroke="#000" stroke-linecap="round" stroke-linejoin="round"/><path d="M273.625733,45.512018s-.185592-.067879-.454358-.225819c-.13234-.08084-.300508-.172237-.460577-.301314-.170257-.112241-.354903-.288486-.54458-.407141-.190855-.105694-.380543-.217935-.556997-.33806-.177504-.130414-.365185-.268711-.558036-.411016-.206178-.157806-.385573-.322292-.586709-.523258-.216366-.194418-.414352-.421439-.615383-.644585-.196935-.251874-.420549-.537555-.602044-.827244-.19494-.262297-.363085-.647257-.513922-.983981-.151771-.341801-.283062-.675852-.349757-1.054265-.075938-.365452-.127194-.709925-.159007-1.02567-.04507-.309331.020575-.632826.042107-.892584.021532-.260961.074888-.493193.113855-.677188.08308-.367991.170257-.572831.170257-.572831,0,0,.18055.122664.425695.324831.120997.103155.273819.216599.409205.355029.154934.125202.282116.290892.469809.416228.176349.133086.351753.274055.514879.422775.145668.159142.3467.2949.525161.451503.182535.157806.328214.318417.535442.515374.203027.186668.367192.391508.566123.618529.199036.250538.400067.497202.576521.768585.186642.274055.365092.60677.516863.913429.157023.289689.292409.647257.402168,1.012576.109654.353693.190738.690283.248202.996942.052295.301448.018474.570292.018474.82083.001996.241318-.026678.472348-.043168.65768-.036866.374404-.090223.610645-.090223.610645Z" fill="none" stroke="#000" stroke-linecap="round" stroke-linejoin="round"/><path d="M135.55673,58.823151s-.185592-.067879-.454369-.225685c-.13234-.080974-.300497-.172237-.460566-.301448-.170257-.112241-.354903-.288353-.544591-.407141-.190843-.105694-.380531-.217935-.556985-.337926-.177504-.130547-.365197-.268844-.558036-.41115-.20617-.157806-.385678-.322292-.586709-.523258-.216366-.194418-.414352-.421439-.615383-.644585-.196935-.251874-.420549-.537555-.602044-.827244-.194932-.262297-.363096-.647257-.513922-.983981-.151771-.341801-.283062-.675852-.349757-1.054265-.075931-.365452-.127194-.709925-.159019-1.02567-.045051-.309198.020586-.632826.042126-.892584.021524-.260961.07488-.493193.113847-.677188.08308-.367991.170257-.572831.170257-.572831,0,0,.18055.122664.425695.324965.121005.103021.273819.216599.409205.354896.154922.125202.282124.291025.469809.416228.176349.133086.351753.274055.514867.422775.14568.159142.346719.2949.525161.451503.182546.157939.328225.318417.535454.515374.203035.186668.367192.391508.566123.618529.199036.250538.400067.497202.576521.768585.186642.274055.365092.60677.516863.913429.157023.289689.292409.647257.402168,1.012576.109661.353693.190738.690283.248191.996942.052306.301448.018486.570292.018486.82083.001996.241318-.026678.472348-.043168.65768-.036866.374404-.090223.610645-.090223.610645Z" fill="none" stroke="#000" stroke-linecap="round" stroke-linejoin="round"/><path d="M274.012461,261.339067s-.123098-.044496-.300602-.148853c-.087177-.054784-.198931-.11478-.304593-.199629-.112804-.074427-.23484-.191745-.36005-.270047-.126144-.069215-.252287-.143642-.368243-.223146-.117951-.086185-.241994-.177448-.369188-.272719-.137487-.104491-.255438-.212724-.388724-.34581-.142634-.127875-.273924-.27793-.407209-.426784-.130345-.165689-.27802-.354896-.397955-.546641-.129306-.173573-.240115-.42812-.34063-.651132-.100504-.225819-.186631-.447628-.230744-.696831-.050217-.242788-.084142-.469809-.105674-.679861-.029724-.203638.014389-.4189.027728-.589801.014389-.173573.050205-.326301.075938-.447628.054302-.243991.111754-.379749.111754-.379749,0,0,.120052.080974.282116.215396.079929.067879.181495.143508.270773.234905.102511.082177.186642.191745.31079.275258.116901.087388.232856.181323.340525.279267.096408.105694.229694.195754.347656.298775.121091.104358.21751.211388.353958.341935.135375.122664.243033.258288.375373.408344.13129.165823.264576.32884.381582.50896.123098.181323.241049.400594.341564.604232.103562.191745.193784.427986.265626.669305.072787.233569.126144.456715.164071.660352.034859.199629.012382.377077.012382.542766.001996.159276-.017435.31187-.028779.434534-.023516.248-.059448.404603-.059448.404603Z" fill="none" stroke="#000" stroke-linecap="round" stroke-linejoin="round"/><path d="M108,350.156989s8.624081-3.525842,8.158473-7.768023c-.464662-4.242181-1.294416-9.547847,2.106734-12.162799-.695418,2.513133.85034,9.427723,4.273126,8.569211,3.423836-.858645,2.600175-4.230423,3.202219-7.882803.603199-3.651178,1.643227-5.265313,3.503871-7.602334,1.859593-2.335685,2.238024-3.671889,1.464673-7.306098,3.644299,2.266603,5.300865,6.677146,3.313028,11.074594-1.987838,4.396246-.551839,10.279954,2.65038,10.638725,3.201273.358904,4.0844-4.139026,4.0844-4.139026,0,0,2.869881,1.110386,2.318059,4.349211-.551855,3.240028,2.208389,6.387323,4.968527,5.235115,2.761189-1.153545,4.96856-4.243517,7.729732-2.416659,2.760139,1.825522,5.490553,3.089972,6.057831.280603,2.553961.982511,2.482119,3.814195.91693,5.839346-1.565188,2.026487.793938,3.712376,3.975675,4.133949h-58.723658v-.843011Z" fill="none" stroke="#000" stroke-linecap="round" stroke-linejoin="round"/></svg>