<?xml version="1.0" encoding="UTF-8"?><svg id="uuid-1a84b663-31a2-45b4-8e9f-4f6b5b33b621" xmlns="http://www.w3.org/2000/svg" viewBox="0 0 500 500"><g id="uuid-9833128c-34ed-47fd-b2a9-957545014004"><polygon id="uuid-7906bb1b-e95a-4687-a425-7833f39bb169" points="128.07 222.44 128.15 223.06 128.77 223.36 128.87 224.74 130.19 225.57 127.45 228.45 126.91 228 124.98 228.03 124.3 228.27 124.08 229.12 122.09 230.07 122.26 231.68 121.19 232.31 121.44 233.39 120.82 233.47 121.62 235.77 121.17 236.32 119.43 238.34 120.45 240.18 119.07 240.66 118.49 243.05 116.56 242.69 116.05 244.93 114.52 245.34 113.02 248.44 112.03 249.3 111.04 249.77 111.13 251.16 112.53 251.83 110.6 257.4 111.01 259.32 108.72 260.51 107.51 262.6 108.45 263.82 110.08 264.8 110.41 266.49 113.06 268.53 113.15 269.53 112.07 269.39 109.76 274.97 99.49 261.4 92.02 249.95 84.56 236.7 79.92 226.71 79.93 226.69 80 226.55 80.6 225.32 81.69 225.62 82.22 225.33 81.34 223.38 79.95 222.71 80.08 220.86 79.38 220.71 78.9 218.95 141.69 192.31 143.94 191.11 144.29 195.77 144.51 197.12 143.45 198.9 143.77 199.44 142.87 201.3 142.74 202.76 143.54 205.06 135.36 209.33 134.75 210.18 132 211.92 131.31 211.77 132.65 214.14 134.01 218.05 131.73 220.39 128.07 222.44" fill="#ce1126"/><polygon id="uuid-fd6855fc-aa70-4d7c-8ad1-39571010f6af" points="195.21 348.09 207.57 354.4 218.21 359.16 222.26 360.65 216.99 373.57 217.19 373.71 215.14 378.13 210.94 388.41 194.16 439.5 185.65 436.05 178.8 433.06 170.27 429.07 161.32 424.6 154.53 420.93 191.65 354.43 192.4 352.47 192.75 352.41 195.04 348.38 195.16 348.26 195.21 348.09" fill="#ce1126"/><path id="uuid-b3622c5b-cf85-4e5d-a12c-ee6f20596471" d="M409.62,357.32l-.17,1.21-3.44.52-2.24,1.03-4.3.17-1.72-1.21-3.44-.52,5.68-2.07,1.72.34,1.38-.69,2.75.34,2.75.17,1.03.69ZM338.35,292.41l-.56.53.93,1.06h-1.67l-.37-.88-1.67.35v.7l-4.33-.17-.83-1.72.17-.86-.33-.52-.5.34-3.17-1.38-1-1.2-4-1.2-3.17,3.78-1-.69-1,.52-6.83-.17-1.67,2.24.5,2.06,2.33,3.1.5,3.1-.67,2.06.5,1.03.67-.52,1.67,3.78,1.83,2.58-.83,1.03-.17,3.27-.67,2.41-1.33.86,1,1.89,1.33,1.38,1.83.52,3.5,2.24,3.5,3.78,1.5,3.96.5,5.33-.83,3.1-3.5,6.37-1.67,1.2-1.5,1.89-2.67.52.33.86,1.17.34,1.17,1.72,1.17.86.83.86-.17,1.03,1,3.1,1.5,2.06.83,1.72.83,2.75.83.17.67,1.89-1,2.06-.17,1.55,1.33,1.38v1.2l-.83.52-.5-1.38-1.5-.86-.83,1.03.23,1.08.11,1.68-.09.02,7.09,27.17,1.17,2.92,2.83,2.92,3.17,1.89,5.5-.17,2.5,1.72,2.17-.34,1,1.89,2.02.45.95-.29,1.2-.68,4.67-3.44,2.5.17.33,1.55.63,2.6.04.14.18-.28,14.82-5.55-.17-2.41h1.17l.67-1.03.67.69.17-1.55,1-.17-1-.86,1.17-2.24-.33-.69.33-.52-.17-1.2-1-1.55.5-1.55-.5-2.06,1.02-5.55.42-1.09-.26-.11,2.31-7.88,9.1-2.59-.18-.47.59-.2,2-1.72.67.34h4.81l1.72-2.76,1.21-2.07-.17-2.76-1.38-1.55-3.97-.34-2.93.69-6.38,6.38-3.9,5.43-1.79,2.5-1.38,2.93-1.9,8.28-.86,1.72-2.07,1.9-1.38,2.41-1.03.34-2.93,2.76-2.93,5.17-.69,3.79-1.38,1.72-1.1.78v-.03s1.61-1.78,1.61-1.78l.52-2.76.17-1.9,1.72-2.93,1.86-2.24,2.28-2.76,3.45-3.79,1.03-1.9-.17-2.24,1.03-1.03,1.38-8.45,1.9-5.17,1.72-3.62,2.41-1.21v-4.48l1.03-3.1,3.1-2.59,10.52-5.34h.08l6.54-3h1.21l2.75-2.63,3.96-2.41-.2-.52v-1.89l1.06-2.41.69-2.24-.75-.69v-.71l.68-.68-.17-1.37,2.39-1.71-.17-.85.68-1.71,2.05-.68-.52-.16h0s.44.06.44.06l-2.49-3.32-26.32,16.06-.68-1.2-2.22-1.54-.17-1.03,1.54-1.54-1.2-.68-.85,1.71v1.74l.86,1.39.52,2.43,1.2,3.13-1.2,1.39-1.55-1.39-1.55.7-2.41-1.91-.17.87-2.24.52-1.2-.87-.52.87-.69-.87.52-.87-.86-1.04.17-.7-1.89-2.09-.86,1.22.86,1.39-.34.7-2.75-1.04-.86-1.04,1.38-.87-1.89-2.78-.69.35-3.44-2.61.17-1.57-1.55-1.04,1.72-1.22.69-1.39-2.06-1.39-1.03-1.39,4.13,1.57-.17-1.74-2.06-2.26,2.92,1.22,3.44.35,2.41-2.43,1.03.87,1.38-1.04,1.2.52,1.72-.7-1.55-1.57,1.03-.52-1.03-2.26-.34-1.74-1.55.35.69-.7-2.24-2.78.52-.87-1.72.52-1.38-2.26h.86l-2.24-1.74.86-1.57-1.2-1.22.52-1.22-1.03-.52.34-1.22-1.03-1.57-1.55-.35-2.75-1.22-.34-1.04,1.03-1.39-1.38-1.74,1.55-1.57-9.93-8.32-.05-.03.17,5.22.52,1.39.69,6.09h-1.38l.34,2.61-2.75,3.83-1.89-1.57-1.03-.17-2.41-1.39-2.92,2.26-.86,1.39-.52-.17-.86-1.57,1.03.35.34-.52-.34-.7,1.03-1.04-1.38-1.74-.69.52-.52-.87v-.22l-1.49-3h-.37l-.19-.71.37-.18-1.67-2.12-.93-1.94.37-.53.56-1.06-1.3-1.06ZM416.16,366.96l-.17-.86-1.72,2.41.34,2.24.69.17.86-.52-.86-1.03-.17-1.03,1.03-1.38Z" fill="#ce1126"/><polygon id="uuid-ba395acd-79b5-4a4b-9ae2-3e1201145b7b" points="403.32 383 400.22 381.3 400.56 380.61 400.91 378.37 402.8 380.26 403.49 380.44 404.18 380.95 404.7 380.26 406.76 380.09 406.93 379.57 408.31 379.23 408.66 378.2 409.52 377.85 409.86 378.71 410.72 378.2 412.61 376.82 412.79 377.85 412 379.06 412 379.75 412.96 381.47 412.44 382.33 409.69 382.67 409.52 384 409 384 408.48 382.67 404.7 383 403.32 383" fill="#ce1126"/><path id="uuid-0581f5d6-1ec8-4b0c-91f0-55c4938430b3" d="M254.99,367.06l-.03.19-.07-.08h-.05s-.04.18-.04.18l.11-.04-.05.23-6.35,28.14-3.59,10.24,10.87,24.34h0s.03.08.03.08v.02s.04-.02.04-.02l1.86-.24,2.04,3.16,1.21.2,2.4-.9,1.06.27,1-.27,1.2-1.48,2.47-.75,2.93,1.1.06.54,1.13-1.64,2.95.72,1.62-.55,1.16-2.4.47-.21,1.04.65,2.95-1.34.83.18,1.24-.69.59-.19-.07-.1h0s.18-.1.18-.1l.04-1.14-.34-1.16.59-1.58.97.49.41-.75-.42-2.99.69-.13.3,2.3.49-3.03-.89-.72.1-.61,3.52-.04,4.21-2.29,2.29.09.58.86,4.21,1.84,2.33-1.06,1.81-1.38.85,1.86,3.23,1.34.23,2.15,1.99-.15.55,1.62.11,1.07,1.95-1.07,3.43.13,1.19-1.1,3.57-1.62,4.68-2.5.9.34,2.18-.99.75-1.65,4.82,1.94,1.75.14.44.55,3.53,1.58.28,2.68-1.48.86-2.2-.31-1.4.64-1.57-.98-2.41-.78-1.5,1.24,3.53,1.58,1.23,1.88-.62,2.34,4.18,6.72-1.43,3.46.97,2.56,1.21,2.26-2.16,2.67,1.55,1.36,2.8-1.27-.34-1.16,1.4-2.7.55-.44.1-2.67.45-1.89,4.99-2.64.81-1.12-1.38.25-.28-.62,1.19-1.1,3.26-3.54,1.24-.56-.02-.15.24.24-.33-1.05v-.11s-.04,0-.04,0l-.04-.15-.61-.1-1.71-1.29.27.27-.94,1.16-1.96,1.45-1.21-.2.42-3.19.71-2.57,4.17-5.27,1.26-.95.3.24,1.96-1.45.73-1.27h-1.8s.1-.59.1-.59l.78-.35.59-1.58.41-.82.65-.38.17-.19h-.04s.04,0,.04,0l1-1.12.16-2.13-.27-1,.35-1.28.51-3.41,1.04-1.1,1.08-.78.02-.02-.1-.12-1.65-2.08-.94-1.26-2.4.9-2.94,5.08-.84,1.12-.77.66-2.06.45-1.71-1.28-1.88,1.23-3.03-.49-5.05,2.48-3.72-.37-3.84-1.44-2.28-2.14-17.73-21.51-1.64,1.1-3.19-.42-4.06-1.52-.55.44-2.85-1.33-4.51-1.69-.93.42-1.18-3.02-2.27-2.53-3.02-2.94-1.13-2.48.48-.59-2.28-2.14-.34.9-1.4.63-2.07.38-.08.23-7.17,4-4.49-.4-.71.51-3.7-.04-1.86.85-1.76.24-.44-.55-3.22-1.72-3.62-.48-.06-.13-.19-.1ZM328.45,418.4l-.57.83-1.65.94-.34.91-2.66,1.21.51.71,2.66-1.21,4.19-.77.43-1.14-1.01-1.81-.64.67-.91-.34Z" fill="#ce1126"/><path id="uuid-c4a9db51-06f4-4857-b204-b3a3914d960a" d="M447.55,372.13l1.21,1.55-1.38.69.34,2.41-4.82,2.93-2.75-2.24.34-7.23.52-.69-.34-1.03.52-.69,1.89,1.72.52.86-.17,2.93,1.55-1.03.52.34,2.41-.86-.34.34ZM443.63,381.2l-.17-.52-1.52-1.03-1.18,1.03-.68-.69h-.68l-2.03,2.75-2.03-.17-1.01.52-.17.86-1.52-.34-1.01.17-1.18-.34-.06.17-.29.41h-.01s-1.15,2.34-1.15,2.34l-1.35,4.3.51-.17,2.37-1.72,2.37-1.38,1.18.17v.34l-1.01.52-1.35,1.55-.51,1.03h-1.14l-.34-1h-.34l-2.41,3.47-.34,1.21-3.27,5.51,1.21.34-.52,2.07,2.41,2.41.86-.52,1.38.69.17,1.03,2.22-1.21v-1.03l.71-1.03,2.07-6.03-.34-.52-.69-1.03,1.03-1.21,1.21.52,1.38-1.21-.34-1.03,1.55-1.21,1.55-1.72,3.62-5.34,1.55-1.55,1.72-1.03v-.74l-2.37.35Z" fill="#ce1126"/><path id="uuid-9eb7e36b-c16c-4d03-9617-a32cdda1a8db" d="M208.74,173.48l.08.1-.51,3.2v.23s-1.2-.02-1.2-.02l-.04-.34-.36-.13-.45.58-1.11-.55-1.99-.61.43-.75,2.37-.48,1.92-1.29.88.06ZM207.62,183.76l-.41-3.24.64-.38.49-.29.38-1.09-4.12.35-1.6,1.07-.02,1.22-.53,1.28,1.75,1.51,3.26-.42.15-.02ZM205.48,198.07l-.34-.07-1.42-.02-.22-1.72-1.02-.51.39-.69-.88-.68-.12-.94-1.86-.88-.1-.78-.92-1-2.37.14-.53.86-.16.02-1.46,2.25,1.39.94-1.47-.29-1.27,1.27,2.04,1.01-2.7.03-.7.73,2.31,1.93.57.72,2.78.6.49-1.17.8.06-.17,1.13,4.38-.56.14,1.09-2.43-.33-2.07,1.22-1.23.32-.13,1.45,2.25,1.46,1.25-.16,4.3-1.92.08-.36.1-.04.38-5.08h-.01s-.07-.03-.07-.03ZM199.99,178.63l.69,1.3-.04,1.05,1.6-1.07-1.31-2.09-.94.81ZM198.67,187.31l.69,1.3,1.71-.22.25-.73-2.65-.36ZM196.35,181.35l-.38,1.09-.49.24-1.35-1.04-1.52.37-3.71,3.6-2.91.26v1.39l-.38-.19-2.09,1.31.26,2.05,2.14.42,1.07-.3v1.39l1.71.29.96-.64-.11-.85,1.2-.15,2.74-4.34.21.32-1.11,2.22,1.29,1.92,1.02-1.52,1.98-.77-.07-1.9.51-.07-.13-1.02-.32-1.17.9.23.62-.6-1.2-2.62-.85.11ZM190.4,193.22l-2.11,1.14,1.26,1.75,3.47-4.09-.07-.51-2.56,1.71ZM188.85,205.61l-2.07.09-1.45-.51-1.56-1.36-.88-2.84-2.71.52-1.45-.51-2.61-.02.2,1.54-.92.98.84,2.5-8.56,10.46,3.6,5.1-.06.88-.64,1.82.47.98,2.9-.37,1.09-1.01.43.64,2.63.19,2.17-4.79,2.13-.97,1.17-1.71,5.93-3.88,1.9-.07,1.34-1.73-2.17-4.76-1.71-1.17ZM139.2,224.55l-.92-.4-1.3.69-2.22.28.41.47.56,1.66.58.45,1.37-.17,4.22-2.27-1.26-1.75-1.43,1.05ZM128.63,234.51l-.04,1.05-1.36,2.96-.66.26,2.42,1.26,3.28,2.54-.63,3.21-1.96,3.73.41.47.68-.09.84,1.11.98-.03-.73,3.96-.71-.08-1.62,1.09-.45.59.28.84-1.16,1.91,1.04,1.27-.56,1.13.8.78-.48.41,1.95,1.51-.08.71-.36,2.69,1.89.99-.91,1.17.83,2.36-1.84.76.81,2.18-1.08,1.19.44,3.46-.37,1.28-.58.95.85,1.12,1.56-.2,1.44,5.8,1.41,1.4-1.29,2.28.14,2.45,1.47.52,1.93-.07,1.22,1.25,3.38.27.63.8-.99.48,1.12,6.02,14.86,4.47v.04s11.96,2.98,11.96,2.98l13.32,2.35,11.13,1.75,14.03,1.03,11.82.25,4.37-.2.23-.15-.24-.15-.91-31.78-23.22-5.49-3.5-5.36-5.72-.68-20.36-23.09h0s3.66-11.4,3.66-11.4l-.08-.18.04-.15-.19-.17-3.97-3.35-1.6-.15-.58.95-1.25,1.22h-1.4s-.76-.59-.76-.59l.75-2.15-.34-1.33,1.43-2.24-.57-.44-2.1,2.32-1.07.99-.99,1.67-1.1-.55-.53-2.85-.29-4.93-.74-1.79-1.14.49.6,1.98-2.34.47.49,1.14-1.45.7.04-1.03-4.16-.33-1.41,1.04-.84.11-.09-.67-2.21.11-3.27,1.27-.86,1.31-1.14-.88.21-1.06,5.96-1.62.72.25,6.51-1.34-1.16-1.05-1.19-.02-1.14-.72-2.46,1.18-4.43-.65-.83,1.67-1.99-.62-1.26,1.03-2.87.71-.94-.58-1.09,1.01-.32-1.18-.64-.96-.56-.28-.13.33-.07-.48-4.54,8.06ZM203.37,221.06l.02.06-.06.03-1.9,1.02-1.34.34-.24-.49,1.15-.49v-1.39s-2.42-2.64-2.42-2.64l-1.28-.53-1.57,2.63-1.9.07,2.45-2.57-1.48-3.46-4.07,2.08-.9-.23-2.01.6-3.09,3,.09,2.07-.73-.25-1.19,1.54-.68.09-.72,1.13.6.62.92.4.6.62-.6.77.98.92h2.78s3.29-.08,3.29-.08l-.08.7-6.83.87-1.13,2.05,1.11,1.94,2.14.42,2.27,1.08-.12.09,2.03.38,3.59-.46-.25.73,2.93,1.19,2.18,2.15-2.37.48-3.7-1.79-4.4-.48-4.76.78.07.51.2.03h0s18.6,3.13,18.6,3.13l1.88-19.74-.05.07Z" fill="#ce1126"/><path id="uuid-152bb694-8796-4ff5-820c-8292744d6c04" d="M367.82,277.56l-1.36-.21-4.6-2.57.51.4-.14-.07-.42.3-1.71-.42,11.77,5.43-1.1,1.9,1.78,1.32-.65,1.6.6.91,2.98.46,1.59-.07,1.4,1.24-.02,1.26,1.14.23-.19,1.3,1.48.86-.44,1.73,2.62,1.09-.84.22,1.91,1.82,1.54-.95-.28.97,2.88,2.1-.49.85,1.41-.73.78,1.58,1.58,1.91-.87.77,1.9,1.1-1.49,1.11-1.3-.19-1.07,1.36-1.22-.57-1.72,2.96-3.43.55-3.15-.41,2.58,1.64.61,1.63-4.41-.44,1.36,1.07,2.36.8-.31,1.51-1.36,1.61,1.77.6.23,1.55,4.01,1.62.58-.51,2.55,2.18-1.11,1.19,1.1.78,2.94.29.16-.76-1.19-1.11.52-1.39,2.37,1.52v.71s1.11.78,1.11.78l-.28.97.89.66.28-.97,1.39.52,2.04-1.08-.06-.88,2.83,1.22,1.33-1.07,1.86.94.81-1.65-1.97-2.7-1.12-2.21-1.19-1.11-.31-1.17.39-1.89,1.35.36-1.1,1.9.43.96,2.57.93.98.99,21.55-22.55,3.3,2.6.04-.11.04.12.84-1.22-.02-4.11-.47-3.1-1.19-1.11-1.02-1.16-1.04.62h-.08s-3.66-3.11-3.66-3.11l-2.94-.29-2.22.41-.86,1.48.49,1.84-.97-.28-.78-1.58-2.45-1.14-2.39,3.14.68.54-1.29,3.21.58,2.17-.58.51-.98,4.73-.12-.07-1.24-4.04,1.44-4.68-.36-1.34,1.94-4.81-.57-1.46-2.13.75-1.06-.61-.54.68.36,1.34-1.2.86-3.27-.2-.74,1.27-1.51-.31-.77,1.82-1.75.82-.07-1.59-1.78-1.32-2.28,1.5-1.68-.27-.66.89-.27-1-1.3-.19-.82.94-2.03-.89-1.25-1.99-.33-2.6-.63-.37-1.63.61-.51-.58-2.31.08.52-1.39-1.25-1.08h0c-.09.32-1.62.77-1.85.83l-.48-1.13-2.02-.18-.56-.75-2.11,1.57-.1-.05.28-1.37-1.11-1.49-.79.39-2.62-1.09-1.05.1-.8-.32Z" fill="#ce1126"/><polygon id="uuid-583ba8d5-6a30-4bfa-931f-d8ec95eabe2c" points="413.17 422.5 413.2 422.46 412.92 422.48 412 423 411.5 425 410.83 425.83 410.17 426.5 408.83 428.67 407.83 430.17 406.67 430.33 406.33 431.67 403.83 433 402.88 433 402 433.88 400.41 433.71 399.35 432.65 398.82 431.06 396.71 430.88 395.65 428.94 392.65 422.41 392.12 421.71 390 420.29 388.59 420.47 386.12 422.24 385.21 422.08 387.85 419.69 386.05 420.94 386.47 420.47 385.19 421.63 385.08 421.42 384.71 422.06 384.53 421 383.83 421 383.59 421.6 383.32 421.49 385.76 413.41 395.4 410.75 395.47 410.94 395.54 410.76 395.63 410.83 395.77 410.65 396.02 410.58 399.35 410.41 400.24 411.65 401.29 411.47 402.18 409.71 404.12 408.65 404.65 409.88 405 412.35 405 414.33 404.33 415.67 405 415.83 405.33 415.33 406.5 415.5 407.33 417.33 408.17 417.17 410.33 419.33 411.33 419 415 419 414.83 420.17 414.74 420.21 414.8 420.23 413.67 422.5 413.56 422.43 413.32 422.45 413.17 422.5" fill="#ce1126"/><polygon id="uuid-66d5cbd6-b7e4-42d6-9a21-e0e0f9ccce37" points="218.96 403.64 218.88 403.48 218.79 403.47 221.2 349.76 222.48 338.72 223.27 333.92 223.04 333.83 224.64 319.97 224.89 319.86 225.06 320.03 232.05 320.84 242.89 321.35 251.34 321.52 251.5 326.69 251.16 328.58 253 329.96 253 330.99 256.15 331.16 257.01 330.48 258.56 330.99 258.04 333.06 259.42 334.78 260.97 341.84 260.45 342.87 262.86 343.73 266.31 341.49 269.4 342.01 271.81 343.73 275.2 343.89 275.24 343.89 275.35 343.83 275.3 344 275.31 344 275.43 343.9 275.29 344.1 257.7 367.32 249 375.24 249 402.16 250 402.12 250 405 245.82 405 231.19 404.5 219.02 403.49 218.96 403.64" fill="#ce1126"/><path id="uuid-cf527380-04a2-4938-9c37-5c611d5d6a72" d="M117.94,305.72l-8.77,45.88.18-.17,1.17.77.91.36-1.31,1.14,2.12,1.69-.21.58,1.89.5-.38,1.5,2.37,1.99.44,2.91,1.39.61.41,1.77.96.24,1.59,1.53.43,1.93,1.65.12.48,2.98,1.68,2.04,1.12,1.22-.07,1.47,2.03,2.26,1.85,1.42.3,3.32-.22,4.13,1.85,2.3.58,1.99-11.35-1.38-10.71-1.69-13.51-2.52-8.29-2.09.02-.14-.06-.42-.73.45-2.16-.26.43-1.32-.55-1.82-1.32-.43-.75-1.96.64-.31-.44-1.32h-1.76s-1.43-2.69-1.43-2.69l.77-.51-.27-1.35-2.54-2.12-.67.14-3.25-1.27,1.18-2-3.28-2.32-.88.88-2.24-3.23,2.19-3.08-1.25-.1.19-2.5,4.82-2.21-.34-1.69-3.81,1.13-1.32-2.19.74-.68.77-1.39-.64-.57-.28-2.23-.85-2.46,2.69-3.18-3.31.15-.7,1.72-.54-.07-1.57-5.13.33-.95-1.25-1.85,4.21-4.37-.21-1.01.84-1.05.7-3.48,1.21-.95.03-1.59-1.35-.6-.68-1.62-2.78-3.3-.95-.33.1-1.25-.58-1.11.81-1.22-.85-.71,1.01-1.08-1.38-9.38.23-.57-1.94-5.23.5-.98-1.05-1.72-.65-1.45.67-.14-.72-2.66-3.21-.23-1.08.75-.57,1.52-1.05.04-.74-.2-2.73.38.57-2.4-2.22-7.45.2.11v.02s9.74,5.14,9.74,5.14l13.96,6.03,12.88,4.59,16.39,4.57,14.94,3.32v.04s-1.12-.19-1.12-.19l-.03.28-.27-.04ZM80.62,378.38l2.2,2.19.23-1.45-2.4-2.32-.03,1.59ZM78.71,379.03l-1.61-7.05-3.28-2.1-3.79-2.43-1.25-1.85-2.77-1.54-1.15.41-.23,1.45,1.36,1.48,2.02-.41v.88s-1.48.48-1.48.48l-.7,1.72,2.77,1.54-.44.44.95,1.21,1.42.06.68,2.5-.67.14-.03.71.75,1.08,1.18-.24,1.05,2.6-.37.78,1.56,1.62,1.45-.65.34.81-.47,1.15,3.66,3.3,2.64.87.64-2.06-.45-3.95-.74-.57-3.02-2.35ZM70.18,355.56l.17.84,3.95-1.33-.34-.81-3.78,1.29ZM69.3,342.56l-.3,1.12,1.68-1.22-1.38.11ZM66.95,348.31l.41,1.15,1.63,1.95,1.1-3.21-1.43-2.7-1.71,2.81ZM64.83,339.61l1.74,5.09.27-1.28-1.57-4.25-.44.44ZM64.12,337.82l-1.35.27,1.49,1.28.88-.88-1.01-.67ZM65.87,349.06l-.13,1.96,1.35-.27-.17-1.72-1.05.04ZM63.65,340.72l-.81,1.22,1.8,2.8.67-1.01-1.15-2.22-.51-.77ZM69.23,375.08l1.72.7-.78-2.12-.94,1.42ZM55.07,337.38l.1-.37,1.82-.55.47-1.15-.75-1.08-.91-.17-.41-1.15-.81-.54-1.24,2.54-.23,1.45-.67,1.01,1.01.67.25,2.94,2.4-.31,1.11-2.33,2.86-3.22-2.13-.09-.9,2.47-1.96-.13ZM56.21,346.45l-.85-1.58.4-2.36,1.82-.55-1.08-1.01-3,.79.27.47.45,2.19,2.04,5.73,1.22-.07-.17-.84-.57-.23-.51-2.53Z" fill="#ce1126"/><polygon id="uuid-02324ebb-7c7c-4353-a8c4-05e9f53aae40" points="131.37 355.52 129.63 353.44 131.14 352.59 130.32 352.05 129.33 351.06 129.12 351.19 146.85 307.98 147.11 308.08 147.19 307.81 148.25 308.22 159.59 312.63 172.33 316.59 183 319.69 183 319.86 182.91 320.01 181.79 324.51 181.47 324.66 181.28 326.75 163.41 400.78 163.37 400.94 150.98 397.67 143.75 395.61 143.58 393.54 142.22 390.92 143.26 386.91 143.63 383.6 142.1 381.83 140.56 379.21 140.93 377.79 140.08 376.37 138.84 374.03 138.97 371.02 137.38 370.58 137.34 368.6 136.09 366.78 135.2 366.35 135.15 364.53 133.92 363.66 134.07 360.73 132.14 358.3 132.81 356.91 131.05 356.04 131.37 355.52" fill="#ce1126"/><path id="uuid-b603461e-6165-4899-8992-fbfbcca33800" d="M274.22,137.1l-1.54.17-1.2,2.73h-1.07l.86-1.44-.34-1.21-1.38.69-2.58-.17-.34,1.13h-1.21l-.86,1.11-3.27-.34-.17,1.38.88.86v.34l-3.12-.34-1.38,1.72.69,1.21-1.21-.52-.17,2.58.52.86-1.21.52-2.13-2.07v1.63l-1.31.69,2.44,1.72-1.88.17-.75-.52h-1.12l-.94,1.89-.56-.52-3.19,2.24,1.13,1.21,1.12-.86.56.17-.94,1.38,1.69,1.38-.94.86.38,1.03,4.13-1.03,2.06-1.72-1.31,2.41-3.56.69v.88l2.91,1.33.73-1.67.36,2.17,3.45-.5.18-.83.91-.17.36,1,3.45-2.33.73-1.33,1.82.17-2.18,3.17-3.45,2,.18.83,2.36,1.5-.36.83,1.45,1.5-1.09-.17-1.09-1.5h-.73l-2-2h-4v1.07l.27,1.03.34,1.55,2.07,1.38,1.55,2.93.17,1.89,2.75.34.52-.52.86.52-1.72,1.72-1.03-1.03-3.27.17-1.38,1.21-.17,1.21-.69,1.03.17,2.5h.86l.86-.43.69,1.43h.52l.86-1.26-.34,1.55.52,1.55,2.07,1.38.86-.86.34-1.21.52,1.21-.17.86-1.38.69-2.24.17-.69-1.03-1.21-2.04h-2.5v1.26l.35.72.35,1.98,1.04.36.17.54-1.04,1.26-.69-.18-1.91,2.7.35,2.52-.17.72,2.08.18.69.36,2.08-1.62,1.04.72,3.12,1.08-.35-1.26.35-.9,2.43-.54.35,1.08,1.21-.9-.17-1.08h2.26l.17,2.52.52.36,3.99-4.14.52-2.16-1.04-1.98-.69.54v.53l-.34.34-1.2-1.03.51-.85-.51-.85-1.03.68-3.42.17-.34-2.9,1.2,1.37,2.56.34,2.39-2.05-1.2-2.9,1.2-.68.51.34,2.05-1.88-1.54-.85,1.54-.51-.34-1.37-1.37-1.03h1.54l-.34-2.05-1.37-.68-.51-.68-1.71.34.68-1.37,2.9-.34-1.03-1.2-4.1,1.2,2.05-1.54,1.03-.17,2.22-2.22-.51-1.37,1.2.68,1.37-2.05.17-2.22-2.22,1.03,1.71-2.22-.17-1.03.85-.34,1.37-5.3.34-2.22.85-2.56-.85-.85-1.2.68-2.05,3.93-1.03.17,1.71-3.59-1.71.85-.51-.34,2.73-1.2,2.22-3.76-.34-3.93-.68-1.03-1.54.34-1.54-1.88ZM244.42,156.46l-.34.86,1.55.86-1.03,1.38-.69-.56h-.86l-.17,1.6,1.21,1.21.17.69-1.72.17-.69,2.93.69-.17,1.38,2.24-1.9-1.55v3.1l.87,1.03-.17,1.38.86,1.55,3.44-.86-2.41,2.41,1.89,3.62,1.38.17-.86,1.21,2.41,1.89,1.21-.17.34-.69,1.55-.86.34,1.03.69.17.17-2.07.69-.34-.17-1.03,1.38-3.1,2.24-1.21-.17-2.58-2.58-1.38-.86-2.58-2.23-.86v-2.41l-.18-.34,1.18.86v1.96h-1l-1.21-3h-1.03l-.34-1.54-2.93-4.82-2.07-.17ZM236.85,165.56l-.52,1.55,1.21,1.89h1.03l-.17-2.93-1.55-.52ZM230.24,170.93l-2.24,1.03v1.55l2.41,3.62-.17.86-1.38-.69-1.21.69.86,1.72,1.72-.17,2.93,1.03.34.52.17,2.07,1.89,1.55,1.21-.69-.69-4.13.34-2.75-2.07-1.21-.86-2.24-1.38,1.03-.34-1.72-1.55-2.07ZM219.98,174.2l-2.07,1.03-2.41.17-.52.69,1.89.86,1.03.69.52-.52.57.17v.34l1,.17v.17l1.01.52.86-.69.34-1.21-1.23-1.99-.15-.25-.86-.17ZM221.01,174.54l-.02.08.02-.08ZM238.4,177l.52,1.38-.34,2.24,1.72,1.89-1.21-.17.86,2.24,1.72-.17,2.41-1.55-1.03-2.41.34-.86-1.03-.34-.52-.86-2.75-1.38h-.69ZM212.57,177.47l-1.03.69.52,1.38-.17,1.03,1.72-.86-1.03-2.24ZM215.59,179.01l-1.72.86-.17,1.21-.69,1.21,1.55,1.72h3.44v-3.27l1.21-.52.52-1.03-4.13-.17ZM205.63,181l-1.42.16-3.79,2.84h-2.6l-.18,1.38-1.27-.34-2.36,1.03v2.07l2.18.69,1.09-.17-.18,1.38,1.82.52,1.09-.52v-1.03h1.17l3.17-3.63.17.32-1.33,1.89,1,1.89,1.17-1.26,2-.47.17-1.74h.5v-1.21l-.16-1.11.79.32.63-.47-.79-2.53h-.79l-.47.95-.47.16-1.11-1.11ZM225.48,183.32l.17,2.24.17,1.89,1.38.86.52-.52-1.21-4.13-1.03-.34ZM231.17,183.49l.86,1.21,1.89.17-.17-.69-2.58-.69ZM242.36,184.35l-1.21,1.89,3.79.34,1.03.52.69-2.24-2.58-.34-.34.34-1.38-.52ZM250.45,185.04l-.69,1.03.17,1.38,1.38,1.55h1.38l-.17-1.89-2.07-2.07ZM209.13,186.62l.52,1.38h1.72l.34-.69-2.58-.69ZM218.58,189.57l-1.18,1.77-2.03,1.13,1.35,1.93.34.96-1.02-.16-.68.8,2.37,2.89-.85.16-2.03-.96-.35-.12-1.51-.21v-1.88l-.77-.69.52-.69-.74-.86v-1.15l-2-1.17v-.83l-.91-1.17-2.73-.17-.73.83h-.18l-2,2.17,1.45,1.17-1.64-.5-1.64,1.17,2.18,1.33-3.09-.33-.91.67,2.36,2.33.55.83,3.09,1,.73-1.17.91.17-.36,1.17h4.91v1.17l-2.5-.67-2.33,1-1.33.17-.33,1.5,2.17,1.83h1.1l4.83-1.39.14-.36,2.47-.66,1.02,1.29,1.35-.16.85.48,2.03-.64,1.35-1.45.17-.8,1.02-2.09v-1.77l-1.35-1.45h-1.18l-.85.64-1.35-1.29-.51-.32,1.02-.64-.51-1.61.34-1.61-.17-1.29-.85-.32ZM203,190.03l-2.75,1.38-2.24.86,1.03,1.89,3.96-3.62v-.52ZM241.97,190.71l-1.29.97-.16,1.29,2.26,2.9.32-.48-.32,1.45,3.23-.48,1.13-.32.32,2.1,1.29,1.29.32,2.1-.97,2.42,1.29.81-.16,2.26h.88l1.21,1.97,1.21-.17,1.89.69,1.55-2.24,1.03.52-.52,1.23h5.34l1.55-.37,1.03-.63h2.07l1.21-1.78,2.75,1.38,1.21-1.59h.99l.52-2.43.87-.35v-1.22h-1v-.79l.67-1.58-1.01-.63h-1.35l.17-1.11-1.68-.16-.84-.95-4.04,1.11-1.18,1.74-1.85.32-.84.79.17,1.42-1.68-1.58-2.53.47v-1.05h-1.56l-.17,1.74-.52-.17.17-1.55-1.21-2.02h-2.07l-.69-.05,1.38-1.38,1.38-.52-2.72-1.03v-.61l-1.45-1.13-1.13-.16-.97,1.29-.48-.48-1.13-1.94h-.97l-2.9-1.29ZM251.65,191.21l.69,3.79h.86l-.52-2.41-1.03-1.38ZM233.92,191.41l-1.89,1.89.69.86,2.07-1.72-.86-1.03ZM227.52,192.42l-1.38.69.86,1.03v.86h1.89l.17-.86-1.55-1.72ZM235.17,193.28l-2.33,1.72,1.17.86v1.21l.83,2.24-1.17-1.03-1.5-3.44-1,.34-.17,2.41,1.17,2.24-1.33-1.03-2,2.41,6-.52-.17.69-2.17,2.07,1.17,2.93,1.5-.69,1.17.52,1.83-1.38.5-1.89.33-1.21-.33-1.72.33-.86v-2.75l-.67-1.38-1.33-1.72-.83,1.72h-.67l-.33-1.72ZM230,195.54l-3.1.17.52,1.38,2.58-.69v-.86ZM185,197.59v1.55l-1.03.86.52,2.58-9.81,9.3,2.93,5.51-.17.86-.86,1.72.34,1.03h2.93l1.21-.86.34.69,2.58.52,2.75-4.48,2.24-.69,1.38-1.55,6.37-3.1,1.89.17,1.55-1.55-1.55-4.99-1.55-1.38-2.07-.17-1.38-.69-1.38-1.55-.52-2.93-2.75.17-1.38-.69-2.58-.34ZM229.1,197.61l-1.38,1.55,1.55.17,1.38-1.55-1.55-.17ZM244.25,198.64l-.86.34,1.03,1.38,1.21-.34-1.38-1.38ZM241.15,201.05l-1.72,1.03.69,1.21,2.07-1.55-1.03-.69ZM244.42,201.05l-1.55.69-.69,1.72-1.55,2.41,3.79,3.1,2.58-.34v-4.82l-2.58-2.75ZM224.97,201l-.17,1.21-.69,1.21,1.21.86,1.72-.17-.69-1.38-.17-1.72h-1.21ZM280.57,211.38l-2.24.17-1.72.69-2.75-.34-.17.86.86,2.58,1.55,1.21.86,2.93,1.72-.34.34-1.55,1.55-.86,4.82-.34-.52-1.21-4.3-3.79ZM202.12,211.66l-4,1.57-.8-.35-1.92.35-3.2,2.62-.16,2.1-.64-.35-1.28,1.4h-1.81l-.86,1.03.51.69.86.51.51.69-.69.69.86,1.03,2.74.34,3.26.34-.17.69h-6.87l-1.38,2.05.86,2.07,2.07.69,2.09,1.44,1.87.76h3.62l-.34.56,2.75,1.55,1.89,2.41-2.41.17-3.44-2.24-4.3-1.03-4.74.17v.52l.12.06h0s.17.1.17.1l.71.02v2.75l1.14,2.45,1.63,1.63,3.43,1.63-.33,1.47.98,3.43,3.27,1.31,5.56.65,3.76-1.63,2.61.16,2.29-1.8.16-.82.49.16v1.64l2.72,1.92.64-.35-1.12,1.4.96.7h2.56l.96.87,2.56-.17,1.44-1.05.16-2.27-.32-.87-.96-.52-1.28,1.22-.64-2.62,1.76,1.05.32-1.05,1.12-.87.48-.7.16,1.75,1.76-1.05-.32,1.57,1.12-1.05.16-2.97-1.28.17-1.28-1.22-1.92-2.45-.8.17-1.44-2.97-.96-2.62,1.12-1.4-.96-2.62-.32-9.44-2.56-3.32-.8.52-.8-1.57-.64.35-1.12,9.44.64,2.1-1.44,1.75-.16-2.45-.48-.52.48-1.22-.48-1.92.32-1.75-.32-.7-1.76-3.67-.32.17-.96-.17v.87l.64.7.32-.17.16.7-.96,1.22v.06s-1.92.81-1.92.81l-1.28.17-.16-.52,1.12-.35.16-1.4-1.92-2.97-1.12-.7-1.76,2.45-1.76-.17,2.56-2.27-.96-3.67ZM247.01,212.24l-2.58.69-1.03,1.55.69,1.21-1.89-.17.34,1.21-.34,6.37,1.38,2.93.34,2.58,1.72.34,1.72-3.79-.69-1.72.69-.69,1.38.86,1.21.17,2.07-2.93v-1.55l1.72-3.1-1.03-2.93-3.1.86-2.58-1.89ZM236.98,251.44l-2.21,3.6.45,1.94.22,1.7,1.41,2.2.7,1.46,2.25,2.09,1.57-.58.92,3.16,2.4.27,1.57-1.07,2.37,2.45-1.21.71-.11-1.09-5.63-.44-5.71-3.95-1.77-2.33-.91-3.89-1.68.22-1.95,2.4.52,5.94,1.41,2.2,2.71,4.03,5.7,4.68,1.21-.47,2.55-2.27,2.04-.09-.86,1.56-2.17.46-.26,1.45,1.66,1.48.25-.48,3.24-.08.59.61,2.19-1.91-.94-1.47,5.52.32-.08-3.27,2.12.02,2.35-3.46,2.19-.49.27-2.07,1.46.02.14-1.42-1.94-.29,1.85-2.43,1.33.15,1-2.58-3.15-.82-.86.89-.72-.79,4.03-2.14,2.9.82.88-2.19,1.21.54v1.04s1.34-1.15,1.34-1.15l3.53-.86.71,1.56-.5,1.55,1.68,1.58.52-3.1-.95-1.57,3.66-1.24,1.11-1.15.96,1.05,3.66-1.24,6.3,1.13v2.18s3.2,3.55,3.2,3.55l.78,4.72,1.33.14,3.03-1.05,1.43,1.23-1.1.83.95,1.46-1.1,1.07.34,1.82-1.6,2.27-.6-.13-1.96,2.15.23.97.72.49,1.33.14-.64,2.53,1.92.99,1.45.26,2.42-.45,1.34-.83-.23-1.21.52-3.13-1.32-.38.14-1.09,2.68-1.41-.35-.61-.57-2.54,2.28,1.36-.47-1.21,7.27-1.84.86-1.32.98-.71,2.03,1.84,2.18-.45.13-.84,3.42-2.61v-1.02l.56-.72,1.33.38,2.82-1.3,1.87-3.02,3.33-3.24,1.1-.59-.7-1.96-1.95.22-2.93.69-4.41,2.13-1.47.95-5.54.79v-1.95l4.1-.32.87-1.33,3.3-1.05,1.62-2.78,1.72-.95,1.22-.23-.48-.74-1.09-.38-1.08-.87-1.58.1-2.31-.4,2.2-.7-1.08-1.11-2.81.57-.72-.74-3.19,1.66.38-1.09-1.7-.51-.26,1.46-3.11-.41v.62s-1.88,1.13-1.88,1.13l-4.74.28-.6,1.49-.69-.24-1.97.09-.56-1.05,1.5.14.37-1.73-.81-.13-1.16.68-1.61-.25,1.17-.91-1.73-.37.6-1.73,2.43-.08,2.67-1.24-.09-1.97.9,1.86,1.74-.79,1.85.26,2.2-.09.26-2.08,1.74-.55-1.25-1.29-3.56-1.55.82-.57-.55-2.2-2.17-1.53-1.05,1.03-1.03-1.05.82-1.03-.22-.47-1.38-.25v-1.97l-4,2.02-.04,3.17-2.45-2.02.08,3.1-1,.23-2.59-.9-2,1.21-.02,1.93-.97-1.72-.86-.13.07,3.77-2.25,1.67-2.84-.65-.51.97-3.52,3.85-.61-.62,1.13-1.32.14-1.09-2.34-1.13-1,.47,1.39-2.05-.1-1.58-.86-.38-2.14,2.77-1.01,1.2-.61-.86.29-2.92-3.84.07-.5.72,1.35,1.11-.39,1.09-1.12.11-.16,2.31h-.74s.06-5.19.06-5.19l-.72-.25-2.9,1.9.34,1.82-.25.72-.58-1.58-.28,2.66-2.02-1.84-.97.47,1.06,1.83-.96-.26-.26,1.69,1.08.14.26-1.45.46,1.46-1.09.59-1.55-1.11.15-2.06-.71-.49-3.13.44-.02,1.45,1.41,2.2-4.43-.42.32,3.28h-.48s-.44-2.68-.44-2.68l-2.03-.88-.98,1.44-.95-.74-2.17.7-.13,1.09-2.29.57-1.13,3.5,3.43,3.56-.36.36-2.26-1.85-.74,1.69-.71-.98-.26,1.21,2.12,2.94-.61.6-2-2.81-1.78-1.36-2.38-1.24-.96.23-.73.47-1.07-.86-2.39-.52ZM236.5,213l-1.72.69.34,1.03,3.1-1.21-.34-.52h-1.38ZM219.63,214l-1.72,1.38,2.93,5.16,2.75-4.3-1.89-2.24h-2.07ZM234.04,213.44l-2.43.52.17,2.07-1.39.52-.17,2.07,1.91,1.38-.7,2.93-.87-.69-1.91-2.93-1.57,2.41,1.39,2.75.35.86,2.96,3.1,1.22,2.58v1.21l2.43,1.72,1.04-1.03.17-1.89h.02l.52.7,2.93-1.89-.17-1.03-.17-2.24.69-1.38-1.46-2.07v-.86l-.6-1.38-1.4.34v-1.21l1.91-1.89.35-1.55.87-.17-1.22-2.24-3.83,1.38-.52-.17-.52-1.89ZM147.2,215.06l-1.69.94-.94-.56-1.5.56h-2.44l.37.56.38,1.87.56.56h1.5l4.88-1.88-1.12-2.06ZM239.43,219.64l-.69,1.38,1.03.86,1.03-1.03-1.38-1.21ZM287.8,240.47l-1.72.34-.69,1.72,2.41-2.07ZM284,240.48l-1.72.52h-.86l-.86,1.03,1.55.86,1.89-1.55v-.86ZM290.9,241.34l-1.38,1.21,1.03,1.38,1.21-1.72-.86-.86ZM264.22,241.51l-1.21,1.21,2.07.17.17-.52-1.03-.86ZM286.14,243.06l-.52,4.3,1.38-1.38v-2.75l-.86-.17ZM236.16,244.61l-1.89,2.07-.34,2.41-.52.86-1.38-.34-.69,1.38,1.03,1.21,7.4,3.44,3.27-2.75-.52-.86-1.21-.17.17-1.38-2.24-2.41-.17-1.03-2.93-2.41ZM296.24,245.3l.86,2.07,1.21.69.17-.52-2.24-2.24ZM213.07,245.54l-.14.03h0s.14-.03.14-.03ZM241.67,246.84l-.86,1.03,1.38,1.21.86-1.03-1.38-1.21ZM300.37,247.97l-.69,1.89.69,1.03,2.07-.17,1.38-.69-.52-1.03h-1.89l-1.03-1.03ZM295.55,248.39l-2.24,1.21.17,5.85,1.38,1.21,2.07-.52,2.07.17.86-2.41-.52-1.89-1.38-1.72.52-1.72-2.93-.17ZM229.44,250.8l-1.21.34.86,1.72.86-.86-.52-1.21ZM224.8,251.66l-.86.86,1.03,1.21.86-.86-1.03-1.21ZM217.05,252.35l-.86,1.03,1.21.86.52-.52-.86-1.38ZM266.97,255.62l-1.55.86,1.21,2.58.69-.52-.34-2.93ZM275.92,271.25l1.72,2.75h2.07l.17-.69-1.38-1.03-2.58-1.03ZM273.86,271.63l.86,2.93,1.21-.34-2.07-2.58ZM272.93,272.52l-1.55.86.17,3.44.69.86-.52,8.44-2.41,3.79.52,1.03,4.3-1.89.86.34v1.55l.86,2.24,2.24-1.38,1.38-2.93.52-.34,1.38-1.03-.69-1.38,1.21-1.55,1.38.86,1.38.34,1.03,1.21,1.55.34,2.07,1.03,2.41-2.58.17-1.21-1.89-1.72-.52,1.21-1.72-.17-.86,1.03-.52-.17,1.03-1.55-2.07-3.27-2.24-.86-3.1-2.07h-1.38l-1.72-1.72-.69.17-.17,1.72-.69.17-2.41-4.82ZM346.34,281.28l-1.38,1.38,2.41,1.38,1.03-.69-1.03-1.72-1.03-.34ZM323.56,281.96l2.24,2.07,1.21-.34v-.86l-3.44-.86ZM301.73,283.51l2.24,1.38,1.03-.34v-.86l-3.27-.17ZM298.99,285.06l-.86,1.03.34.86.69.34,1.21,1.03,1.21-1.21.17-1.38-2.75-.69ZM287.98,292.11l-2.24.52-1.38,1.21-1.21-.86-.34,1.89-1.55,2.41,1.38,1.55.69.17h1.38l1.72-.69-.34-.69,2.24-3.27-.34-2.24ZM339.79,293.67l-.52,1.72-.69,1.21,1.21.86,1.21-1.55v-2.07l-1.21-.17ZM296.93,293.84l-2.24,1.38-.17,2.41,2.41,3.44,1.21-.86-.17-3.62-1.03-2.75ZM84.49,313.81l-1.72,2.24-.52,1.38-.86.86.86.86-.34,2.93,2.41.17,1.55-2.07,3.44-2.58-2.07-.52-1.38,2.24-1.89-.52.17-.34,1.89-.17.69-1.03-.52-1.21-.86-.34-.17-1.21-.69-.69ZM244.07,318.81h0s-.1,0-.1,0h.1ZM91.38,321l1.21,1.55,1.03-.69-.86-.86h-1.38ZM84.66,322.59l-3.1.17.44.52v2.34l.83,5.83,1.17.17v-3.69l-1.23-1.72.86-2.24,1.89-.17-.86-1.21ZM93.61,322.59l-.52.34.69,5.34.52-1.21-.69-4.48ZM91.72,323.8l-1.03,1.03,1.21,3.1.86-.86-.69-2.41-.34-.86ZM96.89,326.72l-.52,1.03,1.89-.86-1.38-.17ZM95.68,329.48l-2.24,2.41.17,1.21,1.21,2.24,1.72-2.93-.86-2.93ZM92.24,332.11l-.52,1.89h1.38l.17-1.72-1.03-.17ZM309.52,335.85l-.52.34v.86l-.69,1.03-.34-.86-.34,2.07-.86,2.24,1.38-1.21.69.86,2.07-2.24-1.03-1.55-.34-1.55ZM307.08,337.74l-1.38,1.21,1.03-.17.34-1.03ZM98.96,339.12l-3.96.52v.86l4.13-.52-.17-.86ZM89.92,347.78l-1.18.17-.51,1.35,1.02,1.69h1.94l-.17.83-1.5.17-1,1.5,2.33,2-.5.33.67,1.33,1.33.33.17,2.5h-.63l-.18.73.55,1.27h1.22l.51,2.71-.51.68,1.18,1.86,1.52-.34.17.85-.68,1.02,2.88,3.89,2.37,1.35,1.02-1.86.34-3.89-3.05-3.55-.17-7.11-5.92-5.75-.85-2.03-2.37-2.03ZM311.56,347.9l-2.41,1.72.86.52,2.07-1.38-.52-.86ZM397.64,357.02l-1.38.69-1.72-.34-5.68,2.07,3.44.52,1.72,1.21,4.3-.17,2.24-1.03,3.44-.52.17-1.21-1.03-.69-2.75-.17-2.75-.34ZM91.55,357.37l-1.21,1.21,1.55,1.03-.34-2.24ZM101.19,362.53l-.34,1.55,1.72,2.58.52-1.38-1.89-2.75ZM304.33,363l-1.89.86-.69,1.21.86.69,3.44.17,2.58.69.86-.34-2.41-3.27h-2.75ZM410.55,367.01l-1.72,2.41.34,2.24.69.17.86-.52-.86-1.03-.17-1.03,1.03-1.38-.17-.86ZM417.61,368.73l-.52.69.34,1.03-.52.69-.34,7.23,2.75,2.24,4.82-2.93-.34-2.41,1.38-.69-1.21-1.55.34-.34-2.41.86-.52-.34-1.55,1.03.17-2.93-.52-.86-1.89-1.72ZM315.69,369.42l-1.03,1.21.17.86,2.24-1.72-1.38-.34ZM412.61,376.82l-1.89,1.38-.86.52-.34-.86-.86.34-.34,1.03-1.38.34-.17.52-2.07.17-.52.69-.69-.52-.69-.17-1.89-1.89-.34,2.24-.34.69,3.1,1.7h1.38l3.79-.33.52,1.33h.52l.17-1.33,2.75-.34.52-.86-.96-1.72v-.69l.79-1.21-.17-1.03ZM313.97,418.48l-.86.52-1.89.17-.69.83h-2.93l.17,1h2.93l4.13.75.86-.86-.17-2.07-.86.34-.69-.69Z" fill="#ce1126"/><path id="uuid-a4e944d3-6d99-4fd0-b46d-e6d5ad050caf" d="M186.58,317.08l-1.89,1.03-2.07,1.55-.52.69-1.03-.34-.52.34.17.52,1.03.17,1.03.69,1.38-1.38,1.03-.69,1.38-.34M214.98,338.77l-.69.34-.34,1.21-1.72,1.72-1.55,1.21-1.38.17-.52-.69.17-.69,1.21-.17.17.52,2.07-1.38.34-1.21-.17-1.03-1.38-2.24,1.72-2.24.69.17.69-1.38,1.72-1.55M186.84,316.4l-.09.36,2.18-1.15,1.64.18.27,1.22h3.19s4.57,2.09,4.57,2.09l-1.8.18-1.63-.68-1.63,1.04-3.52-.68-3.79-.14-.04.16M216.21,331.26l.67.19-.69,1.89,1.03-.34h.69l-2.47,3.42.41,1.57-.9.34-.02.18M230,359.39l.56,1.66-.94.37.19,1.29.38.37.19,1.66.19.55-.19.92,1.31,1.29.94,2.76.56,4.24.94,1.66.19,1.84.94,1.47.38,2.39,1.87,3.5-.37.74-.19,2.39.19,1.29-.94.74-.94,1.66-.75-.18-.37-3.5.37-1.47.38-1.84-.56-.55.75-2.21-.37-.74-.56.18-.94,2.21-.38-.37-.19-2.39.38-.55v-.55l-1.69-1.11.19-1.11h-.75l-.94,1.66-.75-.37-.56-2.58-1.31-.55-.38-.92-.19-.92-.94-1.11.19-.37-1.12-1.11.38-.74h1.31l.56-.37v-.37l-1.69-.18-.94.37-1.12-2.21,2.62-3.87-.19-1.47,3.19,1.47.56-.92-.94-.74.19-1.47-1.12-.55,2.44-1.29ZM378.18,326.72l.69.86-.17.69.86,1.73h-.69l-.87.68v.69l-1.54,1.21-1.03-.69-1.38-.17.69.86-.52.52-.69.34.86.86-1.03.69-1.03-.34,1.03,2.07,2.64.34v.69l-1.43.26h-2.07l-1.55-3.19-.52.19h-.52l-4.3-1.91-1.72.17.52-2.58.86,1.38,4.3,1.72.52-.69-1.21-2.07,1.03-1.03,2.07,1.55.34-.69-.52-.52,1.55-1.03-.69-2.07,2.75,2.07,1.72.69.34-.52-1.21-.69.34-.69,1.55-1.38ZM156.45,250.98l1.55,1.03,3.62.52.86-.34.86.34,4.3-.17,1.55-.34.86.69,1.89-.52,1.38.34,1.21,1.72-1.55-.34-2.41.34-1.38,1.03.34.69,2.24,1.72,1.89,1.31h1.38l1.89-2h.52l-.45.52v1.55l-2.47,1.89-.53.52v1.16l.52.55-.7.36-.35-.55h-1.39l-1.57-2-1.04.36-1.04-.18-.17.73.52,2.18-1.04-.18-1.57,1.09h-1.04l-2.26,1.27-.87-.36v-.99l1.51.17,1.38-1.03,2.24-1.38-1.03-2.07-2.41.17-1.55,1.38-.52.83h-1.38l-2.75-2.56.86-.17.52.73h.97l.17-1.33.83-.17.83-.5h1.17l.17-.17v-1.49l-1-1.03v-.34l2.03,1.21,1.89.52-1.38-2.75-2.58-.86-.86.34-.86-.42h-1.21l-.17-1.3-1.89-.17-1.21,1.21.17-2.58.52-.17ZM172.98,284.03l.34-.03h.34l.69,1h1.32l-1.8,1.31.49,1.47,1.96,2.29,1.47.98.98,1.96,1.15.82,3.76.33,1.96-1.15,2.62-2.29,1.47-.49,1.64.33,3.11,1.15.82.65-.16.49-.65.16-1.64-1.47-2.13-.49-1.64.33-1.8.82.98.65,3.11-.82.16.33-2.13.98.98.65h-2.11l-1.72,1.39-3.27,2.41-1.38.2h-1.38l-.52-.03-1.72.34-.69,1.21-1.55,1.38-4.13-.34-3.1-.69-1.03-.52-1.03-1.55-1.89-.86-2.75-3.79.17-1.03,3.44,4.48,1.38-.69,2.07,1.55.69-1.21,1.03-.17.86-1.55,2.07.47h-.17l.86-.12.69-1.21-.52-2.07-.86-.52.52-1.21-1.38-1.38-.17-2.24-.34-.69.52-1.55ZM322.83,350h1.83l.5,1-.67.83-1,1.67.17.5h.5l2-1h.33l.5.67-1.83,1-2.83,1.83-1.17.17-.33-1-.33-.5-.83-.17-.17-.33.67-.5,1.83-1.17v-.5l1.67-1.83-.83-.67ZM354.83,334.17l-.83,1.17-.33.5.67.67,1-.5,1.17,1.17-2.17.17.67,1.17-.17.5-.33-.33-.83-.33-1-1.33h-2l-.17.67,1.5,1v1.02l1.25-.56.18.38-.36,1.12,3.93-.38v.75h-1.96l-1.07,1.13.36.94-.18.38-.54-.75-1.43-.19-.36-1.13-1.07.94-.71-.94-1.96-.75.18-.75,2.14-.94-.36-.94h-.54l-.83-1.17.67-.17,2-1.67,1.33.33,2.17-1.17ZM277,390v2.89l.71.69-.18,2.75-.35.52-.71.34-.53-.52-.71.69-.53-.52-.18-.69-.88.52-.18-.17.35-1.03-1.06-.52,1.24-1.38v-.69l-.53-.52,1.76-1.38h.88l.88-.52h0M313.17,253.7l.78.77,1.94.38,1.56.38,1.56.77v1.15l-1.56.38-2.33,1.15-.39,2.31h-.78l-.78-2.31-1.17-1.54v-2.31l.78-.38.39-.77Z" fill="#ce1126"/></g><rect id="uuid-dfafe0d8-0d8f-44aa-81a9-90b6c57a6f6a" x="126" y="285" width="97" height="48" fill="#002369"/><path id="uuid-a0412a43-f98d-4263-86e3-d50d7bfc7de4" d="M126,285v5.37l86.16,42.63h10.84v-5.37l-86.16-42.63h-10.84ZM223,285v5.37l-86.16,42.63h-10.84v-5.37l86.16-42.63h10.84Z" fill="#fff"/><path id="uuid-98a14fea-0540-440c-9e51-5dec117a0ba9" d="M167,285v48h16v-48h-16ZM126,301v16h97v-16h-97Z" fill="#fff"/><path id="uuid-eed74a73-af6d-4a6d-829a-4ce2b573b879" d="M126,304v10h97v-10h-97ZM170,285v48h10v-48h-10Z" fill="#ce1126"/><path id="uuid-078269d2-cb98-4393-a18f-592ddccc5da8" d="M126.73,333l32-16h7.16l-32,16h-7.16ZM127,284.87l32.26,16.13h-7.21l-25.05-12.52v-3.61ZM184.03,301l32-16h7.16l-32,16h-7.16ZM223,333.13l-32.26-16.13h7.21l25.05,12.52v3.61Z" fill="#ce1126"/><g id="uuid-01e53fb2-cabf-40b1-a5d3-a270ff8a044c"><polygon id="uuid-a06bd100-3c09-4fc3-bf1a-f5cff968fb41" points="128.07 222.44 128.15 223.06 128.77 223.36 128.87 224.74 130.19 225.57 127.45 228.45 126.91 228 124.98 228.03 124.3 228.27 124.08 229.12 122.09 230.07 122.26 231.68 121.19 232.31 121.44 233.39 120.82 233.47 121.62 235.77 121.17 236.32 119.43 238.34 120.45 240.18 119.07 240.66 118.49 243.05 116.56 242.69 116.05 244.93 114.52 245.34 113.02 248.44 112.03 249.3 111.04 249.77 111.13 251.16 112.53 251.83 110.6 257.4 111.01 259.32 108.72 260.51 107.51 262.6 108.45 263.82 110.08 264.8 110.41 266.49 113.06 268.53 113.15 269.53 112.07 269.39 109.76 274.97 99.49 261.4 92.02 249.95 84.56 236.7 79.92 226.71 79.93 226.69 80 226.55 80.6 225.32 81.69 225.62 82.22 225.33 81.34 223.38 79.95 222.71 80.08 220.86 79.38 220.71 78.9 218.95 141.69 192.31 143.94 191.11 144.29 195.77 144.51 197.12 143.45 198.9 143.77 199.44 142.87 201.3 142.74 202.76 143.54 205.06 135.36 209.33 134.75 210.18 132 211.92 131.31 211.77 132.65 214.14 134.01 218.05 131.73 220.39 128.07 222.44" fill="none" stroke="#000" stroke-linecap="round" stroke-linejoin="round"/><polygon id="uuid-895be5b8-5d30-49a7-b7cb-74909e9f0528" points="195.21 348.09 207.57 354.4 218.21 359.16 222.26 360.65 216.99 373.57 217.19 373.71 215.14 378.13 210.94 388.41 194.16 439.5 185.65 436.05 178.8 433.06 170.27 429.07 161.32 424.6 154.53 420.93 191.65 354.43 192.4 352.47 192.75 352.41 195.04 348.38 195.16 348.26 195.21 348.09" fill="none" stroke="#000" stroke-linecap="round" stroke-linejoin="round"/><path id="uuid-e5ae8dba-2b87-4033-bdea-37f705476f1b" d="M409.62,357.32l-.17,1.21-3.44.52-2.24,1.03-4.3.17-1.72-1.21-3.44-.52,5.68-2.07,1.72.34,1.38-.69,2.75.34,2.75.17,1.03.69ZM338.35,292.41l-.56.53.93,1.06h-1.67l-.37-.88-1.67.35v.7l-4.33-.17-.83-1.72.17-.86-.33-.52-.5.34-3.17-1.38-1-1.2-4-1.2-3.17,3.78-1-.69-1,.52-6.83-.17-1.67,2.24.5,2.06,2.33,3.1.5,3.1-.67,2.06.5,1.03.67-.52,1.67,3.78,1.83,2.58-.83,1.03-.17,3.27-.67,2.41-1.33.86,1,1.89,1.33,1.38,1.83.52,3.5,2.24,3.5,3.78,1.5,3.96.5,5.33-.83,3.1-3.5,6.37-1.67,1.2-1.5,1.89-2.67.52.33.86,1.17.34,1.17,1.72,1.17.86.83.86-.17,1.03,1,3.1,1.5,2.06.83,1.72.83,2.75.83.17.67,1.89-1,2.06-.17,1.55,1.33,1.38v1.2l-.83.52-.5-1.38-1.5-.86-.83,1.03.23,1.08.11,1.68-.09.02,7.09,27.17,1.17,2.92,2.83,2.92,3.17,1.89,5.5-.17,2.5,1.72,2.17-.34,1,1.89,2.02.45.95-.29,1.2-.68,4.67-3.44,2.5.17.33,1.55.63,2.6.04.14.18-.28,14.82-5.55-.17-2.41h1.17l.67-1.03.67.69.17-1.55,1-.17-1-.86,1.17-2.24-.33-.69.33-.52-.17-1.2-1-1.55.5-1.55-.5-2.06,1.02-5.55.42-1.09-.26-.11,2.31-7.88,9.1-2.59-.18-.47.59-.2,2-1.72.67.34h4.81l1.72-2.76,1.21-2.07-.17-2.76-1.38-1.55-3.97-.34-2.93.69-6.38,6.38-3.9,5.43-1.79,2.5-1.38,2.93-1.9,8.28-.86,1.72-2.07,1.9-1.38,2.41-1.03.34-2.93,2.76-2.93,5.17-.69,3.79-1.38,1.72-1.1.78v-.03s1.61-1.78,1.61-1.78l.52-2.76.17-1.9,1.72-2.93,1.86-2.24,2.28-2.76,3.45-3.79,1.03-1.9-.17-2.24,1.03-1.03,1.38-8.45,1.9-5.17,1.72-3.62,2.41-1.21v-4.48l1.03-3.1,3.1-2.59,10.52-5.34h.08l6.54-3h1.21l2.75-2.63,3.96-2.41-.2-.52v-1.89l1.06-2.41.69-2.24-.75-.69v-.71l.68-.68-.17-1.37,2.39-1.71-.17-.85.68-1.71,2.05-.68-.52-.16h0s.44.06.44.06l-2.49-3.32-26.32,16.06-.68-1.2-2.22-1.54-.17-1.03,1.54-1.54-1.2-.68-.85,1.71v1.74l.86,1.39.52,2.43,1.2,3.13-1.2,1.39-1.55-1.39-1.55.7-2.41-1.91-.17.87-2.24.52-1.2-.87-.52.87-.69-.87.52-.87-.86-1.04.17-.7-1.89-2.09-.86,1.22.86,1.39-.34.7-2.75-1.04-.86-1.04,1.38-.87-1.89-2.78-.69.35-3.44-2.61.17-1.57-1.55-1.04,1.72-1.22.69-1.39-2.06-1.39-1.03-1.39,4.13,1.57-.17-1.74-2.06-2.26,2.92,1.22,3.44.35,2.41-2.43,1.03.87,1.38-1.04,1.2.52,1.72-.7-1.55-1.57,1.03-.52-1.03-2.26-.34-1.74-1.55.35.69-.7-2.24-2.78.52-.87-1.72.52-1.38-2.26h.86l-2.24-1.74.86-1.57-1.2-1.22.52-1.22-1.03-.52.34-1.22-1.03-1.57-1.55-.35-2.75-1.22-.34-1.04,1.03-1.39-1.38-1.74,1.55-1.57-9.93-8.32-.05-.03.17,5.22.52,1.39.69,6.09h-1.38l.34,2.61-2.75,3.83-1.89-1.57-1.03-.17-2.41-1.39-2.92,2.26-.86,1.39-.52-.17-.86-1.57,1.03.35.34-.52-.34-.7,1.03-1.04-1.38-1.74-.69.52-.52-.87v-.22l-1.49-3h-.37l-.19-.71.37-.18-1.67-2.12-.93-1.94.37-.53.56-1.06-1.3-1.06ZM416.16,366.96l-.17-.86-1.72,2.41.34,2.24.69.17.86-.52-.86-1.03-.17-1.03,1.03-1.38Z" fill="none" stroke="#000" stroke-linecap="round" stroke-linejoin="round"/><polygon id="uuid-3c7b5686-0a75-4e72-b5f0-ba91768b6177" points="403.32 383 400.22 381.3 400.56 380.61 400.91 378.37 402.8 380.26 403.49 380.44 404.18 380.95 404.7 380.26 406.76 380.09 406.93 379.57 408.31 379.23 408.66 378.2 409.52 377.85 409.86 378.71 410.72 378.2 412.61 376.82 412.79 377.85 412 379.06 412 379.75 412.96 381.47 412.44 382.33 409.69 382.67 409.52 384 409 384 408.48 382.67 404.7 383 403.32 383" fill="none" stroke="#000" stroke-linecap="round" stroke-linejoin="round"/><path id="uuid-dcea8a72-50ff-4049-af3c-1e1ba3d71603" d="M254.99,367.06l-.03.19-.07-.08h-.05s-.04.18-.04.18l.11-.04-.05.23-6.35,28.14-3.59,10.24,10.87,24.34h0s.03.08.03.08v.02s.04-.02.04-.02l1.86-.24,2.04,3.16,1.21.2,2.4-.9,1.06.27,1-.27,1.2-1.48,2.47-.75,2.93,1.1.06.54,1.13-1.64,2.95.72,1.62-.55,1.16-2.4.47-.21,1.04.65,2.95-1.34.83.18,1.24-.69.59-.19-.07-.1h0s.18-.1.18-.1l.04-1.14-.34-1.16.59-1.58.97.49.41-.75-.42-2.99.69-.13.3,2.3.49-3.03-.89-.72.1-.61,3.52-.04,4.21-2.29,2.29.09.58.86,4.21,1.84,2.33-1.06,1.81-1.38.85,1.86,3.23,1.34.23,2.15,1.99-.15.55,1.62.11,1.07,1.95-1.07,3.43.13,1.19-1.1,3.57-1.62,4.68-2.5.9.34,2.18-.99.75-1.65,4.82,1.94,1.75.14.44.55,3.53,1.58.28,2.68-1.48.86-2.2-.31-1.4.64-1.57-.98-2.41-.78-1.5,1.24,3.53,1.58,1.23,1.88-.62,2.34,4.18,6.72-1.43,3.46.97,2.56,1.21,2.26-2.16,2.67,1.55,1.36,2.8-1.27-.34-1.16,1.4-2.7.55-.44.1-2.67.45-1.89,4.99-2.64.81-1.12-1.38.25-.28-.62,1.19-1.1,3.26-3.54,1.24-.56-.02-.15.24.24-.33-1.05v-.11s-.04,0-.04,0l-.04-.15-.61-.1-1.71-1.29.27.27-.94,1.16-1.96,1.45-1.21-.2.42-3.19.71-2.57,4.17-5.27,1.26-.95.3.24,1.96-1.45.73-1.27h-1.8s.1-.59.1-.59l.78-.35.59-1.58.41-.82.65-.38.17-.19h-.04s.04,0,.04,0l1-1.12.16-2.13-.27-1,.35-1.28.51-3.41,1.04-1.1,1.08-.78.02-.02-.1-.12-1.65-2.08-.94-1.26-2.4.9-2.94,5.08-.84,1.12-.77.66-2.06.45-1.71-1.28-1.88,1.23-3.03-.49-5.05,2.48-3.72-.37-3.84-1.44-2.28-2.14-17.73-21.51-1.64,1.1-3.19-.42-4.06-1.52-.55.44-2.85-1.33-4.51-1.69-.93.42-1.18-3.02-2.27-2.53-3.02-2.94-1.13-2.48.48-.59-2.28-2.14-.34.9-1.4.63-2.07.38-.08.23-7.17,4-4.49-.4-.71.51-3.7-.04-1.86.85-1.76.24-.44-.55-3.22-1.72-3.62-.48-.06-.13-.19-.1ZM328.45,418.4l-.57.83-1.65.94-.34.91-2.66,1.21.51.71,2.66-1.21,4.19-.77.43-1.14-1.01-1.81-.64.67-.91-.34Z" fill="none" stroke="#000" stroke-linecap="round" stroke-linejoin="round"/><path id="uuid-53efc0b0-b053-4693-98b6-7547badfffb7" d="M447.55,372.13l1.21,1.55-1.38.69.34,2.41-4.82,2.93-2.75-2.24.34-7.23.52-.69-.34-1.03.52-.69,1.89,1.72.52.86-.17,2.93,1.55-1.03.52.34,2.41-.86-.34.34ZM443.63,381.2l-.17-.52-1.52-1.03-1.18,1.03-.68-.69h-.68l-2.03,2.75-2.03-.17-1.01.52-.17.86-1.52-.34-1.01.17-1.18-.34-.06.17-.29.41h-.01s-1.15,2.34-1.15,2.34l-1.35,4.3.51-.17,2.37-1.72,2.37-1.38,1.18.17v.34l-1.01.52-1.35,1.55-.51,1.03h-1.14l-.34-1h-.34l-2.41,3.47-.34,1.21-3.27,5.51,1.21.34-.52,2.07,2.41,2.41.86-.52,1.38.69.17,1.03,2.22-1.21v-1.03l.71-1.03,2.07-6.03-.34-.52-.69-1.03,1.03-1.21,1.21.52,1.38-1.21-.34-1.03,1.55-1.21,1.55-1.72,3.62-5.34,1.55-1.55,1.72-1.03v-.74l-2.37.35Z" fill="none" stroke="#000" stroke-linecap="round" stroke-linejoin="round"/><path id="uuid-af6c32cd-f359-4262-b4e3-142f74df86da" d="M208.74,173.48l.08.1-.51,3.2v.23s-1.2-.02-1.2-.02l-.04-.34-.36-.13-.45.58-1.11-.55-1.99-.61.43-.75,2.37-.48,1.92-1.29.88.06ZM207.62,183.76l-.41-3.24.64-.38.49-.29.38-1.09-4.12.35-1.6,1.07-.02,1.22-.53,1.28,1.75,1.51,3.26-.42.15-.02ZM205.48,198.07l-.34-.07-1.42-.02-.22-1.72-1.02-.51.39-.69-.88-.68-.12-.94-1.86-.88-.1-.78-.92-1-2.37.14-.53.86-.16.02-1.46,2.25,1.39.94-1.47-.29-1.27,1.27,2.04,1.01-2.7.03-.7.73,2.31,1.93.57.72,2.78.6.49-1.17.8.06-.17,1.13,4.38-.56.14,1.09-2.43-.33-2.07,1.22-1.23.32-.13,1.45,2.25,1.46,1.25-.16,4.3-1.92.08-.36.1-.04.38-5.08h-.01s-.07-.03-.07-.03ZM199.99,178.63l.69,1.3-.04,1.05,1.6-1.07-1.31-2.09-.94.81ZM198.67,187.31l.69,1.3,1.71-.22.25-.73-2.65-.36ZM196.35,181.35l-.38,1.09-.49.24-1.35-1.04-1.52.37-3.71,3.6-2.91.26v1.39l-.38-.19-2.09,1.31.26,2.05,2.14.42,1.07-.3v1.39l1.71.29.96-.64-.11-.85,1.2-.15,2.74-4.34.21.32-1.11,2.22,1.29,1.92,1.02-1.52,1.98-.77-.07-1.9.51-.07-.13-1.02-.32-1.17.9.23.62-.6-1.2-2.62-.85.11ZM190.4,193.22l-2.11,1.14,1.26,1.75,3.47-4.09-.07-.51-2.56,1.71ZM188.85,205.61l-2.07.09-1.45-.51-1.56-1.36-.88-2.84-2.71.52-1.45-.51-2.61-.02.2,1.54-.92.98.84,2.5-8.56,10.46,3.6,5.1-.06.88-.64,1.82.47.98,2.9-.37,1.09-1.01.43.64,2.63.19,2.17-4.79,2.13-.97,1.17-1.71,5.93-3.88,1.9-.07,1.34-1.73-2.17-4.76-1.71-1.17ZM139.2,224.55l-.92-.4-1.3.69-2.22.28.41.47.56,1.66.58.45,1.37-.17,4.22-2.27-1.26-1.75-1.43,1.05ZM128.63,234.51l-.04,1.05-1.36,2.96-.66.26,2.42,1.26,3.28,2.54-.63,3.21-1.96,3.73.41.47.68-.09.84,1.11.98-.03-.73,3.96-.71-.08-1.62,1.09-.45.59.28.84-1.16,1.91,1.04,1.27-.56,1.13.8.78-.48.41,1.95,1.51-.08.71-.36,2.69,1.89.99-.91,1.17.83,2.36-1.84.76.81,2.18-1.08,1.19.44,3.46-.37,1.28-.58.95.85,1.12,1.56-.2,1.44,5.8,1.41,1.4-1.29,2.28.14,2.45,1.47.52,1.93-.07,1.22,1.25,3.38.27.63.8-.99.48,1.12,6.02,14.86,4.47v.04s11.96,2.98,11.96,2.98l13.32,2.35,11.13,1.75,14.03,1.03,11.82.25,4.37-.2.23-.15-.24-.15-.91-31.78-23.22-5.49-3.5-5.36-5.72-.68-20.36-23.09h0s3.66-11.4,3.66-11.4l-.08-.18.04-.15-.19-.17-3.97-3.35-1.6-.15-.58.95-1.25,1.22h-1.4s-.76-.59-.76-.59l.75-2.15-.34-1.33,1.43-2.24-.57-.44-2.1,2.32-1.07.99-.99,1.67-1.1-.55-.53-2.85-.29-4.93-.74-1.79-1.14.49.6,1.98-2.34.47.49,1.14-1.45.7.04-1.03-4.16-.33-1.41,1.04-.84.11-.09-.67-2.21.11-3.27,1.27-.86,1.31-1.14-.88.21-1.06,5.96-1.62.72.25,6.51-1.34-1.16-1.05-1.19-.02-1.14-.72-2.46,1.18-4.43-.65-.83,1.67-1.99-.62-1.26,1.03-2.87.71-.94-.58-1.09,1.01-.32-1.18-.64-.96-.56-.28-.13.33-.07-.48-4.54,8.06ZM203.37,221.06l.02.06-.06.03-1.9,1.02-1.34.34-.24-.49,1.15-.49v-1.39s-2.42-2.64-2.42-2.64l-1.28-.53-1.57,2.63-1.9.07,2.45-2.57-1.48-3.46-4.07,2.08-.9-.23-2.01.6-3.09,3,.09,2.07-.73-.25-1.19,1.54-.68.09-.72,1.13.6.62.92.4.6.62-.6.77.98.92h2.78s3.29-.08,3.29-.08l-.08.7-6.83.87-1.13,2.05,1.11,1.94,2.14.42,2.27,1.08-.12.09,2.03.38,3.59-.46-.25.73,2.93,1.19,2.18,2.15-2.37.48-3.7-1.79-4.4-.48-4.76.78.07.51.2.03h0s18.6,3.13,18.6,3.13l1.88-19.74-.05.07Z" fill="none" stroke="#000" stroke-linecap="round" stroke-linejoin="round"/><path id="uuid-a4845d46-f8f9-4842-86bd-30cab330c2b1" d="M367.82,277.56l-1.36-.21-4.6-2.57.51.4-.14-.07-.42.3-1.71-.42,11.77,5.43-1.1,1.9,1.78,1.32-.65,1.6.6.91,2.98.46,1.59-.07,1.4,1.24-.02,1.26,1.14.23-.19,1.3,1.48.86-.44,1.73,2.62,1.09-.84.22,1.91,1.82,1.54-.95-.28.97,2.88,2.1-.49.85,1.41-.73.78,1.58,1.58,1.91-.87.77,1.9,1.1-1.49,1.11-1.3-.19-1.07,1.36-1.22-.57-1.72,2.96-3.43.55-3.15-.41,2.58,1.64.61,1.63-4.41-.44,1.36,1.07,2.36.8-.31,1.51-1.36,1.61,1.77.6.23,1.55,4.01,1.62.58-.51,2.55,2.18-1.11,1.19,1.1.78,2.94.29.16-.76-1.19-1.11.52-1.39,2.37,1.52v.71s1.11.78,1.11.78l-.28.97.89.66.28-.97,1.39.52,2.04-1.08-.06-.88,2.83,1.22,1.33-1.07,1.86.94.81-1.65-1.97-2.7-1.12-2.21-1.19-1.11-.31-1.17.39-1.89,1.35.36-1.1,1.9.43.96,2.57.93.98.99,21.55-22.55,3.3,2.6.04-.11.04.12.84-1.22-.02-4.11-.47-3.1-1.19-1.11-1.02-1.16-1.04.62h-.08s-3.66-3.11-3.66-3.11l-2.94-.29-2.22.41-.86,1.48.49,1.84-.97-.28-.78-1.58-2.45-1.14-2.39,3.14.68.54-1.29,3.21.58,2.17-.58.51-.98,4.73-.12-.07-1.24-4.04,1.44-4.68-.36-1.34,1.94-4.81-.57-1.46-2.13.75-1.06-.61-.54.68.36,1.34-1.2.86-3.27-.2-.74,1.27-1.51-.31-.77,1.82-1.75.82-.07-1.59-1.78-1.32-2.28,1.5-1.68-.27-.66.89-.27-1-1.3-.19-.82.94-2.03-.89-1.25-1.99-.33-2.6-.63-.37-1.63.61-.51-.58-2.31.08.52-1.39-1.25-1.08h0c-.09.32-1.62.77-1.85.83l-.48-1.13-2.02-.18-.56-.75-2.11,1.57-.1-.05.28-1.37-1.11-1.49-.79.39-2.62-1.09-1.05.1-.8-.32Z" fill="none" stroke="#000" stroke-linecap="round" stroke-linejoin="round"/><polygon id="uuid-8f39016b-8be9-489d-9cf2-e5d22d2f9377" points="413.17 422.5 413.2 422.46 412.92 422.48 412 423 411.5 425 410.83 425.83 410.17 426.5 408.83 428.67 407.83 430.17 406.67 430.33 406.33 431.67 403.83 433 402.88 433 402 433.88 400.41 433.71 399.35 432.65 398.82 431.06 396.71 430.88 395.65 428.94 392.65 422.41 392.12 421.71 390 420.29 388.59 420.47 386.12 422.24 385.21 422.08 387.85 419.69 386.05 420.94 386.47 420.47 385.19 421.63 385.08 421.42 384.71 422.06 384.53 421 383.83 421 383.59 421.6 383.32 421.49 385.76 413.41 395.4 410.75 395.47 410.94 395.54 410.76 395.63 410.83 395.77 410.65 396.02 410.58 399.35 410.41 400.24 411.65 401.29 411.47 402.18 409.71 404.12 408.65 404.65 409.88 405 412.35 405 414.33 404.33 415.67 405 415.83 405.33 415.33 406.5 415.5 407.33 417.33 408.17 417.17 410.33 419.33 411.33 419 415 419 414.83 420.17 414.74 420.21 414.8 420.23 413.67 422.5 413.56 422.43 413.32 422.45 413.17 422.5" fill="none" stroke="#000" stroke-linecap="round" stroke-linejoin="round"/><polygon id="uuid-58466ef6-40e6-48c5-9424-5434ea58b88b" points="218.96 403.64 218.88 403.48 218.79 403.47 221.2 349.76 222.48 338.72 223.27 333.92 223.04 333.83 224.64 319.97 224.89 319.86 225.06 320.03 232.05 320.84 242.89 321.35 251.34 321.52 251.5 326.69 251.16 328.58 253 329.96 253 330.99 256.15 331.16 257.01 330.48 258.56 330.99 258.04 333.06 259.42 334.78 260.97 341.84 260.45 342.87 262.86 343.73 266.31 341.49 269.4 342.01 271.81 343.73 275.2 343.89 275.24 343.89 275.35 343.83 275.3 344 275.31 344 275.43 343.9 275.29 344.1 257.7 367.32 249 375.24 249 402.16 250 402.12 250 405 245.82 405 231.19 404.5 219.02 403.49 218.96 403.64" fill="none" stroke="#000" stroke-linecap="round" stroke-linejoin="round"/><path id="uuid-f9393f09-9e73-446c-b3f7-899a34323408" d="M117.94,305.72l-8.77,45.88.18-.17,1.17.77.91.36-1.31,1.14,2.12,1.69-.21.58,1.89.5-.38,1.5,2.37,1.99.44,2.91,1.39.61.41,1.77.96.24,1.59,1.53.43,1.93,1.65.12.48,2.98,1.68,2.04,1.12,1.22-.07,1.47,2.03,2.26,1.85,1.42.3,3.32-.22,4.13,1.85,2.3.58,1.99-11.35-1.38-10.71-1.69-13.51-2.52-8.29-2.09.02-.14-.06-.42-.73.45-2.16-.26.43-1.32-.55-1.82-1.32-.43-.75-1.96.64-.31-.44-1.32h-1.76s-1.43-2.69-1.43-2.69l.77-.51-.27-1.35-2.54-2.12-.67.14-3.25-1.27,1.18-2-3.28-2.32-.88.88-2.24-3.23,2.19-3.08-1.25-.1.19-2.5,4.82-2.21-.34-1.69-3.81,1.13-1.32-2.19.74-.68.77-1.39-.64-.57-.28-2.23-.85-2.46,2.69-3.18-3.31.15-.7,1.72-.54-.07-1.57-5.13.33-.95-1.25-1.85,4.21-4.37-.21-1.01.84-1.05.7-3.48,1.21-.95.03-1.59-1.35-.6-.68-1.62-2.78-3.3-.95-.33.1-1.25-.58-1.11.81-1.22-.85-.71,1.01-1.08-1.38-9.38.23-.57-1.94-5.23.5-.98-1.05-1.72-.65-1.45.67-.14-.72-2.66-3.21-.23-1.08.75-.57,1.52-1.05.04-.74-.2-2.73.38.57-2.4-2.22-7.45.2.11v.02s9.74,5.14,9.74,5.14l13.96,6.03,12.88,4.59,16.39,4.57,14.94,3.32v.04s-1.12-.19-1.12-.19l-.03.28-.27-.04ZM80.62,378.38l2.2,2.19.23-1.45-2.4-2.32-.03,1.59ZM78.71,379.03l-1.61-7.05-3.28-2.1-3.79-2.43-1.25-1.85-2.77-1.54-1.15.41-.23,1.45,1.36,1.48,2.02-.41v.88s-1.48.48-1.48.48l-.7,1.72,2.77,1.54-.44.44.95,1.21,1.42.06.68,2.5-.67.14-.03.71.75,1.08,1.18-.24,1.05,2.6-.37.78,1.56,1.62,1.45-.65.34.81-.47,1.15,3.66,3.3,2.64.87.64-2.06-.45-3.95-.74-.57-3.02-2.35ZM70.18,355.56l.17.84,3.95-1.33-.34-.81-3.78,1.29ZM69.3,342.56l-.3,1.12,1.68-1.22-1.38.11ZM66.95,348.31l.41,1.15,1.63,1.95,1.1-3.21-1.43-2.7-1.71,2.81ZM64.83,339.61l1.74,5.09.27-1.28-1.57-4.25-.44.44ZM64.12,337.82l-1.35.27,1.49,1.28.88-.88-1.01-.67ZM65.87,349.06l-.13,1.96,1.35-.27-.17-1.72-1.05.04ZM63.65,340.72l-.81,1.22,1.8,2.8.67-1.01-1.15-2.22-.51-.77ZM69.23,375.08l1.72.7-.78-2.12-.94,1.42ZM55.07,337.38l.1-.37,1.82-.55.47-1.15-.75-1.08-.91-.17-.41-1.15-.81-.54-1.24,2.54-.23,1.45-.67,1.01,1.01.67.25,2.94,2.4-.31,1.11-2.33,2.86-3.22-2.13-.09-.9,2.47-1.96-.13ZM56.21,346.45l-.85-1.58.4-2.36,1.82-.55-1.08-1.01-3,.79.27.47.45,2.19,2.04,5.73,1.22-.07-.17-.84-.57-.23-.51-2.53Z" fill="none" stroke="#000" stroke-linecap="round" stroke-linejoin="round"/><polygon id="uuid-0927ae11-fa58-44d8-84fd-62e6dc9893f8" points="131.37 355.52 129.63 353.44 131.14 352.59 130.32 352.05 129.33 351.06 129.12 351.19 146.85 307.98 147.11 308.08 147.19 307.81 148.25 308.22 159.59 312.63 172.33 316.59 183 319.69 183 319.86 182.91 320.01 181.79 324.51 181.47 324.66 181.28 326.75 163.41 400.78 163.37 400.94 150.98 397.67 143.75 395.61 143.58 393.54 142.22 390.92 143.26 386.91 143.63 383.6 142.1 381.83 140.56 379.21 140.93 377.79 140.08 376.37 138.84 374.03 138.97 371.02 137.38 370.58 137.34 368.6 136.09 366.78 135.2 366.35 135.15 364.53 133.92 363.66 134.07 360.73 132.14 358.3 132.81 356.91 131.05 356.04 131.37 355.52" fill="none" stroke="#000" stroke-linecap="round" stroke-linejoin="round"/><path id="uuid-7bbaff50-255d-41aa-a4d1-589719acd32a" d="M274.22,137.1l-1.54.17-1.2,2.73h-1.07l.86-1.44-.34-1.21-1.38.69-2.58-.17-.34,1.13h-1.21l-.86,1.11-3.27-.34-.17,1.38.88.86v.34l-3.12-.34-1.38,1.72.69,1.21-1.21-.52-.17,2.58.52.86-1.21.52-2.13-2.07v1.63l-1.31.69,2.44,1.72-1.88.17-.75-.52h-1.12l-.94,1.89-.56-.52-3.19,2.24,1.13,1.21,1.12-.86.56.17-.94,1.38,1.69,1.38-.94.86.38,1.03,4.13-1.03,2.06-1.72-1.31,2.41-3.56.69v.88l2.91,1.33.73-1.67.36,2.17,3.45-.5.18-.83.91-.17.36,1,3.45-2.33.73-1.33,1.82.17-2.18,3.17-3.45,2,.18.83,2.36,1.5-.36.83,1.45,1.5-1.09-.17-1.09-1.5h-.73l-2-2h-4v1.07l.27,1.03.34,1.55,2.07,1.38,1.55,2.93.17,1.89,2.75.34.52-.52.86.52-1.72,1.72-1.03-1.03-3.27.17-1.38,1.21-.17,1.21-.69,1.03.17,2.5h.86l.86-.43.69,1.43h.52l.86-1.26-.34,1.55.52,1.55,2.07,1.38.86-.86.34-1.21.52,1.21-.17.86-1.38.69-2.24.17-.69-1.03-1.21-2.04h-2.5v1.26l.35.72.35,1.98,1.04.36.17.54-1.04,1.26-.69-.18-1.91,2.7.35,2.52-.17.72,2.08.18.69.36,2.08-1.62,1.04.72,3.12,1.08-.35-1.26.35-.9,2.43-.54.35,1.08,1.21-.9-.17-1.08h2.26l.17,2.52.52.36,3.99-4.14.52-2.16-1.04-1.98-.69.54v.53l-.34.34-1.2-1.03.51-.85-.51-.85-1.03.68-3.42.17-.34-2.9,1.2,1.37,2.56.34,2.39-2.05-1.2-2.9,1.2-.68.51.34,2.05-1.88-1.54-.85,1.54-.51-.34-1.37-1.37-1.03h1.54l-.34-2.05-1.37-.68-.51-.68-1.71.34.68-1.37,2.9-.34-1.03-1.2-4.1,1.2,2.05-1.54,1.03-.17,2.22-2.22-.51-1.37,1.2.68,1.37-2.05.17-2.22-2.22,1.03,1.71-2.22-.17-1.03.85-.34,1.37-5.3.34-2.22.85-2.56-.85-.85-1.2.68-2.05,3.93-1.03.17,1.71-3.59-1.71.85-.51-.34,2.73-1.2,2.22-3.76-.34-3.93-.68-1.03-1.54.34-1.54-1.88ZM244.42,156.46l-.34.86,1.55.86-1.03,1.38-.69-.56h-.86l-.17,1.6,1.21,1.21.17.69-1.72.17-.69,2.93.69-.17,1.38,2.24-1.9-1.55v3.1l.87,1.03-.17,1.38.86,1.55,3.44-.86-2.41,2.41,1.89,3.62,1.38.17-.86,1.21,2.41,1.89,1.21-.17.34-.69,1.55-.86.34,1.03.69.17.17-2.07.69-.34-.17-1.03,1.38-3.1,2.24-1.21-.17-2.58-2.58-1.38-.86-2.58-2.23-.86v-2.41l-.18-.34,1.18.86v1.96h-1l-1.21-3h-1.03l-.34-1.54-2.93-4.82-2.07-.17ZM236.85,165.56l-.52,1.55,1.21,1.89h1.03l-.17-2.93-1.55-.52ZM230.24,170.93l-2.24,1.03v1.55l2.41,3.62-.17.86-1.38-.69-1.21.69.86,1.72,1.72-.17,2.93,1.03.34.52.17,2.07,1.89,1.55,1.21-.69-.69-4.13.34-2.75-2.07-1.21-.86-2.24-1.38,1.03-.34-1.72-1.55-2.07ZM219.98,174.2l-2.07,1.03-2.41.17-.52.69,1.89.86,1.03.69.52-.52.57.17v.34l1,.17v.17l1.01.52.86-.69.34-1.21-1.23-1.99-.15-.25-.86-.17ZM221.01,174.54l-.02.08.02-.08ZM238.4,177l.52,1.38-.34,2.24,1.72,1.89-1.21-.17.86,2.24,1.72-.17,2.41-1.55-1.03-2.41.34-.86-1.03-.34-.52-.86-2.75-1.38h-.69ZM212.57,177.47l-1.03.69.52,1.38-.17,1.03,1.72-.86-1.03-2.24ZM215.59,179.01l-1.72.86-.17,1.21-.69,1.21,1.55,1.72h3.44v-3.27l1.21-.52.52-1.03-4.13-.17ZM205.63,181l-1.42.16-3.79,2.84h-2.6l-.18,1.38-1.27-.34-2.36,1.03v2.07l2.18.69,1.09-.17-.18,1.38,1.82.52,1.09-.52v-1.03h1.17l3.17-3.63.17.32-1.33,1.89,1,1.89,1.17-1.26,2-.47.17-1.74h.5v-1.21l-.16-1.11.79.32.63-.47-.79-2.53h-.79l-.47.95-.47.16-1.11-1.11ZM225.48,183.32l.17,2.24.17,1.89,1.38.86.52-.52-1.21-4.13-1.03-.34ZM231.17,183.49l.86,1.21,1.89.17-.17-.69-2.58-.69ZM242.36,184.35l-1.21,1.89,3.79.34,1.03.52.69-2.24-2.58-.34-.34.34-1.38-.52ZM250.45,185.04l-.69,1.03.17,1.38,1.38,1.55h1.38l-.17-1.89-2.07-2.07ZM209.13,186.62l.52,1.38h1.72l.34-.69-2.58-.69ZM218.58,189.57l-1.18,1.77-2.03,1.13,1.35,1.93.34.96-1.02-.16-.68.8,2.37,2.89-.85.16-2.03-.96-.35-.12-1.51-.21v-1.88l-.77-.69.52-.69-.74-.86v-1.15l-2-1.17v-.83l-.91-1.17-2.73-.17-.73.83h-.18l-2,2.17,1.45,1.17-1.64-.5-1.64,1.17,2.18,1.33-3.09-.33-.91.67,2.36,2.33.55.83,3.09,1,.73-1.17.91.17-.36,1.17h4.91v1.17l-2.5-.67-2.33,1-1.33.17-.33,1.5,2.17,1.83h1.1l4.83-1.39.14-.36,2.47-.66,1.02,1.29,1.35-.16.85.48,2.03-.64,1.35-1.45.17-.8,1.02-2.09v-1.77l-1.35-1.45h-1.18l-.85.64-1.35-1.29-.51-.32,1.02-.64-.51-1.61.34-1.61-.17-1.29-.85-.32ZM203,190.03l-2.75,1.38-2.24.86,1.03,1.89,3.96-3.62v-.52ZM241.97,190.71l-1.29.97-.16,1.29,2.26,2.9.32-.48-.32,1.45,3.23-.48,1.13-.32.32,2.1,1.29,1.29.32,2.1-.97,2.42,1.29.81-.16,2.26h.88l1.21,1.97,1.21-.17,1.89.69,1.55-2.24,1.03.52-.52,1.23h5.34l1.55-.37,1.03-.63h2.07l1.21-1.78,2.75,1.38,1.21-1.59h.99l.52-2.43.87-.35v-1.22h-1v-.79l.67-1.58-1.01-.63h-1.35l.17-1.11-1.68-.16-.84-.95-4.04,1.11-1.18,1.74-1.85.32-.84.79.17,1.42-1.68-1.58-2.53.47v-1.05h-1.56l-.17,1.74-.52-.17.17-1.55-1.21-2.02h-2.07l-.69-.05,1.38-1.38,1.38-.52-2.72-1.03v-.61l-1.45-1.13-1.13-.16-.97,1.29-.48-.48-1.13-1.94h-.97l-2.9-1.29ZM251.65,191.21l.69,3.79h.86l-.52-2.41-1.03-1.38ZM233.92,191.41l-1.89,1.89.69.86,2.07-1.72-.86-1.03ZM227.52,192.42l-1.38.69.86,1.03v.86h1.89l.17-.86-1.55-1.72ZM235.17,193.28l-2.33,1.72,1.17.86v1.21l.83,2.24-1.17-1.03-1.5-3.44-1,.34-.17,2.41,1.17,2.24-1.33-1.03-2,2.41,6-.52-.17.69-2.17,2.07,1.17,2.93,1.5-.69,1.17.52,1.83-1.38.5-1.89.33-1.21-.33-1.72.33-.86v-2.75l-.67-1.38-1.33-1.72-.83,1.72h-.67l-.33-1.72ZM230,195.54l-3.1.17.52,1.38,2.58-.69v-.86ZM185,197.59v1.55l-1.03.86.52,2.58-9.81,9.3,2.93,5.51-.17.86-.86,1.72.34,1.03h2.93l1.21-.86.34.69,2.58.52,2.75-4.48,2.24-.69,1.38-1.55,6.37-3.1,1.89.17,1.55-1.55-1.55-4.99-1.55-1.38-2.07-.17-1.38-.69-1.38-1.55-.52-2.93-2.75.17-1.38-.69-2.58-.34ZM229.1,197.61l-1.38,1.55,1.55.17,1.38-1.55-1.55-.17ZM244.25,198.64l-.86.34,1.03,1.38,1.21-.34-1.38-1.38ZM241.15,201.05l-1.72,1.03.69,1.21,2.07-1.55-1.03-.69ZM244.42,201.05l-1.55.69-.69,1.72-1.55,2.41,3.79,3.1,2.58-.34v-4.82l-2.58-2.75ZM224.97,201l-.17,1.21-.69,1.21,1.21.86,1.72-.17-.69-1.38-.17-1.72h-1.21ZM280.57,211.38l-2.24.17-1.72.69-2.75-.34-.17.86.86,2.58,1.55,1.21.86,2.93,1.72-.34.34-1.55,1.55-.86,4.82-.34-.52-1.21-4.3-3.79ZM202.12,211.66l-4,1.57-.8-.35-1.92.35-3.2,2.62-.16,2.1-.64-.35-1.28,1.4h-1.81l-.86,1.03.51.69.86.51.51.69-.69.69.86,1.03,2.74.34,3.26.34-.17.69h-6.87l-1.38,2.05.86,2.07,2.07.69,2.09,1.44,1.87.76h3.62l-.34.56,2.75,1.55,1.89,2.41-2.41.17-3.44-2.24-4.3-1.03-4.74.17v.52l.12.06h0s.17.1.17.1l.71.02v2.75l1.14,2.45,1.63,1.63,3.43,1.63-.33,1.47.98,3.43,3.27,1.31,5.56.65,3.76-1.63,2.61.16,2.29-1.8.16-.82.49.16v1.64l2.72,1.92.64-.35-1.12,1.4.96.7h2.56l.96.87,2.56-.17,1.44-1.05.16-2.27-.32-.87-.96-.52-1.28,1.22-.64-2.62,1.76,1.05.32-1.05,1.12-.87.48-.7.16,1.75,1.76-1.05-.32,1.57,1.12-1.05.16-2.97-1.28.17-1.28-1.22-1.92-2.45-.8.17-1.44-2.97-.96-2.62,1.12-1.4-.96-2.62-.32-9.44-2.56-3.32-.8.52-.8-1.57-.64.35-1.12,9.44.64,2.1-1.44,1.75-.16-2.45-.48-.52.48-1.22-.48-1.92.32-1.75-.32-.7-1.76-3.67-.32.17-.96-.17v.87l.64.7.32-.17.16.7-.96,1.22v.06s-1.92.81-1.92.81l-1.28.17-.16-.52,1.12-.35.16-1.4-1.92-2.97-1.12-.7-1.76,2.45-1.76-.17,2.56-2.27-.96-3.67ZM247.01,212.24l-2.58.69-1.03,1.55.69,1.21-1.89-.17.34,1.21-.34,6.37,1.38,2.93.34,2.58,1.72.34,1.72-3.79-.69-1.72.69-.69,1.38.86,1.21.17,2.07-2.93v-1.55l1.72-3.1-1.03-2.93-3.1.86-2.58-1.89ZM236.98,251.44l-2.21,3.6.45,1.94.22,1.7,1.41,2.2.7,1.46,2.25,2.09,1.57-.58.92,3.16,2.4.27,1.57-1.07,2.37,2.45-1.21.71-.11-1.09-5.63-.44-5.71-3.95-1.77-2.33-.91-3.89-1.68.22-1.95,2.4.52,5.94,1.41,2.2,2.71,4.03,5.7,4.68,1.21-.47,2.55-2.27,2.04-.09-.86,1.56-2.17.46-.26,1.45,1.66,1.48.25-.48,3.24-.08.59.61,2.19-1.91-.94-1.47,5.52.32-.08-3.27,2.12.02,2.35-3.46,2.19-.49.27-2.07,1.46.02.14-1.42-1.94-.29,1.85-2.43,1.33.15,1-2.58-3.15-.82-.86.89-.72-.79,4.03-2.14,2.9.82.88-2.19,1.21.54v1.04s1.34-1.15,1.34-1.15l3.53-.86.71,1.56-.5,1.55,1.68,1.58.52-3.1-.95-1.57,3.66-1.24,1.11-1.15.96,1.05,3.66-1.24,6.3,1.13v2.18s3.2,3.55,3.2,3.55l.78,4.72,1.33.14,3.03-1.05,1.43,1.23-1.1.83.95,1.46-1.1,1.07.34,1.82-1.6,2.27-.6-.13-1.96,2.15.23.97.72.49,1.33.14-.64,2.53,1.92.99,1.45.26,2.42-.45,1.34-.83-.23-1.21.52-3.13-1.32-.38.14-1.09,2.68-1.41-.35-.61-.57-2.54,2.28,1.36-.47-1.21,7.27-1.84.86-1.32.98-.71,2.03,1.84,2.18-.45.13-.84,3.42-2.61v-1.02l.56-.72,1.33.38,2.82-1.3,1.87-3.02,3.33-3.24,1.1-.59-.7-1.96-1.95.22-2.93.69-4.41,2.13-1.47.95-5.54.79v-1.95l4.1-.32.87-1.33,3.3-1.05,1.62-2.78,1.72-.95,1.22-.23-.48-.74-1.09-.38-1.08-.87-1.58.1-2.31-.4,2.2-.7-1.08-1.11-2.81.57-.72-.74-3.19,1.66.38-1.09-1.7-.51-.26,1.46-3.11-.41v.62s-1.88,1.13-1.88,1.13l-4.74.28-.6,1.49-.69-.24-1.97.09-.56-1.05,1.5.14.37-1.73-.81-.13-1.16.68-1.61-.25,1.17-.91-1.73-.37.6-1.73,2.43-.08,2.67-1.24-.09-1.97.9,1.86,1.74-.79,1.85.26,2.2-.09.26-2.08,1.74-.55-1.25-1.29-3.56-1.55.82-.57-.55-2.2-2.17-1.53-1.05,1.03-1.03-1.05.82-1.03-.22-.47-1.38-.25v-1.97l-4,2.02-.04,3.17-2.45-2.02.08,3.1-1,.23-2.59-.9-2,1.21-.02,1.93-.97-1.72-.86-.13.07,3.77-2.25,1.67-2.84-.65-.51.97-3.52,3.85-.61-.62,1.13-1.32.14-1.09-2.34-1.13-1,.47,1.39-2.05-.1-1.58-.86-.38-2.14,2.77-1.01,1.2-.61-.86.29-2.92-3.84.07-.5.72,1.35,1.11-.39,1.09-1.12.11-.16,2.31h-.74s.06-5.19.06-5.19l-.72-.25-2.9,1.9.34,1.82-.25.72-.58-1.58-.28,2.66-2.02-1.84-.97.47,1.06,1.83-.96-.26-.26,1.69,1.08.14.26-1.45.46,1.46-1.09.59-1.55-1.11.15-2.06-.71-.49-3.13.44-.02,1.45,1.41,2.2-4.43-.42.32,3.28h-.48s-.44-2.68-.44-2.68l-2.03-.88-.98,1.44-.95-.74-2.17.7-.13,1.09-2.29.57-1.13,3.5,3.43,3.56-.36.36-2.26-1.85-.74,1.69-.71-.98-.26,1.21,2.12,2.94-.61.6-2-2.81-1.78-1.36-2.38-1.24-.96.23-.73.47-1.07-.86-2.39-.52ZM236.5,213l-1.72.69.34,1.03,3.1-1.21-.34-.52h-1.38ZM219.63,214l-1.72,1.38,2.93,5.16,2.75-4.3-1.89-2.24h-2.07ZM234.04,213.44l-2.43.52.17,2.07-1.39.52-.17,2.07,1.91,1.38-.7,2.93-.87-.69-1.91-2.93-1.57,2.41,1.39,2.75.35.86,2.96,3.1,1.22,2.58v1.21l2.43,1.72,1.04-1.03.17-1.89h.02l.52.7,2.93-1.89-.17-1.03-.17-2.24.69-1.38-1.46-2.07v-.86l-.6-1.38-1.4.34v-1.21l1.91-1.89.35-1.55.87-.17-1.22-2.24-3.83,1.38-.52-.17-.52-1.89ZM147.2,215.06l-1.69.94-.94-.56-1.5.56h-2.44l.37.56.38,1.87.56.56h1.5l4.88-1.88-1.12-2.06ZM239.43,219.64l-.69,1.38,1.03.86,1.03-1.03-1.38-1.21ZM287.8,240.47l-1.72.34-.69,1.72,2.41-2.07ZM284,240.48l-1.72.52h-.86l-.86,1.03,1.55.86,1.89-1.55v-.86ZM290.9,241.34l-1.38,1.21,1.03,1.38,1.21-1.72-.86-.86ZM264.22,241.51l-1.21,1.21,2.07.17.17-.52-1.03-.86ZM286.14,243.06l-.52,4.3,1.38-1.38v-2.75l-.86-.17ZM236.16,244.61l-1.89,2.07-.34,2.41-.52.86-1.38-.34-.69,1.38,1.03,1.21,7.4,3.44,3.27-2.75-.52-.86-1.21-.17.17-1.38-2.24-2.41-.17-1.03-2.93-2.41ZM296.24,245.3l.86,2.07,1.21.69.17-.52-2.24-2.24ZM213.07,245.54l-.14.03h0s.14-.03.14-.03ZM241.67,246.84l-.86,1.03,1.38,1.21.86-1.03-1.38-1.21ZM300.37,247.97l-.69,1.89.69,1.03,2.07-.17,1.38-.69-.52-1.03h-1.89l-1.03-1.03ZM295.55,248.39l-2.24,1.21.17,5.85,1.38,1.21,2.07-.52,2.07.17.86-2.41-.52-1.89-1.38-1.72.52-1.72-2.93-.17ZM229.44,250.8l-1.21.34.86,1.72.86-.86-.52-1.21ZM224.8,251.66l-.86.86,1.03,1.21.86-.86-1.03-1.21ZM217.05,252.35l-.86,1.03,1.21.86.52-.52-.86-1.38ZM266.97,255.62l-1.55.86,1.21,2.58.69-.52-.34-2.93ZM275.92,271.25l1.72,2.75h2.07l.17-.69-1.38-1.03-2.58-1.03ZM273.86,271.63l.86,2.93,1.21-.34-2.07-2.58ZM272.93,272.52l-1.55.86.17,3.44.69.86-.52,8.44-2.41,3.79.52,1.03,4.3-1.89.86.34v1.55l.86,2.24,2.24-1.38,1.38-2.93.52-.34,1.38-1.03-.69-1.38,1.21-1.55,1.38.86,1.38.34,1.03,1.21,1.55.34,2.07,1.03,2.41-2.58.17-1.21-1.89-1.72-.52,1.21-1.72-.17-.86,1.03-.52-.17,1.03-1.55-2.07-3.27-2.24-.86-3.1-2.07h-1.38l-1.72-1.72-.69.17-.17,1.72-.69.17-2.41-4.82ZM346.34,281.28l-1.38,1.38,2.41,1.38,1.03-.69-1.03-1.72-1.03-.34ZM323.56,281.96l2.24,2.07,1.21-.34v-.86l-3.44-.86ZM301.73,283.51l2.24,1.38,1.03-.34v-.86l-3.27-.17ZM298.99,285.06l-.86,1.03.34.86.69.34,1.21,1.03,1.21-1.21.17-1.38-2.75-.69ZM287.98,292.11l-2.24.52-1.38,1.21-1.21-.86-.34,1.89-1.55,2.41,1.38,1.55.69.17h1.38l1.72-.69-.34-.69,2.24-3.27-.34-2.24ZM339.79,293.67l-.52,1.72-.69,1.21,1.21.86,1.21-1.55v-2.07l-1.21-.17ZM296.93,293.84l-2.24,1.38-.17,2.41,2.41,3.44,1.21-.86-.17-3.62-1.03-2.75ZM84.49,313.81l-1.72,2.24-.52,1.38-.86.86.86.86-.34,2.93,2.41.17,1.55-2.07,3.44-2.58-2.07-.52-1.38,2.24-1.89-.52.17-.34,1.89-.17.69-1.03-.52-1.21-.86-.34-.17-1.21-.69-.69ZM244.07,318.81h0s-.1,0-.1,0h.1ZM91.38,321l1.21,1.55,1.03-.69-.86-.86h-1.38ZM84.66,322.59l-3.1.17.44.52v2.34l.83,5.83,1.17.17v-3.69l-1.23-1.72.86-2.24,1.89-.17-.86-1.21ZM93.61,322.59l-.52.34.69,5.34.52-1.21-.69-4.48ZM91.72,323.8l-1.03,1.03,1.21,3.1.86-.86-.69-2.41-.34-.86ZM96.89,326.72l-.52,1.03,1.89-.86-1.38-.17ZM95.68,329.48l-2.24,2.41.17,1.21,1.21,2.24,1.72-2.93-.86-2.93ZM92.24,332.11l-.52,1.89h1.38l.17-1.72-1.03-.17ZM309.52,335.85l-.52.34v.86l-.69,1.03-.34-.86-.34,2.07-.86,2.24,1.38-1.21.69.86,2.07-2.24-1.03-1.55-.34-1.55ZM307.08,337.74l-1.38,1.21,1.03-.17.34-1.03ZM98.96,339.12l-3.96.52v.86l4.13-.52-.17-.86ZM89.92,347.78l-1.18.17-.51,1.35,1.02,1.69h1.94l-.17.83-1.5.17-1,1.5,2.33,2-.5.33.67,1.33,1.33.33.17,2.5h-.63l-.18.73.55,1.27h1.22l.51,2.71-.51.68,1.18,1.86,1.52-.34.17.85-.68,1.02,2.88,3.89,2.37,1.35,1.02-1.86.34-3.89-3.05-3.55-.17-7.11-5.92-5.75-.85-2.03-2.37-2.03ZM311.56,347.9l-2.41,1.72.86.52,2.07-1.38-.52-.86ZM397.64,357.02l-1.38.69-1.72-.34-5.68,2.07,3.44.52,1.72,1.21,4.3-.17,2.24-1.03,3.44-.52.17-1.21-1.03-.69-2.75-.17-2.75-.34ZM91.55,357.37l-1.21,1.21,1.55,1.03-.34-2.24ZM101.19,362.53l-.34,1.55,1.72,2.58.52-1.38-1.89-2.75ZM304.33,363l-1.89.86-.69,1.21.86.69,3.44.17,2.58.69.86-.34-2.41-3.27h-2.75ZM410.55,367.01l-1.72,2.41.34,2.24.69.17.86-.52-.86-1.03-.17-1.03,1.03-1.38-.17-.86ZM417.61,368.73l-.52.69.34,1.03-.52.69-.34,7.23,2.75,2.24,4.82-2.93-.34-2.41,1.38-.69-1.21-1.55.34-.34-2.41.86-.52-.34-1.55,1.03.17-2.93-.52-.86-1.89-1.72ZM315.69,369.42l-1.03,1.21.17.86,2.24-1.72-1.38-.34ZM412.61,376.82l-1.89,1.38-.86.52-.34-.86-.86.34-.34,1.03-1.38.34-.17.52-2.07.17-.52.69-.69-.52-.69-.17-1.89-1.89-.34,2.24-.34.69,3.1,1.7h1.38l3.79-.33.52,1.33h.52l.17-1.33,2.75-.34.52-.86-.96-1.72v-.69l.79-1.21-.17-1.03ZM313.97,418.48l-.86.52-1.89.17-.69.83h-2.93l.17,1h2.93l4.13.75.86-.86-.17-2.07-.86.34-.69-.69Z" fill="none" stroke="#000" stroke-linecap="round" stroke-linejoin="round"/><path id="uuid-62cc2698-f7b2-4124-ae8e-cb9297c5e182" d="M186.58,317.08l-1.89,1.03-2.07,1.55-.52.69-1.03-.34-.52.34.17.52,1.03.17,1.03.69,1.38-1.38,1.03-.69,1.38-.34M214.98,338.77l-.69.34-.34,1.21-1.72,1.72-1.55,1.21-1.38.17-.52-.69.17-.69,1.21-.17.17.52,2.07-1.38.34-1.21-.17-1.03-1.38-2.24,1.72-2.24.69.17.69-1.38,1.72-1.55M186.84,316.4l-.09.36,2.18-1.15,1.64.18.27,1.22h3.19s4.57,2.09,4.57,2.09l-1.8.18-1.63-.68-1.63,1.04-3.52-.68-3.79-.14-.04.16M216.21,331.26l.67.19-.69,1.89,1.03-.34h.69l-2.47,3.42.41,1.57-.9.34-.02.18M230,359.39l.56,1.66-.94.37.19,1.29.38.37.19,1.66.19.55-.19.92,1.31,1.29.94,2.76.56,4.24.94,1.66.19,1.84.94,1.47.38,2.39,1.87,3.5-.37.74-.19,2.39.19,1.29-.94.74-.94,1.66-.75-.18-.37-3.5.37-1.47.38-1.84-.56-.55.75-2.21-.37-.74-.56.18-.94,2.21-.38-.37-.19-2.39.38-.55v-.55l-1.69-1.11.19-1.11h-.75l-.94,1.66-.75-.37-.56-2.58-1.31-.55-.38-.92-.19-.92-.94-1.11.19-.37-1.12-1.11.38-.74h1.31l.56-.37v-.37l-1.69-.18-.94.37-1.12-2.21,2.62-3.87-.19-1.47,3.19,1.47.56-.92-.94-.74.19-1.47-1.12-.55,2.44-1.29ZM378.18,326.72l.69.86-.17.69.86,1.73h-.69l-.87.68v.69l-1.54,1.21-1.03-.69-1.38-.17.69.86-.52.52-.69.34.86.86-1.03.69-1.03-.34,1.03,2.07,2.64.34v.69l-1.43.26h-2.07l-1.55-3.19-.52.19h-.52l-4.3-1.91-1.72.17.52-2.58.86,1.38,4.3,1.72.52-.69-1.21-2.07,1.03-1.03,2.07,1.55.34-.69-.52-.52,1.55-1.03-.69-2.07,2.75,2.07,1.72.69.34-.52-1.21-.69.34-.69,1.55-1.38ZM156.45,250.98l1.55,1.03,3.62.52.86-.34.86.34,4.3-.17,1.55-.34.86.69,1.89-.52,1.38.34,1.21,1.72-1.55-.34-2.41.34-1.38,1.03.34.69,2.24,1.72,1.89,1.31h1.38l1.89-2h.52l-.45.52v1.55l-2.47,1.89-.53.52v1.16l.52.55-.7.36-.35-.55h-1.39l-1.57-2-1.04.36-1.04-.18-.17.73.52,2.18-1.04-.18-1.57,1.09h-1.04l-2.26,1.27-.87-.36v-.99l1.51.17,1.38-1.03,2.24-1.38-1.03-2.07-2.41.17-1.55,1.38-.52.83h-1.38l-2.75-2.56.86-.17.52.73h.97l.17-1.33.83-.17.83-.5h1.17l.17-.17v-1.49l-1-1.03v-.34l2.03,1.21,1.89.52-1.38-2.75-2.58-.86-.86.34-.86-.42h-1.21l-.17-1.3-1.89-.17-1.21,1.21.17-2.58.52-.17ZM172.98,284.03l.34-.03h.34l.69,1h1.32l-1.8,1.31.49,1.47,1.96,2.29,1.47.98.98,1.96,1.15.82,3.76.33,1.96-1.15,2.62-2.29,1.47-.49,1.64.33,3.11,1.15.82.65-.16.49-.65.16-1.64-1.47-2.13-.49-1.64.33-1.8.82.98.65,3.11-.82.16.33-2.13.98.98.65h-2.11l-1.72,1.39-3.27,2.41-1.38.2h-1.38l-.52-.03-1.72.34-.69,1.21-1.55,1.38-4.13-.34-3.1-.69-1.03-.52-1.03-1.55-1.89-.86-2.75-3.79.17-1.03,3.44,4.48,1.38-.69,2.07,1.55.69-1.21,1.03-.17.86-1.55,2.07.47h-.17l.86-.12.69-1.21-.52-2.07-.86-.52.52-1.21-1.38-1.38-.17-2.24-.34-.69.52-1.55ZM322.83,350h1.83l.5,1-.67.83-1,1.67.17.5h.5l2-1h.33l.5.67-1.83,1-2.83,1.83-1.17.17-.33-1-.33-.5-.83-.17-.17-.33.67-.5,1.83-1.17v-.5l1.67-1.83-.83-.67ZM354.83,334.17l-.83,1.17-.33.5.67.67,1-.5,1.17,1.17-2.17.17.67,1.17-.17.5-.33-.33-.83-.33-1-1.33h-2l-.17.67,1.5,1v1.02l1.25-.56.18.38-.36,1.12,3.93-.38v.75h-1.96l-1.07,1.13.36.94-.18.38-.54-.75-1.43-.19-.36-1.13-1.07.94-.71-.94-1.96-.75.18-.75,2.14-.94-.36-.94h-.54l-.83-1.17.67-.17,2-1.67,1.33.33,2.17-1.17ZM277,390v2.89l.71.69-.18,2.75-.35.52-.71.34-.53-.52-.71.69-.53-.52-.18-.69-.88.52-.18-.17.35-1.03-1.06-.52,1.24-1.38v-.69l-.53-.52,1.76-1.38h.88l.88-.52h0M313.17,253.7l.78.77,1.94.38,1.56.38,1.56.77v1.15l-1.56.38-2.33,1.15-.39,2.31h-.78l-.78-2.31-1.17-1.54v-2.31l.78-.38.39-.77Z" fill="none" stroke="#000" stroke-linecap="round" stroke-linejoin="round"/></g><rect id="uuid-c139fdc4-2a88-4485-95b0-02ef3b816c29" x="126" y="285" width="97" height="48" fill="none" stroke="#000" stroke-linecap="round" stroke-linejoin="round"/><path id="uuid-272d6384-5020-4a06-b22d-7f8f86a8bcc8" d="M126,285v5.37l86.16,42.63h10.84v-5.37l-86.16-42.63h-10.84ZM223,285v5.37l-86.16,42.63h-10.84v-5.37l86.16-42.63h10.84Z" fill="none" stroke="#000" stroke-linecap="round" stroke-linejoin="round"/><path id="uuid-8f4dc892-32e5-4c91-a6b7-6c91fce120d2" d="M167,285v48h16v-48h-16ZM126,301v16h97v-16h-97Z" fill="none" stroke="#000" stroke-linecap="round" stroke-linejoin="round"/><path id="uuid-07fc84e5-0572-4aaf-90ff-8b6b445b72a7" d="M126,304v10h97v-10h-97ZM170,285v48h10v-48h-10Z" fill="none" stroke="#000" stroke-linecap="round" stroke-linejoin="round"/><path id="uuid-68402218-4c26-43b8-8b8c-5ffeae395c7d" d="M126.73,333l32-16h7.16l-32,16h-7.16ZM127,284.87l32.26,16.13h-7.21l-25.05-12.52v-3.61ZM184.03,301l32-16h7.16l-32,16h-7.16ZM223,333.13l-32.26-16.13h7.21l25.05,12.52v3.61Z" fill="none" stroke="#000" stroke-linecap="round" stroke-linejoin="round"/><text transform="translate(47.35 72.8)" fill="#333" font-family="ComicNeue-Regular, &apos;Comic Neue&apos;" font-size="24"><tspan x="0" y="0">Canadians are divided and distrustful </tspan><tspan x="0" y="28.8">of their government, but war continues.</tspan></text></svg>