<?xml version="1.0" encoding="UTF-8"?><svg id="uuid-be45622d-003d-4446-9c1e-cb67b5608936" xmlns="http://www.w3.org/2000/svg" viewBox="0 0 500 500"><g isolation="isolate"><text transform="translate(60.58 72.67)" fill="#333" font-family="ComicNeue-Regular, &apos;Comic Neue&apos;" font-size="24" isolation="isolate"><tspan x="0" y="0">06:30, 11 November 1918, a message </tspan></text><text transform="translate(60.58 101.47)" fill="#333" font-family="ComicNeue-Regular, &apos;Comic Neue&apos;" font-size="24" isolation="isolate"><tspan x="0" y="0">reached the Canadian Corps HQ.</tspan></text></g><polygon points="448.48 303 51.52 303 80.8 244 430.58 244 448.48 303" fill="#603813"/><rect x="113" y="261" width="17" height="131" fill="#603813"/><rect x="379" y="261" width="17" height="131" fill="#603813"/><rect x="80" y="292" width="17" height="131" fill="#603813"/><rect x="417" y="292" width="17" height="131" fill="#603813"/><rect x="50.5" y="300.5" width="398" height="17" fill="#8c6239" stroke="#8c6239" stroke-miterlimit="10"/><polygon points="448.48 303 51.52 303 80.8 244 430.58 244 448.48 303" fill="none" stroke="#000" stroke-linecap="round" stroke-linejoin="round"/><rect x="113" y="261" width="17" height="131" fill="none" stroke="#000" stroke-linecap="round" stroke-linejoin="round"/><rect x="379" y="261" width="17" height="131" fill="none" stroke="#000" stroke-linecap="round" stroke-linejoin="round"/><rect x="80" y="292" width="17" height="131" fill="none" stroke="#000" stroke-linecap="round" stroke-linejoin="round"/><rect x="417" y="292" width="17" height="131" fill="none" stroke="#000" stroke-linecap="round" stroke-linejoin="round"/><rect x="50.5" y="300.5" width="398" height="17" fill="none" stroke="#000" stroke-linecap="round" stroke-linejoin="round"/><path d="M87.16,218.43c0,1.22-.99,2.22-2.22,2.22s-2.21-.99-2.21-2.22.99-2.21,2.21-2.21,2.22.99,2.22,2.21Z" fill="#ccd1d9"/><path d="M184.65,218.43c0,1.22-.99,2.22-2.21,2.22s-2.22-.99-2.22-2.22.99-2.21,2.22-2.21,2.21.99,2.21,2.21Z" fill="#ccd1d9"/><path d="M182,224.75c0,1.24-.99,2.25-2.21,2.25h-92.58c-1.22,0-2.22-.99-2.22-2.22v-13.57c0-1.22.99-2.22,2.22-2.22h92.57c1.22,0,2.22.99,2.22,2.22v13.53h0Z" fill="#656d78"/><polygon points="157.76 174 96 174 96 271 171 271 171 187.23 157.76 174" fill="#e6e9ed"/><path d="M184.69,275.6c.26,2.43-1.52,4.4-3.96,4.4h-94.09c-2.44,0-4.22-1.98-3.96-4.4l5.7-53.19c.26-2.42,2.47-4.41,4.9-4.41h80.8c2.44,0,4.64,1.98,4.9,4.41l5.7,53.19h.01Z" fill="#656d78"/><path d="M105.57,225.82c.85.22,1.88.53,3.08.88,5.86,1.71,15.65,4.58,25.04,4.6,9.39-.02,19.18-2.89,25.04-4.6,1.2-.35,2.24-.65,3.08-.88,4.14-1.1,11.25-2.19,17.64.64l-.44-4.05c-.26-2.42-2.47-4.41-4.9-4.41h-80.85c-2.44,0-4.64,1.98-4.9,4.41l-.43,4.05c6.39-2.84,13.5-1.74,17.64-.64h0Z" fill="#434a54"/><path d="M102.67,247.24c1.22,0,2.22-.99,2.22-2.21s-.99-2.21-2.22-2.21-2.21.99-2.21,2.21.99,2.21,2.21,2.21Z" fill="#ccd1d9"/><path d="M111.54,247.24c1.22,0,2.22-.99,2.22-2.21s-.99-2.21-2.22-2.21-2.22.99-2.22,2.21.99,2.21,2.22,2.21Z" fill="#ccd1d9"/><path d="M120.4,247.24c1.22,0,2.21-.99,2.21-2.21s-.99-2.21-2.21-2.21-2.22.99-2.22,2.21.99,2.21,2.22,2.21Z" fill="#ccd1d9"/><path d="M129.26,247.24c1.22,0,2.22-.99,2.22-2.21s-.99-2.21-2.22-2.21-2.21.99-2.21,2.21.99,2.21,2.21,2.21Z" fill="#ccd1d9"/><path d="M138.13,247.24c1.22,0,2.22-.99,2.22-2.21s-.99-2.21-2.22-2.21-2.22.99-2.22,2.21.99,2.21,2.22,2.21Z" fill="#ccd1d9"/><path d="M146.99,247.24c1.22,0,2.21-.99,2.21-2.21s-.99-2.21-2.21-2.21-2.22.99-2.22,2.21.99,2.21,2.22,2.21Z" fill="#ccd1d9"/><path d="M155.85,247.24c1.22,0,2.22-.99,2.22-2.21s-.99-2.21-2.22-2.21-2.21.99-2.21,2.21.99,2.21,2.21,2.21Z" fill="#ccd1d9"/><path d="M164.71,247.24c1.22,0,2.22-.99,2.22-2.21s-.99-2.21-2.22-2.21-2.22.99-2.22,2.21.99,2.21,2.22,2.21Z" fill="#ccd1d9"/><path d="M102.67,256.1c-1.22,0-2.22.99-2.22,2.22s.99,2.21,2.22,2.21,2.21-.99,2.21-2.21-.99-2.22-2.21-2.22Z" fill="#ccd1d9"/><path d="M111.53,260.53c1.22,0,2.22-.99,2.22-2.21s-.99-2.22-2.22-2.22-2.21.99-2.21,2.22.99,2.21,2.21,2.21Z" fill="#ccd1d9"/><path d="M120.4,256.1c-1.22,0-2.22.99-2.22,2.22s.99,2.21,2.22,2.21,2.22-.99,2.22-2.21-.99-2.22-2.22-2.22Z" fill="#ccd1d9"/><path d="M158,266.52c-.24-.93-1.17-1.52-2.13-1.52h-44.34c-1.22,0-2.21.9-2.21,2s.99,2,2.21,2h44.32c1.4,0,2.49-1.17,2.15-2.48Z" fill="#ccd1d9"/><path d="M129.26,256.1c-1.22,0-2.22.99-2.22,2.22s.99,2.21,2.22,2.21,2.21-.99,2.21-2.21-.99-2.22-2.21-2.22Z" fill="#ccd1d9"/><path d="M138.12,256.1c-1.22,0-2.21.99-2.21,2.22s.99,2.21,2.21,2.21,2.22-.99,2.22-2.21-.99-2.22-2.22-2.22Z" fill="#ccd1d9"/><path d="M146.99,256.1c-1.22,0-2.22.99-2.22,2.22s.99,2.21,2.22,2.21,2.22-.99,2.22-2.21-.99-2.22-2.22-2.22Z" fill="#ccd1d9"/><path d="M155.85,256.1c-1.22,0-2.22.99-2.22,2.22s.99,2.21,2.22,2.21,2.21-.99,2.21-2.21-.99-2.22-2.21-2.22Z" fill="#ccd1d9"/><path d="M164.71,256.1c-1.22,0-2.21.99-2.21,2.22s.99,2.21,2.21,2.21,2.22-.99,2.22-2.21-.99-2.22-2.22-2.22Z" fill="#ccd1d9"/><path d="M98.24,249.45c-1.22,0-2.21.99-2.21,2.22s.99,2.21,2.21,2.21,2.22-.99,2.22-2.21-.99-2.22-2.22-2.22Z" fill="#ccd1d9"/><path d="M107.1,249.45c-1.22,0-2.22.99-2.22,2.22s.99,2.21,2.22,2.21,2.22-.99,2.22-2.21-.99-2.22-2.22-2.22Z" fill="#ccd1d9"/><path d="M115.97,253.88c1.22,0,2.21-.99,2.21-2.21s-.99-2.22-2.21-2.22-2.22.99-2.22,2.22.99,2.21,2.22,2.21Z" fill="#ccd1d9"/><path d="M124.83,253.88c1.22,0,2.22-.99,2.22-2.21s-.99-2.22-2.22-2.22-2.21.99-2.21,2.22.99,2.21,2.21,2.21Z" fill="#ccd1d9"/><path d="M133.69,253.88c1.22,0,2.22-.99,2.22-2.21s-.99-2.22-2.22-2.22-2.22.99-2.22,2.22.99,2.21,2.22,2.21Z" fill="#ccd1d9"/><path d="M142.56,253.88c1.22,0,2.21-.99,2.21-2.21s-.99-2.22-2.21-2.22-2.22.99-2.22,2.22.99,2.21,2.22,2.21Z" fill="#ccd1d9"/><path d="M151.42,253.88c1.22,0,2.22-.99,2.22-2.21s-.99-2.22-2.22-2.22-2.21.99-2.21,2.22.99,2.21,2.21,2.21Z" fill="#ccd1d9"/><path d="M160.28,249.45c-1.22,0-2.22.99-2.22,2.22s.99,2.21,2.22,2.21,2.22-.99,2.22-2.21-.99-2.22-2.22-2.22Z" fill="#ccd1d9"/><path d="M169.14,249.45c-1.22,0-2.22.99-2.22,2.22s.99,2.21,2.22,2.21,2.21-.99,2.21-2.21-.99-2.22-2.21-2.22Z" fill="#ccd1d9"/><path d="M140.75,219h-15.75v1.79c0,1.22.99,2.21,2.21,2.21h13.57c1.22,0,2.21-.99,2.21-2.21v-1.79h-2.25,0Z" fill="#aab2bc"/><rect x="101" y="256" width="4" height="2" fill="#ccd1d9"/><rect x="101" y="243" width="4" height="2" fill="#ccd1d9"/><rect x="110" y="243" width="4" height="2" fill="#ccd1d9"/><rect x="118" y="243" width="4" height="2" fill="#ccd1d9"/><rect x="127" y="243" width="4" height="2" fill="#ccd1d9"/><rect x="136" y="243" width="4" height="2" fill="#ccd1d9"/><rect x="145" y="243" width="4" height="2" fill="#ccd1d9"/><rect x="154" y="243" width="4" height="2" fill="#ccd1d9"/><rect x="163" y="243" width="4" height="2" fill="#ccd1d9"/><rect x="110" y="256" width="4" height="2" fill="#ccd1d9"/><rect x="118" y="256" width="4" height="2" fill="#ccd1d9"/><rect x="127" y="256" width="4" height="2" fill="#ccd1d9"/><rect x="136" y="256" width="4" height="2" fill="#ccd1d9"/><rect x="145" y="256" width="4" height="2" fill="#ccd1d9"/><rect x="154" y="256" width="4" height="2" fill="#ccd1d9"/><rect x="163" y="256" width="4" height="2" fill="#ccd1d9"/><rect x="167" y="250" width="4" height="2" fill="#ccd1d9"/><rect x="158" y="250" width="4" height="2" fill="#ccd1d9"/><rect x="149" y="250" width="4" height="2" fill="#ccd1d9"/><rect x="141" y="250" width="4" height="2" fill="#ccd1d9"/><rect x="132" y="250" width="4" height="2" fill="#ccd1d9"/><rect x="123" y="250" width="4" height="2" fill="#ccd1d9"/><rect x="114" y="250" width="4" height="2" fill="#ccd1d9"/><rect x="105" y="250" width="4" height="2" fill="#ccd1d9"/><rect x="96" y="250" width="4" height="2" fill="#ccd1d9"/><rect x="109" y="265" width="49" height="2" fill="#ccd1d9"/><path d="M102.67,245.02c1.22,0,2.22-.99,2.22-2.21s-.99-2.22-2.22-2.22-2.21.99-2.21,2.22.99,2.21,2.21,2.21Z" fill="#f5f7fa"/><path d="M111.54,245.02c1.22,0,2.22-.99,2.22-2.21s-.99-2.22-2.22-2.22-2.22.99-2.22,2.22.99,2.21,2.22,2.21Z" fill="#f5f7fa"/><path d="M120.4,245.02c1.22,0,2.21-.99,2.21-2.21s-.99-2.22-2.21-2.22-2.22.99-2.22,2.22.99,2.21,2.22,2.21Z" fill="#f5f7fa"/><path d="M129.26,245.02c1.22,0,2.22-.99,2.22-2.21s-.99-2.22-2.22-2.22-2.21.99-2.21,2.22.99,2.21,2.21,2.21Z" fill="#f5f7fa"/><path d="M138.13,245.02c1.22,0,2.22-.99,2.22-2.21s-.99-2.22-2.22-2.22-2.22.99-2.22,2.22.99,2.21,2.22,2.21Z" fill="#f5f7fa"/><path d="M146.99,245.02c1.22,0,2.21-.99,2.21-2.21s-.99-2.22-2.21-2.22-2.22.99-2.22,2.22.99,2.21,2.22,2.21Z" fill="#f5f7fa"/><path d="M155.85,245.02c1.22,0,2.22-.99,2.22-2.21s-.99-2.22-2.22-2.22-2.21.99-2.21,2.22.99,2.21,2.21,2.21Z" fill="#f5f7fa"/><path d="M164.71,245.02c1.22,0,2.22-.99,2.22-2.21s-.99-2.22-2.22-2.22-2.22.99-2.22,2.22.99,2.21,2.22,2.21Z" fill="#f5f7fa"/><path d="M102.67,253.88c-1.22,0-2.22.99-2.22,2.21s.99,2.22,2.22,2.22,2.21-.99,2.21-2.22-.99-2.21-2.21-2.21h0Z" fill="#f5f7fa"/><path d="M111.53,258.32c1.22,0,2.22-.99,2.22-2.22s-.99-2.21-2.22-2.21-2.21.99-2.21,2.21.99,2.22,2.21,2.22Z" fill="#f5f7fa"/><path d="M120.4,253.88c-1.22,0-2.22.99-2.22,2.21s.99,2.22,2.22,2.22,2.22-.99,2.22-2.22-.99-2.21-2.22-2.21h0Z" fill="#f5f7fa"/><path d="M158,264.52c-.24-.93-1.16-1.52-2.12-1.52h-44.34c-1.22,0-2.21.9-2.21,2s.99,2,2.21,2h44.32c1.4,0,2.49-1.17,2.15-2.48h-.01Z" fill="#f5f7fa"/><path d="M129.26,253.88c-1.22,0-2.22.99-2.22,2.21s.99,2.22,2.22,2.22,2.21-.99,2.21-2.22-.99-2.21-2.21-2.21h0Z" fill="#f5f7fa"/><path d="M138.12,253.88c-1.22,0-2.21.99-2.21,2.21s.99,2.22,2.21,2.22,2.22-.99,2.22-2.22-.99-2.21-2.22-2.21h0Z" fill="#f5f7fa"/><path d="M146.99,253.88c-1.22,0-2.22.99-2.22,2.21s.99,2.22,2.22,2.22,2.22-.99,2.22-2.22-.99-2.21-2.22-2.21h0Z" fill="#f5f7fa"/><path d="M155.85,253.88c-1.22,0-2.22.99-2.22,2.21s.99,2.22,2.22,2.22,2.21-.99,2.21-2.22-.99-2.21-2.21-2.21h0Z" fill="#f5f7fa"/><path d="M164.71,253.88c-1.22,0-2.21.99-2.21,2.21s.99,2.22,2.21,2.22,2.22-.99,2.22-2.22-.99-2.21-2.22-2.21h0Z" fill="#f5f7fa"/><path d="M98.24,247.24c-1.22,0-2.21.99-2.21,2.21s.99,2.22,2.21,2.22,2.22-.99,2.22-2.22-.99-2.21-2.22-2.21Z" fill="#f5f7fa"/><path d="M107.1,247.24c-1.22,0-2.22.99-2.22,2.21s.99,2.22,2.22,2.22,2.22-.99,2.22-2.22-.99-2.21-2.22-2.21Z" fill="#f5f7fa"/><path d="M115.97,251.67c1.22,0,2.21-.99,2.21-2.22s-.99-2.21-2.21-2.21-2.22.99-2.22,2.21.99,2.22,2.22,2.22Z" fill="#f5f7fa"/><path d="M124.83,251.67c1.22,0,2.22-.99,2.22-2.22s-.99-2.21-2.22-2.21-2.21.99-2.21,2.21.99,2.22,2.21,2.22Z" fill="#f5f7fa"/><path d="M133.69,251.67c1.22,0,2.22-.99,2.22-2.22s-.99-2.21-2.22-2.21-2.22.99-2.22,2.21.99,2.22,2.22,2.22Z" fill="#f5f7fa"/><path d="M142.56,251.67c1.22,0,2.21-.99,2.21-2.22s-.99-2.21-2.21-2.21-2.22.99-2.22,2.21.99,2.22,2.22,2.22Z" fill="#f5f7fa"/><path d="M151.42,251.67c1.22,0,2.22-.99,2.22-2.22s-.99-2.21-2.22-2.21-2.21.99-2.21,2.21.99,2.22,2.21,2.22Z" fill="#f5f7fa"/><path d="M160.28,247.24c-1.22,0-2.22.99-2.22,2.21s.99,2.22,2.22,2.22,2.22-.99,2.22-2.22-.99-2.21-2.22-2.21Z" fill="#f5f7fa"/><path d="M169.14,247.24c-1.22,0-2.22.99-2.22,2.21s.99,2.22,2.22,2.22,2.21-.99,2.21-2.22-.99-2.21-2.21-2.21Z" fill="#f5f7fa"/><polygon points="158 173.71 158 187 171.29 187 158 173.71" fill="#ccd1d9"/><path d="M87.16,218.43c0,1.22-.99,2.22-2.22,2.22s-2.21-.99-2.21-2.22.99-2.21,2.21-2.21,2.22.99,2.22,2.21Z" fill="none" stroke="#000" stroke-linecap="round" stroke-linejoin="round"/><path d="M184.65,218.43c0,1.22-.99,2.22-2.21,2.22s-2.22-.99-2.22-2.22.99-2.21,2.22-2.21,2.21.99,2.21,2.21Z" fill="none" stroke="#000" stroke-linecap="round" stroke-linejoin="round"/><path d="M182,224.75c0,1.24-.99,2.25-2.21,2.25h-92.58c-1.22,0-2.22-.99-2.22-2.22v-13.57c0-1.22.99-2.22,2.22-2.22h92.57c1.22,0,2.22.99,2.22,2.22v13.53h0Z" fill="none" stroke="#000" stroke-linecap="round" stroke-linejoin="round"/><polygon points="157.76 174 96 174 96 271 171 271 171 187.23 157.76 174" fill="none" stroke="#000" stroke-linecap="round" stroke-linejoin="round"/><path d="M184.69,275.6c.26,2.43-1.52,4.4-3.96,4.4h-94.09c-2.44,0-4.22-1.98-3.96-4.4l5.7-53.19c.26-2.42,2.47-4.41,4.9-4.41h80.8c2.44,0,4.64,1.98,4.9,4.41l5.7,53.19h.01Z" fill="none" stroke="#000" stroke-linecap="round" stroke-linejoin="round"/><path d="M105.57,225.82c.85.22,1.88.53,3.08.88,5.86,1.71,15.65,4.58,25.04,4.6,9.39-.02,19.18-2.89,25.04-4.6,1.2-.35,2.24-.65,3.08-.88,4.14-1.1,11.25-2.19,17.64.64l-.44-4.05c-.26-2.42-2.47-4.41-4.9-4.41h-80.85c-2.44,0-4.64,1.98-4.9,4.41l-.43,4.05c6.39-2.84,13.5-1.74,17.64-.64h0Z" fill="none" stroke="#000" stroke-linecap="round" stroke-linejoin="round"/><path d="M102.67,247.24c1.22,0,2.22-.99,2.22-2.21s-.99-2.21-2.22-2.21-2.21.99-2.21,2.21.99,2.21,2.21,2.21Z" fill="none" stroke="#000" stroke-linecap="round" stroke-linejoin="round"/><path d="M111.54,247.24c1.22,0,2.22-.99,2.22-2.21s-.99-2.21-2.22-2.21-2.22.99-2.22,2.21.99,2.21,2.22,2.21Z" fill="none" stroke="#000" stroke-linecap="round" stroke-linejoin="round"/><path d="M120.4,247.24c1.22,0,2.21-.99,2.21-2.21s-.99-2.21-2.21-2.21-2.22.99-2.22,2.21.99,2.21,2.22,2.21Z" fill="none" stroke="#000" stroke-linecap="round" stroke-linejoin="round"/><path d="M129.26,247.24c1.22,0,2.22-.99,2.22-2.21s-.99-2.21-2.22-2.21-2.21.99-2.21,2.21.99,2.21,2.21,2.21Z" fill="none" stroke="#000" stroke-linecap="round" stroke-linejoin="round"/><path d="M138.13,247.24c1.22,0,2.22-.99,2.22-2.21s-.99-2.21-2.22-2.21-2.22.99-2.22,2.21.99,2.21,2.22,2.21Z" fill="none" stroke="#000" stroke-linecap="round" stroke-linejoin="round"/><path d="M146.99,247.24c1.22,0,2.21-.99,2.21-2.21s-.99-2.21-2.21-2.21-2.22.99-2.22,2.21.99,2.21,2.22,2.21Z" fill="none" stroke="#000" stroke-linecap="round" stroke-linejoin="round"/><path d="M155.85,247.24c1.22,0,2.22-.99,2.22-2.21s-.99-2.21-2.22-2.21-2.21.99-2.21,2.21.99,2.21,2.21,2.21Z" fill="none" stroke="#000" stroke-linecap="round" stroke-linejoin="round"/><path d="M164.71,247.24c1.22,0,2.22-.99,2.22-2.21s-.99-2.21-2.22-2.21-2.22.99-2.22,2.21.99,2.21,2.22,2.21Z" fill="none" stroke="#000" stroke-linecap="round" stroke-linejoin="round"/><path d="M102.67,256.1c-1.22,0-2.22.99-2.22,2.22s.99,2.21,2.22,2.21,2.21-.99,2.21-2.21-.99-2.22-2.21-2.22Z" fill="none" stroke="#000" stroke-linecap="round" stroke-linejoin="round"/><path d="M111.53,260.53c1.22,0,2.22-.99,2.22-2.21s-.99-2.22-2.22-2.22-2.21.99-2.21,2.22.99,2.21,2.21,2.21Z" fill="none" stroke="#000" stroke-linecap="round" stroke-linejoin="round"/><path d="M120.4,256.1c-1.22,0-2.22.99-2.22,2.22s.99,2.21,2.22,2.21,2.22-.99,2.22-2.21-.99-2.22-2.22-2.22Z" fill="none" stroke="#000" stroke-linecap="round" stroke-linejoin="round"/><path d="M158,266.52c-.24-.93-1.17-1.52-2.13-1.52h-44.34c-1.22,0-2.21.9-2.21,2s.99,2,2.21,2h44.32c1.4,0,2.49-1.17,2.15-2.48Z" fill="none" stroke="#000" stroke-linecap="round" stroke-linejoin="round"/><path d="M129.26,256.1c-1.22,0-2.22.99-2.22,2.22s.99,2.21,2.22,2.21,2.21-.99,2.21-2.21-.99-2.22-2.21-2.22Z" fill="none" stroke="#000" stroke-linecap="round" stroke-linejoin="round"/><path d="M138.12,256.1c-1.22,0-2.21.99-2.21,2.22s.99,2.21,2.21,2.21,2.22-.99,2.22-2.21-.99-2.22-2.22-2.22Z" fill="none" stroke="#000" stroke-linecap="round" stroke-linejoin="round"/><path d="M146.99,256.1c-1.22,0-2.22.99-2.22,2.22s.99,2.21,2.22,2.21,2.22-.99,2.22-2.21-.99-2.22-2.22-2.22Z" fill="none" stroke="#000" stroke-linecap="round" stroke-linejoin="round"/><path d="M155.85,256.1c-1.22,0-2.22.99-2.22,2.22s.99,2.21,2.22,2.21,2.21-.99,2.21-2.21-.99-2.22-2.21-2.22Z" fill="none" stroke="#000" stroke-linecap="round" stroke-linejoin="round"/><path d="M164.71,256.1c-1.22,0-2.21.99-2.21,2.22s.99,2.21,2.21,2.21,2.22-.99,2.22-2.21-.99-2.22-2.22-2.22Z" fill="none" stroke="#000" stroke-linecap="round" stroke-linejoin="round"/><path d="M98.24,249.45c-1.22,0-2.21.99-2.21,2.22s.99,2.21,2.21,2.21,2.22-.99,2.22-2.21-.99-2.22-2.22-2.22Z" fill="none" stroke="#000" stroke-linecap="round" stroke-linejoin="round"/><path d="M107.1,249.45c-1.22,0-2.22.99-2.22,2.22s.99,2.21,2.22,2.21,2.22-.99,2.22-2.21-.99-2.22-2.22-2.22Z" fill="none" stroke="#000" stroke-linecap="round" stroke-linejoin="round"/><path d="M115.97,253.88c1.22,0,2.21-.99,2.21-2.21s-.99-2.22-2.21-2.22-2.22.99-2.22,2.22.99,2.21,2.22,2.21Z" fill="none" stroke="#000" stroke-linecap="round" stroke-linejoin="round"/><path d="M124.83,253.88c1.22,0,2.22-.99,2.22-2.21s-.99-2.22-2.22-2.22-2.21.99-2.21,2.22.99,2.21,2.21,2.21Z" fill="none" stroke="#000" stroke-linecap="round" stroke-linejoin="round"/><path d="M133.69,253.88c1.22,0,2.22-.99,2.22-2.21s-.99-2.22-2.22-2.22-2.22.99-2.22,2.22.99,2.21,2.22,2.21Z" fill="none" stroke="#000" stroke-linecap="round" stroke-linejoin="round"/><path d="M142.56,253.88c1.22,0,2.21-.99,2.21-2.21s-.99-2.22-2.21-2.22-2.22.99-2.22,2.22.99,2.21,2.22,2.21Z" fill="none" stroke="#000" stroke-linecap="round" stroke-linejoin="round"/><path d="M151.42,253.88c1.22,0,2.22-.99,2.22-2.21s-.99-2.22-2.22-2.22-2.21.99-2.21,2.22.99,2.21,2.21,2.21Z" fill="none" stroke="#000" stroke-linecap="round" stroke-linejoin="round"/><path d="M160.28,249.45c-1.22,0-2.22.99-2.22,2.22s.99,2.21,2.22,2.21,2.22-.99,2.22-2.21-.99-2.22-2.22-2.22Z" fill="none" stroke="#000" stroke-linecap="round" stroke-linejoin="round"/><path d="M169.14,249.45c-1.22,0-2.22.99-2.22,2.22s.99,2.21,2.22,2.21,2.21-.99,2.21-2.21-.99-2.22-2.21-2.22Z" fill="none" stroke="#000" stroke-linecap="round" stroke-linejoin="round"/><path d="M140.75,219h-15.75v1.79c0,1.22.99,2.21,2.21,2.21h13.57c1.22,0,2.21-.99,2.21-2.21v-1.79h-2.25,0Z" fill="none" stroke="#000" stroke-linecap="round" stroke-linejoin="round"/><rect x="101" y="256" width="4" height="2" fill="none" stroke="#000" stroke-linecap="round" stroke-linejoin="round"/><rect x="101" y="243" width="4" height="2" fill="none" stroke="#000" stroke-linecap="round" stroke-linejoin="round"/><rect x="110" y="243" width="4" height="2" fill="none" stroke="#000" stroke-linecap="round" stroke-linejoin="round"/><rect x="118" y="243" width="4" height="2" fill="none" stroke="#000" stroke-linecap="round" stroke-linejoin="round"/><rect x="127" y="243" width="4" height="2" fill="none" stroke="#000" stroke-linecap="round" stroke-linejoin="round"/><rect x="136" y="243" width="4" height="2" fill="none" stroke="#000" stroke-linecap="round" stroke-linejoin="round"/><rect x="145" y="243" width="4" height="2" fill="none" stroke="#000" stroke-linecap="round" stroke-linejoin="round"/><rect x="154" y="243" width="4" height="2" fill="none" stroke="#000" stroke-linecap="round" stroke-linejoin="round"/><rect x="163" y="243" width="4" height="2" fill="none" stroke="#000" stroke-linecap="round" stroke-linejoin="round"/><rect x="110" y="256" width="4" height="2" fill="none" stroke="#000" stroke-linecap="round" stroke-linejoin="round"/><rect x="118" y="256" width="4" height="2" fill="none" stroke="#000" stroke-linecap="round" stroke-linejoin="round"/><rect x="127" y="256" width="4" height="2" fill="none" stroke="#000" stroke-linecap="round" stroke-linejoin="round"/><rect x="136" y="256" width="4" height="2" fill="none" stroke="#000" stroke-linecap="round" stroke-linejoin="round"/><rect x="145" y="256" width="4" height="2" fill="none" stroke="#000" stroke-linecap="round" stroke-linejoin="round"/><rect x="154" y="256" width="4" height="2" fill="none" stroke="#000" stroke-linecap="round" stroke-linejoin="round"/><rect x="163" y="256" width="4" height="2" fill="none" stroke="#000" stroke-linecap="round" stroke-linejoin="round"/><rect x="167" y="250" width="4" height="2" fill="none" stroke="#000" stroke-linecap="round" stroke-linejoin="round"/><rect x="158" y="250" width="4" height="2" fill="none" stroke="#000" stroke-linecap="round" stroke-linejoin="round"/><rect x="149" y="250" width="4" height="2" fill="none" stroke="#000" stroke-linecap="round" stroke-linejoin="round"/><rect x="141" y="250" width="4" height="2" fill="none" stroke="#000" stroke-linecap="round" stroke-linejoin="round"/><rect x="132" y="250" width="4" height="2" fill="none" stroke="#000" stroke-linecap="round" stroke-linejoin="round"/><rect x="123" y="250" width="4" height="2" fill="none" stroke="#000" stroke-linecap="round" stroke-linejoin="round"/><rect x="114" y="250" width="4" height="2" fill="none" stroke="#000" stroke-linecap="round" stroke-linejoin="round"/><rect x="105" y="250" width="4" height="2" fill="none" stroke="#000" stroke-linecap="round" stroke-linejoin="round"/><rect x="96" y="250" width="4" height="2" fill="none" stroke="#000" stroke-linecap="round" stroke-linejoin="round"/><rect x="109" y="265" width="49" height="2" fill="none" stroke="#000" stroke-linecap="round" stroke-linejoin="round"/><path d="M102.67,245.02c1.22,0,2.22-.99,2.22-2.21s-.99-2.22-2.22-2.22-2.21.99-2.21,2.22.99,2.21,2.21,2.21Z" fill="none" stroke="#000" stroke-linecap="round" stroke-linejoin="round"/><path d="M111.54,245.02c1.22,0,2.22-.99,2.22-2.21s-.99-2.22-2.22-2.22-2.22.99-2.22,2.22.99,2.21,2.22,2.21Z" fill="none" stroke="#000" stroke-linecap="round" stroke-linejoin="round"/><path d="M120.4,245.02c1.22,0,2.21-.99,2.21-2.21s-.99-2.22-2.21-2.22-2.22.99-2.22,2.22.99,2.21,2.22,2.21Z" fill="none" stroke="#000" stroke-linecap="round" stroke-linejoin="round"/><path d="M129.26,245.02c1.22,0,2.22-.99,2.22-2.21s-.99-2.22-2.22-2.22-2.21.99-2.21,2.22.99,2.21,2.21,2.21Z" fill="none" stroke="#000" stroke-linecap="round" stroke-linejoin="round"/><path d="M138.13,245.02c1.22,0,2.22-.99,2.22-2.21s-.99-2.22-2.22-2.22-2.22.99-2.22,2.22.99,2.21,2.22,2.21Z" fill="none" stroke="#000" stroke-linecap="round" stroke-linejoin="round"/><path d="M146.99,245.02c1.22,0,2.21-.99,2.21-2.21s-.99-2.22-2.21-2.22-2.22.99-2.22,2.22.99,2.21,2.22,2.21Z" fill="none" stroke="#000" stroke-linecap="round" stroke-linejoin="round"/><path d="M155.85,245.02c1.22,0,2.22-.99,2.22-2.21s-.99-2.22-2.22-2.22-2.21.99-2.21,2.22.99,2.21,2.21,2.21Z" fill="none" stroke="#000" stroke-linecap="round" stroke-linejoin="round"/><path d="M164.71,245.02c1.22,0,2.22-.99,2.22-2.21s-.99-2.22-2.22-2.22-2.22.99-2.22,2.22.99,2.21,2.22,2.21Z" fill="none" stroke="#000" stroke-linecap="round" stroke-linejoin="round"/><path d="M102.67,253.88c-1.22,0-2.22.99-2.22,2.21s.99,2.22,2.22,2.22,2.21-.99,2.21-2.22-.99-2.21-2.21-2.21h0Z" fill="none" stroke="#000" stroke-linecap="round" stroke-linejoin="round"/><path d="M111.53,258.32c1.22,0,2.22-.99,2.22-2.22s-.99-2.21-2.22-2.21-2.21.99-2.21,2.21.99,2.22,2.21,2.22Z" fill="none" stroke="#000" stroke-linecap="round" stroke-linejoin="round"/><path d="M120.4,253.88c-1.22,0-2.22.99-2.22,2.21s.99,2.22,2.22,2.22,2.22-.99,2.22-2.22-.99-2.21-2.22-2.21h0Z" fill="none" stroke="#000" stroke-linecap="round" stroke-linejoin="round"/><path d="M158,264.52c-.24-.93-1.16-1.52-2.12-1.52h-44.34c-1.22,0-2.21.9-2.21,2s.99,2,2.21,2h44.32c1.4,0,2.49-1.17,2.15-2.48h-.01Z" fill="none" stroke="#000" stroke-linecap="round" stroke-linejoin="round"/><path d="M129.26,253.88c-1.22,0-2.22.99-2.22,2.21s.99,2.22,2.22,2.22,2.21-.99,2.21-2.22-.99-2.21-2.21-2.21h0Z" fill="none" stroke="#000" stroke-linecap="round" stroke-linejoin="round"/><path d="M138.12,253.88c-1.22,0-2.21.99-2.21,2.21s.99,2.22,2.21,2.22,2.22-.99,2.22-2.22-.99-2.21-2.22-2.21h0Z" fill="none" stroke="#000" stroke-linecap="round" stroke-linejoin="round"/><path d="M146.99,253.88c-1.22,0-2.22.99-2.22,2.21s.99,2.22,2.22,2.22,2.22-.99,2.22-2.22-.99-2.21-2.22-2.21h0Z" fill="none" stroke="#000" stroke-linecap="round" stroke-linejoin="round"/><path d="M155.85,253.88c-1.22,0-2.22.99-2.22,2.21s.99,2.22,2.22,2.22,2.21-.99,2.21-2.22-.99-2.21-2.21-2.21h0Z" fill="none" stroke="#000" stroke-linecap="round" stroke-linejoin="round"/><path d="M164.71,253.88c-1.22,0-2.21.99-2.21,2.21s.99,2.22,2.21,2.22,2.22-.99,2.22-2.22-.99-2.21-2.22-2.21h0Z" fill="none" stroke="#000" stroke-linecap="round" stroke-linejoin="round"/><path d="M98.24,247.24c-1.22,0-2.21.99-2.21,2.21s.99,2.22,2.21,2.22,2.22-.99,2.22-2.22-.99-2.21-2.22-2.21Z" fill="none" stroke="#000" stroke-linecap="round" stroke-linejoin="round"/><path d="M107.1,247.24c-1.22,0-2.22.99-2.22,2.21s.99,2.22,2.22,2.22,2.22-.99,2.22-2.22-.99-2.21-2.22-2.21Z" fill="none" stroke="#000" stroke-linecap="round" stroke-linejoin="round"/><path d="M115.97,251.67c1.22,0,2.21-.99,2.21-2.22s-.99-2.21-2.21-2.21-2.22.99-2.22,2.21.99,2.22,2.22,2.22Z" fill="none" stroke="#000" stroke-linecap="round" stroke-linejoin="round"/><path d="M124.83,251.67c1.22,0,2.22-.99,2.22-2.22s-.99-2.21-2.22-2.21-2.21.99-2.21,2.21.99,2.22,2.21,2.22Z" fill="none" stroke="#000" stroke-linecap="round" stroke-linejoin="round"/><path d="M133.69,251.67c1.22,0,2.22-.99,2.22-2.22s-.99-2.21-2.22-2.21-2.22.99-2.22,2.21.99,2.22,2.22,2.22Z" fill="none" stroke="#000" stroke-linecap="round" stroke-linejoin="round"/><path d="M142.56,251.67c1.22,0,2.21-.99,2.21-2.22s-.99-2.21-2.21-2.21-2.22.99-2.22,2.21.99,2.22,2.22,2.22Z" fill="none" stroke="#000" stroke-linecap="round" stroke-linejoin="round"/><path d="M151.42,251.67c1.22,0,2.22-.99,2.22-2.22s-.99-2.21-2.22-2.21-2.21.99-2.21,2.21.99,2.22,2.21,2.22Z" fill="none" stroke="#000" stroke-linecap="round" stroke-linejoin="round"/><path d="M160.28,247.24c-1.22,0-2.22.99-2.22,2.21s.99,2.22,2.22,2.22,2.22-.99,2.22-2.22-.99-2.21-2.22-2.21Z" fill="none" stroke="#000" stroke-linecap="round" stroke-linejoin="round"/><path d="M169.14,247.24c-1.22,0-2.22.99-2.22,2.21s.99,2.22,2.22,2.22,2.21-.99,2.21-2.22-.99-2.21-2.21-2.21Z" fill="none" stroke="#000" stroke-linecap="round" stroke-linejoin="round"/><polygon points="158 173.71 158 187 171.29 187 158 173.71" fill="none" stroke="#000" stroke-linecap="round" stroke-linejoin="round"/><g id="uuid-80a1e463-7bc3-404f-bb02-a2aef10b1d68"><polygon id="uuid-c395fa8b-0d2c-4dc8-91b1-fcdc09f987c5" points="386 400 365 400 365 439.12 365 447 397 447 397 439 386 439 386 400" fill="#5f5f5f"/><rect id="uuid-aafbe1e1-8a40-4d22-885a-179627916868" x="362" y="347" width="27" height="54" fill="#727272"/><polygon id="uuid-d7724f4a-7774-4f7e-8af6-61b890640df9" points="352 400 331 400 331 439 320 439 320 447 352 447 352 439.12 352 439.12 352 400" fill="#5f5f5f"/><rect id="uuid-31125ae3-599c-46f0-aa10-88b1ec1807de" x="329" y="347" width="27" height="54" fill="#727272"/><path id="uuid-354d1b97-063c-49a8-9f41-8cc681cb163f" d="M328,238v109h61v-109h-61Z" fill="#727272"/><rect id="uuid-36a6d43b-7366-46a4-b634-4d9f52017f6d" x="328" y="301" width="61" height="19" fill="#acacac"/><rect id="uuid-c99d5c4d-b440-4471-9c59-5fa20aea43cc" x="371" y="236" width="8" height="65" fill="#acacac"/><rect id="uuid-ab78bd67-ad51-4dd7-91bd-fc82fe321300" x="338" y="236" width="8" height="65" fill="#acacac"/><path id="uuid-1b8eb268-d428-435b-9af2-d706b56df359" d="M387.3,211.14c1.24-6.13,1.41-12.85.31-19.75-3.81-23.83-21.4-40.84-39.27-37.98-17.88,2.86-29.27,24.5-25.46,48.34,1.1,6.9,3.37,13.23,6.46,18.67l57.97-9.28h-.01Z" fill="#ccc"/><path id="uuid-4896e4ae-a8db-411a-b568-7ced9e97eb4d" d="M331.01,230c5.82,12.17,16.03,20.25,27.65,20.25s21.83-8.08,27.65-20.25h-55.31.01Z" fill="#ccc"/><ellipse id="uuid-0c2a178c-9989-4a2d-b7eb-436a202458a0" cx="350" cy="205.5" rx="2.94" ry="4.54" transform="translate(-30.17 63.37) rotate(-9.92)" fill="#333"/><ellipse id="uuid-8db09e24-570f-4666-b838-a83152fd489d" cx="335.99" cy="207.5" rx="2.94" ry="4.54" transform="translate(-30.72 60.98) rotate(-9.92)" fill="#333"/><rect id="uuid-e8bc04ac-daf4-423a-b980-a46ed061ad14" x="383.19" y="229.82" width="34.96" height="16.39" transform="translate(-63.94 201.68) rotate(-26.24)" fill="#727272"/><rect id="uuid-9506aec4-04bb-40d5-8aa5-8970e28413f5" x="303.07" y="245.88" width="34.96" height="16.39" transform="translate(-4.43 502.44) rotate(-75.79)" fill="#727272"/><rect id="uuid-9c826926-d1ba-46fc-ab77-bf197a2bc5d7" x="291.18" y="275.78" width="34.96" height="16.39" transform="translate(-90.96 411.32) rotate(-60.29)" fill="#727272"/><rect id="uuid-5c60b01e-c3ab-4e3b-8f0f-d93f62f0f4f2" x="287.82" y="297.44" width="17.71" height="17.71" transform="translate(-111.38 430.08) rotate(-62.79)" fill="#ccc"/><circle id="uuid-a78f917c-d8ec-4bb9-809f-b13db5ad7e93" cx="358.5" cy="289.5" r="2.5" fill="#333"/><circle id="uuid-cd24cf98-a20b-40f3-9371-3cf1ac30666b" cx="358.5" cy="279.5" r="2.5" fill="#333"/><circle id="uuid-edea794c-9448-4478-a65b-9caa394894a8" cx="358.5" cy="271.5" r="2.5" fill="#333"/><circle id="uuid-e9084f97-99e7-413c-a4a2-ab9466ce25d5" cx="358.5" cy="259.5" r="2.5" fill="#333"/><path d="M387.05,169.14c-3.12-15.07-19.62-25.74-38.58-24.3-18.96,1.43-33.67,14.47-34.48,29.83-6.27,1.39-9.98,2.82-9.88,4.07.22,2.93,21.29,3.73,47.07,1.78,25.77-1.95,46.49-5.91,46.26-8.84-.09-1.25-3.98-2.11-10.38-2.53h0Z" fill="#6a6a6a"/></g><path d="M422.09,242.99c-.97-1.4-1.4-2.59-1.65-3.3-.08-.22-.34-.22-.41,0-.25.71-.67,1.9-1.65,3.3-.61.88-1.21,2.16-1.21,3.42,0,2.16,1.32,3.62,3.06,3.62s3.06-1.46,3.06-3.62c0-1.31-.6-2.55-1.21-3.42h0Z" fill="#c1272d"/><path d="M421.09,246.77c.49-1.09.42-2.16.81-1.97.53.26,1.11,1.62.89,2.84-.16.87-.66,1.4-1.3,1.15-.52-.2-.84-1.04-.4-2.02h0Z" fill="#e36250"/><path d="M411.46,239.84l-5.93-12.03c-.57-1.16-.1-2.57,1.07-3.14l6.96-3.43c1.16-.57,2.57-.1,3.14,1.07l4.95,10.03c1.12,2.27.19,5.01-2.08,6.13l-4.96,2.44c-1.16.57-2.57.1-3.14-1.07h-.01Z" fill="#c1272d"/><ellipse cx="407" cy="231.01" rx="10.75" ry="5.79" transform="translate(-59.97 200.09) rotate(-25.79)" fill="#c1272d"/><ellipse cx="409.98" cy="234.99" rx="2.72" ry="9.46" transform="translate(55.03 546.94) rotate(-71.13)" fill="#c1272d"/><path d="M198.15,294.89s16.31,8.65,28.41,30.39c12.11,21.75,17.57,34.88,17.57,34.88l61.13-22.88s-9.27-31.79-21.81-43.01c-12.54-11.23-30.64-23.04-30.64-23.04l-54.66,23.66h0Z" fill="#fff"/><path d="M243.85,360.8l-.19-.45c-.05-.13-5.59-13.36-17.55-34.83-11.88-21.35-28.05-30.11-28.21-30.19l-.92-.49,55.86-24.18.23.15c.18.12,18.28,11.96,30.7,23.09,12.5,11.19,21.58,41.94,21.96,43.24l.13.45-62.02,23.21ZM199.26,294.96c3.56,2.16,17.3,11.33,27.74,30.08,10.76,19.33,16.34,32.01,17.41,34.49l60.24-22.55c-1.18-3.88-10.04-32.05-21.53-42.33-11.62-10.4-28.24-21.45-30.36-22.85l-53.5,23.16Z" fill="#938c8c"/><g id="uuid-4af35e42-29ec-4904-884a-6f3af33a86ac"><polygon id="uuid-2da085ba-2563-4d8b-b972-aecb400bb9c6" points="386 400 365 400 365 439.12 365 447 397 447 397 439 386 439 386 400" fill="none" stroke="#000" stroke-linecap="round" stroke-linejoin="round"/><rect id="uuid-03ae1dc8-e665-42d5-b491-c2da652d89f1" x="362" y="347" width="27" height="54" fill="none" stroke="#000" stroke-linecap="round" stroke-linejoin="round"/><polygon id="uuid-9917c6ce-984e-40e4-94f5-47904eac0084" points="352 400 331 400 331 439 320 439 320 447 352 447 352 439.12 352 439.12 352 400" fill="none" stroke="#000" stroke-linecap="round" stroke-linejoin="round"/><rect id="uuid-1e8a1425-1eab-49b1-8b7d-aede912e7682" x="329" y="347" width="27" height="54" fill="none" stroke="#000" stroke-linecap="round" stroke-linejoin="round"/><path id="uuid-c3d5b515-398d-4b93-90a9-1df3784adc8e" d="M328,238v109h61v-109h-61Z" fill="none" stroke="#000" stroke-linecap="round" stroke-linejoin="round"/><rect id="uuid-320003df-8a31-4c1e-8590-c895b708b951" x="328" y="301" width="61" height="19" fill="none" stroke="#000" stroke-linecap="round" stroke-linejoin="round"/><rect id="uuid-fe376f04-bad2-403e-a493-87664fec8e0c" x="371" y="236" width="8" height="65" fill="none" stroke="#000" stroke-linecap="round" stroke-linejoin="round"/><rect id="uuid-fe6ca595-5b8d-421d-ae97-23cb0b92eaf4" x="338" y="236" width="8" height="65" fill="none" stroke="#000" stroke-linecap="round" stroke-linejoin="round"/><path id="uuid-2c661bfb-2289-4981-93c1-36f2e98daf9a" d="M387.3,211.14c1.24-6.13,1.41-12.85.31-19.75-3.81-23.83-21.4-40.84-39.27-37.98-17.88,2.86-29.27,24.5-25.46,48.34,1.1,6.9,3.37,13.23,6.46,18.67l57.97-9.28h-.01Z" fill="none" stroke="#000" stroke-linecap="round" stroke-linejoin="round"/><path id="uuid-79217aec-ac82-4c55-83d0-aaae5677f671" d="M331.01,230c5.82,12.17,16.03,20.25,27.65,20.25s21.83-8.08,27.65-20.25h-55.31.01Z" fill="none" stroke="#000" stroke-linecap="round" stroke-linejoin="round"/><ellipse id="uuid-ba0bd003-4c75-4efb-b8e5-fa64e73b25dc" cx="350" cy="205.5" rx="2.94" ry="4.54" transform="translate(-30.17 63.37) rotate(-9.92)" fill="none" stroke="#000" stroke-linecap="round" stroke-linejoin="round" stroke-width="1"/><ellipse id="uuid-d2763d9d-0edb-4e0f-8e12-c2eb671f68a8" cx="335.99" cy="207.5" rx="2.94" ry="4.54" transform="translate(-30.72 60.98) rotate(-9.92)" fill="none" stroke="#000" stroke-linecap="round" stroke-linejoin="round" stroke-width="1"/><rect id="uuid-854cf13b-efb5-4f2e-9bb1-2fe221976e50" x="383.19" y="229.82" width="34.96" height="16.39" transform="translate(-63.94 201.68) rotate(-26.24)" fill="none" stroke="#000" stroke-linecap="round" stroke-linejoin="round" stroke-width="1"/><rect id="uuid-af1345f9-5bf0-47f6-b7ea-26e79600b4b1" x="303.07" y="245.88" width="34.96" height="16.39" transform="translate(-4.43 502.44) rotate(-75.79)" fill="none" stroke="#000" stroke-linecap="round" stroke-linejoin="round" stroke-width="1"/><rect id="uuid-87410191-5da6-491e-b1ff-b6f5a8108c18" x="291.18" y="275.78" width="34.96" height="16.39" transform="translate(-90.96 411.32) rotate(-60.29)" fill="none" stroke="#000" stroke-linecap="round" stroke-linejoin="round" stroke-width="1"/><rect id="uuid-70736e70-fcf3-4e63-bb3e-ef99a53c88e2" x="287.82" y="297.44" width="17.71" height="17.71" transform="translate(-111.38 430.08) rotate(-62.79)" fill="none" stroke="#000" stroke-linecap="round" stroke-linejoin="round" stroke-width="1"/><circle id="uuid-bc8f4642-4dbb-41ef-871e-b87146a9ea0e" cx="358.5" cy="289.5" r="2.5" fill="none" stroke="#000" stroke-linecap="round" stroke-linejoin="round"/><circle id="uuid-8675c120-9595-4af9-bd64-120d5159bb4c" cx="358.5" cy="279.5" r="2.5" fill="none" stroke="#000" stroke-linecap="round" stroke-linejoin="round"/><circle id="uuid-d8e4cf69-6ff3-4e79-9767-f91209376fad" cx="358.5" cy="271.5" r="2.5" fill="none" stroke="#000" stroke-linecap="round" stroke-linejoin="round"/><circle id="uuid-dae88670-789c-44fb-bfed-98bd4df783b8" cx="358.5" cy="259.5" r="2.5" fill="none" stroke="#000" stroke-linecap="round" stroke-linejoin="round"/><path d="M387.05,169.14c-3.12-15.07-19.62-25.74-38.58-24.3-18.96,1.43-33.67,14.47-34.48,29.83-6.27,1.39-9.98,2.82-9.88,4.07.22,2.93,21.29,3.73,47.07,1.78,25.77-1.95,46.49-5.91,46.26-8.84-.09-1.25-3.98-2.11-10.38-2.53h0Z" fill="none" stroke="#000" stroke-linecap="round" stroke-linejoin="round"/><polygon id="uuid-8c4563e1-5bc1-42bb-8087-5f64f5977048" points="386 400 365 400 365 439.12 365 447 397 447 397 439 386 439 386 400" fill="none" stroke="#000" stroke-linecap="round" stroke-linejoin="round"/><rect id="uuid-7b10e6e5-5aa1-480b-8422-aa84f1d5313a" x="362" y="347" width="27" height="54" fill="none" stroke="#000" stroke-linecap="round" stroke-linejoin="round"/><polygon id="uuid-99b3c30e-0a9c-450c-ad63-37e26cd1ab4e" points="352 400 331 400 331 439 320 439 320 447 352 447 352 439.12 352 439.12 352 400" fill="none" stroke="#000" stroke-linecap="round" stroke-linejoin="round"/><rect id="uuid-cdb7b068-2e0d-4371-911a-de3562371f34" x="329" y="347" width="27" height="54" fill="none" stroke="#000" stroke-linecap="round" stroke-linejoin="round"/><path id="uuid-94586a3c-4ccf-43fc-81b6-6521935c94d9" d="M328,238v109h61v-109h-61Z" fill="none" stroke="#000" stroke-linecap="round" stroke-linejoin="round"/><rect id="uuid-06856687-1d78-42a2-a18f-236baff86f56" x="328" y="301" width="61" height="19" fill="none" stroke="#000" stroke-linecap="round" stroke-linejoin="round"/><rect id="uuid-f2bfe3b2-30c8-419d-a365-6885a25d31c3" x="371" y="236" width="8" height="65" fill="none" stroke="#000" stroke-linecap="round" stroke-linejoin="round"/><rect id="uuid-aafbf717-d6f4-4c23-8333-d913e89128fb" x="338" y="236" width="8" height="65" fill="none" stroke="#000" stroke-linecap="round" stroke-linejoin="round"/><path id="uuid-22f19012-8615-4cf4-8fc1-1d651eed0f72" d="M387.3,211.14c1.24-6.13,1.41-12.85.31-19.75-3.81-23.83-21.4-40.84-39.27-37.98-17.88,2.86-29.27,24.5-25.46,48.34,1.1,6.9,3.37,13.23,6.46,18.67l57.97-9.28h-.01Z" fill="none" stroke="#000" stroke-linecap="round" stroke-linejoin="round"/><path id="uuid-e3b6f0a8-bd91-4aae-bc93-c124e151d517" d="M331.01,230c5.82,12.17,16.03,20.25,27.65,20.25s21.83-8.08,27.65-20.25h-55.31.01Z" fill="none" stroke="#000" stroke-linecap="round" stroke-linejoin="round"/><ellipse id="uuid-daf74118-d2a3-491f-89c8-e6550908a547" cx="350" cy="205.5" rx="2.94" ry="4.54" transform="translate(-30.17 63.37) rotate(-9.92)" fill="none" stroke="#000" stroke-linecap="round" stroke-linejoin="round" stroke-width="1"/><ellipse id="uuid-d60f03c4-92cb-453a-aa90-96f3c2d12140" cx="335.99" cy="207.5" rx="2.94" ry="4.54" transform="translate(-30.72 60.98) rotate(-9.92)" fill="none" stroke="#000" stroke-linecap="round" stroke-linejoin="round" stroke-width="1"/><rect id="uuid-ed6b4789-b80f-4a1b-a7b6-6b8879fbc8a8" x="383.19" y="229.82" width="34.96" height="16.39" transform="translate(-63.94 201.68) rotate(-26.24)" fill="none" stroke="#000" stroke-linecap="round" stroke-linejoin="round" stroke-width="1"/><rect id="uuid-d03a2fb7-882e-45f9-a1fe-87b7b54f8c20" x="303.07" y="245.88" width="34.96" height="16.39" transform="translate(-4.43 502.44) rotate(-75.79)" fill="none" stroke="#000" stroke-linecap="round" stroke-linejoin="round" stroke-width="1"/><rect id="uuid-f77a4359-d95d-42dd-aaca-28c71872a086" x="291.18" y="275.78" width="34.96" height="16.39" transform="translate(-90.96 411.32) rotate(-60.29)" fill="none" stroke="#000" stroke-linecap="round" stroke-linejoin="round" stroke-width="1"/><rect id="uuid-6a381113-deb7-4dc4-be3f-fdb322625961" x="287.82" y="297.44" width="17.71" height="17.71" transform="translate(-111.38 430.08) rotate(-62.79)" fill="none" stroke="#000" stroke-linecap="round" stroke-linejoin="round" stroke-width="1"/><circle id="uuid-dde9f331-e58f-4f0c-9ecc-00fee08d8ac1" cx="358.5" cy="289.5" r="2.5" fill="none" stroke="#000" stroke-linecap="round" stroke-linejoin="round"/><circle id="uuid-50a9b6ab-5e7b-4677-8b9b-fd3b9bc36a4a" cx="358.5" cy="279.5" r="2.5" fill="none" stroke="#000" stroke-linecap="round" stroke-linejoin="round"/><circle id="uuid-76e2d57a-fa4c-4a20-8ae1-e70d833310d4" cx="358.5" cy="271.5" r="2.5" fill="none" stroke="#000" stroke-linecap="round" stroke-linejoin="round"/><circle id="uuid-ae26e538-5bd4-47a8-811d-c78de5c0f8a6" cx="358.5" cy="259.5" r="2.5" fill="none" stroke="#000" stroke-linecap="round" stroke-linejoin="round"/><path d="M387.05,169.14c-3.12-15.07-19.62-25.74-38.58-24.3-18.96,1.43-33.67,14.47-34.48,29.83-6.27,1.39-9.98,2.82-9.88,4.07.22,2.93,21.29,3.73,47.07,1.78,25.77-1.95,46.49-5.91,46.26-8.84-.09-1.25-3.98-2.11-10.38-2.53h0Z" fill="none" stroke="#000" stroke-linecap="round" stroke-linejoin="round"/></g><path d="M422.09,242.99c-.97-1.4-1.4-2.59-1.65-3.3-.08-.22-.34-.22-.41,0-.25.71-.67,1.9-1.65,3.3-.61.88-1.21,2.16-1.21,3.42,0,2.16,1.32,3.62,3.06,3.62s3.06-1.46,3.06-3.62c0-1.31-.6-2.55-1.21-3.42h0Z" fill="none" stroke="#000" stroke-linecap="round" stroke-linejoin="round"/><path d="M421.09,246.77c.49-1.09.42-2.16.81-1.97.53.26,1.11,1.62.89,2.84-.16.87-.66,1.4-1.3,1.15-.52-.2-.84-1.04-.4-2.02h0Z" fill="none" stroke="#000" stroke-linecap="round" stroke-linejoin="round"/><path d="M411.46,239.84l-5.93-12.03c-.57-1.16-.1-2.57,1.07-3.14l6.96-3.43c1.16-.57,2.57-.1,3.14,1.07l4.95,10.03c1.12,2.27.19,5.01-2.08,6.13l-4.96,2.44c-1.16.57-2.57.1-3.14-1.07h-.01Z" fill="none" stroke="#000" stroke-linecap="round" stroke-linejoin="round"/><ellipse cx="407" cy="231.01" rx="10.75" ry="5.79" transform="translate(-59.97 200.09) rotate(-25.79)" fill="none" stroke="#000" stroke-linecap="round" stroke-linejoin="round" stroke-width="1"/><ellipse cx="409.98" cy="234.99" rx="2.72" ry="9.46" transform="translate(55.03 546.94) rotate(-71.13)" fill="none" stroke="#000" stroke-linecap="round" stroke-linejoin="round" stroke-width="1"/><path d="M198.15,294.89s16.31,8.65,28.41,30.39c12.11,21.75,17.57,34.88,17.57,34.88l61.13-22.88s-9.27-31.79-21.81-43.01c-12.54-11.23-30.64-23.04-30.64-23.04l-54.66,23.66h0Z" fill="none" stroke="#000" stroke-linecap="round" stroke-linejoin="round"/><g isolation="isolate"><text transform="translate(231.03 309.52) rotate(-28.66)" fill="#333" font-family="ComicNeue-Regular, &apos;Comic Neue&apos;" font-size="18" isolation="isolate"><tspan x="0" y="0">War</tspan></text></g><g isolation="isolate"><text transform="translate(242.05 323.39) rotate(-28.66)" fill="#333" font-family="ComicNeue-Regular, &apos;Comic Neue&apos;" font-size="18" isolation="isolate"><tspan x="0" y="0">over</tspan></text></g><g isolation="isolate"><text transform="translate(251.55 340.88) rotate(-28.66)" fill="#333" font-family="ComicNeue-Regular, &apos;Comic Neue&apos;" font-size="18" isolation="isolate"><tspan x="0" y="0">by 11</tspan></text></g></svg>