<?xml version="1.0" encoding="UTF-8"?><svg id="uuid-82c7aede-672c-4d7f-aa4f-12475f95fec4" xmlns="http://www.w3.org/2000/svg" viewBox="0 0 500 500"><text transform="translate(60.575867 72.6698)" fill="#333" font-family="ComicNeue-Regular, &apos;Comic Neue&apos;" font-size="24"><tspan x="0" y="0">06:30, 11 November 1918, a message </tspan><tspan x="0" y="28.799805">reached the Canadian Corps HQ.</tspan></text><polygon points="448.480449 303 51.519551 303 80.803552 244 430.584671 244 448.480449 303" fill="#603813"/><rect x="113" y="261" width="17" height="131" fill="#603813"/><rect x="379" y="261" width="17" height="131" fill="#603813"/><rect x="80" y="292" width="17" height="131" fill="#603813"/><rect x="417" y="292" width="17" height="131" fill="#603813"/><rect x="50.5" y="300.5" width="398" height="17" fill="#8c6239" stroke="#8c6239" stroke-miterlimit="10"/><polygon points="448.480449 303 51.519551 303 80.803552 244 430.584671 244 448.480449 303" fill="none" stroke="#000" stroke-linecap="round" stroke-linejoin="round"/><rect x="113" y="261" width="17" height="131" fill="none" stroke="#000" stroke-linecap="round" stroke-linejoin="round"/><rect x="379" y="261" width="17" height="131" fill="none" stroke="#000" stroke-linecap="round" stroke-linejoin="round"/><rect x="80" y="292" width="17" height="131" fill="none" stroke="#000" stroke-linecap="round" stroke-linejoin="round"/><rect x="417" y="292" width="17" height="131" fill="none" stroke="#000" stroke-linecap="round" stroke-linejoin="round"/><rect x="50.5" y="300.5" width="398" height="17" fill="none" stroke="#000" stroke-linecap="round" stroke-linejoin="round"/><path d="M87.163432,218.43275c0,1.223778-.993242,2.216813-2.216813,2.216813s-2.213487-.993033-2.213487-2.216813c0-1.223571.989916-2.214942,2.213487-2.214942s2.216813.991371,2.216813,2.214942Z" fill="#ccd1d9"/><path d="M184.650408,218.43275c0,1.223778-.990124,2.216813-2.21328,2.216813-1.223778,0-2.216813-.993033-2.216813-2.216813,0-1.223571.993036-2.214942,2.216813-2.214942,1.223156,0,2.21328.991371,2.21328,2.214942Z" fill="#ccd1d9"/><path d="M182,224.749078c0,1.242515-.98825,2.250922-2.205665,2.250922h-92.577522c-1.224312,0-2.216813-.992501-2.216813-2.216813v-13.568036c0-1.223394.991757-2.215151,2.215151-2.215151h92.568035c1.224312,0,2.216813.992501,2.216813,2.216813v13.532264h0Z" fill="#656d78"/><polygon points="157.764708 174 96 174 96 271 171 271 171 187.226982 157.764708 174" fill="#e6e9ed"/><path d="M184.694319,275.595202c.259692,2.426355-1.521172,4.404798-3.957088,4.404798h-94.090922c-2.435915,0-4.216573-1.978443-3.957089-4.404798l5.698823-53.189432c.259624-2.423174,2.465987-4.40577,4.903029-4.40577h80.801842c2.43704,0,4.643387,1.982597,4.902992,4.40577l5.698413,53.189432Z" fill="#656d78"/><path d="M105.568967,225.815181c.847103.223884,1.882545.527388,3.08325.878077,5.861543,1.713539,15.650111,4.576229,25.039553,4.59889,9.389236-.022661,19.17801-2.88535,25.039347-4.59889,1.200914-.35069,2.236353-.653984,3.08325-.878077,4.141349-1.095519,11.252657-2.192285,17.64304.642758l-.435086-4.052169c-.260179-2.423174-2.467045-4.40577-4.904147-4.40577h-80.8531c-2.437174,0-4.644005,1.982666-4.904071,4.405924l-.434864,4.052015c6.390384-2.835043,13.501481-1.738277,17.64283-.642758Z" fill="#434a54"/><path d="M102.673847,247.235521c1.223571,0,2.216813-.989915,2.216813-2.21328s-.993034-2.213489-2.216813-2.213489c-1.223571,0-2.21328.990124-2.21328,2.213489s.98971,2.21328,2.21328,2.21328Z" fill="#ccd1d9"/><path d="M111.537567,247.235521c1.223571,0,2.216813-.989915,2.216813-2.21328s-.993033-2.213489-2.216813-2.213489c-1.223571,0-2.216813.990124-2.216813,2.213489s.993242,2.21328,2.216813,2.21328Z" fill="#ccd1d9"/><path d="M120.401077,247.235521c1.223571,0,2.213486-.989915,2.213486-2.21328s-.989915-2.213489-2.213486-2.213489-2.216813.990124-2.216813,2.213489.993242,2.21328,2.216813,2.21328Z" fill="#ccd1d9"/><path d="M129.26147,247.235521c1.223571,0,2.216813-.989915,2.216813-2.21328s-.993242-2.213489-2.216813-2.213489-2.213486.990124-2.213486,2.213489.989915,2.21328,2.213486,2.21328Z" fill="#ccd1d9"/><path d="M138.12519,247.235521c1.223568,0,2.216813-.989915,2.216813-2.21328s-.993245-2.213489-2.216813-2.213489c-1.223778,0-2.216813.990124-2.216813,2.213489s.993029,2.21328,2.216813,2.21328Z" fill="#ccd1d9"/><path d="M146.988903,247.235521c1.223568,0,2.21328-.989915,2.21328-2.21328s-.989915-2.213489-2.21328-2.213489c-1.223778,0-2.216813.990124-2.216813,2.213489s.993036,2.21328,2.216813,2.21328Z" fill="#ccd1d9"/><path d="M155.849299,247.235521c1.223568,0,2.216604-.989915,2.216604-2.21328s-.993036-2.213489-2.216604-2.213489c-1.223778,0-2.213489.990124-2.213489,2.213489s.989712,2.21328,2.213489,2.21328Z" fill="#ccd1d9"/><path d="M164.713019,247.235521c1.223568,0,2.216604-.989915,2.216604-2.21328s-.993036-2.213489-2.216604-2.213489c-1.223778,0-2.216813.990124-2.216813,2.213489s.993029,2.21328,2.216813,2.21328Z" fill="#ccd1d9"/><path d="M102.673847,256.095911c-1.223571,0-2.216606.993036-2.216606,2.220138,0,1.220244.993034,2.21328,2.216606,2.21328s2.213488-.993036,2.213488-2.21328c0-1.227102-.989916-2.220138-2.213488-2.220138Z" fill="#ccd1d9"/><path d="M111.534239,260.529328c1.223571,0,2.216813-.993036,2.216813-2.21328,0-1.226899-.993033-2.220138-2.216813-2.220138-1.223571,0-2.213486.993036-2.213486,2.220138,0,1.22025.989915,2.21328,2.213486,2.21328Z" fill="#ccd1d9"/><path d="M120.397959,256.095911c-1.223571,0-2.216813.993036-2.216813,2.220138,0,1.220244.993033,2.21328,2.216813,2.21328s2.216813-.993036,2.216813-2.21328c-.000209-1.227102-.993245-2.220138-2.216813-2.220138Z" fill="#ccd1d9"/><path d="M157.998906,266.515594c-.243185-.928423-1.167737-1.5156-2.127481-1.5156l-44.337185.000005h0c-1.220244.003001-2.213486.896627-2.213486,2.001595,0,1.101777.993242,1.998405,2.213486,1.998405h44.315053c1.399527,0,2.4931-1.173054,2.149613-2.484406Z" fill="#ccd1d9"/><path d="M129.26147,256.095911c-1.223571,0-2.216813.993036-2.216813,2.220138,0,1.220244.993033,2.21328,2.216813,2.21328,1.223571,0,2.213486-.993036,2.213486-2.21328,0-1.227102-.989918-2.220138-2.213486-2.220138Z" fill="#ccd1d9"/><path d="M138.122068,256.095911c-1.223778,0-2.213489.993036-2.213489,2.220138,0,1.220244.989915,2.21328,2.213489,2.21328,1.223568,0,2.216813-.993036,2.216813-2.21328,0-1.227102-.993448-2.220138-2.216813-2.220138Z" fill="#ccd1d9"/><path d="M146.985579,256.095911c-1.223778,0-2.216813.993036-2.216813,2.220138,0,1.220244.993036,2.21328,2.216813,2.21328,1.223568,0,2.216604-.993036,2.216604-2.21328,0-1.227102-.993036-2.220138-2.216604-2.220138Z" fill="#ccd1d9"/><path d="M155.849299,256.095911c-1.223778,0-2.216813.993036-2.216813,2.220138,0,1.220244.993036,2.21328,2.216813,2.21328,1.223568,0,2.21328-.993036,2.21328-2.21328,0-1.227102-.989712-2.220138-2.21328-2.220138Z" fill="#ccd1d9"/><path d="M164.709688,256.095911c-1.223778,0-2.213489.993036-2.213489,2.220138,0,1.220244.989915,2.21328,2.213489,2.21328,1.223568,0,2.216604-.993036,2.216604-2.21328,0-1.227102-.993029-2.220138-2.216604-2.220138Z" fill="#ccd1d9"/><path d="M98.240429,249.449004c-1.223571,0-2.213488.993036-2.213488,2.219928,0,1.220244.989916,2.213489,2.213488,2.213489s2.216813-.993239,2.216813-2.213489c0-1.226683-.993242-2.219928-2.216813-2.219928Z" fill="#ccd1d9"/><path d="M107.104148,249.449004c-1.223571,0-2.216813.993036-2.216813,2.219928,0,1.220244.993242,2.213489,2.216813,2.213489s2.216812-.993239,2.216812-2.213489c-.000206-1.226683-.993242-2.219928-2.216812-2.219928Z" fill="#ccd1d9"/><path d="M115.967657,253.882428c1.223571,0,2.213486-.993245,2.213486-2.213489,0-1.226689-.989915-2.219928-2.213486-2.219928s-2.216813.993036-2.216813,2.219928c.000209,1.220244.993451,2.213489,2.216813,2.213489Z" fill="#ccd1d9"/><path d="M124.828049,253.882428c1.223571,0,2.216813-.993245,2.216813-2.213489,0-1.226689-.993033-2.219928-2.216813-2.219928s-2.213486.993036-2.213486,2.219928c0,1.220244.989915,2.213489,2.213486,2.213489Z" fill="#ccd1d9"/><path d="M133.691769,253.882428c1.223571,0,2.216607-.993245,2.216607-2.213489,0-1.226689-.993036-2.219928-2.216604-2.219928s-2.216813.993036-2.216813,2.219928c-.000003,1.220244.993239,2.213489,2.21681,2.213489Z" fill="#ccd1d9"/><path d="M142.555486,253.882428c1.223568,0,2.21328-.993245,2.21328-2.213489,0-1.226689-.989915-2.219928-2.21328-2.219928s-2.216604.993036-2.216604,2.219928c0,1.220244.993036,2.213489,2.216604,2.213489Z" fill="#ccd1d9"/><path d="M151.415672,253.882428c1.223778,0,2.216813-.993245,2.216813-2.213489,0-1.226689-.993036-2.219928-2.216813-2.219928-1.223365,0-2.21328.993036-2.21328,2.219928-.000209,1.220244.989915,2.213489,2.21328,2.213489Z" fill="#ccd1d9"/><path d="M160.279183,249.449004c-1.223365,0-2.216604.993036-2.216604,2.219928,0,1.220244.993245,2.213489,2.216604,2.213489,1.223778,0,2.216813-.993239,2.216813-2.213489,0-1.226683-.993036-2.219928-2.216813-2.219928Z" fill="#ccd1d9"/><path d="M169.142903,249.449004c-1.223568,0-2.216604.993036-2.216604,2.219928,0,1.220244.993036,2.213489,2.216604,2.213489,1.223778,0,2.213489-.993239,2.213489-2.213489.000203-1.226683-.989712-2.219928-2.213489-2.219928Z" fill="#ccd1d9"/><path d="M140.752269,219h-15.752269v1.785058c0,1.223279.991663,2.214942,2.214942,2.214942h13.571778c1.222361,0,2.21328-.990919,2.21328-2.21328v-1.78672h-2.247731Z" fill="#aab2bc"/><rect x="101" y="256" width="4" height="2" fill="#ccd1d9"/><rect x="101" y="243" width="4" height="2" fill="#ccd1d9"/><rect x="110" y="243" width="4" height="2" fill="#ccd1d9"/><rect x="118" y="243" width="4" height="2" fill="#ccd1d9"/><rect x="127" y="243" width="4" height="2" fill="#ccd1d9"/><rect x="136" y="243" width="4" height="2" fill="#ccd1d9"/><rect x="145" y="243" width="4" height="2" fill="#ccd1d9"/><rect x="154" y="243" width="4" height="2" fill="#ccd1d9"/><rect x="163" y="243" width="4" height="2" fill="#ccd1d9"/><rect x="110" y="256" width="4" height="2" fill="#ccd1d9"/><rect x="118" y="256" width="4" height="2" fill="#ccd1d9"/><rect x="127" y="256" width="4" height="2" fill="#ccd1d9"/><rect x="136" y="256" width="4" height="2" fill="#ccd1d9"/><rect x="145" y="256" width="4" height="2" fill="#ccd1d9"/><rect x="154" y="256" width="4" height="2" fill="#ccd1d9"/><rect x="163" y="256" width="4" height="2" fill="#ccd1d9"/><rect x="167" y="250" width="4" height="2" fill="#ccd1d9"/><rect x="158" y="250" width="4" height="2" fill="#ccd1d9"/><rect x="149" y="250" width="4" height="2" fill="#ccd1d9"/><rect x="141" y="250" width="4" height="2" fill="#ccd1d9"/><rect x="132" y="250" width="4" height="2" fill="#ccd1d9"/><rect x="123" y="250" width="4" height="2" fill="#ccd1d9"/><rect x="114" y="250" width="4" height="2" fill="#ccd1d9"/><rect x="105" y="250" width="4" height="2" fill="#ccd1d9"/><rect x="96" y="250" width="4" height="2" fill="#ccd1d9"/><rect x="109" y="265" width="49" height="2" fill="#ccd1d9"/><path d="M102.673847,245.022032c1.223571,0,2.216813-.993239,2.216813-2.213489,0-1.226689-.993034-2.219928-2.216813-2.219928-1.223571,0-2.21328.993036-2.21328,2.219928.000002,1.22025.98971,2.213489,2.21328,2.213489Z" fill="#f5f7fa"/><path d="M111.537567,245.022032c1.223571,0,2.216813-.993239,2.216813-2.213489,0-1.226689-.993033-2.219928-2.216813-2.219928-1.223571,0-2.216813.993036-2.216813,2.219928,0,1.22025.993242,2.213489,2.216813,2.213489Z" fill="#f5f7fa"/><path d="M120.401077,245.022032c1.223571,0,2.213486-.993239,2.213486-2.213489,0-1.226689-.989915-2.219928-2.213486-2.219928s-2.216813.993036-2.216813,2.219928c.000206,1.22025.993242,2.213489,2.216813,2.213489Z" fill="#f5f7fa"/><path d="M129.26147,245.022032c1.223571,0,2.216813-.993239,2.216813-2.213489,0-1.226689-.993242-2.219928-2.216813-2.219928s-2.213486.993036-2.213486,2.219928c.000206,1.22025.989915,2.213489,2.213486,2.213489Z" fill="#f5f7fa"/><path d="M138.12519,245.022032c1.223568,0,2.216813-.993239,2.216813-2.213489,0-1.226689-.993245-2.219928-2.216813-2.219928-1.223778,0-2.216813.993036-2.216813,2.219928,0,1.22025.993029,2.213489,2.216813,2.213489Z" fill="#f5f7fa"/><path d="M146.988903,245.022032c1.223568,0,2.21328-.993239,2.21328-2.213489,0-1.226689-.989915-2.219928-2.21328-2.219928-1.223778,0-2.216813.993036-2.216813,2.219928,0,1.22025.993036,2.213489,2.216813,2.213489Z" fill="#f5f7fa"/><path d="M155.849299,245.022032c1.223568,0,2.216604-.993239,2.216604-2.213489,0-1.226689-.993036-2.219928-2.216604-2.219928-1.223778,0-2.213489.993036-2.213489,2.219928-.000209,1.22025.989712,2.213489,2.213489,2.213489Z" fill="#f5f7fa"/><path d="M164.713019,245.022032c1.223568,0,2.216604-.993239,2.216604-2.213489,0-1.226689-.993036-2.219928-2.216604-2.219928-1.223778,0-2.216813.993036-2.216813,2.219928-.000209,1.22025.993029,2.213489,2.216813,2.213489Z" fill="#f5f7fa"/><path d="M102.673847,253.882428c-1.223571,0-2.216606.993036-2.216606,2.21328,0,1.226689.993034,2.220138,2.216606,2.220138s2.213488-.993239,2.213488-2.220138c0-1.220041-.989916-2.21328-2.213488-2.21328Z" fill="#f5f7fa"/><path d="M111.534239,258.316054c1.223571,0,2.216813-.993245,2.216813-2.220138,0-1.220244-.993033-2.21328-2.216813-2.21328-1.223571,0-2.213486.993036-2.213486,2.21328,0,1.226683.989915,2.220138,2.213486,2.220138Z" fill="#f5f7fa"/><path d="M120.397959,253.882428c-1.223571,0-2.216813.993036-2.216813,2.21328,0,1.226689.993033,2.220138,2.216813,2.220138s2.216813-.993239,2.216813-2.220138c-.000209-1.220041-.993245-2.21328-2.216813-2.21328Z" fill="#f5f7fa"/><path d="M158.000633,264.519405c-.239519-.929565-1.163243-1.519406-2.12317-1.519406l-44.343223.000002h0c-1.220244.002999-2.213486.895955-2.213486,1.999906s.993242,1.997095,2.213486,2.000094h44.315053c1.397179,0,2.489429-1.168483,2.15134-2.480595Z" fill="#f5f7fa"/><path d="M129.26147,253.882428c-1.223571,0-2.216813.993036-2.216813,2.21328,0,1.226689.993033,2.220138,2.216813,2.220138,1.223571,0,2.213486-.993239,2.213486-2.220138,0-1.220041-.989918-2.21328-2.213486-2.21328Z" fill="#f5f7fa"/><path d="M138.122068,253.882428c-1.223778,0-2.213489.993036-2.213489,2.21328,0,1.226689.989915,2.220138,2.213489,2.220138,1.223568,0,2.216813-.993239,2.216813-2.220138,0-1.220041-.993448-2.21328-2.216813-2.21328Z" fill="#f5f7fa"/><path d="M146.985579,253.882428c-1.223778,0-2.216813.993036-2.216813,2.21328,0,1.226689.993036,2.220138,2.216813,2.220138,1.223568,0,2.216604-.993239,2.216604-2.220138,0-1.220041-.993036-2.21328-2.216604-2.21328Z" fill="#f5f7fa"/><path d="M155.849299,253.882428c-1.223778,0-2.216813.993036-2.216813,2.21328,0,1.226689.993036,2.220138,2.216813,2.220138,1.223568,0,2.21328-.993239,2.21328-2.220138,0-1.220041-.989712-2.21328-2.21328-2.21328Z" fill="#f5f7fa"/><path d="M164.709688,253.882428c-1.223778,0-2.213489.993036-2.213489,2.21328,0,1.226689.989915,2.220138,2.213489,2.220138,1.223568,0,2.216604-.993239,2.216604-2.220138,0-1.220041-.993029-2.21328-2.216604-2.21328Z" fill="#f5f7fa"/><path d="M98.240429,247.235521c-1.223571,0-2.213488.993036-2.213488,2.213489,0,1.226689.989916,2.219928,2.213488,2.219928s2.216813-.993036,2.216813-2.219928c0-1.220453-.993242-2.213489-2.216813-2.213489Z" fill="#f5f7fa"/><path d="M107.104148,247.235521c-1.223571,0-2.216813.993036-2.216813,2.213489,0,1.226689.993242,2.219928,2.216813,2.219928s2.216812-.993036,2.216812-2.219928c-.000206-1.220453-.993242-2.213489-2.216812-2.213489Z" fill="#f5f7fa"/><path d="M115.967657,251.668939c1.223571,0,2.213486-.993036,2.213486-2.219928,0-1.220453-.989915-2.213489-2.213486-2.213489s-2.216813.993036-2.216813,2.213489c.000209,1.226892.993451,2.219928,2.216813,2.219928Z" fill="#f5f7fa"/><path d="M124.828049,251.668939c1.223571,0,2.216813-.993036,2.216813-2.219928,0-1.220453-.993033-2.213489-2.216813-2.213489s-2.213486.993036-2.213486,2.213489c0,1.226892.989915,2.219928,2.213486,2.219928Z" fill="#f5f7fa"/><path d="M133.691769,251.668939c1.223571,0,2.216607-.993036,2.216607-2.219928,0-1.220453-.993036-2.213489-2.216604-2.213489s-2.216813.993036-2.216813,2.213489c-.000003,1.226892.993239,2.219928,2.21681,2.219928Z" fill="#f5f7fa"/><path d="M142.555486,251.668939c1.223568,0,2.21328-.993036,2.21328-2.219928,0-1.220453-.989915-2.213489-2.21328-2.213489s-2.216604.993036-2.216604,2.213489c0,1.226892.993036,2.219928,2.216604,2.219928Z" fill="#f5f7fa"/><path d="M151.415672,251.668939c1.223778,0,2.216813-.993036,2.216813-2.219928,0-1.220453-.993036-2.213489-2.216813-2.213489-1.223365,0-2.21328.993036-2.21328,2.213489-.000209,1.226892.989915,2.219928,2.21328,2.219928Z" fill="#f5f7fa"/><path d="M160.279183,247.235521c-1.223365,0-2.216604.993036-2.216604,2.213489,0,1.226689.993245,2.219928,2.216604,2.219928,1.223778,0,2.216813-.993036,2.216813-2.219928,0-1.220453-.993036-2.213489-2.216813-2.213489Z" fill="#f5f7fa"/><path d="M169.142903,247.235521c-1.223568,0-2.216604.993036-2.216604,2.213489,0,1.226689.993036,2.219928,2.216604,2.219928,1.223778,0,2.213489-.993036,2.213489-2.219928.000203-1.220453-.989712-2.213489-2.213489-2.213489Z" fill="#f5f7fa"/><polygon points="158 173.706189 158 187 171.294016 187 158 173.706189" fill="#ccd1d9"/><path d="M87.163432,218.43275c0,1.223778-.993242,2.216813-2.216813,2.216813s-2.213487-.993033-2.213487-2.216813c0-1.223571.989916-2.214942,2.213487-2.214942s2.216813.991371,2.216813,2.214942Z" fill="none" stroke="#000" stroke-linecap="round" stroke-linejoin="round"/><path d="M184.650408,218.43275c0,1.223778-.990124,2.216813-2.21328,2.216813-1.223778,0-2.216813-.993033-2.216813-2.216813,0-1.223571.993036-2.214942,2.216813-2.214942,1.223156,0,2.21328.991371,2.21328,2.214942Z" fill="none" stroke="#000" stroke-linecap="round" stroke-linejoin="round"/><path d="M182,224.749078c0,1.242515-.98825,2.250922-2.205665,2.250922h-92.577522c-1.224312,0-2.216813-.992501-2.216813-2.216813v-13.568036c0-1.223394.991757-2.215151,2.215151-2.215151h92.568035c1.224312,0,2.216813.992501,2.216813,2.216813v13.532264h0Z" fill="none" stroke="#000" stroke-linecap="round" stroke-linejoin="round"/><polygon points="157.764708 174 96 174 96 271 171 271 171 187.226982 157.764708 174" fill="none" stroke="#000" stroke-linecap="round" stroke-linejoin="round"/><path d="M184.694319,275.595202c.259692,2.426355-1.521172,4.404798-3.957088,4.404798h-94.090922c-2.435915,0-4.216573-1.978443-3.957089-4.404798l5.698823-53.189432c.259624-2.423174,2.465987-4.40577,4.903029-4.40577h80.801842c2.43704,0,4.643387,1.982597,4.902992,4.40577l5.698413,53.189432Z" fill="none" stroke="#000" stroke-linecap="round" stroke-linejoin="round"/><path d="M105.568967,225.815181c.847103.223884,1.882545.527388,3.08325.878077,5.861543,1.713539,15.650111,4.576229,25.039553,4.59889,9.389236-.022661,19.17801-2.88535,25.039347-4.59889,1.200914-.35069,2.236353-.653984,3.08325-.878077,4.141349-1.095519,11.252657-2.192285,17.64304.642758l-.435086-4.052169c-.260179-2.423174-2.467045-4.40577-4.904147-4.40577h-80.8531c-2.437174,0-4.644005,1.982666-4.904071,4.405924l-.434864,4.052015c6.390384-2.835043,13.501481-1.738277,17.64283-.642758Z" fill="none" stroke="#000" stroke-linecap="round" stroke-linejoin="round"/><path d="M102.673847,247.235521c1.223571,0,2.216813-.989915,2.216813-2.21328s-.993034-2.213489-2.216813-2.213489c-1.223571,0-2.21328.990124-2.21328,2.213489s.98971,2.21328,2.21328,2.21328Z" fill="none" stroke="#000" stroke-linecap="round" stroke-linejoin="round"/><path d="M111.537567,247.235521c1.223571,0,2.216813-.989915,2.216813-2.21328s-.993033-2.213489-2.216813-2.213489c-1.223571,0-2.216813.990124-2.216813,2.213489s.993242,2.21328,2.216813,2.21328Z" fill="none" stroke="#000" stroke-linecap="round" stroke-linejoin="round"/><path d="M120.401077,247.235521c1.223571,0,2.213486-.989915,2.213486-2.21328s-.989915-2.213489-2.213486-2.213489-2.216813.990124-2.216813,2.213489.993242,2.21328,2.216813,2.21328Z" fill="none" stroke="#000" stroke-linecap="round" stroke-linejoin="round"/><path d="M129.26147,247.235521c1.223571,0,2.216813-.989915,2.216813-2.21328s-.993242-2.213489-2.216813-2.213489-2.213486.990124-2.213486,2.213489.989915,2.21328,2.213486,2.21328Z" fill="none" stroke="#000" stroke-linecap="round" stroke-linejoin="round"/><path d="M138.12519,247.235521c1.223568,0,2.216813-.989915,2.216813-2.21328s-.993245-2.213489-2.216813-2.213489c-1.223778,0-2.216813.990124-2.216813,2.213489s.993029,2.21328,2.216813,2.21328Z" fill="none" stroke="#000" stroke-linecap="round" stroke-linejoin="round"/><path d="M146.988903,247.235521c1.223568,0,2.21328-.989915,2.21328-2.21328s-.989915-2.213489-2.21328-2.213489c-1.223778,0-2.216813.990124-2.216813,2.213489s.993036,2.21328,2.216813,2.21328Z" fill="none" stroke="#000" stroke-linecap="round" stroke-linejoin="round"/><path d="M155.849299,247.235521c1.223568,0,2.216604-.989915,2.216604-2.21328s-.993036-2.213489-2.216604-2.213489c-1.223778,0-2.213489.990124-2.213489,2.213489s.989712,2.21328,2.213489,2.21328Z" fill="none" stroke="#000" stroke-linecap="round" stroke-linejoin="round"/><path d="M164.713019,247.235521c1.223568,0,2.216604-.989915,2.216604-2.21328s-.993036-2.213489-2.216604-2.213489c-1.223778,0-2.216813.990124-2.216813,2.213489s.993029,2.21328,2.216813,2.21328Z" fill="none" stroke="#000" stroke-linecap="round" stroke-linejoin="round"/><path d="M102.673847,256.095911c-1.223571,0-2.216606.993036-2.216606,2.220138,0,1.220244.993034,2.21328,2.216606,2.21328s2.213488-.993036,2.213488-2.21328c0-1.227102-.989916-2.220138-2.213488-2.220138Z" fill="none" stroke="#000" stroke-linecap="round" stroke-linejoin="round"/><path d="M111.534239,260.529328c1.223571,0,2.216813-.993036,2.216813-2.21328,0-1.226899-.993033-2.220138-2.216813-2.220138-1.223571,0-2.213486.993036-2.213486,2.220138,0,1.22025.989915,2.21328,2.213486,2.21328Z" fill="none" stroke="#000" stroke-linecap="round" stroke-linejoin="round"/><path d="M120.397959,256.095911c-1.223571,0-2.216813.993036-2.216813,2.220138,0,1.220244.993033,2.21328,2.216813,2.21328s2.216813-.993036,2.216813-2.21328c-.000209-1.227102-.993245-2.220138-2.216813-2.220138Z" fill="none" stroke="#000" stroke-linecap="round" stroke-linejoin="round"/><path d="M157.998906,266.515594c-.243185-.928423-1.167737-1.5156-2.127481-1.5156l-44.337185.000005h0c-1.220244.003001-2.213486.896627-2.213486,2.001595,0,1.101777.993242,1.998405,2.213486,1.998405h44.315053c1.399527,0,2.4931-1.173054,2.149613-2.484406Z" fill="none" stroke="#000" stroke-linecap="round" stroke-linejoin="round"/><path d="M129.26147,256.095911c-1.223571,0-2.216813.993036-2.216813,2.220138,0,1.220244.993033,2.21328,2.216813,2.21328,1.223571,0,2.213486-.993036,2.213486-2.21328,0-1.227102-.989918-2.220138-2.213486-2.220138Z" fill="none" stroke="#000" stroke-linecap="round" stroke-linejoin="round"/><path d="M138.122068,256.095911c-1.223778,0-2.213489.993036-2.213489,2.220138,0,1.220244.989915,2.21328,2.213489,2.21328,1.223568,0,2.216813-.993036,2.216813-2.21328,0-1.227102-.993448-2.220138-2.216813-2.220138Z" fill="none" stroke="#000" stroke-linecap="round" stroke-linejoin="round"/><path d="M146.985579,256.095911c-1.223778,0-2.216813.993036-2.216813,2.220138,0,1.220244.993036,2.21328,2.216813,2.21328,1.223568,0,2.216604-.993036,2.216604-2.21328,0-1.227102-.993036-2.220138-2.216604-2.220138Z" fill="none" stroke="#000" stroke-linecap="round" stroke-linejoin="round"/><path d="M155.849299,256.095911c-1.223778,0-2.216813.993036-2.216813,2.220138,0,1.220244.993036,2.21328,2.216813,2.21328,1.223568,0,2.21328-.993036,2.21328-2.21328,0-1.227102-.989712-2.220138-2.21328-2.220138Z" fill="none" stroke="#000" stroke-linecap="round" stroke-linejoin="round"/><path d="M164.709688,256.095911c-1.223778,0-2.213489.993036-2.213489,2.220138,0,1.220244.989915,2.21328,2.213489,2.21328,1.223568,0,2.216604-.993036,2.216604-2.21328,0-1.227102-.993029-2.220138-2.216604-2.220138Z" fill="none" stroke="#000" stroke-linecap="round" stroke-linejoin="round"/><path d="M98.240429,249.449004c-1.223571,0-2.213488.993036-2.213488,2.219928,0,1.220244.989916,2.213489,2.213488,2.213489s2.216813-.993239,2.216813-2.213489c0-1.226683-.993242-2.219928-2.216813-2.219928Z" fill="none" stroke="#000" stroke-linecap="round" stroke-linejoin="round"/><path d="M107.104148,249.449004c-1.223571,0-2.216813.993036-2.216813,2.219928,0,1.220244.993242,2.213489,2.216813,2.213489s2.216812-.993239,2.216812-2.213489c-.000206-1.226683-.993242-2.219928-2.216812-2.219928Z" fill="none" stroke="#000" stroke-linecap="round" stroke-linejoin="round"/><path d="M115.967657,253.882428c1.223571,0,2.213486-.993245,2.213486-2.213489,0-1.226689-.989915-2.219928-2.213486-2.219928s-2.216813.993036-2.216813,2.219928c.000209,1.220244.993451,2.213489,2.216813,2.213489Z" fill="none" stroke="#000" stroke-linecap="round" stroke-linejoin="round"/><path d="M124.828049,253.882428c1.223571,0,2.216813-.993245,2.216813-2.213489,0-1.226689-.993033-2.219928-2.216813-2.219928s-2.213486.993036-2.213486,2.219928c0,1.220244.989915,2.213489,2.213486,2.213489Z" fill="none" stroke="#000" stroke-linecap="round" stroke-linejoin="round"/><path d="M133.691769,253.882428c1.223571,0,2.216607-.993245,2.216607-2.213489,0-1.226689-.993036-2.219928-2.216604-2.219928s-2.216813.993036-2.216813,2.219928c-.000003,1.220244.993239,2.213489,2.21681,2.213489Z" fill="none" stroke="#000" stroke-linecap="round" stroke-linejoin="round"/><path d="M142.555486,253.882428c1.223568,0,2.21328-.993245,2.21328-2.213489,0-1.226689-.989915-2.219928-2.21328-2.219928s-2.216604.993036-2.216604,2.219928c0,1.220244.993036,2.213489,2.216604,2.213489Z" fill="none" stroke="#000" stroke-linecap="round" stroke-linejoin="round"/><path d="M151.415672,253.882428c1.223778,0,2.216813-.993245,2.216813-2.213489,0-1.226689-.993036-2.219928-2.216813-2.219928-1.223365,0-2.21328.993036-2.21328,2.219928-.000209,1.220244.989915,2.213489,2.21328,2.213489Z" fill="none" stroke="#000" stroke-linecap="round" stroke-linejoin="round"/><path d="M160.279183,249.449004c-1.223365,0-2.216604.993036-2.216604,2.219928,0,1.220244.993245,2.213489,2.216604,2.213489,1.223778,0,2.216813-.993239,2.216813-2.213489,0-1.226683-.993036-2.219928-2.216813-2.219928Z" fill="none" stroke="#000" stroke-linecap="round" stroke-linejoin="round"/><path d="M169.142903,249.449004c-1.223568,0-2.216604.993036-2.216604,2.219928,0,1.220244.993036,2.213489,2.216604,2.213489,1.223778,0,2.213489-.993239,2.213489-2.213489.000203-1.226683-.989712-2.219928-2.213489-2.219928Z" fill="none" stroke="#000" stroke-linecap="round" stroke-linejoin="round"/><path d="M140.752269,219h-15.752269v1.785058c0,1.223279.991663,2.214942,2.214942,2.214942h13.571778c1.222361,0,2.21328-.990919,2.21328-2.21328v-1.78672h-2.247731Z" fill="none" stroke="#000" stroke-linecap="round" stroke-linejoin="round"/><rect x="101" y="256" width="4" height="2" fill="none" stroke="#000" stroke-linecap="round" stroke-linejoin="round"/><rect x="101" y="243" width="4" height="2" fill="none" stroke="#000" stroke-linecap="round" stroke-linejoin="round"/><rect x="110" y="243" width="4" height="2" fill="none" stroke="#000" stroke-linecap="round" stroke-linejoin="round"/><rect x="118" y="243" width="4" height="2" fill="none" stroke="#000" stroke-linecap="round" stroke-linejoin="round"/><rect x="127" y="243" width="4" height="2" fill="none" stroke="#000" stroke-linecap="round" stroke-linejoin="round"/><rect x="136" y="243" width="4" height="2" fill="none" stroke="#000" stroke-linecap="round" stroke-linejoin="round"/><rect x="145" y="243" width="4" height="2" fill="none" stroke="#000" stroke-linecap="round" stroke-linejoin="round"/><rect x="154" y="243" width="4" height="2" fill="none" stroke="#000" stroke-linecap="round" stroke-linejoin="round"/><rect x="163" y="243" width="4" height="2" fill="none" stroke="#000" stroke-linecap="round" stroke-linejoin="round"/><rect x="110" y="256" width="4" height="2" fill="none" stroke="#000" stroke-linecap="round" stroke-linejoin="round"/><rect x="118" y="256" width="4" height="2" fill="none" stroke="#000" stroke-linecap="round" stroke-linejoin="round"/><rect x="127" y="256" width="4" height="2" fill="none" stroke="#000" stroke-linecap="round" stroke-linejoin="round"/><rect x="136" y="256" width="4" height="2" fill="none" stroke="#000" stroke-linecap="round" stroke-linejoin="round"/><rect x="145" y="256" width="4" height="2" fill="none" stroke="#000" stroke-linecap="round" stroke-linejoin="round"/><rect x="154" y="256" width="4" height="2" fill="none" stroke="#000" stroke-linecap="round" stroke-linejoin="round"/><rect x="163" y="256" width="4" height="2" fill="none" stroke="#000" stroke-linecap="round" stroke-linejoin="round"/><rect x="167" y="250" width="4" height="2" fill="none" stroke="#000" stroke-linecap="round" stroke-linejoin="round"/><rect x="158" y="250" width="4" height="2" fill="none" stroke="#000" stroke-linecap="round" stroke-linejoin="round"/><rect x="149" y="250" width="4" height="2" fill="none" stroke="#000" stroke-linecap="round" stroke-linejoin="round"/><rect x="141" y="250" width="4" height="2" fill="none" stroke="#000" stroke-linecap="round" stroke-linejoin="round"/><rect x="132" y="250" width="4" height="2" fill="none" stroke="#000" stroke-linecap="round" stroke-linejoin="round"/><rect x="123" y="250" width="4" height="2" fill="none" stroke="#000" stroke-linecap="round" stroke-linejoin="round"/><rect x="114" y="250" width="4" height="2" fill="none" stroke="#000" stroke-linecap="round" stroke-linejoin="round"/><rect x="105" y="250" width="4" height="2" fill="none" stroke="#000" stroke-linecap="round" stroke-linejoin="round"/><rect x="96" y="250" width="4" height="2" fill="none" stroke="#000" stroke-linecap="round" stroke-linejoin="round"/><rect x="109" y="265" width="49" height="2" fill="none" stroke="#000" stroke-linecap="round" stroke-linejoin="round"/><path d="M102.673847,245.022032c1.223571,0,2.216813-.993239,2.216813-2.213489,0-1.226689-.993034-2.219928-2.216813-2.219928-1.223571,0-2.21328.993036-2.21328,2.219928.000002,1.22025.98971,2.213489,2.21328,2.213489Z" fill="none" stroke="#000" stroke-linecap="round" stroke-linejoin="round"/><path d="M111.537567,245.022032c1.223571,0,2.216813-.993239,2.216813-2.213489,0-1.226689-.993033-2.219928-2.216813-2.219928-1.223571,0-2.216813.993036-2.216813,2.219928,0,1.22025.993242,2.213489,2.216813,2.213489Z" fill="none" stroke="#000" stroke-linecap="round" stroke-linejoin="round"/><path d="M120.401077,245.022032c1.223571,0,2.213486-.993239,2.213486-2.213489,0-1.226689-.989915-2.219928-2.213486-2.219928s-2.216813.993036-2.216813,2.219928c.000206,1.22025.993242,2.213489,2.216813,2.213489Z" fill="none" stroke="#000" stroke-linecap="round" stroke-linejoin="round"/><path d="M129.26147,245.022032c1.223571,0,2.216813-.993239,2.216813-2.213489,0-1.226689-.993242-2.219928-2.216813-2.219928s-2.213486.993036-2.213486,2.219928c.000206,1.22025.989915,2.213489,2.213486,2.213489Z" fill="none" stroke="#000" stroke-linecap="round" stroke-linejoin="round"/><path d="M138.12519,245.022032c1.223568,0,2.216813-.993239,2.216813-2.213489,0-1.226689-.993245-2.219928-2.216813-2.219928-1.223778,0-2.216813.993036-2.216813,2.219928,0,1.22025.993029,2.213489,2.216813,2.213489Z" fill="none" stroke="#000" stroke-linecap="round" stroke-linejoin="round"/><path d="M146.988903,245.022032c1.223568,0,2.21328-.993239,2.21328-2.213489,0-1.226689-.989915-2.219928-2.21328-2.219928-1.223778,0-2.216813.993036-2.216813,2.219928,0,1.22025.993036,2.213489,2.216813,2.213489Z" fill="none" stroke="#000" stroke-linecap="round" stroke-linejoin="round"/><path d="M155.849299,245.022032c1.223568,0,2.216604-.993239,2.216604-2.213489,0-1.226689-.993036-2.219928-2.216604-2.219928-1.223778,0-2.213489.993036-2.213489,2.219928-.000209,1.22025.989712,2.213489,2.213489,2.213489Z" fill="none" stroke="#000" stroke-linecap="round" stroke-linejoin="round"/><path d="M164.713019,245.022032c1.223568,0,2.216604-.993239,2.216604-2.213489,0-1.226689-.993036-2.219928-2.216604-2.219928-1.223778,0-2.216813.993036-2.216813,2.219928-.000209,1.22025.993029,2.213489,2.216813,2.213489Z" fill="none" stroke="#000" stroke-linecap="round" stroke-linejoin="round"/><path d="M102.673847,253.882428c-1.223571,0-2.216606.993036-2.216606,2.21328,0,1.226689.993034,2.220138,2.216606,2.220138s2.213488-.993239,2.213488-2.220138c0-1.220041-.989916-2.21328-2.213488-2.21328Z" fill="none" stroke="#000" stroke-linecap="round" stroke-linejoin="round"/><path d="M111.534239,258.316054c1.223571,0,2.216813-.993245,2.216813-2.220138,0-1.220244-.993033-2.21328-2.216813-2.21328-1.223571,0-2.213486.993036-2.213486,2.21328,0,1.226683.989915,2.220138,2.213486,2.220138Z" fill="none" stroke="#000" stroke-linecap="round" stroke-linejoin="round"/><path d="M120.397959,253.882428c-1.223571,0-2.216813.993036-2.216813,2.21328,0,1.226689.993033,2.220138,2.216813,2.220138s2.216813-.993239,2.216813-2.220138c-.000209-1.220041-.993245-2.21328-2.216813-2.21328Z" fill="none" stroke="#000" stroke-linecap="round" stroke-linejoin="round"/><path d="M158.000633,264.519405c-.239519-.929565-1.163243-1.519406-2.12317-1.519406l-44.343223.000002h0c-1.220244.002999-2.213486.895955-2.213486,1.999906s.993242,1.997095,2.213486,2.000094h44.315053c1.397179,0,2.489429-1.168483,2.15134-2.480595Z" fill="none" stroke="#000" stroke-linecap="round" stroke-linejoin="round"/><path d="M129.26147,253.882428c-1.223571,0-2.216813.993036-2.216813,2.21328,0,1.226689.993033,2.220138,2.216813,2.220138,1.223571,0,2.213486-.993239,2.213486-2.220138,0-1.220041-.989918-2.21328-2.213486-2.21328Z" fill="none" stroke="#000" stroke-linecap="round" stroke-linejoin="round"/><path d="M138.122068,253.882428c-1.223778,0-2.213489.993036-2.213489,2.21328,0,1.226689.989915,2.220138,2.213489,2.220138,1.223568,0,2.216813-.993239,2.216813-2.220138,0-1.220041-.993448-2.21328-2.216813-2.21328Z" fill="none" stroke="#000" stroke-linecap="round" stroke-linejoin="round"/><path d="M146.985579,253.882428c-1.223778,0-2.216813.993036-2.216813,2.21328,0,1.226689.993036,2.220138,2.216813,2.220138,1.223568,0,2.216604-.993239,2.216604-2.220138,0-1.220041-.993036-2.21328-2.216604-2.21328Z" fill="none" stroke="#000" stroke-linecap="round" stroke-linejoin="round"/><path d="M155.849299,253.882428c-1.223778,0-2.216813.993036-2.216813,2.21328,0,1.226689.993036,2.220138,2.216813,2.220138,1.223568,0,2.21328-.993239,2.21328-2.220138,0-1.220041-.989712-2.21328-2.21328-2.21328Z" fill="none" stroke="#000" stroke-linecap="round" stroke-linejoin="round"/><path d="M164.709688,253.882428c-1.223778,0-2.213489.993036-2.213489,2.21328,0,1.226689.989915,2.220138,2.213489,2.220138,1.223568,0,2.216604-.993239,2.216604-2.220138,0-1.220041-.993029-2.21328-2.216604-2.21328Z" fill="none" stroke="#000" stroke-linecap="round" stroke-linejoin="round"/><path d="M98.240429,247.235521c-1.223571,0-2.213488.993036-2.213488,2.213489,0,1.226689.989916,2.219928,2.213488,2.219928s2.216813-.993036,2.216813-2.219928c0-1.220453-.993242-2.213489-2.216813-2.213489Z" fill="none" stroke="#000" stroke-linecap="round" stroke-linejoin="round"/><path d="M107.104148,247.235521c-1.223571,0-2.216813.993036-2.216813,2.213489,0,1.226689.993242,2.219928,2.216813,2.219928s2.216812-.993036,2.216812-2.219928c-.000206-1.220453-.993242-2.213489-2.216812-2.213489Z" fill="none" stroke="#000" stroke-linecap="round" stroke-linejoin="round"/><path d="M115.967657,251.668939c1.223571,0,2.213486-.993036,2.213486-2.219928,0-1.220453-.989915-2.213489-2.213486-2.213489s-2.216813.993036-2.216813,2.213489c.000209,1.226892.993451,2.219928,2.216813,2.219928Z" fill="none" stroke="#000" stroke-linecap="round" stroke-linejoin="round"/><path d="M124.828049,251.668939c1.223571,0,2.216813-.993036,2.216813-2.219928,0-1.220453-.993033-2.213489-2.216813-2.213489s-2.213486.993036-2.213486,2.213489c0,1.226892.989915,2.219928,2.213486,2.219928Z" fill="none" stroke="#000" stroke-linecap="round" stroke-linejoin="round"/><path d="M133.691769,251.668939c1.223571,0,2.216607-.993036,2.216607-2.219928,0-1.220453-.993036-2.213489-2.216604-2.213489s-2.216813.993036-2.216813,2.213489c-.000003,1.226892.993239,2.219928,2.21681,2.219928Z" fill="none" stroke="#000" stroke-linecap="round" stroke-linejoin="round"/><path d="M142.555486,251.668939c1.223568,0,2.21328-.993036,2.21328-2.219928,0-1.220453-.989915-2.213489-2.21328-2.213489s-2.216604.993036-2.216604,2.213489c0,1.226892.993036,2.219928,2.216604,2.219928Z" fill="none" stroke="#000" stroke-linecap="round" stroke-linejoin="round"/><path d="M151.415672,251.668939c1.223778,0,2.216813-.993036,2.216813-2.219928,0-1.220453-.993036-2.213489-2.216813-2.213489-1.223365,0-2.21328.993036-2.21328,2.213489-.000209,1.226892.989915,2.219928,2.21328,2.219928Z" fill="none" stroke="#000" stroke-linecap="round" stroke-linejoin="round"/><path d="M160.279183,247.235521c-1.223365,0-2.216604.993036-2.216604,2.213489,0,1.226689.993245,2.219928,2.216604,2.219928,1.223778,0,2.216813-.993036,2.216813-2.219928,0-1.220453-.993036-2.213489-2.216813-2.213489Z" fill="none" stroke="#000" stroke-linecap="round" stroke-linejoin="round"/><path d="M169.142903,247.235521c-1.223568,0-2.216604.993036-2.216604,2.213489,0,1.226689.993036,2.219928,2.216604,2.219928,1.223778,0,2.213489-.993036,2.213489-2.219928.000203-1.220453-.989712-2.213489-2.213489-2.213489Z" fill="none" stroke="#000" stroke-linecap="round" stroke-linejoin="round"/><polygon points="158 173.706189 158 187 171.294016 187 158 173.706189" fill="none" stroke="#000" stroke-linecap="round" stroke-linejoin="round"/><g id="uuid-4b407932-d646-418d-830e-2cf2b06f675f"><polygon id="uuid-41126f85-2959-4db2-b054-0414b471b3fd" points="386 400 365 400 365 439.121672 365 447 397 447 397 439 386 439 386 400" fill="#5f5f5f"/><rect id="uuid-b9ddda6f-6ac6-49f3-b4ea-50c5b7ad2235" x="362" y="347" width="27.000021" height="54" fill="#727272"/><polygon id="uuid-20e8ceb6-b229-4dd2-904d-ed446ea0117e" points="351.999967 400 331 400 331 439 320 439 320 447 352 447 352 439.121672 351.999967 439.121672 351.999967 400" fill="#5f5f5f"/><rect id="uuid-51f82786-123c-4be2-a625-8de3ed4f7355" x="328.999979" y="347" width="27.000041" height="54" fill="#727272"/><path id="uuid-68e8a770-d692-4e8e-a75e-2ec7d63c7fb2" d="M328,238v109h61v-109h-61Z" fill="#727272"/><rect id="uuid-38995d5c-a82d-462c-ae89-a3f080839d19" x="328" y="301" width="61" height="19" fill="#acacac"/><rect id="uuid-71585378-9385-4211-aa64-a5a39d08899a" x="371" y="236" width="8" height="65" fill="#acacac"/><rect id="uuid-52696011-33a8-4a84-ac9f-015e1cc587c9" x="338" y="236" width="8" height="65" fill="#acacac"/><path id="uuid-50940728-e646-48e9-bc09-d7eaa792e907" d="M387.304355,211.135926c1.23506-6.131834,1.413548-12.846471.308807-19.749143-3.814615-23.834571-21.398294-40.837078-39.274238-37.976114-17.875944,2.860964-29.274898,24.50201-25.460283,48.336581,1.104741,6.902671,3.369931,13.226209,6.457025,18.666302l57.968689-9.277626Z" fill="#ccc"/><path id="uuid-32bafff6-2c51-48f2-aeb5-1e12477686f9" d="M331.009953,230c5.819151,12.171016,16.02513,20.250638,27.652828,20.250638s21.833677-8.079621,27.652828-20.250638h-55.305656Z" fill="#ccc"/><ellipse id="uuid-d8d75331-439c-4e34-8c2a-2c505a9b1b2a" cx="350" cy="205.5" rx="2.939493" ry="4.538945" transform="translate(-30.17135 63.373314) rotate(-9.920814)" fill="#333"/><ellipse id="uuid-89760a95-1943-4d1b-9637-c9dc416af8fa" cx="336" cy="207.5" rx="2.939493" ry="4.538945" transform="translate(-30.725268 60.991203) rotate(-9.920814)" fill="#333"/><rect id="uuid-bfc77566-4975-4268-9851-7743dc1b64d7" x="383.188261" y="229.77547" width="34.964449" height="16.389558" transform="translate(-63.928126 201.709973) rotate(-26.244664)" fill="#727272"/><rect id="uuid-7a1610e9-849a-4701-b0bc-393c04177390" x="303.077406" y="245.894127" width="34.964449" height="16.389558" transform="translate(-4.454805 502.454093) rotate(-75.787664)" fill="#727272"/><rect id="uuid-51cb3a70-9509-480e-bd7c-a029edba76d7" x="291.188988" y="275.792589" width="34.964449" height="16.389558" transform="translate(-90.968598 411.324574) rotate(-60.288482)" fill="#727272"/><rect id="uuid-04a91af8-0373-476f-b393-f508ec84da7f" x="287.822235" y="297.4365" width="17.711158" height="17.711158" transform="translate(-111.378314 430.077216) rotate(-62.788838)" fill="#ccc"/><circle id="uuid-19166d5f-aede-47a5-a464-356a8c56fdbb" cx="358.5" cy="289.5" r="2.5" fill="#333"/><circle id="uuid-fd615c33-c25f-46e8-843c-0da2e7796bd2" cx="358.5" cy="279.5" r="2.5" fill="#333"/><circle id="uuid-4961fbfa-8805-43dc-847c-c8008cc5b87a" cx="358.5" cy="271.5" r="2.5" fill="#333"/><circle id="uuid-c9765b98-cd00-4454-bcdc-90b4be5ab155" cx="358.5" cy="259.5" r="2.5" fill="#333"/><path d="M387.051316,169.13783c-3.118814-15.065803-19.618118-25.736938-38.579427-24.302589-18.961309,1.434349-33.667585,14.466064-34.484538,29.829593-6.269276,1.385619-9.978978,2.819154-9.884582,4.067015.221731,2.931161,21.294661,3.72683,47.067705,1.7772,25.773043-1.94963,46.48648-5.906275,46.264749-8.837436-.094396-1.247861-3.977531-2.107027-10.383906-2.533783Z" fill="#6a6a6a"/></g><path d="M422.091415,242.985552c-.970467-1.39838-1.399476-2.587682-1.645173-3.297281-.077792-.22356-.335813-.22356-.412834,0-.245698.709599-.674706,1.898901-1.645173,3.297282-.607697.876137-1.206923,2.158665-1.206923,3.422186,0,2.15595,1.323995,3.615877,3.058513,3.615877s3.058513-1.460832,3.058513-3.615877c0-1.313302-.599225-2.546049-1.206923-3.422186Z" fill="#c1272d"/><path d="M421.085518,246.765174c.489085-1.093362.419765-2.163191.806412-1.970404.525285.263384,1.106795,1.616509.888825,2.842921-.155583.874328-.657761,1.403811-1.297808,1.151288-.516813-.203648-.837991-1.039055-.39743-2.023805Z" fill="#e36250"/><path d="M411.458738,239.840848l-5.933098-12.033959c-.57305-1.162303-.095366-2.569085,1.066938-3.142135l6.958012-3.430506c1.162303-.57305,2.569085-.095366,3.142135,1.066938l4.946566,10.032998c1.117897,2.267403.186038,5.011731-2.081365,6.129629l-4.957051,2.443973c-1.162303.57305-2.569085.095366-3.142135-1.066938Z" fill="#c1272d"/><ellipse cx="407" cy="231" rx="10.74579" ry="5.785997" transform="translate(-59.963174 200.090547) rotate(-25.790813)" fill="#c1272d"/><ellipse cx="410" cy="235" rx="2.720387" ry="9.464724" transform="translate(55.01452 546.946003) rotate(-71.127691)" fill="#c1272d"/><path d="M198.151095,294.885606s16.305039,8.649095,28.412537,30.39426c12.107498,21.745165,17.570871,34.878108,17.570871,34.878108l61.128317-22.878555s-9.2692-31.786543-21.812522-43.01158c-12.543322-11.225038-30.637752-23.044696-30.637752-23.044696l-54.661451,23.662464Z" fill="#fff" stroke="#938c8c" stroke-miterlimit="10"/><g id="uuid-24486433-b004-4b4b-98f9-d3e28b0d3108"><polygon id="uuid-cb98dea9-4586-4041-9f6a-f5e77f080db5" points="386 400 365 400 365 439.121672 365 447 397 447 397 439 386 439 386 400" fill="none" stroke="#000" stroke-linecap="round" stroke-linejoin="round"/><rect id="uuid-e5c7d11e-7c2f-4328-92ef-bd0a08d02db9" x="362" y="347" width="27.000021" height="54" fill="none" stroke="#000" stroke-linecap="round" stroke-linejoin="round"/><polygon id="uuid-9beba3e0-76b0-4a19-b7ad-bf54629abacb" points="351.999967 400 331 400 331 439 320 439 320 447 352 447 352 439.121672 351.999967 439.121672 351.999967 400" fill="none" stroke="#000" stroke-linecap="round" stroke-linejoin="round"/><rect id="uuid-ab0c2c19-ac0b-459f-8f48-788dd09668dc" x="328.999979" y="347" width="27.000041" height="54" fill="none" stroke="#000" stroke-linecap="round" stroke-linejoin="round"/><path id="uuid-f04b9411-8f6b-4376-a66f-371b641edf32" d="M328,238v109h61v-109h-61Z" fill="none" stroke="#000" stroke-linecap="round" stroke-linejoin="round"/><rect id="uuid-c4d253ee-2fdd-49ce-a2b7-beeb51f6ca1b" x="328" y="301" width="61" height="19" fill="none" stroke="#000" stroke-linecap="round" stroke-linejoin="round"/><rect id="uuid-87f26a41-7377-46c6-82a5-1279442d9c56" x="371" y="236" width="8" height="65" fill="none" stroke="#000" stroke-linecap="round" stroke-linejoin="round"/><rect id="uuid-a9ad9f2f-b38b-4202-b6a0-d16aa208983d" x="338" y="236" width="8" height="65" fill="none" stroke="#000" stroke-linecap="round" stroke-linejoin="round"/><path id="uuid-a80c0696-d401-4636-8724-f1207c7985db" d="M387.304355,211.135926c1.23506-6.131834,1.413548-12.846471.308807-19.749143-3.814615-23.834571-21.398294-40.837078-39.274238-37.976114-17.875944,2.860964-29.274898,24.50201-25.460283,48.336581,1.104741,6.902671,3.369931,13.226209,6.457025,18.666302l57.968689-9.277626Z" fill="none" stroke="#000" stroke-linecap="round" stroke-linejoin="round"/><path id="uuid-8db01ce4-9c65-430c-aa9b-27a859e1cd2a" d="M331.009953,230c5.819151,12.171016,16.02513,20.250638,27.652828,20.250638s21.833677-8.079621,27.652828-20.250638h-55.305656Z" fill="none" stroke="#000" stroke-linecap="round" stroke-linejoin="round"/><ellipse id="uuid-b5821263-c55e-416a-9fcb-fe5fa0d4f167" cx="350" cy="205.5" rx="2.939493" ry="4.538945" transform="translate(-30.17135 63.373314) rotate(-9.920814)" fill="none" stroke="#000" stroke-linecap="round" stroke-linejoin="round"/><ellipse id="uuid-68d2fc4c-bfc8-49b0-8975-28f99559a721" cx="336" cy="207.5" rx="2.939493" ry="4.538945" transform="translate(-30.725268 60.991203) rotate(-9.920814)" fill="none" stroke="#000" stroke-linecap="round" stroke-linejoin="round"/><rect id="uuid-e1ae3f7e-cb90-4391-8e29-4f29f40f9922" x="383.188261" y="229.77547" width="34.964449" height="16.389558" transform="translate(-63.928126 201.709973) rotate(-26.244664)" fill="none" stroke="#000" stroke-linecap="round" stroke-linejoin="round"/><rect id="uuid-ac8dfecc-5458-4172-964c-1501384a3aaf" x="303.077406" y="245.894127" width="34.964449" height="16.389558" transform="translate(-4.454805 502.454093) rotate(-75.787664)" fill="none" stroke="#000" stroke-linecap="round" stroke-linejoin="round"/><rect id="uuid-b3825593-7bbf-41be-86fc-21b345da3964" x="291.188988" y="275.792589" width="34.964449" height="16.389558" transform="translate(-90.968598 411.324574) rotate(-60.288482)" fill="none" stroke="#000" stroke-linecap="round" stroke-linejoin="round"/><rect id="uuid-ef56fd69-ed7c-4225-970e-7f87fdc8505d" x="287.822235" y="297.4365" width="17.711158" height="17.711158" transform="translate(-111.378314 430.077216) rotate(-62.788838)" fill="none" stroke="#000" stroke-linecap="round" stroke-linejoin="round"/><circle id="uuid-21821b44-7131-48db-ba97-cb982562e92a" cx="358.5" cy="289.5" r="2.5" fill="none" stroke="#000" stroke-linecap="round" stroke-linejoin="round"/><circle id="uuid-b703ee06-7d84-416f-ac32-bb5e6fb2ffcc" cx="358.5" cy="279.5" r="2.5" fill="none" stroke="#000" stroke-linecap="round" stroke-linejoin="round"/><circle id="uuid-eb2747bc-8dc9-46b4-8dec-d6ed22f7343b" cx="358.5" cy="271.5" r="2.5" fill="none" stroke="#000" stroke-linecap="round" stroke-linejoin="round"/><circle id="uuid-d340ea65-3ef9-48bf-b0a7-54ca84b3d015" cx="358.5" cy="259.5" r="2.5" fill="none" stroke="#000" stroke-linecap="round" stroke-linejoin="round"/><path d="M387.051316,169.13783c-3.118814-15.065803-19.618118-25.736938-38.579427-24.302589-18.961309,1.434349-33.667585,14.466064-34.484538,29.829593-6.269276,1.385619-9.978978,2.819154-9.884582,4.067015.221731,2.931161,21.294661,3.72683,47.067705,1.7772,25.773043-1.94963,46.48648-5.906275,46.264749-8.837436-.094396-1.247861-3.977531-2.107027-10.383906-2.533783Z" fill="none" stroke="#000" stroke-linecap="round" stroke-linejoin="round"/><polygon id="uuid-5b83a3de-3c91-4f42-b016-13be86778183" points="386 400 365 400 365 439.121672 365 447 397 447 397 439 386 439 386 400" fill="none" stroke="#000" stroke-linecap="round" stroke-linejoin="round"/><rect id="uuid-a853b517-c918-4f48-842d-1a2f6c7936d5" x="362" y="347" width="27.000021" height="54" fill="none" stroke="#000" stroke-linecap="round" stroke-linejoin="round"/><polygon id="uuid-1ee7fea2-cac8-4479-b8bf-5b635021ab2a" points="351.999967 400 331 400 331 439 320 439 320 447 352 447 352 439.121672 351.999967 439.121672 351.999967 400" fill="none" stroke="#000" stroke-linecap="round" stroke-linejoin="round"/><rect id="uuid-704421bf-4cf6-4ea9-9fc3-5c62005d5c5d" x="328.999979" y="347" width="27.000041" height="54" fill="none" stroke="#000" stroke-linecap="round" stroke-linejoin="round"/><path id="uuid-0d605ced-c257-421b-84c5-7f59cb790a43" d="M328,238v109h61v-109h-61Z" fill="none" stroke="#000" stroke-linecap="round" stroke-linejoin="round"/><rect id="uuid-81efe39c-c7c2-42a2-a1e6-15aa28203677" x="328" y="301" width="61" height="19" fill="none" stroke="#000" stroke-linecap="round" stroke-linejoin="round"/><rect id="uuid-196c7502-02b3-49fd-9337-c5d94d33b58b" x="371" y="236" width="8" height="65" fill="none" stroke="#000" stroke-linecap="round" stroke-linejoin="round"/><rect id="uuid-75b155e8-f5d3-4483-96d0-16d6c09f4aa7" x="338" y="236" width="8" height="65" fill="none" stroke="#000" stroke-linecap="round" stroke-linejoin="round"/><path id="uuid-d478ecc0-547b-40d0-813f-88207f5ddae4" d="M387.304355,211.135926c1.23506-6.131834,1.413548-12.846471.308807-19.749143-3.814615-23.834571-21.398294-40.837078-39.274238-37.976114-17.875944,2.860964-29.274898,24.50201-25.460283,48.336581,1.104741,6.902671,3.369931,13.226209,6.457025,18.666302l57.968689-9.277626Z" fill="none" stroke="#000" stroke-linecap="round" stroke-linejoin="round"/><path id="uuid-158a6e9e-6256-4ecf-9668-51fa246e1b6d" d="M331.009953,230c5.819151,12.171016,16.02513,20.250638,27.652828,20.250638s21.833677-8.079621,27.652828-20.250638h-55.305656Z" fill="none" stroke="#000" stroke-linecap="round" stroke-linejoin="round"/><ellipse id="uuid-7f790874-bd8b-4498-9e4e-b681b85df973" cx="350" cy="205.5" rx="2.939493" ry="4.538945" transform="translate(-30.17135 63.373314) rotate(-9.920814)" fill="none" stroke="#000" stroke-linecap="round" stroke-linejoin="round"/><ellipse id="uuid-784d5958-fc5a-4481-8d36-0a37cb8fbc33" cx="336" cy="207.5" rx="2.939493" ry="4.538945" transform="translate(-30.725268 60.991203) rotate(-9.920814)" fill="none" stroke="#000" stroke-linecap="round" stroke-linejoin="round"/><rect id="uuid-7be8a227-0f3a-4eb4-9fd4-bcad1634bd3a" x="383.188261" y="229.77547" width="34.964449" height="16.389558" transform="translate(-63.928126 201.709973) rotate(-26.244664)" fill="none" stroke="#000" stroke-linecap="round" stroke-linejoin="round"/><rect id="uuid-36e67c21-1722-4dbf-9ed9-238eb936002d" x="303.077406" y="245.894127" width="34.964449" height="16.389558" transform="translate(-4.454805 502.454093) rotate(-75.787664)" fill="none" stroke="#000" stroke-linecap="round" stroke-linejoin="round"/><rect id="uuid-80b7b7f7-8ec1-42ec-965a-4b53f2d04180" x="291.188988" y="275.792589" width="34.964449" height="16.389558" transform="translate(-90.968598 411.324574) rotate(-60.288482)" fill="none" stroke="#000" stroke-linecap="round" stroke-linejoin="round"/><rect id="uuid-a0e0d66e-b240-4e82-b8b1-327e1ad8f7c3" x="287.822235" y="297.4365" width="17.711158" height="17.711158" transform="translate(-111.378314 430.077216) rotate(-62.788838)" fill="none" stroke="#000" stroke-linecap="round" stroke-linejoin="round"/><circle id="uuid-45fd77c1-ae09-46ab-b4c0-9975880ca054" cx="358.5" cy="289.5" r="2.5" fill="none" stroke="#000" stroke-linecap="round" stroke-linejoin="round"/><circle id="uuid-b37b23db-0ea2-445f-8d88-8bac6192a8b7" cx="358.5" cy="279.5" r="2.5" fill="none" stroke="#000" stroke-linecap="round" stroke-linejoin="round"/><circle id="uuid-0db870af-501d-4f0d-ba08-d56d99ebe08c" cx="358.5" cy="271.5" r="2.5" fill="none" stroke="#000" stroke-linecap="round" stroke-linejoin="round"/><circle id="uuid-ed6e5f49-ead0-4e90-ae43-0ab74b4f6efd" cx="358.5" cy="259.5" r="2.5" fill="none" stroke="#000" stroke-linecap="round" stroke-linejoin="round"/><path d="M387.051316,169.13783c-3.118814-15.065803-19.618118-25.736938-38.579427-24.302589-18.961309,1.434349-33.667585,14.466064-34.484538,29.829593-6.269276,1.385619-9.978978,2.819154-9.884582,4.067015.221731,2.931161,21.294661,3.72683,47.067705,1.7772,25.773043-1.94963,46.48648-5.906275,46.264749-8.837436-.094396-1.247861-3.977531-2.107027-10.383906-2.533783Z" fill="none" stroke="#000" stroke-linecap="round" stroke-linejoin="round"/></g><path d="M422.091415,242.985552c-.970467-1.39838-1.399476-2.587682-1.645173-3.297281-.077792-.22356-.335813-.22356-.412834,0-.245698.709599-.674706,1.898901-1.645173,3.297282-.607697.876137-1.206923,2.158665-1.206923,3.422186,0,2.15595,1.323995,3.615877,3.058513,3.615877s3.058513-1.460832,3.058513-3.615877c0-1.313302-.599225-2.546049-1.206923-3.422186Z" fill="none" stroke="#000" stroke-linecap="round" stroke-linejoin="round"/><path d="M421.085518,246.765174c.489085-1.093362.419765-2.163191.806412-1.970404.525285.263384,1.106795,1.616509.888825,2.842921-.155583.874328-.657761,1.403811-1.297808,1.151288-.516813-.203648-.837991-1.039055-.39743-2.023805Z" fill="none" stroke="#000" stroke-linecap="round" stroke-linejoin="round"/><path d="M411.458738,239.840848l-5.933098-12.033959c-.57305-1.162303-.095366-2.569085,1.066938-3.142135l6.958012-3.430506c1.162303-.57305,2.569085-.095366,3.142135,1.066938l4.946566,10.032998c1.117897,2.267403.186038,5.011731-2.081365,6.129629l-4.957051,2.443973c-1.162303.57305-2.569085.095366-3.142135-1.066938Z" fill="none" stroke="#000" stroke-linecap="round" stroke-linejoin="round"/><ellipse cx="407" cy="231" rx="10.74579" ry="5.785997" transform="translate(-59.963174 200.090547) rotate(-25.790813)" fill="none" stroke="#000" stroke-linecap="round" stroke-linejoin="round"/><ellipse cx="410" cy="235" rx="2.720387" ry="9.464724" transform="translate(55.01452 546.946003) rotate(-71.127691)" fill="none" stroke="#000" stroke-linecap="round" stroke-linejoin="round"/><path d="M198.151095,294.885606s16.305039,8.649095,28.412537,30.39426c12.107498,21.745165,17.570871,34.878108,17.570871,34.878108l61.128317-22.878555s-9.2692-31.786543-21.812522-43.01158c-12.543322-11.225038-30.637752-23.044696-30.637752-23.044696l-54.661451,23.662464Z" fill="none" stroke="#000" stroke-linecap="round" stroke-linejoin="round"/><text transform="translate(231.03412 309.518932) rotate(-28.663823)" fill="#333" font-family="ComicNeue-Regular, &apos;Comic Neue&apos;" font-size="18"><tspan x="0" y="0">War</tspan></text><text transform="translate(242.052919 323.391002) rotate(-28.663823)" fill="#333" font-family="ComicNeue-Regular, &apos;Comic Neue&apos;" font-size="18"><tspan x="0" y="0">over</tspan></text><text transform="translate(251.553651 340.875377) rotate(-28.663823)" fill="#333" font-family="ComicNeue-Regular, &apos;Comic Neue&apos;" font-size="18"><tspan x="0" y="0">by 11</tspan></text></svg>