<?xml version="1.0" encoding="UTF-8"?><svg id="uuid-6a141b2e-4098-47db-9771-ded72fff9f98" xmlns="http://www.w3.org/2000/svg" viewBox="0 0 500 500"><text transform="translate(60.58 72.67)" fill="#333" font-family="ComicNeue-Regular, &apos;Comic Neue&apos;" font-size="24"><tspan x="0" y="0">06:30, 11 November 1918, a message </tspan><tspan x="0" y="28.8">reached the Canadian Corps HQ.</tspan></text><polygon points="448.48 303 51.52 303 80.8 244 430.58 244 448.48 303" fill="#603813"/><rect x="113" y="261" width="17" height="131" fill="#603813"/><rect x="379" y="261" width="17" height="131" fill="#603813"/><rect x="80" y="292" width="17" height="131" fill="#603813"/><rect x="417" y="292" width="17" height="131" fill="#603813"/><rect x="50.5" y="300.5" width="398" height="17" fill="#8c6239" stroke="#8c6239" stroke-miterlimit="10"/><polygon points="448.48 303 51.52 303 80.8 244 430.58 244 448.48 303" fill="none" stroke="#000" stroke-linecap="round" stroke-linejoin="round"/><rect x="113" y="261" width="17" height="131" fill="none" stroke="#000" stroke-linecap="round" stroke-linejoin="round"/><rect x="379" y="261" width="17" height="131" fill="none" stroke="#000" stroke-linecap="round" stroke-linejoin="round"/><rect x="80" y="292" width="17" height="131" fill="none" stroke="#000" stroke-linecap="round" stroke-linejoin="round"/><rect x="417" y="292" width="17" height="131" fill="none" stroke="#000" stroke-linecap="round" stroke-linejoin="round"/><rect x="50.5" y="300.5" width="398" height="17" fill="none" stroke="#000" stroke-linecap="round" stroke-linejoin="round"/><path d="M87.16,218.43c0,1.22-.99,2.22-2.22,2.22s-2.21-.99-2.21-2.22.99-2.21,2.21-2.21,2.22.99,2.22,2.21Z" fill="#ccd1d9"/><path d="M184.65,218.43c0,1.22-.99,2.22-2.21,2.22s-2.22-.99-2.22-2.22.99-2.21,2.22-2.21,2.21.99,2.21,2.21Z" fill="#ccd1d9"/><path d="M182,224.75c0,1.24-.99,2.25-2.21,2.25h-92.58c-1.22,0-2.22-.99-2.22-2.22v-13.57c0-1.22.99-2.22,2.22-2.22h92.57c1.22,0,2.22.99,2.22,2.22v13.53h0Z" fill="#656d78"/><polygon points="157.76 174 96 174 96 271 171 271 171 187.23 157.76 174" fill="#e6e9ed"/><path d="M184.69,275.6c.26,2.43-1.52,4.4-3.96,4.4h-94.09c-2.44,0-4.22-1.98-3.96-4.4l5.7-53.19c.26-2.42,2.47-4.41,4.9-4.41h80.8c2.44,0,4.64,1.98,4.9,4.41l5.7,53.19Z" fill="#656d78"/><path d="M105.57,225.82c.85.22,1.88.53,3.08.88,5.86,1.71,15.65,4.58,25.04,4.6,9.39-.02,19.18-2.89,25.04-4.6,1.2-.35,2.24-.65,3.08-.88,4.14-1.1,11.25-2.19,17.64.64l-.44-4.05c-.26-2.42-2.47-4.41-4.9-4.41h-80.85c-2.44,0-4.64,1.98-4.9,4.41l-.43,4.05c6.39-2.84,13.5-1.74,17.64-.64Z" fill="#434a54"/><path d="M102.67,247.24c1.22,0,2.22-.99,2.22-2.21s-.99-2.21-2.22-2.21-2.21.99-2.21,2.21.99,2.21,2.21,2.21Z" fill="#ccd1d9"/><path d="M111.54,247.24c1.22,0,2.22-.99,2.22-2.21s-.99-2.21-2.22-2.21-2.22.99-2.22,2.21.99,2.21,2.22,2.21Z" fill="#ccd1d9"/><path d="M120.4,247.24c1.22,0,2.21-.99,2.21-2.21s-.99-2.21-2.21-2.21-2.22.99-2.22,2.21.99,2.21,2.22,2.21Z" fill="#ccd1d9"/><path d="M129.26,247.24c1.22,0,2.22-.99,2.22-2.21s-.99-2.21-2.22-2.21-2.21.99-2.21,2.21.99,2.21,2.21,2.21Z" fill="#ccd1d9"/><path d="M138.13,247.24c1.22,0,2.22-.99,2.22-2.21s-.99-2.21-2.22-2.21-2.22.99-2.22,2.21.99,2.21,2.22,2.21Z" fill="#ccd1d9"/><path d="M146.99,247.24c1.22,0,2.21-.99,2.21-2.21s-.99-2.21-2.21-2.21-2.22.99-2.22,2.21.99,2.21,2.22,2.21Z" fill="#ccd1d9"/><path d="M155.85,247.24c1.22,0,2.22-.99,2.22-2.21s-.99-2.21-2.22-2.21-2.21.99-2.21,2.21.99,2.21,2.21,2.21Z" fill="#ccd1d9"/><path d="M164.71,247.24c1.22,0,2.22-.99,2.22-2.21s-.99-2.21-2.22-2.21-2.22.99-2.22,2.21.99,2.21,2.22,2.21Z" fill="#ccd1d9"/><path d="M102.67,256.1c-1.22,0-2.22.99-2.22,2.22s.99,2.21,2.22,2.21,2.21-.99,2.21-2.21-.99-2.22-2.21-2.22Z" fill="#ccd1d9"/><path d="M111.53,260.53c1.22,0,2.22-.99,2.22-2.21s-.99-2.22-2.22-2.22-2.21.99-2.21,2.22.99,2.21,2.21,2.21Z" fill="#ccd1d9"/><path d="M120.4,256.1c-1.22,0-2.22.99-2.22,2.22s.99,2.21,2.22,2.21,2.22-.99,2.22-2.21c0-1.23-.99-2.22-2.22-2.22Z" fill="#ccd1d9"/><path d="M158,266.52c-.24-.93-1.17-1.52-2.13-1.52h-44.34c-1.22,0-2.21.9-2.21,2s.99,2,2.21,2h44.32c1.4,0,2.49-1.17,2.15-2.48Z" fill="#ccd1d9"/><path d="M129.26,256.1c-1.22,0-2.22.99-2.22,2.22s.99,2.21,2.22,2.21,2.21-.99,2.21-2.21-.99-2.22-2.21-2.22Z" fill="#ccd1d9"/><path d="M138.12,256.1c-1.22,0-2.21.99-2.21,2.22s.99,2.21,2.21,2.21,2.22-.99,2.22-2.21-.99-2.22-2.22-2.22Z" fill="#ccd1d9"/><path d="M146.99,256.1c-1.22,0-2.22.99-2.22,2.22s.99,2.21,2.22,2.21,2.22-.99,2.22-2.21-.99-2.22-2.22-2.22Z" fill="#ccd1d9"/><path d="M155.85,256.1c-1.22,0-2.22.99-2.22,2.22s.99,2.21,2.22,2.21,2.21-.99,2.21-2.21-.99-2.22-2.21-2.22Z" fill="#ccd1d9"/><path d="M164.71,256.1c-1.22,0-2.21.99-2.21,2.22s.99,2.21,2.21,2.21,2.22-.99,2.22-2.21-.99-2.22-2.22-2.22Z" fill="#ccd1d9"/><path d="M98.24,249.45c-1.22,0-2.21.99-2.21,2.22s.99,2.21,2.21,2.21,2.22-.99,2.22-2.21-.99-2.22-2.22-2.22Z" fill="#ccd1d9"/><path d="M107.1,249.45c-1.22,0-2.22.99-2.22,2.22s.99,2.21,2.22,2.21,2.22-.99,2.22-2.21c0-1.23-.99-2.22-2.22-2.22Z" fill="#ccd1d9"/><path d="M115.97,253.88c1.22,0,2.21-.99,2.21-2.21s-.99-2.22-2.21-2.22-2.22.99-2.22,2.22c0,1.22.99,2.21,2.22,2.21Z" fill="#ccd1d9"/><path d="M124.83,253.88c1.22,0,2.22-.99,2.22-2.21s-.99-2.22-2.22-2.22-2.21.99-2.21,2.22.99,2.21,2.21,2.21Z" fill="#ccd1d9"/><path d="M133.69,253.88c1.22,0,2.22-.99,2.22-2.21s-.99-2.22-2.22-2.22-2.22.99-2.22,2.22c0,1.22.99,2.21,2.22,2.21Z" fill="#ccd1d9"/><path d="M142.56,253.88c1.22,0,2.21-.99,2.21-2.21s-.99-2.22-2.21-2.22-2.22.99-2.22,2.22.99,2.21,2.22,2.21Z" fill="#ccd1d9"/><path d="M151.42,253.88c1.22,0,2.22-.99,2.22-2.21s-.99-2.22-2.22-2.22-2.21.99-2.21,2.22c0,1.22.99,2.21,2.21,2.21Z" fill="#ccd1d9"/><path d="M160.28,249.45c-1.22,0-2.22.99-2.22,2.22s.99,2.21,2.22,2.21,2.22-.99,2.22-2.21-.99-2.22-2.22-2.22Z" fill="#ccd1d9"/><path d="M169.14,249.45c-1.22,0-2.22.99-2.22,2.22s.99,2.21,2.22,2.21,2.21-.99,2.21-2.21c0-1.23-.99-2.22-2.21-2.22Z" fill="#ccd1d9"/><path d="M140.75,219h-15.75v1.79c0,1.22.99,2.21,2.21,2.21h13.57c1.22,0,2.21-.99,2.21-2.21v-1.79h-2.25Z" fill="#aab2bc"/><rect x="101" y="256" width="4" height="2" fill="#ccd1d9"/><rect x="101" y="243" width="4" height="2" fill="#ccd1d9"/><rect x="110" y="243" width="4" height="2" fill="#ccd1d9"/><rect x="118" y="243" width="4" height="2" fill="#ccd1d9"/><rect x="127" y="243" width="4" height="2" fill="#ccd1d9"/><rect x="136" y="243" width="4" height="2" fill="#ccd1d9"/><rect x="145" y="243" width="4" height="2" fill="#ccd1d9"/><rect x="154" y="243" width="4" height="2" fill="#ccd1d9"/><rect x="163" y="243" width="4" height="2" fill="#ccd1d9"/><rect x="110" y="256" width="4" height="2" fill="#ccd1d9"/><rect x="118" y="256" width="4" height="2" fill="#ccd1d9"/><rect x="127" y="256" width="4" height="2" fill="#ccd1d9"/><rect x="136" y="256" width="4" height="2" fill="#ccd1d9"/><rect x="145" y="256" width="4" height="2" fill="#ccd1d9"/><rect x="154" y="256" width="4" height="2" fill="#ccd1d9"/><rect x="163" y="256" width="4" height="2" fill="#ccd1d9"/><rect x="167" y="250" width="4" height="2" fill="#ccd1d9"/><rect x="158" y="250" width="4" height="2" fill="#ccd1d9"/><rect x="149" y="250" width="4" height="2" fill="#ccd1d9"/><rect x="141" y="250" width="4" height="2" fill="#ccd1d9"/><rect x="132" y="250" width="4" height="2" fill="#ccd1d9"/><rect x="123" y="250" width="4" height="2" fill="#ccd1d9"/><rect x="114" y="250" width="4" height="2" fill="#ccd1d9"/><rect x="105" y="250" width="4" height="2" fill="#ccd1d9"/><rect x="96" y="250" width="4" height="2" fill="#ccd1d9"/><rect x="109" y="265" width="49" height="2" fill="#ccd1d9"/><path d="M102.67,245.02c1.22,0,2.22-.99,2.22-2.21s-.99-2.22-2.22-2.22-2.21.99-2.21,2.22c0,1.22.99,2.21,2.21,2.21Z" fill="#f5f7fa"/><path d="M111.54,245.02c1.22,0,2.22-.99,2.22-2.21s-.99-2.22-2.22-2.22-2.22.99-2.22,2.22.99,2.21,2.22,2.21Z" fill="#f5f7fa"/><path d="M120.4,245.02c1.22,0,2.21-.99,2.21-2.21s-.99-2.22-2.21-2.22-2.22.99-2.22,2.22c0,1.22.99,2.21,2.22,2.21Z" fill="#f5f7fa"/><path d="M129.26,245.02c1.22,0,2.22-.99,2.22-2.21s-.99-2.22-2.22-2.22-2.21.99-2.21,2.22c0,1.22.99,2.21,2.21,2.21Z" fill="#f5f7fa"/><path d="M138.13,245.02c1.22,0,2.22-.99,2.22-2.21s-.99-2.22-2.22-2.22-2.22.99-2.22,2.22.99,2.21,2.22,2.21Z" fill="#f5f7fa"/><path d="M146.99,245.02c1.22,0,2.21-.99,2.21-2.21s-.99-2.22-2.21-2.22-2.22.99-2.22,2.22.99,2.21,2.22,2.21Z" fill="#f5f7fa"/><path d="M155.85,245.02c1.22,0,2.22-.99,2.22-2.21s-.99-2.22-2.22-2.22-2.21.99-2.21,2.22c0,1.22.99,2.21,2.21,2.21Z" fill="#f5f7fa"/><path d="M164.71,245.02c1.22,0,2.22-.99,2.22-2.21s-.99-2.22-2.22-2.22-2.22.99-2.22,2.22c0,1.22.99,2.21,2.22,2.21Z" fill="#f5f7fa"/><path d="M102.67,253.88c-1.22,0-2.22.99-2.22,2.21s.99,2.22,2.22,2.22,2.21-.99,2.21-2.22-.99-2.21-2.21-2.21Z" fill="#f5f7fa"/><path d="M111.53,258.32c1.22,0,2.22-.99,2.22-2.22s-.99-2.21-2.22-2.21-2.21.99-2.21,2.21.99,2.22,2.21,2.22Z" fill="#f5f7fa"/><path d="M120.4,253.88c-1.22,0-2.22.99-2.22,2.21s.99,2.22,2.22,2.22,2.22-.99,2.22-2.22c0-1.22-.99-2.21-2.22-2.21Z" fill="#f5f7fa"/><path d="M158,264.52c-.24-.93-1.16-1.52-2.12-1.52h-44.34c-1.22,0-2.21.9-2.21,2s.99,2,2.21,2h44.32c1.4,0,2.49-1.17,2.15-2.48Z" fill="#f5f7fa"/><path d="M129.26,253.88c-1.22,0-2.22.99-2.22,2.21s.99,2.22,2.22,2.22,2.21-.99,2.21-2.22-.99-2.21-2.21-2.21Z" fill="#f5f7fa"/><path d="M138.12,253.88c-1.22,0-2.21.99-2.21,2.21s.99,2.22,2.21,2.22,2.22-.99,2.22-2.22-.99-2.21-2.22-2.21Z" fill="#f5f7fa"/><path d="M146.99,253.88c-1.22,0-2.22.99-2.22,2.21s.99,2.22,2.22,2.22,2.22-.99,2.22-2.22-.99-2.21-2.22-2.21Z" fill="#f5f7fa"/><path d="M155.85,253.88c-1.22,0-2.22.99-2.22,2.21s.99,2.22,2.22,2.22,2.21-.99,2.21-2.22-.99-2.21-2.21-2.21Z" fill="#f5f7fa"/><path d="M164.71,253.88c-1.22,0-2.21.99-2.21,2.21s.99,2.22,2.21,2.22,2.22-.99,2.22-2.22-.99-2.21-2.22-2.21Z" fill="#f5f7fa"/><path d="M98.24,247.24c-1.22,0-2.21.99-2.21,2.21s.99,2.22,2.21,2.22,2.22-.99,2.22-2.22-.99-2.21-2.22-2.21Z" fill="#f5f7fa"/><path d="M107.1,247.24c-1.22,0-2.22.99-2.22,2.21s.99,2.22,2.22,2.22,2.22-.99,2.22-2.22c0-1.22-.99-2.21-2.22-2.21Z" fill="#f5f7fa"/><path d="M115.97,251.67c1.22,0,2.21-.99,2.21-2.22s-.99-2.21-2.21-2.21-2.22.99-2.22,2.21c0,1.23.99,2.22,2.22,2.22Z" fill="#f5f7fa"/><path d="M124.83,251.67c1.22,0,2.22-.99,2.22-2.22s-.99-2.21-2.22-2.21-2.21.99-2.21,2.21.99,2.22,2.21,2.22Z" fill="#f5f7fa"/><path d="M133.69,251.67c1.22,0,2.22-.99,2.22-2.22s-.99-2.21-2.22-2.21-2.22.99-2.22,2.21c0,1.23.99,2.22,2.22,2.22Z" fill="#f5f7fa"/><path d="M142.56,251.67c1.22,0,2.21-.99,2.21-2.22s-.99-2.21-2.21-2.21-2.22.99-2.22,2.21.99,2.22,2.22,2.22Z" fill="#f5f7fa"/><path d="M151.42,251.67c1.22,0,2.22-.99,2.22-2.22s-.99-2.21-2.22-2.21-2.21.99-2.21,2.21c0,1.23.99,2.22,2.21,2.22Z" fill="#f5f7fa"/><path d="M160.28,247.24c-1.22,0-2.22.99-2.22,2.21s.99,2.22,2.22,2.22,2.22-.99,2.22-2.22-.99-2.21-2.22-2.21Z" fill="#f5f7fa"/><path d="M169.14,247.24c-1.22,0-2.22.99-2.22,2.21s.99,2.22,2.22,2.22,2.21-.99,2.21-2.22c0-1.22-.99-2.21-2.21-2.21Z" fill="#f5f7fa"/><polygon points="158 173.71 158 187 171.29 187 158 173.71" fill="#ccd1d9"/><path d="M87.16,218.43c0,1.22-.99,2.22-2.22,2.22s-2.21-.99-2.21-2.22.99-2.21,2.21-2.21,2.22.99,2.22,2.21Z" fill="none" stroke="#000" stroke-linecap="round" stroke-linejoin="round"/><path d="M184.65,218.43c0,1.22-.99,2.22-2.21,2.22s-2.22-.99-2.22-2.22.99-2.21,2.22-2.21,2.21.99,2.21,2.21Z" fill="none" stroke="#000" stroke-linecap="round" stroke-linejoin="round"/><path d="M182,224.75c0,1.24-.99,2.25-2.21,2.25h-92.58c-1.22,0-2.22-.99-2.22-2.22v-13.57c0-1.22.99-2.22,2.22-2.22h92.57c1.22,0,2.22.99,2.22,2.22v13.53h0Z" fill="none" stroke="#000" stroke-linecap="round" stroke-linejoin="round"/><polygon points="157.76 174 96 174 96 271 171 271 171 187.23 157.76 174" fill="none" stroke="#000" stroke-linecap="round" stroke-linejoin="round"/><path d="M184.69,275.6c.26,2.43-1.52,4.4-3.96,4.4h-94.09c-2.44,0-4.22-1.98-3.96-4.4l5.7-53.19c.26-2.42,2.47-4.41,4.9-4.41h80.8c2.44,0,4.64,1.98,4.9,4.41l5.7,53.19Z" fill="none" stroke="#000" stroke-linecap="round" stroke-linejoin="round"/><path d="M105.57,225.82c.85.22,1.88.53,3.08.88,5.86,1.71,15.65,4.58,25.04,4.6,9.39-.02,19.18-2.89,25.04-4.6,1.2-.35,2.24-.65,3.08-.88,4.14-1.1,11.25-2.19,17.64.64l-.44-4.05c-.26-2.42-2.47-4.41-4.9-4.41h-80.85c-2.44,0-4.64,1.98-4.9,4.41l-.43,4.05c6.39-2.84,13.5-1.74,17.64-.64Z" fill="none" stroke="#000" stroke-linecap="round" stroke-linejoin="round"/><path d="M102.67,247.24c1.22,0,2.22-.99,2.22-2.21s-.99-2.21-2.22-2.21-2.21.99-2.21,2.21.99,2.21,2.21,2.21Z" fill="none" stroke="#000" stroke-linecap="round" stroke-linejoin="round"/><path d="M111.54,247.24c1.22,0,2.22-.99,2.22-2.21s-.99-2.21-2.22-2.21-2.22.99-2.22,2.21.99,2.21,2.22,2.21Z" fill="none" stroke="#000" stroke-linecap="round" stroke-linejoin="round"/><path d="M120.4,247.24c1.22,0,2.21-.99,2.21-2.21s-.99-2.21-2.21-2.21-2.22.99-2.22,2.21.99,2.21,2.22,2.21Z" fill="none" stroke="#000" stroke-linecap="round" stroke-linejoin="round"/><path d="M129.26,247.24c1.22,0,2.22-.99,2.22-2.21s-.99-2.21-2.22-2.21-2.21.99-2.21,2.21.99,2.21,2.21,2.21Z" fill="none" stroke="#000" stroke-linecap="round" stroke-linejoin="round"/><path d="M138.13,247.24c1.22,0,2.22-.99,2.22-2.21s-.99-2.21-2.22-2.21-2.22.99-2.22,2.21.99,2.21,2.22,2.21Z" fill="none" stroke="#000" stroke-linecap="round" stroke-linejoin="round"/><path d="M146.99,247.24c1.22,0,2.21-.99,2.21-2.21s-.99-2.21-2.21-2.21-2.22.99-2.22,2.21.99,2.21,2.22,2.21Z" fill="none" stroke="#000" stroke-linecap="round" stroke-linejoin="round"/><path d="M155.85,247.24c1.22,0,2.22-.99,2.22-2.21s-.99-2.21-2.22-2.21-2.21.99-2.21,2.21.99,2.21,2.21,2.21Z" fill="none" stroke="#000" stroke-linecap="round" stroke-linejoin="round"/><path d="M164.71,247.24c1.22,0,2.22-.99,2.22-2.21s-.99-2.21-2.22-2.21-2.22.99-2.22,2.21.99,2.21,2.22,2.21Z" fill="none" stroke="#000" stroke-linecap="round" stroke-linejoin="round"/><path d="M102.67,256.1c-1.22,0-2.22.99-2.22,2.22s.99,2.21,2.22,2.21,2.21-.99,2.21-2.21-.99-2.22-2.21-2.22Z" fill="none" stroke="#000" stroke-linecap="round" stroke-linejoin="round"/><path d="M111.53,260.53c1.22,0,2.22-.99,2.22-2.21s-.99-2.22-2.22-2.22-2.21.99-2.21,2.22.99,2.21,2.21,2.21Z" fill="none" stroke="#000" stroke-linecap="round" stroke-linejoin="round"/><path d="M120.4,256.1c-1.22,0-2.22.99-2.22,2.22s.99,2.21,2.22,2.21,2.22-.99,2.22-2.21c0-1.23-.99-2.22-2.22-2.22Z" fill="none" stroke="#000" stroke-linecap="round" stroke-linejoin="round"/><path d="M158,266.52c-.24-.93-1.17-1.52-2.13-1.52h-44.34c-1.22,0-2.21.9-2.21,2s.99,2,2.21,2h44.32c1.4,0,2.49-1.17,2.15-2.48Z" fill="none" stroke="#000" stroke-linecap="round" stroke-linejoin="round"/><path d="M129.26,256.1c-1.22,0-2.22.99-2.22,2.22s.99,2.21,2.22,2.21,2.21-.99,2.21-2.21-.99-2.22-2.21-2.22Z" fill="none" stroke="#000" stroke-linecap="round" stroke-linejoin="round"/><path d="M138.12,256.1c-1.22,0-2.21.99-2.21,2.22s.99,2.21,2.21,2.21,2.22-.99,2.22-2.21-.99-2.22-2.22-2.22Z" fill="none" stroke="#000" stroke-linecap="round" stroke-linejoin="round"/><path d="M146.99,256.1c-1.22,0-2.22.99-2.22,2.22s.99,2.21,2.22,2.21,2.22-.99,2.22-2.21-.99-2.22-2.22-2.22Z" fill="none" stroke="#000" stroke-linecap="round" stroke-linejoin="round"/><path d="M155.85,256.1c-1.22,0-2.22.99-2.22,2.22s.99,2.21,2.22,2.21,2.21-.99,2.21-2.21-.99-2.22-2.21-2.22Z" fill="none" stroke="#000" stroke-linecap="round" stroke-linejoin="round"/><path d="M164.71,256.1c-1.22,0-2.21.99-2.21,2.22s.99,2.21,2.21,2.21,2.22-.99,2.22-2.21-.99-2.22-2.22-2.22Z" fill="none" stroke="#000" stroke-linecap="round" stroke-linejoin="round"/><path d="M98.24,249.45c-1.22,0-2.21.99-2.21,2.22s.99,2.21,2.21,2.21,2.22-.99,2.22-2.21-.99-2.22-2.22-2.22Z" fill="none" stroke="#000" stroke-linecap="round" stroke-linejoin="round"/><path d="M107.1,249.45c-1.22,0-2.22.99-2.22,2.22s.99,2.21,2.22,2.21,2.22-.99,2.22-2.21c0-1.23-.99-2.22-2.22-2.22Z" fill="none" stroke="#000" stroke-linecap="round" stroke-linejoin="round"/><path d="M115.97,253.88c1.22,0,2.21-.99,2.21-2.21s-.99-2.22-2.21-2.22-2.22.99-2.22,2.22c0,1.22.99,2.21,2.22,2.21Z" fill="none" stroke="#000" stroke-linecap="round" stroke-linejoin="round"/><path d="M124.83,253.88c1.22,0,2.22-.99,2.22-2.21s-.99-2.22-2.22-2.22-2.21.99-2.21,2.22.99,2.21,2.21,2.21Z" fill="none" stroke="#000" stroke-linecap="round" stroke-linejoin="round"/><path d="M133.69,253.88c1.22,0,2.22-.99,2.22-2.21s-.99-2.22-2.22-2.22-2.22.99-2.22,2.22c0,1.22.99,2.21,2.22,2.21Z" fill="none" stroke="#000" stroke-linecap="round" stroke-linejoin="round"/><path d="M142.56,253.88c1.22,0,2.21-.99,2.21-2.21s-.99-2.22-2.21-2.22-2.22.99-2.22,2.22.99,2.21,2.22,2.21Z" fill="none" stroke="#000" stroke-linecap="round" stroke-linejoin="round"/><path d="M151.42,253.88c1.22,0,2.22-.99,2.22-2.21s-.99-2.22-2.22-2.22-2.21.99-2.21,2.22c0,1.22.99,2.21,2.21,2.21Z" fill="none" stroke="#000" stroke-linecap="round" stroke-linejoin="round"/><path d="M160.28,249.45c-1.22,0-2.22.99-2.22,2.22s.99,2.21,2.22,2.21,2.22-.99,2.22-2.21-.99-2.22-2.22-2.22Z" fill="none" stroke="#000" stroke-linecap="round" stroke-linejoin="round"/><path d="M169.14,249.45c-1.22,0-2.22.99-2.22,2.22s.99,2.21,2.22,2.21,2.21-.99,2.21-2.21c0-1.23-.99-2.22-2.21-2.22Z" fill="none" stroke="#000" stroke-linecap="round" stroke-linejoin="round"/><path d="M140.75,219h-15.75v1.79c0,1.22.99,2.21,2.21,2.21h13.57c1.22,0,2.21-.99,2.21-2.21v-1.79h-2.25Z" fill="none" stroke="#000" stroke-linecap="round" stroke-linejoin="round"/><rect x="101" y="256" width="4" height="2" fill="none" stroke="#000" stroke-linecap="round" stroke-linejoin="round"/><rect x="101" y="243" width="4" height="2" fill="none" stroke="#000" stroke-linecap="round" stroke-linejoin="round"/><rect x="110" y="243" width="4" height="2" fill="none" stroke="#000" stroke-linecap="round" stroke-linejoin="round"/><rect x="118" y="243" width="4" height="2" fill="none" stroke="#000" stroke-linecap="round" stroke-linejoin="round"/><rect x="127" y="243" width="4" height="2" fill="none" stroke="#000" stroke-linecap="round" stroke-linejoin="round"/><rect x="136" y="243" width="4" height="2" fill="none" stroke="#000" stroke-linecap="round" stroke-linejoin="round"/><rect x="145" y="243" width="4" height="2" fill="none" stroke="#000" stroke-linecap="round" stroke-linejoin="round"/><rect x="154" y="243" width="4" height="2" fill="none" stroke="#000" stroke-linecap="round" stroke-linejoin="round"/><rect x="163" y="243" width="4" height="2" fill="none" stroke="#000" stroke-linecap="round" stroke-linejoin="round"/><rect x="110" y="256" width="4" height="2" fill="none" stroke="#000" stroke-linecap="round" stroke-linejoin="round"/><rect x="118" y="256" width="4" height="2" fill="none" stroke="#000" stroke-linecap="round" stroke-linejoin="round"/><rect x="127" y="256" width="4" height="2" fill="none" stroke="#000" stroke-linecap="round" stroke-linejoin="round"/><rect x="136" y="256" width="4" height="2" fill="none" stroke="#000" stroke-linecap="round" stroke-linejoin="round"/><rect x="145" y="256" width="4" height="2" fill="none" stroke="#000" stroke-linecap="round" stroke-linejoin="round"/><rect x="154" y="256" width="4" height="2" fill="none" stroke="#000" stroke-linecap="round" stroke-linejoin="round"/><rect x="163" y="256" width="4" height="2" fill="none" stroke="#000" stroke-linecap="round" stroke-linejoin="round"/><rect x="167" y="250" width="4" height="2" fill="none" stroke="#000" stroke-linecap="round" stroke-linejoin="round"/><rect x="158" y="250" width="4" height="2" fill="none" stroke="#000" stroke-linecap="round" stroke-linejoin="round"/><rect x="149" y="250" width="4" height="2" fill="none" stroke="#000" stroke-linecap="round" stroke-linejoin="round"/><rect x="141" y="250" width="4" height="2" fill="none" stroke="#000" stroke-linecap="round" stroke-linejoin="round"/><rect x="132" y="250" width="4" height="2" fill="none" stroke="#000" stroke-linecap="round" stroke-linejoin="round"/><rect x="123" y="250" width="4" height="2" fill="none" stroke="#000" stroke-linecap="round" stroke-linejoin="round"/><rect x="114" y="250" width="4" height="2" fill="none" stroke="#000" stroke-linecap="round" stroke-linejoin="round"/><rect x="105" y="250" width="4" height="2" fill="none" stroke="#000" stroke-linecap="round" stroke-linejoin="round"/><rect x="96" y="250" width="4" height="2" fill="none" stroke="#000" stroke-linecap="round" stroke-linejoin="round"/><rect x="109" y="265" width="49" height="2" fill="none" stroke="#000" stroke-linecap="round" stroke-linejoin="round"/><path d="M102.67,245.02c1.22,0,2.22-.99,2.22-2.21s-.99-2.22-2.22-2.22-2.21.99-2.21,2.22c0,1.22.99,2.21,2.21,2.21Z" fill="none" stroke="#000" stroke-linecap="round" stroke-linejoin="round"/><path d="M111.54,245.02c1.22,0,2.22-.99,2.22-2.21s-.99-2.22-2.22-2.22-2.22.99-2.22,2.22.99,2.21,2.22,2.21Z" fill="none" stroke="#000" stroke-linecap="round" stroke-linejoin="round"/><path d="M120.4,245.02c1.22,0,2.21-.99,2.21-2.21s-.99-2.22-2.21-2.22-2.22.99-2.22,2.22c0,1.22.99,2.21,2.22,2.21Z" fill="none" stroke="#000" stroke-linecap="round" stroke-linejoin="round"/><path d="M129.26,245.02c1.22,0,2.22-.99,2.22-2.21s-.99-2.22-2.22-2.22-2.21.99-2.21,2.22c0,1.22.99,2.21,2.21,2.21Z" fill="none" stroke="#000" stroke-linecap="round" stroke-linejoin="round"/><path d="M138.13,245.02c1.22,0,2.22-.99,2.22-2.21s-.99-2.22-2.22-2.22-2.22.99-2.22,2.22.99,2.21,2.22,2.21Z" fill="none" stroke="#000" stroke-linecap="round" stroke-linejoin="round"/><path d="M146.99,245.02c1.22,0,2.21-.99,2.21-2.21s-.99-2.22-2.21-2.22-2.22.99-2.22,2.22.99,2.21,2.22,2.21Z" fill="none" stroke="#000" stroke-linecap="round" stroke-linejoin="round"/><path d="M155.85,245.02c1.22,0,2.22-.99,2.22-2.21s-.99-2.22-2.22-2.22-2.21.99-2.21,2.22c0,1.22.99,2.21,2.21,2.21Z" fill="none" stroke="#000" stroke-linecap="round" stroke-linejoin="round"/><path d="M164.71,245.02c1.22,0,2.22-.99,2.22-2.21s-.99-2.22-2.22-2.22-2.22.99-2.22,2.22c0,1.22.99,2.21,2.22,2.21Z" fill="none" stroke="#000" stroke-linecap="round" stroke-linejoin="round"/><path d="M102.67,253.88c-1.22,0-2.22.99-2.22,2.21s.99,2.22,2.22,2.22,2.21-.99,2.21-2.22-.99-2.21-2.21-2.21Z" fill="none" stroke="#000" stroke-linecap="round" stroke-linejoin="round"/><path d="M111.53,258.32c1.22,0,2.22-.99,2.22-2.22s-.99-2.21-2.22-2.21-2.21.99-2.21,2.21.99,2.22,2.21,2.22Z" fill="none" stroke="#000" stroke-linecap="round" stroke-linejoin="round"/><path d="M120.4,253.88c-1.22,0-2.22.99-2.22,2.21s.99,2.22,2.22,2.22,2.22-.99,2.22-2.22c0-1.22-.99-2.21-2.22-2.21Z" fill="none" stroke="#000" stroke-linecap="round" stroke-linejoin="round"/><path d="M158,264.52c-.24-.93-1.16-1.52-2.12-1.52h-44.34c-1.22,0-2.21.9-2.21,2s.99,2,2.21,2h44.32c1.4,0,2.49-1.17,2.15-2.48Z" fill="none" stroke="#000" stroke-linecap="round" stroke-linejoin="round"/><path d="M129.26,253.88c-1.22,0-2.22.99-2.22,2.21s.99,2.22,2.22,2.22,2.21-.99,2.21-2.22-.99-2.21-2.21-2.21Z" fill="none" stroke="#000" stroke-linecap="round" stroke-linejoin="round"/><path d="M138.12,253.88c-1.22,0-2.21.99-2.21,2.21s.99,2.22,2.21,2.22,2.22-.99,2.22-2.22-.99-2.21-2.22-2.21Z" fill="none" stroke="#000" stroke-linecap="round" stroke-linejoin="round"/><path d="M146.99,253.88c-1.22,0-2.22.99-2.22,2.21s.99,2.22,2.22,2.22,2.22-.99,2.22-2.22-.99-2.21-2.22-2.21Z" fill="none" stroke="#000" stroke-linecap="round" stroke-linejoin="round"/><path d="M155.85,253.88c-1.22,0-2.22.99-2.22,2.21s.99,2.22,2.22,2.22,2.21-.99,2.21-2.22-.99-2.21-2.21-2.21Z" fill="none" stroke="#000" stroke-linecap="round" stroke-linejoin="round"/><path d="M164.71,253.88c-1.22,0-2.21.99-2.21,2.21s.99,2.22,2.21,2.22,2.22-.99,2.22-2.22-.99-2.21-2.22-2.21Z" fill="none" stroke="#000" stroke-linecap="round" stroke-linejoin="round"/><path d="M98.24,247.24c-1.22,0-2.21.99-2.21,2.21s.99,2.22,2.21,2.22,2.22-.99,2.22-2.22-.99-2.21-2.22-2.21Z" fill="none" stroke="#000" stroke-linecap="round" stroke-linejoin="round"/><path d="M107.1,247.24c-1.22,0-2.22.99-2.22,2.21s.99,2.22,2.22,2.22,2.22-.99,2.22-2.22c0-1.22-.99-2.21-2.22-2.21Z" fill="none" stroke="#000" stroke-linecap="round" stroke-linejoin="round"/><path d="M115.97,251.67c1.22,0,2.21-.99,2.21-2.22s-.99-2.21-2.21-2.21-2.22.99-2.22,2.21c0,1.23.99,2.22,2.22,2.22Z" fill="none" stroke="#000" stroke-linecap="round" stroke-linejoin="round"/><path d="M124.83,251.67c1.22,0,2.22-.99,2.22-2.22s-.99-2.21-2.22-2.21-2.21.99-2.21,2.21.99,2.22,2.21,2.22Z" fill="none" stroke="#000" stroke-linecap="round" stroke-linejoin="round"/><path d="M133.69,251.67c1.22,0,2.22-.99,2.22-2.22s-.99-2.21-2.22-2.21-2.22.99-2.22,2.21c0,1.23.99,2.22,2.22,2.22Z" fill="none" stroke="#000" stroke-linecap="round" stroke-linejoin="round"/><path d="M142.56,251.67c1.22,0,2.21-.99,2.21-2.22s-.99-2.21-2.21-2.21-2.22.99-2.22,2.21.99,2.22,2.22,2.22Z" fill="none" stroke="#000" stroke-linecap="round" stroke-linejoin="round"/><path d="M151.42,251.67c1.22,0,2.22-.99,2.22-2.22s-.99-2.21-2.22-2.21-2.21.99-2.21,2.21c0,1.23.99,2.22,2.21,2.22Z" fill="none" stroke="#000" stroke-linecap="round" stroke-linejoin="round"/><path d="M160.28,247.24c-1.22,0-2.22.99-2.22,2.21s.99,2.22,2.22,2.22,2.22-.99,2.22-2.22-.99-2.21-2.22-2.21Z" fill="none" stroke="#000" stroke-linecap="round" stroke-linejoin="round"/><path d="M169.14,247.24c-1.22,0-2.22.99-2.22,2.21s.99,2.22,2.22,2.22,2.21-.99,2.21-2.22c0-1.22-.99-2.21-2.21-2.21Z" fill="none" stroke="#000" stroke-linecap="round" stroke-linejoin="round"/><polygon points="158 173.71 158 187 171.29 187 158 173.71" fill="none" stroke="#000" stroke-linecap="round" stroke-linejoin="round"/><g id="uuid-987d599e-1f7b-435a-a877-6092bace6f4e"><polygon id="uuid-dca485fb-6a66-4878-bc44-4472ad7627cd" points="386 400 365 400 365 439.12 365 447 397 447 397 439 386 439 386 400" fill="#5f5f5f"/><rect id="uuid-1f478710-55c8-4951-983a-e19f2740a304" x="362" y="347" width="27" height="54" fill="#727272"/><polygon id="uuid-dd269d52-6591-4166-b483-27858c585156" points="352 400 331 400 331 439 320 439 320 447 352 447 352 439.12 352 439.12 352 400" fill="#5f5f5f"/><rect id="uuid-339462e0-c03a-4b30-903b-5a78454aa3b1" x="329" y="347" width="27" height="54" fill="#727272"/><path id="uuid-6b88685e-b135-470c-bfc7-542f3326bed5" d="M328,238v109h61v-109h-61Z" fill="#727272"/><rect id="uuid-836b6442-829e-4429-acbc-d6a0bb7e11ef" x="328" y="301" width="61" height="19" fill="#acacac"/><rect id="uuid-7e92daf8-7891-4364-aff9-364472f2e0c4" x="371" y="236" width="8" height="65" fill="#acacac"/><rect id="uuid-cb88d81b-030c-4cf9-9012-dda97d181712" x="338" y="236" width="8" height="65" fill="#acacac"/><path id="uuid-bc6d8884-5bf0-4b3e-9883-99e8d2cb4c7e" d="M387.3,211.14c1.24-6.13,1.41-12.85.31-19.75-3.81-23.83-21.4-40.84-39.27-37.98-17.88,2.86-29.27,24.5-25.46,48.34,1.1,6.9,3.37,13.23,6.46,18.67l57.97-9.28Z" fill="#ccc"/><path id="uuid-deb83f33-c8ef-4421-8694-2a244bae4e29" d="M331.01,230c5.82,12.17,16.03,20.25,27.65,20.25s21.83-8.08,27.65-20.25h-55.31Z" fill="#ccc"/><ellipse id="uuid-4509d80d-48e8-4258-a4ff-74d6f18d229f" cx="350" cy="205.5" rx="2.94" ry="4.54" transform="translate(-30.17 63.37) rotate(-9.92)" fill="#333"/><ellipse id="uuid-4d01a132-8cca-47d0-b90a-e684ba11b396" cx="336" cy="207.5" rx="2.94" ry="4.54" transform="translate(-30.73 60.99) rotate(-9.92)" fill="#333"/><rect id="uuid-b17adb89-b3f6-453e-8b3f-c3fd7ea1f191" x="383.19" y="229.78" width="34.96" height="16.39" transform="translate(-63.93 201.71) rotate(-26.24)" fill="#727272"/><rect id="uuid-cb627636-60ae-46c7-ab4c-c476c220b5c9" x="303.08" y="245.89" width="34.96" height="16.39" transform="translate(-4.45 502.45) rotate(-75.79)" fill="#727272"/><rect id="uuid-94c443fa-f9c4-4077-839b-f3fbf9f7c574" x="291.19" y="275.79" width="34.96" height="16.39" transform="translate(-90.97 411.32) rotate(-60.29)" fill="#727272"/><rect id="uuid-f97f9bf5-ec2c-41c7-9e57-7f7236ac5a02" x="287.82" y="297.44" width="17.71" height="17.71" transform="translate(-111.38 430.08) rotate(-62.79)" fill="#ccc"/><circle id="uuid-fb375450-8b7c-4fc6-bc2f-469a501535ca" cx="358.5" cy="289.5" r="2.5" fill="#333"/><circle id="uuid-11c7f4f8-cba0-4ba7-ae4c-5fa7140cfd2a" cx="358.5" cy="279.5" r="2.5" fill="#333"/><circle id="uuid-b4afb913-499b-4f11-b023-a698b71606c4" cx="358.5" cy="271.5" r="2.5" fill="#333"/><circle id="uuid-718be0c5-90c4-407b-8b3e-1b8cd1c28ef5" cx="358.5" cy="259.5" r="2.5" fill="#333"/><path d="M387.05,169.14c-3.12-15.07-19.62-25.74-38.58-24.3-18.96,1.43-33.67,14.47-34.48,29.83-6.27,1.39-9.98,2.82-9.88,4.07.22,2.93,21.29,3.73,47.07,1.78,25.77-1.95,46.49-5.91,46.26-8.84-.09-1.25-3.98-2.11-10.38-2.53Z" fill="#6a6a6a"/></g><path d="M422.09,242.99c-.97-1.4-1.4-2.59-1.65-3.3-.08-.22-.34-.22-.41,0-.25.71-.67,1.9-1.65,3.3-.61.88-1.21,2.16-1.21,3.42,0,2.16,1.32,3.62,3.06,3.62s3.06-1.46,3.06-3.62c0-1.31-.6-2.55-1.21-3.42Z" fill="#c1272d"/><path d="M421.09,246.77c.49-1.09.42-2.16.81-1.97.53.26,1.11,1.62.89,2.84-.16.87-.66,1.4-1.3,1.15-.52-.2-.84-1.04-.4-2.02Z" fill="#e36250"/><path d="M411.46,239.84l-5.93-12.03c-.57-1.16-.1-2.57,1.07-3.14l6.96-3.43c1.16-.57,2.57-.1,3.14,1.07l4.95,10.03c1.12,2.27.19,5.01-2.08,6.13l-4.96,2.44c-1.16.57-2.57.1-3.14-1.07Z" fill="#c1272d"/><ellipse cx="407" cy="231" rx="10.75" ry="5.79" transform="translate(-59.96 200.09) rotate(-25.79)" fill="#c1272d"/><ellipse cx="410" cy="235" rx="2.72" ry="9.46" transform="translate(55.01 546.95) rotate(-71.13)" fill="#c1272d"/><path d="M198.15,294.89s16.31,8.65,28.41,30.39c12.11,21.75,17.57,34.88,17.57,34.88l61.13-22.88s-9.27-31.79-21.81-43.01c-12.54-11.23-30.64-23.04-30.64-23.04l-54.66,23.66Z" fill="#fff" stroke="#938c8c" stroke-miterlimit="10"/><g id="uuid-27f236ac-dc3b-4705-8f00-f9f5ecfcd817"><polygon id="uuid-fc9e7df4-f938-4ee6-9cd8-22fe1bc32d2e" points="386 400 365 400 365 439.12 365 447 397 447 397 439 386 439 386 400" fill="none" stroke="#000" stroke-linecap="round" stroke-linejoin="round"/><rect id="uuid-0fd2f431-3c83-43ee-b0e3-3745935bb496" x="362" y="347" width="27" height="54" fill="none" stroke="#000" stroke-linecap="round" stroke-linejoin="round"/><polygon id="uuid-554402a7-d711-4620-a82a-8d521c2477e0" points="352 400 331 400 331 439 320 439 320 447 352 447 352 439.12 352 439.12 352 400" fill="none" stroke="#000" stroke-linecap="round" stroke-linejoin="round"/><rect id="uuid-f83f4d25-eebd-4f99-9bd0-347d266dbac1" x="329" y="347" width="27" height="54" fill="none" stroke="#000" stroke-linecap="round" stroke-linejoin="round"/><path id="uuid-3c82242e-8b11-4474-a23c-a48069916410" d="M328,238v109h61v-109h-61Z" fill="none" stroke="#000" stroke-linecap="round" stroke-linejoin="round"/><rect id="uuid-ebb7ab75-a691-48fb-b6e3-9034868f7f35" x="328" y="301" width="61" height="19" fill="none" stroke="#000" stroke-linecap="round" stroke-linejoin="round"/><rect id="uuid-ffc87389-b23c-4cc3-9437-7b39326ebe4f" x="371" y="236" width="8" height="65" fill="none" stroke="#000" stroke-linecap="round" stroke-linejoin="round"/><rect id="uuid-97cb0f7d-fd38-41e3-8ff9-aaedcc967619" x="338" y="236" width="8" height="65" fill="none" stroke="#000" stroke-linecap="round" stroke-linejoin="round"/><path id="uuid-35119897-4f04-4972-a299-3c1e5563b8bc" d="M387.3,211.14c1.24-6.13,1.41-12.85.31-19.75-3.81-23.83-21.4-40.84-39.27-37.98-17.88,2.86-29.27,24.5-25.46,48.34,1.1,6.9,3.37,13.23,6.46,18.67l57.97-9.28Z" fill="none" stroke="#000" stroke-linecap="round" stroke-linejoin="round"/><path id="uuid-f9135921-34c5-480f-91ac-807a7bb23e5f" d="M331.01,230c5.82,12.17,16.03,20.25,27.65,20.25s21.83-8.08,27.65-20.25h-55.31Z" fill="none" stroke="#000" stroke-linecap="round" stroke-linejoin="round"/><ellipse id="uuid-d98d2f4d-d385-4fec-9c11-071b7ef7a6ba" cx="350" cy="205.5" rx="2.94" ry="4.54" transform="translate(-30.17 63.37) rotate(-9.92)" fill="none" stroke="#000" stroke-linecap="round" stroke-linejoin="round"/><ellipse id="uuid-80f017eb-d34d-4142-9b34-50ea33b4381e" cx="336" cy="207.5" rx="2.94" ry="4.54" transform="translate(-30.73 60.99) rotate(-9.92)" fill="none" stroke="#000" stroke-linecap="round" stroke-linejoin="round"/><rect id="uuid-097e73bf-f062-4808-bcdc-5a2208ab5ac5" x="383.19" y="229.78" width="34.96" height="16.39" transform="translate(-63.93 201.71) rotate(-26.24)" fill="none" stroke="#000" stroke-linecap="round" stroke-linejoin="round"/><rect id="uuid-42a86a12-6956-4304-8891-7ac696df8c22" x="303.08" y="245.89" width="34.96" height="16.39" transform="translate(-4.45 502.45) rotate(-75.79)" fill="none" stroke="#000" stroke-linecap="round" stroke-linejoin="round"/><rect id="uuid-d7b741bd-765c-4cc4-8bef-5ee72a6d8883" x="291.19" y="275.79" width="34.96" height="16.39" transform="translate(-90.97 411.32) rotate(-60.29)" fill="none" stroke="#000" stroke-linecap="round" stroke-linejoin="round"/><rect id="uuid-55aae839-61c0-4530-b4ba-05f5a357ce79" x="287.82" y="297.44" width="17.71" height="17.71" transform="translate(-111.38 430.08) rotate(-62.79)" fill="none" stroke="#000" stroke-linecap="round" stroke-linejoin="round"/><circle id="uuid-811f4598-0571-4f20-a559-e1f86d2955a6" cx="358.5" cy="289.5" r="2.5" fill="none" stroke="#000" stroke-linecap="round" stroke-linejoin="round"/><circle id="uuid-c0bd0a0b-b621-49f1-bb31-99e2f59ba6e4" cx="358.5" cy="279.5" r="2.5" fill="none" stroke="#000" stroke-linecap="round" stroke-linejoin="round"/><circle id="uuid-476020cf-ae16-4224-8c17-8efbf7f6e625" cx="358.5" cy="271.5" r="2.5" fill="none" stroke="#000" stroke-linecap="round" stroke-linejoin="round"/><circle id="uuid-c8b542e5-083d-456a-b530-fad8246d803f" cx="358.5" cy="259.5" r="2.5" fill="none" stroke="#000" stroke-linecap="round" stroke-linejoin="round"/><path d="M387.05,169.14c-3.12-15.07-19.62-25.74-38.58-24.3-18.96,1.43-33.67,14.47-34.48,29.83-6.27,1.39-9.98,2.82-9.88,4.07.22,2.93,21.29,3.73,47.07,1.78,25.77-1.95,46.49-5.91,46.26-8.84-.09-1.25-3.98-2.11-10.38-2.53Z" fill="none" stroke="#000" stroke-linecap="round" stroke-linejoin="round"/><polygon id="uuid-b9d11bc6-64e0-4243-88b9-b498b1c65d87" points="386 400 365 400 365 439.12 365 447 397 447 397 439 386 439 386 400" fill="none" stroke="#000" stroke-linecap="round" stroke-linejoin="round"/><rect id="uuid-298b5c41-837f-4305-8d2d-b22128b0f715" x="362" y="347" width="27" height="54" fill="none" stroke="#000" stroke-linecap="round" stroke-linejoin="round"/><polygon id="uuid-c8b1babf-9929-404d-adc9-51c0538600a8" points="352 400 331 400 331 439 320 439 320 447 352 447 352 439.12 352 439.12 352 400" fill="none" stroke="#000" stroke-linecap="round" stroke-linejoin="round"/><rect id="uuid-de7a767f-2216-43c7-a653-5ac139dcb22a" x="329" y="347" width="27" height="54" fill="none" stroke="#000" stroke-linecap="round" stroke-linejoin="round"/><path id="uuid-848d2db7-e2d1-4e64-9913-25444f0c8d7b" d="M328,238v109h61v-109h-61Z" fill="none" stroke="#000" stroke-linecap="round" stroke-linejoin="round"/><rect id="uuid-03bef966-3aac-4d0c-88d5-6cba10eb7ced" x="328" y="301" width="61" height="19" fill="none" stroke="#000" stroke-linecap="round" stroke-linejoin="round"/><rect id="uuid-7f540c44-83b2-4788-b2e0-48c5850bd086" x="371" y="236" width="8" height="65" fill="none" stroke="#000" stroke-linecap="round" stroke-linejoin="round"/><rect id="uuid-78004577-2e56-4b9d-93bc-7dce0b5660a0" x="338" y="236" width="8" height="65" fill="none" stroke="#000" stroke-linecap="round" stroke-linejoin="round"/><path id="uuid-989d014a-10ba-428b-a60d-ce3a7d7c392e" d="M387.3,211.14c1.24-6.13,1.41-12.85.31-19.75-3.81-23.83-21.4-40.84-39.27-37.98-17.88,2.86-29.27,24.5-25.46,48.34,1.1,6.9,3.37,13.23,6.46,18.67l57.97-9.28Z" fill="none" stroke="#000" stroke-linecap="round" stroke-linejoin="round"/><path id="uuid-33b6d223-bcab-44bb-846e-b674c7aa9748" d="M331.01,230c5.82,12.17,16.03,20.25,27.65,20.25s21.83-8.08,27.65-20.25h-55.31Z" fill="none" stroke="#000" stroke-linecap="round" stroke-linejoin="round"/><ellipse id="uuid-d908b125-2d65-4c36-93c5-46bf346a38c2" cx="350" cy="205.5" rx="2.94" ry="4.54" transform="translate(-30.17 63.37) rotate(-9.92)" fill="none" stroke="#000" stroke-linecap="round" stroke-linejoin="round"/><ellipse id="uuid-c79e88ee-b58e-4507-a66a-d38283f5ea3c" cx="336" cy="207.5" rx="2.94" ry="4.54" transform="translate(-30.73 60.99) rotate(-9.92)" fill="none" stroke="#000" stroke-linecap="round" stroke-linejoin="round"/><rect id="uuid-3a65e8c3-efb7-433f-9e06-3c636f7687c1" x="383.19" y="229.78" width="34.96" height="16.39" transform="translate(-63.93 201.71) rotate(-26.24)" fill="none" stroke="#000" stroke-linecap="round" stroke-linejoin="round"/><rect id="uuid-eb0cbd17-986e-4b39-9107-72cc3be911d0" x="303.08" y="245.89" width="34.96" height="16.39" transform="translate(-4.45 502.45) rotate(-75.79)" fill="none" stroke="#000" stroke-linecap="round" stroke-linejoin="round"/><rect id="uuid-d7a9334c-35a0-4538-8476-010cd38d16be" x="291.19" y="275.79" width="34.96" height="16.39" transform="translate(-90.97 411.32) rotate(-60.29)" fill="none" stroke="#000" stroke-linecap="round" stroke-linejoin="round"/><rect id="uuid-43b6e49b-baba-411a-94dc-6169682b7c2b" x="287.82" y="297.44" width="17.71" height="17.71" transform="translate(-111.38 430.08) rotate(-62.79)" fill="none" stroke="#000" stroke-linecap="round" stroke-linejoin="round"/><circle id="uuid-e1e2978d-f193-4daf-89f5-091aed70af56" cx="358.5" cy="289.5" r="2.5" fill="none" stroke="#000" stroke-linecap="round" stroke-linejoin="round"/><circle id="uuid-c2321752-aa0e-47b8-86e4-8e23d12c1720" cx="358.5" cy="279.5" r="2.5" fill="none" stroke="#000" stroke-linecap="round" stroke-linejoin="round"/><circle id="uuid-7cd7a35b-53f0-4762-9cfd-296b0b568b60" cx="358.5" cy="271.5" r="2.5" fill="none" stroke="#000" stroke-linecap="round" stroke-linejoin="round"/><circle id="uuid-d519d817-6aa3-4181-b8f5-8f37ff7e0fa3" cx="358.5" cy="259.5" r="2.5" fill="none" stroke="#000" stroke-linecap="round" stroke-linejoin="round"/><path d="M387.05,169.14c-3.12-15.07-19.62-25.74-38.58-24.3-18.96,1.43-33.67,14.47-34.48,29.83-6.27,1.39-9.98,2.82-9.88,4.07.22,2.93,21.29,3.73,47.07,1.78,25.77-1.95,46.49-5.91,46.26-8.84-.09-1.25-3.98-2.11-10.38-2.53Z" fill="none" stroke="#000" stroke-linecap="round" stroke-linejoin="round"/></g><path d="M422.09,242.99c-.97-1.4-1.4-2.59-1.65-3.3-.08-.22-.34-.22-.41,0-.25.71-.67,1.9-1.65,3.3-.61.88-1.21,2.16-1.21,3.42,0,2.16,1.32,3.62,3.06,3.62s3.06-1.46,3.06-3.62c0-1.31-.6-2.55-1.21-3.42Z" fill="none" stroke="#000" stroke-linecap="round" stroke-linejoin="round"/><path d="M421.09,246.77c.49-1.09.42-2.16.81-1.97.53.26,1.11,1.62.89,2.84-.16.87-.66,1.4-1.3,1.15-.52-.2-.84-1.04-.4-2.02Z" fill="none" stroke="#000" stroke-linecap="round" stroke-linejoin="round"/><path d="M411.46,239.84l-5.93-12.03c-.57-1.16-.1-2.57,1.07-3.14l6.96-3.43c1.16-.57,2.57-.1,3.14,1.07l4.95,10.03c1.12,2.27.19,5.01-2.08,6.13l-4.96,2.44c-1.16.57-2.57.1-3.14-1.07Z" fill="none" stroke="#000" stroke-linecap="round" stroke-linejoin="round"/><ellipse cx="407" cy="231" rx="10.75" ry="5.79" transform="translate(-59.96 200.09) rotate(-25.79)" fill="none" stroke="#000" stroke-linecap="round" stroke-linejoin="round"/><ellipse cx="410" cy="235" rx="2.72" ry="9.46" transform="translate(55.01 546.95) rotate(-71.13)" fill="none" stroke="#000" stroke-linecap="round" stroke-linejoin="round"/><path d="M198.15,294.89s16.31,8.65,28.41,30.39c12.11,21.75,17.57,34.88,17.57,34.88l61.13-22.88s-9.27-31.79-21.81-43.01c-12.54-11.23-30.64-23.04-30.64-23.04l-54.66,23.66Z" fill="none" stroke="#000" stroke-linecap="round" stroke-linejoin="round"/><text transform="translate(231.03 309.52) rotate(-28.66)" fill="#333" font-family="ComicNeue-Regular, &apos;Comic Neue&apos;" font-size="18"><tspan x="0" y="0">War</tspan></text><text transform="translate(242.05 323.39) rotate(-28.66)" fill="#333" font-family="ComicNeue-Regular, &apos;Comic Neue&apos;" font-size="18"><tspan x="0" y="0">over</tspan></text><text transform="translate(251.55 340.88) rotate(-28.66)" fill="#333" font-family="ComicNeue-Regular, &apos;Comic Neue&apos;" font-size="18"><tspan x="0" y="0">by 11</tspan></text></svg>