<?xml version="1.0" encoding="UTF-8"?><svg id="uuid-8717edca-6eac-4fe6-9fdc-2637a59d447c" xmlns="http://www.w3.org/2000/svg" xmlns:xlink="http://www.w3.org/1999/xlink" viewBox="0 0 500 500"><defs><linearGradient id="uuid-a854b183-1c15-4767-bdaa-2f2982ad3d1c" x1="-532.61" y1="2173.88" x2="-532.61" y2="2173.89" gradientTransform="translate(-2061.65 -267.72) rotate(-90)" gradientUnits="userSpaceOnUse"><stop offset="0" stop-color="#ce8963"/><stop offset="1" stop-color="#d08a61" stop-opacity="0"/></linearGradient><radialGradient id="uuid-cf0fc623-4ce6-484e-a72f-373750fde731" cx="1049.57" cy="2345.16" fx="1049.57" fy="2345.16" r="6.5" gradientTransform="translate(-1303.7 -959.72) rotate(90) scale(1.18 -.6)" gradientUnits="userSpaceOnUse"><stop offset=".06" stop-color="#ffa726"/><stop offset=".14" stop-color="#ffa726"/><stop offset="1" stop-color="#ffa726" stop-opacity=".1"/></radialGradient><linearGradient id="uuid-78fd0789-b5a4-46ac-9212-9872c45e2357" x1="1179.47" y1="2166.15" x2="1184.47" y2="2166.15" gradientTransform="translate(-2061.65 -904.47) rotate(90) scale(1 -1)" gradientUnits="userSpaceOnUse"><stop offset="0" stop-color="#8a5140"/><stop offset="1" stop-color="#8a5140"/></linearGradient></defs><g isolation="isolate"><text transform="translate(48.18 418.17)" fill="#333" font-family="ComicNeue-Regular, &apos;Comic Neue&apos;" font-size="24" isolation="isolate"><tspan x="0" y="0">The message was quickly disseminated.</tspan></text></g><g id="uuid-8c3e1512-d78d-4cd5-aa35-d7a558602a9b"><polygon id="uuid-499d49e0-f216-43f0-ad61-cba8aa48bcdf" points="384.39 318.32 363.52 314.28 356.06 352.88 354.55 360.66 385.85 366.71 387.42 358.59 376.99 356.58 384.39 318.32" fill="#5f5f5f"/><rect id="uuid-620787f6-2205-40a2-93b3-a27c56da7cba" x="349.2" y="272.78" width="27.16" height="54.31" transform="translate(-95.02 190.43) rotate(-26.13)" fill="#727272"/><polygon id="uuid-a88007c7-fe4d-402a-8384-a688c09314ed" points="296.09 308.84 302.03 329.25 264.61 340.14 267.58 350.34 259.65 352.65 250.74 322.04 258.34 319.83 258.34 319.83 296.09 308.84" fill="#5f5f5f"/><rect id="uuid-91ce0f69-168c-47a6-84f2-8d10d0b4b266" x="277.64" y="286.76" width="54.31" height="27.16" transform="translate(-101.68 434.07) rotate(-62.79)" fill="#727272"/><path id="uuid-75c415c9-df25-4ce7-9573-ba19f8f71714" d="M304,174v109h61v-109h-61Z" fill="#727272"/><rect id="uuid-f207f7a4-f1ea-4207-8a84-5ade6e310620" x="304" y="237" width="61" height="19" fill="#acacac"/><rect id="uuid-1b27c9b9-01c6-408f-b726-0d4a51c1aa09" x="348" y="172" width="8" height="65" fill="#acacac"/><rect id="uuid-51ecc730-c3c3-4a01-b46a-e8e4c91896f0" x="315" y="172" width="8" height="65" fill="#acacac"/><path id="uuid-01767c65-8618-43e3-bf68-0ca4e36d7e85" d="M363.64,150.88c1.24-6.13,1.41-12.85.31-19.75-3.81-23.83-21.4-40.84-39.27-37.98-17.88,2.86-29.27,24.5-25.46,48.34,1.1,6.9,3.37,13.23,6.46,18.67l57.97-9.28h-.01Z" fill="#ccc"/><path id="uuid-9c07dd01-2ecb-4519-9e05-984da4e913fe" d="M307.34,166c5.82,12.17,16.03,20.25,27.65,20.25s21.83-8.08,27.65-20.25h-55.31.01Z" fill="#ccc"/><ellipse id="uuid-42cf1bbd-aa81-4169-acd9-d8323de4a560" cx="353" cy="141.5" rx="2.94" ry="4.54" transform="translate(-19.1 62.93) rotate(-9.92)" fill="#333"/><ellipse id="uuid-452d1ceb-594b-4d8a-be83-6e75cee598ff" cx="338" cy="143.51" rx="2.94" ry="4.54" transform="translate(-19.67 60.37) rotate(-9.92)" fill="#333"/><rect id="uuid-0b5b28e1-a959-4db8-8fcf-08f6049a7fa8" x="359.53" y="165.55" width="34.96" height="16.39" transform="translate(-37.97 184.59) rotate(-26.24)" fill="#727272"/><rect id="uuid-cc13df33-52d2-41d9-81fc-055de8c2575f" x="284.9" y="157.88" width="16.39" height="34.96" transform="translate(-.62 349.67) rotate(-61.58)" fill="#727272"/><rect id="uuid-38d17bde-9084-46b6-8efd-ed932991440f" x="258.84" y="139.02" width="16.39" height="34.96" transform="translate(-30.92 240.29) rotate(-46.08)" fill="#727272"/><rect id="uuid-9d7ffd3b-7e70-49a9-983c-b2be1665520a" x="239.5" y="130.54" width="17.71" height="17.71" transform="translate(-20.48 233.41) rotate(-48.58)" fill="#ccc"/><circle id="uuid-e8c0e1ef-b038-4c7f-8924-27112fd6706e" cx="334.5" cy="224.5" r="2.5" fill="#333"/><circle id="uuid-c230b3f5-ea86-4a83-a8fa-c7122eb819c8" cx="334.5" cy="215.5" r="2.5" fill="#333"/><circle id="uuid-cda7537a-942b-4e8c-8aeb-e38d245b91d5" cx="334.5" cy="207.5" r="2.5" fill="#333"/><circle id="uuid-46b1bc8e-f364-4f0d-9f0d-4833eba5113c" cx="334.5" cy="195.5" r="2.5" fill="#333"/><path d="M363.38,108.88c-3.12-15.07-19.62-25.74-38.58-24.3-18.96,1.43-33.67,14.47-34.48,29.83-6.27,1.39-9.98,2.82-9.88,4.07.22,2.93,21.29,3.73,47.07,1.78,25.77-1.95,46.49-5.91,46.26-8.84-.09-1.25-3.98-2.11-10.38-2.53h0Z" fill="#6a6a6a"/></g><path d="M398.42,178.73c-.97-1.4-1.4-2.59-1.65-3.3-.08-.22-.34-.22-.41,0-.25.71-.67,1.9-1.65,3.3-.61.88-1.21,2.16-1.21,3.42,0,2.16,1.32,3.62,3.06,3.62s3.06-1.46,3.06-3.62c0-1.31-.6-2.55-1.21-3.42h0Z" fill="#c1272d"/><path d="M397.42,182.51c.49-1.09.42-2.16.81-1.97.53.26,1.11,1.62.89,2.84-.16.87-.66,1.4-1.3,1.15-.52-.2-.84-1.04-.4-2.02h0Z" fill="#e36250"/><path d="M387.79,175.58l-5.93-12.03c-.57-1.16-.1-2.57,1.07-3.14l6.96-3.43c1.16-.57,2.57-.1,3.14,1.07l4.95,10.03c1.12,2.27.19,5.01-2.08,6.13l-4.96,2.44c-1.16.57-2.57.1-3.14-1.07h-.01Z" fill="#c1272d"/><ellipse cx="384" cy="167.01" rx="10.75" ry="5.79" transform="translate(-34.41 183.7) rotate(-25.79)" fill="#c1272d"/><ellipse cx="385.99" cy="170.99" rx="2.72" ry="9.46" transform="translate(99.35 480.93) rotate(-71.13)" fill="#c1272d"/><path d="M139.52,96.29s16.31,8.65,28.41,30.39c12.11,21.75,17.57,34.88,17.57,34.88l61.13-22.88s-9.27-31.79-21.81-43.01c-12.54-11.23-30.64-23.04-30.64-23.04,0,0-54.66,23.66-54.66,23.66Z" fill="#fff"/><path d="M185.22,162.2l-.19-.45c-.05-.13-5.59-13.36-17.55-34.83-11.88-21.35-28.05-30.11-28.21-30.19l-.92-.49,55.86-24.18.23.15c.18.12,18.27,11.96,30.7,23.09,12.5,11.19,21.58,41.94,21.96,43.24l.13.45-62.02,23.21ZM140.63,96.36c3.56,2.16,17.3,11.33,27.74,30.08,10.76,19.33,16.34,32.01,17.41,34.49l60.24-22.55c-1.18-3.88-10.04-32.05-21.53-42.33-11.62-10.4-28.23-21.45-30.35-22.85l-53.5,23.16Z" fill="#938c8c"/><g id="uuid-2d7b19f6-7671-4cce-85f8-f81fbbc5d53d"><polygon id="uuid-d9dc9678-38a2-4506-a95a-1342eb818cc9" points="384.39 318.32 363.52 314.28 356.06 352.88 354.55 360.66 385.85 366.71 387.42 358.59 376.99 356.58 384.39 318.32" fill="none" stroke="#000" stroke-linecap="round" stroke-linejoin="round"/><rect id="uuid-4f29c0b3-c5b1-49e4-9fef-e48759674794" x="349.2" y="272.78" width="27.16" height="54.31" transform="translate(-95.02 190.43) rotate(-26.13)" fill="none" stroke="#000" stroke-linecap="round" stroke-linejoin="round" stroke-width="1"/><polygon id="uuid-7e232d0b-658b-49bd-9072-cc6cb9b1c86d" points="296.09 308.84 302.03 329.25 264.61 340.14 267.58 350.34 259.65 352.65 250.74 322.04 258.34 319.83 258.34 319.83 296.09 308.84" fill="none" stroke="#000" stroke-linecap="round" stroke-linejoin="round"/><rect id="uuid-be96705c-702e-406d-8a0f-9aac5ab7e7f9" x="277.64" y="286.76" width="54.31" height="27.16" transform="translate(-101.68 434.07) rotate(-62.79)" fill="none" stroke="#000" stroke-linecap="round" stroke-linejoin="round" stroke-width="1"/><path id="uuid-77f74af8-8a47-43aa-8aae-b800fed593e1" d="M304,174v109h61v-109h-61Z" fill="none" stroke="#000" stroke-linecap="round" stroke-linejoin="round"/><rect id="uuid-f6364595-e276-4ea3-82ab-a2fd946fec29" x="304" y="237" width="61" height="19" fill="none" stroke="#000" stroke-linecap="round" stroke-linejoin="round"/><rect id="uuid-d71df482-49e1-427f-a9f5-219ce8799c83" x="348" y="172" width="8" height="65" fill="none" stroke="#000" stroke-linecap="round" stroke-linejoin="round"/><rect id="uuid-5cc11b4d-2f2b-4784-8695-4de22fd6e61f" x="315" y="172" width="8" height="65" fill="none" stroke="#000" stroke-linecap="round" stroke-linejoin="round"/><path id="uuid-8c17ab51-bdaf-470c-a19b-9f5ac7defd03" d="M363.64,150.88c1.24-6.13,1.41-12.85.31-19.75-3.81-23.83-21.4-40.84-39.27-37.98-17.88,2.86-29.27,24.5-25.46,48.34,1.1,6.9,3.37,13.23,6.46,18.67l57.97-9.28h-.01Z" fill="none" stroke="#000" stroke-linecap="round" stroke-linejoin="round"/><path id="uuid-0cd75189-7b33-4606-a9d6-d26a6a7fe444" d="M307.34,166c5.82,12.17,16.03,20.25,27.65,20.25s21.83-8.08,27.65-20.25h-55.31.01Z" fill="none" stroke="#000" stroke-linecap="round" stroke-linejoin="round"/><ellipse id="uuid-1cd7132b-cf7f-4fd7-8db9-fc5335f82f4f" cx="353" cy="141.5" rx="2.94" ry="4.54" transform="translate(-19.1 62.93) rotate(-9.92)" fill="none" stroke="#000" stroke-linecap="round" stroke-linejoin="round" stroke-width="1"/><ellipse id="uuid-64d10bca-cf9b-4508-b9f0-ff9947a39278" cx="338" cy="143.51" rx="2.94" ry="4.54" transform="translate(-19.67 60.37) rotate(-9.92)" fill="none" stroke="#000" stroke-linecap="round" stroke-linejoin="round" stroke-width="1"/><rect id="uuid-32459d6c-95d0-4c30-9c23-f945f9ee5048" x="359.53" y="165.55" width="34.96" height="16.39" transform="translate(-37.97 184.59) rotate(-26.24)" fill="none" stroke="#000" stroke-linecap="round" stroke-linejoin="round" stroke-width="1"/><rect id="uuid-19d421f8-d3f0-4fd8-8869-d37c263919cd" x="284.9" y="157.88" width="16.39" height="34.96" transform="translate(-.62 349.67) rotate(-61.58)" fill="none" stroke="#000" stroke-linecap="round" stroke-linejoin="round" stroke-width="1"/><rect id="uuid-decb2afd-9a01-4534-996c-93b5590ea405" x="258.84" y="139.02" width="16.39" height="34.96" transform="translate(-30.92 240.29) rotate(-46.08)" fill="none" stroke="#000" stroke-linecap="round" stroke-linejoin="round" stroke-width="1"/><rect id="uuid-e8eb6849-6560-4606-92a0-e9f2aca1d2ac" x="239.5" y="130.54" width="17.71" height="17.71" transform="translate(-20.48 233.41) rotate(-48.58)" fill="none" stroke="#000" stroke-linecap="round" stroke-linejoin="round" stroke-width="1"/><circle id="uuid-10378550-3349-4c29-8143-0e36b3b61fb9" cx="334.5" cy="224.5" r="2.5" fill="none" stroke="#000" stroke-linecap="round" stroke-linejoin="round"/><circle id="uuid-9ec7c60f-6ef0-4fe2-bcaf-28e83b6410a2" cx="334.5" cy="215.5" r="2.5" fill="none" stroke="#000" stroke-linecap="round" stroke-linejoin="round"/><circle id="uuid-cb223dca-b0f5-4426-bb81-2b62199593a8" cx="334.5" cy="207.5" r="2.5" fill="none" stroke="#000" stroke-linecap="round" stroke-linejoin="round"/><circle id="uuid-a8f46e70-cca6-4781-ae46-bd697852227b" cx="334.5" cy="195.5" r="2.5" fill="none" stroke="#000" stroke-linecap="round" stroke-linejoin="round"/><path d="M363.38,108.88c-3.12-15.07-19.62-25.74-38.58-24.3-18.96,1.43-33.67,14.47-34.48,29.83-6.27,1.39-9.98,2.82-9.88,4.07.22,2.93,21.29,3.73,47.07,1.78,25.77-1.95,46.49-5.91,46.26-8.84-.09-1.25-3.98-2.11-10.38-2.53h0Z" fill="none" stroke="#000" stroke-linecap="round" stroke-linejoin="round"/><polygon id="uuid-4770b592-ded3-4b73-aa3b-177569114697" points="384.39 318.32 363.52 314.28 356.06 352.88 354.55 360.66 385.85 366.71 387.42 358.59 376.99 356.58 384.39 318.32" fill="none" stroke="#000" stroke-linecap="round" stroke-linejoin="round"/><rect id="uuid-2c530bae-a2a0-49df-a17d-78505fe14785" x="349.2" y="272.78" width="27.16" height="54.31" transform="translate(-95.02 190.43) rotate(-26.13)" fill="none" stroke="#000" stroke-linecap="round" stroke-linejoin="round" stroke-width="1"/><polygon id="uuid-535258dc-4647-4082-a628-7b0f72bd1926" points="296.09 308.84 302.03 329.25 264.61 340.14 267.58 350.34 259.65 352.65 250.74 322.04 258.34 319.83 258.34 319.83 296.09 308.84" fill="none" stroke="#000" stroke-linecap="round" stroke-linejoin="round"/><rect id="uuid-4ef319a7-384e-43b0-aa5b-6813ade484be" x="277.64" y="286.76" width="54.31" height="27.16" transform="translate(-101.68 434.07) rotate(-62.79)" fill="none" stroke="#000" stroke-linecap="round" stroke-linejoin="round" stroke-width="1"/><path id="uuid-acffe585-950a-444b-b188-9adf8da0de30" d="M304,174v109h61v-109h-61Z" fill="none" stroke="#000" stroke-linecap="round" stroke-linejoin="round"/><rect id="uuid-ffae216e-b04d-4bdd-b297-fd32e0acabda" x="304" y="237" width="61" height="19" fill="none" stroke="#000" stroke-linecap="round" stroke-linejoin="round"/><rect id="uuid-7f408e4b-154b-4a1f-9d6b-0cf128c1c080" x="348" y="172" width="8" height="65" fill="none" stroke="#000" stroke-linecap="round" stroke-linejoin="round"/><rect id="uuid-0467dc86-886b-41fd-929b-e6e87b5715bb" x="315" y="172" width="8" height="65" fill="none" stroke="#000" stroke-linecap="round" stroke-linejoin="round"/><path id="uuid-1f00a1e9-f775-4c38-b5a2-d77d6932acb5" d="M363.64,150.88c1.24-6.13,1.41-12.85.31-19.75-3.81-23.83-21.4-40.84-39.27-37.98-17.88,2.86-29.27,24.5-25.46,48.34,1.1,6.9,3.37,13.23,6.46,18.67l57.97-9.28h-.01Z" fill="none" stroke="#000" stroke-linecap="round" stroke-linejoin="round"/><path id="uuid-f4dd5070-5d93-470f-a1a4-5c804fb8a4e3" d="M307.34,166c5.82,12.17,16.03,20.25,27.65,20.25s21.83-8.08,27.65-20.25h-55.31.01Z" fill="none" stroke="#000" stroke-linecap="round" stroke-linejoin="round"/><ellipse id="uuid-5926fb32-142a-4ee5-b69f-fe36aad7c616" cx="353" cy="141.5" rx="2.94" ry="4.54" transform="translate(-19.1 62.93) rotate(-9.92)" fill="none" stroke="#000" stroke-linecap="round" stroke-linejoin="round" stroke-width="1"/><ellipse id="uuid-d652a145-82a1-432c-a27a-aca351022a8a" cx="338" cy="143.51" rx="2.94" ry="4.54" transform="translate(-19.67 60.37) rotate(-9.92)" fill="none" stroke="#000" stroke-linecap="round" stroke-linejoin="round" stroke-width="1"/><rect id="uuid-e5e8091a-8f5c-46c3-8e30-fb60f552a6a1" x="359.53" y="165.55" width="34.96" height="16.39" transform="translate(-37.97 184.59) rotate(-26.24)" fill="none" stroke="#000" stroke-linecap="round" stroke-linejoin="round" stroke-width="1"/><rect id="uuid-27f697c3-db9a-42eb-b837-2078da159688" x="284.9" y="157.88" width="16.39" height="34.96" transform="translate(-.62 349.67) rotate(-61.58)" fill="none" stroke="#000" stroke-linecap="round" stroke-linejoin="round" stroke-width="1"/><rect id="uuid-4294a242-7551-49c3-98fb-7b0588380ca0" x="258.84" y="139.02" width="16.39" height="34.96" transform="translate(-30.92 240.29) rotate(-46.08)" fill="none" stroke="#000" stroke-linecap="round" stroke-linejoin="round" stroke-width="1"/><rect id="uuid-a51e1293-0697-439b-8a70-0cf985e8005c" x="239.5" y="130.54" width="17.71" height="17.71" transform="translate(-20.48 233.41) rotate(-48.58)" fill="none" stroke="#000" stroke-linecap="round" stroke-linejoin="round" stroke-width="1"/><circle id="uuid-e6aaac52-1741-4ec7-8289-d1c26ed82393" cx="334.5" cy="224.5" r="2.5" fill="none" stroke="#000" stroke-linecap="round" stroke-linejoin="round"/><circle id="uuid-bfa37fb9-d901-4461-9d13-2e22f13bfd86" cx="334.5" cy="215.5" r="2.5" fill="none" stroke="#000" stroke-linecap="round" stroke-linejoin="round"/><circle id="uuid-296eedb2-54b6-4fef-b3d6-884a3e887075" cx="334.5" cy="207.5" r="2.5" fill="none" stroke="#000" stroke-linecap="round" stroke-linejoin="round"/><circle id="uuid-375b28a8-525a-4f2f-960e-d0a54b27e1d4" cx="334.5" cy="195.5" r="2.5" fill="none" stroke="#000" stroke-linecap="round" stroke-linejoin="round"/><path d="M363.38,108.88c-3.12-15.07-19.62-25.74-38.58-24.3-18.96,1.43-33.67,14.47-34.48,29.83-6.27,1.39-9.98,2.82-9.88,4.07.22,2.93,21.29,3.73,47.07,1.78,25.77-1.95,46.49-5.91,46.26-8.84-.09-1.25-3.98-2.11-10.38-2.53h0Z" fill="none" stroke="#000" stroke-linecap="round" stroke-linejoin="round"/></g><path d="M398.42,178.73c-.97-1.4-1.4-2.59-1.65-3.3-.08-.22-.34-.22-.41,0-.25.71-.67,1.9-1.65,3.3-.61.88-1.21,2.16-1.21,3.42,0,2.16,1.32,3.62,3.06,3.62s3.06-1.46,3.06-3.62c0-1.31-.6-2.55-1.21-3.42h0Z" fill="none" stroke="#000" stroke-linecap="round" stroke-linejoin="round"/><path d="M397.42,182.51c.49-1.09.42-2.16.81-1.97.53.26,1.11,1.62.89,2.84-.16.87-.66,1.4-1.3,1.15-.52-.2-.84-1.04-.4-2.02h0Z" fill="none" stroke="#000" stroke-linecap="round" stroke-linejoin="round"/><path d="M387.79,175.58l-5.93-12.03c-.57-1.16-.1-2.57,1.07-3.14l6.96-3.43c1.16-.57,2.57-.1,3.14,1.07l4.95,10.03c1.12,2.27.19,5.01-2.08,6.13l-4.96,2.44c-1.16.57-2.57.1-3.14-1.07h-.01Z" fill="none" stroke="#000" stroke-linecap="round" stroke-linejoin="round"/><ellipse cx="384" cy="167.01" rx="10.75" ry="5.79" transform="translate(-34.41 183.7) rotate(-25.79)" fill="none" stroke="#000" stroke-linecap="round" stroke-linejoin="round" stroke-width="1"/><ellipse cx="385.99" cy="170.99" rx="2.72" ry="9.46" transform="translate(99.35 480.93) rotate(-71.13)" fill="none" stroke="#000" stroke-linecap="round" stroke-linejoin="round" stroke-width="1"/><path d="M139.52,96.29s16.31,8.65,28.41,30.39c12.11,21.75,17.57,34.88,17.57,34.88l61.13-22.88s-9.27-31.79-21.81-43.01c-12.54-11.23-30.64-23.04-30.64-23.04,0,0-54.66,23.66-54.66,23.66Z" fill="none" stroke="#000" stroke-linecap="round" stroke-linejoin="round"/><g isolation="isolate"><text transform="translate(172.41 110.92) rotate(-28.66)" fill="#333" font-family="ComicNeue-Regular, &apos;Comic Neue&apos;" font-size="18" isolation="isolate"><tspan x="0" y="0">War</tspan></text></g><g isolation="isolate"><text transform="translate(183.43 124.79) rotate(-28.66)" fill="#333" font-family="ComicNeue-Regular, &apos;Comic Neue&apos;" font-size="18" isolation="isolate"><tspan x="0" y="0">over</tspan></text></g><g isolation="isolate"><text transform="translate(192.93 142.28) rotate(-28.66)" fill="#333" font-family="ComicNeue-Regular, &apos;Comic Neue&apos;" font-size="18" isolation="isolate"><tspan x="0" y="0">by 11</tspan></text></g><polygon points="208.4 284.47 213.36 287 191.04 287 203.44 283.84 208.4 284.47" fill="#633d35"/><path d="M105,265h23.88c0,.35,2.19.27,2.75-.18.37-.29-.41-.94-2.67-1.72-.3-.11-.34-.25-.1-.36.66-.3,1.96-.95,5.89-1.35,4.34-.45,7.99-.36,9.54-.29.52.02,1,.09,1.37.17,3.32.73,31.53,4.73,31.53,4.73,0,0,15.44-.06,24.8-.06,8.54,0,15.67,3.78,17.32,8.8l-2.94,2.8,2.21,3.23c-.61,1.03-1.44,1.99-2.48,2.85l-23.16,2.16,19.75.61s-6.34,1.62-10.7,1.62c-9.44,0-97,.61-97,.61v-23.61h0Z" fill="#ad7156"/><path d="M112.27,264.82s-.04.1-.07.14c.04-.05.06-.11.07-.14Z" fill="url(#uuid-a854b183-1c15-4767-bdaa-2f2982ad3d1c)"/><path d="M122.39,281.17c6.16.1,12.26.27,18.35.46l9.11.28c3.03.09,6.03.2,8.95.18,2.99,0,6.05-.04,9.09-.08l9.17-.11c6.12-.07,12.25-.14,18.41-.12-6.02.36-12.1.62-18.2.82-6.11.2-12.2.36-18.46.39-3.22,0-6.32-.12-9.37-.23-3.04-.13-6.08-.26-9.09-.43-6.03-.32-12.02-.69-17.96-1.15h0Z" fill="#ce8963"/><path d="M153.39,285.3c.78-.08,1.62-.09,2.42-.11.82-.02,1.64-.03,2.46-.04,1.64-.01,3.28-.02,4.92-.01,3.28,0,6.54.04,9.81.09s6.52.11,9.78.18c3.26.06,6.51.16,9.77.24h-.4l5.77-.42,5.79-.41c3.88-.26,7.75-.51,11.68-.72-3.72.4-7.5.76-11.27,1.1l-5.68.51-5.68.49-.18.02h-.21c-3.24-.08-6.5-.14-9.76-.23-3.24-.08-6.5-.16-9.74-.25l-9.73-.27-4.87-.13c-.81-.02-1.63-.04-2.44-.05-.81,0-1.63-.04-2.44,0h0Z" fill="#ce8963"/><path d="M189.38,278h27.68l2.21-2.4s-16.61,1.5-29.9,2.4h0Z" fill="#ce8963"/><path d="M170.55,269.3c-14.34-1.7-29.82-7.71-29.82-7.71l-.48-.18c1.95-.03,3.37,0,4.14.04.34.02.91.09,1.12.14,2.61.58,20.4,4.4,31.67,4.4,0,0,16-.06,25.41-.06,4.22,0,10.02,1.26,13.34,3.96l-32.11-1.2,9.97,2.7s-13.15-.9-23.24-2.1h0Z" fill="#965b44"/><path d="M128.07,265.83c4.56-.08,3.53-.92,3.53-.92,1.71.97,2.67,2.38.63,3.2-2.25.9-13.96,1.33-13.96,1.33l-6.76-.6-6.23-2.83,22.8-.17h0Z" fill="#965b44"/><path d="M100.38,277.96c.14,6.02,2.24,10.8,4.81,10.8s4.82-5.12,4.82-11.43-2.16-11.43-4.82-11.43-4.65,4.74-4.81,10.72" fill="#ffcc80"/><path d="M100.38,277.96c.17,2.15.51,4.3,1.25,6.3.36,1,.81,1.97,1.44,2.78.32.4.67.77,1.08,1.01.4.25.85.35,1.28.28s.84-.32,1.19-.65c.35-.33.66-.74.92-1.17.52-.88.89-1.87,1.17-2.87.56-2.03.79-4.15.79-6.27s-.22-4.24-.77-6.27c-.28-1.01-.64-2-1.15-2.88-.26-.44-.55-.85-.9-1.19-.34-.34-.74-.6-1.17-.68-.43-.1-.88,0-1.29.23s-.77.59-1.09.99c-.64.8-1.09,1.77-1.46,2.77-.75,2-1.09,4.14-1.27,6.29,0-.54,0-1.08.01-1.62.03-.54.07-1.08.14-1.62.13-1.08.33-2.15.64-3.21.32-1.05.74-2.09,1.4-3.02.33-.47.73-.9,1.25-1.22.51-.32,1.18-.5,1.82-.39.64.1,1.19.45,1.63.85.44.4.79.87,1.09,1.36.59.97,1,2.02,1.32,3.08.61,2.14.85,4.34.86,6.54-.02,2.2-.26,4.41-.89,6.54-.32,1.06-.74,2.11-1.34,3.08-.3.48-.66.95-1.11,1.34-.44.39-1.01.72-1.65.8-.32.04-.65.02-.95-.06-.31-.08-.59-.22-.84-.39-.51-.33-.9-.78-1.22-1.24-.64-.94-1.06-1.97-1.37-3.02-.31-1.05-.5-2.13-.63-3.21-.06-.54-.11-1.08-.13-1.62s-.02-1.09-.01-1.63h-.04Z" fill="#ce8963"/><path d="M104.39,288.93c2.11,0,3.82-4.3,3.82-9.61s-1.71-9.61-3.82-9.61-4.54,1.88-3.82,9.61c.5,5.28,1.71,9.61,3.82,9.61Z" fill="url(#uuid-cf0fc623-4ce6-484e-a72f-373750fde731)"/><g opacity=".66"><path d="M104.68,286.18c.42,0,.79-.24,1.08-.54.29-.3.51-.66.7-1.04.37-.75.61-1.57.8-2.39.35-1.64.47-3.33.45-5.01s-.19-3.35-.59-4.97c-.2-.8-.47-1.6-.84-2.33-.19-.36-.41-.7-.68-.98-.27-.27-.59-.47-.92-.46-.33,0-.64.21-.9.48-.26.28-.47.62-.65.98-.36.73-.6,1.52-.78,2.33-.19.81-.31,1.63-.39,2.45-.09.83-.13,1.66-.14,2.49-.01,1.67.07,3.34.39,4.98.17.82.38,1.63.74,2.39.18.38.4.74.68,1.04.28.3.65.55,1.07.56l-.02.02ZM104.68,286.24c-.44,0-.84-.25-1.14-.55-.3-.31-.55-.66-.75-1.04-.41-.75-.7-1.56-.93-2.38-.46-1.64-.68-3.35-.7-5.06,0-.86.03-1.71.12-2.56.09-.85.23-1.7.44-2.54.21-.83.48-1.66.89-2.44.2-.39.45-.77.77-1.1.17-.16.35-.32.57-.43.22-.12.47-.19.73-.19s.51.08.73.2c.21.12.4.27.56.44.31.34.55.71.74,1.11.39.78.64,1.61.83,2.44.38,1.67.51,3.37.5,5.07-.03,1.7-.21,3.4-.64,5.04-.21.82-.48,1.63-.87,2.38-.19.38-.43.74-.72,1.05-.29.3-.68.56-1.12.57h-.01Z" fill="#7f441c"/></g><path d="M104.35,284.16c1.11,0,2.02-2.9,2.02-6.47s-.9-6.47-2.02-6.47-2.02,2.9-2.02,6.47.9,6.47,2.02,6.47ZM104.35,283.05c-.83,0-1.51-2.29-1.51-5.11s.68-5.11,1.51-5.11,1.51,2.29,1.51,5.11-.68,5.11-1.51,5.11Z" fill="#b5772c" isolation="isolate" opacity=".82"/><ellipse cx="104.5" cy="277.5" rx=".5" ry="2.5" fill="url(#uuid-78fd0789-b5a4-46ac-9212-9872c45e2357)" isolation="isolate" opacity=".74"/><polygon points="208.4 284.47 213.36 287 191.04 287 203.44 283.84 208.4 284.47" fill="none" stroke="#000" stroke-linecap="round" stroke-linejoin="round"/><path d="M105,265h23.88c0,.35,2.19.27,2.75-.18.37-.29-.41-.94-2.67-1.72-.3-.11-.34-.25-.1-.36.66-.3,1.96-.95,5.89-1.35,4.34-.45,7.99-.36,9.54-.29.52.02,1,.09,1.37.17,3.32.73,31.53,4.73,31.53,4.73,0,0,15.44-.06,24.8-.06,8.54,0,15.67,3.78,17.32,8.8l-2.94,2.8,2.21,3.23c-.61,1.03-1.44,1.99-2.48,2.85l-23.16,2.16,19.75.61s-6.34,1.62-10.7,1.62c-9.44,0-97,.61-97,.61v-23.61h0Z" fill="none" stroke="#000" stroke-linecap="round" stroke-linejoin="round"/><path d="M112.27,264.82s-.04.1-.07.14c.04-.05.06-.11.07-.14Z" fill="none" stroke="#000" stroke-linecap="round" stroke-linejoin="round"/><path d="M122.39,281.17c6.16.1,12.26.27,18.35.46l9.11.28c3.03.09,6.03.2,8.95.18,2.99,0,6.05-.04,9.09-.08l9.17-.11c6.12-.07,12.25-.14,18.41-.12-6.02.36-12.1.62-18.2.82-6.11.2-12.2.36-18.46.39-3.22,0-6.32-.12-9.37-.23-3.04-.13-6.08-.26-9.09-.43-6.03-.32-12.02-.69-17.96-1.15h0Z" fill="none" stroke="#000" stroke-linecap="round" stroke-linejoin="round"/><path d="M153.39,285.3c.78-.08,1.62-.09,2.42-.11.82-.02,1.64-.03,2.46-.04,1.64-.01,3.28-.02,4.92-.01,3.28,0,6.54.04,9.81.09s6.52.11,9.78.18c3.26.06,6.51.16,9.77.24h-.4l5.77-.42,5.79-.41c3.88-.26,7.75-.51,11.68-.72-3.72.4-7.5.76-11.27,1.1l-5.68.51-5.68.49-.18.02h-.21c-3.24-.08-6.5-.14-9.76-.23-3.24-.08-6.5-.16-9.74-.25l-9.73-.27-4.87-.13c-.81-.02-1.63-.04-2.44-.05-.81,0-1.63-.04-2.44,0h0Z" fill="none" stroke="#000" stroke-linecap="round" stroke-linejoin="round"/><path d="M189.38,278h27.68l2.21-2.4s-16.61,1.5-29.9,2.4h0Z" fill="none" stroke="#000" stroke-linecap="round" stroke-linejoin="round"/><path d="M170.55,269.3c-14.34-1.7-29.82-7.71-29.82-7.71l-.48-.18c1.95-.03,3.37,0,4.14.04.34.02.91.09,1.12.14,2.61.58,20.4,4.4,31.67,4.4,0,0,16-.06,25.41-.06,4.22,0,10.02,1.26,13.34,3.96l-32.11-1.2,9.97,2.7s-13.15-.9-23.24-2.1h0Z" fill="none" stroke="#000" stroke-linecap="round" stroke-linejoin="round"/><path d="M128.07,265.83c4.56-.08,3.53-.92,3.53-.92,1.71.97,2.67,2.38.63,3.2-2.25.9-13.96,1.33-13.96,1.33l-6.76-.6-6.23-2.83,22.8-.17h0Z" fill="none" stroke="#000" stroke-linecap="round" stroke-linejoin="round"/><path d="M100.38,277.96c.14,6.02,2.24,10.8,4.81,10.8s4.82-5.12,4.82-11.43-2.16-11.43-4.82-11.43-4.65,4.74-4.81,10.72" fill="none" stroke="#000" stroke-linecap="round" stroke-linejoin="round"/><path d="M100.38,277.96c.17,2.15.51,4.3,1.25,6.3.36,1,.81,1.97,1.44,2.78.32.4.67.77,1.08,1.01.4.25.85.35,1.28.28s.84-.32,1.19-.65c.35-.33.66-.74.92-1.17.52-.88.89-1.87,1.17-2.87.56-2.03.79-4.15.79-6.27s-.22-4.24-.77-6.27c-.28-1.01-.64-2-1.15-2.88-.26-.44-.55-.85-.9-1.19-.34-.34-.74-.6-1.17-.68-.43-.1-.88,0-1.29.23s-.77.59-1.09.99c-.64.8-1.09,1.77-1.46,2.77-.75,2-1.09,4.14-1.27,6.29,0-.54,0-1.08.01-1.62.03-.54.07-1.08.14-1.62.13-1.08.33-2.15.64-3.21.32-1.05.74-2.09,1.4-3.02.33-.47.73-.9,1.25-1.22.51-.32,1.18-.5,1.82-.39.64.1,1.19.45,1.63.85.44.4.79.87,1.09,1.36.59.97,1,2.02,1.32,3.08.61,2.14.85,4.34.86,6.54-.02,2.2-.26,4.41-.89,6.54-.32,1.06-.74,2.11-1.34,3.08-.3.48-.66.95-1.11,1.34-.44.39-1.01.72-1.65.8-.32.04-.65.02-.95-.06-.31-.08-.59-.22-.84-.39-.51-.33-.9-.78-1.22-1.24-.64-.94-1.06-1.97-1.37-3.02-.31-1.05-.5-2.13-.63-3.21-.06-.54-.11-1.08-.13-1.62s-.02-1.09-.01-1.63h-.04Z" fill="none" stroke="#000" stroke-linecap="round" stroke-linejoin="round"/><path d="M104.39,288.93c2.11,0,3.82-4.3,3.82-9.61s-1.71-9.61-3.82-9.61-4.54,1.88-3.82,9.61c.5,5.28,1.71,9.61,3.82,9.61Z" fill="none" stroke="#000" stroke-linecap="round" stroke-linejoin="round"/><path d="M104.68,286.18c.42,0,.79-.24,1.08-.54.29-.3.51-.66.7-1.04.37-.75.61-1.57.8-2.39.35-1.64.47-3.33.45-5.01s-.19-3.35-.59-4.97c-.2-.8-.47-1.6-.84-2.33-.19-.36-.41-.7-.68-.98-.27-.27-.59-.47-.92-.46-.33,0-.64.21-.9.48-.26.28-.47.62-.65.98-.36.73-.6,1.52-.78,2.33-.19.81-.31,1.63-.39,2.45-.09.83-.13,1.66-.14,2.49-.01,1.67.07,3.34.39,4.98.17.82.38,1.63.74,2.39.18.38.4.74.68,1.04.28.3.65.55,1.07.56l-.02.02ZM104.68,286.24c-.44,0-.84-.25-1.14-.55-.3-.31-.55-.66-.75-1.04-.41-.75-.7-1.56-.93-2.38-.46-1.64-.68-3.35-.7-5.06,0-.86.03-1.71.12-2.56.09-.85.23-1.7.44-2.54.21-.83.48-1.66.89-2.44.2-.39.45-.77.77-1.1.17-.16.35-.32.57-.43.22-.12.47-.19.73-.19s.51.08.73.2c.21.12.4.27.56.44.31.34.55.71.74,1.11.39.78.64,1.61.83,2.44.38,1.67.51,3.37.5,5.07-.03,1.7-.21,3.4-.64,5.04-.21.82-.48,1.63-.87,2.38-.19.38-.43.74-.72,1.05-.29.3-.68.56-1.12.57h-.01Z" fill="none" stroke="#000" stroke-linecap="round" stroke-linejoin="round"/><path d="M104.35,284.16c1.11,0,2.02-2.9,2.02-6.47s-.9-6.47-2.02-6.47-2.02,2.9-2.02,6.47.9,6.47,2.02,6.47ZM104.35,283.05c-.83,0-1.51-2.29-1.51-5.11s.68-5.11,1.51-5.11,1.51,2.29,1.51,5.11-.68,5.11-1.51,5.11Z" fill="none" stroke="#000" stroke-linecap="round" stroke-linejoin="round"/><ellipse cx="104.5" cy="277.5" rx=".5" ry="2.5" fill="none" stroke="#000" stroke-linecap="round" stroke-linejoin="round"/><g id="uuid-62b7e94e-70c5-499d-afdb-f8b22af373ed"><polygon id="uuid-fe818c3e-c6f6-4711-a930-1a5034a2cb70" points="208.94 285.16 200.92 287.97 205.81 301.89 206.8 304.7 218.81 300.48 217.83 297.68 213.82 299.08 208.94 285.16" fill="#5f5f5f"/><rect id="uuid-98e6425f-9148-4de4-8a7c-029b8256aa12" x="194.04" y="269.17" width="10.57" height="20.86" transform="translate(-129.26 179.92) rotate(-37.64)" fill="#727272"/><polygon id="uuid-495d6681-4b10-4f83-b5fc-c7f7f8d3151d" points="182.66 291.76 190.74 289.15 195.27 303.2 199.31 301.9 200.22 304.73 188.09 308.63 187.18 305.8 187.18 305.8 182.66 291.76" fill="#5f5f5f"/><rect id="uuid-2e145815-643a-4626-a895-ff4e1df56b81" x="177.3" y="271.57" width="10.57" height="20.86" transform="translate(-101.73 103.04) rotate(-24.89)" fill="#727272"/><path id="uuid-c2b19081-0521-48c9-a5a4-ec15c04a0829" d="M173,233v42h24v-42h-24Z" fill="#727272"/><rect id="uuid-9c0846ad-de56-4917-8761-65464143a736" x="173" y="257" width="24" height="7" fill="#acacac"/><rect id="uuid-7623352d-86e7-4d80-9ac1-62c61e7926c3" x="190" y="233" width="3" height="25" fill="#acacac"/><rect id="uuid-51f3b499-d287-44c6-b965-b1501e3cbc1d" x="178" y="233" width="3" height="25" fill="#acacac"/><path id="uuid-4dec1a44-ddf8-4a8d-a4db-27088323e2c6" d="M196.71,224.03c.5-2.38.59-4.99.19-7.67-1.4-9.27-8.17-15.94-15.13-14.89s-11.46,9.42-10.06,18.69c.4,2.69,1.26,5.15,2.44,7.28l22.56-3.4h0Z" fill="#ccc"/><path id="uuid-93ac2798-a1a8-4c24-a458-457df3af84de" d="M174.62,230c2.26,4.73,6.23,7.87,10.74,7.87s8.48-3.14,10.74-7.87h-21.49,0Z" fill="#ccc"/><ellipse id="uuid-8349ac98-cff1-480c-a7db-933a3019fce6" cx="191.02" cy="216.98" rx=".99" ry="2" transform="translate(-16.86 16.09) rotate(-4.62)" fill="#333"/><ellipse id="uuid-178c19e1-9862-4467-b6b0-8f5446048947" cx="183.01" cy="217.98" rx=".99" ry="2" transform="translate(-16.96 15.45) rotate(-4.62)" fill="#333"/><rect id="uuid-768b7db6-6f23-4c23-8623-aee2e9227001" x="197.98" y="246.2" width="6.37" height="13.59" transform="translate(-9.65 7.98) rotate(-2.22)" fill="#727272"/><rect id="uuid-d7a811cf-5f1a-4d3a-a62b-650c5e3a3d74" x="197.44" y="232.63" width="6.37" height="13.59" transform="translate(-9.12 7.95) rotate(-2.22)" fill="#727272"/><rect id="uuid-0fe023ba-05ce-4a48-a800-16e4cb70fd92" x="162.82" y="235.9" width="13.59" height="6.37" transform="translate(-89.73 375.72) rotate(-82.43)" fill="#727272"/><rect id="uuid-1dc5d4db-a641-43d3-96cc-dad21e914968" x="161.04" y="249.37" width="13.59" height="6.37" transform="translate(-104.63 385.65) rotate(-82.43)" fill="#727272"/><rect id="uuid-8a4e3e91-0ba7-4204-ac40-d382e4e1bcc3" x="198.16" y="259.93" width="6.79" height="6.79" transform="translate(-10.05 8.01) rotate(-2.22)" fill="#ccc"/><rect id="uuid-6d714fb2-6f55-4847-8fd0-83b2ad2355cd" x="163.08" y="259.24" width="6.79" height="6.79" transform="translate(-115.8 393.07) rotate(-82.43)" fill="#ccc"/><circle id="uuid-18b5c3f9-971c-4749-9ae7-557b0a9b7450" cx="185" cy="253" r="1" fill="#333"/><circle id="uuid-5a0d0b2f-9844-4a8f-9fa7-49b6aa05094e" cx="185" cy="249" r="1" fill="#333"/><circle id="uuid-60fa1cbd-3f3e-4c44-b867-878698a9a5bc" cx="185" cy="246" r="1" fill="#333"/><circle id="uuid-34d22783-aa92-49ca-8648-0f58f2165113" cx="185" cy="242" r="1" fill="#333"/><path d="M196.94,206.53c-1.64-5.75-8.34-9.41-15.65-8.31s-12.63,6.57-12.5,12.55c-2.39.72-3.79,1.38-3.71,1.86.17,1.13,8.36.83,18.29-.67s17.84-3.63,17.67-4.76c-.07-.48-1.6-.7-4.1-.68h0Z" fill="#6a6a6a"/><polygon id="uuid-a4e6ff06-d9b8-40b0-86c3-81ab6df9d3de" points="208.94 285.16 200.92 287.97 205.81 301.89 206.8 304.7 218.81 300.48 217.83 297.68 213.82 299.08 208.94 285.16" fill="none" stroke="#000" stroke-linecap="round" stroke-linejoin="round"/><rect id="uuid-e5c65abc-90f5-45d3-9e03-f377efecc1af" x="194.04" y="269.17" width="10.57" height="20.86" transform="translate(-129.26 179.92) rotate(-37.64)" fill="none" stroke="#000" stroke-linecap="round" stroke-linejoin="round" stroke-width="1"/><polygon id="uuid-8e7fe494-9bfc-487f-9342-dc2a06c819cd" points="182.66 291.76 190.74 289.15 195.27 303.2 199.31 301.9 200.22 304.73 188.09 308.63 187.18 305.8 187.18 305.8 182.66 291.76" fill="none" stroke="#000" stroke-linecap="round" stroke-linejoin="round"/><rect id="uuid-b77f8bd1-d261-43b4-a490-97fc907eaa3c" x="177.3" y="271.57" width="10.57" height="20.86" transform="translate(-101.73 103.04) rotate(-24.89)" fill="none" stroke="#000" stroke-linecap="round" stroke-linejoin="round" stroke-width="1"/><path id="uuid-9a99b31a-cf31-4ec7-8d83-16d3325e15c6" d="M173,233v42h24v-42h-24Z" fill="none" stroke="#000" stroke-linecap="round" stroke-linejoin="round"/><rect id="uuid-53ddff8e-3e33-442f-9901-268560efcebf" x="173" y="257" width="24" height="7" fill="none" stroke="#000" stroke-linecap="round" stroke-linejoin="round"/><rect id="uuid-9124fc48-c84f-487a-a79a-0d0a9ee7a4d2" x="190" y="233" width="3" height="25" fill="none" stroke="#000" stroke-linecap="round" stroke-linejoin="round"/><rect id="uuid-29520c47-5fd5-41cf-ab23-e62b7c3744fb" x="178" y="233" width="3" height="25" fill="none" stroke="#000" stroke-linecap="round" stroke-linejoin="round"/><path id="uuid-ceb37f53-5144-470e-84a1-017e25c174f7" d="M196.71,224.03c.5-2.38.59-4.99.19-7.67-1.4-9.27-8.17-15.94-15.13-14.89s-11.46,9.42-10.06,18.69c.4,2.69,1.26,5.15,2.44,7.28l22.56-3.4h0Z" fill="none" stroke="#000" stroke-linecap="round" stroke-linejoin="round"/><path id="uuid-117c8fc9-0781-401d-a43f-4f349e168dd7" d="M174.62,230c2.26,4.73,6.23,7.87,10.74,7.87s8.48-3.14,10.74-7.87h-21.49,0Z" fill="none" stroke="#000" stroke-linecap="round" stroke-linejoin="round"/><ellipse id="uuid-64037fe6-ca7e-430f-849e-3d4e8f36d394" cx="191.02" cy="216.98" rx=".99" ry="2" transform="translate(-16.86 16.09) rotate(-4.62)" fill="none" stroke="#000" stroke-linecap="round" stroke-linejoin="round" stroke-width="1"/><ellipse id="uuid-0d279e8d-eecf-43c4-bf60-77f471ba42fd" cx="183.01" cy="217.98" rx=".99" ry="2" transform="translate(-16.96 15.45) rotate(-4.62)" fill="none" stroke="#000" stroke-linecap="round" stroke-linejoin="round" stroke-width="1"/><rect id="uuid-47895d4b-2ea9-487e-9dbc-88955a48aa36" x="197.98" y="246.2" width="6.37" height="13.59" transform="translate(-9.65 7.98) rotate(-2.22)" fill="none" stroke="#000" stroke-linecap="round" stroke-linejoin="round" stroke-width="1"/><rect id="uuid-dc516d7b-ca19-4b87-a988-42880371c63d" x="197.44" y="232.63" width="6.37" height="13.59" transform="translate(-9.12 7.95) rotate(-2.22)" fill="none" stroke="#000" stroke-linecap="round" stroke-linejoin="round" stroke-width="1"/><rect id="uuid-e3e504dd-a903-481b-ba98-da4e26a33451" x="162.82" y="235.9" width="13.59" height="6.37" transform="translate(-89.73 375.72) rotate(-82.43)" fill="none" stroke="#000" stroke-linecap="round" stroke-linejoin="round" stroke-width="1"/><rect id="uuid-c0821733-2f49-4f29-b1ff-205ee7d58c06" x="161.04" y="249.37" width="13.59" height="6.37" transform="translate(-104.63 385.65) rotate(-82.43)" fill="none" stroke="#000" stroke-linecap="round" stroke-linejoin="round" stroke-width="1"/><rect id="uuid-c2809413-5495-4945-b4e2-e74a38eb6646" x="198.16" y="259.93" width="6.79" height="6.79" transform="translate(-10.05 8.01) rotate(-2.22)" fill="none" stroke="#000" stroke-linecap="round" stroke-linejoin="round" stroke-width="1"/><rect id="uuid-fddc2c1a-9fb6-477b-8275-8b26b4c9d618" x="163.08" y="259.24" width="6.79" height="6.79" transform="translate(-115.8 393.07) rotate(-82.43)" fill="none" stroke="#000" stroke-linecap="round" stroke-linejoin="round" stroke-width="1"/><circle id="uuid-007aee85-015b-4145-98e7-7d2ab56760e5" cx="185" cy="253" r="1" fill="none" stroke="#000" stroke-linecap="round" stroke-linejoin="round"/><circle id="uuid-af827bab-78db-44bb-bfac-1d729083731f" cx="185" cy="249" r="1" fill="none" stroke="#000" stroke-linecap="round" stroke-linejoin="round"/><circle id="uuid-541a2987-e531-46fe-8b88-bc0d7cd56770" cx="185" cy="246" r="1" fill="none" stroke="#000" stroke-linecap="round" stroke-linejoin="round"/><circle id="uuid-74cd003c-895b-4c1b-b636-16e393e116d4" cx="185" cy="242" r="1" fill="none" stroke="#000" stroke-linecap="round" stroke-linejoin="round"/><path d="M196.94,206.53c-1.64-5.75-8.34-9.41-15.65-8.31s-12.63,6.57-12.5,12.55c-2.39.72-3.79,1.38-3.71,1.86.17,1.13,8.36.83,18.29-.67s17.84-3.63,17.67-4.76c-.07-.48-1.6-.7-4.1-.68h0Z" fill="none" stroke="#000" stroke-linecap="round" stroke-linejoin="round"/></g></svg>