<?xml version="1.0" encoding="UTF-8"?><svg id="uuid-d226d545-c738-44b4-8ce3-d1cea8354e70" xmlns="http://www.w3.org/2000/svg" xmlns:xlink="http://www.w3.org/1999/xlink" viewBox="0 0 500 500"><defs><linearGradient id="uuid-58316f08-2ddf-4ef7-93b1-66a01a801011" x1="-10.608839" y1="-1149.875477" x2="-10.614332" y2="-1149.894653" gradientTransform="translate(-1037.647372 254.278056) rotate(-89.999994) scale(1 -1)" gradientUnits="userSpaceOnUse"><stop offset="0" stop-color="#ce8963"/><stop offset="1" stop-color="#d08a61" stop-opacity="0"/></linearGradient><radialGradient id="uuid-f16e6923-0440-4f2b-884e-0c214cebe210" cx="1089.383698" cy="-1147.159498" fx="1089.383698" fy="-1147.159498" r="6.502018" gradientTransform="translate(-584.896349 -1006.699887) rotate(90.000006) scale(1.1788 .60002)" gradientUnits="userSpaceOnUse"><stop offset=".0561" stop-color="#ffa726"/><stop offset=".135" stop-color="#ffa726"/><stop offset="1" stop-color="#ffa726" stop-opacity=".1"/></radialGradient><linearGradient id="uuid-cd338398-fea1-4e17-9326-b63097f3933e" x1="1179.471815" y1="-1142.147375" x2="1184.471815" y2="-1142.147375" gradientTransform="translate(-1037.647242 -904.471944) rotate(90.000006)" gradientUnits="userSpaceOnUse"><stop offset=".000359" stop-color="#8a5140"/><stop offset="1" stop-color="#8a5140"/></linearGradient></defs><text transform="translate(48.175995 418.16687)" fill="#333" font-family="ComicNeue-Regular, &apos;Comic Neue&apos;" font-size="24"><tspan x="0" y="0">The message was quickly disseminated.</tspan></text><g id="uuid-ec3d1ed5-7bb0-4b2b-9402-96eeb7fb3cee"><polygon id="uuid-2e7830bb-2c47-49a7-9dab-b6a54a41caf5" points="384.387758 318.320037 363.520967 314.284737 356.056774 352.88255 354.553634 360.655383 385.85382 366.708333 387.423103 358.59347 376.989708 356.57582 384.387758 318.320037" fill="#5f5f5f"/><rect id="uuid-7604a184-7f11-44c6-a9ef-9c38e8879e26" x="349.20512" y="272.748187" width="27.15713" height="54.314219" transform="translate(-95.012562 190.462229) rotate(-26.134721)" fill="#727272"/><polygon id="uuid-482aba59-3727-4fd9-80bb-58275bda9301" points="296.086025 308.841832 302.025769 329.248318 264.613822 340.137866 267.583699 350.341124 259.647832 352.651029 250.738201 322.041254 258.339583 319.828709 258.339592 319.82874 296.086025 308.841832" fill="#5f5f5f"/><rect id="uuid-ee47f7e0-4229-48a3-82db-f1b9c83a9cb8" x="277.636815" y="286.764611" width="54.314219" height="27.157151" transform="translate(-101.683056 434.066148) rotate(-62.788794)" fill="#727272"/><path id="uuid-f3db9809-a752-4e4a-850c-47a99c0e0c3d" d="M304,174v109h61v-109h-61Z" fill="#727272"/><rect id="uuid-99af3a20-a5a5-4e1b-b25a-c1097e005dc9" x="304" y="237" width="61" height="19" fill="#acacac"/><rect id="uuid-b7ef587e-a03d-4107-9074-0e7bc80cc4f8" x="348" y="172" width="8" height="65" fill="#acacac"/><rect id="uuid-514aa618-7b25-4fc9-80df-80a919aca45c" x="315" y="172" width="8" height="65" fill="#acacac"/><path id="uuid-e4801344-a974-4606-90d7-7a66a9155559" d="M363.637884,150.876841c1.23506-6.131834,1.413548-12.846471.308807-19.749143-3.814615-23.834571-21.398294-40.837078-39.274238-37.976114-17.875944,2.860964-29.274898,24.50201-25.460283,48.336581,1.104741,6.902671,3.369931,13.226209,6.457025,18.666302l57.968689-9.277626Z" fill="#ccc"/><path id="uuid-02e57eca-d611-4709-bf08-317da62cd411" d="M307.343482,166c5.819151,12.171016,16.02513,20.250638,27.652828,20.250638s21.833677-8.079621,27.652828-20.250638h-55.305656Z" fill="#ccc"/><ellipse id="uuid-4b6eb576-b276-4167-8d93-2c18ac0cdefb" cx="353" cy="141.5" rx="2.939493" ry="4.538945" transform="translate(-19.100125 62.93317) rotate(-9.920814)" fill="#333"/><ellipse id="uuid-5b2d5b92-f421-40c5-be83-6e3420ce69ca" cx="338" cy="143.5" rx="2.939493" ry="4.538945" transform="translate(-19.668997 60.378772) rotate(-9.920814)" fill="#333"/><rect id="uuid-4fbd045f-0939-4254-9830-13ae034de4db" x="359.52179" y="165.516384" width="34.964449" height="16.389558" transform="translate(-37.95211 184.620321) rotate(-26.244664)" fill="#727272"/><rect id="uuid-a9a458a7-abc4-4845-b92f-d60d2e37fe13" x="284.912853" y="157.901526" width="16.389558" height="34.964449" transform="translate(-.652504 349.67238) rotate(-61.575358)" fill="#727272"/><rect id="uuid-f926581e-3048-422d-abc0-7fdfb75c0e9c" x="258.848297" y="139.036443" width="16.389558" height="34.964449" transform="translate(-30.939635 240.28263) rotate(-46.076177)" fill="#727272"/><rect id="uuid-7dd0f17b-fe2e-4988-9625-e1385d64d9e9" x="239.510039" y="130.560622" width="17.711158" height="17.711158" transform="translate(-20.497669 233.410296) rotate(-48.576532)" fill="#ccc"/><circle id="uuid-ec4862e1-be53-4e6d-aba4-e44b33d6fda6" cx="334.5" cy="224.5" r="2.5" fill="#333"/><circle id="uuid-311589a3-41a9-4e76-abc7-871cdf1b996c" cx="334.5" cy="215.5" r="2.5" fill="#333"/><circle id="uuid-aab9bb2a-0556-4bb7-95b0-46681b1ce91a" cx="334.5" cy="207.5" r="2.5" fill="#333"/><circle id="uuid-b14f4ab1-f294-4592-955d-ac8f19169616" cx="334.5" cy="195.5" r="2.5" fill="#333"/><path d="M363.384845,108.878745c-3.118814-15.065803-19.618118-25.736938-38.579427-24.302589-18.961309,1.434349-33.667585,14.466064-34.484538,29.829593-6.269276,1.385619-9.978978,2.819154-9.884582,4.067015.221731,2.931161,21.294661,3.72683,47.067705,1.7772,25.773043-1.94963,46.48648-5.906275,46.264749-8.837436-.094396-1.247861-3.977531-2.107027-10.383906-2.533783Z" fill="#6a6a6a"/></g><path d="M398.424944,178.726467c-.970467-1.39838-1.399476-2.587682-1.645173-3.297281-.077792-.22356-.335813-.22356-.412834,0-.245698.709599-.674706,1.898901-1.645173,3.297282-.607697.876137-1.206923,2.158665-1.206923,3.422186,0,2.15595,1.323995,3.615877,3.058513,3.615877s3.058513-1.460832,3.058513-3.615877c0-1.313302-.599225-2.546049-1.206923-3.422186Z" fill="#c1272d"/><path d="M397.419047,182.506089c.489085-1.093362.419765-2.163191.806412-1.970404.525285.263384,1.106795,1.616509.888825,2.842921-.155583.874328-.657761,1.403811-1.297808,1.151288-.516813-.203648-.837991-1.039055-.39743-2.023805Z" fill="#e36250"/><path d="M387.792267,175.581763l-5.933098-12.033959c-.57305-1.162303-.095366-2.569085,1.066938-3.142135l6.958012-3.430506c1.162303-.57305,2.569085-.095366,3.142135,1.066938l4.946566,10.032998c1.117897,2.267403.186038,5.011731-2.081365,6.129629l-4.957051,2.443973c-1.162303.57305-2.569085.095366-3.142135-1.066938Z" fill="#c1272d"/><ellipse cx="384" cy="167" rx="10.74579" ry="5.785997" transform="translate(-34.408686 183.708419) rotate(-25.790813)" fill="#c1272d"/><ellipse cx="386" cy="171" rx="2.720387" ry="9.464724" transform="translate(99.337038 480.937649) rotate(-71.127691)" fill="#c1272d"/><path d="M139.523961,96.285854s16.305039,8.649095,28.412537,30.39426c12.107498,21.745165,17.570871,34.878108,17.570871,34.878108l61.128317-22.878555s-9.2692-31.786543-21.812522-43.01158c-12.543322-11.225038-30.637752-23.044696-30.637752-23.044696l-54.661451,23.662464Z" fill="#fff" stroke="#938c8c" stroke-miterlimit="10"/><g id="uuid-6bacd2d9-8203-4d2d-b4a5-cb3e9770782f"><polygon id="uuid-ca507923-d4ba-46f2-bf9c-3af0b12afa65" points="384.387758 318.320037 363.520967 314.284737 356.056774 352.88255 354.553634 360.655383 385.85382 366.708333 387.423103 358.59347 376.989708 356.57582 384.387758 318.320037" fill="none" stroke="#000" stroke-linecap="round" stroke-linejoin="round"/><rect id="uuid-59d740dd-a275-4aae-90a8-6dd6978ad15d" x="349.20512" y="272.748187" width="27.15713" height="54.314219" transform="translate(-95.012562 190.462229) rotate(-26.134721)" fill="none" stroke="#000" stroke-linecap="round" stroke-linejoin="round"/><polygon id="uuid-df2c5e08-1d3e-491a-b13f-7befeb4b0f75" points="296.086025 308.841832 302.025769 329.248318 264.613822 340.137866 267.583699 350.341124 259.647832 352.651029 250.738201 322.041254 258.339583 319.828709 258.339592 319.82874 296.086025 308.841832" fill="none" stroke="#000" stroke-linecap="round" stroke-linejoin="round"/><rect id="uuid-8dac9563-5f2e-4835-98ce-c2cfbffc3794" x="277.636815" y="286.764611" width="54.314219" height="27.157151" transform="translate(-101.683056 434.066148) rotate(-62.788794)" fill="none" stroke="#000" stroke-linecap="round" stroke-linejoin="round"/><path id="uuid-77d587d4-fcf9-4556-8d1f-ddd2347b4a14" d="M304,174v109h61v-109h-61Z" fill="none" stroke="#000" stroke-linecap="round" stroke-linejoin="round"/><rect id="uuid-8ab19fa6-05e1-4e5b-9a73-b99a68da9eab" x="304" y="237" width="61" height="19" fill="none" stroke="#000" stroke-linecap="round" stroke-linejoin="round"/><rect id="uuid-3459d1f0-20da-4317-a335-1ca088280759" x="348" y="172" width="8" height="65" fill="none" stroke="#000" stroke-linecap="round" stroke-linejoin="round"/><rect id="uuid-a2bd54ea-2ac9-4ca9-b6f3-8a3090ab98f5" x="315" y="172" width="8" height="65" fill="none" stroke="#000" stroke-linecap="round" stroke-linejoin="round"/><path id="uuid-c18053d7-d5ca-4664-9156-658a548ee464" d="M363.637884,150.876841c1.23506-6.131834,1.413548-12.846471.308807-19.749143-3.814615-23.834571-21.398294-40.837078-39.274238-37.976114-17.875944,2.860964-29.274898,24.50201-25.460283,48.336581,1.104741,6.902671,3.369931,13.226209,6.457025,18.666302l57.968689-9.277626Z" fill="none" stroke="#000" stroke-linecap="round" stroke-linejoin="round"/><path id="uuid-a08348b1-f02e-4bbc-a33c-ed45c351ee30" d="M307.343482,166c5.819151,12.171016,16.02513,20.250638,27.652828,20.250638s21.833677-8.079621,27.652828-20.250638h-55.305656Z" fill="none" stroke="#000" stroke-linecap="round" stroke-linejoin="round"/><ellipse id="uuid-175a9074-1c48-491c-9d8e-0fec9a8872de" cx="353" cy="141.5" rx="2.939493" ry="4.538945" transform="translate(-19.100125 62.93317) rotate(-9.920814)" fill="none" stroke="#000" stroke-linecap="round" stroke-linejoin="round"/><ellipse id="uuid-42b3f76f-be8f-4316-9d7b-2adf3602ab81" cx="338" cy="143.5" rx="2.939493" ry="4.538945" transform="translate(-19.668997 60.378772) rotate(-9.920814)" fill="none" stroke="#000" stroke-linecap="round" stroke-linejoin="round"/><rect id="uuid-960c5deb-28a7-4e40-9018-b6eff472c39c" x="359.52179" y="165.516384" width="34.964449" height="16.389558" transform="translate(-37.95211 184.620321) rotate(-26.244664)" fill="none" stroke="#000" stroke-linecap="round" stroke-linejoin="round"/><rect id="uuid-4e3f8043-e51a-4388-9698-639ebe887286" x="284.912853" y="157.901526" width="16.389558" height="34.964449" transform="translate(-.652504 349.67238) rotate(-61.575358)" fill="none" stroke="#000" stroke-linecap="round" stroke-linejoin="round"/><rect id="uuid-f0a9c0c7-47d1-485c-a3cf-76564282d62a" x="258.848297" y="139.036443" width="16.389558" height="34.964449" transform="translate(-30.939635 240.28263) rotate(-46.076177)" fill="none" stroke="#000" stroke-linecap="round" stroke-linejoin="round"/><rect id="uuid-cc186aea-7175-4db8-9a71-eca9e7407202" x="239.510039" y="130.560622" width="17.711158" height="17.711158" transform="translate(-20.497669 233.410296) rotate(-48.576532)" fill="none" stroke="#000" stroke-linecap="round" stroke-linejoin="round"/><circle id="uuid-4aaaf49c-4d43-45da-a1f2-12b8f1d7eec9" cx="334.5" cy="224.5" r="2.5" fill="none" stroke="#000" stroke-linecap="round" stroke-linejoin="round"/><circle id="uuid-2cacc36b-c35c-42ba-8c39-916816ca0289" cx="334.5" cy="215.5" r="2.5" fill="none" stroke="#000" stroke-linecap="round" stroke-linejoin="round"/><circle id="uuid-9e855418-20c5-4ce0-b2a7-2047aaa6e054" cx="334.5" cy="207.5" r="2.5" fill="none" stroke="#000" stroke-linecap="round" stroke-linejoin="round"/><circle id="uuid-898b28a1-4878-43c5-bb1c-a9d3f76cc34e" cx="334.5" cy="195.5" r="2.5" fill="none" stroke="#000" stroke-linecap="round" stroke-linejoin="round"/><path d="M363.384845,108.878745c-3.118814-15.065803-19.618118-25.736938-38.579427-24.302589-18.961309,1.434349-33.667585,14.466064-34.484538,29.829593-6.269276,1.385619-9.978978,2.819154-9.884582,4.067015.221731,2.931161,21.294661,3.72683,47.067705,1.7772,25.773043-1.94963,46.48648-5.906275,46.264749-8.837436-.094396-1.247861-3.977531-2.107027-10.383906-2.533783Z" fill="none" stroke="#000" stroke-linecap="round" stroke-linejoin="round"/><polygon id="uuid-9ac72092-95f3-4560-a036-89fbc70e2824" points="384.387758 318.320037 363.520967 314.284737 356.056774 352.88255 354.553634 360.655383 385.85382 366.708333 387.423103 358.59347 376.989708 356.57582 384.387758 318.320037" fill="none" stroke="#000" stroke-linecap="round" stroke-linejoin="round"/><rect id="uuid-0846fe24-ea7e-4897-9d86-5b67821cec34" x="349.20512" y="272.748187" width="27.15713" height="54.314219" transform="translate(-95.012562 190.462229) rotate(-26.134721)" fill="none" stroke="#000" stroke-linecap="round" stroke-linejoin="round"/><polygon id="uuid-3a9fb501-8ea1-4666-b337-d5375a79bc19" points="296.086025 308.841832 302.025769 329.248318 264.613822 340.137866 267.583699 350.341124 259.647832 352.651029 250.738201 322.041254 258.339583 319.828709 258.339592 319.82874 296.086025 308.841832" fill="none" stroke="#000" stroke-linecap="round" stroke-linejoin="round"/><rect id="uuid-e5fdcb51-34ce-415a-a003-4f7d0e169500" x="277.636815" y="286.764611" width="54.314219" height="27.157151" transform="translate(-101.683056 434.066148) rotate(-62.788794)" fill="none" stroke="#000" stroke-linecap="round" stroke-linejoin="round"/><path id="uuid-7162e6fe-5b3c-49b9-b4fd-36873b266d7e" d="M304,174v109h61v-109h-61Z" fill="none" stroke="#000" stroke-linecap="round" stroke-linejoin="round"/><rect id="uuid-f939e7b3-9e9e-4c5a-a8f6-71cfb5b25143" x="304" y="237" width="61" height="19" fill="none" stroke="#000" stroke-linecap="round" stroke-linejoin="round"/><rect id="uuid-c9ceee9b-e023-48fb-8b6e-ed9864bb3f48" x="348" y="172" width="8" height="65" fill="none" stroke="#000" stroke-linecap="round" stroke-linejoin="round"/><rect id="uuid-f709b936-080f-4a41-b94b-41c6dfa804a1" x="315" y="172" width="8" height="65" fill="none" stroke="#000" stroke-linecap="round" stroke-linejoin="round"/><path id="uuid-7e085d43-0257-4886-a6ff-09956ef81d45" d="M363.637884,150.876841c1.23506-6.131834,1.413548-12.846471.308807-19.749143-3.814615-23.834571-21.398294-40.837078-39.274238-37.976114-17.875944,2.860964-29.274898,24.50201-25.460283,48.336581,1.104741,6.902671,3.369931,13.226209,6.457025,18.666302l57.968689-9.277626Z" fill="none" stroke="#000" stroke-linecap="round" stroke-linejoin="round"/><path id="uuid-ddef9a27-6d2b-41d1-b851-35ae237b2873" d="M307.343482,166c5.819151,12.171016,16.02513,20.250638,27.652828,20.250638s21.833677-8.079621,27.652828-20.250638h-55.305656Z" fill="none" stroke="#000" stroke-linecap="round" stroke-linejoin="round"/><ellipse id="uuid-20bca02f-afff-4257-9267-4da8037715bd" cx="353" cy="141.5" rx="2.939493" ry="4.538945" transform="translate(-19.100125 62.93317) rotate(-9.920814)" fill="none" stroke="#000" stroke-linecap="round" stroke-linejoin="round"/><ellipse id="uuid-edb15bc9-759c-4666-83f6-e908b3e7568f" cx="338" cy="143.5" rx="2.939493" ry="4.538945" transform="translate(-19.668997 60.378772) rotate(-9.920814)" fill="none" stroke="#000" stroke-linecap="round" stroke-linejoin="round"/><rect id="uuid-057844f6-fde0-4c90-a4c3-695b5bb47ba9" x="359.52179" y="165.516384" width="34.964449" height="16.389558" transform="translate(-37.95211 184.620321) rotate(-26.244664)" fill="none" stroke="#000" stroke-linecap="round" stroke-linejoin="round"/><rect id="uuid-47101aaa-d637-4ff4-b971-b11ce3e207b7" x="284.912853" y="157.901526" width="16.389558" height="34.964449" transform="translate(-.652504 349.67238) rotate(-61.575358)" fill="none" stroke="#000" stroke-linecap="round" stroke-linejoin="round"/><rect id="uuid-1068377a-5179-4f13-b7f0-589bb2834de0" x="258.848297" y="139.036443" width="16.389558" height="34.964449" transform="translate(-30.939635 240.28263) rotate(-46.076177)" fill="none" stroke="#000" stroke-linecap="round" stroke-linejoin="round"/><rect id="uuid-52513458-8887-45d2-b69c-482d3beae085" x="239.510039" y="130.560622" width="17.711158" height="17.711158" transform="translate(-20.497669 233.410296) rotate(-48.576532)" fill="none" stroke="#000" stroke-linecap="round" stroke-linejoin="round"/><circle id="uuid-755222b6-eef3-438d-8aa2-85f2170d5b01" cx="334.5" cy="224.5" r="2.5" fill="none" stroke="#000" stroke-linecap="round" stroke-linejoin="round"/><circle id="uuid-2268c5db-948f-4c47-97d6-aa1f12153d21" cx="334.5" cy="215.5" r="2.5" fill="none" stroke="#000" stroke-linecap="round" stroke-linejoin="round"/><circle id="uuid-147f032d-8ee4-42fb-b1b7-a58135baf539" cx="334.5" cy="207.5" r="2.5" fill="none" stroke="#000" stroke-linecap="round" stroke-linejoin="round"/><circle id="uuid-a788ddd2-9b16-4466-8e6d-bf481c6c6021" cx="334.5" cy="195.5" r="2.5" fill="none" stroke="#000" stroke-linecap="round" stroke-linejoin="round"/><path d="M363.384845,108.878745c-3.118814-15.065803-19.618118-25.736938-38.579427-24.302589-18.961309,1.434349-33.667585,14.466064-34.484538,29.829593-6.269276,1.385619-9.978978,2.819154-9.884582,4.067015.221731,2.931161,21.294661,3.72683,47.067705,1.7772,25.773043-1.94963,46.48648-5.906275,46.264749-8.837436-.094396-1.247861-3.977531-2.107027-10.383906-2.533783Z" fill="none" stroke="#000" stroke-linecap="round" stroke-linejoin="round"/></g><path d="M398.424944,178.726467c-.970467-1.39838-1.399476-2.587682-1.645173-3.297281-.077792-.22356-.335813-.22356-.412834,0-.245698.709599-.674706,1.898901-1.645173,3.297282-.607697.876137-1.206923,2.158665-1.206923,3.422186,0,2.15595,1.323995,3.615877,3.058513,3.615877s3.058513-1.460832,3.058513-3.615877c0-1.313302-.599225-2.546049-1.206923-3.422186Z" fill="none" stroke="#000" stroke-linecap="round" stroke-linejoin="round"/><path d="M397.419047,182.506089c.489085-1.093362.419765-2.163191.806412-1.970404.525285.263384,1.106795,1.616509.888825,2.842921-.155583.874328-.657761,1.403811-1.297808,1.151288-.516813-.203648-.837991-1.039055-.39743-2.023805Z" fill="none" stroke="#000" stroke-linecap="round" stroke-linejoin="round"/><path d="M387.792267,175.581763l-5.933098-12.033959c-.57305-1.162303-.095366-2.569085,1.066938-3.142135l6.958012-3.430506c1.162303-.57305,2.569085-.095366,3.142135,1.066938l4.946566,10.032998c1.117897,2.267403.186038,5.011731-2.081365,6.129629l-4.957051,2.443973c-1.162303.57305-2.569085.095366-3.142135-1.066938Z" fill="none" stroke="#000" stroke-linecap="round" stroke-linejoin="round"/><ellipse cx="384" cy="167" rx="10.74579" ry="5.785997" transform="translate(-34.408686 183.708419) rotate(-25.790813)" fill="none" stroke="#000" stroke-linecap="round" stroke-linejoin="round"/><ellipse cx="386" cy="171" rx="2.720387" ry="9.464724" transform="translate(99.337038 480.937649) rotate(-71.127691)" fill="none" stroke="#000" stroke-linecap="round" stroke-linejoin="round"/><path d="M139.523961,96.285854s16.305039,8.649095,28.412537,30.39426c12.107498,21.745165,17.570871,34.878108,17.570871,34.878108l61.128317-22.878555s-9.2692-31.786543-21.812522-43.01158c-12.543322-11.225038-30.637752-23.044696-30.637752-23.044696l-54.661451,23.662464Z" fill="none" stroke="#000" stroke-linecap="round" stroke-linejoin="round"/><text transform="translate(172.407167 110.919322) rotate(-28.663823)" fill="#333" font-family="ComicNeue-Regular, &apos;Comic Neue&apos;" font-size="18"><tspan x="0" y="0">War</tspan></text><text transform="translate(183.425966 124.791393) rotate(-28.663823)" fill="#333" font-family="ComicNeue-Regular, &apos;Comic Neue&apos;" font-size="18"><tspan x="0" y="0">over</tspan></text><text transform="translate(192.926698 142.275768) rotate(-28.663823)" fill="#333" font-family="ComicNeue-Regular, &apos;Comic Neue&apos;" font-size="18"><tspan x="0" y="0">by 11</tspan></text><polygon points="208.400253 284.473301 213.360796 287 191.038329 286.999999 203.4397 283.843127 208.400253 284.473301" fill="#633d35"/><path d="M105,265h23.876457c0,.345642,2.192385.26762,2.746018-.179503.3654-.294082-.409687-.93626-2.668509-1.719477-.298962-.105029-.343254-.246068-.099654-.360099.664358-.300083,1.959861-.945262,5.890652-1.350373,4.340483-.447123,7.994458-.3631,9.544627-.294082.520416.024007.996541.090026,1.373011.171047,3.321792.729202,31.534917,4.732486,31.534917,4.732486,0,0,15.435723-.057711,24.801781-.057711,8.539641,0,15.668863,3.777281,17.321695,8.798268l-2.942043,2.801941,2.214798,3.231899c-.606043,1.027283-1.443473,1.98531-2.479252,2.845226l-23.161707,2.15556,19.745851.605982s-6.335863,1.618835-10.699343,1.618835c-9.44319,0-96.9993.605978-96.9993.605978v-23.605978Z" fill="#ad7156"/><path d="M112.271308,264.820497c-.018005.051014-.042011.096026-.069019.138038.03601-.054015.057015-.105029.069019-.138038Z" fill="url(#uuid-58316f08-2ddf-4ef7-93b1-66a01a801011)"/><path d="M122.387874,281.165768c6.156397.099028,12.257428.273076,18.347388.459127l9.112794.279078c3.033909.087024,6.034597.201055,8.946703.177049,2.989613,0,6.045668-.039011,9.090648-.081022l9.168157-.11103c6.123177-.07202,12.246353-.135037,18.413821-.123033-6.023527.3601-12.102412.615169-18.203447.822227-6.112102.204056-12.202062.3631-18.458113.393109-3.222146.006002-6.322485-.120034-9.367465-.234065-3.04498-.132036-6.078885-.264074-9.090648-.429119-6.034593-.32109-12.024899-.687192-17.959838-1.15232Z" fill="#ce8963"/><path d="M153.391305,285.30116c.775082-.081023,1.616607-.090025,2.424914-.114032.819374-.015004,1.638757-.030008,2.458131-.03601,1.638757-.012004,3.277505-.018005,4.916261-.012003,3.277505.006002,6.543943.039011,9.810372.087025,3.26643.045013,6.521793.105029,9.777156.177049,3.255363.063017,6.510718.156043,9.766081.243068l-.398616.009002,5.768852-.426117,5.791002-.405111c3.875429-.261072,7.750858-.510141,11.681654-.7232-3.720413.396109-7.496184.756209-11.271963,1.104305l-5.680269.510141-5.680294.486133-.177167.015004-.210383-.006002c-3.244288-.075021-6.499651-.138038-9.755006-.222062-3.244288-.075021-6.499651-.159044-9.743939-.246069l-9.732864-.267074-4.87197-.129036c-.808307-.021006-1.627682-.039011-2.435981-.054015-.808291-.006001-1.627673-.03601-2.435972.009003Z" fill="#ce8963"/><path d="M189.377435,278h27.681636s2.214532-2.400663,2.214532-2.400663c0,0-16.608982,1.500414-29.896168,2.400663Z" fill="#ce8963"/><path d="M170.553926,269.300912c-14.339083-1.704472-29.818656-7.706132-29.818656-7.706132l-.476124-.177048c1.948785-.033009,3.366088-.006001,4.141175.042012.343254.021006.907957.090026,1.118336.138038,2.613147.576159,20.395826,4.402217,31.667788,4.402218,0,0,15.999982-.060015,25.411747-.060015,4.218679,0,10.020755,1.260348,13.34255,3.961095l-32.110697-1.200333,9.965388,2.700747c.011067,0-13.154318-.903251-23.241507-2.100581Z" fill="#965b44"/><path d="M128.065399,265.831955c4.564713-.078022,3.527793-.924256,3.527793-.924256,1.713177.972268,2.671201,2.38266.631171,3.198886-2.25418.900249-13.964644,1.326366-13.964644,1.326366l-6.762539-.600166-6.232807-2.832784,22.801027-.168045Z" fill="#965b44"/><path d="M100.376018,277.955127c.138037,6.016663,2.238618,10.796985,4.810329,10.796986,2.661736,0,4.816332-5.116414,4.816333-11.427159s-2.157595-11.42716-4.81633-11.427161c-2.559708,0-4.654287,4.735308-4.807331,10.715962" fill="#ffcc80"/><path d="M100.376018,277.955127c.171047,2.151596.510141,4.297188,1.248345,6.298742.3631.996275.813225,1.968544,1.440398,2.781769.315087.39911.669185.768212,1.077298,1.011279.402111.25207.852236.354098,1.284355.282078.429119-.07202.837231-.315087,1.185328-.648179.348096-.333092.657182-.735203.915253-1.173324.519143-.879243.888246-1.866516,1.167323-2.874795.558154-2.02556.79222-4.150148.789219-6.268733.006002-2.115586-.21906-4.243173-.771212-6.271735-.276076-1.008279-.639177-2.001553-1.149317-2.883798-.255071-.441122-.552153-.852235-.900249-1.188328-.342094-.339093-.744206-.600166-1.173324-.684189-.429119-.099028-.879243.003001-1.287356.231063-.408113.234064-.771213.591164-1.089301.987273-.639177.801221-1.092302,1.773491-1.461404,2.766765-.747207,1.995552-1.092303,4.141146-1.272352,6.29274-.009002-.54015-.006002-1.080298.012003-1.62345.027008-.54015.07202-1.0833.135037-1.620448.132037-1.077297.327091-2.154596.639177-3.207888.32409-1.047289.741205-2.085576,1.398387-3.015835.330091-.465129.732202-.897247,1.248345-1.221337.513142-.321089,1.179326-.504139,1.818503-.387107.642177.102027,1.191329.450125,1.62645.846234.441122.40211.786217.870241,1.0863,1.356374.594164.972268.999277,2.022559,1.317364,3.084853.612169,2.136592.852235,4.342201.861237,6.541809-.018006,2.196607-.261072,4.405218-.885246,6.538808-.321089,1.062294-.735204,2.109583-1.33537,3.078851-.303084.483134-.660183.945261-1.107306,1.344371-.444123.390108-1.01128.720199-1.653457.804222-.318088.03901-.645178.018005-.954264-.063017-.309086-.078022-.588162-.222061-.843233-.387107-.510141-.333092-.897248-.777215-1.224338-1.242343-.642178-.93926-1.056292-1.974547-1.37438-3.024837-.306085-1.053291-.498137-2.130589-.627173-3.210888-.060016-.540149-.105029-1.080298-.129035-1.623449-.024005-.543146-.024005-1.086297-.012002-1.626446Z" fill="#ce8963"/><path d="M104.391127,288.929162c2.109583,0,3.820057-4.300188,3.820057-9.608656,0-5.308468-1.710471-9.608656-3.820055-9.608656-2.109583,0-4.543256,1.875518-3.823058,9.608655.495136,5.284461,1.710472,9.608657,3.823056,9.608657Z" fill="url(#uuid-f16e6923-0440-4f2b-884e-0c214cebe210)"/><g opacity=".66"><path d="M104.682208,286.177401c.417115.003001.792219-.243067,1.0833-.537148.288079-.303083.513142-.663183.702194-1.038287.372103-.753208.612169-1.566433.798221-2.38566.345095-1.644454.46813-3.33092.447124-5.005384s-.189052-3.354928-.585161-4.972375c-.204056-.804222-.465128-1.599443-.840232-2.325643-.186052-.360099-.414114-.699194-.678187-.978271-.270075-.270075-.594164-.47113-.924255-.462128-.32709.003001-.642177.207058-.90325.483134-.258071.282079-.474131.621172-.65118.984272-.357099.7262-.597165,1.52142-.783217,2.325643-.186051.807224-.309086,1.629451-.393109,2.454679-.090025.825228-.132037,1.659458-.138038,2.490688-.012003,1.66546.072019,3.339924.387106,4.981378.168046.816226.384106,1.629451.738204,2.38566.18005.375104.396109.735204.675187,1.044289.279077.297082.645178.549152,1.065295.555154ZM104.682208,286.243419c-.444123.006002-.837231-.249069-1.137314-.549153-.300083-.309085-.546151-.663183-.747206-1.041288-.411114-.750207-.702194-1.55743-.933258-2.379658-.456126-1.644455-.681188-3.354928-.699193-5.062401-.003001-.855236.033009-1.710472.117033-2.562709.090025-.852235.234065-1.698468.438122-2.5357.213059-.83423.483134-1.659458.891247-2.442675.204057-.390109.450125-.765212.771213-1.101304.165046-.162045.351097-.315088.567157-.43212.21606-.117032.47113-.192053.732203-.189051s.513142.081021.726201.201055c.213059.120034.396109.273077.555154.438121.312087.336094.549152.714197.741205,1.107307.387107.783217.639176,1.608445.83123,2.442675.375104,1.668461.513142,3.372932.501138,5.071403-.030009,1.695469-.213059,3.396939-.639178,5.038393-.213059.819226-.483134,1.629451-.873242,2.382658-.192053.378104-.429119.735203-.720199,1.04729-.294082.303084-.678188.564156-1.122311.567157Z" fill="#7f441c"/></g><path d="M104.346115,284.157842c1.113308,0,2.016558-2.898801,2.016558-6.472789,0-3.573988-.903249-6.472789-2.016557-6.472789-1.113308,0-2.016558,2.898802-2.016558,6.472789,0,3.573987.903249,6.472789,2.016557,6.472789ZM104.346115,283.053537c-.834231,0-1.512418-2.286632-1.512418-5.110414,0-2.823782.678188-5.110413,1.512419-5.110412s1.512418,2.286633,1.512418,5.110413c0,2.82378-.678188,5.110414-1.512419,5.110414Z" fill="#b5772c" isolation="isolate" opacity=".82"/><ellipse cx="104.5" cy="277.5" rx=".5" ry="2.5" fill="url(#uuid-cd338398-fea1-4e17-9326-b63097f3933e)" isolation="isolate" opacity=".74"/><polygon points="208.400253 284.473301 213.360796 287 191.038329 286.999999 203.4397 283.843127 208.400253 284.473301" fill="none" stroke="#000" stroke-linecap="round" stroke-linejoin="round"/><path d="M105,265h23.876457c0,.345642,2.192385.26762,2.746018-.179503.3654-.294082-.409687-.93626-2.668509-1.719477-.298962-.105029-.343254-.246068-.099654-.360099.664358-.300083,1.959861-.945262,5.890652-1.350373,4.340483-.447123,7.994458-.3631,9.544627-.294082.520416.024007.996541.090026,1.373011.171047,3.321792.729202,31.534917,4.732486,31.534917,4.732486,0,0,15.435723-.057711,24.801781-.057711,8.539641,0,15.668863,3.777281,17.321695,8.798268l-2.942043,2.801941,2.214798,3.231899c-.606043,1.027283-1.443473,1.98531-2.479252,2.845226l-23.161707,2.15556,19.745851.605982s-6.335863,1.618835-10.699343,1.618835c-9.44319,0-96.9993.605978-96.9993.605978v-23.605978Z" fill="none" stroke="#000" stroke-linecap="round" stroke-linejoin="round"/><path d="M112.271308,264.820497c-.018005.051014-.042011.096026-.069019.138038.03601-.054015.057015-.105029.069019-.138038Z" fill="none" stroke="#000" stroke-linecap="round" stroke-linejoin="round"/><path d="M122.387874,281.165768c6.156397.099028,12.257428.273076,18.347388.459127l9.112794.279078c3.033909.087024,6.034597.201055,8.946703.177049,2.989613,0,6.045668-.039011,9.090648-.081022l9.168157-.11103c6.123177-.07202,12.246353-.135037,18.413821-.123033-6.023527.3601-12.102412.615169-18.203447.822227-6.112102.204056-12.202062.3631-18.458113.393109-3.222146.006002-6.322485-.120034-9.367465-.234065-3.04498-.132036-6.078885-.264074-9.090648-.429119-6.034593-.32109-12.024899-.687192-17.959838-1.15232Z" fill="none" stroke="#000" stroke-linecap="round" stroke-linejoin="round"/><path d="M153.391305,285.30116c.775082-.081023,1.616607-.090025,2.424914-.114032.819374-.015004,1.638757-.030008,2.458131-.03601,1.638757-.012004,3.277505-.018005,4.916261-.012003,3.277505.006002,6.543943.039011,9.810372.087025,3.26643.045013,6.521793.105029,9.777156.177049,3.255363.063017,6.510718.156043,9.766081.243068l-.398616.009002,5.768852-.426117,5.791002-.405111c3.875429-.261072,7.750858-.510141,11.681654-.7232-3.720413.396109-7.496184.756209-11.271963,1.104305l-5.680269.510141-5.680294.486133-.177167.015004-.210383-.006002c-3.244288-.075021-6.499651-.138038-9.755006-.222062-3.244288-.075021-6.499651-.159044-9.743939-.246069l-9.732864-.267074-4.87197-.129036c-.808307-.021006-1.627682-.039011-2.435981-.054015-.808291-.006001-1.627673-.03601-2.435972.009003Z" fill="none" stroke="#000" stroke-linecap="round" stroke-linejoin="round"/><path d="M189.377435,278h27.681636s2.214532-2.400663,2.214532-2.400663c0,0-16.608982,1.500414-29.896168,2.400663Z" fill="none" stroke="#000" stroke-linecap="round" stroke-linejoin="round"/><path d="M170.553926,269.300912c-14.339083-1.704472-29.818656-7.706132-29.818656-7.706132l-.476124-.177048c1.948785-.033009,3.366088-.006001,4.141175.042012.343254.021006.907957.090026,1.118336.138038,2.613147.576159,20.395826,4.402217,31.667788,4.402218,0,0,15.999982-.060015,25.411747-.060015,4.218679,0,10.020755,1.260348,13.34255,3.961095l-32.110697-1.200333,9.965388,2.700747c.011067,0-13.154318-.903251-23.241507-2.100581Z" fill="none" stroke="#000" stroke-linecap="round" stroke-linejoin="round"/><path d="M128.065399,265.831955c4.564713-.078022,3.527793-.924256,3.527793-.924256,1.713177.972268,2.671201,2.38266.631171,3.198886-2.25418.900249-13.964644,1.326366-13.964644,1.326366l-6.762539-.600166-6.232807-2.832784,22.801027-.168045Z" fill="none" stroke="#000" stroke-linecap="round" stroke-linejoin="round"/><path d="M100.376018,277.955127c.138037,6.016663,2.238618,10.796985,4.810329,10.796986,2.661736,0,4.816332-5.116414,4.816333-11.427159s-2.157595-11.42716-4.81633-11.427161c-2.559708,0-4.654287,4.735308-4.807331,10.715962" fill="none" stroke="#000" stroke-linecap="round" stroke-linejoin="round"/><path d="M100.376018,277.955127c.171047,2.151596.510141,4.297188,1.248345,6.298742.3631.996275.813225,1.968544,1.440398,2.781769.315087.39911.669185.768212,1.077298,1.011279.402111.25207.852236.354098,1.284355.282078.429119-.07202.837231-.315087,1.185328-.648179.348096-.333092.657182-.735203.915253-1.173324.519143-.879243.888246-1.866516,1.167323-2.874795.558154-2.02556.79222-4.150148.789219-6.268733.006002-2.115586-.21906-4.243173-.771212-6.271735-.276076-1.008279-.639177-2.001553-1.149317-2.883798-.255071-.441122-.552153-.852235-.900249-1.188328-.342094-.339093-.744206-.600166-1.173324-.684189-.429119-.099028-.879243.003001-1.287356.231063-.408113.234064-.771213.591164-1.089301.987273-.639177.801221-1.092302,1.773491-1.461404,2.766765-.747207,1.995552-1.092303,4.141146-1.272352,6.29274-.009002-.54015-.006002-1.080298.012003-1.62345.027008-.54015.07202-1.0833.135037-1.620448.132037-1.077297.327091-2.154596.639177-3.207888.32409-1.047289.741205-2.085576,1.398387-3.015835.330091-.465129.732202-.897247,1.248345-1.221337.513142-.321089,1.179326-.504139,1.818503-.387107.642177.102027,1.191329.450125,1.62645.846234.441122.40211.786217.870241,1.0863,1.356374.594164.972268.999277,2.022559,1.317364,3.084853.612169,2.136592.852235,4.342201.861237,6.541809-.018006,2.196607-.261072,4.405218-.885246,6.538808-.321089,1.062294-.735204,2.109583-1.33537,3.078851-.303084.483134-.660183.945261-1.107306,1.344371-.444123.390108-1.01128.720199-1.653457.804222-.318088.03901-.645178.018005-.954264-.063017-.309086-.078022-.588162-.222061-.843233-.387107-.510141-.333092-.897248-.777215-1.224338-1.242343-.642178-.93926-1.056292-1.974547-1.37438-3.024837-.306085-1.053291-.498137-2.130589-.627173-3.210888-.060016-.540149-.105029-1.080298-.129035-1.623449-.024005-.543146-.024005-1.086297-.012002-1.626446Z" fill="none" stroke="#000" stroke-linecap="round" stroke-linejoin="round"/><path d="M104.391127,288.929162c2.109583,0,3.820057-4.300188,3.820057-9.608656,0-5.308468-1.710471-9.608656-3.820055-9.608656-2.109583,0-4.543256,1.875518-3.823058,9.608655.495136,5.284461,1.710472,9.608657,3.823056,9.608657Z" fill="none" stroke="#000" stroke-linecap="round" stroke-linejoin="round"/><path d="M104.682208,286.177401c.417115.003001.792219-.243067,1.0833-.537148.288079-.303083.513142-.663183.702194-1.038287.372103-.753208.612169-1.566433.798221-2.38566.345095-1.644454.46813-3.33092.447124-5.005384s-.189052-3.354928-.585161-4.972375c-.204056-.804222-.465128-1.599443-.840232-2.325643-.186052-.360099-.414114-.699194-.678187-.978271-.270075-.270075-.594164-.47113-.924255-.462128-.32709.003001-.642177.207058-.90325.483134-.258071.282079-.474131.621172-.65118.984272-.357099.7262-.597165,1.52142-.783217,2.325643-.186051.807224-.309086,1.629451-.393109,2.454679-.090025.825228-.132037,1.659458-.138038,2.490688-.012003,1.66546.072019,3.339924.387106,4.981378.168046.816226.384106,1.629451.738204,2.38566.18005.375104.396109.735204.675187,1.044289.279077.297082.645178.549152,1.065295.555154ZM104.682208,286.243419c-.444123.006002-.837231-.249069-1.137314-.549153-.300083-.309085-.546151-.663183-.747206-1.041288-.411114-.750207-.702194-1.55743-.933258-2.379658-.456126-1.644455-.681188-3.354928-.699193-5.062401-.003001-.855236.033009-1.710472.117033-2.562709.090025-.852235.234065-1.698468.438122-2.5357.213059-.83423.483134-1.659458.891247-2.442675.204057-.390109.450125-.765212.771213-1.101304.165046-.162045.351097-.315088.567157-.43212.21606-.117032.47113-.192053.732203-.189051s.513142.081021.726201.201055c.213059.120034.396109.273077.555154.438121.312087.336094.549152.714197.741205,1.107307.387107.783217.639176,1.608445.83123,2.442675.375104,1.668461.513142,3.372932.501138,5.071403-.030009,1.695469-.213059,3.396939-.639178,5.038393-.213059.819226-.483134,1.629451-.873242,2.382658-.192053.378104-.429119.735203-.720199,1.04729-.294082.303084-.678188.564156-1.122311.567157Z" fill="none" stroke="#000" stroke-linecap="round" stroke-linejoin="round"/><path d="M104.346115,284.157842c1.113308,0,2.016558-2.898801,2.016558-6.472789,0-3.573988-.903249-6.472789-2.016557-6.472789-1.113308,0-2.016558,2.898802-2.016558,6.472789,0,3.573987.903249,6.472789,2.016557,6.472789ZM104.346115,283.053537c-.834231,0-1.512418-2.286632-1.512418-5.110414,0-2.823782.678188-5.110413,1.512419-5.110412s1.512418,2.286633,1.512418,5.110413c0,2.82378-.678188,5.110414-1.512419,5.110414Z" fill="none" stroke="#000" stroke-linecap="round" stroke-linejoin="round"/><ellipse cx="104.5" cy="277.5" rx=".5" ry="2.5" fill="none" stroke="#000" stroke-linecap="round" stroke-linejoin="round"/><g id="uuid-db516553-5239-4147-9d72-2225768949e1"><polygon id="uuid-65d9d582-0194-43c9-86f5-a2af8ea5a9b7" points="208.936537 285.158623 200.924969 287.970774 205.812514 301.894954 206.796768 304.699007 218.814139 300.480773 217.829884 297.67672 213.824082 299.082802 208.936537 285.158623" fill="#5f5f5f"/><rect id="uuid-2a0f6e77-3d22-4753-bae4-99a5b4d5da51" x="194.029083" y="269.191277" width="10.569775" height="20.864629" transform="translate(-129.274777 179.89974) rotate(-37.636371)" fill="#727272"/><polygon id="uuid-a5873e08-a28b-48a4-a21a-e67f9bec2a4c" points="182.662267 291.755354 190.744812 289.154225 195.2656 303.201764 199.306879 301.901197 200.217276 304.730092 188.093439 308.631793 187.183042 305.802897 187.183054 305.802893 182.662267 291.755354" fill="#5f5f5f"/><rect id="uuid-9e1c9ac7-be28-4d8c-9f7a-5b14d1d8221a" x="177.301548" y="271.567932" width="10.569767" height="20.864629" transform="translate(-101.72574 103.035074) rotate(-24.889126)" fill="#727272"/><path id="uuid-539a73af-bc22-434a-a654-5f80ed2ce5da" d="M173,233v42h24v-42h-24Z" fill="#727272"/><rect id="uuid-d304d180-9539-4360-93bc-3e925f45aa4c" x="173" y="257" width="24" height="7" fill="#acacac"/><rect id="uuid-bc2ccd40-724f-47bd-bbf8-34ca26b6bc3e" x="190" y="233" width="3" height="25" fill="#acacac"/><rect id="uuid-1b1b6f20-95bd-4b0a-8b10-d4cff71ce52e" x="178" y="233" width="3" height="25" fill="#acacac"/><path id="uuid-866802f1-0f9b-4b78-a1d2-0ed27274101c" d="M196.713204,224.028777c.501435-2.378052.594412-4.986258.189479-7.672036-1.398215-9.273855-8.170159-15.941707-15.125557-14.893044-6.955398,1.048663-11.460382,9.416732-10.062166,18.690587.404934,2.685778,1.262774,5.15063,2.443057,7.27513l22.555188-3.400637Z" fill="#ccc"/><path id="uuid-0a59d1f3-908e-486b-b6cd-296c5f792d65" d="M174.617684,230c2.261004,4.728992,6.22649,7.868291,10.744377,7.868291s8.483374-3.139299,10.744377-7.868291h-21.488755Z" fill="#ccc"/><ellipse id="uuid-044cc920-07da-48e9-bd7d-1bfe23f74350" cx="191" cy="217" rx=".989889" ry="2.004764" transform="translate(-16.84403 16.074991) rotate(-4.615995)" fill="#333"/><ellipse id="uuid-6838f078-a266-4fdb-abc4-8afdc418a006" cx="183" cy="218" rx=".989889" ry="2.004764" transform="translate(-16.950456 15.434418) rotate(-4.615995)" fill="#333"/><rect id="uuid-6ccd41db-a50d-47c9-af76-5549ac17300f" x="197.966138" y="246.210836" width="6.368086" height="13.585274" transform="translate(-9.641292 7.974684) rotate(-2.218075)" fill="#727272"/><rect id="uuid-fe5382ee-214f-4e8f-9c83-9b60431bc0d1" x="197.440335" y="232.635739" width="6.368086" height="13.585274" transform="translate(-9.116288 7.944162) rotate(-2.218075)" fill="#727272"/><rect id="uuid-e7f4bbc9-19cb-4706-a91f-2e0c92101dc6" x="162.834828" y="235.910044" width="13.585274" height="6.368086" transform="translate(-89.737806 375.729058) rotate(-82.426354)" fill="#727272"/><rect id="uuid-9beac829-07ad-4c0a-aceb-bc2d4d3fa9fe" x="161.044294" y="249.376807" width="13.585274" height="6.368086" transform="translate(-104.64163 385.645982) rotate(-82.426354)" fill="#727272"/><rect id="uuid-29523705-5523-4878-a9d0-3b36e425e5f9" x="198.153583" y="259.927078" width="6.792638" height="6.792638" transform="translate(-10.040624 7.998067) rotate(-2.218124)" fill="#ccc"/><rect id="uuid-f66504fd-4310-422e-81c6-a9996899314d" x="163.097711" y="259.264603" width="6.792638" height="6.792638" transform="translate(-115.819386 393.083917) rotate(-82.426403)" fill="#ccc"/><circle id="uuid-565fc9e1-3744-4ec1-8488-378c29cf1490" cx="185" cy="253" r="1" fill="#333"/><circle id="uuid-e93d30dc-f52d-47cc-bc50-e9fac6927006" cx="185" cy="249" r="1" fill="#333"/><circle id="uuid-a83b0500-0fd3-4d17-8855-588fd536a439" cx="185" cy="246" r="1" fill="#333"/><circle id="uuid-e1e23e33-0dc6-4d00-83f9-b6def0871ad9" cx="185" cy="242" r="1" fill="#333"/><path d="M196.936631,206.529305c-1.642072-5.747906-8.342309-9.407878-15.648117-8.306384-7.305808,1.101494-12.629107,6.574249-12.503489,12.55079-2.389328.71733-3.785497,1.379559-3.713007,1.860361.170276,1.129379,8.358472.831194,18.288847-.666004,9.930375-1.497199,17.842501-3.626453,17.672225-4.755832-.07249-.480802-1.601847-.701951-4.096458-.682931Z" fill="#6a6a6a"/><polygon id="uuid-561ddaaa-e439-4eb7-9b33-439ecf05da5f" points="208.936537 285.158623 200.924969 287.970774 205.812514 301.894954 206.796768 304.699007 218.814139 300.480773 217.829884 297.67672 213.824082 299.082802 208.936537 285.158623" fill="none" stroke="#000" stroke-linecap="round" stroke-linejoin="round"/><rect id="uuid-87d3a92c-f78e-4095-bd02-cfe52eba06d8" x="194.029083" y="269.191277" width="10.569775" height="20.864629" transform="translate(-129.274777 179.89974) rotate(-37.636371)" fill="none" stroke="#000" stroke-linecap="round" stroke-linejoin="round"/><polygon id="uuid-2dc40394-fb68-4a2e-9385-5f6bbecb4812" points="182.662267 291.755354 190.744812 289.154225 195.2656 303.201764 199.306879 301.901197 200.217276 304.730092 188.093439 308.631793 187.183042 305.802897 187.183054 305.802893 182.662267 291.755354" fill="none" stroke="#000" stroke-linecap="round" stroke-linejoin="round"/><rect id="uuid-573a3286-756b-4911-8a40-d5f27444ae61" x="177.301548" y="271.567932" width="10.569767" height="20.864629" transform="translate(-101.72574 103.035074) rotate(-24.889126)" fill="none" stroke="#000" stroke-linecap="round" stroke-linejoin="round"/><path id="uuid-f010ed99-b83b-4bcb-a4af-a8b165874370" d="M173,233v42h24v-42h-24Z" fill="none" stroke="#000" stroke-linecap="round" stroke-linejoin="round"/><rect id="uuid-5e5d993c-3b11-4eac-bba9-74dea43b1f19" x="173" y="257" width="24" height="7" fill="none" stroke="#000" stroke-linecap="round" stroke-linejoin="round"/><rect id="uuid-add41c05-4064-4ba4-a170-40f8f00f4d34" x="190" y="233" width="3" height="25" fill="none" stroke="#000" stroke-linecap="round" stroke-linejoin="round"/><rect id="uuid-0260cb53-63e1-4ee0-928b-eeceba9b3c0f" x="178" y="233" width="3" height="25" fill="none" stroke="#000" stroke-linecap="round" stroke-linejoin="round"/><path id="uuid-75dfd118-4116-4359-b845-75fcd542a313" d="M196.713204,224.028777c.501435-2.378052.594412-4.986258.189479-7.672036-1.398215-9.273855-8.170159-15.941707-15.125557-14.893044-6.955398,1.048663-11.460382,9.416732-10.062166,18.690587.404934,2.685778,1.262774,5.15063,2.443057,7.27513l22.555188-3.400637Z" fill="none" stroke="#000" stroke-linecap="round" stroke-linejoin="round"/><path id="uuid-ce43732e-a03e-4bb7-a0e9-592a6b1026d6" d="M174.617684,230c2.261004,4.728992,6.22649,7.868291,10.744377,7.868291s8.483374-3.139299,10.744377-7.868291h-21.488755Z" fill="none" stroke="#000" stroke-linecap="round" stroke-linejoin="round"/><ellipse id="uuid-cdff8bc7-1b21-4770-80e4-617c9967ef8b" cx="191" cy="217" rx=".989889" ry="2.004764" transform="translate(-16.84403 16.074991) rotate(-4.615995)" fill="none" stroke="#000" stroke-linecap="round" stroke-linejoin="round"/><ellipse id="uuid-1cbe42ea-257a-430b-b1fb-b883db5b560f" cx="183" cy="218" rx=".989889" ry="2.004764" transform="translate(-16.950456 15.434418) rotate(-4.615995)" fill="none" stroke="#000" stroke-linecap="round" stroke-linejoin="round"/><rect id="uuid-43c31b4d-6637-4eea-a605-db6d98303b31" x="197.966138" y="246.210836" width="6.368086" height="13.585274" transform="translate(-9.641292 7.974684) rotate(-2.218075)" fill="none" stroke="#000" stroke-linecap="round" stroke-linejoin="round"/><rect id="uuid-a91c8a65-a2cf-4852-bfd8-5ae47cd85fe7" x="197.440335" y="232.635739" width="6.368086" height="13.585274" transform="translate(-9.116288 7.944162) rotate(-2.218075)" fill="none" stroke="#000" stroke-linecap="round" stroke-linejoin="round"/><rect id="uuid-702916ba-9e69-4dd3-874a-9f7f97cea165" x="162.834828" y="235.910044" width="13.585274" height="6.368086" transform="translate(-89.737806 375.729058) rotate(-82.426354)" fill="none" stroke="#000" stroke-linecap="round" stroke-linejoin="round"/><rect id="uuid-537504d3-2311-4856-afb7-2ae0a13dd5cd" x="161.044294" y="249.376807" width="13.585274" height="6.368086" transform="translate(-104.64163 385.645982) rotate(-82.426354)" fill="none" stroke="#000" stroke-linecap="round" stroke-linejoin="round"/><rect id="uuid-351882a6-7891-48c4-a68c-5e8e945d06b0" x="198.153583" y="259.927078" width="6.792638" height="6.792638" transform="translate(-10.040624 7.998067) rotate(-2.218124)" fill="none" stroke="#000" stroke-linecap="round" stroke-linejoin="round"/><rect id="uuid-20678a7e-0d85-421e-809d-24f5c014be8a" x="163.097711" y="259.264603" width="6.792638" height="6.792638" transform="translate(-115.819386 393.083917) rotate(-82.426403)" fill="none" stroke="#000" stroke-linecap="round" stroke-linejoin="round"/><circle id="uuid-a97aae09-23fa-46dd-b10c-77cb538ca8a8" cx="185" cy="253" r="1" fill="none" stroke="#000" stroke-linecap="round" stroke-linejoin="round"/><circle id="uuid-f489e3da-7a4b-454d-a50b-5ba968c8423c" cx="185" cy="249" r="1" fill="none" stroke="#000" stroke-linecap="round" stroke-linejoin="round"/><circle id="uuid-7e589dcd-9e4e-408d-9804-854d0d9df516" cx="185" cy="246" r="1" fill="none" stroke="#000" stroke-linecap="round" stroke-linejoin="round"/><circle id="uuid-4aa36b42-e47a-4f4e-8132-5ae0764f35c7" cx="185" cy="242" r="1" fill="none" stroke="#000" stroke-linecap="round" stroke-linejoin="round"/><path d="M196.936631,206.529305c-1.642072-5.747906-8.342309-9.407878-15.648117-8.306384-7.305808,1.101494-12.629107,6.574249-12.503489,12.55079-2.389328.71733-3.785497,1.379559-3.713007,1.860361.170276,1.129379,8.358472.831194,18.288847-.666004,9.930375-1.497199,17.842501-3.626453,17.672225-4.755832-.07249-.480802-1.601847-.701951-4.096458-.682931Z" fill="none" stroke="#000" stroke-linecap="round" stroke-linejoin="round"/></g></svg>