<?xml version="1.0" encoding="UTF-8"?><svg id="uuid-d4a478f3-d605-4a3c-baf4-ab2a4d0653b3" xmlns="http://www.w3.org/2000/svg" xmlns:xlink="http://www.w3.org/1999/xlink" viewBox="0 0 500 500"><defs><linearGradient id="uuid-cda469f9-6883-4fbf-b68f-09914c76f9b8" x1="-10.61" y1="-1149.88" x2="-10.61" y2="-1149.89" gradientTransform="translate(-1037.65 254.28) rotate(-90) scale(1 -1)" gradientUnits="userSpaceOnUse"><stop offset="0" stop-color="#ce8963"/><stop offset="1" stop-color="#d08a61" stop-opacity="0"/></linearGradient><radialGradient id="uuid-7b62d837-f1b5-43fc-a7f3-82e92bdad593" cx="1089.38" cy="-1147.16" fx="1089.38" fy="-1147.16" r="6.5" gradientTransform="translate(-584.9 -1006.7) rotate(90) scale(1.18 .6)" gradientUnits="userSpaceOnUse"><stop offset=".06" stop-color="#ffa726"/><stop offset=".14" stop-color="#ffa726"/><stop offset="1" stop-color="#ffa726" stop-opacity=".1"/></radialGradient><linearGradient id="uuid-9a799d81-a985-46eb-ae95-511b3578ef1d" x1="1179.47" y1="-1142.15" x2="1184.47" y2="-1142.15" gradientTransform="translate(-1037.65 -904.47) rotate(90)" gradientUnits="userSpaceOnUse"><stop offset="0" stop-color="#8a5140"/><stop offset="1" stop-color="#8a5140"/></linearGradient></defs><text transform="translate(48.18 418.17)" fill="#333" font-family="ComicNeue-Regular, &apos;Comic Neue&apos;" font-size="24"><tspan x="0" y="0">The message was quickly disseminated.</tspan></text><g id="uuid-9eacfc53-b11a-421d-9fec-724e5c9b69e0"><polygon id="uuid-79a023ce-845c-4e62-a4ce-d2eaf75530a9" points="384.39 318.32 363.52 314.28 356.06 352.88 354.55 360.66 385.85 366.71 387.42 358.59 376.99 356.58 384.39 318.32" fill="#5f5f5f"/><rect id="uuid-137a5dc4-56b3-4d7a-9552-377d2b0ef894" x="349.21" y="272.75" width="27.16" height="54.31" transform="translate(-95.01 190.46) rotate(-26.13)" fill="#727272"/><polygon id="uuid-2544be18-9e4a-47cd-9145-3d287e27095e" points="296.09 308.84 302.03 329.25 264.61 340.14 267.58 350.34 259.65 352.65 250.74 322.04 258.34 319.83 258.34 319.83 296.09 308.84" fill="#5f5f5f"/><rect id="uuid-34ba5657-3849-4858-9ad0-37dc296faef0" x="277.64" y="286.76" width="54.31" height="27.16" transform="translate(-101.68 434.07) rotate(-62.79)" fill="#727272"/><path id="uuid-23835a38-43e2-4fe4-84a2-727c5a946c85" d="M304,174v109h61v-109h-61Z" fill="#727272"/><rect id="uuid-aefdd81e-d170-4fb2-a815-b34f2db3d5e4" x="304" y="237" width="61" height="19" fill="#acacac"/><rect id="uuid-4bb956cf-8d29-4bb2-b613-6e180ddba010" x="348" y="172" width="8" height="65" fill="#acacac"/><rect id="uuid-97cebf00-bf84-416b-9494-7f858a369f26" x="315" y="172" width="8" height="65" fill="#acacac"/><path id="uuid-2e96d200-7cac-40cb-934c-109b27674091" d="M363.64,150.88c1.24-6.13,1.41-12.85.31-19.75-3.81-23.83-21.4-40.84-39.27-37.98-17.88,2.86-29.27,24.5-25.46,48.34,1.1,6.9,3.37,13.23,6.46,18.67l57.97-9.28Z" fill="#ccc"/><path id="uuid-e749fe44-38ab-442c-b107-1ce14545b46d" d="M307.34,166c5.82,12.17,16.03,20.25,27.65,20.25s21.83-8.08,27.65-20.25h-55.31Z" fill="#ccc"/><ellipse id="uuid-b9358518-ffe2-4de7-ae7e-99e8e0b22d0e" cx="353" cy="141.5" rx="2.94" ry="4.54" transform="translate(-19.1 62.93) rotate(-9.92)" fill="#333"/><ellipse id="uuid-c7752889-f712-4c76-af25-477726c2e1b8" cx="338" cy="143.5" rx="2.94" ry="4.54" transform="translate(-19.67 60.38) rotate(-9.92)" fill="#333"/><rect id="uuid-c68c5dbc-ba8c-4a94-860e-45d310e4f34e" x="359.52" y="165.52" width="34.96" height="16.39" transform="translate(-37.95 184.62) rotate(-26.24)" fill="#727272"/><rect id="uuid-c1c7dbbd-3a5b-4f9b-aa1c-80fdf81fa0eb" x="284.91" y="157.9" width="16.39" height="34.96" transform="translate(-.65 349.67) rotate(-61.58)" fill="#727272"/><rect id="uuid-93875505-dc6f-4b48-9fad-f852265a4707" x="258.85" y="139.04" width="16.39" height="34.96" transform="translate(-30.94 240.28) rotate(-46.08)" fill="#727272"/><rect id="uuid-5fd67998-a541-48f4-a649-68045e23fa0b" x="239.51" y="130.56" width="17.71" height="17.71" transform="translate(-20.5 233.41) rotate(-48.58)" fill="#ccc"/><circle id="uuid-eceead25-8be0-4dec-9968-416dc8bb8e27" cx="334.5" cy="224.5" r="2.5" fill="#333"/><circle id="uuid-9a09f563-4056-46ff-9812-38afeebcdf82" cx="334.5" cy="215.5" r="2.5" fill="#333"/><circle id="uuid-3581e60f-8cba-4771-8892-7ad93f4c113d" cx="334.5" cy="207.5" r="2.5" fill="#333"/><circle id="uuid-38fc635d-610c-4c5b-813e-f9ab016c4eea" cx="334.5" cy="195.5" r="2.5" fill="#333"/><path d="M363.38,108.88c-3.12-15.07-19.62-25.74-38.58-24.3-18.96,1.43-33.67,14.47-34.48,29.83-6.27,1.39-9.98,2.82-9.88,4.07.22,2.93,21.29,3.73,47.07,1.78,25.77-1.95,46.49-5.91,46.26-8.84-.09-1.25-3.98-2.11-10.38-2.53Z" fill="#6a6a6a"/></g><path d="M398.42,178.73c-.97-1.4-1.4-2.59-1.65-3.3-.08-.22-.34-.22-.41,0-.25.71-.67,1.9-1.65,3.3-.61.88-1.21,2.16-1.21,3.42,0,2.16,1.32,3.62,3.06,3.62s3.06-1.46,3.06-3.62c0-1.31-.6-2.55-1.21-3.42Z" fill="#c1272d"/><path d="M397.42,182.51c.49-1.09.42-2.16.81-1.97.53.26,1.11,1.62.89,2.84-.16.87-.66,1.4-1.3,1.15-.52-.2-.84-1.04-.4-2.02Z" fill="#e36250"/><path d="M387.79,175.58l-5.93-12.03c-.57-1.16-.1-2.57,1.07-3.14l6.96-3.43c1.16-.57,2.57-.1,3.14,1.07l4.95,10.03c1.12,2.27.19,5.01-2.08,6.13l-4.96,2.44c-1.16.57-2.57.1-3.14-1.07Z" fill="#c1272d"/><ellipse cx="384" cy="167" rx="10.75" ry="5.79" transform="translate(-34.41 183.71) rotate(-25.79)" fill="#c1272d"/><ellipse cx="386" cy="171" rx="2.72" ry="9.46" transform="translate(99.34 480.94) rotate(-71.13)" fill="#c1272d"/><path d="M139.52,96.29s16.31,8.65,28.41,30.39c12.11,21.75,17.57,34.88,17.57,34.88l61.13-22.88s-9.27-31.79-21.81-43.01c-12.54-11.23-30.64-23.04-30.64-23.04l-54.66,23.66Z" fill="#fff" stroke="#938c8c" stroke-miterlimit="10"/><g id="uuid-f55411a7-c32a-46d5-a676-5e5599f26efd"><polygon id="uuid-0feee276-e7cc-4e10-b47b-3346f9a38be5" points="384.39 318.32 363.52 314.28 356.06 352.88 354.55 360.66 385.85 366.71 387.42 358.59 376.99 356.58 384.39 318.32" fill="none" stroke="#000" stroke-linecap="round" stroke-linejoin="round"/><rect id="uuid-56961a09-5aba-41b0-ae41-9e7343f0225e" x="349.21" y="272.75" width="27.16" height="54.31" transform="translate(-95.01 190.46) rotate(-26.13)" fill="none" stroke="#000" stroke-linecap="round" stroke-linejoin="round"/><polygon id="uuid-0c873b11-e366-471d-841d-ad9a6f84b142" points="296.09 308.84 302.03 329.25 264.61 340.14 267.58 350.34 259.65 352.65 250.74 322.04 258.34 319.83 258.34 319.83 296.09 308.84" fill="none" stroke="#000" stroke-linecap="round" stroke-linejoin="round"/><rect id="uuid-39bbfef7-25d2-49ea-baf5-acc422bd9637" x="277.64" y="286.76" width="54.31" height="27.16" transform="translate(-101.68 434.07) rotate(-62.79)" fill="none" stroke="#000" stroke-linecap="round" stroke-linejoin="round"/><path id="uuid-6bff1b43-2cff-4e00-9ac3-06df2ef641c3" d="M304,174v109h61v-109h-61Z" fill="none" stroke="#000" stroke-linecap="round" stroke-linejoin="round"/><rect id="uuid-5b5234e9-2cd0-4bfb-8eb9-fd51ab1bcaa9" x="304" y="237" width="61" height="19" fill="none" stroke="#000" stroke-linecap="round" stroke-linejoin="round"/><rect id="uuid-7a865040-e13f-4cce-943e-df1ff6a3b2ef" x="348" y="172" width="8" height="65" fill="none" stroke="#000" stroke-linecap="round" stroke-linejoin="round"/><rect id="uuid-cd221fe6-e5f7-4ed5-b682-7bdbb629e545" x="315" y="172" width="8" height="65" fill="none" stroke="#000" stroke-linecap="round" stroke-linejoin="round"/><path id="uuid-af7aa55f-d8ae-4340-81a7-cd119cc5544b" d="M363.64,150.88c1.24-6.13,1.41-12.85.31-19.75-3.81-23.83-21.4-40.84-39.27-37.98-17.88,2.86-29.27,24.5-25.46,48.34,1.1,6.9,3.37,13.23,6.46,18.67l57.97-9.28Z" fill="none" stroke="#000" stroke-linecap="round" stroke-linejoin="round"/><path id="uuid-cce72c61-89b8-4200-9d50-777ce730c8fa" d="M307.34,166c5.82,12.17,16.03,20.25,27.65,20.25s21.83-8.08,27.65-20.25h-55.31Z" fill="none" stroke="#000" stroke-linecap="round" stroke-linejoin="round"/><ellipse id="uuid-d0a26da5-379f-4cfc-bcc6-9bd45d5d8c0b" cx="353" cy="141.5" rx="2.94" ry="4.54" transform="translate(-19.1 62.93) rotate(-9.92)" fill="none" stroke="#000" stroke-linecap="round" stroke-linejoin="round"/><ellipse id="uuid-3c8d878e-fe57-4d4d-b1c9-9c0099c468ee" cx="338" cy="143.5" rx="2.94" ry="4.54" transform="translate(-19.67 60.38) rotate(-9.92)" fill="none" stroke="#000" stroke-linecap="round" stroke-linejoin="round"/><rect id="uuid-a4e63e3b-5ed4-490b-ac03-f22d48984148" x="359.52" y="165.52" width="34.96" height="16.39" transform="translate(-37.95 184.62) rotate(-26.24)" fill="none" stroke="#000" stroke-linecap="round" stroke-linejoin="round"/><rect id="uuid-56e0fdeb-5ed1-4087-8454-a207ba072610" x="284.91" y="157.9" width="16.39" height="34.96" transform="translate(-.65 349.67) rotate(-61.58)" fill="none" stroke="#000" stroke-linecap="round" stroke-linejoin="round"/><rect id="uuid-c9a987b4-b59f-4416-a7b0-7313d6a6659e" x="258.85" y="139.04" width="16.39" height="34.96" transform="translate(-30.94 240.28) rotate(-46.08)" fill="none" stroke="#000" stroke-linecap="round" stroke-linejoin="round"/><rect id="uuid-b48fd2b2-e14c-49a2-aa5c-3009503f0555" x="239.51" y="130.56" width="17.71" height="17.71" transform="translate(-20.5 233.41) rotate(-48.58)" fill="none" stroke="#000" stroke-linecap="round" stroke-linejoin="round"/><circle id="uuid-aabcb424-875b-4ada-bc9a-2a3c29a16dbf" cx="334.5" cy="224.5" r="2.5" fill="none" stroke="#000" stroke-linecap="round" stroke-linejoin="round"/><circle id="uuid-50b66886-65c0-4b56-89f4-e46e9ea10ca9" cx="334.5" cy="215.5" r="2.5" fill="none" stroke="#000" stroke-linecap="round" stroke-linejoin="round"/><circle id="uuid-ee635060-fc8c-4256-81c9-4debff2d2f61" cx="334.5" cy="207.5" r="2.5" fill="none" stroke="#000" stroke-linecap="round" stroke-linejoin="round"/><circle id="uuid-1cb1bbae-110c-4217-9fbf-f42e17818317" cx="334.5" cy="195.5" r="2.5" fill="none" stroke="#000" stroke-linecap="round" stroke-linejoin="round"/><path d="M363.38,108.88c-3.12-15.07-19.62-25.74-38.58-24.3-18.96,1.43-33.67,14.47-34.48,29.83-6.27,1.39-9.98,2.82-9.88,4.07.22,2.93,21.29,3.73,47.07,1.78,25.77-1.95,46.49-5.91,46.26-8.84-.09-1.25-3.98-2.11-10.38-2.53Z" fill="none" stroke="#000" stroke-linecap="round" stroke-linejoin="round"/><polygon id="uuid-e48c7eda-14e9-4ba4-9149-20db948cc3a7" points="384.39 318.32 363.52 314.28 356.06 352.88 354.55 360.66 385.85 366.71 387.42 358.59 376.99 356.58 384.39 318.32" fill="none" stroke="#000" stroke-linecap="round" stroke-linejoin="round"/><rect id="uuid-66baf161-1c97-4082-9227-673444f5f0b7" x="349.21" y="272.75" width="27.16" height="54.31" transform="translate(-95.01 190.46) rotate(-26.13)" fill="none" stroke="#000" stroke-linecap="round" stroke-linejoin="round"/><polygon id="uuid-357d02b4-b684-4d73-9ad6-341c7c08ce70" points="296.09 308.84 302.03 329.25 264.61 340.14 267.58 350.34 259.65 352.65 250.74 322.04 258.34 319.83 258.34 319.83 296.09 308.84" fill="none" stroke="#000" stroke-linecap="round" stroke-linejoin="round"/><rect id="uuid-52eed5aa-98e9-4895-bae9-12a3b6bc94a8" x="277.64" y="286.76" width="54.31" height="27.16" transform="translate(-101.68 434.07) rotate(-62.79)" fill="none" stroke="#000" stroke-linecap="round" stroke-linejoin="round"/><path id="uuid-55845686-e63c-42f7-afb4-924ad09e8820" d="M304,174v109h61v-109h-61Z" fill="none" stroke="#000" stroke-linecap="round" stroke-linejoin="round"/><rect id="uuid-d21e6195-a166-41bc-aacf-a0138ef1768b" x="304" y="237" width="61" height="19" fill="none" stroke="#000" stroke-linecap="round" stroke-linejoin="round"/><rect id="uuid-28645008-9094-4b8e-9206-b4f4652f8878" x="348" y="172" width="8" height="65" fill="none" stroke="#000" stroke-linecap="round" stroke-linejoin="round"/><rect id="uuid-dac72fd7-1b13-4ad2-8961-f6dfe48ac7b4" x="315" y="172" width="8" height="65" fill="none" stroke="#000" stroke-linecap="round" stroke-linejoin="round"/><path id="uuid-6c325cd7-fe93-42a7-b742-ec619bb2a23a" d="M363.64,150.88c1.24-6.13,1.41-12.85.31-19.75-3.81-23.83-21.4-40.84-39.27-37.98-17.88,2.86-29.27,24.5-25.46,48.34,1.1,6.9,3.37,13.23,6.46,18.67l57.97-9.28Z" fill="none" stroke="#000" stroke-linecap="round" stroke-linejoin="round"/><path id="uuid-0fd21886-7042-4476-87f5-1518fd3f07cd" d="M307.34,166c5.82,12.17,16.03,20.25,27.65,20.25s21.83-8.08,27.65-20.25h-55.31Z" fill="none" stroke="#000" stroke-linecap="round" stroke-linejoin="round"/><ellipse id="uuid-7a3528f3-2d6f-47d8-a334-0d7272f18d26" cx="353" cy="141.5" rx="2.94" ry="4.54" transform="translate(-19.1 62.93) rotate(-9.92)" fill="none" stroke="#000" stroke-linecap="round" stroke-linejoin="round"/><ellipse id="uuid-de3d70a5-f79f-403e-abca-0457a861df57" cx="338" cy="143.5" rx="2.94" ry="4.54" transform="translate(-19.67 60.38) rotate(-9.92)" fill="none" stroke="#000" stroke-linecap="round" stroke-linejoin="round"/><rect id="uuid-7e1a107c-b739-4821-84e5-c4e0c226dee5" x="359.52" y="165.52" width="34.96" height="16.39" transform="translate(-37.95 184.62) rotate(-26.24)" fill="none" stroke="#000" stroke-linecap="round" stroke-linejoin="round"/><rect id="uuid-9ec421df-8d87-4c50-89b5-c721daf420c5" x="284.91" y="157.9" width="16.39" height="34.96" transform="translate(-.65 349.67) rotate(-61.58)" fill="none" stroke="#000" stroke-linecap="round" stroke-linejoin="round"/><rect id="uuid-ccf52495-0fff-4d49-ade2-9d943a08eee9" x="258.85" y="139.04" width="16.39" height="34.96" transform="translate(-30.94 240.28) rotate(-46.08)" fill="none" stroke="#000" stroke-linecap="round" stroke-linejoin="round"/><rect id="uuid-0f6b64e1-e190-46f5-aada-3aa8c98e7a51" x="239.51" y="130.56" width="17.71" height="17.71" transform="translate(-20.5 233.41) rotate(-48.58)" fill="none" stroke="#000" stroke-linecap="round" stroke-linejoin="round"/><circle id="uuid-0a50bf9d-277f-43a1-b6e1-e9be516b789b" cx="334.5" cy="224.5" r="2.5" fill="none" stroke="#000" stroke-linecap="round" stroke-linejoin="round"/><circle id="uuid-c7777855-a908-43d9-869e-e22f70b4a959" cx="334.5" cy="215.5" r="2.5" fill="none" stroke="#000" stroke-linecap="round" stroke-linejoin="round"/><circle id="uuid-a4068e20-5a74-4785-94c5-51ddc00fe903" cx="334.5" cy="207.5" r="2.5" fill="none" stroke="#000" stroke-linecap="round" stroke-linejoin="round"/><circle id="uuid-cf5cc183-42ec-4e09-8ff2-ed8947cdc419" cx="334.5" cy="195.5" r="2.5" fill="none" stroke="#000" stroke-linecap="round" stroke-linejoin="round"/><path d="M363.38,108.88c-3.12-15.07-19.62-25.74-38.58-24.3-18.96,1.43-33.67,14.47-34.48,29.83-6.27,1.39-9.98,2.82-9.88,4.07.22,2.93,21.29,3.73,47.07,1.78,25.77-1.95,46.49-5.91,46.26-8.84-.09-1.25-3.98-2.11-10.38-2.53Z" fill="none" stroke="#000" stroke-linecap="round" stroke-linejoin="round"/></g><path d="M398.42,178.73c-.97-1.4-1.4-2.59-1.65-3.3-.08-.22-.34-.22-.41,0-.25.71-.67,1.9-1.65,3.3-.61.88-1.21,2.16-1.21,3.42,0,2.16,1.32,3.62,3.06,3.62s3.06-1.46,3.06-3.62c0-1.31-.6-2.55-1.21-3.42Z" fill="none" stroke="#000" stroke-linecap="round" stroke-linejoin="round"/><path d="M397.42,182.51c.49-1.09.42-2.16.81-1.97.53.26,1.11,1.62.89,2.84-.16.87-.66,1.4-1.3,1.15-.52-.2-.84-1.04-.4-2.02Z" fill="none" stroke="#000" stroke-linecap="round" stroke-linejoin="round"/><path d="M387.79,175.58l-5.93-12.03c-.57-1.16-.1-2.57,1.07-3.14l6.96-3.43c1.16-.57,2.57-.1,3.14,1.07l4.95,10.03c1.12,2.27.19,5.01-2.08,6.13l-4.96,2.44c-1.16.57-2.57.1-3.14-1.07Z" fill="none" stroke="#000" stroke-linecap="round" stroke-linejoin="round"/><ellipse cx="384" cy="167" rx="10.75" ry="5.79" transform="translate(-34.41 183.71) rotate(-25.79)" fill="none" stroke="#000" stroke-linecap="round" stroke-linejoin="round"/><ellipse cx="386" cy="171" rx="2.72" ry="9.46" transform="translate(99.34 480.94) rotate(-71.13)" fill="none" stroke="#000" stroke-linecap="round" stroke-linejoin="round"/><path d="M139.52,96.29s16.31,8.65,28.41,30.39c12.11,21.75,17.57,34.88,17.57,34.88l61.13-22.88s-9.27-31.79-21.81-43.01c-12.54-11.23-30.64-23.04-30.64-23.04l-54.66,23.66Z" fill="none" stroke="#000" stroke-linecap="round" stroke-linejoin="round"/><text transform="translate(172.41 110.92) rotate(-28.66)" fill="#333" font-family="ComicNeue-Regular, &apos;Comic Neue&apos;" font-size="18"><tspan x="0" y="0">War</tspan></text><text transform="translate(183.43 124.79) rotate(-28.66)" fill="#333" font-family="ComicNeue-Regular, &apos;Comic Neue&apos;" font-size="18"><tspan x="0" y="0">over</tspan></text><text transform="translate(192.93 142.28) rotate(-28.66)" fill="#333" font-family="ComicNeue-Regular, &apos;Comic Neue&apos;" font-size="18"><tspan x="0" y="0">by 11</tspan></text><polygon points="208.4 284.47 213.36 287 191.04 287 203.44 283.84 208.4 284.47" fill="#633d35"/><path d="M105,265h23.88c0,.35,2.19.27,2.75-.18.37-.29-.41-.94-2.67-1.72-.3-.11-.34-.25-.1-.36.66-.3,1.96-.95,5.89-1.35,4.34-.45,7.99-.36,9.54-.29.52.02,1,.09,1.37.17,3.32.73,31.53,4.73,31.53,4.73,0,0,15.44-.06,24.8-.06,8.54,0,15.67,3.78,17.32,8.8l-2.94,2.8,2.21,3.23c-.61,1.03-1.44,1.99-2.48,2.85l-23.16,2.16,19.75.61s-6.34,1.62-10.7,1.62c-9.44,0-97,.61-97,.61v-23.61Z" fill="#ad7156"/><path d="M112.27,264.82c-.02.05-.04.1-.07.14.04-.05.06-.11.07-.14Z" fill="url(#uuid-cda469f9-6883-4fbf-b68f-09914c76f9b8)"/><path d="M122.39,281.17c6.16.1,12.26.27,18.35.46l9.11.28c3.03.09,6.03.2,8.95.18,2.99,0,6.05-.04,9.09-.08l9.17-.11c6.12-.07,12.25-.14,18.41-.12-6.02.36-12.1.62-18.2.82-6.11.2-12.2.36-18.46.39-3.22,0-6.32-.12-9.37-.23-3.04-.13-6.08-.26-9.09-.43-6.03-.32-12.02-.69-17.96-1.15Z" fill="#ce8963"/><path d="M153.39,285.3c.78-.08,1.62-.09,2.42-.11.82-.02,1.64-.03,2.46-.04,1.64-.01,3.28-.02,4.92-.01,3.28,0,6.54.04,9.81.09,3.27.05,6.52.11,9.78.18,3.26.06,6.51.16,9.77.24h-.4s5.77-.42,5.77-.42l5.79-.41c3.88-.26,7.75-.51,11.68-.72-3.72.4-7.5.76-11.27,1.1l-5.68.51-5.68.49-.18.02h-.21c-3.24-.08-6.5-.14-9.76-.23-3.24-.08-6.5-.16-9.74-.25l-9.73-.27-4.87-.13c-.81-.02-1.63-.04-2.44-.05-.81,0-1.63-.04-2.44,0Z" fill="#ce8963"/><path d="M189.38,278h27.68s2.21-2.4,2.21-2.4c0,0-16.61,1.5-29.9,2.4Z" fill="#ce8963"/><path d="M170.55,269.3c-14.34-1.7-29.82-7.71-29.82-7.71l-.48-.18c1.95-.03,3.37,0,4.14.04.34.02.91.09,1.12.14,2.61.58,20.4,4.4,31.67,4.4,0,0,16-.06,25.41-.06,4.22,0,10.02,1.26,13.34,3.96l-32.11-1.2,9.97,2.7s-13.15-.9-23.24-2.1Z" fill="#965b44"/><path d="M128.07,265.83c4.56-.08,3.53-.92,3.53-.92,1.71.97,2.67,2.38.63,3.2-2.25.9-13.96,1.33-13.96,1.33l-6.76-.6-6.23-2.83,22.8-.17Z" fill="#965b44"/><path d="M100.38,277.96c.14,6.02,2.24,10.8,4.81,10.8,2.66,0,4.82-5.12,4.82-11.43s-2.16-11.43-4.82-11.43c-2.56,0-4.65,4.74-4.81,10.72" fill="#ffcc80"/><path d="M100.38,277.96c.17,2.15.51,4.3,1.25,6.3.36,1,.81,1.97,1.44,2.78.32.4.67.77,1.08,1.01.4.25.85.35,1.28.28.43-.07.84-.32,1.19-.65.35-.33.66-.74.92-1.17.52-.88.89-1.87,1.17-2.87.56-2.03.79-4.15.79-6.27,0-2.12-.22-4.24-.77-6.27-.28-1.01-.64-2-1.15-2.88-.26-.44-.55-.85-.9-1.19-.34-.34-.74-.6-1.17-.68-.43-.1-.88,0-1.29.23-.41.23-.77.59-1.09.99-.64.8-1.09,1.77-1.46,2.77-.75,2-1.09,4.14-1.27,6.29,0-.54,0-1.08.01-1.62.03-.54.07-1.08.14-1.62.13-1.08.33-2.15.64-3.21.32-1.05.74-2.09,1.4-3.02.33-.47.73-.9,1.25-1.22.51-.32,1.18-.5,1.82-.39.64.1,1.19.45,1.63.85.44.4.79.87,1.09,1.36.59.97,1,2.02,1.32,3.08.61,2.14.85,4.34.86,6.54-.02,2.2-.26,4.41-.89,6.54-.32,1.06-.74,2.11-1.34,3.08-.3.48-.66.95-1.11,1.34-.44.39-1.01.72-1.65.8-.32.04-.65.02-.95-.06-.31-.08-.59-.22-.84-.39-.51-.33-.9-.78-1.22-1.24-.64-.94-1.06-1.97-1.37-3.02-.31-1.05-.5-2.13-.63-3.21-.06-.54-.11-1.08-.13-1.62-.02-.54-.02-1.09-.01-1.63Z" fill="#ce8963"/><path d="M104.39,288.93c2.11,0,3.82-4.3,3.82-9.61,0-5.31-1.71-9.61-3.82-9.61-2.11,0-4.54,1.88-3.82,9.61.5,5.28,1.71,9.61,3.82,9.61Z" fill="url(#uuid-7b62d837-f1b5-43fc-a7f3-82e92bdad593)"/><g opacity=".66"><path d="M104.68,286.18c.42,0,.79-.24,1.08-.54.29-.3.51-.66.7-1.04.37-.75.61-1.57.8-2.39.35-1.64.47-3.33.45-5.01s-.19-3.35-.59-4.97c-.2-.8-.47-1.6-.84-2.33-.19-.36-.41-.7-.68-.98-.27-.27-.59-.47-.92-.46-.33,0-.64.21-.9.48-.26.28-.47.62-.65.98-.36.73-.6,1.52-.78,2.33-.19.81-.31,1.63-.39,2.45-.09.83-.13,1.66-.14,2.49-.01,1.67.07,3.34.39,4.98.17.82.38,1.63.74,2.39.18.38.4.74.68,1.04.28.3.65.55,1.07.56ZM104.68,286.24c-.44,0-.84-.25-1.14-.55-.3-.31-.55-.66-.75-1.04-.41-.75-.7-1.56-.93-2.38-.46-1.64-.68-3.35-.7-5.06,0-.86.03-1.71.12-2.56.09-.85.23-1.7.44-2.54.21-.83.48-1.66.89-2.44.2-.39.45-.77.77-1.1.17-.16.35-.32.57-.43.22-.12.47-.19.73-.19s.51.08.73.2c.21.12.4.27.56.44.31.34.55.71.74,1.11.39.78.64,1.61.83,2.44.38,1.67.51,3.37.5,5.07-.03,1.7-.21,3.4-.64,5.04-.21.82-.48,1.63-.87,2.38-.19.38-.43.74-.72,1.05-.29.3-.68.56-1.12.57Z" fill="#7f441c"/></g><path d="M104.35,284.16c1.11,0,2.02-2.9,2.02-6.47,0-3.57-.9-6.47-2.02-6.47-1.11,0-2.02,2.9-2.02,6.47,0,3.57.9,6.47,2.02,6.47ZM104.35,283.05c-.83,0-1.51-2.29-1.51-5.11,0-2.82.68-5.11,1.51-5.11s1.51,2.29,1.51,5.11c0,2.82-.68,5.11-1.51,5.11Z" fill="#b5772c" isolation="isolate" opacity=".82"/><ellipse cx="104.5" cy="277.5" rx=".5" ry="2.5" fill="url(#uuid-9a799d81-a985-46eb-ae95-511b3578ef1d)" isolation="isolate" opacity=".74"/><polygon points="208.4 284.47 213.36 287 191.04 287 203.44 283.84 208.4 284.47" fill="none" stroke="#000" stroke-linecap="round" stroke-linejoin="round"/><path d="M105,265h23.88c0,.35,2.19.27,2.75-.18.37-.29-.41-.94-2.67-1.72-.3-.11-.34-.25-.1-.36.66-.3,1.96-.95,5.89-1.35,4.34-.45,7.99-.36,9.54-.29.52.02,1,.09,1.37.17,3.32.73,31.53,4.73,31.53,4.73,0,0,15.44-.06,24.8-.06,8.54,0,15.67,3.78,17.32,8.8l-2.94,2.8,2.21,3.23c-.61,1.03-1.44,1.99-2.48,2.85l-23.16,2.16,19.75.61s-6.34,1.62-10.7,1.62c-9.44,0-97,.61-97,.61v-23.61Z" fill="none" stroke="#000" stroke-linecap="round" stroke-linejoin="round"/><path d="M112.27,264.82c-.02.05-.04.1-.07.14.04-.05.06-.11.07-.14Z" fill="none" stroke="#000" stroke-linecap="round" stroke-linejoin="round"/><path d="M122.39,281.17c6.16.1,12.26.27,18.35.46l9.11.28c3.03.09,6.03.2,8.95.18,2.99,0,6.05-.04,9.09-.08l9.17-.11c6.12-.07,12.25-.14,18.41-.12-6.02.36-12.1.62-18.2.82-6.11.2-12.2.36-18.46.39-3.22,0-6.32-.12-9.37-.23-3.04-.13-6.08-.26-9.09-.43-6.03-.32-12.02-.69-17.96-1.15Z" fill="none" stroke="#000" stroke-linecap="round" stroke-linejoin="round"/><path d="M153.39,285.3c.78-.08,1.62-.09,2.42-.11.82-.02,1.64-.03,2.46-.04,1.64-.01,3.28-.02,4.92-.01,3.28,0,6.54.04,9.81.09,3.27.05,6.52.11,9.78.18,3.26.06,6.51.16,9.77.24h-.4s5.77-.42,5.77-.42l5.79-.41c3.88-.26,7.75-.51,11.68-.72-3.72.4-7.5.76-11.27,1.1l-5.68.51-5.68.49-.18.02h-.21c-3.24-.08-6.5-.14-9.76-.23-3.24-.08-6.5-.16-9.74-.25l-9.73-.27-4.87-.13c-.81-.02-1.63-.04-2.44-.05-.81,0-1.63-.04-2.44,0Z" fill="none" stroke="#000" stroke-linecap="round" stroke-linejoin="round"/><path d="M189.38,278h27.68s2.21-2.4,2.21-2.4c0,0-16.61,1.5-29.9,2.4Z" fill="none" stroke="#000" stroke-linecap="round" stroke-linejoin="round"/><path d="M170.55,269.3c-14.34-1.7-29.82-7.71-29.82-7.71l-.48-.18c1.95-.03,3.37,0,4.14.04.34.02.91.09,1.12.14,2.61.58,20.4,4.4,31.67,4.4,0,0,16-.06,25.41-.06,4.22,0,10.02,1.26,13.34,3.96l-32.11-1.2,9.97,2.7s-13.15-.9-23.24-2.1Z" fill="none" stroke="#000" stroke-linecap="round" stroke-linejoin="round"/><path d="M128.07,265.83c4.56-.08,3.53-.92,3.53-.92,1.71.97,2.67,2.38.63,3.2-2.25.9-13.96,1.33-13.96,1.33l-6.76-.6-6.23-2.83,22.8-.17Z" fill="none" stroke="#000" stroke-linecap="round" stroke-linejoin="round"/><path d="M100.38,277.96c.14,6.02,2.24,10.8,4.81,10.8,2.66,0,4.82-5.12,4.82-11.43s-2.16-11.43-4.82-11.43c-2.56,0-4.65,4.74-4.81,10.72" fill="none" stroke="#000" stroke-linecap="round" stroke-linejoin="round"/><path d="M100.38,277.96c.17,2.15.51,4.3,1.25,6.3.36,1,.81,1.97,1.44,2.78.32.4.67.77,1.08,1.01.4.25.85.35,1.28.28.43-.07.84-.32,1.19-.65.35-.33.66-.74.92-1.17.52-.88.89-1.87,1.17-2.87.56-2.03.79-4.15.79-6.27,0-2.12-.22-4.24-.77-6.27-.28-1.01-.64-2-1.15-2.88-.26-.44-.55-.85-.9-1.19-.34-.34-.74-.6-1.17-.68-.43-.1-.88,0-1.29.23-.41.23-.77.59-1.09.99-.64.8-1.09,1.77-1.46,2.77-.75,2-1.09,4.14-1.27,6.29,0-.54,0-1.08.01-1.62.03-.54.07-1.08.14-1.62.13-1.08.33-2.15.64-3.21.32-1.05.74-2.09,1.4-3.02.33-.47.73-.9,1.25-1.22.51-.32,1.18-.5,1.82-.39.64.1,1.19.45,1.63.85.44.4.79.87,1.09,1.36.59.97,1,2.02,1.32,3.08.61,2.14.85,4.34.86,6.54-.02,2.2-.26,4.41-.89,6.54-.32,1.06-.74,2.11-1.34,3.08-.3.48-.66.95-1.11,1.34-.44.39-1.01.72-1.65.8-.32.04-.65.02-.95-.06-.31-.08-.59-.22-.84-.39-.51-.33-.9-.78-1.22-1.24-.64-.94-1.06-1.97-1.37-3.02-.31-1.05-.5-2.13-.63-3.21-.06-.54-.11-1.08-.13-1.62-.02-.54-.02-1.09-.01-1.63Z" fill="none" stroke="#000" stroke-linecap="round" stroke-linejoin="round"/><path d="M104.39,288.93c2.11,0,3.82-4.3,3.82-9.61,0-5.31-1.71-9.61-3.82-9.61-2.11,0-4.54,1.88-3.82,9.61.5,5.28,1.71,9.61,3.82,9.61Z" fill="none" stroke="#000" stroke-linecap="round" stroke-linejoin="round"/><path d="M104.68,286.18c.42,0,.79-.24,1.08-.54.29-.3.51-.66.7-1.04.37-.75.61-1.57.8-2.39.35-1.64.47-3.33.45-5.01s-.19-3.35-.59-4.97c-.2-.8-.47-1.6-.84-2.33-.19-.36-.41-.7-.68-.98-.27-.27-.59-.47-.92-.46-.33,0-.64.21-.9.48-.26.28-.47.62-.65.98-.36.73-.6,1.52-.78,2.33-.19.81-.31,1.63-.39,2.45-.09.83-.13,1.66-.14,2.49-.01,1.67.07,3.34.39,4.98.17.82.38,1.63.74,2.39.18.38.4.74.68,1.04.28.3.65.55,1.07.56ZM104.68,286.24c-.44,0-.84-.25-1.14-.55-.3-.31-.55-.66-.75-1.04-.41-.75-.7-1.56-.93-2.38-.46-1.64-.68-3.35-.7-5.06,0-.86.03-1.71.12-2.56.09-.85.23-1.7.44-2.54.21-.83.48-1.66.89-2.44.2-.39.45-.77.77-1.1.17-.16.35-.32.57-.43.22-.12.47-.19.73-.19s.51.08.73.2c.21.12.4.27.56.44.31.34.55.71.74,1.11.39.78.64,1.61.83,2.44.38,1.67.51,3.37.5,5.07-.03,1.7-.21,3.4-.64,5.04-.21.82-.48,1.63-.87,2.38-.19.38-.43.74-.72,1.05-.29.3-.68.56-1.12.57Z" fill="none" stroke="#000" stroke-linecap="round" stroke-linejoin="round"/><path d="M104.35,284.16c1.11,0,2.02-2.9,2.02-6.47,0-3.57-.9-6.47-2.02-6.47-1.11,0-2.02,2.9-2.02,6.47,0,3.57.9,6.47,2.02,6.47ZM104.35,283.05c-.83,0-1.51-2.29-1.51-5.11,0-2.82.68-5.11,1.51-5.11s1.51,2.29,1.51,5.11c0,2.82-.68,5.11-1.51,5.11Z" fill="none" stroke="#000" stroke-linecap="round" stroke-linejoin="round"/><ellipse cx="104.5" cy="277.5" rx=".5" ry="2.5" fill="none" stroke="#000" stroke-linecap="round" stroke-linejoin="round"/><g id="uuid-ce47b71c-12ad-49ba-bc08-dd4155e47814"><polygon id="uuid-24d79274-cb85-484c-aef0-ee096708e38d" points="208.94 285.16 200.92 287.97 205.81 301.89 206.8 304.7 218.81 300.48 217.83 297.68 213.82 299.08 208.94 285.16" fill="#5f5f5f"/><rect id="uuid-7e2dcef1-e5cc-4ba8-a6a5-743f2a1a5ea6" x="194.03" y="269.19" width="10.57" height="20.86" transform="translate(-129.27 179.9) rotate(-37.64)" fill="#727272"/><polygon id="uuid-7e01200f-d855-4967-8efa-2eeca25d5719" points="182.66 291.76 190.74 289.15 195.27 303.2 199.31 301.9 200.22 304.73 188.09 308.63 187.18 305.8 187.18 305.8 182.66 291.76" fill="#5f5f5f"/><rect id="uuid-6a9cfc0b-5ee7-49ff-accc-1edb66493ab6" x="177.3" y="271.57" width="10.57" height="20.86" transform="translate(-101.73 103.04) rotate(-24.89)" fill="#727272"/><path id="uuid-3450a461-9d14-4120-9abf-69a0214deb4a" d="M173,233v42h24v-42h-24Z" fill="#727272"/><rect id="uuid-5d3764e8-f777-49b7-a4e2-9710071e28a5" x="173" y="257" width="24" height="7" fill="#acacac"/><rect id="uuid-47bafc40-2558-40db-8e67-191b81d25be2" x="190" y="233" width="3" height="25" fill="#acacac"/><rect id="uuid-77ebe90d-702c-4b74-a698-ea81e27a3098" x="178" y="233" width="3" height="25" fill="#acacac"/><path id="uuid-7260bf83-e9d2-4e06-9b3a-f08e952a8b2c" d="M196.71,224.03c.5-2.38.59-4.99.19-7.67-1.4-9.27-8.17-15.94-15.13-14.89-6.96,1.05-11.46,9.42-10.06,18.69.4,2.69,1.26,5.15,2.44,7.28l22.56-3.4Z" fill="#ccc"/><path id="uuid-188f1bf1-4f06-4282-89c0-ab27c60c3fc6" d="M174.62,230c2.26,4.73,6.23,7.87,10.74,7.87s8.48-3.14,10.74-7.87h-21.49Z" fill="#ccc"/><ellipse id="uuid-57f76afe-a7b7-4ee5-87ce-fd6f86dcfc08" cx="191" cy="217" rx=".99" ry="2" transform="translate(-16.84 16.07) rotate(-4.62)" fill="#333"/><ellipse id="uuid-66aa16bf-ff32-46a8-833b-a7485bb0982a" cx="183" cy="218" rx=".99" ry="2" transform="translate(-16.95 15.43) rotate(-4.62)" fill="#333"/><rect id="uuid-a7981528-ea40-4a03-89d2-fb4afce6ff09" x="197.97" y="246.21" width="6.37" height="13.59" transform="translate(-9.64 7.97) rotate(-2.22)" fill="#727272"/><rect id="uuid-4b29d026-f3df-47ad-a45d-abd670b96a93" x="197.44" y="232.64" width="6.37" height="13.59" transform="translate(-9.12 7.94) rotate(-2.22)" fill="#727272"/><rect id="uuid-e659cb1a-8e53-42f8-b1c4-28b9a3948fdb" x="162.83" y="235.91" width="13.59" height="6.37" transform="translate(-89.74 375.73) rotate(-82.43)" fill="#727272"/><rect id="uuid-900da84e-ea30-4953-a31f-e97887f7e848" x="161.04" y="249.38" width="13.59" height="6.37" transform="translate(-104.64 385.65) rotate(-82.43)" fill="#727272"/><rect id="uuid-1e17ee84-3698-4e42-9bf6-55919d5fd729" x="198.15" y="259.93" width="6.79" height="6.79" transform="translate(-10.04 8) rotate(-2.22)" fill="#ccc"/><rect id="uuid-37374177-b946-437a-959e-2ab83c6c724d" x="163.1" y="259.26" width="6.79" height="6.79" transform="translate(-115.82 393.08) rotate(-82.43)" fill="#ccc"/><circle id="uuid-666565fd-815c-42bd-b8d8-1c9436569850" cx="185" cy="253" r="1" fill="#333"/><circle id="uuid-69ca604c-c12b-469d-922a-c70a1107b561" cx="185" cy="249" r="1" fill="#333"/><circle id="uuid-daed4c02-e9d5-4b93-9cf0-3e69c4306f12" cx="185" cy="246" r="1" fill="#333"/><circle id="uuid-c939562a-6ee6-4223-be81-51326739c01c" cx="185" cy="242" r="1" fill="#333"/><path d="M196.94,206.53c-1.64-5.75-8.34-9.41-15.65-8.31-7.31,1.1-12.63,6.57-12.5,12.55-2.39.72-3.79,1.38-3.71,1.86.17,1.13,8.36.83,18.29-.67,9.93-1.5,17.84-3.63,17.67-4.76-.07-.48-1.6-.7-4.1-.68Z" fill="#6a6a6a"/><polygon id="uuid-4628d5fd-48df-4559-9990-e53aa16781fb" points="208.94 285.16 200.92 287.97 205.81 301.89 206.8 304.7 218.81 300.48 217.83 297.68 213.82 299.08 208.94 285.16" fill="none" stroke="#000" stroke-linecap="round" stroke-linejoin="round"/><rect id="uuid-8a75d0cc-835e-49a1-9e72-02b08f33bfc9" x="194.03" y="269.19" width="10.57" height="20.86" transform="translate(-129.27 179.9) rotate(-37.64)" fill="none" stroke="#000" stroke-linecap="round" stroke-linejoin="round"/><polygon id="uuid-ef7beb09-d107-4418-8de5-b2db2a2ce397" points="182.66 291.76 190.74 289.15 195.27 303.2 199.31 301.9 200.22 304.73 188.09 308.63 187.18 305.8 187.18 305.8 182.66 291.76" fill="none" stroke="#000" stroke-linecap="round" stroke-linejoin="round"/><rect id="uuid-4ff77635-a770-4c37-b16a-a0c3bf2adaf0" x="177.3" y="271.57" width="10.57" height="20.86" transform="translate(-101.73 103.04) rotate(-24.89)" fill="none" stroke="#000" stroke-linecap="round" stroke-linejoin="round"/><path id="uuid-729ac78f-3afa-4c21-b960-1de8c266237f" d="M173,233v42h24v-42h-24Z" fill="none" stroke="#000" stroke-linecap="round" stroke-linejoin="round"/><rect id="uuid-0265a409-8a2e-4e15-af4d-8165dd667279" x="173" y="257" width="24" height="7" fill="none" stroke="#000" stroke-linecap="round" stroke-linejoin="round"/><rect id="uuid-76961f2a-3d5a-4128-bfaa-123431ae464c" x="190" y="233" width="3" height="25" fill="none" stroke="#000" stroke-linecap="round" stroke-linejoin="round"/><rect id="uuid-67d33386-b503-484a-83ba-b8af38caa7d0" x="178" y="233" width="3" height="25" fill="none" stroke="#000" stroke-linecap="round" stroke-linejoin="round"/><path id="uuid-160e4eee-d130-43fa-85e8-dbb433f6f3e8" d="M196.71,224.03c.5-2.38.59-4.99.19-7.67-1.4-9.27-8.17-15.94-15.13-14.89-6.96,1.05-11.46,9.42-10.06,18.69.4,2.69,1.26,5.15,2.44,7.28l22.56-3.4Z" fill="none" stroke="#000" stroke-linecap="round" stroke-linejoin="round"/><path id="uuid-2637d007-e7ba-4fc7-82bc-c5cdf1c414a7" d="M174.62,230c2.26,4.73,6.23,7.87,10.74,7.87s8.48-3.14,10.74-7.87h-21.49Z" fill="none" stroke="#000" stroke-linecap="round" stroke-linejoin="round"/><ellipse id="uuid-b9d009a6-f333-4bd6-94ed-516364c859a0" cx="191" cy="217" rx=".99" ry="2" transform="translate(-16.84 16.07) rotate(-4.62)" fill="none" stroke="#000" stroke-linecap="round" stroke-linejoin="round"/><ellipse id="uuid-a3118b63-04a8-4a9a-91f0-101199f7228e" cx="183" cy="218" rx=".99" ry="2" transform="translate(-16.95 15.43) rotate(-4.62)" fill="none" stroke="#000" stroke-linecap="round" stroke-linejoin="round"/><rect id="uuid-ceb5d67d-fedb-423a-929a-c231990225d7" x="197.97" y="246.21" width="6.37" height="13.59" transform="translate(-9.64 7.97) rotate(-2.22)" fill="none" stroke="#000" stroke-linecap="round" stroke-linejoin="round"/><rect id="uuid-5c43db77-bf03-488d-a5b9-97859cfdf658" x="197.44" y="232.64" width="6.37" height="13.59" transform="translate(-9.12 7.94) rotate(-2.22)" fill="none" stroke="#000" stroke-linecap="round" stroke-linejoin="round"/><rect id="uuid-7b9aae66-565f-46af-9b4c-f075b7633781" x="162.83" y="235.91" width="13.59" height="6.37" transform="translate(-89.74 375.73) rotate(-82.43)" fill="none" stroke="#000" stroke-linecap="round" stroke-linejoin="round"/><rect id="uuid-259fd06c-135b-43f1-b956-1c79a2584803" x="161.04" y="249.38" width="13.59" height="6.37" transform="translate(-104.64 385.65) rotate(-82.43)" fill="none" stroke="#000" stroke-linecap="round" stroke-linejoin="round"/><rect id="uuid-ac36af1c-3b1c-4cde-9d76-47c092cf6d33" x="198.15" y="259.93" width="6.79" height="6.79" transform="translate(-10.04 8) rotate(-2.22)" fill="none" stroke="#000" stroke-linecap="round" stroke-linejoin="round"/><rect id="uuid-e667fd99-1bc7-4c97-b77c-668d175f6fff" x="163.1" y="259.26" width="6.79" height="6.79" transform="translate(-115.82 393.08) rotate(-82.43)" fill="none" stroke="#000" stroke-linecap="round" stroke-linejoin="round"/><circle id="uuid-4f735438-89e4-46cb-a7ba-01e00985efbf" cx="185" cy="253" r="1" fill="none" stroke="#000" stroke-linecap="round" stroke-linejoin="round"/><circle id="uuid-5381941e-b12e-4684-90d8-f7cc1bfdfd25" cx="185" cy="249" r="1" fill="none" stroke="#000" stroke-linecap="round" stroke-linejoin="round"/><circle id="uuid-a040ea59-bb9b-4e7a-99a5-8a247a13b24f" cx="185" cy="246" r="1" fill="none" stroke="#000" stroke-linecap="round" stroke-linejoin="round"/><circle id="uuid-3d0f7cd1-2167-485e-b27c-8cc0e37f6bb5" cx="185" cy="242" r="1" fill="none" stroke="#000" stroke-linecap="round" stroke-linejoin="round"/><path d="M196.94,206.53c-1.64-5.75-8.34-9.41-15.65-8.31-7.31,1.1-12.63,6.57-12.5,12.55-2.39.72-3.79,1.38-3.71,1.86.17,1.13,8.36.83,18.29-.67,9.93-1.5,17.84-3.63,17.67-4.76-.07-.48-1.6-.7-4.1-.68Z" fill="none" stroke="#000" stroke-linecap="round" stroke-linejoin="round"/></g></svg>