<?xml version="1.0" encoding="UTF-8"?><svg id="uuid-7ca1939c-d6c5-42df-8b85-d8036d97695f" xmlns="http://www.w3.org/2000/svg" viewBox="0 0 500 500"><path d="M247.34,398.73c-.08-1.03-.25-4.72-1.69-8.04-.92-2.11-2.96-4.67-4.81-5.77-3.58-2.12-7.9-2.3-11.62-1.41-3.72.89-7.29,2.95-9.52,6.46-1.16,1.82-1.81,5.02-1.68,7.32.22,3.61,1.74,6.98,2.14,7.94.54,1.3.32,2.93.53,4.31.23,1.5,1.18,2.47,2.58,2.99,1.17.43,2.43.5,3.65.76,1.45.31.8,2.83,1.55,3.84.38.51,1,.78,1.61.92.78.19,1.63.22,2.34-.16-.11.06.39.66.89.83.46.16,1.01.29,1.49.29.96-.01,1.78-.57,2.27-1,.27-.24.63-.32.97-.23.63.16,1.62.29,2.48-.13.65-.32,1.16-.88,1.47-1.53.14-.3.43-.52.76-.57.97-.16,2.34-.91,2.62-2.54.16-.91-.43-1.79-.4-2.7.05-1.55,1.37-2.24,2.33-3.19,1.28-1.25,1.92-2.47,1.62-3.89-.32-1.51-1.5-3.28-1.59-4.49Z" fill="#ccc"/><ellipse cx="226.5" cy="403" rx="3.5" ry="4" transform="translate(-8.39 4.83) rotate(-1.2)" fill="#424242"/><path d="M238.69,395.4c1.65-.97,3.81-.14,4.8,1.85,1,1.99.47,4.38-1.19,5.35s-3.81.14-4.8-1.85-.47-4.38,1.19-5.35Z" fill="#424242"/><path d="M232.79,408.08c-.31-1.29-.05-4.73,1.21-5.03,1.26-.3,3.05,2.65,3.36,3.94.63,2.62-2.08,1.38-2.08,1.38,0,0-1.82,2.48-2.48-.29Z" fill="#424242"/><path d="M231.21,418.21c-.36.01-.71-.02-1.05-.16.23-.12.45-.24.65-.4.48-.41.36-.86.35-1.45-.01-.51-.03-1.03-.02-1.54,0-.35.14-.71.48-.74.42-.04.53.25.57.71.03.43.2,3.31.2,3.32,0,.13-.84.24-.92.25-.09,0-.18.01-.27.02Z" fill="#8abfd1"/><path d="M243.56,415.27c.33-.15.62-.33.86-.62-.26,0-.51,0-.76-.06-.62-.15-.71-.61-.97-1.14-.22-.46-.44-.93-.68-1.38-.16-.31-.45-.57-.76-.44-.4.16-.36.46-.19.9.17.4,1.32,3.05,1.32,3.05.05.12.85-.16.93-.19.08-.03.16-.07.25-.1Z" fill="#8abfd1"/><path d="M236.35,418.53s.43-1.04.31-1.66c-.22-1.1-.51-2.58-.71-3.42-.08-.34.06-.64.39-.72s.57.1.65.44c0,.01.55,1.97.88,3.34.15.63,1.07,1.4,1.07,1.4-.32-.06-.87-.2-1.38-.05-.64.19-1.21.67-1.21.67Z" fill="#8abfd1"/><path d="M231.77,377.21s1.13,3.05.48,4.12c-.66,1.07-3.28.87-4.09,1.37-.58.36-.57,1.37-.21,1.79.36.42,5.55.06,6.57-1.91,1.02-1.97-.36-5.74-.36-5.74l-2.39.36Z" fill="#f97d23"/><path d="M240.07,376.85l-2.21.48s.95,4,.18,5.32-3.56,2.72-4.06,3.82c-.45.98.66,1.79,2.39.72s3.69-2.68,4.06-3.47c.9-1.91-.36-6.87-.36-6.87Z" fill="#f97d23"/><path d="M224.96,346.69c-4.7,1.06-8.36,5.02-6.99,11.05.81,3.58,1.32,4.84,1.61,6.45.63,3.39.46,4.88,1.89,7.98,1.52,3.3,7.13,7.55,14.11,6.53,6.99-1.02,9.8-1.97,9.8-1.97l2.51-2.21,2.39-.6.36-1.73s1.79-.08,2.15-.66c.58-.92.24-1.67-.78-2.03-1.01-.36-1.61-.66-1.61-.66,0,0,9.85-6.51,11.05-7.22,1.19-.71,3.05-1.94,3.14-2.39.22-1.13-2.84-3.64-6.84-4.84-4-1.2-7.44-1.52-8-1.07-.75.59-4.06,6.81-6.27,6.51-2.87-.39-4.84-3.08-5.37-4.6-.61-1.73-4.28-10.53-13.14-8.54Z" fill="#4d4d4d"/><path d="M218.93,356.01c-.72-.12-2.55,1.83-2.91,2.31s-.92,1.16-.72,1.67c.32.8,1.95.84,2.91.92,1,.08,2.91.24,3.22-.36.32-.6-.36-2.11-.92-3.02-.52-.85-.84-1.39-1.59-1.51Z" fill="#f97d23"/><ellipse cx="226.5" cy="356" rx="1.5" ry="2" transform="translate(-11.63 7.67) rotate(-1.89)"/><path d="M232.13,368.67c-.83.3.26,3.22,1.37,4.54,1.18,1.38,4.02,4.49,8.36,4.9,2.95.28,4.26-.56,4.95-1.32.52-.56,1.07-1.22,1.46-1.51.56-.44,1.12-.06,2.07-.76.69-.5.84-1.33,1.2-1.63.36-.3.96-.23,1.27-.52.56-.52.48-2.03.08-2.11s-.44,1.07-.84,1.23-.93.06-1.67.48c-.64.36-.44,1.07-.87,1.39s-1.23-.12-2.31.48c-.58.32-1.07,1.87-2.75,2.23-2.08.45-5.2-1.07-6.69-2.15-3.47-2.51-4.23-5.77-5.64-5.26Z"/><path d="M134.45,245.91c-9.1,1.86-23.01,5.15-24.76,13.03-1.41,6.37,6.34,10.2,5.21,16.94-2,11.9-28.32,12.46-28.66,19.54-.33,6.88,23.86,19.71,39.09,11.73,15.18-7.96,9.42-30.26,23.45-36.48,11.45-5.07,19.2,8.03,43,11.73,26.76,4.16,56.14-6.33,57.33-16.94.68-6.1-8.02-11.62-14.33-15.64-29.08-18.48-61.55-11.84-100.33-3.91Z" fill="#c1272d"/><path d="M271.26,284.19c3.56-14.46,28.78-22.21,48.21-19.54,15.25,2.09,16.16,9.12,29.97,9.12,18.26,0,26.7-12.3,33.88-7.82,6.7,4.18,8.35,20.5,1.3,27.36-10.18,9.91-28.39-9.8-59.94-5.21-25.36,3.69-38.32,20.01-48.21,13.03-5.1-3.61-6.57-11.43-5.21-16.94Z" fill="#c1272d"/><g id="uuid-ae8b377b-b14d-439d-a81f-961e33386d70"><polygon id="uuid-98a74982-a06d-4ba5-bc40-03a914fdb240" points="347 266 336 266 336 286.81 336 291 354 291 354 287 347 287 347 266" fill="#5f5f5f"/><rect id="uuid-efc259f2-5dd5-4b5e-888f-21555deffd9c" x="301" y="258" width="30" height="16" fill="#727272"/><polygon id="uuid-e2d96fd1-0c8e-467c-b21f-68edc1e3dca1" points="311.87 268.08 308.91 256.53 288.27 261.82 286.79 256.04 282.66 257.09 287.1 274.43 291.26 273.37 291.26 273.37 311.87 268.08" fill="#5f5f5f"/><rect id="uuid-b0bccbff-4456-4378-996d-66e4f4838de8" x="307.46" y="246.75" width="29.83" height="15.34" transform="translate(-85.7 208.24) rotate(-31.82)" fill="#727272"/><path id="uuid-e716e888-f586-42f8-a6fd-5a224a9a3c1b" d="M391,240h-60v34h60v-34Z" fill="#727272"/><rect id="uuid-a573c27f-4c02-46f8-af8e-38dad5ea263b" x="345" y="240" width="10" height="34" fill="#acacac"/><rect id="uuid-633e30e1-fcd0-49dc-bdda-a2747fd34d02" x="357" y="263" width="35" height="4" fill="#acacac"/><rect id="uuid-c937289f-b586-4655-8b83-76aa30009d91" x="357" y="245" width="35" height="4" fill="#acacac"/><rect id="uuid-69c4d613-2f7e-4521-8cbb-7a3a23191847" x="412.34" y="264.88" width="9.08" height="19.38" transform="translate(68.87 632.44) rotate(-79.17)" fill="#727272"/><rect id="uuid-e83dff5f-ee77-4b87-85a6-ba9947dbc51e" x="393.3" y="261.24" width="9.08" height="19.38" transform="translate(56.98 610.78) rotate(-79.17)" fill="#727272"/><rect id="uuid-175934fe-766b-4089-a9f4-5606e17f4445" x="393.69" y="237.15" width="9.08" height="19.38" transform="translate(-2.67 489.32) rotate(-62.96)" fill="#727272"/><rect id="uuid-aac4f250-643c-4221-8d47-4a3bc5a1175a" x="410.95" y="245.96" width="9.08" height="19.38" transform="translate(-1.1 509.5) rotate(-62.96)" fill="#727272"/><rect id="uuid-e4e9972c-a102-4f31-b781-d43e73306c31" x="426.5" y="272.5" width="9.69" height="9.69" transform="translate(77.9 648.9) rotate(-79.17)" fill="#ccc"/><rect id="uuid-aabdac04-e58d-48ab-9db2-d2776ed05345" x="423.59" y="257.41" width="9.69" height="9.69" transform="translate(.07 524.64) rotate(-62.96)" fill="#ccc"/><circle id="uuid-286ff570-fd91-4b45-ba65-0c40b9477fa1" cx="361.5" cy="255.5" r="1.5" fill="#333"/><circle id="uuid-f7adf351-df4f-4c09-a552-9e62ea93deee" cx="367.5" cy="255.5" r="1.5" fill="#333"/><circle id="uuid-48914d6f-1433-436c-aef4-ffd01d008397" cx="372.5" cy="255.5" r="1.5" fill="#333"/><circle id="uuid-74022962-b36c-4e62-a87c-a94d064a471c" cx="378.5" cy="256.5" r="1.5" fill="#333"/></g><g id="uuid-82e9bf56-aed9-4eaa-b8e2-e1f91531064d"><polygon id="uuid-23f610e0-d142-4809-b028-10240f3f8a13" points="162.41 284.65 157.75 295.64 177.35 303.95 181.29 305.62 188.28 289.15 184.36 287.48 182.03 292.97 162.41 284.65" fill="#5f5f5f"/><rect id="uuid-355979db-fa65-4c9f-8cd4-e779508ea1d1" x="134" y="282" width="30" height="16" fill="#727272"/><polygon id="uuid-ee4ac3a8-488c-4d35-9a5e-4eadd48686dd" points="78.97 280.76 88.28 273.3 74.96 256.67 79.62 252.94 76.95 249.61 62.98 260.8 65.66 264.15 65.66 264.15 78.97 280.76" fill="#5f5f5f"/><rect id="uuid-396ae4e6-569c-4eed-809e-b6e5261a2c23" x="85.79" y="267.34" width="15.34" height="29.83" transform="translate(-195.87 213.78) rotate(-58.36)" fill="#727272"/><path id="uuid-68787892-2705-4233-a7d9-ea48b4e07a0d" d="M221,243h-60v34h60v-34Z" fill="#727272"/><rect id="uuid-458a931e-4e23-4083-a5fc-4373fa387942" x="177" y="243" width="10" height="34" fill="#acacac"/><rect id="uuid-e2ff626c-c8ee-4398-9584-65501973cb3d" x="187" y="266" width="35" height="4" fill="#acacac"/><rect id="uuid-b7c50316-2d45-48a9-90cb-b422c1605ff3" x="187" y="248" width="35" height="4" fill="#acacac"/><rect id="uuid-789e7975-ac29-4656-bff4-6b4e0f773935" x="217.38" y="277.81" width="19.38" height="9.08" transform="translate(-134.35 256.67) rotate(-47.13)" fill="#727272"/><rect id="uuid-69d7d9ee-5966-4d23-8360-e47adc0a7238" x="223.94" y="263.9" width="9.08" height="19.38" transform="translate(-83.16 446.59) rotate(-79.17)" fill="#727272"/><rect id="uuid-1b53a49d-075d-4a53-9f6b-e52fee9ba073" x="205.21" y="234.71" width="9.08" height="19.38" transform="translate(-109.19 289.17) rotate(-57.35)" fill="#727272"/><rect id="uuid-8d11befc-78dc-45df-afd4-da408a72569e" x="190.95" y="227.25" width="9.08" height="19.38" transform="translate(-56.54 412.54) rotate(-85.34)" fill="#727272"/><rect id="uuid-d250779e-1df0-4243-9170-ef74dd47ef90" x="212.2" y="288.3" width="9.69" height="9.69" transform="translate(-145.47 252.77) rotate(-47.13)" fill="#ccc"/><rect id="uuid-a9ad7a51-924e-4edc-933e-fb3a444a2e4a" x="176.16" y="230.91" width="9.69" height="9.69" transform="translate(-68.68 397.02) rotate(-85.34)" fill="#ccc"/><circle id="uuid-6095f45f-9123-4edb-b905-62d6dad2ef89" cx="192.5" cy="258.5" r="1.5" fill="#333"/><circle id="uuid-433858bc-51ff-48b5-97f1-9a3735646022" cx="197.5" cy="258.5" r="1.5" fill="#333"/><circle id="uuid-b1982cb1-e903-4e97-a58d-b19396a4efcf" cx="202.5" cy="258.5" r="1.5" fill="#333"/><circle id="uuid-58e6c9c1-7d92-4efd-938e-257bbd227cbc" cx="209.5" cy="259.5" r="1.5" fill="#333"/></g><path d="M418.25,244.47c-.4-1.31-1.69-6.02-4.53-9.84-1.81-2.43-5.2-5.08-7.93-5.9-5.27-1.58-10.95-.42-15.54,1.93-4.59,2.35-8.64,6.16-10.53,11.41-.98,2.72-.91,7.07-.06,10,1.33,4.6,4.28,8.46,5.08,9.56,1.08,1.5,1.27,3.69,1.93,5.39.73,1.86,2.25,2.81,4.23,3.02,1.65.18,3.31-.13,4.97-.19,1.98-.07,1.86,3.39,3.13,4.46.64.54,1.53.68,2.37.67,1.07,0,2.19-.24,3-.96-.12.11.69.72,1.39.78.64.05,1.4.05,2.03-.11,1.25-.33,2.15-1.31,2.67-2.03.28-.39.72-.62,1.2-.61.87,0,2.19-.15,3.19-.97.75-.62,1.26-1.51,1.47-2.45.1-.44.41-.81.82-.99,1.22-.53,2.78-1.93,2.68-4.12-.05-1.22-1.08-2.17-1.3-3.36-.38-2.02,1.13-3.34,2.11-4.87,1.3-2.03,1.79-3.8.99-5.55-.85-1.85-2.9-3.75-3.36-5.28Z" fill="#ccc"/><ellipse cx="392" cy="256.5" rx="4.99" ry="5.51" transform="translate(-34.35 62.38) rotate(-8.72)" fill="#424242"/><ellipse cx="409" cy="247" rx="4.78" ry="5.21" transform="translate(-54.84 361.63) rotate(-45.01)" fill="#424242"/><path d="M402.01,261.24c-.77-1.56-1.43-6.09.12-6.88,1.56-.8,4.73,2.43,5.51,4,1.57,3.18-2.32,2.45-2.32,2.45,0,0-1.65,3.79-3.32.43Z" fill="#424242"/><path d="M402.87,274.84c-.46.13-.93.21-1.41.13.26-.22.52-.45.73-.73.51-.69.22-1.23.04-1.99-.16-.66-.33-1.32-.47-1.98-.09-.45-.02-.96.41-1.11.54-.19.77.15.95.74.17.55,1.22,4.21,1.22,4.22.05.17-1.02.58-1.12.62-.11.04-.23.08-.34.11Z" fill="#8abfd1"/><path d="M418.1,267.05c.38-.3.72-.63.94-1.08-.33.08-.67.16-1.01.16-.85,0-1.11-.55-1.59-1.16-.42-.53-.84-1.06-1.29-1.57-.3-.34-.74-.59-1.12-.33-.47.33-.34.71.01,1.22.33.47,2.6,3.51,2.6,3.51.1.14,1.07-.48,1.16-.55.1-.07.19-.14.29-.21Z" fill="#8abfd1"/><path d="M409.66,273.59s.26-1.49-.08-2.24c-.6-1.34-1.41-3.16-1.92-4.19-.2-.41-.11-.85.3-1.06s.77-.05.97.36c0,.02,1.29,2.36,2.11,4.03.38.77,1.8,1.47,1.8,1.47-.43.02-1.2.03-1.81.38-.78.45-1.38,1.26-1.38,1.26Z" fill="#8abfd1"/><path d="M247.34,398.73c-.08-1.03-.25-4.72-1.69-8.04-.92-2.11-2.96-4.67-4.81-5.77-3.58-2.12-7.9-2.3-11.62-1.41-3.72.89-7.29,2.95-9.52,6.46-1.16,1.82-1.81,5.02-1.68,7.32.22,3.61,1.74,6.98,2.14,7.94.54,1.3.32,2.93.53,4.31.23,1.5,1.18,2.47,2.58,2.99,1.17.43,2.43.5,3.65.76,1.45.31.8,2.83,1.55,3.84.38.51,1,.78,1.61.92.78.19,1.63.22,2.34-.16-.11.06.39.66.89.83.46.16,1.01.29,1.49.29.96-.01,1.78-.57,2.27-1,.27-.24.63-.32.97-.23.63.16,1.62.29,2.48-.13.65-.32,1.16-.88,1.47-1.53.14-.3.43-.52.76-.57.97-.16,2.34-.91,2.62-2.54.16-.91-.43-1.79-.4-2.7.05-1.55,1.37-2.24,2.33-3.19,1.28-1.25,1.92-2.47,1.62-3.89-.32-1.51-1.5-3.28-1.59-4.49Z" fill="none" stroke="#000" stroke-linecap="round" stroke-linejoin="round"/><ellipse cx="226.5" cy="403" rx="3.5" ry="4" transform="translate(-8.39 4.83) rotate(-1.2)" fill="none" stroke="#000" stroke-linecap="round" stroke-linejoin="round"/><path d="M238.69,395.4c1.65-.97,3.81-.14,4.8,1.85,1,1.99.47,4.38-1.19,5.35s-3.81.14-4.8-1.85-.47-4.38,1.19-5.35Z" fill="none" stroke="#000" stroke-linecap="round" stroke-linejoin="round"/><path d="M232.79,408.08c-.31-1.29-.05-4.73,1.21-5.03,1.26-.3,3.05,2.65,3.36,3.94.63,2.62-2.08,1.38-2.08,1.38,0,0-1.82,2.48-2.48-.29Z" fill="none" stroke="#000" stroke-linecap="round" stroke-linejoin="round"/><path d="M231.21,418.21c-.36.01-.71-.02-1.05-.16.23-.12.45-.24.65-.4.48-.41.36-.86.35-1.45-.01-.51-.03-1.03-.02-1.54,0-.35.14-.71.48-.74.42-.04.53.25.57.71.03.43.2,3.31.2,3.32,0,.13-.84.24-.92.25-.09,0-.18.01-.27.02Z" fill="none" stroke="#000" stroke-linecap="round" stroke-linejoin="round"/><path d="M243.56,415.27c.33-.15.62-.33.86-.62-.26,0-.51,0-.76-.06-.62-.15-.71-.61-.97-1.14-.22-.46-.44-.93-.68-1.38-.16-.31-.45-.57-.76-.44-.4.16-.36.46-.19.9.17.4,1.32,3.05,1.32,3.05.05.12.85-.16.93-.19.08-.03.16-.07.25-.1Z" fill="none" stroke="#000" stroke-linecap="round" stroke-linejoin="round"/><path d="M236.35,418.53s.43-1.04.31-1.66c-.22-1.1-.51-2.58-.71-3.42-.08-.34.06-.64.39-.72s.57.1.65.44c0,.01.55,1.97.88,3.34.15.63,1.07,1.4,1.07,1.4-.32-.06-.87-.2-1.38-.05-.64.19-1.21.67-1.21.67Z" fill="none" stroke="#000" stroke-linecap="round" stroke-linejoin="round"/><path d="M247.34,398.73c-.08-1.03-.25-4.72-1.69-8.04-.92-2.11-2.96-4.67-4.81-5.77-3.58-2.12-7.9-2.3-11.62-1.41-3.72.89-7.29,2.95-9.52,6.46-1.16,1.82-1.81,5.02-1.68,7.32.22,3.61,1.74,6.98,2.14,7.94.54,1.3.32,2.93.53,4.31.23,1.5,1.18,2.47,2.58,2.99,1.17.43,2.43.5,3.65.76,1.45.31.8,2.83,1.55,3.84.38.51,1,.78,1.61.92.78.19,1.63.22,2.34-.16-.11.06.39.66.89.83.46.16,1.01.29,1.49.29.96-.01,1.78-.57,2.27-1,.27-.24.63-.32.97-.23.63.16,1.62.29,2.48-.13.65-.32,1.16-.88,1.47-1.53.14-.3.43-.52.76-.57.97-.16,2.34-.91,2.62-2.54.16-.91-.43-1.79-.4-2.7.05-1.55,1.37-2.24,2.33-3.19,1.28-1.25,1.92-2.47,1.62-3.89-.32-1.51-1.5-3.28-1.59-4.49Z" fill="none" stroke="#000" stroke-linecap="round" stroke-linejoin="round"/><ellipse cx="226.5" cy="403" rx="3.5" ry="4" transform="translate(-8.39 4.83) rotate(-1.2)" fill="none" stroke="#000" stroke-linecap="round" stroke-linejoin="round"/><path d="M238.69,395.4c1.65-.97,3.81-.14,4.8,1.85,1,1.99.47,4.38-1.19,5.35s-3.81.14-4.8-1.85-.47-4.38,1.19-5.35Z" fill="none" stroke="#000" stroke-linecap="round" stroke-linejoin="round"/><path d="M232.79,408.08c-.31-1.29-.05-4.73,1.21-5.03,1.26-.3,3.05,2.65,3.36,3.94.63,2.62-2.08,1.38-2.08,1.38,0,0-1.82,2.48-2.48-.29Z" fill="none" stroke="#000" stroke-linecap="round" stroke-linejoin="round"/><path d="M231.21,418.21c-.36.01-.71-.02-1.05-.16.23-.12.45-.24.65-.4.48-.41.36-.86.35-1.45-.01-.51-.03-1.03-.02-1.54,0-.35.14-.71.48-.74.42-.04.53.25.57.71.03.43.2,3.31.2,3.32,0,.13-.84.24-.92.25-.09,0-.18.01-.27.02Z" fill="none" stroke="#000" stroke-linecap="round" stroke-linejoin="round"/><path d="M243.56,415.27c.33-.15.62-.33.86-.62-.26,0-.51,0-.76-.06-.62-.15-.71-.61-.97-1.14-.22-.46-.44-.93-.68-1.38-.16-.31-.45-.57-.76-.44-.4.16-.36.46-.19.9.17.4,1.32,3.05,1.32,3.05.05.12.85-.16.93-.19.08-.03.16-.07.25-.1Z" fill="none" stroke="#000" stroke-linecap="round" stroke-linejoin="round"/><path d="M236.35,418.53s.43-1.04.31-1.66c-.22-1.1-.51-2.58-.71-3.42-.08-.34.06-.64.39-.72s.57.1.65.44c0,.01.55,1.97.88,3.34.15.63,1.07,1.4,1.07,1.4-.32-.06-.87-.2-1.38-.05-.64.19-1.21.67-1.21.67Z" fill="none" stroke="#000" stroke-linecap="round" stroke-linejoin="round"/><path d="M231.77,377.21s1.13,3.05.48,4.12c-.66,1.07-3.28.87-4.09,1.37-.58.36-.57,1.37-.21,1.79.36.42,5.55.06,6.57-1.91,1.02-1.97-.36-5.74-.36-5.74l-2.39.36Z" fill="none" stroke="#000" stroke-linecap="round" stroke-linejoin="round"/><path d="M240.07,376.85l-2.21.48s.95,4,.18,5.32-3.56,2.72-4.06,3.82c-.45.98.66,1.79,2.39.72s3.69-2.68,4.06-3.47c.9-1.91-.36-6.87-.36-6.87Z" fill="none" stroke="#000" stroke-linecap="round" stroke-linejoin="round"/><path d="M224.96,346.69c-4.7,1.06-8.36,5.02-6.99,11.05.81,3.58,1.32,4.84,1.61,6.45.63,3.39.46,4.88,1.89,7.98,1.52,3.3,7.13,7.55,14.11,6.53,6.99-1.02,9.8-1.97,9.8-1.97l2.51-2.21,2.39-.6.36-1.73s1.79-.08,2.15-.66c.58-.92.24-1.67-.78-2.03-1.01-.36-1.61-.66-1.61-.66,0,0,9.85-6.51,11.05-7.22,1.19-.71,3.05-1.94,3.14-2.39.22-1.13-2.84-3.64-6.84-4.84-4-1.2-7.44-1.52-8-1.07-.75.59-4.06,6.81-6.27,6.51-2.87-.39-4.84-3.08-5.37-4.6-.61-1.73-4.28-10.53-13.14-8.54Z" fill="none" stroke="#000" stroke-linecap="round" stroke-linejoin="round"/><path d="M218.93,356.01c-.72-.12-2.55,1.83-2.91,2.31s-.92,1.16-.72,1.67c.32.8,1.95.84,2.91.92,1,.08,2.91.24,3.22-.36.32-.6-.36-2.11-.92-3.02-.52-.85-.84-1.39-1.59-1.51Z" fill="none" stroke="#000" stroke-linecap="round" stroke-linejoin="round"/><ellipse cx="226.5" cy="356" rx="1.5" ry="2" transform="translate(-11.63 7.67) rotate(-1.89)" fill="none" stroke="#000" stroke-linecap="round" stroke-linejoin="round"/><path d="M232.13,368.67c-.83.3.26,3.22,1.37,4.54,1.18,1.38,4.02,4.49,8.36,4.9,2.95.28,4.26-.56,4.95-1.32.52-.56,1.07-1.22,1.46-1.51.56-.44,1.12-.06,2.07-.76.69-.5.84-1.33,1.2-1.63.36-.3.96-.23,1.27-.52.56-.52.48-2.03.08-2.11s-.44,1.07-.84,1.23-.93.06-1.67.48c-.64.36-.44,1.07-.87,1.39s-1.23-.12-2.31.48c-.58.32-1.07,1.87-2.75,2.23-2.08.45-5.2-1.07-6.69-2.15-3.47-2.51-4.23-5.77-5.64-5.26Z" fill="none" stroke="#000" stroke-linecap="round" stroke-linejoin="round"/><path d="M231.77,377.21s1.13,3.05.48,4.12c-.66,1.07-3.28.87-4.09,1.37-.58.36-.57,1.37-.21,1.79.36.42,5.55.06,6.57-1.91,1.02-1.97-.36-5.74-.36-5.74l-2.39.36Z" fill="none" stroke="#000" stroke-linecap="round" stroke-linejoin="round"/><path d="M240.07,376.85l-2.21.48s.95,4,.18,5.32-3.56,2.72-4.06,3.82c-.45.98.66,1.79,2.39.72s3.69-2.68,4.06-3.47c.9-1.91-.36-6.87-.36-6.87Z" fill="none" stroke="#000" stroke-linecap="round" stroke-linejoin="round"/><path d="M224.96,346.69c-4.7,1.06-8.36,5.02-6.99,11.05.81,3.58,1.32,4.84,1.61,6.45.63,3.39.46,4.88,1.89,7.98,1.52,3.3,7.13,7.55,14.11,6.53,6.99-1.02,9.8-1.97,9.8-1.97l2.51-2.21,2.39-.6.36-1.73s1.79-.08,2.15-.66c.58-.92.24-1.67-.78-2.03-1.01-.36-1.61-.66-1.61-.66,0,0,9.85-6.51,11.05-7.22,1.19-.71,3.05-1.94,3.14-2.39.22-1.13-2.84-3.64-6.84-4.84-4-1.2-7.44-1.52-8-1.07-.75.59-4.06,6.81-6.27,6.51-2.87-.39-4.84-3.08-5.37-4.6-.61-1.73-4.28-10.53-13.14-8.54Z" fill="none" stroke="#000" stroke-linecap="round" stroke-linejoin="round"/><path d="M218.93,356.01c-.72-.12-2.55,1.83-2.91,2.31s-.92,1.16-.72,1.67c.32.8,1.95.84,2.91.92,1,.08,2.91.24,3.22-.36.32-.6-.36-2.11-.92-3.02-.52-.85-.84-1.39-1.59-1.51Z" fill="none" stroke="#000" stroke-linecap="round" stroke-linejoin="round"/><ellipse cx="226.5" cy="356" rx="1.5" ry="2" transform="translate(-11.63 7.67) rotate(-1.89)" fill="none" stroke="#000" stroke-linecap="round" stroke-linejoin="round"/><path d="M232.13,368.67c-.83.3.26,3.22,1.37,4.54,1.18,1.38,4.02,4.49,8.36,4.9,2.95.28,4.26-.56,4.95-1.32.52-.56,1.07-1.22,1.46-1.51.56-.44,1.12-.06,2.07-.76.69-.5.84-1.33,1.2-1.63.36-.3.96-.23,1.27-.52.56-.52.48-2.03.08-2.11s-.44,1.07-.84,1.23-.93.06-1.67.48c-.64.36-.44,1.07-.87,1.39s-1.23-.12-2.31.48c-.58.32-1.07,1.87-2.75,2.23-2.08.45-5.2-1.07-6.69-2.15-3.47-2.51-4.23-5.77-5.64-5.26Z" fill="none" stroke="#000" stroke-linecap="round" stroke-linejoin="round"/><path d="M134.45,245.91c-9.1,1.86-23.01,5.15-24.76,13.03-1.41,6.37,6.34,10.2,5.21,16.94-2,11.9-28.32,12.46-28.66,19.54-.33,6.88,23.86,19.71,39.09,11.73,15.18-7.96,9.42-30.26,23.45-36.48,11.45-5.07,19.2,8.03,43,11.73,26.76,4.16,56.14-6.33,57.33-16.94.68-6.1-8.02-11.62-14.33-15.64-29.08-18.48-61.55-11.84-100.33-3.91Z" fill="none" stroke="#000" stroke-linecap="round" stroke-linejoin="round"/><path d="M271.26,284.19c3.56-14.46,28.78-22.21,48.21-19.54,15.25,2.09,16.16,9.12,29.97,9.12,18.26,0,26.7-12.3,33.88-7.82,6.7,4.18,8.35,20.5,1.3,27.36-10.18,9.91-28.39-9.8-59.94-5.21-25.36,3.69-38.32,20.01-48.21,13.03-5.1-3.61-6.57-11.43-5.21-16.94Z" fill="none" stroke="#000" stroke-linecap="round" stroke-linejoin="round"/><g id="uuid-7b57f652-e8dc-4ef4-ab2a-f7521128078e"><polygon id="uuid-40026a5b-9fbd-48ab-834f-81996af96a95" points="347 266 336 266 336 286.81 336 291 354 291 354 287 347 287 347 266" fill="none" stroke="#000" stroke-linecap="round" stroke-linejoin="round"/><rect id="uuid-eb059454-72c4-4715-9a4d-dc048d51366b" x="301" y="258" width="30" height="16" fill="none" stroke="#000" stroke-linecap="round" stroke-linejoin="round"/><polygon id="uuid-0254b5fa-be87-4698-83f6-d641a4133f28" points="311.87 268.08 308.91 256.53 288.27 261.82 286.79 256.04 282.66 257.09 287.1 274.43 291.26 273.37 291.26 273.37 311.87 268.08" fill="none" stroke="#000" stroke-linecap="round" stroke-linejoin="round"/><rect id="uuid-f36ad467-9fa2-4f7f-afe7-50530237086a" x="307.46" y="246.75" width="29.83" height="15.34" transform="translate(-85.7 208.24) rotate(-31.82)" fill="none" stroke="#000" stroke-linecap="round" stroke-linejoin="round"/><path id="uuid-5c4e924a-9f28-468f-85e3-fa9377cb7e92" d="M391,240h-60v34h60v-34Z" fill="none" stroke="#000" stroke-linecap="round" stroke-linejoin="round"/><rect id="uuid-d9f15495-a58d-4ed5-9cd9-4435db75c9ff" x="345" y="240" width="10" height="34" fill="none" stroke="#000" stroke-linecap="round" stroke-linejoin="round"/><rect id="uuid-3a700cbe-815f-46c4-8b6b-d7c14214e56c" x="357" y="263" width="35" height="4" fill="none" stroke="#000" stroke-linecap="round" stroke-linejoin="round"/><rect id="uuid-5ba067b5-8d89-4a68-99d4-209234fc826b" x="357" y="245" width="35" height="4" fill="none" stroke="#000" stroke-linecap="round" stroke-linejoin="round"/><rect id="uuid-de170d7a-3382-4830-bd2e-7a840909a6b6" x="412.34" y="264.88" width="9.08" height="19.38" transform="translate(68.87 632.44) rotate(-79.17)" fill="none" stroke="#000" stroke-linecap="round" stroke-linejoin="round"/><rect id="uuid-5a2c8131-e4d6-4a17-b10b-e64bf0965840" x="393.3" y="261.24" width="9.08" height="19.38" transform="translate(56.98 610.78) rotate(-79.17)" fill="none" stroke="#000" stroke-linecap="round" stroke-linejoin="round"/><rect id="uuid-b1348da4-bb55-4b87-9ee7-6c3988167ab4" x="393.69" y="237.15" width="9.08" height="19.38" transform="translate(-2.67 489.32) rotate(-62.96)" fill="none" stroke="#000" stroke-linecap="round" stroke-linejoin="round"/><rect id="uuid-af92bbd0-885b-4c86-be09-a3183716254c" x="410.95" y="245.96" width="9.08" height="19.38" transform="translate(-1.1 509.5) rotate(-62.96)" fill="none" stroke="#000" stroke-linecap="round" stroke-linejoin="round"/><rect id="uuid-f2cf2e11-53ae-4a7d-a480-f4d290b42260" x="426.5" y="272.5" width="9.69" height="9.69" transform="translate(77.9 648.9) rotate(-79.17)" fill="none" stroke="#000" stroke-linecap="round" stroke-linejoin="round"/><rect id="uuid-6f0a9e92-7bc5-43b2-9f2d-24af88c46f0c" x="423.59" y="257.41" width="9.69" height="9.69" transform="translate(.07 524.64) rotate(-62.96)" fill="none" stroke="#000" stroke-linecap="round" stroke-linejoin="round"/><circle id="uuid-6fb94f8e-c1e9-4c75-8e93-14a6f4e1345e" cx="361.5" cy="255.5" r="1.5" fill="none" stroke="#000" stroke-linecap="round" stroke-linejoin="round"/><circle id="uuid-9c63845f-8a04-4a34-b7cf-8dc0a1d0581b" cx="367.5" cy="255.5" r="1.5" fill="none" stroke="#000" stroke-linecap="round" stroke-linejoin="round"/><circle id="uuid-b1e6f66c-69c4-4e02-aee2-d7a268aca4c7" cx="372.5" cy="255.5" r="1.5" fill="none" stroke="#000" stroke-linecap="round" stroke-linejoin="round"/><circle id="uuid-7a097c8a-558b-4333-a1d2-df985131976c" cx="378.5" cy="256.5" r="1.5" fill="none" stroke="#000" stroke-linecap="round" stroke-linejoin="round"/><polygon id="uuid-856a999d-a72a-4d22-aa30-69d6bfe7e927" points="347 266 336 266 336 286.81 336 291 354 291 354 287 347 287 347 266" fill="none" stroke="#000" stroke-linecap="round" stroke-linejoin="round"/><rect id="uuid-d36e7bb5-d741-432f-b0a2-5484f7e681ac" x="301" y="258" width="30" height="16" fill="none" stroke="#000" stroke-linecap="round" stroke-linejoin="round"/><polygon id="uuid-070cbd29-157c-4290-90c3-d64146138ad9" points="311.87 268.08 308.91 256.53 288.27 261.82 286.79 256.04 282.66 257.09 287.1 274.43 291.26 273.37 291.26 273.37 311.87 268.08" fill="none" stroke="#000" stroke-linecap="round" stroke-linejoin="round"/><rect id="uuid-29505920-ccd1-423d-b2b1-26f1be138693" x="307.46" y="246.75" width="29.83" height="15.34" transform="translate(-85.7 208.24) rotate(-31.82)" fill="none" stroke="#000" stroke-linecap="round" stroke-linejoin="round"/><path id="uuid-243bf917-ff68-4f58-8880-94dd640c60fa" d="M391,240h-60v34h60v-34Z" fill="none" stroke="#000" stroke-linecap="round" stroke-linejoin="round"/><rect id="uuid-ce74fecd-b8fc-4698-86e6-d0657542fc5d" x="345" y="240" width="10" height="34" fill="none" stroke="#000" stroke-linecap="round" stroke-linejoin="round"/><rect id="uuid-59c0b28b-98d2-4531-967d-3eea1ad15aa9" x="357" y="263" width="35" height="4" fill="none" stroke="#000" stroke-linecap="round" stroke-linejoin="round"/><rect id="uuid-fa6b43d5-5d3a-47d9-bf17-c079122f0911" x="357" y="245" width="35" height="4" fill="none" stroke="#000" stroke-linecap="round" stroke-linejoin="round"/><rect id="uuid-0d984f97-a08a-4bd4-ae41-b10f7d559b71" x="412.34" y="264.88" width="9.08" height="19.38" transform="translate(68.87 632.44) rotate(-79.17)" fill="none" stroke="#000" stroke-linecap="round" stroke-linejoin="round"/><rect id="uuid-7af64650-b7d6-4947-8f3e-75c0cbe764a3" x="393.3" y="261.24" width="9.08" height="19.38" transform="translate(56.98 610.78) rotate(-79.17)" fill="none" stroke="#000" stroke-linecap="round" stroke-linejoin="round"/><rect id="uuid-493c4fa8-72f1-4fb5-bc48-b94c27b92b8c" x="393.69" y="237.15" width="9.08" height="19.38" transform="translate(-2.67 489.32) rotate(-62.96)" fill="none" stroke="#000" stroke-linecap="round" stroke-linejoin="round"/><rect id="uuid-80675dc6-76ee-4a86-abb0-e523d5f94dfe" x="410.95" y="245.96" width="9.08" height="19.38" transform="translate(-1.1 509.5) rotate(-62.96)" fill="none" stroke="#000" stroke-linecap="round" stroke-linejoin="round"/><rect id="uuid-47b3f2b0-2c95-4550-ae7c-816e3c75192f" x="426.5" y="272.5" width="9.69" height="9.69" transform="translate(77.9 648.9) rotate(-79.17)" fill="none" stroke="#000" stroke-linecap="round" stroke-linejoin="round"/><rect id="uuid-4925856e-764e-47f7-b4c7-9073f2186369" x="423.59" y="257.41" width="9.69" height="9.69" transform="translate(.07 524.64) rotate(-62.96)" fill="none" stroke="#000" stroke-linecap="round" stroke-linejoin="round"/><circle id="uuid-3f5c1411-c198-4afc-ac70-4819b79c92a2" cx="361.5" cy="255.5" r="1.5" fill="none" stroke="#000" stroke-linecap="round" stroke-linejoin="round"/><circle id="uuid-ea29598b-0296-49ad-a0d8-309233c7e5c2" cx="367.5" cy="255.5" r="1.5" fill="none" stroke="#000" stroke-linecap="round" stroke-linejoin="round"/><circle id="uuid-abb8253c-eb66-40cc-8748-7e38f952b6f1" cx="372.5" cy="255.5" r="1.5" fill="none" stroke="#000" stroke-linecap="round" stroke-linejoin="round"/><circle id="uuid-1c0d1431-4696-4b9c-9415-627e3b11ed64" cx="378.5" cy="256.5" r="1.5" fill="none" stroke="#000" stroke-linecap="round" stroke-linejoin="round"/></g><g id="uuid-1a756b33-e065-41d6-81b6-5bdddb9099a9"><polygon id="uuid-303485e6-9264-41be-a7a1-bf88117579ae" points="162.41 284.65 157.75 295.64 177.35 303.95 181.29 305.62 188.28 289.15 184.36 287.48 182.03 292.97 162.41 284.65" fill="none" stroke="#000" stroke-linecap="round" stroke-linejoin="round"/><rect id="uuid-9aed523c-7e89-49b7-9f4f-e893d03f4a9d" x="134" y="282" width="30" height="16" fill="none" stroke="#000" stroke-linecap="round" stroke-linejoin="round"/><polygon id="uuid-7b8d8d00-421b-4702-8bf7-c5b51295a9bc" points="78.97 280.76 88.28 273.3 74.96 256.67 79.62 252.94 76.95 249.61 62.98 260.8 65.66 264.15 65.66 264.15 78.97 280.76" fill="none" stroke="#000" stroke-linecap="round" stroke-linejoin="round"/><rect id="uuid-abd3399d-5a7c-4afe-869f-9a5fc49e7e30" x="85.79" y="267.34" width="15.34" height="29.83" transform="translate(-195.87 213.78) rotate(-58.36)" fill="none" stroke="#000" stroke-linecap="round" stroke-linejoin="round"/><path id="uuid-dc538255-dd02-438e-bf2f-66bd1c58134e" d="M221,243h-60v34h60v-34Z" fill="none" stroke="#000" stroke-linecap="round" stroke-linejoin="round"/><rect id="uuid-f41f849c-9d06-4914-ab44-a62a15f59641" x="177" y="243" width="10" height="34" fill="none" stroke="#000" stroke-linecap="round" stroke-linejoin="round"/><rect id="uuid-e31ff087-4957-46a8-a3e9-b98a9495bd19" x="187" y="266" width="35" height="4" fill="none" stroke="#000" stroke-linecap="round" stroke-linejoin="round"/><rect id="uuid-b404f0c3-e105-479d-a707-d29d1974ee41" x="187" y="248" width="35" height="4" fill="none" stroke="#000" stroke-linecap="round" stroke-linejoin="round"/><rect id="uuid-5f21c765-106b-4edd-b37f-cb7c3051ea12" x="217.38" y="277.81" width="19.38" height="9.08" transform="translate(-134.35 256.67) rotate(-47.13)" fill="none" stroke="#000" stroke-linecap="round" stroke-linejoin="round"/><rect id="uuid-9268b54a-8526-4f26-a0a5-2cb89fce6e83" x="223.94" y="263.9" width="9.08" height="19.38" transform="translate(-83.16 446.59) rotate(-79.17)" fill="none" stroke="#000" stroke-linecap="round" stroke-linejoin="round"/><rect id="uuid-4111e4d7-aefb-4da6-bd89-c87e1af147c4" x="205.21" y="234.71" width="9.08" height="19.38" transform="translate(-109.19 289.17) rotate(-57.35)" fill="none" stroke="#000" stroke-linecap="round" stroke-linejoin="round"/><rect id="uuid-566f5261-f124-4239-b4bc-57133e79ec11" x="190.95" y="227.25" width="9.08" height="19.38" transform="translate(-56.54 412.54) rotate(-85.34)" fill="none" stroke="#000" stroke-linecap="round" stroke-linejoin="round"/><rect id="uuid-4804e714-2db6-4685-9e11-8ca8d6d9ded2" x="212.2" y="288.3" width="9.69" height="9.69" transform="translate(-145.47 252.77) rotate(-47.13)" fill="none" stroke="#000" stroke-linecap="round" stroke-linejoin="round"/><rect id="uuid-4380bcb0-5070-4b4b-9aa1-c563cab33252" x="176.16" y="230.91" width="9.69" height="9.69" transform="translate(-68.68 397.02) rotate(-85.34)" fill="none" stroke="#000" stroke-linecap="round" stroke-linejoin="round"/><circle id="uuid-e5e5ac8a-9b86-4b0c-84fa-3aa54b741322" cx="192.5" cy="258.5" r="1.5" fill="none" stroke="#000" stroke-linecap="round" stroke-linejoin="round"/><circle id="uuid-36ee6d98-a878-42e8-8cca-e9d4b269fe4d" cx="197.5" cy="258.5" r="1.5" fill="none" stroke="#000" stroke-linecap="round" stroke-linejoin="round"/><circle id="uuid-2c4f3abd-99a6-410b-a828-5a8ed34d36dc" cx="202.5" cy="258.5" r="1.5" fill="none" stroke="#000" stroke-linecap="round" stroke-linejoin="round"/><circle id="uuid-7e58e928-d43d-49c4-be91-af4375d7c2e2" cx="209.5" cy="259.5" r="1.5" fill="none" stroke="#000" stroke-linecap="round" stroke-linejoin="round"/><polygon id="uuid-a49cfcb1-1345-4dcb-8569-67468d5cd98f" points="162.41 284.65 157.75 295.64 177.35 303.95 181.29 305.62 188.28 289.15 184.36 287.48 182.03 292.97 162.41 284.65" fill="none" stroke="#000" stroke-linecap="round" stroke-linejoin="round"/><rect id="uuid-e7d885d5-44d2-46fd-82fe-24ad3fbe9d43" x="134" y="282" width="30" height="16" fill="none" stroke="#000" stroke-linecap="round" stroke-linejoin="round"/><polygon id="uuid-6cb0e79a-f528-42d6-82d7-6734f8d76cba" points="78.97 280.76 88.28 273.3 74.96 256.67 79.62 252.94 76.95 249.61 62.98 260.8 65.66 264.15 65.66 264.15 78.97 280.76" fill="none" stroke="#000" stroke-linecap="round" stroke-linejoin="round"/><rect id="uuid-ee75c8ae-543f-4b12-8faf-ea91b7084250" x="85.79" y="267.34" width="15.34" height="29.83" transform="translate(-195.87 213.78) rotate(-58.36)" fill="none" stroke="#000" stroke-linecap="round" stroke-linejoin="round"/><path id="uuid-a7d8521b-5fbf-4ec4-9fde-b588ddfc9e9d" d="M221,243h-60v34h60v-34Z" fill="none" stroke="#000" stroke-linecap="round" stroke-linejoin="round"/><rect id="uuid-0dad1bf1-d2ee-4974-a36a-8417c6201cb2" x="177" y="243" width="10" height="34" fill="none" stroke="#000" stroke-linecap="round" stroke-linejoin="round"/><rect id="uuid-cafbe8e5-e481-4b8e-a50f-45aedc3ec7c4" x="187" y="266" width="35" height="4" fill="none" stroke="#000" stroke-linecap="round" stroke-linejoin="round"/><rect id="uuid-c39c2bee-4d2b-40f7-bada-72eec14454da" x="187" y="248" width="35" height="4" fill="none" stroke="#000" stroke-linecap="round" stroke-linejoin="round"/><rect id="uuid-a7c3b5fe-8aee-4368-9c39-f03b60825867" x="217.38" y="277.81" width="19.38" height="9.08" transform="translate(-134.35 256.67) rotate(-47.13)" fill="none" stroke="#000" stroke-linecap="round" stroke-linejoin="round"/><rect id="uuid-ae7d3da5-f756-44a3-9019-6bcb47d1c229" x="223.94" y="263.9" width="9.08" height="19.38" transform="translate(-83.16 446.59) rotate(-79.17)" fill="none" stroke="#000" stroke-linecap="round" stroke-linejoin="round"/><rect id="uuid-217b526a-381a-47ed-ad9c-c228866b45de" x="205.21" y="234.71" width="9.08" height="19.38" transform="translate(-109.19 289.17) rotate(-57.35)" fill="none" stroke="#000" stroke-linecap="round" stroke-linejoin="round"/><rect id="uuid-70e13007-2db3-43d1-9e53-1e73c30c592e" x="190.95" y="227.25" width="9.08" height="19.38" transform="translate(-56.54 412.54) rotate(-85.34)" fill="none" stroke="#000" stroke-linecap="round" stroke-linejoin="round"/><rect id="uuid-e0f689b0-188a-4dc5-9f3b-77b6796b6cc6" x="212.2" y="288.3" width="9.69" height="9.69" transform="translate(-145.47 252.77) rotate(-47.13)" fill="none" stroke="#000" stroke-linecap="round" stroke-linejoin="round"/><rect id="uuid-ccc0eea0-8808-49fa-b848-1a2671bded6b" x="176.16" y="230.91" width="9.69" height="9.69" transform="translate(-68.68 397.02) rotate(-85.34)" fill="none" stroke="#000" stroke-linecap="round" stroke-linejoin="round"/><circle id="uuid-88a89060-ca3f-4a30-ac96-4ec6fc90951b" cx="192.5" cy="258.5" r="1.5" fill="none" stroke="#000" stroke-linecap="round" stroke-linejoin="round"/><circle id="uuid-043fbb9e-8b4a-41b2-8caa-44be7bf44302" cx="197.5" cy="258.5" r="1.5" fill="none" stroke="#000" stroke-linecap="round" stroke-linejoin="round"/><circle id="uuid-f51e8d56-23b7-4f98-afe4-9d1cb0176af3" cx="202.5" cy="258.5" r="1.5" fill="none" stroke="#000" stroke-linecap="round" stroke-linejoin="round"/><circle id="uuid-a98bea2f-c22f-48b6-b815-ff3f7dd90110" cx="209.5" cy="259.5" r="1.5" fill="none" stroke="#000" stroke-linecap="round" stroke-linejoin="round"/></g><path d="M418.25,244.47c-.4-1.31-1.69-6.02-4.53-9.84-1.81-2.43-5.2-5.08-7.93-5.9-5.27-1.58-10.95-.42-15.54,1.93-4.59,2.35-8.64,6.16-10.53,11.41-.98,2.72-.91,7.07-.06,10,1.33,4.6,4.28,8.46,5.08,9.56,1.08,1.5,1.27,3.69,1.93,5.39.73,1.86,2.25,2.81,4.23,3.02,1.65.18,3.31-.13,4.97-.19,1.98-.07,1.86,3.39,3.13,4.46.64.54,1.53.68,2.37.67,1.07,0,2.19-.24,3-.96-.12.11.69.72,1.39.78.64.05,1.4.05,2.03-.11,1.25-.33,2.15-1.31,2.67-2.03.28-.39.72-.62,1.2-.61.87,0,2.19-.15,3.19-.97.75-.62,1.26-1.51,1.47-2.45.1-.44.41-.81.82-.99,1.22-.53,2.78-1.93,2.68-4.12-.05-1.22-1.08-2.17-1.3-3.36-.38-2.02,1.13-3.34,2.11-4.87,1.3-2.03,1.79-3.8.99-5.55-.85-1.85-2.9-3.75-3.36-5.28Z" fill="none" stroke="#000" stroke-linecap="round" stroke-linejoin="round"/><ellipse cx="392" cy="256.5" rx="4.99" ry="5.51" transform="translate(-34.35 62.38) rotate(-8.72)" fill="none" stroke="#000" stroke-linecap="round" stroke-linejoin="round"/><ellipse cx="409" cy="247" rx="4.78" ry="5.21" transform="translate(-54.84 361.63) rotate(-45.01)" fill="none" stroke="#000" stroke-linecap="round" stroke-linejoin="round"/><path d="M402.01,261.24c-.77-1.56-1.43-6.09.12-6.88,1.56-.8,4.73,2.43,5.51,4,1.57,3.18-2.32,2.45-2.32,2.45,0,0-1.65,3.79-3.32.43Z" fill="none" stroke="#000" stroke-linecap="round" stroke-linejoin="round"/><path d="M402.87,274.84c-.46.13-.93.21-1.41.13.26-.22.52-.45.73-.73.51-.69.22-1.23.04-1.99-.16-.66-.33-1.32-.47-1.98-.09-.45-.02-.96.41-1.11.54-.19.77.15.95.74.17.55,1.22,4.21,1.22,4.22.05.17-1.02.58-1.12.62-.11.04-.23.08-.34.11Z" fill="none" stroke="#000" stroke-linecap="round" stroke-linejoin="round"/><path d="M418.1,267.05c.38-.3.72-.63.94-1.08-.33.08-.67.16-1.01.16-.85,0-1.11-.55-1.59-1.16-.42-.53-.84-1.06-1.29-1.57-.3-.34-.74-.59-1.12-.33-.47.33-.34.71.01,1.22.33.47,2.6,3.51,2.6,3.51.1.14,1.07-.48,1.16-.55.1-.07.19-.14.29-.21Z" fill="none" stroke="#000" stroke-linecap="round" stroke-linejoin="round"/><path d="M409.66,273.59s.26-1.49-.08-2.24c-.6-1.34-1.41-3.16-1.92-4.19-.2-.41-.11-.85.3-1.06s.77-.05.97.36c0,.02,1.29,2.36,2.11,4.03.38.77,1.8,1.47,1.8,1.47-.43.02-1.2.03-1.81.38-.78.45-1.38,1.26-1.38,1.26Z" fill="none" stroke="#000" stroke-linecap="round" stroke-linejoin="round"/><path d="M418.25,244.47c-.4-1.31-1.69-6.02-4.53-9.84-1.81-2.43-5.2-5.08-7.93-5.9-5.27-1.58-10.95-.42-15.54,1.93-4.59,2.35-8.64,6.16-10.53,11.41-.98,2.72-.91,7.07-.06,10,1.33,4.6,4.28,8.46,5.08,9.56,1.08,1.5,1.27,3.69,1.93,5.39.73,1.86,2.25,2.81,4.23,3.02,1.65.18,3.31-.13,4.97-.19,1.98-.07,1.86,3.39,3.13,4.46.64.54,1.53.68,2.37.67,1.07,0,2.19-.24,3-.96-.12.11.69.72,1.39.78.64.05,1.4.05,2.03-.11,1.25-.33,2.15-1.31,2.67-2.03.28-.39.72-.62,1.2-.61.87,0,2.19-.15,3.19-.97.75-.62,1.26-1.51,1.47-2.45.1-.44.41-.81.82-.99,1.22-.53,2.78-1.93,2.68-4.12-.05-1.22-1.08-2.17-1.3-3.36-.38-2.02,1.13-3.34,2.11-4.87,1.3-2.03,1.79-3.8.99-5.55-.85-1.85-2.9-3.75-3.36-5.28Z" fill="none" stroke="#000" stroke-linecap="round" stroke-linejoin="round"/><ellipse cx="392" cy="256.5" rx="4.99" ry="5.51" transform="translate(-34.35 62.38) rotate(-8.72)" fill="none" stroke="#000" stroke-linecap="round" stroke-linejoin="round"/><ellipse cx="409" cy="247" rx="4.78" ry="5.21" transform="translate(-54.84 361.63) rotate(-45.01)" fill="none" stroke="#000" stroke-linecap="round" stroke-linejoin="round"/><path d="M402.01,261.24c-.77-1.56-1.43-6.09.12-6.88,1.56-.8,4.73,2.43,5.51,4,1.57,3.18-2.32,2.45-2.32,2.45,0,0-1.65,3.79-3.32.43Z" fill="none" stroke="#000" stroke-linecap="round" stroke-linejoin="round"/><path d="M402.87,274.84c-.46.13-.93.21-1.41.13.26-.22.52-.45.73-.73.51-.69.22-1.23.04-1.99-.16-.66-.33-1.32-.47-1.98-.09-.45-.02-.96.41-1.11.54-.19.77.15.95.74.17.55,1.22,4.21,1.22,4.22.05.17-1.02.58-1.12.62-.11.04-.23.08-.34.11Z" fill="none" stroke="#000" stroke-linecap="round" stroke-linejoin="round"/><path d="M418.1,267.05c.38-.3.72-.63.94-1.08-.33.08-.67.16-1.01.16-.85,0-1.11-.55-1.59-1.16-.42-.53-.84-1.06-1.29-1.57-.3-.34-.74-.59-1.12-.33-.47.33-.34.71.01,1.22.33.47,2.6,3.51,2.6,3.51.1.14,1.07-.48,1.16-.55.1-.07.19-.14.29-.21Z" fill="none" stroke="#000" stroke-linecap="round" stroke-linejoin="round"/><path d="M409.66,273.59s.26-1.49-.08-2.24c-.6-1.34-1.41-3.16-1.92-4.19-.2-.41-.11-.85.3-1.06s.77-.05.97.36c0,.02,1.29,2.36,2.11,4.03.38.77,1.8,1.47,1.8,1.47-.43.02-1.2.03-1.81.38-.78.45-1.38,1.26-1.38,1.26Z" fill="none" stroke="#000" stroke-linecap="round" stroke-linejoin="round"/><text transform="translate(64.56 100.58)" fill="#333" font-family="ComicNeue-Regular, &apos;Comic Neue&apos;" font-size="24"><tspan x="0" y="0">Although the war would be over in </tspan><tspan x="0" y="28.8">hours, many kept on fighting to use </tspan><tspan x="0" y="57.6">up spare ammunition.</tspan></text></svg>