<?xml version="1.0" encoding="UTF-8"?><svg id="uuid-052ce351-bc84-4d54-8bcb-d428cbe1f3e4" xmlns="http://www.w3.org/2000/svg" viewBox="0 0 500 500"><path d="M247.341485,398.72696c-.075426-1.03051-.249843-4.72171-1.692179-8.042551-.918685-2.114461-2.957904-4.674756-4.812186-5.772538-3.578896-2.118903-7.898808-2.295938-11.620508-1.407387-3.7217.888551-7.291907,2.949341-9.523188,6.455417-1.156085,1.816503-1.813547,5.023702-1.675182,7.321389.218841,3.612948,1.736258,6.98351,2.136052,7.936577.543104,1.300131.320811,2.933665.529617,4.307458.228839,1.495079,1.178478,2.470611,2.583606,2.986868,1.171055.430697,2.434035.504292,3.651371.764049,1.448737.309054.803763,2.827585,1.554985,3.841265.378426.512317,1.001727.778607,1.614229.924483.779272.189079,1.631769.219235,2.339097-.155655-.106846.056257.385568.65513.887101.827497.458273.155024,1.011834.293446,1.49432.285871.959284-.013791,1.779032-.572335,2.271335-1.003503.268276-.23624.626787-.321834.970261-.231649.634451.162157,1.618645.290012,2.480376-.130962.648797-.317865,1.1609-.87983,1.46878-1.528329.143546-.304856.428776-.520547.755875-.574042.971363-.164265,2.338404-.911897,2.619634-2.537978.159169-.905103-.430682-1.78512-.400076-2.699504.052792-1.550019,1.366294-2.244894,2.330692-3.191578,1.279187-1.252452,1.920844-2.466462,1.622033-3.889489-.319715-1.510277-1.495815-3.280395-1.586046-4.485709Z" fill="#ccc"/><ellipse cx="226.627105" cy="402.617992" rx="3.658628" ry="4.103547" transform="translate(-9.754872 5.648657) rotate(-1.397934)" fill="#424242"/><ellipse cx="240.389227" cy="399.331779" rx="3.657442" ry="4.104879" transform="translate(-150.103337 144.835399) rotate(-25.859393)" fill="#424242"/><path d="M232.794643,408.082148c-.308683-1.288452-.052296-4.725825,1.211034-5.027444,1.26333-.301618,3.049197,2.645096,3.358577,3.936457.627819,2.620531-2.084823,1.380226-2.084823,1.380226,0,0-1.820737,2.482531-2.484789-.289239Z" fill="#424242"/><path d="M231.206376,418.214704c-.357467.014623-.707617-.015547-1.050101-.164391.227917-.115911.454442-.23764.649899-.40115.484405-.41391.361478-.864234.350041-1.45187-.011786-.513758-.026416-1.026836-.020432-1.541761.004473-.34545.14047-.706925.478833-.738511.423664-.039654.534574.247501.574289.714616.034897.434445.201073,3.312783.20177,3.315692.007199.130499-.83531.242477-.917766.249863-.088147.008745-.176991.014582-.266532.017511Z" fill="#8abfd1"/><path d="M243.557982,415.265774c.325413-.148414.624-.333468.861965-.620895-.255789-.000426-.512972-.006671-.761389-.064207-.619586-.150334-.714059-.607451-.970195-1.136665-.222341-.463488-.441836-.927655-.680551-1.384158-.160557-.306049-.445669-.566985-.761734-.442327-.395793.155991-.364554.462166-.18826.896674.165783.403196,1.322136,3.04513,1.322833,3.048039.052726.11963.85482-.16104.931702-.191695.082574-.032014.164448-.066936.245629-.104766Z" fill="#8abfd1"/><path d="M236.347717,418.530778s.43267-1.044197.309801-1.657502c-.217227-1.09505-.508663-2.575182-.712129-3.424456-.080829-.337383.056329-.643789.389234-.72327.33006-.078801.569356.103903.650185.441287.003484.014543.552739,1.968143.88163,3.340941.151903.634046,1.069839,1.40191,1.069839,1.40191-.31589-.062948-.874445-.197105-1.381032-.051559-.64107.186878-1.207527.672649-1.207527.672649Z" fill="#8abfd1"/><path d="M231.77183,377.211364s1.132673,3.045916.479372,4.119198c-.657544,1.073282-3.283481.865414-4.089502,1.374479-.576943.364831-.568458,1.374479-.20787,1.790218.356347.419979,5.55307.059391,6.571202-1.909,1.018132-1.968391-.36483-5.735484-.36483-5.735484l-2.388372.360588Z" fill="#f97d23"/><path d="M240.069616,376.850775l-2.210198.47937s.9545,4.000416.178173,5.315504-3.559225,2.719266-4.059807,3.822244c-.449676.984196.657544,1.790218,2.388372.716937s3.690734-2.676841,4.059809-3.465895c.899349-1.909-.356348-6.86816-.356348-6.86816Z" fill="#f97d23"/><path d="M224.963063,346.692815c-4.700383,1.056313-8.361421,5.018549-6.986941,11.046747.814507,3.576194,1.315089,4.836133,1.612045,6.448179.627849,3.389535.45816,4.878556,1.892032,7.983863,1.522958,3.304692,7.126934,7.546915,14.113875,6.52878,6.986941-1.018134,9.795291-1.972634,9.795291-1.972634l2.507155-2.210198,2.38837-.598155.356345-1.730828s1.785975-.080603,2.150807-.657546c.576943-.916322.237563-1.671437-.776328-2.032025-1.013891-.356345-1.612046-.657546-1.612046-.657546,0,0,9.854681-6.511811,11.046748-7.224505,1.192067-.712694,3.045916-1.942939,3.135002-2.388372.224837-1.132674-2.838048-3.644069-6.838464-4.836133-4.000416-1.196307-7.436616-1.522958-8.000832-1.073282-.750872.589669-4.059807,6.808767-6.270005,6.511811-2.867743-.390284-4.836134-3.075611-5.374895-4.598569-.610876-1.72658-4.280398-10.529192-13.138159-8.539589Z" fill="#4d4d4d"/><path d="M218.930622,356.008737c-.716935-.118782-2.549576,1.83264-2.905922,2.307769s-.920562,1.158127-.716936,1.671435c.318167.797538,1.951423.83996,2.905923.91632.996922.080602,2.905923.237565,3.224089-.356347.318167-.598153-.356347-2.108385-.91632-3.024705-.517552-.852686-.844203-1.387205-1.590834-1.514472Z" fill="#f97d23"/><ellipse cx="226.5" cy="356" rx="1.499194" ry="2.000302" transform="translate(-11.634228 7.674951) rotate(-1.892682)"/><path d="M232.128177,368.671771c-.827234.301197.258776,3.224089,1.374481,4.539177,1.175096,1.382965,4.017385,4.488272,8.36142,4.895525,2.948343.279988,4.259192-.55573,4.954916-1.315088.517552-.564216,1.073282-1.217519,1.455083-1.514473.55573-.436948,1.115703-.059391,2.070203-.755115.687241-.500582.835718-1.332058,1.196307-1.633255.356345-.296954.962983-.22908,1.272667-.517552.55573-.517552.47937-2.032025.080603-2.108385s-.436948,1.073282-.835718,1.234488-.929048.059391-1.671437.47937c-.636333.356345-.436948,1.073282-.873897,1.391449s-1.234488-.118782-2.30777.47937c-.581186.32241-1.073282,1.870819-2.748962,2.23141-2.07869.445435-5.196723-1.069039-6.689985-2.150807-3.465894-2.511395-4.22525-5.773665-5.637911-5.256114Z"/><path d="M134.450309,245.911934c-9.104069,1.861531-23.009564,5.150384-24.755942,13.029443-1.411735,6.367441,6.343583,10.203428,5.211777,16.938276-1.999587,11.901137-28.324407,12.463541-28.664775,19.544165-.330826,6.876403,23.856351,19.71085,39.08833,11.726499,15.175993-7.955086,9.417081-30.261964,23.452998-36.482441,11.449751-5.074039,19.20316,8.030476,42.997163,11.726499,26.756802,4.155998,56.144304-6.32736,57.329551-16.938276.680738-6.097372-8.019342-11.624706-14.332388-15.635332-29.082761-18.47598-61.550759-11.837198-100.326714-3.908833Z" fill="#c1272d"/><path d="M271.259465,284.188004c3.556376-14.45931,28.775475-22.212402,48.20894-19.544165,15.246612,2.093427,16.159564,9.122201,29.96772,9.12061,18.260943-.001909,26.695726-12.295901,33.876553-7.817666,6.703038,4.180174,8.352077,20.502605,1.302944,27.361831-10.184342,9.909821-28.391208-9.795622-59.935439-5.211777-25.358427,3.685208-38.319796,20.013365-48.20894,13.029443-5.104895-3.605046-6.56689-11.427483-5.211777-16.938276Z" fill="#c1272d"/><g id="uuid-e102c7ee-7dc8-4083-8052-97698cc121ed"><polygon id="uuid-ff204a47-ae86-42fb-abad-d382f420b7e7" points="347.000008 266 336 265.999996 335.999993 286.8094 335.999992 291 354 291.000006 354.000002 287 347 286.999998 347.000008 266" fill="#5f5f5f"/><rect id="uuid-8c078d3a-fece-49d0-b435-5eb885858ded" x="301" y="258" width="30" height="16.000012" fill="#727272"/><polygon id="uuid-4b239da4-847a-4f70-ad2e-9ab860ffb850" points="311.87381 268.084358 308.911037 256.525231 288.269706 261.815906 286.788318 256.036333 282.660052 257.094468 287.104218 274.433185 291.256197 273.368972 291.256192 273.368955 311.87381 268.084358" fill="#5f5f5f"/><rect id="uuid-4c601d5c-493b-49bf-aaa4-b02b048e2d05" x="307.460751" y="246.754446" width="29.832017" height="15.342204" transform="translate(-85.699813 208.244977) rotate(-31.824647)" fill="#727272"/><path id="uuid-644022a8-2229-4266-87ea-4f425aff5437" d="M391,240h-60v34h60v-34Z" fill="#727272"/><rect id="uuid-744b21b9-ebf8-45f9-b018-f778d32fe6e3" x="345" y="240" width="10" height="34" fill="#acacac"/><rect id="uuid-4f7f419b-b252-4ac1-90b0-a9ee4a5e18bb" x="357" y="263" width="35" height="4" fill="#acacac"/><rect id="uuid-31334e64-c9ed-40d4-85a1-45a6c97d8585" x="357" y="245" width="35" height="4" fill="#acacac"/><rect id="uuid-db929446-1119-47d2-8207-5a262c4e588a" x="412.335736" y="264.884128" width="9.084243" height="19.37975" transform="translate(68.866579 632.437359) rotate(-79.17029)" fill="#727272"/><rect id="uuid-7890c4ac-7e1c-4266-9593-61bb5b378ec1" x="393.301134" y="261.24287" width="9.084243" height="19.37975" transform="translate(56.984808 610.784665) rotate(-79.17029)" fill="#727272"/><rect id="uuid-ade2b0ff-72f3-432b-99ed-99a19d7bbf37" x="393.688888" y="237.151291" width="9.084243" height="19.37975" transform="translate(-2.669144 489.323258) rotate(-62.959861)" fill="#727272"/><rect id="uuid-c653e3da-0d01-4bdf-b595-267999b633b3" x="410.950214" y="245.961594" width="9.084243" height="19.37975" transform="translate(-1.102302 509.50273) rotate(-62.959861)" fill="#727272"/><rect id="uuid-93148121-b2de-47e7-b641-d64e8f89fb43" x="426.503214" y="272.497186" width="9.689876" height="9.689876" transform="translate(77.899539 648.898257) rotate(-79.170339)" fill="#ccc"/><rect id="uuid-0a73d1aa-f9c1-48e0-90fd-a512c2eed86c" x="423.593392" y="257.414259" width="9.689876" height="9.689876" transform="translate(.073054 524.637701) rotate(-62.959911)" fill="#ccc"/><circle id="uuid-4dfd55a4-ca9d-47bd-995a-7d701ec604a9" cx="361.5" cy="255.5" r="1.5" fill="#333"/><circle id="uuid-999bd2ac-a775-47e4-a8ed-21ef689b496a" cx="367.5" cy="255.5" r="1.5" fill="#333"/><circle id="uuid-4a05644b-1b24-4636-860e-73bfb7c42fb0" cx="372.5" cy="255.5" r="1.5" fill="#333"/><circle id="uuid-e8f2309e-06ed-4f16-ab59-e98bbcf0df06" cx="378.5" cy="256.5" r="1.5" fill="#333"/></g><g id="uuid-b88ce366-944b-47f4-9b5e-1d02af74e012"><polygon id="uuid-bfeb2267-392f-4fa1-aade-2f5332041aab" points="162.412335 284.652888 157.752663 295.638303 177.34694 303.949586 181.292838 305.623314 188.282346 289.145191 184.358983 287.481023 182.029147 292.97373 162.412335 284.652888" fill="#5f5f5f"/><rect id="uuid-a4c74cc3-6740-471f-9159-bd2468c21958" x="134" y="282" width="30" height="16.000012" fill="#727272"/><polygon id="uuid-2ef016c4-b9cf-4a86-b598-fc3427fa3c12" points="78.967411 280.761859 88.281291 273.302431 74.960864 256.670476 79.617811 252.940756 76.953726 249.614365 62.982883 260.803524 65.662271 264.149022 65.662285 264.14901 78.967411 280.761859" fill="#5f5f5f"/><rect id="uuid-0b731b31-7933-4dcb-a14c-cdfdcd511c5b" x="85.794185" y="267.342483" width="15.342204" height="29.832017" transform="translate(-195.871341 213.775419) rotate(-58.362279)" fill="#727272"/><path id="uuid-01490fa4-243d-46ef-ab55-173eb9284490" d="M221,243h-60v34h60v-34Z" fill="#727272"/><rect id="uuid-70f532d8-7f10-4f26-b159-3c5d83085406" x="177" y="243" width="10" height="34" fill="#acacac"/><rect id="uuid-7c422475-7e89-4bbb-96fd-e072b5896b6d" x="187" y="266" width="35" height="4" fill="#acacac"/><rect id="uuid-6baec2b1-f240-467c-b609-4af79ac0a8e2" x="187" y="248" width="35" height="4" fill="#acacac"/><rect id="uuid-90d48c20-39c8-4365-8cf9-b9755a3bcd0e" x="217.380131" y="277.809686" width="19.37975" height="9.084243" transform="translate(-134.348857 256.666477) rotate(-47.128364)" fill="#727272"/><rect id="uuid-24aebde6-eb60-46d0-afef-6628846d8cd5" x="223.938634" y="263.897368" width="9.084243" height="19.37975" transform="translate(-83.163283 446.594261) rotate(-79.17029)" fill="#727272"/><rect id="uuid-37b57c67-5525-46e6-b33f-7026b36fa412" x="205.210806" y="234.71022" width="9.084243" height="19.37975" transform="translate(-109.187681 289.172691) rotate(-57.353536)" fill="#727272"/><rect id="uuid-71956e97-7d3d-40ad-b144-f61aa4ffa464" x="190.94512" y="227.247338" width="9.084243" height="19.37975" transform="translate(-56.541785 412.538678) rotate(-85.342241)" fill="#727272"/><rect id="uuid-2f1e51a9-eddc-4cbd-a226-8a461b63ac86" x="212.201576" y="288.304163" width="9.689876" height="9.689876" transform="translate(-145.465937 252.772041) rotate(-47.128413)" fill="#ccc"/><rect id="uuid-521d6800-a58f-4f73-a626-c36dfd754abc" x="176.155488" y="230.912006" width="9.689876" height="9.689876" transform="translate(-68.675708 397.015493) rotate(-85.34229)" fill="#ccc"/><circle id="uuid-d2c5991f-5bf6-4562-899b-b73f91a6481d" cx="192.5" cy="258.5" r="1.5" fill="#333"/><circle id="uuid-82fa8c47-1975-43c5-97cb-3339451fe72b" cx="197.5" cy="258.5" r="1.5" fill="#333"/><circle id="uuid-904a7052-a40a-4bc5-86bf-9362bc6511da" cx="202.5" cy="258.5" r="1.5" fill="#333"/><circle id="uuid-31a82570-1946-4493-9c00-8f13c8d67154" cx="209.5" cy="259.5" r="1.5" fill="#333"/></g><path d="M418.248935,244.47081c-.396087-1.3065-1.690167-6.017142-4.528038-9.840722-1.80735-2.434465-5.202526-5.083429-7.934152-5.903304-5.272265-1.582553-10.948021-.418443-15.536877,1.928918-4.588856,2.347361-8.641616,6.15973-10.533299,11.406894-.980156,2.718582-.9091,7.072374-.064772,9.995035,1.3293,4.595265,4.279299,8.458848,5.075332,9.560762,1.082947,1.503913,1.265712,3.685153,1.934692,5.391972.730122,1.856992,2.248555,2.810647,4.22728,3.024337,1.649228.178662,3.314917-.13348,4.974991-.190493,1.975611-.067955,1.863858,3.392456,3.134975,4.459345.640808.539611,1.529328.682549,2.368981.673466,1.069278-.007056,2.187957-.242958,3.000542-.955137-.122853.107098.691388.721738,1.394216.782643.641488.052453,1.402245.052746,2.028259-.112589,1.245014-.327082,2.150883-1.31268,2.667234-2.028216.281011-.391576.723055-.617697,1.196332-.611966.872937.004866,2.191329-.147323,3.191626-.968797.752859-.619667,1.257181-1.510499,1.470588-2.447242.098777-.439975.407801-.810479.818225-.98502,1.217245-.525301,2.781038-1.931537,2.677164-4.122153-.054391-1.220181-1.076765-2.166481-1.301229-3.357198-.379315-2.018739,1.130019-3.339584,2.112027-4.873068,1.303481-2.029845,1.788003-3.804507.987604-5.54589-.852837-1.84732-2.89581-3.754105-3.361702-5.281577Z" fill="#ccc"/><ellipse cx="392.403289" cy="256.174046" rx="4.903687" ry="5.433302" transform="translate(-33.518677 60.736173) rotate(-8.48943)" fill="#424242"/><ellipse cx="409.371833" cy="247.493283" rx="4.93597" ry="5.397766" transform="translate(-65.548715 304.840436) rotate(-38.041023)" fill="#424242"/><path d="M402.012986,261.242135c-.774353-1.564408-1.434147-6.086146.123539-6.882958,1.557686-.796811,4.734692,2.432862,5.510793,4.000802,1.574925,3.181788-2.315495,2.45459-2.315495,2.45459,0,0-1.653017,3.792984-3.318836.427565Z" fill="#424242"/><path d="M402.87398,274.839536c-.4612.134131-.92582.208058-1.414765.126254.263246-.223169.522997-.453403.73022-.727578.511056-.690702.220831-1.232625.036078-1.987821-.163853-.659675-.331214-1.317556-.472268-1.984467-.094033-.447561-.021452-.958222.409971-1.1081.540154-.187798.767565.14728.9543.737716.171018.549798,1.2194,4.213355,1.221148,4.216887.047096.166207-1.017494.582441-1.122718.618565-.112241.039713-.22623.075893-.341966.108544Z" fill="#8abfd1"/><path d="M418.10351,267.049096c.380791-.296577.716063-.631823.942813-1.07973-.333164.081916-.669825.156767-1.009898.162553-.850165.005611-1.105306-.55426-1.591773-1.155118-.423468-.526873-.843426-1.055541-1.286195-1.568115-.297515-.343473-.744161-.588531-1.119648-.325646-.470237.329052-.341059.714381.014077,1.218673.332401.467245,2.601671,3.506275,2.603419,3.509807.10323.137493,1.066437-.483563,1.157677-.547938.098258-.067965.194765-.139461.289528-.214487Z" fill="#8abfd1"/><path d="M409.659439,273.590157s.261505-1.487985-.075757-2.240404c-.59937-1.344131-1.406674-3.161639-1.917083-4.192808-.202766-.409643-.112754-.84956.297718-1.059531.406964-.208176.771343-.049377.974109.360266.00874.017658,1.288589,2.363489,2.113633,4.030308.381058.769844,1.798184,1.465534,1.798184,1.465534-.429488.02055-1.195515.027376-1.813026.37866-.780663.448018-1.377778,1.257975-1.377778,1.257975Z" fill="#8abfd1"/><path d="M247.341485,398.72696c-.075426-1.03051-.249843-4.72171-1.692179-8.042551-.918685-2.114461-2.957904-4.674756-4.812186-5.772538-3.578896-2.118903-7.898808-2.295938-11.620508-1.407387-3.7217.888551-7.291907,2.949341-9.523188,6.455417-1.156085,1.816503-1.813547,5.023702-1.675182,7.321389.218841,3.612948,1.736258,6.98351,2.136052,7.936577.543104,1.300131.320811,2.933665.529617,4.307458.228839,1.495079,1.178478,2.470611,2.583606,2.986868,1.171055.430697,2.434035.504292,3.651371.764049,1.448737.309054.803763,2.827585,1.554985,3.841265.378426.512317,1.001727.778607,1.614229.924483.779272.189079,1.631769.219235,2.339097-.155655-.106846.056257.385568.65513.887101.827497.458273.155024,1.011834.293446,1.49432.285871.959284-.013791,1.779032-.572335,2.271335-1.003503.268276-.23624.626787-.321834.970261-.231649.634451.162157,1.618645.290012,2.480376-.130962.648797-.317865,1.1609-.87983,1.46878-1.528329.143546-.304856.428776-.520547.755875-.574042.971363-.164265,2.338404-.911897,2.619634-2.537978.159169-.905103-.430682-1.78512-.400076-2.699504.052792-1.550019,1.366294-2.244894,2.330692-3.191578,1.279187-1.252452,1.920844-2.466462,1.622033-3.889489-.319715-1.510277-1.495815-3.280395-1.586046-4.485709Z" fill="none" stroke="#000" stroke-linecap="round" stroke-linejoin="round"/><ellipse cx="226.627105" cy="402.617992" rx="3.658628" ry="4.103547" transform="translate(-9.754872 5.648657) rotate(-1.397934)" fill="none" stroke="#000" stroke-linecap="round" stroke-linejoin="round"/><ellipse cx="240.389227" cy="399.331779" rx="3.657442" ry="4.104879" transform="translate(-150.103337 144.835399) rotate(-25.859393)" fill="none" stroke="#000" stroke-linecap="round" stroke-linejoin="round"/><path d="M232.794643,408.082148c-.308683-1.288452-.052296-4.725825,1.211034-5.027444,1.26333-.301618,3.049197,2.645096,3.358577,3.936457.627819,2.620531-2.084823,1.380226-2.084823,1.380226,0,0-1.820737,2.482531-2.484789-.289239Z" fill="none" stroke="#000" stroke-linecap="round" stroke-linejoin="round"/><path d="M231.206376,418.214704c-.357467.014623-.707617-.015547-1.050101-.164391.227917-.115911.454442-.23764.649899-.40115.484405-.41391.361478-.864234.350041-1.45187-.011786-.513758-.026416-1.026836-.020432-1.541761.004473-.34545.14047-.706925.478833-.738511.423664-.039654.534574.247501.574289.714616.034897.434445.201073,3.312783.20177,3.315692.007199.130499-.83531.242477-.917766.249863-.088147.008745-.176991.014582-.266532.017511Z" fill="none" stroke="#000" stroke-linecap="round" stroke-linejoin="round"/><path d="M243.557982,415.265774c.325413-.148414.624-.333468.861965-.620895-.255789-.000426-.512972-.006671-.761389-.064207-.619586-.150334-.714059-.607451-.970195-1.136665-.222341-.463488-.441836-.927655-.680551-1.384158-.160557-.306049-.445669-.566985-.761734-.442327-.395793.155991-.364554.462166-.18826.896674.165783.403196,1.322136,3.04513,1.322833,3.048039.052726.11963.85482-.16104.931702-.191695.082574-.032014.164448-.066936.245629-.104766Z" fill="none" stroke="#000" stroke-linecap="round" stroke-linejoin="round"/><path d="M236.347717,418.530778s.43267-1.044197.309801-1.657502c-.217227-1.09505-.508663-2.575182-.712129-3.424456-.080829-.337383.056329-.643789.389234-.72327.33006-.078801.569356.103903.650185.441287.003484.014543.552739,1.968143.88163,3.340941.151903.634046,1.069839,1.40191,1.069839,1.40191-.31589-.062948-.874445-.197105-1.381032-.051559-.64107.186878-1.207527.672649-1.207527.672649Z" fill="none" stroke="#000" stroke-linecap="round" stroke-linejoin="round"/><path d="M231.77183,377.211364s1.132673,3.045916.479372,4.119198c-.657544,1.073282-3.283481.865414-4.089502,1.374479-.576943.364831-.568458,1.374479-.20787,1.790218.356347.419979,5.55307.059391,6.571202-1.909,1.018132-1.968391-.36483-5.735484-.36483-5.735484l-2.388372.360588Z" fill="none" stroke="#000" stroke-linecap="round" stroke-linejoin="round"/><path d="M240.069616,376.850775l-2.210198.47937s.9545,4.000416.178173,5.315504-3.559225,2.719266-4.059807,3.822244c-.449676.984196.657544,1.790218,2.388372.716937s3.690734-2.676841,4.059809-3.465895c.899349-1.909-.356348-6.86816-.356348-6.86816Z" fill="none" stroke="#000" stroke-linecap="round" stroke-linejoin="round"/><path d="M224.963063,346.692815c-4.700383,1.056313-8.361421,5.018549-6.986941,11.046747.814507,3.576194,1.315089,4.836133,1.612045,6.448179.627849,3.389535.45816,4.878556,1.892032,7.983863,1.522958,3.304692,7.126934,7.546915,14.113875,6.52878,6.986941-1.018134,9.795291-1.972634,9.795291-1.972634l2.507155-2.210198,2.38837-.598155.356345-1.730828s1.785975-.080603,2.150807-.657546c.576943-.916322.237563-1.671437-.776328-2.032025-1.013891-.356345-1.612046-.657546-1.612046-.657546,0,0,9.854681-6.511811,11.046748-7.224505,1.192067-.712694,3.045916-1.942939,3.135002-2.388372.224837-1.132674-2.838048-3.644069-6.838464-4.836133-4.000416-1.196307-7.436616-1.522958-8.000832-1.073282-.750872.589669-4.059807,6.808767-6.270005,6.511811-2.867743-.390284-4.836134-3.075611-5.374895-4.598569-.610876-1.72658-4.280398-10.529192-13.138159-8.539589Z" fill="none" stroke="#000" stroke-linecap="round" stroke-linejoin="round"/><path d="M218.930622,356.008737c-.716935-.118782-2.549576,1.83264-2.905922,2.307769s-.920562,1.158127-.716936,1.671435c.318167.797538,1.951423.83996,2.905923.91632.996922.080602,2.905923.237565,3.224089-.356347.318167-.598153-.356347-2.108385-.91632-3.024705-.517552-.852686-.844203-1.387205-1.590834-1.514472Z" fill="none" stroke="#000" stroke-linecap="round" stroke-linejoin="round"/><ellipse cx="226.5" cy="356" rx="1.499194" ry="2.000302" transform="translate(-11.634228 7.674951) rotate(-1.892682)" fill="none" stroke="#000" stroke-linecap="round" stroke-linejoin="round"/><path d="M232.128177,368.671771c-.827234.301197.258776,3.224089,1.374481,4.539177,1.175096,1.382965,4.017385,4.488272,8.36142,4.895525,2.948343.279988,4.259192-.55573,4.954916-1.315088.517552-.564216,1.073282-1.217519,1.455083-1.514473.55573-.436948,1.115703-.059391,2.070203-.755115.687241-.500582.835718-1.332058,1.196307-1.633255.356345-.296954.962983-.22908,1.272667-.517552.55573-.517552.47937-2.032025.080603-2.108385s-.436948,1.073282-.835718,1.234488-.929048.059391-1.671437.47937c-.636333.356345-.436948,1.073282-.873897,1.391449s-1.234488-.118782-2.30777.47937c-.581186.32241-1.073282,1.870819-2.748962,2.23141-2.07869.445435-5.196723-1.069039-6.689985-2.150807-3.465894-2.511395-4.22525-5.773665-5.637911-5.256114Z" fill="none" stroke="#000" stroke-linecap="round" stroke-linejoin="round"/><path d="M231.77183,377.211364s1.132673,3.045916.479372,4.119198c-.657544,1.073282-3.283481.865414-4.089502,1.374479-.576943.364831-.568458,1.374479-.20787,1.790218.356347.419979,5.55307.059391,6.571202-1.909,1.018132-1.968391-.36483-5.735484-.36483-5.735484l-2.388372.360588Z" fill="none" stroke="#000" stroke-linecap="round" stroke-linejoin="round"/><path d="M240.069616,376.850775l-2.210198.47937s.9545,4.000416.178173,5.315504-3.559225,2.719266-4.059807,3.822244c-.449676.984196.657544,1.790218,2.388372.716937s3.690734-2.676841,4.059809-3.465895c.899349-1.909-.356348-6.86816-.356348-6.86816Z" fill="none" stroke="#000" stroke-linecap="round" stroke-linejoin="round"/><path d="M224.963063,346.692815c-4.700383,1.056313-8.361421,5.018549-6.986941,11.046747.814507,3.576194,1.315089,4.836133,1.612045,6.448179.627849,3.389535.45816,4.878556,1.892032,7.983863,1.522958,3.304692,7.126934,7.546915,14.113875,6.52878,6.986941-1.018134,9.795291-1.972634,9.795291-1.972634l2.507155-2.210198,2.38837-.598155.356345-1.730828s1.785975-.080603,2.150807-.657546c.576943-.916322.237563-1.671437-.776328-2.032025-1.013891-.356345-1.612046-.657546-1.612046-.657546,0,0,9.854681-6.511811,11.046748-7.224505,1.192067-.712694,3.045916-1.942939,3.135002-2.388372.224837-1.132674-2.838048-3.644069-6.838464-4.836133-4.000416-1.196307-7.436616-1.522958-8.000832-1.073282-.750872.589669-4.059807,6.808767-6.270005,6.511811-2.867743-.390284-4.836134-3.075611-5.374895-4.598569-.610876-1.72658-4.280398-10.529192-13.138159-8.539589Z" fill="none" stroke="#000" stroke-linecap="round" stroke-linejoin="round"/><path d="M218.930622,356.008737c-.716935-.118782-2.549576,1.83264-2.905922,2.307769s-.920562,1.158127-.716936,1.671435c.318167.797538,1.951423.83996,2.905923.91632.996922.080602,2.905923.237565,3.224089-.356347.318167-.598153-.356347-2.108385-.91632-3.024705-.517552-.852686-.844203-1.387205-1.590834-1.514472Z" fill="none" stroke="#000" stroke-linecap="round" stroke-linejoin="round"/><ellipse cx="226.5" cy="356" rx="1.499194" ry="2.000302" transform="translate(-11.634228 7.674951) rotate(-1.892682)" fill="none" stroke="#000" stroke-linecap="round" stroke-linejoin="round"/><path d="M232.128177,368.671771c-.827234.301197.258776,3.224089,1.374481,4.539177,1.175096,1.382965,4.017385,4.488272,8.36142,4.895525,2.948343.279988,4.259192-.55573,4.954916-1.315088.517552-.564216,1.073282-1.217519,1.455083-1.514473.55573-.436948,1.115703-.059391,2.070203-.755115.687241-.500582.835718-1.332058,1.196307-1.633255.356345-.296954.962983-.22908,1.272667-.517552.55573-.517552.47937-2.032025.080603-2.108385s-.436948,1.073282-.835718,1.234488-.929048.059391-1.671437.47937c-.636333.356345-.436948,1.073282-.873897,1.391449s-1.234488-.118782-2.30777.47937c-.581186.32241-1.073282,1.870819-2.748962,2.23141-2.07869.445435-5.196723-1.069039-6.689985-2.150807-3.465894-2.511395-4.22525-5.773665-5.637911-5.256114Z" fill="none" stroke="#000" stroke-linecap="round" stroke-linejoin="round"/><path d="M134.450309,245.911934c-9.104069,1.861531-23.009564,5.150384-24.755942,13.029443-1.411735,6.367441,6.343583,10.203428,5.211777,16.938276-1.999587,11.901137-28.324407,12.463541-28.664775,19.544165-.330826,6.876403,23.856351,19.71085,39.08833,11.726499,15.175993-7.955086,9.417081-30.261964,23.452998-36.482441,11.449751-5.074039,19.20316,8.030476,42.997163,11.726499,26.756802,4.155998,56.144304-6.32736,57.329551-16.938276.680738-6.097372-8.019342-11.624706-14.332388-15.635332-29.082761-18.47598-61.550759-11.837198-100.326714-3.908833Z" fill="none" stroke="#000" stroke-linecap="round" stroke-linejoin="round"/><path d="M271.259465,284.188004c3.556376-14.45931,28.775475-22.212402,48.20894-19.544165,15.246612,2.093427,16.159564,9.122201,29.96772,9.12061,18.260943-.001909,26.695726-12.295901,33.876553-7.817666,6.703038,4.180174,8.352077,20.502605,1.302944,27.361831-10.184342,9.909821-28.391208-9.795622-59.935439-5.211777-25.358427,3.685208-38.319796,20.013365-48.20894,13.029443-5.104895-3.605046-6.56689-11.427483-5.211777-16.938276Z" fill="none" stroke="#000" stroke-linecap="round" stroke-linejoin="round"/><g id="uuid-83b58e71-d5ae-4e5e-8171-eea4dcb32a69"><polygon id="uuid-8c0e0bfd-787d-4305-8295-ddee518e14af" points="347.000008 266 336 265.999996 335.999993 286.8094 335.999992 291 354 291.000006 354.000002 287 347 286.999998 347.000008 266" fill="none" stroke="#000" stroke-linecap="round" stroke-linejoin="round"/><rect id="uuid-671a6d40-6de3-401b-a6a6-c0a33319e464" x="301" y="258" width="30" height="16.000012" fill="none" stroke="#000" stroke-linecap="round" stroke-linejoin="round"/><polygon id="uuid-0457cfcd-0323-4648-bddf-0e7802d21d73" points="311.87381 268.084358 308.911037 256.525231 288.269706 261.815906 286.788318 256.036333 282.660052 257.094468 287.104218 274.433185 291.256197 273.368972 291.256192 273.368955 311.87381 268.084358" fill="none" stroke="#000" stroke-linecap="round" stroke-linejoin="round"/><rect id="uuid-c47d4a55-b943-42d1-a498-9a1392c52408" x="307.460751" y="246.754446" width="29.832017" height="15.342204" transform="translate(-85.699813 208.244977) rotate(-31.824647)" fill="none" stroke="#000" stroke-linecap="round" stroke-linejoin="round"/><path id="uuid-97b1265c-ca90-401b-b477-67915d335e4a" d="M391,240h-60v34h60v-34Z" fill="none" stroke="#000" stroke-linecap="round" stroke-linejoin="round"/><rect id="uuid-4ae524ec-352e-46db-8b31-ea667a2b4c92" x="345" y="240" width="10" height="34" fill="none" stroke="#000" stroke-linecap="round" stroke-linejoin="round"/><rect id="uuid-00e6177e-10e1-4f43-b2b8-a41a2d998778" x="357" y="263" width="35" height="4" fill="none" stroke="#000" stroke-linecap="round" stroke-linejoin="round"/><rect id="uuid-e3ccaf5a-81b4-482f-b331-ac5f52f4b6c1" x="357" y="245" width="35" height="4" fill="none" stroke="#000" stroke-linecap="round" stroke-linejoin="round"/><rect id="uuid-88c3227b-9327-4317-b6fb-42330a4b3bfe" x="412.335736" y="264.884128" width="9.084243" height="19.37975" transform="translate(68.866579 632.437359) rotate(-79.17029)" fill="none" stroke="#000" stroke-linecap="round" stroke-linejoin="round"/><rect id="uuid-94a9d3bd-6ef0-404d-bfc1-bc972f7ad193" x="393.301134" y="261.24287" width="9.084243" height="19.37975" transform="translate(56.984808 610.784665) rotate(-79.17029)" fill="none" stroke="#000" stroke-linecap="round" stroke-linejoin="round"/><rect id="uuid-dcf010ba-3cc8-4cd7-9203-ee61ef33f250" x="393.688888" y="237.151291" width="9.084243" height="19.37975" transform="translate(-2.669144 489.323258) rotate(-62.959861)" fill="none" stroke="#000" stroke-linecap="round" stroke-linejoin="round"/><rect id="uuid-f72514d3-e569-4593-af52-e1b6a632c846" x="410.950214" y="245.961594" width="9.084243" height="19.37975" transform="translate(-1.102302 509.50273) rotate(-62.959861)" fill="none" stroke="#000" stroke-linecap="round" stroke-linejoin="round"/><rect id="uuid-2ff26b42-f6f4-4928-9d60-c4163af71e80" x="426.503214" y="272.497186" width="9.689876" height="9.689876" transform="translate(77.899539 648.898257) rotate(-79.170339)" fill="none" stroke="#000" stroke-linecap="round" stroke-linejoin="round"/><rect id="uuid-23870a56-7505-4f56-88e8-7554b8af7f16" x="423.593392" y="257.414259" width="9.689876" height="9.689876" transform="translate(.073054 524.637701) rotate(-62.959911)" fill="none" stroke="#000" stroke-linecap="round" stroke-linejoin="round"/><circle id="uuid-6b0bf058-c17f-4f9a-a8cf-d69cd5315d7f" cx="361.5" cy="255.5" r="1.5" fill="none" stroke="#000" stroke-linecap="round" stroke-linejoin="round"/><circle id="uuid-44e46214-4d39-4d12-95af-714ae163d0b5" cx="367.5" cy="255.5" r="1.5" fill="none" stroke="#000" stroke-linecap="round" stroke-linejoin="round"/><circle id="uuid-04994d83-732a-4cc8-af05-6dc33139052c" cx="372.5" cy="255.5" r="1.5" fill="none" stroke="#000" stroke-linecap="round" stroke-linejoin="round"/><circle id="uuid-1e71ceff-d1f2-47ef-b605-6fd1b85cf7ca" cx="378.5" cy="256.5" r="1.5" fill="none" stroke="#000" stroke-linecap="round" stroke-linejoin="round"/><polygon id="uuid-32a9d665-9b0c-41d6-9603-d1c14f107235" points="347.000008 266 336 265.999996 335.999993 286.8094 335.999992 291 354 291.000006 354.000002 287 347 286.999998 347.000008 266" fill="none" stroke="#000" stroke-linecap="round" stroke-linejoin="round"/><rect id="uuid-9152eca7-bd60-442d-841a-c9e5283550c6" x="301" y="258" width="30" height="16.000012" fill="none" stroke="#000" stroke-linecap="round" stroke-linejoin="round"/><polygon id="uuid-7ec842ea-0bed-4979-8235-619085901811" points="311.87381 268.084358 308.911037 256.525231 288.269706 261.815906 286.788318 256.036333 282.660052 257.094468 287.104218 274.433185 291.256197 273.368972 291.256192 273.368955 311.87381 268.084358" fill="none" stroke="#000" stroke-linecap="round" stroke-linejoin="round"/><rect id="uuid-c8615fa1-3ca1-469e-a660-ee910a9eff71" x="307.460751" y="246.754446" width="29.832017" height="15.342204" transform="translate(-85.699813 208.244977) rotate(-31.824647)" fill="none" stroke="#000" stroke-linecap="round" stroke-linejoin="round"/><path id="uuid-26d24138-5363-4724-bf6c-16d23dba6b5e" d="M391,240h-60v34h60v-34Z" fill="none" stroke="#000" stroke-linecap="round" stroke-linejoin="round"/><rect id="uuid-59d91810-5967-4e2f-b228-f6ed12d7e5dc" x="345" y="240" width="10" height="34" fill="none" stroke="#000" stroke-linecap="round" stroke-linejoin="round"/><rect id="uuid-cd32cd51-a0b0-4cf8-aca4-38f4b6e3ae14" x="357" y="263" width="35" height="4" fill="none" stroke="#000" stroke-linecap="round" stroke-linejoin="round"/><rect id="uuid-cf99bbd5-95f0-4177-b85e-802193f41b36" x="357" y="245" width="35" height="4" fill="none" stroke="#000" stroke-linecap="round" stroke-linejoin="round"/><rect id="uuid-5003e11a-8120-49b4-a333-149428582f1b" x="412.335736" y="264.884128" width="9.084243" height="19.37975" transform="translate(68.866579 632.437359) rotate(-79.17029)" fill="none" stroke="#000" stroke-linecap="round" stroke-linejoin="round"/><rect id="uuid-dfe635af-3da4-413a-bae6-93124bbe5fb8" x="393.301134" y="261.24287" width="9.084243" height="19.37975" transform="translate(56.984808 610.784665) rotate(-79.17029)" fill="none" stroke="#000" stroke-linecap="round" stroke-linejoin="round"/><rect id="uuid-73726a6b-4f26-4e1e-b0e7-507a964bc3bb" x="393.688888" y="237.151291" width="9.084243" height="19.37975" transform="translate(-2.669144 489.323258) rotate(-62.959861)" fill="none" stroke="#000" stroke-linecap="round" stroke-linejoin="round"/><rect id="uuid-2525e30b-aeb3-4a35-a451-81b9a30b5213" x="410.950214" y="245.961594" width="9.084243" height="19.37975" transform="translate(-1.102302 509.50273) rotate(-62.959861)" fill="none" stroke="#000" stroke-linecap="round" stroke-linejoin="round"/><rect id="uuid-93863d1c-be4e-44bf-a1fc-dc8bde55b380" x="426.503214" y="272.497186" width="9.689876" height="9.689876" transform="translate(77.899539 648.898257) rotate(-79.170339)" fill="none" stroke="#000" stroke-linecap="round" stroke-linejoin="round"/><rect id="uuid-ec99d671-7190-4a07-a401-45955b32aab6" x="423.593392" y="257.414259" width="9.689876" height="9.689876" transform="translate(.073054 524.637701) rotate(-62.959911)" fill="none" stroke="#000" stroke-linecap="round" stroke-linejoin="round"/><circle id="uuid-9a86638b-a70a-40eb-b90e-8800b1a0e5ff" cx="361.5" cy="255.5" r="1.5" fill="none" stroke="#000" stroke-linecap="round" stroke-linejoin="round"/><circle id="uuid-d29beee5-3a9e-4801-8955-819b8d98059a" cx="367.5" cy="255.5" r="1.5" fill="none" stroke="#000" stroke-linecap="round" stroke-linejoin="round"/><circle id="uuid-50087c93-3721-44c7-a77e-8b78ef391105" cx="372.5" cy="255.5" r="1.5" fill="none" stroke="#000" stroke-linecap="round" stroke-linejoin="round"/><circle id="uuid-635315b8-2a0a-4300-9e41-7c17e65556a1" cx="378.5" cy="256.5" r="1.5" fill="none" stroke="#000" stroke-linecap="round" stroke-linejoin="round"/></g><g id="uuid-4e1f88c8-bc2f-4b0c-a18f-c8c905a67386"><polygon id="uuid-9719f74c-bd94-4e05-ad81-a1d3cff0a785" points="162.412335 284.652888 157.752663 295.638303 177.34694 303.949586 181.292838 305.623314 188.282346 289.145191 184.358983 287.481023 182.029147 292.97373 162.412335 284.652888" fill="none" stroke="#000" stroke-linecap="round" stroke-linejoin="round"/><rect id="uuid-de8bf4ec-58e7-49ec-a13f-a3074f0ba212" x="134" y="282" width="30" height="16.000012" fill="none" stroke="#000" stroke-linecap="round" stroke-linejoin="round"/><polygon id="uuid-a4db32d5-f2fc-4fe7-941a-43d584ca4e64" points="78.967411 280.761859 88.281291 273.302431 74.960864 256.670476 79.617811 252.940756 76.953726 249.614365 62.982883 260.803524 65.662271 264.149022 65.662285 264.14901 78.967411 280.761859" fill="none" stroke="#000" stroke-linecap="round" stroke-linejoin="round"/><rect id="uuid-7c691f99-114a-4413-aacf-975b6dfda6d8" x="85.794185" y="267.342483" width="15.342204" height="29.832017" transform="translate(-195.871341 213.775419) rotate(-58.362279)" fill="none" stroke="#000" stroke-linecap="round" stroke-linejoin="round"/><path id="uuid-a1270e7e-705e-4e15-a179-a6e9316e153b" d="M221,243h-60v34h60v-34Z" fill="none" stroke="#000" stroke-linecap="round" stroke-linejoin="round"/><rect id="uuid-5ebc09e4-35c0-450a-b487-2a1616da9190" x="177" y="243" width="10" height="34" fill="none" stroke="#000" stroke-linecap="round" stroke-linejoin="round"/><rect id="uuid-51c11875-2678-4f07-8126-b6ff1bdb468f" x="187" y="266" width="35" height="4" fill="none" stroke="#000" stroke-linecap="round" stroke-linejoin="round"/><rect id="uuid-f0fa5498-6ac9-406b-948c-19c33a8e2065" x="187" y="248" width="35" height="4" fill="none" stroke="#000" stroke-linecap="round" stroke-linejoin="round"/><rect id="uuid-e969cb9a-6a40-4386-935f-cd5118a4bb35" x="217.380131" y="277.809686" width="19.37975" height="9.084243" transform="translate(-134.348857 256.666477) rotate(-47.128364)" fill="none" stroke="#000" stroke-linecap="round" stroke-linejoin="round"/><rect id="uuid-779ca202-0f68-4d91-bb99-3a92e771062d" x="223.938634" y="263.897368" width="9.084243" height="19.37975" transform="translate(-83.163283 446.594261) rotate(-79.17029)" fill="none" stroke="#000" stroke-linecap="round" stroke-linejoin="round"/><rect id="uuid-ae1e1626-e7ef-4641-9cae-123045ba718e" x="205.210806" y="234.71022" width="9.084243" height="19.37975" transform="translate(-109.187681 289.172691) rotate(-57.353536)" fill="none" stroke="#000" stroke-linecap="round" stroke-linejoin="round"/><rect id="uuid-879b0e91-321f-4d61-b754-7baa94a917fd" x="190.94512" y="227.247338" width="9.084243" height="19.37975" transform="translate(-56.541785 412.538678) rotate(-85.342241)" fill="none" stroke="#000" stroke-linecap="round" stroke-linejoin="round"/><rect id="uuid-dd055d7a-5420-4c1b-a9e1-8a0b1f7c3e9e" x="212.201576" y="288.304163" width="9.689876" height="9.689876" transform="translate(-145.465937 252.772041) rotate(-47.128413)" fill="none" stroke="#000" stroke-linecap="round" stroke-linejoin="round"/><rect id="uuid-09abef1d-e7b4-4726-8056-499c4b105b72" x="176.155488" y="230.912006" width="9.689876" height="9.689876" transform="translate(-68.675708 397.015493) rotate(-85.34229)" fill="none" stroke="#000" stroke-linecap="round" stroke-linejoin="round"/><circle id="uuid-ef7275fe-9888-4b64-a5a5-01e195406bf9" cx="192.5" cy="258.5" r="1.5" fill="none" stroke="#000" stroke-linecap="round" stroke-linejoin="round"/><circle id="uuid-e9ce31a3-77f5-409f-a8fe-6937f956ac43" cx="197.5" cy="258.5" r="1.5" fill="none" stroke="#000" stroke-linecap="round" stroke-linejoin="round"/><circle id="uuid-9423b649-b001-4351-bf7f-9b93c582efef" cx="202.5" cy="258.5" r="1.5" fill="none" stroke="#000" stroke-linecap="round" stroke-linejoin="round"/><circle id="uuid-7d65d7d9-051a-4bed-997f-b9c2b9e254a5" cx="209.5" cy="259.5" r="1.5" fill="none" stroke="#000" stroke-linecap="round" stroke-linejoin="round"/><polygon id="uuid-c93f6dbb-dcde-49b9-abbf-983eac7b276b" points="162.412335 284.652888 157.752663 295.638303 177.34694 303.949586 181.292838 305.623314 188.282346 289.145191 184.358983 287.481023 182.029147 292.97373 162.412335 284.652888" fill="none" stroke="#000" stroke-linecap="round" stroke-linejoin="round"/><rect id="uuid-171ca29a-937c-4744-b90f-7948d2b2e3bb" x="134" y="282" width="30" height="16.000012" fill="none" stroke="#000" stroke-linecap="round" stroke-linejoin="round"/><polygon id="uuid-86316ede-18ec-495a-a254-4df5d56071af" points="78.967411 280.761859 88.281291 273.302431 74.960864 256.670476 79.617811 252.940756 76.953726 249.614365 62.982883 260.803524 65.662271 264.149022 65.662285 264.14901 78.967411 280.761859" fill="none" stroke="#000" stroke-linecap="round" stroke-linejoin="round"/><rect id="uuid-04eee635-2571-4e78-b6d8-197950cdebce" x="85.794185" y="267.342483" width="15.342204" height="29.832017" transform="translate(-195.871341 213.775419) rotate(-58.362279)" fill="none" stroke="#000" stroke-linecap="round" stroke-linejoin="round"/><path id="uuid-07d1fb63-ad05-4724-abcf-95cf23163141" d="M221,243h-60v34h60v-34Z" fill="none" stroke="#000" stroke-linecap="round" stroke-linejoin="round"/><rect id="uuid-22068ea8-6213-4e2e-aac5-f59576d473d8" x="177" y="243" width="10" height="34" fill="none" stroke="#000" stroke-linecap="round" stroke-linejoin="round"/><rect id="uuid-48e2d3a7-0220-482f-8054-002fb23f6316" x="187" y="266" width="35" height="4" fill="none" stroke="#000" stroke-linecap="round" stroke-linejoin="round"/><rect id="uuid-5c9c0ca3-525d-4916-ad64-a0669dbda301" x="187" y="248" width="35" height="4" fill="none" stroke="#000" stroke-linecap="round" stroke-linejoin="round"/><rect id="uuid-2c2f1e31-760a-458b-9f0a-92fde7f7e732" x="217.380131" y="277.809686" width="19.37975" height="9.084243" transform="translate(-134.348857 256.666477) rotate(-47.128364)" fill="none" stroke="#000" stroke-linecap="round" stroke-linejoin="round"/><rect id="uuid-6ab05cca-2947-42e6-aa0c-ecdcf68b47ff" x="223.938634" y="263.897368" width="9.084243" height="19.37975" transform="translate(-83.163283 446.594261) rotate(-79.17029)" fill="none" stroke="#000" stroke-linecap="round" stroke-linejoin="round"/><rect id="uuid-c6919ecd-47b1-4fbb-92ed-672c1eaef764" x="205.210806" y="234.71022" width="9.084243" height="19.37975" transform="translate(-109.187681 289.172691) rotate(-57.353536)" fill="none" stroke="#000" stroke-linecap="round" stroke-linejoin="round"/><rect id="uuid-80a2dd3f-3f6e-4bd0-bf22-b94acf1fbe86" x="190.94512" y="227.247338" width="9.084243" height="19.37975" transform="translate(-56.541785 412.538678) rotate(-85.342241)" fill="none" stroke="#000" stroke-linecap="round" stroke-linejoin="round"/><rect id="uuid-83ca05d4-bf58-4fd0-8ae6-d1314ce69d75" x="212.201576" y="288.304163" width="9.689876" height="9.689876" transform="translate(-145.465937 252.772041) rotate(-47.128413)" fill="none" stroke="#000" stroke-linecap="round" stroke-linejoin="round"/><rect id="uuid-efa6edf3-4cbf-48e2-a078-d9116a2603b9" x="176.155488" y="230.912006" width="9.689876" height="9.689876" transform="translate(-68.675708 397.015493) rotate(-85.34229)" fill="none" stroke="#000" stroke-linecap="round" stroke-linejoin="round"/><circle id="uuid-3ba4a7c3-03d6-46f2-b517-95b347767882" cx="192.5" cy="258.5" r="1.5" fill="none" stroke="#000" stroke-linecap="round" stroke-linejoin="round"/><circle id="uuid-49102c03-d092-450e-8b00-1cab27723879" cx="197.5" cy="258.5" r="1.5" fill="none" stroke="#000" stroke-linecap="round" stroke-linejoin="round"/><circle id="uuid-eff31c53-9f88-4d92-955c-8b8292837de4" cx="202.5" cy="258.5" r="1.5" fill="none" stroke="#000" stroke-linecap="round" stroke-linejoin="round"/><circle id="uuid-c261c779-1115-49c8-ae19-bdbe46ded129" cx="209.5" cy="259.5" r="1.5" fill="none" stroke="#000" stroke-linecap="round" stroke-linejoin="round"/></g><path d="M418.248935,244.47081c-.396087-1.3065-1.690167-6.017142-4.528038-9.840722-1.80735-2.434465-5.202526-5.083429-7.934152-5.903304-5.272265-1.582553-10.948021-.418443-15.536877,1.928918-4.588856,2.347361-8.641616,6.15973-10.533299,11.406894-.980156,2.718582-.9091,7.072374-.064772,9.995035,1.3293,4.595265,4.279299,8.458848,5.075332,9.560762,1.082947,1.503913,1.265712,3.685153,1.934692,5.391972.730122,1.856992,2.248555,2.810647,4.22728,3.024337,1.649228.178662,3.314917-.13348,4.974991-.190493,1.975611-.067955,1.863858,3.392456,3.134975,4.459345.640808.539611,1.529328.682549,2.368981.673466,1.069278-.007056,2.187957-.242958,3.000542-.955137-.122853.107098.691388.721738,1.394216.782643.641488.052453,1.402245.052746,2.028259-.112589,1.245014-.327082,2.150883-1.31268,2.667234-2.028216.281011-.391576.723055-.617697,1.196332-.611966.872937.004866,2.191329-.147323,3.191626-.968797.752859-.619667,1.257181-1.510499,1.470588-2.447242.098777-.439975.407801-.810479.818225-.98502,1.217245-.525301,2.781038-1.931537,2.677164-4.122153-.054391-1.220181-1.076765-2.166481-1.301229-3.357198-.379315-2.018739,1.130019-3.339584,2.112027-4.873068,1.303481-2.029845,1.788003-3.804507.987604-5.54589-.852837-1.84732-2.89581-3.754105-3.361702-5.281577Z" fill="none" stroke="#000" stroke-linecap="round" stroke-linejoin="round"/><ellipse cx="392.403289" cy="256.174046" rx="4.903687" ry="5.433302" transform="translate(-33.518677 60.736173) rotate(-8.48943)" fill="none" stroke="#000" stroke-linecap="round" stroke-linejoin="round"/><ellipse cx="409.371833" cy="247.493283" rx="4.93597" ry="5.397766" transform="translate(-65.548715 304.840436) rotate(-38.041023)" fill="none" stroke="#000" stroke-linecap="round" stroke-linejoin="round"/><path d="M402.012986,261.242135c-.774353-1.564408-1.434147-6.086146.123539-6.882958,1.557686-.796811,4.734692,2.432862,5.510793,4.000802,1.574925,3.181788-2.315495,2.45459-2.315495,2.45459,0,0-1.653017,3.792984-3.318836.427565Z" fill="none" stroke="#000" stroke-linecap="round" stroke-linejoin="round"/><path d="M402.87398,274.839536c-.4612.134131-.92582.208058-1.414765.126254.263246-.223169.522997-.453403.73022-.727578.511056-.690702.220831-1.232625.036078-1.987821-.163853-.659675-.331214-1.317556-.472268-1.984467-.094033-.447561-.021452-.958222.409971-1.1081.540154-.187798.767565.14728.9543.737716.171018.549798,1.2194,4.213355,1.221148,4.216887.047096.166207-1.017494.582441-1.122718.618565-.112241.039713-.22623.075893-.341966.108544Z" fill="none" stroke="#000" stroke-linecap="round" stroke-linejoin="round"/><path d="M418.10351,267.049096c.380791-.296577.716063-.631823.942813-1.07973-.333164.081916-.669825.156767-1.009898.162553-.850165.005611-1.105306-.55426-1.591773-1.155118-.423468-.526873-.843426-1.055541-1.286195-1.568115-.297515-.343473-.744161-.588531-1.119648-.325646-.470237.329052-.341059.714381.014077,1.218673.332401.467245,2.601671,3.506275,2.603419,3.509807.10323.137493,1.066437-.483563,1.157677-.547938.098258-.067965.194765-.139461.289528-.214487Z" fill="none" stroke="#000" stroke-linecap="round" stroke-linejoin="round"/><path d="M409.659439,273.590157s.261505-1.487985-.075757-2.240404c-.59937-1.344131-1.406674-3.161639-1.917083-4.192808-.202766-.409643-.112754-.84956.297718-1.059531.406964-.208176.771343-.049377.974109.360266.00874.017658,1.288589,2.363489,2.113633,4.030308.381058.769844,1.798184,1.465534,1.798184,1.465534-.429488.02055-1.195515.027376-1.813026.37866-.780663.448018-1.377778,1.257975-1.377778,1.257975Z" fill="none" stroke="#000" stroke-linecap="round" stroke-linejoin="round"/><text transform="translate(64.557373 100.582764)" fill="#333" font-family="ComicNeue-Regular, &apos;Comic Neue&apos;" font-size="24"><tspan x="0" y="0">Although the war would be over in </tspan><tspan x="0" y="28.799805">hours, many kept on fighting to use </tspan><tspan x="0" y="57.599609">up spare ammunition.</tspan></text></svg>