<?xml version="1.0" encoding="UTF-8"?><svg id="uuid-5eb32a80-d817-4fe2-b0b5-3e7895ae4c24" xmlns="http://www.w3.org/2000/svg" viewBox="0 0 500 500"><path d="M174.084222,139.11561c3.373076-8.467136,9.518088-14.957119,16.987843-17.682687,2.493626-.893629,25.52629-1.385125,25.52629-1.385125,0,0,2.671746,7.774574,7.169183,19.067812,1.447198,3.641539,3.695913,6.221893,8.471656,6.903286,1.569654.223408,2.760806,1.630872,2.760806,3.36228v93.618825h-76v-93.49595c0-1.8096,1.302475-3.272917,2.95005-3.373451,8.215615-.502667,10.597921-3.150042,12.134171-7.01499Z" fill="#8f8f8f"/><path d="M191.082017,139.11561c4.496774-11.293238,13.935559-19.067812,24.843583-19.067812,10.919153,0,20.346804,7.774574,24.843583,19.067812,1.446986,3.641539,3.695371,6.221893,8.470416,6.903286,1.569424.223408,2.760402,1.630872,2.760402,3.36228v93.618825h-76v-93.49595c0-1.8096,1.302283-3.272917,2.949621-3.373451,8.214412-.502667,10.596367-3.150042,12.132397-7.01499Z" fill="#b0b0b0"/><path d="M176.100841,153.631956c.525008,7.115521.804268,14.231046.982993,21.346567.201067,7.115521.256918,14.231046.290428,21.346563-.022341,7.115525-.067024,14.231042-.268091,21.346567-.178726,7.115525-.457985,14.231042-.971821,21.346567-.525008-7.115525-.804268-14.231042-.994162-21.346567-.201067-7.115525-.256918-14.231042-.279259-21.346567.022341-7.115525.078192-14.231042.268091-21.346567.178726-7.12669.457985-14.242211.971821-21.346563Z" fill="#bdbdbd"/><path d="M216.168941,120.143203c-3.809098.971822-7.260737,2.613865-10.366097,4.758576-3.10536,2.122369-5.909124,4.713893-8.266071,7.595848-.592028.726073-1.083527,1.463318-1.597362,2.278754l-1.541512,2.44631c-1.016503,1.653213-2.044179,3.317598-3.205893,4.937301-.312769.413304-.558518.793095-.949479,1.228741-.379793.413304-.793095.770756-1.239911,1.072354-.88246.614369-1.831939,1.050015-2.814932,1.340445-1.965982.580859-4.010161.647881-5.942634.33511,1.954814-.189896,3.853777-.603201,5.529331-1.418637.826609-.413304,1.619704-.88246,2.267583-1.485658.67022-.59203,1.083527-1.251082,1.58619-2.100028.960652-1.642043,1.865449-3.36228,2.814932-5.060176.949479-1.697896,1.876622-3.451643,3.150042-5.093686,2.479822-3.228236,5.607524-5.853271,9.103845-7.852767,3.518667-1.954814,7.517659-3.183555,11.471969-2.982488Z" fill="#e0e0e0"/><g opacity=".55"><path d="M237.437317,161.886854c-1.228738.055851-2.602697-.178726-3.619196-.223408-1.016507-.044682-2.021833.178726-3.038341.189894-1.954814.011168-3.842608-.815436-5.797422-.837777-2.546842-.03351-5.004327,1.295762-7.551169,1.072354-1.407468-.122875-2.759081-.714903-4.177714-.726075-1.385123-.011168-2.725572.536177-4.121867.614369-2.334602.134043-4.635703-1.094695-6.947968-.781926-1.18406.156384-2.289924.714903-3.451643.971821-2.088857.457985-4.769746-.714903-4.769746-3.127701,0-1.675555,1.362786-3.038341,3.038341-3.038341,1.25108,0,2.479822.111702,3.730902,0,1.653213-.145216,3.306427-.469153,4.970813-.3016,1.295766.134043,2.569187.558518,3.864945.413302.826605-.100533,1.608535-.424475,2.423967-.63671,1.273421-.346283,2.636207-.390961,3.931965-.156384,1.195229.223408,2.345775.692561,3.552176.737244,1.630872.067024,3.217062-.63671,4.847943-.625542,1.329276.011168,2.613861.502667,3.943137.558518,1.228738.055851,2.446313-.256918,3.675051-.402134,2.580351-.312769,8.556495-.312769,8.556495,3.462811.000009,2.189407-1.40746,2.770267-3.060669,2.837286Z" fill="#777"/></g><g opacity=".55"><path d="M211.231642,190.393625c-1.262248-.011173-2.680889-.402134-3.909628-.234577-.748412.100529-1.474488.301596-2.211732.402134-.692561.089365-1.396296.089365-2.10003.089365-2.636207,0-8.858099.994162-8.858099-3.228235,0-1.228738.804268-2.46865,1.999496-2.859615,1.362786-.446816,3.451643.3016,4.87028.502667.681393.100533,1.362786.201067,2.055347.201067,2.747913.011168,11.203879-3.183552,11.203879,2.144708,0,1.184056-.81544,2.580351-2.033006,2.870783-.335114.089365-.670229.122875-1.016507.111702Z" fill="#777"/><path d="M237.269759,190.44948c-.960652-.011173-1.876622-.413307-2.870783-.435644-.88246-.022337-1.709064.413307-2.569187.63671-2.167053.547345-4.468146-.312769-6.668709.078192-1.440978.256922-2.144708.390961-3.272917-.525008-.938307-.759585-1.697892-1.452151-1.697892-2.759081,0-1.407464.971825-2.625034,2.323438-2.960148,1.787257-.457985,2.602697.424475,4.267079.781926.927142.201067,1.865449-.189894,2.781418-.424475,1.228738-.312769,2.524505-.357451,3.77558-.122875.413307.078192.826605.189894,1.251084.223408,1.474488.111702,2.625034-.927142,4.032502-.234577,1.027671.513836,1.697892,1.58619,1.697892,2.725567,0,1.273421-.84895,2.502159-2.077688,2.881956-.346279.100538-.659047.134047-.971816.134047Z" fill="#777"/></g><g opacity=".55"><path d="M230.467003,176.162583c-1.809602.089365-4.010157-.491495-5.317096-.54735-1.575025-.067024-3.116533.491495-4.69155.67022-2.502159.268091-5.004327-.446816-7.528823-.446816-2.948976.011173-11.996969,2.792595-11.996969-2.602693,0-3.373451,3.07185-2.669716,5.238904-2.267583,2.155881.402134,4.345271-.681393,6.523497-.480326,1.172892.111702,2.278755.580859,3.451639.703734,2.144708.212235,4.244742-.781926,6.38945-.737244.67022.011168,1.329276.134043,1.999496.178726,1.061181.078192,2.122371-.022341,3.161215-.201067.893633-.145216,1.943641-.614369,2.848446-.480326,1.55268.223408,2.937803,1.709064,2.937803,3.272917.033501,2.211732-1.329285,2.859615-3.016012,2.937807Z" fill="#777"/></g><path d="M238.6102,184.696741c-1.407468-.692561-2.569187.346283-4.032502.234577-.424471-.03351-.837777-.145216-1.251084-.223408-1.251084-.234577-2.546842-.189894-3.77558.122875-.91597.234577-1.854285.625542-2.781418.424475-1.664382-.357451-2.479822-1.239911-4.267079-.781926-1.005335.256918-1.798429.994162-2.144708,1.932473.312769-.223408.659047-.402134,1.038844-.491495,1.787257-.457985,2.602697.424475,4.267079.781926.927142.201067,1.865449-.189894,2.781418-.424475,1.228738-.312769,2.524505-.357451,3.77558-.122875.413307.078192.826605.189894,1.251084.223408,1.474488.111702,2.625034-.927142,4.032502-.234577,1.027671.513836,1.697892,1.58619,1.697892,2.725572,0,.357451-.078192.714903-.201067,1.050017.793095-.558518,1.306931-1.507998,1.306931-2.490995.000009-1.15055-.670212-2.222904-1.697892-2.725572Z" fill="#777"/><path d="M203.066104,185.2776c-.692561,0-1.373954-.100533-2.055347-.201067-1.418637-.201067-3.496325-.949479-4.87028-.502667-.848946.279259-1.485661.982993-1.798429,1.798429.212235-.145216.435644-.279259.692561-.357451,1.362786-.446816,3.451643.3016,4.87028.502667.681393.100533,1.362786.201067,2.055347.201067,2.747909.011168,11.203874-3.183552,11.203874,2.144712,0,.357451-.078192.737248-.223404,1.105864.81544-.558518,1.329276-1.608535,1.329276-2.546842-.000009-5.328269-8.455974-2.133544-11.203879-2.144712Z" fill="#777"/><path d="M230.567541,169.963027c-.904797-.134043-1.965987.33511-2.848446.480326-1.050017.178726-2.111198.268091-3.161215.201067-.67022-.044682-1.329276-.167557-1.999496-.178726-2.155881-.044682-4.255906.949479-6.38945.737244-1.172892-.122875-2.278755-.592028-3.451639-.703734-2.178218-.201067-4.378781.88246-6.523489.480326-1.943645-.368624-4.613362-.960652-5.138366,1.351613,1.094695-.502667,2.725567-.156384,4.032502.089365,2.155881.402134,4.345271-.681393,6.523497-.480326,1.172892.111702,2.278755.580859,3.451639.703734,2.144708.212235,4.244742-.781926,6.38945-.737244.67022.011168,1.329276.134043,1.999496.178726,1.061181.078192,2.122371-.022341,3.161215-.201067.893633-.145216,1.943641-.614369,2.848446-.480326,1.55268.223408,2.937803,1.709064,2.937803,3.272917,0,.402134-.055855.748412-.145212,1.050013.759585-.413302,1.251084-1.172887,1.251084-2.490991.011156-1.563848-1.38514-3.049509-2.93782-3.272917Z" fill="#777"/><path d="M231.941499,155.586769c-1.228738.145216-2.446313.457985-3.675051.402134-1.329276-.055851-2.613861-.54735-3.943137-.558518-1.630872-.011168-3.217062.692561-4.847943.625542-1.206401-.044682-2.36812-.513836-3.552176-.737244-1.306931-.245749-2.658544-.189894-3.931965.156384-.804268.212235-1.58619.54735-2.423967.63671-1.295766.145216-2.569187-.279259-3.864945-.413302-1.664386-.167557-3.3176.156384-4.970813.3016-1.25108.111702-2.479822,0-3.730902,0-1.306931,0-2.423967.837777-2.848442,1.999496.491495-.346283,1.094695-.558518,1.742578-.558518,1.25108,0,2.479822.111702,3.730902,0,1.653213-.145216,3.306427-.469153,4.970813-.3016,1.295766.134043,2.569187.558518,3.864945.413302.826605-.100533,1.608535-.424475,2.423967-.63671,1.284594-.346283,2.636207-.390961,3.931965-.156384,1.195229.223408,2.345775.692561,3.552176.737244,1.630872.067024,3.217062-.63671,4.847943-.625542,1.329276.011168,2.613861.502667,3.943137.558518,1.228738.055851,2.446313-.256918,3.675051-.402134,2.580351-.312769,8.556495-.312769,8.556495,3.462811,0,.379793-.055855.681393-.134047.971821.737248-.402134,1.228738-1.117036,1.228738-2.412799.011173-3.77558-5.964971-3.77558-8.545322-3.462811Z" fill="#777"/><path d="M238.710072,254h-83.420144c-1.264692,0-2.289928-1.025236-2.289928-2.289928v-14.420144c0-1.264692,1.025236-2.289928,2.289928-2.289928h83.420144c1.264692,0,2.289928,1.025236,2.289928,2.289928v14.420144c0,1.264692-1.025236,2.289928-2.289928,2.289928Z" fill="#8f8f8f"/><path d="M256.933484,254h-83.866969c-1.141305,0-2.066516-.925211-2.066516-2.066516v-14.866969c0-1.141305.925211-2.066516,2.066516-2.066516h83.866969c1.141305,0,2.066516.925211,2.066516,2.066516v14.866969c0,1.141305-.925211,2.066516-2.066516,2.066516Z" fill="#b0b0b0"/><path d="M170.526831,237.163945c-.078192-.949479.502667-1.954814,1.452147-2.356948.469153-.223404,1.016503-.21224,1.463319-.234577l1.418637-.078192,5.663374-.268086c3.775584-.145212,7.551165-.279259,11.326749-.368624,7.551165-.201067,15.102333-.256922,22.664666-.279259,7.551169.022337,15.102338.078192,22.664671.279259,3.77558.089365,7.551169.223404,11.326749.368624l5.663374.268086,1.418633.078192c.446816.03351.994162.011173,1.463315.234577.949479.413307,1.530343,1.407468,1.452151,2.356948-.055855-.960652-.748412-1.776084-1.58619-2.010669-.413307-.145212-.84895-.078192-1.329276-.055855l-1.418633.078192-5.663374.268086c-3.77558.145212-7.551169.279259-11.326749.368624-7.551169.201067-15.102329.256922-22.664671.279259-7.551169-.022337-15.102333-.078192-22.664671-.279259-3.775584-.089365-7.551169-.223404-11.326749-.368624l-5.663374-.268086-1.418637-.078192c-.491495-.022337-.91597-.089365-1.329272.055855-.837777.234577-1.530339,1.050017-1.58619,2.010669Z" fill="#e0e0e0"/><path d="M174.084222,139.11561c3.373076-8.467136,9.518088-14.957119,16.987843-17.682687,2.493626-.893629,25.52629-1.385125,25.52629-1.385125,0,0,2.671746,7.774574,7.169183,19.067812,1.447198,3.641539,3.695913,6.221893,8.471656,6.903286,1.569654.223408,2.760806,1.630872,2.760806,3.36228v93.618825h-76v-93.49595c0-1.8096,1.302475-3.272917,2.95005-3.373451,8.215615-.502667,10.597921-3.150042,12.134171-7.01499Z" fill="none" stroke="#000" stroke-linecap="round" stroke-linejoin="round"/><path d="M191.082017,139.11561c4.496774-11.293238,13.935559-19.067812,24.843583-19.067812,10.919153,0,20.346804,7.774574,24.843583,19.067812,1.446986,3.641539,3.695371,6.221893,8.470416,6.903286,1.569424.223408,2.760402,1.630872,2.760402,3.36228v93.618825h-76v-93.49595c0-1.8096,1.302283-3.272917,2.949621-3.373451,8.214412-.502667,10.596367-3.150042,12.132397-7.01499Z" fill="none" stroke="#000" stroke-linecap="round" stroke-linejoin="round"/><path d="M176.100841,153.631956c.525008,7.115521.804268,14.231046.982993,21.346567.201067,7.115521.256918,14.231046.290428,21.346563-.022341,7.115525-.067024,14.231042-.268091,21.346567-.178726,7.115525-.457985,14.231042-.971821,21.346567-.525008-7.115525-.804268-14.231042-.994162-21.346567-.201067-7.115525-.256918-14.231042-.279259-21.346567.022341-7.115525.078192-14.231042.268091-21.346567.178726-7.12669.457985-14.242211.971821-21.346563Z" fill="none" stroke="#000" stroke-linecap="round" stroke-linejoin="round"/><path d="M216.168941,120.143203c-3.809098.971822-7.260737,2.613865-10.366097,4.758576-3.10536,2.122369-5.909124,4.713893-8.266071,7.595848-.592028.726073-1.083527,1.463318-1.597362,2.278754l-1.541512,2.44631c-1.016503,1.653213-2.044179,3.317598-3.205893,4.937301-.312769.413304-.558518.793095-.949479,1.228741-.379793.413304-.793095.770756-1.239911,1.072354-.88246.614369-1.831939,1.050015-2.814932,1.340445-1.965982.580859-4.010161.647881-5.942634.33511,1.954814-.189896,3.853777-.603201,5.529331-1.418637.826609-.413304,1.619704-.88246,2.267583-1.485658.67022-.59203,1.083527-1.251082,1.58619-2.100028.960652-1.642043,1.865449-3.36228,2.814932-5.060176.949479-1.697896,1.876622-3.451643,3.150042-5.093686,2.479822-3.228236,5.607524-5.853271,9.103845-7.852767,3.518667-1.954814,7.517659-3.183555,11.471969-2.982488Z" fill="none" stroke="#000" stroke-linecap="round" stroke-linejoin="round"/><path d="M237.437317,161.886854c-1.228738.055851-2.602697-.178726-3.619196-.223408-1.016507-.044682-2.021833.178726-3.038341.189894-1.954814.011168-3.842608-.815436-5.797422-.837777-2.546842-.03351-5.004327,1.295762-7.551169,1.072354-1.407468-.122875-2.759081-.714903-4.177714-.726075-1.385123-.011168-2.725572.536177-4.121867.614369-2.334602.134043-4.635703-1.094695-6.947968-.781926-1.18406.156384-2.289924.714903-3.451643.971821-2.088857.457985-4.769746-.714903-4.769746-3.127701,0-1.675555,1.362786-3.038341,3.038341-3.038341,1.25108,0,2.479822.111702,3.730902,0,1.653213-.145216,3.306427-.469153,4.970813-.3016,1.295766.134043,2.569187.558518,3.864945.413302.826605-.100533,1.608535-.424475,2.423967-.63671,1.273421-.346283,2.636207-.390961,3.931965-.156384,1.195229.223408,2.345775.692561,3.552176.737244,1.630872.067024,3.217062-.63671,4.847943-.625542,1.329276.011168,2.613861.502667,3.943137.558518,1.228738.055851,2.446313-.256918,3.675051-.402134,2.580351-.312769,8.556495-.312769,8.556495,3.462811.000009,2.189407-1.40746,2.770267-3.060669,2.837286Z" fill="none" stroke="#000" stroke-linecap="round" stroke-linejoin="round"/><path d="M211.231642,190.393625c-1.262248-.011173-2.680889-.402134-3.909628-.234577-.748412.100529-1.474488.301596-2.211732.402134-.692561.089365-1.396296.089365-2.10003.089365-2.636207,0-8.858099.994162-8.858099-3.228235,0-1.228738.804268-2.46865,1.999496-2.859615,1.362786-.446816,3.451643.3016,4.87028.502667.681393.100533,1.362786.201067,2.055347.201067,2.747913.011168,11.203879-3.183552,11.203879,2.144708,0,1.184056-.81544,2.580351-2.033006,2.870783-.335114.089365-.670229.122875-1.016507.111702Z" fill="none" stroke="#000" stroke-linecap="round" stroke-linejoin="round"/><path d="M237.269759,190.44948c-.960652-.011173-1.876622-.413307-2.870783-.435644-.88246-.022337-1.709064.413307-2.569187.63671-2.167053.547345-4.468146-.312769-6.668709.078192-1.440978.256922-2.144708.390961-3.272917-.525008-.938307-.759585-1.697892-1.452151-1.697892-2.759081,0-1.407464.971825-2.625034,2.323438-2.960148,1.787257-.457985,2.602697.424475,4.267079.781926.927142.201067,1.865449-.189894,2.781418-.424475,1.228738-.312769,2.524505-.357451,3.77558-.122875.413307.078192.826605.189894,1.251084.223408,1.474488.111702,2.625034-.927142,4.032502-.234577,1.027671.513836,1.697892,1.58619,1.697892,2.725567,0,1.273421-.84895,2.502159-2.077688,2.881956-.346279.100538-.659047.134047-.971816.134047Z" fill="none" stroke="#000" stroke-linecap="round" stroke-linejoin="round"/><path d="M230.467003,176.162583c-1.809602.089365-4.010157-.491495-5.317096-.54735-1.575025-.067024-3.116533.491495-4.69155.67022-2.502159.268091-5.004327-.446816-7.528823-.446816-2.948976.011173-11.996969,2.792595-11.996969-2.602693,0-3.373451,3.07185-2.669716,5.238904-2.267583,2.155881.402134,4.345271-.681393,6.523497-.480326,1.172892.111702,2.278755.580859,3.451639.703734,2.144708.212235,4.244742-.781926,6.38945-.737244.67022.011168,1.329276.134043,1.999496.178726,1.061181.078192,2.122371-.022341,3.161215-.201067.893633-.145216,1.943641-.614369,2.848446-.480326,1.55268.223408,2.937803,1.709064,2.937803,3.272917.033501,2.211732-1.329285,2.859615-3.016012,2.937807Z" fill="none" stroke="#000" stroke-linecap="round" stroke-linejoin="round"/><path d="M238.6102,184.696741c-1.407468-.692561-2.569187.346283-4.032502.234577-.424471-.03351-.837777-.145216-1.251084-.223408-1.251084-.234577-2.546842-.189894-3.77558.122875-.91597.234577-1.854285.625542-2.781418.424475-1.664382-.357451-2.479822-1.239911-4.267079-.781926-1.005335.256918-1.798429.994162-2.144708,1.932473.312769-.223408.659047-.402134,1.038844-.491495,1.787257-.457985,2.602697.424475,4.267079.781926.927142.201067,1.865449-.189894,2.781418-.424475,1.228738-.312769,2.524505-.357451,3.77558-.122875.413307.078192.826605.189894,1.251084.223408,1.474488.111702,2.625034-.927142,4.032502-.234577,1.027671.513836,1.697892,1.58619,1.697892,2.725572,0,.357451-.078192.714903-.201067,1.050017.793095-.558518,1.306931-1.507998,1.306931-2.490995.000009-1.15055-.670212-2.222904-1.697892-2.725572Z" fill="none" stroke="#000" stroke-linecap="round" stroke-linejoin="round"/><path d="M203.066104,185.2776c-.692561,0-1.373954-.100533-2.055347-.201067-1.418637-.201067-3.496325-.949479-4.87028-.502667-.848946.279259-1.485661.982993-1.798429,1.798429.212235-.145216.435644-.279259.692561-.357451,1.362786-.446816,3.451643.3016,4.87028.502667.681393.100533,1.362786.201067,2.055347.201067,2.747909.011168,11.203874-3.183552,11.203874,2.144712,0,.357451-.078192.737248-.223404,1.105864.81544-.558518,1.329276-1.608535,1.329276-2.546842-.000009-5.328269-8.455974-2.133544-11.203879-2.144712Z" fill="none" stroke="#000" stroke-linecap="round" stroke-linejoin="round"/><path d="M230.567541,169.963027c-.904797-.134043-1.965987.33511-2.848446.480326-1.050017.178726-2.111198.268091-3.161215.201067-.67022-.044682-1.329276-.167557-1.999496-.178726-2.155881-.044682-4.255906.949479-6.38945.737244-1.172892-.122875-2.278755-.592028-3.451639-.703734-2.178218-.201067-4.378781.88246-6.523489.480326-1.943645-.368624-4.613362-.960652-5.138366,1.351613,1.094695-.502667,2.725567-.156384,4.032502.089365,2.155881.402134,4.345271-.681393,6.523497-.480326,1.172892.111702,2.278755.580859,3.451639.703734,2.144708.212235,4.244742-.781926,6.38945-.737244.67022.011168,1.329276.134043,1.999496.178726,1.061181.078192,2.122371-.022341,3.161215-.201067.893633-.145216,1.943641-.614369,2.848446-.480326,1.55268.223408,2.937803,1.709064,2.937803,3.272917,0,.402134-.055855.748412-.145212,1.050013.759585-.413302,1.251084-1.172887,1.251084-2.490991.011156-1.563848-1.38514-3.049509-2.93782-3.272917Z" fill="none" stroke="#000" stroke-linecap="round" stroke-linejoin="round"/><path d="M231.941499,155.586769c-1.228738.145216-2.446313.457985-3.675051.402134-1.329276-.055851-2.613861-.54735-3.943137-.558518-1.630872-.011168-3.217062.692561-4.847943.625542-1.206401-.044682-2.36812-.513836-3.552176-.737244-1.306931-.245749-2.658544-.189894-3.931965.156384-.804268.212235-1.58619.54735-2.423967.63671-1.295766.145216-2.569187-.279259-3.864945-.413302-1.664386-.167557-3.3176.156384-4.970813.3016-1.25108.111702-2.479822,0-3.730902,0-1.306931,0-2.423967.837777-2.848442,1.999496.491495-.346283,1.094695-.558518,1.742578-.558518,1.25108,0,2.479822.111702,3.730902,0,1.653213-.145216,3.306427-.469153,4.970813-.3016,1.295766.134043,2.569187.558518,3.864945.413302.826605-.100533,1.608535-.424475,2.423967-.63671,1.284594-.346283,2.636207-.390961,3.931965-.156384,1.195229.223408,2.345775.692561,3.552176.737244,1.630872.067024,3.217062-.63671,4.847943-.625542,1.329276.011168,2.613861.502667,3.943137.558518,1.228738.055851,2.446313-.256918,3.675051-.402134,2.580351-.312769,8.556495-.312769,8.556495,3.462811,0,.379793-.055855.681393-.134047.971821.737248-.402134,1.228738-1.117036,1.228738-2.412799.011173-3.77558-5.964971-3.77558-8.545322-3.462811Z" fill="none" stroke="#000" stroke-linecap="round" stroke-linejoin="round"/><path d="M238.710072,254h-83.420144c-1.264692,0-2.289928-1.025236-2.289928-2.289928v-14.420144c0-1.264692,1.025236-2.289928,2.289928-2.289928h83.420144c1.264692,0,2.289928,1.025236,2.289928,2.289928v14.420144c0,1.264692-1.025236,2.289928-2.289928,2.289928Z" fill="none" stroke="#000" stroke-linecap="round" stroke-linejoin="round"/><path d="M256.933484,254h-83.866969c-1.141305,0-2.066516-.925211-2.066516-2.066516v-14.866969c0-1.141305.925211-2.066516,2.066516-2.066516h83.866969c1.141305,0,2.066516.925211,2.066516,2.066516v14.866969c0,1.141305-.925211,2.066516-2.066516,2.066516Z" fill="none" stroke="#000" stroke-linecap="round" stroke-linejoin="round"/><path d="M170.526831,237.163945c-.078192-.949479.502667-1.954814,1.452147-2.356948.469153-.223404,1.016503-.21224,1.463319-.234577l1.418637-.078192,5.663374-.268086c3.775584-.145212,7.551165-.279259,11.326749-.368624,7.551165-.201067,15.102333-.256922,22.664666-.279259,7.551169.022337,15.102338.078192,22.664671.279259,3.77558.089365,7.551169.223404,11.326749.368624l5.663374.268086,1.418633.078192c.446816.03351.994162.011173,1.463315.234577.949479.413307,1.530343,1.407468,1.452151,2.356948-.055855-.960652-.748412-1.776084-1.58619-2.010669-.413307-.145212-.84895-.078192-1.329276-.055855l-1.418633.078192-5.663374.268086c-3.77558.145212-7.551169.279259-11.326749.368624-7.551169.201067-15.102329.256922-22.664671.279259-7.551169-.022337-15.102333-.078192-22.664671-.279259-3.775584-.089365-7.551169-.223404-11.326749-.368624l-5.663374-.268086-1.418637-.078192c-.491495-.022337-.91597-.089365-1.329272.055855-.837777.234577-1.530339,1.050017-1.58619,2.010669Z" fill="none" stroke="#000" stroke-linecap="round" stroke-linejoin="round"/><path d="M223.061371,197.050081c4.038814-10.102585,11.396658-17.846123,20.340706-21.098142,2.985789-1.066235,30.564374-1.652665,30.564374-1.652665,0,0,3.199064,9.276252,8.584153,22.750807,1.732829,4.344911,4.425369,7.423667,10.143694,8.236672,1.879454.26656,3.305702,1.945879,3.305702,4.011713v111.701534h-91v-111.554926c0-2.159129,1.559543-3.905089,3.532297-4.025041,9.837118-.599759,12.689616-3.758481,14.529073-8.369952Z" fill="#8f8f8f"/><path d="M244.058731,197.050081c5.384296-13.474555,16.685998-22.750807,29.746921-22.750807,13.074249,0,24.362621,9.276252,29.746921,22.750807,1.732576,4.344911,4.424721,7.423667,10.142208,8.236672,1.879179.26656,3.305218,1.945879,3.305218,4.011713v111.701534h-91v-111.554926c0-2.159129,1.559312-3.905089,3.531783-4.025041,9.835677-.599759,12.687756-3.758481,14.526949-8.369952Z" fill="#b0b0b0"/><path d="M226.488731,214.510275c.626415,8.489902.959614,16.979808,1.172861,25.46971.239903,8.489902.306542,16.979808.346524,25.469705-.026657,8.489907-.07997,16.979803-.319873,25.46971-.213247,8.489907-.546446,16.979803-1.15953,25.46971-.626415-8.489907-.959614-16.979803-1.186187-25.46971-.239903-8.489907-.306542-16.979803-.333199-25.46971.026657-8.489907.093295-16.979803.319873-25.46971.213247-8.503227.546446-16.993129,1.15953-25.469705Z" fill="#bdbdbd"/><path d="M274.296085,174.553087c-4.544835,1.159531-8.663166,3.11874-12.368334,5.677706-3.705168,2.53231-7.050486,5.624393-9.862684,9.063005-.70638.866316-1.292813,1.745962-1.905897,2.718901l-1.839258,2.918821c-1.212843,1.972536-2.439017,3.9584-3.82512,5.890953-.373181.493135-.666397.946283-1.132874,1.466075-.45315.493135-.946283.919629-1.479403,1.279482-1.052909.733036-2.185783,1.252828-3.358644,1.599355-2.345717.693054-4.784734.773021-7.090468.399837,2.332391-.226575,4.598143-.71971,6.597335-1.69265.98627-.493135,1.932554-1.052909,2.705572-1.772617.799675-.706382,1.292813-1.492731,1.892566-2.505653,1.146204-1.959207,2.225765-4.011713,3.358644-6.037561,1.132874-2.025849,2.239096-4.118336,3.758481-6.077544,2.958806-3.851778,6.690631-6.983845,10.862275-9.369548,4.198306-2.332392,8.969714-3.798466,13.687809-3.558563Z" fill="#e0e0e0"/><g opacity=".55"><path d="M299.6725,224.359628c-1.466072.066639-3.105414-.213247-4.318252-.26656-1.212848-.053313-2.412355.213247-3.625204.226573-2.332391.013326-4.584817-.97294-6.917208-.999596-3.038771-.039982-5.970925,1.546042-9.009696,1.279482-1.679324-.146608-3.292005-.852988-4.98465-.866319-1.652663-.013326-3.252023.639741-4.918016.733036-2.785536.159934-5.531101-1.306138-8.289985-.932957-1.412764.18659-2.732228.852988-4.118336,1.15953-2.492325.546446-5.691035-.852988-5.691035-3.731825,0-1.999192,1.626011-3.625204,3.625204-3.625204,1.492729,0,2.958806.133277,4.451535,0,1.972536-.173265,3.945071-.559771,5.930938-.359855,1.546047.159934,3.065432.666397,4.611469.493133.986265-.119952,1.919228-.506463,2.892162-.759693,1.519385-.413168,3.145397-.466476,4.691433-.18659,1.42609.26656,2.798867.826331,4.238288.879644,1.945879.07997,3.838445-.759693,5.784335-.746367,1.586029.013326,3.118735.599759,4.704764.666397,1.466072.066639,2.918824-.306542,4.384896-.479807,3.078753-.373181,10.209203-.373181,10.209203,4.131662.00001,2.612297-1.679314,3.305351-3.651845,3.385315Z" fill="#777"/></g><g opacity=".55"><path d="M268.405134,258.372553c-1.506054-.013331-3.19871-.479807-4.664782-.279886-.89297.119947-1.759289.35985-2.638933.479807-.826331.106626-1.665994.106626-2.505656.106626-3.145397,0-10.569063,1.186187-10.569063-3.851776,0-1.466072.959614-2.945475,2.385704-3.411957,1.626011-.53312,4.118336.359855,5.810986.599759.813006.119952,1.626011.239903,2.452343.239903,3.278679.013326,13.367936-3.798463,13.367936,2.558964,0,1.412759-.972945,3.078753-2.425686,3.425282-.399843.106626-.799685.146608-1.212848.133277Z" fill="#777"/><path d="M299.472579,258.439197c-1.146204-.013331-2.239096-.493138-3.425282-.519789-1.052909-.026651-2.039174.493138-3.065432.759693-2.585625.653067-5.331179-.373181-7.956787.093295-1.719307.306547-2.558964.466476-3.905089-.626415-1.119543-.906301-2.025844-1.732637-2.025844-3.292005,0-1.679319,1.159535-3.132066,2.772216-3.531908,2.13247-.546446,3.105414.506463,5.091276.932957,1.106222.239903,2.225765-.226573,3.318656-.506463,1.466072-.373181,3.012119-.426494,4.504843-.146608.493138.093295.986265.226573,1.492734.26656,1.759289.133277,3.132066-1.106222,4.81139-.279886,1.226169.613084,2.025844,1.892566,2.025844,3.252018,0,1.519385-1.012927,2.985458-2.478999,3.438613-.413163.119957-.786344.159939-1.159525.159939Z" fill="#777"/></g><g opacity=".55"><path d="M291.355853,241.392749c-2.159131.106626-4.784729-.586428-6.344106-.653072-1.879246-.07997-3.718499.586428-5.597734.799675-2.985458.319873-5.970925-.53312-8.983034-.53312-3.518578.013331-14.314214,3.331992-14.314214-3.105409,0-4.025041,3.665186-3.185379,6.250811-2.705572,2.572294.479807,5.184571-.813006,7.783527-.573102,1.399439.133277,2.718903.693054,4.118331.839662,2.558964.253229,5.064624-.932957,7.623588-.879644.799675.013326,1.586029.159934,2.385704.213247,1.266151.093295,2.532312-.026657,3.771812-.239903,1.06624-.173265,2.31906-.733036,3.398631-.573102,1.852584.26656,3.505247,2.039174,3.505247,3.905089.039972,2.638933-1.586039,3.411957-3.598562,3.505252Z" fill="#777"/></g><path d="M301.071928,251.575301c-1.679324-.826331-3.065432.413168-4.81139.279886-.506458-.039982-.999596-.173265-1.492734-.26656-1.492734-.279886-3.038771-.226573-4.504843.146608-1.092891.279886-2.212444.746367-3.318656.506463-1.985861-.426494-2.958806-1.479403-5.091276-.932957-1.199517.306542-2.1458,1.186187-2.558964,2.305734.373181-.26656.786344-.479807,1.2395-.586428,2.13247-.546446,3.105414.506463,5.091276.932957,1.106222.239903,2.225765-.226573,3.318656-.506463,1.466072-.373181,3.012119-.426494,4.504843-.146608.493138.093295.986265.226573,1.492734.26656,1.759289.133277,3.132066-1.106222,4.81139-.279886,1.226169.613084,2.025844,1.892566,2.025844,3.252023,0,.426494-.093295.852988-.239903,1.25283.946283-.666397,1.559368-1.799271,1.559368-2.972137.00001-1.372782-.799665-2.652264-2.025844-3.252023Z" fill="#777"/><path d="M258.662402,252.268355c-.826331,0-1.639337-.119952-2.452343-.239903-1.69265-.239903-4.171649-1.132874-5.810986-.599759-1.012922.333199-1.77262,1.172861-2.1458,2.1458.253229-.173265.519789-.333199.826331-.426494,1.626011-.53312,4.118336.359855,5.810986.599759.813006.119952,1.626011.239903,2.452343.239903,3.278674.013326,13.367931-3.798463,13.367931,2.558969,0,.426494-.093295.879649-.266555,1.319464.972945-.666397,1.586029-1.919228,1.586029-3.038771-.00001-6.357437-10.089267-2.545643-13.367936-2.558969Z" fill="#777"/><path d="M291.47581,233.995734c-1.079561-.159934-2.345722.399837-3.398631.573102-1.25283.213247-2.518981.319873-3.771812.239903-.799675-.053313-1.586029-.199921-2.385704-.213247-2.572294-.053313-5.077945,1.132874-7.623588.879644-1.399439-.146608-2.718903-.70638-4.118331-.839662-2.598946-.239903-5.224553,1.052909-7.783517.573102-2.319065-.439825-5.504444-1.146204-6.130854,1.612681,1.306138-.599759,3.252018-.18659,4.81139.106626,2.572294.479807,5.184571-.813006,7.783527-.573102,1.399439.133277,2.718903.693054,4.118331.839662,2.558964.253229,5.064624-.932957,7.623588-.879644.799675.013326,1.586029.159934,2.385704.213247,1.266151.093295,2.532312-.026657,3.771812-.239903,1.06624-.173265,2.31906-.733036,3.398631-.573102,1.852584.26656,3.505247,2.039174,3.505247,3.905089,0,.479807-.066644.89297-.17326,1.252825.906301-.493133,1.492734-1.399434,1.492734-2.972132.01331-1.86591-1.652683-3.638529-3.505267-3.905089Z" fill="#777"/><path d="M293.115152,216.842666c-1.466072.173265-2.918824.546446-4.384896.479807-1.586029-.066639-3.118735-.653072-4.704764-.666397-1.945879-.013326-3.838445.826331-5.784335.746367-1.439421-.053313-2.825529-.613084-4.238288-.879644-1.559368-.293216-3.172048-.226573-4.691433.18659-.959614.253229-1.892566.653072-2.892162.759693-1.546047.173265-3.065432-.333199-4.611469-.493133-1.985867-.199921-3.958402.18659-5.930938.359855-1.492729.133277-2.958806,0-4.451535,0-1.559368,0-2.892162.999596-3.398626,2.385704.586428-.413168,1.306138-.666397,2.079162-.666397,1.492729,0,2.958806.133277,4.451535,0,1.972536-.173265,3.945071-.559771,5.930938-.359855,1.546047.159934,3.065432.666397,4.611469.493133.986265-.119952,1.919228-.506463,2.892162-.759693,1.532716-.413168,3.145397-.466476,4.691433-.18659,1.42609.26656,2.798867.826331,4.238288.879644,1.945879.07997,3.838445-.759693,5.784335-.746367,1.586029.013326,3.118735.599759,4.704764.666397,1.466072.066639,2.918824-.306542,4.384896-.479807,3.078753-.373181,10.209203-.373181,10.209203,4.131662,0,.45315-.066644.813006-.159939,1.15953.879649-.479807,1.466072-1.332795,1.466072-2.878837.013331-4.504843-7.11712-4.504843-10.195872-4.131662Z" fill="#777"/><path d="M300.267767,334h-99.535538c-1.508968,0-2.732228-1.22326-2.732228-2.732228v-17.535538c0-1.508971,1.223263-2.732233,2.732233-2.732233h99.535533c1.508971,0,2.732233,1.223263,2.732233,2.732233v17.535533c0,1.508971-1.223263,2.732233-2.732233,2.732233Z" fill="#8f8f8f"/><path d="M322.534332,334h-100.068663c-1.361751,0-2.465668-1.103917-2.465668-2.465668v-18.068663c0-1.361751,1.103917-2.465668,2.465668-2.465668h100.068663c1.361751,0,2.465668,1.103917,2.465668,2.465668v18.068663c0,1.361751-1.103917,2.465668-2.465668,2.465668Z" fill="#b0b0b0"/><path d="M219.838087,314.176676c-.093295-1.132874.599759-2.332391,1.732632-2.812198.559771-.266555,1.212843-.253234,1.745963-.279886l1.69265-.093295,6.757269-.319868c4.504848-.17326,9.009691-.333199,13.514539-.439825,9.009691-.239903,18.019387-.306547,27.042403-.333199,9.009696.026651,18.019392.093295,27.042408.333199,4.504843.106626,9.009696.266555,13.514539.439825l6.757269.319868,1.692645.093295c.53312.039982,1.186187.013331,1.745958.279886,1.132874.493138,1.825933,1.679324,1.732637,2.812198-.066644-1.146204-.89297-2.119139-1.892566-2.399035-.493138-.17326-1.012927-.093295-1.586029-.066644l-1.692645.093295-6.757269.319868c-4.504843.17326-9.009696.333199-13.514539.439825-9.009696.239903-18.019382.306547-27.042408.333199-9.009696-.026651-18.019387-.093295-27.042408-.333199-4.504848-.106626-9.009696-.266555-13.514539-.439825l-6.757269-.319868-1.69265-.093295c-.586428-.026651-1.092891-.106626-1.586024.066644-.999596.279886-1.825927,1.25283-1.892566,2.399035Z" fill="#e0e0e0"/><path d="M223.061371,197.050081c4.038814-10.102585,11.396658-17.846123,20.340706-21.098142,2.985789-1.066235,30.564374-1.652665,30.564374-1.652665,0,0,3.199064,9.276252,8.584153,22.750807,1.732829,4.344911,4.425369,7.423667,10.143694,8.236672,1.879454.26656,3.305702,1.945879,3.305702,4.011713v111.701534h-91v-111.554926c0-2.159129,1.559543-3.905089,3.532297-4.025041,9.837118-.599759,12.689616-3.758481,14.529073-8.369952Z" fill="none" stroke="#000" stroke-linecap="round" stroke-linejoin="round"/><path d="M244.058731,197.050081c5.384296-13.474555,16.685998-22.750807,29.746921-22.750807,13.074249,0,24.362621,9.276252,29.746921,22.750807,1.732576,4.344911,4.424721,7.423667,10.142208,8.236672,1.879179.26656,3.305218,1.945879,3.305218,4.011713v111.701534h-91v-111.554926c0-2.159129,1.559312-3.905089,3.531783-4.025041,9.835677-.599759,12.687756-3.758481,14.526949-8.369952Z" fill="none" stroke="#000" stroke-linecap="round" stroke-linejoin="round"/><path d="M226.488731,214.510275c.626415,8.489902.959614,16.979808,1.172861,25.46971.239903,8.489902.306542,16.979808.346524,25.469705-.026657,8.489907-.07997,16.979803-.319873,25.46971-.213247,8.489907-.546446,16.979803-1.15953,25.46971-.626415-8.489907-.959614-16.979803-1.186187-25.46971-.239903-8.489907-.306542-16.979803-.333199-25.46971.026657-8.489907.093295-16.979803.319873-25.46971.213247-8.503227.546446-16.993129,1.15953-25.469705Z" fill="none" stroke="#000" stroke-linecap="round" stroke-linejoin="round"/><path d="M274.296085,174.553087c-4.544835,1.159531-8.663166,3.11874-12.368334,5.677706-3.705168,2.53231-7.050486,5.624393-9.862684,9.063005-.70638.866316-1.292813,1.745962-1.905897,2.718901l-1.839258,2.918821c-1.212843,1.972536-2.439017,3.9584-3.82512,5.890953-.373181.493135-.666397.946283-1.132874,1.466075-.45315.493135-.946283.919629-1.479403,1.279482-1.052909.733036-2.185783,1.252828-3.358644,1.599355-2.345717.693054-4.784734.773021-7.090468.399837,2.332391-.226575,4.598143-.71971,6.597335-1.69265.98627-.493135,1.932554-1.052909,2.705572-1.772617.799675-.706382,1.292813-1.492731,1.892566-2.505653,1.146204-1.959207,2.225765-4.011713,3.358644-6.037561,1.132874-2.025849,2.239096-4.118336,3.758481-6.077544,2.958806-3.851778,6.690631-6.983845,10.862275-9.369548,4.198306-2.332392,8.969714-3.798466,13.687809-3.558563Z" fill="none" stroke="#000" stroke-linecap="round" stroke-linejoin="round"/><path d="M299.6725,224.359628c-1.466072.066639-3.105414-.213247-4.318252-.26656-1.212848-.053313-2.412355.213247-3.625204.226573-2.332391.013326-4.584817-.97294-6.917208-.999596-3.038771-.039982-5.970925,1.546042-9.009696,1.279482-1.679324-.146608-3.292005-.852988-4.98465-.866319-1.652663-.013326-3.252023.639741-4.918016.733036-2.785536.159934-5.531101-1.306138-8.289985-.932957-1.412764.18659-2.732228.852988-4.118336,1.15953-2.492325.546446-5.691035-.852988-5.691035-3.731825,0-1.999192,1.626011-3.625204,3.625204-3.625204,1.492729,0,2.958806.133277,4.451535,0,1.972536-.173265,3.945071-.559771,5.930938-.359855,1.546047.159934,3.065432.666397,4.611469.493133.986265-.119952,1.919228-.506463,2.892162-.759693,1.519385-.413168,3.145397-.466476,4.691433-.18659,1.42609.26656,2.798867.826331,4.238288.879644,1.945879.07997,3.838445-.759693,5.784335-.746367,1.586029.013326,3.118735.599759,4.704764.666397,1.466072.066639,2.918824-.306542,4.384896-.479807,3.078753-.373181,10.209203-.373181,10.209203,4.131662.00001,2.612297-1.679314,3.305351-3.651845,3.385315Z" fill="none" stroke="#000" stroke-linecap="round" stroke-linejoin="round"/><path d="M268.405134,258.372553c-1.506054-.013331-3.19871-.479807-4.664782-.279886-.89297.119947-1.759289.35985-2.638933.479807-.826331.106626-1.665994.106626-2.505656.106626-3.145397,0-10.569063,1.186187-10.569063-3.851776,0-1.466072.959614-2.945475,2.385704-3.411957,1.626011-.53312,4.118336.359855,5.810986.599759.813006.119952,1.626011.239903,2.452343.239903,3.278679.013326,13.367936-3.798463,13.367936,2.558964,0,1.412759-.972945,3.078753-2.425686,3.425282-.399843.106626-.799685.146608-1.212848.133277Z" fill="none" stroke="#000" stroke-linecap="round" stroke-linejoin="round"/><path d="M299.472579,258.439197c-1.146204-.013331-2.239096-.493138-3.425282-.519789-1.052909-.026651-2.039174.493138-3.065432.759693-2.585625.653067-5.331179-.373181-7.956787.093295-1.719307.306547-2.558964.466476-3.905089-.626415-1.119543-.906301-2.025844-1.732637-2.025844-3.292005,0-1.679319,1.159535-3.132066,2.772216-3.531908,2.13247-.546446,3.105414.506463,5.091276.932957,1.106222.239903,2.225765-.226573,3.318656-.506463,1.466072-.373181,3.012119-.426494,4.504843-.146608.493138.093295.986265.226573,1.492734.26656,1.759289.133277,3.132066-1.106222,4.81139-.279886,1.226169.613084,2.025844,1.892566,2.025844,3.252018,0,1.519385-1.012927,2.985458-2.478999,3.438613-.413163.119957-.786344.159939-1.159525.159939Z" fill="none" stroke="#000" stroke-linecap="round" stroke-linejoin="round"/><path d="M291.355853,241.392749c-2.159131.106626-4.784729-.586428-6.344106-.653072-1.879246-.07997-3.718499.586428-5.597734.799675-2.985458.319873-5.970925-.53312-8.983034-.53312-3.518578.013331-14.314214,3.331992-14.314214-3.105409,0-4.025041,3.665186-3.185379,6.250811-2.705572,2.572294.479807,5.184571-.813006,7.783527-.573102,1.399439.133277,2.718903.693054,4.118331.839662,2.558964.253229,5.064624-.932957,7.623588-.879644.799675.013326,1.586029.159934,2.385704.213247,1.266151.093295,2.532312-.026657,3.771812-.239903,1.06624-.173265,2.31906-.733036,3.398631-.573102,1.852584.26656,3.505247,2.039174,3.505247,3.905089.039972,2.638933-1.586039,3.411957-3.598562,3.505252Z" fill="none" stroke="#000" stroke-linecap="round" stroke-linejoin="round"/><path d="M301.071928,251.575301c-1.679324-.826331-3.065432.413168-4.81139.279886-.506458-.039982-.999596-.173265-1.492734-.26656-1.492734-.279886-3.038771-.226573-4.504843.146608-1.092891.279886-2.212444.746367-3.318656.506463-1.985861-.426494-2.958806-1.479403-5.091276-.932957-1.199517.306542-2.1458,1.186187-2.558964,2.305734.373181-.26656.786344-.479807,1.2395-.586428,2.13247-.546446,3.105414.506463,5.091276.932957,1.106222.239903,2.225765-.226573,3.318656-.506463,1.466072-.373181,3.012119-.426494,4.504843-.146608.493138.093295.986265.226573,1.492734.26656,1.759289.133277,3.132066-1.106222,4.81139-.279886,1.226169.613084,2.025844,1.892566,2.025844,3.252023,0,.426494-.093295.852988-.239903,1.25283.946283-.666397,1.559368-1.799271,1.559368-2.972137.00001-1.372782-.799665-2.652264-2.025844-3.252023Z" fill="none" stroke="#000" stroke-linecap="round" stroke-linejoin="round"/><path d="M258.662402,252.268355c-.826331,0-1.639337-.119952-2.452343-.239903-1.69265-.239903-4.171649-1.132874-5.810986-.599759-1.012922.333199-1.77262,1.172861-2.1458,2.1458.253229-.173265.519789-.333199.826331-.426494,1.626011-.53312,4.118336.359855,5.810986.599759.813006.119952,1.626011.239903,2.452343.239903,3.278674.013326,13.367931-3.798463,13.367931,2.558969,0,.426494-.093295.879649-.266555,1.319464.972945-.666397,1.586029-1.919228,1.586029-3.038771-.00001-6.357437-10.089267-2.545643-13.367936-2.558969Z" fill="none" stroke="#000" stroke-linecap="round" stroke-linejoin="round"/><path d="M291.47581,233.995734c-1.079561-.159934-2.345722.399837-3.398631.573102-1.25283.213247-2.518981.319873-3.771812.239903-.799675-.053313-1.586029-.199921-2.385704-.213247-2.572294-.053313-5.077945,1.132874-7.623588.879644-1.399439-.146608-2.718903-.70638-4.118331-.839662-2.598946-.239903-5.224553,1.052909-7.783517.573102-2.319065-.439825-5.504444-1.146204-6.130854,1.612681,1.306138-.599759,3.252018-.18659,4.81139.106626,2.572294.479807,5.184571-.813006,7.783527-.573102,1.399439.133277,2.718903.693054,4.118331.839662,2.558964.253229,5.064624-.932957,7.623588-.879644.799675.013326,1.586029.159934,2.385704.213247,1.266151.093295,2.532312-.026657,3.771812-.239903,1.06624-.173265,2.31906-.733036,3.398631-.573102,1.852584.26656,3.505247,2.039174,3.505247,3.905089,0,.479807-.066644.89297-.17326,1.252825.906301-.493133,1.492734-1.399434,1.492734-2.972132.01331-1.86591-1.652683-3.638529-3.505267-3.905089Z" fill="none" stroke="#000" stroke-linecap="round" stroke-linejoin="round"/><path d="M293.115152,216.842666c-1.466072.173265-2.918824.546446-4.384896.479807-1.586029-.066639-3.118735-.653072-4.704764-.666397-1.945879-.013326-3.838445.826331-5.784335.746367-1.439421-.053313-2.825529-.613084-4.238288-.879644-1.559368-.293216-3.172048-.226573-4.691433.18659-.959614.253229-1.892566.653072-2.892162.759693-1.546047.173265-3.065432-.333199-4.611469-.493133-1.985867-.199921-3.958402.18659-5.930938.359855-1.492729.133277-2.958806,0-4.451535,0-1.559368,0-2.892162.999596-3.398626,2.385704.586428-.413168,1.306138-.666397,2.079162-.666397,1.492729,0,2.958806.133277,4.451535,0,1.972536-.173265,3.945071-.559771,5.930938-.359855,1.546047.159934,3.065432.666397,4.611469.493133.986265-.119952,1.919228-.506463,2.892162-.759693,1.532716-.413168,3.145397-.466476,4.691433-.18659,1.42609.26656,2.798867.826331,4.238288.879644,1.945879.07997,3.838445-.759693,5.784335-.746367,1.586029.013326,3.118735.599759,4.704764.666397,1.466072.066639,2.918824-.306542,4.384896-.479807,3.078753-.373181,10.209203-.373181,10.209203,4.131662,0,.45315-.066644.813006-.159939,1.15953.879649-.479807,1.466072-1.332795,1.466072-2.878837.013331-4.504843-7.11712-4.504843-10.195872-4.131662Z" fill="none" stroke="#000" stroke-linecap="round" stroke-linejoin="round"/><path d="M300.267767,334h-99.535538c-1.508968,0-2.732228-1.22326-2.732228-2.732228v-17.535538c0-1.508971,1.223263-2.732233,2.732233-2.732233h99.535533c1.508971,0,2.732233,1.223263,2.732233,2.732233v17.535533c0,1.508971-1.223263,2.732233-2.732233,2.732233Z" fill="none" stroke="#000" stroke-linecap="round" stroke-linejoin="round"/><path d="M322.534332,334h-100.068663c-1.361751,0-2.465668-1.103917-2.465668-2.465668v-18.068663c0-1.361751,1.103917-2.465668,2.465668-2.465668h100.068663c1.361751,0,2.465668,1.103917,2.465668,2.465668v18.068663c0,1.361751-1.103917,2.465668-2.465668,2.465668Z" fill="none" stroke="#000" stroke-linecap="round" stroke-linejoin="round"/><path d="M219.838087,314.176676c-.093295-1.132874.599759-2.332391,1.732632-2.812198.559771-.266555,1.212843-.253234,1.745963-.279886l1.69265-.093295,6.757269-.319868c4.504848-.17326,9.009691-.333199,13.514539-.439825,9.009691-.239903,18.019387-.306547,27.042403-.333199,9.009696.026651,18.019392.093295,27.042408.333199,4.504843.106626,9.009696.266555,13.514539.439825l6.757269.319868,1.692645.093295c.53312.039982,1.186187.013331,1.745958.279886,1.132874.493138,1.825933,1.679324,1.732637,2.812198-.066644-1.146204-.89297-2.119139-1.892566-2.399035-.493138-.17326-1.012927-.093295-1.586029-.066644l-1.692645.093295-6.757269.319868c-4.504843.17326-9.009696.333199-13.514539.439825-9.009696.239903-18.019382.306547-27.042408.333199-9.009696-.026651-18.019387-.093295-27.042408-.333199-4.504848-.106626-9.009696-.266555-13.514539-.439825l-6.757269-.319868-1.69265-.093295c-.586428-.026651-1.092891-.106626-1.586024.066644-.999596.279886-1.825927,1.25283-1.892566,2.399035Z" fill="none" stroke="#000" stroke-linecap="round" stroke-linejoin="round"/><path d="M300.855277,274.071406c4.216345-10.508373,11.89761-18.562945,21.234803-21.945587,3.117032-1.109063,31.907862-1.719048,31.907862-1.719048,0,0,3.339682,9.64885,8.961479,23.664635,1.808998,4.519433,4.619891,7.721852,10.58957,8.567513,1.962067.277267,3.451008,2.024039,3.451008,4.172851v116.18823h-95v-116.035733c0-2.245854,1.628094-4.061944,3.687563-4.186714,10.269518-.623849,13.247402-3.909447,15.167714-8.706147Z" fill="#8f8f8f"/><path d="M322.852522,274.071406c5.620968-14.015785,17.419448-23.664635,31.054478-23.664635,13.648941,0,25.433505,9.64885,31.054478,23.664635,1.808733,4.519433,4.619214,7.721852,10.58802,8.567513,1.96178.277267,3.450502,2.024039,3.450502,4.172851v116.18823h-95v-116.035733c0-2.245854,1.627853-4.061944,3.687026-4.186714,10.268015-.623849,13.245459-3.909447,15.165496-8.706147Z" fill="#b0b0b0"/><path d="M303.839467,292.324411c.651576,8.830914.998159,17.661833,1.219971,26.492747.24954,8.830914.318855,17.661833.360443,26.492742-.027727,8.830919-.083182,17.661828-.332721,26.492747-.221812,8.830919-.568395,17.661828-1.206105,26.492747-.651576-8.830919-.998159-17.661828-1.233832-26.492747-.24954-8.830919-.318855-17.661828-.346582-26.492747.027727-8.830919.097043-17.661828.332721-26.492747.221812-8.844775.568395-17.675689,1.206105-26.492742Z" fill="#bdbdbd"/><path d="M353.567091,250.76227c-4.727387,1.206106-9.011138,3.24401-12.865131,5.905762-3.853993,2.634025-7.333682,5.850307-10.258836,9.427037-.734753.901113-1.344741,1.816092-1.982451,2.828111l-1.913135,3.036061c-1.261559,2.051766-2.536985,4.117396-3.978763,6.127574-.38817.512943-.693164.984292-1.178378,1.524962-.471352.512943-.984292.956568-1.538826,1.330875-1.095201.76248-2.273579,1.30315-3.49355,1.663596-2.439937.720892-4.976921.804071-7.37527.415898,2.426076-.235676,4.782836-.748619,6.862329-1.760638,1.025886-.512943,2.010178-1.095201,2.814246-1.843817.831795-.734755,1.344741-1.55269,1.968585-2.606297,1.192244-2.037903,2.315167-4.172851,3.49355-6.280071,1.178378-2.107221,2.329033-4.283757,3.909447-6.321659,3.077652-4.006491,6.959372-7.264363,11.298578-9.745893,4.366938-2.426076,9.329999-3.951038,14.237604-3.701499Z" fill="#e0e0e0"/><g opacity=".55"><path d="M347.439519,337.948498c-1.566548-.013866-3.327192-.499079-4.852151-.291128-.928838.124765-1.829954.374304-2.744931.499079-.859522.110909-1.732911.110909-2.6063.110909-3.271737,0-10.993589,1.233832-10.993589-4.00649,0-1.52496.998159-3.063786,2.48153-3.549004,1.691323-.554534,4.283757.374309,6.044395.623849.845662.12477,1.691323.24954,2.550846.24954,3.410373.013861,13.904883-3.951035,13.904883,2.661749,0,1.469505-1.012025,3.202417-2.523118,3.562865-.415903.110909-.831806.152497-1.261564.138631Z" fill="#777"/><path d="M379.754844,338.017818c-1.192244-.013866-2.329033-.512946-3.562865-.540667-1.095201-.027722-2.121082.512946-3.188561.790207-2.689482.679298-5.545316-.38817-8.276386.097043-1.788366.31886-2.661749.485213-4.061944-.651576-1.164511-.942704-2.107215-1.802232-2.107215-3.424234,0-1.746772,1.20611-3.257871,2.883567-3.673774,2.218124-.568395,3.230149.526806,5.295776.970431,1.150656.24954,2.315167-.235673,3.451956-.526806,1.52496-.38817,3.133106-.443625,4.685788-.152497.512946.097043,1.02588.235673,1.552692.277267,1.829954.138631,3.257871-1.150656,5.004648-.291128,1.27542.63771,2.107215,1.968585,2.107215,3.382641,0,1.580414-1.053613,3.105374-2.578573,3.576731-.429759.124775-.817929.166363-1.206099.166363Z" fill="#777"/></g><g opacity=".55"><path d="M371.312095,320.286669c-2.245857.110909-4.976916-.609983-6.598929-.679304-1.954729-.083182-3.867859.609983-5.822577.831795-3.105374.332721-6.210758-.554534-9.343854-.554534-3.659908.013866-14.88917,3.465828-14.88917-3.230144,0-4.186714,3.812405-3.313325,6.501886-2.814246,2.675615.499079,5.392819-.845662,8.096167-.596122,1.45565.138631,2.828112.720892,4.283751.873389,2.661749.263401,5.268054-.970431,7.929803-.914977.831795.013861,1.649735.166358,2.48153.221812,1.317008.097043,2.634027-.027727,3.923314-.24954,1.109067-.180224,2.412209-.76248,3.535143-.596122,1.926996.277267,3.646041,2.121082,3.646041,4.061944.041578,2.744931-1.649745,3.549004-3.743105,3.646047Z" fill="#777"/></g><path d="M381.418435,330.878222c-1.746777-.859522-3.188561.429764-5.004648.291128-.526801-.041588-1.039747-.180224-1.552692-.277267-1.552692-.291128-3.160828-.235673-4.685788.152497-1.136789.291128-2.301311.776346-3.451956.526806-2.065627-.443625-3.077652-1.538826-5.295776-.970431-1.247698.318855-2.23199,1.233832-2.661749,2.398348.38817-.277267.817929-.499079,1.289286-.609983,2.218124-.568395,3.230149.526806,5.295776.970431,1.150656.24954,2.315167-.235673,3.451956-.526806,1.52496-.38817,3.133106-.443625,4.685788-.152497.512946.097043,1.02588.235673,1.552692.277267,1.829954.138631,3.257871-1.150656,5.004648-.291128,1.27542.63771,2.107215,1.968585,2.107215,3.382646,0,.443625-.097043.88725-.24954,1.303153.984292-.693164,1.622002-1.871542,1.622002-3.091518.000011-1.427922-.831785-2.758797-2.107215-3.382646Z" fill="#777"/><path d="M337.305453,331.599114c-.859522,0-1.705184-.12477-2.550846-.24954-1.760638-.24954-4.339211-1.178378-6.044395-.623849-1.053608.346582-1.84382,1.219971-2.23199,2.23199.263401-.180224.540667-.346582.859522-.443625,1.691323-.554534,4.283757.374309,6.044395.623849.845662.12477,1.691323.24954,2.550846.24954,3.410368.013861,13.904878-3.951035,13.904878,2.661754,0,.443625-.097043.914982-.277262,1.372463,1.012025-.693164,1.649735-1.996317,1.649735-3.160828-.000011-6.612795-10.49452-2.647893-13.904883-2.661754Z" fill="#777"/><path d="M371.43687,312.592539c-1.122923-.166358-2.439942.415898-3.535143.596122-1.303153.221812-2.620161.332721-3.923314.24954-.831795-.055454-1.649735-.207951-2.48153-.221812-2.675615-.055454-5.28191,1.178378-7.929803.914977-1.45565-.152497-2.828112-.734753-4.283751-.873389-2.703337-.24954-5.434407,1.095201-8.096156.596122-2.412215-.457491-5.72554-1.192244-6.377111,1.677457,1.358602-.623849,3.382641-.194085,5.004648.110909,2.675615.499079,5.392819-.845662,8.096167-.596122,1.45565.138631,2.828112.720892,4.283751.873389,2.661749.263401,5.268054-.970431,7.929803-.914977.831795.013861,1.649735.166358,2.48153.221812,1.317008.097043,2.634027-.027727,3.923314-.24954,1.109067-.180224,2.412209-.76248,3.535143-.596122,1.926996.277267,3.646041,2.121082,3.646041,4.061944,0,.499079-.069321.928838-.180219,1.303147.942704-.51294,1.552692-1.455644,1.552692-3.091513.013845-1.940857-1.719066-3.784677-3.646063-4.061944Z" fill="#777"/><path d="M381.158021,417h-103.316048c-1.569579,0-2.841973-1.272395-2.841973-2.841973v-18.316048c0-1.569581,1.272397-2.841979,2.841979-2.841979h103.316043c1.569581,0,2.841979,1.272397,2.841979,2.841979v18.316043c0,1.569581-1.272397,2.841979-2.841979,2.841979Z" fill="#8f8f8f"/><path d="M403.435294,417h-103.870587c-1.416448,0-2.564706-1.148258-2.564706-2.564706v-18.870587c0-1.416448,1.148258-2.564706,2.564706-2.564706h103.870587c1.416448,0,2.564706,1.148258,2.564706,2.564706v18.870587c0,1.416448-1.148258,2.564706-2.564706,2.564706Z" fill="#b0b0b0"/><path d="M296.921688,395.994095c-.097043-1.178378.623849-2.426076,1.802227-2.925155.582256-.277262,1.261559-.263406,1.816093-.291128l1.760638-.097043,7.028687-.332716c4.685793-.180219,9.371582-.346582,14.057375-.457491,9.371582-.24954,18.743168-.31886,28.128611-.346582,9.371587.027722,18.743174.097043,28.128616.346582,4.685788.110909,9.371587.277262,14.057375.457491l7.028687.332716,1.760633.097043c.554534.041588,1.233832.013866,1.816088.291128,1.178378.512946,1.899274,1.746777,1.802232,2.925155-.069321-1.192244-.928838-2.204258-1.968585-2.495396-.512946-.180219-1.053613-.097043-1.649735-.069321l-1.760633.097043-7.028687.332716c-4.685788.180219-9.371587.346582-14.057375.457491-9.371587.24954-18.743163.31886-28.128616.346582-9.371587-.027722-18.743168-.097043-28.128616-.346582-4.685793-.110909-9.371587-.277262-14.057375-.457491l-7.028687-.332716-1.760638-.097043c-.609983-.027722-1.136789-.110909-1.64973.069321-1.039747.291128-1.899269,1.303153-1.968585,2.495396Z" fill="#e0e0e0"/><path d="M300.855277,274.071406c4.216345-10.508373,11.89761-18.562945,21.234803-21.945587,3.117032-1.109063,31.907862-1.719048,31.907862-1.719048,0,0,3.339682,9.64885,8.961479,23.664635,1.808998,4.519433,4.619891,7.721852,10.58957,8.567513,1.962067.277267,3.451008,2.024039,3.451008,4.172851v116.18823h-95v-116.035733c0-2.245854,1.628094-4.061944,3.687563-4.186714,10.269518-.623849,13.247402-3.909447,15.167714-8.706147Z" fill="none" stroke="#000" stroke-linecap="round" stroke-linejoin="round"/><path d="M322.852522,274.071406c5.620968-14.015785,17.419448-23.664635,31.054478-23.664635,13.648941,0,25.433505,9.64885,31.054478,23.664635,1.808733,4.519433,4.619214,7.721852,10.58802,8.567513,1.96178.277267,3.450502,2.024039,3.450502,4.172851v116.18823h-95v-116.035733c0-2.245854,1.627853-4.061944,3.687026-4.186714,10.268015-.623849,13.245459-3.909447,15.165496-8.706147Z" fill="none" stroke="#000" stroke-linecap="round" stroke-linejoin="round"/><path d="M303.839467,292.324411c.651576,8.830914.998159,17.661833,1.219971,26.492747.24954,8.830914.318855,17.661833.360443,26.492742-.027727,8.830919-.083182,17.661828-.332721,26.492747-.221812,8.830919-.568395,17.661828-1.206105,26.492747-.651576-8.830919-.998159-17.661828-1.233832-26.492747-.24954-8.830919-.318855-17.661828-.346582-26.492747.027727-8.830919.097043-17.661828.332721-26.492747.221812-8.844775.568395-17.675689,1.206105-26.492742Z" fill="none" stroke="#000" stroke-linecap="round" stroke-linejoin="round"/><path d="M353.567091,250.76227c-4.727387,1.206106-9.011138,3.24401-12.865131,5.905762-3.853993,2.634025-7.333682,5.850307-10.258836,9.427037-.734753.901113-1.344741,1.816092-1.982451,2.828111l-1.913135,3.036061c-1.261559,2.051766-2.536985,4.117396-3.978763,6.127574-.38817.512943-.693164.984292-1.178378,1.524962-.471352.512943-.984292.956568-1.538826,1.330875-1.095201.76248-2.273579,1.30315-3.49355,1.663596-2.439937.720892-4.976921.804071-7.37527.415898,2.426076-.235676,4.782836-.748619,6.862329-1.760638,1.025886-.512943,2.010178-1.095201,2.814246-1.843817.831795-.734755,1.344741-1.55269,1.968585-2.606297,1.192244-2.037903,2.315167-4.172851,3.49355-6.280071,1.178378-2.107221,2.329033-4.283757,3.909447-6.321659,3.077652-4.006491,6.959372-7.264363,11.298578-9.745893,4.366938-2.426076,9.329999-3.951038,14.237604-3.701499Z" fill="none" stroke="#000" stroke-linecap="round" stroke-linejoin="round"/><path d="M347.439519,337.948498c-1.566548-.013866-3.327192-.499079-4.852151-.291128-.928838.124765-1.829954.374304-2.744931.499079-.859522.110909-1.732911.110909-2.6063.110909-3.271737,0-10.993589,1.233832-10.993589-4.00649,0-1.52496.998159-3.063786,2.48153-3.549004,1.691323-.554534,4.283757.374309,6.044395.623849.845662.12477,1.691323.24954,2.550846.24954,3.410373.013861,13.904883-3.951035,13.904883,2.661749,0,1.469505-1.012025,3.202417-2.523118,3.562865-.415903.110909-.831806.152497-1.261564.138631Z" fill="none" stroke="#000" stroke-linecap="round" stroke-linejoin="round"/><path d="M379.754844,338.017818c-1.192244-.013866-2.329033-.512946-3.562865-.540667-1.095201-.027722-2.121082.512946-3.188561.790207-2.689482.679298-5.545316-.38817-8.276386.097043-1.788366.31886-2.661749.485213-4.061944-.651576-1.164511-.942704-2.107215-1.802232-2.107215-3.424234,0-1.746772,1.20611-3.257871,2.883567-3.673774,2.218124-.568395,3.230149.526806,5.295776.970431,1.150656.24954,2.315167-.235673,3.451956-.526806,1.52496-.38817,3.133106-.443625,4.685788-.152497.512946.097043,1.02588.235673,1.552692.277267,1.829954.138631,3.257871-1.150656,5.004648-.291128,1.27542.63771,2.107215,1.968585,2.107215,3.382641,0,1.580414-1.053613,3.105374-2.578573,3.576731-.429759.124775-.817929.166363-1.206099.166363Z" fill="none" stroke="#000" stroke-linecap="round" stroke-linejoin="round"/><path d="M371.312095,320.286669c-2.245857.110909-4.976916-.609983-6.598929-.679304-1.954729-.083182-3.867859.609983-5.822577.831795-3.105374.332721-6.210758-.554534-9.343854-.554534-3.659908.013866-14.88917,3.465828-14.88917-3.230144,0-4.186714,3.812405-3.313325,6.501886-2.814246,2.675615.499079,5.392819-.845662,8.096167-.596122,1.45565.138631,2.828112.720892,4.283751.873389,2.661749.263401,5.268054-.970431,7.929803-.914977.831795.013861,1.649735.166358,2.48153.221812,1.317008.097043,2.634027-.027727,3.923314-.24954,1.109067-.180224,2.412209-.76248,3.535143-.596122,1.926996.277267,3.646041,2.121082,3.646041,4.061944.041578,2.744931-1.649745,3.549004-3.743105,3.646047Z" fill="none" stroke="#000" stroke-linecap="round" stroke-linejoin="round"/><path d="M381.418435,330.878222c-1.746777-.859522-3.188561.429764-5.004648.291128-.526801-.041588-1.039747-.180224-1.552692-.277267-1.552692-.291128-3.160828-.235673-4.685788.152497-1.136789.291128-2.301311.776346-3.451956.526806-2.065627-.443625-3.077652-1.538826-5.295776-.970431-1.247698.318855-2.23199,1.233832-2.661749,2.398348.38817-.277267.817929-.499079,1.289286-.609983,2.218124-.568395,3.230149.526806,5.295776.970431,1.150656.24954,2.315167-.235673,3.451956-.526806,1.52496-.38817,3.133106-.443625,4.685788-.152497.512946.097043,1.02588.235673,1.552692.277267,1.829954.138631,3.257871-1.150656,5.004648-.291128,1.27542.63771,2.107215,1.968585,2.107215,3.382646,0,.443625-.097043.88725-.24954,1.303153.984292-.693164,1.622002-1.871542,1.622002-3.091518.000011-1.427922-.831785-2.758797-2.107215-3.382646Z" fill="none" stroke="#000" stroke-linecap="round" stroke-linejoin="round"/><path d="M337.305453,331.599114c-.859522,0-1.705184-.12477-2.550846-.24954-1.760638-.24954-4.339211-1.178378-6.044395-.623849-1.053608.346582-1.84382,1.219971-2.23199,2.23199.263401-.180224.540667-.346582.859522-.443625,1.691323-.554534,4.283757.374309,6.044395.623849.845662.12477,1.691323.24954,2.550846.24954,3.410368.013861,13.904878-3.951035,13.904878,2.661754,0,.443625-.097043.914982-.277262,1.372463,1.012025-.693164,1.649735-1.996317,1.649735-3.160828-.000011-6.612795-10.49452-2.647893-13.904883-2.661754Z" fill="none" stroke="#000" stroke-linecap="round" stroke-linejoin="round"/><path d="M371.43687,312.592539c-1.122923-.166358-2.439942.415898-3.535143.596122-1.303153.221812-2.620161.332721-3.923314.24954-.831795-.055454-1.649735-.207951-2.48153-.221812-2.675615-.055454-5.28191,1.178378-7.929803.914977-1.45565-.152497-2.828112-.734753-4.283751-.873389-2.703337-.24954-5.434407,1.095201-8.096156.596122-2.412215-.457491-5.72554-1.192244-6.377111,1.677457,1.358602-.623849,3.382641-.194085,5.004648.110909,2.675615.499079,5.392819-.845662,8.096167-.596122,1.45565.138631,2.828112.720892,4.283751.873389,2.661749.263401,5.268054-.970431,7.929803-.914977.831795.013861,1.649735.166358,2.48153.221812,1.317008.097043,2.634027-.027727,3.923314-.24954,1.109067-.180224,2.412209-.76248,3.535143-.596122,1.926996.277267,3.646041,2.121082,3.646041,4.061944,0,.499079-.069321.928838-.180219,1.303147.942704-.51294,1.552692-1.455644,1.552692-3.091513.013845-1.940857-1.719066-3.784677-3.646063-4.061944Z" fill="none" stroke="#000" stroke-linecap="round" stroke-linejoin="round"/><path d="M381.158021,417h-103.316048c-1.569579,0-2.841973-1.272395-2.841973-2.841973v-18.316048c0-1.569581,1.272397-2.841979,2.841979-2.841979h103.316043c1.569581,0,2.841979,1.272397,2.841979,2.841979v18.316043c0,1.569581-1.272397,2.841979-2.841979,2.841979Z" fill="none" stroke="#000" stroke-linecap="round" stroke-linejoin="round"/><path d="M403.435294,417h-103.870587c-1.416448,0-2.564706-1.148258-2.564706-2.564706v-18.870587c0-1.416448,1.148258-2.564706,2.564706-2.564706h103.870587c1.416448,0,2.564706,1.148258,2.564706,2.564706v18.870587c0,1.416448-1.148258,2.564706-2.564706,2.564706Z" fill="none" stroke="#000" stroke-linecap="round" stroke-linejoin="round"/><path d="M296.921688,395.994095c-.097043-1.178378.623849-2.426076,1.802227-2.925155.582256-.277262,1.261559-.263406,1.816093-.291128l1.760638-.097043,7.028687-.332716c4.685793-.180219,9.371582-.346582,14.057375-.457491,9.371582-.24954,18.743168-.31886,28.128611-.346582,9.371587.027722,18.743174.097043,28.128616.346582,4.685788.110909,9.371587.277262,14.057375.457491l7.028687.332716,1.760633.097043c.554534.041588,1.233832.013866,1.816088.291128,1.178378.512946,1.899274,1.746777,1.802232,2.925155-.069321-1.192244-.928838-2.204258-1.968585-2.495396-.512946-.180219-1.053613-.097043-1.649735-.069321l-1.760633.097043-7.028687.332716c-4.685788.180219-9.371587.346582-14.057375.457491-9.371587.24954-18.743163.31886-28.128616.346582-9.371587-.027722-18.743168-.097043-28.128616-.346582-4.685793-.110909-9.371587-.277262-14.057375-.457491l-7.028687-.332716-1.760638-.097043c-.609983-.027722-1.136789-.110909-1.64973.069321-1.039747.291128-1.899269,1.303153-1.968585,2.495396Z" fill="none" stroke="#000" stroke-linecap="round" stroke-linejoin="round"/><text transform="translate(337.141846 300.136398)" fill="#777" font-family="ComicNeue-Bold, &apos;Comic Neue&apos;" font-size="21.287781" font-weight="700"><tspan x="0" y="0">Bob</tspan></text><path d="M122.143956,404.626989s-.145507-1.449856,1.218264-2.099589c.960406-.454555,2.061092-.311746,2.214178-.46611.313502-.317645-.144523-1.18749-1.107091-1.343769-.666615-.107226-1.52486.091307-1.52486.091307,0,0,.302322-.894792.793874-1.279013s1.167094-.605945,1.0917-.832347c-.327434-.960501-2.120511-.633885-3.103513-.074602-2.195376,1.247562-2.324421,2.69959-2.324421,2.69959,0,0-.38859-.199957-.953927-.866591-.565733-.670696-2.068233-2.746884-2.494599-2.114761-.487897.716043-.311281,2.232582.090464,3.198139.4066.973284.75753,1.459882.75753,1.459882,0,0-1.174591-.480083-2.656755-.077165-1.809729.492279-2.691401,2.132538-1.918702,3.201349.289008.398314.791077-.466747,2.348243-.815465.541679-.122547,1.471845.164023,1.471845.164023,0,0-.672187.676604-.531139,2.122795.108163,1.109017,1.200208,1.962137,1.994348,1.737049.191428-.055579-.278073-1.547654.529958-2.471262.428046-.488754,1.225457-.722363,2.419374-.506627.451015.083143,2.06751.384794,2.06751.384794,0,0-.17642-1.094159-.382281-2.111627Z" fill="#738136"/><path d="M119.581892,405.713197c.85566,3.068796,2.050047,6.299364,3.584378,8.984349,1.535574,2.688874,3.739021,6.355614,6.196521,11.569396,1.842856,3.906137,3.006757,7.403522,3.36664,9.053876.518506,2.375227,1.019875,6.306964,1.019875,6.306964,0,0,.730806.799243,2.197145.292454.933493-.323786,1.006267-1.075415,1.006267-1.075415,0,0-.427493-3.955331-2.516882-10.002192-2.089389-6.046861-6.093323-12.990575-7.818695-15.777374s-3.793581-6.763386-4.475187-11.198817l-2.560062,1.846757Z" fill="#748138"/><path d="M93.930566,388.128137h0c.25892,3.026533,2.92229,5.270113,5.948821,5.011193l14.384932-1.230629-1.230629-14.384932c-.25892-3.026532-2.92229-5.270113-5.948821-5.011193h0c-7.944578.679658-13.83396,7.670982-13.154302,15.615561Z" fill="#ff5a5a"/><path d="M94.868194,399.088152h0c-.258919-3.026531,1.984662-5.689902,5.011193-5.948821l14.384932-1.230629,1.230629,14.384932c.258919,3.026531-1.984662,5.689902-5.011193,5.948821h0c-7.944578.679658-14.935903-5.209724-15.615561-13.154302Z" fill="#ff464b"/><path d="M134.598072,395.689265h0c-.258919-3.026531-2.922289-5.270113-5.948821-5.011193l-14.384932,1.230629,1.230629,14.384932c.258919,3.026531,2.922289,5.270113,5.948821,5.011193h0c7.944579-.679658,13.83396-7.670983,13.154302-15.615561Z" fill="#ff5a5a"/><path d="M133.660444,384.72925h0c.25892,3.026533-1.984661,5.689902-5.011193,5.948821l-14.384932,1.230629-1.230629-14.384932c-.25892-3.026532,1.984661-5.689902,5.011193-5.948821h0c7.944579-.679658,14.935903,5.209724,15.615561,13.154302Z" fill="#ff464b"/><path d="M122.484291,391.205483c-.388383-4.539837-4.383352-7.905137-8.92319-7.516754l.703218,8.219972,8.219972-.703218Z" fill="#ff8c4e"/><path d="M114.967536,400.128673c4.539837-.388383,7.905137-4.383352,7.516754-8.92319l-8.219972.703218.703218,8.219972Z" fill="#ffa555"/><path d="M106.044347,392.611919c.388383,4.539837,4.383352,7.905137,8.92319,7.516754l-.703218-8.219972-8.219972.703218Z" fill="#ff8c4e"/><path d="M113.561101,383.688729c-4.539837.388383-7.905137,4.383352-7.516754,8.92319l8.219972-.703218-.703218-8.219972Z" fill="#ffa555"/><path d="M123.88697,402.48582c.280328-.255508.302435-.690591.045963-.971228l-5.690146-6.25442,7.130046,4.545107c.320043.204147.745273.11016.949308-.210264.203791-.319621.109805-.744851-.210264-.949308l-11.4008-7.267355-9.098188-10.000885c-.255568-.281027-.690505-.301426-.971228-.045963-.164771.149869-.239996.361489-.222344.567821.012387.144797.070703.287384.176382.403408l5.690146,6.254421-7.130047-4.545106c-.320043-.204147-.745273-.11016-.949308.210264-.084364.132204-.117691.282631-.105277.427738.017625.206021.127702.401788.315535.521492l11.400799,7.267354,9.098252,10.000724c.255434.281272.690449.301664.971172.046201Z" fill="#d7464b"/><path d="M107.527405,403.756407l7.267347-11.400878,10.000801-9.098258c.280717-.255541.301116-.690478.045963-.971228-.255567-.281027-.690505-.301426-.971228-.045963l-6.254422,5.690146,4.545107-7.130046c.205017-.320821.109409-.745833-.210264-.949308-.320043-.204146-.745273-.11016-.949308.210264l-7.267354,11.400799-10.000724,9.098253c-.164771.149869-.239996.361489-.222371.56751.012414.145107.070729.287694.176402.40364.255568.281027.690505.301426.971228.045963l6.254344-5.69014-4.545106,7.130047c-.084364.132204-.117691.282631-.105297.427506.017652.206331.127729.402098.315561.521802.320043.204144.745273.110158.949321-.21011Z" fill="#cd4146"/><path d="M114.79173,398.073661c.922323-.078905,1.641226-.756662,1.829582-1.61579.810491.341656,1.778806.145242,2.375216-.562761s.625488-1.695686.151137-2.436289c.81472-.331632,1.360519-1.15521,1.281614-2.077532s-.756662-1.641226-1.61579-1.829582c.341656-.810491.145242-1.778806-.562761-2.375216s-1.695686-.625488-2.436212-.151143c-.331631-.81472-1.155209-1.360519-2.077532-1.281614s-1.641227.756663-1.829587,1.615711c-.810484-.341579-1.778798-.145165-2.375209.562837s-.625488,1.695686-.151143,2.436212c-.814721.331631-1.36052,1.155209-1.281615,2.077532s.756662,1.641226,1.61579,1.829582c-.341656.810491-.145242,1.778805.56276,2.375215s1.69553.625502,2.436296.151215c.331552.814728,1.155132,1.360526,2.077454,1.281622Z" fill="#91323c"/><path d="M110.154294,392.260313c-.193889-2.266388,1.491947-4.267741,3.758413-4.461637,2.266466-.193896,4.267741,1.491947,4.461637,3.758413.193896,2.266466-1.491947,4.267741-3.758413,4.461637-2.266466.193896-4.267748-1.492025-4.461637-3.758413ZM117.004283,391.674298c-.129251-1.510822-1.463546-2.634812-2.974368-2.505561-1.510822.129251-2.634812,1.463546-2.505561,2.974368s1.463546,2.634812,2.974368,2.505561,2.634812-1.463546,2.505561-2.974368Z" fill="#af3a41"/><path d="M187.678383,402.634217s-.302411-1.425413-1.799197-1.629519c-1.053164-.140874-2.058251.329978-2.251038.229496-.395268-.20723-.223541-1.175181.645876-1.616852.60241-.304918,1.480376-.376858,1.480376-.376858,0,0-.560177-.760429-1.145311-.97692s-1.296108-.222219-1.293154-.460827c.019748-1.014586,1.827209-1.248873,2.933755-1.015107,2.470833.520645,3.035447,1.864613,3.035447,1.864613,0,0,.309352-.308685.64512-1.115696.334909-.811001,1.134667-3.245842,1.733111-2.773367.682586.533702.975647,2.032101.886647,3.074107-.091275,1.050845-.277559,1.621132-.277559,1.621132,0,0,.972897-.814626,2.507388-.881651,1.873715-.081539,3.212549,1.212802,2.80158,2.466008-.154151.467351-.895568-.203996-2.485019-.062524-.553287.04803-1.352205.603963-1.352205.603963,0,0,.846147.440073,1.151691,1.860638.234308,1.089366-.546483,2.234242-1.371459,2.261385-.199263.005284-.205876-1.558901-1.256564-2.192952-.556434-.335389-1.387118-.315368-2.458835.253316-.404352.216394-1.85249.995464-1.85249.995464,0,0-.164765-1.095974-.278158-2.127848Z" fill="#738136"/><path d="M190.449446,402.889614c.118367,3.183654-.036735,6.62445-.681628,9.648921-.644895,3.028554-1.628562,7.191793-2.383659,12.906044-.567343,4.281606-.612241,7.967301-.453059,9.648921.228571,2.420394.946933,6.318328.946933,6.318328,0,0-.453059.983669-2.00407.946933-.987748-.024489-1.285707-.718364-1.285707-.718364,0,0-.795914-3.897937-.644895-10.293816.151019-6.395879,1.85305-14.228486,2.648963-17.408059s1.556499-7.596838.856618-12.029423l3.000504.980515Z" fill="#748138"/><path d="M187.094206,408.368505h0c-2.70167-1.388494-3.766204-4.704209-2.37771-7.405878l6.59943-12.840881,12.840881,6.59943c2.70167,1.388494,3.766204,4.704209,2.37771,7.405878h0c-3.644764,7.091822-12.348488,9.886216-19.440311,6.241451Z" fill="#ff5a5a"/><path d="M177.310617,403.340337h0c2.701669,1.388493,6.017385.323959,7.405878-2.37771l6.59943-12.840881-12.840881-6.59943c-2.701669-1.388493-6.017385-.323959-7.405878,2.37771h0c-3.644764,7.091822-.850371,15.795547,6.241451,19.440311Z" fill="#ff464b"/><path d="M195.537645,367.874987h0c2.701669,1.388493,3.766204,4.704208,2.37771,7.405878l-6.59943,12.840881-12.840881-6.59943c-2.701669-1.388493-3.766204-4.704208-2.37771-7.405878h0c3.644765-7.091823,12.348489-9.886216,19.440311-6.241451Z" fill="#ff5a5a"/><path d="M205.321233,372.903154h0c-2.70167-1.388494-6.017384-.32396-7.405878,2.37771l-6.59943,12.840881,12.840881,6.59943c2.70167,1.388494,6.017384.32396,7.405878-2.37771h0c3.644765-7.091823.850372-15.795546-6.241451-19.440311Z" fill="#ff464b"/><path d="M195.087033,380.784089c4.05254,2.082758,5.649307,7.056224,3.566548,11.108764l-7.337656-3.771108,3.771108-7.337656Z" fill="#ff8c4e"/><path d="M183.978269,384.350638c2.082758-4.05254,7.056224-5.649307,11.108764-3.566548l-3.771108,7.337656-7.337656-3.771108Z" fill="#ffa555"/><path d="M187.544817,395.459402c-4.05254-2.082758-5.649307-7.056224-3.566548-11.108764l7.337656,3.771108-3.771108,7.337656Z" fill="#ff8c4e"/><path d="M198.653582,391.892854c-2.082758,4.05254-7.056224,5.649307-11.108764,3.566548l3.771108-7.337656,7.337656,3.771108Z" fill="#ffa555"/><path d="M185.183649,375.204081c.342801-.162345.753706-.017626.91597.326184l3.626068,7.638532-1.498089-8.321736c-.067367-.373584.181013-.731301.554908-.79842.373059-.067198.730776.181181.79842.554908l2.395248,13.306219,5.79828,12.213708c.162968.343122.016726.753243-.326184.91597-.201201.095541-.425537.084798-.609721-.009861-.129254-.066429-.239029-.174509-.306249-.316323l-3.62607-7.638532,1.498088,8.321737c.067367.373584-.181013.731301-.554908.79842-.154334.02786-.306152.001586-.435683-.064985-.183907-.094517-.32323-.270673-.362667-.489887l-2.395247-13.306218-5.798107-12.213706c-.163246-.343091-.016968-.753282.325942-.916009Z" fill="#d7464b"/><path d="M177.797626,389.856604l13.306288-2.395211,12.213741-5.798176c.342979-.162691.7531-.016449.91597.326184.162968.343121.016726.753243-.326184.91597l-7.638532,3.62607,8.321736-1.498089c.374634-.067877.731534.181921.79842.554908.067366.373584-.181014.731301-.554908.79842l-13.306218,2.395247-12.213707,5.798107c-.201201.095541-.425537.084798-.609444-.009719-.129531-.066571-.239306-.174651-.306456-.316429-.162968-.343122-.016726-.753243.326184-.91597l7.638497-3.626001-8.321737,1.498088c-.154334.02786-.306152.001586-.435476-.064879-.184184-.094659-.323507-.270815-.362944-.490029-.067364-.373583.181015-.7313.55477-.79849Z" fill="#cd4146"/><path d="M185.8127,385.293424c.423138-.823323,1.323074-1.231112,2.189391-1.079218-.008394-.879519.540916-1.700781,1.422331-1.983766s1.806199.065067,2.311282.785062c.616097-.627832,1.585221-.820119,2.408543-.396981s1.231112,1.323074,1.079218,2.189391c.879519-.008394,1.700781.540916,1.983766,1.422331s-.065067,1.806199-.785026,2.311213c.627833.616096.820119,1.58522.396981,2.408543s-1.323074,1.231113-2.189321,1.079253c.008325.879484-.540984,1.700745-1.422399,1.983729s-1.806199-.065067-2.311213-.785026c-.616096.627834-1.585221.82012-2.408544.396982-.823323-.423138-1.231112-1.323074-1.079218-2.189391-.879519.008394-1.70078-.540916-1.983765-1.42233s.064995-1.806059.784992-2.311318c-.62787-.616025-.820155-1.585152-.397018-2.408474Z" fill="#91323c"/><path d="M189.430353,391.790609c2.023118,1.039759,4.51464.239897,5.554435-1.783291,1.039795-2.023188.239897-4.51464-1.783291-5.554435s-4.51464-.239897-5.554435,1.783291-.239827,4.514676,1.783291,5.554435ZM192.572949,385.675884c1.348653.693125,1.881964,2.354233,1.188838,3.702886s-2.354233,1.881964-3.702886,1.188838-1.881964-2.354233-1.188838-3.702886,2.354233-1.881964,3.702886-1.188838Z" fill="#af3a41"/><path d="M152.928383,360.548181s-.302411-2.926984-1.799197-3.346101c-1.053164-.289275-2.058251.677587-2.251038.471253-.395268-.425532-.223541-2.413149.645876-3.32009.60241-.626128,1.480376-.773851,1.480376-.773851,0,0-.560177-1.561486-1.145311-2.006036s-1.296108-.456311-1.293154-.946275c.019748-2.08338,1.827209-2.564471,2.933755-2.084449,2.470833,1.069108,3.035447,3.828849,3.035447,3.828849,0,0,.309352-.633862.64512-2.291001.334909-1.665333,1.134667-6.665104,1.733111-5.69491.682586,1.095919.975647,4.172773.886647,6.312459-.091275,2.157835-.277559,3.328877-.277559,3.328877,0,0,.972897-1.672775,2.507388-1.810408,1.873715-.167435,3.212549,2.490403,2.80158,5.063771-.154151.959672-.895568-.418891-2.485019-.128389-.553287.098627-1.352205,1.240194-1.352205,1.240194,0,0,.846147.903659,1.151691,3.820687.234308,2.236934-.546483,4.587856-1.371459,4.643592-.199263.010851-.205876-3.201091-1.256564-4.50307-.556434-.688696-1.387118-.647585-2.458835.520165-.404352.44435-1.85249,2.044114-1.85249,2.044114,0,0-.164765-2.250504-.278158-4.369383Z" fill="#738136"/><path d="M155.699446,361.072619c.118367,6.537405-.036735,13.602833-.681628,19.813368-.644895,6.218919-1.628562,14.767831-2.383659,26.501637-.567343,8.791971-.612241,16.360281-.453059,19.813368.228571,4.970105.946933,12.974233.946933,12.974233,0,0-.453059,2.019894-2.00407,1.944459-.987748-.050286-1.285707-1.475109-1.285707-1.475109,0,0-.795914-8.004134-.644895-21.137613.151019-13.133479,1.85305-29.217176,2.648963-35.746202.795912-6.529025,1.556499-15.599562.856618-24.701558l3.000504,2.013417Z" fill="#748138"/><path d="M156.052895,382.066784h0c-3.022484-.302533-5.227427-2.997978-4.924894-6.020462l1.437924-14.365691,14.365691,1.437924c3.022484.302533,5.227427,2.997978,4.924894,6.020462h0c-.794143,7.933952-7.869663,13.721911-15.803615,12.927767Z" fill="#ff5a5a"/><path d="M145.10754,380.971217h0c3.022483.302533,5.717928-1.902411,6.020462-4.924894l1.437924-14.365691-14.365691-1.437924c-3.022483-.302533-5.717928,1.902411-6.020462,4.924894h0c-.794143,7.933952,4.993815,15.009472,12.927767,15.803615Z" fill="#ff464b"/><path d="M149.078955,341.294479h0c3.022483.302533,5.227427,2.997977,4.924894,6.020462l-1.437924,14.365691-14.365691-1.437924c-3.022483-.302533-5.227427-2.997977-4.924894-6.020462h0c.794143-7.933952,7.869663-13.72191,15.803615-12.927767Z" fill="#ff5a5a"/><path d="M160.024311,342.390047h0c-3.022484-.302533-5.717928,1.90241-6.020462,4.924894l-1.437924,14.365691,14.365691,1.437924c3.022484.302533,5.717928-1.902409,6.020462-4.924894h0c.794143-7.933952-4.993815-15.009471-12.927767-15.803615Z" fill="#ff464b"/><path d="M153.387597,353.471654c4.533765.453804,7.84111,4.496884,7.387306,9.030649l-8.208977-.821672.821672-8.208977Z" fill="#ff8c4e"/><path d="M144.356948,360.85896c.453804-4.533765,4.496884-7.84111,9.030649-7.387306l-.821672,8.208977-8.208977-.821672Z" fill="#ffa555"/><path d="M151.744253,369.889609c-4.533765-.453804-7.84111-4.496884-7.387306-9.030649l8.208977.821672-.821672,8.208977Z" fill="#ff8c4e"/><path d="M160.774903,362.502304c-.453804,4.533765-4.496884,7.84111-9.030649,7.387306l.821672-8.208977,8.208977.821672Z" fill="#ffa555"/><path d="M142.128659,351.906465c.259524-.276615.69488-.292445.97179-.031953l6.171721,5.77974-4.441823-7.194843c-.19951-.322953-.099402-.746784.223931-.946177.322527-.199161.746357-.099053.946177.223931l7.102206,11.504405,9.868654,9.241449c.277313.259594.291438.694779.031953.97179-.15223.162592-.364912.234759-.570968.214134-.144603-.014474-.286334-.074839-.400823-.18218l-6.171722-5.77974,4.441823,7.194844c.19951.322953.099402.746784-.223931.946177-.133406.082449-.284299.113604-.429211.099099-.205745-.020594-.399905-.133483-.516888-.323022l-7.102205-11.504405-9.868492-9.24151c-.27756-.259463-.291677-.694727-.032193-.971737Z" fill="#d7464b"/><path d="M140.622308,368.246008l11.504483-7.102197,9.241518-9.86857c.259563-.277003.694748-.291128.97179-.031953.277313.259593.291438.694779.031953.97179l-5.77974,6.171723,7.194843-4.441823c.323743-.20037.747334-.098643.946177.223931.19951.322953.099402.746784-.223931.946177l-11.504405,7.102205-9.241512,9.868492c-.15223.162592-.364912.234759-.570657.214165-.144913-.014505-.286644-.07487-.401055-.182204-.277313-.259594-.291438-.694779-.031953-.97179l5.779732-6.171646-7.194844,4.441823c-.133406.082449-.284299.113604-.42898.099122-.206055-.020625-.400215-.133514-.517198-.323053-.199508-.322953-.0994-.746784.223777-.946193Z" fill="#cd4146"/><path d="M146.409212,361.06438c.092196-.921089.780249-1.630145,1.642003-1.806093-.329933-.815333-.119577-1.780716.596951-2.366855s1.704529-.600972,2.438215-.115991c.343346-.809853,1.174708-1.34372,2.095796-1.251524s1.630145.780249,1.806093,1.642003c.815333-.329933,1.780716-.119577,2.366855.596951s.600972,1.704529.115999,2.438138c.809853.343344,1.34372,1.174707,1.251524,2.095796s-.780249,1.630146-1.641925,1.8061c.329856.815325.119501,1.780707-.597028,2.366846s-1.704529.600972-2.438138.115999c-.343345.809855-1.174707,1.343721-2.095796,1.251525s-1.630145-.780249-1.806093-1.642003c-.815333.329933-1.780714.119577-2.366853-.596951s-.600988-1.704373-.116069-2.438223c-.809862-.343265-1.343729-1.17463-1.251533-2.095718Z" fill="#91323c"/><path d="M152.155085,365.78516c2.263356.226549,4.288811-1.430253,4.515368-3.693688.226557-2.263434-1.430253-4.288811-3.693688-4.515368s-4.288811,1.430253-4.515368,3.693688c-.226557,2.263434,1.430331,4.288819,3.693688,4.515368ZM152.839813,358.944332c1.508801.151022,2.613434,1.501387,2.462412,3.010188s-1.501387,2.613434-3.010188,2.462412c-1.508801-.151022-2.613434-1.501387-2.462412-3.010188s1.501387-2.613434,3.010188-2.462412Z" fill="#af3a41"/><path d="M122.143956,404.626989s-.145507-1.449856,1.218264-2.099589c.960406-.454555,2.061092-.311746,2.214178-.46611.313502-.317645-.144523-1.18749-1.107091-1.343769-.666615-.107226-1.52486.091307-1.52486.091307,0,0,.302322-.894792.793874-1.279013s1.167094-.605945,1.0917-.832347c-.327434-.960501-2.120511-.633885-3.103513-.074602-2.195376,1.247562-2.324421,2.69959-2.324421,2.69959,0,0-.38859-.199957-.953927-.866591-.565733-.670696-2.068233-2.746884-2.494599-2.114761-.487897.716043-.311281,2.232582.090464,3.198139.4066.973284.75753,1.459882.75753,1.459882,0,0-1.174591-.480083-2.656755-.077165-1.809729.492279-2.691401,2.132538-1.918702,3.201349.289008.398314.791077-.466747,2.348243-.815465.541679-.122547,1.471845.164023,1.471845.164023,0,0-.672187.676604-.531139,2.122795.108163,1.109017,1.200208,1.962137,1.994348,1.737049.191428-.055579-.278073-1.547654.529958-2.471262.428046-.488754,1.225457-.722363,2.419374-.506627.451015.083143,2.06751.384794,2.06751.384794,0,0-.17642-1.094159-.382281-2.111627Z" fill="none" stroke="#000" stroke-linecap="round" stroke-linejoin="round"/><path d="M119.581892,405.713197c.85566,3.068796,2.050047,6.299364,3.584378,8.984349,1.535574,2.688874,3.739021,6.355614,6.196521,11.569396,1.842856,3.906137,3.006757,7.403522,3.36664,9.053876.518506,2.375227,1.019875,6.306964,1.019875,6.306964,0,0,.730806.799243,2.197145.292454.933493-.323786,1.006267-1.075415,1.006267-1.075415,0,0-.427493-3.955331-2.516882-10.002192-2.089389-6.046861-6.093323-12.990575-7.818695-15.777374s-3.793581-6.763386-4.475187-11.198817l-2.560062,1.846757Z" fill="none" stroke="#000" stroke-linecap="round" stroke-linejoin="round"/><path d="M93.930566,388.128137h0c.25892,3.026533,2.92229,5.270113,5.948821,5.011193l14.384932-1.230629-1.230629-14.384932c-.25892-3.026532-2.92229-5.270113-5.948821-5.011193h0c-7.944578.679658-13.83396,7.670982-13.154302,15.615561Z" fill="none" stroke="#000" stroke-linecap="round" stroke-linejoin="round"/><path d="M94.868194,399.088152h0c-.258919-3.026531,1.984662-5.689902,5.011193-5.948821l14.384932-1.230629,1.230629,14.384932c.258919,3.026531-1.984662,5.689902-5.011193,5.948821h0c-7.944578.679658-14.935903-5.209724-15.615561-13.154302Z" fill="none" stroke="#000" stroke-linecap="round" stroke-linejoin="round"/><path d="M134.598072,395.689265h0c-.258919-3.026531-2.922289-5.270113-5.948821-5.011193l-14.384932,1.230629,1.230629,14.384932c.258919,3.026531,2.922289,5.270113,5.948821,5.011193h0c7.944579-.679658,13.83396-7.670983,13.154302-15.615561Z" fill="none" stroke="#000" stroke-linecap="round" stroke-linejoin="round"/><path d="M133.660444,384.72925h0c.25892,3.026533-1.984661,5.689902-5.011193,5.948821l-14.384932,1.230629-1.230629-14.384932c-.25892-3.026532,1.984661-5.689902,5.011193-5.948821h0c7.944579-.679658,14.935903,5.209724,15.615561,13.154302Z" fill="none" stroke="#000" stroke-linecap="round" stroke-linejoin="round"/><path d="M122.484291,391.205483c-.388383-4.539837-4.383352-7.905137-8.92319-7.516754l.703218,8.219972,8.219972-.703218Z" fill="none" stroke="#000" stroke-linecap="round" stroke-linejoin="round"/><path d="M114.967536,400.128673c4.539837-.388383,7.905137-4.383352,7.516754-8.92319l-8.219972.703218.703218,8.219972Z" fill="none" stroke="#000" stroke-linecap="round" stroke-linejoin="round"/><path d="M106.044347,392.611919c.388383,4.539837,4.383352,7.905137,8.92319,7.516754l-.703218-8.219972-8.219972.703218Z" fill="none" stroke="#000" stroke-linecap="round" stroke-linejoin="round"/><path d="M113.561101,383.688729c-4.539837.388383-7.905137,4.383352-7.516754,8.92319l8.219972-.703218-.703218-8.219972Z" fill="none" stroke="#000" stroke-linecap="round" stroke-linejoin="round"/><path d="M123.88697,402.48582c.280328-.255508.302435-.690591.045963-.971228l-5.690146-6.25442,7.130046,4.545107c.320043.204147.745273.11016.949308-.210264.203791-.319621.109805-.744851-.210264-.949308l-11.4008-7.267355-9.098188-10.000885c-.255568-.281027-.690505-.301426-.971228-.045963-.164771.149869-.239996.361489-.222344.567821.012387.144797.070703.287384.176382.403408l5.690146,6.254421-7.130047-4.545106c-.320043-.204147-.745273-.11016-.949308.210264-.084364.132204-.117691.282631-.105277.427738.017625.206021.127702.401788.315535.521492l11.400799,7.267354,9.098252,10.000724c.255434.281272.690449.301664.971172.046201Z" fill="none" stroke="#000" stroke-linecap="round" stroke-linejoin="round"/><path d="M107.527405,403.756407l7.267347-11.400878,10.000801-9.098258c.280717-.255541.301116-.690478.045963-.971228-.255567-.281027-.690505-.301426-.971228-.045963l-6.254422,5.690146,4.545107-7.130046c.205017-.320821.109409-.745833-.210264-.949308-.320043-.204146-.745273-.11016-.949308.210264l-7.267354,11.400799-10.000724,9.098253c-.164771.149869-.239996.361489-.222371.56751.012414.145107.070729.287694.176402.40364.255568.281027.690505.301426.971228.045963l6.254344-5.69014-4.545106,7.130047c-.084364.132204-.117691.282631-.105297.427506.017652.206331.127729.402098.315561.521802.320043.204144.745273.110158.949321-.21011Z" fill="none" stroke="#000" stroke-linecap="round" stroke-linejoin="round"/><path d="M114.79173,398.073661c.922323-.078905,1.641226-.756662,1.829582-1.61579.810491.341656,1.778806.145242,2.375216-.562761s.625488-1.695686.151137-2.436289c.81472-.331632,1.360519-1.15521,1.281614-2.077532s-.756662-1.641226-1.61579-1.829582c.341656-.810491.145242-1.778806-.562761-2.375216s-1.695686-.625488-2.436212-.151143c-.331631-.81472-1.155209-1.360519-2.077532-1.281614s-1.641227.756663-1.829587,1.615711c-.810484-.341579-1.778798-.145165-2.375209.562837s-.625488,1.695686-.151143,2.436212c-.814721.331631-1.36052,1.155209-1.281615,2.077532s.756662,1.641226,1.61579,1.829582c-.341656.810491-.145242,1.778805.56276,2.375215s1.69553.625502,2.436296.151215c.331552.814728,1.155132,1.360526,2.077454,1.281622Z" fill="none" stroke="#000" stroke-linecap="round" stroke-linejoin="round"/><path d="M110.154294,392.260313c-.193889-2.266388,1.491947-4.267741,3.758413-4.461637,2.266466-.193896,4.267741,1.491947,4.461637,3.758413.193896,2.266466-1.491947,4.267741-3.758413,4.461637-2.266466.193896-4.267748-1.492025-4.461637-3.758413ZM117.004283,391.674298c-.129251-1.510822-1.463546-2.634812-2.974368-2.505561-1.510822.129251-2.634812,1.463546-2.505561,2.974368s1.463546,2.634812,2.974368,2.505561,2.634812-1.463546,2.505561-2.974368Z" fill="none" stroke="#000" stroke-linecap="round" stroke-linejoin="round"/><path d="M187.678383,402.634217s-.302411-1.425413-1.799197-1.629519c-1.053164-.140874-2.058251.329978-2.251038.229496-.395268-.20723-.223541-1.175181.645876-1.616852.60241-.304918,1.480376-.376858,1.480376-.376858,0,0-.560177-.760429-1.145311-.97692s-1.296108-.222219-1.293154-.460827c.019748-1.014586,1.827209-1.248873,2.933755-1.015107,2.470833.520645,3.035447,1.864613,3.035447,1.864613,0,0,.309352-.308685.64512-1.115696.334909-.811001,1.134667-3.245842,1.733111-2.773367.682586.533702.975647,2.032101.886647,3.074107-.091275,1.050845-.277559,1.621132-.277559,1.621132,0,0,.972897-.814626,2.507388-.881651,1.873715-.081539,3.212549,1.212802,2.80158,2.466008-.154151.467351-.895568-.203996-2.485019-.062524-.553287.04803-1.352205.603963-1.352205.603963,0,0,.846147.440073,1.151691,1.860638.234308,1.089366-.546483,2.234242-1.371459,2.261385-.199263.005284-.205876-1.558901-1.256564-2.192952-.556434-.335389-1.387118-.315368-2.458835.253316-.404352.216394-1.85249.995464-1.85249.995464,0,0-.164765-1.095974-.278158-2.127848Z" fill="none" stroke="#000" stroke-linecap="round" stroke-linejoin="round"/><path d="M190.449446,402.889614c.118367,3.183654-.036735,6.62445-.681628,9.648921-.644895,3.028554-1.628562,7.191793-2.383659,12.906044-.567343,4.281606-.612241,7.967301-.453059,9.648921.228571,2.420394.946933,6.318328.946933,6.318328,0,0-.453059.983669-2.00407.946933-.987748-.024489-1.285707-.718364-1.285707-.718364,0,0-.795914-3.897937-.644895-10.293816.151019-6.395879,1.85305-14.228486,2.648963-17.408059s1.556499-7.596838.856618-12.029423l3.000504.980515Z" fill="none" stroke="#000" stroke-linecap="round" stroke-linejoin="round"/><path d="M187.094206,408.368505h0c-2.70167-1.388494-3.766204-4.704209-2.37771-7.405878l6.59943-12.840881,12.840881,6.59943c2.70167,1.388494,3.766204,4.704209,2.37771,7.405878h0c-3.644764,7.091822-12.348488,9.886216-19.440311,6.241451Z" fill="none" stroke="#000" stroke-linecap="round" stroke-linejoin="round"/><path d="M177.310617,403.340337h0c2.701669,1.388493,6.017385.323959,7.405878-2.37771l6.59943-12.840881-12.840881-6.59943c-2.701669-1.388493-6.017385-.323959-7.405878,2.37771h0c-3.644764,7.091822-.850371,15.795547,6.241451,19.440311Z" fill="none" stroke="#000" stroke-linecap="round" stroke-linejoin="round"/><path d="M195.537645,367.874987h0c2.701669,1.388493,3.766204,4.704208,2.37771,7.405878l-6.59943,12.840881-12.840881-6.59943c-2.701669-1.388493-3.766204-4.704208-2.37771-7.405878h0c3.644765-7.091823,12.348489-9.886216,19.440311-6.241451Z" fill="none" stroke="#000" stroke-linecap="round" stroke-linejoin="round"/><path d="M205.321233,372.903154h0c-2.70167-1.388494-6.017384-.32396-7.405878,2.37771l-6.59943,12.840881,12.840881,6.59943c2.70167,1.388494,6.017384.32396,7.405878-2.37771h0c3.644765-7.091823.850372-15.795546-6.241451-19.440311Z" fill="none" stroke="#000" stroke-linecap="round" stroke-linejoin="round"/><path d="M195.087033,380.784089c4.05254,2.082758,5.649307,7.056224,3.566548,11.108764l-7.337656-3.771108,3.771108-7.337656Z" fill="none" stroke="#000" stroke-linecap="round" stroke-linejoin="round"/><path d="M183.978269,384.350638c2.082758-4.05254,7.056224-5.649307,11.108764-3.566548l-3.771108,7.337656-7.337656-3.771108Z" fill="none" stroke="#000" stroke-linecap="round" stroke-linejoin="round"/><path d="M187.544817,395.459402c-4.05254-2.082758-5.649307-7.056224-3.566548-11.108764l7.337656,3.771108-3.771108,7.337656Z" fill="none" stroke="#000" stroke-linecap="round" stroke-linejoin="round"/><path d="M198.653582,391.892854c-2.082758,4.05254-7.056224,5.649307-11.108764,3.566548l3.771108-7.337656,7.337656,3.771108Z" fill="none" stroke="#000" stroke-linecap="round" stroke-linejoin="round"/><path d="M185.183649,375.204081c.342801-.162345.753706-.017626.91597.326184l3.626068,7.638532-1.498089-8.321736c-.067367-.373584.181013-.731301.554908-.79842.373059-.067198.730776.181181.79842.554908l2.395248,13.306219,5.79828,12.213708c.162968.343122.016726.753243-.326184.91597-.201201.095541-.425537.084798-.609721-.009861-.129254-.066429-.239029-.174509-.306249-.316323l-3.62607-7.638532,1.498088,8.321737c.067367.373584-.181013.731301-.554908.79842-.154334.02786-.306152.001586-.435683-.064985-.183907-.094517-.32323-.270673-.362667-.489887l-2.395247-13.306218-5.798107-12.213706c-.163246-.343091-.016968-.753282.325942-.916009Z" fill="none" stroke="#000" stroke-linecap="round" stroke-linejoin="round"/><path d="M177.797626,389.856604l13.306288-2.395211,12.213741-5.798176c.342979-.162691.7531-.016449.91597.326184.162968.343121.016726.753243-.326184.91597l-7.638532,3.62607,8.321736-1.498089c.374634-.067877.731534.181921.79842.554908.067366.373584-.181014.731301-.554908.79842l-13.306218,2.395247-12.213707,5.798107c-.201201.095541-.425537.084798-.609444-.009719-.129531-.066571-.239306-.174651-.306456-.316429-.162968-.343122-.016726-.753243.326184-.91597l7.638497-3.626001-8.321737,1.498088c-.154334.02786-.306152.001586-.435476-.064879-.184184-.094659-.323507-.270815-.362944-.490029-.067364-.373583.181015-.7313.55477-.79849Z" fill="none" stroke="#000" stroke-linecap="round" stroke-linejoin="round"/><path d="M185.8127,385.293424c.423138-.823323,1.323074-1.231112,2.189391-1.079218-.008394-.879519.540916-1.700781,1.422331-1.983766s1.806199.065067,2.311282.785062c.616097-.627832,1.585221-.820119,2.408543-.396981s1.231112,1.323074,1.079218,2.189391c.879519-.008394,1.700781.540916,1.983766,1.422331s-.065067,1.806199-.785026,2.311213c.627833.616096.820119,1.58522.396981,2.408543s-1.323074,1.231113-2.189321,1.079253c.008325.879484-.540984,1.700745-1.422399,1.983729s-1.806199-.065067-2.311213-.785026c-.616096.627834-1.585221.82012-2.408544.396982-.823323-.423138-1.231112-1.323074-1.079218-2.189391-.879519.008394-1.70078-.540916-1.983765-1.42233s.064995-1.806059.784992-2.311318c-.62787-.616025-.820155-1.585152-.397018-2.408474Z" fill="none" stroke="#000" stroke-linecap="round" stroke-linejoin="round"/><path d="M189.430353,391.790609c2.023118,1.039759,4.51464.239897,5.554435-1.783291,1.039795-2.023188.239897-4.51464-1.783291-5.554435s-4.51464-.239897-5.554435,1.783291-.239827,4.514676,1.783291,5.554435ZM192.572949,385.675884c1.348653.693125,1.881964,2.354233,1.188838,3.702886s-2.354233,1.881964-3.702886,1.188838-1.881964-2.354233-1.188838-3.702886,2.354233-1.881964,3.702886-1.188838Z" fill="none" stroke="#000" stroke-linecap="round" stroke-linejoin="round"/><path d="M152.928383,360.548181s-.302411-2.926984-1.799197-3.346101c-1.053164-.289275-2.058251.677587-2.251038.471253-.395268-.425532-.223541-2.413149.645876-3.32009.60241-.626128,1.480376-.773851,1.480376-.773851,0,0-.560177-1.561486-1.145311-2.006036s-1.296108-.456311-1.293154-.946275c.019748-2.08338,1.827209-2.564471,2.933755-2.084449,2.470833,1.069108,3.035447,3.828849,3.035447,3.828849,0,0,.309352-.633862.64512-2.291001.334909-1.665333,1.134667-6.665104,1.733111-5.69491.682586,1.095919.975647,4.172773.886647,6.312459-.091275,2.157835-.277559,3.328877-.277559,3.328877,0,0,.972897-1.672775,2.507388-1.810408,1.873715-.167435,3.212549,2.490403,2.80158,5.063771-.154151.959672-.895568-.418891-2.485019-.128389-.553287.098627-1.352205,1.240194-1.352205,1.240194,0,0,.846147.903659,1.151691,3.820687.234308,2.236934-.546483,4.587856-1.371459,4.643592-.199263.010851-.205876-3.201091-1.256564-4.50307-.556434-.688696-1.387118-.647585-2.458835.520165-.404352.44435-1.85249,2.044114-1.85249,2.044114,0,0-.164765-2.250504-.278158-4.369383Z" fill="none" stroke="#000" stroke-linecap="round" stroke-linejoin="round"/><path d="M155.699446,361.072619c.118367,6.537405-.036735,13.602833-.681628,19.813368-.644895,6.218919-1.628562,14.767831-2.383659,26.501637-.567343,8.791971-.612241,16.360281-.453059,19.813368.228571,4.970105.946933,12.974233.946933,12.974233,0,0-.453059,2.019894-2.00407,1.944459-.987748-.050286-1.285707-1.475109-1.285707-1.475109,0,0-.795914-8.004134-.644895-21.137613.151019-13.133479,1.85305-29.217176,2.648963-35.746202.795912-6.529025,1.556499-15.599562.856618-24.701558l3.000504,2.013417Z" fill="none" stroke="#000" stroke-linecap="round" stroke-linejoin="round"/><path d="M156.052895,382.066784h0c-3.022484-.302533-5.227427-2.997978-4.924894-6.020462l1.437924-14.365691,14.365691,1.437924c3.022484.302533,5.227427,2.997978,4.924894,6.020462h0c-.794143,7.933952-7.869663,13.721911-15.803615,12.927767Z" fill="none" stroke="#000" stroke-linecap="round" stroke-linejoin="round"/><path d="M145.10754,380.971217h0c3.022483.302533,5.717928-1.902411,6.020462-4.924894l1.437924-14.365691-14.365691-1.437924c-3.022483-.302533-5.717928,1.902411-6.020462,4.924894h0c-.794143,7.933952,4.993815,15.009472,12.927767,15.803615Z" fill="none" stroke="#000" stroke-linecap="round" stroke-linejoin="round"/><path d="M149.078955,341.294479h0c3.022483.302533,5.227427,2.997977,4.924894,6.020462l-1.437924,14.365691-14.365691-1.437924c-3.022483-.302533-5.227427-2.997977-4.924894-6.020462h0c.794143-7.933952,7.869663-13.72191,15.803615-12.927767Z" fill="none" stroke="#000" stroke-linecap="round" stroke-linejoin="round"/><path d="M160.024311,342.390047h0c-3.022484-.302533-5.717928,1.90241-6.020462,4.924894l-1.437924,14.365691,14.365691,1.437924c3.022484.302533,5.717928-1.902409,6.020462-4.924894h0c.794143-7.933952-4.993815-15.009471-12.927767-15.803615Z" fill="none" stroke="#000" stroke-linecap="round" stroke-linejoin="round"/><path d="M153.387597,353.471654c4.533765.453804,7.84111,4.496884,7.387306,9.030649l-8.208977-.821672.821672-8.208977Z" fill="none" stroke="#000" stroke-linecap="round" stroke-linejoin="round"/><path d="M144.356948,360.85896c.453804-4.533765,4.496884-7.84111,9.030649-7.387306l-.821672,8.208977-8.208977-.821672Z" fill="none" stroke="#000" stroke-linecap="round" stroke-linejoin="round"/><path d="M151.744253,369.889609c-4.533765-.453804-7.84111-4.496884-7.387306-9.030649l8.208977.821672-.821672,8.208977Z" fill="none" stroke="#000" stroke-linecap="round" stroke-linejoin="round"/><path d="M160.774903,362.502304c-.453804,4.533765-4.496884,7.84111-9.030649,7.387306l.821672-8.208977,8.208977.821672Z" fill="none" stroke="#000" stroke-linecap="round" stroke-linejoin="round"/><path d="M142.128659,351.906465c.259524-.276615.69488-.292445.97179-.031953l6.171721,5.77974-4.441823-7.194843c-.19951-.322953-.099402-.746784.223931-.946177.322527-.199161.746357-.099053.946177.223931l7.102206,11.504405,9.868654,9.241449c.277313.259594.291438.694779.031953.97179-.15223.162592-.364912.234759-.570968.214134-.144603-.014474-.286334-.074839-.400823-.18218l-6.171722-5.77974,4.441823,7.194844c.19951.322953.099402.746784-.223931.946177-.133406.082449-.284299.113604-.429211.099099-.205745-.020594-.399905-.133483-.516888-.323022l-7.102205-11.504405-9.868492-9.24151c-.27756-.259463-.291677-.694727-.032193-.971737Z" fill="none" stroke="#000" stroke-linecap="round" stroke-linejoin="round"/><path d="M140.622308,368.246008l11.504483-7.102197,9.241518-9.86857c.259563-.277003.694748-.291128.97179-.031953.277313.259593.291438.694779.031953.97179l-5.77974,6.171723,7.194843-4.441823c.323743-.20037.747334-.098643.946177.223931.19951.322953.099402.746784-.223931.946177l-11.504405,7.102205-9.241512,9.868492c-.15223.162592-.364912.234759-.570657.214165-.144913-.014505-.286644-.07487-.401055-.182204-.277313-.259594-.291438-.694779-.031953-.97179l5.779732-6.171646-7.194844,4.441823c-.133406.082449-.284299.113604-.42898.099122-.206055-.020625-.400215-.133514-.517198-.323053-.199508-.322953-.0994-.746784.223777-.946193Z" fill="none" stroke="#000" stroke-linecap="round" stroke-linejoin="round"/><path d="M146.409212,361.06438c.092196-.921089.780249-1.630145,1.642003-1.806093-.329933-.815333-.119577-1.780716.596951-2.366855s1.704529-.600972,2.438215-.115991c.343346-.809853,1.174708-1.34372,2.095796-1.251524s1.630145.780249,1.806093,1.642003c.815333-.329933,1.780716-.119577,2.366855.596951s.600972,1.704529.115999,2.438138c.809853.343344,1.34372,1.174707,1.251524,2.095796s-.780249,1.630146-1.641925,1.8061c.329856.815325.119501,1.780707-.597028,2.366846s-1.704529.600972-2.438138.115999c-.343345.809855-1.174707,1.343721-2.095796,1.251525s-1.630145-.780249-1.806093-1.642003c-.815333.329933-1.780714.119577-2.366853-.596951s-.600988-1.704373-.116069-2.438223c-.809862-.343265-1.343729-1.17463-1.251533-2.095718Z" fill="none" stroke="#000" stroke-linecap="round" stroke-linejoin="round"/><path d="M152.155085,365.78516c2.263356.226549,4.288811-1.430253,4.515368-3.693688.226557-2.263434-1.430253-4.288811-3.693688-4.515368s-4.288811,1.430253-4.515368,3.693688c-.226557,2.263434,1.430331,4.288819,3.693688,4.515368ZM152.839813,358.944332c1.508801.151022,2.613434,1.501387,2.462412,3.010188s-1.501387,2.613434-3.010188,2.462412c-1.508801-.151022-2.613434-1.501387-2.462412-3.010188s1.501387-2.613434,3.010188-2.462412Z" fill="none" stroke="#000" stroke-linecap="round" stroke-linejoin="round"/><text transform="translate(95.713989 77.680542)" fill="#333" font-family="ComicNeue-Regular, &apos;Comic Neue&apos;" font-size="24"><tspan x="0" y="0">At a cost no one could forget.</tspan></text></svg>