<?xml version="1.0" encoding="UTF-8"?><svg id="uuid-a970162f-7c2c-4fd6-bb45-ddcce98bf282" xmlns="http://www.w3.org/2000/svg" viewBox="0 0 500 500"><path d="M174.08,139.12c3.37-8.47,9.52-14.96,16.99-17.68,2.49-.89,25.53-1.39,25.53-1.39,0,0,2.67,7.77,7.17,19.07,1.45,3.64,3.7,6.22,8.47,6.9,1.57.22,2.76,1.63,2.76,3.36v93.62h-76v-93.5c0-1.81,1.3-3.27,2.95-3.37,8.22-.5,10.6-3.15,12.13-7.01Z" fill="#8f8f8f"/><path d="M191.08,139.12c4.5-11.29,13.94-19.07,24.84-19.07s20.35,7.77,24.84,19.07c1.45,3.64,3.7,6.22,8.47,6.9,1.57.22,2.76,1.63,2.76,3.36v93.62h-76v-93.5c0-1.81,1.3-3.27,2.95-3.37,8.21-.5,10.6-3.15,12.13-7.01Z" fill="#b0b0b0"/><path d="M176.1,153.63c.53,7.12.8,14.23.98,21.35.2,7.12.26,14.23.29,21.35-.02,7.12-.07,14.23-.27,21.35-.18,7.12-.46,14.23-.97,21.35-.53-7.12-.8-14.23-.99-21.35-.2-7.12-.26-14.23-.28-21.35.02-7.12.08-14.23.27-21.35.18-7.13.46-14.24.97-21.35Z" fill="#bdbdbd"/><path d="M216.17,120.14c-3.81.97-7.26,2.61-10.37,4.76-3.11,2.12-5.91,4.71-8.27,7.6-.59.73-1.08,1.46-1.6,2.28l-1.54,2.45c-1.02,1.65-2.04,3.32-3.21,4.94-.31.41-.56.79-.95,1.23-.38.41-.79.77-1.24,1.07-.88.61-1.83,1.05-2.81,1.34-1.97.58-4.01.65-5.94.34,1.95-.19,3.85-.6,5.53-1.42.83-.41,1.62-.88,2.27-1.49.67-.59,1.08-1.25,1.59-2.1.96-1.64,1.87-3.36,2.81-5.06.95-1.7,1.88-3.45,3.15-5.09,2.48-3.23,5.61-5.85,9.1-7.85,3.52-1.95,7.52-3.18,11.47-2.98Z" fill="#e0e0e0"/><g opacity=".55"><path d="M237.44,161.89c-1.23.06-2.6-.18-3.62-.22-1.02-.04-2.02.18-3.04.19-1.95.01-3.84-.82-5.8-.84-2.55-.03-5,1.3-7.55,1.07-1.41-.12-2.76-.71-4.18-.73-1.39-.01-2.73.54-4.12.61-2.33.13-4.64-1.09-6.95-.78-1.18.16-2.29.71-3.45.97-2.09.46-4.77-.71-4.77-3.13,0-1.68,1.36-3.04,3.04-3.04,1.25,0,2.48.11,3.73,0,1.65-.15,3.31-.47,4.97-.3,1.3.13,2.57.56,3.86.41.83-.1,1.61-.42,2.42-.64,1.27-.35,2.64-.39,3.93-.16,1.2.22,2.35.69,3.55.74,1.63.07,3.22-.64,4.85-.63,1.33.01,2.61.5,3.94.56,1.23.06,2.45-.26,3.68-.4,2.58-.31,8.56-.31,8.56,3.46,0,2.19-1.41,2.77-3.06,2.84Z" fill="#777"/></g><g opacity=".55"><path d="M211.23,190.39c-1.26-.01-2.68-.4-3.91-.23-.75.1-1.47.3-2.21.4-.69.09-1.4.09-2.1.09-2.64,0-8.86.99-8.86-3.23,0-1.23.8-2.47,2-2.86,1.36-.45,3.45.3,4.87.5.68.1,1.36.2,2.06.2,2.75.01,11.2-3.18,11.2,2.14,0,1.18-.82,2.58-2.03,2.87-.34.09-.67.12-1.02.11Z" fill="#777"/><path d="M237.27,190.45c-.96-.01-1.88-.41-2.87-.44-.88-.02-1.71.41-2.57.64-2.17.55-4.47-.31-6.67.08-1.44.26-2.14.39-3.27-.53-.94-.76-1.7-1.45-1.7-2.76,0-1.41.97-2.63,2.32-2.96,1.79-.46,2.6.42,4.27.78.93.2,1.87-.19,2.78-.42,1.23-.31,2.52-.36,3.78-.12.41.08.83.19,1.25.22,1.47.11,2.63-.93,4.03-.23,1.03.51,1.7,1.59,1.7,2.73,0,1.27-.85,2.5-2.08,2.88-.35.1-.66.13-.97.13Z" fill="#777"/></g><g opacity=".55"><path d="M230.47,176.16c-1.81.09-4.01-.49-5.32-.55-1.58-.07-3.12.49-4.69.67-2.5.27-5-.45-7.53-.45-2.95.01-12,2.79-12-2.6,0-3.37,3.07-2.67,5.24-2.27,2.16.4,4.35-.68,6.52-.48,1.17.11,2.28.58,3.45.7,2.14.21,4.24-.78,6.39-.74.67.01,1.33.13,2,.18,1.06.08,2.12-.02,3.16-.2.89-.15,1.94-.61,2.85-.48,1.55.22,2.94,1.71,2.94,3.27.03,2.21-1.33,2.86-3.02,2.94Z" fill="#777"/></g><path d="M238.61,184.7c-1.41-.69-2.57.35-4.03.23-.42-.03-.84-.15-1.25-.22-1.25-.23-2.55-.19-3.78.12-.92.23-1.85.63-2.78.42-1.66-.36-2.48-1.24-4.27-.78-1.01.26-1.8.99-2.14,1.93.31-.22.66-.4,1.04-.49,1.79-.46,2.6.42,4.27.78.93.2,1.87-.19,2.78-.42,1.23-.31,2.52-.36,3.78-.12.41.08.83.19,1.25.22,1.47.11,2.63-.93,4.03-.23,1.03.51,1.7,1.59,1.7,2.73,0,.36-.08.71-.2,1.05.79-.56,1.31-1.51,1.31-2.49,0-1.15-.67-2.22-1.7-2.73Z" fill="#777"/><path d="M203.07,185.28c-.69,0-1.37-.1-2.06-.2-1.42-.2-3.5-.95-4.87-.5-.85.28-1.49.98-1.8,1.8.21-.15.44-.28.69-.36,1.36-.45,3.45.3,4.87.5.68.1,1.36.2,2.06.2,2.75.01,11.2-3.18,11.2,2.14,0,.36-.08.74-.22,1.11.82-.56,1.33-1.61,1.33-2.55,0-5.33-8.46-2.13-11.2-2.14Z" fill="#777"/><path d="M230.57,169.96c-.9-.13-1.97.34-2.85.48-1.05.18-2.11.27-3.16.2-.67-.04-1.33-.17-2-.18-2.16-.04-4.26.95-6.39.74-1.17-.12-2.28-.59-3.45-.7-2.18-.2-4.38.88-6.52.48-1.94-.37-4.61-.96-5.14,1.35,1.09-.5,2.73-.16,4.03.09,2.16.4,4.35-.68,6.52-.48,1.17.11,2.28.58,3.45.7,2.14.21,4.24-.78,6.39-.74.67.01,1.33.13,2,.18,1.06.08,2.12-.02,3.16-.2.89-.15,1.94-.61,2.85-.48,1.55.22,2.94,1.71,2.94,3.27,0,.4-.06.75-.15,1.05.76-.41,1.25-1.17,1.25-2.49.01-1.56-1.39-3.05-2.94-3.27Z" fill="#777"/><path d="M231.94,155.59c-1.23.15-2.45.46-3.68.4-1.33-.06-2.61-.55-3.94-.56-1.63-.01-3.22.69-4.85.63-1.21-.04-2.37-.51-3.55-.74-1.31-.25-2.66-.19-3.93.16-.8.21-1.59.55-2.42.64-1.3.15-2.57-.28-3.86-.41-1.66-.17-3.32.16-4.97.3-1.25.11-2.48,0-3.73,0s-2.42.84-2.85,2c.49-.35,1.09-.56,1.74-.56,1.25,0,2.48.11,3.73,0,1.65-.15,3.31-.47,4.97-.3,1.3.13,2.57.56,3.86.41.83-.1,1.61-.42,2.42-.64,1.28-.35,2.64-.39,3.93-.16,1.2.22,2.35.69,3.55.74,1.63.07,3.22-.64,4.85-.63,1.33.01,2.61.5,3.94.56,1.23.06,2.45-.26,3.68-.4,2.58-.31,8.56-.31,8.56,3.46,0,.38-.06.68-.13.97.74-.4,1.23-1.12,1.23-2.41.01-3.78-5.96-3.78-8.55-3.46Z" fill="#777"/><path d="M238.71,254h-83.42c-1.26,0-2.29-1.03-2.29-2.29v-14.42c0-1.26,1.03-2.29,2.29-2.29h83.42c1.26,0,2.29,1.03,2.29,2.29v14.42c0,1.26-1.03,2.29-2.29,2.29Z" fill="#8f8f8f"/><path d="M256.93,254h-83.87c-1.14,0-2.07-.93-2.07-2.07v-14.87c0-1.14.93-2.07,2.07-2.07h83.87c1.14,0,2.07.93,2.07,2.07v14.87c0,1.14-.93,2.07-2.07,2.07Z" fill="#b0b0b0"/><path d="M170.53,237.16c-.08-.95.5-1.95,1.45-2.36.47-.22,1.02-.21,1.46-.23l1.42-.08,5.66-.27c3.78-.15,7.55-.28,11.33-.37,7.55-.2,15.1-.26,22.66-.28,7.55.02,15.1.08,22.66.28,3.78.09,7.55.22,11.33.37l5.66.27,1.42.08c.45.03.99.01,1.46.23.95.41,1.53,1.41,1.45,2.36-.06-.96-.75-1.78-1.59-2.01-.41-.15-.85-.08-1.33-.06l-1.42.08-5.66.27c-3.78.15-7.55.28-11.33.37-7.55.2-15.1.26-22.66.28-7.55-.02-15.1-.08-22.66-.28-3.78-.09-7.55-.22-11.33-.37l-5.66-.27-1.42-.08c-.49-.02-.92-.09-1.33.06-.84.23-1.53,1.05-1.59,2.01Z" fill="#e0e0e0"/><path d="M174.08,139.12c3.37-8.47,9.52-14.96,16.99-17.68,2.49-.89,25.53-1.39,25.53-1.39,0,0,2.67,7.77,7.17,19.07,1.45,3.64,3.7,6.22,8.47,6.9,1.57.22,2.76,1.63,2.76,3.36v93.62h-76v-93.5c0-1.81,1.3-3.27,2.95-3.37,8.22-.5,10.6-3.15,12.13-7.01Z" fill="none" stroke="#000" stroke-linecap="round" stroke-linejoin="round"/><path d="M191.08,139.12c4.5-11.29,13.94-19.07,24.84-19.07s20.35,7.77,24.84,19.07c1.45,3.64,3.7,6.22,8.47,6.9,1.57.22,2.76,1.63,2.76,3.36v93.62h-76v-93.5c0-1.81,1.3-3.27,2.95-3.37,8.21-.5,10.6-3.15,12.13-7.01Z" fill="none" stroke="#000" stroke-linecap="round" stroke-linejoin="round"/><path d="M176.1,153.63c.53,7.12.8,14.23.98,21.35.2,7.12.26,14.23.29,21.35-.02,7.12-.07,14.23-.27,21.35-.18,7.12-.46,14.23-.97,21.35-.53-7.12-.8-14.23-.99-21.35-.2-7.12-.26-14.23-.28-21.35.02-7.12.08-14.23.27-21.35.18-7.13.46-14.24.97-21.35Z" fill="none" stroke="#000" stroke-linecap="round" stroke-linejoin="round"/><path d="M216.17,120.14c-3.81.97-7.26,2.61-10.37,4.76-3.11,2.12-5.91,4.71-8.27,7.6-.59.73-1.08,1.46-1.6,2.28l-1.54,2.45c-1.02,1.65-2.04,3.32-3.21,4.94-.31.41-.56.79-.95,1.23-.38.41-.79.77-1.24,1.07-.88.61-1.83,1.05-2.81,1.34-1.97.58-4.01.65-5.94.34,1.95-.19,3.85-.6,5.53-1.42.83-.41,1.62-.88,2.27-1.49.67-.59,1.08-1.25,1.59-2.1.96-1.64,1.87-3.36,2.81-5.06.95-1.7,1.88-3.45,3.15-5.09,2.48-3.23,5.61-5.85,9.1-7.85,3.52-1.95,7.52-3.18,11.47-2.98Z" fill="none" stroke="#000" stroke-linecap="round" stroke-linejoin="round"/><path d="M237.44,161.89c-1.23.06-2.6-.18-3.62-.22-1.02-.04-2.02.18-3.04.19-1.95.01-3.84-.82-5.8-.84-2.55-.03-5,1.3-7.55,1.07-1.41-.12-2.76-.71-4.18-.73-1.39-.01-2.73.54-4.12.61-2.33.13-4.64-1.09-6.95-.78-1.18.16-2.29.71-3.45.97-2.09.46-4.77-.71-4.77-3.13,0-1.68,1.36-3.04,3.04-3.04,1.25,0,2.48.11,3.73,0,1.65-.15,3.31-.47,4.97-.3,1.3.13,2.57.56,3.86.41.83-.1,1.61-.42,2.42-.64,1.27-.35,2.64-.39,3.93-.16,1.2.22,2.35.69,3.55.74,1.63.07,3.22-.64,4.85-.63,1.33.01,2.61.5,3.94.56,1.23.06,2.45-.26,3.68-.4,2.58-.31,8.56-.31,8.56,3.46,0,2.19-1.41,2.77-3.06,2.84Z" fill="none" stroke="#000" stroke-linecap="round" stroke-linejoin="round"/><path d="M211.23,190.39c-1.26-.01-2.68-.4-3.91-.23-.75.1-1.47.3-2.21.4-.69.09-1.4.09-2.1.09-2.64,0-8.86.99-8.86-3.23,0-1.23.8-2.47,2-2.86,1.36-.45,3.45.3,4.87.5.68.1,1.36.2,2.06.2,2.75.01,11.2-3.18,11.2,2.14,0,1.18-.82,2.58-2.03,2.87-.34.09-.67.12-1.02.11Z" fill="none" stroke="#000" stroke-linecap="round" stroke-linejoin="round"/><path d="M237.27,190.45c-.96-.01-1.88-.41-2.87-.44-.88-.02-1.71.41-2.57.64-2.17.55-4.47-.31-6.67.08-1.44.26-2.14.39-3.27-.53-.94-.76-1.7-1.45-1.7-2.76,0-1.41.97-2.63,2.32-2.96,1.79-.46,2.6.42,4.27.78.93.2,1.87-.19,2.78-.42,1.23-.31,2.52-.36,3.78-.12.41.08.83.19,1.25.22,1.47.11,2.63-.93,4.03-.23,1.03.51,1.7,1.59,1.7,2.73,0,1.27-.85,2.5-2.08,2.88-.35.1-.66.13-.97.13Z" fill="none" stroke="#000" stroke-linecap="round" stroke-linejoin="round"/><path d="M230.47,176.16c-1.81.09-4.01-.49-5.32-.55-1.58-.07-3.12.49-4.69.67-2.5.27-5-.45-7.53-.45-2.95.01-12,2.79-12-2.6,0-3.37,3.07-2.67,5.24-2.27,2.16.4,4.35-.68,6.52-.48,1.17.11,2.28.58,3.45.7,2.14.21,4.24-.78,6.39-.74.67.01,1.33.13,2,.18,1.06.08,2.12-.02,3.16-.2.89-.15,1.94-.61,2.85-.48,1.55.22,2.94,1.71,2.94,3.27.03,2.21-1.33,2.86-3.02,2.94Z" fill="none" stroke="#000" stroke-linecap="round" stroke-linejoin="round"/><path d="M238.61,184.7c-1.41-.69-2.57.35-4.03.23-.42-.03-.84-.15-1.25-.22-1.25-.23-2.55-.19-3.78.12-.92.23-1.85.63-2.78.42-1.66-.36-2.48-1.24-4.27-.78-1.01.26-1.8.99-2.14,1.93.31-.22.66-.4,1.04-.49,1.79-.46,2.6.42,4.27.78.93.2,1.87-.19,2.78-.42,1.23-.31,2.52-.36,3.78-.12.41.08.83.19,1.25.22,1.47.11,2.63-.93,4.03-.23,1.03.51,1.7,1.59,1.7,2.73,0,.36-.08.71-.2,1.05.79-.56,1.31-1.51,1.31-2.49,0-1.15-.67-2.22-1.7-2.73Z" fill="none" stroke="#000" stroke-linecap="round" stroke-linejoin="round"/><path d="M203.07,185.28c-.69,0-1.37-.1-2.06-.2-1.42-.2-3.5-.95-4.87-.5-.85.28-1.49.98-1.8,1.8.21-.15.44-.28.69-.36,1.36-.45,3.45.3,4.87.5.68.1,1.36.2,2.06.2,2.75.01,11.2-3.18,11.2,2.14,0,.36-.08.74-.22,1.11.82-.56,1.33-1.61,1.33-2.55,0-5.33-8.46-2.13-11.2-2.14Z" fill="none" stroke="#000" stroke-linecap="round" stroke-linejoin="round"/><path d="M230.57,169.96c-.9-.13-1.97.34-2.85.48-1.05.18-2.11.27-3.16.2-.67-.04-1.33-.17-2-.18-2.16-.04-4.26.95-6.39.74-1.17-.12-2.28-.59-3.45-.7-2.18-.2-4.38.88-6.52.48-1.94-.37-4.61-.96-5.14,1.35,1.09-.5,2.73-.16,4.03.09,2.16.4,4.35-.68,6.52-.48,1.17.11,2.28.58,3.45.7,2.14.21,4.24-.78,6.39-.74.67.01,1.33.13,2,.18,1.06.08,2.12-.02,3.16-.2.89-.15,1.94-.61,2.85-.48,1.55.22,2.94,1.71,2.94,3.27,0,.4-.06.75-.15,1.05.76-.41,1.25-1.17,1.25-2.49.01-1.56-1.39-3.05-2.94-3.27Z" fill="none" stroke="#000" stroke-linecap="round" stroke-linejoin="round"/><path d="M231.94,155.59c-1.23.15-2.45.46-3.68.4-1.33-.06-2.61-.55-3.94-.56-1.63-.01-3.22.69-4.85.63-1.21-.04-2.37-.51-3.55-.74-1.31-.25-2.66-.19-3.93.16-.8.21-1.59.55-2.42.64-1.3.15-2.57-.28-3.86-.41-1.66-.17-3.32.16-4.97.3-1.25.11-2.48,0-3.73,0s-2.42.84-2.85,2c.49-.35,1.09-.56,1.74-.56,1.25,0,2.48.11,3.73,0,1.65-.15,3.31-.47,4.97-.3,1.3.13,2.57.56,3.86.41.83-.1,1.61-.42,2.42-.64,1.28-.35,2.64-.39,3.93-.16,1.2.22,2.35.69,3.55.74,1.63.07,3.22-.64,4.85-.63,1.33.01,2.61.5,3.94.56,1.23.06,2.45-.26,3.68-.4,2.58-.31,8.56-.31,8.56,3.46,0,.38-.06.68-.13.97.74-.4,1.23-1.12,1.23-2.41.01-3.78-5.96-3.78-8.55-3.46Z" fill="none" stroke="#000" stroke-linecap="round" stroke-linejoin="round"/><path d="M238.71,254h-83.42c-1.26,0-2.29-1.03-2.29-2.29v-14.42c0-1.26,1.03-2.29,2.29-2.29h83.42c1.26,0,2.29,1.03,2.29,2.29v14.42c0,1.26-1.03,2.29-2.29,2.29Z" fill="none" stroke="#000" stroke-linecap="round" stroke-linejoin="round"/><path d="M256.93,254h-83.87c-1.14,0-2.07-.93-2.07-2.07v-14.87c0-1.14.93-2.07,2.07-2.07h83.87c1.14,0,2.07.93,2.07,2.07v14.87c0,1.14-.93,2.07-2.07,2.07Z" fill="none" stroke="#000" stroke-linecap="round" stroke-linejoin="round"/><path d="M170.53,237.16c-.08-.95.5-1.95,1.45-2.36.47-.22,1.02-.21,1.46-.23l1.42-.08,5.66-.27c3.78-.15,7.55-.28,11.33-.37,7.55-.2,15.1-.26,22.66-.28,7.55.02,15.1.08,22.66.28,3.78.09,7.55.22,11.33.37l5.66.27,1.42.08c.45.03.99.01,1.46.23.95.41,1.53,1.41,1.45,2.36-.06-.96-.75-1.78-1.59-2.01-.41-.15-.85-.08-1.33-.06l-1.42.08-5.66.27c-3.78.15-7.55.28-11.33.37-7.55.2-15.1.26-22.66.28-7.55-.02-15.1-.08-22.66-.28-3.78-.09-7.55-.22-11.33-.37l-5.66-.27-1.42-.08c-.49-.02-.92-.09-1.33.06-.84.23-1.53,1.05-1.59,2.01Z" fill="none" stroke="#000" stroke-linecap="round" stroke-linejoin="round"/><path d="M223.06,197.05c4.04-10.1,11.4-17.85,20.34-21.1,2.99-1.07,30.56-1.65,30.56-1.65,0,0,3.2,9.28,8.58,22.75,1.73,4.34,4.43,7.42,10.14,8.24,1.88.27,3.31,1.95,3.31,4.01v111.7h-91v-111.55c0-2.16,1.56-3.91,3.53-4.03,9.84-.6,12.69-3.76,14.53-8.37Z" fill="#8f8f8f"/><path d="M244.06,197.05c5.38-13.47,16.69-22.75,29.75-22.75s24.36,9.28,29.75,22.75c1.73,4.34,4.42,7.42,10.14,8.24,1.88.27,3.31,1.95,3.31,4.01v111.7h-91v-111.55c0-2.16,1.56-3.91,3.53-4.03,9.84-.6,12.69-3.76,14.53-8.37Z" fill="#b0b0b0"/><path d="M226.49,214.51c.63,8.49.96,16.98,1.17,25.47.24,8.49.31,16.98.35,25.47-.03,8.49-.08,16.98-.32,25.47-.21,8.49-.55,16.98-1.16,25.47-.63-8.49-.96-16.98-1.19-25.47-.24-8.49-.31-16.98-.33-25.47.03-8.49.09-16.98.32-25.47.21-8.5.55-16.99,1.16-25.47Z" fill="#bdbdbd"/><path d="M274.3,174.55c-4.54,1.16-8.66,3.12-12.37,5.68-3.71,2.53-7.05,5.62-9.86,9.06-.71.87-1.29,1.75-1.91,2.72l-1.84,2.92c-1.21,1.97-2.44,3.96-3.83,5.89-.37.49-.67.95-1.13,1.47-.45.49-.95.92-1.48,1.28-1.05.73-2.19,1.25-3.36,1.6-2.35.69-4.78.77-7.09.4,2.33-.23,4.6-.72,6.6-1.69.99-.49,1.93-1.05,2.71-1.77.8-.71,1.29-1.49,1.89-2.51,1.15-1.96,2.23-4.01,3.36-6.04,1.13-2.03,2.24-4.12,3.76-6.08,2.96-3.85,6.69-6.98,10.86-9.37,4.2-2.33,8.97-3.8,13.69-3.56Z" fill="#e0e0e0"/><g opacity=".55"><path d="M299.67,224.36c-1.47.07-3.11-.21-4.32-.27-1.21-.05-2.41.21-3.63.23-2.33.01-4.58-.97-6.92-1-3.04-.04-5.97,1.55-9.01,1.28-1.68-.15-3.29-.85-4.98-.87-1.65-.01-3.25.64-4.92.73-2.79.16-5.53-1.31-8.29-.93-1.41.19-2.73.85-4.12,1.16-2.49.55-5.69-.85-5.69-3.73,0-2,1.63-3.63,3.63-3.63,1.49,0,2.96.13,4.45,0,1.97-.17,3.95-.56,5.93-.36,1.55.16,3.07.67,4.61.49.99-.12,1.92-.51,2.89-.76,1.52-.41,3.15-.47,4.69-.19,1.43.27,2.8.83,4.24.88,1.95.08,3.84-.76,5.78-.75,1.59.01,3.12.6,4.7.67,1.47.07,2.92-.31,4.38-.48,3.08-.37,10.21-.37,10.21,4.13,0,2.61-1.68,3.31-3.65,3.39Z" fill="#777"/></g><g opacity=".55"><path d="M268.41,258.37c-1.51-.01-3.2-.48-4.66-.28-.89.12-1.76.36-2.64.48-.83.11-1.67.11-2.51.11-3.15,0-10.57,1.19-10.57-3.85,0-1.47.96-2.95,2.39-3.41,1.63-.53,4.12.36,5.81.6.81.12,1.63.24,2.45.24,3.28.01,13.37-3.8,13.37,2.56,0,1.41-.97,3.08-2.43,3.43-.4.11-.8.15-1.21.13Z" fill="#777"/><path d="M299.47,258.44c-1.15-.01-2.24-.49-3.43-.52-1.05-.03-2.04.49-3.07.76-2.59.65-5.33-.37-7.96.09-1.72.31-2.56.47-3.91-.63-1.12-.91-2.03-1.73-2.03-3.29,0-1.68,1.16-3.13,2.77-3.53,2.13-.55,3.11.51,5.09.93,1.11.24,2.23-.23,3.32-.51,1.47-.37,3.01-.43,4.5-.15.49.09.99.23,1.49.27,1.76.13,3.13-1.11,4.81-.28,1.23.61,2.03,1.89,2.03,3.25,0,1.52-1.01,2.99-2.48,3.44-.41.12-.79.16-1.16.16Z" fill="#777"/></g><g opacity=".55"><path d="M291.36,241.39c-2.16.11-4.78-.59-6.34-.65-1.88-.08-3.72.59-5.6.8-2.99.32-5.97-.53-8.98-.53-3.52.01-14.31,3.33-14.31-3.11,0-4.03,3.67-3.19,6.25-2.71,2.57.48,5.18-.81,7.78-.57,1.4.13,2.72.69,4.12.84,2.56.25,5.06-.93,7.62-.88.8.01,1.59.16,2.39.21,1.27.09,2.53-.03,3.77-.24,1.07-.17,2.32-.73,3.4-.57,1.85.27,3.51,2.04,3.51,3.91.04,2.64-1.59,3.41-3.6,3.51Z" fill="#777"/></g><path d="M301.07,251.58c-1.68-.83-3.07.41-4.81.28-.51-.04-1-.17-1.49-.27-1.49-.28-3.04-.23-4.5.15-1.09.28-2.21.75-3.32.51-1.99-.43-2.96-1.48-5.09-.93-1.2.31-2.15,1.19-2.56,2.31.37-.27.79-.48,1.24-.59,2.13-.55,3.11.51,5.09.93,1.11.24,2.23-.23,3.32-.51,1.47-.37,3.01-.43,4.5-.15.49.09.99.23,1.49.27,1.76.13,3.13-1.11,4.81-.28,1.23.61,2.03,1.89,2.03,3.25,0,.43-.09.85-.24,1.25.95-.67,1.56-1.8,1.56-2.97,0-1.37-.8-2.65-2.03-3.25Z" fill="#777"/><path d="M258.66,252.27c-.83,0-1.64-.12-2.45-.24-1.69-.24-4.17-1.13-5.81-.6-1.01.33-1.77,1.17-2.15,2.15.25-.17.52-.33.83-.43,1.63-.53,4.12.36,5.81.6.81.12,1.63.24,2.45.24,3.28.01,13.37-3.8,13.37,2.56,0,.43-.09.88-.27,1.32.97-.67,1.59-1.92,1.59-3.04,0-6.36-10.09-2.55-13.37-2.56Z" fill="#777"/><path d="M291.48,234c-1.08-.16-2.35.4-3.4.57-1.25.21-2.52.32-3.77.24-.8-.05-1.59-.2-2.39-.21-2.57-.05-5.08,1.13-7.62.88-1.4-.15-2.72-.71-4.12-.84-2.6-.24-5.22,1.05-7.78.57-2.32-.44-5.5-1.15-6.13,1.61,1.31-.6,3.25-.19,4.81.11,2.57.48,5.18-.81,7.78-.57,1.4.13,2.72.69,4.12.84,2.56.25,5.06-.93,7.62-.88.8.01,1.59.16,2.39.21,1.27.09,2.53-.03,3.77-.24,1.07-.17,2.32-.73,3.4-.57,1.85.27,3.51,2.04,3.51,3.91,0,.48-.07.89-.17,1.25.91-.49,1.49-1.4,1.49-2.97.01-1.87-1.65-3.64-3.51-3.91Z" fill="#777"/><path d="M293.12,216.84c-1.47.17-2.92.55-4.38.48-1.59-.07-3.12-.65-4.7-.67-1.95-.01-3.84.83-5.78.75-1.44-.05-2.83-.61-4.24-.88-1.56-.29-3.17-.23-4.69.19-.96.25-1.89.65-2.89.76-1.55.17-3.07-.33-4.61-.49-1.99-.2-3.96.19-5.93.36-1.49.13-2.96,0-4.45,0s-2.89,1-3.4,2.39c.59-.41,1.31-.67,2.08-.67,1.49,0,2.96.13,4.45,0,1.97-.17,3.95-.56,5.93-.36,1.55.16,3.07.67,4.61.49.99-.12,1.92-.51,2.89-.76,1.53-.41,3.15-.47,4.69-.19,1.43.27,2.8.83,4.24.88,1.95.08,3.84-.76,5.78-.75,1.59.01,3.12.6,4.7.67,1.47.07,2.92-.31,4.38-.48,3.08-.37,10.21-.37,10.21,4.13,0,.45-.07.81-.16,1.16.88-.48,1.47-1.33,1.47-2.88.01-4.5-7.12-4.5-10.2-4.13Z" fill="#777"/><path d="M300.27,334h-99.54c-1.51,0-2.73-1.22-2.73-2.73v-17.54c0-1.51,1.22-2.73,2.73-2.73h99.54c1.51,0,2.73,1.22,2.73,2.73v17.54c0,1.51-1.22,2.73-2.73,2.73Z" fill="#8f8f8f"/><path d="M322.53,334h-100.07c-1.36,0-2.47-1.1-2.47-2.47v-18.07c0-1.36,1.1-2.47,2.47-2.47h100.07c1.36,0,2.47,1.1,2.47,2.47v18.07c0,1.36-1.1,2.47-2.47,2.47Z" fill="#b0b0b0"/><path d="M219.84,314.18c-.09-1.13.6-2.33,1.73-2.81.56-.27,1.21-.25,1.75-.28l1.69-.09,6.76-.32c4.5-.17,9.01-.33,13.51-.44,9.01-.24,18.02-.31,27.04-.33,9.01.03,18.02.09,27.04.33,4.5.11,9.01.27,13.51.44l6.76.32,1.69.09c.53.04,1.19.01,1.75.28,1.13.49,1.83,1.68,1.73,2.81-.07-1.15-.89-2.12-1.89-2.4-.49-.17-1.01-.09-1.59-.07l-1.69.09-6.76.32c-4.5.17-9.01.33-13.51.44-9.01.24-18.02.31-27.04.33-9.01-.03-18.02-.09-27.04-.33-4.5-.11-9.01-.27-13.51-.44l-6.76-.32-1.69-.09c-.59-.03-1.09-.11-1.59.07-1,.28-1.83,1.25-1.89,2.4Z" fill="#e0e0e0"/><path d="M223.06,197.05c4.04-10.1,11.4-17.85,20.34-21.1,2.99-1.07,30.56-1.65,30.56-1.65,0,0,3.2,9.28,8.58,22.75,1.73,4.34,4.43,7.42,10.14,8.24,1.88.27,3.31,1.95,3.31,4.01v111.7h-91v-111.55c0-2.16,1.56-3.91,3.53-4.03,9.84-.6,12.69-3.76,14.53-8.37Z" fill="none" stroke="#000" stroke-linecap="round" stroke-linejoin="round"/><path d="M244.06,197.05c5.38-13.47,16.69-22.75,29.75-22.75s24.36,9.28,29.75,22.75c1.73,4.34,4.42,7.42,10.14,8.24,1.88.27,3.31,1.95,3.31,4.01v111.7h-91v-111.55c0-2.16,1.56-3.91,3.53-4.03,9.84-.6,12.69-3.76,14.53-8.37Z" fill="none" stroke="#000" stroke-linecap="round" stroke-linejoin="round"/><path d="M226.49,214.51c.63,8.49.96,16.98,1.17,25.47.24,8.49.31,16.98.35,25.47-.03,8.49-.08,16.98-.32,25.47-.21,8.49-.55,16.98-1.16,25.47-.63-8.49-.96-16.98-1.19-25.47-.24-8.49-.31-16.98-.33-25.47.03-8.49.09-16.98.32-25.47.21-8.5.55-16.99,1.16-25.47Z" fill="none" stroke="#000" stroke-linecap="round" stroke-linejoin="round"/><path d="M274.3,174.55c-4.54,1.16-8.66,3.12-12.37,5.68-3.71,2.53-7.05,5.62-9.86,9.06-.71.87-1.29,1.75-1.91,2.72l-1.84,2.92c-1.21,1.97-2.44,3.96-3.83,5.89-.37.49-.67.95-1.13,1.47-.45.49-.95.92-1.48,1.28-1.05.73-2.19,1.25-3.36,1.6-2.35.69-4.78.77-7.09.4,2.33-.23,4.6-.72,6.6-1.69.99-.49,1.93-1.05,2.71-1.77.8-.71,1.29-1.49,1.89-2.51,1.15-1.96,2.23-4.01,3.36-6.04,1.13-2.03,2.24-4.12,3.76-6.08,2.96-3.85,6.69-6.98,10.86-9.37,4.2-2.33,8.97-3.8,13.69-3.56Z" fill="none" stroke="#000" stroke-linecap="round" stroke-linejoin="round"/><path d="M299.67,224.36c-1.47.07-3.11-.21-4.32-.27-1.21-.05-2.41.21-3.63.23-2.33.01-4.58-.97-6.92-1-3.04-.04-5.97,1.55-9.01,1.28-1.68-.15-3.29-.85-4.98-.87-1.65-.01-3.25.64-4.92.73-2.79.16-5.53-1.31-8.29-.93-1.41.19-2.73.85-4.12,1.16-2.49.55-5.69-.85-5.69-3.73,0-2,1.63-3.63,3.63-3.63,1.49,0,2.96.13,4.45,0,1.97-.17,3.95-.56,5.93-.36,1.55.16,3.07.67,4.61.49.99-.12,1.92-.51,2.89-.76,1.52-.41,3.15-.47,4.69-.19,1.43.27,2.8.83,4.24.88,1.95.08,3.84-.76,5.78-.75,1.59.01,3.12.6,4.7.67,1.47.07,2.92-.31,4.38-.48,3.08-.37,10.21-.37,10.21,4.13,0,2.61-1.68,3.31-3.65,3.39Z" fill="none" stroke="#000" stroke-linecap="round" stroke-linejoin="round"/><path d="M268.41,258.37c-1.51-.01-3.2-.48-4.66-.28-.89.12-1.76.36-2.64.48-.83.11-1.67.11-2.51.11-3.15,0-10.57,1.19-10.57-3.85,0-1.47.96-2.95,2.39-3.41,1.63-.53,4.12.36,5.81.6.81.12,1.63.24,2.45.24,3.28.01,13.37-3.8,13.37,2.56,0,1.41-.97,3.08-2.43,3.43-.4.11-.8.15-1.21.13Z" fill="none" stroke="#000" stroke-linecap="round" stroke-linejoin="round"/><path d="M299.47,258.44c-1.15-.01-2.24-.49-3.43-.52-1.05-.03-2.04.49-3.07.76-2.59.65-5.33-.37-7.96.09-1.72.31-2.56.47-3.91-.63-1.12-.91-2.03-1.73-2.03-3.29,0-1.68,1.16-3.13,2.77-3.53,2.13-.55,3.11.51,5.09.93,1.11.24,2.23-.23,3.32-.51,1.47-.37,3.01-.43,4.5-.15.49.09.99.23,1.49.27,1.76.13,3.13-1.11,4.81-.28,1.23.61,2.03,1.89,2.03,3.25,0,1.52-1.01,2.99-2.48,3.44-.41.12-.79.16-1.16.16Z" fill="none" stroke="#000" stroke-linecap="round" stroke-linejoin="round"/><path d="M291.36,241.39c-2.16.11-4.78-.59-6.34-.65-1.88-.08-3.72.59-5.6.8-2.99.32-5.97-.53-8.98-.53-3.52.01-14.31,3.33-14.31-3.11,0-4.03,3.67-3.19,6.25-2.71,2.57.48,5.18-.81,7.78-.57,1.4.13,2.72.69,4.12.84,2.56.25,5.06-.93,7.62-.88.8.01,1.59.16,2.39.21,1.27.09,2.53-.03,3.77-.24,1.07-.17,2.32-.73,3.4-.57,1.85.27,3.51,2.04,3.51,3.91.04,2.64-1.59,3.41-3.6,3.51Z" fill="none" stroke="#000" stroke-linecap="round" stroke-linejoin="round"/><path d="M301.07,251.58c-1.68-.83-3.07.41-4.81.28-.51-.04-1-.17-1.49-.27-1.49-.28-3.04-.23-4.5.15-1.09.28-2.21.75-3.32.51-1.99-.43-2.96-1.48-5.09-.93-1.2.31-2.15,1.19-2.56,2.31.37-.27.79-.48,1.24-.59,2.13-.55,3.11.51,5.09.93,1.11.24,2.23-.23,3.32-.51,1.47-.37,3.01-.43,4.5-.15.49.09.99.23,1.49.27,1.76.13,3.13-1.11,4.81-.28,1.23.61,2.03,1.89,2.03,3.25,0,.43-.09.85-.24,1.25.95-.67,1.56-1.8,1.56-2.97,0-1.37-.8-2.65-2.03-3.25Z" fill="none" stroke="#000" stroke-linecap="round" stroke-linejoin="round"/><path d="M258.66,252.27c-.83,0-1.64-.12-2.45-.24-1.69-.24-4.17-1.13-5.81-.6-1.01.33-1.77,1.17-2.15,2.15.25-.17.52-.33.83-.43,1.63-.53,4.12.36,5.81.6.81.12,1.63.24,2.45.24,3.28.01,13.37-3.8,13.37,2.56,0,.43-.09.88-.27,1.32.97-.67,1.59-1.92,1.59-3.04,0-6.36-10.09-2.55-13.37-2.56Z" fill="none" stroke="#000" stroke-linecap="round" stroke-linejoin="round"/><path d="M291.48,234c-1.08-.16-2.35.4-3.4.57-1.25.21-2.52.32-3.77.24-.8-.05-1.59-.2-2.39-.21-2.57-.05-5.08,1.13-7.62.88-1.4-.15-2.72-.71-4.12-.84-2.6-.24-5.22,1.05-7.78.57-2.32-.44-5.5-1.15-6.13,1.61,1.31-.6,3.25-.19,4.81.11,2.57.48,5.18-.81,7.78-.57,1.4.13,2.72.69,4.12.84,2.56.25,5.06-.93,7.62-.88.8.01,1.59.16,2.39.21,1.27.09,2.53-.03,3.77-.24,1.07-.17,2.32-.73,3.4-.57,1.85.27,3.51,2.04,3.51,3.91,0,.48-.07.89-.17,1.25.91-.49,1.49-1.4,1.49-2.97.01-1.87-1.65-3.64-3.51-3.91Z" fill="none" stroke="#000" stroke-linecap="round" stroke-linejoin="round"/><path d="M293.12,216.84c-1.47.17-2.92.55-4.38.48-1.59-.07-3.12-.65-4.7-.67-1.95-.01-3.84.83-5.78.75-1.44-.05-2.83-.61-4.24-.88-1.56-.29-3.17-.23-4.69.19-.96.25-1.89.65-2.89.76-1.55.17-3.07-.33-4.61-.49-1.99-.2-3.96.19-5.93.36-1.49.13-2.96,0-4.45,0s-2.89,1-3.4,2.39c.59-.41,1.31-.67,2.08-.67,1.49,0,2.96.13,4.45,0,1.97-.17,3.95-.56,5.93-.36,1.55.16,3.07.67,4.61.49.99-.12,1.92-.51,2.89-.76,1.53-.41,3.15-.47,4.69-.19,1.43.27,2.8.83,4.24.88,1.95.08,3.84-.76,5.78-.75,1.59.01,3.12.6,4.7.67,1.47.07,2.92-.31,4.38-.48,3.08-.37,10.21-.37,10.21,4.13,0,.45-.07.81-.16,1.16.88-.48,1.47-1.33,1.47-2.88.01-4.5-7.12-4.5-10.2-4.13Z" fill="none" stroke="#000" stroke-linecap="round" stroke-linejoin="round"/><path d="M300.27,334h-99.54c-1.51,0-2.73-1.22-2.73-2.73v-17.54c0-1.51,1.22-2.73,2.73-2.73h99.54c1.51,0,2.73,1.22,2.73,2.73v17.54c0,1.51-1.22,2.73-2.73,2.73Z" fill="none" stroke="#000" stroke-linecap="round" stroke-linejoin="round"/><path d="M322.53,334h-100.07c-1.36,0-2.47-1.1-2.47-2.47v-18.07c0-1.36,1.1-2.47,2.47-2.47h100.07c1.36,0,2.47,1.1,2.47,2.47v18.07c0,1.36-1.1,2.47-2.47,2.47Z" fill="none" stroke="#000" stroke-linecap="round" stroke-linejoin="round"/><path d="M219.84,314.18c-.09-1.13.6-2.33,1.73-2.81.56-.27,1.21-.25,1.75-.28l1.69-.09,6.76-.32c4.5-.17,9.01-.33,13.51-.44,9.01-.24,18.02-.31,27.04-.33,9.01.03,18.02.09,27.04.33,4.5.11,9.01.27,13.51.44l6.76.32,1.69.09c.53.04,1.19.01,1.75.28,1.13.49,1.83,1.68,1.73,2.81-.07-1.15-.89-2.12-1.89-2.4-.49-.17-1.01-.09-1.59-.07l-1.69.09-6.76.32c-4.5.17-9.01.33-13.51.44-9.01.24-18.02.31-27.04.33-9.01-.03-18.02-.09-27.04-.33-4.5-.11-9.01-.27-13.51-.44l-6.76-.32-1.69-.09c-.59-.03-1.09-.11-1.59.07-1,.28-1.83,1.25-1.89,2.4Z" fill="none" stroke="#000" stroke-linecap="round" stroke-linejoin="round"/><path d="M300.86,274.07c4.22-10.51,11.9-18.56,21.23-21.95,3.12-1.11,31.91-1.72,31.91-1.72,0,0,3.34,9.65,8.96,23.66,1.81,4.52,4.62,7.72,10.59,8.57,1.96.28,3.45,2.02,3.45,4.17v116.19h-95v-116.04c0-2.25,1.63-4.06,3.69-4.19,10.27-.62,13.25-3.91,15.17-8.71Z" fill="#8f8f8f"/><path d="M322.85,274.07c5.62-14.02,17.42-23.66,31.05-23.66s25.43,9.65,31.05,23.66c1.81,4.52,4.62,7.72,10.59,8.57,1.96.28,3.45,2.02,3.45,4.17v116.19h-95v-116.04c0-2.25,1.63-4.06,3.69-4.19,10.27-.62,13.25-3.91,15.17-8.71Z" fill="#b0b0b0"/><path d="M303.84,292.32c.65,8.83,1,17.66,1.22,26.49.25,8.83.32,17.66.36,26.49-.03,8.83-.08,17.66-.33,26.49-.22,8.83-.57,17.66-1.21,26.49-.65-8.83-1-17.66-1.23-26.49-.25-8.83-.32-17.66-.35-26.49.03-8.83.1-17.66.33-26.49.22-8.84.57-17.68,1.21-26.49Z" fill="#bdbdbd"/><path d="M353.57,250.76c-4.73,1.21-9.01,3.24-12.87,5.91-3.85,2.63-7.33,5.85-10.26,9.43-.73.9-1.34,1.82-1.98,2.83l-1.91,3.04c-1.26,2.05-2.54,4.12-3.98,6.13-.39.51-.69.98-1.18,1.52-.47.51-.98.96-1.54,1.33-1.1.76-2.27,1.3-3.49,1.66-2.44.72-4.98.8-7.38.42,2.43-.24,4.78-.75,6.86-1.76,1.03-.51,2.01-1.1,2.81-1.84.83-.73,1.34-1.55,1.97-2.61,1.19-2.04,2.32-4.17,3.49-6.28,1.18-2.11,2.33-4.28,3.91-6.32,3.08-4.01,6.96-7.26,11.3-9.75,4.37-2.43,9.33-3.95,14.24-3.7Z" fill="#e0e0e0"/><g opacity=".55"><path d="M347.44,337.95c-1.57-.01-3.33-.5-4.85-.29-.93.12-1.83.37-2.74.5-.86.11-1.73.11-2.61.11-3.27,0-10.99,1.23-10.99-4.01,0-1.52,1-3.06,2.48-3.55,1.69-.55,4.28.37,6.04.62.85.12,1.69.25,2.55.25,3.41.01,13.9-3.95,13.9,2.66,0,1.47-1.01,3.2-2.52,3.56-.42.11-.83.15-1.26.14Z" fill="#777"/><path d="M379.75,338.02c-1.19-.01-2.33-.51-3.56-.54-1.1-.03-2.12.51-3.19.79-2.69.68-5.55-.39-8.28.1-1.79.32-2.66.49-4.06-.65-1.16-.94-2.11-1.8-2.11-3.42,0-1.75,1.21-3.26,2.88-3.67,2.22-.57,3.23.53,5.3.97,1.15.25,2.32-.24,3.45-.53,1.52-.39,3.13-.44,4.69-.15.51.1,1.03.24,1.55.28,1.83.14,3.26-1.15,5-.29,1.28.64,2.11,1.97,2.11,3.38,0,1.58-1.05,3.11-2.58,3.58-.43.12-.82.17-1.21.17Z" fill="#777"/></g><g opacity=".55"><path d="M371.31,320.29c-2.25.11-4.98-.61-6.6-.68-1.95-.08-3.87.61-5.82.83-3.11.33-6.21-.55-9.34-.55-3.66.01-14.89,3.47-14.89-3.23,0-4.19,3.81-3.31,6.5-2.81,2.68.5,5.39-.85,8.1-.6,1.46.14,2.83.72,4.28.87,2.66.26,5.27-.97,7.93-.91.83.01,1.65.17,2.48.22,1.32.1,2.63-.03,3.92-.25,1.11-.18,2.41-.76,3.54-.6,1.93.28,3.65,2.12,3.65,4.06.04,2.74-1.65,3.55-3.74,3.65Z" fill="#777"/></g><path d="M381.42,330.88c-1.75-.86-3.19.43-5,.29-.53-.04-1.04-.18-1.55-.28-1.55-.29-3.16-.24-4.69.15-1.14.29-2.3.78-3.45.53-2.07-.44-3.08-1.54-5.3-.97-1.25.32-2.23,1.23-2.66,2.4.39-.28.82-.5,1.29-.61,2.22-.57,3.23.53,5.3.97,1.15.25,2.32-.24,3.45-.53,1.52-.39,3.13-.44,4.69-.15.51.1,1.03.24,1.55.28,1.83.14,3.26-1.15,5-.29,1.28.64,2.11,1.97,2.11,3.38,0,.44-.1.89-.25,1.3.98-.69,1.62-1.87,1.62-3.09,0-1.43-.83-2.76-2.11-3.38Z" fill="#777"/><path d="M337.31,331.6c-.86,0-1.71-.12-2.55-.25-1.76-.25-4.34-1.18-6.04-.62-1.05.35-1.84,1.22-2.23,2.23.26-.18.54-.35.86-.44,1.69-.55,4.28.37,6.04.62.85.12,1.69.25,2.55.25,3.41.01,13.9-3.95,13.9,2.66,0,.44-.1.91-.28,1.37,1.01-.69,1.65-2,1.65-3.16,0-6.61-10.49-2.65-13.9-2.66Z" fill="#777"/><path d="M371.44,312.59c-1.12-.17-2.44.42-3.54.6-1.3.22-2.62.33-3.92.25-.83-.06-1.65-.21-2.48-.22-2.68-.06-5.28,1.18-7.93.91-1.46-.15-2.83-.73-4.28-.87-2.7-.25-5.43,1.1-8.1.6-2.41-.46-5.73-1.19-6.38,1.68,1.36-.62,3.38-.19,5,.11,2.68.5,5.39-.85,8.1-.6,1.46.14,2.83.72,4.28.87,2.66.26,5.27-.97,7.93-.91.83.01,1.65.17,2.48.22,1.32.1,2.63-.03,3.92-.25,1.11-.18,2.41-.76,3.54-.6,1.93.28,3.65,2.12,3.65,4.06,0,.5-.07.93-.18,1.3.94-.51,1.55-1.46,1.55-3.09.01-1.94-1.72-3.78-3.65-4.06Z" fill="#777"/><path d="M381.16,417h-103.32c-1.57,0-2.84-1.27-2.84-2.84v-18.32c0-1.57,1.27-2.84,2.84-2.84h103.32c1.57,0,2.84,1.27,2.84,2.84v18.32c0,1.57-1.27,2.84-2.84,2.84Z" fill="#8f8f8f"/><path d="M403.44,417h-103.87c-1.42,0-2.56-1.15-2.56-2.56v-18.87c0-1.42,1.15-2.56,2.56-2.56h103.87c1.42,0,2.56,1.15,2.56,2.56v18.87c0,1.42-1.15,2.56-2.56,2.56Z" fill="#b0b0b0"/><path d="M296.92,395.99c-.1-1.18.62-2.43,1.8-2.93.58-.28,1.26-.26,1.82-.29l1.76-.1,7.03-.33c4.69-.18,9.37-.35,14.06-.46,9.37-.25,18.74-.32,28.13-.35,9.37.03,18.74.1,28.13.35,4.69.11,9.37.28,14.06.46l7.03.33,1.76.1c.55.04,1.23.01,1.82.29,1.18.51,1.9,1.75,1.8,2.93-.07-1.19-.93-2.2-1.97-2.5-.51-.18-1.05-.1-1.65-.07l-1.76.1-7.03.33c-4.69.18-9.37.35-14.06.46-9.37.25-18.74.32-28.13.35-9.37-.03-18.74-.1-28.13-.35-4.69-.11-9.37-.28-14.06-.46l-7.03-.33-1.76-.1c-.61-.03-1.14-.11-1.65.07-1.04.29-1.9,1.3-1.97,2.5Z" fill="#e0e0e0"/><path d="M300.86,274.07c4.22-10.51,11.9-18.56,21.23-21.95,3.12-1.11,31.91-1.72,31.91-1.72,0,0,3.34,9.65,8.96,23.66,1.81,4.52,4.62,7.72,10.59,8.57,1.96.28,3.45,2.02,3.45,4.17v116.19h-95v-116.04c0-2.25,1.63-4.06,3.69-4.19,10.27-.62,13.25-3.91,15.17-8.71Z" fill="none" stroke="#000" stroke-linecap="round" stroke-linejoin="round"/><path d="M322.85,274.07c5.62-14.02,17.42-23.66,31.05-23.66s25.43,9.65,31.05,23.66c1.81,4.52,4.62,7.72,10.59,8.57,1.96.28,3.45,2.02,3.45,4.17v116.19h-95v-116.04c0-2.25,1.63-4.06,3.69-4.19,10.27-.62,13.25-3.91,15.17-8.71Z" fill="none" stroke="#000" stroke-linecap="round" stroke-linejoin="round"/><path d="M303.84,292.32c.65,8.83,1,17.66,1.22,26.49.25,8.83.32,17.66.36,26.49-.03,8.83-.08,17.66-.33,26.49-.22,8.83-.57,17.66-1.21,26.49-.65-8.83-1-17.66-1.23-26.49-.25-8.83-.32-17.66-.35-26.49.03-8.83.1-17.66.33-26.49.22-8.84.57-17.68,1.21-26.49Z" fill="none" stroke="#000" stroke-linecap="round" stroke-linejoin="round"/><path d="M353.57,250.76c-4.73,1.21-9.01,3.24-12.87,5.91-3.85,2.63-7.33,5.85-10.26,9.43-.73.9-1.34,1.82-1.98,2.83l-1.91,3.04c-1.26,2.05-2.54,4.12-3.98,6.13-.39.51-.69.98-1.18,1.52-.47.51-.98.96-1.54,1.33-1.1.76-2.27,1.3-3.49,1.66-2.44.72-4.98.8-7.38.42,2.43-.24,4.78-.75,6.86-1.76,1.03-.51,2.01-1.1,2.81-1.84.83-.73,1.34-1.55,1.97-2.61,1.19-2.04,2.32-4.17,3.49-6.28,1.18-2.11,2.33-4.28,3.91-6.32,3.08-4.01,6.96-7.26,11.3-9.75,4.37-2.43,9.33-3.95,14.24-3.7Z" fill="none" stroke="#000" stroke-linecap="round" stroke-linejoin="round"/><path d="M347.44,337.95c-1.57-.01-3.33-.5-4.85-.29-.93.12-1.83.37-2.74.5-.86.11-1.73.11-2.61.11-3.27,0-10.99,1.23-10.99-4.01,0-1.52,1-3.06,2.48-3.55,1.69-.55,4.28.37,6.04.62.85.12,1.69.25,2.55.25,3.41.01,13.9-3.95,13.9,2.66,0,1.47-1.01,3.2-2.52,3.56-.42.11-.83.15-1.26.14Z" fill="none" stroke="#000" stroke-linecap="round" stroke-linejoin="round"/><path d="M379.75,338.02c-1.19-.01-2.33-.51-3.56-.54-1.1-.03-2.12.51-3.19.79-2.69.68-5.55-.39-8.28.1-1.79.32-2.66.49-4.06-.65-1.16-.94-2.11-1.8-2.11-3.42,0-1.75,1.21-3.26,2.88-3.67,2.22-.57,3.23.53,5.3.97,1.15.25,2.32-.24,3.45-.53,1.52-.39,3.13-.44,4.69-.15.51.1,1.03.24,1.55.28,1.83.14,3.26-1.15,5-.29,1.28.64,2.11,1.97,2.11,3.38,0,1.58-1.05,3.11-2.58,3.58-.43.12-.82.17-1.21.17Z" fill="none" stroke="#000" stroke-linecap="round" stroke-linejoin="round"/><path d="M371.31,320.29c-2.25.11-4.98-.61-6.6-.68-1.95-.08-3.87.61-5.82.83-3.11.33-6.21-.55-9.34-.55-3.66.01-14.89,3.47-14.89-3.23,0-4.19,3.81-3.31,6.5-2.81,2.68.5,5.39-.85,8.1-.6,1.46.14,2.83.72,4.28.87,2.66.26,5.27-.97,7.93-.91.83.01,1.65.17,2.48.22,1.32.1,2.63-.03,3.92-.25,1.11-.18,2.41-.76,3.54-.6,1.93.28,3.65,2.12,3.65,4.06.04,2.74-1.65,3.55-3.74,3.65Z" fill="none" stroke="#000" stroke-linecap="round" stroke-linejoin="round"/><path d="M381.42,330.88c-1.75-.86-3.19.43-5,.29-.53-.04-1.04-.18-1.55-.28-1.55-.29-3.16-.24-4.69.15-1.14.29-2.3.78-3.45.53-2.07-.44-3.08-1.54-5.3-.97-1.25.32-2.23,1.23-2.66,2.4.39-.28.82-.5,1.29-.61,2.22-.57,3.23.53,5.3.97,1.15.25,2.32-.24,3.45-.53,1.52-.39,3.13-.44,4.69-.15.51.1,1.03.24,1.55.28,1.83.14,3.26-1.15,5-.29,1.28.64,2.11,1.97,2.11,3.38,0,.44-.1.89-.25,1.3.98-.69,1.62-1.87,1.62-3.09,0-1.43-.83-2.76-2.11-3.38Z" fill="none" stroke="#000" stroke-linecap="round" stroke-linejoin="round"/><path d="M337.31,331.6c-.86,0-1.71-.12-2.55-.25-1.76-.25-4.34-1.18-6.04-.62-1.05.35-1.84,1.22-2.23,2.23.26-.18.54-.35.86-.44,1.69-.55,4.28.37,6.04.62.85.12,1.69.25,2.55.25,3.41.01,13.9-3.95,13.9,2.66,0,.44-.1.91-.28,1.37,1.01-.69,1.65-2,1.65-3.16,0-6.61-10.49-2.65-13.9-2.66Z" fill="none" stroke="#000" stroke-linecap="round" stroke-linejoin="round"/><path d="M371.44,312.59c-1.12-.17-2.44.42-3.54.6-1.3.22-2.62.33-3.92.25-.83-.06-1.65-.21-2.48-.22-2.68-.06-5.28,1.18-7.93.91-1.46-.15-2.83-.73-4.28-.87-2.7-.25-5.43,1.1-8.1.6-2.41-.46-5.73-1.19-6.38,1.68,1.36-.62,3.38-.19,5,.11,2.68.5,5.39-.85,8.1-.6,1.46.14,2.83.72,4.28.87,2.66.26,5.27-.97,7.93-.91.83.01,1.65.17,2.48.22,1.32.1,2.63-.03,3.92-.25,1.11-.18,2.41-.76,3.54-.6,1.93.28,3.65,2.12,3.65,4.06,0,.5-.07.93-.18,1.3.94-.51,1.55-1.46,1.55-3.09.01-1.94-1.72-3.78-3.65-4.06Z" fill="none" stroke="#000" stroke-linecap="round" stroke-linejoin="round"/><path d="M381.16,417h-103.32c-1.57,0-2.84-1.27-2.84-2.84v-18.32c0-1.57,1.27-2.84,2.84-2.84h103.32c1.57,0,2.84,1.27,2.84,2.84v18.32c0,1.57-1.27,2.84-2.84,2.84Z" fill="none" stroke="#000" stroke-linecap="round" stroke-linejoin="round"/><path d="M403.44,417h-103.87c-1.42,0-2.56-1.15-2.56-2.56v-18.87c0-1.42,1.15-2.56,2.56-2.56h103.87c1.42,0,2.56,1.15,2.56,2.56v18.87c0,1.42-1.15,2.56-2.56,2.56Z" fill="none" stroke="#000" stroke-linecap="round" stroke-linejoin="round"/><path d="M296.92,395.99c-.1-1.18.62-2.43,1.8-2.93.58-.28,1.26-.26,1.82-.29l1.76-.1,7.03-.33c4.69-.18,9.37-.35,14.06-.46,9.37-.25,18.74-.32,28.13-.35,9.37.03,18.74.1,28.13.35,4.69.11,9.37.28,14.06.46l7.03.33,1.76.1c.55.04,1.23.01,1.82.29,1.18.51,1.9,1.75,1.8,2.93-.07-1.19-.93-2.2-1.97-2.5-.51-.18-1.05-.1-1.65-.07l-1.76.1-7.03.33c-4.69.18-9.37.35-14.06.46-9.37.25-18.74.32-28.13.35-9.37-.03-18.74-.1-28.13-.35-4.69-.11-9.37-.28-14.06-.46l-7.03-.33-1.76-.1c-.61-.03-1.14-.11-1.65.07-1.04.29-1.9,1.3-1.97,2.5Z" fill="none" stroke="#000" stroke-linecap="round" stroke-linejoin="round"/><text transform="translate(337.14 300.14)" fill="#777" font-family="ComicNeue-Bold, &apos;Comic Neue&apos;" font-size="21.29" font-weight="700"><tspan x="0" y="0">Bob</tspan></text><path d="M122.14,404.63s-.15-1.45,1.22-2.1c.96-.45,2.06-.31,2.21-.47.31-.32-.14-1.19-1.11-1.34-.67-.11-1.52.09-1.52.09,0,0,.3-.89.79-1.28s1.17-.61,1.09-.83c-.33-.96-2.12-.63-3.1-.07-2.2,1.25-2.32,2.7-2.32,2.7,0,0-.39-.2-.95-.87-.57-.67-2.07-2.75-2.49-2.11-.49.72-.31,2.23.09,3.2.41.97.76,1.46.76,1.46,0,0-1.17-.48-2.66-.08-1.81.49-2.69,2.13-1.92,3.2.29.4.79-.47,2.35-.82.54-.12,1.47.16,1.47.16,0,0-.67.68-.53,2.12.11,1.11,1.2,1.96,1.99,1.74.19-.06-.28-1.55.53-2.47.43-.49,1.23-.72,2.42-.51.45.08,2.07.38,2.07.38,0,0-.18-1.09-.38-2.11Z" fill="#738136"/><path d="M119.58,405.71c.86,3.07,2.05,6.3,3.58,8.98,1.54,2.69,3.74,6.36,6.2,11.57,1.84,3.91,3.01,7.4,3.37,9.05.52,2.38,1.02,6.31,1.02,6.31,0,0,.73.8,2.2.29.93-.32,1.01-1.08,1.01-1.08,0,0-.43-3.96-2.52-10-2.09-6.05-6.09-12.99-7.82-15.78s-3.79-6.76-4.48-11.2l-2.56,1.85Z" fill="#748138"/><path d="M93.93,388.13h0c.26,3.03,2.92,5.27,5.95,5.01l14.38-1.23-1.23-14.38c-.26-3.03-2.92-5.27-5.95-5.01h0c-7.94.68-13.83,7.67-13.15,15.62Z" fill="#ff5a5a"/><path d="M94.87,399.09h0c-.26-3.03,1.98-5.69,5.01-5.95l14.38-1.23,1.23,14.38c.26,3.03-1.98,5.69-5.01,5.95h0c-7.94.68-14.94-5.21-15.62-13.15Z" fill="#ff464b"/><path d="M134.6,395.69h0c-.26-3.03-2.92-5.27-5.95-5.01l-14.38,1.23,1.23,14.38c.26,3.03,2.92,5.27,5.95,5.01h0c7.94-.68,13.83-7.67,13.15-15.62Z" fill="#ff5a5a"/><path d="M133.66,384.73h0c.26,3.03-1.98,5.69-5.01,5.95l-14.38,1.23-1.23-14.38c-.26-3.03,1.98-5.69,5.01-5.95h0c7.94-.68,14.94,5.21,15.62,13.15Z" fill="#ff464b"/><path d="M122.48,391.21c-.39-4.54-4.38-7.91-8.92-7.52l.7,8.22,8.22-.7Z" fill="#ff8c4e"/><path d="M114.97,400.13c4.54-.39,7.91-4.38,7.52-8.92l-8.22.7.7,8.22Z" fill="#ffa555"/><path d="M106.04,392.61c.39,4.54,4.38,7.91,8.92,7.52l-.7-8.22-8.22.7Z" fill="#ff8c4e"/><path d="M113.56,383.69c-4.54.39-7.91,4.38-7.52,8.92l8.22-.7-.7-8.22Z" fill="#ffa555"/><path d="M123.89,402.49c.28-.26.3-.69.05-.97l-5.69-6.25,7.13,4.55c.32.2.75.11.95-.21.2-.32.11-.74-.21-.95l-11.4-7.27-9.1-10c-.26-.28-.69-.3-.97-.05-.16.15-.24.36-.22.57.01.14.07.29.18.4l5.69,6.25-7.13-4.55c-.32-.2-.75-.11-.95.21-.08.13-.12.28-.11.43.02.21.13.4.32.52l11.4,7.27,9.1,10c.26.28.69.3.97.05Z" fill="#d7464b"/><path d="M107.53,403.76l7.27-11.4,10-9.1c.28-.26.3-.69.05-.97-.26-.28-.69-.3-.97-.05l-6.25,5.69,4.55-7.13c.21-.32.11-.75-.21-.95-.32-.2-.75-.11-.95.21l-7.27,11.4-10,9.1c-.16.15-.24.36-.22.57.01.15.07.29.18.4.26.28.69.3.97.05l6.25-5.69-4.55,7.13c-.08.13-.12.28-.11.43.02.21.13.4.32.52.32.2.75.11.95-.21Z" fill="#cd4146"/><path d="M114.79,398.07c.92-.08,1.64-.76,1.83-1.62.81.34,1.78.15,2.38-.56s.63-1.7.15-2.44c.81-.33,1.36-1.16,1.28-2.08s-.76-1.64-1.62-1.83c.34-.81.15-1.78-.56-2.38s-1.7-.63-2.44-.15c-.33-.81-1.16-1.36-2.08-1.28s-1.64.76-1.83,1.62c-.81-.34-1.78-.15-2.38.56s-.63,1.7-.15,2.44c-.81.33-1.36,1.16-1.28,2.08s.76,1.64,1.62,1.83c-.34.81-.15,1.78.56,2.38s1.7.63,2.44.15c.33.81,1.16,1.36,2.08,1.28Z" fill="#91323c"/><path d="M110.15,392.26c-.19-2.27,1.49-4.27,3.76-4.46,2.27-.19,4.27,1.49,4.46,3.76.19,2.27-1.49,4.27-3.76,4.46-2.27.19-4.27-1.49-4.46-3.76ZM117,391.67c-.13-1.51-1.46-2.63-2.97-2.51-1.51.13-2.63,1.46-2.51,2.97s1.46,2.63,2.97,2.51,2.63-1.46,2.51-2.97Z" fill="#af3a41"/><path d="M187.68,402.63s-.3-1.43-1.8-1.63c-1.05-.14-2.06.33-2.25.23-.4-.21-.22-1.18.65-1.62.6-.3,1.48-.38,1.48-.38,0,0-.56-.76-1.15-.98s-1.3-.22-1.29-.46c.02-1.01,1.83-1.25,2.93-1.02,2.47.52,3.04,1.86,3.04,1.86,0,0,.31-.31.65-1.12.33-.81,1.13-3.25,1.73-2.77.68.53.98,2.03.89,3.07-.09,1.05-.28,1.62-.28,1.62,0,0,.97-.81,2.51-.88,1.87-.08,3.21,1.21,2.8,2.47-.15.47-.9-.2-2.49-.06-.55.05-1.35.6-1.35.6,0,0,.85.44,1.15,1.86.23,1.09-.55,2.23-1.37,2.26-.2,0-.21-1.56-1.26-2.19-.56-.34-1.39-.32-2.46.25-.4.22-1.85,1-1.85,1,0,0-.16-1.1-.28-2.13Z" fill="#738136"/><path d="M190.45,402.89c.12,3.18-.04,6.62-.68,9.65-.64,3.03-1.63,7.19-2.38,12.91-.57,4.28-.61,7.97-.45,9.65.23,2.42.95,6.32.95,6.32,0,0-.45.98-2,.95-.99-.02-1.29-.72-1.29-.72,0,0-.8-3.9-.64-10.29.15-6.4,1.85-14.23,2.65-17.41s1.56-7.6.86-12.03l3,.98Z" fill="#748138"/><path d="M187.09,408.37h0c-2.7-1.39-3.77-4.7-2.38-7.41l6.6-12.84,12.84,6.6c2.7,1.39,3.77,4.7,2.38,7.41h0c-3.64,7.09-12.35,9.89-19.44,6.24Z" fill="#ff5a5a"/><path d="M177.31,403.34h0c2.7,1.39,6.02.32,7.41-2.38l6.6-12.84-12.84-6.6c-2.7-1.39-6.02-.32-7.41,2.38h0c-3.64,7.09-.85,15.8,6.24,19.44Z" fill="#ff464b"/><path d="M195.54,367.87h0c2.7,1.39,3.77,4.7,2.38,7.41l-6.6,12.84-12.84-6.6c-2.7-1.39-3.77-4.7-2.38-7.41h0c3.64-7.09,12.35-9.89,19.44-6.24Z" fill="#ff5a5a"/><path d="M205.32,372.9h0c-2.7-1.39-6.02-.32-7.41,2.38l-6.6,12.84,12.84,6.6c2.7,1.39,6.02.32,7.41-2.38h0c3.64-7.09.85-15.8-6.24-19.44Z" fill="#ff464b"/><path d="M195.09,380.78c4.05,2.08,5.65,7.06,3.57,11.11l-7.34-3.77,3.77-7.34Z" fill="#ff8c4e"/><path d="M183.98,384.35c2.08-4.05,7.06-5.65,11.11-3.57l-3.77,7.34-7.34-3.77Z" fill="#ffa555"/><path d="M187.54,395.46c-4.05-2.08-5.65-7.06-3.57-11.11l7.34,3.77-3.77,7.34Z" fill="#ff8c4e"/><path d="M198.65,391.89c-2.08,4.05-7.06,5.65-11.11,3.57l3.77-7.34,7.34,3.77Z" fill="#ffa555"/><path d="M185.18,375.2c.34-.16.75-.02.92.33l3.63,7.64-1.5-8.32c-.07-.37.18-.73.55-.8.37-.07.73.18.8.55l2.4,13.31,5.8,12.21c.16.34.02.75-.33.92-.2.1-.43.08-.61,0-.13-.07-.24-.17-.31-.32l-3.63-7.64,1.5,8.32c.07.37-.18.73-.55.8-.15.03-.31,0-.44-.06-.18-.09-.32-.27-.36-.49l-2.4-13.31-5.8-12.21c-.16-.34-.02-.75.33-.92Z" fill="#d7464b"/><path d="M177.8,389.86l13.31-2.4,12.21-5.8c.34-.16.75-.02.92.33.16.34.02.75-.33.92l-7.64,3.63,8.32-1.5c.37-.07.73.18.8.55.07.37-.18.73-.55.8l-13.31,2.4-12.21,5.8c-.2.1-.43.08-.61,0-.13-.07-.24-.17-.31-.32-.16-.34-.02-.75.33-.92l7.64-3.63-8.32,1.5c-.15.03-.31,0-.44-.06-.18-.09-.32-.27-.36-.49-.07-.37.18-.73.55-.8Z" fill="#cd4146"/><path d="M185.81,385.29c.42-.82,1.32-1.23,2.19-1.08,0-.88.54-1.7,1.42-1.98s1.81.07,2.31.79c.62-.63,1.59-.82,2.41-.4s1.23,1.32,1.08,2.19c.88,0,1.7.54,1.98,1.42s-.07,1.81-.79,2.31c.63.62.82,1.59.4,2.41s-1.32,1.23-2.19,1.08c0,.88-.54,1.7-1.42,1.98s-1.81-.07-2.31-.79c-.62.63-1.59.82-2.41.4-.82-.42-1.23-1.32-1.08-2.19-.88,0-1.7-.54-1.98-1.42s.06-1.81.78-2.31c-.63-.62-.82-1.59-.4-2.41Z" fill="#91323c"/><path d="M189.43,391.79c2.02,1.04,4.51.24,5.55-1.78,1.04-2.02.24-4.51-1.78-5.55s-4.51-.24-5.55,1.78-.24,4.51,1.78,5.55ZM192.57,385.68c1.35.69,1.88,2.35,1.19,3.7s-2.35,1.88-3.7,1.19-1.88-2.35-1.19-3.7,2.35-1.88,3.7-1.19Z" fill="#af3a41"/><path d="M152.93,360.55s-.3-2.93-1.8-3.35c-1.05-.29-2.06.68-2.25.47-.4-.43-.22-2.41.65-3.32.6-.63,1.48-.77,1.48-.77,0,0-.56-1.56-1.15-2.01s-1.3-.46-1.29-.95c.02-2.08,1.83-2.56,2.93-2.08,2.47,1.07,3.04,3.83,3.04,3.83,0,0,.31-.63.65-2.29.33-1.67,1.13-6.67,1.73-5.69.68,1.1.98,4.17.89,6.31-.09,2.16-.28,3.33-.28,3.33,0,0,.97-1.67,2.51-1.81,1.87-.17,3.21,2.49,2.8,5.06-.15.96-.9-.42-2.49-.13-.55.1-1.35,1.24-1.35,1.24,0,0,.85.9,1.15,3.82.23,2.24-.55,4.59-1.37,4.64-.2.01-.21-3.2-1.26-4.5-.56-.69-1.39-.65-2.46.52-.4.44-1.85,2.04-1.85,2.04,0,0-.16-2.25-.28-4.37Z" fill="#738136"/><path d="M155.7,361.07c.12,6.54-.04,13.6-.68,19.81-.64,6.22-1.63,14.77-2.38,26.5-.57,8.79-.61,16.36-.45,19.81.23,4.97.95,12.97.95,12.97,0,0-.45,2.02-2,1.94-.99-.05-1.29-1.48-1.29-1.48,0,0-.8-8-.64-21.14.15-13.13,1.85-29.22,2.65-35.75.8-6.53,1.56-15.6.86-24.7l3,2.01Z" fill="#748138"/><path d="M156.05,382.07h0c-3.02-.3-5.23-3-4.92-6.02l1.44-14.37,14.37,1.44c3.02.3,5.23,3,4.92,6.02h0c-.79,7.93-7.87,13.72-15.8,12.93Z" fill="#ff5a5a"/><path d="M145.11,380.97h0c3.02.3,5.72-1.9,6.02-4.92l1.44-14.37-14.37-1.44c-3.02-.3-5.72,1.9-6.02,4.92h0c-.79,7.93,4.99,15.01,12.93,15.8Z" fill="#ff464b"/><path d="M149.08,341.29h0c3.02.3,5.23,3,4.92,6.02l-1.44,14.37-14.37-1.44c-3.02-.3-5.23-3-4.92-6.02h0c.79-7.93,7.87-13.72,15.8-12.93Z" fill="#ff5a5a"/><path d="M160.02,342.39h0c-3.02-.3-5.72,1.9-6.02,4.92l-1.44,14.37,14.37,1.44c3.02.3,5.72-1.9,6.02-4.92h0c.79-7.93-4.99-15.01-12.93-15.8Z" fill="#ff464b"/><path d="M153.39,353.47c4.53.45,7.84,4.5,7.39,9.03l-8.21-.82.82-8.21Z" fill="#ff8c4e"/><path d="M144.36,360.86c.45-4.53,4.5-7.84,9.03-7.39l-.82,8.21-8.21-.82Z" fill="#ffa555"/><path d="M151.74,369.89c-4.53-.45-7.84-4.5-7.39-9.03l8.21.82-.82,8.21Z" fill="#ff8c4e"/><path d="M160.77,362.5c-.45,4.53-4.5,7.84-9.03,7.39l.82-8.21,8.21.82Z" fill="#ffa555"/><path d="M142.13,351.91c.26-.28.69-.29.97-.03l6.17,5.78-4.44-7.19c-.2-.32-.1-.75.22-.95.32-.2.75-.1.95.22l7.1,11.5,9.87,9.24c.28.26.29.69.03.97-.15.16-.36.23-.57.21-.14-.01-.29-.07-.4-.18l-6.17-5.78,4.44,7.19c.2.32.1.75-.22.95-.13.08-.28.11-.43.1-.21-.02-.4-.13-.52-.32l-7.1-11.5-9.87-9.24c-.28-.26-.29-.69-.03-.97Z" fill="#d7464b"/><path d="M140.62,368.25l11.5-7.1,9.24-9.87c.26-.28.69-.29.97-.03.28.26.29.69.03.97l-5.78,6.17,7.19-4.44c.32-.2.75-.1.95.22.2.32.1.75-.22.95l-11.5,7.1-9.24,9.87c-.15.16-.36.23-.57.21-.14-.01-.29-.07-.4-.18-.28-.26-.29-.69-.03-.97l5.78-6.17-7.19,4.44c-.13.08-.28.11-.43.1-.21-.02-.4-.13-.52-.32-.2-.32-.1-.75.22-.95Z" fill="#cd4146"/><path d="M146.41,361.06c.09-.92.78-1.63,1.64-1.81-.33-.82-.12-1.78.6-2.37s1.7-.6,2.44-.12c.34-.81,1.17-1.34,2.1-1.25s1.63.78,1.81,1.64c.82-.33,1.78-.12,2.37.6s.6,1.7.12,2.44c.81.34,1.34,1.17,1.25,2.1s-.78,1.63-1.64,1.81c.33.82.12,1.78-.6,2.37s-1.7.6-2.44.12c-.34.81-1.17,1.34-2.1,1.25s-1.63-.78-1.81-1.64c-.82.33-1.78.12-2.37-.6s-.6-1.7-.12-2.44c-.81-.34-1.34-1.17-1.25-2.1Z" fill="#91323c"/><path d="M152.16,365.79c2.26.23,4.29-1.43,4.52-3.69.23-2.26-1.43-4.29-3.69-4.52s-4.29,1.43-4.52,3.69c-.23,2.26,1.43,4.29,3.69,4.52ZM152.84,358.94c1.51.15,2.61,1.5,2.46,3.01s-1.5,2.61-3.01,2.46c-1.51-.15-2.61-1.5-2.46-3.01s1.5-2.61,3.01-2.46Z" fill="#af3a41"/><path d="M122.14,404.63s-.15-1.45,1.22-2.1c.96-.45,2.06-.31,2.21-.47.31-.32-.14-1.19-1.11-1.34-.67-.11-1.52.09-1.52.09,0,0,.3-.89.79-1.28s1.17-.61,1.09-.83c-.33-.96-2.12-.63-3.1-.07-2.2,1.25-2.32,2.7-2.32,2.7,0,0-.39-.2-.95-.87-.57-.67-2.07-2.75-2.49-2.11-.49.72-.31,2.23.09,3.2.41.97.76,1.46.76,1.46,0,0-1.17-.48-2.66-.08-1.81.49-2.69,2.13-1.92,3.2.29.4.79-.47,2.35-.82.54-.12,1.47.16,1.47.16,0,0-.67.68-.53,2.12.11,1.11,1.2,1.96,1.99,1.74.19-.06-.28-1.55.53-2.47.43-.49,1.23-.72,2.42-.51.45.08,2.07.38,2.07.38,0,0-.18-1.09-.38-2.11Z" fill="none" stroke="#000" stroke-linecap="round" stroke-linejoin="round"/><path d="M119.58,405.71c.86,3.07,2.05,6.3,3.58,8.98,1.54,2.69,3.74,6.36,6.2,11.57,1.84,3.91,3.01,7.4,3.37,9.05.52,2.38,1.02,6.31,1.02,6.31,0,0,.73.8,2.2.29.93-.32,1.01-1.08,1.01-1.08,0,0-.43-3.96-2.52-10-2.09-6.05-6.09-12.99-7.82-15.78s-3.79-6.76-4.48-11.2l-2.56,1.85Z" fill="none" stroke="#000" stroke-linecap="round" stroke-linejoin="round"/><path d="M93.93,388.13h0c.26,3.03,2.92,5.27,5.95,5.01l14.38-1.23-1.23-14.38c-.26-3.03-2.92-5.27-5.95-5.01h0c-7.94.68-13.83,7.67-13.15,15.62Z" fill="none" stroke="#000" stroke-linecap="round" stroke-linejoin="round"/><path d="M94.87,399.09h0c-.26-3.03,1.98-5.69,5.01-5.95l14.38-1.23,1.23,14.38c.26,3.03-1.98,5.69-5.01,5.95h0c-7.94.68-14.94-5.21-15.62-13.15Z" fill="none" stroke="#000" stroke-linecap="round" stroke-linejoin="round"/><path d="M134.6,395.69h0c-.26-3.03-2.92-5.27-5.95-5.01l-14.38,1.23,1.23,14.38c.26,3.03,2.92,5.27,5.95,5.01h0c7.94-.68,13.83-7.67,13.15-15.62Z" fill="none" stroke="#000" stroke-linecap="round" stroke-linejoin="round"/><path d="M133.66,384.73h0c.26,3.03-1.98,5.69-5.01,5.95l-14.38,1.23-1.23-14.38c-.26-3.03,1.98-5.69,5.01-5.95h0c7.94-.68,14.94,5.21,15.62,13.15Z" fill="none" stroke="#000" stroke-linecap="round" stroke-linejoin="round"/><path d="M122.48,391.21c-.39-4.54-4.38-7.91-8.92-7.52l.7,8.22,8.22-.7Z" fill="none" stroke="#000" stroke-linecap="round" stroke-linejoin="round"/><path d="M114.97,400.13c4.54-.39,7.91-4.38,7.52-8.92l-8.22.7.7,8.22Z" fill="none" stroke="#000" stroke-linecap="round" stroke-linejoin="round"/><path d="M106.04,392.61c.39,4.54,4.38,7.91,8.92,7.52l-.7-8.22-8.22.7Z" fill="none" stroke="#000" stroke-linecap="round" stroke-linejoin="round"/><path d="M113.56,383.69c-4.54.39-7.91,4.38-7.52,8.92l8.22-.7-.7-8.22Z" fill="none" stroke="#000" stroke-linecap="round" stroke-linejoin="round"/><path d="M123.89,402.49c.28-.26.3-.69.05-.97l-5.69-6.25,7.13,4.55c.32.2.75.11.95-.21.2-.32.11-.74-.21-.95l-11.4-7.27-9.1-10c-.26-.28-.69-.3-.97-.05-.16.15-.24.36-.22.57.01.14.07.29.18.4l5.69,6.25-7.13-4.55c-.32-.2-.75-.11-.95.21-.08.13-.12.28-.11.43.02.21.13.4.32.52l11.4,7.27,9.1,10c.26.28.69.3.97.05Z" fill="none" stroke="#000" stroke-linecap="round" stroke-linejoin="round"/><path d="M107.53,403.76l7.27-11.4,10-9.1c.28-.26.3-.69.05-.97-.26-.28-.69-.3-.97-.05l-6.25,5.69,4.55-7.13c.21-.32.11-.75-.21-.95-.32-.2-.75-.11-.95.21l-7.27,11.4-10,9.1c-.16.15-.24.36-.22.57.01.15.07.29.18.4.26.28.69.3.97.05l6.25-5.69-4.55,7.13c-.08.13-.12.28-.11.43.02.21.13.4.32.52.32.2.75.11.95-.21Z" fill="none" stroke="#000" stroke-linecap="round" stroke-linejoin="round"/><path d="M114.79,398.07c.92-.08,1.64-.76,1.83-1.62.81.34,1.78.15,2.38-.56s.63-1.7.15-2.44c.81-.33,1.36-1.16,1.28-2.08s-.76-1.64-1.62-1.83c.34-.81.15-1.78-.56-2.38s-1.7-.63-2.44-.15c-.33-.81-1.16-1.36-2.08-1.28s-1.64.76-1.83,1.62c-.81-.34-1.78-.15-2.38.56s-.63,1.7-.15,2.44c-.81.33-1.36,1.16-1.28,2.08s.76,1.64,1.62,1.83c-.34.81-.15,1.78.56,2.38s1.7.63,2.44.15c.33.81,1.16,1.36,2.08,1.28Z" fill="none" stroke="#000" stroke-linecap="round" stroke-linejoin="round"/><path d="M110.15,392.26c-.19-2.27,1.49-4.27,3.76-4.46,2.27-.19,4.27,1.49,4.46,3.76.19,2.27-1.49,4.27-3.76,4.46-2.27.19-4.27-1.49-4.46-3.76ZM117,391.67c-.13-1.51-1.46-2.63-2.97-2.51-1.51.13-2.63,1.46-2.51,2.97s1.46,2.63,2.97,2.51,2.63-1.46,2.51-2.97Z" fill="none" stroke="#000" stroke-linecap="round" stroke-linejoin="round"/><path d="M187.68,402.63s-.3-1.43-1.8-1.63c-1.05-.14-2.06.33-2.25.23-.4-.21-.22-1.18.65-1.62.6-.3,1.48-.38,1.48-.38,0,0-.56-.76-1.15-.98s-1.3-.22-1.29-.46c.02-1.01,1.83-1.25,2.93-1.02,2.47.52,3.04,1.86,3.04,1.86,0,0,.31-.31.65-1.12.33-.81,1.13-3.25,1.73-2.77.68.53.98,2.03.89,3.07-.09,1.05-.28,1.62-.28,1.62,0,0,.97-.81,2.51-.88,1.87-.08,3.21,1.21,2.8,2.47-.15.47-.9-.2-2.49-.06-.55.05-1.35.6-1.35.6,0,0,.85.44,1.15,1.86.23,1.09-.55,2.23-1.37,2.26-.2,0-.21-1.56-1.26-2.19-.56-.34-1.39-.32-2.46.25-.4.22-1.85,1-1.85,1,0,0-.16-1.1-.28-2.13Z" fill="none" stroke="#000" stroke-linecap="round" stroke-linejoin="round"/><path d="M190.45,402.89c.12,3.18-.04,6.62-.68,9.65-.64,3.03-1.63,7.19-2.38,12.91-.57,4.28-.61,7.97-.45,9.65.23,2.42.95,6.32.95,6.32,0,0-.45.98-2,.95-.99-.02-1.29-.72-1.29-.72,0,0-.8-3.9-.64-10.29.15-6.4,1.85-14.23,2.65-17.41s1.56-7.6.86-12.03l3,.98Z" fill="none" stroke="#000" stroke-linecap="round" stroke-linejoin="round"/><path d="M187.09,408.37h0c-2.7-1.39-3.77-4.7-2.38-7.41l6.6-12.84,12.84,6.6c2.7,1.39,3.77,4.7,2.38,7.41h0c-3.64,7.09-12.35,9.89-19.44,6.24Z" fill="none" stroke="#000" stroke-linecap="round" stroke-linejoin="round"/><path d="M177.31,403.34h0c2.7,1.39,6.02.32,7.41-2.38l6.6-12.84-12.84-6.6c-2.7-1.39-6.02-.32-7.41,2.38h0c-3.64,7.09-.85,15.8,6.24,19.44Z" fill="none" stroke="#000" stroke-linecap="round" stroke-linejoin="round"/><path d="M195.54,367.87h0c2.7,1.39,3.77,4.7,2.38,7.41l-6.6,12.84-12.84-6.6c-2.7-1.39-3.77-4.7-2.38-7.41h0c3.64-7.09,12.35-9.89,19.44-6.24Z" fill="none" stroke="#000" stroke-linecap="round" stroke-linejoin="round"/><path d="M205.32,372.9h0c-2.7-1.39-6.02-.32-7.41,2.38l-6.6,12.84,12.84,6.6c2.7,1.39,6.02.32,7.41-2.38h0c3.64-7.09.85-15.8-6.24-19.44Z" fill="none" stroke="#000" stroke-linecap="round" stroke-linejoin="round"/><path d="M195.09,380.78c4.05,2.08,5.65,7.06,3.57,11.11l-7.34-3.77,3.77-7.34Z" fill="none" stroke="#000" stroke-linecap="round" stroke-linejoin="round"/><path d="M183.98,384.35c2.08-4.05,7.06-5.65,11.11-3.57l-3.77,7.34-7.34-3.77Z" fill="none" stroke="#000" stroke-linecap="round" stroke-linejoin="round"/><path d="M187.54,395.46c-4.05-2.08-5.65-7.06-3.57-11.11l7.34,3.77-3.77,7.34Z" fill="none" stroke="#000" stroke-linecap="round" stroke-linejoin="round"/><path d="M198.65,391.89c-2.08,4.05-7.06,5.65-11.11,3.57l3.77-7.34,7.34,3.77Z" fill="none" stroke="#000" stroke-linecap="round" stroke-linejoin="round"/><path d="M185.18,375.2c.34-.16.75-.02.92.33l3.63,7.64-1.5-8.32c-.07-.37.18-.73.55-.8.37-.07.73.18.8.55l2.4,13.31,5.8,12.21c.16.34.02.75-.33.92-.2.1-.43.08-.61,0-.13-.07-.24-.17-.31-.32l-3.63-7.64,1.5,8.32c.07.37-.18.73-.55.8-.15.03-.31,0-.44-.06-.18-.09-.32-.27-.36-.49l-2.4-13.31-5.8-12.21c-.16-.34-.02-.75.33-.92Z" fill="none" stroke="#000" stroke-linecap="round" stroke-linejoin="round"/><path d="M177.8,389.86l13.31-2.4,12.21-5.8c.34-.16.75-.02.92.33.16.34.02.75-.33.92l-7.64,3.63,8.32-1.5c.37-.07.73.18.8.55.07.37-.18.73-.55.8l-13.31,2.4-12.21,5.8c-.2.1-.43.08-.61,0-.13-.07-.24-.17-.31-.32-.16-.34-.02-.75.33-.92l7.64-3.63-8.32,1.5c-.15.03-.31,0-.44-.06-.18-.09-.32-.27-.36-.49-.07-.37.18-.73.55-.8Z" fill="none" stroke="#000" stroke-linecap="round" stroke-linejoin="round"/><path d="M185.81,385.29c.42-.82,1.32-1.23,2.19-1.08,0-.88.54-1.7,1.42-1.98s1.81.07,2.31.79c.62-.63,1.59-.82,2.41-.4s1.23,1.32,1.08,2.19c.88,0,1.7.54,1.98,1.42s-.07,1.81-.79,2.31c.63.62.82,1.59.4,2.41s-1.32,1.23-2.19,1.08c0,.88-.54,1.7-1.42,1.98s-1.81-.07-2.31-.79c-.62.63-1.59.82-2.41.4-.82-.42-1.23-1.32-1.08-2.19-.88,0-1.7-.54-1.98-1.42s.06-1.81.78-2.31c-.63-.62-.82-1.59-.4-2.41Z" fill="none" stroke="#000" stroke-linecap="round" stroke-linejoin="round"/><path d="M189.43,391.79c2.02,1.04,4.51.24,5.55-1.78,1.04-2.02.24-4.51-1.78-5.55s-4.51-.24-5.55,1.78-.24,4.51,1.78,5.55ZM192.57,385.68c1.35.69,1.88,2.35,1.19,3.7s-2.35,1.88-3.7,1.19-1.88-2.35-1.19-3.7,2.35-1.88,3.7-1.19Z" fill="none" stroke="#000" stroke-linecap="round" stroke-linejoin="round"/><path d="M152.93,360.55s-.3-2.93-1.8-3.35c-1.05-.29-2.06.68-2.25.47-.4-.43-.22-2.41.65-3.32.6-.63,1.48-.77,1.48-.77,0,0-.56-1.56-1.15-2.01s-1.3-.46-1.29-.95c.02-2.08,1.83-2.56,2.93-2.08,2.47,1.07,3.04,3.83,3.04,3.83,0,0,.31-.63.65-2.29.33-1.67,1.13-6.67,1.73-5.69.68,1.1.98,4.17.89,6.31-.09,2.16-.28,3.33-.28,3.33,0,0,.97-1.67,2.51-1.81,1.87-.17,3.21,2.49,2.8,5.06-.15.96-.9-.42-2.49-.13-.55.1-1.35,1.24-1.35,1.24,0,0,.85.9,1.15,3.82.23,2.24-.55,4.59-1.37,4.64-.2.01-.21-3.2-1.26-4.5-.56-.69-1.39-.65-2.46.52-.4.44-1.85,2.04-1.85,2.04,0,0-.16-2.25-.28-4.37Z" fill="none" stroke="#000" stroke-linecap="round" stroke-linejoin="round"/><path d="M155.7,361.07c.12,6.54-.04,13.6-.68,19.81-.64,6.22-1.63,14.77-2.38,26.5-.57,8.79-.61,16.36-.45,19.81.23,4.97.95,12.97.95,12.97,0,0-.45,2.02-2,1.94-.99-.05-1.29-1.48-1.29-1.48,0,0-.8-8-.64-21.14.15-13.13,1.85-29.22,2.65-35.75.8-6.53,1.56-15.6.86-24.7l3,2.01Z" fill="none" stroke="#000" stroke-linecap="round" stroke-linejoin="round"/><path d="M156.05,382.07h0c-3.02-.3-5.23-3-4.92-6.02l1.44-14.37,14.37,1.44c3.02.3,5.23,3,4.92,6.02h0c-.79,7.93-7.87,13.72-15.8,12.93Z" fill="none" stroke="#000" stroke-linecap="round" stroke-linejoin="round"/><path d="M145.11,380.97h0c3.02.3,5.72-1.9,6.02-4.92l1.44-14.37-14.37-1.44c-3.02-.3-5.72,1.9-6.02,4.92h0c-.79,7.93,4.99,15.01,12.93,15.8Z" fill="none" stroke="#000" stroke-linecap="round" stroke-linejoin="round"/><path d="M149.08,341.29h0c3.02.3,5.23,3,4.92,6.02l-1.44,14.37-14.37-1.44c-3.02-.3-5.23-3-4.92-6.02h0c.79-7.93,7.87-13.72,15.8-12.93Z" fill="none" stroke="#000" stroke-linecap="round" stroke-linejoin="round"/><path d="M160.02,342.39h0c-3.02-.3-5.72,1.9-6.02,4.92l-1.44,14.37,14.37,1.44c3.02.3,5.72-1.9,6.02-4.92h0c.79-7.93-4.99-15.01-12.93-15.8Z" fill="none" stroke="#000" stroke-linecap="round" stroke-linejoin="round"/><path d="M153.39,353.47c4.53.45,7.84,4.5,7.39,9.03l-8.21-.82.82-8.21Z" fill="none" stroke="#000" stroke-linecap="round" stroke-linejoin="round"/><path d="M144.36,360.86c.45-4.53,4.5-7.84,9.03-7.39l-.82,8.21-8.21-.82Z" fill="none" stroke="#000" stroke-linecap="round" stroke-linejoin="round"/><path d="M151.74,369.89c-4.53-.45-7.84-4.5-7.39-9.03l8.21.82-.82,8.21Z" fill="none" stroke="#000" stroke-linecap="round" stroke-linejoin="round"/><path d="M160.77,362.5c-.45,4.53-4.5,7.84-9.03,7.39l.82-8.21,8.21.82Z" fill="none" stroke="#000" stroke-linecap="round" stroke-linejoin="round"/><path d="M142.13,351.91c.26-.28.69-.29.97-.03l6.17,5.78-4.44-7.19c-.2-.32-.1-.75.22-.95.32-.2.75-.1.95.22l7.1,11.5,9.87,9.24c.28.26.29.69.03.97-.15.16-.36.23-.57.21-.14-.01-.29-.07-.4-.18l-6.17-5.78,4.44,7.19c.2.32.1.75-.22.95-.13.08-.28.11-.43.1-.21-.02-.4-.13-.52-.32l-7.1-11.5-9.87-9.24c-.28-.26-.29-.69-.03-.97Z" fill="none" stroke="#000" stroke-linecap="round" stroke-linejoin="round"/><path d="M140.62,368.25l11.5-7.1,9.24-9.87c.26-.28.69-.29.97-.03.28.26.29.69.03.97l-5.78,6.17,7.19-4.44c.32-.2.75-.1.95.22.2.32.1.75-.22.95l-11.5,7.1-9.24,9.87c-.15.16-.36.23-.57.21-.14-.01-.29-.07-.4-.18-.28-.26-.29-.69-.03-.97l5.78-6.17-7.19,4.44c-.13.08-.28.11-.43.1-.21-.02-.4-.13-.52-.32-.2-.32-.1-.75.22-.95Z" fill="none" stroke="#000" stroke-linecap="round" stroke-linejoin="round"/><path d="M146.41,361.06c.09-.92.78-1.63,1.64-1.81-.33-.82-.12-1.78.6-2.37s1.7-.6,2.44-.12c.34-.81,1.17-1.34,2.1-1.25s1.63.78,1.81,1.64c.82-.33,1.78-.12,2.37.6s.6,1.7.12,2.44c.81.34,1.34,1.17,1.25,2.1s-.78,1.63-1.64,1.81c.33.82.12,1.78-.6,2.37s-1.7.6-2.44.12c-.34.81-1.17,1.34-2.1,1.25s-1.63-.78-1.81-1.64c-.82.33-1.78.12-2.37-.6s-.6-1.7-.12-2.44c-.81-.34-1.34-1.17-1.25-2.1Z" fill="none" stroke="#000" stroke-linecap="round" stroke-linejoin="round"/><path d="M152.16,365.79c2.26.23,4.29-1.43,4.52-3.69.23-2.26-1.43-4.29-3.69-4.52s-4.29,1.43-4.52,3.69c-.23,2.26,1.43,4.29,3.69,4.52ZM152.84,358.94c1.51.15,2.61,1.5,2.46,3.01s-1.5,2.61-3.01,2.46c-1.51-.15-2.61-1.5-2.46-3.01s1.5-2.61,3.01-2.46Z" fill="none" stroke="#000" stroke-linecap="round" stroke-linejoin="round"/><text transform="translate(95.71 77.68)" fill="#333" font-family="ComicNeue-Regular, &apos;Comic Neue&apos;" font-size="24"><tspan x="0" y="0">At a cost no one could forget.</tspan></text></svg>