<?xml version="1.0" encoding="UTF-8"?><svg id="uuid-5486a291-b0b4-4bba-999d-a6045d6f40a5" xmlns="http://www.w3.org/2000/svg" xmlns:xlink="http://www.w3.org/1999/xlink" viewBox="0 0 500 500"><defs><linearGradient id="uuid-a603dbde-f3ea-4d4c-b151-d516827d8dad" x1="2048.349073" y1="788.908142" x2="2048.33988" y2="788.876049" gradientTransform="translate(1042.352803 2334.278466) rotate(-89.999994) scale(1 -1)" gradientUnits="userSpaceOnUse"><stop offset="0" stop-color="#ce8963"/><stop offset="1" stop-color="#d08a61" stop-opacity="0"/></linearGradient><radialGradient id="uuid-8ada800e-653b-4719-80bf-e85b4f842cfe" cx="-3533.463532" cy="691.646288" fx="-3533.463532" fy="691.646288" r="10.882116" gradientTransform="translate(653.707234 4472.228407) rotate(90.000006) scale(1.1788 .60002)" gradientUnits="userSpaceOnUse"><stop offset=".0561" stop-color="#ffa726"/><stop offset=".135" stop-color="#ffa726"/><stop offset="1" stop-color="#ffa726" stop-opacity=".1"/></radialGradient><linearGradient id="uuid-4a29be36-37f3-45cf-b720-b50d4f403d09" x1="-3993.528376" y1="802.353031" x2="-3984.528376" y2="802.353031" gradientTransform="translate(1042.352582 4295.528466) rotate(90.000006)" gradientUnits="userSpaceOnUse"><stop offset=".000359" stop-color="#8a5140"/><stop offset="1" stop-color="#8a5140"/></linearGradient></defs><text transform="translate(232.181152 403.814941)" fill="#333" font-family="ComicNeue-Regular, &apos;Comic Neue&apos;" font-size="24"><tspan x="0" y="0">It was the beginning </tspan><tspan x="0" y="28.799805">of the Great War.</tspan></text><g id="uuid-67653d48-fdea-40fc-b890-dc696b4107bd"><polygon id="uuid-5910d20e-2268-4068-b4a0-85faadcb2c83" points="424 214 410 214 410 238.97128 410 244 431 244 431 239 424 239 424 214" fill="#5f5f5f"/><rect id="uuid-5855cc4e-e94c-4466-b91f-b5bcf7bce66e" x="408" y="179" width="18.000014" height="35" fill="#727272"/><polygon id="uuid-9332b6f0-aa51-4c31-a66c-beac6b662b61" points="401.999979 214 388 214 388 239 381 239 381 244 402 244 402 238.97128 401.999979 238.97128 401.999979 214" fill="#5f5f5f"/><rect id="uuid-4b8b08a9-8d46-420f-bb4f-4c4121273961" x="385.999986" y="179" width="18.000027" height="35" fill="#727272"/><path id="uuid-4ef9b225-a16e-4330-ac8f-4173c6c0f82e" d="M386,108v71h40v-71h-40Z" fill="#727272"/><rect id="uuid-b426e765-4263-4e98-86c6-e68570de660a" x="386" y="149" width="40" height="12" fill="#acacac"/><rect id="uuid-b6cf49a9-1cc8-4e7b-be8a-4d855bfd76bd" x="414" y="107" width="5" height="42" fill="#acacac"/><rect id="uuid-7c353a76-d5c3-4611-96be-cb444e275d77" x="393" y="107" width="5" height="42" fill="#acacac"/><path id="uuid-cc2d40fe-ae17-4b1a-829f-a67873d3c2b5" d="M425.11673,100c1.423211-3.810436,2.227872-8.103682,2.227872-12.649544,0-15.696626-9.543481-28.421283-21.315962-28.421283s-21.315962,12.724656-21.315962,28.421283c0,4.545861.804661,8.839107,2.227872,12.649544h38.17618Z" fill="#ccc"/><path id="uuid-ccc0a7bc-c3e6-49a6-925c-7fb6cb0a0dd3" d="M388.04629,103c3.784134,7.914687,10.420978,13.168782,17.982351,13.168782s14.198217-5.254095,17.982351-13.168782h-35.964701Z" fill="#ccc"/><ellipse id="uuid-f12dcdac-b1ac-4b29-916f-c1b58fbd7fa9" cx="410" cy="90" rx="2" ry="3" fill="#333"/><ellipse id="uuid-6e43919b-15e2-434e-9534-c84cc09a9251" cx="398" cy="90" rx="2" ry="3" fill="#333"/><rect id="uuid-79b3f34b-2e05-46be-964a-292c3fcd9012" x="427.630415" y="130.517421" width="10.657961" height="22.737023" transform="translate(-14.749304 57.373353) rotate(-7.454823)" fill="#727272"/><rect id="uuid-b4ccb664-9471-422e-91b0-b0054fc7c131" x="424.680394" y="107.972583" width="10.657961" height="22.737023" transform="translate(-11.849173 56.800043) rotate(-7.454823)" fill="#727272"/><rect id="uuid-95e2b38b-1d50-480d-bc22-f3032edacf3e" x="368.829293" y="113.690078" width="22.737023" height="10.657961" transform="translate(244.705707 493.66262) rotate(-87.499645)" fill="#727272"/><rect id="uuid-ba33d189-50ed-491c-ae74-397d7fd3913d" x="367.837396" y="136.405458" width="22.737023" height="10.657961" transform="translate(221.063328 514.396076) rotate(-87.499645)" fill="#727272"/><rect id="uuid-9c2d7435-1360-4dbe-ab58-0af303314cd3" x="429.517775" y="153.340487" width="11.368513" height="11.368513" transform="translate(-16.9541 57.809576) rotate(-7.454872)" fill="#ccc"/><rect id="uuid-8d573d34-1e0e-4ccc-920c-26e2d436f047" x="372.777729" y="153.086717" width="11.368513" height="11.368513" transform="translate(203.331863 529.946318) rotate(-87.499694)" fill="#ccc"/><circle id="uuid-e6edcd89-2ce5-4442-8269-d1f0260f06c0" cx="405.5" cy="141.5" r="1.5" fill="#333"/><circle id="uuid-c344f3e9-7165-4af9-b63b-b35c7ddbe0b2" cx="405.5" cy="135.5" r="1.5" fill="#333"/><circle id="uuid-e7fd564a-f73e-4dde-acdc-d7ed6cff91ab" cx="405.5" cy="129.5" r="1.5" fill="#333"/><circle id="uuid-df373917-00d1-423b-b5a6-6562be4127c3" cx="405.5" cy="122.5" r="1.5" fill="#333"/><path d="M429.852888,70.983484c-1.283351-9.922209-11.458674-17.651088-23.824248-17.651088s-22.540897,7.728879-23.824248,17.651088c-4.133199.590968-6.609024,1.338558-6.609024,2.152348,0,1.91155,13.625441,3.461155,30.433271,3.461155s30.433271-1.549605,30.433271-3.461155c0-.81379-2.475825-1.561379-6.609024-2.152348Z" fill="#6a6a6a"/><polygon id="uuid-6e1710ba-5183-40d9-a1a0-6df3452a6d42" points="424 214 410 214 410 238.97128 410 244 431 244 431 239 424 239 424 214" fill="none" stroke="#000" stroke-linecap="round" stroke-linejoin="round"/><rect id="uuid-83a82294-e271-45ec-bf1d-6bf3e2ccdad0" x="408" y="179" width="18.000014" height="35" fill="none" stroke="#000" stroke-linecap="round" stroke-linejoin="round"/><polygon id="uuid-1bf6113d-eafc-4268-8b32-e0f34b7e454d" points="401.999979 214 388 214 388 239 381 239 381 244 402 244 402 238.97128 401.999979 238.97128 401.999979 214" fill="none" stroke="#000" stroke-linecap="round" stroke-linejoin="round"/><rect id="uuid-50a7c13d-c688-40d3-9b06-69c6022307ce" x="385.999986" y="179" width="18.000027" height="35" fill="none" stroke="#000" stroke-linecap="round" stroke-linejoin="round"/><path id="uuid-765efcf3-71cd-40f2-b73d-fd13376a3664" d="M386,108v71h40v-71h-40Z" fill="none" stroke="#000" stroke-linecap="round" stroke-linejoin="round"/><rect id="uuid-00d50cfd-a5e2-43e3-b54f-364207226ee9" x="386" y="149" width="40" height="12" fill="none" stroke="#000" stroke-linecap="round" stroke-linejoin="round"/><rect id="uuid-292fc66c-c3d3-46dc-aa4d-19f6415764a4" x="414" y="107" width="5" height="42" fill="none" stroke="#000" stroke-linecap="round" stroke-linejoin="round"/><rect id="uuid-58d28028-61f4-4d4f-947b-30cec156662a" x="393" y="107" width="5" height="42" fill="none" stroke="#000" stroke-linecap="round" stroke-linejoin="round"/><path id="uuid-c3f2668d-e74e-4c4d-b101-094eecf7a9ea" d="M425.11673,100c1.423211-3.810436,2.227872-8.103682,2.227872-12.649544,0-15.696626-9.543481-28.421283-21.315962-28.421283s-21.315962,12.724656-21.315962,28.421283c0,4.545861.804661,8.839107,2.227872,12.649544h38.17618Z" fill="none" stroke="#000" stroke-linecap="round" stroke-linejoin="round"/><path id="uuid-641bf642-7eec-43a7-9292-5ef858be3c74" d="M388.04629,103c3.784134,7.914687,10.420978,13.168782,17.982351,13.168782s14.198217-5.254095,17.982351-13.168782h-35.964701Z" fill="none" stroke="#000" stroke-linecap="round" stroke-linejoin="round"/><ellipse id="uuid-fbee5eb2-ec59-4906-8592-cdc662f07832" cx="410" cy="90" rx="2" ry="3" fill="none" stroke="#000" stroke-linecap="round" stroke-linejoin="round"/><ellipse id="uuid-683e06d0-5342-4540-91f9-6dcddb9af4f6" cx="398" cy="90" rx="2" ry="3" fill="none" stroke="#000" stroke-linecap="round" stroke-linejoin="round"/><rect id="uuid-491bda5d-fcd7-4399-9ab3-aa31f5b0c41d" x="427.630415" y="130.517421" width="10.657961" height="22.737023" transform="translate(-14.749304 57.373353) rotate(-7.454823)" fill="none" stroke="#000" stroke-linecap="round" stroke-linejoin="round"/><rect id="uuid-a1841b1c-38b9-4eb7-976f-62a9e8d63dc4" x="424.680394" y="107.972583" width="10.657961" height="22.737023" transform="translate(-11.849173 56.800043) rotate(-7.454823)" fill="none" stroke="#000" stroke-linecap="round" stroke-linejoin="round"/><rect id="uuid-3dbc70fb-7cd2-4859-9219-333487daab33" x="368.829293" y="113.690078" width="22.737023" height="10.657961" transform="translate(244.705707 493.66262) rotate(-87.499645)" fill="none" stroke="#000" stroke-linecap="round" stroke-linejoin="round"/><rect id="uuid-633ddbad-08e5-477c-b989-38be92b92b68" x="367.837396" y="136.405458" width="22.737023" height="10.657961" transform="translate(221.063328 514.396076) rotate(-87.499645)" fill="none" stroke="#000" stroke-linecap="round" stroke-linejoin="round"/><rect id="uuid-9d67b986-3ebb-4213-91a9-ed5b4bcd0f5e" x="429.517775" y="153.340487" width="11.368513" height="11.368513" transform="translate(-16.9541 57.809576) rotate(-7.454872)" fill="none" stroke="#000" stroke-linecap="round" stroke-linejoin="round"/><rect id="uuid-2662ef53-69d3-4185-9ce0-d88db961de87" x="372.777729" y="153.086717" width="11.368513" height="11.368513" transform="translate(203.331863 529.946318) rotate(-87.499694)" fill="none" stroke="#000" stroke-linecap="round" stroke-linejoin="round"/><circle id="uuid-d780cf03-9343-4fcd-9398-d9a56b985b09" cx="405.5" cy="141.5" r="1.5" fill="none" stroke="#000" stroke-linecap="round" stroke-linejoin="round"/><circle id="uuid-26f0e8d2-b303-43c9-a8e9-520a8c3be28f" cx="405.5" cy="135.5" r="1.5" fill="none" stroke="#000" stroke-linecap="round" stroke-linejoin="round"/><circle id="uuid-823f4e01-35ee-4af1-a046-aa2de9a45d06" cx="405.5" cy="129.5" r="1.5" fill="none" stroke="#000" stroke-linecap="round" stroke-linejoin="round"/><circle id="uuid-c8a6a95c-7214-4eaa-a5b8-40b551ac3e37" cx="405.5" cy="122.5" r="1.5" fill="none" stroke="#000" stroke-linecap="round" stroke-linejoin="round"/><path d="M429.852888,70.983484c-1.283351-9.922209-11.458674-17.651088-23.824248-17.651088s-22.540897,7.728879-23.824248,17.651088c-4.133199.590968-6.609024,1.338558-6.609024,2.152348,0,1.91155,13.625441,3.461155,30.433271,3.461155s30.433271-1.549605,30.433271-3.461155c0-.81379-2.475825-1.561379-6.609024-2.152348Z" fill="none" stroke="#000" stroke-linecap="round" stroke-linejoin="round"/></g><g id="uuid-4713efea-2c9b-4f2a-a50b-e68fef34b3fa"><polygon id="uuid-1d052a0a-356d-4076-8de0-ad9499a3db39" points="341 214 327 214 327 238.97128 327 244 348 244 348 239 341 239 341 214" fill="#5f5f5f"/><rect id="uuid-81fe4355-8bc7-4572-8780-e3b1c25ab040" x="325" y="179" width="18.000014" height="35" fill="#727272"/><polygon id="uuid-18b89098-7967-4e61-85ec-f0109dd36de4" points="318.999979 214 305 214 305 239 298 239 298 244 319 244 319 238.97128 318.999979 238.97128 318.999979 214" fill="#5f5f5f"/><rect id="uuid-c417310d-61ea-4ea7-bf7b-d46f460ed875" x="302.999986" y="179" width="18.000027" height="35" fill="#727272"/><path id="uuid-ebba8990-a73c-4122-812e-7b39a9614196" d="M303,108v71h40v-71h-40Z" fill="#727272"/><rect id="uuid-bdaf2a22-5000-4212-9c0a-10d6d5c6c726" x="303" y="149" width="40" height="12" fill="#acacac"/><rect id="uuid-a3dc2ead-8adb-4032-bd45-ce1816cfacbd" x="332" y="107" width="5" height="42" fill="#acacac"/><rect id="uuid-6756b09f-dcbb-4ce8-bb92-1b84f4e2ee99" x="310" y="107" width="5" height="42" fill="#acacac"/><path id="uuid-d5a23e48-9352-49bf-8e34-25f308e5ee39" d="M342.52158,100c1.423211-3.810436,2.227872-8.103682,2.227872-12.649544,0-15.696626-9.543481-28.421283-21.315962-28.421283s-21.315962,12.724656-21.315962,28.421283c0,4.545861.804661,8.839107,2.227872,12.649544h38.17618Z" fill="#ccc"/><path id="uuid-1ab58675-58f1-440d-aa2a-d6cf7db1257d" d="M305.45114,103c3.784134,7.914687,10.420978,13.168782,17.982351,13.168782s14.198217-5.254095,17.982351-13.168782h-35.964701Z" fill="#ccc"/><ellipse id="uuid-0f3483c9-a211-47e4-a076-f5c9c8395af5" cx="333" cy="89" rx="2" ry="3" fill="#333"/><ellipse id="uuid-0e525690-810b-4eca-a15f-c35683bef5ff" cx="322" cy="89" rx="2" ry="3" fill="#333"/><rect id="uuid-b6dfc03f-80ab-4aaa-b7f8-65fe045a2de0" x="344.52833" y="130.560314" width="10.657961" height="22.737023" transform="translate(-5.230948 13.646879) rotate(-2.218075)" fill="#727272"/><rect id="uuid-f3f51163-18a1-4d16-9c2e-f465948f6d1a" x="343.648319" y="107.840324" width="10.657961" height="22.737023" transform="translate(-4.352275 13.595797) rotate(-2.218075)" fill="#727272"/><rect id="uuid-5595d322-6d3f-4883-867a-bfca8a09ad0c" x="286.234143" y="113.690078" width="22.737023" height="10.657961" transform="translate(165.713819 411.146105) rotate(-87.499645)" fill="#727272"/><rect id="uuid-0b3dce18-f18f-481c-9955-ed25e51fa91f" x="284.013481" y="135.492168" width="22.737023" height="10.657961" transform="translate(103.879698 406.166185) rotate(-79.670743)" fill="#727272"/><rect id="uuid-88001676-26c5-4a15-8638-3e180fbbd97d" x="344.842048" y="153.516532" width="11.368513" height="11.368513" transform="translate(-5.899049 13.686017) rotate(-2.218124)" fill="#ccc"/><rect id="uuid-41ed7f69-4865-439b-8c2a-cd5ae91adf1f" x="286.64011" y="151.9133" width="11.368513" height="11.368513" transform="translate(84.866018 416.926612) rotate(-79.670792)" fill="#ccc"/><circle id="uuid-3c645749-2e32-4c1d-a758-6894789a8eeb" cx="323.5" cy="141.5" r="1.5" fill="#333"/><circle id="uuid-d48b57cc-18d4-4ab2-9ee0-bc02862996e9" cx="323.5" cy="135.5" r="1.5" fill="#333"/><circle id="uuid-3a9cf544-a7b0-4692-a6bd-e6cb5c292167" cx="323.5" cy="129.5" r="1.5" fill="#333"/><circle id="uuid-68e1d8a5-b82f-4177-96ce-85bee34d921b" cx="323.5" cy="122.5" r="1.5" fill="#333"/><path d="M347.257738,70.983484c-1.283351-9.922209-11.458674-17.651088-23.824248-17.651088s-22.540897,7.728879-23.824248,17.651088c-4.133199.590968-6.609024,1.338558-6.609024,2.152348,0,1.91155,13.625441,3.461155,30.433271,3.461155s30.433271-1.549605,30.433271-3.461155c0-.81379-2.475825-1.561379-6.609024-2.152348Z" fill="#6a6a6a"/><polygon id="uuid-4c8d456a-0907-4dee-9080-9e75ba5c1777" points="341 214 327 214 327 238.97128 327 244 348 244 348 239 341 239 341 214" fill="none" stroke="#000" stroke-linecap="round" stroke-linejoin="round"/><rect id="uuid-582bef59-aec4-4c24-8a76-a23900ec9877" x="325" y="179" width="18.000014" height="35" fill="none" stroke="#000" stroke-linecap="round" stroke-linejoin="round"/><polygon id="uuid-baceaf82-c8ff-4651-9403-9e9148d9dc06" points="318.999979 214 305 214 305 239 298 239 298 244 319 244 319 238.97128 318.999979 238.97128 318.999979 214" fill="none" stroke="#000" stroke-linecap="round" stroke-linejoin="round"/><rect id="uuid-e35b4bd9-fbf3-4497-aff6-8988690e4504" x="302.999986" y="179" width="18.000027" height="35" fill="none" stroke="#000" stroke-linecap="round" stroke-linejoin="round"/><path id="uuid-69a07be4-3326-4525-a695-136ce3f8401f" d="M303,108v71h40v-71h-40Z" fill="none" stroke="#000" stroke-linecap="round" stroke-linejoin="round"/><rect id="uuid-350e487c-5e8e-4bdf-b4e2-175f5dab6bf8" x="303" y="149" width="40" height="12" fill="none" stroke="#000" stroke-linecap="round" stroke-linejoin="round"/><rect id="uuid-f0683f2f-2efd-44df-b51a-4515dfcce4a2" x="332" y="107" width="5" height="42" fill="none" stroke="#000" stroke-linecap="round" stroke-linejoin="round"/><rect id="uuid-cd9ae416-491f-4dd2-88eb-ce11e246d66f" x="310" y="107" width="5" height="42" fill="none" stroke="#000" stroke-linecap="round" stroke-linejoin="round"/><path id="uuid-65d4961f-592c-439f-9791-806530325d53" d="M342.52158,100c1.423211-3.810436,2.227872-8.103682,2.227872-12.649544,0-15.696626-9.543481-28.421283-21.315962-28.421283s-21.315962,12.724656-21.315962,28.421283c0,4.545861.804661,8.839107,2.227872,12.649544h38.17618Z" fill="none" stroke="#000" stroke-linecap="round" stroke-linejoin="round"/><path id="uuid-1dc9f07b-f4bd-4457-9b64-d561162c8e4f" d="M305.45114,103c3.784134,7.914687,10.420978,13.168782,17.982351,13.168782s14.198217-5.254095,17.982351-13.168782h-35.964701Z" fill="none" stroke="#000" stroke-linecap="round" stroke-linejoin="round"/><ellipse id="uuid-a2fa7d1e-d9b0-4e30-adb2-157dd642ca98" cx="333" cy="89" rx="2" ry="3" fill="none" stroke="#000" stroke-linecap="round" stroke-linejoin="round"/><ellipse id="uuid-fd582aad-7c5c-4edd-a853-75cf04360931" cx="322" cy="89" rx="2" ry="3" fill="none" stroke="#000" stroke-linecap="round" stroke-linejoin="round"/><rect id="uuid-25a2de6f-be87-4952-9abe-f70a87a2123f" x="344.52833" y="130.560314" width="10.657961" height="22.737023" transform="translate(-5.230948 13.646879) rotate(-2.218075)" fill="none" stroke="#000" stroke-linecap="round" stroke-linejoin="round"/><rect id="uuid-d10922d3-e50f-4aa9-aaef-29f80f07e8f0" x="343.648319" y="107.840324" width="10.657961" height="22.737023" transform="translate(-4.352275 13.595797) rotate(-2.218075)" fill="none" stroke="#000" stroke-linecap="round" stroke-linejoin="round"/><rect id="uuid-09840116-de47-4820-84af-e76ee857ecef" x="286.234143" y="113.690078" width="22.737023" height="10.657961" transform="translate(165.713819 411.146105) rotate(-87.499645)" fill="none" stroke="#000" stroke-linecap="round" stroke-linejoin="round"/><rect id="uuid-06d179bd-7507-449f-8fb8-1c0bd098a26c" x="284.013481" y="135.492168" width="22.737023" height="10.657961" transform="translate(103.879698 406.166185) rotate(-79.670743)" fill="none" stroke="#000" stroke-linecap="round" stroke-linejoin="round"/><rect id="uuid-890608f1-500d-4c3a-8280-bf7edef63987" x="344.842048" y="153.516532" width="11.368513" height="11.368513" transform="translate(-5.899049 13.686017) rotate(-2.218124)" fill="none" stroke="#000" stroke-linecap="round" stroke-linejoin="round"/><rect id="uuid-86b6c45c-5e55-4e69-ad85-8ce7fbdff4cb" x="286.64011" y="151.9133" width="11.368513" height="11.368513" transform="translate(84.866018 416.926612) rotate(-79.670792)" fill="none" stroke="#000" stroke-linecap="round" stroke-linejoin="round"/><circle id="uuid-8a578480-8b69-4f64-9557-0fd6205cacb4" cx="323.5" cy="141.5" r="1.5" fill="none" stroke="#000" stroke-linecap="round" stroke-linejoin="round"/><circle id="uuid-fba6cccd-69f4-4dd8-b393-39ba548ded26" cx="323.5" cy="135.5" r="1.5" fill="none" stroke="#000" stroke-linecap="round" stroke-linejoin="round"/><circle id="uuid-f32b1821-6ede-4740-bb9e-f71e19d0f09f" cx="323.5" cy="129.5" r="1.5" fill="none" stroke="#000" stroke-linecap="round" stroke-linejoin="round"/><circle id="uuid-b8ba1368-9565-47b0-b8c0-4d94f724cbda" cx="323.5" cy="122.5" r="1.5" fill="none" stroke="#000" stroke-linecap="round" stroke-linejoin="round"/><path d="M347.257738,70.983484c-1.283351-9.922209-11.458674-17.651088-23.824248-17.651088s-22.540897,7.728879-23.824248,17.651088c-4.133199.590968-6.609024,1.338558-6.609024,2.152348,0,1.91155,13.625441,3.461155,30.433271,3.461155s30.433271-1.549605,30.433271-3.461155c0-.81379-2.475825-1.561379-6.609024-2.152348Z" fill="none" stroke="#000" stroke-linecap="round" stroke-linejoin="round"/></g><g id="uuid-f813e3f5-dd6d-4c99-b5d7-628a557528a8"><polygon id="uuid-78cdfa2f-7083-4125-bf75-1b5fc7972879" points="259 214 245 214 245 238.97128 245 244 266 244 266 239 259 239 259 214" fill="#5f5f5f"/><rect id="uuid-e2153caf-22a2-490d-bb2f-9e857e9962bb" x="243" y="179" width="18.000014" height="35" fill="#727272"/><polygon id="uuid-af641e89-9695-41ca-a73f-2a52184fe64c" points="236.999979 214 223 214 223 239 216 239 216 244 237 244 237 238.97128 236.999979 238.97128 236.999979 214" fill="#5f5f5f"/><rect id="uuid-526c957d-ebbb-41da-a0d4-5e973b0a9520" x="220.999986" y="179" width="18.000027" height="35" fill="#727272"/><path id="uuid-a0ab371c-3b4d-4df0-b3cd-9780b5b43c0f" d="M221,108v71h40v-71h-40Z" fill="#727272"/><rect id="uuid-8294e144-762e-4ad8-925b-ff982b418d2d" x="221" y="149" width="40" height="12" fill="#acacac"/><rect id="uuid-f5bc40e8-e457-4071-a58b-0dcec4157a22" x="249" y="107" width="5" height="42" fill="#acacac"/><rect id="uuid-6377fca4-b6ba-410a-b512-0345728d5987" x="228" y="107" width="5" height="42" fill="#acacac"/><path id="uuid-06c3f7bf-e967-4f61-8ba2-e23d962218b5" d="M259.926431,100c1.423211-3.810436,2.227872-8.103682,2.227872-12.649544,0-15.696626-9.543481-28.421283-21.315962-28.421283s-21.315962,12.724656-21.315962,28.421283c0,4.545861.804661,8.839107,2.227872,12.649544h38.17618Z" fill="#ccc"/><path id="uuid-a7280899-4ed0-43a0-ac00-2b9ceac51daa" d="M222.85599,103c3.784134,7.914687,10.420978,13.168782,17.982351,13.168782s14.198217-5.254095,17.982351-13.168782h-35.964701Z" fill="#ccc"/><ellipse id="uuid-234685ec-0882-4a6b-b30b-caf5c383a7c9" cx="247" cy="91" rx="2" ry="3" fill="#333"/><ellipse id="uuid-fed0fc32-e23c-48cd-b746-0930a8385aef" cx="235" cy="91" rx="2" ry="3" fill="#333"/><rect id="uuid-69dfb604-ef0a-46f2-acac-79f08570aad1" x="261.93318" y="130.560314" width="10.657961" height="22.737023" transform="translate(-5.292832 10.450196) rotate(-2.218075)" fill="#727272"/><rect id="uuid-c6ab4774-d3ed-4c1e-ae6b-dfe2479a9a27" x="261.053169" y="107.840324" width="10.657961" height="22.737023" transform="translate(-4.414159 10.399114) rotate(-2.218075)" fill="#727272"/><rect id="uuid-2f7b4738-1dc3-45e0-9360-6f19057dd626" x="203.638993" y="113.690078" width="22.737023" height="10.657961" transform="translate(86.72193 328.62959) rotate(-87.499645)" fill="#727272"/><rect id="uuid-7971c305-df7e-4196-ba14-19a81f80f8d6" x="202.647097" y="136.405458" width="22.737023" height="10.657961" transform="translate(63.079552 349.363046) rotate(-87.499645)" fill="#727272"/><rect id="uuid-c7afed2c-53fc-4710-b51b-637c9cd97180" x="262.246898" y="153.516532" width="11.368513" height="11.368513" transform="translate(-5.960936 10.489264) rotate(-2.218124)" fill="#ccc"/><rect id="uuid-1766db6f-dff9-4970-8854-7abcf7b1588a" x="207.587429" y="153.086717" width="11.368513" height="11.368513" transform="translate(45.347945 364.913282) rotate(-87.499694)" fill="#ccc"/><circle id="uuid-cd32f346-5c24-46b1-9c9e-9f685f69a2bd" cx="240.5" cy="141.5" r="1.5" fill="#333"/><circle id="uuid-24d5e089-16fd-487d-8926-fcc401711c2d" cx="240.5" cy="135.5" r="1.5" fill="#333"/><circle id="uuid-e80d6672-63c9-4dbf-901a-f52359145e39" cx="240.5" cy="129.5" r="1.5" fill="#333"/><circle id="uuid-b7b8ee10-92ad-41ba-b8ed-4034a0e2ea74" cx="240.5" cy="122.5" r="1.5" fill="#333"/><path d="M264.662588,70.983484c-1.283351-9.922209-11.458674-17.651088-23.824248-17.651088s-22.540897,7.728879-23.824248,17.651088c-4.133199.590968-6.609024,1.338558-6.609024,2.152348,0,1.91155,13.625441,3.461155,30.433271,3.461155s30.433271-1.549605,30.433271-3.461155c0-.81379-2.475825-1.561379-6.609024-2.152348Z" fill="#6a6a6a"/><polygon id="uuid-db36787a-1538-4f72-be24-8fc93c158189" points="259 214 245 214 245 238.97128 245 244 266 244 266 239 259 239 259 214" fill="none" stroke="#000" stroke-linecap="round" stroke-linejoin="round"/><rect id="uuid-820d5d68-01fa-450f-b0b2-7d4b5d84828f" x="243" y="179" width="18.000014" height="35" fill="none" stroke="#000" stroke-linecap="round" stroke-linejoin="round"/><polygon id="uuid-343b3059-ad02-470d-bc1f-cc55859b2498" points="236.999979 214 223 214 223 239 216 239 216 244 237 244 237 238.97128 236.999979 238.97128 236.999979 214" fill="none" stroke="#000" stroke-linecap="round" stroke-linejoin="round"/><rect id="uuid-bb623b17-a241-4f48-a382-707ed5fca549" x="220.999986" y="179" width="18.000027" height="35" fill="none" stroke="#000" stroke-linecap="round" stroke-linejoin="round"/><path id="uuid-19baa6b7-1b6e-47fc-b134-1bd82e38058e" d="M221,108v71h40v-71h-40Z" fill="none" stroke="#000" stroke-linecap="round" stroke-linejoin="round"/><rect id="uuid-0cfd7962-4146-41c4-bd20-40035b94333b" x="221" y="149" width="40" height="12" fill="none" stroke="#000" stroke-linecap="round" stroke-linejoin="round"/><rect id="uuid-7668de0a-81a5-4a68-bc3c-60b74c3ccde5" x="249" y="107" width="5" height="42" fill="none" stroke="#000" stroke-linecap="round" stroke-linejoin="round"/><rect id="uuid-e1fe0a33-ec45-41d1-8a58-e06e6e082475" x="228" y="107" width="5" height="42" fill="none" stroke="#000" stroke-linecap="round" stroke-linejoin="round"/><path id="uuid-e861ca2d-a261-452f-92cc-2ec5db4ffe4c" d="M259.926431,100c1.423211-3.810436,2.227872-8.103682,2.227872-12.649544,0-15.696626-9.543481-28.421283-21.315962-28.421283s-21.315962,12.724656-21.315962,28.421283c0,4.545861.804661,8.839107,2.227872,12.649544h38.17618Z" fill="none" stroke="#000" stroke-linecap="round" stroke-linejoin="round"/><path id="uuid-2f7d3f8b-8cca-4a46-91a7-44858246826a" d="M222.85599,103c3.784134,7.914687,10.420978,13.168782,17.982351,13.168782s14.198217-5.254095,17.982351-13.168782h-35.964701Z" fill="none" stroke="#000" stroke-linecap="round" stroke-linejoin="round"/><ellipse id="uuid-34ab862e-f5cf-44f9-9f84-b53253f095ce" cx="247" cy="91" rx="2" ry="3" fill="none" stroke="#000" stroke-linecap="round" stroke-linejoin="round"/><ellipse id="uuid-93f07778-cfd1-47fa-bee2-d65b5443bfa8" cx="235" cy="91" rx="2" ry="3" fill="none" stroke="#000" stroke-linecap="round" stroke-linejoin="round"/><rect id="uuid-acc7ccb0-72c0-4e26-87d3-62710a02b157" x="261.93318" y="130.560314" width="10.657961" height="22.737023" transform="translate(-5.292832 10.450196) rotate(-2.218075)" fill="none" stroke="#000" stroke-linecap="round" stroke-linejoin="round"/><rect id="uuid-1e6489d7-0e54-4edd-a423-ce7f7de62824" x="261.053169" y="107.840324" width="10.657961" height="22.737023" transform="translate(-4.414159 10.399114) rotate(-2.218075)" fill="none" stroke="#000" stroke-linecap="round" stroke-linejoin="round"/><rect id="uuid-105b5e16-2d9e-4b82-a43f-4fc286a4d45c" x="203.638993" y="113.690078" width="22.737023" height="10.657961" transform="translate(86.72193 328.62959) rotate(-87.499645)" fill="none" stroke="#000" stroke-linecap="round" stroke-linejoin="round"/><rect id="uuid-c2db3c0d-16c5-4f90-9d1f-4f4d15593f68" x="202.647097" y="136.405458" width="22.737023" height="10.657961" transform="translate(63.079552 349.363046) rotate(-87.499645)" fill="none" stroke="#000" stroke-linecap="round" stroke-linejoin="round"/><rect id="uuid-4f005a67-658c-4e0f-b904-7ea77ec444cb" x="262.246898" y="153.516532" width="11.368513" height="11.368513" transform="translate(-5.960936 10.489264) rotate(-2.218124)" fill="none" stroke="#000" stroke-linecap="round" stroke-linejoin="round"/><rect id="uuid-b02ce68b-6513-4e59-974f-a0f2aea4e067" x="207.587429" y="153.086717" width="11.368513" height="11.368513" transform="translate(45.347945 364.913282) rotate(-87.499694)" fill="none" stroke="#000" stroke-linecap="round" stroke-linejoin="round"/><circle id="uuid-949e083a-9d31-45aa-a4ff-d2d6d91b8c4a" cx="240.5" cy="141.5" r="1.5" fill="none" stroke="#000" stroke-linecap="round" stroke-linejoin="round"/><circle id="uuid-d27bc93d-d850-406d-925d-08e93773f092" cx="240.5" cy="135.5" r="1.5" fill="none" stroke="#000" stroke-linecap="round" stroke-linejoin="round"/><circle id="uuid-56ebded6-12c7-4335-bd64-a782514fffae" cx="240.5" cy="129.5" r="1.5" fill="none" stroke="#000" stroke-linecap="round" stroke-linejoin="round"/><circle id="uuid-cc069b47-b3d2-428f-8d06-4ea07f75c1c8" cx="240.5" cy="122.5" r="1.5" fill="none" stroke="#000" stroke-linecap="round" stroke-linejoin="round"/><path d="M264.662588,70.983484c-1.283351-9.922209-11.458674-17.651088-23.824248-17.651088s-22.540897,7.728879-23.824248,17.651088c-4.133199.590968-6.609024,1.338558-6.609024,2.152348,0,1.91155,13.625441,3.461155,30.433271,3.461155s30.433271-1.549605,30.433271-3.461155c0-.81379-2.475825-1.561379-6.609024-2.152348Z" fill="none" stroke="#000" stroke-linecap="round" stroke-linejoin="round"/></g><path d="M177.249374,262.000164l2.516857-.025802c.972236-.009967,1.893552-.5691,2.250074-1.473664.714659-1.813228-.606606-3.518224-2.316042-3.500699l-2.485965.022848c-1.709.020804-2.997295,1.757543-2.242426,3.554152.375953.894779,1.307001,1.433114,2.277501,1.423164Z" fill="#434a54"/><path d="M175,255.351501l.453291,44.435511c.015269,1.254365,1.039861,2.262932,2.296659,2.250047,1.254217-.015118,2.260501-1.042247,2.250049-2.296662l-.457808-44.435462c-.0106-1.254263-1.040163-2.26293-2.294379-2.247813-1.256799.012885-2.263082,1.040014-2.247813,2.294379Z" fill="#656d78"/><path d="M179.395365,273.784578l6.705986,5.250717c.560687.439012.891351,1.109138.898651,1.821211l.150446,14.674754c.001702.39914-.099309.789921-.296372,1.137467l-6.63995,11.677672c-.587514,1.035538-1.903247,1.458851-3.021087.874944-.767317-.400811-1.184183-1.259972-1.193057-2.12562l-.323695-31.576152.002365-.002414c-.015143-1.243922.982763-2.2625,2.229101-2.275279.569396-.005836,1.089715.199017,1.487612.542702Z" fill="#a85d5d"/><path d="M164.09879,341.160971c.006793.904759.540781,1.759244,1.424151,2.134757l7.058197,2.996419c1.190272.50806,2.564805-.046942,3.070536-1.237039s-.046968-2.567287-1.239547-3.072993l-7.055892-2.998766c-1.191325-.504477-2.566161.050529-3.071739,1.240775-.130401.304395-.190143.625141-.185706.936847Z" fill="#ed5564"/><path d="M174.984586,342.306806c.627717.425144,1.006563,1.133143,1.015414,1.891728l.071165,6.941663c.011113.964612-.579092,1.833665-1.478107,2.182099l-18.44518,7.133792c-.705564.272193-1.504749.182044-2.132464-.243098-.628802-.426208-1.007648-1.134207-1.015414-1.891728l-.069976-6.945355c-.00988-.9637.579244-1.833821,1.479499-2.181041l18.441511-7.13253c.709239-.273153,1.504752-.181735,2.133552.244471Z" fill="#965353"/><path d="M151.767058,312.246877c4.875543,4.685305,10.094592,7.651827,15.093838,8.578218,3.606741.666487,5.919633.05094,6.091322.00307.828168-.277873,1.724356-.068934,2.377695.560038.45403.437096.664194,1.071767.670673,1.701969l.095758,9.313426c.012927,1.261163-.972191,2.303708-2.229452,2.363797-.636556.029503-15.749827.595558-29.892898-12.011971-.506896-.453273-.777607-1.083629-.784323-1.723989-.00227-.448819.121771-.903594.381935-1.30154l4.611832-7.075068c.379673-.583617,1.001714-.968505,1.69458-1.048271.695376-.077607,1.386815.15781,1.889041.640322Z" fill="#434a54"/><path d="M185.430807,354.65779c.44703.476322.673932,1.120625.624962,1.772722l-.487487,6.677192,2.378263,10.601995.053137.458176.220117,21.470862c.015714,1.290932-1.022357,2.350507-2.313339,2.361263l-18.707708.19179c-.71569.008424-1.394898-.31142-1.842617-.870053-.333674-.413146-.514531-.921187-.519898-1.444513-.001837-.179197.018003-.361097.057576-.538388l8.949869-39.517036c.238617-1.056187,1.172068-1.810675,2.257166-1.8218l7.600337-.07792c.653695-.006548,1.279038.260826,1.729621.735711Z" fill="#a85d5d"/><path d="M171,303.432928l.536969,52.249145c.006411.620956.261787,1.215157.708467,1.649673s1.048965.67462,1.674349.668254l9.448593-.096178c.885313-.009012,1.689993-.516125,2.080113-1.3109l2.311927-4.709978c.161283-.328574.243324-.690371.239544-1.056374l-.571372-55.323791c-.011996-1.161671-.889464-2.18273-2.154059-2.318655-.555309-.059687-1.11107.122879-1.574373.434778l-11.665117,7.853023c-.655009.438583-1.045792,1.177536-1.035042,1.961003Z" fill="#656d78"/><path d="M185,340.735328l-.284073-27.67932c-.010609-1.273383,1.01074-2.315891,2.284073-2.33139l.330153,32.293571c-1.274412.014442-2.318309-1.008268-2.330153-2.282861Z" fill="#434a54"/><path d="M177.249374,262.000164l2.516857-.025802c.972236-.009967,1.893552-.5691,2.250074-1.473664.714659-1.813228-.606606-3.518224-2.316042-3.500699l-2.485965.022848c-1.709.020804-2.997295,1.757543-2.242426,3.554152.375953.894779,1.307001,1.433114,2.277501,1.423164Z" fill="none" stroke="#000" stroke-linecap="round" stroke-linejoin="round"/><path d="M175,255.351501l.453291,44.435511c.015269,1.254365,1.039861,2.262932,2.296659,2.250047,1.254217-.015118,2.260501-1.042247,2.250049-2.296662l-.457808-44.435462c-.0106-1.254263-1.040163-2.26293-2.294379-2.247813-1.256799.012885-2.263082,1.040014-2.247813,2.294379Z" fill="none" stroke="#000" stroke-linecap="round" stroke-linejoin="round"/><path d="M179.395365,273.784578l6.705986,5.250717c.560687.439012.891351,1.109138.898651,1.821211l.150446,14.674754c.001702.39914-.099309.789921-.296372,1.137467l-6.63995,11.677672c-.587514,1.035538-1.903247,1.458851-3.021087.874944-.767317-.400811-1.184183-1.259972-1.193057-2.12562l-.323695-31.576152.002365-.002414c-.015143-1.243922.982763-2.2625,2.229101-2.275279.569396-.005836,1.089715.199017,1.487612.542702Z" fill="none" stroke="#000" stroke-linecap="round" stroke-linejoin="round"/><path d="M164.09879,341.160971c.006793.904759.540781,1.759244,1.424151,2.134757l7.058197,2.996419c1.190272.50806,2.564805-.046942,3.070536-1.237039s-.046968-2.567287-1.239547-3.072993l-7.055892-2.998766c-1.191325-.504477-2.566161.050529-3.071739,1.240775-.130401.304395-.190143.625141-.185706.936847Z" fill="none" stroke="#000" stroke-linecap="round" stroke-linejoin="round"/><path d="M174.984586,342.306806c.627717.425144,1.006563,1.133143,1.015414,1.891728l.071165,6.941663c.011113.964612-.579092,1.833665-1.478107,2.182099l-18.44518,7.133792c-.705564.272193-1.504749.182044-2.132464-.243098-.628802-.426208-1.007648-1.134207-1.015414-1.891728l-.069976-6.945355c-.00988-.9637.579244-1.833821,1.479499-2.181041l18.441511-7.13253c.709239-.273153,1.504752-.181735,2.133552.244471Z" fill="none" stroke="#000" stroke-linecap="round" stroke-linejoin="round"/><path d="M151.767058,312.246877c4.875543,4.685305,10.094592,7.651827,15.093838,8.578218,3.606741.666487,5.919633.05094,6.091322.00307.828168-.277873,1.724356-.068934,2.377695.560038.45403.437096.664194,1.071767.670673,1.701969l.095758,9.313426c.012927,1.261163-.972191,2.303708-2.229452,2.363797-.636556.029503-15.749827.595558-29.892898-12.011971-.506896-.453273-.777607-1.083629-.784323-1.723989-.00227-.448819.121771-.903594.381935-1.30154l4.611832-7.075068c.379673-.583617,1.001714-.968505,1.69458-1.048271.695376-.077607,1.386815.15781,1.889041.640322Z" fill="none" stroke="#000" stroke-linecap="round" stroke-linejoin="round"/><path d="M185.430807,354.65779c.44703.476322.673932,1.120625.624962,1.772722l-.487487,6.677192,2.378263,10.601995.053137.458176.220117,21.470862c.015714,1.290932-1.022357,2.350507-2.313339,2.361263l-18.707708.19179c-.71569.008424-1.394898-.31142-1.842617-.870053-.333674-.413146-.514531-.921187-.519898-1.444513-.001837-.179197.018003-.361097.057576-.538388l8.949869-39.517036c.238617-1.056187,1.172068-1.810675,2.257166-1.8218l7.600337-.07792c.653695-.006548,1.279038.260826,1.729621.735711Z" fill="none" stroke="#000" stroke-linecap="round" stroke-linejoin="round"/><path d="M171,303.432928l.536969,52.249145c.006411.620956.261787,1.215157.708467,1.649673s1.048965.67462,1.674349.668254l9.448593-.096178c.885313-.009012,1.689993-.516125,2.080113-1.3109l2.311927-4.709978c.161283-.328574.243324-.690371.239544-1.056374l-.571372-55.323791c-.011996-1.161671-.889464-2.18273-2.154059-2.318655-.555309-.059687-1.11107.122879-1.574373.434778l-11.665117,7.853023c-.655009.438583-1.045792,1.177536-1.035042,1.961003Z" fill="none" stroke="#000" stroke-linecap="round" stroke-linejoin="round"/><path d="M185,340.735328l-.284073-27.67932c-.010609-1.273383,1.01074-2.315891,2.284073-2.33139l.330153,32.293571c-1.274412.014442-2.318309-1.008268-2.330153-2.282861Z" fill="none" stroke="#000" stroke-linecap="round" stroke-linejoin="round"/><g id="uuid-3737d3c0-cbb0-42de-98b6-757022e9e7ee"><polygon id="uuid-895ff7e2-6324-4986-a94e-c37685a67b34" points="132 394 112 394 112 428.959792 112 436 142 436 142 429 132 429 132 394" fill="#5f4d2f"/><rect id="uuid-2085923c-3812-4e6c-9886-e31a50d9015f" x="109" y="345" width="25.000019" height="49" fill="#726038"/><polygon id="uuid-67f172c1-6910-4d3c-87be-0ab0ec5928f8" points="99.999969 394 80 394 80 429 70 429 70 436 100 436 100 428.959792 99.999969 428.959792 99.999969 394" fill="#5f4d2f"/><rect id="uuid-f20dca2b-0adf-4159-b13a-bb6d614fd307" x="77.999981" y="345" width="25.000038" height="49" fill="#726038"/><path id="uuid-c4590a70-c395-46c8-81db-91195511ea43" d="M78,245v100h56v-100h-56Z" fill="#726038"/><rect id="uuid-5d8a9632-16d3-4448-9010-346733a663b9" x="78" y="303" width="56" height="17" fill="#ac935a"/><rect id="uuid-37063e2c-a48e-48b8-85ff-551dafb126a3" x="118" y="244" width="7" height="59" fill="#ac935a"/><rect id="uuid-3481bad7-e925-4c3b-93ea-21282438a0e2" x="87" y="244" width="7" height="59" fill="#ac935a"/><path id="uuid-4fe0df1d-6c31-483f-bd5b-10496de5a08e" d="M133.474743,227.948933c1.473346-5.558279,2.009466-11.709943,1.378481-18.10531-2.178759-22.082875-17.371289-38.659943-33.933461-37.025872-16.562172,1.634071-28.222228,20.860492-26.043468,42.943367.630985,6.395367,2.358948,12.323651,4.890104,17.486834l53.708345-5.299018Z" fill="#eec6a2"/><path id="uuid-0c2e9393-fee8-4ae1-9735-591cc7da25d7" d="M80.739755,237c5.349576,11.18888,14.731987,18.616519,25.421392,18.616519s20.071816-7.427639,25.421392-18.616519h-50.842783Z" fill="#eec6a2"/><ellipse id="uuid-46c4bff3-1210-43e2-819e-dccfd27b887a" cx="125" cy="215.5" rx="3" ry="4.5" fill="#333"/><ellipse id="uuid-44c9274d-c448-448f-a8a4-dff2ea0d4860" cx="109" cy="216.5" rx="3" ry="4.5" fill="#333"/><rect id="uuid-acd4b498-c3e5-4e96-85e7-a072d091b97a" x="137.261628" y="275.752277" width="15.067008" height="32.143004" transform="translate(-27.953257 15.626852) rotate(-5.634698)" fill="#726038"/><rect id="uuid-2a819cb8-6267-4776-a732-4d3f3ceb93c4" x="134.122202" y="243.93237" width="15.067008" height="32.143004" transform="translate(-24.84417 15.164856) rotate(-5.634698)" fill="#726038"/><rect id="uuid-58e0cc59-ec79-4368-8fc2-4b49fa9c0e03" x="52.986755" y="252.470368" width="32.143004" height="15.067008" transform="translate(-195.694675 307.721181) rotate(-85.342327)" fill="#726038"/><rect id="uuid-b44742b3-9f97-4f5d-a02e-0ec20cf86723" x="50.394346" y="284.290275" width="32.143004" height="15.067008" transform="translate(-229.7914 334.373393) rotate(-85.342327)" fill="#726038"/><rect id="uuid-8e965dcd-e94d-47f4-b080-4a5ee2c37d1a" x="138.960618" y="307.903999" width="16.258368" height="16.258368" transform="translate(-30.319342 15.969226) rotate(-5.634728)" fill="#eec6a2"/><rect id="uuid-07a85e3e-6def-4808-8fcf-155d406b17f7" x="56.466048" y="307.895277" width="16.071504" height="16.071504" transform="translate(-255.623582 354.565688) rotate(-85.342357)" fill="#eec6a2"/><circle id="uuid-2ede9530-3a92-4596-ab73-c8a71f4bbaf8" cx="105.999912" cy="290.999912" r="1.999912" fill="#333"/><circle id="uuid-714ad299-7ad7-4a2d-9679-e7925651d48e" cx="105.999912" cy="282.999912" r="1.999912" fill="#333"/><circle id="uuid-1584c95f-5141-4aa8-b1af-ff628698e344" cx="105.999912" cy="274.999912" r="1.999912" fill="#333"/><circle id="uuid-246266a9-92f7-4d13-a229-a1820e961ee2" cx="105.999912" cy="265.999912" r="1.999912" fill="#333"/><path d="M136.098723,186.353058c-3.182734-13.780973-18.570738-23.242006-35.967306-21.525611s-30.638969,14.002185-31.067212,28.139428c-5.732782,1.405112-9.11214,2.800517-8.999182,3.945401.265331,2.689273,19.649441,2.978073,43.295619.645074,23.646178-2.332999,42.600104-6.404339,42.334773-9.093612-.112958-1.144884-3.699853-1.852979-9.596692-2.11068Z" fill="#596a66"/><polygon id="uuid-6677cd62-be0a-4ad9-81d9-daf2c31f3812" points="132 394 112 394 112 428.959792 112 436 142 436 142 429 132 429 132 394" fill="none" stroke="#000" stroke-linecap="round" stroke-linejoin="round"/><rect id="uuid-fe5bdd34-587e-4e3e-8e13-4ebab189e85e" x="109" y="345" width="25.000019" height="49" fill="none" stroke="#000" stroke-linecap="round" stroke-linejoin="round"/><polygon id="uuid-cce9675c-6e94-49a8-bf3a-b95a748f846c" points="99.999969 394 80 394 80 429 70 429 70 436 100 436 100 428.959792 99.999969 428.959792 99.999969 394" fill="none" stroke="#000" stroke-linecap="round" stroke-linejoin="round"/><rect id="uuid-b4ce02b3-5fd6-4c36-a8e6-84733747c0c2" x="77.999981" y="345" width="25.000038" height="49" fill="none" stroke="#000" stroke-linecap="round" stroke-linejoin="round"/><path id="uuid-a5c8052b-c037-4b59-9b55-8e94535fc88a" d="M78,245v100h56v-100h-56Z" fill="none" stroke="#000" stroke-linecap="round" stroke-linejoin="round"/><rect id="uuid-75faf0ce-fbc9-4cba-b514-634ee2b55090" x="78" y="303" width="56" height="17" fill="none" stroke="#000" stroke-linecap="round" stroke-linejoin="round"/><rect id="uuid-05344be8-9684-4c73-96ad-6a138eeba1bd" x="118" y="244" width="7" height="59" fill="none" stroke="#000" stroke-linecap="round" stroke-linejoin="round"/><rect id="uuid-3a3737a5-ed17-4c33-9e3b-0c8cbc42c1c8" x="87" y="244" width="7" height="59" fill="none" stroke="#000" stroke-linecap="round" stroke-linejoin="round"/><path id="uuid-df455759-c720-4155-bf95-b08c83c140e2" d="M133.474743,227.948933c1.473346-5.558279,2.009466-11.709943,1.378481-18.10531-2.178759-22.082875-17.371289-38.659943-33.933461-37.025872-16.562172,1.634071-28.222228,20.860492-26.043468,42.943367.630985,6.395367,2.358948,12.323651,4.890104,17.486834l53.708345-5.299018Z" fill="none" stroke="#000" stroke-linecap="round" stroke-linejoin="round"/><path id="uuid-0d7a3459-0f62-4c99-bee8-a14026efd03c" d="M80.739755,237c5.349576,11.18888,14.731987,18.616519,25.421392,18.616519s20.071816-7.427639,25.421392-18.616519h-50.842783Z" fill="none" stroke="#000" stroke-linecap="round" stroke-linejoin="round"/><ellipse id="uuid-ad0741ba-3d23-42f6-ab7a-ba0fa50f77eb" cx="125" cy="215.5" rx="3" ry="4.5" fill="none" stroke="#000" stroke-linecap="round" stroke-linejoin="round"/><ellipse id="uuid-efa19fc0-c489-42f2-b894-7e8971eed728" cx="109" cy="216.5" rx="3" ry="4.5" fill="none" stroke="#000" stroke-linecap="round" stroke-linejoin="round"/><rect id="uuid-12e3b399-b41c-4218-a69b-60df2c5d77a6" x="137.261628" y="275.752277" width="15.067008" height="32.143004" transform="translate(-27.953257 15.626852) rotate(-5.634698)" fill="none" stroke="#000" stroke-linecap="round" stroke-linejoin="round"/><rect id="uuid-3d5315c4-d8d8-461b-b5f9-16a9e7af87be" x="134.122202" y="243.93237" width="15.067008" height="32.143004" transform="translate(-24.84417 15.164856) rotate(-5.634698)" fill="none" stroke="#000" stroke-linecap="round" stroke-linejoin="round"/><rect id="uuid-f862d4a5-1e2b-497c-ace4-797eb673521b" x="52.986755" y="252.470368" width="32.143004" height="15.067008" transform="translate(-195.694675 307.721181) rotate(-85.342327)" fill="none" stroke="#000" stroke-linecap="round" stroke-linejoin="round"/><rect id="uuid-ec113e6f-683c-495c-bccd-c2e46a39bb22" x="50.394346" y="284.290275" width="32.143004" height="15.067008" transform="translate(-229.7914 334.373393) rotate(-85.342327)" fill="none" stroke="#000" stroke-linecap="round" stroke-linejoin="round"/><rect id="uuid-bf4e0bb8-37af-47f7-bc88-e776951b7aea" x="138.960618" y="307.903999" width="16.258368" height="16.258368" transform="translate(-30.319342 15.969226) rotate(-5.634728)" fill="none" stroke="#000" stroke-linecap="round" stroke-linejoin="round"/><rect id="uuid-9470c89b-428a-4868-b484-3a5932e5deb3" x="56.466048" y="307.895277" width="16.071504" height="16.071504" transform="translate(-255.623582 354.565688) rotate(-85.342357)" fill="none" stroke="#000" stroke-linecap="round" stroke-linejoin="round"/><circle id="uuid-57ce3c91-ac2d-4e52-bbc4-42effc78d56e" cx="105.999912" cy="290.999912" r="1.999912" fill="none" stroke="#000" stroke-linecap="round" stroke-linejoin="round"/><circle id="uuid-0c433818-0189-4f55-a3f8-e5b61c166dd6" cx="105.999912" cy="282.999912" r="1.999912" fill="none" stroke="#000" stroke-linecap="round" stroke-linejoin="round"/><circle id="uuid-ff6e77f1-eac5-4a8c-a861-0db3bffd8ed1" cx="105.999912" cy="274.999912" r="1.999912" fill="none" stroke="#000" stroke-linecap="round" stroke-linejoin="round"/><circle id="uuid-da7bfda1-a09c-455a-bdb1-000f80c25966" cx="105.999912" cy="265.999912" r="1.999912" fill="none" stroke="#000" stroke-linecap="round" stroke-linejoin="round"/><path d="M136.098723,186.353058c-3.182734-13.780973-18.570738-23.242006-35.967306-21.525611s-30.638969,14.002185-31.067212,28.139428c-5.732782,1.405112-9.11214,2.800517-8.999182,3.945401.265331,2.689273,19.649441,2.978073,43.295619.645074,23.646178-2.332999,42.600104-6.404339,42.334773-9.093612-.112958-1.144884-3.699853-1.852979-9.596692-2.11068Z" fill="none" stroke="#000" stroke-linecap="round" stroke-linejoin="round"/></g><path d="M114.083782,147.61353c1.69919-1.267793,8.333372-6.885293,8.316641-24.73928-.007428-7.926518-1.3232-15.533882-2.413079-20.594574" fill="none" stroke="#333" stroke-miterlimit="10" stroke-width="2"/><text transform="translate(46.719238 82.624512)" fill="#333" font-family="ComicNeue-Bold, &apos;Comic Neue&apos;" font-size="24" font-weight="700"><tspan x="0" y="0">I got a gun.</tspan></text><polygon points="414.403617 318.771185 422.705841 323 385.345796 322.999999 406.101377 317.716493 414.403617 318.771185" fill="#633d35"/><path d="M242,287h39.308444c0-.303131,3.66929-.433712,4.595879-1.182041.611552-.492191-.685673-1.566973-4.466156-2.877806-.500359-.175781-.574487-.411832-.166786-.60268,1.111904-.502234,3.280125-1.582039,9.858903-2.260055,7.264459-.748328,13.379942-.607703,15.974386-.492191.870996.04018,1.667862.150672,2.297943.286274,5.559524,1.22043,52.778483,8.128499,52.778483,8.128499,0,0,27.202087-.09706,42.954093-.097059,14.362123,0,26.352179,6.352701,29.131941,14.797087l-4.947982,4.712355,3.724888,5.435467c-1.019254,1.727703-2.427659,3.33893-4.169651,4.785152l-38.95378,3.625261,33.208931,1.019151s-10.65577,2.722586-17.99435,2.722586c-15.881728,0-163.135187,1.019145-163.135187,1.019145v-39.019145Z" fill="#ad7156"/><path d="M253.517202,285.817959c-.030135.085379-.070313.160715-.115514.231027.060268-.090402.095424-.175781.115514-.231027Z" fill="url(#uuid-a603dbde-f3ea-4d4c-b151-d516827d8dad)"/><path d="M270.448814,313.603786c10.303668.165739,20.514671.457034,30.707145.768419l15.251647.467079c5.077709.145649,10.099817.336497,14.973668.296319,5.003573,0,10.118346-.065291,15.214583-.135603l15.344305-.185826c10.248068-.120537,20.496135-.226005,30.818332-.205915-10.081289.602681-20.255228,1.02958-30.466238,1.376122-10.229532.341519-20.422007.607703-30.892461.657927-5.392752.010045-10.58164-.200895-15.677877-.391743-5.096237-.220983-10.173939-.441967-15.214583-.718196-10.09981-.537393-20.125498-1.15012-30.058521-1.928583Z" fill="#ce8963"/><path d="M322.337772,320.095465c1.297218-.135604,2.705637-.15067,4.058463-.19085,1.371347-.025111,2.742708-.050223,4.114056-.060267,2.742708-.02009,5.485403-.030135,8.228111-.02009,5.485403.010045,10.952284.065291,16.419151.145649,5.466867.075336,10.915212.175782,16.363558.296319,5.448345.105469,10.896677.261163,16.345022.406811l-.667145.015066,9.655052-.713172,9.692123-.678016c6.48612-.436943,12.972241-.853799,19.551026-1.210384-6.226677.662949-12.546004,1.265631-18.865345,1.848223l-9.506794.853799-9.506837.813617-.296515.025111-.352108-.010045c-5.42981-.125559-10.878155-.231028-16.326486-.371654-5.42981-.125559-10.878155-.266185-16.307965-.411834l-16.289429-.446989-8.153982-.215961c-1.352826-.035156-2.724173-.065291-4.076984-.090402-1.352797-.010043-2.724159-.060268-4.07697.015068Z" fill="#ce8963"/><path d="M382.566036,308h46.32943s3.706356-4.017875,3.706356-4.017875c0,0-27.797659,2.511172-50.035786,4.017875Z" fill="#ce8963"/><path d="M351.06203,292.524579c-23.998638-2.852693-49.906057-12.897384-49.906057-12.897384l-.796867-.296317c3.261589-.055246,5.63366-.010043,6.930886.070313.574487.035156,1.519605.150672,1.871706.231027,4.373499.964289,34.135517,7.36778,53.000862,7.367781,0,0,26.778405-.100445,42.530425-.100444,7.060601,0,16.771258,2.109384,22.330788,6.629495l-53.742138-2.00894,16.678593,4.520111c.018522,0-22.015753-1.511728-38.898198-3.515643Z" fill="#965b44"/><path d="M279.951016,286.718751c7.639743-.130582,5.904299-1.546883,5.904299-1.546883,2.867262,1.627239,4.470661,3.987743,1.05636,5.353822-3.772714,1.506703-23.371957,2.219875-23.371957,2.219875l-11.318139-1.004469-10.431551-4.741095,38.160988-.281249Z" fill="#965b44"/><path d="M233.608623,307.800762c.231027,10.069802,3.746667,18.070398,8.050817,18.070398,4.45482,0,8.060864-8.563097,8.060866-19.12509s-3.611064-19.125091-8.060861-19.125092c-4.28406,0-7.789658,7.925259-8.045799,17.934793" fill="#ffcc80"/><path d="M233.608623,307.800762c.286273,3.601022.853798,7.191998,2.089295,10.541903.607704,1.667418,1.361055,3.294658,2.410725,4.655714.527346.667972,1.119983,1.28572,1.803021,1.69253.672994.421877,1.426346.592637,2.149564.472101.718196-.120536,1.401234-.527346,1.983827-1.084826.582592-.557481,1.099894-1.230475,1.531815-1.963737.868866-1.471546,1.486615-3.123898,1.953692-4.811406.934156-3.390083,1.325901-6.945904,1.320878-10.491678.010045-3.540755-.36663-7.101596-1.290741-10.496702-.462056-1.687508-1.06976-3.349903-1.923558-4.826474-.426899-.738285-.924111-1.426344-1.506703-1.988848-.572547-.567524-1.245541-1.004469-1.963737-1.145094-.718195-.165738-1.471547.005023-2.154586.386719-.683039.391742-1.290743.989402-1.823112,1.652352-1.06976,1.340965-1.828134,2.968208-2.445883,4.630602-1.250564,3.33986-1.828135,6.930838-2.129475,10.531858-.015067-.904024-.010044-1.808043.02009-2.717091.045201-.904024.120536-1.813067.226006-2.712067.220983-1.80302.547436-3.606044,1.06976-5.368888.542413-1.752797,1.24052-3.490528,2.340413-5.047458.552458-.778465,1.225452-1.50168,2.089296-2.044094.858821-.537391,1.973781-.843754,3.043541-.647883,1.074782.170758,1.993871.753352,2.722111,1.416301.738284.672992,1.315854,1.456481,1.818088,2.270098.994424,1.627239,1.672441,3.38506,2.204809,5.16297,1.024558,3.575911,1.426345,7.267334,1.441411,10.948712-.030135,3.676356-.436944,7.372803-1.481593,10.94369-.537391,1.777911-1.230475,3.530709-2.234945,5.152926-.507257.808598-1.104916,1.582038-1.853246,2.25001-.743307.652904-1.692531,1.205362-2.767312,1.345988-.532368.06529-1.079804.030134-1.597106-.105469-.517302-.130581-.984379-.371654-1.411279-.647882-.853799-.557481-1.501681-1.300788-2.049117-2.079251-1.074782-1.571995-1.767865-3.304704-2.300233-5.062525-.512279-1.762842-.833709-3.565864-1.04967-5.37391-.100447-.904022-.175782-1.808043-.21596-2.717089-.040177-.909037-.040177-1.818083-.020087-2.722104Z" fill="#ce8963"/><path d="M240.328519,326.167478c3.530709,0,6.393446-7.197019,6.393447-16.081548,0-8.88453-2.862734-16.081548-6.393443-16.081548s-7.603831,3.138965-6.398469,16.081547c.828686,8.84435,2.862735,16.081549,6.398466,16.08155Z" fill="url(#uuid-8ada800e-653b-4719-80bf-e85b4f842cfe)"/><g opacity=".66"><path d="M240.815687,321.561988c.698106.005023,1.325899-.40681,1.813067-.898999.482145-.507256.858822-1.109938,1.175229-1.737731.622771-1.260608,1.024558-2.621665,1.335944-3.992765.57757-2.752245.783486-5.574802.74833-8.377272s-.316407-5.614982-.979357-8.322026c-.341519-1.345989-.778463-2.676911-1.406256-3.892318-.311386-.60268-.693083-1.170207-1.13505-1.637286-.452011-.452012-.994424-.788508-1.546882-.773442-.547436.005023-1.074782.346543-1.511726.808598-.431922.472102-.793531,1.039625-1.089849,1.647328-.597659,1.215407-.999447,2.546329-1.310832,3.892317-.311385,1.351012-.517302,2.727133-.657928,4.108278-.150671,1.381145-.220983,2.777356-.231028,4.168546-.02009,2.787401.120536,5.589871.647882,8.337094.281251,1.366079.64286,2.727134,1.235496,3.992765.301341.627793.662949,1.230475,1.130027,1.747776.467078.497212,1.079803.919089,1.782932.929134ZM240.815687,321.672479c-.743307.010045-1.401234-.416855-1.903469-.91909-.502234-.517301-.914067-1.109938-1.250564-1.742754-.688061-1.255586-1.175229-2.606597-1.561949-3.98272-.763396-2.752245-1.140072-5.614982-1.170205-8.472698-.005022-1.431368.055246-2.862735.195872-4.289083.150671-1.426344.391743-2.842645.733263-4.24388.356587-1.396211.808598-2.777356,1.491637-4.088188.34152-.652906.753352-1.280699,1.290743-1.8432.276229-.271207.587614-.527348.949223-.723219.361609-.195871.788508-.32143,1.225453-.316406s.858821.135602,1.215408.336496c.356586.200895.662949.457035.929134.733262.522324.562504.919089,1.195317,1.240519,1.853247.647882,1.310832,1.069759,2.691977,1.391189,4.088189.627793,2.792423.858821,5.645115.838731,8.487764-.050224,2.837626-.356587,5.685294-1.069761,8.432518-.356586,1.3711-.808598,2.727133-1.461503,3.987741-.32143.632815-.718196,1.230475-1.205363,1.752799-.492192.507257-1.135051.9442-1.878358.949223Z" fill="#7f441c"/></g><path d="M240.253185,318.181949c1.86329,0,3.375016-4.851585,3.375017-10.833198,0-5.981613-1.511725-10.833196-3.375014-10.833197s-3.375016,4.851587-3.375017,10.833198c0,5.981611,1.511724,10.833196,3.375014,10.833197ZM240.253185,316.333726c-1.396212,0-2.531261-3.827027-2.531261-8.553055,0-4.726029,1.135051-8.553053,2.531263-8.553053,1.396211,0,2.531262,3.827029,2.531261,8.553053,0,4.726025-1.135051,8.553055-2.531263,8.553055Z" fill="#b5772c" isolation="isolate" opacity=".82"/><ellipse cx="240" cy="306.5" rx="1" ry="4.5" fill="url(#uuid-4a29be36-37f3-45cf-b720-b50d4f403d09)" isolation="isolate" opacity=".74"/><polygon points="414.403617 318.771185 422.705841 323 385.345796 322.999999 406.101377 317.716493 414.403617 318.771185" fill="none" stroke="#000" stroke-linecap="round" stroke-linejoin="round"/><path d="M242,287h39.308444c0-.303131,3.66929-.433712,4.595879-1.182041.611552-.492191-.685673-1.566973-4.466156-2.877806-.500359-.175781-.574487-.411832-.166786-.60268,1.111904-.502234,3.280125-1.582039,9.858903-2.260055,7.264459-.748328,13.379942-.607703,15.974386-.492191.870996.04018,1.667862.150672,2.297943.286274,5.559524,1.22043,52.778483,8.128499,52.778483,8.128499,0,0,27.202087-.09706,42.954093-.097059,14.362123,0,26.352179,6.352701,29.131941,14.797087l-4.947982,4.712355,3.724888,5.435467c-1.019254,1.727703-2.427659,3.33893-4.169651,4.785152l-38.95378,3.625261,33.208931,1.019151s-10.65577,2.722586-17.99435,2.722586c-15.881728,0-163.135187,1.019145-163.135187,1.019145v-39.019145Z" fill="none" stroke="#000" stroke-linecap="round" stroke-linejoin="round"/><path d="M253.517202,285.817959c-.030135.085379-.070313.160715-.115514.231027.060268-.090402.095424-.175781.115514-.231027Z" fill="none" stroke="#000" stroke-linecap="round" stroke-linejoin="round"/><path d="M270.448814,313.603786c10.303668.165739,20.514671.457034,30.707145.768419l15.251647.467079c5.077709.145649,10.099817.336497,14.973668.296319,5.003573,0,10.118346-.065291,15.214583-.135603l15.344305-.185826c10.248068-.120537,20.496135-.226005,30.818332-.205915-10.081289.602681-20.255228,1.02958-30.466238,1.376122-10.229532.341519-20.422007.607703-30.892461.657927-5.392752.010045-10.58164-.200895-15.677877-.391743-5.096237-.220983-10.173939-.441967-15.214583-.718196-10.09981-.537393-20.125498-1.15012-30.058521-1.928583Z" fill="none" stroke="#000" stroke-linecap="round" stroke-linejoin="round"/><path d="M322.337772,320.095465c1.297218-.135604,2.705637-.15067,4.058463-.19085,1.371347-.025111,2.742708-.050223,4.114056-.060267,2.742708-.02009,5.485403-.030135,8.228111-.02009,5.485403.010045,10.952284.065291,16.419151.145649,5.466867.075336,10.915212.175782,16.363558.296319,5.448345.105469,10.896677.261163,16.345022.406811l-.667145.015066,9.655052-.713172,9.692123-.678016c6.48612-.436943,12.972241-.853799,19.551026-1.210384-6.226677.662949-12.546004,1.265631-18.865345,1.848223l-9.506794.853799-9.506837.813617-.296515.025111-.352108-.010045c-5.42981-.125559-10.878155-.231028-16.326486-.371654-5.42981-.125559-10.878155-.266185-16.307965-.411834l-16.289429-.446989-8.153982-.215961c-1.352826-.035156-2.724173-.065291-4.076984-.090402-1.352797-.010043-2.724159-.060268-4.07697.015068Z" fill="none" stroke="#000" stroke-linecap="round" stroke-linejoin="round"/><path d="M382.566036,308h46.32943s3.706356-4.017875,3.706356-4.017875c0,0-27.797659,2.511172-50.035786,4.017875Z" fill="none" stroke="#000" stroke-linecap="round" stroke-linejoin="round"/><path d="M351.06203,292.524579c-23.998638-2.852693-49.906057-12.897384-49.906057-12.897384l-.796867-.296317c3.261589-.055246,5.63366-.010043,6.930886.070313.574487.035156,1.519605.150672,1.871706.231027,4.373499.964289,34.135517,7.36778,53.000862,7.367781,0,0,26.778405-.100445,42.530425-.100444,7.060601,0,16.771258,2.109384,22.330788,6.629495l-53.742138-2.00894,16.678593,4.520111c.018522,0-22.015753-1.511728-38.898198-3.515643Z" fill="none" stroke="#000" stroke-linecap="round" stroke-linejoin="round"/><path d="M279.951016,286.718751c7.639743-.130582,5.904299-1.546883,5.904299-1.546883,2.867262,1.627239,4.470661,3.987743,1.05636,5.353822-3.772714,1.506703-23.371957,2.219875-23.371957,2.219875l-11.318139-1.004469-10.431551-4.741095,38.160988-.281249Z" fill="none" stroke="#000" stroke-linecap="round" stroke-linejoin="round"/><path d="M233.608623,307.800762c.231027,10.069802,3.746667,18.070398,8.050817,18.070398,4.45482,0,8.060864-8.563097,8.060866-19.12509s-3.611064-19.125091-8.060861-19.125092c-4.28406,0-7.789658,7.925259-8.045799,17.934793" fill="none" stroke="#000" stroke-linecap="round" stroke-linejoin="round"/><path d="M233.608623,307.800762c.286273,3.601022.853798,7.191998,2.089295,10.541903.607704,1.667418,1.361055,3.294658,2.410725,4.655714.527346.667972,1.119983,1.28572,1.803021,1.69253.672994.421877,1.426346.592637,2.149564.472101.718196-.120536,1.401234-.527346,1.983827-1.084826.582592-.557481,1.099894-1.230475,1.531815-1.963737.868866-1.471546,1.486615-3.123898,1.953692-4.811406.934156-3.390083,1.325901-6.945904,1.320878-10.491678.010045-3.540755-.36663-7.101596-1.290741-10.496702-.462056-1.687508-1.06976-3.349903-1.923558-4.826474-.426899-.738285-.924111-1.426344-1.506703-1.988848-.572547-.567524-1.245541-1.004469-1.963737-1.145094-.718195-.165738-1.471547.005023-2.154586.386719-.683039.391742-1.290743.989402-1.823112,1.652352-1.06976,1.340965-1.828134,2.968208-2.445883,4.630602-1.250564,3.33986-1.828135,6.930838-2.129475,10.531858-.015067-.904024-.010044-1.808043.02009-2.717091.045201-.904024.120536-1.813067.226006-2.712067.220983-1.80302.547436-3.606044,1.06976-5.368888.542413-1.752797,1.24052-3.490528,2.340413-5.047458.552458-.778465,1.225452-1.50168,2.089296-2.044094.858821-.537391,1.973781-.843754,3.043541-.647883,1.074782.170758,1.993871.753352,2.722111,1.416301.738284.672992,1.315854,1.456481,1.818088,2.270098.994424,1.627239,1.672441,3.38506,2.204809,5.16297,1.024558,3.575911,1.426345,7.267334,1.441411,10.948712-.030135,3.676356-.436944,7.372803-1.481593,10.94369-.537391,1.777911-1.230475,3.530709-2.234945,5.152926-.507257.808598-1.104916,1.582038-1.853246,2.25001-.743307.652904-1.692531,1.205362-2.767312,1.345988-.532368.06529-1.079804.030134-1.597106-.105469-.517302-.130581-.984379-.371654-1.411279-.647882-.853799-.557481-1.501681-1.300788-2.049117-2.079251-1.074782-1.571995-1.767865-3.304704-2.300233-5.062525-.512279-1.762842-.833709-3.565864-1.04967-5.37391-.100447-.904022-.175782-1.808043-.21596-2.717089-.040177-.909037-.040177-1.818083-.020087-2.722104Z" fill="none" stroke="#000" stroke-linecap="round" stroke-linejoin="round"/><path d="M240.328519,326.167478c3.530709,0,6.393446-7.197019,6.393447-16.081548,0-8.88453-2.862734-16.081548-6.393443-16.081548s-7.603831,3.138965-6.398469,16.081547c.828686,8.84435,2.862735,16.081549,6.398466,16.08155Z" fill="none" stroke="#000" stroke-linecap="round" stroke-linejoin="round"/><path d="M240.815687,321.561988c.698106.005023,1.325899-.40681,1.813067-.898999.482145-.507256.858822-1.109938,1.175229-1.737731.622771-1.260608,1.024558-2.621665,1.335944-3.992765.57757-2.752245.783486-5.574802.74833-8.377272s-.316407-5.614982-.979357-8.322026c-.341519-1.345989-.778463-2.676911-1.406256-3.892318-.311386-.60268-.693083-1.170207-1.13505-1.637286-.452011-.452012-.994424-.788508-1.546882-.773442-.547436.005023-1.074782.346543-1.511726.808598-.431922.472102-.793531,1.039625-1.089849,1.647328-.597659,1.215407-.999447,2.546329-1.310832,3.892317-.311385,1.351012-.517302,2.727133-.657928,4.108278-.150671,1.381145-.220983,2.777356-.231028,4.168546-.02009,2.787401.120536,5.589871.647882,8.337094.281251,1.366079.64286,2.727134,1.235496,3.992765.301341.627793.662949,1.230475,1.130027,1.747776.467078.497212,1.079803.919089,1.782932.929134ZM240.815687,321.672479c-.743307.010045-1.401234-.416855-1.903469-.91909-.502234-.517301-.914067-1.109938-1.250564-1.742754-.688061-1.255586-1.175229-2.606597-1.561949-3.98272-.763396-2.752245-1.140072-5.614982-1.170205-8.472698-.005022-1.431368.055246-2.862735.195872-4.289083.150671-1.426344.391743-2.842645.733263-4.24388.356587-1.396211.808598-2.777356,1.491637-4.088188.34152-.652906.753352-1.280699,1.290743-1.8432.276229-.271207.587614-.527348.949223-.723219.361609-.195871.788508-.32143,1.225453-.316406s.858821.135602,1.215408.336496c.356586.200895.662949.457035.929134.733262.522324.562504.919089,1.195317,1.240519,1.853247.647882,1.310832,1.069759,2.691977,1.391189,4.088189.627793,2.792423.858821,5.645115.838731,8.487764-.050224,2.837626-.356587,5.685294-1.069761,8.432518-.356586,1.3711-.808598,2.727133-1.461503,3.987741-.32143.632815-.718196,1.230475-1.205363,1.752799-.492192.507257-1.135051.9442-1.878358.949223Z" fill="none" stroke="#000" stroke-linecap="round" stroke-linejoin="round"/><path d="M240.253185,318.181949c1.86329,0,3.375016-4.851585,3.375017-10.833198,0-5.981613-1.511725-10.833196-3.375014-10.833197s-3.375016,4.851587-3.375017,10.833198c0,5.981611,1.511724,10.833196,3.375014,10.833197ZM240.253185,316.333726c-1.396212,0-2.531261-3.827027-2.531261-8.553055,0-4.726029,1.135051-8.553053,2.531263-8.553053,1.396211,0,2.531262,3.827029,2.531261,8.553053,0,4.726025-1.135051,8.553055-2.531263,8.553055Z" fill="none" stroke="#000" stroke-linecap="round" stroke-linejoin="round"/><ellipse cx="240" cy="306.5" rx="1" ry="4.5" fill="none" stroke="#000" stroke-linecap="round" stroke-linejoin="round"/><g id="uuid-0a2a1659-c526-482a-83ca-1f28f4b0ac24"><polygon id="uuid-9084e630-686f-44a7-95d4-9d583620da08" points="415.30117 319.856907 401.892591 324.56347 410.072641 347.867704 411.719941 352.560713 431.832839 345.500858 430.18554 340.807848 423.48122 343.161141 415.30117 319.856907" fill="#5f5f5f"/><rect id="uuid-25c02d0b-ba22-46a7-a09b-65e79d5cda96" x="390.351277" y="293.133125" width="17.690127" height="34.920131" transform="translate(-106.591212 308.402214) rotate(-37.636371)" fill="#727272"/><polygon id="uuid-345931d1-373c-4307-aaf9-52e3ccd6450f" points="371.32718 330.897542 384.85455 326.544155 392.420776 350.054849 399.184471 347.878153 400.708159 352.612739 380.417073 359.142829 378.893386 354.408242 378.893406 354.408235 371.32718 330.897542" fill="#5f5f5f"/><rect id="uuid-bde1e9d7-1304-4200-a6d8-8be4c0e591dd" x="362.355203" y="297.110819" width="17.690114" height="34.920131" transform="translate(-97.915822 185.440812) rotate(-24.889126)" fill="#727272"/><path id="uuid-ac38ca54-af4b-4001-a1da-902906067ab5" d="M356,232v71h40v-71h-40Z" fill="#727272"/><rect id="uuid-c452ffa9-8c96-461c-b359-8131d23768a8" x="356" y="273" width="40" height="12" fill="#acacac"/><rect id="uuid-fd1d9026-7bae-4066-bb7d-ad944756236a" x="384" y="232" width="5" height="42" fill="#acacac"/><rect id="uuid-26d18bd1-abb0-4721-821c-9aac68aacff8" x="363" y="232" width="5" height="42" fill="#acacac"/><path id="uuid-7447f690-7464-40d2-8086-d0d348d48e6a" d="M394.933789,224c1.423211-3.810436,2.227872-8.103682,2.227872-12.649544,0-15.696626-9.543481-28.421283-21.315962-28.421283s-21.315962,12.724656-21.315962,28.421283c0,4.545861.804661,8.839107,2.227872,12.649544h38.17618Z" fill="#ccc"/><path id="uuid-fe89783d-90b8-43d0-98e8-da8354546241" d="M357.863348,227c3.784134,7.914687,10.420978,13.168782,17.982351,13.168782s14.198217-5.254095,17.982351-13.168782h-35.964701Z" fill="#ccc"/><ellipse id="uuid-c8efe6ba-84ba-48b8-bea1-3094e63aa311" cx="387" cy="211" rx="2" ry="3" fill="#333"/><ellipse id="uuid-d8fb9bb7-58ed-4435-8e72-bc6976f82ca8" cx="374" cy="211" rx="2" ry="3" fill="#333"/><rect id="uuid-f6072de3-6a82-4b10-a2c2-3a7a8e3bbbd3" x="396.940538" y="254.67186" width="10.657961" height="22.737023" transform="translate(-9.995172 15.76838) rotate(-2.218075)" fill="#727272"/><rect id="uuid-38197700-2317-4b0e-b30b-ef8f52dc22c8" x="396.060527" y="231.95187" width="10.657961" height="22.737023" transform="translate(-9.116499 15.717298) rotate(-2.218075)" fill="#727272"/><rect id="uuid-9b33e731-1395-4558-a048-585cc99c9839" x="338.142945" y="237.431918" width="22.737023" height="10.657961" transform="translate(62.802571 557.227314) rotate(-82.426354)" fill="#727272"/><rect id="uuid-14a0eaf3-1769-4071-92d0-424953068cd7" x="335.146214" y="259.970594" width="22.737023" height="10.657961" transform="translate(37.858754 573.824795) rotate(-82.426354)" fill="#727272"/><rect id="uuid-757cfa7a-74a3-44d0-9ac9-d77312fc354e" x="397.254256" y="277.628078" width="11.368513" height="11.368513" transform="translate(-10.663377 15.807568) rotate(-2.218124)" fill="#ccc"/><rect id="uuid-364120f7-c480-4dd2-9f2d-8897e974d87c" x="338.58292" y="276.519326" width="11.368513" height="11.368513" transform="translate(19.151153 586.273184) rotate(-82.426403)" fill="#ccc"/><circle id="uuid-ad7cd763-d942-42ef-afd1-7c21108d4aec" cx="375.5" cy="265.5" r="1.5" fill="#333"/><circle id="uuid-ba7899eb-ff3b-45db-b6b0-2f0d057ad3db" cx="375.5" cy="259.5" r="1.5" fill="#333"/><circle id="uuid-12b4815c-f848-43b9-a9d1-70bbdda77c0b" cx="375.5" cy="253.5" r="1.5" fill="#333"/><circle id="uuid-775ed03e-4d2c-43f0-b3d6-38dd447dcef8" cx="375.5" cy="247.5" r="1.5" fill="#333"/><path d="M399.669946,195.09503c-1.283351-9.922209-11.458674-17.651088-23.824248-17.651088s-22.540897,7.728879-23.824248,17.651088c-4.133199.590968-6.609024,1.338558-6.609024,2.152348,0,1.91155,13.625441,3.461155,30.433271,3.461155s30.433271-1.549605,30.433271-3.461155c0-.81379-2.475825-1.561379-6.609024-2.152348Z" fill="#6a6a6a"/><polygon id="uuid-4a36aae9-6402-4d05-b785-fa4192323e82" points="415.30117 319.856907 401.892591 324.56347 410.072641 347.867704 411.719941 352.560713 431.832839 345.500858 430.18554 340.807848 423.48122 343.161141 415.30117 319.856907" fill="none" stroke="#000" stroke-linecap="round" stroke-linejoin="round"/><rect id="uuid-ce770025-6979-4eca-894b-abf217f47807" x="390.351277" y="293.133125" width="17.690127" height="34.920131" transform="translate(-106.591212 308.402214) rotate(-37.636371)" fill="none" stroke="#000" stroke-linecap="round" stroke-linejoin="round"/><polygon id="uuid-34924a3e-d3f8-47fb-a9f5-7f836f05dd9f" points="371.32718 330.897542 384.85455 326.544155 392.420776 350.054849 399.184471 347.878153 400.708159 352.612739 380.417073 359.142829 378.893386 354.408242 378.893406 354.408235 371.32718 330.897542" fill="none" stroke="#000" stroke-linecap="round" stroke-linejoin="round"/><rect id="uuid-99c60d6a-5198-437f-bdb8-d4e5a9546bc3" x="362.355203" y="297.110819" width="17.690114" height="34.920131" transform="translate(-97.915822 185.440812) rotate(-24.889126)" fill="none" stroke="#000" stroke-linecap="round" stroke-linejoin="round"/><path id="uuid-eca578f5-d17a-4d25-a878-d41f15330e04" d="M356,232v71h40v-71h-40Z" fill="none" stroke="#000" stroke-linecap="round" stroke-linejoin="round"/><rect id="uuid-bf90b2d0-9b32-4b33-abcd-1596cb4f43ec" x="356" y="273" width="40" height="12" fill="none" stroke="#000" stroke-linecap="round" stroke-linejoin="round"/><rect id="uuid-4057689d-1fb5-4f3d-b6f7-4a7163e52faf" x="384" y="232" width="5" height="42" fill="none" stroke="#000" stroke-linecap="round" stroke-linejoin="round"/><rect id="uuid-ce654e0d-8aa9-42dd-80a9-ba6fa4455890" x="363" y="232" width="5" height="42" fill="none" stroke="#000" stroke-linecap="round" stroke-linejoin="round"/><path id="uuid-de310d1b-db57-4c98-a548-bb68cff6f59a" d="M394.933789,224c1.423211-3.810436,2.227872-8.103682,2.227872-12.649544,0-15.696626-9.543481-28.421283-21.315962-28.421283s-21.315962,12.724656-21.315962,28.421283c0,4.545861.804661,8.839107,2.227872,12.649544h38.17618Z" fill="none" stroke="#000" stroke-linecap="round" stroke-linejoin="round"/><path id="uuid-725167bb-c62f-4a7f-b04a-14407ec521b1" d="M357.863348,227c3.784134,7.914687,10.420978,13.168782,17.982351,13.168782s14.198217-5.254095,17.982351-13.168782h-35.964701Z" fill="none" stroke="#000" stroke-linecap="round" stroke-linejoin="round"/><ellipse id="uuid-6d18c3e1-46eb-4861-b17d-66d671eaf7d5" cx="387" cy="211" rx="2" ry="3" fill="none" stroke="#000" stroke-linecap="round" stroke-linejoin="round"/><ellipse id="uuid-64c59a61-7380-4c61-8428-666084bc035c" cx="374" cy="211" rx="2" ry="3" fill="none" stroke="#000" stroke-linecap="round" stroke-linejoin="round"/><rect id="uuid-c1a4db50-c524-48d4-a121-b7ea315e2b00" x="396.940538" y="254.67186" width="10.657961" height="22.737023" transform="translate(-9.995172 15.76838) rotate(-2.218075)" fill="none" stroke="#000" stroke-linecap="round" stroke-linejoin="round"/><rect id="uuid-454645de-a5fa-4f98-bb46-6d94e90a32e7" x="396.060527" y="231.95187" width="10.657961" height="22.737023" transform="translate(-9.116499 15.717298) rotate(-2.218075)" fill="none" stroke="#000" stroke-linecap="round" stroke-linejoin="round"/><rect id="uuid-d440f2df-b741-4846-9b87-d5be401d1cf5" x="338.142945" y="237.431918" width="22.737023" height="10.657961" transform="translate(62.802571 557.227314) rotate(-82.426354)" fill="none" stroke="#000" stroke-linecap="round" stroke-linejoin="round"/><rect id="uuid-c93e12da-ed33-4fdf-baba-9c773fff1044" x="335.146214" y="259.970594" width="22.737023" height="10.657961" transform="translate(37.858754 573.824795) rotate(-82.426354)" fill="none" stroke="#000" stroke-linecap="round" stroke-linejoin="round"/><rect id="uuid-334e4a0b-509f-4e5c-ba4b-21d3292f663f" x="397.254256" y="277.628078" width="11.368513" height="11.368513" transform="translate(-10.663377 15.807568) rotate(-2.218124)" fill="none" stroke="#000" stroke-linecap="round" stroke-linejoin="round"/><rect id="uuid-4bdf6a75-f9cc-40d1-bd2f-6ed5cc26ad3f" x="338.58292" y="276.519326" width="11.368513" height="11.368513" transform="translate(19.151153 586.273184) rotate(-82.426403)" fill="none" stroke="#000" stroke-linecap="round" stroke-linejoin="round"/><circle id="uuid-2eac5113-21ce-406f-a05e-60d2600c6969" cx="375.5" cy="265.5" r="1.5" fill="none" stroke="#000" stroke-linecap="round" stroke-linejoin="round"/><circle id="uuid-32edb751-8624-4125-a832-9eca9d4b2f44" cx="375.5" cy="259.5" r="1.5" fill="none" stroke="#000" stroke-linecap="round" stroke-linejoin="round"/><circle id="uuid-cbf51fab-0bcb-4c52-86db-35c0d9b49e60" cx="375.5" cy="253.5" r="1.5" fill="none" stroke="#000" stroke-linecap="round" stroke-linejoin="round"/><circle id="uuid-6a86873a-d1db-4faf-9504-4cc632f04a78" cx="375.5" cy="247.5" r="1.5" fill="none" stroke="#000" stroke-linecap="round" stroke-linejoin="round"/><path d="M399.669946,195.09503c-1.283351-9.922209-11.458674-17.651088-23.824248-17.651088s-22.540897,7.728879-23.824248,17.651088c-4.133199.590968-6.609024,1.338558-6.609024,2.152348,0,1.91155,13.625441,3.461155,30.433271,3.461155s30.433271-1.549605,30.433271-3.461155c0-.81379-2.475825-1.561379-6.609024-2.152348Z" fill="none" stroke="#000" stroke-linecap="round" stroke-linejoin="round"/></g></svg>