<?xml version="1.0" encoding="UTF-8"?><svg id="uuid-f03705ed-f4a4-4a8a-ab0f-e0417260de08" xmlns="http://www.w3.org/2000/svg" xmlns:xlink="http://www.w3.org/1999/xlink" viewBox="0 0 500 500"><defs><linearGradient id="uuid-581367da-3a0a-4bd6-9d0b-d48fa72a3ace" x1="2048.35" y1="788.91" x2="2048.34" y2="788.88" gradientTransform="translate(1042.35 2334.28) rotate(-90) scale(1 -1)" gradientUnits="userSpaceOnUse"><stop offset="0" stop-color="#ce8963"/><stop offset="1" stop-color="#d08a61" stop-opacity="0"/></linearGradient><radialGradient id="uuid-16ce6716-495a-4203-9497-3faf9f8736b9" cx="-3533.46" cy="691.65" fx="-3533.46" fy="691.65" r="10.88" gradientTransform="translate(653.71 4472.23) rotate(90) scale(1.18 .6)" gradientUnits="userSpaceOnUse"><stop offset=".06" stop-color="#ffa726"/><stop offset=".14" stop-color="#ffa726"/><stop offset="1" stop-color="#ffa726" stop-opacity=".1"/></radialGradient><linearGradient id="uuid-a7fa2c62-f8e0-4047-b086-b7178574f0dd" x1="-3993.53" y1="802.35" x2="-3984.53" y2="802.35" gradientTransform="translate(1042.35 4295.53) rotate(90)" gradientUnits="userSpaceOnUse"><stop offset="0" stop-color="#8a5140"/><stop offset="1" stop-color="#8a5140"/></linearGradient></defs><text transform="translate(232.18 403.81)" fill="#333" font-family="ComicNeue-Regular, &apos;Comic Neue&apos;" font-size="24"><tspan x="0" y="0">It was the beginning </tspan><tspan x="0" y="28.8">of the Great War.</tspan></text><g id="uuid-17087e95-92e8-4cbf-ab8c-3731344ca561"><polygon id="uuid-da4a5a13-73be-4594-8f62-0b3a2ba0977b" points="424 214 410 214 410 238.97 410 244 431 244 431 239 424 239 424 214" fill="#5f5f5f"/><rect id="uuid-d6ef26d1-a861-4618-9a55-d9a04f113a07" x="408" y="179" width="18" height="35" fill="#727272"/><polygon id="uuid-f6a5fc46-af09-4363-9a00-af005b42d0a0" points="402 214 388 214 388 239 381 239 381 244 402 244 402 238.97 402 238.97 402 214" fill="#5f5f5f"/><rect id="uuid-fc797b9a-0cac-4299-8d98-301933285093" x="386" y="179" width="18" height="35" fill="#727272"/><path id="uuid-076d21c8-c7db-4b86-8b09-51e62232ac1e" d="M386,108v71h40v-71h-40Z" fill="#727272"/><rect id="uuid-0a350599-9f79-4485-a66f-59a71a620993" x="386" y="149" width="40" height="12" fill="#acacac"/><rect id="uuid-321e0dcf-beda-466e-b37c-fa88b8b988da" x="414" y="107" width="5" height="42" fill="#acacac"/><rect id="uuid-da94a7c8-4e1a-47e9-8f13-1e9c633e849c" x="393" y="107" width="5" height="42" fill="#acacac"/><path id="uuid-f52ff8db-a9d9-40f6-8acd-3d315ea6201d" d="M425.12,100c1.42-3.81,2.23-8.1,2.23-12.65,0-15.7-9.54-28.42-21.32-28.42s-21.32,12.72-21.32,28.42c0,4.55.8,8.84,2.23,12.65h38.18Z" fill="#ccc"/><path id="uuid-e7bba1cf-15cc-4322-a7a1-dc678cdab2b9" d="M388.05,103c3.78,7.91,10.42,13.17,17.98,13.17s14.2-5.25,17.98-13.17h-35.96Z" fill="#ccc"/><ellipse id="uuid-a68b99dd-8f3c-4aa3-97ba-d3599fb2c717" cx="410" cy="90" rx="2" ry="3" fill="#333"/><ellipse id="uuid-bd51146e-0583-4fb5-b7f1-21d47e456938" cx="398" cy="90" rx="2" ry="3" fill="#333"/><rect id="uuid-1cfff2c7-7ac8-4a00-a543-4f2e1299759f" x="427.63" y="130.52" width="10.66" height="22.74" transform="translate(-14.75 57.37) rotate(-7.45)" fill="#727272"/><rect id="uuid-4b18144e-4fe9-490a-a5be-d90c5c2bb95b" x="424.68" y="107.97" width="10.66" height="22.74" transform="translate(-11.85 56.8) rotate(-7.45)" fill="#727272"/><rect id="uuid-93668321-221b-4ce7-a6a0-419427e138d6" x="368.83" y="113.69" width="22.74" height="10.66" transform="translate(244.71 493.66) rotate(-87.5)" fill="#727272"/><rect id="uuid-d6f3715b-c795-4b50-a861-e4171c6e5ca0" x="367.84" y="136.41" width="22.74" height="10.66" transform="translate(221.06 514.4) rotate(-87.5)" fill="#727272"/><rect id="uuid-41bce28b-43a6-4719-94da-e91a73e31014" x="429.52" y="153.34" width="11.37" height="11.37" transform="translate(-16.95 57.81) rotate(-7.45)" fill="#ccc"/><rect id="uuid-a69d55a7-1204-44b9-84d3-9965d860a55f" x="372.78" y="153.09" width="11.37" height="11.37" transform="translate(203.33 529.95) rotate(-87.5)" fill="#ccc"/><circle id="uuid-38fb637d-698a-48c6-977a-9ec471220a34" cx="405.5" cy="141.5" r="1.5" fill="#333"/><circle id="uuid-9fda64e2-8f8a-41f0-b1ad-9591f668a79f" cx="405.5" cy="135.5" r="1.5" fill="#333"/><circle id="uuid-fb429566-cb90-46f1-bc1e-9208d57496b4" cx="405.5" cy="129.5" r="1.5" fill="#333"/><circle id="uuid-4eb1a91c-9b33-43a2-a683-caef1e826347" cx="405.5" cy="122.5" r="1.5" fill="#333"/><path d="M429.85,70.98c-1.28-9.92-11.46-17.65-23.82-17.65s-22.54,7.73-23.82,17.65c-4.13.59-6.61,1.34-6.61,2.15,0,1.91,13.63,3.46,30.43,3.46s30.43-1.55,30.43-3.46c0-.81-2.48-1.56-6.61-2.15Z" fill="#6a6a6a"/><polygon id="uuid-f242de11-aff3-4fdc-9d49-08d1e60b6f26" points="424 214 410 214 410 238.97 410 244 431 244 431 239 424 239 424 214" fill="none" stroke="#000" stroke-linecap="round" stroke-linejoin="round"/><rect id="uuid-646c2494-c8e3-40f4-aedf-06f8981fe9a1" x="408" y="179" width="18" height="35" fill="none" stroke="#000" stroke-linecap="round" stroke-linejoin="round"/><polygon id="uuid-5c003a2e-fed6-40a9-bee3-07ce91883de1" points="402 214 388 214 388 239 381 239 381 244 402 244 402 238.97 402 238.97 402 214" fill="none" stroke="#000" stroke-linecap="round" stroke-linejoin="round"/><rect id="uuid-9d546080-cef1-4513-95eb-2bec902c51f4" x="386" y="179" width="18" height="35" fill="none" stroke="#000" stroke-linecap="round" stroke-linejoin="round"/><path id="uuid-d25230ff-aee2-4371-bf34-f9190b06d8c4" d="M386,108v71h40v-71h-40Z" fill="none" stroke="#000" stroke-linecap="round" stroke-linejoin="round"/><rect id="uuid-889a1abf-45ab-4c31-92da-267095b8b0f5" x="386" y="149" width="40" height="12" fill="none" stroke="#000" stroke-linecap="round" stroke-linejoin="round"/><rect id="uuid-45d578b9-f3c6-42c0-b2d7-cffdce569ecf" x="414" y="107" width="5" height="42" fill="none" stroke="#000" stroke-linecap="round" stroke-linejoin="round"/><rect id="uuid-c31e6903-5e37-4d0d-8bcb-cc55eec0e143" x="393" y="107" width="5" height="42" fill="none" stroke="#000" stroke-linecap="round" stroke-linejoin="round"/><path id="uuid-43c1ccaa-a3a5-4842-990a-fca5990233d5" d="M425.12,100c1.42-3.81,2.23-8.1,2.23-12.65,0-15.7-9.54-28.42-21.32-28.42s-21.32,12.72-21.32,28.42c0,4.55.8,8.84,2.23,12.65h38.18Z" fill="none" stroke="#000" stroke-linecap="round" stroke-linejoin="round"/><path id="uuid-5678b1a7-be0f-4de8-80f7-41681d600aba" d="M388.05,103c3.78,7.91,10.42,13.17,17.98,13.17s14.2-5.25,17.98-13.17h-35.96Z" fill="none" stroke="#000" stroke-linecap="round" stroke-linejoin="round"/><ellipse id="uuid-6f7e2fe8-6cda-4e9c-86c8-90e9813a97cd" cx="410" cy="90" rx="2" ry="3" fill="none" stroke="#000" stroke-linecap="round" stroke-linejoin="round"/><ellipse id="uuid-1684250d-b40b-48d6-88f5-36b6d5661989" cx="398" cy="90" rx="2" ry="3" fill="none" stroke="#000" stroke-linecap="round" stroke-linejoin="round"/><rect id="uuid-ed82e907-d0fe-4ef2-919b-972f2d019278" x="427.63" y="130.52" width="10.66" height="22.74" transform="translate(-14.75 57.37) rotate(-7.45)" fill="none" stroke="#000" stroke-linecap="round" stroke-linejoin="round"/><rect id="uuid-a955b493-4071-443d-bd3f-0b027c50a90a" x="424.68" y="107.97" width="10.66" height="22.74" transform="translate(-11.85 56.8) rotate(-7.45)" fill="none" stroke="#000" stroke-linecap="round" stroke-linejoin="round"/><rect id="uuid-2494368c-f23c-41de-a9ba-69231b214ec2" x="368.83" y="113.69" width="22.74" height="10.66" transform="translate(244.71 493.66) rotate(-87.5)" fill="none" stroke="#000" stroke-linecap="round" stroke-linejoin="round"/><rect id="uuid-45dfbcbc-60f2-4c6a-8d6b-221ec9a3a2cf" x="367.84" y="136.41" width="22.74" height="10.66" transform="translate(221.06 514.4) rotate(-87.5)" fill="none" stroke="#000" stroke-linecap="round" stroke-linejoin="round"/><rect id="uuid-dbc519fc-b58b-4fb6-9cf8-4eeff8b0bb49" x="429.52" y="153.34" width="11.37" height="11.37" transform="translate(-16.95 57.81) rotate(-7.45)" fill="none" stroke="#000" stroke-linecap="round" stroke-linejoin="round"/><rect id="uuid-b0379751-7902-4638-a467-59f0cd2f24c2" x="372.78" y="153.09" width="11.37" height="11.37" transform="translate(203.33 529.95) rotate(-87.5)" fill="none" stroke="#000" stroke-linecap="round" stroke-linejoin="round"/><circle id="uuid-3177fbc9-a9b6-4ee3-993b-0d5d733ea3e6" cx="405.5" cy="141.5" r="1.5" fill="none" stroke="#000" stroke-linecap="round" stroke-linejoin="round"/><circle id="uuid-05309efe-5cda-4513-89f1-9f9afc27efaa" cx="405.5" cy="135.5" r="1.5" fill="none" stroke="#000" stroke-linecap="round" stroke-linejoin="round"/><circle id="uuid-086f662e-f991-4d5f-85e8-14808c9534dd" cx="405.5" cy="129.5" r="1.5" fill="none" stroke="#000" stroke-linecap="round" stroke-linejoin="round"/><circle id="uuid-3db4cd49-1a10-43f0-88f3-d5ca41811002" cx="405.5" cy="122.5" r="1.5" fill="none" stroke="#000" stroke-linecap="round" stroke-linejoin="round"/><path d="M429.85,70.98c-1.28-9.92-11.46-17.65-23.82-17.65s-22.54,7.73-23.82,17.65c-4.13.59-6.61,1.34-6.61,2.15,0,1.91,13.63,3.46,30.43,3.46s30.43-1.55,30.43-3.46c0-.81-2.48-1.56-6.61-2.15Z" fill="none" stroke="#000" stroke-linecap="round" stroke-linejoin="round"/></g><g id="uuid-00e7543c-d2dc-4afb-b664-318bf69aa146"><polygon id="uuid-d9ba7d18-59c7-47a5-b7f7-4f1d789b415e" points="341 214 327 214 327 238.97 327 244 348 244 348 239 341 239 341 214" fill="#5f5f5f"/><rect id="uuid-bfbed78b-f0c2-4c0c-97ee-b8c2c4de40e5" x="325" y="179" width="18" height="35" fill="#727272"/><polygon id="uuid-d94d708f-2d9b-42a2-92ea-61eab9f26986" points="319 214 305 214 305 239 298 239 298 244 319 244 319 238.97 319 238.97 319 214" fill="#5f5f5f"/><rect id="uuid-68d22cc5-019b-4b31-aab2-6237ab120a52" x="303" y="179" width="18" height="35" fill="#727272"/><path id="uuid-86b03926-ea2e-4f4b-af81-670ef8df37a8" d="M303,108v71h40v-71h-40Z" fill="#727272"/><rect id="uuid-2db53616-dcac-4d14-b544-72a91ab8d129" x="303" y="149" width="40" height="12" fill="#acacac"/><rect id="uuid-fc18fda1-ce4d-461c-874f-be48a7d9f38b" x="332" y="107" width="5" height="42" fill="#acacac"/><rect id="uuid-a1523644-4275-43c3-92d9-0c5063530ea1" x="310" y="107" width="5" height="42" fill="#acacac"/><path id="uuid-9964ed7e-42a5-474a-893e-949ebd03e6ae" d="M342.52,100c1.42-3.81,2.23-8.1,2.23-12.65,0-15.7-9.54-28.42-21.32-28.42s-21.32,12.72-21.32,28.42c0,4.55.8,8.84,2.23,12.65h38.18Z" fill="#ccc"/><path id="uuid-3d0ea9a3-bdac-45bb-98b3-b94d83172dd1" d="M305.45,103c3.78,7.91,10.42,13.17,17.98,13.17s14.2-5.25,17.98-13.17h-35.96Z" fill="#ccc"/><ellipse id="uuid-cd91194f-20d4-4608-877c-190317da620e" cx="333" cy="89" rx="2" ry="3" fill="#333"/><ellipse id="uuid-b58bac9c-72df-4980-b14b-72f3fe10464e" cx="322" cy="89" rx="2" ry="3" fill="#333"/><rect id="uuid-68dcfd6a-c35f-485c-92db-b9778c17b71e" x="344.53" y="130.56" width="10.66" height="22.74" transform="translate(-5.23 13.65) rotate(-2.22)" fill="#727272"/><rect id="uuid-c9f16798-c896-448f-afee-f165ad31033d" x="343.65" y="107.84" width="10.66" height="22.74" transform="translate(-4.35 13.6) rotate(-2.22)" fill="#727272"/><rect id="uuid-6e9e83b9-7dcb-4d52-a324-291b5b89e161" x="286.23" y="113.69" width="22.74" height="10.66" transform="translate(165.71 411.15) rotate(-87.5)" fill="#727272"/><rect id="uuid-87466b81-2b3a-4a0e-bec2-41ab2f732190" x="284.01" y="135.49" width="22.74" height="10.66" transform="translate(103.88 406.17) rotate(-79.67)" fill="#727272"/><rect id="uuid-97571375-2e30-488b-92a7-49c6271c0e5c" x="344.84" y="153.52" width="11.37" height="11.37" transform="translate(-5.9 13.69) rotate(-2.22)" fill="#ccc"/><rect id="uuid-4166d1bd-59a9-4dcf-a81e-d761a7635b73" x="286.64" y="151.91" width="11.37" height="11.37" transform="translate(84.87 416.93) rotate(-79.67)" fill="#ccc"/><circle id="uuid-101aea62-47fe-4082-a1c4-8519773c78be" cx="323.5" cy="141.5" r="1.5" fill="#333"/><circle id="uuid-94c84c8f-c684-4439-8203-6772553ebdd3" cx="323.5" cy="135.5" r="1.5" fill="#333"/><circle id="uuid-ea545d99-092a-4e32-8fda-694677bdd3b2" cx="323.5" cy="129.5" r="1.5" fill="#333"/><circle id="uuid-d00f567a-3c44-41e8-9c93-dd5095e10df4" cx="323.5" cy="122.5" r="1.5" fill="#333"/><path d="M347.26,70.98c-1.28-9.92-11.46-17.65-23.82-17.65s-22.54,7.73-23.82,17.65c-4.13.59-6.61,1.34-6.61,2.15,0,1.91,13.63,3.46,30.43,3.46s30.43-1.55,30.43-3.46c0-.81-2.48-1.56-6.61-2.15Z" fill="#6a6a6a"/><polygon id="uuid-8dd2b5c2-9783-45a9-bb53-a98d3054b335" points="341 214 327 214 327 238.97 327 244 348 244 348 239 341 239 341 214" fill="none" stroke="#000" stroke-linecap="round" stroke-linejoin="round"/><rect id="uuid-1ac19d38-d5cf-4a3f-80d2-dfdb147af0f8" x="325" y="179" width="18" height="35" fill="none" stroke="#000" stroke-linecap="round" stroke-linejoin="round"/><polygon id="uuid-c9d5f98d-0ccc-4037-b664-ef8cc59c8626" points="319 214 305 214 305 239 298 239 298 244 319 244 319 238.97 319 238.97 319 214" fill="none" stroke="#000" stroke-linecap="round" stroke-linejoin="round"/><rect id="uuid-1a4bccec-9426-43a3-b651-faccba888153" x="303" y="179" width="18" height="35" fill="none" stroke="#000" stroke-linecap="round" stroke-linejoin="round"/><path id="uuid-446f9e29-4921-461f-961a-bdb19b856cb4" d="M303,108v71h40v-71h-40Z" fill="none" stroke="#000" stroke-linecap="round" stroke-linejoin="round"/><rect id="uuid-a7264ed3-fefe-4e78-83b3-7a01358f4af7" x="303" y="149" width="40" height="12" fill="none" stroke="#000" stroke-linecap="round" stroke-linejoin="round"/><rect id="uuid-0d442266-8585-45e6-ab1f-9cdbcd6f2bfb" x="332" y="107" width="5" height="42" fill="none" stroke="#000" stroke-linecap="round" stroke-linejoin="round"/><rect id="uuid-882a8460-7b24-45a8-9540-c4f89735b083" x="310" y="107" width="5" height="42" fill="none" stroke="#000" stroke-linecap="round" stroke-linejoin="round"/><path id="uuid-4678635f-9b73-41cf-9c25-79b45348e52f" d="M342.52,100c1.42-3.81,2.23-8.1,2.23-12.65,0-15.7-9.54-28.42-21.32-28.42s-21.32,12.72-21.32,28.42c0,4.55.8,8.84,2.23,12.65h38.18Z" fill="none" stroke="#000" stroke-linecap="round" stroke-linejoin="round"/><path id="uuid-36577faa-36e6-444b-8c41-9ff236fe3fdd" d="M305.45,103c3.78,7.91,10.42,13.17,17.98,13.17s14.2-5.25,17.98-13.17h-35.96Z" fill="none" stroke="#000" stroke-linecap="round" stroke-linejoin="round"/><ellipse id="uuid-1a8704fc-19f4-42dc-b64f-7ae4a56ad863" cx="333" cy="89" rx="2" ry="3" fill="none" stroke="#000" stroke-linecap="round" stroke-linejoin="round"/><ellipse id="uuid-e2376a82-584a-45e4-b5be-707a46e38955" cx="322" cy="89" rx="2" ry="3" fill="none" stroke="#000" stroke-linecap="round" stroke-linejoin="round"/><rect id="uuid-2fc81190-53de-4e8f-9f11-1a9bfe623e44" x="344.53" y="130.56" width="10.66" height="22.74" transform="translate(-5.23 13.65) rotate(-2.22)" fill="none" stroke="#000" stroke-linecap="round" stroke-linejoin="round"/><rect id="uuid-3e00f486-8a10-492b-86bd-81b118055533" x="343.65" y="107.84" width="10.66" height="22.74" transform="translate(-4.35 13.6) rotate(-2.22)" fill="none" stroke="#000" stroke-linecap="round" stroke-linejoin="round"/><rect id="uuid-475fb5e5-ef51-4bec-a1f3-6cf53692c98b" x="286.23" y="113.69" width="22.74" height="10.66" transform="translate(165.71 411.15) rotate(-87.5)" fill="none" stroke="#000" stroke-linecap="round" stroke-linejoin="round"/><rect id="uuid-2fa72eb4-7768-4457-9dfd-8b4d6d22c2e7" x="284.01" y="135.49" width="22.74" height="10.66" transform="translate(103.88 406.17) rotate(-79.67)" fill="none" stroke="#000" stroke-linecap="round" stroke-linejoin="round"/><rect id="uuid-d7ca6748-65dd-4dc5-b71e-e28d4a253717" x="344.84" y="153.52" width="11.37" height="11.37" transform="translate(-5.9 13.69) rotate(-2.22)" fill="none" stroke="#000" stroke-linecap="round" stroke-linejoin="round"/><rect id="uuid-eb5181a1-b48d-426b-b850-8cf75acc3bc4" x="286.64" y="151.91" width="11.37" height="11.37" transform="translate(84.87 416.93) rotate(-79.67)" fill="none" stroke="#000" stroke-linecap="round" stroke-linejoin="round"/><circle id="uuid-89842760-e708-40d5-9181-8c4f5143c769" cx="323.5" cy="141.5" r="1.5" fill="none" stroke="#000" stroke-linecap="round" stroke-linejoin="round"/><circle id="uuid-5eff862e-ba12-4cba-9eff-67d4d0512085" cx="323.5" cy="135.5" r="1.5" fill="none" stroke="#000" stroke-linecap="round" stroke-linejoin="round"/><circle id="uuid-1544732c-0142-4479-b52e-b1a8ca8e9c10" cx="323.5" cy="129.5" r="1.5" fill="none" stroke="#000" stroke-linecap="round" stroke-linejoin="round"/><circle id="uuid-b7dfd308-8455-4c2f-b81d-94d2155b0153" cx="323.5" cy="122.5" r="1.5" fill="none" stroke="#000" stroke-linecap="round" stroke-linejoin="round"/><path d="M347.26,70.98c-1.28-9.92-11.46-17.65-23.82-17.65s-22.54,7.73-23.82,17.65c-4.13.59-6.61,1.34-6.61,2.15,0,1.91,13.63,3.46,30.43,3.46s30.43-1.55,30.43-3.46c0-.81-2.48-1.56-6.61-2.15Z" fill="none" stroke="#000" stroke-linecap="round" stroke-linejoin="round"/></g><g id="uuid-76c30d7a-165f-4810-9cbc-8d72632fb006"><polygon id="uuid-b1b9832b-0f91-45e5-9eea-67b68ed373a5" points="259 214 245 214 245 238.97 245 244 266 244 266 239 259 239 259 214" fill="#5f5f5f"/><rect id="uuid-39f26af0-6861-4f69-980e-c4b88808caae" x="243" y="179" width="18" height="35" fill="#727272"/><polygon id="uuid-d8d5c389-47f5-4bc9-be19-7b2ad14b4a49" points="237 214 223 214 223 239 216 239 216 244 237 244 237 238.97 237 238.97 237 214" fill="#5f5f5f"/><rect id="uuid-e9d71570-913b-4af7-a5c8-0add0c238ec1" x="221" y="179" width="18" height="35" fill="#727272"/><path id="uuid-5e6d8735-53ce-4d86-94d9-7fb8ddce0b94" d="M221,108v71h40v-71h-40Z" fill="#727272"/><rect id="uuid-0a07633d-6f08-42fe-b103-0b26073a6071" x="221" y="149" width="40" height="12" fill="#acacac"/><rect id="uuid-e6249c16-7864-4f19-b72b-3a21f6f337fa" x="249" y="107" width="5" height="42" fill="#acacac"/><rect id="uuid-178beb99-2ed4-4e61-974c-8ebc80c4a3f8" x="228" y="107" width="5" height="42" fill="#acacac"/><path id="uuid-61bb9928-6ea6-461d-8da6-308f4fc87171" d="M259.93,100c1.42-3.81,2.23-8.1,2.23-12.65,0-15.7-9.54-28.42-21.32-28.42s-21.32,12.72-21.32,28.42c0,4.55.8,8.84,2.23,12.65h38.18Z" fill="#ccc"/><path id="uuid-26f95b97-f3ee-48a7-8689-c90a24641949" d="M222.86,103c3.78,7.91,10.42,13.17,17.98,13.17s14.2-5.25,17.98-13.17h-35.96Z" fill="#ccc"/><ellipse id="uuid-20a91558-7e53-4abb-9c9e-97911b1133c9" cx="247" cy="91" rx="2" ry="3" fill="#333"/><ellipse id="uuid-d0ecf059-3d41-4f8c-b260-26a7fda30a29" cx="235" cy="91" rx="2" ry="3" fill="#333"/><rect id="uuid-ceebea7d-8ed2-4e26-a538-67c6960bbb49" x="261.93" y="130.56" width="10.66" height="22.74" transform="translate(-5.29 10.45) rotate(-2.22)" fill="#727272"/><rect id="uuid-1ecc846e-e6a3-4fc1-a279-8a34efcf061c" x="261.05" y="107.84" width="10.66" height="22.74" transform="translate(-4.41 10.4) rotate(-2.22)" fill="#727272"/><rect id="uuid-6044042a-b75f-432e-a6e6-e384b83d09a6" x="203.64" y="113.69" width="22.74" height="10.66" transform="translate(86.72 328.63) rotate(-87.5)" fill="#727272"/><rect id="uuid-81f0cc99-6da4-426d-84ef-8b7fcd5e301f" x="202.65" y="136.41" width="22.74" height="10.66" transform="translate(63.08 349.36) rotate(-87.5)" fill="#727272"/><rect id="uuid-0109503d-e7d2-4645-85cf-33d1f6c6d9d8" x="262.25" y="153.52" width="11.37" height="11.37" transform="translate(-5.96 10.49) rotate(-2.22)" fill="#ccc"/><rect id="uuid-b682b48c-8804-4d63-9ee5-fff0b89bedc7" x="207.59" y="153.09" width="11.37" height="11.37" transform="translate(45.35 364.91) rotate(-87.5)" fill="#ccc"/><circle id="uuid-f563df2e-014c-4420-a75a-8fc83e9612c5" cx="240.5" cy="141.5" r="1.5" fill="#333"/><circle id="uuid-56516530-1261-41fc-b053-3eccf17d42ef" cx="240.5" cy="135.5" r="1.5" fill="#333"/><circle id="uuid-f1810b38-f5fe-45ee-8558-173413e0048d" cx="240.5" cy="129.5" r="1.5" fill="#333"/><circle id="uuid-3cef8fb8-c107-4436-9c91-f6bf8f94b0e1" cx="240.5" cy="122.5" r="1.5" fill="#333"/><path d="M264.66,70.98c-1.28-9.92-11.46-17.65-23.82-17.65s-22.54,7.73-23.82,17.65c-4.13.59-6.61,1.34-6.61,2.15,0,1.91,13.63,3.46,30.43,3.46s30.43-1.55,30.43-3.46c0-.81-2.48-1.56-6.61-2.15Z" fill="#6a6a6a"/><polygon id="uuid-38309ca7-a5b0-46ce-9b6d-cc415a4982ff" points="259 214 245 214 245 238.97 245 244 266 244 266 239 259 239 259 214" fill="none" stroke="#000" stroke-linecap="round" stroke-linejoin="round"/><rect id="uuid-b6ff6764-3a6e-49e5-b17e-91bf05116a56" x="243" y="179" width="18" height="35" fill="none" stroke="#000" stroke-linecap="round" stroke-linejoin="round"/><polygon id="uuid-e8b68b0a-21c4-4785-a995-c60896ffdaa5" points="237 214 223 214 223 239 216 239 216 244 237 244 237 238.97 237 238.97 237 214" fill="none" stroke="#000" stroke-linecap="round" stroke-linejoin="round"/><rect id="uuid-bfb10caa-ee8e-40ac-a0ca-a8f3679bcc8b" x="221" y="179" width="18" height="35" fill="none" stroke="#000" stroke-linecap="round" stroke-linejoin="round"/><path id="uuid-0196d7f9-8dc5-45d6-8955-f35330d0fd61" d="M221,108v71h40v-71h-40Z" fill="none" stroke="#000" stroke-linecap="round" stroke-linejoin="round"/><rect id="uuid-78ad511f-a21a-40cd-9fd1-92e78df1cec2" x="221" y="149" width="40" height="12" fill="none" stroke="#000" stroke-linecap="round" stroke-linejoin="round"/><rect id="uuid-3ce0b86b-02d2-463d-9450-76df9657c713" x="249" y="107" width="5" height="42" fill="none" stroke="#000" stroke-linecap="round" stroke-linejoin="round"/><rect id="uuid-99fc179f-0a30-4876-90b2-e59d377ac826" x="228" y="107" width="5" height="42" fill="none" stroke="#000" stroke-linecap="round" stroke-linejoin="round"/><path id="uuid-85e1b93e-ac11-44b6-9f1c-b098adc1f8d8" d="M259.93,100c1.42-3.81,2.23-8.1,2.23-12.65,0-15.7-9.54-28.42-21.32-28.42s-21.32,12.72-21.32,28.42c0,4.55.8,8.84,2.23,12.65h38.18Z" fill="none" stroke="#000" stroke-linecap="round" stroke-linejoin="round"/><path id="uuid-13c8da5b-9440-4a04-8f96-ade0c0ed2d38" d="M222.86,103c3.78,7.91,10.42,13.17,17.98,13.17s14.2-5.25,17.98-13.17h-35.96Z" fill="none" stroke="#000" stroke-linecap="round" stroke-linejoin="round"/><ellipse id="uuid-b54fecfd-ee92-4daf-8e79-42a2a63eaafb" cx="247" cy="91" rx="2" ry="3" fill="none" stroke="#000" stroke-linecap="round" stroke-linejoin="round"/><ellipse id="uuid-2517ca75-bc63-4338-9a31-0c14b3aafc6e" cx="235" cy="91" rx="2" ry="3" fill="none" stroke="#000" stroke-linecap="round" stroke-linejoin="round"/><rect id="uuid-8be78d67-88e9-47b7-ae1a-14153ab5dcd2" x="261.93" y="130.56" width="10.66" height="22.74" transform="translate(-5.29 10.45) rotate(-2.22)" fill="none" stroke="#000" stroke-linecap="round" stroke-linejoin="round"/><rect id="uuid-1f6e35dd-babf-4697-b066-7e5d51159cfd" x="261.05" y="107.84" width="10.66" height="22.74" transform="translate(-4.41 10.4) rotate(-2.22)" fill="none" stroke="#000" stroke-linecap="round" stroke-linejoin="round"/><rect id="uuid-ecbf8afe-ea22-4e69-8991-4f502d1fa8a3" x="203.64" y="113.69" width="22.74" height="10.66" transform="translate(86.72 328.63) rotate(-87.5)" fill="none" stroke="#000" stroke-linecap="round" stroke-linejoin="round"/><rect id="uuid-d5d62d44-8ca8-495d-b9b2-114e7c55d929" x="202.65" y="136.41" width="22.74" height="10.66" transform="translate(63.08 349.36) rotate(-87.5)" fill="none" stroke="#000" stroke-linecap="round" stroke-linejoin="round"/><rect id="uuid-ec5ea1ef-cc41-4152-b155-b9b2d7998ed5" x="262.25" y="153.52" width="11.37" height="11.37" transform="translate(-5.96 10.49) rotate(-2.22)" fill="none" stroke="#000" stroke-linecap="round" stroke-linejoin="round"/><rect id="uuid-ab8dee21-342d-4094-ba25-8e5da9ba34ac" x="207.59" y="153.09" width="11.37" height="11.37" transform="translate(45.35 364.91) rotate(-87.5)" fill="none" stroke="#000" stroke-linecap="round" stroke-linejoin="round"/><circle id="uuid-8ed023eb-dfa6-4396-8388-1a23447129a1" cx="240.5" cy="141.5" r="1.5" fill="none" stroke="#000" stroke-linecap="round" stroke-linejoin="round"/><circle id="uuid-2af36e00-3ed3-4f29-99f5-b2b29555146f" cx="240.5" cy="135.5" r="1.5" fill="none" stroke="#000" stroke-linecap="round" stroke-linejoin="round"/><circle id="uuid-218961c7-aefa-4dac-b508-1fe941a67973" cx="240.5" cy="129.5" r="1.5" fill="none" stroke="#000" stroke-linecap="round" stroke-linejoin="round"/><circle id="uuid-f4660c43-b0d0-4d23-b866-01e41ac59070" cx="240.5" cy="122.5" r="1.5" fill="none" stroke="#000" stroke-linecap="round" stroke-linejoin="round"/><path d="M264.66,70.98c-1.28-9.92-11.46-17.65-23.82-17.65s-22.54,7.73-23.82,17.65c-4.13.59-6.61,1.34-6.61,2.15,0,1.91,13.63,3.46,30.43,3.46s30.43-1.55,30.43-3.46c0-.81-2.48-1.56-6.61-2.15Z" fill="none" stroke="#000" stroke-linecap="round" stroke-linejoin="round"/></g><path d="M177.25,262l2.52-.03c.97,0,1.89-.57,2.25-1.47.71-1.81-.61-3.52-2.32-3.5l-2.49.02c-1.71.02-3,1.76-2.24,3.55.38.89,1.31,1.43,2.28,1.42Z" fill="#434a54"/><path d="M175,255.35l.45,44.44c.02,1.25,1.04,2.26,2.3,2.25,1.25-.02,2.26-1.04,2.25-2.3l-.46-44.44c-.01-1.25-1.04-2.26-2.29-2.25-1.26.01-2.26,1.04-2.25,2.29Z" fill="#656d78"/><path d="M179.4,273.78l6.71,5.25c.56.44.89,1.11.9,1.82l.15,14.67c0,.4-.1.79-.3,1.14l-6.64,11.68c-.59,1.04-1.9,1.46-3.02.87-.77-.4-1.18-1.26-1.19-2.13l-.32-31.58h0c-.02-1.25.98-2.26,2.23-2.28.57,0,1.09.2,1.49.54Z" fill="#a85d5d"/><path d="M164.1,341.16c0,.9.54,1.76,1.42,2.13l7.06,3c1.19.51,2.56-.05,3.07-1.24s-.05-2.57-1.24-3.07l-7.06-3c-1.19-.5-2.57.05-3.07,1.24-.13.3-.19.63-.19.94Z" fill="#ed5564"/><path d="M174.98,342.31c.63.43,1.01,1.13,1.02,1.89l.07,6.94c.01.96-.58,1.83-1.48,2.18l-18.45,7.13c-.71.27-1.5.18-2.13-.24-.63-.43-1.01-1.13-1.02-1.89l-.07-6.95c0-.96.58-1.83,1.48-2.18l18.44-7.13c.71-.27,1.5-.18,2.13.24Z" fill="#965353"/><path d="M151.77,312.25c4.88,4.69,10.09,7.65,15.09,8.58,3.61.67,5.92.05,6.09,0,.83-.28,1.72-.07,2.38.56.45.44.66,1.07.67,1.7l.1,9.31c.01,1.26-.97,2.3-2.23,2.36-.64.03-15.75.6-29.89-12.01-.51-.45-.78-1.08-.78-1.72,0-.45.12-.9.38-1.3l4.61-7.08c.38-.58,1-.97,1.69-1.05.7-.08,1.39.16,1.89.64Z" fill="#434a54"/><path d="M185.43,354.66c.45.48.67,1.12.62,1.77l-.49,6.68,2.38,10.6.05.46.22,21.47c.02,1.29-1.02,2.35-2.31,2.36l-18.71.19c-.72,0-1.39-.31-1.84-.87-.33-.41-.51-.92-.52-1.44,0-.18.02-.36.06-.54l8.95-39.52c.24-1.06,1.17-1.81,2.26-1.82l7.6-.08c.65,0,1.28.26,1.73.74Z" fill="#a85d5d"/><path d="M171,303.43l.54,52.25c0,.62.26,1.22.71,1.65s1.05.67,1.67.67l9.45-.1c.89,0,1.69-.52,2.08-1.31l2.31-4.71c.16-.33.24-.69.24-1.06l-.57-55.32c-.01-1.16-.89-2.18-2.15-2.32-.56-.06-1.11.12-1.57.43l-11.67,7.85c-.66.44-1.05,1.18-1.04,1.96Z" fill="#656d78"/><path d="M185,340.74l-.28-27.68c-.01-1.27,1.01-2.32,2.28-2.33l.33,32.29c-1.27.01-2.32-1.01-2.33-2.28Z" fill="#434a54"/><path d="M177.25,262l2.52-.03c.97,0,1.89-.57,2.25-1.47.71-1.81-.61-3.52-2.32-3.5l-2.49.02c-1.71.02-3,1.76-2.24,3.55.38.89,1.31,1.43,2.28,1.42Z" fill="none" stroke="#000" stroke-linecap="round" stroke-linejoin="round"/><path d="M175,255.35l.45,44.44c.02,1.25,1.04,2.26,2.3,2.25,1.25-.02,2.26-1.04,2.25-2.3l-.46-44.44c-.01-1.25-1.04-2.26-2.29-2.25-1.26.01-2.26,1.04-2.25,2.29Z" fill="none" stroke="#000" stroke-linecap="round" stroke-linejoin="round"/><path d="M179.4,273.78l6.71,5.25c.56.44.89,1.11.9,1.82l.15,14.67c0,.4-.1.79-.3,1.14l-6.64,11.68c-.59,1.04-1.9,1.46-3.02.87-.77-.4-1.18-1.26-1.19-2.13l-.32-31.58h0c-.02-1.25.98-2.26,2.23-2.28.57,0,1.09.2,1.49.54Z" fill="none" stroke="#000" stroke-linecap="round" stroke-linejoin="round"/><path d="M164.1,341.16c0,.9.54,1.76,1.42,2.13l7.06,3c1.19.51,2.56-.05,3.07-1.24s-.05-2.57-1.24-3.07l-7.06-3c-1.19-.5-2.57.05-3.07,1.24-.13.3-.19.63-.19.94Z" fill="none" stroke="#000" stroke-linecap="round" stroke-linejoin="round"/><path d="M174.98,342.31c.63.43,1.01,1.13,1.02,1.89l.07,6.94c.01.96-.58,1.83-1.48,2.18l-18.45,7.13c-.71.27-1.5.18-2.13-.24-.63-.43-1.01-1.13-1.02-1.89l-.07-6.95c0-.96.58-1.83,1.48-2.18l18.44-7.13c.71-.27,1.5-.18,2.13.24Z" fill="none" stroke="#000" stroke-linecap="round" stroke-linejoin="round"/><path d="M151.77,312.25c4.88,4.69,10.09,7.65,15.09,8.58,3.61.67,5.92.05,6.09,0,.83-.28,1.72-.07,2.38.56.45.44.66,1.07.67,1.7l.1,9.31c.01,1.26-.97,2.3-2.23,2.36-.64.03-15.75.6-29.89-12.01-.51-.45-.78-1.08-.78-1.72,0-.45.12-.9.38-1.3l4.61-7.08c.38-.58,1-.97,1.69-1.05.7-.08,1.39.16,1.89.64Z" fill="none" stroke="#000" stroke-linecap="round" stroke-linejoin="round"/><path d="M185.43,354.66c.45.48.67,1.12.62,1.77l-.49,6.68,2.38,10.6.05.46.22,21.47c.02,1.29-1.02,2.35-2.31,2.36l-18.71.19c-.72,0-1.39-.31-1.84-.87-.33-.41-.51-.92-.52-1.44,0-.18.02-.36.06-.54l8.95-39.52c.24-1.06,1.17-1.81,2.26-1.82l7.6-.08c.65,0,1.28.26,1.73.74Z" fill="none" stroke="#000" stroke-linecap="round" stroke-linejoin="round"/><path d="M171,303.43l.54,52.25c0,.62.26,1.22.71,1.65s1.05.67,1.67.67l9.45-.1c.89,0,1.69-.52,2.08-1.31l2.31-4.71c.16-.33.24-.69.24-1.06l-.57-55.32c-.01-1.16-.89-2.18-2.15-2.32-.56-.06-1.11.12-1.57.43l-11.67,7.85c-.66.44-1.05,1.18-1.04,1.96Z" fill="none" stroke="#000" stroke-linecap="round" stroke-linejoin="round"/><path d="M185,340.74l-.28-27.68c-.01-1.27,1.01-2.32,2.28-2.33l.33,32.29c-1.27.01-2.32-1.01-2.33-2.28Z" fill="none" stroke="#000" stroke-linecap="round" stroke-linejoin="round"/><g id="uuid-c69ae337-b8b0-4a18-8804-9a235253674a"><polygon id="uuid-e04e6608-18c5-4c08-9c79-277fd9ce070d" points="132 394 112 394 112 428.96 112 436 142 436 142 429 132 429 132 394" fill="#5f4d2f"/><rect id="uuid-cc6d902e-598b-4c38-a998-22fdb5c34c17" x="109" y="345" width="25" height="49" fill="#726038"/><polygon id="uuid-84516d5c-df03-4c08-8c95-0f4c2410787a" points="100 394 80 394 80 429 70 429 70 436 100 436 100 428.96 100 428.96 100 394" fill="#5f4d2f"/><rect id="uuid-fc2eb5f0-b558-42ac-a184-031923fe202b" x="78" y="345" width="25" height="49" fill="#726038"/><path id="uuid-32eaa221-a0da-4209-a402-21f610efca61" d="M78,245v100h56v-100h-56Z" fill="#726038"/><rect id="uuid-631eb4fe-f854-4e91-b7a6-e8e0bc24f793" x="78" y="303" width="56" height="17" fill="#ac935a"/><rect id="uuid-01dc547d-d82d-43cf-887d-929770baad72" x="118" y="244" width="7" height="59" fill="#ac935a"/><rect id="uuid-b08dfac0-3319-4e24-ac02-328cf06ca941" x="87" y="244" width="7" height="59" fill="#ac935a"/><path id="uuid-ce57afbf-7782-4fab-9d6a-ec9d9a83febb" d="M133.47,227.95c1.47-5.56,2.01-11.71,1.38-18.11-2.18-22.08-17.37-38.66-33.93-37.03-16.56,1.63-28.22,20.86-26.04,42.94.63,6.4,2.36,12.32,4.89,17.49l53.71-5.3Z" fill="#eec6a2"/><path id="uuid-019ca8f8-929f-492d-9f11-79d7e24e3581" d="M80.74,237c5.35,11.19,14.73,18.62,25.42,18.62s20.07-7.43,25.42-18.62h-50.84Z" fill="#eec6a2"/><ellipse id="uuid-6e86af50-b3d5-433d-9bae-2bdc569e3558" cx="125" cy="215.5" rx="3" ry="4.5" fill="#333"/><ellipse id="uuid-c6f41964-9498-4707-bfd5-f4a914868b68" cx="109" cy="216.5" rx="3" ry="4.5" fill="#333"/><rect id="uuid-d7e21bc2-6039-42f8-884b-c0fa65d14be4" x="137.26" y="275.75" width="15.07" height="32.14" transform="translate(-27.95 15.63) rotate(-5.63)" fill="#726038"/><rect id="uuid-dc00c410-ba65-49ad-8928-3284af018cd1" x="134.12" y="243.93" width="15.07" height="32.14" transform="translate(-24.84 15.16) rotate(-5.63)" fill="#726038"/><rect id="uuid-690b3c14-8fc0-4e6c-a1a6-b7e171c17d01" x="52.99" y="252.47" width="32.14" height="15.07" transform="translate(-195.69 307.72) rotate(-85.34)" fill="#726038"/><rect id="uuid-ff2d23fc-3bf3-46a4-98a4-4c353ff93085" x="50.39" y="284.29" width="32.14" height="15.07" transform="translate(-229.79 334.37) rotate(-85.34)" fill="#726038"/><rect id="uuid-8c8eb03f-9450-4871-af5d-27a5eefa5ad4" x="138.96" y="307.9" width="16.26" height="16.26" transform="translate(-30.32 15.97) rotate(-5.63)" fill="#eec6a2"/><rect id="uuid-9d4c812f-4392-4d3b-8c6d-39f6e6670977" x="56.47" y="307.9" width="16.07" height="16.07" transform="translate(-255.62 354.57) rotate(-85.34)" fill="#eec6a2"/><circle id="uuid-fcf7f05d-8df2-43a2-ba63-158ad5fe9476" cx="106" cy="291" r="2" fill="#333"/><circle id="uuid-306ebbdd-7df9-4f30-af9d-6a5f1c6e2103" cx="106" cy="283" r="2" fill="#333"/><circle id="uuid-79d94497-e899-4517-a344-358ddae9f4e4" cx="106" cy="275" r="2" fill="#333"/><circle id="uuid-ee27f42b-e3e1-4da1-81bf-1144e3e63d72" cx="106" cy="266" r="2" fill="#333"/><path d="M136.1,186.35c-3.18-13.78-18.57-23.24-35.97-21.53s-30.64,14-31.07,28.14c-5.73,1.41-9.11,2.8-9,3.95.27,2.69,19.65,2.98,43.3.65,23.65-2.33,42.6-6.4,42.33-9.09-.11-1.14-3.7-1.85-9.6-2.11Z" fill="#596a66"/><polygon id="uuid-d3b84a86-5f9e-48c1-8585-0ce9231610d0" points="132 394 112 394 112 428.96 112 436 142 436 142 429 132 429 132 394" fill="none" stroke="#000" stroke-linecap="round" stroke-linejoin="round"/><rect id="uuid-6336f4e2-d586-4dc1-9df0-ed504eb4fbf5" x="109" y="345" width="25" height="49" fill="none" stroke="#000" stroke-linecap="round" stroke-linejoin="round"/><polygon id="uuid-1729eef5-09c1-4ad0-afd0-caef1b4c0ff7" points="100 394 80 394 80 429 70 429 70 436 100 436 100 428.96 100 428.96 100 394" fill="none" stroke="#000" stroke-linecap="round" stroke-linejoin="round"/><rect id="uuid-745fad8b-d18b-4245-8db2-937a68e4483d" x="78" y="345" width="25" height="49" fill="none" stroke="#000" stroke-linecap="round" stroke-linejoin="round"/><path id="uuid-f015fae5-1c78-4556-b43c-f17d22eac833" d="M78,245v100h56v-100h-56Z" fill="none" stroke="#000" stroke-linecap="round" stroke-linejoin="round"/><rect id="uuid-08cf0d82-3441-42e4-8391-0e5fac6762bd" x="78" y="303" width="56" height="17" fill="none" stroke="#000" stroke-linecap="round" stroke-linejoin="round"/><rect id="uuid-8e7992fb-4c27-4ab1-9da5-d9675647ee0c" x="118" y="244" width="7" height="59" fill="none" stroke="#000" stroke-linecap="round" stroke-linejoin="round"/><rect id="uuid-09e90925-4f39-4a1f-ad68-0ff786665c31" x="87" y="244" width="7" height="59" fill="none" stroke="#000" stroke-linecap="round" stroke-linejoin="round"/><path id="uuid-5d9afea8-7f5d-4089-bcf0-1ee6fdc1247d" d="M133.47,227.95c1.47-5.56,2.01-11.71,1.38-18.11-2.18-22.08-17.37-38.66-33.93-37.03-16.56,1.63-28.22,20.86-26.04,42.94.63,6.4,2.36,12.32,4.89,17.49l53.71-5.3Z" fill="none" stroke="#000" stroke-linecap="round" stroke-linejoin="round"/><path id="uuid-7d97153d-b6ad-4756-b4c5-eee774e2399e" d="M80.74,237c5.35,11.19,14.73,18.62,25.42,18.62s20.07-7.43,25.42-18.62h-50.84Z" fill="none" stroke="#000" stroke-linecap="round" stroke-linejoin="round"/><ellipse id="uuid-ae53381e-2073-474b-b436-11f8e51c22fc" cx="125" cy="215.5" rx="3" ry="4.5" fill="none" stroke="#000" stroke-linecap="round" stroke-linejoin="round"/><ellipse id="uuid-a83385dc-c61f-428b-9b79-fdc83f4a293c" cx="109" cy="216.5" rx="3" ry="4.5" fill="none" stroke="#000" stroke-linecap="round" stroke-linejoin="round"/><rect id="uuid-b36a80a8-6077-4061-8033-140495085147" x="137.26" y="275.75" width="15.07" height="32.14" transform="translate(-27.95 15.63) rotate(-5.63)" fill="none" stroke="#000" stroke-linecap="round" stroke-linejoin="round"/><rect id="uuid-c8a55f28-a4fc-438d-b3b2-036e7ee9eb9f" x="134.12" y="243.93" width="15.07" height="32.14" transform="translate(-24.84 15.16) rotate(-5.63)" fill="none" stroke="#000" stroke-linecap="round" stroke-linejoin="round"/><rect id="uuid-943e0541-d509-4a98-bd6a-6b39d49eb3c0" x="52.99" y="252.47" width="32.14" height="15.07" transform="translate(-195.69 307.72) rotate(-85.34)" fill="none" stroke="#000" stroke-linecap="round" stroke-linejoin="round"/><rect id="uuid-a7d56208-78c5-4716-b71c-c42bcf6b23e6" x="50.39" y="284.29" width="32.14" height="15.07" transform="translate(-229.79 334.37) rotate(-85.34)" fill="none" stroke="#000" stroke-linecap="round" stroke-linejoin="round"/><rect id="uuid-a325d86f-53e9-4f7b-b003-24f49ce76014" x="138.96" y="307.9" width="16.26" height="16.26" transform="translate(-30.32 15.97) rotate(-5.63)" fill="none" stroke="#000" stroke-linecap="round" stroke-linejoin="round"/><rect id="uuid-305354b5-84ec-4654-998c-cb57babae561" x="56.47" y="307.9" width="16.07" height="16.07" transform="translate(-255.62 354.57) rotate(-85.34)" fill="none" stroke="#000" stroke-linecap="round" stroke-linejoin="round"/><circle id="uuid-47eb429d-88d6-4043-8ade-0f44718a8f2e" cx="106" cy="291" r="2" fill="none" stroke="#000" stroke-linecap="round" stroke-linejoin="round"/><circle id="uuid-96663980-b01d-4d81-9e79-8db91d19e866" cx="106" cy="283" r="2" fill="none" stroke="#000" stroke-linecap="round" stroke-linejoin="round"/><circle id="uuid-2aea0397-209d-41d3-b187-d4f4b531bcb3" cx="106" cy="275" r="2" fill="none" stroke="#000" stroke-linecap="round" stroke-linejoin="round"/><circle id="uuid-7cbd3d4c-1495-4f22-897b-8672b68307d9" cx="106" cy="266" r="2" fill="none" stroke="#000" stroke-linecap="round" stroke-linejoin="round"/><path d="M136.1,186.35c-3.18-13.78-18.57-23.24-35.97-21.53s-30.64,14-31.07,28.14c-5.73,1.41-9.11,2.8-9,3.95.27,2.69,19.65,2.98,43.3.65,23.65-2.33,42.6-6.4,42.33-9.09-.11-1.14-3.7-1.85-9.6-2.11Z" fill="none" stroke="#000" stroke-linecap="round" stroke-linejoin="round"/></g><path d="M114.08,147.61c1.7-1.27,8.33-6.89,8.32-24.74,0-7.93-1.32-15.53-2.41-20.59" fill="none" stroke="#333" stroke-miterlimit="10" stroke-width="2"/><text transform="translate(46.72 82.62)" fill="#333" font-family="ComicNeue-Bold, &apos;Comic Neue&apos;" font-size="24" font-weight="700"><tspan x="0" y="0">I got a gun.</tspan></text><polygon points="414.4 318.77 422.71 323 385.35 323 406.1 317.72 414.4 318.77" fill="#633d35"/><path d="M242,287h39.31c0-.3,3.67-.43,4.6-1.18.61-.49-.69-1.57-4.47-2.88-.5-.18-.57-.41-.17-.6,1.11-.5,3.28-1.58,9.86-2.26,7.26-.75,13.38-.61,15.97-.49.87.04,1.67.15,2.3.29,5.56,1.22,52.78,8.13,52.78,8.13,0,0,27.2-.1,42.95-.1,14.36,0,26.35,6.35,29.13,14.8l-4.95,4.71,3.72,5.44c-1.02,1.73-2.43,3.34-4.17,4.79l-38.95,3.63,33.21,1.02s-10.66,2.72-17.99,2.72c-15.88,0-163.14,1.02-163.14,1.02v-39.02Z" fill="#ad7156"/><path d="M253.52,285.82c-.03.09-.07.16-.12.23.06-.09.1-.18.12-.23Z" fill="url(#uuid-581367da-3a0a-4bd6-9d0b-d48fa72a3ace)"/><path d="M270.45,313.6c10.3.17,20.51.46,30.71.77l15.25.47c5.08.15,10.1.34,14.97.3,5,0,10.12-.07,15.21-.14l15.34-.19c10.25-.12,20.5-.23,30.82-.21-10.08.6-20.26,1.03-30.47,1.38-10.23.34-20.42.61-30.89.66-5.39.01-10.58-.2-15.68-.39-5.1-.22-10.17-.44-15.21-.72-10.1-.54-20.13-1.15-30.06-1.93Z" fill="#ce8963"/><path d="M322.34,320.1c1.3-.14,2.71-.15,4.06-.19,1.37-.03,2.74-.05,4.11-.06,2.74-.02,5.49-.03,8.23-.02,5.49.01,10.95.07,16.42.15,5.47.08,10.92.18,16.36.3,5.45.11,10.9.26,16.35.41l-.67.02,9.66-.71,9.69-.68c6.49-.44,12.97-.85,19.55-1.21-6.23.66-12.55,1.27-18.87,1.85l-9.51.85-9.51.81-.3.03h-.35c-5.43-.14-10.88-.24-16.33-.38-5.43-.13-10.88-.27-16.31-.41l-16.29-.45-8.15-.22c-1.35-.04-2.72-.07-4.08-.09-1.35-.01-2.72-.06-4.08.02Z" fill="#ce8963"/><path d="M382.57,308h46.33s3.71-4.02,3.71-4.02c0,0-27.8,2.51-50.04,4.02Z" fill="#ce8963"/><path d="M351.06,292.52c-24-2.85-49.91-12.9-49.91-12.9l-.8-.3c3.26-.06,5.63-.01,6.93.07.57.04,1.52.15,1.87.23,4.37.96,34.14,7.37,53,7.37,0,0,26.78-.1,42.53-.1,7.06,0,16.77,2.11,22.33,6.63l-53.74-2.01,16.68,4.52s-22.02-1.51-38.9-3.52Z" fill="#965b44"/><path d="M279.95,286.72c7.64-.13,5.9-1.55,5.9-1.55,2.87,1.63,4.47,3.99,1.06,5.35-3.77,1.51-23.37,2.22-23.37,2.22l-11.32-1-10.43-4.74,38.16-.28Z" fill="#965b44"/><path d="M233.61,307.8c.23,10.07,3.75,18.07,8.05,18.07,4.45,0,8.06-8.56,8.06-19.13s-3.61-19.13-8.06-19.13c-4.28,0-7.79,7.93-8.05,17.93" fill="#ffcc80"/><path d="M233.61,307.8c.29,3.6.85,7.19,2.09,10.54.61,1.67,1.36,3.29,2.41,4.66.53.67,1.12,1.29,1.8,1.69.67.42,1.43.59,2.15.47.72-.12,1.4-.53,1.98-1.08.58-.56,1.1-1.23,1.53-1.96.87-1.47,1.49-3.12,1.95-4.81.93-3.39,1.33-6.95,1.32-10.49.01-3.54-.37-7.1-1.29-10.5-.46-1.69-1.07-3.35-1.92-4.83-.43-.74-.92-1.43-1.51-1.99-.57-.57-1.25-1-1.96-1.15-.72-.17-1.47,0-2.15.39-.68.39-1.29.99-1.82,1.65-1.07,1.34-1.83,2.97-2.45,4.63-1.25,3.34-1.83,6.93-2.13,10.53-.02-.9-.01-1.81.02-2.72.05-.9.12-1.81.23-2.71.22-1.8.55-3.61,1.07-5.37.54-1.75,1.24-3.49,2.34-5.05.55-.78,1.23-1.5,2.09-2.04.86-.54,1.97-.84,3.04-.65,1.07.17,1.99.75,2.72,1.42.74.67,1.32,1.46,1.82,2.27.99,1.63,1.67,3.39,2.2,5.16,1.02,3.58,1.43,7.27,1.44,10.95-.03,3.68-.44,7.37-1.48,10.94-.54,1.78-1.23,3.53-2.23,5.15-.51.81-1.1,1.58-1.85,2.25-.74.65-1.69,1.21-2.77,1.35-.53.07-1.08.03-1.6-.11-.52-.13-.98-.37-1.41-.65-.85-.56-1.5-1.3-2.05-2.08-1.07-1.57-1.77-3.3-2.3-5.06-.51-1.76-.83-3.57-1.05-5.37-.1-.9-.18-1.81-.22-2.72-.04-.91-.04-1.82-.02-2.72Z" fill="#ce8963"/><path d="M240.33,326.17c3.53,0,6.39-7.2,6.39-16.08,0-8.88-2.86-16.08-6.39-16.08s-7.6,3.14-6.4,16.08c.83,8.84,2.86,16.08,6.4,16.08Z" fill="url(#uuid-16ce6716-495a-4203-9497-3faf9f8736b9)"/><g opacity=".66"><path d="M240.82,321.56c.7,0,1.33-.41,1.81-.9.48-.51.86-1.11,1.18-1.74.62-1.26,1.02-2.62,1.34-3.99.58-2.75.78-5.57.75-8.38s-.32-5.61-.98-8.32c-.34-1.35-.78-2.68-1.41-3.89-.31-.6-.69-1.17-1.14-1.64-.45-.45-.99-.79-1.55-.77-.55,0-1.07.35-1.51.81-.43.47-.79,1.04-1.09,1.65-.6,1.22-1,2.55-1.31,3.89-.31,1.35-.52,2.73-.66,4.11-.15,1.38-.22,2.78-.23,4.17-.02,2.79.12,5.59.65,8.34.28,1.37.64,2.73,1.24,3.99.3.63.66,1.23,1.13,1.75.47.5,1.08.92,1.78.93ZM240.82,321.67c-.74.01-1.4-.42-1.9-.92-.5-.52-.91-1.11-1.25-1.74-.69-1.26-1.18-2.61-1.56-3.98-.76-2.75-1.14-5.61-1.17-8.47,0-1.43.06-2.86.2-4.29.15-1.43.39-2.84.73-4.24.36-1.4.81-2.78,1.49-4.09.34-.65.75-1.28,1.29-1.84.28-.27.59-.53.95-.72.36-.2.79-.32,1.23-.32s.86.14,1.22.34c.36.2.66.46.93.73.52.56.92,1.2,1.24,1.85.65,1.31,1.07,2.69,1.39,4.09.63,2.79.86,5.65.84,8.49-.05,2.84-.36,5.69-1.07,8.43-.36,1.37-.81,2.73-1.46,3.99-.32.63-.72,1.23-1.21,1.75-.49.51-1.14.94-1.88.95Z" fill="#7f441c"/></g><path d="M240.25,318.18c1.86,0,3.38-4.85,3.38-10.83,0-5.98-1.51-10.83-3.38-10.83s-3.38,4.85-3.38,10.83c0,5.98,1.51,10.83,3.38,10.83ZM240.25,316.33c-1.4,0-2.53-3.83-2.53-8.55,0-4.73,1.14-8.55,2.53-8.55,1.4,0,2.53,3.83,2.53,8.55,0,4.73-1.14,8.55-2.53,8.55Z" fill="#b5772c" isolation="isolate" opacity=".82"/><ellipse cx="240" cy="306.5" rx="1" ry="4.5" fill="url(#uuid-a7fa2c62-f8e0-4047-b086-b7178574f0dd)" isolation="isolate" opacity=".74"/><polygon points="414.4 318.77 422.71 323 385.35 323 406.1 317.72 414.4 318.77" fill="none" stroke="#000" stroke-linecap="round" stroke-linejoin="round"/><path d="M242,287h39.31c0-.3,3.67-.43,4.6-1.18.61-.49-.69-1.57-4.47-2.88-.5-.18-.57-.41-.17-.6,1.11-.5,3.28-1.58,9.86-2.26,7.26-.75,13.38-.61,15.97-.49.87.04,1.67.15,2.3.29,5.56,1.22,52.78,8.13,52.78,8.13,0,0,27.2-.1,42.95-.1,14.36,0,26.35,6.35,29.13,14.8l-4.95,4.71,3.72,5.44c-1.02,1.73-2.43,3.34-4.17,4.79l-38.95,3.63,33.21,1.02s-10.66,2.72-17.99,2.72c-15.88,0-163.14,1.02-163.14,1.02v-39.02Z" fill="none" stroke="#000" stroke-linecap="round" stroke-linejoin="round"/><path d="M253.52,285.82c-.03.09-.07.16-.12.23.06-.09.1-.18.12-.23Z" fill="none" stroke="#000" stroke-linecap="round" stroke-linejoin="round"/><path d="M270.45,313.6c10.3.17,20.51.46,30.71.77l15.25.47c5.08.15,10.1.34,14.97.3,5,0,10.12-.07,15.21-.14l15.34-.19c10.25-.12,20.5-.23,30.82-.21-10.08.6-20.26,1.03-30.47,1.38-10.23.34-20.42.61-30.89.66-5.39.01-10.58-.2-15.68-.39-5.1-.22-10.17-.44-15.21-.72-10.1-.54-20.13-1.15-30.06-1.93Z" fill="none" stroke="#000" stroke-linecap="round" stroke-linejoin="round"/><path d="M322.34,320.1c1.3-.14,2.71-.15,4.06-.19,1.37-.03,2.74-.05,4.11-.06,2.74-.02,5.49-.03,8.23-.02,5.49.01,10.95.07,16.42.15,5.47.08,10.92.18,16.36.3,5.45.11,10.9.26,16.35.41l-.67.02,9.66-.71,9.69-.68c6.49-.44,12.97-.85,19.55-1.21-6.23.66-12.55,1.27-18.87,1.85l-9.51.85-9.51.81-.3.03h-.35c-5.43-.14-10.88-.24-16.33-.38-5.43-.13-10.88-.27-16.31-.41l-16.29-.45-8.15-.22c-1.35-.04-2.72-.07-4.08-.09-1.35-.01-2.72-.06-4.08.02Z" fill="none" stroke="#000" stroke-linecap="round" stroke-linejoin="round"/><path d="M382.57,308h46.33s3.71-4.02,3.71-4.02c0,0-27.8,2.51-50.04,4.02Z" fill="none" stroke="#000" stroke-linecap="round" stroke-linejoin="round"/><path d="M351.06,292.52c-24-2.85-49.91-12.9-49.91-12.9l-.8-.3c3.26-.06,5.63-.01,6.93.07.57.04,1.52.15,1.87.23,4.37.96,34.14,7.37,53,7.37,0,0,26.78-.1,42.53-.1,7.06,0,16.77,2.11,22.33,6.63l-53.74-2.01,16.68,4.52s-22.02-1.51-38.9-3.52Z" fill="none" stroke="#000" stroke-linecap="round" stroke-linejoin="round"/><path d="M279.95,286.72c7.64-.13,5.9-1.55,5.9-1.55,2.87,1.63,4.47,3.99,1.06,5.35-3.77,1.51-23.37,2.22-23.37,2.22l-11.32-1-10.43-4.74,38.16-.28Z" fill="none" stroke="#000" stroke-linecap="round" stroke-linejoin="round"/><path d="M233.61,307.8c.23,10.07,3.75,18.07,8.05,18.07,4.45,0,8.06-8.56,8.06-19.13s-3.61-19.13-8.06-19.13c-4.28,0-7.79,7.93-8.05,17.93" fill="none" stroke="#000" stroke-linecap="round" stroke-linejoin="round"/><path d="M233.61,307.8c.29,3.6.85,7.19,2.09,10.54.61,1.67,1.36,3.29,2.41,4.66.53.67,1.12,1.29,1.8,1.69.67.42,1.43.59,2.15.47.72-.12,1.4-.53,1.98-1.08.58-.56,1.1-1.23,1.53-1.96.87-1.47,1.49-3.12,1.95-4.81.93-3.39,1.33-6.95,1.32-10.49.01-3.54-.37-7.1-1.29-10.5-.46-1.69-1.07-3.35-1.92-4.83-.43-.74-.92-1.43-1.51-1.99-.57-.57-1.25-1-1.96-1.15-.72-.17-1.47,0-2.15.39-.68.39-1.29.99-1.82,1.65-1.07,1.34-1.83,2.97-2.45,4.63-1.25,3.34-1.83,6.93-2.13,10.53-.02-.9-.01-1.81.02-2.72.05-.9.12-1.81.23-2.71.22-1.8.55-3.61,1.07-5.37.54-1.75,1.24-3.49,2.34-5.05.55-.78,1.23-1.5,2.09-2.04.86-.54,1.97-.84,3.04-.65,1.07.17,1.99.75,2.72,1.42.74.67,1.32,1.46,1.82,2.27.99,1.63,1.67,3.39,2.2,5.16,1.02,3.58,1.43,7.27,1.44,10.95-.03,3.68-.44,7.37-1.48,10.94-.54,1.78-1.23,3.53-2.23,5.15-.51.81-1.1,1.58-1.85,2.25-.74.65-1.69,1.21-2.77,1.35-.53.07-1.08.03-1.6-.11-.52-.13-.98-.37-1.41-.65-.85-.56-1.5-1.3-2.05-2.08-1.07-1.57-1.77-3.3-2.3-5.06-.51-1.76-.83-3.57-1.05-5.37-.1-.9-.18-1.81-.22-2.72-.04-.91-.04-1.82-.02-2.72Z" fill="none" stroke="#000" stroke-linecap="round" stroke-linejoin="round"/><path d="M240.33,326.17c3.53,0,6.39-7.2,6.39-16.08,0-8.88-2.86-16.08-6.39-16.08s-7.6,3.14-6.4,16.08c.83,8.84,2.86,16.08,6.4,16.08Z" fill="none" stroke="#000" stroke-linecap="round" stroke-linejoin="round"/><path d="M240.82,321.56c.7,0,1.33-.41,1.81-.9.48-.51.86-1.11,1.18-1.74.62-1.26,1.02-2.62,1.34-3.99.58-2.75.78-5.57.75-8.38s-.32-5.61-.98-8.32c-.34-1.35-.78-2.68-1.41-3.89-.31-.6-.69-1.17-1.14-1.64-.45-.45-.99-.79-1.55-.77-.55,0-1.07.35-1.51.81-.43.47-.79,1.04-1.09,1.65-.6,1.22-1,2.55-1.31,3.89-.31,1.35-.52,2.73-.66,4.11-.15,1.38-.22,2.78-.23,4.17-.02,2.79.12,5.59.65,8.34.28,1.37.64,2.73,1.24,3.99.3.63.66,1.23,1.13,1.75.47.5,1.08.92,1.78.93ZM240.82,321.67c-.74.01-1.4-.42-1.9-.92-.5-.52-.91-1.11-1.25-1.74-.69-1.26-1.18-2.61-1.56-3.98-.76-2.75-1.14-5.61-1.17-8.47,0-1.43.06-2.86.2-4.29.15-1.43.39-2.84.73-4.24.36-1.4.81-2.78,1.49-4.09.34-.65.75-1.28,1.29-1.84.28-.27.59-.53.95-.72.36-.2.79-.32,1.23-.32s.86.14,1.22.34c.36.2.66.46.93.73.52.56.92,1.2,1.24,1.85.65,1.31,1.07,2.69,1.39,4.09.63,2.79.86,5.65.84,8.49-.05,2.84-.36,5.69-1.07,8.43-.36,1.37-.81,2.73-1.46,3.99-.32.63-.72,1.23-1.21,1.75-.49.51-1.14.94-1.88.95Z" fill="none" stroke="#000" stroke-linecap="round" stroke-linejoin="round"/><path d="M240.25,318.18c1.86,0,3.38-4.85,3.38-10.83,0-5.98-1.51-10.83-3.38-10.83s-3.38,4.85-3.38,10.83c0,5.98,1.51,10.83,3.38,10.83ZM240.25,316.33c-1.4,0-2.53-3.83-2.53-8.55,0-4.73,1.14-8.55,2.53-8.55,1.4,0,2.53,3.83,2.53,8.55,0,4.73-1.14,8.55-2.53,8.55Z" fill="none" stroke="#000" stroke-linecap="round" stroke-linejoin="round"/><ellipse cx="240" cy="306.5" rx="1" ry="4.5" fill="none" stroke="#000" stroke-linecap="round" stroke-linejoin="round"/><g id="uuid-3bf1cae4-4b42-47ed-960f-74061fb9b4fe"><polygon id="uuid-cefe3fb5-9641-4f07-87ba-47a806318727" points="415.3 319.86 401.89 324.56 410.07 347.87 411.72 352.56 431.83 345.5 430.19 340.81 423.48 343.16 415.3 319.86" fill="#5f5f5f"/><rect id="uuid-503769ff-885e-46ca-b79e-584423b7e94d" x="390.35" y="293.13" width="17.69" height="34.92" transform="translate(-106.59 308.4) rotate(-37.64)" fill="#727272"/><polygon id="uuid-b9f32647-d9ac-45f2-bc5e-307dbf612a4b" points="371.33 330.9 384.85 326.54 392.42 350.05 399.18 347.88 400.71 352.61 380.42 359.14 378.89 354.41 378.89 354.41 371.33 330.9" fill="#5f5f5f"/><rect id="uuid-e4fd4aa2-2852-485f-b069-ffdcb39f6f0b" x="362.36" y="297.11" width="17.69" height="34.92" transform="translate(-97.92 185.44) rotate(-24.89)" fill="#727272"/><path id="uuid-1d7fb043-31f2-4b90-9521-60643bfe18a7" d="M356,232v71h40v-71h-40Z" fill="#727272"/><rect id="uuid-36297090-eb54-4c32-ae82-4105f30c6310" x="356" y="273" width="40" height="12" fill="#acacac"/><rect id="uuid-164b7a19-1d93-4114-a917-e8cf9bfc6d8a" x="384" y="232" width="5" height="42" fill="#acacac"/><rect id="uuid-d0630675-bb31-4e3a-a427-705512c73d70" x="363" y="232" width="5" height="42" fill="#acacac"/><path id="uuid-3738bebf-8576-4386-9220-62b9d52a49c1" d="M394.93,224c1.42-3.81,2.23-8.1,2.23-12.65,0-15.7-9.54-28.42-21.32-28.42s-21.32,12.72-21.32,28.42c0,4.55.8,8.84,2.23,12.65h38.18Z" fill="#ccc"/><path id="uuid-ee00fbbf-a27a-4a76-98cf-789dfc874f76" d="M357.86,227c3.78,7.91,10.42,13.17,17.98,13.17s14.2-5.25,17.98-13.17h-35.96Z" fill="#ccc"/><ellipse id="uuid-382aed41-92a0-4d33-a0ea-2074b0bd3efb" cx="387" cy="211" rx="2" ry="3" fill="#333"/><ellipse id="uuid-76b7289d-2958-4e61-848c-3778c26488ea" cx="374" cy="211" rx="2" ry="3" fill="#333"/><rect id="uuid-751e6cfd-0ea4-48a6-aa8d-1d5606e1eebc" x="396.94" y="254.67" width="10.66" height="22.74" transform="translate(-10 15.77) rotate(-2.22)" fill="#727272"/><rect id="uuid-1e1e89d3-c81c-427f-bdad-6c8ae760ed9c" x="396.06" y="231.95" width="10.66" height="22.74" transform="translate(-9.12 15.72) rotate(-2.22)" fill="#727272"/><rect id="uuid-10d62cbe-ad19-4f57-80ed-d8e465a88dcd" x="338.14" y="237.43" width="22.74" height="10.66" transform="translate(62.8 557.23) rotate(-82.43)" fill="#727272"/><rect id="uuid-3fad790b-6f4e-457a-9217-21c6e60461a5" x="335.15" y="259.97" width="22.74" height="10.66" transform="translate(37.86 573.82) rotate(-82.43)" fill="#727272"/><rect id="uuid-329ef77b-799e-4860-b92b-c534638649b2" x="397.25" y="277.63" width="11.37" height="11.37" transform="translate(-10.66 15.81) rotate(-2.22)" fill="#ccc"/><rect id="uuid-3ec971e1-76d6-4cf7-8277-26ed6d5611f1" x="338.58" y="276.52" width="11.37" height="11.37" transform="translate(19.15 586.27) rotate(-82.43)" fill="#ccc"/><circle id="uuid-7681795b-28bd-40e1-a3b6-2e9b07e4f85d" cx="375.5" cy="265.5" r="1.5" fill="#333"/><circle id="uuid-5364d6f7-c5bf-499c-8f04-7c0a0e2779cf" cx="375.5" cy="259.5" r="1.5" fill="#333"/><circle id="uuid-fa8b3be7-eeca-4546-8818-2fef85549e9e" cx="375.5" cy="253.5" r="1.5" fill="#333"/><circle id="uuid-aa29eb4a-6453-489a-9b54-e48933e7e60f" cx="375.5" cy="247.5" r="1.5" fill="#333"/><path d="M399.67,195.1c-1.28-9.92-11.46-17.65-23.82-17.65s-22.54,7.73-23.82,17.65c-4.13.59-6.61,1.34-6.61,2.15,0,1.91,13.63,3.46,30.43,3.46s30.43-1.55,30.43-3.46c0-.81-2.48-1.56-6.61-2.15Z" fill="#6a6a6a"/><polygon id="uuid-271bec8c-6631-42a5-a3a1-55003cadb0ad" points="415.3 319.86 401.89 324.56 410.07 347.87 411.72 352.56 431.83 345.5 430.19 340.81 423.48 343.16 415.3 319.86" fill="none" stroke="#000" stroke-linecap="round" stroke-linejoin="round"/><rect id="uuid-5cf3ed3e-a0cc-4ee9-83c3-cfb11733ba95" x="390.35" y="293.13" width="17.69" height="34.92" transform="translate(-106.59 308.4) rotate(-37.64)" fill="none" stroke="#000" stroke-linecap="round" stroke-linejoin="round"/><polygon id="uuid-c5139c44-c67d-49a2-801d-25ec1b80f4aa" points="371.33 330.9 384.85 326.54 392.42 350.05 399.18 347.88 400.71 352.61 380.42 359.14 378.89 354.41 378.89 354.41 371.33 330.9" fill="none" stroke="#000" stroke-linecap="round" stroke-linejoin="round"/><rect id="uuid-4705ee87-f85e-489b-b4c7-ff76ccc4479b" x="362.36" y="297.11" width="17.69" height="34.92" transform="translate(-97.92 185.44) rotate(-24.89)" fill="none" stroke="#000" stroke-linecap="round" stroke-linejoin="round"/><path id="uuid-788956d5-2a02-44cd-9f25-038b3c924816" d="M356,232v71h40v-71h-40Z" fill="none" stroke="#000" stroke-linecap="round" stroke-linejoin="round"/><rect id="uuid-71978c22-b480-4fa8-ad49-ff53269afad3" x="356" y="273" width="40" height="12" fill="none" stroke="#000" stroke-linecap="round" stroke-linejoin="round"/><rect id="uuid-024f02ee-b35c-42d9-a11e-fdce9c30e5ec" x="384" y="232" width="5" height="42" fill="none" stroke="#000" stroke-linecap="round" stroke-linejoin="round"/><rect id="uuid-162a9644-0c33-46c1-9392-b25c28d276af" x="363" y="232" width="5" height="42" fill="none" stroke="#000" stroke-linecap="round" stroke-linejoin="round"/><path id="uuid-39b27ede-e788-4fe6-9920-ac328026bd7f" d="M394.93,224c1.42-3.81,2.23-8.1,2.23-12.65,0-15.7-9.54-28.42-21.32-28.42s-21.32,12.72-21.32,28.42c0,4.55.8,8.84,2.23,12.65h38.18Z" fill="none" stroke="#000" stroke-linecap="round" stroke-linejoin="round"/><path id="uuid-34e9906b-3c35-40cc-921e-8ef9492fb047" d="M357.86,227c3.78,7.91,10.42,13.17,17.98,13.17s14.2-5.25,17.98-13.17h-35.96Z" fill="none" stroke="#000" stroke-linecap="round" stroke-linejoin="round"/><ellipse id="uuid-0c6295da-cedc-4d6a-b855-c9fe129b1f4c" cx="387" cy="211" rx="2" ry="3" fill="none" stroke="#000" stroke-linecap="round" stroke-linejoin="round"/><ellipse id="uuid-f7fafe08-14ac-4879-978a-c0bbf346e2ef" cx="374" cy="211" rx="2" ry="3" fill="none" stroke="#000" stroke-linecap="round" stroke-linejoin="round"/><rect id="uuid-5fc21e3d-83d2-44f3-9fcc-913b5eb5689f" x="396.94" y="254.67" width="10.66" height="22.74" transform="translate(-10 15.77) rotate(-2.22)" fill="none" stroke="#000" stroke-linecap="round" stroke-linejoin="round"/><rect id="uuid-4b11de13-0c60-4903-bc90-65a583727892" x="396.06" y="231.95" width="10.66" height="22.74" transform="translate(-9.12 15.72) rotate(-2.22)" fill="none" stroke="#000" stroke-linecap="round" stroke-linejoin="round"/><rect id="uuid-7e6ca993-30ce-4bc4-ac4f-ef2e728de989" x="338.14" y="237.43" width="22.74" height="10.66" transform="translate(62.8 557.23) rotate(-82.43)" fill="none" stroke="#000" stroke-linecap="round" stroke-linejoin="round"/><rect id="uuid-4f3e5025-15e8-4c4f-aa07-32da6b98180a" x="335.15" y="259.97" width="22.74" height="10.66" transform="translate(37.86 573.82) rotate(-82.43)" fill="none" stroke="#000" stroke-linecap="round" stroke-linejoin="round"/><rect id="uuid-e48cad6c-f719-4970-b96b-6df50b003b47" x="397.25" y="277.63" width="11.37" height="11.37" transform="translate(-10.66 15.81) rotate(-2.22)" fill="none" stroke="#000" stroke-linecap="round" stroke-linejoin="round"/><rect id="uuid-d7a78b74-4c15-4de7-8cfa-34a9d50ce68f" x="338.58" y="276.52" width="11.37" height="11.37" transform="translate(19.15 586.27) rotate(-82.43)" fill="none" stroke="#000" stroke-linecap="round" stroke-linejoin="round"/><circle id="uuid-50bd8bcb-b2a9-4f6a-9fdb-a0c522b9e44d" cx="375.5" cy="265.5" r="1.5" fill="none" stroke="#000" stroke-linecap="round" stroke-linejoin="round"/><circle id="uuid-f01eb8b3-ecaa-4bf8-9910-6408a0208744" cx="375.5" cy="259.5" r="1.5" fill="none" stroke="#000" stroke-linecap="round" stroke-linejoin="round"/><circle id="uuid-071d7f4d-ffb1-4169-b58a-35c730d2e1f9" cx="375.5" cy="253.5" r="1.5" fill="none" stroke="#000" stroke-linecap="round" stroke-linejoin="round"/><circle id="uuid-35e009ad-29f2-4312-abad-5b32fad54a3d" cx="375.5" cy="247.5" r="1.5" fill="none" stroke="#000" stroke-linecap="round" stroke-linejoin="round"/><path d="M399.67,195.1c-1.28-9.92-11.46-17.65-23.82-17.65s-22.54,7.73-23.82,17.65c-4.13.59-6.61,1.34-6.61,2.15,0,1.91,13.63,3.46,30.43,3.46s30.43-1.55,30.43-3.46c0-.81-2.48-1.56-6.61-2.15Z" fill="none" stroke="#000" stroke-linecap="round" stroke-linejoin="round"/></g></svg>