<?xml version="1.0" encoding="UTF-8"?><svg id="uuid-4cb0dd1e-394e-4336-8705-0a40bb1ab865" xmlns="http://www.w3.org/2000/svg" xmlns:xlink="http://www.w3.org/1999/xlink" viewBox="0 0 500 500"><defs><linearGradient id="uuid-55c3b621-7eaa-42ae-bf99-3245f5edec31" x1="1526.35" y1="235.09" x2="1526.34" y2="235.12" gradientTransform="translate(18.35 1812.28) rotate(-90)" gradientUnits="userSpaceOnUse"><stop offset="0" stop-color="#ce8963"/><stop offset="1" stop-color="#d08a61" stop-opacity="0"/></linearGradient><linearGradient id="uuid-ba19e8b6-0395-4834-b1c2-efc9f1e67340" x1="-3993.53" y1="221.65" x2="-3984.53" y2="221.65" gradientTransform="translate(18.35 4295.53) rotate(90) scale(1 -1)" gradientUnits="userSpaceOnUse"><stop offset="0" stop-color="#8a5140"/><stop offset="1" stop-color="#8a5140"/></linearGradient></defs><g isolation="isolate"><text transform="translate(232.18 403.81)" fill="#333" font-family="ComicNeue-Regular, &apos;Comic Neue&apos;" font-size="24" isolation="isolate"><tspan x="0" y="0">It was the beginning </tspan></text><text transform="translate(232.18 432.61)" fill="#333" font-family="ComicNeue-Regular, &apos;Comic Neue&apos;" font-size="24" isolation="isolate"><tspan x="0" y="0">of the Great War.</tspan></text></g><g id="uuid-757a3a42-3613-4315-a517-97b8c8537488"><polygon id="uuid-3465d9a7-ba30-4ac6-890f-f1f2cae1f3ff" points="424 214 410 214 410 238.97 410 244 431 244 431 239 424 239 424 214" fill="#5f5f5f"/><rect id="uuid-07a01f2b-decc-4230-8551-fac4edd9a3c0" x="408" y="179" width="18" height="35" fill="#727272"/><polygon id="uuid-8b6b9bbd-00d0-440b-bcc0-b86f073cc5fd" points="402 214 388 214 388 239 381 239 381 244 402 244 402 238.97 402 238.97 402 214" fill="#5f5f5f"/><rect id="uuid-2631be4e-1300-4348-85f6-644b89d86eab" x="386" y="179" width="18" height="35" fill="#727272"/><path id="uuid-2b1bc1de-c217-4a18-9807-3b431478049e" d="M386,108v71h40v-71h-40Z" fill="#727272"/><rect id="uuid-c5739b11-d16f-4d0c-8dbc-3b40d00f69df" x="386" y="149" width="40" height="12" fill="#acacac"/><rect id="uuid-8f6aa377-1307-42f2-82f9-0041598b300b" x="414" y="107" width="5" height="42" fill="#acacac"/><rect id="uuid-6e668f10-6daf-4dcc-b000-cb6d22fe559e" x="393" y="107" width="5" height="42" fill="#acacac"/><path id="uuid-c241e9f3-4aa0-431d-8698-9c0ef8656ddb" d="M425.12,100c1.42-3.81,2.23-8.1,2.23-12.65,0-15.7-9.54-28.42-21.32-28.42s-21.32,12.72-21.32,28.42c0,4.55.8,8.84,2.23,12.65h38.18Z" fill="#ccc"/><path id="uuid-1929f01e-e678-4771-8f42-37822a30be73" d="M388.05,103c3.78,7.91,10.42,13.17,17.98,13.17s14.2-5.25,17.98-13.17h-35.96Z" fill="#ccc"/><ellipse id="uuid-f94d515f-5f1d-490a-a425-4631724cc807" cx="410" cy="90" rx="2" ry="3" fill="#333"/><ellipse id="uuid-3dd3a5ad-1c87-4894-88c9-551a1aa35b60" cx="398" cy="90" rx="2" ry="3" fill="#333"/><rect id="uuid-1d00d17d-4cc3-4600-8159-a191cbb28eb6" x="427.62" y="130.55" width="10.66" height="22.74" transform="translate(-14.75 57.34) rotate(-7.45)" fill="#727272"/><rect id="uuid-71bac832-0057-49be-a60e-5ab14651c0da" x="424.67" y="108.01" width="10.66" height="22.74" transform="translate(-11.85 56.76) rotate(-7.45)" fill="#727272"/><rect id="uuid-5adaab5a-e47a-4e2f-9432-45d76b082be4" x="368.83" y="113.68" width="22.74" height="10.66" transform="translate(244.72 493.66) rotate(-87.5)" fill="#727272"/><rect id="uuid-f513b6ca-1cab-4881-8bcc-b039c7261b67" x="367.84" y="136.4" width="22.74" height="10.66" transform="translate(221.07 514.4) rotate(-87.5)" fill="#727272"/><rect id="uuid-8654d092-6986-4304-b278-27015a551b3b" x="429.52" y="153.38" width="11.37" height="11.37" transform="translate(-16.95 57.77) rotate(-7.45)" fill="#ccc"/><rect id="uuid-d0e44666-1bc9-4026-b599-ea3361222a88" x="372.78" y="153.09" width="11.37" height="11.37" transform="translate(203.33 529.95) rotate(-87.5)" fill="#ccc"/><circle id="uuid-0281e0b8-fd35-4065-8fc6-2d70233f286a" cx="405.5" cy="141.5" r="1.5" fill="#333"/><circle id="uuid-0102b3b8-5cc2-42b0-b658-ae89002596a6" cx="405.5" cy="135.5" r="1.5" fill="#333"/><circle id="uuid-16fdcb4b-1d82-49c0-89a4-d74b157cdd87" cx="405.5" cy="129.5" r="1.5" fill="#333"/><circle id="uuid-86af3392-07c3-4e80-bd2f-8b700945f12e" cx="405.5" cy="122.5" r="1.5" fill="#333"/><path d="M429.85,70.98c-1.28-9.92-11.46-17.65-23.82-17.65s-22.54,7.73-23.82,17.65c-4.13.59-6.61,1.34-6.61,2.15,0,1.91,13.63,3.46,30.43,3.46s30.43-1.55,30.43-3.46c0-.81-2.48-1.56-6.61-2.15Z" fill="#6a6a6a"/><polygon id="uuid-497cee03-c69a-498c-b9dc-e48ec3208660" points="424 214 410 214 410 238.97 410 244 431 244 431 239 424 239 424 214" fill="none" stroke="#000" stroke-linecap="round" stroke-linejoin="round"/><rect id="uuid-1f3c488f-956c-417f-a183-95a2fa65cc88" x="408" y="179" width="18" height="35" fill="none" stroke="#000" stroke-linecap="round" stroke-linejoin="round"/><polygon id="uuid-250e1366-bd54-426d-a45b-c9541bfe1ab1" points="402 214 388 214 388 239 381 239 381 244 402 244 402 238.97 402 238.97 402 214" fill="none" stroke="#000" stroke-linecap="round" stroke-linejoin="round"/><rect id="uuid-563ae330-fbec-40ec-aab1-89aed80583b3" x="386" y="179" width="18" height="35" fill="none" stroke="#000" stroke-linecap="round" stroke-linejoin="round"/><path id="uuid-496850f6-510a-4ad4-92fe-e1a1d19cfaf4" d="M386,108v71h40v-71h-40Z" fill="none" stroke="#000" stroke-linecap="round" stroke-linejoin="round"/><rect id="uuid-86f34b41-112b-4e1b-8c79-b464f276e21b" x="386" y="149" width="40" height="12" fill="none" stroke="#000" stroke-linecap="round" stroke-linejoin="round"/><rect id="uuid-f3650a60-7a2c-4556-a313-64130ac171cb" x="414" y="107" width="5" height="42" fill="none" stroke="#000" stroke-linecap="round" stroke-linejoin="round"/><rect id="uuid-2949b9dc-6400-4f33-a4b5-cef9a36bfcc0" x="393" y="107" width="5" height="42" fill="none" stroke="#000" stroke-linecap="round" stroke-linejoin="round"/><path id="uuid-08a57284-0049-47ae-a508-7840336728b5" d="M425.12,100c1.42-3.81,2.23-8.1,2.23-12.65,0-15.7-9.54-28.42-21.32-28.42s-21.32,12.72-21.32,28.42c0,4.55.8,8.84,2.23,12.65h38.18Z" fill="none" stroke="#000" stroke-linecap="round" stroke-linejoin="round"/><path id="uuid-58402f24-a62b-4732-96a3-8be80a7eb4ab" d="M388.05,103c3.78,7.91,10.42,13.17,17.98,13.17s14.2-5.25,17.98-13.17h-35.96Z" fill="none" stroke="#000" stroke-linecap="round" stroke-linejoin="round"/><ellipse id="uuid-407b6994-2587-4860-9a57-4a9fa4f706bf" cx="410" cy="90" rx="2" ry="3" fill="none" stroke="#000" stroke-linecap="round" stroke-linejoin="round"/><ellipse id="uuid-99cc9166-a172-4622-b35d-be7e010e8178" cx="398" cy="90" rx="2" ry="3" fill="none" stroke="#000" stroke-linecap="round" stroke-linejoin="round"/><rect id="uuid-dcdcf159-ab0d-46a4-ad26-9229746f0ab2" x="427.62" y="130.55" width="10.66" height="22.74" transform="translate(-14.75 57.34) rotate(-7.45)" fill="none" stroke="#000" stroke-linecap="round" stroke-linejoin="round" stroke-width="1"/><rect id="uuid-bb016003-e7e1-4e36-a8f1-97e52adc5afd" x="424.67" y="108.01" width="10.66" height="22.74" transform="translate(-11.85 56.76) rotate(-7.45)" fill="none" stroke="#000" stroke-linecap="round" stroke-linejoin="round" stroke-width="1"/><rect id="uuid-28453097-602b-4f17-9694-5c314bace7eb" x="368.83" y="113.68" width="22.74" height="10.66" transform="translate(244.72 493.66) rotate(-87.5)" fill="none" stroke="#000" stroke-linecap="round" stroke-linejoin="round" stroke-width="1"/><rect id="uuid-787e52ab-52ef-4652-806f-ee055bf343e3" x="367.84" y="136.4" width="22.74" height="10.66" transform="translate(221.07 514.4) rotate(-87.5)" fill="none" stroke="#000" stroke-linecap="round" stroke-linejoin="round" stroke-width="1"/><rect id="uuid-fff4119f-06d3-4c6e-a1a6-ff15bea224fa" x="429.52" y="153.38" width="11.37" height="11.37" transform="translate(-16.95 57.77) rotate(-7.45)" fill="none" stroke="#000" stroke-linecap="round" stroke-linejoin="round" stroke-width="1"/><rect id="uuid-2698c11a-13c1-4122-b923-419fbe1a60aa" x="372.78" y="153.09" width="11.37" height="11.37" transform="translate(203.33 529.95) rotate(-87.5)" fill="none" stroke="#000" stroke-linecap="round" stroke-linejoin="round" stroke-width="1"/><circle id="uuid-1a35c0e3-aa32-4d9c-9f92-55a18bcd37c4" cx="405.5" cy="141.5" r="1.5" fill="none" stroke="#000" stroke-linecap="round" stroke-linejoin="round"/><circle id="uuid-c3075833-e532-4cfe-82aa-7411fdf9288c" cx="405.5" cy="135.5" r="1.5" fill="none" stroke="#000" stroke-linecap="round" stroke-linejoin="round"/><circle id="uuid-c38ff764-407d-4828-903c-c1898d8d4e67" cx="405.5" cy="129.5" r="1.5" fill="none" stroke="#000" stroke-linecap="round" stroke-linejoin="round"/><circle id="uuid-161d08e3-e65a-4352-8c03-8ebbc4e253ed" cx="405.5" cy="122.5" r="1.5" fill="none" stroke="#000" stroke-linecap="round" stroke-linejoin="round"/><path d="M429.85,70.98c-1.28-9.92-11.46-17.65-23.82-17.65s-22.54,7.73-23.82,17.65c-4.13.59-6.61,1.34-6.61,2.15,0,1.91,13.63,3.46,30.43,3.46s30.43-1.55,30.43-3.46c0-.81-2.48-1.56-6.61-2.15Z" fill="none" stroke="#000" stroke-linecap="round" stroke-linejoin="round"/></g><g id="uuid-ef25ed77-6deb-4f75-8874-3b64ef4ac30d"><polygon id="uuid-89825483-465c-4950-8059-4d5fc439a859" points="341 214 327 214 327 238.97 327 244 348 244 348 239 341 239 341 214" fill="#5f5f5f"/><rect id="uuid-a4c66b61-cb4d-4a5e-a9d1-58fe91937081" x="325" y="179" width="18" height="35" fill="#727272"/><polygon id="uuid-76d3fc57-7d19-4384-abcb-8b14f9a9de10" points="319 214 305 214 305 239 298 239 298 244 319 244 319 238.97 319 238.97 319 214" fill="#5f5f5f"/><rect id="uuid-d5ec63c8-4abc-4224-a202-62a2aca82a5d" x="303" y="179" width="18" height="35" fill="#727272"/><path id="uuid-0934dc65-0b85-4368-befe-0c4e6dd155d3" d="M303,108v71h40v-71h-40Z" fill="#727272"/><rect id="uuid-260d8517-a693-4055-84f3-ce926ce08a3f" x="303" y="149" width="40" height="12" fill="#acacac"/><rect id="uuid-556e726e-4406-4412-8182-b8d33f74d192" x="332" y="107" width="5" height="42" fill="#acacac"/><rect id="uuid-a49e9be4-10c3-48ff-91f6-d22b8edcb369" x="310" y="107" width="5" height="42" fill="#acacac"/><path id="uuid-24fb7bc1-ddd3-401f-a487-cd8fc48c3ad5" d="M342.52,100c1.42-3.81,2.23-8.1,2.23-12.65,0-15.7-9.54-28.42-21.32-28.42s-21.32,12.72-21.32,28.42c0,4.55.8,8.84,2.23,12.65h38.18Z" fill="#ccc"/><path id="uuid-bdbe66df-d971-4681-b131-02377a5991f1" d="M305.45,103c3.78,7.91,10.42,13.17,17.98,13.17s14.2-5.25,17.98-13.17h-35.96Z" fill="#ccc"/><ellipse id="uuid-c1ff80c4-e5b9-429e-9bfc-569aa8824889" cx="333" cy="89" rx="2" ry="3" fill="#333"/><ellipse id="uuid-b536ff0b-28e8-4eca-812b-cd4250cf6197" cx="322" cy="89" rx="2" ry="3" fill="#333"/><rect id="uuid-fda892c4-5483-4b47-b962-f4d30d54f207" x="344.54" y="130.55" width="10.66" height="22.74" transform="translate(-5.23 13.66) rotate(-2.22)" fill="#727272"/><rect id="uuid-a9144140-5ee9-4f58-a9af-ffc39ef735ed" x="343.66" y="107.83" width="10.66" height="22.74" transform="translate(-4.36 13.61) rotate(-2.22)" fill="#727272"/><rect id="uuid-f0831b2a-abf1-44ba-a443-45e3aa760eda" x="286.23" y="113.69" width="22.74" height="10.66" transform="translate(165.71 411.15) rotate(-87.5)" fill="#727272"/><rect id="uuid-188bda5c-3ebc-46cf-b06a-6b583c98f5b2" x="284.01" y="135.5" width="22.74" height="10.66" transform="translate(103.87 406.17) rotate(-79.67)" fill="#727272"/><rect id="uuid-07d83c84-4ff5-4250-8457-9f9bc77c2c46" x="344.84" y="153.51" width="11.37" height="11.37" transform="translate(-5.9 13.7) rotate(-2.22)" fill="#ccc"/><rect id="uuid-cf04eae9-55ea-4d07-a18e-4576951ea019" x="286.64" y="151.92" width="11.37" height="11.37" transform="translate(84.86 416.93) rotate(-79.67)" fill="#ccc"/><circle id="uuid-dea6acbd-2ebb-4f68-b284-2b5ee5be7877" cx="323.5" cy="141.5" r="1.5" fill="#333"/><circle id="uuid-99291e05-cc4e-47dd-a464-5bf4840dd4da" cx="323.5" cy="135.5" r="1.5" fill="#333"/><circle id="uuid-7abc20bf-8f85-43a0-8ec9-5260de467c67" cx="323.5" cy="129.5" r="1.5" fill="#333"/><circle id="uuid-6902eb84-e32b-457d-8fe9-15c3d005a876" cx="323.5" cy="122.5" r="1.5" fill="#333"/><path d="M347.26,70.98c-1.28-9.92-11.46-17.65-23.82-17.65s-22.54,7.73-23.82,17.65c-4.13.59-6.61,1.34-6.61,2.15,0,1.91,13.63,3.46,30.43,3.46s30.43-1.55,30.43-3.46c0-.81-2.48-1.56-6.61-2.15Z" fill="#6a6a6a"/><polygon id="uuid-d20c5c0b-f191-443d-83a1-b248fe385aa7" points="341 214 327 214 327 238.97 327 244 348 244 348 239 341 239 341 214" fill="none" stroke="#000" stroke-linecap="round" stroke-linejoin="round"/><rect id="uuid-bb114daf-13ad-4e4b-b352-2e9ed61c7add" x="325" y="179" width="18" height="35" fill="none" stroke="#000" stroke-linecap="round" stroke-linejoin="round"/><polygon id="uuid-306667a3-a46b-40c7-996f-2c7a3160b1dc" points="319 214 305 214 305 239 298 239 298 244 319 244 319 238.97 319 238.97 319 214" fill="none" stroke="#000" stroke-linecap="round" stroke-linejoin="round"/><rect id="uuid-22f36244-4546-495c-bd60-8a8da6ecae9c" x="303" y="179" width="18" height="35" fill="none" stroke="#000" stroke-linecap="round" stroke-linejoin="round"/><path id="uuid-db675179-7faa-48f3-a4aa-7d35a2af7912" d="M303,108v71h40v-71h-40Z" fill="none" stroke="#000" stroke-linecap="round" stroke-linejoin="round"/><rect id="uuid-900840db-a0bc-4394-8082-6ea616ed9d07" x="303" y="149" width="40" height="12" fill="none" stroke="#000" stroke-linecap="round" stroke-linejoin="round"/><rect id="uuid-2550e726-2da6-4e53-8f7a-c379acc34042" x="332" y="107" width="5" height="42" fill="none" stroke="#000" stroke-linecap="round" stroke-linejoin="round"/><rect id="uuid-86df62f7-bf21-4d81-bcb7-83efed42e7a1" x="310" y="107" width="5" height="42" fill="none" stroke="#000" stroke-linecap="round" stroke-linejoin="round"/><path id="uuid-08cefdd7-5973-401b-b1de-33f667bca91a" d="M342.52,100c1.42-3.81,2.23-8.1,2.23-12.65,0-15.7-9.54-28.42-21.32-28.42s-21.32,12.72-21.32,28.42c0,4.55.8,8.84,2.23,12.65h38.18Z" fill="none" stroke="#000" stroke-linecap="round" stroke-linejoin="round"/><path id="uuid-6141200f-a250-457e-ad7a-858681784e24" d="M305.45,103c3.78,7.91,10.42,13.17,17.98,13.17s14.2-5.25,17.98-13.17h-35.96Z" fill="none" stroke="#000" stroke-linecap="round" stroke-linejoin="round"/><ellipse id="uuid-3313202a-2335-4d29-857b-85b7ac716cd0" cx="333" cy="89" rx="2" ry="3" fill="none" stroke="#000" stroke-linecap="round" stroke-linejoin="round"/><ellipse id="uuid-abb2aa69-530b-43b2-92cd-7fa01a5abf98" cx="322" cy="89" rx="2" ry="3" fill="none" stroke="#000" stroke-linecap="round" stroke-linejoin="round"/><rect id="uuid-4ef8aadd-13e4-4ea6-8201-d71d4a6f0ec0" x="344.54" y="130.55" width="10.66" height="22.74" transform="translate(-5.23 13.66) rotate(-2.22)" fill="none" stroke="#000" stroke-linecap="round" stroke-linejoin="round" stroke-width="1"/><rect id="uuid-903150a7-7cb3-49f7-9a0c-cd4e82aebd43" x="343.66" y="107.83" width="10.66" height="22.74" transform="translate(-4.36 13.61) rotate(-2.22)" fill="none" stroke="#000" stroke-linecap="round" stroke-linejoin="round" stroke-width="1"/><rect id="uuid-d6b890e1-bdcd-4ba5-83ca-394cc9f0bd83" x="286.23" y="113.69" width="22.74" height="10.66" transform="translate(165.71 411.15) rotate(-87.5)" fill="none" stroke="#000" stroke-linecap="round" stroke-linejoin="round" stroke-width="1"/><rect id="uuid-6360a64d-b1bf-454d-81a9-8b4427c98a5f" x="284.01" y="135.5" width="22.74" height="10.66" transform="translate(103.87 406.17) rotate(-79.67)" fill="none" stroke="#000" stroke-linecap="round" stroke-linejoin="round" stroke-width="1"/><rect id="uuid-3ac840b4-07cf-4d34-b23c-a9b302bd55fc" x="344.84" y="153.51" width="11.37" height="11.37" transform="translate(-5.9 13.7) rotate(-2.22)" fill="none" stroke="#000" stroke-linecap="round" stroke-linejoin="round" stroke-width="1"/><rect id="uuid-ecadf035-a382-43c0-a2b2-2e189915234c" x="286.64" y="151.92" width="11.37" height="11.37" transform="translate(84.86 416.93) rotate(-79.67)" fill="none" stroke="#000" stroke-linecap="round" stroke-linejoin="round" stroke-width="1"/><circle id="uuid-63df2448-6958-4d0e-9d10-73b5e29c43be" cx="323.5" cy="141.5" r="1.5" fill="none" stroke="#000" stroke-linecap="round" stroke-linejoin="round"/><circle id="uuid-2874de02-2064-4a58-8197-838a56745c46" cx="323.5" cy="135.5" r="1.5" fill="none" stroke="#000" stroke-linecap="round" stroke-linejoin="round"/><circle id="uuid-2c4bf44f-23d3-4650-a999-eacd5971dd2b" cx="323.5" cy="129.5" r="1.5" fill="none" stroke="#000" stroke-linecap="round" stroke-linejoin="round"/><circle id="uuid-c7428bb0-a0e6-42a8-8805-bfe9cea7f6f9" cx="323.5" cy="122.5" r="1.5" fill="none" stroke="#000" stroke-linecap="round" stroke-linejoin="round"/><path d="M347.26,70.98c-1.28-9.92-11.46-17.65-23.82-17.65s-22.54,7.73-23.82,17.65c-4.13.59-6.61,1.34-6.61,2.15,0,1.91,13.63,3.46,30.43,3.46s30.43-1.55,30.43-3.46c0-.81-2.48-1.56-6.61-2.15Z" fill="none" stroke="#000" stroke-linecap="round" stroke-linejoin="round"/></g><g id="uuid-28ca1c1b-66a5-4c2b-aeb4-7d83c4a178ee"><polygon id="uuid-29119b92-bed6-4703-ad28-124db8f49e1e" points="259 214 245 214 245 238.97 245 244 266 244 266 239 259 239 259 214" fill="#5f5f5f"/><rect id="uuid-e49571b4-f263-4e6c-af8d-c3489a064b33" x="243" y="179" width="18" height="35" fill="#727272"/><polygon id="uuid-39fce5b4-f473-478d-8518-28bb2a025bdc" points="237 214 223 214 223 239 216 239 216 244 237 244 237 238.97 237 238.97 237 214" fill="#5f5f5f"/><rect id="uuid-1cd9ae10-6421-4312-a866-d00377f93ca7" x="221" y="179" width="18" height="35" fill="#727272"/><path id="uuid-dfc9808b-5cc4-4539-aa8b-b52e1b3ebd28" d="M221,108v71h40v-71h-40Z" fill="#727272"/><rect id="uuid-5e7bd9ec-09ef-4997-ab26-0d0ce2b7bda7" x="221" y="149" width="40" height="12" fill="#acacac"/><rect id="uuid-6fd55a4f-fcc3-4b71-b381-8b9f16b05d73" x="249" y="107" width="5" height="42" fill="#acacac"/><rect id="uuid-1c737572-1aca-4e2d-99b0-9dfcfa9c5467" x="228" y="107" width="5" height="42" fill="#acacac"/><path id="uuid-ed4be449-2544-404a-ac6f-1bfa3a7925b3" d="M259.93,100c1.42-3.81,2.23-8.1,2.23-12.65,0-15.7-9.54-28.42-21.32-28.42s-21.32,12.72-21.32,28.42c0,4.55.8,8.84,2.23,12.65h38.18Z" fill="#ccc"/><path id="uuid-3c782c5d-eb72-4973-b5d1-a662a2c76c6e" d="M222.86,103c3.78,7.91,10.42,13.17,17.98,13.17s14.2-5.25,17.98-13.17h-35.96Z" fill="#ccc"/><ellipse id="uuid-3bd6386f-c499-4b90-9c92-faa3aa880fdb" cx="247" cy="91" rx="2" ry="3" fill="#333"/><ellipse id="uuid-c51cf1c2-1fb7-49ba-9b07-4a2a8600906f" cx="235" cy="91" rx="2" ry="3" fill="#333"/><rect id="uuid-5204af9b-41fe-4238-bbb8-288acd30f013" x="261.94" y="130.55" width="10.66" height="22.74" transform="translate(-5.3 10.46) rotate(-2.22)" fill="#727272"/><rect id="uuid-b7b2370d-a771-43e0-abfe-1f3c63b87f8d" x="261.06" y="107.83" width="10.66" height="22.74" transform="translate(-4.42 10.41) rotate(-2.22)" fill="#727272"/><rect id="uuid-a24e1b22-328f-485a-918c-f7f790c9704b" x="203.64" y="113.69" width="22.74" height="10.66" transform="translate(86.72 328.63) rotate(-87.5)" fill="#727272"/><rect id="uuid-e6856ad0-3407-459e-ba82-5cabde1a5974" x="202.65" y="136.4" width="22.74" height="10.66" transform="translate(63.09 349.36) rotate(-87.5)" fill="#727272"/><rect id="uuid-0dd9e1cb-892a-48d5-9e22-91150deace02" x="262.26" y="153.51" width="11.37" height="11.37" transform="translate(-5.97 10.5) rotate(-2.22)" fill="#ccc"/><rect id="uuid-446b5273-ef06-426c-b494-f65c19826053" x="207.59" y="153.08" width="11.37" height="11.37" transform="translate(45.36 364.91) rotate(-87.5)" fill="#ccc"/><circle id="uuid-3f8153c1-9972-4eab-996b-935cde50dfd5" cx="240.5" cy="141.5" r="1.5" fill="#333"/><circle id="uuid-bf3a473c-84b0-44fa-8269-6aa4fefa831b" cx="240.5" cy="135.5" r="1.5" fill="#333"/><circle id="uuid-3bdafdf8-006c-4471-9812-ec593d59c54e" cx="240.5" cy="129.5" r="1.5" fill="#333"/><circle id="uuid-9cfe375f-30f4-480b-8fd9-70ea4da69819" cx="240.5" cy="122.5" r="1.5" fill="#333"/><path d="M264.66,70.98c-1.28-9.92-11.46-17.65-23.82-17.65s-22.54,7.73-23.82,17.65c-4.13.59-6.61,1.34-6.61,2.15,0,1.91,13.63,3.46,30.43,3.46s30.43-1.55,30.43-3.46c0-.81-2.48-1.56-6.61-2.15Z" fill="#6a6a6a"/><polygon id="uuid-ab15b666-ed4f-41a3-9c22-7500eb6e8be0" points="259 214 245 214 245 238.97 245 244 266 244 266 239 259 239 259 214" fill="none" stroke="#000" stroke-linecap="round" stroke-linejoin="round"/><rect id="uuid-0ec02439-dfa6-49d1-86b9-98c2ef87e55e" x="243" y="179" width="18" height="35" fill="none" stroke="#000" stroke-linecap="round" stroke-linejoin="round"/><polygon id="uuid-b8c0962f-b361-4edc-a05c-5dc748c3f041" points="237 214 223 214 223 239 216 239 216 244 237 244 237 238.97 237 238.97 237 214" fill="none" stroke="#000" stroke-linecap="round" stroke-linejoin="round"/><rect id="uuid-67360dc5-d135-4b4f-9580-758e1c72b82a" x="221" y="179" width="18" height="35" fill="none" stroke="#000" stroke-linecap="round" stroke-linejoin="round"/><path id="uuid-04092154-039e-4b85-a8f8-bbd44479101f" d="M221,108v71h40v-71h-40Z" fill="none" stroke="#000" stroke-linecap="round" stroke-linejoin="round"/><rect id="uuid-6e269cd7-6b3e-4a3e-8f26-213838c04da8" x="221" y="149" width="40" height="12" fill="none" stroke="#000" stroke-linecap="round" stroke-linejoin="round"/><rect id="uuid-cdd276c6-b9cd-4e6e-b122-0155e79cc77a" x="249" y="107" width="5" height="42" fill="none" stroke="#000" stroke-linecap="round" stroke-linejoin="round"/><rect id="uuid-7995ba8a-7c85-40f8-8b8d-4a216fe5f79a" x="228" y="107" width="5" height="42" fill="none" stroke="#000" stroke-linecap="round" stroke-linejoin="round"/><path id="uuid-fa887459-b0ff-44c9-ad2d-e8e37c654cce" d="M259.93,100c1.42-3.81,2.23-8.1,2.23-12.65,0-15.7-9.54-28.42-21.32-28.42s-21.32,12.72-21.32,28.42c0,4.55.8,8.84,2.23,12.65h38.18Z" fill="none" stroke="#000" stroke-linecap="round" stroke-linejoin="round"/><path id="uuid-984357d6-1cd8-4e0a-b50b-2370605bda18" d="M222.86,103c3.78,7.91,10.42,13.17,17.98,13.17s14.2-5.25,17.98-13.17h-35.96Z" fill="none" stroke="#000" stroke-linecap="round" stroke-linejoin="round"/><ellipse id="uuid-e7a73ac7-ff00-4084-aea6-9f974787d371" cx="247" cy="91" rx="2" ry="3" fill="none" stroke="#000" stroke-linecap="round" stroke-linejoin="round"/><ellipse id="uuid-2ebbcf8b-49ff-4558-8d65-23b47b0bc582" cx="235" cy="91" rx="2" ry="3" fill="none" stroke="#000" stroke-linecap="round" stroke-linejoin="round"/><rect id="uuid-8399b05f-8c49-492a-8489-a302eddea876" x="261.94" y="130.55" width="10.66" height="22.74" transform="translate(-5.3 10.46) rotate(-2.22)" fill="none" stroke="#000" stroke-linecap="round" stroke-linejoin="round" stroke-width="1"/><rect id="uuid-88ba37eb-cc05-457d-b30f-f56713c63181" x="261.06" y="107.83" width="10.66" height="22.74" transform="translate(-4.42 10.41) rotate(-2.22)" fill="none" stroke="#000" stroke-linecap="round" stroke-linejoin="round" stroke-width="1"/><rect id="uuid-96139944-72a8-4c2c-a891-2192b064b741" x="203.64" y="113.69" width="22.74" height="10.66" transform="translate(86.72 328.63) rotate(-87.5)" fill="none" stroke="#000" stroke-linecap="round" stroke-linejoin="round" stroke-width="1"/><rect id="uuid-ea4ffdf5-27b8-40f5-bcb5-e37a0d46b243" x="202.65" y="136.4" width="22.74" height="10.66" transform="translate(63.09 349.36) rotate(-87.5)" fill="none" stroke="#000" stroke-linecap="round" stroke-linejoin="round" stroke-width="1"/><rect id="uuid-daddd007-6ae6-4853-96c0-00bd2b65b3d7" x="262.26" y="153.51" width="11.37" height="11.37" transform="translate(-5.97 10.5) rotate(-2.22)" fill="none" stroke="#000" stroke-linecap="round" stroke-linejoin="round" stroke-width="1"/><rect id="uuid-c6050ca0-bf40-44f9-bbb2-f96661551860" x="207.59" y="153.08" width="11.37" height="11.37" transform="translate(45.36 364.91) rotate(-87.5)" fill="none" stroke="#000" stroke-linecap="round" stroke-linejoin="round" stroke-width="1"/><circle id="uuid-ecc080d4-a00c-4cb3-873f-570e93ac553e" cx="240.5" cy="141.5" r="1.5" fill="none" stroke="#000" stroke-linecap="round" stroke-linejoin="round"/><circle id="uuid-b1fb7c19-1b77-4f31-b3f4-beb5fdb999ee" cx="240.5" cy="135.5" r="1.5" fill="none" stroke="#000" stroke-linecap="round" stroke-linejoin="round"/><circle id="uuid-2e7ac27a-2e0a-49cb-936a-ee582e507939" cx="240.5" cy="129.5" r="1.5" fill="none" stroke="#000" stroke-linecap="round" stroke-linejoin="round"/><circle id="uuid-ce185ca1-ae65-4a08-90dd-460946fab6a5" cx="240.5" cy="122.5" r="1.5" fill="none" stroke="#000" stroke-linecap="round" stroke-linejoin="round"/><path d="M264.66,70.98c-1.28-9.92-11.46-17.65-23.82-17.65s-22.54,7.73-23.82,17.65c-4.13.59-6.61,1.34-6.61,2.15,0,1.91,13.63,3.46,30.43,3.46s30.43-1.55,30.43-3.46c0-.81-2.48-1.56-6.61-2.15Z" fill="none" stroke="#000" stroke-linecap="round" stroke-linejoin="round"/></g><path d="M177.25,262l2.52-.03c.97,0,1.89-.57,2.25-1.47.71-1.81-.61-3.52-2.32-3.5l-2.49.02c-1.71.02-3,1.76-2.24,3.55.38.89,1.31,1.43,2.28,1.42h0Z" fill="#434a54"/><path d="M175,255.35l.45,44.44c.02,1.25,1.04,2.26,2.3,2.25,1.25-.02,2.26-1.04,2.25-2.3l-.46-44.44c0-1.25-1.04-2.26-2.29-2.25-1.26,0-2.26,1.04-2.25,2.29h0Z" fill="#656d78"/><path d="M179.4,273.78l6.71,5.25c.56.44.89,1.11.9,1.82l.15,14.67c0,.4-.1.79-.3,1.14l-6.64,11.68c-.59,1.04-1.9,1.46-3.02.87-.77-.4-1.18-1.26-1.19-2.13l-.32-31.58h0c-.02-1.25.98-2.26,2.23-2.28.57,0,1.09.2,1.49.54v.02Z" fill="#a85d5d"/><path d="M164.1,341.16c0,.9.54,1.76,1.42,2.13l7.06,3c1.19.51,2.56-.05,3.07-1.24s-.05-2.57-1.24-3.07l-7.06-3c-1.19-.5-2.57.05-3.07,1.24-.13.3-.19.63-.19.94h.01Z" fill="#ed5564"/><path d="M174.98,342.31c.63.43,1.01,1.13,1.02,1.89l.07,6.94c0,.96-.58,1.83-1.48,2.18l-18.45,7.13c-.71.27-1.5.18-2.13-.24-.63-.43-1.01-1.13-1.02-1.89l-.07-6.95c0-.96.58-1.83,1.48-2.18l18.44-7.13c.71-.27,1.5-.18,2.13.24h0Z" fill="#965353"/><path d="M151.77,312.25c4.88,4.69,10.09,7.65,15.09,8.58,3.61.67,5.92.05,6.09,0,.83-.28,1.72-.07,2.38.56.45.44.66,1.07.67,1.7l.1,9.31c0,1.26-.97,2.3-2.23,2.36-.64.03-15.75.6-29.89-12.01-.51-.45-.78-1.08-.78-1.72,0-.45.12-.9.38-1.3l4.61-7.08c.38-.58,1-.97,1.69-1.05.7-.08,1.39.16,1.89.64h0Z" fill="#434a54"/><path d="M185.43,354.66c.45.48.67,1.12.62,1.77l-.49,6.68,2.38,10.6.05.46.22,21.47c.02,1.29-1.02,2.35-2.31,2.36l-18.71.19c-.72,0-1.39-.31-1.84-.87-.33-.41-.51-.92-.52-1.44,0-.18.02-.36.06-.54l8.95-39.52c.24-1.06,1.17-1.81,2.26-1.82l7.6-.08c.65,0,1.28.26,1.73.74h0Z" fill="#a85d5d"/><path d="M171,303.43l.54,52.25c0,.62.26,1.22.71,1.65s1.05.67,1.67.67l9.45-.1c.89,0,1.69-.52,2.08-1.31l2.31-4.71c.16-.33.24-.69.24-1.06l-.57-55.32c0-1.16-.89-2.18-2.15-2.32-.56-.06-1.11.12-1.57.43l-11.67,7.85c-.66.44-1.05,1.18-1.04,1.96h0Z" fill="#656d78"/><path d="M185,340.74l-.28-27.68c0-1.27,1.01-2.32,2.28-2.33l.33,32.29c-1.27.01-2.32-1.01-2.33-2.28h0Z" fill="#434a54"/><path d="M177.25,262l2.52-.03c.97,0,1.89-.57,2.25-1.47.71-1.81-.61-3.52-2.32-3.5l-2.49.02c-1.71.02-3,1.76-2.24,3.55.38.89,1.31,1.43,2.28,1.42h0Z" fill="none" stroke="#000" stroke-linecap="round" stroke-linejoin="round"/><path d="M175,255.35l.45,44.44c.02,1.25,1.04,2.26,2.3,2.25,1.25-.02,2.26-1.04,2.25-2.3l-.46-44.44c0-1.25-1.04-2.26-2.29-2.25-1.26,0-2.26,1.04-2.25,2.29h0Z" fill="none" stroke="#000" stroke-linecap="round" stroke-linejoin="round"/><path d="M179.4,273.78l6.71,5.25c.56.44.89,1.11.9,1.82l.15,14.67c0,.4-.1.79-.3,1.14l-6.64,11.68c-.59,1.04-1.9,1.46-3.02.87-.77-.4-1.18-1.26-1.19-2.13l-.32-31.58h0c-.02-1.25.98-2.26,2.23-2.28.57,0,1.09.2,1.49.54v.02Z" fill="none" stroke="#000" stroke-linecap="round" stroke-linejoin="round"/><path d="M164.1,341.16c0,.9.54,1.76,1.42,2.13l7.06,3c1.19.51,2.56-.05,3.07-1.24s-.05-2.57-1.24-3.07l-7.06-3c-1.19-.5-2.57.05-3.07,1.24-.13.3-.19.63-.19.94h.01Z" fill="none" stroke="#000" stroke-linecap="round" stroke-linejoin="round"/><path d="M174.98,342.31c.63.43,1.01,1.13,1.02,1.89l.07,6.94c0,.96-.58,1.83-1.48,2.18l-18.45,7.13c-.71.27-1.5.18-2.13-.24-.63-.43-1.01-1.13-1.02-1.89l-.07-6.95c0-.96.58-1.83,1.48-2.18l18.44-7.13c.71-.27,1.5-.18,2.13.24h0Z" fill="none" stroke="#000" stroke-linecap="round" stroke-linejoin="round"/><path d="M151.77,312.25c4.88,4.69,10.09,7.65,15.09,8.58,3.61.67,5.92.05,6.09,0,.83-.28,1.72-.07,2.38.56.45.44.66,1.07.67,1.7l.1,9.31c0,1.26-.97,2.3-2.23,2.36-.64.03-15.75.6-29.89-12.01-.51-.45-.78-1.08-.78-1.72,0-.45.12-.9.38-1.3l4.61-7.08c.38-.58,1-.97,1.69-1.05.7-.08,1.39.16,1.89.64h0Z" fill="none" stroke="#000" stroke-linecap="round" stroke-linejoin="round"/><path d="M185.43,354.66c.45.48.67,1.12.62,1.77l-.49,6.68,2.38,10.6.05.46.22,21.47c.02,1.29-1.02,2.35-2.31,2.36l-18.71.19c-.72,0-1.39-.31-1.84-.87-.33-.41-.51-.92-.52-1.44,0-.18.02-.36.06-.54l8.95-39.52c.24-1.06,1.17-1.81,2.26-1.82l7.6-.08c.65,0,1.28.26,1.73.74h0Z" fill="none" stroke="#000" stroke-linecap="round" stroke-linejoin="round"/><path d="M171,303.43l.54,52.25c0,.62.26,1.22.71,1.65s1.05.67,1.67.67l9.45-.1c.89,0,1.69-.52,2.08-1.31l2.31-4.71c.16-.33.24-.69.24-1.06l-.57-55.32c0-1.16-.89-2.18-2.15-2.32-.56-.06-1.11.12-1.57.43l-11.67,7.85c-.66.44-1.05,1.18-1.04,1.96h0Z" fill="none" stroke="#000" stroke-linecap="round" stroke-linejoin="round"/><path d="M185,340.74l-.28-27.68c0-1.27,1.01-2.32,2.28-2.33l.33,32.29c-1.27.01-2.32-1.01-2.33-2.28h0Z" fill="none" stroke="#000" stroke-linecap="round" stroke-linejoin="round"/><g id="uuid-c694eb4a-45d5-49f8-8b75-5dc865223b1d"><polygon id="uuid-1335c693-d4c4-4475-9ac5-191a79d97d62" points="132 394 112 394 112 428.96 112 436 142 436 142 429 132 429 132 394" fill="#5f4d2f"/><rect id="uuid-f9733744-60a7-48f9-9c66-61b60e6ae345" x="109" y="345" width="25" height="49" fill="#726038"/><polygon id="uuid-7489a856-1773-4ad9-8915-e26c8882b2c5" points="100 394 80 394 80 429 70 429 70 436 100 436 100 428.96 100 428.96 100 394" fill="#5f4d2f"/><rect id="uuid-e5b162ed-1645-4ec3-bd2e-1dfdccdad1a9" x="78" y="345" width="25" height="49" fill="#726038"/><path id="uuid-11469000-fa8c-4a16-a076-50f090873b96" d="M78,245v100h56v-100h-56Z" fill="#726038"/><rect id="uuid-7ac00b4a-a60d-443c-8803-e1db7d7d87e5" x="78" y="303" width="56" height="17" fill="#ac935a"/><rect id="uuid-f778e303-af0c-4477-8cd9-9b213399d7ba" x="118" y="244" width="7" height="59" fill="#ac935a"/><rect id="uuid-0966cb97-74ac-4272-9f57-1e99930a016d" x="87" y="244" width="7" height="59" fill="#ac935a"/><path id="uuid-9b6d0605-cf13-46d6-8b64-1ee8081afa0c" d="M133.47,227.95c1.47-5.56,2.01-11.71,1.38-18.11-2.18-22.08-17.37-38.66-33.93-37.03s-28.22,20.86-26.04,42.94c.63,6.4,2.36,12.32,4.89,17.49l53.71-5.3h-.01Z" fill="#eec6a2"/><path id="uuid-bc53b951-69b8-48c6-810e-6eb054277269" d="M80.74,237c5.35,11.19,14.73,18.62,25.42,18.62s20.07-7.43,25.42-18.62h-50.84Z" fill="#eec6a2"/><ellipse id="uuid-0d455554-75b6-44bc-9dff-cca85e4a6935" cx="125" cy="215.5" rx="3" ry="4.5" fill="#333"/><ellipse id="uuid-c12b215f-6f16-477c-a05e-8c65cda0a2bb" cx="109" cy="216.5" rx="3" ry="4.5" fill="#333"/><rect id="uuid-fb127db9-9ec5-4a5f-9923-a088518a707e" x="137.24" y="275.77" width="15.07" height="32.14" transform="translate(-27.93 15.61) rotate(-5.63)" fill="#726038"/><rect id="uuid-3cc4f595-622f-4356-adc9-30453eefeeea" x="134.1" y="243.94" width="15.07" height="32.14" transform="translate(-24.82 15.15) rotate(-5.63)" fill="#726038"/><rect id="uuid-44fef430-2c8a-42db-bc15-8fa97bf65bb8" x="53" y="252.48" width="32.14" height="15.07" transform="translate(-195.7 307.73) rotate(-85.34)" fill="#726038"/><rect id="uuid-9e4df7f2-9238-4a58-b55b-b4f3971010bd" x="50.4" y="284.3" width="32.14" height="15.07" transform="translate(-229.8 334.38) rotate(-85.34)" fill="#726038"/><rect id="uuid-d0c0c9b7-53b9-489a-bb04-a76206861fda" x="138.93" y="307.92" width="16.26" height="16.26" transform="translate(-30.3 15.95) rotate(-5.63)" fill="#eec6a2"/><rect id="uuid-205512dd-3a3d-40be-b804-c457b5d6d1c2" x="56.48" y="307.91" width="16.07" height="16.07" transform="translate(-255.63 354.58) rotate(-85.34)" fill="#eec6a2"/><circle id="uuid-677f5bca-60f7-4550-9a38-126da7e1e429" cx="106" cy="291" r="2" fill="#333"/><circle id="uuid-83296472-1e08-415f-a22f-7e617528e2ec" cx="106" cy="283" r="2" fill="#333"/><circle id="uuid-8689aa8c-8f9c-4e3a-a9cb-6b01eb51079f" cx="106" cy="275" r="2" fill="#333"/><circle id="uuid-4205df45-0526-41d9-b129-9c2b1496340e" cx="106" cy="266" r="2" fill="#333"/><path d="M136.1,186.35c-3.18-13.78-18.57-23.24-35.97-21.53s-30.64,14-31.07,28.14c-5.73,1.41-9.11,2.8-9,3.95.27,2.69,19.65,2.98,43.3.65,23.65-2.33,42.6-6.4,42.33-9.09-.11-1.14-3.7-1.85-9.6-2.11h.01Z" fill="#596a66"/><polygon id="uuid-6a275578-dde5-4009-a253-fa9a3f5baeaf" points="132 394 112 394 112 428.96 112 436 142 436 142 429 132 429 132 394" fill="none" stroke="#000" stroke-linecap="round" stroke-linejoin="round"/><rect id="uuid-89722960-2a8c-4bd8-91c4-71b0c7708dcf" x="109" y="345" width="25" height="49" fill="none" stroke="#000" stroke-linecap="round" stroke-linejoin="round"/><polygon id="uuid-83fd206c-f5eb-4a93-8140-01394104a970" points="100 394 80 394 80 429 70 429 70 436 100 436 100 428.96 100 428.96 100 394" fill="none" stroke="#000" stroke-linecap="round" stroke-linejoin="round"/><rect id="uuid-39ca6111-5dad-43db-958f-86eeb42fa0d4" x="78" y="345" width="25" height="49" fill="none" stroke="#000" stroke-linecap="round" stroke-linejoin="round"/><path id="uuid-eb4c0061-8a4b-4590-88c6-aa4ec696f1a9" d="M78,245v100h56v-100h-56Z" fill="none" stroke="#000" stroke-linecap="round" stroke-linejoin="round"/><rect id="uuid-139b89ae-2356-4709-bd22-f0e6031df3ff" x="78" y="303" width="56" height="17" fill="none" stroke="#000" stroke-linecap="round" stroke-linejoin="round"/><rect id="uuid-e0738d28-0149-4afe-9569-6ff06f185769" x="118" y="244" width="7" height="59" fill="none" stroke="#000" stroke-linecap="round" stroke-linejoin="round"/><rect id="uuid-a43f9dc1-caac-40c6-a719-1ec0a68af76a" x="87" y="244" width="7" height="59" fill="none" stroke="#000" stroke-linecap="round" stroke-linejoin="round"/><path id="uuid-0f615176-7630-4a16-b9db-b4290f4b97cd" d="M133.47,227.95c1.47-5.56,2.01-11.71,1.38-18.11-2.18-22.08-17.37-38.66-33.93-37.03s-28.22,20.86-26.04,42.94c.63,6.4,2.36,12.32,4.89,17.49l53.71-5.3h-.01Z" fill="none" stroke="#000" stroke-linecap="round" stroke-linejoin="round"/><path id="uuid-485862cb-4e69-4276-a550-caca5d18591a" d="M80.74,237c5.35,11.19,14.73,18.62,25.42,18.62s20.07-7.43,25.42-18.62h-50.84Z" fill="none" stroke="#000" stroke-linecap="round" stroke-linejoin="round"/><ellipse id="uuid-08327ffd-a262-4069-99c2-bfc6236aed4d" cx="125" cy="215.5" rx="3" ry="4.5" fill="none" stroke="#000" stroke-linecap="round" stroke-linejoin="round"/><ellipse id="uuid-7d90343f-5b33-49ef-803c-0861bc43272a" cx="109" cy="216.5" rx="3" ry="4.5" fill="none" stroke="#000" stroke-linecap="round" stroke-linejoin="round"/><rect id="uuid-92bc032c-c1a5-47e4-bfd4-d22a8b7dceb2" x="137.24" y="275.77" width="15.07" height="32.14" transform="translate(-27.93 15.61) rotate(-5.63)" fill="none" stroke="#000" stroke-linecap="round" stroke-linejoin="round" stroke-width="1"/><rect id="uuid-c2949990-d7c6-4bb5-8bf7-02278fe304b4" x="134.1" y="243.94" width="15.07" height="32.14" transform="translate(-24.82 15.15) rotate(-5.63)" fill="none" stroke="#000" stroke-linecap="round" stroke-linejoin="round" stroke-width="1"/><rect id="uuid-97a6ebbc-0f78-4589-be67-53d4c55b6740" x="53" y="252.48" width="32.14" height="15.07" transform="translate(-195.7 307.73) rotate(-85.34)" fill="none" stroke="#000" stroke-linecap="round" stroke-linejoin="round" stroke-width="1"/><rect id="uuid-def65fe5-1713-4cf7-8a8c-d7cd1aa05484" x="50.4" y="284.3" width="32.14" height="15.07" transform="translate(-229.8 334.38) rotate(-85.34)" fill="none" stroke="#000" stroke-linecap="round" stroke-linejoin="round" stroke-width="1"/><rect id="uuid-be217fe3-fa3b-4a96-a968-a89e416460dc" x="138.93" y="307.92" width="16.26" height="16.26" transform="translate(-30.3 15.95) rotate(-5.63)" fill="none" stroke="#000" stroke-linecap="round" stroke-linejoin="round" stroke-width="1"/><rect id="uuid-69956c32-7b76-40e8-8c4b-eba108897379" x="56.48" y="307.91" width="16.07" height="16.07" transform="translate(-255.63 354.58) rotate(-85.34)" fill="none" stroke="#000" stroke-linecap="round" stroke-linejoin="round" stroke-width="1"/><circle id="uuid-a9fc3eed-6ded-47f5-aa1c-597b8f4b1b20" cx="106" cy="291" r="2" fill="none" stroke="#000" stroke-linecap="round" stroke-linejoin="round"/><circle id="uuid-fbcbb946-46b5-4427-ad18-d1858975ba0c" cx="106" cy="283" r="2" fill="none" stroke="#000" stroke-linecap="round" stroke-linejoin="round"/><circle id="uuid-867a3a34-fb05-4d94-9918-ca8dc0eff5b5" cx="106" cy="275" r="2" fill="none" stroke="#000" stroke-linecap="round" stroke-linejoin="round"/><circle id="uuid-cafc7d8f-0d32-4687-9bd2-6c4c25f596bf" cx="106" cy="266" r="2" fill="none" stroke="#000" stroke-linecap="round" stroke-linejoin="round"/><path d="M136.1,186.35c-3.18-13.78-18.57-23.24-35.97-21.53s-30.64,14-31.07,28.14c-5.73,1.41-9.11,2.8-9,3.95.27,2.69,19.65,2.98,43.3.65,23.65-2.33,42.6-6.4,42.33-9.09-.11-1.14-3.7-1.85-9.6-2.11h.01Z" fill="none" stroke="#000" stroke-linecap="round" stroke-linejoin="round"/></g><path d="M114.08,147.61c1.7-1.27,8.33-6.89,8.32-24.74,0-7.93-1.32-15.53-2.41-20.59" fill="none" stroke="#333" stroke-miterlimit="10" stroke-width="2"/><g isolation="isolate"><text transform="translate(46.72 82.62)" fill="#333" font-family="ComicNeue-Bold, &apos;Comic Neue&apos;" font-size="24" font-weight="700" isolation="isolate"><tspan x="0" y="0">I got a gun.</tspan></text></g><polygon points="414.4 318.77 422.71 323 385.35 323 406.1 317.72 414.4 318.77" fill="#633d35"/><path d="M242,287h39.31c0-.3,3.67-.43,4.6-1.18.61-.49-.69-1.57-4.47-2.88-.5-.18-.57-.41-.17-.6,1.11-.5,3.28-1.58,9.86-2.26,7.26-.75,13.38-.61,15.97-.49.87.04,1.67.15,2.3.29,5.56,1.22,52.78,8.13,52.78,8.13,0,0,27.2-.1,42.95-.1,14.36,0,26.35,6.35,29.13,14.8l-4.95,4.71,3.72,5.44c-1.02,1.73-2.43,3.34-4.17,4.79l-38.95,3.63,33.21,1.02s-10.66,2.72-17.99,2.72c-15.88,0-163.14,1.02-163.14,1.02v-39.04Z" fill="#ad7156"/><path d="M253.52,285.82c-.03.09-.07.16-.12.23.06-.09.1-.18.12-.23Z" fill="url(#uuid-55c3b621-7eaa-42ae-bf99-3245f5edec31)"/><path d="M270.45,313.6c10.3.17,20.51.46,30.71.77l15.25.47c5.08.15,10.1.34,14.97.3,5,0,10.12-.07,15.21-.14l15.34-.19c10.25-.12,20.5-.23,30.82-.21-10.08.6-20.26,1.03-30.47,1.38-10.23.34-20.42.61-30.89.66-5.39.01-10.58-.2-15.68-.39-5.1-.22-10.17-.44-15.21-.72-10.1-.54-20.13-1.15-30.06-1.93h0Z" fill="#ce8963"/><path d="M322.34,320.1c1.3-.14,2.71-.15,4.06-.19,1.37-.03,2.74-.05,4.11-.06,2.74-.02,5.49-.03,8.23-.02,5.49.01,10.95.07,16.42.15s10.92.18,16.36.3c5.45.11,10.9.26,16.35.41l-.67.02,9.66-.71,9.69-.68c6.49-.44,12.97-.85,19.55-1.21-6.23.66-12.55,1.27-18.87,1.85l-9.51.85-9.51.81-.3.03h-.35c-5.43-.14-10.88-.24-16.33-.38-5.43-.13-10.88-.27-16.31-.41l-16.29-.45-8.15-.22c-1.35-.04-2.72-.07-4.08-.09-1.35-.01-2.72-.06-4.08.02l.02-.02Z" fill="#ce8963"/><path d="M382.57,308h46.33l3.71-4.02s-27.8,2.51-50.04,4.02Z" fill="#ce8963"/><path d="M351.06,292.52c-24-2.85-49.91-12.9-49.91-12.9l-.8-.3c3.26-.06,5.63-.01,6.93.07.57.04,1.52.15,1.87.23,4.37.96,34.14,7.37,53,7.37,0,0,26.78-.1,42.53-.1,7.06,0,16.77,2.11,22.33,6.63l-53.74-2.01,16.68,4.52s-22.02-1.51-38.9-3.52h.01Z" fill="#965b44"/><path d="M279.95,286.72c7.64-.13,5.9-1.55,5.9-1.55,2.87,1.63,4.47,3.99,1.06,5.35-3.77,1.51-23.37,2.22-23.37,2.22l-11.32-1-10.43-4.74,38.16-.28h0Z" fill="#965b44"/><path d="M233.61,307.8c.23,10.07,3.75,18.07,8.05,18.07s8.06-8.56,8.06-19.13-3.61-19.13-8.06-19.13-7.79,7.93-8.05,17.93" fill="#ffcc80"/><path d="M233.61,307.8c.29,3.6.85,7.19,2.09,10.54.61,1.67,1.36,3.29,2.41,4.66.53.67,1.12,1.29,1.8,1.69.67.42,1.43.59,2.15.47s1.4-.53,1.98-1.08c.58-.56,1.1-1.23,1.53-1.96.87-1.47,1.49-3.12,1.95-4.81.93-3.39,1.33-6.95,1.32-10.49,0-3.54-.37-7.1-1.29-10.5-.46-1.69-1.07-3.35-1.92-4.83-.43-.74-.92-1.43-1.51-1.99-.57-.57-1.25-1-1.96-1.15-.72-.17-1.47,0-2.15.39s-1.29.99-1.82,1.65c-1.07,1.34-1.83,2.97-2.45,4.63-1.25,3.34-1.83,6.93-2.13,10.53-.02-.9,0-1.81.02-2.72.05-.9.12-1.81.23-2.71.22-1.8.55-3.61,1.07-5.37.54-1.75,1.24-3.49,2.34-5.05.55-.78,1.23-1.5,2.09-2.04s1.97-.84,3.04-.65c1.07.17,1.99.75,2.72,1.42.74.67,1.32,1.46,1.82,2.27.99,1.63,1.67,3.39,2.2,5.16,1.02,3.58,1.43,7.27,1.44,10.95-.03,3.68-.44,7.37-1.48,10.94-.54,1.78-1.23,3.53-2.23,5.15-.51.81-1.1,1.58-1.85,2.25-.74.65-1.69,1.21-2.77,1.35-.53.07-1.08.03-1.6-.11-.52-.13-.98-.37-1.41-.65-.85-.56-1.5-1.3-2.05-2.08-1.07-1.57-1.77-3.3-2.3-5.06-.51-1.76-.83-3.57-1.05-5.37-.1-.9-.18-1.81-.22-2.72-.04-.91-.04-1.82-.02-2.72h.01Z" fill="#ce8963"/><g opacity=".66"><path d="M240.82,321.56c.7,0,1.33-.41,1.81-.9.48-.51.86-1.11,1.18-1.74.62-1.26,1.02-2.62,1.34-3.99.58-2.75.78-5.57.75-8.38s-.32-5.61-.98-8.32c-.34-1.35-.78-2.68-1.41-3.89-.31-.6-.69-1.17-1.14-1.64-.45-.45-.99-.79-1.55-.77-.55,0-1.07.35-1.51.81-.43.47-.79,1.04-1.09,1.65-.6,1.22-1,2.55-1.31,3.89-.31,1.35-.52,2.73-.66,4.11-.15,1.38-.22,2.78-.23,4.17-.02,2.79.12,5.59.65,8.34.28,1.37.64,2.73,1.24,3.99.3.63.66,1.23,1.13,1.75.47.5,1.08.92,1.78.93h0ZM240.82,321.67c-.74.01-1.4-.42-1.9-.92-.5-.52-.91-1.11-1.25-1.74-.69-1.26-1.18-2.61-1.56-3.98-.76-2.75-1.14-5.61-1.17-8.47,0-1.43.06-2.86.2-4.29.15-1.43.39-2.84.73-4.24.36-1.4.81-2.78,1.49-4.09.34-.65.75-1.28,1.29-1.84.28-.27.59-.53.95-.72.36-.2.79-.32,1.23-.32s.86.14,1.22.34c.36.2.66.46.93.73.52.56.92,1.2,1.24,1.85.65,1.31,1.07,2.69,1.39,4.09.63,2.79.86,5.65.84,8.49-.05,2.84-.36,5.69-1.07,8.43-.36,1.37-.81,2.73-1.46,3.99-.32.63-.72,1.23-1.21,1.75-.49.51-1.14.94-1.88.95h0Z" fill="#7f441c"/></g><path d="M240.25,318.18c1.86,0,3.38-4.85,3.38-10.83s-1.51-10.83-3.38-10.83-3.38,4.85-3.38,10.83,1.51,10.83,3.38,10.83ZM240.25,316.33c-1.4,0-2.53-3.83-2.53-8.55s1.14-8.55,2.53-8.55,2.53,3.83,2.53,8.55-1.14,8.55-2.53,8.55Z" fill="#b5772c" isolation="isolate" opacity=".82"/><ellipse cx="240" cy="306.5" rx="1" ry="4.5" fill="url(#uuid-ba19e8b6-0395-4834-b1c2-efc9f1e67340)" isolation="isolate" opacity=".74"/><polygon points="414.4 318.77 422.71 323 385.35 323 406.1 317.72 414.4 318.77" fill="none" stroke="#000" stroke-linecap="round" stroke-linejoin="round"/><path d="M242,287h39.31c0-.3,3.67-.43,4.6-1.18.61-.49-.69-1.57-4.47-2.88-.5-.18-.57-.41-.17-.6,1.11-.5,3.28-1.58,9.86-2.26,7.26-.75,13.38-.61,15.97-.49.87.04,1.67.15,2.3.29,5.56,1.22,52.78,8.13,52.78,8.13,0,0,27.2-.1,42.95-.1,14.36,0,26.35,6.35,29.13,14.8l-4.95,4.71,3.72,5.44c-1.02,1.73-2.43,3.34-4.17,4.79l-38.95,3.63,33.21,1.02s-10.66,2.72-17.99,2.72c-15.88,0-163.14,1.02-163.14,1.02v-39.04Z" fill="none" stroke="#000" stroke-linecap="round" stroke-linejoin="round"/><path d="M253.52,285.82c-.03.09-.07.16-.12.23.06-.09.1-.18.12-.23Z" fill="none" stroke="#000" stroke-linecap="round" stroke-linejoin="round"/><path d="M270.45,313.6c10.3.17,20.51.46,30.71.77l15.25.47c5.08.15,10.1.34,14.97.3,5,0,10.12-.07,15.21-.14l15.34-.19c10.25-.12,20.5-.23,30.82-.21-10.08.6-20.26,1.03-30.47,1.38-10.23.34-20.42.61-30.89.66-5.39.01-10.58-.2-15.68-.39-5.1-.22-10.17-.44-15.21-.72-10.1-.54-20.13-1.15-30.06-1.93h0Z" fill="none" stroke="#000" stroke-linecap="round" stroke-linejoin="round"/><path d="M322.34,320.1c1.3-.14,2.71-.15,4.06-.19,1.37-.03,2.74-.05,4.11-.06,2.74-.02,5.49-.03,8.23-.02,5.49.01,10.95.07,16.42.15s10.92.18,16.36.3c5.45.11,10.9.26,16.35.41l-.67.02,9.66-.71,9.69-.68c6.49-.44,12.97-.85,19.55-1.21-6.23.66-12.55,1.27-18.87,1.85l-9.51.85-9.51.81-.3.03h-.35c-5.43-.14-10.88-.24-16.33-.38-5.43-.13-10.88-.27-16.31-.41l-16.29-.45-8.15-.22c-1.35-.04-2.72-.07-4.08-.09-1.35-.01-2.72-.06-4.08.02l.02-.02Z" fill="none" stroke="#000" stroke-linecap="round" stroke-linejoin="round"/><path d="M382.57,308h46.33l3.71-4.02s-27.8,2.51-50.04,4.02Z" fill="none" stroke="#000" stroke-linecap="round" stroke-linejoin="round"/><path d="M351.06,292.52c-24-2.85-49.91-12.9-49.91-12.9l-.8-.3c3.26-.06,5.63-.01,6.93.07.57.04,1.52.15,1.87.23,4.37.96,34.14,7.37,53,7.37,0,0,26.78-.1,42.53-.1,7.06,0,16.77,2.11,22.33,6.63l-53.74-2.01,16.68,4.52s-22.02-1.51-38.9-3.52h.01Z" fill="none" stroke="#000" stroke-linecap="round" stroke-linejoin="round"/><path d="M279.95,286.72c7.64-.13,5.9-1.55,5.9-1.55,2.87,1.63,4.47,3.99,1.06,5.35-3.77,1.51-23.37,2.22-23.37,2.22l-11.32-1-10.43-4.74,38.16-.28h0Z" fill="none" stroke="#000" stroke-linecap="round" stroke-linejoin="round"/><path d="M233.61,307.8c.23,10.07,3.75,18.07,8.05,18.07s8.06-8.56,8.06-19.13-3.61-19.13-8.06-19.13-7.79,7.93-8.05,17.93" fill="none" stroke="#000" stroke-linecap="round" stroke-linejoin="round"/><path d="M233.61,307.8c.29,3.6.85,7.19,2.09,10.54.61,1.67,1.36,3.29,2.41,4.66.53.67,1.12,1.29,1.8,1.69.67.42,1.43.59,2.15.47s1.4-.53,1.98-1.08c.58-.56,1.1-1.23,1.53-1.96.87-1.47,1.49-3.12,1.95-4.81.93-3.39,1.33-6.95,1.32-10.49,0-3.54-.37-7.1-1.29-10.5-.46-1.69-1.07-3.35-1.92-4.83-.43-.74-.92-1.43-1.51-1.99-.57-.57-1.25-1-1.96-1.15-.72-.17-1.47,0-2.15.39s-1.29.99-1.82,1.65c-1.07,1.34-1.83,2.97-2.45,4.63-1.25,3.34-1.83,6.93-2.13,10.53-.02-.9,0-1.81.02-2.72.05-.9.12-1.81.23-2.71.22-1.8.55-3.61,1.07-5.37.54-1.75,1.24-3.49,2.34-5.05.55-.78,1.23-1.5,2.09-2.04s1.97-.84,3.04-.65c1.07.17,1.99.75,2.72,1.42.74.67,1.32,1.46,1.82,2.27.99,1.63,1.67,3.39,2.2,5.16,1.02,3.58,1.43,7.27,1.44,10.95-.03,3.68-.44,7.37-1.48,10.94-.54,1.78-1.23,3.53-2.23,5.15-.51.81-1.1,1.58-1.85,2.25-.74.65-1.69,1.21-2.77,1.35-.53.07-1.08.03-1.6-.11-.52-.13-.98-.37-1.41-.65-.85-.56-1.5-1.3-2.05-2.08-1.07-1.57-1.77-3.3-2.3-5.06-.51-1.76-.83-3.57-1.05-5.37-.1-.9-.18-1.81-.22-2.72-.04-.91-.04-1.82-.02-2.72h.01Z" fill="none" stroke="#000" stroke-linecap="round" stroke-linejoin="round"/><path d="M240.33,326.17c3.53,0,6.39-7.2,6.39-16.08s-2.86-16.08-6.39-16.08-7.6,3.14-6.4,16.08c.83,8.84,2.86,16.08,6.4,16.08Z" fill="none" stroke="#000" stroke-linecap="round" stroke-linejoin="round"/><path d="M240.82,321.56c.7,0,1.33-.41,1.81-.9.48-.51.86-1.11,1.18-1.74.62-1.26,1.02-2.62,1.34-3.99.58-2.75.78-5.57.75-8.38s-.32-5.61-.98-8.32c-.34-1.35-.78-2.68-1.41-3.89-.31-.6-.69-1.17-1.14-1.64-.45-.45-.99-.79-1.55-.77-.55,0-1.07.35-1.51.81-.43.47-.79,1.04-1.09,1.65-.6,1.22-1,2.55-1.31,3.89-.31,1.35-.52,2.73-.66,4.11-.15,1.38-.22,2.78-.23,4.17-.02,2.79.12,5.59.65,8.34.28,1.37.64,2.73,1.24,3.99.3.63.66,1.23,1.13,1.75.47.5,1.08.92,1.78.93h0ZM240.82,321.67c-.74.01-1.4-.42-1.9-.92-.5-.52-.91-1.11-1.25-1.74-.69-1.26-1.18-2.61-1.56-3.98-.76-2.75-1.14-5.61-1.17-8.47,0-1.43.06-2.86.2-4.29.15-1.43.39-2.84.73-4.24.36-1.4.81-2.78,1.49-4.09.34-.65.75-1.28,1.29-1.84.28-.27.59-.53.95-.72.36-.2.79-.32,1.23-.32s.86.14,1.22.34c.36.2.66.46.93.73.52.56.92,1.2,1.24,1.85.65,1.31,1.07,2.69,1.39,4.09.63,2.79.86,5.65.84,8.49-.05,2.84-.36,5.69-1.07,8.43-.36,1.37-.81,2.73-1.46,3.99-.32.63-.72,1.23-1.21,1.75-.49.51-1.14.94-1.88.95h0Z" fill="none" stroke="#000" stroke-linecap="round" stroke-linejoin="round"/><path d="M240.25,318.18c1.86,0,3.38-4.85,3.38-10.83s-1.51-10.83-3.38-10.83-3.38,4.85-3.38,10.83,1.51,10.83,3.38,10.83ZM240.25,316.33c-1.4,0-2.53-3.83-2.53-8.55s1.14-8.55,2.53-8.55,2.53,3.83,2.53,8.55-1.14,8.55-2.53,8.55Z" fill="none" stroke="#000" stroke-linecap="round" stroke-linejoin="round"/><ellipse cx="240" cy="306.5" rx="1" ry="4.5" fill="none" stroke="#000" stroke-linecap="round" stroke-linejoin="round"/><g id="uuid-f41a9fdf-c29b-4a00-bc0c-8a0b38b1b416"><polygon id="uuid-d67dcfc3-40c0-4058-99c4-a1b635104000" points="415.3 319.86 401.89 324.56 410.07 347.87 411.72 352.56 431.83 345.5 430.19 340.81 423.48 343.16 415.3 319.86" fill="#5f5f5f"/><rect id="uuid-ecb425f9-6600-4830-87bb-b59e9472be1b" x="390.35" y="293.1" width="17.69" height="34.92" transform="translate(-106.57 308.43) rotate(-37.64)" fill="#727272"/><polygon id="uuid-fddbec4b-debc-4a64-93a1-adbe1ec0f54b" points="371.33 330.9 384.85 326.54 392.42 350.05 399.18 347.88 400.71 352.61 380.42 359.14 378.89 354.41 378.89 354.41 371.33 330.9" fill="#5f5f5f"/><rect id="uuid-d7233a8c-eb81-4438-ae71-9ec455bcd44b" x="362.36" y="297.1" width="17.69" height="34.92" transform="translate(-97.91 185.45) rotate(-24.89)" fill="#727272"/><path id="uuid-be43f802-8ea9-4353-821a-12165ce89ebd" d="M356,232v71h40v-71h-40Z" fill="#727272"/><rect id="uuid-3205424a-baf8-4b8c-bc76-63a18a0335c0" x="356" y="273" width="40" height="12" fill="#acacac"/><rect id="uuid-6125fcf5-84c0-4801-9bf9-394a16cdd3dc" x="384" y="232" width="5" height="42" fill="#acacac"/><rect id="uuid-9cc1437e-3166-4c07-9d71-3fe5a3f2b7e0" x="363" y="232" width="5" height="42" fill="#acacac"/><path id="uuid-d3c475d8-97ba-4baf-8bb1-04b733a29377" d="M394.93,224c1.42-3.81,2.23-8.1,2.23-12.65,0-15.7-9.54-28.42-21.32-28.42s-21.32,12.72-21.32,28.42c0,4.55.8,8.84,2.23,12.65h38.18Z" fill="#ccc"/><path id="uuid-c284634a-47ec-45ea-b334-68f1595e40e2" d="M357.86,227c3.78,7.91,10.42,13.17,17.98,13.17s14.2-5.25,17.98-13.17h-35.96Z" fill="#ccc"/><ellipse id="uuid-2892107b-c7d1-40a6-84fa-7b44b9e6e626" cx="387" cy="211" rx="2" ry="3" fill="#333"/><ellipse id="uuid-c3742b94-638c-4014-8b79-d32a94101bed" cx="374" cy="211" rx="2" ry="3" fill="#333"/><rect id="uuid-2264732b-78d9-4d8c-84dc-e191427f5dd3" x="396.94" y="254.66" width="10.66" height="22.74" transform="translate(-10 15.78) rotate(-2.22)" fill="#727272"/><rect id="uuid-f78992d7-3efe-44af-9e3b-397a2ff5bd4b" x="396.06" y="231.94" width="10.66" height="22.74" transform="translate(-9.12 15.73) rotate(-2.22)" fill="#727272"/><rect id="uuid-a0e80e14-e5b3-45ab-a3d4-2263283b56a7" x="338.12" y="237.42" width="22.74" height="10.66" transform="translate(62.82 557.21) rotate(-82.43)" fill="#727272"/><rect id="uuid-70866e1d-9b5c-417a-ab32-5cc55a283b29" x="335.13" y="259.94" width="22.74" height="10.66" transform="translate(37.89 573.8) rotate(-82.43)" fill="#727272"/><rect id="uuid-dc1defd8-8fb1-4112-b990-827cceee27b0" x="397.26" y="277.62" width="11.37" height="11.37" transform="translate(-10.67 15.82) rotate(-2.22)" fill="#ccc"/><rect id="uuid-042d1e5e-c4fe-4b2a-a639-e39703c43061" x="338.56" y="276.5" width="11.37" height="11.37" transform="translate(19.17 586.26) rotate(-82.43)" fill="#ccc"/><circle id="uuid-9759c2bf-d72c-46ca-a495-9debe5de5fb6" cx="375.5" cy="265.5" r="1.5" fill="#333"/><circle id="uuid-3abb5ede-13db-4a11-b5e1-0fc6e1ce6ca7" cx="375.5" cy="259.5" r="1.5" fill="#333"/><circle id="uuid-232db33c-6516-4384-95c5-9a2b29abfe10" cx="375.5" cy="253.5" r="1.5" fill="#333"/><circle id="uuid-1be5e21a-4de4-4e47-a6f7-acb85903fdb6" cx="375.5" cy="247.5" r="1.5" fill="#333"/><path d="M399.67,195.1c-1.28-9.92-11.46-17.65-23.82-17.65s-22.54,7.73-23.82,17.65c-4.13.59-6.61,1.34-6.61,2.15,0,1.91,13.63,3.46,30.43,3.46s30.43-1.55,30.43-3.46c0-.81-2.48-1.56-6.61-2.15Z" fill="#6a6a6a"/><polygon id="uuid-a3f5f587-c0be-4bd2-9dac-676cf9e7f10d" points="415.3 319.86 401.89 324.56 410.07 347.87 411.72 352.56 431.83 345.5 430.19 340.81 423.48 343.16 415.3 319.86" fill="none" stroke="#000" stroke-linecap="round" stroke-linejoin="round"/><rect id="uuid-cf78c467-c699-42af-961b-4c53d88b4c87" x="390.35" y="293.1" width="17.69" height="34.92" transform="translate(-106.57 308.43) rotate(-37.64)" fill="none" stroke="#000" stroke-linecap="round" stroke-linejoin="round" stroke-width="1"/><polygon id="uuid-0a6602dc-6885-4d50-8d97-ec9e174a4a7e" points="371.33 330.9 384.85 326.54 392.42 350.05 399.18 347.88 400.71 352.61 380.42 359.14 378.89 354.41 378.89 354.41 371.33 330.9" fill="none" stroke="#000" stroke-linecap="round" stroke-linejoin="round"/><rect id="uuid-3c1cddda-b2af-4bc5-b24b-ed3c253cfa72" x="362.36" y="297.1" width="17.69" height="34.92" transform="translate(-97.91 185.45) rotate(-24.89)" fill="none" stroke="#000" stroke-linecap="round" stroke-linejoin="round" stroke-width="1"/><path id="uuid-bb400bac-6fd8-4a1c-b559-f748380f7828" d="M356,232v71h40v-71h-40Z" fill="none" stroke="#000" stroke-linecap="round" stroke-linejoin="round"/><rect id="uuid-bb1d0398-317d-45ad-8375-69ce1f6ce3e0" x="356" y="273" width="40" height="12" fill="none" stroke="#000" stroke-linecap="round" stroke-linejoin="round"/><rect id="uuid-0390ba8d-cb05-404c-b944-da72f5db5ac1" x="384" y="232" width="5" height="42" fill="none" stroke="#000" stroke-linecap="round" stroke-linejoin="round"/><rect id="uuid-2fa3945b-ebd4-4d59-9d3b-ae5f4fc13dfb" x="363" y="232" width="5" height="42" fill="none" stroke="#000" stroke-linecap="round" stroke-linejoin="round"/><path id="uuid-daac16da-fd41-4f40-a046-9f302af94a13" d="M394.93,224c1.42-3.81,2.23-8.1,2.23-12.65,0-15.7-9.54-28.42-21.32-28.42s-21.32,12.72-21.32,28.42c0,4.55.8,8.84,2.23,12.65h38.18Z" fill="none" stroke="#000" stroke-linecap="round" stroke-linejoin="round"/><path id="uuid-650c9d0d-4ed9-4698-b471-0a7d54bfcecd" d="M357.86,227c3.78,7.91,10.42,13.17,17.98,13.17s14.2-5.25,17.98-13.17h-35.96Z" fill="none" stroke="#000" stroke-linecap="round" stroke-linejoin="round"/><ellipse id="uuid-33011ff8-b059-4888-a689-fa31a752ae9f" cx="387" cy="211" rx="2" ry="3" fill="none" stroke="#000" stroke-linecap="round" stroke-linejoin="round"/><ellipse id="uuid-6100608e-05a1-4507-82fd-01e721063d1a" cx="374" cy="211" rx="2" ry="3" fill="none" stroke="#000" stroke-linecap="round" stroke-linejoin="round"/><rect id="uuid-8bae874e-d5f3-4f62-bb06-acece5214e73" x="396.94" y="254.66" width="10.66" height="22.74" transform="translate(-10 15.78) rotate(-2.22)" fill="none" stroke="#000" stroke-linecap="round" stroke-linejoin="round" stroke-width="1"/><rect id="uuid-eb7b2fbc-d4b7-4d4e-bd9c-1b1971f96482" x="396.06" y="231.94" width="10.66" height="22.74" transform="translate(-9.12 15.73) rotate(-2.22)" fill="none" stroke="#000" stroke-linecap="round" stroke-linejoin="round" stroke-width="1"/><rect id="uuid-bf2e2cf1-f5a4-4b55-8436-249f062bd3ea" x="338.12" y="237.42" width="22.74" height="10.66" transform="translate(62.82 557.21) rotate(-82.43)" fill="none" stroke="#000" stroke-linecap="round" stroke-linejoin="round" stroke-width="1"/><rect id="uuid-7aefa126-e66f-4e5c-9ffc-d6c7c14bb939" x="335.13" y="259.94" width="22.74" height="10.66" transform="translate(37.89 573.8) rotate(-82.43)" fill="none" stroke="#000" stroke-linecap="round" stroke-linejoin="round" stroke-width="1"/><rect id="uuid-66ee7c79-8bb1-4afe-867e-58ddfcc26276" x="397.26" y="277.62" width="11.37" height="11.37" transform="translate(-10.67 15.82) rotate(-2.22)" fill="none" stroke="#000" stroke-linecap="round" stroke-linejoin="round" stroke-width="1"/><rect id="uuid-dab91ec5-bc90-49cc-809a-3258195a2e1e" x="338.56" y="276.5" width="11.37" height="11.37" transform="translate(19.17 586.26) rotate(-82.43)" fill="none" stroke="#000" stroke-linecap="round" stroke-linejoin="round" stroke-width="1"/><circle id="uuid-311f8602-2b32-48fd-a87e-7c67aa9bd35d" cx="375.5" cy="265.5" r="1.5" fill="none" stroke="#000" stroke-linecap="round" stroke-linejoin="round"/><circle id="uuid-32d0a944-58fc-4876-9466-276f94b716de" cx="375.5" cy="259.5" r="1.5" fill="none" stroke="#000" stroke-linecap="round" stroke-linejoin="round"/><circle id="uuid-293f738c-e646-4df9-955b-419b1d0d53f8" cx="375.5" cy="253.5" r="1.5" fill="none" stroke="#000" stroke-linecap="round" stroke-linejoin="round"/><circle id="uuid-a73df275-d8b4-4583-97ea-d01af36ca696" cx="375.5" cy="247.5" r="1.5" fill="none" stroke="#000" stroke-linecap="round" stroke-linejoin="round"/><path d="M399.67,195.1c-1.28-9.92-11.46-17.65-23.82-17.65s-22.54,7.73-23.82,17.65c-4.13.59-6.61,1.34-6.61,2.15,0,1.91,13.63,3.46,30.43,3.46s30.43-1.55,30.43-3.46c0-.81-2.48-1.56-6.61-2.15Z" fill="none" stroke="#000" stroke-linecap="round" stroke-linejoin="round"/></g></svg>