<?xml version="1.0" encoding="UTF-8"?><svg id="uuid-90787feb-5d40-415b-b0b2-eff0e2d3f998" xmlns="http://www.w3.org/2000/svg" xmlns:xlink="http://www.w3.org/1999/xlink" viewBox="0 0 500 500"><defs><linearGradient id="uuid-e0a71fa4-8e5c-41e9-a5df-9f679e96f6da" x1="218.15" y1="3760.84" x2="228.31" y2="3760.84" gradientTransform="translate(0 4142) scale(1 -1)" gradientUnits="userSpaceOnUse"><stop offset="0" stop-color="#4c5c64"/><stop offset="1" stop-color="#8e8884" stop-opacity="0"/></linearGradient></defs><path d="M54.42,420.82c1.17,1.14,13.24,1.91,19.02,4.63,10.19,4.77,11.33,8.31,24.3,10.22,12.94,1.9,23.36-1.31,38.64-.23,15.74,1.12,22.43,5.84,38.84,6.28,18.82.52,18.92-5.86,40.11-6.62,21.19-.76,24.1,2.73,41.21.37,16.85-2.32,18.45-7.04,27.48-10.29s15.34-4.02,15.34-4.02c0,0-25.57-27.38-102.05-29.13-82.86-1.88-142.89,28.79-142.89,28.79Z" fill="#f6c973"/><path d="M99.75,416.66s17.72.49,36.7-1.54c18.99-2.03,36.5-5.21,38.57-3.28,1.87,1.74-16.08,8.42-16.08,8.42,0,0,8.36,2.94,26.91,1.98,18.55-.96,32.02-4.4,38.64-6.43,6.62-2.03,17.21-5.16,31.35-6.88,14.14-1.72,22.39-1.12,22.39-1.12,0,0-17.25-8.8-34.33-10.97-37.07-4.72-47.16-3.23-70.93.15-38.07,5.4-73.23,19.67-73.23,19.67Z" fill="#eda052"/><path d="M54.42,420.82c1.17,1.14,13.24,1.91,19.02,4.63,10.19,4.77,11.33,8.31,24.3,10.22,12.94,1.9,23.36-1.31,38.64-.23,15.74,1.12,22.43,5.84,38.84,6.28,18.82.52,18.92-5.86,40.11-6.62,21.19-.76,24.1,2.73,41.21.37,16.85-2.32,18.45-7.04,27.48-10.29s15.34-4.02,15.34-4.02c0,0-25.57-27.38-102.05-29.13-82.86-1.88-142.89,28.79-142.89,28.79Z" fill="none" stroke="#000" stroke-linecap="round" stroke-linejoin="round"/><path d="M99.75,416.66s17.72.49,36.7-1.54c18.99-2.03,36.5-5.21,38.57-3.28,1.87,1.74-16.08,8.42-16.08,8.42,0,0,8.36,2.94,26.91,1.98,18.55-.96,32.02-4.4,38.64-6.43,6.62-2.03,17.21-5.16,31.35-6.88,14.14-1.72,22.39-1.12,22.39-1.12,0,0-17.25-8.8-34.33-10.97-37.07-4.72-47.16-3.23-70.93.15-38.07,5.4-73.23,19.67-73.23,19.67Z" fill="none" stroke="#000" stroke-linecap="round" stroke-linejoin="round"/><g id="uuid-16633649-670b-4bc7-89ff-ed364181dc71"><polygon id="uuid-f2b4b778-4c48-4f72-9762-46c6d1dbaf3b" points="264 288 261 288 261 292.99 261 294 265 294 265 293 264 293 264 288" fill="#5f5f5f"/><rect id="uuid-a9d25066-e147-4dd1-88b3-e5eea1edc20b" x="261" y="281" width="4" height="7" fill="#727272"/><polygon id="uuid-da7c3f2f-4794-4532-ad96-13d6632466ae" points="260 288 257 288 257 293 256 293 256 294 260 294 260 292.99 260 292.99 260 288" fill="#5f5f5f"/><rect id="uuid-9437147e-7807-43b5-9753-b66382e18eb2" x="256" y="281" width="4" height="7" fill="#727272"/><path id="uuid-50b0c50b-c486-446d-a6f4-80b1ec2ff7ac" d="M256,267v14h8v-14h-8Z" fill="#727272"/><rect id="uuid-ef6b5f95-f728-4f60-a7f9-431f1eeaccbd" x="256" y="276" width="8" height="2" fill="#acacac"/><rect id="uuid-148f37bc-36e5-49b4-83cf-2be75c330b9c" x="262" y="267" width="1" height="8" fill="#acacac"/><rect id="uuid-89bbda24-f8ab-491e-b4d8-d182900486ee" x="258" y="267" width="1" height="8" fill="#acacac"/><path id="uuid-4c4e4751-5acb-466d-a21f-27df672dcc27" d="M264.17,266c.28-.76.45-1.62.45-2.53,0-3.14-1.91-5.69-4.27-5.69s-4.27,2.55-4.27,5.69c0,.91.16,1.77.45,2.53h7.64Z" fill="#ccc"/><path id="uuid-9e2e8493-61fe-486b-ae8a-c651d8ed2185" d="M256.75,266c.76,1.58,2.09,2.64,3.6,2.64s2.84-1.05,3.6-2.64h-7.2Z" fill="#ccc"/><circle id="uuid-875109d4-d9fd-4c9e-9038-56fca29438c5" cx="261.5" cy="262.5" r=".5" fill="#333"/><circle id="uuid-d0e18e18-dab3-445d-8ca8-ea6b1df93482" cx="259.5" cy="262.5" r=".5" fill="#333"/><rect id="uuid-70f41d6b-b0ef-427b-91c7-c6c471268b34" x="264.58" y="271.73" width="2.13" height="4.55" transform="translate(-10.41 10.49) rotate(-2.22)" fill="#727272"/><rect id="uuid-e8f6d2dc-b3a7-4958-818d-0dd4abe838a4" x="264.4" y="267.18" width="2.13" height="4.55" transform="translate(-10.23 10.48) rotate(-2.22)" fill="#727272"/><rect id="uuid-65b94f3f-d933-4238-94b4-e6bb0c49d434" x="252.91" y="268.36" width="4.55" height="2.13" transform="translate(-25.11 512.61) rotate(-87.5)" fill="#727272"/><rect id="uuid-b0e837c7-0b82-4faf-8581-49a9641e3652" x="252.71" y="272.9" width="4.55" height="2.13" transform="translate(-29.85 516.76) rotate(-87.5)" fill="#727272"/><rect id="uuid-05eb4f27-a395-4ec7-b820-c69d0de1cc14" x="264.64" y="276.33" width="2.28" height="2.28" transform="translate(-10.54 10.49) rotate(-2.22)" fill="#ccc"/><rect id="uuid-934f24ba-ccc6-4d80-9878-215abdc6378c" x="253.7" y="276.24" width="2.28" height="2.28" transform="translate(-33.4 519.87) rotate(-87.5)" fill="#ccc"/><circle id="uuid-3e6869aa-e8bd-4619-8b5d-7102fa98399d" cx="260.5" cy="273.5" r=".5" fill="#333"/><circle id="uuid-2bc399ef-9494-4fad-aace-299e44f3ad0a" cx="260.5" cy="272.5" r=".5" fill="#333"/><circle id="uuid-38f03d14-1594-4269-8f49-b4d20ef857a5" cx="260.5" cy="271.5" r=".5" fill="#333"/><circle id="uuid-7f72f8ab-41f6-41b3-9dd9-7d94b1b92199" cx="260.5" cy="270.5" r=".5" fill="#333"/><path d="M265.12,259.81c-.26-1.99-2.29-3.53-4.77-3.53s-4.51,1.55-4.77,3.53c-.83.12-1.32.27-1.32.43,0,.38,2.73.69,6.09.69s6.09-.31,6.09-.69c0-.16-.5-.31-1.32-.43Z" fill="#6a6a6a"/><polygon id="uuid-f783978c-9ffb-485c-8a36-e04ba11abcb2" points="264 288 261 288 261 292.99 261 294 265 294 265 293 264 293 264 288" fill="none" stroke="#000" stroke-linecap="round" stroke-linejoin="round"/><rect id="uuid-0f90d666-b20b-4e04-8217-a3f936037e3a" x="261" y="281" width="4" height="7" fill="none" stroke="#000" stroke-linecap="round" stroke-linejoin="round"/><polygon id="uuid-7a2748ac-a11e-4f59-b9df-8a47dde842a7" points="260 288 257 288 257 293 256 293 256 294 260 294 260 292.99 260 292.99 260 288" fill="none" stroke="#000" stroke-linecap="round" stroke-linejoin="round"/><rect id="uuid-696b908c-7f2c-43af-a90b-91471139c15d" x="256" y="281" width="4" height="7" fill="none" stroke="#000" stroke-linecap="round" stroke-linejoin="round"/><path id="uuid-0e1e59d5-f483-464b-9898-f5cc62cd834d" d="M256,267v14h8v-14h-8Z" fill="none" stroke="#000" stroke-linecap="round" stroke-linejoin="round"/><rect id="uuid-2c37da23-7ff1-484e-8f97-61f042290dc6" x="256" y="276" width="8" height="2" fill="none" stroke="#000" stroke-linecap="round" stroke-linejoin="round"/><rect id="uuid-9d1b594d-9e11-4501-9066-5c7f7a060110" x="262" y="267" width="1" height="8" fill="none" stroke="#000" stroke-linecap="round" stroke-linejoin="round"/><rect id="uuid-13ea81ba-bee5-4971-a851-d5d2486bad6a" x="258" y="267" width="1" height="8" fill="none" stroke="#000" stroke-linecap="round" stroke-linejoin="round"/><path id="uuid-691f2e10-4d2e-490c-b111-5e6133010242" d="M264.17,266c.28-.76.45-1.62.45-2.53,0-3.14-1.91-5.69-4.27-5.69s-4.27,2.55-4.27,5.69c0,.91.16,1.77.45,2.53h7.64Z" fill="none" stroke="#000" stroke-linecap="round" stroke-linejoin="round"/><path id="uuid-34d32c97-2639-47b9-b764-02e727979b16" d="M256.75,266c.76,1.58,2.09,2.64,3.6,2.64s2.84-1.05,3.6-2.64h-7.2Z" fill="none" stroke="#000" stroke-linecap="round" stroke-linejoin="round"/><circle id="uuid-62bc40f3-bcf0-4775-a44e-170120153cbe" cx="261.5" cy="262.5" r=".5" fill="none" stroke="#000" stroke-linecap="round" stroke-linejoin="round"/><circle id="uuid-4af18e2b-04a8-4d7d-b422-2606f97dd1be" cx="259.5" cy="262.5" r=".5" fill="none" stroke="#000" stroke-linecap="round" stroke-linejoin="round"/><rect id="uuid-8c6453db-c1f2-4289-b597-f5500640619a" x="264.58" y="271.73" width="2.13" height="4.55" transform="translate(-10.41 10.49) rotate(-2.22)" fill="none" stroke="#000" stroke-linecap="round" stroke-linejoin="round"/><rect id="uuid-d7ab9675-7428-4d47-8e33-dc192db53ac3" x="264.4" y="267.18" width="2.13" height="4.55" transform="translate(-10.23 10.48) rotate(-2.22)" fill="none" stroke="#000" stroke-linecap="round" stroke-linejoin="round"/><rect id="uuid-3f8feb6e-602e-4f6d-8f87-89874acb0e8b" x="252.91" y="268.36" width="4.55" height="2.13" transform="translate(-25.11 512.61) rotate(-87.5)" fill="none" stroke="#000" stroke-linecap="round" stroke-linejoin="round"/><rect id="uuid-5c813a39-ce91-4a0b-b411-7219ac9b5181" x="252.71" y="272.9" width="4.55" height="2.13" transform="translate(-29.85 516.76) rotate(-87.5)" fill="none" stroke="#000" stroke-linecap="round" stroke-linejoin="round"/><rect id="uuid-b90e741a-1801-4daa-acc0-dcbf7975e39b" x="264.64" y="276.33" width="2.28" height="2.28" transform="translate(-10.54 10.49) rotate(-2.22)" fill="none" stroke="#000" stroke-linecap="round" stroke-linejoin="round"/><rect id="uuid-55a1cf76-20d9-42c5-a8df-3e63af547329" x="253.7" y="276.24" width="2.28" height="2.28" transform="translate(-33.4 519.87) rotate(-87.5)" fill="none" stroke="#000" stroke-linecap="round" stroke-linejoin="round"/><circle id="uuid-7f6c245a-8452-4524-be61-7c4e9aaba57a" cx="260.5" cy="273.5" r=".5" fill="none" stroke="#000" stroke-linecap="round" stroke-linejoin="round"/><circle id="uuid-88032e2c-4894-4269-b2bb-272fef154de1" cx="260.5" cy="272.5" r=".5" fill="none" stroke="#000" stroke-linecap="round" stroke-linejoin="round"/><circle id="uuid-64cefe3a-7379-45c4-b746-b797f7d740a0" cx="260.5" cy="271.5" r=".5" fill="none" stroke="#000" stroke-linecap="round" stroke-linejoin="round"/><circle id="uuid-71887f26-2af3-4983-9efa-98fe336c5146" cx="260.5" cy="270.5" r=".5" fill="none" stroke="#000" stroke-linecap="round" stroke-linejoin="round"/><path d="M265.12,259.81c-.26-1.99-2.29-3.53-4.77-3.53s-4.51,1.55-4.77,3.53c-.83.12-1.32.27-1.32.43,0,.38,2.73.69,6.09.69s6.09-.31,6.09-.69c0-.16-.5-.31-1.32-.43Z" fill="none" stroke="#000" stroke-linecap="round" stroke-linejoin="round"/></g><g id="uuid-bf9d762f-750a-40f9-80e6-6c899f0f890a"><polygon id="uuid-8d4856ea-cb31-4c8a-af2e-3a3016160484" points="284 288 281 288 281 292.99 281 294 285 294 285 293 284 293 284 288" fill="#5f5f5f"/><rect id="uuid-f1994613-1ed5-4459-97a3-01e074ce70b2" x="281" y="281" width="4" height="7" fill="#727272"/><polygon id="uuid-428a4288-4c20-45d4-8bac-ca210e1dc830" points="279 288 276 288 276 293 275 293 275 294 279 294 279 292.99 279 292.99 279 288" fill="#5f5f5f"/><rect id="uuid-e8f4fa63-3829-4818-91f2-74bb692b16cc" x="276" y="281" width="4" height="7" fill="#727272"/><path id="uuid-01e8fdc9-104b-4f7c-81c3-748d6e04b787" d="M276,267v14h8v-14h-8Z" fill="#727272"/><rect id="uuid-7171a312-bea4-411a-8759-e168606a04cf" x="276" y="275" width="8" height="2" fill="#acacac"/><rect id="uuid-afb4a18e-1376-4c5a-bc21-d5e0e7e1bda2" x="282" y="267" width="1" height="8" fill="#acacac"/><rect id="uuid-a29d11eb-ada3-43f2-a114-de29b129c8ac" x="278" y="267" width="1" height="8" fill="#acacac"/><path id="uuid-3a412333-7ef3-4635-9cf8-6151060e1fb6" d="M284.17,265c.28-.76.45-1.62.45-2.53,0-3.14-1.91-5.69-4.27-5.69s-4.27,2.55-4.27,5.69c0,.91.16,1.77.45,2.53h7.64Z" fill="#ccc"/><path id="uuid-c3a6c694-47f7-4ade-9f23-8da12a8308c5" d="M276.75,266c.76,1.58,2.09,2.64,3.6,2.64s2.84-1.05,3.6-2.64h-7.2Z" fill="#ccc"/><circle id="uuid-c74bdba7-74e0-43d6-8ea9-4ded1f8ab8cd" cx="281.5" cy="262.5" r=".5" fill="#333"/><circle id="uuid-3bffa63c-7a44-45ea-9967-9f28e4cf6d43" cx="279.5" cy="262.5" r=".5" fill="#333"/><rect id="uuid-be7ff596-338c-4605-9e86-1e28773ee97f" x="284.57" y="271.5" width="2.13" height="4.55" transform="translate(-10.38 11.26) rotate(-2.22)" fill="#727272"/><rect id="uuid-a40b0302-f04e-46f7-926c-de7eb96799fd" x="284.4" y="266.95" width="2.13" height="4.55" transform="translate(-10.21 11.25) rotate(-2.22)" fill="#727272"/><rect id="uuid-a87f322a-0a84-4a8f-99f0-67c519ad7638" x="272.9" y="268.12" width="4.55" height="2.13" transform="translate(-5.76 532.36) rotate(-87.5)" fill="#727272"/><rect id="uuid-52b78cbd-68df-47af-a700-69ecb944d180" x="272.71" y="272.67" width="4.55" height="2.13" transform="translate(-10.49 536.51) rotate(-87.5)" fill="#727272"/><rect id="uuid-8bf337c8-d0d9-4513-8a75-bc7b624a21ec" x="284.64" y="276.09" width="2.28" height="2.28" transform="translate(-10.52 11.27) rotate(-2.22)" fill="#ccc"/><rect id="uuid-234f3b75-95eb-4ee0-9400-2f121cc64df7" x="273.7" y="276.01" width="2.28" height="2.28" transform="translate(-14.04 539.63) rotate(-87.5)" fill="#ccc"/><circle id="uuid-bd335645-1125-45c5-84fd-eaa91780b6ea" cx="280.5" cy="273.5" r=".5" fill="#333"/><circle id="uuid-2592303c-c512-45ec-be9b-f8746a16b92c" cx="280.5" cy="272.5" r=".5" fill="#333"/><circle id="uuid-2943bbbc-c989-40cb-8616-c21074399941" cx="280.5" cy="271.5" r=".5" fill="#333"/><circle id="uuid-0028c24f-a207-4a9a-8b79-58d4c4c3a192" cx="280.5" cy="269.5" r=".5" fill="#333"/><path d="M285.12,259.58c-.26-1.99-2.29-3.53-4.77-3.53s-4.51,1.55-4.77,3.53c-.83.12-1.32.27-1.32.43,0,.38,2.73.69,6.09.69s6.09-.31,6.09-.69c0-.16-.5-.31-1.32-.43Z" fill="#6a6a6a"/><polygon id="uuid-d69238eb-5c6c-404f-a3b5-2e39277b649e" points="284 288 281 288 281 292.99 281 294 285 294 285 293 284 293 284 288" fill="none" stroke="#000" stroke-linecap="round" stroke-linejoin="round"/><rect id="uuid-b03dce56-26ad-439f-a270-47c6d2c6d75e" x="281" y="281" width="4" height="7" fill="none" stroke="#000" stroke-linecap="round" stroke-linejoin="round"/><polygon id="uuid-ac5178fa-c76a-4023-9158-1b50cceef304" points="279 288 276 288 276 293 275 293 275 294 279 294 279 292.99 279 292.99 279 288" fill="none" stroke="#000" stroke-linecap="round" stroke-linejoin="round"/><rect id="uuid-c22acfab-450f-4706-a052-304068e25062" x="276" y="281" width="4" height="7" fill="none" stroke="#000" stroke-linecap="round" stroke-linejoin="round"/><path id="uuid-0df98f9c-60a8-4718-a7db-7334a965fe3e" d="M276,267v14h8v-14h-8Z" fill="none" stroke="#000" stroke-linecap="round" stroke-linejoin="round"/><rect id="uuid-619bce54-30c5-4bcc-a0f6-4c594edbd03e" x="276" y="275" width="8" height="2" fill="none" stroke="#000" stroke-linecap="round" stroke-linejoin="round"/><rect id="uuid-dc1a8dda-57f2-47f3-a528-783903a05abf" x="282" y="267" width="1" height="8" fill="none" stroke="#000" stroke-linecap="round" stroke-linejoin="round"/><rect id="uuid-ce00543b-376e-4745-aa1e-36f7d0182735" x="278" y="267" width="1" height="8" fill="none" stroke="#000" stroke-linecap="round" stroke-linejoin="round"/><path id="uuid-e9f0375b-1e26-4d69-8d9c-0a7f203c1965" d="M284.17,265c.28-.76.45-1.62.45-2.53,0-3.14-1.91-5.69-4.27-5.69s-4.27,2.55-4.27,5.69c0,.91.16,1.77.45,2.53h7.64Z" fill="none" stroke="#000" stroke-linecap="round" stroke-linejoin="round"/><path id="uuid-d8e582b2-7c95-498e-ad5c-aa193cb8ac07" d="M276.75,266c.76,1.58,2.09,2.64,3.6,2.64s2.84-1.05,3.6-2.64h-7.2Z" fill="none" stroke="#000" stroke-linecap="round" stroke-linejoin="round"/><circle id="uuid-ab9264d8-d51a-46ae-9f62-77a089406818" cx="281.5" cy="262.5" r=".5" fill="none" stroke="#000" stroke-linecap="round" stroke-linejoin="round"/><circle id="uuid-fd60b79b-8294-486b-afb4-3cbe7516ac5d" cx="279.5" cy="262.5" r=".5" fill="none" stroke="#000" stroke-linecap="round" stroke-linejoin="round"/><rect id="uuid-12e37a4f-f2ae-4177-b612-fce580bc68b2" x="284.57" y="271.5" width="2.13" height="4.55" transform="translate(-10.38 11.26) rotate(-2.22)" fill="none" stroke="#000" stroke-linecap="round" stroke-linejoin="round"/><rect id="uuid-6c5c63a9-ebf1-4ab6-a1da-7c128faa8092" x="284.4" y="266.95" width="2.13" height="4.55" transform="translate(-10.21 11.25) rotate(-2.22)" fill="none" stroke="#000" stroke-linecap="round" stroke-linejoin="round"/><rect id="uuid-39989ffa-a52a-45bc-b00b-6fcdccc40022" x="272.9" y="268.12" width="4.55" height="2.13" transform="translate(-5.76 532.36) rotate(-87.5)" fill="none" stroke="#000" stroke-linecap="round" stroke-linejoin="round"/><rect id="uuid-8bd704b0-bdd2-4ead-a549-1226796b5250" x="272.71" y="272.67" width="4.55" height="2.13" transform="translate(-10.49 536.51) rotate(-87.5)" fill="none" stroke="#000" stroke-linecap="round" stroke-linejoin="round"/><rect id="uuid-00ced944-45d5-406b-bea7-7ebd6678b52c" x="284.64" y="276.09" width="2.28" height="2.28" transform="translate(-10.52 11.27) rotate(-2.22)" fill="none" stroke="#000" stroke-linecap="round" stroke-linejoin="round"/><rect id="uuid-e679304a-a24d-4249-be7a-69557890bf17" x="273.7" y="276.01" width="2.28" height="2.28" transform="translate(-14.04 539.63) rotate(-87.5)" fill="none" stroke="#000" stroke-linecap="round" stroke-linejoin="round"/><circle id="uuid-a4f6b955-7784-4d8b-a530-a900642d0bd2" cx="280.5" cy="273.5" r=".5" fill="none" stroke="#000" stroke-linecap="round" stroke-linejoin="round"/><circle id="uuid-ebf0307e-537b-42e0-8bbf-9149ca9b0f78" cx="280.5" cy="272.5" r=".5" fill="none" stroke="#000" stroke-linecap="round" stroke-linejoin="round"/><circle id="uuid-1a2ac922-4ab0-40c2-80e3-64ed2dbf9793" cx="280.5" cy="271.5" r=".5" fill="none" stroke="#000" stroke-linecap="round" stroke-linejoin="round"/><circle id="uuid-f7823e1e-630d-4fca-84cb-8666b9bd1213" cx="280.5" cy="269.5" r=".5" fill="none" stroke="#000" stroke-linecap="round" stroke-linejoin="round"/><path d="M285.12,259.58c-.26-1.99-2.29-3.53-4.77-3.53s-4.51,1.55-4.77,3.53c-.83.12-1.32.27-1.32.43,0,.38,2.73.69,6.09.69s6.09-.31,6.09-.69c0-.16-.5-.31-1.32-.43Z" fill="none" stroke="#000" stroke-linecap="round" stroke-linejoin="round"/></g><g id="uuid-6633e2aa-155a-4b7f-96c5-492798d535c4"><polygon id="uuid-d84ac04b-c004-4d81-b961-2886ca674e52" points="303 287 301 287 301 291.99 301 293 305 293 305 292 303 292 303 287" fill="#5f5f5f"/><rect id="uuid-b3e0cf7c-1fb6-40af-a071-f6929a22ddfa" x="300" y="280" width="4" height="7" fill="#727272"/><polygon id="uuid-2f67a034-91ce-4a18-81c2-305be9eb358b" points="299 287 296 287 296 292 295 292 295 293 299 293 299 291.99 299 291.99 299 287" fill="#5f5f5f"/><rect id="uuid-65d4bd64-ef6c-4ec9-981c-662cd6134334" x="295" y="280" width="4" height="7" fill="#727272"/><path id="uuid-06639974-545b-454f-a5fc-7b89d90a43da" d="M296,266v14h8v-14h-8Z" fill="#727272"/><rect id="uuid-f05b3525-0cd2-4084-9f74-1191ff25328e" x="296" y="274" width="8" height="2" fill="#acacac"/><rect id="uuid-cf0a7159-d47f-4824-a226-505a38be72a0" x="301" y="266" width="1" height="8" fill="#acacac"/><rect id="uuid-755cdfc4-1930-42f6-993a-2e4abe517567" x="297" y="266" width="1" height="8" fill="#acacac"/><path id="uuid-6cf791e8-7dda-4c8d-84c3-eaef5d2f137a" d="M303.49,264c.28-.76.45-1.62.45-2.53,0-3.14-1.91-5.69-4.27-5.69s-4.27,2.55-4.27,5.69c0,.91.16,1.77.45,2.53h7.64Z" fill="#ccc"/><path id="uuid-5d337a64-601e-49bb-990c-ab234f8c7dbb" d="M296.07,264c.76,1.58,2.09,2.64,3.6,2.64s2.84-1.05,3.6-2.64h-7.2Z" fill="#ccc"/><circle id="uuid-07a37341-7dda-45ec-a096-9f5442b4d40b" cx="300.5" cy="261.5" r=".5" fill="#333"/><circle id="uuid-b645361a-5c25-4067-9f5a-58cea1f6ec9b" cx="298.5" cy="261.5" r=".5" fill="#333"/><rect id="uuid-9f53d430-ba2c-4b22-bf8e-48fdc92a222a" x="303.89" y="270.08" width="2.13" height="4.55" transform="translate(-10.31 12.01) rotate(-2.22)" fill="#727272"/><rect id="uuid-954e2ab8-2540-4067-8048-b30115ce7b6a" x="303.72" y="265.53" width="2.13" height="4.55" transform="translate(-10.14 12) rotate(-2.22)" fill="#727272"/><rect id="uuid-b23507f3-6bf7-47b3-8f28-d80541ba4101" x="292.22" y="266.7" width="4.55" height="2.13" transform="translate(14.14 550.3) rotate(-87.5)" fill="#727272"/><rect id="uuid-05944da8-57e4-4c30-8b5c-398c8fede591" x="292.03" y="271.25" width="4.55" height="2.13" transform="translate(9.41 554.45) rotate(-87.5)" fill="#727272"/><rect id="uuid-ac7d3f4b-2802-44fa-87ca-6025ee08876a" x="303.95" y="274.67" width="2.28" height="2.28" transform="translate(-10.45 12.01) rotate(-2.22)" fill="#ccc"/><rect id="uuid-335ca7bb-4041-44d9-8f2c-84616d653840" x="293.02" y="274.58" width="2.28" height="2.28" transform="translate(5.86 557.57) rotate(-87.5)" fill="#ccc"/><circle id="uuid-eac8bbaf-4fca-49ce-9656-7f834af9a4d0" cx="299.5" cy="272.5" r=".5" fill="#333"/><circle id="uuid-7b96bd92-cead-46bc-bddd-56b5deda3fb1" cx="299.5" cy="270.5" r=".5" fill="#333"/><circle id="uuid-117c8dd8-80be-47bd-9f51-c54e64d9be3d" cx="299.5" cy="269.5" r=".5" fill="#333"/><circle id="uuid-b09c91c1-573f-414e-bc52-a92a3b730682" cx="299.5" cy="268.5" r=".5" fill="#333"/><path d="M304.44,258.15c-.26-1.99-2.29-3.53-4.77-3.53s-4.51,1.55-4.77,3.53c-.83.12-1.32.27-1.32.43,0,.38,2.73.69,6.09.69s6.09-.31,6.09-.69c0-.16-.5-.31-1.32-.43Z" fill="#6a6a6a"/><polygon id="uuid-28011ce2-a26c-43b3-9228-cd6b39512f29" points="303 287 301 287 301 291.99 301 293 305 293 305 292 303 292 303 287" fill="none" stroke="#000" stroke-linecap="round" stroke-linejoin="round"/><rect id="uuid-76804ac6-93b7-456f-a1c2-33936de69ca1" x="300" y="280" width="4" height="7" fill="none" stroke="#000" stroke-linecap="round" stroke-linejoin="round"/><polygon id="uuid-e9024650-475e-49fa-a4d7-f72a884d19b8" points="299 287 296 287 296 292 295 292 295 293 299 293 299 291.99 299 291.99 299 287" fill="none" stroke="#000" stroke-linecap="round" stroke-linejoin="round"/><rect id="uuid-11deb093-3c37-4b5c-95b5-2db7bb7b6ae8" x="295" y="280" width="4" height="7" fill="none" stroke="#000" stroke-linecap="round" stroke-linejoin="round"/><path id="uuid-721cb49e-ab33-4acd-9aa3-fc656bd1275c" d="M296,266v14h8v-14h-8Z" fill="none" stroke="#000" stroke-linecap="round" stroke-linejoin="round"/><rect id="uuid-25540855-2dbc-432d-a366-7a9c3def31ee" x="296" y="274" width="8" height="2" fill="none" stroke="#000" stroke-linecap="round" stroke-linejoin="round"/><rect id="uuid-ca2e9564-3229-4fd7-a9e8-6fcd28d26342" x="301" y="266" width="1" height="8" fill="none" stroke="#000" stroke-linecap="round" stroke-linejoin="round"/><rect id="uuid-0bef9b6d-6b66-495f-bf02-6c074e0bf4e6" x="297" y="266" width="1" height="8" fill="none" stroke="#000" stroke-linecap="round" stroke-linejoin="round"/><path id="uuid-2c490872-a929-4305-8462-ca66ca293b48" d="M303.49,264c.28-.76.45-1.62.45-2.53,0-3.14-1.91-5.69-4.27-5.69s-4.27,2.55-4.27,5.69c0,.91.16,1.77.45,2.53h7.64Z" fill="none" stroke="#000" stroke-linecap="round" stroke-linejoin="round"/><path id="uuid-b1c1f910-d353-4711-87bd-888e32d41a8f" d="M296.07,264c.76,1.58,2.09,2.64,3.6,2.64s2.84-1.05,3.6-2.64h-7.2Z" fill="none" stroke="#000" stroke-linecap="round" stroke-linejoin="round"/><circle id="uuid-d06d408e-b4aa-4bae-afec-c29ea9a1dc2f" cx="300.5" cy="261.5" r=".5" fill="none" stroke="#000" stroke-linecap="round" stroke-linejoin="round"/><circle id="uuid-7520b809-c8d8-4333-8442-27b5da4192a6" cx="298.5" cy="261.5" r=".5" fill="none" stroke="#000" stroke-linecap="round" stroke-linejoin="round"/><rect id="uuid-40c379ed-da7f-430b-b63d-d83712a05778" x="303.89" y="270.08" width="2.13" height="4.55" transform="translate(-10.31 12.01) rotate(-2.22)" fill="none" stroke="#000" stroke-linecap="round" stroke-linejoin="round"/><rect id="uuid-a0b7f317-a4ec-4af0-82f8-72b5e7e0f44d" x="303.72" y="265.53" width="2.13" height="4.55" transform="translate(-10.14 12) rotate(-2.22)" fill="none" stroke="#000" stroke-linecap="round" stroke-linejoin="round"/><rect id="uuid-08a57c0f-9990-4a5e-9617-f00441598c7c" x="292.22" y="266.7" width="4.55" height="2.13" transform="translate(14.14 550.3) rotate(-87.5)" fill="none" stroke="#000" stroke-linecap="round" stroke-linejoin="round"/><rect id="uuid-2b147898-d1cd-40f2-8efb-11bf1f996f95" x="292.03" y="271.25" width="4.55" height="2.13" transform="translate(9.41 554.45) rotate(-87.5)" fill="none" stroke="#000" stroke-linecap="round" stroke-linejoin="round"/><rect id="uuid-9731bfa1-02d8-43ee-880d-5c3c8eb3a7a7" x="303.95" y="274.67" width="2.28" height="2.28" transform="translate(-10.45 12.01) rotate(-2.22)" fill="none" stroke="#000" stroke-linecap="round" stroke-linejoin="round"/><rect id="uuid-c24c54dc-841c-4f0a-b014-f7585c0938c5" x="293.02" y="274.58" width="2.28" height="2.28" transform="translate(5.86 557.57) rotate(-87.5)" fill="none" stroke="#000" stroke-linecap="round" stroke-linejoin="round"/><circle id="uuid-f66b9839-35d8-404b-9058-832f23814fb8" cx="299.5" cy="272.5" r=".5" fill="none" stroke="#000" stroke-linecap="round" stroke-linejoin="round"/><circle id="uuid-ed6de415-5411-4c2b-a8a8-69e7668f49b3" cx="299.5" cy="270.5" r=".5" fill="none" stroke="#000" stroke-linecap="round" stroke-linejoin="round"/><circle id="uuid-b77abd65-3ee1-43ea-a77d-90a3a5f00388" cx="299.5" cy="269.5" r=".5" fill="none" stroke="#000" stroke-linecap="round" stroke-linejoin="round"/><circle id="uuid-fe4ef8e2-bdb4-4d60-b5da-7616b060cdb4" cx="299.5" cy="268.5" r=".5" fill="none" stroke="#000" stroke-linecap="round" stroke-linejoin="round"/><path d="M304.44,258.15c-.26-1.99-2.29-3.53-4.77-3.53s-4.51,1.55-4.77,3.53c-.83.12-1.32.27-1.32.43,0,.38,2.73.69,6.09.69s6.09-.31,6.09-.69c0-.16-.5-.31-1.32-.43Z" fill="none" stroke="#000" stroke-linecap="round" stroke-linejoin="round"/></g><path d="M61.91,338.21c-7.44,14.06,63,25.58,199.41,25.58s186.93-15.06,184.15-24.34c-2.79-9.3-59.53-24.13-202.16-22.69-142.59,1.44-177.24,13.62-181.4,21.45Z" fill="#179cf5"/><path d="M385.52,351.68c1.26.69,19.27-3.02,27.17-4.27,7.9-1.24,20.07-1.6,23.39-5.89,2.14-2.78-4.88-5.52-6.94-5.46-2.1.07-3.13,2.67-7.67,4.42-6.26,2.42-14.39,2.83-21.79,4.9-5.91,1.66-15.8,5.4-14.16,6.3Z" fill="#0fcaff"/><path d="M102.85,328.47c2.25.84-6.03,2.69-4.66,4.22,3.24,2.83,8.36,2.07,21.1,5.05,12.29,2.85,10.68,4.35,20.19,6.63,7.67,1.84,18.09,3.32,33.62,2.97,15.53-.35,19.8-.63,30.95-.22,18.81.7,18.01,2.91,37.7,4.29,8.89.63,17.63-.2,26.21-1.73,7.75-1.38,18.09-3.03,33.16-3.1,15.07-.07,34.3,1.4,50.94-.56,13.58-1.6,16.79-4.14,26.75-6.9,9.96-2.76,22.67-3.02,25.03-5.39,2.79-2.76-9.04-4.29-10.91-4.9-1.87-.63-1.64-1.73,2.56-1.66,4.2.07,24.8,2.56,23.43,7.18-1.07,3.54-11.14,4.76-16.71,5.59-3.51.52-11.83,1.73-20.64,5.05-8.81,3.32-13.13,5.29-25.03,6.42-13.43,1.27-28.77,1.17-46.36.9-14.35-.23-26.56.81-36.4,2.28-10.19,1.52-22.32,2.39-32.93,1.86-16.94-.83-22.97-3.39-38.96-4.22-15.3-1.1-27.59,1.66-52.39-.76-19.16-1.86-24.57-5.32-29.69-7.05-5.11-1.73-8.81-3.39-20.87-4.98-12.06-1.59-14.39-3.93-14.16-5.46.42-2.63,6.94-4.08,9.5-4.76,2.56-.68,7.67-1.1,8.59-.76Z" fill="#76f8ff"/><path d="M61.91,338.21c-7.44,14.06,63,25.58,199.41,25.58s186.93-15.06,184.15-24.34c-2.79-9.3-59.53-24.13-202.16-22.69-142.59,1.44-177.24,13.62-181.4,21.45Z" fill="none" stroke="#000" stroke-linecap="round" stroke-linejoin="round"/><path d="M385.52,351.68c1.26.69,19.27-3.02,27.17-4.27,7.9-1.24,20.07-1.6,23.39-5.89,2.14-2.78-4.88-5.52-6.94-5.46-2.1.07-3.13,2.67-7.67,4.42-6.26,2.42-14.39,2.83-21.79,4.9-5.91,1.66-15.8,5.4-14.16,6.3Z" fill="none" stroke="#000" stroke-linecap="round" stroke-linejoin="round"/><path d="M102.85,328.47c2.25.84-6.03,2.69-4.66,4.22,3.24,2.83,8.36,2.07,21.1,5.05,12.29,2.85,10.68,4.35,20.19,6.63,7.67,1.84,18.09,3.32,33.62,2.97,15.53-.35,19.8-.63,30.95-.22,18.81.7,18.01,2.91,37.7,4.29,8.89.63,17.63-.2,26.21-1.73,7.75-1.38,18.09-3.03,33.16-3.1,15.07-.07,34.3,1.4,50.94-.56,13.58-1.6,16.79-4.14,26.75-6.9,9.96-2.76,22.67-3.02,25.03-5.39,2.79-2.76-9.04-4.29-10.91-4.9-1.87-.63-1.64-1.73,2.56-1.66,4.2.07,24.8,2.56,23.43,7.18-1.07,3.54-11.14,4.76-16.71,5.59-3.51.52-11.83,1.73-20.64,5.05-8.81,3.32-13.13,5.29-25.03,6.42-13.43,1.27-28.77,1.17-46.36.9-14.35-.23-26.56.81-36.4,2.28-10.19,1.52-22.32,2.39-32.93,1.86-16.94-.83-22.97-3.39-38.96-4.22-15.3-1.1-27.59,1.66-52.39-.76-19.16-1.86-24.57-5.32-29.69-7.05-5.11-1.73-8.81-3.39-20.87-4.98-12.06-1.59-14.39-3.93-14.16-5.46.42-2.63,6.94-4.08,9.5-4.76,2.56-.68,7.67-1.1,8.59-.76Z" fill="none" stroke="#000" stroke-linecap="round" stroke-linejoin="round"/><polygon points="238.81 284.29 189 287.69 189 260 214.01 260 238.81 284.29" fill="#c9e3e6"/><path d="M149.6,267.82s-5.86.2-9.23-1.46c-3.37-1.66-2.79-4.23-1.66-4.3l50.28-2.6,20.77,22.54,27.1-.15,1.95,1.92-101.93,8.85,12.73-24.8Z" fill="#94d1e0"/><polygon points="213.98 264 199.48 264 212.1 278 226.68 278 213.98 264" fill="#82aec0"/><path d="M174.91,265.8l8.78-.5c1.2-.08,2.37.37,3.07,1.2l8.73,10.57c.73.9-.39,1.96-1.91,1.8l-18.59-1.99-.09-11.08Z" fill="#2f7889"/><path d="M172,266.04l.07,10.42-14.14-1.52c-1.69-.18-2.93-1.14-2.93-2.27v-5.67l17-.96Z" fill="#2f7889"/><path d="M105.3,317.48l6.76-25.74c.09-.35.62-.61,1.25-.68,211.64-16.58,321.4-16.17,321.4-16.17,1.37-.1,2.43.85,1.87,1.71-4.4,7.01-18.42,19.66-39.84,33.07-30.99,19.41-54.8,23.21-102.28,25.33l-175.26-.37-10.75-6.22-3.15-10.93Z" fill="#c9e3e6"/><path d="M318.15,325.39c38.13-1.81,53.31-2.66,53.31-2.66-18.21,8.84-42.58,12.26-76.94,12.26l-175.26-.37-3.71-2.14-2.71-1.91c7.14-1.5,170.21-3.51,205.31-5.18Z" fill="#82aec0"/><path d="M108.23,305.9c143.74-8.49,303.82-7.16,303.82-7.16l10.01-7.59s-130.27,1.51-312.7,10.52l-1.12,4.24Z" fill="#82aec0"/><line x1="198.38" y1="250.62" x2="199.15" y2="259.7" fill="none" stroke="#000" stroke-linecap="round" stroke-linejoin="round"/><line x1="187.08" y1="251.09" x2="187.83" y2="259.83" fill="none" stroke="#000" stroke-linecap="round" stroke-linejoin="round"/><path d="M212.06,259.59l-.48-5.61c-.18-2.15-2.39-3.81-4.93-3.7l-34.89,1.46" fill="none" stroke="#000" stroke-linecap="round" stroke-linejoin="round"/><polygon points="238.81 284.29 189 287.69 189 260 214.01 260 238.81 284.29" fill="none" stroke="#000" stroke-linecap="round" stroke-linejoin="round"/><path d="M149.6,267.82s-5.86.2-9.23-1.46c-3.37-1.66-2.79-4.23-1.66-4.3l50.28-2.6,20.77,22.54,27.1-.15,1.95,1.92-101.93,8.85,12.73-24.8Z" fill="none" stroke="#000" stroke-linecap="round" stroke-linejoin="round"/><polygon points="213.98 264 199.48 264 212.1 278 226.68 278 213.98 264" fill="none" stroke="#000" stroke-linecap="round" stroke-linejoin="round"/><path d="M174.91,265.8l8.78-.5c1.2-.08,2.37.37,3.07,1.2l8.73,10.57c.73.9-.39,1.96-1.91,1.8l-18.59-1.99-.09-11.08Z" fill="none" stroke="#000" stroke-linecap="round" stroke-linejoin="round"/><path d="M172,266.04l.07,10.42-14.14-1.52c-1.69-.18-2.93-1.14-2.93-2.27v-5.67l17-.96Z" fill="none" stroke="#000" stroke-linecap="round" stroke-linejoin="round"/><path d="M105.3,317.48l6.76-25.74c.09-.35.62-.61,1.25-.68,211.64-16.58,321.4-16.17,321.4-16.17,1.37-.1,2.43.85,1.87,1.71-4.4,7.01-18.42,19.66-39.84,33.07-30.99,19.41-54.8,23.21-102.28,25.33l-175.26-.37-10.75-6.22-3.15-10.93Z" fill="none" stroke="#000" stroke-linecap="round" stroke-linejoin="round"/><path d="M318.15,325.39c38.13-1.81,53.31-2.66,53.31-2.66-18.21,8.84-42.58,12.26-76.94,12.26l-175.26-.37-3.71-2.14-2.71-1.91c7.14-1.5,170.21-3.51,205.31-5.18Z" fill="none" stroke="#000" stroke-linecap="round" stroke-linejoin="round"/><path d="M108.23,305.9c143.74-8.49,303.82-7.16,303.82-7.16l10.01-7.59s-130.27,1.51-312.7,10.52l-1.12,4.24Z" fill="none" stroke="#000" stroke-linecap="round" stroke-linejoin="round"/><path d="M206.68,405.75c-.19-.44-.36-.87-.54-1.31-1.32-3.32.34-6.32,1.81-9.26l2.14-4.25c.43-.86,1.09-1.58,1.9-2.08l6.15-3.82,6.08-6.29c.38-.39.86-.67,1.39-.79h0l4.14-1c2-.48,2.86-.4,3.51.52,2.24,3.18,3.74,5.8,5.74,8.97,1.09,1.73,3.6,5.69,3.75,5.96.48.81.29,1.49.27,2.42-.04,2.14.34,4.3,1.12,6.29.23.59.5,1.18.63,1.81.11.56-.04,4.14-.15,5.35-.09.98-2.42,4.65-3.25,5.09-.92.49-7.71,2.99-9.2,3.41-1.5.43-8-1.06-11.38-1.58-2.09-.32-4.18-.64-6.26-.96-1.81-.28-3.61-.07-4.63-1.89-1.19-2.14-2.26-4.34-3.21-6.59Z" fill="#8e8884"/><path d="M214.52,414.23c2.09.32,4.18.64,6.26.96,1.09.17,2.5.43,3.96.71-.99-1.17-2.46-2.55-3.44-3.72-.21-.25-.43-.51-.51-.84-.08-.34.01-.7.1-1.03.3-1.11.38-2.32.68-3.43-1.86.43-6.16,1.26-6.51,1.16-.39-.11-.71-.4-1.01-.67-2.21-2.02-3.94-4.06-5.64-6.52-.2-.29-.4-.59-.48-.94-.07-.33-.02-.66.03-.99.13-.81.41-3.06.63-5.04l-.66,1.3c-1.47,2.94-3.13,5.94-1.8,9.26.17.44.35.88.54,1.31.95,2.25,2.02,4.45,3.21,6.58,1.01,1.83,2.81,1.62,4.63,1.9Z" fill="#aea298"/><path d="M233.3,377.51c-.43-.51-1.27-.41-2.15.4l-3.17,3.17c-.2.2-.3.46-.28.74l.34,6.47c.01.22.09.42.23.58,1.13,1.31,5.1,7.63,6.26,7.63s3.16-4.48,4.18-4.46c.17,0,1.09.06,1.98.33.83.25,1.16-.89.99-1.7-.86-1.36-2.02-3.19-2.67-4.23-1.99-3.16-3.49-5.77-5.71-8.93Z" fill="#aea298"/><path d="M218.56,390.24c1.16-.17,5.05-.84,5.78-1.12,1.43-.56,2.68-2.96,3.52-4.25,0,0,.29,4.21,0,5.85-.2,1.14-.95,7.12-1.71,8.55l-4.57,7.61c-2.24-2.24-4.47-4.47-6.71-6.71-.57-.57-.93-.87-1.14-1.68-.47-1.85-1.33-4.57-1.33-6.17,0-1.6,4.32-1.8,6.16-2.08Z" fill="#aea298"/><path d="M227.04,381.28c-.45-.53-.57-1.29-.42-1.97.13-.57,1.3-1.66,1.69-2.01l-2.69.65c-.53.13-1.01.4-1.39.79l-6.08,6.29s5.89-2.45,8.89-3.75Z" fill="url(#uuid-e0a71fa4-8e5c-41e9-a5df-9f679e96f6da)"/><path d="M244.77,402.91c-.05-.23-.11-.45-.19-.67-.06.21-.19.43-.47.65-.8.62-3.9,1.56-7.32,4.55-2.23,1.95-2.23,2.21-2.71,4.36-.78,3.52-2.03,4.8-2.27,5.02.13-.01.24-.03.34-.06,1.5-.42,8.29-2.92,9.2-3.41.83-.44,3.15-4.11,3.25-5.09.12-1.2.27-4.78.16-5.34Z" fill="#aea298"/><path d="M206.68,405.75c-.19-.44-.36-.87-.54-1.31-1.32-3.32.34-6.32,1.81-9.26l2.14-4.25c.43-.86,1.09-1.58,1.9-2.08l6.15-3.82,6.08-6.29c.38-.39.86-.67,1.39-.79h0l4.14-1c2-.48,2.86-.4,3.51.52,2.24,3.18,3.74,5.8,5.74,8.97,1.09,1.73,3.6,5.69,3.75,5.96.48.81.29,1.49.27,2.42-.04,2.14.34,4.3,1.12,6.29.23.59.5,1.18.63,1.81.11.56-.04,4.14-.15,5.35-.09.98-2.42,4.65-3.25,5.09-.92.49-7.71,2.99-9.2,3.41-1.5.43-8-1.06-11.38-1.58-2.09-.32-4.18-.64-6.26-.96-1.81-.28-3.61-.07-4.63-1.89-1.19-2.14-2.26-4.34-3.21-6.59Z" fill="none" stroke="#000" stroke-linecap="round" stroke-linejoin="round"/><path d="M214.52,414.23c2.09.32,4.18.64,6.26.96,1.09.17,2.5.43,3.96.71-.99-1.17-2.46-2.55-3.44-3.72-.21-.25-.43-.51-.51-.84-.08-.34.01-.7.1-1.03.3-1.11.38-2.32.68-3.43-1.86.43-6.16,1.26-6.51,1.16-.39-.11-.71-.4-1.01-.67-2.21-2.02-3.94-4.06-5.64-6.52-.2-.29-.4-.59-.48-.94-.07-.33-.02-.66.03-.99.13-.81.41-3.06.63-5.04l-.66,1.3c-1.47,2.94-3.13,5.94-1.8,9.26.17.44.35.88.54,1.31.95,2.25,2.02,4.45,3.21,6.58,1.01,1.83,2.81,1.62,4.63,1.9Z" fill="none" stroke="#000" stroke-linecap="round" stroke-linejoin="round"/><path d="M233.3,377.51c-.43-.51-1.27-.41-2.15.4l-3.17,3.17c-.2.2-.3.46-.28.74l.34,6.47c.01.22.09.42.23.58,1.13,1.31,5.1,7.63,6.26,7.63s3.16-4.48,4.18-4.46c.17,0,1.09.06,1.98.33.83.25,1.16-.89.99-1.7-.86-1.36-2.02-3.19-2.67-4.23-1.99-3.16-3.49-5.77-5.71-8.93Z" fill="none" stroke="#000" stroke-linecap="round" stroke-linejoin="round"/><path d="M218.56,390.24c1.16-.17,5.05-.84,5.78-1.12,1.43-.56,2.68-2.96,3.52-4.25,0,0,.29,4.21,0,5.85-.2,1.14-.95,7.12-1.71,8.55l-4.57,7.61c-2.24-2.24-4.47-4.47-6.71-6.71-.57-.57-.93-.87-1.14-1.68-.47-1.85-1.33-4.57-1.33-6.17,0-1.6,4.32-1.8,6.16-2.08Z" fill="none" stroke="#000" stroke-linecap="round" stroke-linejoin="round"/><path d="M227.04,381.28c-.45-.53-.57-1.29-.42-1.97.13-.57,1.3-1.66,1.69-2.01l-2.69.65c-.53.13-1.01.4-1.39.79l-6.08,6.29s5.89-2.45,8.89-3.75Z" fill="none" stroke="#000" stroke-linecap="round" stroke-linejoin="round"/><path d="M244.14,401.11c-.59-1.5-.95-3.08-1.07-4.68-2.01,1.37-3.13,3.16-6.36,3.59-.86.12-2.18.28-3.02.5-1.03.27-1.99,1.04-3.54,1.18-1.1.1-3.89.02-3.47.65s2.92,1.88,3.54,2.38c.88.71,1.65,1.55,2.39,2.41.38.45.96,1.55,1.63,1.84.17.08.35.1.53.04.32-.09.57-.33.82-.55,2.4-2.13,5.12-3.9,8.03-5.25.31-.14.65-.3.8-.61.07-.14.09-.32.1-.52-.12-.33-.26-.65-.39-.98Z" fill="none" stroke="#000" stroke-linecap="round" stroke-linejoin="round"/><path d="M244.77,402.91c-.05-.23-.11-.45-.19-.67-.06.21-.19.43-.47.65-.8.62-3.9,1.56-7.32,4.55-2.23,1.95-2.23,2.21-2.71,4.36-.78,3.52-2.03,4.8-2.27,5.02.13-.01.24-.03.34-.06,1.5-.42,8.29-2.92,9.2-3.41.83-.44,3.15-4.11,3.25-5.09.12-1.2.27-4.78.16-5.34Z" fill="none" stroke="#000" stroke-linecap="round" stroke-linejoin="round"/><g id="uuid-39d76096-8d11-4cc5-b251-e8546f0720c8"><polygon id="uuid-eafdd813-57fb-4631-b5c2-af8e2cd05818" points="214.72 348.17 197.05 354.4 207.87 385.1 210.05 391.28 236.55 381.94 234.37 375.76 225.54 378.87 214.72 348.17" fill="#5f4d2f"/><rect id="uuid-60da7a45-cc30-4d8e-ade2-393ccb04986e" x="179.56" y="315.7" width="23.32" height="46.03" transform="translate(-181.12 226.21) rotate(-43.74)" fill="#726038"/><polygon id="uuid-5289acae-91e5-45d0-949d-5dde671a858c" points="157 377 138 377 138 410 129 410 129 416 157 416 157 409.46 157 409.46 157 377" fill="#5f4d2f"/><rect id="uuid-d84b8673-c22e-480a-98f0-975eff7d5856" x="136" y="331" width="23" height="46" fill="#726038"/><path id="uuid-72dc94a7-564a-4a64-99e4-b6c2b496d078" d="M136,237v94h52v-94h-52Z" fill="#726038"/><rect id="uuid-583e1beb-12d5-435c-a2e7-810cdcbca7f2" x="136" y="292" width="52" height="16" fill="#ac935a"/><rect id="uuid-7fcbc540-aaa5-4e35-8211-937c45f87846" x="174" y="237" width="6" height="55" fill="#ac935a"/><rect id="uuid-eccdf3ee-23c5-46d3-a561-c962a8806448" x="145" y="237" width="6" height="55" fill="#ac935a"/><path id="uuid-a276eb5d-062c-4bce-9664-9757b44b8274" d="M187.96,222.15c1.37-5.18,1.87-10.92,1.29-16.88-2.03-20.59-16.2-36.04-31.64-34.52-15.44,1.52-26.31,19.45-24.28,40.04.59,5.96,2.2,11.49,4.56,16.3l50.07-4.94Z" fill="#eec6a2"/><path id="uuid-96c6131c-d3c0-4a17-a5ec-fcf1badcb0a7" d="M138.8,231c4.99,10.43,13.74,17.36,23.7,17.36s18.71-6.93,23.7-17.36h-47.4Z" fill="#eec6a2"/><ellipse id="uuid-7d11c755-92b2-430e-b938-923531083c30" cx="180" cy="210" rx="3" ry="4" fill="#333"/><ellipse id="uuid-1a6f55c4-e766-4518-9d20-c5401299600c" cx="165" cy="212" rx="3" ry="4" fill="#333"/><rect id="uuid-cbc69aa9-517d-4c58-9525-5f666e935128" x="191.49" y="266.72" width="14.05" height="29.97" transform="translate(-26.7 20.85) rotate(-5.63)" fill="#726038"/><rect id="uuid-34a91083-8686-4b06-a29a-99518330500b" x="188.57" y="237.05" width="14.05" height="29.97" transform="translate(-23.8 20.42) rotate(-5.63)" fill="#726038"/><rect id="uuid-857e3996-6493-41e6-a69a-9980f7d920a1" x="112.92" y="245.01" width="29.97" height="14.05" transform="translate(-133.69 359.05) rotate(-85.34)" fill="#726038"/><rect id="uuid-53b09ec6-45b2-4f81-b28e-b35c9a868440" x="110.5" y="274.68" width="29.97" height="14.05" transform="translate(-165.48 383.9) rotate(-85.34)" fill="#726038"/><rect id="uuid-2c7cb6e4-bc17-4c89-ba8b-0f470991ec1c" x="193.24" y="296.69" width="14.98" height="14.98" transform="translate(-28.9 21.18) rotate(-5.63)" fill="#eec6a2"/><rect id="uuid-7262d36a-0f4c-4c1f-9efa-7b45420b6e97" x="116.16" y="296.69" width="14.98" height="14.98" transform="translate(-189.56 402.73) rotate(-85.34)" fill="#eec6a2"/><circle id="uuid-c048e5dc-fc53-406a-90d4-95f5dc22e02b" cx="162" cy="281" r="2" fill="#333"/><circle id="uuid-d9b7334e-7c38-458e-afd3-782fe5932d88" cx="162" cy="273" r="2" fill="#333"/><circle id="uuid-5698f37b-4857-4b63-9cba-e77812a812e6" cx="162" cy="266" r="2" fill="#333"/><circle id="uuid-b4ce6276-8a4e-44cd-bc50-f31bd57d2e64" cx="162" cy="257" r="2" fill="#333"/><path d="M190.41,183.37c-2.97-12.85-17.31-21.67-33.53-20.07-16.22,1.6-28.57,13.05-28.97,26.24-5.34,1.31-8.5,2.61-8.39,3.68.25,2.51,18.32,2.78,40.37.6,22.05-2.18,39.72-5.97,39.47-8.48-.11-1.07-3.45-1.73-8.95-1.97Z" fill="#596a66"/><polygon id="uuid-51a6588c-d238-445a-89bb-5cfb3b6fb5f8" points="214.72 348.17 197.05 354.4 207.87 385.1 210.05 391.28 236.55 381.94 234.37 375.76 225.54 378.87 214.72 348.17" fill="none" stroke="#000" stroke-linecap="round" stroke-linejoin="round"/><rect id="uuid-681704a0-c5f2-4cd3-892a-7056db55b596" x="179.56" y="315.7" width="23.32" height="46.03" transform="translate(-181.12 226.21) rotate(-43.74)" fill="none" stroke="#000" stroke-linecap="round" stroke-linejoin="round"/><polygon id="uuid-3babbb13-c0c3-4a22-b9f8-c30d756c080c" points="157 377 138 377 138 410 129 410 129 416 157 416 157 409.46 157 409.46 157 377" fill="none" stroke="#000" stroke-linecap="round" stroke-linejoin="round"/><rect id="uuid-37ed3021-17ea-44c4-88d0-d31f70a64ef8" x="136" y="331" width="23" height="46" fill="none" stroke="#000" stroke-linecap="round" stroke-linejoin="round"/><path id="uuid-bd3fc6fd-58bb-4211-a9ef-af0d0305abe3" d="M136,237v94h52v-94h-52Z" fill="none" stroke="#000" stroke-linecap="round" stroke-linejoin="round"/><rect id="uuid-08aa310f-8c99-4fd0-9e61-e9452b0a9eb5" x="136" y="292" width="52" height="16" fill="none" stroke="#000" stroke-linecap="round" stroke-linejoin="round"/><rect id="uuid-dbf655cb-e3f0-4472-88fb-c07e8a5ce654" x="174" y="237" width="6" height="55" fill="none" stroke="#000" stroke-linecap="round" stroke-linejoin="round"/><rect id="uuid-68a6fa18-56ea-48bd-864e-f958cb70564b" x="145" y="237" width="6" height="55" fill="none" stroke="#000" stroke-linecap="round" stroke-linejoin="round"/><path id="uuid-a0e4fc10-c3a2-4ab8-86cc-5c99218f7977" d="M187.96,222.15c1.37-5.18,1.87-10.92,1.29-16.88-2.03-20.59-16.2-36.04-31.64-34.52-15.44,1.52-26.31,19.45-24.28,40.04.59,5.96,2.2,11.49,4.56,16.3l50.07-4.94Z" fill="none" stroke="#000" stroke-linecap="round" stroke-linejoin="round"/><path id="uuid-d1217852-02f0-48df-82df-8d3b55ecd769" d="M138.8,231c4.99,10.43,13.74,17.36,23.7,17.36s18.71-6.93,23.7-17.36h-47.4Z" fill="none" stroke="#000" stroke-linecap="round" stroke-linejoin="round"/><ellipse id="uuid-6ad82ea5-73bd-428c-ab4d-15b765274d85" cx="180" cy="210" rx="3" ry="4" fill="none" stroke="#000" stroke-linecap="round" stroke-linejoin="round"/><ellipse id="uuid-18cded03-c85c-443d-b372-3f564d08e9d9" cx="165" cy="212" rx="3" ry="4" fill="none" stroke="#000" stroke-linecap="round" stroke-linejoin="round"/><rect id="uuid-81eb589c-61b6-4cfa-a477-d5d5ad782c9b" x="191.49" y="266.72" width="14.05" height="29.97" transform="translate(-26.7 20.85) rotate(-5.63)" fill="none" stroke="#000" stroke-linecap="round" stroke-linejoin="round"/><rect id="uuid-04663863-51c1-4ab2-bfff-f4faf4877b81" x="188.57" y="237.05" width="14.05" height="29.97" transform="translate(-23.8 20.42) rotate(-5.63)" fill="none" stroke="#000" stroke-linecap="round" stroke-linejoin="round"/><rect id="uuid-0e9b7052-5eed-4d34-93db-af38b36ad626" x="112.92" y="245.01" width="29.97" height="14.05" transform="translate(-133.69 359.05) rotate(-85.34)" fill="none" stroke="#000" stroke-linecap="round" stroke-linejoin="round"/><rect id="uuid-42b1d96c-a932-4f91-a104-f863f68a9466" x="110.5" y="274.68" width="29.97" height="14.05" transform="translate(-165.48 383.9) rotate(-85.34)" fill="none" stroke="#000" stroke-linecap="round" stroke-linejoin="round"/><rect id="uuid-18d2f0ca-c9fc-4550-8d22-58a65f3abce9" x="193.24" y="296.69" width="14.98" height="14.98" transform="translate(-28.9 21.18) rotate(-5.63)" fill="none" stroke="#000" stroke-linecap="round" stroke-linejoin="round"/><rect id="uuid-b37f2edc-267c-4ed7-a549-e67a378e4afc" x="116.16" y="296.69" width="14.98" height="14.98" transform="translate(-189.56 402.73) rotate(-85.34)" fill="none" stroke="#000" stroke-linecap="round" stroke-linejoin="round"/><circle id="uuid-acc3b5c7-03c7-40e8-85df-6c7ac4922393" cx="162" cy="281" r="2" fill="none" stroke="#000" stroke-linecap="round" stroke-linejoin="round"/><circle id="uuid-ff473c52-954e-4e14-ac1a-e71be2871dfa" cx="162" cy="273" r="2" fill="none" stroke="#000" stroke-linecap="round" stroke-linejoin="round"/><circle id="uuid-ba49dae8-f57d-46e0-9467-295c73743b9c" cx="162" cy="266" r="2" fill="none" stroke="#000" stroke-linecap="round" stroke-linejoin="round"/><circle id="uuid-06ae2952-06ad-4b65-8036-607c12f0487c" cx="162" cy="257" r="2" fill="none" stroke="#000" stroke-linecap="round" stroke-linejoin="round"/><path d="M190.41,183.37c-2.97-12.85-17.31-21.67-33.53-20.07-16.22,1.6-28.57,13.05-28.97,26.24-5.34,1.31-8.5,2.61-8.39,3.68.25,2.51,18.32,2.78,40.37.6,22.05-2.18,39.72-5.97,39.47-8.48-.11-1.07-3.45-1.73-8.95-1.97Z" fill="none" stroke="#000" stroke-linecap="round" stroke-linejoin="round"/></g><path d="M214.71,219.42c3.16-.97,16.03-6.04,29.55-39.93,6-15.04,10.07-30.58,12.5-41.1" fill="none" stroke="#333" stroke-miterlimit="10" stroke-width="2"/><text transform="translate(124.06 118.72)" fill="#333" font-family="ComicNeue-Bold, &apos;Comic Neue&apos;" font-size="24" font-weight="700"><tspan x="0" y="0">It will be over by Christmas.</tspan></text><text transform="translate(70.84 78.29)" fill="#333" font-family="ComicNeue-Regular, &apos;Comic Neue&apos;" font-size="24"><tspan x="0" y="0">But everyone was confident...</tspan></text><rect x="369" y="151" width="3" height="125" fill="#666"/><rect id="uuid-81bbbeb8-cfb2-42f9-9d21-d80f1a581bfb" x="372" y="153" width="66" height="33" fill="#ce1126"/><rect id="uuid-4b0f62fa-b2fd-4492-b256-833fb971f6b1" x="372" y="153" width="33" height="17" fill="#002369"/><path id="uuid-81fc600d-a151-4c42-8df8-c67519dd13b0" d="M372,153v1.9l29.31,15.1h3.69v-1.9l-29.31-15.1h-3.69ZM405,153v1.9l-29.31,15.1h-3.69v-1.9l29.31-15.1h3.69Z" fill="#fff"/><path id="uuid-1947e9a9-e28b-4a1c-9afd-6f0353950291" d="M386,153v17h6v-17h-6ZM372,158v6h33v-6h-33Z" fill="#fff"/><path id="uuid-75f2282e-3d24-4dfd-bfdd-9a80da6f6116" d="M372,160v3h33v-3h-33ZM387,153v17h3v-17h-3Z" fill="#ce1126"/><path id="uuid-8b45ece6-02b2-45fd-95c3-eacfa46fb986" d="M371.54,170l12-6h2.68l-12,6h-2.68ZM372,152.48l11.04,5.52h-2.47l-8.57-4.29v-1.23ZM391.15,159l12-6h2.68l-12,6h-2.68ZM405,169.52l-11.04-5.52h2.47l8.57,4.29v1.23Z" fill="#ce1126"/><rect x="369" y="151" width="3" height="125" fill="none" stroke="#000" stroke-linecap="round" stroke-linejoin="round"/><rect id="uuid-d8d70471-ddf1-4db8-be85-4824a7328e4f" x="372" y="153" width="66" height="33" fill="none" stroke="#000" stroke-linecap="round" stroke-linejoin="round"/><rect id="uuid-138d0d69-0a1b-4019-b917-f3c220d21221" x="372" y="153" width="33" height="17" fill="none" stroke="#000" stroke-linecap="round" stroke-linejoin="round"/><path id="uuid-d359a411-c894-4adb-9f57-aeaf4dab4cac" d="M372,153v1.9l29.31,15.1h3.69v-1.9l-29.31-15.1h-3.69ZM405,153v1.9l-29.31,15.1h-3.69v-1.9l29.31-15.1h3.69Z" fill="none" stroke="#000" stroke-linecap="round" stroke-linejoin="round"/><path id="uuid-f8be8b92-b9c2-44e7-a4c6-feccdf8af364" d="M386,153v17h6v-17h-6ZM372,158v6h33v-6h-33Z" fill="none" stroke="#000" stroke-linecap="round" stroke-linejoin="round"/><path id="uuid-2449930c-9ee0-4801-a2ce-a1c9805eb98f" d="M372,160v3h33v-3h-33ZM387,153v17h3v-17h-3Z" fill="none" stroke="#000" stroke-linecap="round" stroke-linejoin="round"/><path id="uuid-64394cbe-a274-46ff-877a-c04396f67dde" d="M371.54,170l12-6h2.68l-12,6h-2.68ZM372,152.48l11.04,5.52h-2.47l-8.57-4.29v-1.23ZM391.15,159l12-6h2.68l-12,6h-2.68ZM405,169.52l-11.04-5.52h2.47l8.57,4.29v1.23Z" fill="none" stroke="#000" stroke-linecap="round" stroke-linejoin="round"/></svg>