<?xml version="1.0" encoding="UTF-8"?><svg id="uuid-471cacf2-fe4c-405c-b11a-1bc416321477" xmlns="http://www.w3.org/2000/svg" xmlns:xlink="http://www.w3.org/1999/xlink" viewBox="0 0 500 500"><defs><linearGradient id="uuid-ad996cc3-0d33-48b2-8e82-0bc869a5516c" x1="218.151498" y1="3760.835018" x2="228.307212" y2="3760.835018" gradientTransform="translate(0 4142) scale(1 -1)" gradientUnits="userSpaceOnUse"><stop offset=".000381" stop-color="#4c5c64"/><stop offset="1" stop-color="#8e8884" stop-opacity="0"/></linearGradient></defs><path d="M54.424015,420.815551c1.169882,1.136011,13.236365,1.914999,19.018918,4.625206,10.194675,4.771272,11.331131,8.309151,24.300101,10.22415,12.935538,1.898767,23.364187-1.314529,38.639502-.227202,15.743252,1.119791,22.428287,5.842366,38.840045,6.280551,18.818362.519321,18.918634-5.858599,40.110205-6.621354,21.191572-.762756,24.099545,2.726439,41.213242.373268,16.846289-2.320719,18.450683-7.043294,27.475495-10.289055s15.342167-4.024748,15.342167-4.024748c0,0-25.570261-27.377994-102.047043-29.130708-82.861027-1.882547-142.892631,28.789892-142.892631,28.789892Z" fill="#f6c973"/><path d="M99.748552,416.660969s17.715338.486869,36.700836-1.541731c18.985498-2.0286,36.500281-5.209444,38.57265-3.278213,1.871814,1.736481-16.077512,8.422752-16.077512,8.422752,0,0,8.356293,2.937409,26.90726,1.979916,18.55098-.957493,32.02132-4.398004,38.639489-6.426604,6.61817-2.0286,17.213968-5.16076,31.352801-6.881009,14.138859-1.720249,22.394854-1.119791,22.394854-1.119791,0,0-17.247375-8.796008-34.327639-10.970674-37.068502-4.722587-47.162918-3.229528-70.928217.146053-38.071255,5.404194-73.234524,19.6693-73.234524,19.6693Z" fill="#eda052"/><path d="M54.424015,420.815551c1.169882,1.136011,13.236365,1.914999,19.018918,4.625206,10.194675,4.771272,11.331131,8.309151,24.300101,10.22415,12.935538,1.898767,23.364187-1.314529,38.639502-.227202,15.743252,1.119791,22.428287,5.842366,38.840045,6.280551,18.818362.519321,18.918634-5.858599,40.110205-6.621354,21.191572-.762756,24.099545,2.726439,41.213242.373268,16.846289-2.320719,18.450683-7.043294,27.475495-10.289055s15.342167-4.024748,15.342167-4.024748c0,0-25.570261-27.377994-102.047043-29.130708-82.861027-1.882547-142.892631,28.789892-142.892631,28.789892Z" fill="none" stroke="#000" stroke-linecap="round" stroke-linejoin="round"/><path d="M99.748552,416.660969s17.715338.486869,36.700836-1.541731c18.985498-2.0286,36.500281-5.209444,38.57265-3.278213,1.871814,1.736481-16.077512,8.422752-16.077512,8.422752,0,0,8.356293,2.937409,26.90726,1.979916,18.55098-.957493,32.02132-4.398004,38.639489-6.426604,6.61817-2.0286,17.213968-5.16076,31.352801-6.881009,14.138859-1.720249,22.394854-1.119791,22.394854-1.119791,0,0-17.247375-8.796008-34.327639-10.970674-37.068502-4.722587-47.162918-3.229528-70.928217.146053-38.071255,5.404194-73.234524,19.6693-73.234524,19.6693Z" fill="none" stroke="#000" stroke-linecap="round" stroke-linejoin="round"/><g id="uuid-b00a7848-06eb-4ab7-89a3-5b677c134e74"><polygon id="uuid-b8ff999b-d4b4-4b56-81ef-cab6ef659af5" points="264 288 261 288 261 292.994256 261 294 265 294 265 293 264 293 264 288" fill="#5f5f5f"/><rect id="uuid-8a7926a5-2369-4124-b1b6-1f221c3f419b" x="261" y="281" width="4" height="7" fill="#727272"/><polygon id="uuid-cb8a5412-9027-4a4d-8c15-bdacad27bd3c" points="259.999996 288 257 288 257 293 256 293 256 294 260 294 260 292.994256 259.999996 292.994256 259.999996 288" fill="#5f5f5f"/><rect id="uuid-ce3733e9-ebe7-4636-b1ad-4b14e1eef869" x="256" y="281" width="4" height="7" fill="#727272"/><path id="uuid-df3f5be3-23a4-4947-b7f3-09ded817a35c" d="M256,267v14h8v-14h-8Z" fill="#727272"/><rect id="uuid-d5c3fa29-4403-4f9b-ab87-8e8c25f26d97" x="256" y="276" width="8" height="2" fill="#acacac"/><rect id="uuid-42db08cd-3bac-4841-abe7-5999bb4ab4ca" x="262" y="267" width="1" height="8" fill="#acacac"/><rect id="uuid-16b0c722-4886-4f18-928b-d35490b844c1" x="258" y="267" width="1" height="8" fill="#acacac"/><path id="uuid-ff73b8d7-b958-4ea0-afd5-f7e6d84942a0" d="M264.173589,266c.28485-.762644.4459-1.62192.4459-2.531756,0-3.141617-1.91009-5.688407-4.266305-5.688407s-4.266305,2.546789-4.266305,5.688407c0,.909836.16105,1.769112.4459,2.531756h7.64081Z" fill="#ccc"/><path id="uuid-49efc10a-d455-485a-901b-748cd2684a15" d="M256.754088,266c.757379,1.584093,2.085717,2.635679,3.599096,2.635679s2.841717-1.051586,3.599096-2.635679h-7.198192Z" fill="#ccc"/><circle id="uuid-ade8a6bb-933b-49df-b7c8-979a2e6f7dbc" cx="261.5" cy="262.5" r=".5" fill="#333"/><circle id="uuid-7c2b5b56-c276-4d09-b8c3-fa74b1ce35c5" cx="259.5" cy="262.5" r=".5" fill="#333"/><rect id="uuid-8a90f1ce-d440-4f3c-bea2-03f920f325db" x="264.575232" y="271.731619" width="2.133149" height="4.550725" transform="translate(-10.405871 10.486442) rotate(-2.218075)" fill="#727272"/><rect id="uuid-bcad27ca-3611-484e-8e2a-5224f4672e61" x="264.399101" y="267.184303" width="2.133149" height="4.550725" transform="translate(-10.230008 10.476218) rotate(-2.218075)" fill="#727272"/><rect id="uuid-ee14a4db-b1ea-421c-ba99-44aae412aa98" x="252.907882" y="268.355108" width="4.550725" height="2.133149" transform="translate(-25.114453 512.608302) rotate(-87.499645)" fill="#727272"/><rect id="uuid-06286f61-3772-4c7f-a5bb-9ebe719acb89" x="252.709358" y="272.901501" width="4.550725" height="2.133149" transform="translate(-29.846381 516.758021) rotate(-87.499645)" fill="#727272"/><rect id="uuid-7822a2ff-b845-4fc0-ad18-e4ae5ed67178" x="264.638021" y="276.326215" width="2.275363" height="2.275363" transform="translate(-10.539793 10.494451) rotate(-2.218124)" fill="#ccc"/><rect id="uuid-0d03012d-5ba0-4373-88be-220757f371ed" x="253.698146" y="276.240189" width="2.275363" height="2.275363" transform="translate(-33.395119 519.870557) rotate(-87.499694)" fill="#ccc"/><circle id="uuid-31f1739c-d57d-4756-821a-1235038ff004" cx="260.5" cy="273.5" r=".5" fill="#333"/><circle id="uuid-826d1f8e-7c8f-49a7-bf11-d0bad8128ebc" cx="260.5" cy="272.5" r=".5" fill="#333"/><circle id="uuid-b65508fb-eff5-4b57-98ef-9eca1971e6ca" cx="260.5" cy="271.5" r=".5" fill="#333"/><circle id="uuid-3099ef07-25cd-4a2b-9514-7c69f7210a97" cx="260.5" cy="270.5" r=".5" fill="#333"/><path d="M265.121512,259.807554c-.256858-1.985891-2.293408-3.532795-4.768328-3.532795s-4.511471,1.546904-4.768328,3.532795c-.827243.11828-1.32277.267907-1.32277.430784,0,.382589,2.727078.692736,6.091098.692736s6.091098-.310147,6.091098-.692736c0-.162877-.495527-.312504-1.32277-.430784Z" fill="#6a6a6a"/><polygon id="uuid-ce355de6-3ec6-4452-9958-8586bb62235d" points="264 288 261 288 261 292.994256 261 294 265 294 265 293 264 293 264 288" fill="none" stroke="#000" stroke-linecap="round" stroke-linejoin="round"/><rect id="uuid-adc0efe3-42c3-4682-807f-f11ff998e5e9" x="261" y="281" width="4" height="7" fill="none" stroke="#000" stroke-linecap="round" stroke-linejoin="round"/><polygon id="uuid-fc439e61-71c1-435d-a54a-8141bee83858" points="259.999996 288 257 288 257 293 256 293 256 294 260 294 260 292.994256 259.999996 292.994256 259.999996 288" fill="none" stroke="#000" stroke-linecap="round" stroke-linejoin="round"/><rect id="uuid-236520d9-c34f-4267-ab07-2cb521902127" x="256" y="281" width="4" height="7" fill="none" stroke="#000" stroke-linecap="round" stroke-linejoin="round"/><path id="uuid-d13c59d5-f1dc-46e4-927a-6508e0a5441d" d="M256,267v14h8v-14h-8Z" fill="none" stroke="#000" stroke-linecap="round" stroke-linejoin="round"/><rect id="uuid-96babef0-5f91-4be3-9e5f-55cd3292d40c" x="256" y="276" width="8" height="2" fill="none" stroke="#000" stroke-linecap="round" stroke-linejoin="round"/><rect id="uuid-f685ae96-535d-4f28-9cb2-873870239562" x="262" y="267" width="1" height="8" fill="none" stroke="#000" stroke-linecap="round" stroke-linejoin="round"/><rect id="uuid-37dc5652-27f8-4bbb-908e-84ab77338ead" x="258" y="267" width="1" height="8" fill="none" stroke="#000" stroke-linecap="round" stroke-linejoin="round"/><path id="uuid-0642e68b-63d1-4591-a584-d7b006529052" d="M264.173589,266c.28485-.762644.4459-1.62192.4459-2.531756,0-3.141617-1.91009-5.688407-4.266305-5.688407s-4.266305,2.546789-4.266305,5.688407c0,.909836.16105,1.769112.4459,2.531756h7.64081Z" fill="none" stroke="#000" stroke-linecap="round" stroke-linejoin="round"/><path id="uuid-ded07ea4-7d79-4ea6-8054-6791a3feb0cc" d="M256.754088,266c.757379,1.584093,2.085717,2.635679,3.599096,2.635679s2.841717-1.051586,3.599096-2.635679h-7.198192Z" fill="none" stroke="#000" stroke-linecap="round" stroke-linejoin="round"/><circle id="uuid-22603478-1209-44cd-96a5-6f6f05fd6f68" cx="261.5" cy="262.5" r=".5" fill="none" stroke="#000" stroke-linecap="round" stroke-linejoin="round"/><circle id="uuid-470d91f6-71ea-4cc5-bea9-25c5a76ddf19" cx="259.5" cy="262.5" r=".5" fill="none" stroke="#000" stroke-linecap="round" stroke-linejoin="round"/><rect id="uuid-a2852b4e-b9f2-4446-ad61-8a60e2b9e334" x="264.575232" y="271.731619" width="2.133149" height="4.550725" transform="translate(-10.405871 10.486442) rotate(-2.218075)" fill="none" stroke="#000" stroke-linecap="round" stroke-linejoin="round"/><rect id="uuid-ffca72f2-5c43-45e9-9072-261c49439288" x="264.399101" y="267.184303" width="2.133149" height="4.550725" transform="translate(-10.230008 10.476218) rotate(-2.218075)" fill="none" stroke="#000" stroke-linecap="round" stroke-linejoin="round"/><rect id="uuid-4e47c1ad-f4cc-4576-b981-f8e2fd0dbde1" x="252.907882" y="268.355108" width="4.550725" height="2.133149" transform="translate(-25.114453 512.608302) rotate(-87.499645)" fill="none" stroke="#000" stroke-linecap="round" stroke-linejoin="round"/><rect id="uuid-09ca4dc5-3b87-4176-abdb-983dfc6ff29c" x="252.709358" y="272.901501" width="4.550725" height="2.133149" transform="translate(-29.846381 516.758021) rotate(-87.499645)" fill="none" stroke="#000" stroke-linecap="round" stroke-linejoin="round"/><rect id="uuid-cacd71fc-12a7-4506-b5e5-44b5c0e60df7" x="264.638021" y="276.326215" width="2.275363" height="2.275363" transform="translate(-10.539793 10.494451) rotate(-2.218124)" fill="none" stroke="#000" stroke-linecap="round" stroke-linejoin="round"/><rect id="uuid-3ae34ee2-dab1-4d12-8a9a-e7dc202ab11c" x="253.698146" y="276.240189" width="2.275363" height="2.275363" transform="translate(-33.395119 519.870557) rotate(-87.499694)" fill="none" stroke="#000" stroke-linecap="round" stroke-linejoin="round"/><circle id="uuid-a3ca6449-6932-4324-8427-31b4de901a2c" cx="260.5" cy="273.5" r=".5" fill="none" stroke="#000" stroke-linecap="round" stroke-linejoin="round"/><circle id="uuid-ce6d766f-d7ad-4d7c-831b-13973b3cd549" cx="260.5" cy="272.5" r=".5" fill="none" stroke="#000" stroke-linecap="round" stroke-linejoin="round"/><circle id="uuid-461950b3-3298-45b8-acdd-91065b5d795f" cx="260.5" cy="271.5" r=".5" fill="none" stroke="#000" stroke-linecap="round" stroke-linejoin="round"/><circle id="uuid-c2a11e2e-f169-4e90-a6ff-f180114610fd" cx="260.5" cy="270.5" r=".5" fill="none" stroke="#000" stroke-linecap="round" stroke-linejoin="round"/><path d="M265.121512,259.807554c-.256858-1.985891-2.293408-3.532795-4.768328-3.532795s-4.511471,1.546904-4.768328,3.532795c-.827243.11828-1.32277.267907-1.32277.430784,0,.382589,2.727078.692736,6.091098.692736s6.091098-.310147,6.091098-.692736c0-.162877-.495527-.312504-1.32277-.430784Z" fill="none" stroke="#000" stroke-linecap="round" stroke-linejoin="round"/></g><g id="uuid-2442867e-7a98-4f03-ad4b-113ea78f8cc6"><polygon id="uuid-9aff42b8-60e0-4a75-b5e2-f3d9219e8756" points="284 288 281 288 281 292.994256 281 294 285 294 285 293 284 293 284 288" fill="#5f5f5f"/><rect id="uuid-537f6f8b-3441-4752-abae-f231e211026e" x="281" y="281" width="4" height="7" fill="#727272"/><polygon id="uuid-77d0c5fe-9d5c-4677-9787-7195f28436cf" points="278.999996 288 276 288 276 293 275 293 275 294 279 294 279 292.994256 278.999996 292.994256 278.999996 288" fill="#5f5f5f"/><rect id="uuid-77146978-c5bf-4458-b1be-22548054ec4e" x="276" y="281" width="4" height="7" fill="#727272"/><path id="uuid-68d4de29-f60b-4610-9864-baa67c1541a2" d="M276,267v14h8v-14h-8Z" fill="#727272"/><rect id="uuid-362d10ac-ca8b-4359-b2fd-fd1db9d5de42" x="276" y="275" width="8" height="2" fill="#acacac"/><rect id="uuid-cc3640cf-d488-4a7f-bc9f-a6be001b510d" x="282" y="267" width="1" height="8" fill="#acacac"/><rect id="uuid-bd3cb159-f162-45dc-8505-cae705c2336b" x="278" y="267" width="1" height="8" fill="#acacac"/><path id="uuid-1f73f88b-b53f-413f-83ca-e877c66de6ad" d="M284.170597,265c.28485-.762644.4459-1.62192.4459-2.531756,0-3.141617-1.91009-5.688407-4.266305-5.688407s-4.266305,2.546789-4.266305,5.688407c0,.909836.16105,1.769112.4459,2.531756h7.64081Z" fill="#ccc"/><path id="uuid-30d02519-7e1a-4580-b422-93b730adba82" d="M276.751096,266c.757379,1.584093,2.085717,2.635679,3.599096,2.635679s2.841717-1.051586,3.599096-2.635679h-7.198192Z" fill="#ccc"/><circle id="uuid-f5680207-777a-4369-aaf1-82204527a7d3" cx="281.5" cy="262.5" r=".5" fill="#333"/><circle id="uuid-78cb3c13-ab96-4dbe-946f-11998e735e78" cx="279.5" cy="262.5" r=".5" fill="#333"/><rect id="uuid-dc3486f0-2fa9-4537-b2ba-0fa77b91681d" x="284.57224" y="271.50007" width="2.133149" height="4.550725" transform="translate(-10.381927 11.260213) rotate(-2.218075)" fill="#727272"/><rect id="uuid-80d62487-23ae-490d-b1c2-28a935f0534e" x="284.396109" y="266.952755" width="2.133149" height="4.550725" transform="translate(-10.206064 11.249989) rotate(-2.218075)" fill="#727272"/><rect id="uuid-9bcd0281-f726-4d19-9592-830ca988b5d2" x="272.90489" y="268.12356" width="4.550725" height="2.133149" transform="translate(-5.758498 532.364825) rotate(-87.499645)" fill="#727272"/><rect id="uuid-32ddac73-0f46-4d9c-8c68-31c16c5bb0ab" x="272.706366" y="272.669953" width="4.550725" height="2.133149" transform="translate(-10.490426 536.514544) rotate(-87.499645)" fill="#727272"/><rect id="uuid-ca6bfe7a-fbbe-454c-b0fd-64d511154f06" x="284.635029" y="276.094666" width="2.275363" height="2.275363" transform="translate(-10.515848 11.268239) rotate(-2.218124)" fill="#ccc"/><rect id="uuid-1a39af59-66cd-414a-bf60-def64239d387" x="273.695154" y="276.00864" width="2.275363" height="2.275363" transform="translate(-14.039147 539.62708) rotate(-87.499694)" fill="#ccc"/><circle id="uuid-6d096ea4-df3d-4c09-b3a3-ee6699037e57" cx="280.5" cy="273.5" r=".5" fill="#333"/><circle id="uuid-5f340b97-d14d-4d59-8088-07a5b5885960" cx="280.5" cy="272.5" r=".5" fill="#333"/><circle id="uuid-2d454a31-3a3b-4d42-99f2-e455bf343d43" cx="280.5" cy="271.5" r=".5" fill="#333"/><circle id="uuid-5290a17d-c359-44c7-b557-0dcdacf3449b" cx="280.5" cy="269.5" r=".5" fill="#333"/><path d="M285.11852,259.576005c-.256858-1.985891-2.293408-3.532795-4.768328-3.532795s-4.511471,1.546904-4.768328,3.532795c-.827243.11828-1.32277.267907-1.32277.430784,0,.382589,2.727078.692736,6.091098.692736s6.091098-.310147,6.091098-.692736c0-.162877-.495527-.312504-1.32277-.430784Z" fill="#6a6a6a"/><polygon id="uuid-4f3f4547-94b9-401f-bc67-766cc80d1a5e" points="284 288 281 288 281 292.994256 281 294 285 294 285 293 284 293 284 288" fill="none" stroke="#000" stroke-linecap="round" stroke-linejoin="round"/><rect id="uuid-3b94b8fa-bfa2-4b53-9d5d-0fe2b551c44b" x="281" y="281" width="4" height="7" fill="none" stroke="#000" stroke-linecap="round" stroke-linejoin="round"/><polygon id="uuid-f6279574-3673-4398-b6b6-d622c8cc622d" points="278.999996 288 276 288 276 293 275 293 275 294 279 294 279 292.994256 278.999996 292.994256 278.999996 288" fill="none" stroke="#000" stroke-linecap="round" stroke-linejoin="round"/><rect id="uuid-244dcb97-f17e-429b-a7cb-9c4716f1f9b7" x="276" y="281" width="4" height="7" fill="none" stroke="#000" stroke-linecap="round" stroke-linejoin="round"/><path id="uuid-82de2cdf-29ff-43e4-81ce-975339ef2d35" d="M276,267v14h8v-14h-8Z" fill="none" stroke="#000" stroke-linecap="round" stroke-linejoin="round"/><rect id="uuid-2d2e0b5b-6b8a-4a0c-8cbd-1e187f3baace" x="276" y="275" width="8" height="2" fill="none" stroke="#000" stroke-linecap="round" stroke-linejoin="round"/><rect id="uuid-0522b708-bc0d-451a-84f8-a8e3721ba640" x="282" y="267" width="1" height="8" fill="none" stroke="#000" stroke-linecap="round" stroke-linejoin="round"/><rect id="uuid-ff1b1bd7-84f6-4d2f-bd43-ebf7eadfe0c3" x="278" y="267" width="1" height="8" fill="none" stroke="#000" stroke-linecap="round" stroke-linejoin="round"/><path id="uuid-4d1755e3-7e91-4da3-b667-adbe0317da09" d="M284.170597,265c.28485-.762644.4459-1.62192.4459-2.531756,0-3.141617-1.91009-5.688407-4.266305-5.688407s-4.266305,2.546789-4.266305,5.688407c0,.909836.16105,1.769112.4459,2.531756h7.64081Z" fill="none" stroke="#000" stroke-linecap="round" stroke-linejoin="round"/><path id="uuid-7d5ca42d-b6b9-4f12-ae36-fa44721d3487" d="M276.751096,266c.757379,1.584093,2.085717,2.635679,3.599096,2.635679s2.841717-1.051586,3.599096-2.635679h-7.198192Z" fill="none" stroke="#000" stroke-linecap="round" stroke-linejoin="round"/><circle id="uuid-b053f410-37a0-4418-8935-ae188666b54f" cx="281.5" cy="262.5" r=".5" fill="none" stroke="#000" stroke-linecap="round" stroke-linejoin="round"/><circle id="uuid-d88fd6e4-7f1b-47f4-ac12-f456b13be257" cx="279.5" cy="262.5" r=".5" fill="none" stroke="#000" stroke-linecap="round" stroke-linejoin="round"/><rect id="uuid-5f570d77-be6f-4a83-bcdf-747498fd6f8f" x="284.57224" y="271.50007" width="2.133149" height="4.550725" transform="translate(-10.381927 11.260213) rotate(-2.218075)" fill="none" stroke="#000" stroke-linecap="round" stroke-linejoin="round"/><rect id="uuid-d8e2409e-8c70-4b08-908a-5fbc43e243e4" x="284.396109" y="266.952755" width="2.133149" height="4.550725" transform="translate(-10.206064 11.249989) rotate(-2.218075)" fill="none" stroke="#000" stroke-linecap="round" stroke-linejoin="round"/><rect id="uuid-fecaee6f-eed0-45b7-b03f-22ec3cba3d44" x="272.90489" y="268.12356" width="4.550725" height="2.133149" transform="translate(-5.758498 532.364825) rotate(-87.499645)" fill="none" stroke="#000" stroke-linecap="round" stroke-linejoin="round"/><rect id="uuid-30deed1c-690b-495d-8a21-53150a5bb0e8" x="272.706366" y="272.669953" width="4.550725" height="2.133149" transform="translate(-10.490426 536.514544) rotate(-87.499645)" fill="none" stroke="#000" stroke-linecap="round" stroke-linejoin="round"/><rect id="uuid-4023c8eb-93c2-4db0-bb25-899b2b939857" x="284.635029" y="276.094666" width="2.275363" height="2.275363" transform="translate(-10.515848 11.268239) rotate(-2.218124)" fill="none" stroke="#000" stroke-linecap="round" stroke-linejoin="round"/><rect id="uuid-aafe7eae-43c2-4c70-8f74-e5b79c3b664d" x="273.695154" y="276.00864" width="2.275363" height="2.275363" transform="translate(-14.039147 539.62708) rotate(-87.499694)" fill="none" stroke="#000" stroke-linecap="round" stroke-linejoin="round"/><circle id="uuid-27817585-063d-4c52-83fd-3b5351c12598" cx="280.5" cy="273.5" r=".5" fill="none" stroke="#000" stroke-linecap="round" stroke-linejoin="round"/><circle id="uuid-a9ef0a36-648a-4501-9fd5-e782197d4f4c" cx="280.5" cy="272.5" r=".5" fill="none" stroke="#000" stroke-linecap="round" stroke-linejoin="round"/><circle id="uuid-9a21c7a5-96bc-4bd8-a8a4-34b10091f696" cx="280.5" cy="271.5" r=".5" fill="none" stroke="#000" stroke-linecap="round" stroke-linejoin="round"/><circle id="uuid-763efd16-1049-4981-8807-584d0d6e8b4c" cx="280.5" cy="269.5" r=".5" fill="none" stroke="#000" stroke-linecap="round" stroke-linejoin="round"/><path d="M285.11852,259.576005c-.256858-1.985891-2.293408-3.532795-4.768328-3.532795s-4.511471,1.546904-4.768328,3.532795c-.827243.11828-1.32277.267907-1.32277.430784,0,.382589,2.727078.692736,6.091098.692736s6.091098-.310147,6.091098-.692736c0-.162877-.495527-.312504-1.32277-.430784Z" fill="none" stroke="#000" stroke-linecap="round" stroke-linejoin="round"/></g><g id="uuid-9430bd10-c384-4d12-9c53-5ff4040dd687"><polygon id="uuid-6573d355-0e50-4733-8ece-bb77778e390e" points="303 287 301 287 301 291.994256 301 293 305 293 305 292 303 292 303 287" fill="#5f5f5f"/><rect id="uuid-e667505e-9830-4040-a587-7b89e83fe9c8" x="300" y="280" width="4" height="7" fill="#727272"/><polygon id="uuid-6a71070b-717c-49fc-933b-14004a554fad" points="298.999996 287 296 287 296 292 295 292 295 293 299 293 299 291.994256 298.999996 291.994256 298.999996 287" fill="#5f5f5f"/><rect id="uuid-b59fb9d2-e8c6-42ff-94d3-67835360a0a4" x="295" y="280" width="4" height="7" fill="#727272"/><path id="uuid-9a1cf24a-753d-4f50-b092-51f647deac17" d="M296,266v14h8v-14h-8Z" fill="#727272"/><rect id="uuid-a0d87f5e-b14e-4bac-9948-26459023011d" x="296" y="274" width="8" height="2" fill="#acacac"/><rect id="uuid-e856b9e4-cc00-4b2b-9f2d-5a8756631ff9" x="301" y="266" width="1" height="8" fill="#acacac"/><rect id="uuid-0d0f5846-747c-478b-a5e2-453d309cec11" x="297" y="266" width="1" height="8" fill="#acacac"/><path id="uuid-8c86d345-c107-4676-bc0b-17b1acf84f6e" d="M303.490469,264c.28485-.762644.4459-1.62192.4459-2.531756,0-3.141617-1.91009-5.688407-4.266305-5.688407s-4.266305,2.546789-4.266305,5.688407c0,.909836.16105,1.769112.4459,2.531756h7.64081Z" fill="#ccc"/><path id="uuid-40700c74-ff9b-4d09-9e18-3e4c9059b991" d="M296.070968,264c.757379,1.584093,2.085717,2.635679,3.599096,2.635679s2.841717-1.051586,3.599096-2.635679h-7.198192Z" fill="#ccc"/><circle id="uuid-6e06ac07-4a7f-43e4-b0df-75035173d390" cx="300.5" cy="261.5" r=".5" fill="#333"/><circle id="uuid-6e84c050-57f5-4155-a1d1-429a9a022883" cx="298.5" cy="261.5" r=".5" fill="#333"/><rect id="uuid-83908069-1647-4b40-a0a4-226a32de1bec" x="303.892112" y="270.076368" width="2.133149" height="4.550725" transform="translate(-10.31235 12.006884) rotate(-2.218075)" fill="#727272"/><rect id="uuid-583d31d3-2b48-4e24-b87f-cdc80c5c491b" x="303.715981" y="265.529053" width="2.133149" height="4.550725" transform="translate(-10.136487 11.99666) rotate(-2.218075)" fill="#727272"/><rect id="uuid-383fafac-68b4-4288-9d74-63249231dae2" x="292.224762" y="266.699857" width="4.550725" height="2.133149" transform="translate(14.14088 550.304711) rotate(-87.499645)" fill="#727272"/><rect id="uuid-aaf1ec7d-d96a-4c3d-b845-84a7fc41932e" x="292.026238" y="271.24625" width="4.550725" height="2.133149" transform="translate(9.408952 554.45443) rotate(-87.499645)" fill="#727272"/><rect id="uuid-926a25ff-f84d-46f7-b7df-7888f84cfb0c" x="303.954901" y="274.670964" width="2.275363" height="2.275363" transform="translate(-10.446269 12.014927) rotate(-2.218124)" fill="#ccc"/><rect id="uuid-981bd568-ea1b-4109-b054-c68f48fdf723" x="293.015026" y="274.584938" width="2.275363" height="2.275363" transform="translate(5.860248 557.566966) rotate(-87.499694)" fill="#ccc"/><circle id="uuid-c07c885c-e8a9-473b-9c30-cb382cbf8429" cx="299.5" cy="272.5" r=".5" fill="#333"/><circle id="uuid-e3283ead-45f6-48ce-9320-43282b2e6a15" cx="299.5" cy="270.5" r=".5" fill="#333"/><circle id="uuid-877d754e-5741-46e9-8204-f8c41240fb85" cx="299.5" cy="269.5" r=".5" fill="#333"/><circle id="uuid-c871e13d-df3e-4eec-96a9-60ee1fdb0d26" cx="299.5" cy="268.5" r=".5" fill="#333"/><path d="M304.438392,258.152303c-.256858-1.985891-2.293408-3.532795-4.768328-3.532795s-4.511471,1.546904-4.768328,3.532795c-.827243.11828-1.32277.267907-1.32277.430784,0,.382589,2.727078.692736,6.091098.692736s6.091098-.310147,6.091098-.692736c0-.162877-.495527-.312504-1.32277-.430784Z" fill="#6a6a6a"/><polygon id="uuid-7a401b2f-c948-4556-afb5-d512a405e090" points="303 287 301 287 301 291.994256 301 293 305 293 305 292 303 292 303 287" fill="none" stroke="#000" stroke-linecap="round" stroke-linejoin="round"/><rect id="uuid-80c86b9e-1826-43d9-a95e-cca4ac58c569" x="300" y="280" width="4" height="7" fill="none" stroke="#000" stroke-linecap="round" stroke-linejoin="round"/><polygon id="uuid-ce062629-7a58-4722-8aa2-85b9824ebf0f" points="298.999996 287 296 287 296 292 295 292 295 293 299 293 299 291.994256 298.999996 291.994256 298.999996 287" fill="none" stroke="#000" stroke-linecap="round" stroke-linejoin="round"/><rect id="uuid-4b2054e0-dcad-49ab-ae03-114991591835" x="295" y="280" width="4" height="7" fill="none" stroke="#000" stroke-linecap="round" stroke-linejoin="round"/><path id="uuid-0aeaa34b-95bd-45f3-b426-9a1459fbbb0a" d="M296,266v14h8v-14h-8Z" fill="none" stroke="#000" stroke-linecap="round" stroke-linejoin="round"/><rect id="uuid-639dc775-53fa-40de-9c90-d21efb11f050" x="296" y="274" width="8" height="2" fill="none" stroke="#000" stroke-linecap="round" stroke-linejoin="round"/><rect id="uuid-8ad27054-553b-4a88-abb0-bda1e96dba9a" x="301" y="266" width="1" height="8" fill="none" stroke="#000" stroke-linecap="round" stroke-linejoin="round"/><rect id="uuid-df0f8301-589b-4482-8395-e2b32422caff" x="297" y="266" width="1" height="8" fill="none" stroke="#000" stroke-linecap="round" stroke-linejoin="round"/><path id="uuid-3f222878-dd90-4d7e-8e29-ef38c18d4033" d="M303.490469,264c.28485-.762644.4459-1.62192.4459-2.531756,0-3.141617-1.91009-5.688407-4.266305-5.688407s-4.266305,2.546789-4.266305,5.688407c0,.909836.16105,1.769112.4459,2.531756h7.64081Z" fill="none" stroke="#000" stroke-linecap="round" stroke-linejoin="round"/><path id="uuid-72470271-8f1a-4de9-b363-35993b0fdda4" d="M296.070968,264c.757379,1.584093,2.085717,2.635679,3.599096,2.635679s2.841717-1.051586,3.599096-2.635679h-7.198192Z" fill="none" stroke="#000" stroke-linecap="round" stroke-linejoin="round"/><circle id="uuid-044632e0-9890-4ae2-bd99-87cc5f8bac45" cx="300.5" cy="261.5" r=".5" fill="none" stroke="#000" stroke-linecap="round" stroke-linejoin="round"/><circle id="uuid-7fcf084c-969c-4e2a-a6e7-368bf6aa1ad7" cx="298.5" cy="261.5" r=".5" fill="none" stroke="#000" stroke-linecap="round" stroke-linejoin="round"/><rect id="uuid-2919bc5c-b6b0-4fa3-a829-b66c41a636f2" x="303.892112" y="270.076368" width="2.133149" height="4.550725" transform="translate(-10.31235 12.006884) rotate(-2.218075)" fill="none" stroke="#000" stroke-linecap="round" stroke-linejoin="round"/><rect id="uuid-f93b8156-f11a-4ac3-ad94-90aa11ca7b28" x="303.715981" y="265.529053" width="2.133149" height="4.550725" transform="translate(-10.136487 11.99666) rotate(-2.218075)" fill="none" stroke="#000" stroke-linecap="round" stroke-linejoin="round"/><rect id="uuid-33a4bb69-bb4c-46a3-93ce-753d804e7977" x="292.224762" y="266.699857" width="4.550725" height="2.133149" transform="translate(14.14088 550.304711) rotate(-87.499645)" fill="none" stroke="#000" stroke-linecap="round" stroke-linejoin="round"/><rect id="uuid-e88eaf1a-c0f5-40f3-9ff8-826debbed49e" x="292.026238" y="271.24625" width="4.550725" height="2.133149" transform="translate(9.408952 554.45443) rotate(-87.499645)" fill="none" stroke="#000" stroke-linecap="round" stroke-linejoin="round"/><rect id="uuid-3acade46-669b-4b01-87fd-7dee64c9869c" x="303.954901" y="274.670964" width="2.275363" height="2.275363" transform="translate(-10.446269 12.014927) rotate(-2.218124)" fill="none" stroke="#000" stroke-linecap="round" stroke-linejoin="round"/><rect id="uuid-2b3308ce-cbe0-4e42-b5c0-18798d16ac5b" x="293.015026" y="274.584938" width="2.275363" height="2.275363" transform="translate(5.860248 557.566966) rotate(-87.499694)" fill="none" stroke="#000" stroke-linecap="round" stroke-linejoin="round"/><circle id="uuid-99fdee15-8907-4e29-bc48-d444799ee303" cx="299.5" cy="272.5" r=".5" fill="none" stroke="#000" stroke-linecap="round" stroke-linejoin="round"/><circle id="uuid-f2cacb99-2c87-4edf-8a0b-ff18dd3b3c39" cx="299.5" cy="270.5" r=".5" fill="none" stroke="#000" stroke-linecap="round" stroke-linejoin="round"/><circle id="uuid-645fbdf9-d67e-43c4-a9bb-267648b0b51d" cx="299.5" cy="269.5" r=".5" fill="none" stroke="#000" stroke-linecap="round" stroke-linejoin="round"/><circle id="uuid-96765a28-58f9-4f00-80f6-7ccb85bbb16d" cx="299.5" cy="268.5" r=".5" fill="none" stroke="#000" stroke-linecap="round" stroke-linejoin="round"/><path d="M304.438392,258.152303c-.256858-1.985891-2.293408-3.532795-4.768328-3.532795s-4.511471,1.546904-4.768328,3.532795c-.827243.11828-1.32277.267907-1.32277.430784,0,.382589,2.727078.692736,6.091098.692736s6.091098-.310147,6.091098-.692736c0-.162877-.495527-.312504-1.32277-.430784Z" fill="none" stroke="#000" stroke-linecap="round" stroke-linejoin="round"/></g><path d="M61.908308,338.210412c-7.44071,14.060917,62.998024,25.575632,199.411044,25.575632s186.933575-15.061205,184.148037-24.336639c-2.78551-9.298163-59.525682-24.132025-202.158392-22.688426-142.594523,1.443607-177.241522,13.617607-181.400689,21.449433Z" fill="#179cf5"/><path d="M385.522001,351.680251c1.259204.693384,19.269545-3.023612,27.168145-4.273975,7.8986-1.238993,20.070849-1.602744,23.390532-5.888079,2.13681-2.784899-4.884154-5.524337-6.944662-5.456138-2.098674.068199-3.128913,2.671231-7.669664,4.421742-6.257826,2.421157-14.385362,2.830367-21.787925,4.899152-5.914423,1.659582-15.797199,5.399309-14.156426,6.297299Z" fill="#0fcaff"/><path d="M102.851299,328.468938c2.251293.841152-6.028883,2.69397-4.655211,4.217136,3.243388,2.830367,8.356493,2.068784,21.101096,5.046927,12.28671,2.853106,10.684095,4.353543,20.18531,6.626932,7.66965,1.841449,18.086658,3.319147,33.616756,2.966774,15.530098-.352373,19.803733-.625186,30.945729-.215975,18.811645.704754,18.010341,2.909936,37.699606,4.285335,8.890688.625186,17.628757-.204605,26.214193-1.727772,7.745966-1.3754,18.086643-3.034973,33.15887-3.10318,15.072198-.068199,34.303577,1.398138,50.940246-.556978,13.584058-1.602744,16.789302-4.137568,26.74841-6.899737,9.959108-2.762169,22.66556-3.023612,25.031306-5.387931,2.78551-2.762169-9.043336-4.285335-10.913045-4.899152-1.869709-.625186-1.640773-1.727772,2.556545-1.659573,4.197318.068199,24.80237,2.557563,23.428698,7.18391-1.068405,3.535121-11.141981,4.762754-16.712971,5.592536-3.510482.522879-11.828817,1.727772-20.643188,5.046927-8.814371,3.319147-13.126187,5.285632-25.031306,6.422327-13.431424,1.273101-28.770753,1.170794-46.361359.89799-14.347225-.227335-26.557611.807052-36.402251,2.284759-10.188043,1.523167-22.322127,2.387057-32.92992,1.864179-16.941921-.829791-22.970812-3.387354-38.958796-4.217136-15.301148-1.102595-27.587865,1.659573-52.390235-.761583-19.155063-1.864179-24.573427-5.319732-29.686532-7.047504-5.113105-1.727772-8.814379-3.387354-20.872146-4.97872-12.057767-1.591374-14.385376-3.932963-14.156426-5.456138.419735-2.625762,6.944662-4.08073,9.501215-4.762754,2.556523-.682032,7.669628-1.102604,8.585407-.761601Z" fill="#76f8ff"/><path d="M61.908308,338.210412c-7.44071,14.060917,62.998024,25.575632,199.411044,25.575632s186.933575-15.061205,184.148037-24.336639c-2.78551-9.298163-59.525682-24.132025-202.158392-22.688426-142.594523,1.443607-177.241522,13.617607-181.400689,21.449433Z" fill="none" stroke="#000" stroke-linecap="round" stroke-linejoin="round"/><path d="M385.522001,351.680251c1.259204.693384,19.269545-3.023612,27.168145-4.273975,7.8986-1.238993,20.070849-1.602744,23.390532-5.888079,2.13681-2.784899-4.884154-5.524337-6.944662-5.456138-2.098674.068199-3.128913,2.671231-7.669664,4.421742-6.257826,2.421157-14.385362,2.830367-21.787925,4.899152-5.914423,1.659582-15.797199,5.399309-14.156426,6.297299Z" fill="none" stroke="#000" stroke-linecap="round" stroke-linejoin="round"/><path d="M102.851299,328.468938c2.251293.841152-6.028883,2.69397-4.655211,4.217136,3.243388,2.830367,8.356493,2.068784,21.101096,5.046927,12.28671,2.853106,10.684095,4.353543,20.18531,6.626932,7.66965,1.841449,18.086658,3.319147,33.616756,2.966774,15.530098-.352373,19.803733-.625186,30.945729-.215975,18.811645.704754,18.010341,2.909936,37.699606,4.285335,8.890688.625186,17.628757-.204605,26.214193-1.727772,7.745966-1.3754,18.086643-3.034973,33.15887-3.10318,15.072198-.068199,34.303577,1.398138,50.940246-.556978,13.584058-1.602744,16.789302-4.137568,26.74841-6.899737,9.959108-2.762169,22.66556-3.023612,25.031306-5.387931,2.78551-2.762169-9.043336-4.285335-10.913045-4.899152-1.869709-.625186-1.640773-1.727772,2.556545-1.659573,4.197318.068199,24.80237,2.557563,23.428698,7.18391-1.068405,3.535121-11.141981,4.762754-16.712971,5.592536-3.510482.522879-11.828817,1.727772-20.643188,5.046927-8.814371,3.319147-13.126187,5.285632-25.031306,6.422327-13.431424,1.273101-28.770753,1.170794-46.361359.89799-14.347225-.227335-26.557611.807052-36.402251,2.284759-10.188043,1.523167-22.322127,2.387057-32.92992,1.864179-16.941921-.829791-22.970812-3.387354-38.958796-4.217136-15.301148-1.102595-27.587865,1.659573-52.390235-.761583-19.155063-1.864179-24.573427-5.319732-29.686532-7.047504-5.113105-1.727772-8.814379-3.387354-20.872146-4.97872-12.057767-1.591374-14.385376-3.932963-14.156426-5.456138.419735-2.625762,6.944662-4.08073,9.501215-4.762754,2.556523-.682032,7.669628-1.102604,8.585407-.761601Z" fill="none" stroke="#000" stroke-linecap="round" stroke-linejoin="round"/><polygon points="238.814744 284.288852 189 287.685981 189 260 214.014499 260 238.814744 284.288852" fill="#c9e3e6"/><path d="M149.600657,267.81966s-5.856355.201221-9.230902-1.455915c-3.374546-1.657136-2.785336-4.225692-1.660492-4.29671l50.278964-2.604065,20.765081,22.537029,27.103508-.153874,1.946168,1.917545-101.932758,8.853836,12.730431-24.797847Z" fill="#94d1e0"/><polygon points="213.98056 264 199.483727 264 212.098757 278 226.682709 278 213.98056 264" fill="#82aec0"/><path d="M174.910721,265.804269l8.784533-.497138c1.196265-.082856,2.374685.366934,3.071019,1.195507l8.730971,10.570151c.732051.89959-.392807,1.964892-1.910458,1.799171l-18.586786-1.988562-.089279-11.079128Z" fill="#2f7889"/><path d="M172,266.037634l.070983,10.423008-14.143006-1.517572c-1.685798-.176464-2.927977-1.141121-2.927977-2.270475v-5.670304l17-.964657Z" fill="#2f7889"/><path d="M105.30207,317.484967l6.764638-25.740797c.093517-.34897.62346-.614859,1.246944-.681331,211.636705-16.584459,321.3985-16.169017,321.3985-16.169017,1.371633-.099702,2.43153.847506,1.870408,1.71162-4.395459,7.012667-18.42352,19.658729-39.839699,33.069204-30.986428,19.409461-54.802971,23.214914-102.280169,25.325355l-175.257256-.365591-10.754839-6.215012-3.148527-10.93443Z" fill="#c9e3e6"/><path d="M318.154551,325.394978c38.125156-1.811322,53.30664-2.658828,53.30664-2.658828-18.205315,8.84061-42.582969,12.26385-76.936126,12.26385l-175.257268-.365591-3.709651-2.143683-2.712101-1.911037c7.138728-1.495582,170.207169-3.506321,205.308506-5.184711Z" fill="#82aec0"/><path d="M108.232384,305.902723c143.740885-8.49164,303.816663-7.16222,303.816663-7.16222l10.006685-7.594283s-130.273949,1.512216-312.701101,10.519l-1.122247,4.237503Z" fill="#82aec0"/><line x1="198.379829" y1="250.617814" x2="199.147583" y2="259.696541" fill="none" stroke="#000" stroke-linecap="round" stroke-linejoin="round"/><line x1="187.077783" y1="251.091278" x2="187.82768" y2="259.826745" fill="none" stroke="#000" stroke-linecap="round" stroke-linejoin="round"/><path d="M212.056572,259.590015l-.482079-5.610581c-.178545-2.154274-2.392537-3.811411-4.927908-3.70488l-34.88818,1.45591" fill="none" stroke="#000" stroke-linecap="round" stroke-linejoin="round"/><polygon points="238.814744 284.288852 189 287.685981 189 260 214.014499 260 238.814744 284.288852" fill="none" stroke="#000" stroke-linecap="round" stroke-linejoin="round"/><path d="M149.600657,267.81966s-5.856355.201221-9.230902-1.455915c-3.374546-1.657136-2.785336-4.225692-1.660492-4.29671l50.278964-2.604065,20.765081,22.537029,27.103508-.153874,1.946168,1.917545-101.932758,8.853836,12.730431-24.797847Z" fill="none" stroke="#000" stroke-linecap="round" stroke-linejoin="round"/><polygon points="213.98056 264 199.483727 264 212.098757 278 226.682709 278 213.98056 264" fill="none" stroke="#000" stroke-linecap="round" stroke-linejoin="round"/><path d="M174.910721,265.804269l8.784533-.497138c1.196265-.082856,2.374685.366934,3.071019,1.195507l8.730971,10.570151c.732051.89959-.392807,1.964892-1.910458,1.799171l-18.586786-1.988562-.089279-11.079128Z" fill="none" stroke="#000" stroke-linecap="round" stroke-linejoin="round"/><path d="M172,266.037634l.070983,10.423008-14.143006-1.517572c-1.685798-.176464-2.927977-1.141121-2.927977-2.270475v-5.670304l17-.964657Z" fill="none" stroke="#000" stroke-linecap="round" stroke-linejoin="round"/><path d="M105.30207,317.484967l6.764638-25.740797c.093517-.34897.62346-.614859,1.246944-.681331,211.636705-16.584459,321.3985-16.169017,321.3985-16.169017,1.371633-.099702,2.43153.847506,1.870408,1.71162-4.395459,7.012667-18.42352,19.658729-39.839699,33.069204-30.986428,19.409461-54.802971,23.214914-102.280169,25.325355l-175.257256-.365591-10.754839-6.215012-3.148527-10.93443Z" fill="none" stroke="#000" stroke-linecap="round" stroke-linejoin="round"/><path d="M318.154551,325.394978c38.125156-1.811322,53.30664-2.658828,53.30664-2.658828-18.205315,8.84061-42.582969,12.26385-76.936126,12.26385l-175.257268-.365591-3.709651-2.143683-2.712101-1.911037c7.138728-1.495582,170.207169-3.506321,205.308506-5.184711Z" fill="none" stroke="#000" stroke-linecap="round" stroke-linejoin="round"/><path d="M108.232384,305.902723c143.740885-8.49164,303.816663-7.16222,303.816663-7.16222l10.006685-7.594283s-130.273949,1.512216-312.701101,10.519l-1.122247,4.237503Z" fill="none" stroke="#000" stroke-linecap="round" stroke-linejoin="round"/><path d="M206.684809,405.750193c-.185285-.436993-.363578-.873985-.538375-1.310978-1.31797-3.324639.33561-6.324158,1.810898-9.26075l2.139516-4.251065c.430001-.856506,1.090734-1.576669,1.901793-2.080086l6.152858-3.817569,6.079443-6.285704c.377562-.391545.860001-.667725,1.387889-.793579h0l4.139195-.999839c2.003176-.478944,2.863177-.402033,3.509926.5174,2.2409,3.181307,3.740657,5.799768,5.736842,8.970587,1.087238,1.726995,3.597325,5.69489,3.754641,5.957085.482439.811058.286667,1.489272.269186,2.419191-.041952,2.143011.33561,4.296513,1.1187,6.292696.234227.594309.503416,1.181627.625774,1.807401.11187.562847-.038456,4.139197-.153822,5.348792-.094389.982359-2.415695,4.649604-3.24773,5.093587-.915938.489432-7.705056,2.985535-9.204816,3.41204-1.499759.426505-8.002211-1.05927-11.379291-1.576671-2.087078-.318132-4.177651-.639758-6.264728-.957887-1.810898-.27618-3.611308-.066424-4.625131-1.8948-1.192114-2.139517-2.261872-4.338465-3.212768-6.589853Z" fill="#8e8884"/><path d="M214.519215,414.231349c2.087078.318132,4.177651.639758,6.264729.957887,1.087238.167806,2.499599.433496,3.964398.706179-.985856-1.167643-2.457647-2.552039-3.443504-3.719682-.213253-.251708-.430001-.513904-.506912-.83553-.080407-.342603.010487-.695692.104878-1.034799.300651-1.11171.377562-2.317809.678212-3.429518-1.863336.433496-6.156354,1.258539-6.509444,1.157156-.391546-.11187-.709676-.39504-1.013823-.67122-2.212931-2.020654-3.943423-4.058789-5.635459-6.523426-.199269-.290164-.402033-.590815-.475448-.936913-.069919-.325123-.01748-.660733.03496-.985856.125854-.811058.405529-3.058949.62927-5.041148l-.657237,1.303986c-1.471791,2.93659-3.125372,5.936109-1.803906,9.260748.174797.440489.35309.877482.538375,1.310978.9474,2.251387,2.020655,4.450335,3.205779,6.582859,1.010327,1.831873,2.814233,1.622117,4.625131,1.898297Z" fill="#aea298"/><path d="M233.29592,377.506478c-.430002-.506912-1.269026-.409025-2.150005.395041l-3.167323,3.167323c-.195772.195773-.300651.46496-.28317.741139l.339104,6.467493c.010487.216748.090895.419513.230733.583822,1.125694,1.314474,5.104075,7.631641,6.257737,7.631641,1.150165,0,3.160332-4.481798,4.184643-4.457326.174797.003495,1.087238.05943,1.978702.332115.832033.251708,1.157156-.891465.985856-1.702523-.860001-1.363418-2.017157-3.191795-2.667403-4.226594-1.989192-3.156835-3.485455-5.768303-5.708874-8.93213Z" fill="#aea298"/><path d="M218.557028,390.238699c1.164149-.174797,5.04814-.83553,5.778792-1.122197,1.426345-.562847,2.684884-2.961063,3.516917-4.251065,0,0,.286667,4.205618,0,5.848711-.199269,1.143173-.950897,7.121233-1.706019,8.554569l-4.565699,7.60717c-2.237403-2.237403-4.47131-4.47131-6.708714-6.708714-.569838-.569838-.933417-.870489-1.139677-1.678053-.471952-1.845857-1.328458-4.569196-1.331954-6.173833-.003496-1.604637,4.320984-1.803903,6.156354-2.076588Z" fill="#aea298"/><path d="M227.04168,381.2786c-.44748-.534879-.573334-1.293499-.419512-1.971711.129351-.566343,1.303988-1.660572,1.685044-2.006671l-2.688379.650245c-.527887.12935-1.010327.402033-1.387889.793579l-6.079446,6.285704s5.887166-2.454151,8.890182-3.751146Z" fill="url(#uuid-ad996cc3-0d33-48b2-8e82-0bc869a5516c)"/><path d="M244.769602,402.914984c-.045446-.227237-.11187-.450977-.188781-.67122-.05943.206259-.188781.433496-.468455.646749-.804068.615287-3.904967,1.562686-7.317007,4.551718-2.226916,1.950736-2.23041,2.212932-2.709355,4.362934-.78309,3.520413-2.027647,4.799927-2.265372,5.016676.129351-.013984.244715-.031462.339107-.05943,1.503256-.423009,8.288878-2.922608,9.204816-3.41204.832033-.443983,3.153341-4.111229,3.24773-5.093587.118861-1.202602.269186-4.778952.157316-5.341799Z" fill="#aea298"/><path d="M206.684809,405.750193c-.185285-.436993-.363578-.873985-.538375-1.310978-1.31797-3.324639.33561-6.324158,1.810898-9.26075l2.139516-4.251065c.430001-.856506,1.090734-1.576669,1.901793-2.080086l6.152858-3.817569,6.079443-6.285704c.377562-.391545.860001-.667725,1.387889-.793579h0l4.139195-.999839c2.003176-.478944,2.863177-.402033,3.509926.5174,2.2409,3.181307,3.740657,5.799768,5.736842,8.970587,1.087238,1.726995,3.597325,5.69489,3.754641,5.957085.482439.811058.286667,1.489272.269186,2.419191-.041952,2.143011.33561,4.296513,1.1187,6.292696.234227.594309.503416,1.181627.625774,1.807401.11187.562847-.038456,4.139197-.153822,5.348792-.094389.982359-2.415695,4.649604-3.24773,5.093587-.915938.489432-7.705056,2.985535-9.204816,3.41204-1.499759.426505-8.002211-1.05927-11.379291-1.576671-2.087078-.318132-4.177651-.639758-6.264728-.957887-1.810898-.27618-3.611308-.066424-4.625131-1.8948-1.192114-2.139517-2.261872-4.338465-3.212768-6.589853Z" fill="none" stroke="#000" stroke-linecap="round" stroke-linejoin="round"/><path d="M214.519215,414.231349c2.087078.318132,4.177651.639758,6.264729.957887,1.087238.167806,2.499599.433496,3.964398.706179-.985856-1.167643-2.457647-2.552039-3.443504-3.719682-.213253-.251708-.430001-.513904-.506912-.83553-.080407-.342603.010487-.695692.104878-1.034799.300651-1.11171.377562-2.317809.678212-3.429518-1.863336.433496-6.156354,1.258539-6.509444,1.157156-.391546-.11187-.709676-.39504-1.013823-.67122-2.212931-2.020654-3.943423-4.058789-5.635459-6.523426-.199269-.290164-.402033-.590815-.475448-.936913-.069919-.325123-.01748-.660733.03496-.985856.125854-.811058.405529-3.058949.62927-5.041148l-.657237,1.303986c-1.471791,2.93659-3.125372,5.936109-1.803906,9.260748.174797.440489.35309.877482.538375,1.310978.9474,2.251387,2.020655,4.450335,3.205779,6.582859,1.010327,1.831873,2.814233,1.622117,4.625131,1.898297Z" fill="none" stroke="#000" stroke-linecap="round" stroke-linejoin="round"/><path d="M233.29592,377.506478c-.430002-.506912-1.269026-.409025-2.150005.395041l-3.167323,3.167323c-.195772.195773-.300651.46496-.28317.741139l.339104,6.467493c.010487.216748.090895.419513.230733.583822,1.125694,1.314474,5.104075,7.631641,6.257737,7.631641,1.150165,0,3.160332-4.481798,4.184643-4.457326.174797.003495,1.087238.05943,1.978702.332115.832033.251708,1.157156-.891465.985856-1.702523-.860001-1.363418-2.017157-3.191795-2.667403-4.226594-1.989192-3.156835-3.485455-5.768303-5.708874-8.93213Z" fill="none" stroke="#000" stroke-linecap="round" stroke-linejoin="round"/><path d="M218.557028,390.238699c1.164149-.174797,5.04814-.83553,5.778792-1.122197,1.426345-.562847,2.684884-2.961063,3.516917-4.251065,0,0,.286667,4.205618,0,5.848711-.199269,1.143173-.950897,7.121233-1.706019,8.554569l-4.565699,7.60717c-2.237403-2.237403-4.47131-4.47131-6.708714-6.708714-.569838-.569838-.933417-.870489-1.139677-1.678053-.471952-1.845857-1.328458-4.569196-1.331954-6.173833-.003496-1.604637,4.320984-1.803903,6.156354-2.076588Z" fill="none" stroke="#000" stroke-linecap="round" stroke-linejoin="round"/><path d="M227.04168,381.2786c-.44748-.534879-.573334-1.293499-.419512-1.971711.129351-.566343,1.303988-1.660572,1.685044-2.006671l-2.688379.650245c-.527887.12935-1.010327.402033-1.387889.793579l-6.079446,6.285704s5.887166-2.454151,8.890182-3.751146Z" fill="none" stroke="#000" stroke-linecap="round" stroke-linejoin="round"/><path d="M244.143828,401.107582c-.587318-1.496263-.9474-3.079924-1.069757-4.681066-2.00667,1.373905-3.128867,3.156835-6.359119,3.593828-.856505.115367-2.181467.27618-3.016997.496423-1.034799.272683-1.992686,1.038295-3.544885,1.181627-1.104719.104879-3.890982.024471-3.47147.646749s2.919111,1.877322,3.541388,2.384232c.884473.709676,1.653582,1.545206,2.391226,2.405207.384553.450977.961384,1.545206,1.632604,1.84236.1713.076911.353091.097886.534879.041952.318132-.094389.573334-.325123.821546-.545366,2.401713-2.12903,5.118059-3.904967,8.030179-5.250904.311139-.143335.646749-.304148.800571-.61179.066424-.136342.094389-.321626.097886-.520895-.12236-.328617-.258702-.653739-.38805-.982359Z" fill="none" stroke="#000" stroke-linecap="round" stroke-linejoin="round"/><path d="M244.769602,402.914984c-.045446-.227237-.11187-.450977-.188781-.67122-.05943.206259-.188781.433496-.468455.646749-.804068.615287-3.904967,1.562686-7.317007,4.551718-2.226916,1.950736-2.23041,2.212932-2.709355,4.362934-.78309,3.520413-2.027647,4.799927-2.265372,5.016676.129351-.013984.244715-.031462.339107-.05943,1.503256-.423009,8.288878-2.922608,9.204816-3.41204.832033-.443983,3.153341-4.111229,3.24773-5.093587.118861-1.202602.269186-4.778952.157316-5.341799Z" fill="none" stroke="#000" stroke-linecap="round" stroke-linejoin="round"/><g id="uuid-8eec2f09-32ad-4948-b91f-f11eac76ab83"><polygon id="uuid-4ed90038-650d-45c1-89e5-a05019c075cd" points="214.718423 348.169894 197.053446 354.396024 207.874518 385.097918 210.053666 391.28067 236.551174 381.94146 234.372025 375.758709 225.539495 378.871788 214.718423 348.169894" fill="#5f4d2f"/><rect id="uuid-58be68b5-8492-4dc0-88d2-ad708e8c777e" x="179.560661" y="315.704563" width="23.316197" height="46.025937" transform="translate(-181.121144 226.213413) rotate(-43.741222)" fill="#726038"/><polygon id="uuid-b17af166-5884-4bb5-83a5-6bffe4920d0a" points="156.999972 377 138 377 138 410 129 410 129 416 157 416 157 409.462664 156.999972 409.462664 156.999972 377" fill="#5f4d2f"/><rect id="uuid-e88df41f-86b4-4373-b17a-6febe5082d12" x="135.999982" y="331" width="23.000035" height="46" fill="#726038"/><path id="uuid-3db9a18d-97da-4b24-8c21-f70fd986dc0b" d="M136,237v94h52v-94h-52Z" fill="#726038"/><rect id="uuid-57859286-8327-42dc-9f36-dbed8a7f23cb" x="136" y="292" width="52" height="16" fill="#ac935a"/><rect id="uuid-1aec2764-1368-4f81-893b-64e61f0f579f" x="174" y="237" width="6" height="55" fill="#ac935a"/><rect id="uuid-59d4152e-3679-4438-9767-d183551d3bf8" x="145" y="237" width="6" height="55" fill="#ac935a"/><path id="uuid-6497e966-deca-42bd-809e-eac9b51aa3f0" d="M187.963112,222.15207c1.373658-5.182201,1.873504-10.917638,1.285212-16.880289-2.031343-20.588728-16.195932-36.044177-31.637493-34.520669-15.44156,1.523508-26.312687,19.449052-24.281344,40.037781.588292,5.962651,2.199339,11.489822,4.559235,16.303659l50.07439-4.940482Z" fill="#eec6a2"/><path id="uuid-59c0ce4c-7168-4c69-bcf2-5d02f732b999" d="M138.79622,231c4.987619,10.43183,13.735208,17.356909,23.701358,17.356909s18.713739-6.925078,23.701358-17.356909h-47.402716Z" fill="#eec6a2"/><ellipse id="uuid-8f46ba78-0839-4e7a-a1f3-bafdf45aa53c" cx="180" cy="210" rx="3" ry="4" fill="#333"/><ellipse id="uuid-9ac9e9bc-9ddb-4270-b97c-1518530a82b8" cx="165" cy="212" rx="3" ry="4" fill="#333"/><rect id="uuid-64916403-c70f-4207-b543-0fc251d1fdd2" x="191.493773" y="266.720997" width="14.047561" height="29.968179" transform="translate(-26.700167 20.852727) rotate(-5.634698)" fill="#726038"/><rect id="uuid-269ea7e8-9e2f-410f-b030-f74ebf52597b" x="188.566764" y="237.054053" width="14.047561" height="29.968179" transform="translate(-23.801443 20.42199) rotate(-5.634698)" fill="#726038"/><rect id="uuid-4165fc3f-956f-4f10-ad1f-4c969096e719" x="112.921013" y="245.014363" width="29.968179" height="14.047561" transform="translate(-133.6869 359.054799) rotate(-85.342327)" fill="#726038"/><rect id="uuid-a444e036-a944-459e-afb8-5718799478b1" x="110.504009" y="274.681306" width="29.968179" height="14.047561" transform="translate(-165.476611 383.903699) rotate(-85.342327)" fill="#726038"/><rect id="uuid-1b83c3f8-d485-431f-b31e-d3326b9206f7" x="193.243055" y="296.689173" width="14.984092" height="14.984092" transform="translate(-28.896434 21.179182) rotate(-5.634728)" fill="#eec6a2"/><rect id="uuid-32014dbe-e855-4647-aac4-071d20e5006d" x="116.164894" y="296.689173" width="14.984092" height="14.984092" transform="translate(-189.560932 402.729773) rotate(-85.342357)" fill="#eec6a2"/><circle id="uuid-0251dab5-2f05-4e8f-af4a-cdb92fa622c0" cx="162" cy="281" r="2" fill="#333"/><circle id="uuid-06676586-f5be-4dd0-830b-43af3494eed4" cx="162" cy="273" r="2" fill="#333"/><circle id="uuid-56ba3cfc-7ef5-47e8-b5e9-175e60ab686d" cx="162" cy="266" r="2" fill="#333"/><circle id="uuid-e249844c-ed7c-4316-a56e-0187edff8e0e" cx="162" cy="257" r="2" fill="#333"/><path d="M190.409551,183.370608c-2.967387-12.848541-17.314226-21.669431-33.533726-20.069169-16.2195,1.600262-28.565909,13.054785-28.965177,26.235489-5.344896,1.310041-8.495604,2.611032-8.390289,3.678452.247379,2.507315,18.319943,2.776574,40.366199.601427,22.046256-2.175146,39.717743-5.971015,39.470364-8.47833-.105315-1.06742-3.449518-1.727605-8.947372-1.967869Z" fill="#596a66"/><polygon id="uuid-61a78d86-31a7-461f-82ea-f0db2cdb9fd3" points="214.718423 348.169894 197.053446 354.396024 207.874518 385.097918 210.053666 391.28067 236.551174 381.94146 234.372025 375.758709 225.539495 378.871788 214.718423 348.169894" fill="none" stroke="#000" stroke-linecap="round" stroke-linejoin="round"/><rect id="uuid-9a76e62a-41fe-4a28-9cd2-ec3652bd07d3" x="179.560661" y="315.704563" width="23.316197" height="46.025937" transform="translate(-181.121144 226.213413) rotate(-43.741222)" fill="none" stroke="#000" stroke-linecap="round" stroke-linejoin="round"/><polygon id="uuid-c9f63176-9867-4b34-936b-1c16678c0867" points="156.999972 377 138 377 138 410 129 410 129 416 157 416 157 409.462664 156.999972 409.462664 156.999972 377" fill="none" stroke="#000" stroke-linecap="round" stroke-linejoin="round"/><rect id="uuid-95f90323-bffa-4e99-92f5-3946d7d23b9f" x="135.999982" y="331" width="23.000035" height="46" fill="none" stroke="#000" stroke-linecap="round" stroke-linejoin="round"/><path id="uuid-8e4cdb79-d9f4-4071-a82d-8aa76236da68" d="M136,237v94h52v-94h-52Z" fill="none" stroke="#000" stroke-linecap="round" stroke-linejoin="round"/><rect id="uuid-255e76d3-270f-4d8c-b68a-91e7fc925fc9" x="136" y="292" width="52" height="16" fill="none" stroke="#000" stroke-linecap="round" stroke-linejoin="round"/><rect id="uuid-3ea5e3a6-afeb-46d1-a293-571e6867a3e5" x="174" y="237" width="6" height="55" fill="none" stroke="#000" stroke-linecap="round" stroke-linejoin="round"/><rect id="uuid-982966b4-eb38-443e-a63e-ec0c458e4259" x="145" y="237" width="6" height="55" fill="none" stroke="#000" stroke-linecap="round" stroke-linejoin="round"/><path id="uuid-3599e61f-d435-4c8c-88f3-b93e75154732" d="M187.963112,222.15207c1.373658-5.182201,1.873504-10.917638,1.285212-16.880289-2.031343-20.588728-16.195932-36.044177-31.637493-34.520669-15.44156,1.523508-26.312687,19.449052-24.281344,40.037781.588292,5.962651,2.199339,11.489822,4.559235,16.303659l50.07439-4.940482Z" fill="none" stroke="#000" stroke-linecap="round" stroke-linejoin="round"/><path id="uuid-91d6aa4e-8bd3-4c38-ba30-02da93167443" d="M138.79622,231c4.987619,10.43183,13.735208,17.356909,23.701358,17.356909s18.713739-6.925078,23.701358-17.356909h-47.402716Z" fill="none" stroke="#000" stroke-linecap="round" stroke-linejoin="round"/><ellipse id="uuid-bc563fc7-6c47-41d6-a80d-f1ce01f50134" cx="180" cy="210" rx="3" ry="4" fill="none" stroke="#000" stroke-linecap="round" stroke-linejoin="round"/><ellipse id="uuid-de13d2b4-9ba6-4bcf-931f-5e625d955bf5" cx="165" cy="212" rx="3" ry="4" fill="none" stroke="#000" stroke-linecap="round" stroke-linejoin="round"/><rect id="uuid-4cd2ef05-52a4-4b96-a2df-3882a0d06b28" x="191.493773" y="266.720997" width="14.047561" height="29.968179" transform="translate(-26.700167 20.852727) rotate(-5.634698)" fill="none" stroke="#000" stroke-linecap="round" stroke-linejoin="round"/><rect id="uuid-7b5cf984-3dd7-4337-8102-4e7ddb30f2b9" x="188.566764" y="237.054053" width="14.047561" height="29.968179" transform="translate(-23.801443 20.42199) rotate(-5.634698)" fill="none" stroke="#000" stroke-linecap="round" stroke-linejoin="round"/><rect id="uuid-f9633d75-3003-4902-801d-953569148a0f" x="112.921013" y="245.014363" width="29.968179" height="14.047561" transform="translate(-133.6869 359.054799) rotate(-85.342327)" fill="none" stroke="#000" stroke-linecap="round" stroke-linejoin="round"/><rect id="uuid-6b1cb0fa-930d-443f-8eb3-020225936dda" x="110.504009" y="274.681306" width="29.968179" height="14.047561" transform="translate(-165.476611 383.903699) rotate(-85.342327)" fill="none" stroke="#000" stroke-linecap="round" stroke-linejoin="round"/><rect id="uuid-ace748d6-9c08-4ca4-9ed0-6c315057e304" x="193.243055" y="296.689173" width="14.984092" height="14.984092" transform="translate(-28.896434 21.179182) rotate(-5.634728)" fill="none" stroke="#000" stroke-linecap="round" stroke-linejoin="round"/><rect id="uuid-16b7a7f2-8b67-4df9-8b84-d9b5f16994a3" x="116.164894" y="296.689173" width="14.984092" height="14.984092" transform="translate(-189.560932 402.729773) rotate(-85.342357)" fill="none" stroke="#000" stroke-linecap="round" stroke-linejoin="round"/><circle id="uuid-0aacabf9-9bb3-4ab3-9791-855f71265212" cx="162" cy="281" r="2" fill="none" stroke="#000" stroke-linecap="round" stroke-linejoin="round"/><circle id="uuid-7bb9ba1c-e627-4bcd-ad00-8d056c40cf3e" cx="162" cy="273" r="2" fill="none" stroke="#000" stroke-linecap="round" stroke-linejoin="round"/><circle id="uuid-b4f17026-e403-4bdf-9b15-69b333593c75" cx="162" cy="266" r="2" fill="none" stroke="#000" stroke-linecap="round" stroke-linejoin="round"/><circle id="uuid-961726f1-1574-41a0-94a0-30f3e548051a" cx="162" cy="257" r="2" fill="none" stroke="#000" stroke-linecap="round" stroke-linejoin="round"/><path d="M190.409551,183.370608c-2.967387-12.848541-17.314226-21.669431-33.533726-20.069169-16.2195,1.600262-28.565909,13.054785-28.965177,26.235489-5.344896,1.310041-8.495604,2.611032-8.390289,3.678452.247379,2.507315,18.319943,2.776574,40.366199.601427,22.046256-2.175146,39.717743-5.971015,39.470364-8.47833-.105315-1.06742-3.449518-1.727605-8.947372-1.967869Z" fill="none" stroke="#000" stroke-linecap="round" stroke-linejoin="round"/></g><path d="M214.708001,219.41554c3.164254-.974267,16.025034-6.044658,29.548942-39.929187,6.004122-15.043493,10.070302-30.583241,12.497145-41.101534" fill="none" stroke="#333" stroke-miterlimit="10" stroke-width="2"/><text transform="translate(124.063965 118.71875)" fill="#333" font-family="ComicNeue-Bold, &apos;Comic Neue&apos;" font-size="24" font-weight="700"><tspan x="0" y="0">It will be over by Christmas.</tspan></text><text transform="translate(70.841309 78.291992)" fill="#333" font-family="ComicNeue-Regular, &apos;Comic Neue&apos;" font-size="24"><tspan x="0" y="0">But everyone was confident...</tspan></text><rect x="369" y="151" width="3" height="125" fill="#666"/><rect id="uuid-1bfaa861-3e6d-4d9c-bac7-9ef064e49c86" x="372" y="153" width="66" height="33" fill="#ce1126"/><rect id="uuid-c84fe6da-6e5c-469a-9b3b-28269d449306" x="372" y="153" width="33" height="17" fill="#002369"/><path id="uuid-f694e08e-bfcd-4f41-bc46-55823b0dec26" d="M372,153v1.900657l29.310492,15.099343h3.689508v-1.900657l-29.31049-15.099343h-3.68951ZM405,153v1.900629l-29.31049,15.099371h-3.68951v-1.900714l29.310492-15.099286h3.689508Z" fill="#fff"/><path id="uuid-48325901-444f-49ce-b73d-f5e35dc85eae" d="M386,153v17h6v-17h-6ZM372,158v6h33v-6h-33Z" fill="#fff"/><path id="uuid-38f07c49-bb04-47ad-88b9-0840f894ef2d" d="M372,160v3h33v-3h-33ZM387,153v17h3v-17h-3Z" fill="#ce1126"/><path id="uuid-f84be01c-209a-4e67-be94-b4cbfc126b89" d="M371.538691,170l11.999999-6h2.68326l-11.999975,6h-2.683284ZM372,152.479166l11.041667,5.520834h-2.468972l-8.572695-4.286337v-1.234497ZM391.153053,159l11.999998-6h2.683259l-11.999998,6h-2.683259ZM405,169.520834l-11.041666-5.520834h2.468971l8.572695,4.28632v1.234514Z" fill="#ce1126"/><rect x="369" y="151" width="3" height="125" fill="none" stroke="#000" stroke-linecap="round" stroke-linejoin="round"/><rect id="uuid-3bce0a1b-1c33-4e1a-9c44-394161817948" x="372" y="153" width="66" height="33" fill="none" stroke="#000" stroke-linecap="round" stroke-linejoin="round"/><rect id="uuid-57641330-1b02-40ec-aa77-17f548831b48" x="372" y="153" width="33" height="17" fill="none" stroke="#000" stroke-linecap="round" stroke-linejoin="round"/><path id="uuid-bb031cc3-4bc1-42f5-93ac-917209736c89" d="M372,153v1.900657l29.310492,15.099343h3.689508v-1.900657l-29.31049-15.099343h-3.68951ZM405,153v1.900629l-29.31049,15.099371h-3.68951v-1.900714l29.310492-15.099286h3.689508Z" fill="none" stroke="#000" stroke-linecap="round" stroke-linejoin="round"/><path id="uuid-ded7a670-aed7-474f-9eb8-6f249ef1347b" d="M386,153v17h6v-17h-6ZM372,158v6h33v-6h-33Z" fill="none" stroke="#000" stroke-linecap="round" stroke-linejoin="round"/><path id="uuid-473a29fe-2221-44d1-b042-67f2828c4f1b" d="M372,160v3h33v-3h-33ZM387,153v17h3v-17h-3Z" fill="none" stroke="#000" stroke-linecap="round" stroke-linejoin="round"/><path id="uuid-5fd04c08-e662-4409-ac4e-1d513fa175dd" d="M371.538691,170l11.999999-6h2.68326l-11.999975,6h-2.683284ZM372,152.479166l11.041667,5.520834h-2.468972l-8.572695-4.286337v-1.234497ZM391.153053,159l11.999998-6h2.683259l-11.999998,6h-2.683259ZM405,169.520834l-11.041666-5.520834h2.468971l8.572695,4.28632v1.234514Z" fill="none" stroke="#000" stroke-linecap="round" stroke-linejoin="round"/></svg>