<?xml version="1.0" encoding="UTF-8"?><svg id="uuid-58b12e36-50a1-4d35-8c1a-c31771ef8c6c" xmlns="http://www.w3.org/2000/svg" viewBox="0 0 500 500"><text transform="translate(177.81 104.92)" fill="#333" font-family="ComicNeue-Regular, &apos;Comic Neue&apos;" font-size="24"><tspan x="0" y="0">22 April 1915</tspan></text><path d="M288.21,272.01c0,.55.46.99,1.01.99h1c.55-.02.99-.47.98-1.01,0-.55-.46-.99-1.01-.99h-.99c-.55.02-.99.47-.99,1.01Z" fill="#434a54"/><path d="M288,269.82v20.5c.32.58.79,1.04,1.37,1.04.58,0,1.04-.48.63-1.06v-20.5c.2-.58-.28-1.04-.86-1.04-.58,0-1.04.48-1.14,1.06Z" fill="#656d78"/><path d="M289.54,278.26l3.06,2.39c.25.2.4.5.4.81l.07,6.67c0,.19-.05.37-.14.53l-3.02,5.3c-.23.4-.7.6-1.15.49-.45-.12-.76-.52-.77-.98l-.15-14.43h0c0-.57.45-1.03,1.01-1.04.26,0,.5.09.68.25Z" fill="#a85d5d"/><path d="M283.26,308.54c0,.4.24.79.64.96l3.16,1.34c.53.23,1.15-.02,1.37-.55s-.02-1.15-.55-1.38l-3.16-1.34c-.53-.23-1.15.02-1.37.56-.06.14-.09.28-.08.42Z" fill="#ed5564"/><path d="M287.56,309.17c.27.18.44.49.44.82l.03,2.99c0,.44-.26.83-.67.99l-7.99,3.09c-.31.12-.65.08-.93-.11-.27-.19-.44-.49-.44-.82l-.03-2.99c0-.44.26-.83.67-.99l7.99-3.09c.31-.12.65-.08.93.11Z" fill="#965353"/><path d="M277.15,295.6c2.18,2.1,4.52,3.43,6.76,3.84,1.61.3,2.65.02,2.73,0,.32-.11.66-.05.93.14s.43.51.43.85l.04,4.19c0,.56-.44,1.03-1,1.06-.28.01-7.05.27-13.38-5.38-.23-.2-.35-.49-.35-.77,0-.2.05-.4.17-.58l2.06-3.17c.17-.26.45-.43.76-.47.31-.03.62.07.85.29Z" fill="#434a54"/><path d="M292.83,314.3c.2.22.31.51.28.81l-.22,3.04,1.08,4.81.03.23.1,9.75c0,.59-.46,1.07-1.05,1.07l-8.5.09c-.33,0-.63-.14-.84-.4-.15-.19-.23-.42-.24-.66,0-.08,0-.16.03-.24l4.07-17.97c.11-.47.53-.81,1.01-.82l3.47-.04c.3,0,.58.12.79.33Z" fill="#a85d5d"/><path d="M286,291.57l.25,23.39c0,.28.12.54.33.74s.49.3.79.3l4.49-.04c.39,0,.74-.22.92-.57l1.09-2.12c.08-.15.12-.32.12-.49l-.27-24.75c0-.39-.23-.74-.6-.92-.36-.18-.8-.16-1.14.06l-5.51,3.53c-.31.2-.49.53-.49.88Z" fill="#656d78"/><path d="M293,308.44v-12.58c-.44-.58.02-1.05,1-1.06v14.68c-.83,0-1.3-.46-1-1.04Z" fill="#434a54"/><path d="M288.21,272.01c0,.55.46.99,1.01.99h1c.55-.02.99-.47.98-1.01,0-.55-.46-.99-1.01-.99h-.99c-.55.02-.99.47-.99,1.01Z" fill="none" stroke="#000" stroke-linecap="round" stroke-linejoin="round"/><path d="M288,269.82v20.5c.32.58.79,1.04,1.37,1.04.58,0,1.04-.48.63-1.06v-20.5c.2-.58-.28-1.04-.86-1.04-.58,0-1.04.48-1.14,1.06Z" fill="none" stroke="#000" stroke-linecap="round" stroke-linejoin="round"/><path d="M289.54,278.26l3.06,2.39c.25.2.4.5.4.81l.07,6.67c0,.19-.05.37-.14.53l-3.02,5.3c-.23.4-.7.6-1.15.49-.45-.12-.76-.52-.77-.98l-.15-14.43h0c0-.57.45-1.03,1.01-1.04.26,0,.5.09.68.25Z" fill="none" stroke="#000" stroke-linecap="round" stroke-linejoin="round"/><path d="M283.26,308.54c0,.4.24.79.64.96l3.16,1.34c.53.23,1.15-.02,1.37-.55s-.02-1.15-.55-1.38l-3.16-1.34c-.53-.23-1.15.02-1.37.56-.06.14-.09.28-.08.42Z" fill="none" stroke="#000" stroke-linecap="round" stroke-linejoin="round"/><path d="M287.56,309.17c.27.18.44.49.44.82l.03,2.99c0,.44-.26.83-.67.99l-7.99,3.09c-.31.12-.65.08-.93-.11-.27-.19-.44-.49-.44-.82l-.03-2.99c0-.44.26-.83.67-.99l7.99-3.09c.31-.12.65-.08.93.11Z" fill="none" stroke="#000" stroke-linecap="round" stroke-linejoin="round"/><path d="M277.15,295.6c2.18,2.1,4.52,3.43,6.76,3.84,1.61.3,2.65.02,2.73,0,.32-.11.66-.05.93.14s.43.51.43.85l.04,4.19c0,.56-.44,1.03-1,1.06-.28.01-7.05.27-13.38-5.38-.23-.2-.35-.49-.35-.77,0-.2.05-.4.17-.58l2.06-3.17c.17-.26.45-.43.76-.47.31-.03.62.07.85.29Z" fill="none" stroke="#000" stroke-linecap="round" stroke-linejoin="round"/><path d="M292.83,314.3c.2.22.31.51.28.81l-.22,3.04,1.08,4.81.03.23.1,9.75c0,.59-.46,1.07-1.05,1.07l-8.5.09c-.33,0-.63-.14-.84-.4-.15-.19-.23-.42-.24-.66,0-.08,0-.16.03-.24l4.07-17.97c.11-.47.53-.81,1.01-.82l3.47-.04c.3,0,.58.12.79.33Z" fill="none" stroke="#000" stroke-linecap="round" stroke-linejoin="round"/><path d="M286,291.57l.25,23.39c0,.28.12.54.33.74s.49.3.79.3l4.49-.04c.39,0,.74-.22.92-.57l1.09-2.12c.08-.15.12-.32.12-.49l-.27-24.75c0-.39-.23-.74-.6-.92-.36-.18-.8-.16-1.14.06l-5.51,3.53c-.31.2-.49.53-.49.88Z" fill="none" stroke="#000" stroke-linecap="round" stroke-linejoin="round"/><path d="M293,308.44v-12.58c-.44-.58.02-1.05,1-1.06v14.68c-.83,0-1.3-.46-1-1.04Z" fill="none" stroke="#000" stroke-linecap="round" stroke-linejoin="round"/><g id="uuid-84abc1e5-ee18-4b89-afb2-7072b3b227e4"><polygon id="uuid-efa50014-5923-4869-8b14-391416805f38" points="273 358 264 358 264 373.82 264 377 277 377 277 374 273 374 273 358" fill="#5f4d2f"/><rect id="uuid-74caacd0-6de0-4f09-8254-e6c577145875" x="263" y="336" width="11" height="22" fill="#726038"/><polygon id="uuid-efe48ee5-8375-4042-a537-0c880501b51e" points="259 358 250 358 250 374 246 374 246 377 259 377 259 373.82 259 373.82 259 358" fill="#5f4d2f"/><rect id="uuid-7f465266-0776-4fab-a7e3-0210339fc230" x="249" y="336" width="11" height="22" fill="#726038"/><path id="uuid-358d32ad-8240-4bc7-af03-fdcc317ad8d5" d="M249,291v45h25v-45h-25Z" fill="#726038"/><rect id="uuid-e6ac0eda-9395-4be1-a302-2d523c613b5d" x="249" y="317" width="25" height="7" fill="#ac935a"/><rect id="uuid-c9cda8a5-2d6f-4469-93ff-e8a7052a2b18" x="267" y="291" width="3" height="26" fill="#ac935a"/><rect id="uuid-05477d22-97c5-4b5d-a648-dc31e3804409" x="253" y="291" width="3" height="26" fill="#ac935a"/><path id="uuid-122f2daf-da85-4c13-b8e8-04953682d1e7" d="M274.01,283.65c.66-2.49.9-5.24.62-8.1-.98-9.88-7.78-17.31-15.19-16.57-7.41.73-12.63,9.34-11.66,19.22.28,2.86,1.06,5.52,2.19,7.83l24.04-2.37Z" fill="#eec6a2"/><path id="uuid-4f3b05d4-d8b3-4ee5-b72f-79b1d69a6499" d="M250.4,288c2.39,5.01,6.59,8.33,11.38,8.33s8.98-3.32,11.38-8.33h-22.76Z" fill="#eec6a2"/><ellipse id="uuid-4381ccbf-9d5a-49c4-b1a7-ca475db6216d" cx="270.5" cy="278" rx="1.5" ry="2" fill="#333"/><ellipse id="uuid-589f8840-f588-4ed0-87c8-8a89f5152a30" cx="263.5" cy="279" rx="1.5" ry="2" fill="#333"/><rect id="uuid-66049025-7a50-4da7-afbe-1f673dd2ecd3" x="275.7" y="305.04" width="6.74" height="14.39" transform="translate(-29.31 28.91) rotate(-5.63)" fill="#726038"/><rect id="uuid-ca00f099-3ddd-4fbc-83e3-f83ab6e7f24e" x="274.3" y="290.8" width="6.74" height="14.39" transform="translate(-27.92 28.7) rotate(-5.63)" fill="#726038"/><rect id="uuid-7b703a90-d52b-43e7-8a2c-a528c4e7a883" x="237.98" y="294.62" width="14.39" height="6.74" transform="translate(-71.74 518.16) rotate(-85.34)" fill="#726038"/><rect id="uuid-44f745de-b5ed-4493-868e-503dfb894358" x="236.82" y="308.87" width="14.39" height="6.74" transform="translate(-87.01 530.09) rotate(-85.34)" fill="#726038"/><rect id="uuid-41617612-b883-4a22-8943-0f9fddf5b25d" x="276.54" y="319.43" width="7.19" height="7.19" transform="translate(-30.36 29.07) rotate(-5.63)" fill="#eec6a2"/><rect id="uuid-98ada89e-4473-4a23-8779-3be75d8c1ab0" x="239.54" y="319.43" width="7.19" height="7.19" transform="translate(-98.57 539.13) rotate(-85.34)" fill="#eec6a2"/><circle id="uuid-5fdc1748-b4d8-485a-954a-3e26003791d9" cx="262" cy="312" r="1" fill="#333"/><circle id="uuid-47a266a9-2608-4be8-994c-e830f349d86f" cx="262" cy="308" r="1" fill="#333"/><circle id="uuid-fcf60a9a-c1fd-4d68-8575-83ef248bfa0f" cx="262" cy="305" r="1" fill="#333"/><circle id="uuid-a5602562-69ec-47b8-97aa-c1adc3ff708c" cx="262" cy="301" r="1" fill="#333"/><path d="M275.18,265.03c-1.42-6.17-8.31-10.4-16.1-9.64-7.79.77-13.71,6.27-13.91,12.6-2.57.63-4.08,1.25-4.03,1.77.12,1.2,8.8,1.33,19.38.29,10.58-1.04,19.07-2.87,18.95-4.07-.05-.51-1.66-.83-4.3-.94Z" fill="#596a66"/><polygon id="uuid-60731de0-84f6-4fdf-862f-c5ce522f5ae9" points="273 358 264 358 264 373.82 264 377 277 377 277 374 273 374 273 358" fill="none" stroke="#000" stroke-linecap="round" stroke-linejoin="round"/><rect id="uuid-8ac4bf8b-604c-4884-8860-7854f0237584" x="263" y="336" width="11" height="22" fill="none" stroke="#000" stroke-linecap="round" stroke-linejoin="round"/><polygon id="uuid-386189ea-061f-4e93-bd15-5ab531a452b7" points="259 358 250 358 250 374 246 374 246 377 259 377 259 373.82 259 373.82 259 358" fill="none" stroke="#000" stroke-linecap="round" stroke-linejoin="round"/><rect id="uuid-b1cffc56-c9a2-415b-9303-0e77d4d0afc6" x="249" y="336" width="11" height="22" fill="none" stroke="#000" stroke-linecap="round" stroke-linejoin="round"/><path id="uuid-4d785764-449e-4139-a67d-e8c1dafc2872" d="M249,291v45h25v-45h-25Z" fill="none" stroke="#000" stroke-linecap="round" stroke-linejoin="round"/><rect id="uuid-40b52d81-659d-4d31-87f3-b7e7bc8cdd8b" x="249" y="317" width="25" height="7" fill="none" stroke="#000" stroke-linecap="round" stroke-linejoin="round"/><rect id="uuid-afe766f7-461e-406b-a0c1-d74bc7430c3e" x="267" y="291" width="3" height="26" fill="none" stroke="#000" stroke-linecap="round" stroke-linejoin="round"/><rect id="uuid-b89c2096-f9bc-43d3-b414-ad8b37c2d8da" x="253" y="291" width="3" height="26" fill="none" stroke="#000" stroke-linecap="round" stroke-linejoin="round"/><path id="uuid-f4e8e22f-3c02-4e2a-affe-e85d861d299b" d="M274.01,283.65c.66-2.49.9-5.24.62-8.1-.98-9.88-7.78-17.31-15.19-16.57-7.41.73-12.63,9.34-11.66,19.22.28,2.86,1.06,5.52,2.19,7.83l24.04-2.37Z" fill="none" stroke="#000" stroke-linecap="round" stroke-linejoin="round"/><path id="uuid-70ce3461-58a2-40fd-9c47-e9b8c0939628" d="M250.4,288c2.39,5.01,6.59,8.33,11.38,8.33s8.98-3.32,11.38-8.33h-22.76Z" fill="none" stroke="#000" stroke-linecap="round" stroke-linejoin="round"/><ellipse id="uuid-8a4d2625-fb5c-42e0-b547-4e382f6ed01e" cx="270.5" cy="278" rx="1.5" ry="2" fill="none" stroke="#000" stroke-linecap="round" stroke-linejoin="round"/><ellipse id="uuid-322e810d-0418-4716-80c3-e852d77dd45c" cx="263.5" cy="279" rx="1.5" ry="2" fill="none" stroke="#000" stroke-linecap="round" stroke-linejoin="round"/><rect id="uuid-09e5175a-a7dc-4564-bacb-35d70a66e54c" x="275.7" y="305.04" width="6.74" height="14.39" transform="translate(-29.31 28.91) rotate(-5.63)" fill="none" stroke="#000" stroke-linecap="round" stroke-linejoin="round"/><rect id="uuid-993502f3-0dd6-4c17-9e65-ed4961422ccd" x="274.3" y="290.8" width="6.74" height="14.39" transform="translate(-27.92 28.7) rotate(-5.63)" fill="none" stroke="#000" stroke-linecap="round" stroke-linejoin="round"/><rect id="uuid-7c90a559-7d45-4e4e-aad5-9c577d25fa52" x="237.98" y="294.62" width="14.39" height="6.74" transform="translate(-71.74 518.16) rotate(-85.34)" fill="none" stroke="#000" stroke-linecap="round" stroke-linejoin="round"/><rect id="uuid-9343a292-a6b8-4cdf-b482-016f1b27098e" x="236.82" y="308.87" width="14.39" height="6.74" transform="translate(-87.01 530.09) rotate(-85.34)" fill="none" stroke="#000" stroke-linecap="round" stroke-linejoin="round"/><rect id="uuid-c87fa77c-3dca-41f3-a464-d44e37f92d8d" x="276.54" y="319.43" width="7.19" height="7.19" transform="translate(-30.36 29.07) rotate(-5.63)" fill="none" stroke="#000" stroke-linecap="round" stroke-linejoin="round"/><rect id="uuid-11746872-983b-4958-bf0a-647880244df7" x="239.54" y="319.43" width="7.19" height="7.19" transform="translate(-98.57 539.13) rotate(-85.34)" fill="none" stroke="#000" stroke-linecap="round" stroke-linejoin="round"/><circle id="uuid-c2269576-f009-4273-b51d-3d4bfcdc60cd" cx="262" cy="312" r="1" fill="none" stroke="#000" stroke-linecap="round" stroke-linejoin="round"/><circle id="uuid-113e7d56-7781-466f-b5b8-c67c1ad8b2ea" cx="262" cy="308" r="1" fill="none" stroke="#000" stroke-linecap="round" stroke-linejoin="round"/><circle id="uuid-86066ed5-fd62-4f82-be49-adf15fb3c5fc" cx="262" cy="305" r="1" fill="none" stroke="#000" stroke-linecap="round" stroke-linejoin="round"/><circle id="uuid-89b1c693-9456-4d7f-b9db-5307b7dee320" cx="262" cy="301" r="1" fill="none" stroke="#000" stroke-linecap="round" stroke-linejoin="round"/><path d="M275.18,265.03c-1.42-6.17-8.31-10.4-16.1-9.64-7.79.77-13.71,6.27-13.91,12.6-2.57.63-4.08,1.25-4.03,1.77.12,1.2,8.8,1.33,19.38.29,10.58-1.04,19.07-2.87,18.95-4.07-.05-.51-1.66-.83-4.3-.94Z" fill="none" stroke="#000" stroke-linecap="round" stroke-linejoin="round"/></g><g id="uuid-c3cc89af-d2cd-4dad-9741-1eea791cad39"><polygon id="uuid-08482531-ec24-4066-acd4-ea7dfce39cac" points="237.8 344.68 229.39 347.63 234.52 362.26 235.55 365.21 248.18 360.77 247.14 357.83 242.94 359.31 237.8 344.68" fill="#5f5f5f"/><rect id="uuid-16faa854-a2ca-4a61-b50b-c44a2dbdaf48" x="222.14" y="327.91" width="11.1" height="21.92" transform="translate(-159.55 209.56) rotate(-37.64)" fill="#727272"/><polygon id="uuid-f0bd9cc2-bfaa-49fc-8e47-48e936d1795a" points="210.2 351.61 218.69 348.88 223.44 363.63 227.69 362.27 228.64 365.24 215.91 369.34 214.95 366.36 214.95 366.36 210.2 351.61" fill="#5f5f5f"/><rect id="uuid-14f53edc-c713-4a6e-b8c7-440308c54d55" x="204.57" y="330.4" width="11.1" height="21.92" transform="translate(-124.15 120.14) rotate(-24.89)" fill="#727272"/><path id="uuid-c93f0dbf-bf05-4739-a593-5d539f383f74" d="M200,289v45h25v-45h-25Z" fill="#727272"/><rect id="uuid-6b70725c-a2a1-4bb5-b3c7-18a5f6a731a9" x="200" y="316" width="25" height="7" fill="#acacac"/><rect id="uuid-d1949d44-7f42-4dda-848f-b6de17906ec3" x="218" y="289" width="3" height="26" fill="#acacac"/><rect id="uuid-2004b27a-3d5b-4740-9d43-5d15b4a03973" x="205" y="289" width="3" height="26" fill="#acacac"/><path id="uuid-d799c40b-37f1-4db6-95f8-2e8a2f48fc41" d="M225.02,285c.89-2.39,1.4-5.09,1.4-7.94,0-9.85-5.99-17.84-13.38-17.84s-13.38,7.99-13.38,17.84c0,2.85.51,5.55,1.4,7.94h23.96Z" fill="#ccc"/><path id="uuid-72f1d957-1d03-4629-a08b-3641aa706da7" d="M201.75,286c2.37,4.97,6.54,8.26,11.29,8.26s8.91-3.3,11.29-8.26h-22.57Z" fill="#ccc"/><ellipse id="uuid-a9c1ff74-75ae-443a-8b9e-da1b89a6b541" cx="215.5" cy="276" rx="1.5" ry="2" fill="#333"/><ellipse id="uuid-759d421f-aab9-4d27-91c5-bed9bb1d6689" cx="207.5" cy="276" rx="1.5" ry="2" fill="#333"/><rect id="uuid-36180175-c9bb-4e2f-a16e-876c08a19995" x="226.28" y="303.77" width="6.69" height="14.27" transform="translate(-11.86 9.12) rotate(-2.22)" fill="#727272"/><rect id="uuid-cea61bf7-c094-49d0-9e31-bd383f2742f2" x="225.73" y="289.51" width="6.69" height="14.27" transform="translate(-11.31 9.09) rotate(-2.22)" fill="#727272"/><rect id="uuid-1bb0a43d-ea99-45f3-aed1-b62fb899e46e" x="189.38" y="292.95" width="14.27" height="6.69" transform="translate(-123.1 452.04) rotate(-82.43)" fill="#727272"/><rect id="uuid-a6c477f6-0eb9-478c-9383-4cbb76e5aefc" x="187.5" y="307.1" width="14.27" height="6.69" transform="translate(-138.75 462.46) rotate(-82.43)" fill="#727272"/><rect id="uuid-68cfa690-794d-4c59-9ac9-131572ad4c7a" x="226.48" y="318.18" width="7.13" height="7.13" transform="translate(-12.28 9.14) rotate(-2.22)" fill="#ccc"/><rect id="uuid-a35e908b-350f-4ca6-8980-addf990621ba" x="189.65" y="317.48" width="7.13" height="7.13" transform="translate(-150.49 470.27) rotate(-82.43)" fill="#ccc"/><circle id="uuid-751e4bbc-418b-4d4f-a6c7-e887e9f2f74a" cx="213" cy="310" r="1" fill="#333"/><circle id="uuid-bd23cb4c-bf29-461f-b009-921088174ce8" cx="213" cy="307" r="1" fill="#333"/><circle id="uuid-d2b49624-b470-45e2-80ff-e0d1a46b6f02" cx="213" cy="303" r="1" fill="#333"/><circle id="uuid-6f5a8134-7e56-4be2-b20d-9279ffc302bd" cx="213" cy="299" r="1" fill="#333"/><path d="M227.99,266.38c-.81-6.23-7.19-11.08-14.95-11.08s-14.15,4.85-14.95,11.08c-2.59.37-4.15.84-4.15,1.35,0,1.2,8.55,2.17,19.1,2.17s19.1-.97,19.1-2.17c0-.51-1.55-.98-4.15-1.35Z" fill="#6a6a6a"/><polygon id="uuid-18b6fded-602b-4647-b18a-7cdfb70bd244" points="237.8 344.68 229.39 347.63 234.52 362.26 235.55 365.21 248.18 360.77 247.14 357.83 242.94 359.31 237.8 344.68" fill="none" stroke="#000" stroke-linecap="round" stroke-linejoin="round"/><rect id="uuid-26c317f9-eecf-44b9-9bed-68fd793e98e8" x="222.14" y="327.91" width="11.1" height="21.92" transform="translate(-159.55 209.56) rotate(-37.64)" fill="none" stroke="#000" stroke-linecap="round" stroke-linejoin="round"/><polygon id="uuid-a2b56616-b980-46ea-baad-cf6802f471fa" points="210.2 351.61 218.69 348.88 223.44 363.63 227.69 362.27 228.64 365.24 215.91 369.34 214.95 366.36 214.95 366.36 210.2 351.61" fill="none" stroke="#000" stroke-linecap="round" stroke-linejoin="round"/><rect id="uuid-2e23f245-bc28-4288-bc65-1fec6611eed1" x="204.57" y="330.4" width="11.1" height="21.92" transform="translate(-124.15 120.14) rotate(-24.89)" fill="none" stroke="#000" stroke-linecap="round" stroke-linejoin="round"/><path id="uuid-2c88282e-d375-4e10-bf4b-be0f14656b63" d="M200,289v45h25v-45h-25Z" fill="none" stroke="#000" stroke-linecap="round" stroke-linejoin="round"/><rect id="uuid-3c82960d-a6b0-4d9d-a3de-474ecc9f5f60" x="200" y="316" width="25" height="7" fill="none" stroke="#000" stroke-linecap="round" stroke-linejoin="round"/><rect id="uuid-57b91313-8e6d-4f54-a3e4-550944bf1ad7" x="218" y="289" width="3" height="26" fill="none" stroke="#000" stroke-linecap="round" stroke-linejoin="round"/><rect id="uuid-cb22a175-d5c6-45dc-97b7-17ec02352af4" x="205" y="289" width="3" height="26" fill="none" stroke="#000" stroke-linecap="round" stroke-linejoin="round"/><path id="uuid-a8f5d7e4-dae0-4087-b6d0-7a5d57848bb3" d="M225.02,285c.89-2.39,1.4-5.09,1.4-7.94,0-9.85-5.99-17.84-13.38-17.84s-13.38,7.99-13.38,17.84c0,2.85.51,5.55,1.4,7.94h23.96Z" fill="none" stroke="#000" stroke-linecap="round" stroke-linejoin="round"/><path id="uuid-ce268364-2088-4ed6-a773-26774cb0060f" d="M201.75,286c2.37,4.97,6.54,8.26,11.29,8.26s8.91-3.3,11.29-8.26h-22.57Z" fill="none" stroke="#000" stroke-linecap="round" stroke-linejoin="round"/><ellipse id="uuid-501bc625-eb61-4292-8043-21a87044d109" cx="215.5" cy="276" rx="1.5" ry="2" fill="none" stroke="#000" stroke-linecap="round" stroke-linejoin="round"/><ellipse id="uuid-13fa5959-0f87-4df5-9a5c-0302cda2ecf3" cx="207.5" cy="276" rx="1.5" ry="2" fill="none" stroke="#000" stroke-linecap="round" stroke-linejoin="round"/><rect id="uuid-d18861d4-0918-45b5-afc9-d4cc296159d9" x="226.28" y="303.77" width="6.69" height="14.27" transform="translate(-11.86 9.12) rotate(-2.22)" fill="none" stroke="#000" stroke-linecap="round" stroke-linejoin="round"/><rect id="uuid-fd2fa813-adee-4310-b272-d2a572a3b8a9" x="225.73" y="289.51" width="6.69" height="14.27" transform="translate(-11.31 9.09) rotate(-2.22)" fill="none" stroke="#000" stroke-linecap="round" stroke-linejoin="round"/><rect id="uuid-0f53b6f2-67d5-4a3f-a0e5-e92b8439fe98" x="189.38" y="292.95" width="14.27" height="6.69" transform="translate(-123.1 452.04) rotate(-82.43)" fill="none" stroke="#000" stroke-linecap="round" stroke-linejoin="round"/><rect id="uuid-e43871a4-1f78-40f0-b825-1b4c2009e9e3" x="187.5" y="307.1" width="14.27" height="6.69" transform="translate(-138.75 462.46) rotate(-82.43)" fill="none" stroke="#000" stroke-linecap="round" stroke-linejoin="round"/><rect id="uuid-45bbc7d1-acd6-4491-9e3e-30f8835aa95d" x="226.48" y="318.18" width="7.13" height="7.13" transform="translate(-12.28 9.14) rotate(-2.22)" fill="none" stroke="#000" stroke-linecap="round" stroke-linejoin="round"/><rect id="uuid-f7683a96-29e5-44ce-9deb-f5fbd2051474" x="189.65" y="317.48" width="7.13" height="7.13" transform="translate(-150.49 470.27) rotate(-82.43)" fill="none" stroke="#000" stroke-linecap="round" stroke-linejoin="round"/><circle id="uuid-0caf58b8-5107-421b-985c-b51dff202c01" cx="213" cy="310" r="1" fill="none" stroke="#000" stroke-linecap="round" stroke-linejoin="round"/><circle id="uuid-7eebe846-bda8-43cd-b9dd-577b9e2525c0" cx="213" cy="307" r="1" fill="none" stroke="#000" stroke-linecap="round" stroke-linejoin="round"/><circle id="uuid-107eb63b-aa19-4a92-9d4a-ad6bf0c972bc" cx="213" cy="303" r="1" fill="none" stroke="#000" stroke-linecap="round" stroke-linejoin="round"/><circle id="uuid-9c888e19-7183-4c65-9b3f-9265d5cfe7a9" cx="213" cy="299" r="1" fill="none" stroke="#000" stroke-linecap="round" stroke-linejoin="round"/><path d="M227.99,266.38c-.81-6.23-7.19-11.08-14.95-11.08s-14.15,4.85-14.95,11.08c-2.59.37-4.15.84-4.15,1.35,0,1.2,8.55,2.17,19.1,2.17s19.1-.97,19.1-2.17c0-.51-1.55-.98-4.15-1.35Z" fill="none" stroke="#000" stroke-linecap="round" stroke-linejoin="round"/></g><path d="M58.42,329.56s-.55-7.7,3.1-11.32c4.12-4.07,7.84-3.27,16.29-3.48,13.12-.35,24.19-.33,24.19-.33,0,0,17.57-32.89,21.27-38.52,3.71-5.61,10.63-13.94,22.02-15.12,11.39-1.18,36.82,0,40.13.14,3.31.14,5.57,1.96,5.57,5.61v50.47h95.23c2.92,0,4.35,3.29,5.16,5.23.73,1.74,1.73,6.75,1.73,6.75l-15.23,12.86-219.45-12.27Z" fill="#39b54a"/><polygon points="59.18 362.34 58 346.15 57.88 329 293 328.86 292.98 363.05 293.88 373 129.62 373.81 59.18 362.34" fill="#009245"/><path d="M72.08,368.47c.68-.18,13.43-6.97,13.43-6.97,0,0,3.09-4.18,4.61-5.24,1.52-1.08,2.78-1.25,5.08-1.25s27.11.17,29.39.17,4.46,1.54,5.83,3.03,11.1,12.8,11.1,12.8h81.06s6.96-11.62,7.9-13.14c.94-1.52,1.73-2.48,4.47-2.55,2.74-.06,34.33.12,36.31.12s3.18.84,4.04,1.94c.86,1.09,7.61,14.63,7.61,14.63l7.71-.06-1.85,5.06H72.8l-.71-8.53Z" fill="#006837"/><path d="M82.78,388.67c.18,10.81,8.2,26.31,26.63,26.45,18.43.12,28-14.26,27.43-28.99-.59-14.97-12.02-25.54-28.47-25.07-15.39.45-25.82,12.65-25.59,27.62Z" fill="#4e433d"/><path d="M94.92,387.71c.1,5.7,4.73,13.91,14.82,13.97,10.1.06,14.98-7.09,14.67-14.85-.33-7.89-6.78-13.77-15.25-13.65-8.41.14-14.35,6.66-14.23,14.54Z" fill="#c8c8c8"/><path d="M225.48,388.63c.18,10.81,8.63,26.37,27.08,26.48,18.43.12,28-14.26,27.43-28.99-.59-14.97-12.02-25.54-28.47-25.07-15.41.45-26.27,12.6-26.04,27.58Z" fill="#4e433d"/><path d="M238.04,387.71c.1,5.7,4.73,13.91,14.82,13.97,10.1.06,14.98-7.09,14.67-14.85-.33-7.89-6.78-13.77-15.25-13.65-8.41.14-14.35,6.66-14.23,14.54Z" fill="#c8c8c8"/><path d="M58.18,363.28c.02.78.55,10.87.55,12.14s1.24,2.44,4.12,2.51c2.88.07,12.47,0,12.47,0,0,0,2.2-4.03,4.71-8.03,2.88-4.6,6.16-9.05,6.16-9.16,0-.06-21.16-.15-23.27-.15s-4.8.35-4.73,2.7Z" fill="#b0b0b1"/><path d="M288,360.16l-.18,16.84h9.9c1.47,0,2.84-1.65,2.76-2.74s-.18-11-.25-12.1c-.08-1.09-1.9-2.01-3.78-2.01s-8.53-.19-8.45,0Z" fill="#b0b0b1"/><path d="M285.24,329.12c-1.08.76-.47,21.2.12,21.87.47.53,8.74.21,8.74.21,0,0,.22-6.08.35-10.39.18-5.77-1.47-11.99-1.47-11.99,0,0-7.06-.18-7.74.3Z" fill="#006837"/><path d="M157.78,330.23c-3.02,0-4.55,1.65-4.47,3.4.08,2.01,2.33,2.92,4.74,2.98,2.41.06,9.9,0,11.8-.06s3.96-1.22,3.88-3.35c-.06-1.58-1.9-2.87-3.71-2.92-1.82-.06-10.69-.06-12.25-.06Z" fill="#006837"/><path d="M187.31,321.68c0-1.37.8-2.06,2.29-1.99,1.24.06,2.39.37,2.39,2.19v55.43c0,.8-.88,1.44-2.04,1.49-1.16.06-2.39-.62-2.47-1.56-.08-.93-.18-54.88-.18-55.56Z" fill="#006837"/><path d="M61.8,330.19s3.59.15,4.76.94c1.53,1.02,3.94,5.7,4,6.55.08,1.07.24,11.65-.24,12.19-.16.19-7.96.25-8,.24-.06-.03-1.9-8.46-1.94-10.41-.1-5.62,1.2-9.38,1.41-9.51Z" fill="#fdfefe"/><path d="M58.63,349.97s-.53-4.01-.61-10.93c-.06-5.11.24-9.18.24-9.18l4,.25s.18,4.07.18,9.47c0,4.42.55,10.42.55,10.42l-4.35-.03Z" fill="#dbcdc7"/><path d="M145.93,268.04c-7.18.66-10.98,4.74-14.86,9.76-3.88,5.01-18.27,33.35-18.65,35.25-.45,2.36,3.31,1.72,8.21,1.72,4.33,0,55.37.27,57.49.17,2.12-.1,4.06-1.92,4.16-6.83.1-4.92,0-30.97-.1-33.99s-1.57-5.56-5.9-5.83c-3.24-.17-26.14-.64-30.35-.25Z" fill="#546f79"/><path d="M122.76,308.4c-.78-.68,9.9-20.48,11.16-22.69,2.67-4.65,5.53-7.57,8.21-9.12,2.67-1.55,5.18-1.78,8.67-1.92,4.88-.17,23.53-.46,24.17.31s.47,25.84.27,28.38c-.18,2.56-.43,4.65-3.24,4.82-5.76.37-16.37.04-26.21.1-11.84.1-22.63.46-23.04.12Z" fill="#afe3fb"/><path d="M58.42,329.56s-.55-7.7,3.1-11.32c4.12-4.07,7.84-3.27,16.29-3.48,13.12-.35,24.19-.33,24.19-.33,0,0,17.57-32.89,21.27-38.52,3.71-5.61,10.63-13.94,22.02-15.12,11.39-1.18,36.82,0,40.13.14,3.31.14,5.57,1.96,5.57,5.61v50.47h95.23c2.92,0,4.35,3.29,5.16,5.23.73,1.74,1.73,6.75,1.73,6.75l-15.23,12.86-219.45-12.27Z" fill="none" stroke="#000" stroke-linecap="round" stroke-linejoin="round"/><polygon points="59.18 362.34 58 346.15 57.88 329 293 328.86 292.98 363.05 293.88 373 129.62 373.81 59.18 362.34" fill="none" stroke="#000" stroke-linecap="round" stroke-linejoin="round"/><path d="M72.08,368.47c.68-.18,13.43-6.97,13.43-6.97,0,0,3.09-4.18,4.61-5.24,1.52-1.08,2.78-1.25,5.08-1.25s27.11.17,29.39.17,4.46,1.54,5.83,3.03,11.1,12.8,11.1,12.8h81.06s6.96-11.62,7.9-13.14c.94-1.52,1.73-2.48,4.47-2.55,2.74-.06,34.33.12,36.31.12s3.18.84,4.04,1.94c.86,1.09,7.61,14.63,7.61,14.63l7.71-.06-1.85,5.06H72.8l-.71-8.53Z" fill="none" stroke="#000" stroke-linecap="round" stroke-linejoin="round"/><path d="M82.78,388.67c.18,10.81,8.2,26.31,26.63,26.45,18.43.12,28-14.26,27.43-28.99-.59-14.97-12.02-25.54-28.47-25.07-15.39.45-25.82,12.65-25.59,27.62Z" fill="none" stroke="#000" stroke-linecap="round" stroke-linejoin="round"/><path d="M94.92,387.71c.1,5.7,4.73,13.91,14.82,13.97,10.1.06,14.98-7.09,14.67-14.85-.33-7.89-6.78-13.77-15.25-13.65-8.41.14-14.35,6.66-14.23,14.54Z" fill="none" stroke="#000" stroke-linecap="round" stroke-linejoin="round"/><path d="M225.48,388.63c.18,10.81,8.63,26.37,27.08,26.48,18.43.12,28-14.26,27.43-28.99-.59-14.97-12.02-25.54-28.47-25.07-15.41.45-26.27,12.6-26.04,27.58Z" fill="none" stroke="#000" stroke-linecap="round" stroke-linejoin="round"/><path d="M238.04,387.71c.1,5.7,4.73,13.91,14.82,13.97,10.1.06,14.98-7.09,14.67-14.85-.33-7.89-6.78-13.77-15.25-13.65-8.41.14-14.35,6.66-14.23,14.54Z" fill="none" stroke="#000" stroke-linecap="round" stroke-linejoin="round"/><path d="M58.18,363.28c.02.78.55,10.87.55,12.14s1.24,2.44,4.12,2.51c2.88.07,12.47,0,12.47,0,0,0,2.2-4.03,4.71-8.03,2.88-4.6,6.16-9.05,6.16-9.16,0-.06-21.16-.15-23.27-.15s-4.8.35-4.73,2.7Z" fill="none" stroke="#000" stroke-linecap="round" stroke-linejoin="round"/><path d="M288,360.16l-.18,16.84h9.9c1.47,0,2.84-1.65,2.76-2.74s-.18-11-.25-12.1c-.08-1.09-1.9-2.01-3.78-2.01s-8.53-.19-8.45,0Z" fill="none" stroke="#000" stroke-linecap="round" stroke-linejoin="round"/><path d="M285.24,329.12c-1.08.76-.47,21.2.12,21.87.47.53,8.74.21,8.74.21,0,0,.22-6.08.35-10.39.18-5.77-1.47-11.99-1.47-11.99,0,0-7.06-.18-7.74.3Z" fill="none" stroke="#000" stroke-linecap="round" stroke-linejoin="round"/><path d="M157.78,330.23c-3.02,0-4.55,1.65-4.47,3.4.08,2.01,2.33,2.92,4.74,2.98,2.41.06,9.9,0,11.8-.06s3.96-1.22,3.88-3.35c-.06-1.58-1.9-2.87-3.71-2.92-1.82-.06-10.69-.06-12.25-.06Z" fill="none" stroke="#000" stroke-linecap="round" stroke-linejoin="round"/><path d="M187.31,321.68c0-1.37.8-2.06,2.29-1.99,1.24.06,2.39.37,2.39,2.19v55.43c0,.8-.88,1.44-2.04,1.49-1.16.06-2.39-.62-2.47-1.56-.08-.93-.18-54.88-.18-55.56Z" fill="none" stroke="#000" stroke-linecap="round" stroke-linejoin="round"/><path d="M61.8,330.19s3.59.15,4.76.94c1.53,1.02,3.94,5.7,4,6.55.08,1.07.24,11.65-.24,12.19-.16.19-7.96.25-8,.24-.06-.03-1.9-8.46-1.94-10.41-.1-5.62,1.2-9.38,1.41-9.51Z" fill="none" stroke="#000" stroke-linecap="round" stroke-linejoin="round"/><path d="M58.63,349.97s-.53-4.01-.61-10.93c-.06-5.11.24-9.18.24-9.18l4,.25s.18,4.07.18,9.47c0,4.42.55,10.42.55,10.42l-4.35-.03Z" fill="none" stroke="#000" stroke-linecap="round" stroke-linejoin="round"/><path d="M145.93,268.04c-7.18.66-10.98,4.74-14.86,9.76-3.88,5.01-18.27,33.35-18.65,35.25-.45,2.36,3.31,1.72,8.21,1.72,4.33,0,55.37.27,57.49.17,2.12-.1,4.06-1.92,4.16-6.83.1-4.92,0-30.97-.1-33.99s-1.57-5.56-5.9-5.83c-3.24-.17-26.14-.64-30.35-.25Z" fill="none" stroke="#000" stroke-linecap="round" stroke-linejoin="round"/><path d="M122.76,308.4c-.78-.68,9.9-20.48,11.16-22.69,2.67-4.65,5.53-7.57,8.21-9.12,2.67-1.55,5.18-1.78,8.67-1.92,4.88-.17,23.53-.46,24.17.31s.47,25.84.27,28.38c-.18,2.56-.43,4.65-3.24,4.82-5.76.37-16.37.04-26.21.1-11.84.1-22.63.46-23.04.12Z" fill="none" stroke="#000" stroke-linecap="round" stroke-linejoin="round"/><polygon points="384.27 238.9 337.6 282.14 343.42 305.13 337.05 326.3 365.57 328 417.09 328.13 433.57 327.08 434.41 281.48 386.48 237.06 384.27 238.9" fill="#c8a68f"/><polygon points="338.37 274.55 334.63 279.27 340.72 303.67 335.33 326.36 339.47 326.62 345.97 306.42 340.16 283.34 386.46 242.96 432 285.7 432 326.09 436 325.83 436 279 392.41 235.48 384.81 232.6 338.37 274.55" fill="#9e7b65"/><polygon points="338 264.15 338.12 243.36 352 237.6 351.71 255.19 338 264.15" fill="#ab5832"/><path d="M331.08,274.32l-2.94,4.68h6.56c0,.41,50.61-45.1,51.67-45.14,1.29-.05,49.32,46.23,49.32,46.14h6.33l-52.54-53.67-7.72-.48-13.33,12.75-2.23,8.23-6.64.25-28.46,27.24Z" fill="#2e1914"/><path d="M321.99,278.18c-.83.96-.01,1.46.66,1.46s7.91-.16,7.91-.16l53.68-49.17s1.22-1.19,2.09-1.15c.95.04,2.17,1.18,2.17,1.18l53.46,49.72s6.09.02,7.06-.21c1.05-.24.52-1.06-.78-2.51-.9-1.02-55-51.7-55.89-52.58-2.66-2.6-3.95-4.12-6.46-4.02-2.52.1-4.01,1.87-6.53,4.07-.24.21-14.44,12.68-14.44,12.68l1.15,9.19-6.3-3.68s-37.56,34.94-37.77,35.18Z" fill="#553a30"/><path d="M364.92,284h-19.83c-1.7,0-3.08,1.31-3.08,2.93v20.15c0,1.61,1.38,2.93,3.08,2.93h19.83c1.7,0,3.08-1.31,3.08-2.93v-20.15c0-1.62-1.38-2.93-3.08-2.93Z" fill="#3e2723"/><path d="M371.26,321.62s-.16-24.96,0-31.26c.16-6.29,6.39-11.74,13.61-11.51,8.93.29,13.52,5.05,13.85,11.2.33,6.14.33,31.96.33,31.96l-27.79-.38Z" fill="#36292b"/><path d="M374.59,322.98s-.13-26.59,0-31.52c.16-6.1,5.01-9.31,10.64-9.01,6.56.35,9.8,3.66,10.06,8.47.26,4.8.26,32.07.26,32.07l-20.95-.02Z" fill="#523833"/><path d="M392.15,302.05c-.02-4.38-.06-8.24-.13-9.42-.17-3.18-2.55-5.65-7.18-5.8-3.73-.12-6.8,2.64-6.89,5.9-.03,1.2-.02,4.97,0,9.27l14.19.05Z" fill="#362729"/><path d="M378.12,306.94c.04,5.76.09,11.06.09,11.06l13.86.04s0-5.28-.02-11.04l-13.93-.06Z" fill="#362729"/><path d="M392.19,304.03c-.05,1.42.55,2.57,2.33,2.57s2.42-.79,2.55-2.31c.11-1.36-.88-2.57-2.55-2.47-1.66.11-2.29,1.21-2.33,2.21Z" fill="#886a57"/><path d="M424.93,284h-7.93v6.78l-4,.07v-5.86h-8.09c-1.6,0-2.91,1.29-2.91,2.88v8.12h6l-.04,3h-5.96v8.07c0,1.61,1.39,2.93,3.08,2.93h19.83c1.7,0,3.08-1.31,3.08-2.93v-20.15c0-1.62-1.37-2.93-3.07-2.93Z" fill="#3e2723"/><path d="M353.61,260.85s7.09,2.05,7.61,2.62,3.12,7.88,3.54,8.2c.44.33,14.96,1.56,15.13,1.15.27-.63-12.02-5.66-12.02-5.66,0,0,.78-5.18.61-5.67-.17-.49-8.64-5.42-8.64-5.42l-6.22,4.77Z" fill="#2e1914"/><path d="M364.61,251.72s9.42,7.73,10.29,6.99c.86-.74-4.15-12.96-4.15-12.96l-6.15,5.97Z" fill="#2e1914"/><path d="M425.6,311.64c.11.28.82,2.46.82,2.46,0,0-9.96.52-10.26.81s-4.24,5.51-4.84,6.15c-.58.66-.5,1.51.98.48,1.48-1.03,5.63-3.84,5.63-3.84,0,0,12.28-.59,12.59-.93.16-.18-.79-3.27-.79-3.27,0,0,4.9-2.9,6.16-3.88.44-.34-.02-4.45-.02-4.45l-10.27,6.47Z" fill="#3e2723"/><path d="M406.67,305.18c.19-.12,9.57-10.96,9.57-10.96l8.99-8.41,4.47,3.51s-5.29,6.78-7.46,9.02c-2.17,2.24-3.83,3.63-5.68,5.51-1.85,1.88-5.36,6.23-5.36,6.23l-4.59-3.93.06-.97Z" fill="#6d4c41"/><path d="M405.14,305.12s6.76-7.32,9.82-10.83c3.06-3.51,8.78-9.66,8.78-9.66l2.22,1.77s-5.46,5.12-7.7,7.42-5.61,6.05-7.08,7.69c-1.47,1.63-3.95,5.21-3.95,5.21l-2.09-1.58Z" fill="#966"/><path d="M371.98,283.64s-1.14,1.24-1.59,2.36c-.46,1.12-1.53,4.12-1.53,4.12l10.46,5.27,10.01,1.76,1.53-3.63s-8.99-4.9-11.29-5.81c-2.3-.92-7.59-4.06-7.59-4.06Z" fill="#865c51"/><path d="M398.96,304.5s1.97-5.94,2.16-5.99-10.25-5.01-10.25-5.01l-11.55,1.88s7.97,3.63,10.4,4.84c2.42,1.21,9.24,4.29,9.24,4.29Z" fill="#6e4d42"/><path d="M370.57,320.93l3.76-.76,12.32-8.82s-7.85,1.09-10.59,1.63-7.27,1.27-7.27,1.27c0,0,.64,3.15.89,3.87.26.72.88,2.79.88,2.79Z" fill="#865c51"/><path d="M400.68,315.4l-.45-6.05-17.34,2.54s-4.78,4.24-6.19,5.45c-1.4,1.21-2.42,2.84-2.42,2.84,0,0,9.25-1.94,13.91-2.84,4.66-.91,12.49-1.94,12.49-1.94Z" fill="#6d4c41"/><polygon points="345.83 285.63 345.01 299.13 351.07 299.91 354 295.37 354.13 285.81 345.83 285.63" fill="#865c51"/><polygon points="341.96 344.03 350.78 346.88 352.07 340.94 348.25 336.56 344.3 335.41 341.96 344.03" fill="#865c51"/><polygon points="345 307.1 345.13 299.16 354 295.45 354.13 306.92 345 307.1" fill="#6d4c41"/><path d="M362.67,350.43l-11.89-3.55-.94-.32-1.5-9.97s4.99,1.34,7.78,2.36c2.79,1.02,9.08,2.39,9.14,2.61.02.1-.31,2.16-.89,4.13-.72,2.38-1.7,4.74-1.7,4.74Z" fill="#6d4c41"/><path d="M359.04,312.3c-.21.46-.43,4.39.05,4.59.49.2,8.49-.05,8.65-.2s.16-4.29-.16-4.59c-.32-.31-8.38-.15-8.55.2Z" fill="#865c51"/><path d="M349.97,275.37c-.54.67-.37,4.89-.11,5.26.28.37,3.23.35,6.18.32,2.15-.03,4.5.03,4.79-.27.35-.35.29-1.74.37-2.85.09-1.14.2-2.14-.49-2.5-.49-.25-2.83-.15-4.89-.15-3.01,0-5.63-.07-5.86.2Z" fill="#865c51"/><path d="M400.57,265.94c-.66.45-.62,4.66-.23,5.02s10.81.5,11.2.07.38-4.66,0-5.02-10.43-.43-10.96-.07Z" fill="#865c51"/><path d="M410.08,274.74c-.24.53-.31,4.15.07,4.8s11.22.52,11.45.23c.23-.29.36-5.1.14-5.33-.23-.21-11.21-.73-11.66.29Z" fill="#865c51"/><path d="M430.9,288.67c-.33.52-.33,4.46.19,4.95s5.93.36,6.22.04c.29-.31.19-4.64-.1-4.95-.29-.31-5.99-.59-6.32-.04Z" fill="#865c51"/><path d="M429.23,318.84c-.49.65-.43,4.24.04,4.41s6.36.18,6.74-.13c.38-.31.33-4.1.19-4.32-.14-.23-6.73-.27-6.97.04Z" fill="#865c51"/><path d="M401.31,329.21c.35,1.01,2.24.79,2.24.79,0,0,16.31-.11,19.74-.11s12.41-.22,12.41-.22c0,0,6.5-8.64,5.2-9.2-1.3-.56-16.79,5.28-16.79,5.28,0,0,3.78-6.28,3.07-7.06-.71-.79-11.2,2.76-13.47,3.7-9.33,3.8-12.41,6.83-12.41,6.83Z" fill="#728035"/><path d="M328.97,324.26c-.17.95,3.42,3.37,5.08,4.71,1.52,1.24,3.67,2.35,3.67,2.35,0,0,9.81.11,15.61-.11,5.79-.22,11.94.11,13.47-.11s-.23-4.93-3.9-9.31c-3.67-4.38-6.26-6.16-7.09-5.72-.83.44.6,5.61.6,5.61,0,0-12.41-4.49-12.89-3.03-.47,1.46,2.48,6.4,2.48,6.4,0,0-7.21-1.23-10.28-1.34s-6.62-.12-6.74.55Z" fill="#728035"/><path d="M403.8,329.38s.41-6.53,0-7.07-19.64-.16-23.2-.16-14.09-.16-14.5.31-.09,7.55-.09,7.55l6.05,3.54,31.74-4.17Z" fill="#858585"/><path d="M366,334.92v-4.72s6.96-.55,18.06-.79c11.1-.23,19.72.16,19.72.16,0,0-.5,2.75-.66,3.62-.17.87-.91,1.81-.91,1.81l-36.21-.08Z" fill="#5e6367"/><polygon points="384.27 238.9 337.6 282.14 343.42 305.13 337.05 326.3 365.57 328 417.09 328.13 433.57 327.08 434.41 281.48 386.48 237.06 384.27 238.9" fill="none" stroke="#000" stroke-linecap="round" stroke-linejoin="round"/><polygon points="338.37 274.55 334.63 279.27 340.72 303.67 335.33 326.36 339.47 326.62 345.97 306.42 340.16 283.34 386.46 242.96 432 285.7 432 326.09 436 325.83 436 279 392.41 235.48 384.81 232.6 338.37 274.55" fill="none" stroke="#000" stroke-linecap="round" stroke-linejoin="round"/><polygon points="338 264.15 338.12 243.36 352 237.6 351.71 255.19 338 264.15" fill="none" stroke="#000" stroke-linecap="round" stroke-linejoin="round"/><path d="M331.08,274.32l-2.94,4.68h6.56c0,.41,50.61-45.1,51.67-45.14,1.29-.05,49.32,46.23,49.32,46.14h6.33l-52.54-53.67-7.72-.48-13.33,12.75-2.23,8.23-6.64.25-28.46,27.24Z" fill="none" stroke="#000" stroke-linecap="round" stroke-linejoin="round"/><path d="M321.99,278.18c-.83.96-.01,1.46.66,1.46s7.91-.16,7.91-.16l53.68-49.17s1.22-1.19,2.09-1.15c.95.04,2.17,1.18,2.17,1.18l53.46,49.72s6.09.02,7.06-.21c1.05-.24.52-1.06-.78-2.51-.9-1.02-55-51.7-55.89-52.58-2.66-2.6-3.95-4.12-6.46-4.02-2.52.1-4.01,1.87-6.53,4.07-.24.21-14.44,12.68-14.44,12.68l1.15,9.19-6.3-3.68s-37.56,34.94-37.77,35.18Z" fill="none" stroke="#000" stroke-linecap="round" stroke-linejoin="round"/><path d="M364.92,284h-19.83c-1.7,0-3.08,1.31-3.08,2.93v20.15c0,1.61,1.38,2.93,3.08,2.93h19.83c1.7,0,3.08-1.31,3.08-2.93v-20.15c0-1.62-1.38-2.93-3.08-2.93Z" fill="none" stroke="#000" stroke-linecap="round" stroke-linejoin="round"/><path d="M371.26,321.62s-.16-24.96,0-31.26c.16-6.29,6.39-11.74,13.61-11.51,8.93.29,13.52,5.05,13.85,11.2.33,6.14.33,31.96.33,31.96l-27.79-.38Z" fill="none" stroke="#000" stroke-linecap="round" stroke-linejoin="round"/><path d="M374.59,322.98s-.13-26.59,0-31.52c.16-6.1,5.01-9.31,10.64-9.01,6.56.35,9.8,3.66,10.06,8.47.26,4.8.26,32.07.26,32.07l-20.95-.02Z" fill="none" stroke="#000" stroke-linecap="round" stroke-linejoin="round"/><path d="M392.15,302.05c-.02-4.38-.06-8.24-.13-9.42-.17-3.18-2.55-5.65-7.18-5.8-3.73-.12-6.8,2.64-6.89,5.9-.03,1.2-.02,4.97,0,9.27l14.19.05Z" fill="none" stroke="#000" stroke-linecap="round" stroke-linejoin="round"/><path d="M378.12,306.94c.04,5.76.09,11.06.09,11.06l13.86.04s0-5.28-.02-11.04l-13.93-.06Z" fill="none" stroke="#000" stroke-linecap="round" stroke-linejoin="round"/><path d="M392.19,304.03c-.05,1.42.55,2.57,2.33,2.57s2.42-.79,2.55-2.31c.11-1.36-.88-2.57-2.55-2.47-1.66.11-2.29,1.21-2.33,2.21Z" fill="none" stroke="#000" stroke-linecap="round" stroke-linejoin="round"/><path d="M424.93,284h-7.93v6.78l-4,.07v-5.86h-8.09c-1.6,0-2.91,1.29-2.91,2.88v8.12h6l-.04,3h-5.96v8.07c0,1.61,1.39,2.93,3.08,2.93h19.83c1.7,0,3.08-1.31,3.08-2.93v-20.15c0-1.62-1.37-2.93-3.07-2.93Z" fill="none" stroke="#000" stroke-linecap="round" stroke-linejoin="round"/><path d="M353.61,260.85s7.09,2.05,7.61,2.62,3.12,7.88,3.54,8.2c.44.33,14.96,1.56,15.13,1.15.27-.63-12.02-5.66-12.02-5.66,0,0,.78-5.18.61-5.67-.17-.49-8.64-5.42-8.64-5.42l-6.22,4.77Z" fill="none" stroke="#000" stroke-linecap="round" stroke-linejoin="round"/><path d="M364.61,251.72s9.42,7.73,10.29,6.99c.86-.74-4.15-12.96-4.15-12.96l-6.15,5.97Z" fill="none" stroke="#000" stroke-linecap="round" stroke-linejoin="round"/><path d="M425.6,311.64c.11.28.82,2.46.82,2.46,0,0-9.96.52-10.26.81s-4.24,5.51-4.84,6.15c-.58.66-.5,1.51.98.48,1.48-1.03,5.63-3.84,5.63-3.84,0,0,12.28-.59,12.59-.93.16-.18-.79-3.27-.79-3.27,0,0,4.9-2.9,6.16-3.88.44-.34-.02-4.45-.02-4.45l-10.27,6.47Z" fill="none" stroke="#000" stroke-linecap="round" stroke-linejoin="round"/><path d="M406.67,305.18c.19-.12,9.57-10.96,9.57-10.96l8.99-8.41,4.47,3.51s-5.29,6.78-7.46,9.02c-2.17,2.24-3.83,3.63-5.68,5.51-1.85,1.88-5.36,6.23-5.36,6.23l-4.59-3.93.06-.97Z" fill="none" stroke="#000" stroke-linecap="round" stroke-linejoin="round"/><path d="M405.14,305.12s6.76-7.32,9.82-10.83c3.06-3.51,8.78-9.66,8.78-9.66l2.22,1.77s-5.46,5.12-7.7,7.42-5.61,6.05-7.08,7.69c-1.47,1.63-3.95,5.21-3.95,5.21l-2.09-1.58Z" fill="none" stroke="#000" stroke-linecap="round" stroke-linejoin="round"/><path d="M371.98,283.64s-1.14,1.24-1.59,2.36c-.46,1.12-1.53,4.12-1.53,4.12l10.46,5.27,10.01,1.76,1.53-3.63s-8.99-4.9-11.29-5.81c-2.3-.92-7.59-4.06-7.59-4.06Z" fill="none" stroke="#000" stroke-linecap="round" stroke-linejoin="round"/><path d="M398.96,304.5s1.97-5.94,2.16-5.99-10.25-5.01-10.25-5.01l-11.55,1.88s7.97,3.63,10.4,4.84c2.42,1.21,9.24,4.29,9.24,4.29Z" fill="none" stroke="#000" stroke-linecap="round" stroke-linejoin="round"/><path d="M370.57,320.93l3.76-.76,12.32-8.82s-7.85,1.09-10.59,1.63-7.27,1.27-7.27,1.27c0,0,.64,3.15.89,3.87.26.72.88,2.79.88,2.79Z" fill="none" stroke="#000" stroke-linecap="round" stroke-linejoin="round"/><path d="M400.68,315.4l-.45-6.05-17.34,2.54s-4.78,4.24-6.19,5.45c-1.4,1.21-2.42,2.84-2.42,2.84,0,0,9.25-1.94,13.91-2.84,4.66-.91,12.49-1.94,12.49-1.94Z" fill="none" stroke="#000" stroke-linecap="round" stroke-linejoin="round"/><polygon points="345.83 285.63 345.01 299.13 351.07 299.91 354 295.37 354.13 285.81 345.83 285.63" fill="none" stroke="#000" stroke-linecap="round" stroke-linejoin="round"/><polygon points="341.96 344.03 350.78 346.88 352.07 340.94 348.25 336.56 344.3 335.41 341.96 344.03" fill="none" stroke="#000" stroke-linecap="round" stroke-linejoin="round"/><polygon points="345 307.1 345.13 299.16 354 295.45 354.13 306.92 345 307.1" fill="none" stroke="#000" stroke-linecap="round" stroke-linejoin="round"/><path d="M362.67,350.43l-11.89-3.55-.94-.32-1.5-9.97s4.99,1.34,7.78,2.36c2.79,1.02,9.08,2.39,9.14,2.61.02.1-.31,2.16-.89,4.13-.72,2.38-1.7,4.74-1.7,4.74Z" fill="none" stroke="#000" stroke-linecap="round" stroke-linejoin="round"/><path d="M359.04,312.3c-.21.46-.43,4.39.05,4.59.49.2,8.49-.05,8.65-.2s.16-4.29-.16-4.59c-.32-.31-8.38-.15-8.55.2Z" fill="none" stroke="#000" stroke-linecap="round" stroke-linejoin="round"/><path d="M349.97,275.37c-.54.67-.37,4.89-.11,5.26.28.37,3.23.35,6.18.32,2.15-.03,4.5.03,4.79-.27.35-.35.29-1.74.37-2.85.09-1.14.2-2.14-.49-2.5-.49-.25-2.83-.15-4.89-.15-3.01,0-5.63-.07-5.86.2Z" fill="none" stroke="#000" stroke-linecap="round" stroke-linejoin="round"/><path d="M400.57,265.94c-.66.45-.62,4.66-.23,5.02s10.81.5,11.2.07.38-4.66,0-5.02-10.43-.43-10.96-.07Z" fill="none" stroke="#000" stroke-linecap="round" stroke-linejoin="round"/><path d="M410.08,274.74c-.24.53-.31,4.15.07,4.8s11.22.52,11.45.23c.23-.29.36-5.1.14-5.33-.23-.21-11.21-.73-11.66.29Z" fill="none" stroke="#000" stroke-linecap="round" stroke-linejoin="round"/><path d="M430.9,288.67c-.33.52-.33,4.46.19,4.95s5.93.36,6.22.04c.29-.31.19-4.64-.1-4.95-.29-.31-5.99-.59-6.32-.04Z" fill="none" stroke="#000" stroke-linecap="round" stroke-linejoin="round"/><path d="M429.23,318.84c-.49.65-.43,4.24.04,4.41s6.36.18,6.74-.13c.38-.31.33-4.1.19-4.32-.14-.23-6.73-.27-6.97.04Z" fill="none" stroke="#000" stroke-linecap="round" stroke-linejoin="round"/><path d="M401.31,329.21c.35,1.01,2.24.79,2.24.79,0,0,16.31-.11,19.74-.11s12.41-.22,12.41-.22c0,0,6.5-8.64,5.2-9.2-1.3-.56-16.79,5.28-16.79,5.28,0,0,3.78-6.28,3.07-7.06-.71-.79-11.2,2.76-13.47,3.7-9.33,3.8-12.41,6.83-12.41,6.83Z" fill="none" stroke="#000" stroke-linecap="round" stroke-linejoin="round"/><path d="M328.97,324.26c-.17.95,3.42,3.37,5.08,4.71,1.52,1.24,3.67,2.35,3.67,2.35,0,0,9.81.11,15.61-.11,5.79-.22,11.94.11,13.47-.11s-.23-4.93-3.9-9.31c-3.67-4.38-6.26-6.16-7.09-5.72-.83.44.6,5.61.6,5.61,0,0-12.41-4.49-12.89-3.03-.47,1.46,2.48,6.4,2.48,6.4,0,0-7.21-1.23-10.28-1.34s-6.62-.12-6.74.55Z" fill="none" stroke="#000" stroke-linecap="round" stroke-linejoin="round"/><path d="M403.8,329.38s.41-6.53,0-7.07-19.64-.16-23.2-.16-14.09-.16-14.5.31-.09,7.55-.09,7.55l6.05,3.54,31.74-4.17Z" fill="none" stroke="#000" stroke-linecap="round" stroke-linejoin="round"/><path d="M366,334.92v-4.72s6.96-.55,18.06-.79c11.1-.23,19.72.16,19.72.16,0,0-.5,2.75-.66,3.62-.17.87-.91,1.81-.91,1.81l-36.21-.08Z" fill="none" stroke="#000" stroke-linecap="round" stroke-linejoin="round"/><path d="M245,239c-2.2-.84-11-4.87-16.81-25.14-2.58-9-3.68-18.09-4.19-24.22" fill="none" stroke="#333" stroke-miterlimit="10" stroke-width="2"/><text transform="translate(72.17 171.13)" fill="#333" font-family="ComicNeue-Bold, &apos;Comic Neue&apos;" font-size="24" font-weight="700"><tspan x="0" y="0">I do not like the look of this.</tspan></text></svg>