<?xml version="1.0" encoding="UTF-8"?><svg id="uuid-5931c190-0e19-4233-aec3-ad0b15b8e391" xmlns="http://www.w3.org/2000/svg" viewBox="0 0 500 500"><text transform="translate(177.812988 104.924438)" fill="#333" font-family="ComicNeue-Regular, &apos;Comic Neue&apos;" font-size="24"><tspan x="0" y="0">22 April 1915</tspan></text><path d="M288.205043,272.014775c.005641.550276.455359.990867,1.005635.985225l.99543-.010205c.548166-.005619.989801-.456403.984181-1.00457-.005641-.550276-.455359-.990867-1.005635-.985225l-.994386.009139c-.549211.006686-.989801.456403-.985226,1.005636Z" fill="#434a54"/><path d="M288,269.824762v20.499886c.320683.578689.793368,1.043981,1.37318,1.038037.578621-.006974,1.04286-.48083.62682-1.059542v-20.499863c.195123-.578642-.279856-1.043981-.858476-1.037007-.579812.005944-1.044051.4798-1.141524,1.058489Z" fill="#656d78"/><path d="M289.542893,278.256443l3.055736,2.392609c.250491.196132.398217.495515.401479.813638l.06839,6.670905c.001912.186507-.045651.370187-.137844.532326l-3.015527,5.303403c-.22828.402361-.698386.601415-1.147477.485063-.447859-.115278-.762907-.518452-.76765-.981042l-.147916-14.428123.001075-.001098c-.006884-.565526.446795-1.028603,1.013419-1.034413.258865-.002653.495419.090479.676315.246729Z" fill="#a85d5d"/><path d="M283.259,308.539474c.003041.404991.242066.787478.637482.955565l3.159408,1.341265c.532793.227419,1.148065-.021012,1.374441-.553727s-.021024-1.149176-.554849-1.375541l-3.158377-1.342316c-.533264-.225815-1.148672.022618-1.37498.555399-.058371.136254-.085112.279827-.083126.419354Z" fill="#ed5564"/><path d="M287.558515,309.167318c.27292.184845.437636.492671.441485.822491l.03065,2.989722c.004476.436584-.262332.830151-.669544.987643l-7.992464,3.091137c-.306767.118345-.654239.079149-.927158-.105695-.273392-.185308-.438108-.493133-.441485-.822491l-.030126-2.990144c-.004402-.436921.262638-.830759.670162-.988375l7.990849-3.09058c.308365-.118762.65424-.079015.927631.106292Z" fill="#965353"/><path d="M277.152787,295.596872c2.182403,2.097249,4.518567,3.425131,6.756343,3.839804,1.614459.298335,2.649762.022802,2.726613.001374.317061-.106383.656396-.053361.930944.140358s.429861.511391.433312.847993l.043126,4.193074c.005786.564525-.435175,1.031192-.997953,1.058089-.284937.013206-7.049978.266585-13.380737-5.37683-.226898-.202895-.348074-.485057-.351081-.771696-.001016-.200901.054507-.404469.170963-.582599l2.06436-3.16696c.16995-.26124.44839-.433525.758532-.46923.311266-.034739.62077.07064.845577.286623Z" fill="#434a54"/><path d="M292.832185,314.298996c.203196.21651.306333.509375.284074.805783l-.221585,3.035087,1.078317,4.807.026992.232738.099926,9.747095c.007143.586787-.464708,1.068412-1.051518,1.073301l-8.503504.087177c-.325314.003829-.634044-.141555-.837553-.395479-.15167-.187794-.233878-.418721-.236317-.656597-.000835-.081453.008183-.164135.026171-.244722l4.070683-17.973598c.107287-.473713.52594-.811681,1.011625-.816661l3.466498-.035539c.297134-.002976.581381.118557.786191.334414Z" fill="#a85d5d"/><path d="M286,291.574545l.252691,23.387898c.003017.277954.123194.543932.333396.738431s.493631.301975.787929.299125l4.493815-.04351c.388793-.003764.743604-.222298.921905-.567816l1.09343-2.118882c.078487-.152094.11855-.321088.116692-.492229l-.268757-24.752731c-.004196-.386495-.233397-.738218-.595169-.918323-.36301-.178911-.799536-.155086-1.137509.061052l-5.511346,3.529196c-.30824.19632-.492137.527092-.487079.877789Z" fill="#656d78"/><path d="M293,308.443801v-12.579365c-.440945-.578712.023226-1.052498,1-1.059542v14.676395c-.827221.006563-1.301638-.458225-1-1.037487Z" fill="#434a54"/><path d="M288.205043,272.014775c.005641.550276.455359.990867,1.005635.985225l.99543-.010205c.548166-.005619.989801-.456403.984181-1.00457-.005641-.550276-.455359-.990867-1.005635-.985225l-.994386.009139c-.549211.006686-.989801.456403-.985226,1.005636Z" fill="none" stroke="#000" stroke-linecap="round" stroke-linejoin="round"/><path d="M288,269.824762v20.499886c.320683.578689.793368,1.043981,1.37318,1.038037.578621-.006974,1.04286-.48083.62682-1.059542v-20.499863c.195123-.578642-.279856-1.043981-.858476-1.037007-.579812.005944-1.044051.4798-1.141524,1.058489Z" fill="none" stroke="#000" stroke-linecap="round" stroke-linejoin="round"/><path d="M289.542893,278.256443l3.055736,2.392609c.250491.196132.398217.495515.401479.813638l.06839,6.670905c.001912.186507-.045651.370187-.137844.532326l-3.015527,5.303403c-.22828.402361-.698386.601415-1.147477.485063-.447859-.115278-.762907-.518452-.76765-.981042l-.147916-14.428123.001075-.001098c-.006884-.565526.446795-1.028603,1.013419-1.034413.258865-.002653.495419.090479.676315.246729Z" fill="none" stroke="#000" stroke-linecap="round" stroke-linejoin="round"/><path d="M283.259,308.539474c.003041.404991.242066.787478.637482.955565l3.159408,1.341265c.532793.227419,1.148065-.021012,1.374441-.553727s-.021024-1.149176-.554849-1.375541l-3.158377-1.342316c-.533264-.225815-1.148672.022618-1.37498.555399-.058371.136254-.085112.279827-.083126.419354Z" fill="none" stroke="#000" stroke-linecap="round" stroke-linejoin="round"/><path d="M287.558515,309.167318c.27292.184845.437636.492671.441485.822491l.03065,2.989722c.004476.436584-.262332.830151-.669544.987643l-7.992464,3.091137c-.306767.118345-.654239.079149-.927158-.105695-.273392-.185308-.438108-.493133-.441485-.822491l-.030126-2.990144c-.004402-.436921.262638-.830759.670162-.988375l7.990849-3.09058c.308365-.118762.65424-.079015.927631.106292Z" fill="none" stroke="#000" stroke-linecap="round" stroke-linejoin="round"/><path d="M277.152787,295.596872c2.182403,2.097249,4.518567,3.425131,6.756343,3.839804,1.614459.298335,2.649762.022802,2.726613.001374.317061-.106383.656396-.053361.930944.140358s.429861.511391.433312.847993l.043126,4.193074c.005786.564525-.435175,1.031192-.997953,1.058089-.284937.013206-7.049978.266585-13.380737-5.37683-.226898-.202895-.348074-.485057-.351081-.771696-.001016-.200901.054507-.404469.170963-.582599l2.06436-3.16696c.16995-.26124.44839-.433525.758532-.46923.311266-.034739.62077.07064.845577.286623Z" fill="none" stroke="#000" stroke-linecap="round" stroke-linejoin="round"/><path d="M292.832185,314.298996c.203196.21651.306333.509375.284074.805783l-.221585,3.035087,1.078317,4.807.026992.232738.099926,9.747095c.007143.586787-.464708,1.068412-1.051518,1.073301l-8.503504.087177c-.325314.003829-.634044-.141555-.837553-.395479-.15167-.187794-.233878-.418721-.236317-.656597-.000835-.081453.008183-.164135.026171-.244722l4.070683-17.973598c.107287-.473713.52594-.811681,1.011625-.816661l3.466498-.035539c.297134-.002976.581381.118557.786191.334414Z" fill="none" stroke="#000" stroke-linecap="round" stroke-linejoin="round"/><path d="M286,291.574545l.252691,23.387898c.003017.277954.123194.543932.333396.738431s.493631.301975.787929.299125l4.493815-.04351c.388793-.003764.743604-.222298.921905-.567816l1.09343-2.118882c.078487-.152094.11855-.321088.116692-.492229l-.268757-24.752731c-.004196-.386495-.233397-.738218-.595169-.918323-.36301-.178911-.799536-.155086-1.137509.061052l-5.511346,3.529196c-.30824.19632-.492137.527092-.487079.877789Z" fill="none" stroke="#000" stroke-linecap="round" stroke-linejoin="round"/><path d="M293,308.443801v-12.579365c-.440945-.578712.023226-1.052498,1-1.059542v14.676395c-.827221.006563-1.301638-.458225-1-1.037487Z" fill="none" stroke="#000" stroke-linecap="round" stroke-linejoin="round"/><g id="uuid-97049597-8327-4c81-94a7-a1a50e103dd2"><polygon id="uuid-185a8aca-4394-4028-8d64-152385eb33ae" points="273 358 264 358 264 373.815144 264 377 277 377 277 374 273 374 273 358" fill="#5f4d2f"/><rect id="uuid-52f47788-b65b-4ef7-984a-bf3888af44fc" x="263" y="336" width="11.000008" height="22" fill="#726038"/><polygon id="uuid-3913c51d-4d20-4e40-ab40-a5b3673b96c2" points="258.999987 358 250 358 250 374 246 374 246 377 259 377 259 373.815144 258.999987 373.815144 258.999987 358" fill="#5f4d2f"/><rect id="uuid-96949fdf-2aee-4d72-9d97-6f6fcfd12a11" x="248.999992" y="336" width="11.000017" height="22" fill="#726038"/><path id="uuid-40662baa-9785-4592-bf6c-880229765bb0" d="M249,291v45h25v-45h-25Z" fill="#726038"/><rect id="uuid-f2a2b596-a829-4d29-b1a0-f46144fabf6f" x="249" y="317" width="25" height="7" fill="#ac935a"/><rect id="uuid-8e9646a2-47b2-4ef4-8ba9-7d6c755a4c65" x="267" y="291" width="3" height="26" fill="#ac935a"/><rect id="uuid-3d6ddd38-5147-430b-ba55-c4af6a72137f" x="253" y="291" width="3" height="26" fill="#ac935a"/><path id="uuid-88e2dbe2-9fc8-4686-9c2d-36c405dcc6c3" d="M274.008839,283.645683c.659503-2.488011.899483-5.241635.617039-8.104346-.975262-9.884794-7.775782-17.305064-15.189384-16.573617-7.413602.731447-12.632907,9.337627-11.657645,19.222421.282443,2.862711,1.055918,5.516345,2.188921,7.827502l24.041069-2.37196Z" fill="#eec6a2"/><path id="uuid-aa7c2800-046f-46a1-814f-f072d5c374cd" d="M250.403467,288c2.394591,5.008396,6.59437,8.333174,11.379189,8.333174s8.984598-3.324779,11.379189-8.333174h-22.758379Z" fill="#eec6a2"/><ellipse id="uuid-1f99fbb1-d03f-4ae3-a509-dccec9a63060" cx="270.5" cy="278" rx="1.5" ry="2" fill="#333"/><ellipse id="uuid-6f0a92fc-d80f-4563-add8-20c8f60a7d35" cx="263.5" cy="279" rx="1.5" ry="2" fill="#333"/><rect id="uuid-374d5af1-d573-42ce-a4d9-ff30dcbce93f" x="275.703934" y="305.04354" width="6.744333" height="14.387935" transform="translate(-29.308761 28.909944) rotate(-5.634698)" fill="#726038"/><rect id="uuid-b0346d13-1fb0-4cb2-a7fa-91564de06d15" x="274.298657" y="290.800231" width="6.744333" height="14.387935" transform="translate(-27.917064 28.703144) rotate(-5.634698)" fill="#726038"/><rect id="uuid-e522e874-22ac-4fde-9967-c1de621295ef" x="237.980597" y="294.622031" width="14.387935" height="6.744333" transform="translate(-71.744272 518.161317) rotate(-85.342327)" fill="#726038"/><rect id="uuid-18fdcfb9-41e4-4c3b-9084-13648e597d9a" x="236.820176" y="308.865341" width="14.387935" height="6.744333" transform="translate(-87.006737 530.091449) rotate(-85.342327)" fill="#726038"/><rect id="uuid-128a7bed-8307-4aa8-9fb6-ebd48a7aaa94" x="276.543777" y="319.431473" width="7.193968" height="7.193968" transform="translate(-30.363288 29.066783) rotate(-5.634728)" fill="#eec6a2"/><rect id="uuid-e7aeea44-f401-45ed-9b45-8810dc827c6c" x="239.538007" y="319.431473" width="7.193968" height="7.193968" transform="translate(-98.5697 539.130082) rotate(-85.342357)" fill="#eec6a2"/><circle id="uuid-bf222f46-a910-49d5-b99b-7dc58eadf090" cx="262" cy="312" r="1" fill="#333"/><circle id="uuid-6d0f3b5f-47fd-406f-bec7-08ccc2e5545d" cx="262" cy="308" r="1" fill="#333"/><circle id="uuid-232e71c7-eee2-45da-92da-a19e23b06406" cx="262" cy="305" r="1" fill="#333"/><circle id="uuid-72541478-2709-484f-ad51-97ba5126cbce" cx="262" cy="301" r="1" fill="#333"/><path d="M275.183392,265.026429c-1.424664-6.168675-8.312682-10.403647-16.099779-9.63535-7.787097.768297-13.714695,6.267694-13.906386,12.595844-2.566123.62896-4.0788,1.253575-4.028237,1.766051.118768,1.203779,8.795534,1.333053,19.380098.28875,10.584564-1.044303,19.068769-2.866727,18.950001-4.070506-.050562-.512476-1.656138-.829435-4.295696-.944788Z" fill="#596a66"/><polygon id="uuid-770ecb84-be4e-48f0-9f22-9ec37b1ce840" points="273 358 264 358 264 373.815144 264 377 277 377 277 374 273 374 273 358" fill="none" stroke="#000" stroke-linecap="round" stroke-linejoin="round"/><rect id="uuid-db062789-0f2c-4308-9498-33200e12dc0b" x="263" y="336" width="11.000008" height="22" fill="none" stroke="#000" stroke-linecap="round" stroke-linejoin="round"/><polygon id="uuid-000a875f-a689-41b1-a569-006580edd4ad" points="258.999987 358 250 358 250 374 246 374 246 377 259 377 259 373.815144 258.999987 373.815144 258.999987 358" fill="none" stroke="#000" stroke-linecap="round" stroke-linejoin="round"/><rect id="uuid-d8db70eb-2505-4305-8547-4fa8097b2c53" x="248.999992" y="336" width="11.000017" height="22" fill="none" stroke="#000" stroke-linecap="round" stroke-linejoin="round"/><path id="uuid-ee618249-26b4-4131-8f84-e8e00a02187c" d="M249,291v45h25v-45h-25Z" fill="none" stroke="#000" stroke-linecap="round" stroke-linejoin="round"/><rect id="uuid-e861fa1e-30bd-45d4-a2d9-89c138cceaac" x="249" y="317" width="25" height="7" fill="none" stroke="#000" stroke-linecap="round" stroke-linejoin="round"/><rect id="uuid-3fba81d4-e0ff-48b6-9e53-76e05085ea51" x="267" y="291" width="3" height="26" fill="none" stroke="#000" stroke-linecap="round" stroke-linejoin="round"/><rect id="uuid-d7a2b229-e66f-44e2-a49d-8ad078106bd2" x="253" y="291" width="3" height="26" fill="none" stroke="#000" stroke-linecap="round" stroke-linejoin="round"/><path id="uuid-151cfe1e-5a0d-42d9-b846-29d6a349cffd" d="M274.008839,283.645683c.659503-2.488011.899483-5.241635.617039-8.104346-.975262-9.884794-7.775782-17.305064-15.189384-16.573617-7.413602.731447-12.632907,9.337627-11.657645,19.222421.282443,2.862711,1.055918,5.516345,2.188921,7.827502l24.041069-2.37196Z" fill="none" stroke="#000" stroke-linecap="round" stroke-linejoin="round"/><path id="uuid-d5958b9d-4229-497d-bff8-3640cbb0cb8b" d="M250.403467,288c2.394591,5.008396,6.59437,8.333174,11.379189,8.333174s8.984598-3.324779,11.379189-8.333174h-22.758379Z" fill="none" stroke="#000" stroke-linecap="round" stroke-linejoin="round"/><ellipse id="uuid-90657b50-e417-498d-86d6-cff10b2096d8" cx="270.5" cy="278" rx="1.5" ry="2" fill="none" stroke="#000" stroke-linecap="round" stroke-linejoin="round"/><ellipse id="uuid-5006fd4d-1b0d-42e2-9063-0692f55ed343" cx="263.5" cy="279" rx="1.5" ry="2" fill="none" stroke="#000" stroke-linecap="round" stroke-linejoin="round"/><rect id="uuid-3b8bfba8-c717-4e4e-81d2-8abcb5094255" x="275.703934" y="305.04354" width="6.744333" height="14.387935" transform="translate(-29.308761 28.909944) rotate(-5.634698)" fill="none" stroke="#000" stroke-linecap="round" stroke-linejoin="round"/><rect id="uuid-8c510363-7d9c-4aaf-8a87-d68026fc7e6f" x="274.298657" y="290.800231" width="6.744333" height="14.387935" transform="translate(-27.917064 28.703144) rotate(-5.634698)" fill="none" stroke="#000" stroke-linecap="round" stroke-linejoin="round"/><rect id="uuid-134192e7-b026-4f1e-a148-317161b55c72" x="237.980597" y="294.622031" width="14.387935" height="6.744333" transform="translate(-71.744272 518.161317) rotate(-85.342327)" fill="none" stroke="#000" stroke-linecap="round" stroke-linejoin="round"/><rect id="uuid-e596d4de-2e99-4746-9bca-059759c0e130" x="236.820176" y="308.865341" width="14.387935" height="6.744333" transform="translate(-87.006737 530.091449) rotate(-85.342327)" fill="none" stroke="#000" stroke-linecap="round" stroke-linejoin="round"/><rect id="uuid-0279d8aa-cf6e-47eb-b27a-5721418c50ac" x="276.543777" y="319.431473" width="7.193968" height="7.193968" transform="translate(-30.363288 29.066783) rotate(-5.634728)" fill="none" stroke="#000" stroke-linecap="round" stroke-linejoin="round"/><rect id="uuid-4efc2824-c03b-49d7-8967-7298fdb62346" x="239.538007" y="319.431473" width="7.193968" height="7.193968" transform="translate(-98.5697 539.130082) rotate(-85.342357)" fill="none" stroke="#000" stroke-linecap="round" stroke-linejoin="round"/><circle id="uuid-80ed7eee-25c7-4ce3-847a-653cb529d60e" cx="262" cy="312" r="1" fill="none" stroke="#000" stroke-linecap="round" stroke-linejoin="round"/><circle id="uuid-0290ccf1-ba56-42cc-81cb-049b239ae097" cx="262" cy="308" r="1" fill="none" stroke="#000" stroke-linecap="round" stroke-linejoin="round"/><circle id="uuid-2c6d525e-43a6-4f10-babf-8d29cd701ba7" cx="262" cy="305" r="1" fill="none" stroke="#000" stroke-linecap="round" stroke-linejoin="round"/><circle id="uuid-3553fa8a-abf5-47ab-b824-fa16d5977515" cx="262" cy="301" r="1" fill="none" stroke="#000" stroke-linecap="round" stroke-linejoin="round"/><path d="M275.183392,265.026429c-1.424664-6.168675-8.312682-10.403647-16.099779-9.63535-7.787097.768297-13.714695,6.267694-13.906386,12.595844-2.566123.62896-4.0788,1.253575-4.028237,1.766051.118768,1.203779,8.795534,1.333053,19.380098.28875,10.584564-1.044303,19.068769-2.866727,18.950001-4.070506-.050562-.512476-1.656138-.829435-4.295696-.944788Z" fill="none" stroke="#000" stroke-linecap="round" stroke-linejoin="round"/></g><g id="uuid-33b56ddc-c713-40cb-b401-93421a240495"><polygon id="uuid-231c0172-418c-4edd-8306-21e03e6c6df5" points="237.801721 344.680372 229.386418 347.634238 234.520266 362.260113 235.554121 365.205473 248.177095 360.774666 247.14324 357.829306 242.935569 359.306246 237.801721 344.680372" fill="#5f5f5f"/><rect id="uuid-0c473162-65f6-459a-8816-4cc168e3b89d" x="222.143021" y="327.908368" width="11.102428" height="21.916081" transform="translate(-159.545413 209.558394) rotate(-37.636371)" fill="#727272"/><polygon id="uuid-67851706-92d0-43a1-9ce3-928950b74045" points="210.203386 351.609539 218.693243 348.877328 223.441851 363.632778 227.686786 362.266671 228.643062 365.238125 215.908256 369.336448 214.951981 366.364993 214.951994 366.364989 210.203386 351.609539" fill="#5f5f5f"/><rect id="uuid-24bce09a-19e2-41b8-b412-de7ee6fe9baa" x="204.57252" y="330.404792" width="11.10242" height="21.916081" transform="translate(-124.151738 120.137886) rotate(-24.889126)" fill="#727272"/><path id="uuid-f9b45395-167b-4903-bed9-83f5057a5ebb" d="M200,289v45h25v-45h-25Z" fill="#727272"/><rect id="uuid-6e3962e2-0683-47b9-a89e-37f1fa020fd3" x="200" y="316" width="25" height="7" fill="#acacac"/><rect id="uuid-0f1e9424-5419-45d1-9601-3fa40c4d2fe1" x="218" y="289" width="3" height="26" fill="#acacac"/><rect id="uuid-601dd409-71c8-4f0b-ab4f-8dadae9584e9" x="205" y="289" width="3" height="26" fill="#acacac"/><path id="uuid-6d1c7902-e7ed-4edc-a619-3426cff33708" d="M225.019033,285c.893216-2.391452,1.398226-5.085919,1.398226-7.938928,0-9.851295-5.989545-17.837365-13.378024-17.837365s-13.378024,7.986069-13.378024,17.837365c0,2.853009.50501,5.547476,1.398226,7.938928h23.959596Z" fill="#ccc"/><path id="uuid-018adfbd-af63-4783-86a0-6fbc41016ff3" d="M201.753405,286c2.374945,4.967304,6.540267,8.264805,11.285829,8.264805s8.910884-3.297501,11.285829-8.264805h-22.571659Z" fill="#ccc"/><ellipse id="uuid-1be01861-ce32-442c-b932-3b0f923550f7" cx="215.5" cy="276" rx="1.5" ry="2" fill="#333"/><ellipse id="uuid-f2967f23-d0fd-430a-aa92-6778dccfdd1b" cx="207.5" cy="276" rx="1.5" ry="2" fill="#333"/><rect id="uuid-12c45cb6-e285-458d-a6ec-892f3535b57c" x="226.278481" y="303.769851" width="6.689" height="14.26989" transform="translate(-11.860916 9.120049) rotate(-2.218075)" fill="#727272"/><rect id="uuid-05673874-2ef3-4dcb-8103-b93f3d5a6cac" x="225.72618" y="289.510652" width="6.689" height="14.26989" transform="translate(-11.309455 9.08799) rotate(-2.218075)" fill="#727272"/><rect id="uuid-46a1b91b-7ba2-479b-bdcc-d6cd2defccd1" x="189.376764" y="292.949962" width="14.26989" height="6.689" transform="translate(-123.098292 452.040111) rotate(-82.426354)" fill="#727272"/><rect id="uuid-a6477eea-4ee5-4a7c-9afe-5d6411d0aa5d" x="187.495998" y="307.095368" width="14.26989" height="6.689" transform="translate(-138.753178 462.456787) rotate(-82.426354)" fill="#727272"/><rect id="uuid-6c3281f8-4fa5-40c9-9a82-ede44a1a8b4c" x="226.475372" y="318.177309" width="7.134946" height="7.134946" transform="translate(-12.280409 9.144629) rotate(-2.218124)" fill="#ccc"/><rect id="uuid-1c219abd-63aa-40e5-8c1a-de6553d70a27" x="189.652895" y="317.48145" width="7.134946" height="7.134946" transform="translate(-150.494215 470.26959) rotate(-82.426403)" fill="#ccc"/><circle id="uuid-696604bb-a0b3-468c-b94c-2a3b76582890" cx="213" cy="310" r="1" fill="#333"/><circle id="uuid-95eea0f1-03cb-41a5-9199-554467c2b2a5" cx="213" cy="307" r="1" fill="#333"/><circle id="uuid-e19fd19b-27d0-4e52-882b-ac8880a2eb1f" cx="213" cy="303" r="1" fill="#333"/><circle id="uuid-9b63c365-e8e2-484f-85cf-c09d452b29a0" cx="213" cy="299" r="1" fill="#333"/><path d="M227.991473,266.379081c-.805439-6.227237-7.191531-11.077927-14.952238-11.077927s-14.1468,4.85069-14.952238,11.077927c-2.59402.370895-4.147862.840087-4.147862,1.350826,0,1.1997,8.551407,2.172241,19.100101,2.172241s19.100101-.972541,19.100101-2.172241c0-.510739-1.553843-.979931-4.147862-1.350826Z" fill="#6a6a6a"/><polygon id="uuid-2699a9a7-eff0-4645-880d-c74a1ddd0032" points="237.801721 344.680372 229.386418 347.634238 234.520266 362.260113 235.554121 365.205473 248.177095 360.774666 247.14324 357.829306 242.935569 359.306246 237.801721 344.680372" fill="none" stroke="#000" stroke-linecap="round" stroke-linejoin="round"/><rect id="uuid-6e180c03-5cc3-4956-8d48-5967ac40371c" x="222.143021" y="327.908368" width="11.102428" height="21.916081" transform="translate(-159.545413 209.558394) rotate(-37.636371)" fill="none" stroke="#000" stroke-linecap="round" stroke-linejoin="round"/><polygon id="uuid-73157757-e1d9-4505-a8f9-80ef00531427" points="210.203386 351.609539 218.693243 348.877328 223.441851 363.632778 227.686786 362.266671 228.643062 365.238125 215.908256 369.336448 214.951981 366.364993 214.951994 366.364989 210.203386 351.609539" fill="none" stroke="#000" stroke-linecap="round" stroke-linejoin="round"/><rect id="uuid-e0012bbf-743f-4098-97fd-b3c83035d21d" x="204.57252" y="330.404792" width="11.10242" height="21.916081" transform="translate(-124.151738 120.137886) rotate(-24.889126)" fill="none" stroke="#000" stroke-linecap="round" stroke-linejoin="round"/><path id="uuid-bd6cb810-b4de-40a8-a857-78885f9ce5fa" d="M200,289v45h25v-45h-25Z" fill="none" stroke="#000" stroke-linecap="round" stroke-linejoin="round"/><rect id="uuid-94691898-0890-4bef-9120-80f422a4b2d1" x="200" y="316" width="25" height="7" fill="none" stroke="#000" stroke-linecap="round" stroke-linejoin="round"/><rect id="uuid-9109ceb5-c26d-407c-9c1f-7fd330749c20" x="218" y="289" width="3" height="26" fill="none" stroke="#000" stroke-linecap="round" stroke-linejoin="round"/><rect id="uuid-ab848769-76c8-4c50-b6d6-21237823e067" x="205" y="289" width="3" height="26" fill="none" stroke="#000" stroke-linecap="round" stroke-linejoin="round"/><path id="uuid-59790aef-b9dc-4e32-8a4b-6d651103ec10" d="M225.019033,285c.893216-2.391452,1.398226-5.085919,1.398226-7.938928,0-9.851295-5.989545-17.837365-13.378024-17.837365s-13.378024,7.986069-13.378024,17.837365c0,2.853009.50501,5.547476,1.398226,7.938928h23.959596Z" fill="none" stroke="#000" stroke-linecap="round" stroke-linejoin="round"/><path id="uuid-e8b2ebf3-2bfb-4092-b8c1-54b608dec224" d="M201.753405,286c2.374945,4.967304,6.540267,8.264805,11.285829,8.264805s8.910884-3.297501,11.285829-8.264805h-22.571659Z" fill="none" stroke="#000" stroke-linecap="round" stroke-linejoin="round"/><ellipse id="uuid-f89c6db5-b461-4355-ac37-0e55ad9ee8ea" cx="215.5" cy="276" rx="1.5" ry="2" fill="none" stroke="#000" stroke-linecap="round" stroke-linejoin="round"/><ellipse id="uuid-fdd1f536-5309-41c0-a5dd-b703b49c3ff5" cx="207.5" cy="276" rx="1.5" ry="2" fill="none" stroke="#000" stroke-linecap="round" stroke-linejoin="round"/><rect id="uuid-46708007-e42b-4856-82be-c749b6e4a077" x="226.278481" y="303.769851" width="6.689" height="14.26989" transform="translate(-11.860916 9.120049) rotate(-2.218075)" fill="none" stroke="#000" stroke-linecap="round" stroke-linejoin="round"/><rect id="uuid-17970b6d-fcdc-43f2-8e23-f8d7554e8b12" x="225.72618" y="289.510652" width="6.689" height="14.26989" transform="translate(-11.309455 9.08799) rotate(-2.218075)" fill="none" stroke="#000" stroke-linecap="round" stroke-linejoin="round"/><rect id="uuid-2670700b-1955-41ae-9baf-160f7376b6af" x="189.376764" y="292.949962" width="14.26989" height="6.689" transform="translate(-123.098292 452.040111) rotate(-82.426354)" fill="none" stroke="#000" stroke-linecap="round" stroke-linejoin="round"/><rect id="uuid-279a5e50-4996-4de0-a014-1d917772c1bd" x="187.495998" y="307.095368" width="14.26989" height="6.689" transform="translate(-138.753178 462.456787) rotate(-82.426354)" fill="none" stroke="#000" stroke-linecap="round" stroke-linejoin="round"/><rect id="uuid-441b8d54-685c-4115-89d2-ca5e2295b258" x="226.475372" y="318.177309" width="7.134946" height="7.134946" transform="translate(-12.280409 9.144629) rotate(-2.218124)" fill="none" stroke="#000" stroke-linecap="round" stroke-linejoin="round"/><rect id="uuid-92d114a9-a8af-4438-a142-8d5d93ca559d" x="189.652895" y="317.48145" width="7.134946" height="7.134946" transform="translate(-150.494215 470.26959) rotate(-82.426403)" fill="none" stroke="#000" stroke-linecap="round" stroke-linejoin="round"/><circle id="uuid-096f8cad-2215-41a1-a6ae-65904d3ca991" cx="213" cy="310" r="1" fill="none" stroke="#000" stroke-linecap="round" stroke-linejoin="round"/><circle id="uuid-4afd991e-d46e-4c2b-9518-4d94995c6534" cx="213" cy="307" r="1" fill="none" stroke="#000" stroke-linecap="round" stroke-linejoin="round"/><circle id="uuid-8ec2124b-6e35-4c85-a71a-64ac7600c779" cx="213" cy="303" r="1" fill="none" stroke="#000" stroke-linecap="round" stroke-linejoin="round"/><circle id="uuid-304709f1-d463-46c5-9298-3193504d2afc" cx="213" cy="299" r="1" fill="none" stroke="#000" stroke-linecap="round" stroke-linejoin="round"/><path d="M227.991473,266.379081c-.805439-6.227237-7.191531-11.077927-14.952238-11.077927s-14.1468,4.85069-14.952238,11.077927c-2.59402.370895-4.147862.840087-4.147862,1.350826,0,1.1997,8.551407,2.172241,19.100101,2.172241s19.100101-.972541,19.100101-2.172241c0-.510739-1.553843-.979931-4.147862-1.350826Z" fill="none" stroke="#000" stroke-linecap="round" stroke-linejoin="round"/></g><path d="M58.423106,329.563169s-.548973-7.704387,3.097775-11.324275c4.117295-4.065122,7.842466-3.271463,16.292726-3.484399,13.116526-.34844,24.194009-.329078,24.194009-.329078,0,0,17.567127-32.888796,21.272691-38.521906,3.705564-5.613748,10.626546-13.937574,22.017724-15.118398,11.391185-1.180823,36.820378,0,40.133825.135504,3.313447.135504,5.568144,1.955129,5.568144,5.613748v50.465636h95.227149c2.921315,0,4.352571,3.29081,5.156416,5.226584.725434,1.7422,1.725352,6.751013,1.725352,6.751013l-15.234,12.858388-219.451812-12.272815Z" fill="#39b54a"/><polygon points="59.178338 362.344175 58 346.153948 57.882166 329 293 328.86233 292.980357 363.046305 293.883748 373 129.623345 373.81226 59.178338 362.344175" fill="#009245"/><path d="M72.084404,368.47245c.675383-.177086,13.430451-6.974619,13.430451-6.974619,0,0,3.08746-4.182045,4.611892-5.244582,1.524435-1.076163,2.778715-1.253249,5.075014-1.253249,2.277002,0,27.110595.169792,29.38632.169792s4.458943,1.541225,5.828082,3.030204,11.101103,12.800004,11.101103,12.800004h81.056465s6.960195-11.621799,7.901283-13.144287c.941088-1.522488,1.725337-2.477507,4.470204-2.546705,2.744866-.055365,34.330401.124562,36.310628.124562s3.176204.844291,4.038865,1.937716c.862676,1.093426,7.607187,14.628713,7.607187,14.628713l7.709123-.062818-1.850769,5.062818H72.798379l-.713975-8.52755Z" fill="#006837"/><path d="M82.781751,388.669654c.176456,10.813248,8.195378,26.308335,26.625174,26.445459,18.429796.117531,27.997607-14.260956,27.429026-28.992065-.588183-14.96617-12.018582-25.544356-28.468154-25.074219-15.390838.450559-25.821319,12.65464-25.586045,27.620825Z" fill="#4e433d"/><path d="M94.917969,387.709771c.098029,5.700473,4.725086,13.90835,14.822261,13.967115,10.097171.058765,14.97911-7.091306,14.665411-14.848639-.333301-7.894457-6.783732-13.771226-15.253599-13.653695-8.411043.137139-14.351709,6.660356-14.234073,14.535219Z" fill="#c8c8c8"/><path d="M225.475435,388.630472c.176448,10.813248,8.626716,26.367101,27.076111,26.484631,18.429799.117531,27.997603-14.260956,27.429022-28.992065-.588191-14.96617-12.018575-25.544356-28.468147-25.074219-15.410448.450574-26.272266,12.59589-26.036986,27.581653Z" fill="#4e433d"/><path d="M238.04298,387.709776c.098037,5.700473,4.725093,13.90835,14.822257,13.967115,10.097164.058765,14.97911-7.091306,14.665419-14.848639-.333301-7.894457-6.783732-13.771226-15.253595-13.653695-8.411047.137139-14.351713,6.660356-14.234081,14.535219Z" fill="#c8c8c8"/><path d="M58.176013,363.281311c.019606.775082.548973,10.865038.548973,12.138391,0,1.287196,1.235189,2.435987,4.117295,2.505184,2.882107.069208,12.469523,0,12.469523,0,0,0,2.19589-4.027683,4.705479-8.027677,2.882107-4.59515,6.156335-9.051895,6.156335-9.162624,0-.055365-21.155053-.15225-23.272519-.15225s-4.80351.346042-4.725085,2.698976Z" fill="#b0b0b1"/><path d="M288,360.15573l-.176448,16.84427h9.90112c1.470462,0,2.842888-1.64706,2.764477-2.740486s-.176448-11.003444-.254875-12.09687c-.078426-1.093426-1.901801-2.006914-3.783991-2.006914s-8.528709-.193771-8.450283,0Z" fill="#b0b0b1"/><path d="M285.235021,329.122177c-1.078345.761249-.470544,21.20413.117632,21.868493.470544.525947,8.744348.207614,8.744348.207614,0,0,.215669-6.076117.352912-10.394456.176448-5.771618-1.470462-11.986152-1.470462-11.986152,0,0-7.058217-.179927-7.74443.3045Z" fill="#006837"/><path d="M157.775337,330.229446c-3.019351,0-4.54863,1.64706-4.470204,3.404839.078426,2.006914,2.333131,2.920413,4.744696,2.975778,2.411558.055365,9.901112,0,11.802913-.055365s3.960446-1.217988,3.88202-3.349475c-.058816-1.577852-1.901801-2.865048-3.705564-2.920413-1.823382-.055365-10.68537-.055365-12.253861-.055365Z" fill="#006837"/><path d="M187.314127,321.675821c0-1.370238.80386-2.062279,2.293918-1.993081,1.235183.055365,2.391955.373697,2.391955,2.186851v55.432461c0,.802759-.882271,1.439446-2.039043,1.494811-1.156757.055365-2.391955-.622832-2.470381-1.564008-.078412-.927332-.176448-54.878837-.176448-55.557034Z" fill="#006837"/><path d="M61.803154,330.187925s3.587928.15225,4.764299.941176c1.52928,1.024217,3.94084,5.70242,3.999658,6.546711.078425,1.065738.235274,11.653964-.235274,12.193755-.156849.193771-7.960103.249135-7.999316.235291-.058819-.027677-1.901799-8.456739-1.94101-10.408289-.098032-5.619378,1.195975-9.384082,1.411643-9.508644Z" fill="#fdfefe"/><path d="M58.626955,349.972323s-.529366-4.013839-.607791-10.934247c-.058818-5.107254.235274-9.176457.235274-9.176457l3.999658.249135s.176456,4.069203.176456,9.467113c0,4.415224.548973,10.422133.548973,10.422133l-4.35257-.027677Z" fill="#dbcdc7"/><path d="M145.933211,268.0364c-7.175857.658163-10.97945,4.742648-14.86147,9.756303-3.88202,5.013655-18.272946,33.353386-18.645465,35.250451-.450941,2.361647,3.313443,1.722838,8.214985,1.722838,4.332961,0,55.367809.271007,57.485279.174213,2.11747-.096795,4.058476-1.916412,4.156513-6.83328.098037-4.916868,0-30.972384-.098037-33.992187s-1.568499-5.555669-5.901453-5.826677c-3.23502-.174227-26.135023-.638816-30.350352-.25166Z" fill="#546f79"/><path d="M122.758723,308.397293c-.78425-.677518,9.901112-20.480493,11.155906-22.687274,2.66644-4.645861,5.528938-7.568876,8.214981-9.117494,2.66644-1.548618,5.176027-1.780909,8.665929-1.91642,4.881939-.17422,23.5274-.464589,24.174407.309724s.470551,25.84258.274485,28.378447c-.176456,2.555229-.431338,4.645853-3.23502,4.820081-5.76421.367802-16.371146.038709-26.213442.096795-11.842126.09678-22.625518.464582-23.037245.116142Z" fill="#afe3fb"/><path d="M58.423106,329.563169s-.548973-7.704387,3.097775-11.324275c4.117295-4.065122,7.842466-3.271463,16.292726-3.484399,13.116526-.34844,24.194009-.329078,24.194009-.329078,0,0,17.567127-32.888796,21.272691-38.521906,3.705564-5.613748,10.626546-13.937574,22.017724-15.118398,11.391185-1.180823,36.820378,0,40.133825.135504,3.313447.135504,5.568144,1.955129,5.568144,5.613748v50.465636h95.227149c2.921315,0,4.352571,3.29081,5.156416,5.226584.725434,1.7422,1.725352,6.751013,1.725352,6.751013l-15.234,12.858388-219.451812-12.272815Z" fill="none" stroke="#000" stroke-linecap="round" stroke-linejoin="round"/><polygon points="59.178338 362.344175 58 346.153948 57.882166 329 293 328.86233 292.980357 363.046305 293.883748 373 129.623345 373.81226 59.178338 362.344175" fill="none" stroke="#000" stroke-linecap="round" stroke-linejoin="round"/><path d="M72.084404,368.47245c.675383-.177086,13.430451-6.974619,13.430451-6.974619,0,0,3.08746-4.182045,4.611892-5.244582,1.524435-1.076163,2.778715-1.253249,5.075014-1.253249,2.277002,0,27.110595.169792,29.38632.169792s4.458943,1.541225,5.828082,3.030204,11.101103,12.800004,11.101103,12.800004h81.056465s6.960195-11.621799,7.901283-13.144287c.941088-1.522488,1.725337-2.477507,4.470204-2.546705,2.744866-.055365,34.330401.124562,36.310628.124562s3.176204.844291,4.038865,1.937716c.862676,1.093426,7.607187,14.628713,7.607187,14.628713l7.709123-.062818-1.850769,5.062818H72.798379l-.713975-8.52755Z" fill="none" stroke="#000" stroke-linecap="round" stroke-linejoin="round"/><path d="M82.781751,388.669654c.176456,10.813248,8.195378,26.308335,26.625174,26.445459,18.429796.117531,27.997607-14.260956,27.429026-28.992065-.588183-14.96617-12.018582-25.544356-28.468154-25.074219-15.390838.450559-25.821319,12.65464-25.586045,27.620825Z" fill="none" stroke="#000" stroke-linecap="round" stroke-linejoin="round"/><path d="M94.917969,387.709771c.098029,5.700473,4.725086,13.90835,14.822261,13.967115,10.097171.058765,14.97911-7.091306,14.665411-14.848639-.333301-7.894457-6.783732-13.771226-15.253599-13.653695-8.411043.137139-14.351709,6.660356-14.234073,14.535219Z" fill="none" stroke="#000" stroke-linecap="round" stroke-linejoin="round"/><path d="M225.475435,388.630472c.176448,10.813248,8.626716,26.367101,27.076111,26.484631,18.429799.117531,27.997603-14.260956,27.429022-28.992065-.588191-14.96617-12.018575-25.544356-28.468147-25.074219-15.410448.450574-26.272266,12.59589-26.036986,27.581653Z" fill="none" stroke="#000" stroke-linecap="round" stroke-linejoin="round"/><path d="M238.04298,387.709776c.098037,5.700473,4.725093,13.90835,14.822257,13.967115,10.097164.058765,14.97911-7.091306,14.665419-14.848639-.333301-7.894457-6.783732-13.771226-15.253595-13.653695-8.411047.137139-14.351713,6.660356-14.234081,14.535219Z" fill="none" stroke="#000" stroke-linecap="round" stroke-linejoin="round"/><path d="M58.176013,363.281311c.019606.775082.548973,10.865038.548973,12.138391,0,1.287196,1.235189,2.435987,4.117295,2.505184,2.882107.069208,12.469523,0,12.469523,0,0,0,2.19589-4.027683,4.705479-8.027677,2.882107-4.59515,6.156335-9.051895,6.156335-9.162624,0-.055365-21.155053-.15225-23.272519-.15225s-4.80351.346042-4.725085,2.698976Z" fill="none" stroke="#000" stroke-linecap="round" stroke-linejoin="round"/><path d="M288,360.15573l-.176448,16.84427h9.90112c1.470462,0,2.842888-1.64706,2.764477-2.740486s-.176448-11.003444-.254875-12.09687c-.078426-1.093426-1.901801-2.006914-3.783991-2.006914s-8.528709-.193771-8.450283,0Z" fill="none" stroke="#000" stroke-linecap="round" stroke-linejoin="round"/><path d="M285.235021,329.122177c-1.078345.761249-.470544,21.20413.117632,21.868493.470544.525947,8.744348.207614,8.744348.207614,0,0,.215669-6.076117.352912-10.394456.176448-5.771618-1.470462-11.986152-1.470462-11.986152,0,0-7.058217-.179927-7.74443.3045Z" fill="none" stroke="#000" stroke-linecap="round" stroke-linejoin="round"/><path d="M157.775337,330.229446c-3.019351,0-4.54863,1.64706-4.470204,3.404839.078426,2.006914,2.333131,2.920413,4.744696,2.975778,2.411558.055365,9.901112,0,11.802913-.055365s3.960446-1.217988,3.88202-3.349475c-.058816-1.577852-1.901801-2.865048-3.705564-2.920413-1.823382-.055365-10.68537-.055365-12.253861-.055365Z" fill="none" stroke="#000" stroke-linecap="round" stroke-linejoin="round"/><path d="M187.314127,321.675821c0-1.370238.80386-2.062279,2.293918-1.993081,1.235183.055365,2.391955.373697,2.391955,2.186851v55.432461c0,.802759-.882271,1.439446-2.039043,1.494811-1.156757.055365-2.391955-.622832-2.470381-1.564008-.078412-.927332-.176448-54.878837-.176448-55.557034Z" fill="none" stroke="#000" stroke-linecap="round" stroke-linejoin="round"/><path d="M61.803154,330.187925s3.587928.15225,4.764299.941176c1.52928,1.024217,3.94084,5.70242,3.999658,6.546711.078425,1.065738.235274,11.653964-.235274,12.193755-.156849.193771-7.960103.249135-7.999316.235291-.058819-.027677-1.901799-8.456739-1.94101-10.408289-.098032-5.619378,1.195975-9.384082,1.411643-9.508644Z" fill="none" stroke="#000" stroke-linecap="round" stroke-linejoin="round"/><path d="M58.626955,349.972323s-.529366-4.013839-.607791-10.934247c-.058818-5.107254.235274-9.176457.235274-9.176457l3.999658.249135s.176456,4.069203.176456,9.467113c0,4.415224.548973,10.422133.548973,10.422133l-4.35257-.027677Z" fill="none" stroke="#000" stroke-linecap="round" stroke-linejoin="round"/><path d="M145.933211,268.0364c-7.175857.658163-10.97945,4.742648-14.86147,9.756303-3.88202,5.013655-18.272946,33.353386-18.645465,35.250451-.450941,2.361647,3.313443,1.722838,8.214985,1.722838,4.332961,0,55.367809.271007,57.485279.174213,2.11747-.096795,4.058476-1.916412,4.156513-6.83328.098037-4.916868,0-30.972384-.098037-33.992187s-1.568499-5.555669-5.901453-5.826677c-3.23502-.174227-26.135023-.638816-30.350352-.25166Z" fill="none" stroke="#000" stroke-linecap="round" stroke-linejoin="round"/><path d="M122.758723,308.397293c-.78425-.677518,9.901112-20.480493,11.155906-22.687274,2.66644-4.645861,5.528938-7.568876,8.214981-9.117494,2.66644-1.548618,5.176027-1.780909,8.665929-1.91642,4.881939-.17422,23.5274-.464589,24.174407.309724s.470551,25.84258.274485,28.378447c-.176456,2.555229-.431338,4.645853-3.23502,4.820081-5.76421.367802-16.371146.038709-26.213442.096795-11.842126.09678-22.625518.464582-23.037245.116142Z" fill="none" stroke="#000" stroke-linecap="round" stroke-linejoin="round"/><polygon points="384.273446 238.90164 337.600856 282.139363 343.416323 305.130212 337.048014 326.295111 365.572516 328 417.093095 328.131151 433.572027 327.081984 434.411922 281.483633 386.484814 237.055512 384.273446 238.90164" fill="#c8a68f"/><polygon points="338.366328 274.552725 334.634648 279.27397 340.715906 303.667069 335.325701 326.355278 339.472012 326.617564 345.9679 306.421131 340.163064 283.339493 386.463547 242.956707 432 285.700112 432 326.092985 436 325.830691 436 279.001594 392.406598 235.481403 384.805025 232.596197 338.366328 274.552725" fill="#9e7b65"/><polygon points="338 264.149914 338.120032 243.358772 352 237.601861 351.705378 255.193572 338 264.149914" fill="#ab5832"/><path d="M331.083704,274.320703l-2.944944,4.679297h6.559678c0,.405121,50.606268-45.102433,51.669429-45.142786,1.286419-.05044,49.319849,46.233901,49.319849,46.142786h6.32578l-52.541213-53.66853-7.718521-.48423-13.331989,12.751395-2.232628,8.231914-6.644731.252203-28.46071,27.23795Z" fill="#2e1914"/><path d="M321.993712,278.184458c-.829262.958369-.010632,1.462776.659157,1.462776s7.909887-.161414,7.909887-.161414l53.678797-49.169546s1.222632-1.1904,2.09442-1.150046c.946209.040353,2.168841,1.180311,2.168841,1.180311l53.455529,49.724395s6.091893.020173,7.059361-.21185c1.052523-.242113.520945-1.059257-.776108-2.511942-.903682-1.018903-54.997103-51.701665-55.890159-52.579331-2.657892-2.602737-3.954945-4.115957-6.463996-4.015075-2.519681.100882-4.008102,1.866304-6.527783,4.065517-.244526.211851-14.437673,12.680779-14.437673,12.680779l1.148211,9.190285-6.304521-3.682169c.010634,0-37.561333,34.935191-37.773964,35.177311Z" fill="#553a30"/><path d="M364.91636,284h-19.832714c-1.69871,0-3.083646,1.314375-3.083646,2.926539v20.146922c0,1.612164,1.384936,2.926539,3.083646,2.926539h19.83271c1.69871,0,3.083644-1.314375,3.083644-2.926539v-20.146922c.000004-1.622427-1.38493-2.926539-3.08364-2.926539Z" fill="#3e2723"/><path d="M371.260404,321.616654s-.159475-24.958031,0-31.263112c.159475-6.294991,6.389571-11.742582,13.608408-11.51056,8.93052.292557,13.523357,5.054155,13.852933,11.197823.329576,6.143675.329576,31.959195.329576,31.959195l-27.790917-.383346Z" fill="#36292b"/><path d="M374.588086,322.979819s-.127578-26.592311,0-31.515315c.159475-6.103322,5.007468-9.311339,10.642203-9.0087,6.559676.353083,9.802308,3.661988,10.057463,8.474031.255155,4.801952.255155,32.070165.255155,32.070165l-20.954822-.020181Z" fill="#523833"/><path d="M392.151435,302.050436c-.02126-4.378245-.063787-8.242-.127582-9.42231-.170109-3.177762-2.551578-5.649351-7.176309-5.800675-3.731679-.12106-6.804206,2.643093-6.889256,5.901554-.031893,1.20049-.021264,4.973448,0,9.270994l14.193147.050436Z" fill="#362729"/><path d="M378.115648,306.940535c.041776,5.757656.093994,11.059465.093994,11.059465l13.858857.039641s0-5.281985-.020884-11.039641l-13.931967-.059465Z" fill="#362729"/><path d="M392.193962,304.030242c-.053161,1.42243.552838,2.572476,2.328316,2.572476s2.423996-.786873,2.551578-2.310183c.106314-1.361896-.882422-2.572476-2.551578-2.471589-1.658522.11097-2.285789,1.210572-2.328316,2.209295Z" fill="#886a57"/><path d="M424.92589,284h-7.92589v6.78453l-4,.070617v-5.855147h-8.094534c-1.600556,0-2.905466,1.291279-2.905466,2.875115v8.124885h6l-.044281,3h-5.955719v8.073461c0,1.612164,1.385511,2.926539,3.084928,2.926539h19.830144c1.699417,0,3.084928-1.314375,3.084928-2.926539v-20.146922c0-1.622427-1.374693-2.926539-3.07411-2.926539Z" fill="#3e2723"/><path d="M353.612,260.853047s7.091259,2.047889,7.612203,2.622912,3.11505,7.878831,3.540314,8.201651c.435894.33291,14.958618,1.563659,15.128722,1.150046.265789-.625463-12.024306-5.659441-12.024306-5.659441,0,0,.776104-5.175212.605999-5.669528-.170105-.49432-8.643467-5.417325-8.643467-5.417325l-6.219466,4.771685Z" fill="#2e1914"/><path d="M364.605043,251.723291s9.419571,7.727507,10.291359,6.991074c.861159-.736433-4.146314-12.963245-4.146314-12.963245l-6.145046,5.972171Z" fill="#2e1914"/><path d="M425.59835,311.636693c.106314.282466.818627,2.461506.818627,2.461506,0,0-9.961783.524579-10.259466.807053s-4.241994,5.508118-4.837367,6.153758c-.58474.65573-.499685,1.513219.978102.484234,1.477787-1.028986,5.634735-3.843575,5.634735-3.843575,0,0,12.279466-.585113,12.587774-.928106.159475-.181587-.786734-3.268552-.786734-3.268552,0,0,4.901154-2.895296,6.15568-3.883928.435898-.342993-.02126-4.448861-.02126-4.448861l-10.270092,6.466472Z" fill="#3e2723"/><path d="M406.674162,305.180288c.191369-.12106,9.568412-10.95571,9.568412-10.95571l8.994307-8.413497,4.465256,3.510673s-5.294525,6.779224-7.463358,9.01879c-2.168833,2.239566-3.827363,3.631725-5.677262,5.508118-1.849891,1.876393-5.358312,6.234465-5.358312,6.234465l-4.592838-3.934372.063795-.968467Z" fill="#6d4c41"/><path d="M405.143213,305.119762s6.761679-7.323984,9.823568-10.834649c3.061889-3.510673,8.781678-9.66443,8.781678-9.66443l2.221994,1.765423s-5.464626,5.124772-7.697254,7.424864-5.613467,6.052878-7.080629,7.687158c-1.467154,1.63428-3.954945,5.205479-3.954945,5.205479l-2.094412-1.583844Z" fill="#966"/><path d="M371.983351,283.642133s-1.137578,1.240843-1.594735,2.360619c-.457158,1.119775-1.530945,4.115959-1.530945,4.115959l10.461464,5.266005,10.01494,1.755332,1.530949-3.631725s-8.994307-4.902832-11.290725-5.810765c-2.296427-.918016-7.590948-4.055425-7.590948-4.055425Z" fill="#865c51"/><path d="M398.955641,304.504385s1.966839-5.941908,2.158207-5.992352-10.248832-5.013802-10.248832-5.013802l-11.545885,1.876393s7.973677,3.631725,10.397673,4.842305c2.424005,1.21058,9.238836,4.287455,9.238836,4.287455Z" fill="#6e4d42"/><path d="M370.56935,320.927859l3.763576-.75661,12.321989-8.817023s-7.846099,1.08952-10.589042,1.63428-7.271993,1.271107-7.271993,1.271107c0,0,.637893,3.147499.893052,3.873838.255155.716256.882418,2.794409.882418,2.794409Z" fill="#865c51"/><path d="M400.677958,315.399568l-.446524-6.052878-17.340087,2.542205s-4.784206,4.237011-6.187573,5.447592c-1.403367,1.210572-2.423996,2.844852-2.423996,2.844852,0,0,9.249466-1.936919,13.906094-2.844852,4.656616-.907933,12.492086-1.936919,12.492086-1.936919Z" fill="#6d4c41"/><polygon points="345.834955 285.629495 345.005691 299.12741 351.065687 299.914291 354 295.374632 354.127578 285.811082 345.834955 285.629495" fill="#865c51"/><polygon points="341.959853 344.027523 350.775523 346.875929 352.07257 340.941224 348.246203 336.563262 344.296245 335.406134 341.959853 344.027523" fill="#865c51"/><polygon points="345 307.098884 345.125875 299.156123 354 295.45349 354.125873 306.919723 345 307.098884" fill="#6d4c41"/><path d="M362.66555,350.425544l-11.890027-3.549618-.936812-.318751-1.495695-9.96556s4.989689,1.339851,7.782176,2.357313c2.792487,1.017462,9.075314,2.392703,9.137685,2.610385.024498.095806-.306624,2.159083-.893153,4.125387-.718758,2.381789-1.704174,4.740845-1.704174,4.740845Z" fill="#6d4c41"/><path d="M359.044729,312.302513c-.212632.464053-.425264,4.388335.053157,4.590102.489051.20176,8.494626-.050444,8.654097-.20176s.159475-4.287455-.159475-4.590102c-.318942-.312737-8.377674-.151323-8.547779.20176Z" fill="#865c51"/><path d="M349.96537,275.369869c-.54221.66582-.372105,4.892741-.106316,5.255915.276421.373264,3.231998.353083,6.176943.32282,2.147577-.030263,4.497153.030263,4.794836-.272376.350844-.353083.287053-1.73516.372103-2.854943.085055-1.139956.201998-2.138686-.489051-2.50186-.489051-.252203-2.827997-.151323-4.89052-.151323-3.008732,0-5.634731-.070617-5.857995.201767Z" fill="#865c51"/><path d="M400.571644,265.937466c-.65916.453967-.616633,4.660715-.233896,5.023888s10.812304.504406,11.195041.070617.382737-4.660715,0-5.023888-10.429567-.43379-10.961145-.070617Z" fill="#865c51"/><path d="M410.076261,274.744402c-.24453.53467-.308316,4.146222.074421,4.801952s11.216309.524579,11.450205.23203c.233896-.292557.361469-5.104591.138207-5.326531-.233896-.211857-11.205675-.72635-11.662833.292549Z" fill="#865c51"/><path d="M430.903509,288.666025c-.329576.524579-.329576,4.458952.191369,4.953275s5.932418.363173,6.219466.040353c.287049-.31273.191369-4.640538-.09568-4.953268-.287057-.312745-5.985579-.585121-6.315155-.040361Z" fill="#865c51"/><path d="M429.234353,318.839617c-.489051.64564-.425264,4.237011.042527,4.408515s6.357682.181587,6.740411-.131143c.382737-.31273.329576-4.095778.191369-4.317718-.138207-.23203-6.729785-.272384-6.974307.040346Z" fill="#865c51"/><path d="M401.305216,329.213127c.350844,1.008813,2.243262.786873,2.243262.786873,0,0,16.308831-.11097,19.742824-.11097,3.423367,0,12.407039-.22194,12.407039-.22194,0,0,6.495889-8.635437,5.198837-9.200377-1.297053-.564933-16.787249,5.276095-16.787249,5.276095,0,0,3.784836-6.284908,3.072523-7.061691-.712313-.786873-11.195041,2.764145-13.470196,3.702342-9.334516,3.803229-12.407039,6.829668-12.407039,6.829668Z" fill="#728035"/><path d="M328.968022,324.256945c-.170105.948287,3.423366,3.369432,5.08189,4.711155,1.520315,1.240843,3.667892,2.350536,3.667892,2.350536,0,0,9.812938.11097,15.607144-.11097,5.794206-.22194,11.939252.11097,13.470196-.11097s-.233896-4.933095-3.901784-9.311339c-3.667892-4.378245-6.261994-6.163848-7.091255-5.719968-.829261.44388.595369,5.608998.595369,5.608998,0,0-12.407041-4.489215-12.885461-3.026439-.46779,1.462776,2.477156,6.395871,2.477156,6.395871,0,0-7.208205-1.230753-10.280727-1.341723s-6.623473-.121053-6.74042.55485Z" fill="#728035"/><path d="M403.803633,329.381717s.414631-6.527021,0-7.071781-19.63651-.161414-23.198084-.161414-14.086829-.161414-14.50146.31273-.085055,7.545924-.085055,7.545924l6.049361,3.540936,31.735236-4.166395Z" fill="#858585"/><path d="M366,334.919293v-4.721245s6.963677-.55485,18.063038-.786873c11.099361-.23203,19.721556.161414,19.721556.161414,0,0-.499685,2.754063-.65916,3.621635-.170109.86758-.914316,1.805776-.914316,1.805776l-36.211118-.080707Z" fill="#5e6367"/><polygon points="384.273446 238.90164 337.600856 282.139363 343.416323 305.130212 337.048014 326.295111 365.572516 328 417.093095 328.131151 433.572027 327.081984 434.411922 281.483633 386.484814 237.055512 384.273446 238.90164" fill="none" stroke="#000" stroke-linecap="round" stroke-linejoin="round"/><polygon points="338.366328 274.552725 334.634648 279.27397 340.715906 303.667069 335.325701 326.355278 339.472012 326.617564 345.9679 306.421131 340.163064 283.339493 386.463547 242.956707 432 285.700112 432 326.092985 436 325.830691 436 279.001594 392.406598 235.481403 384.805025 232.596197 338.366328 274.552725" fill="none" stroke="#000" stroke-linecap="round" stroke-linejoin="round"/><polygon points="338 264.149914 338.120032 243.358772 352 237.601861 351.705378 255.193572 338 264.149914" fill="none" stroke="#000" stroke-linecap="round" stroke-linejoin="round"/><path d="M331.083704,274.320703l-2.944944,4.679297h6.559678c0,.405121,50.606268-45.102433,51.669429-45.142786,1.286419-.05044,49.319849,46.233901,49.319849,46.142786h6.32578l-52.541213-53.66853-7.718521-.48423-13.331989,12.751395-2.232628,8.231914-6.644731.252203-28.46071,27.23795Z" fill="none" stroke="#000" stroke-linecap="round" stroke-linejoin="round"/><path d="M321.993712,278.184458c-.829262.958369-.010632,1.462776.659157,1.462776s7.909887-.161414,7.909887-.161414l53.678797-49.169546s1.222632-1.1904,2.09442-1.150046c.946209.040353,2.168841,1.180311,2.168841,1.180311l53.455529,49.724395s6.091893.020173,7.059361-.21185c1.052523-.242113.520945-1.059257-.776108-2.511942-.903682-1.018903-54.997103-51.701665-55.890159-52.579331-2.657892-2.602737-3.954945-4.115957-6.463996-4.015075-2.519681.100882-4.008102,1.866304-6.527783,4.065517-.244526.211851-14.437673,12.680779-14.437673,12.680779l1.148211,9.190285-6.304521-3.682169c.010634,0-37.561333,34.935191-37.773964,35.177311Z" fill="none" stroke="#000" stroke-linecap="round" stroke-linejoin="round"/><path d="M364.91636,284h-19.832714c-1.69871,0-3.083646,1.314375-3.083646,2.926539v20.146922c0,1.612164,1.384936,2.926539,3.083646,2.926539h19.83271c1.69871,0,3.083644-1.314375,3.083644-2.926539v-20.146922c.000004-1.622427-1.38493-2.926539-3.08364-2.926539Z" fill="none" stroke="#000" stroke-linecap="round" stroke-linejoin="round"/><path d="M371.260404,321.616654s-.159475-24.958031,0-31.263112c.159475-6.294991,6.389571-11.742582,13.608408-11.51056,8.93052.292557,13.523357,5.054155,13.852933,11.197823.329576,6.143675.329576,31.959195.329576,31.959195l-27.790917-.383346Z" fill="none" stroke="#000" stroke-linecap="round" stroke-linejoin="round"/><path d="M374.588086,322.979819s-.127578-26.592311,0-31.515315c.159475-6.103322,5.007468-9.311339,10.642203-9.0087,6.559676.353083,9.802308,3.661988,10.057463,8.474031.255155,4.801952.255155,32.070165.255155,32.070165l-20.954822-.020181Z" fill="none" stroke="#000" stroke-linecap="round" stroke-linejoin="round"/><path d="M392.151435,302.050436c-.02126-4.378245-.063787-8.242-.127582-9.42231-.170109-3.177762-2.551578-5.649351-7.176309-5.800675-3.731679-.12106-6.804206,2.643093-6.889256,5.901554-.031893,1.20049-.021264,4.973448,0,9.270994l14.193147.050436Z" fill="none" stroke="#000" stroke-linecap="round" stroke-linejoin="round"/><path d="M378.115648,306.940535c.041776,5.757656.093994,11.059465.093994,11.059465l13.858857.039641s0-5.281985-.020884-11.039641l-13.931967-.059465Z" fill="none" stroke="#000" stroke-linecap="round" stroke-linejoin="round"/><path d="M392.193962,304.030242c-.053161,1.42243.552838,2.572476,2.328316,2.572476s2.423996-.786873,2.551578-2.310183c.106314-1.361896-.882422-2.572476-2.551578-2.471589-1.658522.11097-2.285789,1.210572-2.328316,2.209295Z" fill="none" stroke="#000" stroke-linecap="round" stroke-linejoin="round"/><path d="M424.92589,284h-7.92589v6.78453l-4,.070617v-5.855147h-8.094534c-1.600556,0-2.905466,1.291279-2.905466,2.875115v8.124885h6l-.044281,3h-5.955719v8.073461c0,1.612164,1.385511,2.926539,3.084928,2.926539h19.830144c1.699417,0,3.084928-1.314375,3.084928-2.926539v-20.146922c0-1.622427-1.374693-2.926539-3.07411-2.926539Z" fill="none" stroke="#000" stroke-linecap="round" stroke-linejoin="round"/><path d="M353.612,260.853047s7.091259,2.047889,7.612203,2.622912,3.11505,7.878831,3.540314,8.201651c.435894.33291,14.958618,1.563659,15.128722,1.150046.265789-.625463-12.024306-5.659441-12.024306-5.659441,0,0,.776104-5.175212.605999-5.669528-.170105-.49432-8.643467-5.417325-8.643467-5.417325l-6.219466,4.771685Z" fill="none" stroke="#000" stroke-linecap="round" stroke-linejoin="round"/><path d="M364.605043,251.723291s9.419571,7.727507,10.291359,6.991074c.861159-.736433-4.146314-12.963245-4.146314-12.963245l-6.145046,5.972171Z" fill="none" stroke="#000" stroke-linecap="round" stroke-linejoin="round"/><path d="M425.59835,311.636693c.106314.282466.818627,2.461506.818627,2.461506,0,0-9.961783.524579-10.259466.807053s-4.241994,5.508118-4.837367,6.153758c-.58474.65573-.499685,1.513219.978102.484234,1.477787-1.028986,5.634735-3.843575,5.634735-3.843575,0,0,12.279466-.585113,12.587774-.928106.159475-.181587-.786734-3.268552-.786734-3.268552,0,0,4.901154-2.895296,6.15568-3.883928.435898-.342993-.02126-4.448861-.02126-4.448861l-10.270092,6.466472Z" fill="none" stroke="#000" stroke-linecap="round" stroke-linejoin="round"/><path d="M406.674162,305.180288c.191369-.12106,9.568412-10.95571,9.568412-10.95571l8.994307-8.413497,4.465256,3.510673s-5.294525,6.779224-7.463358,9.01879c-2.168833,2.239566-3.827363,3.631725-5.677262,5.508118-1.849891,1.876393-5.358312,6.234465-5.358312,6.234465l-4.592838-3.934372.063795-.968467Z" fill="none" stroke="#000" stroke-linecap="round" stroke-linejoin="round"/><path d="M405.143213,305.119762s6.761679-7.323984,9.823568-10.834649c3.061889-3.510673,8.781678-9.66443,8.781678-9.66443l2.221994,1.765423s-5.464626,5.124772-7.697254,7.424864-5.613467,6.052878-7.080629,7.687158c-1.467154,1.63428-3.954945,5.205479-3.954945,5.205479l-2.094412-1.583844Z" fill="none" stroke="#000" stroke-linecap="round" stroke-linejoin="round"/><path d="M371.983351,283.642133s-1.137578,1.240843-1.594735,2.360619c-.457158,1.119775-1.530945,4.115959-1.530945,4.115959l10.461464,5.266005,10.01494,1.755332,1.530949-3.631725s-8.994307-4.902832-11.290725-5.810765c-2.296427-.918016-7.590948-4.055425-7.590948-4.055425Z" fill="none" stroke="#000" stroke-linecap="round" stroke-linejoin="round"/><path d="M398.955641,304.504385s1.966839-5.941908,2.158207-5.992352-10.248832-5.013802-10.248832-5.013802l-11.545885,1.876393s7.973677,3.631725,10.397673,4.842305c2.424005,1.21058,9.238836,4.287455,9.238836,4.287455Z" fill="none" stroke="#000" stroke-linecap="round" stroke-linejoin="round"/><path d="M370.56935,320.927859l3.763576-.75661,12.321989-8.817023s-7.846099,1.08952-10.589042,1.63428-7.271993,1.271107-7.271993,1.271107c0,0,.637893,3.147499.893052,3.873838.255155.716256.882418,2.794409.882418,2.794409Z" fill="none" stroke="#000" stroke-linecap="round" stroke-linejoin="round"/><path d="M400.677958,315.399568l-.446524-6.052878-17.340087,2.542205s-4.784206,4.237011-6.187573,5.447592c-1.403367,1.210572-2.423996,2.844852-2.423996,2.844852,0,0,9.249466-1.936919,13.906094-2.844852,4.656616-.907933,12.492086-1.936919,12.492086-1.936919Z" fill="none" stroke="#000" stroke-linecap="round" stroke-linejoin="round"/><polygon points="345.834955 285.629495 345.005691 299.12741 351.065687 299.914291 354 295.374632 354.127578 285.811082 345.834955 285.629495" fill="none" stroke="#000" stroke-linecap="round" stroke-linejoin="round"/><polygon points="341.959853 344.027523 350.775523 346.875929 352.07257 340.941224 348.246203 336.563262 344.296245 335.406134 341.959853 344.027523" fill="none" stroke="#000" stroke-linecap="round" stroke-linejoin="round"/><polygon points="345 307.098884 345.125875 299.156123 354 295.45349 354.125873 306.919723 345 307.098884" fill="none" stroke="#000" stroke-linecap="round" stroke-linejoin="round"/><path d="M362.66555,350.425544l-11.890027-3.549618-.936812-.318751-1.495695-9.96556s4.989689,1.339851,7.782176,2.357313c2.792487,1.017462,9.075314,2.392703,9.137685,2.610385.024498.095806-.306624,2.159083-.893153,4.125387-.718758,2.381789-1.704174,4.740845-1.704174,4.740845Z" fill="none" stroke="#000" stroke-linecap="round" stroke-linejoin="round"/><path d="M359.044729,312.302513c-.212632.464053-.425264,4.388335.053157,4.590102.489051.20176,8.494626-.050444,8.654097-.20176s.159475-4.287455-.159475-4.590102c-.318942-.312737-8.377674-.151323-8.547779.20176Z" fill="none" stroke="#000" stroke-linecap="round" stroke-linejoin="round"/><path d="M349.96537,275.369869c-.54221.66582-.372105,4.892741-.106316,5.255915.276421.373264,3.231998.353083,6.176943.32282,2.147577-.030263,4.497153.030263,4.794836-.272376.350844-.353083.287053-1.73516.372103-2.854943.085055-1.139956.201998-2.138686-.489051-2.50186-.489051-.252203-2.827997-.151323-4.89052-.151323-3.008732,0-5.634731-.070617-5.857995.201767Z" fill="none" stroke="#000" stroke-linecap="round" stroke-linejoin="round"/><path d="M400.571644,265.937466c-.65916.453967-.616633,4.660715-.233896,5.023888s10.812304.504406,11.195041.070617.382737-4.660715,0-5.023888-10.429567-.43379-10.961145-.070617Z" fill="none" stroke="#000" stroke-linecap="round" stroke-linejoin="round"/><path d="M410.076261,274.744402c-.24453.53467-.308316,4.146222.074421,4.801952s11.216309.524579,11.450205.23203c.233896-.292557.361469-5.104591.138207-5.326531-.233896-.211857-11.205675-.72635-11.662833.292549Z" fill="none" stroke="#000" stroke-linecap="round" stroke-linejoin="round"/><path d="M430.903509,288.666025c-.329576.524579-.329576,4.458952.191369,4.953275s5.932418.363173,6.219466.040353c.287049-.31273.191369-4.640538-.09568-4.953268-.287057-.312745-5.985579-.585121-6.315155-.040361Z" fill="none" stroke="#000" stroke-linecap="round" stroke-linejoin="round"/><path d="M429.234353,318.839617c-.489051.64564-.425264,4.237011.042527,4.408515s6.357682.181587,6.740411-.131143c.382737-.31273.329576-4.095778.191369-4.317718-.138207-.23203-6.729785-.272384-6.974307.040346Z" fill="none" stroke="#000" stroke-linecap="round" stroke-linejoin="round"/><path d="M401.305216,329.213127c.350844,1.008813,2.243262.786873,2.243262.786873,0,0,16.308831-.11097,19.742824-.11097,3.423367,0,12.407039-.22194,12.407039-.22194,0,0,6.495889-8.635437,5.198837-9.200377-1.297053-.564933-16.787249,5.276095-16.787249,5.276095,0,0,3.784836-6.284908,3.072523-7.061691-.712313-.786873-11.195041,2.764145-13.470196,3.702342-9.334516,3.803229-12.407039,6.829668-12.407039,6.829668Z" fill="none" stroke="#000" stroke-linecap="round" stroke-linejoin="round"/><path d="M328.968022,324.256945c-.170105.948287,3.423366,3.369432,5.08189,4.711155,1.520315,1.240843,3.667892,2.350536,3.667892,2.350536,0,0,9.812938.11097,15.607144-.11097,5.794206-.22194,11.939252.11097,13.470196-.11097s-.233896-4.933095-3.901784-9.311339c-3.667892-4.378245-6.261994-6.163848-7.091255-5.719968-.829261.44388.595369,5.608998.595369,5.608998,0,0-12.407041-4.489215-12.885461-3.026439-.46779,1.462776,2.477156,6.395871,2.477156,6.395871,0,0-7.208205-1.230753-10.280727-1.341723s-6.623473-.121053-6.74042.55485Z" fill="none" stroke="#000" stroke-linecap="round" stroke-linejoin="round"/><path d="M403.803633,329.381717s.414631-6.527021,0-7.071781-19.63651-.161414-23.198084-.161414-14.086829-.161414-14.50146.31273-.085055,7.545924-.085055,7.545924l6.049361,3.540936,31.735236-4.166395Z" fill="none" stroke="#000" stroke-linecap="round" stroke-linejoin="round"/><path d="M366,334.919293v-4.721245s6.963677-.55485,18.063038-.786873c11.099361-.23203,19.721556.161414,19.721556.161414,0,0-.499685,2.754063-.65916,3.621635-.170109.86758-.914316,1.805776-.914316,1.805776l-36.211118-.080707Z" fill="none" stroke="#000" stroke-linecap="round" stroke-linejoin="round"/><path d="M245.000103,239.000035c-2.198839-.83939-11.001744-4.874152-16.812269-25.137871-2.579661-8.996351-3.680732-18.09187-4.187787-24.218193" fill="none" stroke="#333" stroke-miterlimit="10" stroke-width="2"/><text transform="translate(72.173828 171.131348)" fill="#333" font-family="ComicNeue-Bold, &apos;Comic Neue&apos;" font-size="24" font-weight="700"><tspan x="0" y="0">I do not like the look of this.</tspan></text></svg>