<?xml version="1.0" encoding="UTF-8"?><svg id="uuid-a4d2d6cb-3210-4c02-bfa8-3af035895628" xmlns="http://www.w3.org/2000/svg" viewBox="0 0 500 500"><path d="M134.5,397.5c-6.99,1.43-17.66,3.95-19,10-1.08,4.89,4.87,7.83,4,13-1.53,9.13-21.74,9.57-22,15-.25,5.28,18.31,15.13,30,9,11.65-6.11,7.23-23.23,18-28,8.79-3.89,14.74,6.16,33,9,20.54,3.19,43.09-4.86,44-13,.52-4.68-6.15-8.92-11-12-22.32-14.18-47.24-9.08-77-3Z" fill="#c1272d"/><path d="M239.5,426.88c2.73-11.1,22.08-17.05,37-15,11.7,1.61,12.4,7,23,7,14.02,0,20.49-9.44,26-6,5.14,3.21,6.41,15.74,1,21-7.82,7.61-21.79-7.52-46-4-19.46,2.83-29.41,15.36-37,10-3.92-2.77-5.04-8.77-4-13Z" fill="#c1272d"/><path d="M134.5,397.5c-6.99,1.43-17.66,3.95-19,10-1.08,4.89,4.87,7.83,4,13-1.53,9.13-21.74,9.57-22,15-.25,5.28,18.31,15.13,30,9,11.65-6.11,7.23-23.23,18-28,8.79-3.89,14.74,6.16,33,9,20.54,3.19,43.09-4.86,44-13,.52-4.68-6.15-8.92-11-12-22.32-14.18-47.24-9.08-77-3Z" fill="none" stroke="#000" stroke-linecap="round" stroke-linejoin="round"/><path d="M239.5,426.88c2.73-11.1,22.08-17.05,37-15,11.7,1.61,12.4,7,23,7,14.02,0,20.49-9.44,26-6,5.14,3.21,6.41,15.74,1,21-7.82,7.61-21.79-7.52-46-4-19.46,2.83-29.41,15.36-37,10-3.92-2.77-5.04-8.77-4-13Z" fill="none" stroke="#000" stroke-linecap="round" stroke-linejoin="round"/><g id="uuid-acb7537d-be50-42b8-94f2-69f2d5d9e9cb"><polygon id="uuid-4af27a7b-4f2a-4bb3-a39c-34dd638a62cd" points="355 361 350 361 350 369.32 350 371 357 371 357 369 355 369 355 361" fill="#5f4d2f"/><rect id="uuid-1260f3ab-b17c-4757-9595-aa253e976663" x="349" y="350" width="6" height="11" fill="#726038"/><polygon id="uuid-eefbdfea-94c5-43ae-862b-0a40e999f639" points="347 361 343 361 343 369 340 369 340 371 347 371 347 369.32 347 369.32 347 361" fill="#5f4d2f"/><rect id="uuid-71ab505a-d854-4dcb-b410-f35a8b3724de" x="342" y="350" width="6" height="11" fill="#726038"/><path id="uuid-d6d9ad00-5b73-40e2-adaf-f6f029dc5870" d="M342,327v23h13v-23h-13Z" fill="#726038"/><rect id="uuid-5e27f9be-9f88-4705-accd-674f71bd5866" x="342" y="341" width="13" height="4" fill="#ac935a"/><rect id="uuid-ac7ec681-c043-4a19-ab0b-dba372f6f807" x="351" y="328" width="2" height="13" fill="#ac935a"/><rect id="uuid-75de52e4-c058-4c2a-946c-49b85352ec53" x="344" y="328" width="2" height="13" fill="#ac935a"/><path id="uuid-7d354cad-b1ae-46d1-b20f-591304c41740" d="M354.95,323.75c.33-1.26.46-2.65.31-4.1-.49-5-3.94-8.76-7.69-8.39-3.75.37-6.4,4.73-5.9,9.73.14,1.45.53,2.79,1.11,3.96l12.17-1.2Z" fill="#eec6a2"/><path id="uuid-b686ee6e-74b6-4e5f-99ee-476f86bc8d37" d="M343,326c1.21,2.54,3.34,4.22,5.76,4.22s4.55-1.68,5.76-4.22h-11.52Z" fill="#eec6a2"/><ellipse id="uuid-60cd442c-f56e-4d6b-b4a3-06b39c8dfe6d" cx="353.5" cy="321" rx=".5" ry="1" fill="#333"/><ellipse id="uuid-5d05a3cd-b4a4-401b-8a55-327b683b7fd0" cx="349.5" cy="321" rx=".5" ry="1" fill="#333"/><rect id="uuid-315c623f-44f8-44d3-b36e-39340699fe8c" x="355.81" y="334.58" width="3.41" height="7.28" transform="translate(-31.48 36.74) rotate(-5.63)" fill="#726038"/><rect id="uuid-6188e1d6-f6c4-437d-bdcd-bad575d3856d" x="355.1" y="327.37" width="3.41" height="7.28" transform="translate(-30.78 36.63) rotate(-5.63)" fill="#726038"/><rect id="uuid-e892f530-72eb-4d72-ac12-902ed4f289df" x="336.71" y="329.31" width="7.28" height="3.41" transform="translate(-17.21 643.36) rotate(-85.34)" fill="#726038"/><rect id="uuid-52e411d4-6233-4377-9ee9-09dd269ff2f7" x="336.12" y="336.52" width="7.28" height="3.41" transform="translate(-24.93 649.4) rotate(-85.34)" fill="#726038"/><rect id="uuid-5fb2e939-7d8e-4d73-868d-8930ef2f6a34" x="356.19" y="341.87" width="3.68" height="3.68" transform="translate(-32.02 36.81) rotate(-5.63)" fill="#eec6a2"/><rect id="uuid-ea212915-dc9b-4c7e-b73a-ac2d9d2f1e30" x="337.5" y="341.87" width="3.64" height="3.64" transform="translate(-30.79 653.98) rotate(-85.34)" fill="#eec6a2"/><circle id="uuid-dfb8d4b9-74d3-44d4-b8e8-3e6c509905de" cx="348.5" cy="338.5" r=".5" fill="#333"/><circle id="uuid-16de139c-b36e-461d-9525-c3cfad8c05cc" cx="348.5" cy="336.5" r=".5" fill="#333"/><circle id="uuid-b3dc7ece-8e79-45f3-850c-b764f13b02a6" cx="348.5" cy="334.5" r=".5" fill="#333"/><circle id="uuid-357fff42-e52a-4a83-b728-ff58fba55b35" cx="348.5" cy="332.5" r=".5" fill="#333"/><path d="M355.54,314.32c-.72-3.12-4.21-5.27-8.15-4.88s-6.94,3.17-7.04,6.38c-1.3.32-2.06.63-2.04.89.06.61,4.45.67,9.81.15s9.65-1.45,9.59-2.06c-.03-.26-.84-.42-2.17-.48Z" fill="#596a66"/><polygon id="uuid-ea6f0739-3dce-4510-841b-85b557d53a08" points="355 361 350 361 350 369.32 350 371 357 371 357 369 355 369 355 361" fill="none" stroke="#000" stroke-linecap="round" stroke-linejoin="round"/><rect id="uuid-eebc4a59-c65a-4def-9abe-48ba5707405f" x="349" y="350" width="6" height="11" fill="none" stroke="#000" stroke-linecap="round" stroke-linejoin="round"/><polygon id="uuid-a14f7f3c-d025-4421-81f7-1c3174812576" points="347 361 343 361 343 369 340 369 340 371 347 371 347 369.32 347 369.32 347 361" fill="none" stroke="#000" stroke-linecap="round" stroke-linejoin="round"/><rect id="uuid-d0dd7404-0178-447d-87a3-e21fd4ef8569" x="342" y="350" width="6" height="11" fill="none" stroke="#000" stroke-linecap="round" stroke-linejoin="round"/><path id="uuid-637e1a4f-a762-46b7-a08a-47dae4d9cf9b" d="M342,327v23h13v-23h-13Z" fill="none" stroke="#000" stroke-linecap="round" stroke-linejoin="round"/><rect id="uuid-dbeaa4f9-78a3-4a5d-a9bc-0051462e3dff" x="342" y="341" width="13" height="4" fill="none" stroke="#000" stroke-linecap="round" stroke-linejoin="round"/><rect id="uuid-18558ace-08f8-4588-a47c-a53145b9edab" x="351" y="328" width="2" height="13" fill="none" stroke="#000" stroke-linecap="round" stroke-linejoin="round"/><rect id="uuid-543cc702-46f5-43b3-a963-c10439fac246" x="344" y="328" width="2" height="13" fill="none" stroke="#000" stroke-linecap="round" stroke-linejoin="round"/><path id="uuid-3add7800-e26d-4f67-9a04-7018c595bcaa" d="M354.95,323.75c.33-1.26.46-2.65.31-4.1-.49-5-3.94-8.76-7.69-8.39-3.75.37-6.4,4.73-5.9,9.73.14,1.45.53,2.79,1.11,3.96l12.17-1.2Z" fill="none" stroke="#000" stroke-linecap="round" stroke-linejoin="round"/><path id="uuid-a5ea617f-791c-4a23-9d19-ae38a21e907b" d="M343,326c1.21,2.54,3.34,4.22,5.76,4.22s4.55-1.68,5.76-4.22h-11.52Z" fill="none" stroke="#000" stroke-linecap="round" stroke-linejoin="round"/><ellipse id="uuid-4cbd2f1f-6b8d-4aad-a9bb-062a2939e41e" cx="353.5" cy="321" rx=".5" ry="1" fill="none" stroke="#000" stroke-linecap="round" stroke-linejoin="round"/><ellipse id="uuid-818130d0-4dbf-4a78-8898-ff8470f0b813" cx="349.5" cy="321" rx=".5" ry="1" fill="none" stroke="#000" stroke-linecap="round" stroke-linejoin="round"/><rect id="uuid-8b2e0d5d-3cee-4197-8f48-236a02692e8c" x="355.81" y="334.58" width="3.41" height="7.28" transform="translate(-31.48 36.74) rotate(-5.63)" fill="none" stroke="#000" stroke-linecap="round" stroke-linejoin="round"/><rect id="uuid-82e2ebc9-4ec4-4992-8b2e-52c19f69dc3d" x="355.1" y="327.37" width="3.41" height="7.28" transform="translate(-30.78 36.63) rotate(-5.63)" fill="none" stroke="#000" stroke-linecap="round" stroke-linejoin="round"/><rect id="uuid-2f20c7cf-c5b0-4e0e-9b5e-81a1427f6390" x="336.71" y="329.31" width="7.28" height="3.41" transform="translate(-17.21 643.36) rotate(-85.34)" fill="none" stroke="#000" stroke-linecap="round" stroke-linejoin="round"/><rect id="uuid-74ff8a31-b5f6-44b8-9e5c-7402ad75c635" x="336.12" y="336.52" width="7.28" height="3.41" transform="translate(-24.93 649.4) rotate(-85.34)" fill="none" stroke="#000" stroke-linecap="round" stroke-linejoin="round"/><rect id="uuid-d4c60ece-d2d2-4b6e-bdc8-d1c18a7efdff" x="356.19" y="341.87" width="3.68" height="3.68" transform="translate(-32.02 36.81) rotate(-5.63)" fill="none" stroke="#000" stroke-linecap="round" stroke-linejoin="round"/><rect id="uuid-26d300ed-4f3b-4cea-9aaa-967453843d4b" x="337.5" y="341.87" width="3.64" height="3.64" transform="translate(-30.79 653.98) rotate(-85.34)" fill="none" stroke="#000" stroke-linecap="round" stroke-linejoin="round"/><circle id="uuid-dd812939-c99d-498e-b3d3-25c94bf68ade" cx="348.5" cy="338.5" r=".5" fill="none" stroke="#000" stroke-linecap="round" stroke-linejoin="round"/><circle id="uuid-96abb213-bd7a-4a90-ab07-aef5162d2a5a" cx="348.5" cy="336.5" r=".5" fill="none" stroke="#000" stroke-linecap="round" stroke-linejoin="round"/><circle id="uuid-16aaa8cc-345c-4fe4-99dd-5d8187234595" cx="348.5" cy="334.5" r=".5" fill="none" stroke="#000" stroke-linecap="round" stroke-linejoin="round"/><circle id="uuid-e0a5c1dc-900c-486a-a326-26882059f378" cx="348.5" cy="332.5" r=".5" fill="none" stroke="#000" stroke-linecap="round" stroke-linejoin="round"/><path d="M355.54,314.32c-.72-3.12-4.21-5.27-8.15-4.88s-6.94,3.17-7.04,6.38c-1.3.32-2.06.63-2.04.89.06.61,4.45.67,9.81.15s9.65-1.45,9.59-2.06c-.03-.26-.84-.42-2.17-.48Z" fill="none" stroke="#000" stroke-linecap="round" stroke-linejoin="round"/></g><text transform="translate(110.65 78.85)" fill="#333" font-family="ComicNeue-Regular, &apos;Comic Neue&apos;" font-size="24"><tspan x="0" y="0">War, however, was not as </tspan><tspan x="0" y="28.8">easy as Bob had imagined.</tspan></text><path d="M265.03,172.53c-9.1-10.56-21.53-13.27-21.48-32.35-6.29,9.75-6.34,23.18-2.58,29.9s11.58,29.49,5.48,35.31c-6.11,5.82-13.45-8.16-12.62-18.1.83-9.94-3.64-16.94-3.64-16.94,0,0,2.36,10.17-.73,18.66-3.09,8.49-1.18,17.42,3.39,28.62,4.57,11.2-2.1,28.57-10.48,30.73-8.38,2.16-15.76-10.06-16.27-23.19-.51-13.13-1.88-27.26-5.82-34.47s-4.76-13.64-4.27-21.2c-4.22,6.44-6.62,8.86-4.85,18.42,1.77,9.56-.2,21.27-4.44,27.03-4.24,5.76-10.2,10.89-10.2,24.21s.49,22.32-7.15,20.54c-7.63-1.77-11.24-13.66-9.68-22.69-4.45.21-7.33,11.25-5.4,26.3,1.92,15.04-2.14,26.15-8.63,28.71-6.5,2.56-12.54-1.62-14.88,11.11-2.34,12.72-9.83,37.16-15.34,29.28-5.51-7.88-3.54-17.47-1.92-27.5,1.61-10.04-1.16-15.26-1.16-15.26,0,0-.24,10.22-4.59,22.38-4.35,12.16-4.69,37.48-1.83,47.1,2.86,9.62,8.13,14.86,8.13,14.86h164.96v-164.78c0-15.91-4.87-26.13-13.97-36.69Z" fill="#ff7b07"/><polygon points="321.27 305.72 312.35 305.33 305.68 265.06 293.92 215 258.61 215 243.4 248.22 230.95 251.89 224.56 239.89 211.61 237.22 207.56 215 184.44 228.02 172.27 269.93 140.35 283.46 121.29 319.7 107.33 327.76 95 372.98 95 374 341.3 374 321.27 305.72" fill="#603330"/><polygon points="99 290.02 110.57 275 120 275 120 297 132 297 132 256 142 256 142 307.91 147.31 311.81 149.7 322.58 153.12 326.89 159 351.5 159 366 99 366 99 290.02" fill="#291612"/><polygon points="164 343 157.47 343 154.54 349.68 151.6 357 141.89 357 136.87 351.24 133.43 339.59 122.59 335.18 117.3 312.65 99.84 306 89 306 89 353.5 83.46 356.8 81.35 374 164 374 164 343" fill="#351d19"/><path d="M103.54,317.23c-1.64,1.6-1.68,1.63-2.52,1.79.58-1,1.4-1.46,2.52-1.79Z" fill="#452a25"/><path d="M101.02,319.02s-.02.02-.03.04c0,0-.01,0-.02.01,0-.02,0-.03,0-.04.02,0,.03,0,.05,0Z" fill="#452a25"/><path d="M90.21,328.24c-.07.13-.14.25-.21.38v-.28s.07-.07.1-.11c.02-.02.07,0,.11.01Z" fill="#452a25"/><path d="M108.03,374h-.01c-.12-1.46-.35-2.9-.81-4.24-.6-1.75-.85-3.65-1.34-5.43-.51-1.85.41-3.86-.5-5.61.63-.85-.08-.99-.42-1.06-1.23-.25-1.8-1.23-2.35-2.59-.65-1.62-1.93-2.6-3.12-3.58-.13-.11-.3-.13-.46-.08-1.37.44-2.57-.25-3.76-.92-.62-.35-1.22-.88-1.86-1-.73-.14-1.39-.55-1.87-1.11s-.98-.87-1.51-.98v-.74c.77.12,1.48.5,2.11,1.35.3.4.82.68,1.34.81.63.16,1.23.47,1.8.86,1.13.78,2.29,1.13,3.57.89.41-.08.85-.11,1.2.22,1.28,1.2,2.76,2.07,3.59,3.96.5,1.13,2.37,2.05,3.35,1.77.77-.22,1.02-.74,1.1-1.85.1-1.51.28-3.01.43-4.52.75-2.28.94-4.71,1.19-7.13.05-.48.05-1.26-.02-1.74-.23-1.62-.58-3.22-1.14-4.68-.54-1.4-.87-2.77-.94-4.34-.09-2.34.08-4.55,1.11-6.55.35-.7.51-1.47.7-2.26.28-1.14,0-2.35.39-3.44.64-2.36.67-4.63-.56-6.74-.1-.17-.12-.43-.18-.64-.27-.73-.63-1-1.17-.36-.73,1.43-1.32,3.01-2.61,3.83,1.03-1.18,1.37-2.96,2.31-4.21.23-.45.45-.87.13-1.44-.25-.44-.16-.98-.18-1.51,0-.06.01-.12.01-.18l.71.27c-.02.46.06.89.37,1.23.53.59.61,1.23.72,1.96.65.25.64,1.13.82,1.7.64,2.08.95,4.24-.25,6.24.13,2.19-.13,4.21-1,6.2-1.35,3.09-1.39,6.34-.15,9.56.14.37.27.74.39,1.12.24.76.42,1.55.71,2.28.29.74.05,1.62.63,2.36.4.51-.57,1.25-.4,2.07.03.16.03.36,0,.53-.28,1.29.14,2.68-.43,3.94-.69,1.53-.66,3.26-.66,4.95,0,.88.01,1.76.02,2.64,1.33.49,2.65,1.09,4,.09.18-.14.43-.12.65-.17,2.22-1.57,4.41-3.24,6.84-4.28.96-.41,1.85-.99,2.72-1.64,2.2-1.64,4.67-2.28,7.04-3.26.47-.52,1.06-.34,1.59-.35,1.2-.03,2.43-.05,3.5-.77.14-.1.29-.16.44-.25l.17.57c-.13.07-.27.12-.4.21-.81.52-1.74.7-2.68.72-.87.02-1.73.16-2.6.25-2.92,1.3-5.89,2.41-8.59,4.43-1.26.95-2.69,1.43-3.97,2.35-1.15.83-2.2,1.88-3.45,2.46-.73.71-1.53,1.24-2.4,1.59-.48.19-.86.43-1.31-.26-.27-.41-.98-.65-1.17.45-.07.43-.32.38-.63.36-1.13-.07-1.3.15-1.33,1.45-.01.47.01.95-.15,1.38-.39,1.02-.36,2.14-.02,3.06.43,1.17.63,2.42.92,3.62.5,2.04,1.28,4,1.24,6.2h-1.37Z" fill="#452a25"/><path d="M89.43,328.21s-.03.02-.04.04c0,0-.02,0-.02,0,0,0,0-.01,0-.02.02,0,.03-.01.05-.01Z" fill="#452a25"/><path d="M89.43,328.21c.72-.93,1.73-1.11,2.61-1.63-.72.93-1.62,1.42-2.61,1.63Z" fill="#452a25"/><path d="M96.81,322.88c.27-.43.52-.64.84-.63-.16.39-.37.69-.84.63Z" fill="#452a25"/><path d="M110.61,369.79c.08-.24.26-.55.5-.32.2.18.15.53.03.79-.12.27-.33.38-.64.43-.12-.41.03-.66.11-.89Z" fill="#452a25"/><path d="M156.06,356.31c1.5.07,2.96-.3,4.45-.72-1.34,1.6-2.91.99-4.45.72Z" fill="#452a25"/><path d="M109.39,372.72c.13.43.14.85.11,1.28h-.19c0-.43.1-.86.08-1.28Z" fill="#452a25"/><path d="M97.65,322.25s.01-.02.02-.03c.01,0,.03,0,.04,0,0,0-.01.01-.02.02-.01,0-.02,0-.03,0Z" fill="#452a25"/><path d="M100.86,319.66c-.83.87-1.59,1.85-2.53,2.51-.19.13-.41.13-.62.06,1.04-1.14,2.06-2.3,3.27-3.16.05.22.02.44-.12.59Z" fill="#452a25"/><path d="M161.75,355.68c-.3.16-.53.09-.58-.44.79-.4,1.59-.8,2.38-1.2.09-.57.24-1.14.26-1.72.02-.56.08-1.08.19-1.58v5.31c-.1-.5-.16-1.03-.15-1.59-.7.4-1.4.82-2.11,1.2Z" fill="#452a25"/><polygon points="243 277.38 258.93 237.39 268.21 240.36 276.44 255.28 282.56 250.15 286.41 253.49 287.99 260.18 301.12 262.88 311.45 254.83 318.62 256.55 336.28 282 243 282 243 277.38" fill="#291612"/><polygon points="207 372.3 216.12 363.07 235.15 362.42 246.08 351.56 251.93 333.72 254.28 334.59 257.43 340.24 269.31 337 288.41 337.22 299.76 345.32 313.01 326.08 319.72 311.67 324.89 312.48 326.26 341.99 343.64 350.65 350.01 365.46 360.94 368.83 363.43 374 207 374 207 372.3" fill="#291612"/><path d="M345.64,356.69s.35,5.66-4.03,8.36c-4.38,2.7-6.13-4.03-6.48-9.38-.35-5.35-2.62-1.33-6.48-4.76-3.85-3.43,3.15-10.82,3.15-10.82,0,0-9.8-.22-12.85,5.78-3.05,6-6.4,2.9-11.66,1.99-5.25-.92-4.9-7.77-2.2-13.73,2.7-5.96,1.32-15.2-1.83-15.15-1.23,7.4-4.55,5.96-7.99,12.76-3.44,6.79-7.24,7.46-8.47,15.85-1.22,8.39-4.55,10.32-12.04,8.67-7.49-1.65-3.71-5.03-1.14-12.24,2.57-7.21,0-13.31,0-13.31,0,0-4.85,4.92-9.26,10.67-4.41,5.74-7.49,16.08-14.85,15.52-7.35-.56-5.95-13.69,0-26.19,5.95-12.5,9.1-25.81,6.47-28.92-2.28,7.13-9.27,9.79-15.22,11.7-5.95,1.91-7.35,15.35-13.94,16.13s-8.12-18.93-6.49-25.73c-5.19,6.98-7.92,14.82-8.88,23.34-.96,8.52.26,14.19-5,19.97-5.25,5.78-11.76,14.96-5.54,26.8h147.86c4.56-9.29-3.16-17.31-3.16-17.31Z" fill="#ff7b07"/><path d="M271,273v-17h-52.41l-21.14,15.44-14.36-7.58-19.26,12.03-28.37,4.46-10.51,16.04-5.96,3.15v74.45h116v-63h24v63h12v-82h59v82h9v-82h12v-19h-80ZM150,348h-17v-19h17v19ZM150,325h-17v-4h17v4ZM174,348h-22v-19h22v19ZM174,325h-22v-4h22v4ZM197,348h-22v-19h22v19ZM197,325h-22v-4h22v4ZM216,348h-17v-19h17v19ZM216,325h-17v-4h17v4Z" fill="#351d19"/><polygon points="306.34 358.63 296.71 355.51 293.91 348.17 281.83 345.27 279.03 331.69 268 326.12 268 374 315.09 374 306.34 358.63" fill="#351d19"/><path d="M120,312.63c.13.13.29.1.54-.25.08-.11.26-.22.37-.18,1.23.42,2.34-.33,3.49-.58,1.01-.21,2-.44,3.03-.3.44.06.88.2,1.08.67.89,2.05,2.5,3.3,3.47,5.22.62,1.22,1.31,2.36,1.67,3.78h.66c-.13-.59-.33-1.16-.6-1.75-1.01-2.22-2.33-4.08-3.69-5.92-.66-.89-.75-2.24-.23-3.26,1.2-2.36,2.45-4.62,4.66-5.62.17-.07.31-.26.44-.43.53-.7,1.14-.83,1.89-.69,1.1.2,2.21.13,3.24-.54.25-.16.53-.29.8-.13.61.36,1.09.17,1.67-.27.83-.64,1.43-.23,1.78,1.01.19.69.5,1.33.99,1.64.85.53,1.26,1.49,1.75,2.4.81,1.19,1.52,2.43,2,3.93.5,1.56,1.42,2.73,2.86,3.03.39.08.85.16,1.13.61.46.74.96.54,1.53.27.77-.35,1.55-.84,2.41-.35.87.49,1.8.52,2.71.64,1.38.17,2.74.33,4.02,1.16.81.52,1.76.7,2.7.72.88.02,1.75.16,2.62.25,2.36,1.04,4.75,1.97,7.01,3.33v-.02h.74c-.13-.09-.27-.16-.39-.26-2.27-1.77-4.85-2.42-7.33-3.43-.48-.52-1.07-.34-1.61-.35-1.21-.03-2.45-.05-3.53-.77-1.15-.77-2.35-1.02-3.6-1.18-1.2-.15-2.41-.19-3.56-.78-.23-.12-.61-.13-.85-.03-1.3.56-2.44.36-3.78-.3-1.44-.71-2.37-1.7-2.88-3.46-.39-1.35-1.03-2.49-1.93-3.37-.43-1.03-.85-2.05-1.05-3.22-.11-.63-.3-1.26-.7-1.75-.56-.69-.67-1.43-.2-2.32.3-.55.35-1.18-.25-1.96.11,1.57-.6,2.63-.5,3.98-.63-.06-1.08-.66-1.58-.36-1.44.88-3.07.45-4.52,1.15-.86.42-1.66-.36-2.46-.04-.66.27-.98-.08-1.28-.67.09,1.22-.3,2.05-1.26,2.46-.3.13-.57.38-.87.55-.86.51-1.59,1.17-1.99,2.32-.4,1.17-1.36,1.74-1.9,2.76-.18.33-.48.33-.75.32-1.88-.08-3.65.55-5.45,1.12-.82.26-1.68.46-2.52.18v1.02Z" fill="#452a25"/><path d="M134.16,301.65c-.02-.27-.04-.56-.08-1.18-.1.67-.25,1.01.08,1.18Z" fill="#452a25"/><path d="M134.16,301.72s.03-.04.03-.04c-.02,0-.02-.02-.04-.03,0,.02,0,.05,0,.07Z" fill="#452a25"/><path d="M134.16,301.72s.02.04.03.06c0-.04,0-.06,0-.1l-.03.04Z" fill="#452a25"/><path d="M215.77,370.4c.24-.71.25-1.45.12-2.2-.64.67,0,1.47-.12,2.2Z" fill="#452a25"/><path d="M215.9,368.21s0-.01.02-.02c0-.01-.01-.02-.01-.04,0,0,0,.01,0,.02,0,.02,0,.03,0,.05Z" fill="#452a25"/><path d="M197,322.74v1.25c.59-.69,1.28-1.27,1.96-1.83.01,0,.03,0,.04-.01v-.91c-.19.02-.38.09-.55.25-.47.44-.97.83-1.45,1.25Z" fill="#452a25"/><path d="M193.53,328.53c1.25-.25,1.82-1.24,2.38-2.62.13-.33.31-.62.49-.91h-1.23c-.1.18-.2.37-.29.57-.5,1.14-2.4,2.08-3.39,1.8-.78-.22-1.04-.75-1.11-1.87-.01-.17-.03-.33-.04-.49h-.89c0,.55,0,1.1-.01,1.65-1.34.49-2.68,1.11-4.06.09-.18-.14-.44-.12-.66-.17-.74-.52-1.48-1.05-2.22-1.57h-1.28c.93.73,1.83,1.53,2.87,2.01.74.72,1.55,1.26,2.44,1.61.48.19.87.43,1.33-.27.27-.41.99-.66,1.18.45.02.09.04.14.07.2h3.76c.02-.33.44-.42.68-.47Z" fill="#452a25"/><path d="M328.52,286.55c-.16-1.98-1.7-3.31-1.46-5.42-.88-.43-.26-.96.02-1.21,1.04-.91,1.23-2.13,1.26-3.68.03-1.16.36-2.22.8-3.24h-.89c-.48,1.07-.89,2.18-.96,3.5-.07,1.31-1.47,3.2-2.46,3.49-.78.23-1.19-.11-1.64-1.09-.61-1.33-1.29-2.6-1.95-3.9-.53-.61-1-1.29-1.43-2h-.92c.17.32.37.62.64.86,1.16,1.02,1.72,2.62,2.31,4.18.3.8.59,1.62.89,2.43-1.05,1.18-2.05,2.47-3.64,2.31-.21-.02-.44.13-.66.21-2.67-.21-5.33-.54-8.01-.08-.85.15-1.71.11-2.56,0-2.66-.36-5.22.46-7.82.9-.61-.22-1.08.28-1.58.56-1.11.64-2.25,1.3-3.47,1.24-1.31-.07-2.49.36-3.67.9-1.14.52-2.25,1.16-3.49,1.25-.26.02-.61.22-.8.45-.99,1.23-2.09,1.67-3.53,1.8-1.56.14-2.73-.25-3.81-1.58-.82-1.02-1.79-1.72-2.91-2.03-.71-.68-1.41-1.34-1.98-2.24-.34-.54-.72-1.1-1.29-1.34-.77-.32-1.14-.94-1.01-2.03.08-.67-.09-1.27-.9-1.66.64,1.38.36,2.74.91,3.92-.59.29-1.21-.01-1.56.55-1,1.6-2.64,2.11-3.71,3.55-.64.86-1.64.58-2.25,1.32-.5.61-.92.46-1.39.09.5,1.07.43,2.04-.3,2.95-.23.29-.39.66-.6.98-.61.94-1.04,1.95-1.01,3.23.04,1.29-.64,2.34-.78,3.58-.05.4-.32.57-.58.71-1.73.96-3.13,2.52-4.57,4.03-.81.85-1.7,1.66-2.86,1.64-.05.15-.09.29-.14.44.23.02.53-.06.68.09.38.37.65.6.84-.2.03-.15.16-.34.27-.37,1.26-.29,2.01-1.59,2.98-2.45.89-.79,1.77-1.6,2.83-2.03.37-.15.81-.1,1.12.17,1.49,1.32,3.36,1.6,4.87,2.8,1.31,1.04,2.7,1.87,3.56,3.84.42.95.79,1.88,1.05,2.84v-2.27c-.15-.25-.3-.49-.41-.77-.47-1.13-1.08-1.98-1.93-2.73-1.68-1.47-3.52-2.45-5.39-3.4-.9-.46-1.45-1.64-1.33-2.86.28-2.83.64-5.58,2.3-7.71.13-.16.19-.41.25-.63.24-.93.75-1.39,1.48-1.68,1.06-.42,2.05-1.09,2.76-2.27.17-.29.38-.56.68-.56.68,0,1.05-.44,1.42-1.16.54-1.04,1.23-1,1.97-.05.41.52.91.94,1.46.96.95.02,1.66.67,2.42,1.23,1.14.64,2.21,1.39,3.16,2.5.99,1.16,2.23,1.72,3.63,1.2.39-.14.83-.32,1.23-.06.67.43,1.05-.04,1.48-.6.52-.67,1-1.43,1.77-1.61s1.6-.33,2.34-.66c1.54-.68,3.01-1.51,4.7-1.45.92.03,1.83-.33,2.7-.83.8-.46,1.64-.82,2.47-1.22,3.12-.43,6.23-1.07,9.39-.71,1.48.17,2.95-.18,4.44-.05,1.33.12,2.66.5,4.01.34.91.25,1.83.29,2.75.12.5-.09.93-.08,1.11-.97.11-.52.68-1.14,1.22-.24.22.36.42.17.7-.03,1.01-.69,1.24-.59,1.72.59.17.43.31.87.61,1.18.71.72,1.06,1.77,1.07,2.79,0,1.32.26,2.56.4,3.83.04.33.07.66.1,1h1.43c-.08-1.84-.46-3.63-.61-5.45Z" fill="#452a25"/><path d="M190.35,365c-.26.02-.41.15-.37.43.05.43.38.47.62.59.18.09.32-.1.26-.41-.07-.38-.2-.66-.51-.61Z" fill="#452a25"/><path d="M217.73,366.09c.15-.07.52-.33.24-.82-.55.17-.91.75-1.37,1.09-.34.26-.62.34-.98-.02-1.28-1.29-2.84-2.07-3.96-3.66-.26-.37-.59-.73-1-.86-.56-.39-1.08-.93-1.68-1.14-1.01-.35-1.68-1.03-2.18-2.19-.37-.85-.89-1.61-1.71-1.86.9,1.3,1.44,3.02,2.61,3.95.91.72,1.95,1.19,2.93,1.77,1.09,1.4,2.26,2.68,3.63,3.61.73.5,1.38,1.1,1.64,2.17.47-.88,1-1.67,1.83-2.05Z" fill="#452a25"/><path d="M183.07,369.2c.04.42.17.79.4.69.3-.13.49-.52.47-.98-.01-.25-.12-.44-.34-.43-.42.02-.54.35-.52.72Z" fill="#452a25"/><path d="M270.36,313.78c-.45-.9-1.03-.73-1.53-.61-.98.25-1.97.31-2.96.48-.1.07-.12.16-.07.29,1.52.56,2.96-.58,4.56-.17Z" fill="#452a25"/><path d="M339,297.11s-.06.02-.08.02c-2.5.8-4.89,1.96-7.18,3.46-.1.07-.15.27-.22.41-.07.07-.14.15-.22.21-1.02.87-.98.84-1.3-.75,0,0,0,0,0,0v3.33c.16-.2.31-.41.47-.61.83-1,1.8-1.83,2.7-2.74,1.88-.99,3.73-2.13,5.82-2.85v-.49Z" fill="#452a25"/><path d="M336.35,314.85c-.23.16-.32.36-.19.59.19.36.51.22.75.19.19-.02.26-.26.1-.51-.19-.31-.4-.49-.66-.27Z" fill="#452a25"/><path d="M265.87,313.66c-.52-.24-.92.16-1.66.34.76.39,1.16-.15,1.59-.04-.05-.13-.03-.22.07-.29Z" fill="#452a25"/><path d="M331.79,323.03c.22-.28.27-.74.09-1.14-.1-.22-.25-.33-.46-.2-.37.25-.37.61-.23.94.17.36.42.61.59.41Z" fill="#452a25"/><path d="M264.2,288.43c-.11-.23-.23-.49-.47-1.02.13.66.12,1.05.47,1.02Z" fill="#452a25"/><path d="M264.22,288.49s.02-.05.02-.05c-.02,0-.03,0-.05,0,0,.02.02.04.03.06Z" fill="#452a25"/><path d="M264.22,288.49s.03.02.05.04c-.01-.03-.02-.06-.03-.09l-.02.05Z" fill="#452a25"/><path d="M264.21,374c2.21-1.07,4.47-1.99,6.79-2.68v-.69s-.04.03-.08.04c-.9.1-1.8.21-2.61.73-1.69,1.08-3.55,1.68-5.3,2.61h1.2Z" fill="#452a25"/><path d="M271,331.36v-.35c-.06-.12-.12-.23-.18-.35.05.24.11.47.18.7Z" fill="#452a25"/><path d="M270.19,314.09c.27.23.55.39.81.57v-.43c-.23-.05-.47-.24-.81-.14Z" fill="#452a25"/><path d="M199.93,351.8c-.32-.58-.61-.63-.84-.69-2.56-.65-5.14-.92-7.74-.82-.11,0-.23.17-.34.26-.09.02-.18.06-.27.07-1.2.22-1.18.22-.95-1.26.07-.45.14-.9.21-1.35h-1.54c0,.28.02.56.05.83.16,1.49-.45,2.31-1.32,2.98-.31.24-.66.4-.98.65-.74.58-1.65,1-2.17,1.82-.84,1.33-1.94,1.84-3.08,2.48-1.31.73-2.79,1.16-3.69,2.78-.64,1.15-1.51,2.04-2.4,2.87-.51.48-.89,1.13-.95,1.97-.81,1.01-1.8,1.83-2.23,3.25-.47,1.55-.44,1.56-1.71,1.49-1.04-.06-2.04.15-2.96.82,1.09-.14,2.15-.42,3.25-.21.83.16.89.23.67,1.33-.14.71-.56,1.39-.18,2.24.25-1.01.51-1.94.72-2.88.42-1.93.95-3.77,2.29-5.01.17-.16.27-.46.4-.69,2.23-4.13,5.15-6.98,9.01-8.11.44.88.11,1.84.28,3.02.14-.96.13-1.61.16-2.23.05-1.03.3-1.85.91-2.42,1.45-1.35,3.07-2.32,4.76-3.02,1.1-.45,2.27-.67,3.4-1,2.35.15,4.72.07,7.22.84Z" fill="#452a25"/><path d="M129.96,326.53c-.97-.31-1.89-.8-2.83-1.19-.11,0-.17.08-.16.22,1.18,1.34,2.87,1.09,4.17,2.34-.1-1.05-.69-1.23-1.18-1.38Z" fill="#452a25"/><path d="M127.18,367.05c.5.22,1.09.06,1.64.08.46.02.95-.09,1.37.09,1.5.66,3.07.67,4.6,1.05,2.07.47,4.13.94,6.2,1.43.9.21,1.79.54,2.7.7,1,.18,1.69-1,2.63-1.15.26-.04.52-.23.77-.38.16-.1.29-.25.26-.58-.86.09-1.61.61-2.37,1.04-.65.37-1.42.44-2.14.25-2.29-.62-4.59-1.16-6.89-1.73-.58-.18-1.19-.2-1.77-.25-1.47-.13-2.87-.75-4.32-.94-1.32-.17-2.66-.01-3.95-.58-.51-.23-1.07-.04-1.43.33-1.42,1.46-3.16,2.29-4.48,3.96v.82c1.13-1.35,2.38-2.49,3.81-3.37,1.11-.69,2.1-1.32,3.38-.76Z" fill="#452a25"/><path d="M215.77,372.22c-.17.65-.24,1.23-.24,1.78h.4c-.06-.55-.1-1.14-.16-1.78Z" fill="#452a25"/><path d="M124.04,363.21c.03.95.35,1.1.87,1.22.83.19.81.29.79-.79-.6.47-1.12.3-1.66-.43Z" fill="#452a25"/><path d="M127.13,325.34c-.39-.5-.88-.36-1.61-.61.56.76,1.09.5,1.45.83,0-.14.05-.22.16-.23Z" fill="#452a25"/><path d="M224.11,319.57c-.35-.78,0-1.5-.46-2.12-.02.52-.1.94-.04,1.32.27,1.71-.31,3.1-.97,4.46-.5,1.03-.88,1.15-1.49.28-.8-1.15-1.82-1.75-2.87-2.32-1.32-.72-2.56-1.55-3.41-3.12-.23-.43-.51-.84-.94-.99-.44-.47-.93-1.13-.67-1.77.4-1,.16-1.83-.1-2.67-.24-.79-.01-1.5.29-1.99,1.3-2.12,2.87-3.67,5.15-3.58.85.04,1.71.07,2.52-.41-.1-.11-.2-.21-.3-.32-.87,0-1.74.03-2.61.19-.77.14-1.55.27-2.31-.09.05-.57-.35-.78-.57-1.12-.74-1.14-1.85-1.76-2.59-2.83-1.25-1.79-3.14-2.29-4.45-3.9-.02-.02-.07,0-.11.01.49,1.02,1.16,1.74,2.03,2.21.54.29,1.14.53,1.53,1.14,1.19,1.87,2.9,3,4.16,4.77,0,.36-.2.57-.41.61-1.63.32-2.13,2.17-2.88,3.6-.34.64-.42,1.58-.05,2.36.19.41.02.75.02,1.12,0,1.2-.79,1.57-1.25,2.31-.45.73-.84.84-1.5.72-1.3-.23-2.54-.05-3.55,1.31-.31.41-.83.69-1.37.82-.62.15-1.21.46-1.77.85-.33.23-.67.41-1.01.56h1.43c.47-.31.93-.64,1.42-.74.74-.15,1.41-.57,1.91-1.14.91-1.04,1.88-1.24,3-.74.66.29,1.21.16,1.7-.59.57-.87,1.29-1.02,2.07-.41,1.45,2.48,3.41,4,5.65,5.01.52.23.94.64,1.32,1.21.5.76,1.07,1.43,1.54,2.53.35-1.89,1.3-3.15,1.76-4.73.53-1.84,1.93-2.97,3.49-2.92.03-.44-.38-.63-.35-.98-1.05.52-1.98,1.41-2.98,2.08Z" fill="#452a25"/><path d="M126.34,343.69c-.39,2.67.2,5.16.92,7.62-.82.18-1.43-.58-2.25-.37,1.17.84,1.51.96,2.97.97-1.13-2.67-1.34-5.46-1.64-8.23Z" fill="#452a25"/><path d="M274.09,274.94c-.39.4-.53.97-.74,1.53.18.05.26.08.35.1.26.09.52.18.78.26-.02-.4.31-.87-.16-1.21-.1-.07-.09-.41-.12-.63.3-.38.61-.75,1.08-1.34-.76.23-1.08.62-1.19,1.29Z" fill="#452a25"/><path d="M208.13,298.48c-.72-.93-1.73-1.11-2.61-1.63.72.93,1.62,1.42,2.61,1.63Z" fill="#452a25"/><path d="M227.44,318.39l.02-.03s-.02,0-.02,0c0,.01,0,.02,0,.03Z" fill="#452a25"/><path d="M208.13,298.48s.03.02.04.04c0,0,.02,0,.02,0,0,0,0-.01,0-.02-.02,0-.03-.01-.05-.01Z" fill="#452a25"/><path d="M132,331.21v-.74c-.39.2-.27.84-.46,1.21.21-.11.35-.28.46-.47Z" fill="#452a25"/><path d="M199.85,292.49s.01.01.02.02c.01,0,.02,0,.03,0,0-.01-.01-.02-.02-.03-.01,0-.03,0-.04,0Z" fill="#452a25"/><path d="M199.91,292.52c.16.39.37.69.84.63-.27-.43-.52-.64-.84-.63Z" fill="#452a25"/><path d="M170.47,273.56c2.39.74,4.81,1.34,7.23,1.99.76.2,1.42-.09,2.04-.63,2.62.01,5.24.32,7.85-.26.35-.08.69.1.88.48.5,1.01,1.19,1.92,1.43,3.1.19.92.54,2.08-.1,2.8-.53.59-.61,1.23-.72,1.96-.65.25-.64,1.13-.82,1.69-.64,2.08-.95,4.24.25,6.24-.13,2.19.13,4.21,1,6.2,1.35,3.09,1.39,6.34.15,9.56-.14.37-.27.74-.39,1.12-.24.76-.42,1.55-.71,2.28-.29.74-.05,1.62-.63,2.36-.4.51.57,1.25.4,2.07-.03.16-.03.36,0,.53.28,1.29-.14,2.68.43,3.94.29.64.45,1.32.54,2.01h.62s0-.05,0-.08c-.76-2.31-.94-4.78-1.2-7.23-.04-.42-.04-1.11.02-1.53.23-1.66.58-3.29,1.15-4.79.54-1.4.87-2.77.94-4.34.09-2.34-.08-4.55-1.11-6.55-.35-.7-.51-1.47-.7-2.26-.28-1.14,0-2.35-.39-3.44-.64-2.36-.67-4.63.56-6.74.1-.17.12-.43.18-.64.27-.73.63-1,1.17-.36.73,1.43,1.32,3.01,2.61,3.83-1.03-1.18-1.37-2.96-2.31-4.21-.23-.45-.45-.87-.13-1.44.25-.44.16-.98.18-1.51.05-1.54-.58-2.72-1.17-3.91-.43-.86-.54-1.92-.32-2.9.4-1.77.8-3.52,1.45-5.14l-.81-.43c-.63,1.52-1.02,3.18-1.41,4.81-.29,1.25-.75,1.92-1.74,2.02-.32.03-.63.13-.95.18-2.05.37-4.11.11-6.17.29-.86.13-1.7.44-2.57.21-2.28-.6-4.56-1.19-6.82-1.84-.28-.08-.56-.14-.84-.21l-.57.35c.5.11,1,.24,1.51.4Z" fill="#452a25"/><path d="M196.54,289.29s.02.02.03.04c0,0,.01,0,.02.01,0-.02,0-.03,0-.04-.02,0-.03,0-.05,0Z" fill="#452a25"/><path d="M194.02,287.49c1.64,1.6,1.68,1.63,2.52,1.79-.58-1-1.4-1.46-2.52-1.79Z" fill="#452a25"/><path d="M149.15,294.38c-.76-.2-1.18-.03-1.51.52-.48.15-.8.58-1.18.97.14.14.21.21.28.28.21.22.41.44.61.67.12-.38.57-.62.26-1.18-.07-.12.06-.42.1-.63.4-.17.8-.35,1.43-.62Z" fill="#452a25"/><path d="M132,329.56v-.65c-.17-.18-.33-.44-.64-.52.21.44.45.8.64,1.17Z" fill="#452a25"/><path d="M136.05,326.12c.3.16.53.09.58-.44-.45-.23-.9-.45-1.35-.68h-1.18c.65.38,1.3.76,1.95,1.12Z" fill="#452a25"/><path d="M196.7,289.92c.83.87,1.59,1.85,2.53,2.51.19.13.41.13.62.06-1.04-1.14-2.06-2.3-3.27-3.16-.05.22-.02.44.12.59Z" fill="#452a25"/><path d="M137.05,325.86c1.34,1.6,2.91.99,4.45.72-1.5.07-2.96-.3-4.45-.72Z" fill="#452a25"/><path d="M133.95,325h-.57c-.05,1.4-.28,2.73-.88,4h.46c.54-1.23.99-2.5.98-4Z" fill="#452a25"/><path d="M247,166.57s-.19-.07-.45-.23c-.13-.08-.3-.17-.46-.3-.17-.11-.35-.29-.54-.41-.19-.11-.38-.22-.56-.34-.18-.13-.37-.27-.56-.41-.21-.16-.39-.32-.59-.52-.22-.19-.41-.42-.62-.64-.2-.25-.42-.54-.6-.83-.19-.26-.36-.65-.51-.98-.15-.34-.28-.68-.35-1.05-.08-.37-.13-.71-.16-1.03-.05-.31.02-.63.04-.89.02-.26.07-.49.11-.68.08-.37.17-.57.17-.57,0,0,.18.12.43.32.12.1.27.22.41.35.15.13.28.29.47.42.18.13.35.27.51.42.15.16.35.29.53.45.18.16.33.32.54.52.2.19.37.39.57.62.2.25.4.5.58.77.19.27.37.61.52.91.16.29.29.65.4,1.01.11.35.19.69.25,1,.05.3.02.57.02.82,0,.24-.03.47-.04.66-.04.37-.09.61-.09.61Z" fill="#ffc454"/><path d="M108.93,179.88s-.19-.07-.45-.23c-.13-.08-.3-.17-.46-.3-.17-.11-.35-.29-.54-.41-.19-.11-.38-.22-.56-.34-.18-.13-.37-.27-.56-.41-.21-.16-.39-.32-.59-.52-.22-.19-.41-.42-.62-.64-.2-.25-.42-.54-.6-.83-.19-.26-.36-.65-.51-.98-.15-.34-.28-.68-.35-1.05-.08-.37-.13-.71-.16-1.03-.05-.31.02-.63.04-.89.02-.26.07-.49.11-.68.08-.37.17-.57.17-.57,0,0,.18.12.43.32.12.1.27.22.41.35.15.13.28.29.47.42.18.13.35.27.51.42.15.16.35.29.53.45.18.16.33.32.54.52.2.19.37.39.57.62.2.25.4.5.58.77.19.27.37.61.52.91.16.29.29.65.4,1.01.11.35.19.69.25,1,.05.3.02.57.02.82,0,.24-.03.47-.04.66-.04.37-.09.61-.09.61Z" fill="#ffc454"/><path d="M65.75,248.56s-.19-.07-.45-.23c-.13-.08-.3-.17-.46-.3-.17-.11-.35-.29-.54-.41-.19-.11-.38-.22-.56-.34-.18-.13-.37-.27-.56-.41-.21-.16-.39-.32-.59-.52-.22-.19-.41-.42-.62-.64-.2-.25-.42-.54-.6-.83-.19-.26-.36-.65-.51-.98-.15-.34-.28-.68-.35-1.05-.08-.37-.13-.71-.16-1.03-.05-.31.02-.63.04-.89.02-.26.07-.49.11-.68.08-.37.17-.57.17-.57,0,0,.18.12.43.32.12.1.27.22.41.35.15.13.28.29.47.42.18.13.35.27.51.42.15.16.35.29.53.45.18.16.33.32.54.52.2.19.37.39.57.62.2.25.4.5.58.77.19.27.37.61.52.91.16.29.29.65.4,1.01.11.35.19.69.25,1,.05.3.02.57.02.82,0,.24-.03.47-.04.66-.04.37-.09.61-.09.61Z" fill="#ffc454"/><path d="M235.51,69.14s-.19-.07-.45-.23c-.13-.08-.3-.17-.46-.3-.17-.11-.35-.29-.54-.41-.19-.11-.38-.22-.56-.34-.18-.13-.37-.27-.56-.41-.21-.16-.39-.32-.59-.52-.22-.19-.41-.42-.62-.64-.2-.25-.42-.54-.6-.83-.19-.26-.36-.65-.51-.98-.15-.34-.28-.68-.35-1.05-.08-.37-.13-.71-.16-1.03-.05-.31.02-.63.04-.89.02-.26.07-.49.11-.68.08-.37.17-.57.17-.57,0,0,.18.12.43.32.12.1.27.22.41.36.15.13.28.29.47.42.18.13.35.27.51.42.15.16.35.29.53.45.18.16.33.32.54.52.2.19.37.39.57.62.2.25.4.5.58.77.19.27.37.61.52.91.16.29.29.65.4,1.01.11.35.19.69.25,1,.05.3.02.57.02.82,0,.24-.03.47-.04.66-.04.37-.09.61-.09.61Z" fill="#ffc454"/><path d="M97.44,82.45s-.19-.07-.45-.23c-.13-.08-.3-.17-.46-.3-.17-.11-.35-.29-.54-.41-.19-.11-.38-.22-.56-.34-.18-.13-.37-.27-.56-.41-.21-.16-.39-.32-.59-.52-.22-.19-.41-.42-.62-.64-.2-.25-.42-.54-.6-.83-.19-.26-.36-.65-.51-.98-.15-.34-.28-.68-.35-1.05-.08-.37-.13-.71-.16-1.03-.05-.31.02-.63.04-.89.02-.26.07-.49.11-.68.08-.37.17-.57.17-.57,0,0,.18.12.43.32.12.1.27.22.41.35.15.13.28.29.47.42.18.13.35.27.51.42.15.16.35.29.53.45.18.16.33.32.54.52.2.19.37.39.57.62.2.25.4.5.58.77.19.27.37.61.52.91.16.29.29.65.4,1.01.11.35.19.69.25,1,.05.3.02.57.02.82,0,.24-.03.47-.04.66-.04.37-.09.61-.09.61Z" fill="#ffc454"/><path d="M235.89,284.97s-.12-.04-.3-.15c-.09-.05-.2-.11-.3-.2-.11-.07-.23-.19-.36-.27-.13-.07-.25-.14-.37-.22-.12-.09-.24-.18-.37-.27-.14-.1-.26-.21-.39-.35-.14-.13-.27-.28-.41-.43-.13-.17-.28-.35-.4-.55-.13-.17-.24-.43-.34-.65-.1-.23-.19-.45-.23-.7-.05-.24-.08-.47-.11-.68-.03-.2.01-.42.03-.59.01-.17.05-.33.08-.45.05-.24.11-.38.11-.38,0,0,.12.08.28.22.08.07.18.14.27.23.1.08.19.19.31.28.12.09.23.18.34.28.1.11.23.2.35.3.12.1.22.21.35.34.14.12.24.26.38.41.13.17.26.33.38.51.12.18.24.4.34.6.1.19.19.43.27.67.07.23.13.46.16.66.03.2.01.38.01.54,0,.16-.02.31-.03.43-.02.25-.06.4-.06.4Z" fill="#ffc454"/><path d="M70,373.16s8.62-3.53,8.16-7.77c-.46-4.24-1.29-9.55,2.11-12.16-.7,2.51.85,9.43,4.27,8.57,3.42-.86,2.6-4.23,3.2-7.88.6-3.65,1.64-5.27,3.5-7.6,1.86-2.34,2.24-3.67,1.46-7.31,3.64,2.27,5.3,6.68,3.31,11.07-1.99,4.4-.55,10.28,2.65,10.64,3.2.36,4.08-4.14,4.08-4.14,0,0,2.87,1.11,2.32,4.35-.55,3.24,2.21,6.39,4.97,5.24,2.76-1.15,4.97-4.24,7.73-2.42,2.76,1.83,5.49,3.09,6.06.28,2.55.98,2.48,3.81.92,5.84-1.57,2.03.79,3.71,3.98,4.13h-58.72v-.84Z" fill="#ffc454"/><path d="M265.03,172.53c-9.1-10.56-21.53-13.27-21.48-32.35-6.29,9.75-6.34,23.18-2.58,29.9s11.58,29.49,5.48,35.31c-6.11,5.82-13.45-8.16-12.62-18.1.83-9.94-3.64-16.94-3.64-16.94,0,0,2.36,10.17-.73,18.66-3.09,8.49-1.18,17.42,3.39,28.62,4.57,11.2-2.1,28.57-10.48,30.73-8.38,2.16-15.76-10.06-16.27-23.19-.51-13.13-1.88-27.26-5.82-34.47s-4.76-13.64-4.27-21.2c-4.22,6.44-6.62,8.86-4.85,18.42,1.77,9.56-.2,21.27-4.44,27.03-4.24,5.76-10.2,10.89-10.2,24.21s.49,22.32-7.15,20.54c-7.63-1.77-11.24-13.66-9.68-22.69-4.45.21-7.33,11.25-5.4,26.3,1.92,15.04-2.14,26.15-8.63,28.71-6.5,2.56-12.54-1.62-14.88,11.11-2.34,12.72-9.83,37.16-15.34,29.28-5.51-7.88-3.54-17.47-1.92-27.5,1.61-10.04-1.16-15.26-1.16-15.26,0,0-.24,10.22-4.59,22.38-4.35,12.16-4.69,37.48-1.83,47.1,2.86,9.62,8.13,14.86,8.13,14.86h164.96v-164.78c0-15.91-4.87-26.13-13.97-36.69Z" fill="none" stroke="#000" stroke-linecap="round" stroke-linejoin="round"/><polygon points="321.27 305.72 312.35 305.33 305.68 265.06 293.92 215 258.61 215 243.4 248.22 230.95 251.89 224.56 239.89 211.61 237.22 207.56 215 184.44 228.02 172.27 269.93 140.35 283.46 121.29 319.7 107.33 327.76 95 372.98 95 374 341.3 374 321.27 305.72" fill="none" stroke="#000" stroke-linecap="round" stroke-linejoin="round"/><polygon points="99 290.02 110.57 275 120 275 120 297 132 297 132 256 142 256 142 307.91 147.31 311.81 149.7 322.58 153.12 326.89 159 351.5 159 366 99 366 99 290.02" fill="none" stroke="#000" stroke-linecap="round" stroke-linejoin="round"/><polygon points="164 343 157.47 343 154.54 349.68 151.6 357 141.89 357 136.87 351.24 133.43 339.59 122.59 335.18 117.3 312.65 99.84 306 89 306 89 353.5 83.46 356.8 81.35 374 164 374 164 343" fill="none" stroke="#000" stroke-linecap="round" stroke-linejoin="round"/><path d="M103.54,317.23c-1.64,1.6-1.68,1.63-2.52,1.79.58-1,1.4-1.46,2.52-1.79Z" fill="none" stroke="#000" stroke-linecap="round" stroke-linejoin="round"/><path d="M101.02,319.02s-.02.02-.03.04c0,0-.01,0-.02.01,0-.02,0-.03,0-.04.02,0,.03,0,.05,0Z" fill="none" stroke="#000" stroke-linecap="round" stroke-linejoin="round"/><path d="M90.21,328.24c-.07.13-.14.25-.21.38v-.28s.07-.07.1-.11c.02-.02.07,0,.11.01Z" fill="none" stroke="#000" stroke-linecap="round" stroke-linejoin="round"/><path d="M108.03,374h-.01c-.12-1.46-.35-2.9-.81-4.24-.6-1.75-.85-3.65-1.34-5.43-.51-1.85.41-3.86-.5-5.61.63-.85-.08-.99-.42-1.06-1.23-.25-1.8-1.23-2.35-2.59-.65-1.62-1.93-2.6-3.12-3.58-.13-.11-.3-.13-.46-.08-1.37.44-2.57-.25-3.76-.92-.62-.35-1.22-.88-1.86-1-.73-.14-1.39-.55-1.87-1.11s-.98-.87-1.51-.98v-.74c.77.12,1.48.5,2.11,1.35.3.4.82.68,1.34.81.63.16,1.23.47,1.8.86,1.13.78,2.29,1.13,3.57.89.41-.08.85-.11,1.2.22,1.28,1.2,2.76,2.07,3.59,3.96.5,1.13,2.37,2.05,3.35,1.77.77-.22,1.02-.74,1.1-1.85.1-1.51.28-3.01.43-4.52.75-2.28.94-4.71,1.19-7.13.05-.48.05-1.26-.02-1.74-.23-1.62-.58-3.22-1.14-4.68-.54-1.4-.87-2.77-.94-4.34-.09-2.34.08-4.55,1.11-6.55.35-.7.51-1.47.7-2.26.28-1.14,0-2.35.39-3.44.64-2.36.67-4.63-.56-6.74-.1-.17-.12-.43-.18-.64-.27-.73-.63-1-1.17-.36-.73,1.43-1.32,3.01-2.61,3.83,1.03-1.18,1.37-2.96,2.31-4.21.23-.45.45-.87.13-1.44-.25-.44-.16-.98-.18-1.51,0-.06.01-.12.01-.18l.71.27c-.02.46.06.89.37,1.23.53.59.61,1.23.72,1.96.65.25.64,1.13.82,1.7.64,2.08.95,4.24-.25,6.24.13,2.19-.13,4.21-1,6.2-1.35,3.09-1.39,6.34-.15,9.56.14.37.27.74.39,1.12.24.76.42,1.55.71,2.28.29.74.05,1.62.63,2.36.4.51-.57,1.25-.4,2.07.03.16.03.36,0,.53-.28,1.29.14,2.68-.43,3.94-.69,1.53-.66,3.26-.66,4.95,0,.88.01,1.76.02,2.64,1.33.49,2.65,1.09,4,.09.18-.14.43-.12.65-.17,2.22-1.57,4.41-3.24,6.84-4.28.96-.41,1.85-.99,2.72-1.64,2.2-1.64,4.67-2.28,7.04-3.26.47-.52,1.06-.34,1.59-.35,1.2-.03,2.43-.05,3.5-.77.14-.1.29-.16.44-.25l.17.57c-.13.07-.27.12-.4.21-.81.52-1.74.7-2.68.72-.87.02-1.73.16-2.6.25-2.92,1.3-5.89,2.41-8.59,4.43-1.26.95-2.69,1.43-3.97,2.35-1.15.83-2.2,1.88-3.45,2.46-.73.71-1.53,1.24-2.4,1.59-.48.19-.86.43-1.31-.26-.27-.41-.98-.65-1.17.45-.07.43-.32.38-.63.36-1.13-.07-1.3.15-1.33,1.45-.01.47.01.95-.15,1.38-.39,1.02-.36,2.14-.02,3.06.43,1.17.63,2.42.92,3.62.5,2.04,1.28,4,1.24,6.2h-1.37Z" fill="none" stroke="#000" stroke-linecap="round" stroke-linejoin="round"/><path d="M89.43,328.21s-.03.02-.04.04c0,0-.02,0-.02,0,0,0,0-.01,0-.02.02,0,.03-.01.05-.01Z" fill="none" stroke="#000" stroke-linecap="round" stroke-linejoin="round"/><path d="M89.43,328.21c.72-.93,1.73-1.11,2.61-1.63-.72.93-1.62,1.42-2.61,1.63Z" fill="none" stroke="#000" stroke-linecap="round" stroke-linejoin="round"/><path d="M96.81,322.88c.27-.43.52-.64.84-.63-.16.39-.37.69-.84.63Z" fill="none" stroke="#000" stroke-linecap="round" stroke-linejoin="round"/><path d="M110.61,369.79c.08-.24.26-.55.5-.32.2.18.15.53.03.79-.12.27-.33.38-.64.43-.12-.41.03-.66.11-.89Z" fill="none" stroke="#000" stroke-linecap="round" stroke-linejoin="round"/><path d="M156.06,356.31c1.5.07,2.96-.3,4.45-.72-1.34,1.6-2.91.99-4.45.72Z" fill="none" stroke="#000" stroke-linecap="round" stroke-linejoin="round"/><path d="M109.39,372.72c.13.43.14.85.11,1.28h-.19c0-.43.1-.86.08-1.28Z" fill="none" stroke="#000" stroke-linecap="round" stroke-linejoin="round"/><path d="M97.65,322.25s.01-.02.02-.03c.01,0,.03,0,.04,0,0,0-.01.01-.02.02-.01,0-.02,0-.03,0Z" fill="none" stroke="#000" stroke-linecap="round" stroke-linejoin="round"/><path d="M100.86,319.66c-.83.87-1.59,1.85-2.53,2.51-.19.13-.41.13-.62.06,1.04-1.14,2.06-2.3,3.27-3.16.05.22.02.44-.12.59Z" fill="none" stroke="#000" stroke-linecap="round" stroke-linejoin="round"/><path d="M161.75,355.68c-.3.16-.53.09-.58-.44.79-.4,1.59-.8,2.38-1.2.09-.57.24-1.14.26-1.72.02-.56.08-1.08.19-1.58v5.31c-.1-.5-.16-1.03-.15-1.59-.7.4-1.4.82-2.11,1.2Z" fill="none" stroke="#000" stroke-linecap="round" stroke-linejoin="round"/><polygon points="243 277.38 258.93 237.39 268.21 240.36 276.44 255.28 282.56 250.15 286.41 253.49 287.99 260.18 301.12 262.88 311.45 254.83 318.62 256.55 336.28 282 243 282 243 277.38" fill="none" stroke="#000" stroke-linecap="round" stroke-linejoin="round"/><polygon points="207 372.3 216.12 363.07 235.15 362.42 246.08 351.56 251.93 333.72 254.28 334.59 257.43 340.24 269.31 337 288.41 337.22 299.76 345.32 313.01 326.08 319.72 311.67 324.89 312.48 326.26 341.99 343.64 350.65 350.01 365.46 360.94 368.83 363.43 374 207 374 207 372.3" fill="none" stroke="#000" stroke-linecap="round" stroke-linejoin="round"/><path d="M345.64,356.69s.35,5.66-4.03,8.36c-4.38,2.7-6.13-4.03-6.48-9.38-.35-5.35-2.62-1.33-6.48-4.76-3.85-3.43,3.15-10.82,3.15-10.82,0,0-9.8-.22-12.85,5.78-3.05,6-6.4,2.9-11.66,1.99-5.25-.92-4.9-7.77-2.2-13.73,2.7-5.96,1.32-15.2-1.83-15.15-1.23,7.4-4.55,5.96-7.99,12.76-3.44,6.79-7.24,7.46-8.47,15.85-1.22,8.39-4.55,10.32-12.04,8.67-7.49-1.65-3.71-5.03-1.14-12.24,2.57-7.21,0-13.31,0-13.31,0,0-4.85,4.92-9.26,10.67-4.41,5.74-7.49,16.08-14.85,15.52-7.35-.56-5.95-13.69,0-26.19,5.95-12.5,9.1-25.81,6.47-28.92-2.28,7.13-9.27,9.79-15.22,11.7-5.95,1.91-7.35,15.35-13.94,16.13s-8.12-18.93-6.49-25.73c-5.19,6.98-7.92,14.82-8.88,23.34-.96,8.52.26,14.19-5,19.97-5.25,5.78-11.76,14.96-5.54,26.8h147.86c4.56-9.29-3.16-17.31-3.16-17.31Z" fill="none" stroke="#000" stroke-linecap="round" stroke-linejoin="round"/><path d="M271,273v-17h-52.41l-21.14,15.44-14.36-7.58-19.26,12.03-28.37,4.46-10.51,16.04-5.96,3.15v74.45h116v-63h24v63h12v-82h59v82h9v-82h12v-19h-80ZM150,348h-17v-19h17v19ZM150,325h-17v-4h17v4ZM174,348h-22v-19h22v19ZM174,325h-22v-4h22v4ZM197,348h-22v-19h22v19ZM197,325h-22v-4h22v4ZM216,348h-17v-19h17v19ZM216,325h-17v-4h17v4Z" fill="none" stroke="#000" stroke-linecap="round" stroke-linejoin="round"/><polygon points="306.34 358.63 296.71 355.51 293.91 348.17 281.83 345.27 279.03 331.69 268 326.12 268 374 315.09 374 306.34 358.63" fill="none" stroke="#000" stroke-linecap="round" stroke-linejoin="round"/><path d="M120,312.63c.13.13.29.1.54-.25.08-.11.26-.22.37-.18,1.23.42,2.34-.33,3.49-.58,1.01-.21,2-.44,3.03-.3.44.06.88.2,1.08.67.89,2.05,2.5,3.3,3.47,5.22.62,1.22,1.31,2.36,1.67,3.78h.66c-.13-.59-.33-1.16-.6-1.75-1.01-2.22-2.33-4.08-3.69-5.92-.66-.89-.75-2.24-.23-3.26,1.2-2.36,2.45-4.62,4.66-5.62.17-.07.31-.26.44-.43.53-.7,1.14-.83,1.89-.69,1.1.2,2.21.13,3.24-.54.25-.16.53-.29.8-.13.61.36,1.09.17,1.67-.27.83-.64,1.43-.23,1.78,1.01.19.69.5,1.33.99,1.64.85.53,1.26,1.49,1.75,2.4.81,1.19,1.52,2.43,2,3.93.5,1.56,1.42,2.73,2.86,3.03.39.08.85.16,1.13.61.46.74.96.54,1.53.27.77-.35,1.55-.84,2.41-.35.87.49,1.8.52,2.71.64,1.38.17,2.74.33,4.02,1.16.81.52,1.76.7,2.7.72.88.02,1.75.16,2.62.25,2.36,1.04,4.75,1.97,7.01,3.33v-.02h.74c-.13-.09-.27-.16-.39-.26-2.27-1.77-4.85-2.42-7.33-3.43-.48-.52-1.07-.34-1.61-.35-1.21-.03-2.45-.05-3.53-.77-1.15-.77-2.35-1.02-3.6-1.18-1.2-.15-2.41-.19-3.56-.78-.23-.12-.61-.13-.85-.03-1.3.56-2.44.36-3.78-.3-1.44-.71-2.37-1.7-2.88-3.46-.39-1.35-1.03-2.49-1.93-3.37-.43-1.03-.85-2.05-1.05-3.22-.11-.63-.3-1.26-.7-1.75-.56-.69-.67-1.43-.2-2.32.3-.55.35-1.18-.25-1.96.11,1.57-.6,2.63-.5,3.98-.63-.06-1.08-.66-1.58-.36-1.44.88-3.07.45-4.52,1.15-.86.42-1.66-.36-2.46-.04-.66.27-.98-.08-1.28-.67.09,1.22-.3,2.05-1.26,2.46-.3.13-.57.38-.87.55-.86.51-1.59,1.17-1.99,2.32-.4,1.17-1.36,1.74-1.9,2.76-.18.33-.48.33-.75.32-1.88-.08-3.65.55-5.45,1.12-.82.26-1.68.46-2.52.18v1.02Z" fill="none" stroke="#000" stroke-linecap="round" stroke-linejoin="round"/><path d="M134.16,301.65c-.02-.27-.04-.56-.08-1.18-.1.67-.25,1.01.08,1.18Z" fill="none" stroke="#000" stroke-linecap="round" stroke-linejoin="round"/><path d="M134.16,301.72s.03-.04.03-.04c-.02,0-.02-.02-.04-.03,0,.02,0,.05,0,.07Z" fill="none" stroke="#000" stroke-linecap="round" stroke-linejoin="round"/><path d="M134.16,301.72s.02.04.03.06c0-.04,0-.06,0-.1l-.03.04Z" fill="none" stroke="#000" stroke-linecap="round" stroke-linejoin="round"/><path d="M215.77,370.4c.24-.71.25-1.45.12-2.2-.64.67,0,1.47-.12,2.2Z" fill="none" stroke="#000" stroke-linecap="round" stroke-linejoin="round"/><path d="M215.9,368.21s0-.01.02-.02c0-.01-.01-.02-.01-.04,0,0,0,.01,0,.02,0,.02,0,.03,0,.05Z" fill="none" stroke="#000" stroke-linecap="round" stroke-linejoin="round"/><path d="M197,322.74v1.25c.59-.69,1.28-1.27,1.96-1.83.01,0,.03,0,.04-.01v-.91c-.19.02-.38.09-.55.25-.47.44-.97.83-1.45,1.25Z" fill="none" stroke="#000" stroke-linecap="round" stroke-linejoin="round"/><path d="M193.53,328.53c1.25-.25,1.82-1.24,2.38-2.62.13-.33.31-.62.49-.91h-1.23c-.1.18-.2.37-.29.57-.5,1.14-2.4,2.08-3.39,1.8-.78-.22-1.04-.75-1.11-1.87-.01-.17-.03-.33-.04-.49h-.89c0,.55,0,1.1-.01,1.65-1.34.49-2.68,1.11-4.06.09-.18-.14-.44-.12-.66-.17-.74-.52-1.48-1.05-2.22-1.57h-1.28c.93.73,1.83,1.53,2.87,2.01.74.72,1.55,1.26,2.44,1.61.48.19.87.43,1.33-.27.27-.41.99-.66,1.18.45.02.09.04.14.07.2h3.76c.02-.33.44-.42.68-.47Z" fill="none" stroke="#000" stroke-linecap="round" stroke-linejoin="round"/><path d="M328.52,286.55c-.16-1.98-1.7-3.31-1.46-5.42-.88-.43-.26-.96.02-1.21,1.04-.91,1.23-2.13,1.26-3.68.03-1.16.36-2.22.8-3.24h-.89c-.48,1.07-.89,2.18-.96,3.5-.07,1.31-1.47,3.2-2.46,3.49-.78.23-1.19-.11-1.64-1.09-.61-1.33-1.29-2.6-1.95-3.9-.53-.61-1-1.29-1.43-2h-.92c.17.32.37.62.64.86,1.16,1.02,1.72,2.62,2.31,4.18.3.8.59,1.62.89,2.43-1.05,1.18-2.05,2.47-3.64,2.31-.21-.02-.44.13-.66.21-2.67-.21-5.33-.54-8.01-.08-.85.15-1.71.11-2.56,0-2.66-.36-5.22.46-7.82.9-.61-.22-1.08.28-1.58.56-1.11.64-2.25,1.3-3.47,1.24-1.31-.07-2.49.36-3.67.9-1.14.52-2.25,1.16-3.49,1.25-.26.02-.61.22-.8.45-.99,1.23-2.09,1.67-3.53,1.8-1.56.14-2.73-.25-3.81-1.58-.82-1.02-1.79-1.72-2.91-2.03-.71-.68-1.41-1.34-1.98-2.24-.34-.54-.72-1.1-1.29-1.34-.77-.32-1.14-.94-1.01-2.03.08-.67-.09-1.27-.9-1.66.64,1.38.36,2.74.91,3.92-.59.29-1.21-.01-1.56.55-1,1.6-2.64,2.11-3.71,3.55-.64.86-1.64.58-2.25,1.32-.5.61-.92.46-1.39.09.5,1.07.43,2.04-.3,2.95-.23.29-.39.66-.6.98-.61.94-1.04,1.95-1.01,3.23.04,1.29-.64,2.34-.78,3.58-.05.4-.32.57-.58.71-1.73.96-3.13,2.52-4.57,4.03-.81.85-1.7,1.66-2.86,1.64-.05.15-.09.29-.14.44.23.02.53-.06.68.09.38.37.65.6.84-.2.03-.15.16-.34.27-.37,1.26-.29,2.01-1.59,2.98-2.45.89-.79,1.77-1.6,2.83-2.03.37-.15.81-.1,1.12.17,1.49,1.32,3.36,1.6,4.87,2.8,1.31,1.04,2.7,1.87,3.56,3.84.42.95.79,1.88,1.05,2.84v-2.27c-.15-.25-.3-.49-.41-.77-.47-1.13-1.08-1.98-1.93-2.73-1.68-1.47-3.52-2.45-5.39-3.4-.9-.46-1.45-1.64-1.33-2.86.28-2.83.64-5.58,2.3-7.71.13-.16.19-.41.25-.63.24-.93.75-1.39,1.48-1.68,1.06-.42,2.05-1.09,2.76-2.27.17-.29.38-.56.68-.56.68,0,1.05-.44,1.42-1.16.54-1.04,1.23-1,1.97-.05.41.52.91.94,1.46.96.95.02,1.66.67,2.42,1.23,1.14.64,2.21,1.39,3.16,2.5.99,1.16,2.23,1.72,3.63,1.2.39-.14.83-.32,1.23-.06.67.43,1.05-.04,1.48-.6.52-.67,1-1.43,1.77-1.61s1.6-.33,2.34-.66c1.54-.68,3.01-1.51,4.7-1.45.92.03,1.83-.33,2.7-.83.8-.46,1.64-.82,2.47-1.22,3.12-.43,6.23-1.07,9.39-.71,1.48.17,2.95-.18,4.44-.05,1.33.12,2.66.5,4.01.34.91.25,1.83.29,2.75.12.5-.09.93-.08,1.11-.97.11-.52.68-1.14,1.22-.24.22.36.42.17.7-.03,1.01-.69,1.24-.59,1.72.59.17.43.31.87.61,1.18.71.72,1.06,1.77,1.07,2.79,0,1.32.26,2.56.4,3.83.04.33.07.66.1,1h1.43c-.08-1.84-.46-3.63-.61-5.45Z" fill="none" stroke="#000" stroke-linecap="round" stroke-linejoin="round"/><path d="M190.35,365c-.26.02-.41.15-.37.43.05.43.38.47.62.59.18.09.32-.1.26-.41-.07-.38-.2-.66-.51-.61Z" fill="none" stroke="#000" stroke-linecap="round" stroke-linejoin="round"/><path d="M217.73,366.09c.15-.07.52-.33.24-.82-.55.17-.91.75-1.37,1.09-.34.26-.62.34-.98-.02-1.28-1.29-2.84-2.07-3.96-3.66-.26-.37-.59-.73-1-.86-.56-.39-1.08-.93-1.68-1.14-1.01-.35-1.68-1.03-2.18-2.19-.37-.85-.89-1.61-1.71-1.86.9,1.3,1.44,3.02,2.61,3.95.91.72,1.95,1.19,2.93,1.77,1.09,1.4,2.26,2.68,3.63,3.61.73.5,1.38,1.1,1.64,2.17.47-.88,1-1.67,1.83-2.05Z" fill="none" stroke="#000" stroke-linecap="round" stroke-linejoin="round"/><path d="M183.07,369.2c.04.42.17.79.4.69.3-.13.49-.52.47-.98-.01-.25-.12-.44-.34-.43-.42.02-.54.35-.52.72Z" fill="none" stroke="#000" stroke-linecap="round" stroke-linejoin="round"/><path d="M270.36,313.78c-.45-.9-1.03-.73-1.53-.61-.98.25-1.97.31-2.96.48-.1.07-.12.16-.07.29,1.52.56,2.96-.58,4.56-.17Z" fill="none" stroke="#000" stroke-linecap="round" stroke-linejoin="round"/><path d="M339,297.11s-.06.02-.08.02c-2.5.8-4.89,1.96-7.18,3.46-.1.07-.15.27-.22.41-.07.07-.14.15-.22.21-1.02.87-.98.84-1.3-.75,0,0,0,0,0,0v3.33c.16-.2.31-.41.47-.61.83-1,1.8-1.83,2.7-2.74,1.88-.99,3.73-2.13,5.82-2.85v-.49Z" fill="none" stroke="#000" stroke-linecap="round" stroke-linejoin="round"/><path d="M336.35,314.85c-.23.16-.32.36-.19.59.19.36.51.22.75.19.19-.02.26-.26.1-.51-.19-.31-.4-.49-.66-.27Z" fill="none" stroke="#000" stroke-linecap="round" stroke-linejoin="round"/><path d="M265.87,313.66c-.52-.24-.92.16-1.66.34.76.39,1.16-.15,1.59-.04-.05-.13-.03-.22.07-.29Z" fill="none" stroke="#000" stroke-linecap="round" stroke-linejoin="round"/><path d="M331.79,323.03c.22-.28.27-.74.09-1.14-.1-.22-.25-.33-.46-.2-.37.25-.37.61-.23.94.17.36.42.61.59.41Z" fill="none" stroke="#000" stroke-linecap="round" stroke-linejoin="round"/><path d="M264.2,288.43c-.11-.23-.23-.49-.47-1.02.13.66.12,1.05.47,1.02Z" fill="none" stroke="#000" stroke-linecap="round" stroke-linejoin="round"/><path d="M264.22,288.49s.02-.05.02-.05c-.02,0-.03,0-.05,0,0,.02.02.04.03.06Z" fill="none" stroke="#000" stroke-linecap="round" stroke-linejoin="round"/><path d="M264.22,288.49s.03.02.05.04c-.01-.03-.02-.06-.03-.09l-.02.05Z" fill="none" stroke="#000" stroke-linecap="round" stroke-linejoin="round"/><path d="M264.21,374c2.21-1.07,4.47-1.99,6.79-2.68v-.69s-.04.03-.08.04c-.9.1-1.8.21-2.61.73-1.69,1.08-3.55,1.68-5.3,2.61h1.2Z" fill="none" stroke="#000" stroke-linecap="round" stroke-linejoin="round"/><path d="M271,331.36v-.35c-.06-.12-.12-.23-.18-.35.05.24.11.47.18.7Z" fill="none" stroke="#000" stroke-linecap="round" stroke-linejoin="round"/><path d="M270.19,314.09c.27.23.55.39.81.57v-.43c-.23-.05-.47-.24-.81-.14Z" fill="none" stroke="#000" stroke-linecap="round" stroke-linejoin="round"/><path d="M199.93,351.8c-.32-.58-.61-.63-.84-.69-2.56-.65-5.14-.92-7.74-.82-.11,0-.23.17-.34.26-.09.02-.18.06-.27.07-1.2.22-1.18.22-.95-1.26.07-.45.14-.9.21-1.35h-1.54c0,.28.02.56.05.83.16,1.49-.45,2.31-1.32,2.98-.31.24-.66.4-.98.65-.74.58-1.65,1-2.17,1.82-.84,1.33-1.94,1.84-3.08,2.48-1.31.73-2.79,1.16-3.69,2.78-.64,1.15-1.51,2.04-2.4,2.87-.51.48-.89,1.13-.95,1.97-.81,1.01-1.8,1.83-2.23,3.25-.47,1.55-.44,1.56-1.71,1.49-1.04-.06-2.04.15-2.96.82,1.09-.14,2.15-.42,3.25-.21.83.16.89.23.67,1.33-.14.71-.56,1.39-.18,2.24.25-1.01.51-1.94.72-2.88.42-1.93.95-3.77,2.29-5.01.17-.16.27-.46.4-.69,2.23-4.13,5.15-6.98,9.01-8.11.44.88.11,1.84.28,3.02.14-.96.13-1.61.16-2.23.05-1.03.3-1.85.91-2.42,1.45-1.35,3.07-2.32,4.76-3.02,1.1-.45,2.27-.67,3.4-1,2.35.15,4.72.07,7.22.84Z" fill="none" stroke="#000" stroke-linecap="round" stroke-linejoin="round"/><path d="M129.96,326.53c-.97-.31-1.89-.8-2.83-1.19-.11,0-.17.08-.16.22,1.18,1.34,2.87,1.09,4.17,2.34-.1-1.05-.69-1.23-1.18-1.38Z" fill="none" stroke="#000" stroke-linecap="round" stroke-linejoin="round"/><path d="M127.18,367.05c.5.22,1.09.06,1.64.08.46.02.95-.09,1.37.09,1.5.66,3.07.67,4.6,1.05,2.07.47,4.13.94,6.2,1.43.9.21,1.79.54,2.7.7,1,.18,1.69-1,2.63-1.15.26-.04.52-.23.77-.38.16-.1.29-.25.26-.58-.86.09-1.61.61-2.37,1.04-.65.37-1.42.44-2.14.25-2.29-.62-4.59-1.16-6.89-1.73-.58-.18-1.19-.2-1.77-.25-1.47-.13-2.87-.75-4.32-.94-1.32-.17-2.66-.01-3.95-.58-.51-.23-1.07-.04-1.43.33-1.42,1.46-3.16,2.29-4.48,3.96v.82c1.13-1.35,2.38-2.49,3.81-3.37,1.11-.69,2.1-1.32,3.38-.76Z" fill="none" stroke="#000" stroke-linecap="round" stroke-linejoin="round"/><path d="M215.77,372.22c-.17.65-.24,1.23-.24,1.78h.4c-.06-.55-.1-1.14-.16-1.78Z" fill="none" stroke="#000" stroke-linecap="round" stroke-linejoin="round"/><path d="M124.04,363.21c.03.95.35,1.1.87,1.22.83.19.81.29.79-.79-.6.47-1.12.3-1.66-.43Z" fill="none" stroke="#000" stroke-linecap="round" stroke-linejoin="round"/><path d="M127.13,325.34c-.39-.5-.88-.36-1.61-.61.56.76,1.09.5,1.45.83,0-.14.05-.22.16-.23Z" fill="none" stroke="#000" stroke-linecap="round" stroke-linejoin="round"/><path d="M224.11,319.57c-.35-.78,0-1.5-.46-2.12-.02.52-.1.94-.04,1.32.27,1.71-.31,3.1-.97,4.46-.5,1.03-.88,1.15-1.49.28-.8-1.15-1.82-1.75-2.87-2.32-1.32-.72-2.56-1.55-3.41-3.12-.23-.43-.51-.84-.94-.99-.44-.47-.93-1.13-.67-1.77.4-1,.16-1.83-.1-2.67-.24-.79-.01-1.5.29-1.99,1.3-2.12,2.87-3.67,5.15-3.58.85.04,1.71.07,2.52-.41-.1-.11-.2-.21-.3-.32-.87,0-1.74.03-2.61.19-.77.14-1.55.27-2.31-.09.05-.57-.35-.78-.57-1.12-.74-1.14-1.85-1.76-2.59-2.83-1.25-1.79-3.14-2.29-4.45-3.9-.02-.02-.07,0-.11.01.49,1.02,1.16,1.74,2.03,2.21.54.29,1.14.53,1.53,1.14,1.19,1.87,2.9,3,4.16,4.77,0,.36-.2.57-.41.61-1.63.32-2.13,2.17-2.88,3.6-.34.64-.42,1.58-.05,2.36.19.41.02.75.02,1.12,0,1.2-.79,1.57-1.25,2.31-.45.73-.84.84-1.5.72-1.3-.23-2.54-.05-3.55,1.31-.31.41-.83.69-1.37.82-.62.15-1.21.46-1.77.85-.33.23-.67.41-1.01.56h1.43c.47-.31.93-.64,1.42-.74.74-.15,1.41-.57,1.91-1.14.91-1.04,1.88-1.24,3-.74.66.29,1.21.16,1.7-.59.57-.87,1.29-1.02,2.07-.41,1.45,2.48,3.41,4,5.65,5.01.52.23.94.64,1.32,1.21.5.76,1.07,1.43,1.54,2.53.35-1.89,1.3-3.15,1.76-4.73.53-1.84,1.93-2.97,3.49-2.92.03-.44-.38-.63-.35-.98-1.05.52-1.98,1.41-2.98,2.08Z" fill="none" stroke="#000" stroke-linecap="round" stroke-linejoin="round"/><path d="M126.34,343.69c-.39,2.67.2,5.16.92,7.62-.82.18-1.43-.58-2.25-.37,1.17.84,1.51.96,2.97.97-1.13-2.67-1.34-5.46-1.64-8.23Z" fill="none" stroke="#000" stroke-linecap="round" stroke-linejoin="round"/><path d="M274.09,274.94c-.39.4-.53.97-.74,1.53.18.05.26.08.35.1.26.09.52.18.78.26-.02-.4.31-.87-.16-1.21-.1-.07-.09-.41-.12-.63.3-.38.61-.75,1.08-1.34-.76.23-1.08.62-1.19,1.29Z" fill="none" stroke="#000" stroke-linecap="round" stroke-linejoin="round"/><path d="M208.13,298.48c-.72-.93-1.73-1.11-2.61-1.63.72.93,1.62,1.42,2.61,1.63Z" fill="none" stroke="#000" stroke-linecap="round" stroke-linejoin="round"/><path d="M227.44,318.39l.02-.03s-.02,0-.02,0c0,.01,0,.02,0,.03Z" fill="none" stroke="#000" stroke-linecap="round" stroke-linejoin="round"/><path d="M208.13,298.48s.03.02.04.04c0,0,.02,0,.02,0,0,0,0-.01,0-.02-.02,0-.03-.01-.05-.01Z" fill="none" stroke="#000" stroke-linecap="round" stroke-linejoin="round"/><path d="M132,331.21v-.74c-.39.2-.27.84-.46,1.21.21-.11.35-.28.46-.47Z" fill="none" stroke="#000" stroke-linecap="round" stroke-linejoin="round"/><path d="M199.85,292.49s.01.01.02.02c.01,0,.02,0,.03,0,0-.01-.01-.02-.02-.03-.01,0-.03,0-.04,0Z" fill="none" stroke="#000" stroke-linecap="round" stroke-linejoin="round"/><path d="M199.91,292.52c.16.39.37.69.84.63-.27-.43-.52-.64-.84-.63Z" fill="none" stroke="#000" stroke-linecap="round" stroke-linejoin="round"/><path d="M170.47,273.56c2.39.74,4.81,1.34,7.23,1.99.76.2,1.42-.09,2.04-.63,2.62.01,5.24.32,7.85-.26.35-.08.69.1.88.48.5,1.01,1.19,1.92,1.43,3.1.19.92.54,2.08-.1,2.8-.53.59-.61,1.23-.72,1.96-.65.25-.64,1.13-.82,1.69-.64,2.08-.95,4.24.25,6.24-.13,2.19.13,4.21,1,6.2,1.35,3.09,1.39,6.34.15,9.56-.14.37-.27.74-.39,1.12-.24.76-.42,1.55-.71,2.28-.29.74-.05,1.62-.63,2.36-.4.51.57,1.25.4,2.07-.03.16-.03.36,0,.53.28,1.29-.14,2.68.43,3.94.29.64.45,1.32.54,2.01h.62s0-.05,0-.08c-.76-2.31-.94-4.78-1.2-7.23-.04-.42-.04-1.11.02-1.53.23-1.66.58-3.29,1.15-4.79.54-1.4.87-2.77.94-4.34.09-2.34-.08-4.55-1.11-6.55-.35-.7-.51-1.47-.7-2.26-.28-1.14,0-2.35-.39-3.44-.64-2.36-.67-4.63.56-6.74.1-.17.12-.43.18-.64.27-.73.63-1,1.17-.36.73,1.43,1.32,3.01,2.61,3.83-1.03-1.18-1.37-2.96-2.31-4.21-.23-.45-.45-.87-.13-1.44.25-.44.16-.98.18-1.51.05-1.54-.58-2.72-1.17-3.91-.43-.86-.54-1.92-.32-2.9.4-1.77.8-3.52,1.45-5.14l-.81-.43c-.63,1.52-1.02,3.18-1.41,4.81-.29,1.25-.75,1.92-1.74,2.02-.32.03-.63.13-.95.18-2.05.37-4.11.11-6.17.29-.86.13-1.7.44-2.57.21-2.28-.6-4.56-1.19-6.82-1.84-.28-.08-.56-.14-.84-.21l-.57.35c.5.11,1,.24,1.51.4Z" fill="none" stroke="#000" stroke-linecap="round" stroke-linejoin="round"/><path d="M196.54,289.29s.02.02.03.04c0,0,.01,0,.02.01,0-.02,0-.03,0-.04-.02,0-.03,0-.05,0Z" fill="none" stroke="#000" stroke-linecap="round" stroke-linejoin="round"/><path d="M194.02,287.49c1.64,1.6,1.68,1.63,2.52,1.79-.58-1-1.4-1.46-2.52-1.79Z" fill="none" stroke="#000" stroke-linecap="round" stroke-linejoin="round"/><path d="M149.15,294.38c-.76-.2-1.18-.03-1.51.52-.48.15-.8.58-1.18.97.14.14.21.21.28.28.21.22.41.44.61.67.12-.38.57-.62.26-1.18-.07-.12.06-.42.1-.63.4-.17.8-.35,1.43-.62Z" fill="none" stroke="#000" stroke-linecap="round" stroke-linejoin="round"/><path d="M132,329.56v-.65c-.17-.18-.33-.44-.64-.52.21.44.45.8.64,1.17Z" fill="none" stroke="#000" stroke-linecap="round" stroke-linejoin="round"/><path d="M136.05,326.12c.3.16.53.09.58-.44-.45-.23-.9-.45-1.35-.68h-1.18c.65.38,1.3.76,1.95,1.12Z" fill="none" stroke="#000" stroke-linecap="round" stroke-linejoin="round"/><path d="M196.7,289.92c.83.87,1.59,1.85,2.53,2.51.19.13.41.13.62.06-1.04-1.14-2.06-2.3-3.27-3.16-.05.22-.02.44.12.59Z" fill="none" stroke="#000" stroke-linecap="round" stroke-linejoin="round"/><path d="M137.05,325.86c1.34,1.6,2.91.99,4.45.72-1.5.07-2.96-.3-4.45-.72Z" fill="none" stroke="#000" stroke-linecap="round" stroke-linejoin="round"/><path d="M133.95,325h-.57c-.05,1.4-.28,2.73-.88,4h.46c.54-1.23.99-2.5.98-4Z" fill="none" stroke="#000" stroke-linecap="round" stroke-linejoin="round"/><path d="M247,166.57s-.19-.07-.45-.23c-.13-.08-.3-.17-.46-.3-.17-.11-.35-.29-.54-.41-.19-.11-.38-.22-.56-.34-.18-.13-.37-.27-.56-.41-.21-.16-.39-.32-.59-.52-.22-.19-.41-.42-.62-.64-.2-.25-.42-.54-.6-.83-.19-.26-.36-.65-.51-.98-.15-.34-.28-.68-.35-1.05-.08-.37-.13-.71-.16-1.03-.05-.31.02-.63.04-.89.02-.26.07-.49.11-.68.08-.37.17-.57.17-.57,0,0,.18.12.43.32.12.1.27.22.41.35.15.13.28.29.47.42.18.13.35.27.51.42.15.16.35.29.53.45.18.16.33.32.54.52.2.19.37.39.57.62.2.25.4.5.58.77.19.27.37.61.52.91.16.29.29.65.4,1.01.11.35.19.69.25,1,.05.3.02.57.02.82,0,.24-.03.47-.04.66-.04.37-.09.61-.09.61Z" fill="none" stroke="#000" stroke-linecap="round" stroke-linejoin="round"/><path d="M108.93,179.88s-.19-.07-.45-.23c-.13-.08-.3-.17-.46-.3-.17-.11-.35-.29-.54-.41-.19-.11-.38-.22-.56-.34-.18-.13-.37-.27-.56-.41-.21-.16-.39-.32-.59-.52-.22-.19-.41-.42-.62-.64-.2-.25-.42-.54-.6-.83-.19-.26-.36-.65-.51-.98-.15-.34-.28-.68-.35-1.05-.08-.37-.13-.71-.16-1.03-.05-.31.02-.63.04-.89.02-.26.07-.49.11-.68.08-.37.17-.57.17-.57,0,0,.18.12.43.32.12.1.27.22.41.35.15.13.28.29.47.42.18.13.35.27.51.42.15.16.35.29.53.45.18.16.33.32.54.52.2.19.37.39.57.62.2.25.4.5.58.77.19.27.37.61.52.91.16.29.29.65.4,1.01.11.35.19.69.25,1,.05.3.02.57.02.82,0,.24-.03.47-.04.66-.04.37-.09.61-.09.61Z" fill="none" stroke="#000" stroke-linecap="round" stroke-linejoin="round"/><path d="M65.75,248.56s-.19-.07-.45-.23c-.13-.08-.3-.17-.46-.3-.17-.11-.35-.29-.54-.41-.19-.11-.38-.22-.56-.34-.18-.13-.37-.27-.56-.41-.21-.16-.39-.32-.59-.52-.22-.19-.41-.42-.62-.64-.2-.25-.42-.54-.6-.83-.19-.26-.36-.65-.51-.98-.15-.34-.28-.68-.35-1.05-.08-.37-.13-.71-.16-1.03-.05-.31.02-.63.04-.89.02-.26.07-.49.11-.68.08-.37.17-.57.17-.57,0,0,.18.12.43.32.12.1.27.22.41.35.15.13.28.29.47.42.18.13.35.27.51.42.15.16.35.29.53.45.18.16.33.32.54.52.2.19.37.39.57.62.2.25.4.5.58.77.19.27.37.61.52.91.16.29.29.65.4,1.01.11.35.19.69.25,1,.05.3.02.57.02.82,0,.24-.03.47-.04.66-.04.37-.09.61-.09.61Z" fill="none" stroke="#000" stroke-linecap="round" stroke-linejoin="round"/><path d="M235.51,69.14s-.19-.07-.45-.23c-.13-.08-.3-.17-.46-.3-.17-.11-.35-.29-.54-.41-.19-.11-.38-.22-.56-.34-.18-.13-.37-.27-.56-.41-.21-.16-.39-.32-.59-.52-.22-.19-.41-.42-.62-.64-.2-.25-.42-.54-.6-.83-.19-.26-.36-.65-.51-.98-.15-.34-.28-.68-.35-1.05-.08-.37-.13-.71-.16-1.03-.05-.31.02-.63.04-.89.02-.26.07-.49.11-.68.08-.37.17-.57.17-.57,0,0,.18.12.43.32.12.1.27.22.41.36.15.13.28.29.47.42.18.13.35.27.51.42.15.16.35.29.53.45.18.16.33.32.54.52.2.19.37.39.57.62.2.25.4.5.58.77.19.27.37.61.52.91.16.29.29.65.4,1.01.11.35.19.69.25,1,.05.3.02.57.02.82,0,.24-.03.47-.04.66-.04.37-.09.61-.09.61Z" fill="none" stroke="#000" stroke-linecap="round" stroke-linejoin="round"/><path d="M97.44,82.45s-.19-.07-.45-.23c-.13-.08-.3-.17-.46-.3-.17-.11-.35-.29-.54-.41-.19-.11-.38-.22-.56-.34-.18-.13-.37-.27-.56-.41-.21-.16-.39-.32-.59-.52-.22-.19-.41-.42-.62-.64-.2-.25-.42-.54-.6-.83-.19-.26-.36-.65-.51-.98-.15-.34-.28-.68-.35-1.05-.08-.37-.13-.71-.16-1.03-.05-.31.02-.63.04-.89.02-.26.07-.49.11-.68.08-.37.17-.57.17-.57,0,0,.18.12.43.32.12.1.27.22.41.35.15.13.28.29.47.42.18.13.35.27.51.42.15.16.35.29.53.45.18.16.33.32.54.52.2.19.37.39.57.62.2.25.4.5.58.77.19.27.37.61.52.91.16.29.29.65.4,1.01.11.35.19.69.25,1,.05.3.02.57.02.82,0,.24-.03.47-.04.66-.04.37-.09.61-.09.61Z" fill="none" stroke="#000" stroke-linecap="round" stroke-linejoin="round"/><path d="M235.89,284.97s-.12-.04-.3-.15c-.09-.05-.2-.11-.3-.2-.11-.07-.23-.19-.36-.27-.13-.07-.25-.14-.37-.22-.12-.09-.24-.18-.37-.27-.14-.1-.26-.21-.39-.35-.14-.13-.27-.28-.41-.43-.13-.17-.28-.35-.4-.55-.13-.17-.24-.43-.34-.65-.1-.23-.19-.45-.23-.7-.05-.24-.08-.47-.11-.68-.03-.2.01-.42.03-.59.01-.17.05-.33.08-.45.05-.24.11-.38.11-.38,0,0,.12.08.28.22.08.07.18.14.27.23.1.08.19.19.31.28.12.09.23.18.34.28.1.11.23.2.35.3.12.1.22.21.35.34.14.12.24.26.38.41.13.17.26.33.38.51.12.18.24.4.34.6.1.19.19.43.27.67.07.23.13.46.16.66.03.2.01.38.01.54,0,.16-.02.31-.03.43-.02.25-.06.4-.06.4Z" fill="none" stroke="#000" stroke-linecap="round" stroke-linejoin="round"/><path d="M70,373.16s8.62-3.53,8.16-7.77c-.46-4.24-1.29-9.55,2.11-12.16-.7,2.51.85,9.43,4.27,8.57,3.42-.86,2.6-4.23,3.2-7.88.6-3.65,1.64-5.27,3.5-7.6,1.86-2.34,2.24-3.67,1.46-7.31,3.64,2.27,5.3,6.68,3.31,11.07-1.99,4.4-.55,10.28,2.65,10.64,3.2.36,4.08-4.14,4.08-4.14,0,0,2.87,1.11,2.32,4.35-.55,3.24,2.21,6.39,4.97,5.24,2.76-1.15,4.97-4.24,7.73-2.42,2.76,1.83,5.49,3.09,6.06.28,2.55.98,2.48,3.81.92,5.84-1.57,2.03.79,3.71,3.98,4.13h-58.72v-.84Z" fill="none" stroke="#000" stroke-linecap="round" stroke-linejoin="round"/><path d="M341.21,330.54l.27-.5c.1-.2.09-.44-.05-.61-.28-.34-.77-.26-.95.09l-.26.5c-.18.34.03.79.47.83.22.02.43-.11.53-.3Z" fill="#434a54"/><path d="M339.64,330.28l8.91,4.68c.25.13.56.04.7-.22.13-.25.03-.56-.22-.7l-8.92-4.68c-.25-.13-.56-.04-.7.22-.13.25-.04.56.22.7Z" fill="#656d78"/><path d="M343.79,331.38l1.77-.77c.15-.06.32-.06.46.02l2.94,1.55c.08.04.15.1.2.18l1.62,2.58c.14.23.09.54-.15.7-.16.11-.38.1-.55,0l-6.34-3.33h0c-.25-.13-.35-.44-.21-.69.06-.11.16-.2.27-.24Z" fill="#a85d5d"/><path d="M355.59,341.67c.18.1.41.08.58-.05l1.36-1.09c.23-.18.27-.52.08-.75s-.52-.27-.75-.08l-1.36,1.09c-.23.18-.27.52-.08.75.05.06.1.11.17.14Z" fill="#ed5564"/><path d="M356.99,339.62c.15-.08.33-.08.49,0l1.39.73c.19.1.3.31.28.53l-.56,4.45c-.02.17-.13.32-.28.4-.15.08-.33.08-.49,0l-1.39-.73c-.19-.1-.3-.31-.28-.53l.56-4.45c.02-.17.13-.32.28-.4Z" fill="#965353"/><path d="M348.5,341.03c1.46-.47,2.61-1.19,3.33-2.09.52-.65.65-1.18.66-1.22.03-.2.17-.35.37-.41.14-.04.29-.02.41.05l1.87.98c.25.13.36.44.23.7-.06.13-1.57,3.21-5.61,4.67-.14.05-.3.04-.43-.03-.09-.05-.17-.12-.22-.22l-.92-1.68c-.08-.14-.09-.3-.03-.45.06-.15.18-.26.33-.31Z" fill="#434a54"/><path d="M360.58,338.87c.14-.04.3-.01.42.07l1.28.81,2.37.66.1.04,4.31,2.26c.26.14.36.46.22.72l-1.97,3.75c-.08.14-.21.24-.37.27-.12.02-.24,0-.34-.05-.04-.02-.07-.04-.1-.07l-6.92-6.03c-.19-.16-.24-.43-.12-.65l.8-1.52c.07-.13.19-.23.33-.27Z" fill="#a85d5d"/><path d="M348.81,336.24l10.48,5.51c.12.07.27.08.41.04s.25-.14.31-.26l1-1.9c.09-.18.08-.39-.04-.56l-.69-.97c-.05-.07-.11-.12-.19-.16l-11.1-5.83c-.23-.12-.53-.06-.69.18-.07.1-.09.23-.08.36l.31,3.17c.02.18.12.34.28.42Z" fill="#656d78"/><path d="M357.76,337.46l-5.55-2.92c-.26-.13-.35-.45-.22-.71l6.48,3.4c-.13.26-.45.35-.71.22Z" fill="#434a54"/><path d="M341.21,330.54l.27-.5c.1-.2.09-.44-.05-.61-.28-.34-.77-.26-.95.09l-.26.5c-.18.34.03.79.47.83.22.02.43-.11.53-.3Z" fill="none" stroke="#000" stroke-linecap="round" stroke-linejoin="round"/><path d="M339.64,330.28l8.91,4.68c.25.13.56.04.7-.22.13-.25.03-.56-.22-.7l-8.92-4.68c-.25-.13-.56-.04-.7.22-.13.25-.04.56.22.7Z" fill="none" stroke="#000" stroke-linecap="round" stroke-linejoin="round"/><path d="M343.79,331.38l1.77-.77c.15-.06.32-.06.46.02l2.94,1.55c.08.04.15.1.2.18l1.62,2.58c.14.23.09.54-.15.7-.16.11-.38.1-.55,0l-6.34-3.33h0c-.25-.13-.35-.44-.21-.69.06-.11.16-.2.27-.24Z" fill="none" stroke="#000" stroke-linecap="round" stroke-linejoin="round"/><path d="M355.59,341.67c.18.1.41.08.58-.05l1.36-1.09c.23-.18.27-.52.08-.75s-.52-.27-.75-.08l-1.36,1.09c-.23.18-.27.52-.08.75.05.06.1.11.17.14Z" fill="none" stroke="#000" stroke-linecap="round" stroke-linejoin="round"/><path d="M356.99,339.62c.15-.08.33-.08.49,0l1.39.73c.19.1.3.31.28.53l-.56,4.45c-.02.17-.13.32-.28.4-.15.08-.33.08-.49,0l-1.39-.73c-.19-.1-.3-.31-.28-.53l.56-4.45c.02-.17.13-.32.28-.4Z" fill="none" stroke="#000" stroke-linecap="round" stroke-linejoin="round"/><path d="M348.5,341.03c1.46-.47,2.61-1.19,3.33-2.09.52-.65.65-1.18.66-1.22.03-.2.17-.35.37-.41.14-.04.29-.02.41.05l1.87.98c.25.13.36.44.23.7-.06.13-1.57,3.21-5.61,4.67-.14.05-.3.04-.43-.03-.09-.05-.17-.12-.22-.22l-.92-1.68c-.08-.14-.09-.3-.03-.45.06-.15.18-.26.33-.31Z" fill="none" stroke="#000" stroke-linecap="round" stroke-linejoin="round"/><path d="M360.58,338.87c.14-.04.3-.01.42.07l1.28.81,2.37.66.1.04,4.31,2.26c.26.14.36.46.22.72l-1.97,3.75c-.08.14-.21.24-.37.27-.12.02-.24,0-.34-.05-.04-.02-.07-.04-.1-.07l-6.92-6.03c-.19-.16-.24-.43-.12-.65l.8-1.52c.07-.13.19-.23.33-.27Z" fill="none" stroke="#000" stroke-linecap="round" stroke-linejoin="round"/><path d="M348.81,336.24l10.48,5.51c.12.07.27.08.41.04s.25-.14.31-.26l1-1.9c.09-.18.08-.39-.04-.56l-.69-.97c-.05-.07-.11-.12-.19-.16l-11.1-5.83c-.23-.12-.53-.06-.69.18-.07.1-.09.23-.08.36l.31,3.17c.02.18.12.34.28.42Z" fill="none" stroke="#000" stroke-linecap="round" stroke-linejoin="round"/><path d="M357.76,337.46l-5.55-2.92c-.26-.13-.35-.45-.22-.71l6.48,3.4c-.13.26-.45.35-.71.22Z" fill="none" stroke="#000" stroke-linecap="round" stroke-linejoin="round"/><g id="uuid-9116e8f5-22ac-49f6-a0f5-89713a3781c6"><polygon id="uuid-d2452c9a-292f-45a1-a8b6-ed4c966f25f3" points="298 413 289 413 289 428.82 289 432 303 432 303 429 298 429 298 413" fill="#5f5f5f"/><rect id="uuid-5b0b1c31-cdce-49ca-96fd-c9f2e67c7754" x="262" y="407" width="23" height="12" fill="#727272"/><polygon id="uuid-dde51864-9115-4f55-8430-cf0a8be1f9bb" points="270.67 414.52 268.4 405.65 252.56 409.71 251.42 405.27 248.25 406.08 251.66 419.39 254.85 418.57 254.85 418.57 270.67 414.52" fill="#5f5f5f"/><rect id="uuid-edf8d78e-297e-4fce-b89f-4b7f199b07b5" x="267.28" y="398.15" width="22.9" height="11.78" transform="translate(-171.15 207.72) rotate(-31.82)" fill="#727272"/><path id="uuid-3551241c-44c1-49dc-96fa-3146c5d155dc" d="M331,393h-46v26h46v-26Z" fill="#727272"/><rect id="uuid-a48ceb64-56e6-431a-a74f-b2123c79b64d" x="296" y="393" width="8" height="26" fill="#acacac"/><rect id="uuid-6ba2e874-09cd-4645-a570-c371a2322572" x="305" y="411" width="27" height="3" fill="#acacac"/><rect id="uuid-32444281-88f1-4f63-86dc-bc283683a9f1" x="305" y="397" width="27" height="3" fill="#acacac"/><rect id="uuid-4ef9ea10-84ae-482f-b450-cf9452d8c104" x="347.77" y="412.06" width="6.97" height="14.87" transform="translate(-126.76 685.68) rotate(-79.17)" fill="#727272"/><rect id="uuid-8cc39d06-22b9-4803-a7d8-9441e2e8d13b" x="333.17" y="409.27" width="6.97" height="14.87" transform="translate(-135.88 669.06) rotate(-79.17)" fill="#727272"/><rect id="uuid-2f65c149-c21f-4049-950b-5bfea4f00573" x="333.46" y="390.78" width="6.97" height="14.87" transform="translate(-170.92 517.3) rotate(-62.96)" fill="#727272"/><rect id="uuid-64d28482-8515-448c-85c0-2974b6b2b28f" x="346.71" y="397.54" width="6.97" height="14.87" transform="translate(-169.71 532.78) rotate(-62.96)" fill="#727272"/><rect id="uuid-df17ea8e-312a-4ed6-8351-0028858a15b6" x="358.65" y="417.9" width="7.44" height="7.44" transform="translate(-119.83 698.32) rotate(-79.17)" fill="#ccc"/><rect id="uuid-b5851c64-9dc0-4911-9e8b-71fcad67c5f1" x="356.42" y="406.33" width="7.44" height="7.44" transform="translate(-168.81 544.4) rotate(-62.96)" fill="#ccc"/><circle id="uuid-88370d4e-bc99-48ae-8d55-ea76d882093e" cx="309" cy="405" r="1" fill="#333"/><circle id="uuid-ebecea95-cadd-4849-9cc9-84bfee086e16" cx="313" cy="405" r="1" fill="#333"/><circle id="uuid-45af59b8-5e28-4214-a1c0-89fa64929baf" cx="317" cy="405" r="1" fill="#333"/><circle id="uuid-f0ed5018-477d-4792-a683-f5d3fe9f7329" cx="322" cy="406" r="1" fill="#333"/><polygon id="uuid-524a8186-d8c4-4284-be43-f76bd4a65a7a" points="298 413 289 413 289 428.82 289 432 303 432 303 429 298 429 298 413" fill="none" stroke="#000" stroke-linecap="round" stroke-linejoin="round"/><rect id="uuid-7460537f-9b75-4c85-80a2-78cc26139213" x="262" y="407" width="23" height="12" fill="none" stroke="#000" stroke-linecap="round" stroke-linejoin="round"/><polygon id="uuid-672a0521-924f-4862-9721-1c8382a006ca" points="270.67 414.52 268.4 405.65 252.56 409.71 251.42 405.27 248.25 406.08 251.66 419.39 254.85 418.57 254.85 418.57 270.67 414.52" fill="none" stroke="#000" stroke-linecap="round" stroke-linejoin="round"/><rect id="uuid-e756b7f5-de8f-4426-b127-8c8b77f372da" x="267.28" y="398.15" width="22.9" height="11.78" transform="translate(-171.15 207.72) rotate(-31.82)" fill="none" stroke="#000" stroke-linecap="round" stroke-linejoin="round"/><path id="uuid-173b39d6-223c-46b2-9022-f660e2c1311b" d="M331,393h-46v26h46v-26Z" fill="none" stroke="#000" stroke-linecap="round" stroke-linejoin="round"/><rect id="uuid-bb5af428-f000-434b-9cda-4db519be3095" x="296" y="393" width="8" height="26" fill="none" stroke="#000" stroke-linecap="round" stroke-linejoin="round"/><rect id="uuid-389470f1-9397-4aa3-912c-f4384f27057b" x="305" y="411" width="27" height="3" fill="none" stroke="#000" stroke-linecap="round" stroke-linejoin="round"/><rect id="uuid-c1cbe108-76c6-4e80-837c-3cc752fbfbf1" x="305" y="397" width="27" height="3" fill="none" stroke="#000" stroke-linecap="round" stroke-linejoin="round"/><rect id="uuid-9c6c0a6f-6eb7-4ce9-9be5-3c2018b30cfd" x="347.77" y="412.06" width="6.97" height="14.87" transform="translate(-126.76 685.68) rotate(-79.17)" fill="none" stroke="#000" stroke-linecap="round" stroke-linejoin="round"/><rect id="uuid-dea4af54-8aba-4668-b39c-f67d9e2a8593" x="333.17" y="409.27" width="6.97" height="14.87" transform="translate(-135.88 669.06) rotate(-79.17)" fill="none" stroke="#000" stroke-linecap="round" stroke-linejoin="round"/><rect id="uuid-3d14bd9b-5c19-42f9-90b2-31b43a69a282" x="333.46" y="390.78" width="6.97" height="14.87" transform="translate(-170.92 517.3) rotate(-62.96)" fill="none" stroke="#000" stroke-linecap="round" stroke-linejoin="round"/><rect id="uuid-11fd02d3-9a0c-4888-bfca-b815d8b1f46d" x="346.71" y="397.54" width="6.97" height="14.87" transform="translate(-169.71 532.78) rotate(-62.96)" fill="none" stroke="#000" stroke-linecap="round" stroke-linejoin="round"/><rect id="uuid-1f958eb0-1c0e-4f7e-9cca-dfc692e4a794" x="358.65" y="417.9" width="7.44" height="7.44" transform="translate(-119.83 698.32) rotate(-79.17)" fill="none" stroke="#000" stroke-linecap="round" stroke-linejoin="round"/><rect id="uuid-0c6203e6-3dab-4df7-a55e-ed0b55e46f28" x="356.42" y="406.33" width="7.44" height="7.44" transform="translate(-168.81 544.4) rotate(-62.96)" fill="none" stroke="#000" stroke-linecap="round" stroke-linejoin="round"/><circle id="uuid-f70bb3a3-a9e5-4474-aae9-97589f46d5d9" cx="309" cy="405" r="1" fill="none" stroke="#000" stroke-linecap="round" stroke-linejoin="round"/><circle id="uuid-8aa9ef63-516d-4656-99de-2f7497dc3080" cx="313" cy="405" r="1" fill="none" stroke="#000" stroke-linecap="round" stroke-linejoin="round"/><circle id="uuid-f2387d5d-9267-4a5a-8463-41d3876e2ad5" cx="317" cy="405" r="1" fill="none" stroke="#000" stroke-linecap="round" stroke-linejoin="round"/><circle id="uuid-31ca268b-2a41-4c6d-ad67-5543e7182561" cx="322" cy="406" r="1" fill="none" stroke="#000" stroke-linecap="round" stroke-linejoin="round"/></g><path d="M371.66,308.38c3.75-1.93,18.59-10.24,23.78-30.87,2.3-9.16,1.91-17.58,1.22-23.13" fill="none" stroke="#333" stroke-miterlimit="10" stroke-width="2"/><text transform="translate(332.7 237.88)" fill="#333" font-family="ComicNeue-Bold, &apos;Comic Neue&apos;" font-size="24" font-weight="700"><tspan x="0" y="0">What the...</tspan></text><g id="uuid-17a8c23f-9a02-4dc4-ad8f-6b3ed0d78d82"><polygon id="uuid-94106e77-458c-4a41-b5ba-94d85f748263" points="155.96 427.23 152.38 435.66 167.42 442.04 170.45 443.33 175.82 430.68 172.8 429.4 171.02 433.62 155.96 427.23" fill="#5f5f5f"/><rect id="uuid-ec31ea2e-92e2-40aa-b2f9-af723d00d97c" x="134" y="425" width="23" height="12" fill="#727272"/><polygon id="uuid-1783112a-b740-42bc-8f6d-eaec53ff87b0" points="91.92 424.25 99.07 418.52 88.84 405.76 92.42 402.89 90.37 400.34 79.65 408.93 81.71 411.5 81.71 411.5 91.92 424.25" fill="#5f5f5f"/><rect id="uuid-917897c3-443e-4e98-8ee6-d7f46b3fe6c7" x="97.16" y="413.95" width="11.78" height="22.9" transform="translate(-313.18 289.99) rotate(-58.36)" fill="#727272"/><path id="uuid-ef8340f1-3376-4d6f-b909-efb5a3e1fc02" d="M201,395h-46v26h46v-26Z" fill="#727272"/><rect id="uuid-1757fd20-e9f4-4139-9045-8d4db4a36273" x="167" y="395" width="8" height="26" fill="#acacac"/><rect id="uuid-c5b8a667-e528-457c-a6d0-0bea9ed8d49d" x="175" y="413" width="27" height="3" fill="#acacac"/><rect id="uuid-fb343fb8-9150-4ad6-bbb5-36817250e43b" x="175" y="399" width="27" height="3" fill="#acacac"/><rect id="uuid-1fabe793-9309-4cce-9349-ffdab5716258" x="198.15" y="421.98" width="14.87" height="6.97" transform="translate(-246.1 286.67) rotate(-47.13)" fill="#727272"/><rect id="uuid-3465f659-ca83-4287-99d9-fae1dfc13e79" x="203.18" y="411.3" width="6.97" height="14.87" transform="translate(-243.45 543.05) rotate(-79.17)" fill="#727272"/><rect id="uuid-edbedcc7-0a9b-430a-94d0-27493ba76ddb" x="188.81" y="388.9" width="6.97" height="14.87" transform="translate(-245.16 344.45) rotate(-57.35)" fill="#727272"/><rect id="uuid-7ce7e512-0eae-4fc7-b758-dfff708d6ae2" x="177.86" y="383.18" width="6.97" height="14.87" transform="translate(-222.7 539.64) rotate(-85.34)" fill="#727272"/><rect id="uuid-f456aff5-18ce-4c32-8faa-c94008106401" x="194.17" y="430.04" width="7.44" height="7.44" transform="translate(-254.64 283.68) rotate(-47.13)" fill="#ccc"/><rect id="uuid-e6ecf7b5-1ff9-4cf4-90b9-bfa3af1562b9" x="166.51" y="385.99" width="7.44" height="7.44" transform="translate(-232.02 527.73) rotate(-85.34)" fill="#ccc"/><circle id="uuid-cbb63f20-5929-40e4-a99d-fa0743e3046e" cx="179" cy="407" r="1" fill="#333"/><circle id="uuid-40411949-9e12-45a4-989e-05bac098be5f" cx="183" cy="407" r="1" fill="#333"/><circle id="uuid-b0725b0a-0984-4c37-8c79-9ffeee5ecb70" cx="187" cy="407" r="1" fill="#333"/><circle id="uuid-25b2ab94-5c69-4053-b21d-c6aaf4f84655" cx="192" cy="408" r="1" fill="#333"/><polygon id="uuid-63b49289-b043-4fba-b8f8-531b8ce68ca3" points="155.96 427.23 152.38 435.66 167.42 442.04 170.45 443.33 175.82 430.68 172.8 429.4 171.02 433.62 155.96 427.23" fill="none" stroke="#000" stroke-linecap="round" stroke-linejoin="round"/><rect id="uuid-79cac84f-2656-4f0b-9141-6a1c1ea4d406" x="134" y="425" width="23" height="12" fill="none" stroke="#000" stroke-linecap="round" stroke-linejoin="round"/><polygon id="uuid-3ee3e799-e420-4166-ab8c-fe7254e2f909" points="91.92 424.25 99.07 418.52 88.84 405.76 92.42 402.89 90.37 400.34 79.65 408.93 81.71 411.5 81.71 411.5 91.92 424.25" fill="none" stroke="#000" stroke-linecap="round" stroke-linejoin="round"/><rect id="uuid-1c39f3c9-2a59-4e97-9efe-b3da6bb4a9e0" x="97.16" y="413.95" width="11.78" height="22.9" transform="translate(-313.18 289.99) rotate(-58.36)" fill="none" stroke="#000" stroke-linecap="round" stroke-linejoin="round"/><path id="uuid-05b4b53e-4f2c-4d3e-9b29-e29a67f7b19a" d="M201,395h-46v26h46v-26Z" fill="none" stroke="#000" stroke-linecap="round" stroke-linejoin="round"/><rect id="uuid-c4e911fd-fb52-4bf0-9e14-a1281c1e502c" x="167" y="395" width="8" height="26" fill="none" stroke="#000" stroke-linecap="round" stroke-linejoin="round"/><rect id="uuid-4c36ccb6-01dd-4efa-8440-6edf9162c5d4" x="175" y="413" width="27" height="3" fill="none" stroke="#000" stroke-linecap="round" stroke-linejoin="round"/><rect id="uuid-3a07f57b-767e-447d-a9b1-b7ce808db663" x="175" y="399" width="27" height="3" fill="none" stroke="#000" stroke-linecap="round" stroke-linejoin="round"/><rect id="uuid-a35a954e-7b0c-49ce-ad70-2c195d7b06ea" x="198.15" y="421.98" width="14.87" height="6.97" transform="translate(-246.1 286.67) rotate(-47.13)" fill="none" stroke="#000" stroke-linecap="round" stroke-linejoin="round"/><rect id="uuid-cc67d607-06fe-44f0-a786-7be1ec6d0131" x="203.18" y="411.3" width="6.97" height="14.87" transform="translate(-243.45 543.05) rotate(-79.17)" fill="none" stroke="#000" stroke-linecap="round" stroke-linejoin="round"/><rect id="uuid-a2e879ac-e5f7-4a9d-bec0-f80f80d293d0" x="188.81" y="388.9" width="6.97" height="14.87" transform="translate(-245.16 344.45) rotate(-57.35)" fill="none" stroke="#000" stroke-linecap="round" stroke-linejoin="round"/><rect id="uuid-9242bf06-65fd-4ffc-8af3-607ed733671f" x="177.86" y="383.18" width="6.97" height="14.87" transform="translate(-222.7 539.64) rotate(-85.34)" fill="none" stroke="#000" stroke-linecap="round" stroke-linejoin="round"/><rect id="uuid-089cce73-8508-4537-b7dc-c53fb042c000" x="194.17" y="430.04" width="7.44" height="7.44" transform="translate(-254.64 283.68) rotate(-47.13)" fill="none" stroke="#000" stroke-linecap="round" stroke-linejoin="round"/><rect id="uuid-d0d64541-9b39-4d67-82e4-310c5ef85a90" x="166.51" y="385.99" width="7.44" height="7.44" transform="translate(-232.02 527.73) rotate(-85.34)" fill="none" stroke="#000" stroke-linecap="round" stroke-linejoin="round"/><circle id="uuid-63eb65e5-9d31-4846-8835-c5e211032ba5" cx="179" cy="407" r="1" fill="none" stroke="#000" stroke-linecap="round" stroke-linejoin="round"/><circle id="uuid-1e33c3bc-dbdf-477c-8f4e-39c130eadff0" cx="183" cy="407" r="1" fill="none" stroke="#000" stroke-linecap="round" stroke-linejoin="round"/><circle id="uuid-c341ac5d-464a-4432-8da7-cb20f3ae1925" cx="187" cy="407" r="1" fill="none" stroke="#000" stroke-linecap="round" stroke-linejoin="round"/><circle id="uuid-e72f560d-f584-427c-b403-822e110c8cfb" cx="192" cy="408" r="1" fill="none" stroke="#000" stroke-linecap="round" stroke-linejoin="round"/></g><g id="uuid-2f212944-949c-4db2-b45c-10422129a4d5"><path d="M352.12,396.62c-.3-1-1.3-4.61-3.48-7.54-1.39-1.86-3.99-3.89-6.09-4.52-4.05-1.21-8.4-.32-11.92,1.48-3.52,1.8-6.63,4.72-8.08,8.74-.75,2.08-.7,5.42-.05,7.66,1.02,3.52,3.28,6.48,3.9,7.32.83,1.15.97,2.82,1.48,4.13.56,1.42,1.73,2.15,3.24,2.32,1.27.14,2.54-.1,3.82-.15,1.52-.05,1.43,2.6,2.41,3.42.49.41,1.17.52,1.82.52.82,0,1.68-.19,2.3-.73-.09.08.53.55,1.07.6.49.04,1.08.04,1.56-.09.96-.25,1.65-1.01,2.05-1.55.22-.3.55-.47.92-.47.67,0,1.68-.11,2.45-.74.58-.47.96-1.16,1.13-1.87.08-.34.31-.62.63-.75.93-.4,2.13-1.48,2.05-3.16-.04-.93-.83-1.66-1-2.57-.29-1.55.87-2.56,1.62-3.73,1-1.55,1.37-2.91.76-4.25-.65-1.41-2.22-2.88-2.58-4.05Z" fill="#ccc"/><path d="M328.1,406.75c-.48-2.17.88-4.27,3.03-4.68s4.29,1,4.78,3.17-.88,4.27-3.03,4.68c-2.16.42-4.29-1-4.78-3.17Z" fill="#424242"/><ellipse cx="345" cy="399" rx="3.82" ry="4.17" transform="translate(-181.09 360.91) rotate(-45.01)" fill="#424242"/><path d="M339.66,409.46c-.59-1.2-1.1-4.66.09-5.27,1.2-.61,3.63,1.86,4.23,3.06,1.21,2.44-1.78,1.88-1.78,1.88,0,0-1.27,2.91-2.55.33Z" fill="#424242"/><path d="M340.32,419.88c-.35.1-.71.16-1.09.1.2-.17.4-.35.56-.56.39-.53.17-.94.03-1.52-.13-.51-.25-1.01-.36-1.52-.07-.34-.02-.73.31-.85.41-.14.59.11.73.57.13.42.94,3.23.94,3.23.04.13-.78.45-.86.47-.09.03-.17.06-.26.08Z" fill="#8abfd1"/><path d="M352.01,413.91c.29-.23.55-.48.72-.83-.26.06-.51.12-.78.12-.65,0-.85-.42-1.22-.88-.32-.4-.65-.81-.99-1.2-.23-.26-.57-.45-.86-.25-.36.25-.26.55.01.93.26.36,2,2.69,2,2.69.08.11.82-.37.89-.42.08-.05.15-.11.22-.16Z" fill="#8abfd1"/><path d="M345.53,418.92s.2-1.14-.06-1.72c-.46-1.03-1.08-2.42-1.47-3.21-.16-.31-.09-.65.23-.81s.59-.04.75.28c0,.01.99,1.81,1.62,3.09.29.59,1.38,1.12,1.38,1.12-.33.02-.92.02-1.39.29-.6.34-1.06.96-1.06.96Z" fill="#8abfd1"/><path d="M352.12,396.62c-.3-1-1.3-4.61-3.48-7.54-1.39-1.86-3.99-3.89-6.09-4.52-4.05-1.21-8.4-.32-11.92,1.48-3.52,1.8-6.63,4.72-8.08,8.74-.75,2.08-.7,5.42-.05,7.66,1.02,3.52,3.28,6.48,3.9,7.32.83,1.15.97,2.82,1.48,4.13.56,1.42,1.73,2.15,3.24,2.32,1.27.14,2.54-.1,3.82-.15,1.52-.05,1.43,2.6,2.41,3.42.49.41,1.17.52,1.82.52.82,0,1.68-.19,2.3-.73-.09.08.53.55,1.07.6.49.04,1.08.04,1.56-.09.96-.25,1.65-1.01,2.05-1.55.22-.3.55-.47.92-.47.67,0,1.68-.11,2.45-.74.58-.47.96-1.16,1.13-1.87.08-.34.31-.62.63-.75.93-.4,2.13-1.48,2.05-3.16-.04-.93-.83-1.66-1-2.57-.29-1.55.87-2.56,1.62-3.73,1-1.55,1.37-2.91.76-4.25-.65-1.41-2.22-2.88-2.58-4.05Z" fill="none" stroke="#000" stroke-linecap="round" stroke-linejoin="round"/><path d="M328.1,406.75c-.48-2.17.88-4.27,3.03-4.68s4.29,1,4.78,3.17-.88,4.27-3.03,4.68c-2.16.42-4.29-1-4.78-3.17Z" fill="none" stroke="#000" stroke-linecap="round" stroke-linejoin="round"/><ellipse cx="345" cy="399" rx="3.82" ry="4.17" transform="translate(-181.09 360.91) rotate(-45.01)" fill="none" stroke="#000" stroke-linecap="round" stroke-linejoin="round"/><path d="M339.66,409.46c-.59-1.2-1.1-4.66.09-5.27,1.2-.61,3.63,1.86,4.23,3.06,1.21,2.44-1.78,1.88-1.78,1.88,0,0-1.27,2.91-2.55.33Z" fill="none" stroke="#000" stroke-linecap="round" stroke-linejoin="round"/><path d="M340.32,419.88c-.35.1-.71.16-1.09.1.2-.17.4-.35.56-.56.39-.53.17-.94.03-1.52-.13-.51-.25-1.01-.36-1.52-.07-.34-.02-.73.31-.85.41-.14.59.11.73.57.13.42.94,3.23.94,3.23.04.13-.78.45-.86.47-.09.03-.17.06-.26.08Z" fill="none" stroke="#000" stroke-linecap="round" stroke-linejoin="round"/><path d="M352.01,413.91c.29-.23.55-.48.72-.83-.26.06-.51.12-.78.12-.65,0-.85-.42-1.22-.88-.32-.4-.65-.81-.99-1.2-.23-.26-.57-.45-.86-.25-.36.25-.26.55.01.93.26.36,2,2.69,2,2.69.08.11.82-.37.89-.42.08-.05.15-.11.22-.16Z" fill="none" stroke="#000" stroke-linecap="round" stroke-linejoin="round"/><path d="M345.53,418.92s.2-1.14-.06-1.72c-.46-1.03-1.08-2.42-1.47-3.21-.16-.31-.09-.65.23-.81s.59-.04.75.28c0,.01.99,1.81,1.62,3.09.29.59,1.38,1.12,1.38,1.12-.33.02-.92.02-1.39.29-.6.34-1.06.96-1.06.96Z" fill="none" stroke="#000" stroke-linecap="round" stroke-linejoin="round"/><path d="M352.12,396.62c-.3-1-1.3-4.61-3.48-7.54-1.39-1.86-3.99-3.89-6.09-4.52-4.05-1.21-8.4-.32-11.92,1.48-3.52,1.8-6.63,4.72-8.08,8.74-.75,2.08-.7,5.42-.05,7.66,1.02,3.52,3.28,6.48,3.9,7.32.83,1.15.97,2.82,1.48,4.13.56,1.42,1.73,2.15,3.24,2.32,1.27.14,2.54-.1,3.82-.15,1.52-.05,1.43,2.6,2.41,3.42.49.41,1.17.52,1.82.52.82,0,1.68-.19,2.3-.73-.09.08.53.55,1.07.6.49.04,1.08.04,1.56-.09.96-.25,1.65-1.01,2.05-1.55.22-.3.55-.47.92-.47.67,0,1.68-.11,2.45-.74.58-.47.96-1.16,1.13-1.87.08-.34.31-.62.63-.75.93-.4,2.13-1.48,2.05-3.16-.04-.93-.83-1.66-1-2.57-.29-1.55.87-2.56,1.62-3.73,1-1.55,1.37-2.91.76-4.25-.65-1.41-2.22-2.88-2.58-4.05Z" fill="none" stroke="#000" stroke-linecap="round" stroke-linejoin="round"/><path d="M328.1,406.75c-.48-2.17.88-4.27,3.03-4.68s4.29,1,4.78,3.17-.88,4.27-3.03,4.68c-2.16.42-4.29-1-4.78-3.17Z" fill="none" stroke="#000" stroke-linecap="round" stroke-linejoin="round"/><ellipse cx="345" cy="399" rx="3.82" ry="4.17" transform="translate(-181.09 360.91) rotate(-45.01)" fill="none" stroke="#000" stroke-linecap="round" stroke-linejoin="round"/><path d="M339.66,409.46c-.59-1.2-1.1-4.66.09-5.27,1.2-.61,3.63,1.86,4.23,3.06,1.21,2.44-1.78,1.88-1.78,1.88,0,0-1.27,2.91-2.55.33Z" fill="none" stroke="#000" stroke-linecap="round" stroke-linejoin="round"/><path d="M340.32,419.88c-.35.1-.71.16-1.09.1.2-.17.4-.35.56-.56.39-.53.17-.94.03-1.52-.13-.51-.25-1.01-.36-1.52-.07-.34-.02-.73.31-.85.41-.14.59.11.73.57.13.42.94,3.23.94,3.23.04.13-.78.45-.86.47-.09.03-.17.06-.26.08Z" fill="none" stroke="#000" stroke-linecap="round" stroke-linejoin="round"/><path d="M352.01,413.91c.29-.23.55-.48.72-.83-.26.06-.51.12-.78.12-.65,0-.85-.42-1.22-.88-.32-.4-.65-.81-.99-1.2-.23-.26-.57-.45-.86-.25-.36.25-.26.55.01.93.26.36,2,2.69,2,2.69.08.11.82-.37.89-.42.08-.05.15-.11.22-.16Z" fill="none" stroke="#000" stroke-linecap="round" stroke-linejoin="round"/><path d="M345.53,418.92s.2-1.14-.06-1.72c-.46-1.03-1.08-2.42-1.47-3.21-.16-.31-.09-.65.23-.81s.59-.04.75.28c0,.01.99,1.81,1.62,3.09.29.59,1.38,1.12,1.38,1.12-.33.02-.92.02-1.39.29-.6.34-1.06.96-1.06.96Z" fill="none" stroke="#000" stroke-linecap="round" stroke-linejoin="round"/></g></svg>