<?xml version="1.0" encoding="UTF-8"?><svg id="uuid-8d14e1cb-aef1-41fc-b192-5d14a0c3298e" xmlns="http://www.w3.org/2000/svg" viewBox="0 0 500 500"><polygon points="187 261.22 215.1 233 238 233 238 275 267 275 267 200 290 200 290 296.26 302.5 303.5 308.13 323.47 316.16 331.47 330 377.12 330 404 187 404 187 261.22" fill="#291612"/><polygon points="341 362 326.03 362 318.97 374.4 311.9 388 287.79 388 275.65 377.28 267.34 355.56 241.14 347.35 228.37 305.39 186.2 293 160 293 160 381.64 146.62 387.82 141.53 420 341 420 341 362" fill="#351d19"/><path d="M198.25,313.23c-3.9,2.98-3.99,3.04-6,3.35,1.38-1.86,3.32-2.73,6-3.35Z" fill="#452a25"/><path d="M192.25,316.57s-.05.05-.07.08c-.01,0-.02.02-.04.02,0-.03,0-.05,0-.08.04,0,.07-.01.11-.02Z" fill="#452a25"/><path d="M164.51,333.8c-.16.25-.34.47-.51.7v-.51c.08-.07.17-.13.25-.21.04-.04.16,0,.26.02Z" fill="#452a25"/><path d="M204.94,412.22c-1.47-3.31-2.05-6.9-3.25-10.27-1.22-3.46.98-7.21-1.2-10.48,1.51-1.6-.2-1.85-1.01-1.98-2.93-.46-4.27-2.29-5.58-4.83-1.55-3.02-4.58-4.86-7.41-6.69-.32-.21-.87-.2-1.27-.11-3.19.73-5.98-.52-8.77-1.77-1.49-.66-2.93-1.67-4.48-1.88-1.75-.24-3.17-.96-4.34-2.04-1.16-1.06-2.36-1.66-3.64-1.86v-1.39c1.82.22,3.52.94,5.01,2.52.67.71,1.79,1.2,2.94,1.46,1.56.36,3.09.88,4.5,1.64,2.68,1.46,5.45,2.12,8.48,1.67.97-.14,2.01-.21,2.86.41,3.04,2.23,6.56,3.86,8.54,7.4,1.18,2.11,5.64,3.83,7.95,3.31,1.82-.4,2.43-1.39,2.61-3.46.24-2.82.67-5.62,1.02-8.44,1.81-4.35,2.25-8.99,2.86-13.6.12-.89.12-1.8-.03-2.69-.55-3.12-1.38-6.2-2.75-9.02-1.27-2.61-2.08-5.17-2.22-8.1-.21-4.37.2-8.49,2.63-12.23.84-1.3,1.21-2.75,1.67-4.22.66-2.13,0-4.39.92-6.43,1.53-4.41,1.59-8.65-1.32-12.59-.24-.33-.28-.8-.42-1.2-.65-1.37-1.51-1.88-2.77-.68-1.73,2.67-3.15,5.61-6.19,7.15,2.44-2.2,3.26-5.53,5.49-7.86.55-.84,1.08-1.63.3-2.68-.66-.9-.32-2.04-.44-3.11l.05-.04,1.69.51c-.04.86.15,1.67.87,2.3,1.25,1.1,1.45,2.29,1.71,3.65,1.54.48,1.53,2.11,1.94,3.17,1.52,3.89,2.25,7.91-.6,11.65.31,4.09-.32,7.87-2.38,11.57-3.22,5.77-3.31,11.84-.36,17.85.34.69.65,1.39.94,2.09.57,1.42,1.01,2.89,1.68,4.26.68,1.39.13,3.03,1.49,4.41.94.95-1.36,2.33-.96,3.87.08.31.07.67-.02.98-.67,2.4.33,5-1.03,7.36-1.64,2.85-1.56,6.08-1.57,9.25,0,1.64.02,3.28.04,4.92,3.15.91,6.29,2.04,9.51.17.43-.25,1.03-.22,1.55-.32,5.11-2.84,10.13-5.85,15.68-7.8,2.24-.79,4.5-1.7,6.51-2.94,5.35-3.3,11.43-4.51,17.27-6.4,1.13-.98,2.51-.63,3.78-.66,2.85-.06,5.78-.1,8.3-1.44.34-.18.69-.31,1.04-.46l.4,1.06c-.32.14-.64.23-.95.39-1.91.98-4.14,1.3-6.36,1.34-2.06.04-4.12.3-6.18.46-6.93,2.42-14,4.5-20.4,8.27-3,1.77-6.38,2.67-9.42,4.4-2.72,1.55-5.22,3.51-8.2,4.6-1.73,1.33-3.63,2.32-5.71,2.97-1.14.35-2.03.8-3.12-.49-.64-.76-2.33-1.21-2.78.83-.18.81-.75.7-1.5.67-2.68-.14-3.09.28-3.16,2.71-.03.88.03,1.77-.36,2.58-.93,1.9-.85,4-.05,5.71,1.03,2.19,1.49,4.51,2.19,6.76,1.18,3.8,3.04,7.48,2.94,11.58h-3.27s-.02-.01-.02-.02c-.3-2.7-.77-5.3-1.86-7.76Z" fill="#452a25"/><path d="M164.72,333.75s-.06.04-.09.07c-.02,0-.04,0-.06-.01,0,0,.01-.02.02-.03.04,0,.08-.02.12-.03Z" fill="#452a25"/><path d="M164.72,333.75c1.72-1.74,4.12-2.07,6.2-3.04-1.72,1.74-3.84,2.64-6.2,3.04Z" fill="#452a25"/><path d="M182.25,323.79c.65-.8,1.23-1.19,2.01-1.18-.39.72-.87,1.29-2.01,1.18Z" fill="#452a25"/><path d="M215.04,411.38c.19-.46.62-1.02,1.18-.61.47.34.36.98.08,1.48-.28.5-.78.7-1.53.8-.28-.76.08-1.22.27-1.67Z" fill="#452a25"/><path d="M323.01,386.21c3.57.12,7.03-.56,10.58-1.34-3.18,2.98-6.91,1.85-10.58,1.34Z" fill="#452a25"/><path d="M212.14,417.6c.31.79.33,1.6.27,2.4h-.46c0-.8.23-1.6.19-2.4Z" fill="#452a25"/><path d="M184.25,322.61s.02-.04.04-.06c.03,0,.06,0,.09.01-.01.01-.03.02-.05.04-.03,0-.05,0-.08,0Z" fill="#452a25"/><path d="M191.86,317.77c-1.96,1.62-3.77,3.45-6.02,4.69-.45.25-.96.24-1.46.1,2.46-2.13,4.9-4.29,7.76-5.89.11.42.05.83-.28,1.09Z" fill="#452a25"/><path d="M335.65,385.04c-.7.3-1.27.16-1.37-.81,1.88-.74,3.77-1.49,5.66-2.23.21-1.07.57-2.13.61-3.2.04-1.04.2-2.01.45-2.96v9.92c-.24-.94-.38-1.92-.35-2.96-1.67.75-3.32,1.53-5,2.25Z" fill="#452a25"/><polygon points="187 261.22 215.1 233 238 233 238 275 267 275 267 200 290 200 290 296.26 302.5 303.5 308.13 323.47 316.16 331.47 330 377.12 330 404 187 404 187 261.22" fill="none" stroke="#000" stroke-linecap="round" stroke-linejoin="round"/><polygon points="341 362 326.03 362 318.97 374.4 311.9 388 287.79 388 275.65 377.28 267.34 355.56 241.14 347.35 228.37 305.39 186.2 293 160 293 160 381.64 146.62 387.82 141.53 420 341 420 341 362" fill="none" stroke="#000" stroke-linecap="round" stroke-linejoin="round"/><path d="M198.25,313.23c-3.9,2.98-3.99,3.04-6,3.35,1.38-1.86,3.32-2.73,6-3.35Z" fill="none" stroke="#000" stroke-linecap="round" stroke-linejoin="round"/><path d="M192.25,316.57s-.05.05-.07.08c-.01,0-.02.02-.04.02,0-.03,0-.05,0-.08.04,0,.07-.01.11-.02Z" fill="none" stroke="#000" stroke-linecap="round" stroke-linejoin="round"/><path d="M164.51,333.8c-.16.25-.34.47-.51.7v-.51c.08-.07.17-.13.25-.21.04-.04.16,0,.26.02Z" fill="none" stroke="#000" stroke-linecap="round" stroke-linejoin="round"/><path d="M204.94,412.22c-1.47-3.31-2.05-6.9-3.25-10.27-1.22-3.46.98-7.21-1.2-10.48,1.51-1.6-.2-1.85-1.01-1.98-2.93-.46-4.27-2.29-5.58-4.83-1.55-3.02-4.58-4.86-7.41-6.69-.32-.21-.87-.2-1.27-.11-3.19.73-5.98-.52-8.77-1.77-1.49-.66-2.93-1.67-4.48-1.88-1.75-.24-3.17-.96-4.34-2.04-1.16-1.06-2.36-1.66-3.64-1.86v-1.39c1.82.22,3.52.94,5.01,2.52.67.71,1.79,1.2,2.94,1.46,1.56.36,3.09.88,4.5,1.64,2.68,1.46,5.45,2.12,8.48,1.67.97-.14,2.01-.21,2.86.41,3.04,2.23,6.56,3.86,8.54,7.4,1.18,2.11,5.64,3.83,7.95,3.31,1.82-.4,2.43-1.39,2.61-3.46.24-2.82.67-5.62,1.02-8.44,1.81-4.35,2.25-8.99,2.86-13.6.12-.89.12-1.8-.03-2.69-.55-3.12-1.38-6.2-2.75-9.02-1.27-2.61-2.08-5.17-2.22-8.1-.21-4.37.2-8.49,2.63-12.23.84-1.3,1.21-2.75,1.67-4.22.66-2.13,0-4.39.92-6.43,1.53-4.41,1.59-8.65-1.32-12.59-.24-.33-.28-.8-.42-1.2-.65-1.37-1.51-1.88-2.77-.68-1.73,2.67-3.15,5.61-6.19,7.15,2.44-2.2,3.26-5.53,5.49-7.86.55-.84,1.08-1.63.3-2.68-.66-.9-.32-2.04-.44-3.11l.05-.04,1.69.51c-.04.86.15,1.67.87,2.3,1.25,1.1,1.45,2.29,1.71,3.65,1.54.48,1.53,2.11,1.94,3.17,1.52,3.89,2.25,7.91-.6,11.65.31,4.09-.32,7.87-2.38,11.57-3.22,5.77-3.31,11.84-.36,17.85.34.69.65,1.39.94,2.09.57,1.42,1.01,2.89,1.68,4.26.68,1.39.13,3.03,1.49,4.41.94.95-1.36,2.33-.96,3.87.08.31.07.67-.02.98-.67,2.4.33,5-1.03,7.36-1.64,2.85-1.56,6.08-1.57,9.25,0,1.64.02,3.28.04,4.92,3.15.91,6.29,2.04,9.51.17.43-.25,1.03-.22,1.55-.32,5.11-2.84,10.13-5.85,15.68-7.8,2.24-.79,4.5-1.7,6.51-2.94,5.35-3.3,11.43-4.51,17.27-6.4,1.13-.98,2.51-.63,3.78-.66,2.85-.06,5.78-.1,8.3-1.44.34-.18.69-.31,1.04-.46l.4,1.06c-.32.14-.64.23-.95.39-1.91.98-4.14,1.3-6.36,1.34-2.06.04-4.12.3-6.18.46-6.93,2.42-14,4.5-20.4,8.27-3,1.77-6.38,2.67-9.42,4.4-2.72,1.55-5.22,3.51-8.2,4.6-1.73,1.33-3.63,2.32-5.71,2.97-1.14.35-2.03.8-3.12-.49-.64-.76-2.33-1.21-2.78.83-.18.81-.75.7-1.5.67-2.68-.14-3.09.28-3.16,2.71-.03.88.03,1.77-.36,2.58-.93,1.9-.85,4-.05,5.71,1.03,2.19,1.49,4.51,2.19,6.76,1.18,3.8,3.04,7.48,2.94,11.58h-3.27s-.02-.01-.02-.02c-.3-2.7-.77-5.3-1.86-7.76Z" fill="none" stroke="#000" stroke-linecap="round" stroke-linejoin="round"/><path d="M164.72,333.75s-.06.04-.09.07c-.02,0-.04,0-.06-.01,0,0,.01-.02.02-.03.04,0,.08-.02.12-.03Z" fill="none" stroke="#000" stroke-linecap="round" stroke-linejoin="round"/><path d="M164.72,333.75c1.72-1.74,4.12-2.07,6.2-3.04-1.72,1.74-3.84,2.64-6.2,3.04Z" fill="none" stroke="#000" stroke-linecap="round" stroke-linejoin="round"/><path d="M182.25,323.79c.65-.8,1.23-1.19,2.01-1.18-.39.72-.87,1.29-2.01,1.18Z" fill="none" stroke="#000" stroke-linecap="round" stroke-linejoin="round"/><path d="M215.04,411.38c.19-.46.62-1.02,1.18-.61.47.34.36.98.08,1.48-.28.5-.78.7-1.53.8-.28-.76.08-1.22.27-1.67Z" fill="none" stroke="#000" stroke-linecap="round" stroke-linejoin="round"/><path d="M323.01,386.21c3.57.12,7.03-.56,10.58-1.34-3.18,2.98-6.91,1.85-10.58,1.34Z" fill="none" stroke="#000" stroke-linecap="round" stroke-linejoin="round"/><path d="M212.14,417.6c.31.79.33,1.6.27,2.4h-.46c0-.8.23-1.6.19-2.4Z" fill="none" stroke="#000" stroke-linecap="round" stroke-linejoin="round"/><path d="M184.25,322.61s.02-.04.04-.06c.03,0,.06,0,.09.01-.01.01-.03.02-.05.04-.03,0-.05,0-.08,0Z" fill="none" stroke="#000" stroke-linecap="round" stroke-linejoin="round"/><path d="M191.86,317.77c-1.96,1.62-3.77,3.45-6.02,4.69-.45.25-.96.24-1.46.1,2.46-2.13,4.9-4.29,7.76-5.89.11.42.05.83-.28,1.09Z" fill="none" stroke="#000" stroke-linecap="round" stroke-linejoin="round"/><path d="M335.65,385.04c-.7.3-1.27.16-1.37-.81,1.88-.74,3.77-1.49,5.66-2.23.21-1.07.57-2.13.61-3.2.04-1.04.2-2.01.45-2.96v9.92c-.24-.94-.38-1.92-.35-2.96-1.67.75-3.32,1.53-5,2.25Z" fill="none" stroke="#000" stroke-linecap="round" stroke-linejoin="round"/><g id="uuid-54139c6c-80a1-4e2c-b8d6-1659af6e8d21"><path d="M224.43,358.44c-.24-.96-1.02-4.39-3.03-7.24-1.28-1.81-3.77-3.83-5.84-4.5-3.99-1.3-8.43-.64-12.08.92-3.65,1.55-6.96,4.18-8.66,7.91-.88,1.93-1.03,5.08-.52,7.21.81,3.36,2.9,6.24,3.47,7.06.76,1.12.8,2.7,1.24,3.95.48,1.36,1.6,2.1,3.12,2.31,1.26.18,2.56,0,3.85.02,1.53.01,1.28,2.51,2.21,3.31.47.41,1.15.54,1.8.56.83.03,1.7-.11,2.36-.6-.1.07.5.54,1.04.61.49.06,1.08.08,1.57-.02.98-.2,1.72-.88,2.15-1.38.24-.27.59-.42.95-.4.67.03,1.7-.04,2.51-.6.61-.42,1.04-1.05,1.25-1.72.1-.31.35-.57.68-.69.96-.34,2.24-1.31,2.26-2.89.02-.88-.73-1.6-.85-2.46-.2-1.47,1.03-2.38,1.86-3.45,1.1-1.43,1.56-2.69,1.02-3.97-.57-1.36-2.06-2.8-2.34-3.92Z" fill="#ccc"/><ellipse cx="204" cy="366" rx="4" ry="4" transform="translate(-198.98 251.21) rotate(-44.97)" fill="#424242"/><path d="M214.88,357.32c1.65-1.26,4.13-.92,5.55.76,1.41,1.67,1.22,4.05-.42,5.31-1.65,1.26-4.13.92-5.55-.76s-1.22-4.05.42-5.31Z" fill="#424242"/><path d="M211.11,370.05c-.52-1.15-.82-4.44.42-4.96,1.24-.53,3.54,1.9,4.06,3.06,1.07,2.34-1.9,1.7-1.9,1.7,0,0-1.45,2.69-2.58.21Z" fill="#424242"/><path d="M211.14,379.89c-.36.08-.72.12-1.1.05.21-.15.42-.31.6-.5.43-.48.23-.88.12-1.43-.1-.48-.19-.96-.27-1.45-.05-.33.03-.69.37-.79.43-.12.59.13.7.56.11.4.74,3.08.74,3.08.03.12-.81.39-.9.41-.09.03-.18.05-.27.07Z" fill="#8abfd1"/><path d="M223.25,374.73c.31-.2.58-.43.78-.75-.26.05-.52.09-.79.09-.66-.02-.83-.43-1.17-.88-.3-.39-.6-.79-.92-1.17-.21-.26-.55-.45-.85-.27-.38.22-.3.51-.05.88.23.35,1.84,2.61,1.84,2.61.07.1.85-.32.92-.36.08-.05.16-.09.23-.15Z" fill="#8abfd1"/><path d="M216.43,379.19s.27-1.07.05-1.62c-.4-.99-.94-2.33-1.28-3.09-.14-.3-.05-.62.28-.76s.6-.01.73.29c0,.01.88,1.75,1.44,2.97.26.57,1.32,1.11,1.32,1.11-.33,0-.92-.02-1.42.22-.62.3-1.12.87-1.12.87Z" fill="#8abfd1"/><path d="M224.43,358.44c-.24-.96-1.02-4.39-3.03-7.24-1.28-1.81-3.77-3.83-5.84-4.5-3.99-1.3-8.43-.64-12.08.92-3.65,1.55-6.96,4.18-8.66,7.91-.88,1.93-1.03,5.08-.52,7.21.81,3.36,2.9,6.24,3.47,7.06.76,1.12.8,2.7,1.24,3.95.48,1.36,1.6,2.1,3.12,2.31,1.26.18,2.56,0,3.85.02,1.53.01,1.28,2.51,2.21,3.31.47.41,1.15.54,1.8.56.83.03,1.7-.11,2.36-.6-.1.07.5.54,1.04.61.49.06,1.08.08,1.57-.02.98-.2,1.72-.88,2.15-1.38.24-.27.59-.42.95-.4.67.03,1.7-.04,2.51-.6.61-.42,1.04-1.05,1.25-1.72.1-.31.35-.57.68-.69.96-.34,2.24-1.31,2.26-2.89.02-.88-.73-1.6-.85-2.46-.2-1.47,1.03-2.38,1.86-3.45,1.1-1.43,1.56-2.69,1.02-3.97-.57-1.36-2.06-2.8-2.34-3.92Z" fill="none" stroke="#000" stroke-linecap="round" stroke-linejoin="round"/><ellipse cx="204" cy="366" rx="4" ry="4" transform="translate(-198.98 251.21) rotate(-44.97)" fill="none" stroke="#000" stroke-linecap="round" stroke-linejoin="round"/><path d="M214.88,357.32c1.65-1.26,4.13-.92,5.55.76,1.41,1.67,1.22,4.05-.42,5.31-1.65,1.26-4.13.92-5.55-.76s-1.22-4.05.42-5.31Z" fill="none" stroke="#000" stroke-linecap="round" stroke-linejoin="round"/><path d="M211.11,370.05c-.52-1.15-.82-4.44.42-4.96,1.24-.53,3.54,1.9,4.06,3.06,1.07,2.34-1.9,1.7-1.9,1.7,0,0-1.45,2.69-2.58.21Z" fill="none" stroke="#000" stroke-linecap="round" stroke-linejoin="round"/><path d="M211.14,379.89c-.36.08-.72.12-1.1.05.21-.15.42-.31.6-.5.43-.48.23-.88.12-1.43-.1-.48-.19-.96-.27-1.45-.05-.33.03-.69.37-.79.43-.12.59.13.7.56.11.4.74,3.08.74,3.08.03.12-.81.39-.9.41-.09.03-.18.05-.27.07Z" fill="none" stroke="#000" stroke-linecap="round" stroke-linejoin="round"/><path d="M223.25,374.73c.31-.2.58-.43.78-.75-.26.05-.52.09-.79.09-.66-.02-.83-.43-1.17-.88-.3-.39-.6-.79-.92-1.17-.21-.26-.55-.45-.85-.27-.38.22-.3.51-.05.88.23.35,1.84,2.61,1.84,2.61.07.1.85-.32.92-.36.08-.05.16-.09.23-.15Z" fill="none" stroke="#000" stroke-linecap="round" stroke-linejoin="round"/><path d="M216.43,379.19s.27-1.07.05-1.62c-.4-.99-.94-2.33-1.28-3.09-.14-.3-.05-.62.28-.76s.6-.01.73.29c0,.01.88,1.75,1.44,2.97.26.57,1.32,1.11,1.32,1.11-.33,0-.92-.02-1.42.22-.62.3-1.12.87-1.12.87Z" fill="none" stroke="#000" stroke-linecap="round" stroke-linejoin="round"/><path d="M224.43,358.44c-.24-.96-1.02-4.39-3.03-7.24-1.28-1.81-3.77-3.83-5.84-4.5-3.99-1.3-8.43-.64-12.08.92-3.65,1.55-6.96,4.18-8.66,7.91-.88,1.93-1.03,5.08-.52,7.21.81,3.36,2.9,6.24,3.47,7.06.76,1.12.8,2.7,1.24,3.95.48,1.36,1.6,2.1,3.12,2.31,1.26.18,2.56,0,3.85.02,1.53.01,1.28,2.51,2.21,3.31.47.41,1.15.54,1.8.56.83.03,1.7-.11,2.36-.6-.1.07.5.54,1.04.61.49.06,1.08.08,1.57-.02.98-.2,1.72-.88,2.15-1.38.24-.27.59-.42.95-.4.67.03,1.7-.04,2.51-.6.61-.42,1.04-1.05,1.25-1.72.1-.31.35-.57.68-.69.96-.34,2.24-1.31,2.26-2.89.02-.88-.73-1.6-.85-2.46-.2-1.47,1.03-2.38,1.86-3.45,1.1-1.43,1.56-2.69,1.02-3.97-.57-1.36-2.06-2.8-2.34-3.92Z" fill="none" stroke="#000" stroke-linecap="round" stroke-linejoin="round"/><ellipse cx="204" cy="366" rx="4" ry="4" transform="translate(-198.98 251.21) rotate(-44.97)" fill="none" stroke="#000" stroke-linecap="round" stroke-linejoin="round"/><path d="M214.88,357.32c1.65-1.26,4.13-.92,5.55.76,1.41,1.67,1.22,4.05-.42,5.31-1.65,1.26-4.13.92-5.55-.76s-1.22-4.05.42-5.31Z" fill="none" stroke="#000" stroke-linecap="round" stroke-linejoin="round"/><path d="M211.11,370.05c-.52-1.15-.82-4.44.42-4.96,1.24-.53,3.54,1.9,4.06,3.06,1.07,2.34-1.9,1.7-1.9,1.7,0,0-1.45,2.69-2.58.21Z" fill="none" stroke="#000" stroke-linecap="round" stroke-linejoin="round"/><path d="M211.14,379.89c-.36.08-.72.12-1.1.05.21-.15.42-.31.6-.5.43-.48.23-.88.12-1.43-.1-.48-.19-.96-.27-1.45-.05-.33.03-.69.37-.79.43-.12.59.13.7.56.11.4.74,3.08.74,3.08.03.12-.81.39-.9.41-.09.03-.18.05-.27.07Z" fill="none" stroke="#000" stroke-linecap="round" stroke-linejoin="round"/><path d="M223.25,374.73c.31-.2.58-.43.78-.75-.26.05-.52.09-.79.09-.66-.02-.83-.43-1.17-.88-.3-.39-.6-.79-.92-1.17-.21-.26-.55-.45-.85-.27-.38.22-.3.51-.05.88.23.35,1.84,2.61,1.84,2.61.07.1.85-.32.92-.36.08-.05.16-.09.23-.15Z" fill="none" stroke="#000" stroke-linecap="round" stroke-linejoin="round"/><path d="M216.43,379.19s.27-1.07.05-1.62c-.4-.99-.94-2.33-1.28-3.09-.14-.3-.05-.62.28-.76s.6-.01.73.29c0,.01.88,1.75,1.44,2.97.26.57,1.32,1.11,1.32,1.11-.33,0-.92-.02-1.42.22-.62.3-1.12.87-1.12.87Z" fill="none" stroke="#000" stroke-linecap="round" stroke-linejoin="round"/></g><g id="uuid-bb107c74-a621-4e1a-a3d5-650c2de9465b"><path d="M238.68,392.64c.45.92,1.97,4.27,4.55,6.78,1.64,1.6,4.5,3.17,6.64,3.46,4.14.56,8.26-.95,11.43-3.23,3.17-2.27,5.76-5.57,6.57-9.68.42-2.13-.15-5.35-1.12-7.42-1.53-3.26-4.2-5.78-4.92-6.51-.99-.99-1.38-2.59-2.08-3.78-.76-1.29-2.02-1.83-3.52-1.76-1.26.06-2.47.48-3.71.72-1.47.28-1.79-2.3-2.87-2.95-.54-.33-1.23-.33-1.86-.23-.8.13-1.61.43-2.14,1.06.08-.09-.6-.46-1.14-.42-.49.04-1.06.12-1.51.32-.9.39-1.46,1.22-1.76,1.81-.17.32-.47.54-.83.59-.66.1-1.63.36-2.28,1.09-.49.55-.77,1.27-.82,1.99-.02.34-.21.65-.5.83-.85.53-1.86,1.75-1.53,3.37.18.9,1.06,1.48,1.37,2.34.52,1.45-.46,2.61-1.01,3.86-.74,1.66-.9,3.03-.09,4.23.86,1.27,2.61,2.45,3.14,3.53Z" fill="#ccc"/><path d="M260.7,379.7c.84,2.09-.14,4.36-2.18,5.08s-4.38-.39-5.22-2.48.14-4.36,2.18-5.08c2.04-.72,4.38.39,5.22,2.48Z" fill="#424242"/><ellipse cx="245" cy="389" rx="3.82" ry="4.17" transform="translate(-203.28 287.05) rotate(-44.98)" fill="#424242"/><path d="M248.89,378.32c.76,1.07,1.79,4.35.71,5.12s-3.84-1.26-4.6-2.33c-1.55-2.18,1.45-2.09,1.45-2.09,0,0,.8-3,2.44-.7Z" fill="#424242"/><path d="M246.66,368.34c.33-.15.67-.26,1.05-.26-.17.2-.34.4-.46.62-.3.57-.02.94.21,1.48.2.47.4.94.59,1.42.12.32.13.71-.18.87-.38.2-.59-.02-.8-.44-.19-.39-1.41-2.98-1.41-2.99-.05-.12.7-.55.77-.59.08-.04.16-.08.24-.12Z" fill="#8abfd1"/><path d="M236.14,375.88c-.25.26-.46.55-.58.91.24-.1.48-.19.74-.24.64-.1.89.28,1.33.67.38.34.76.69,1.15,1.01.26.22.63.35.88.11.31-.3.17-.57-.15-.9-.3-.31-2.36-2.3-2.36-2.3-.09-.09-.74.48-.8.54-.07.06-.13.13-.19.19Z" fill="#8abfd1"/><path d="M241.71,370.05s-.02,1.13.32,1.65c.61.93,1.42,2.18,1.93,2.89.2.28.18.62-.1.82s-.57.13-.77-.15c0-.01-1.24-1.6-2.06-2.75-.38-.53-1.52-.88-1.52-.88.32-.06.89-.16,1.32-.49.53-.42.89-1.09.89-1.09Z" fill="#8abfd1"/><path d="M238.68,392.64c.45.92,1.97,4.27,4.55,6.78,1.64,1.6,4.5,3.17,6.64,3.46,4.14.56,8.26-.95,11.43-3.23,3.17-2.27,5.76-5.57,6.57-9.68.42-2.13-.15-5.35-1.12-7.42-1.53-3.26-4.2-5.78-4.92-6.51-.99-.99-1.38-2.59-2.08-3.78-.76-1.29-2.02-1.83-3.52-1.76-1.26.06-2.47.48-3.71.72-1.47.28-1.79-2.3-2.87-2.95-.54-.33-1.23-.33-1.86-.23-.8.13-1.61.43-2.14,1.06.08-.09-.6-.46-1.14-.42-.49.04-1.06.12-1.51.32-.9.39-1.46,1.22-1.76,1.81-.17.32-.47.54-.83.59-.66.1-1.63.36-2.28,1.09-.49.55-.77,1.27-.82,1.99-.02.34-.21.65-.5.83-.85.53-1.86,1.75-1.53,3.37.18.9,1.06,1.48,1.37,2.34.52,1.45-.46,2.61-1.01,3.86-.74,1.66-.9,3.03-.09,4.23.86,1.27,2.61,2.45,3.14,3.53Z" fill="none" stroke="#000" stroke-linecap="round" stroke-linejoin="round"/><path d="M260.7,379.7c.84,2.09-.14,4.36-2.18,5.08s-4.38-.39-5.22-2.48.14-4.36,2.18-5.08c2.04-.72,4.38.39,5.22,2.48Z" fill="none" stroke="#000" stroke-linecap="round" stroke-linejoin="round"/><ellipse cx="245" cy="389" rx="3.82" ry="4.17" transform="translate(-203.28 287.05) rotate(-44.98)" fill="none" stroke="#000" stroke-linecap="round" stroke-linejoin="round"/><path d="M248.89,378.32c.76,1.07,1.79,4.35.71,5.12s-3.84-1.26-4.6-2.33c-1.55-2.18,1.45-2.09,1.45-2.09,0,0,.8-3,2.44-.7Z" fill="none" stroke="#000" stroke-linecap="round" stroke-linejoin="round"/><path d="M246.66,368.34c.33-.15.67-.26,1.05-.26-.17.2-.34.4-.46.62-.3.57-.02.94.21,1.48.2.47.4.94.59,1.42.12.32.13.71-.18.87-.38.2-.59-.02-.8-.44-.19-.39-1.41-2.98-1.41-2.99-.05-.12.7-.55.77-.59.08-.04.16-.08.24-.12Z" fill="none" stroke="#000" stroke-linecap="round" stroke-linejoin="round"/><path d="M236.14,375.88c-.25.26-.46.55-.58.91.24-.1.48-.19.74-.24.64-.1.89.28,1.33.67.38.34.76.69,1.15,1.01.26.22.63.35.88.11.31-.3.17-.57-.15-.9-.3-.31-2.36-2.3-2.36-2.3-.09-.09-.74.48-.8.54-.07.06-.13.13-.19.19Z" fill="none" stroke="#000" stroke-linecap="round" stroke-linejoin="round"/><path d="M241.71,370.05s-.02,1.13.32,1.65c.61.93,1.42,2.18,1.93,2.89.2.28.18.62-.1.82s-.57.13-.77-.15c0-.01-1.24-1.6-2.06-2.75-.38-.53-1.52-.88-1.52-.88.32-.06.89-.16,1.32-.49.53-.42.89-1.09.89-1.09Z" fill="none" stroke="#000" stroke-linecap="round" stroke-linejoin="round"/><path d="M238.68,392.64c.45.92,1.97,4.27,4.55,6.78,1.64,1.6,4.5,3.17,6.64,3.46,4.14.56,8.26-.95,11.43-3.23,3.17-2.27,5.76-5.57,6.57-9.68.42-2.13-.15-5.35-1.12-7.42-1.53-3.26-4.2-5.78-4.92-6.51-.99-.99-1.38-2.59-2.08-3.78-.76-1.29-2.02-1.83-3.52-1.76-1.26.06-2.47.48-3.71.72-1.47.28-1.79-2.3-2.87-2.95-.54-.33-1.23-.33-1.86-.23-.8.13-1.61.43-2.14,1.06.08-.09-.6-.46-1.14-.42-.49.04-1.06.12-1.51.32-.9.39-1.46,1.22-1.76,1.81-.17.32-.47.54-.83.59-.66.1-1.63.36-2.28,1.09-.49.55-.77,1.27-.82,1.99-.02.34-.21.65-.5.83-.85.53-1.86,1.75-1.53,3.37.18.9,1.06,1.48,1.37,2.34.52,1.45-.46,2.61-1.01,3.86-.74,1.66-.9,3.03-.09,4.23.86,1.27,2.61,2.45,3.14,3.53Z" fill="none" stroke="#000" stroke-linecap="round" stroke-linejoin="round"/><path d="M260.7,379.7c.84,2.09-.14,4.36-2.18,5.08s-4.38-.39-5.22-2.48.14-4.36,2.18-5.08c2.04-.72,4.38.39,5.22,2.48Z" fill="none" stroke="#000" stroke-linecap="round" stroke-linejoin="round"/><ellipse cx="245" cy="389" rx="3.82" ry="4.17" transform="translate(-203.28 287.05) rotate(-44.98)" fill="none" stroke="#000" stroke-linecap="round" stroke-linejoin="round"/><path d="M248.89,378.32c.76,1.07,1.79,4.35.71,5.12s-3.84-1.26-4.6-2.33c-1.55-2.18,1.45-2.09,1.45-2.09,0,0,.8-3,2.44-.7Z" fill="none" stroke="#000" stroke-linecap="round" stroke-linejoin="round"/><path d="M246.66,368.34c.33-.15.67-.26,1.05-.26-.17.2-.34.4-.46.62-.3.57-.02.94.21,1.48.2.47.4.94.59,1.42.12.32.13.71-.18.87-.38.2-.59-.02-.8-.44-.19-.39-1.41-2.98-1.41-2.99-.05-.12.7-.55.77-.59.08-.04.16-.08.24-.12Z" fill="none" stroke="#000" stroke-linecap="round" stroke-linejoin="round"/><path d="M236.14,375.88c-.25.26-.46.55-.58.91.24-.1.48-.19.74-.24.64-.1.89.28,1.33.67.38.34.76.69,1.15,1.01.26.22.63.35.88.11.31-.3.17-.57-.15-.9-.3-.31-2.36-2.3-2.36-2.3-.09-.09-.74.48-.8.54-.07.06-.13.13-.19.19Z" fill="none" stroke="#000" stroke-linecap="round" stroke-linejoin="round"/><path d="M241.71,370.05s-.02,1.13.32,1.65c.61.93,1.42,2.18,1.93,2.89.2.28.18.62-.1.82s-.57.13-.77-.15c0-.01-1.24-1.6-2.06-2.75-.38-.53-1.52-.88-1.52-.88.32-.06.89-.16,1.32-.49.53-.42.89-1.09.89-1.09Z" fill="none" stroke="#000" stroke-linecap="round" stroke-linejoin="round"/></g><g id="uuid-0371cbfd-0656-4923-9684-2a090de9aaa6"><path d="M199.57,425.53c.84-.57,3.9-2.54,5.99-5.44,1.33-1.84,2.46-4.89,2.44-7.05-.04-4.18-2.12-8.04-4.79-10.87-2.68-2.82-6.28-4.93-10.42-5.16-2.15-.12-5.22.88-7.11,2.13-2.97,1.97-5.06,4.95-5.67,5.77-.83,1.11-2.34,1.72-3.4,2.58-1.16.94-1.5,2.25-1.22,3.73.24,1.24.83,2.38,1.23,3.57.48,1.42-2,2.09-2.48,3.25-.24.58-.15,1.26.04,1.87.24.78.65,1.54,1.34,1.97-.1-.07-.36.66-.25,1.18.1.48.27,1.03.53,1.45.51.83,1.41,1.28,2.03,1.5.34.12.6.39.7.74.19.64.59,1.56,1.39,2.11.61.41,1.35.58,2.06.53.33-.02.67.12.88.38.64.77,1.98,1.6,3.52,1.05.85-.31,1.3-1.25,2.1-1.68,1.35-.72,2.62.09,3.93.47,1.73.5,3.1.47,4.16-.49,1.12-1.02,2.03-2.92,3.01-3.59Z" fill="#ccc"/><path d="M184.2,405.56c1.97-1.13,4.38-.51,5.37,1.39s.2,4.35-1.77,5.48-4.38.51-5.37-1.39c-.99-1.9-.2-4.35,1.77-5.48Z" fill="#424242"/><path d="M197.21,416.51c1.84,1.08,2.35,3.51,1.13,5.44-1.22,1.93-3.7,2.62-5.54,1.54-1.84-1.08-2.35-3.51-1.13-5.44s3.7-2.62,5.54-1.54Z" fill="#424242"/><path d="M184.08,417.39c.94-.9,4.01-2.37,4.91-1.41s-.68,3.97-1.63,4.88c-1.91,1.84-2.25-1.15-2.25-1.15,0,0-3.06-.37-1.03-2.32Z" fill="#424242"/><path d="M174.62,420.98c-.2-.31-.35-.63-.4-1,.22.14.44.28.68.37.6.22.92-.11,1.42-.41.43-.26.86-.53,1.3-.78.3-.17.68-.22.88.06.25.35.06.59-.31.85-.35.24-2.72,1.81-2.72,1.81-.11.07-.64-.61-.69-.68-.05-.07-.1-.15-.15-.22Z" fill="#8abfd1"/><path d="M183.51,430.35c.29.21.61.38.97.45-.13-.22-.26-.45-.34-.7-.19-.62.15-.92.47-1.41.28-.42.56-.84.83-1.28.18-.29.25-.67-.02-.88-.34-.27-.58-.09-.86.28-.26.34-1.92,2.65-1.92,2.66-.07.1.58.67.64.72.07.06.14.11.22.16Z" fill="#8abfd1"/><path d="M177,425.64s1.11-.13,1.57-.54c.82-.73,1.93-1.71,2.55-2.31.25-.24.58-.27.82-.01s.21.55-.04.79c-.01.01-1.39,1.45-2.4,2.41-.46.44-.64,1.63-.64,1.63-.11-.31-.28-.86-.67-1.23-.49-.47-1.2-.73-1.2-.73Z" fill="#8abfd1"/><path d="M199.57,425.53c.84-.57,3.9-2.54,5.99-5.44,1.33-1.84,2.46-4.89,2.44-7.05-.04-4.18-2.12-8.04-4.79-10.87-2.68-2.82-6.28-4.93-10.42-5.16-2.15-.12-5.22.88-7.11,2.13-2.97,1.97-5.06,4.95-5.67,5.77-.83,1.11-2.34,1.72-3.4,2.58-1.16.94-1.5,2.25-1.22,3.73.24,1.24.83,2.38,1.23,3.57.48,1.42-2,2.09-2.48,3.25-.24.58-.15,1.26.04,1.87.24.78.65,1.54,1.34,1.97-.1-.07-.36.66-.25,1.18.1.48.27,1.03.53,1.45.51.83,1.41,1.28,2.03,1.5.34.12.6.39.7.74.19.64.59,1.56,1.39,2.11.61.41,1.35.58,2.06.53.33-.02.67.12.88.38.64.77,1.98,1.6,3.52,1.05.85-.31,1.3-1.25,2.1-1.68,1.35-.72,2.62.09,3.93.47,1.73.5,3.1.47,4.16-.49,1.12-1.02,2.03-2.92,3.01-3.59Z" fill="none" stroke="#000" stroke-linecap="round" stroke-linejoin="round"/><path d="M184.2,405.56c1.97-1.13,4.38-.51,5.37,1.39s.2,4.35-1.77,5.48-4.38.51-5.37-1.39c-.99-1.9-.2-4.35,1.77-5.48Z" fill="none" stroke="#000" stroke-linecap="round" stroke-linejoin="round"/><path d="M197.21,416.51c1.84,1.08,2.35,3.51,1.13,5.44-1.22,1.93-3.7,2.62-5.54,1.54-1.84-1.08-2.35-3.51-1.13-5.44s3.7-2.62,5.54-1.54Z" fill="none" stroke="#000" stroke-linecap="round" stroke-linejoin="round"/><path d="M184.08,417.39c.94-.9,4.01-2.37,4.91-1.41s-.68,3.97-1.63,4.88c-1.91,1.84-2.25-1.15-2.25-1.15,0,0-3.06-.37-1.03-2.32Z" fill="none" stroke="#000" stroke-linecap="round" stroke-linejoin="round"/><path d="M174.62,420.98c-.2-.31-.35-.63-.4-1,.22.14.44.28.68.37.6.22.92-.11,1.42-.41.43-.26.86-.53,1.3-.78.3-.17.68-.22.88.06.25.35.06.59-.31.85-.35.24-2.72,1.81-2.72,1.81-.11.07-.64-.61-.69-.68-.05-.07-.1-.15-.15-.22Z" fill="none" stroke="#000" stroke-linecap="round" stroke-linejoin="round"/><path d="M183.51,430.35c.29.21.61.38.97.45-.13-.22-.26-.45-.34-.7-.19-.62.15-.92.47-1.41.28-.42.56-.84.83-1.28.18-.29.25-.67-.02-.88-.34-.27-.58-.09-.86.28-.26.34-1.92,2.65-1.92,2.66-.07.1.58.67.64.72.07.06.14.11.22.16Z" fill="none" stroke="#000" stroke-linecap="round" stroke-linejoin="round"/><path d="M177,425.64s1.11-.13,1.57-.54c.82-.73,1.93-1.71,2.55-2.31.25-.24.58-.27.82-.01s.21.55-.04.79c-.01.01-1.39,1.45-2.4,2.41-.46.44-.64,1.63-.64,1.63-.11-.31-.28-.86-.67-1.23-.49-.47-1.2-.73-1.2-.73Z" fill="none" stroke="#000" stroke-linecap="round" stroke-linejoin="round"/><path d="M199.57,425.53c.84-.57,3.9-2.54,5.99-5.44,1.33-1.84,2.46-4.89,2.44-7.05-.04-4.18-2.12-8.04-4.79-10.87-2.68-2.82-6.28-4.93-10.42-5.16-2.15-.12-5.22.88-7.11,2.13-2.97,1.97-5.06,4.95-5.67,5.77-.83,1.11-2.34,1.72-3.4,2.58-1.16.94-1.5,2.25-1.22,3.73.24,1.24.83,2.38,1.23,3.57.48,1.42-2,2.09-2.48,3.25-.24.58-.15,1.26.04,1.87.24.78.65,1.54,1.34,1.97-.1-.07-.36.66-.25,1.18.1.48.27,1.03.53,1.45.51.83,1.41,1.28,2.03,1.5.34.12.6.39.7.74.19.64.59,1.56,1.39,2.11.61.41,1.35.58,2.06.53.33-.02.67.12.88.38.64.77,1.98,1.6,3.52,1.05.85-.31,1.3-1.25,2.1-1.68,1.35-.72,2.62.09,3.93.47,1.73.5,3.1.47,4.16-.49,1.12-1.02,2.03-2.92,3.01-3.59Z" fill="none" stroke="#000" stroke-linecap="round" stroke-linejoin="round"/><path d="M184.2,405.56c1.97-1.13,4.38-.51,5.37,1.39s.2,4.35-1.77,5.48-4.38.51-5.37-1.39c-.99-1.9-.2-4.35,1.77-5.48Z" fill="none" stroke="#000" stroke-linecap="round" stroke-linejoin="round"/><path d="M197.21,416.51c1.84,1.08,2.35,3.51,1.13,5.44-1.22,1.93-3.7,2.62-5.54,1.54-1.84-1.08-2.35-3.51-1.13-5.44s3.7-2.62,5.54-1.54Z" fill="none" stroke="#000" stroke-linecap="round" stroke-linejoin="round"/><path d="M184.08,417.39c.94-.9,4.01-2.37,4.91-1.41s-.68,3.97-1.63,4.88c-1.91,1.84-2.25-1.15-2.25-1.15,0,0-3.06-.37-1.03-2.32Z" fill="none" stroke="#000" stroke-linecap="round" stroke-linejoin="round"/><path d="M174.62,420.98c-.2-.31-.35-.63-.4-1,.22.14.44.28.68.37.6.22.92-.11,1.42-.41.43-.26.86-.53,1.3-.78.3-.17.68-.22.88.06.25.35.06.59-.31.85-.35.24-2.72,1.81-2.72,1.81-.11.07-.64-.61-.69-.68-.05-.07-.1-.15-.15-.22Z" fill="none" stroke="#000" stroke-linecap="round" stroke-linejoin="round"/><path d="M183.51,430.35c.29.21.61.38.97.45-.13-.22-.26-.45-.34-.7-.19-.62.15-.92.47-1.41.28-.42.56-.84.83-1.28.18-.29.25-.67-.02-.88-.34-.27-.58-.09-.86.28-.26.34-1.92,2.65-1.92,2.66-.07.1.58.67.64.72.07.06.14.11.22.16Z" fill="none" stroke="#000" stroke-linecap="round" stroke-linejoin="round"/><path d="M177,425.64s1.11-.13,1.57-.54c.82-.73,1.93-1.71,2.55-2.31.25-.24.58-.27.82-.01s.21.55-.04.79c-.01.01-1.39,1.45-2.4,2.41-.46.44-.64,1.63-.64,1.63-.11-.31-.28-.86-.67-1.23-.49-.47-1.2-.73-1.2-.73Z" fill="none" stroke="#000" stroke-linecap="round" stroke-linejoin="round"/></g><text transform="translate(117.07 84.74)" fill="#333" font-family="ComicNeue-Regular, &apos;Comic Neue&apos;" font-size="24"><tspan x="0" y="0">With the use of chemical </tspan><tspan x="0" y="28.8">weapons...</tspan></text><g id="uuid-b2d8fdcc-54ad-44fa-a574-0ca2db08b8f7"><path d="M277.5,415.08c.17-1.02.86-4.67.23-8.24-.4-2.28-1.79-5.25-3.34-6.75-2.99-2.9-7.16-4.08-10.99-4.08-3.83,0-7.79,1.18-10.78,4.08-1.55,1.5-2.94,4.48-3.34,6.75-.63,3.58.06,7.22.23,8.24.23,1.4-.37,2.94-.49,4.33-.13,1.51.57,2.69,1.82,3.52,1.04.69,2.25,1.06,3.38,1.6,1.34.64.12,2.95.62,4.11.25.59.79.99,1.36,1.28.71.37,1.54.59,2.31.39-.12.03.22.73.67,1.01.41.26.92.52,1.39.63.94.21,1.87-.14,2.45-.45.32-.17.69-.17,1,0,.58.31,1.51.66,2.45.45.71-.16,1.34-.59,1.79-1.15.21-.26.54-.41.87-.38.98.07,2.49-.35,3.14-1.87.37-.85,0-1.84.24-2.73.41-1.5,1.85-1.87,3.01-2.57,1.54-.92,2.45-1.96,2.49-3.42.04-1.55-.69-3.55-.5-4.75Z" fill="#ccc"/><ellipse cx="256.5" cy="414" rx="4.01" ry="3.48" transform="translate(-195.12 596.28) rotate(-80.2)" fill="#424242"/><ellipse cx="270.5" cy="414" rx="3.48" ry="4.01" transform="translate(-66.53 52.09) rotate(-9.8)" fill="#424242"/><path d="M261.15,420.81c0-1.33,1.05-4.62,2.35-4.62s2.35,3.29,2.35,4.62c0,2.7-2.35.86-2.35.86,0,0-2.35,2-2.35-.86Z" fill="#424242"/><path d="M257.24,430.33c-.35-.07-.69-.18-.98-.41.25-.06.5-.13.73-.24.57-.29.55-.76.68-1.34.11-.5.21-1.01.34-1.51.08-.34.3-.66.64-.61.42.06.46.37.39.83-.07.43-.58,3.28-.58,3.28-.02.13-.87.04-.95.03-.09-.01-.18-.03-.26-.05Z" fill="#8abfd1"/><path d="M269.96,430.33c.35-.07.69-.18.98-.41-.25-.06-.5-.13-.73-.24-.57-.29-.55-.76-.68-1.34-.11-.5-.21-1.01-.34-1.51-.08-.34-.3-.66-.64-.61-.42.06-.46.37-.39.83.07.43.58,3.28.58,3.28.02.13.87.04.95.03.09-.01.18-.03.26-.05Z" fill="#8abfd1"/><path d="M262.17,431.84s.67-.92.69-1.55c.04-1.12.11-2.63.11-3.51,0-.35.21-.62.55-.62s.53.23.53.58c0,.02.08,2.05.08,3.47,0,.65.71,1.62.71,1.62-.29-.14-.81-.4-1.33-.37-.67.03-1.33.38-1.33.38Z" fill="#8abfd1"/><path d="M277.5,415.08c.17-1.02.86-4.67.23-8.24-.4-2.28-1.79-5.25-3.34-6.75-2.99-2.9-7.16-4.08-10.99-4.08-3.83,0-7.79,1.18-10.78,4.08-1.55,1.5-2.94,4.48-3.34,6.75-.63,3.58.06,7.22.23,8.24.23,1.4-.37,2.94-.49,4.33-.13,1.51.57,2.69,1.82,3.52,1.04.69,2.25,1.06,3.38,1.6,1.34.64.12,2.95.62,4.11.25.59.79.99,1.36,1.28.71.37,1.54.59,2.31.39-.12.03.22.73.67,1.01.41.26.92.52,1.39.63.94.21,1.87-.14,2.45-.45.32-.17.69-.17,1,0,.58.31,1.51.66,2.45.45.71-.16,1.34-.59,1.79-1.15.21-.26.54-.41.87-.38.98.07,2.49-.35,3.14-1.87.37-.85,0-1.84.24-2.73.41-1.5,1.85-1.87,3.01-2.57,1.54-.92,2.45-1.96,2.49-3.42.04-1.55-.69-3.55-.5-4.75Z" fill="none" stroke="#000" stroke-linecap="round" stroke-linejoin="round"/><ellipse cx="256.5" cy="414" rx="4.01" ry="3.48" transform="translate(-195.12 596.28) rotate(-80.2)" fill="none" stroke="#000" stroke-linecap="round" stroke-linejoin="round"/><ellipse cx="270.5" cy="414" rx="3.48" ry="4.01" transform="translate(-66.53 52.09) rotate(-9.8)" fill="none" stroke="#000" stroke-linecap="round" stroke-linejoin="round"/><path d="M261.15,420.81c0-1.33,1.05-4.62,2.35-4.62s2.35,3.29,2.35,4.62c0,2.7-2.35.86-2.35.86,0,0-2.35,2-2.35-.86Z" fill="none" stroke="#000" stroke-linecap="round" stroke-linejoin="round"/><path d="M257.24,430.33c-.35-.07-.69-.18-.98-.41.25-.06.5-.13.73-.24.57-.29.55-.76.68-1.34.11-.5.21-1.01.34-1.51.08-.34.3-.66.64-.61.42.06.46.37.39.83-.07.43-.58,3.28-.58,3.28-.02.13-.87.04-.95.03-.09-.01-.18-.03-.26-.05Z" fill="none" stroke="#000" stroke-linecap="round" stroke-linejoin="round"/><path d="M269.96,430.33c.35-.07.69-.18.98-.41-.25-.06-.5-.13-.73-.24-.57-.29-.55-.76-.68-1.34-.11-.5-.21-1.01-.34-1.51-.08-.34-.3-.66-.64-.61-.42.06-.46.37-.39.83.07.43.58,3.28.58,3.28.02.13.87.04.95.03.09-.01.18-.03.26-.05Z" fill="none" stroke="#000" stroke-linecap="round" stroke-linejoin="round"/><path d="M262.17,431.84s.67-.92.69-1.55c.04-1.12.11-2.63.11-3.51,0-.35.21-.62.55-.62s.53.23.53.58c0,.02.08,2.05.08,3.47,0,.65.71,1.62.71,1.62-.29-.14-.81-.4-1.33-.37-.67.03-1.33.38-1.33.38Z" fill="none" stroke="#000" stroke-linecap="round" stroke-linejoin="round"/><path d="M277.5,415.08c.17-1.02.86-4.67.23-8.24-.4-2.28-1.79-5.25-3.34-6.75-2.99-2.9-7.16-4.08-10.99-4.08-3.83,0-7.79,1.18-10.78,4.08-1.55,1.5-2.94,4.48-3.34,6.75-.63,3.58.06,7.22.23,8.24.23,1.4-.37,2.94-.49,4.33-.13,1.51.57,2.69,1.82,3.52,1.04.69,2.25,1.06,3.38,1.6,1.34.64.12,2.95.62,4.11.25.59.79.99,1.36,1.28.71.37,1.54.59,2.31.39-.12.03.22.73.67,1.01.41.26.92.52,1.39.63.94.21,1.87-.14,2.45-.45.32-.17.69-.17,1,0,.58.31,1.51.66,2.45.45.71-.16,1.34-.59,1.79-1.15.21-.26.54-.41.87-.38.98.07,2.49-.35,3.14-1.87.37-.85,0-1.84.24-2.73.41-1.5,1.85-1.87,3.01-2.57,1.54-.92,2.45-1.96,2.49-3.42.04-1.55-.69-3.55-.5-4.75Z" fill="none" stroke="#000" stroke-linecap="round" stroke-linejoin="round"/><ellipse cx="256.5" cy="414" rx="4.01" ry="3.48" transform="translate(-195.12 596.28) rotate(-80.2)" fill="none" stroke="#000" stroke-linecap="round" stroke-linejoin="round"/><ellipse cx="270.5" cy="414" rx="3.48" ry="4.01" transform="translate(-66.53 52.09) rotate(-9.8)" fill="none" stroke="#000" stroke-linecap="round" stroke-linejoin="round"/><path d="M261.15,420.81c0-1.33,1.05-4.62,2.35-4.62s2.35,3.29,2.35,4.62c0,2.7-2.35.86-2.35.86,0,0-2.35,2-2.35-.86Z" fill="none" stroke="#000" stroke-linecap="round" stroke-linejoin="round"/><path d="M257.24,430.33c-.35-.07-.69-.18-.98-.41.25-.06.5-.13.73-.24.57-.29.55-.76.68-1.34.11-.5.21-1.01.34-1.51.08-.34.3-.66.64-.61.42.06.46.37.39.83-.07.43-.58,3.28-.58,3.28-.02.13-.87.04-.95.03-.09-.01-.18-.03-.26-.05Z" fill="none" stroke="#000" stroke-linecap="round" stroke-linejoin="round"/><path d="M269.96,430.33c.35-.07.69-.18.98-.41-.25-.06-.5-.13-.73-.24-.57-.29-.55-.76-.68-1.34-.11-.5-.21-1.01-.34-1.51-.08-.34-.3-.66-.64-.61-.42.06-.46.37-.39.83.07.43.58,3.28.58,3.28.02.13.87.04.95.03.09-.01.18-.03.26-.05Z" fill="none" stroke="#000" stroke-linecap="round" stroke-linejoin="round"/><path d="M262.17,431.84s.67-.92.69-1.55c.04-1.12.11-2.63.11-3.51,0-.35.21-.62.55-.62s.53.23.53.58c0,.02.08,2.05.08,3.47,0,.65.71,1.62.71,1.62-.29-.14-.81-.4-1.33-.37-.67.03-1.33.38-1.33.38Z" fill="none" stroke="#000" stroke-linecap="round" stroke-linejoin="round"/></g><path d="M228.03,355.68c1.99-7.41-2.97-15.86-11.73-19.47s-18.23-1.1-22.04,5.56c-3.1-.79-5.08-.98-5.31-.4-.56,1.36,8.65,6.43,20.56,11.34,11.91,4.91,22.03,7.79,22.58,6.43.24-.58-1.3-1.83-4.06-3.46Z" fill="none" stroke="#000" stroke-linecap="round" stroke-linejoin="round"/><g id="uuid-41d07c58-da7f-4d4d-8fb7-5bd6250ed97e"><path d="M252.42,421.92c.55-.86,2.59-3.89,3.34-7.36.48-2.21.26-5.42-.66-7.37-1.78-3.76-5.34-6.41-9.02-7.86-3.68-1.46-7.93-1.9-11.91-.41-2.06.77-4.52,2.93-5.76,4.83-1.96,2.99-2.67,6.54-2.9,7.53-.31,1.35-1.47,2.51-2.11,3.72-.69,1.32-.47,2.64.42,3.87.74,1.02,1.77,1.81,2.64,2.73,1.05,1.09-1,2.71-.96,3.95.02.63.39,1.2.82,1.67.55.6,1.25,1.12,2.08,1.23-.12-.02-.06.74.26,1.17.3.39.68.82,1.1,1.09.82.55,1.85.58,2.52.52.37-.03.72.11.96.38.44.5,1.2,1.17,2.18,1.34.74.12,1.51-.02,2.15-.36.3-.16.67-.16.98-.02.92.43,2.52.63,3.73-.49.67-.63.69-1.67,1.26-2.37.96-1.2,2.49-.99,3.87-1.18,1.83-.25,3.09-.84,3.68-2.14.62-1.38.68-3.47,1.32-4.48Z" fill="#ccc"/><ellipse cx="233" cy="413" rx="4.17" ry="3.83" transform="translate(-223.74 285.55) rotate(-44.98)" fill="#424242"/><path d="M246.53,414.03c2.19.26,3.73,2.24,3.43,4.44s-2.31,3.76-4.49,3.51c-2.19-.26-3.73-2.24-3.43-4.44s2.31-3.76,4.49-3.51Z" fill="#424242"/><path d="M234.53,420.89c.5-1.2,2.76-3.78,4.01-3.28s1.02,3.87.51,5.07c-1.02,2.44-2.59-.12-2.59-.12,0,0-3.02.91-1.94-1.67Z" fill="#424242"/><path d="M227.18,428c-.31-.2-.59-.42-.79-.74.26.04.53.08.79.06.66-.05.82-.48,1.16-.95.29-.41.59-.83.9-1.23.21-.27.54-.48.84-.31.38.21.31.51.06.9-.23.36-1.79,2.74-1.8,2.75-.07.11-.85-.29-.93-.33-.08-.04-.16-.09-.24-.14Z" fill="#8abfd1"/><path d="M239.4,432.84c.36.07.73.1,1.1,0-.22-.15-.43-.3-.61-.49-.44-.48-.25-.9-.15-1.46.09-.5.18-.99.24-1.49.05-.34-.04-.71-.38-.79-.43-.11-.58.15-.69.6-.1.42-.68,3.18-.69,3.18-.03.13.82.37.9.39.09.02.18.04.27.06Z" fill="#8abfd1"/><path d="M231.35,431.24s.99-.58,1.25-1.13c.47-.99,1.1-2.34,1.43-3.13.13-.31.43-.48.76-.35s.42.41.29.73c0,.01-.7,1.88-1.23,3.16-.25.59.08,1.73.08,1.73-.23-.23-.62-.66-1.14-.84-.65-.22-1.42-.17-1.42-.17Z" fill="#8abfd1"/><path d="M252.42,421.92c.55-.86,2.59-3.89,3.34-7.36.48-2.21.26-5.42-.66-7.37-1.78-3.76-5.34-6.41-9.02-7.86-3.68-1.46-7.93-1.9-11.91-.41-2.06.77-4.52,2.93-5.76,4.83-1.96,2.99-2.67,6.54-2.9,7.53-.31,1.35-1.47,2.51-2.11,3.72-.69,1.32-.47,2.64.42,3.87.74,1.02,1.77,1.81,2.64,2.73,1.05,1.09-1,2.71-.96,3.95.02.63.39,1.2.82,1.67.55.6,1.25,1.12,2.08,1.23-.12-.02-.06.74.26,1.17.3.39.68.82,1.1,1.09.82.55,1.85.58,2.52.52.37-.03.72.11.96.38.44.5,1.2,1.17,2.18,1.34.74.12,1.51-.02,2.15-.36.3-.16.67-.16.98-.02.92.43,2.52.63,3.73-.49.67-.63.69-1.67,1.26-2.37.96-1.2,2.49-.99,3.87-1.18,1.83-.25,3.09-.84,3.68-2.14.62-1.38.68-3.47,1.32-4.48Z" fill="none" stroke="#000" stroke-linecap="round" stroke-linejoin="round"/><ellipse cx="233" cy="413" rx="4.17" ry="3.83" transform="translate(-223.74 285.55) rotate(-44.98)" fill="none" stroke="#000" stroke-linecap="round" stroke-linejoin="round"/><path d="M246.53,414.03c2.19.26,3.73,2.24,3.43,4.44s-2.31,3.76-4.49,3.51c-2.19-.26-3.73-2.24-3.43-4.44s2.31-3.76,4.49-3.51Z" fill="none" stroke="#000" stroke-linecap="round" stroke-linejoin="round"/><path d="M234.53,420.89c.5-1.2,2.76-3.78,4.01-3.28s1.02,3.87.51,5.07c-1.02,2.44-2.59-.12-2.59-.12,0,0-3.02.91-1.94-1.67Z" fill="none" stroke="#000" stroke-linecap="round" stroke-linejoin="round"/><path d="M227.18,428c-.31-.2-.59-.42-.79-.74.26.04.53.08.79.06.66-.05.82-.48,1.16-.95.29-.41.59-.83.9-1.23.21-.27.54-.48.84-.31.38.21.31.51.06.9-.23.36-1.79,2.74-1.8,2.75-.07.11-.85-.29-.93-.33-.08-.04-.16-.09-.24-.14Z" fill="none" stroke="#000" stroke-linecap="round" stroke-linejoin="round"/><path d="M239.4,432.84c.36.07.73.1,1.1,0-.22-.15-.43-.3-.61-.49-.44-.48-.25-.9-.15-1.46.09-.5.18-.99.24-1.49.05-.34-.04-.71-.38-.79-.43-.11-.58.15-.69.6-.1.42-.68,3.18-.69,3.18-.03.13.82.37.9.39.09.02.18.04.27.06Z" fill="none" stroke="#000" stroke-linecap="round" stroke-linejoin="round"/><path d="M231.35,431.24s.99-.58,1.25-1.13c.47-.99,1.1-2.34,1.43-3.13.13-.31.43-.48.76-.35s.42.41.29.73c0,.01-.7,1.88-1.23,3.16-.25.59.08,1.73.08,1.73-.23-.23-.62-.66-1.14-.84-.65-.22-1.42-.17-1.42-.17Z" fill="none" stroke="#000" stroke-linecap="round" stroke-linejoin="round"/><path d="M252.42,421.92c.55-.86,2.59-3.89,3.34-7.36.48-2.21.26-5.42-.66-7.37-1.78-3.76-5.34-6.41-9.02-7.86-3.68-1.46-7.93-1.9-11.91-.41-2.06.77-4.52,2.93-5.76,4.83-1.96,2.99-2.67,6.54-2.9,7.53-.31,1.35-1.47,2.51-2.11,3.72-.69,1.32-.47,2.64.42,3.87.74,1.02,1.77,1.81,2.64,2.73,1.05,1.09-1,2.71-.96,3.95.02.63.39,1.2.82,1.67.55.6,1.25,1.12,2.08,1.23-.12-.02-.06.74.26,1.17.3.39.68.82,1.1,1.09.82.55,1.85.58,2.52.52.37-.03.72.11.96.38.44.5,1.2,1.17,2.18,1.34.74.12,1.51-.02,2.15-.36.3-.16.67-.16.98-.02.92.43,2.52.63,3.73-.49.67-.63.69-1.67,1.26-2.37.96-1.2,2.49-.99,3.87-1.18,1.83-.25,3.09-.84,3.68-2.14.62-1.38.68-3.47,1.32-4.48Z" fill="none" stroke="#000" stroke-linecap="round" stroke-linejoin="round"/><ellipse cx="233" cy="413" rx="4.17" ry="3.83" transform="translate(-223.74 285.55) rotate(-44.98)" fill="none" stroke="#000" stroke-linecap="round" stroke-linejoin="round"/><path d="M246.53,414.03c2.19.26,3.73,2.24,3.43,4.44s-2.31,3.76-4.49,3.51c-2.19-.26-3.73-2.24-3.43-4.44s2.31-3.76,4.49-3.51Z" fill="none" stroke="#000" stroke-linecap="round" stroke-linejoin="round"/><path d="M234.53,420.89c.5-1.2,2.76-3.78,4.01-3.28s1.02,3.87.51,5.07c-1.02,2.44-2.59-.12-2.59-.12,0,0-3.02.91-1.94-1.67Z" fill="none" stroke="#000" stroke-linecap="round" stroke-linejoin="round"/><path d="M227.18,428c-.31-.2-.59-.42-.79-.74.26.04.53.08.79.06.66-.05.82-.48,1.16-.95.29-.41.59-.83.9-1.23.21-.27.54-.48.84-.31.38.21.31.51.06.9-.23.36-1.79,2.74-1.8,2.75-.07.11-.85-.29-.93-.33-.08-.04-.16-.09-.24-.14Z" fill="none" stroke="#000" stroke-linecap="round" stroke-linejoin="round"/><path d="M239.4,432.84c.36.07.73.1,1.1,0-.22-.15-.43-.3-.61-.49-.44-.48-.25-.9-.15-1.46.09-.5.18-.99.24-1.49.05-.34-.04-.71-.38-.79-.43-.11-.58.15-.69.6-.1.42-.68,3.18-.69,3.18-.03.13.82.37.9.39.09.02.18.04.27.06Z" fill="none" stroke="#000" stroke-linecap="round" stroke-linejoin="round"/><path d="M231.35,431.24s.99-.58,1.25-1.13c.47-.99,1.1-2.34,1.43-3.13.13-.31.43-.48.76-.35s.42.41.29.73c0,.01-.7,1.88-1.23,3.16-.25.59.08,1.73.08,1.73-.23-.23-.62-.66-1.14-.84-.65-.22-1.42-.17-1.42-.17Z" fill="none" stroke="#000" stroke-linecap="round" stroke-linejoin="round"/></g><g id="uuid-4d02c9be-0e2a-4add-a605-4e6adbcc7a96"><path d="M216.81,389.77c-.17-.99-.67-4.56-2.47-7.62-1.14-1.95-3.49-4.2-5.52-5.04-3.92-1.64-8.43-1.3-12.23,0-3.8,1.31-7.34,3.73-9.36,7.41-1.05,1.9-1.45,5.1-1.11,7.32.54,3.49,2.42,6.59,2.92,7.47.68,1.2.59,2.82.93,4.13.37,1.43,1.44,2.26,2.95,2.6,1.26.28,2.58.2,3.87.31,1.54.13,1.08,2.66,1.96,3.55.44.45,1.11.64,1.76.71.83.09,1.72.02,2.42-.43-.11.07.46.59,1,.7.49.1,1.08.17,1.58.1,1-.13,1.8-.77,2.28-1.25.26-.26.63-.39.99-.34.68.08,1.71.09,2.57-.42.65-.39,1.13-.99,1.4-1.66.12-.31.4-.56.74-.65,1-.27,2.36-1.16,2.51-2.78.09-.9-.6-1.69-.65-2.58-.08-1.51,1.23-2.35,2.15-3.38,1.22-1.37,1.79-2.63,1.35-3.98-.47-1.43-1.85-3.01-2.04-4.18Z" fill="#ccc"/><path d="M192.01,396.32c-.15-2.2,1.51-4.13,3.71-4.3s4.12,1.47,4.27,3.67-1.51,4.13-3.71,4.3-4.12-1.47-4.27-3.67Z" fill="#424242"/><path d="M207.28,387.89c1.76-1.16,4.23-.62,5.52,1.2,1.29,1.82.91,4.23-.86,5.38-1.76,1.16-4.23.62-5.52-1.2s-.91-4.23.86-5.38Z" fill="#424242"/><path d="M202.46,400.59c-.43-1.22-.47-4.59.82-5.03s3.41,2.21,3.84,3.43c.88,2.47-2.05,1.59-2.05,1.59,0,0-1.68,2.63-2.62.01Z" fill="#424242"/><path d="M201.69,410.64c-.37.06-.74.07-1.11-.04.23-.14.45-.29.64-.47.47-.46.3-.88.24-1.45-.06-.5-.12-1-.16-1.5-.03-.34.08-.7.43-.78.44-.09.58.18.66.63.07.42.5,3.2.5,3.2.02.13-.85.33-.93.35-.09.02-.18.04-.28.05Z" fill="#8abfd1"/><path d="M214.31,406.31c.33-.18.62-.4.84-.71-.27.03-.54.05-.8.03-.66-.07-.8-.51-1.11-.99-.27-.42-.54-.85-.83-1.27-.19-.28-.51-.5-.83-.34-.4.2-.34.49-.12.89.21.37,1.64,2.81,1.64,2.81.07.11.88-.26.95-.3.08-.04.17-.08.25-.13Z" fill="#8abfd1"/><path d="M207.08,410.34s.36-1.07.18-1.65c-.32-1.04-.75-2.44-1.04-3.25-.11-.32,0-.63.34-.75s.6.03.72.35c0,.01.75,1.85,1.21,3.15.21.6,1.24,1.24,1.24,1.24-.33-.02-.93-.09-1.44.11-.65.26-1.2.8-1.2.8Z" fill="#8abfd1"/><path d="M216.81,389.77c-.17-.99-.67-4.56-2.47-7.62-1.14-1.95-3.49-4.2-5.52-5.04-3.92-1.64-8.43-1.3-12.23,0-3.8,1.31-7.34,3.73-9.36,7.41-1.05,1.9-1.45,5.1-1.11,7.32.54,3.49,2.42,6.59,2.92,7.47.68,1.2.59,2.82.93,4.13.37,1.43,1.44,2.26,2.95,2.6,1.26.28,2.58.2,3.87.31,1.54.13,1.08,2.66,1.96,3.55.44.45,1.11.64,1.76.71.83.09,1.72.02,2.42-.43-.11.07.46.59,1,.7.49.1,1.08.17,1.58.1,1-.13,1.8-.77,2.28-1.25.26-.26.63-.39.99-.34.68.08,1.71.09,2.57-.42.65-.39,1.13-.99,1.4-1.66.12-.31.4-.56.74-.65,1-.27,2.36-1.16,2.51-2.78.09-.9-.6-1.69-.65-2.58-.08-1.51,1.23-2.35,2.15-3.38,1.22-1.37,1.79-2.63,1.35-3.98-.47-1.43-1.85-3.01-2.04-4.18Z" fill="none" stroke="#000" stroke-linecap="round" stroke-linejoin="round"/><path d="M192.01,396.32c-.15-2.2,1.51-4.13,3.71-4.3s4.12,1.47,4.27,3.67-1.51,4.13-3.71,4.3-4.12-1.47-4.27-3.67Z" fill="none" stroke="#000" stroke-linecap="round" stroke-linejoin="round"/><path d="M207.28,387.89c1.76-1.16,4.23-.62,5.52,1.2,1.29,1.82.91,4.23-.86,5.38-1.76,1.16-4.23.62-5.52-1.2s-.91-4.23.86-5.38Z" fill="none" stroke="#000" stroke-linecap="round" stroke-linejoin="round"/><path d="M202.46,400.59c-.43-1.22-.47-4.59.82-5.03s3.41,2.21,3.84,3.43c.88,2.47-2.05,1.59-2.05,1.59,0,0-1.68,2.63-2.62.01Z" fill="none" stroke="#000" stroke-linecap="round" stroke-linejoin="round"/><path d="M201.69,410.64c-.37.06-.74.07-1.11-.04.23-.14.45-.29.64-.47.47-.46.3-.88.24-1.45-.06-.5-.12-1-.16-1.5-.03-.34.08-.7.43-.78.44-.09.58.18.66.63.07.42.5,3.2.5,3.2.02.13-.85.33-.93.35-.09.02-.18.04-.28.05Z" fill="none" stroke="#000" stroke-linecap="round" stroke-linejoin="round"/><path d="M214.31,406.31c.33-.18.62-.4.84-.71-.27.03-.54.05-.8.03-.66-.07-.8-.51-1.11-.99-.27-.42-.54-.85-.83-1.27-.19-.28-.51-.5-.83-.34-.4.2-.34.49-.12.89.21.37,1.64,2.81,1.64,2.81.07.11.88-.26.95-.3.08-.04.17-.08.25-.13Z" fill="none" stroke="#000" stroke-linecap="round" stroke-linejoin="round"/><path d="M207.08,410.34s.36-1.07.18-1.65c-.32-1.04-.75-2.44-1.04-3.25-.11-.32,0-.63.34-.75s.6.03.72.35c0,.01.75,1.85,1.21,3.15.21.6,1.24,1.24,1.24,1.24-.33-.02-.93-.09-1.44.11-.65.26-1.2.8-1.2.8Z" fill="none" stroke="#000" stroke-linecap="round" stroke-linejoin="round"/><path d="M216.81,389.77c-.17-.99-.67-4.56-2.47-7.62-1.14-1.95-3.49-4.2-5.52-5.04-3.92-1.64-8.43-1.3-12.23,0-3.8,1.31-7.34,3.73-9.36,7.41-1.05,1.9-1.45,5.1-1.11,7.32.54,3.49,2.42,6.59,2.92,7.47.68,1.2.59,2.82.93,4.13.37,1.43,1.44,2.26,2.95,2.6,1.26.28,2.58.2,3.87.31,1.54.13,1.08,2.66,1.96,3.55.44.45,1.11.64,1.76.71.83.09,1.72.02,2.42-.43-.11.07.46.59,1,.7.49.1,1.08.17,1.58.1,1-.13,1.8-.77,2.28-1.25.26-.26.63-.39.99-.34.68.08,1.71.09,2.57-.42.65-.39,1.13-.99,1.4-1.66.12-.31.4-.56.74-.65,1-.27,2.36-1.16,2.51-2.78.09-.9-.6-1.69-.65-2.58-.08-1.51,1.23-2.35,2.15-3.38,1.22-1.37,1.79-2.63,1.35-3.98-.47-1.43-1.85-3.01-2.04-4.18Z" fill="none" stroke="#000" stroke-linecap="round" stroke-linejoin="round"/><path d="M192.01,396.32c-.15-2.2,1.51-4.13,3.71-4.3s4.12,1.47,4.27,3.67-1.51,4.13-3.71,4.3-4.12-1.47-4.27-3.67Z" fill="none" stroke="#000" stroke-linecap="round" stroke-linejoin="round"/><path d="M207.28,387.89c1.76-1.16,4.23-.62,5.52,1.2,1.29,1.82.91,4.23-.86,5.38-1.76,1.16-4.23.62-5.52-1.2s-.91-4.23.86-5.38Z" fill="none" stroke="#000" stroke-linecap="round" stroke-linejoin="round"/><path d="M202.46,400.59c-.43-1.22-.47-4.59.82-5.03s3.41,2.21,3.84,3.43c.88,2.47-2.05,1.59-2.05,1.59,0,0-1.68,2.63-2.62.01Z" fill="none" stroke="#000" stroke-linecap="round" stroke-linejoin="round"/><path d="M201.69,410.64c-.37.06-.74.07-1.11-.04.23-.14.45-.29.64-.47.47-.46.3-.88.24-1.45-.06-.5-.12-1-.16-1.5-.03-.34.08-.7.43-.78.44-.09.58.18.66.63.07.42.5,3.2.5,3.2.02.13-.85.33-.93.35-.09.02-.18.04-.28.05Z" fill="none" stroke="#000" stroke-linecap="round" stroke-linejoin="round"/><path d="M214.31,406.31c.33-.18.62-.4.84-.71-.27.03-.54.05-.8.03-.66-.07-.8-.51-1.11-.99-.27-.42-.54-.85-.83-1.27-.19-.28-.51-.5-.83-.34-.4.2-.34.49-.12.89.21.37,1.64,2.81,1.64,2.81.07.11.88-.26.95-.3.08-.04.17-.08.25-.13Z" fill="none" stroke="#000" stroke-linecap="round" stroke-linejoin="round"/><path d="M207.08,410.34s.36-1.07.18-1.65c-.32-1.04-.75-2.44-1.04-3.25-.11-.32,0-.63.34-.75s.6.03.72.35c0,.01.75,1.85,1.21,3.15.21.6,1.24,1.24,1.24,1.24-.33-.02-.93-.09-1.44.11-.65.26-1.2.8-1.2.8Z" fill="none" stroke="#000" stroke-linecap="round" stroke-linejoin="round"/></g><g id="uuid-845e5ae8-34de-479e-9ae7-2aee305de2e2"><path d="M228.28,415.09c-.08-1-.27-4.59-1.76-7.8-.95-2.04-3.06-4.5-4.98-5.54-3.7-2.01-8.15-2.12-11.99-1.2-3.84.92-7.52,2.98-9.81,6.42-1.19,1.78-1.86,4.91-1.71,7.15.23,3.51,1.81,6.77,2.22,7.69.56,1.26.34,2.85.56,4.18.24,1.45,1.22,2.39,2.67,2.87,1.21.4,2.51.45,3.77.69,1.5.28.84,2.74,1.61,3.71.39.49,1.04.74,1.67.88.8.17,1.68.19,2.41-.19-.11.06.4.63.92.79.47.14,1.04.27,1.54.26.99-.03,1.83-.58,2.34-1.01.28-.23.65-.32,1-.24.65.15,1.67.26,2.56-.16.67-.32,1.2-.87,1.51-1.51.15-.3.44-.51.78-.57,1-.17,2.41-.92,2.7-2.51.16-.88-.45-1.73-.42-2.62.05-1.51,1.41-2.2,2.4-3.14,1.32-1.24,1.98-2.43,1.67-3.81-.33-1.46-1.55-3.17-1.65-4.34Z" fill="#ccc"/><ellipse cx="207" cy="419" rx="4.01" ry="3.99" transform="translate(-235.68 269.17) rotate(-45.01)" fill="#424242"/><path d="M218.93,412.43c1.89-.99,4.35-.2,5.49,1.77,1.15,1.97.54,4.38-1.34,5.37-1.89.99-4.35.2-5.49-1.77s-.54-4.38,1.34-5.37Z" fill="#424242"/><path d="M213.29,424.41c-.32-1.25-.06-4.6,1.24-4.91,1.3-.31,3.15,2.53,3.47,3.78.65,2.54-2.15,1.37-2.15,1.37,0,0-1.87,2.44-2.56-.24Z" fill="#424242"/><path d="M211.67,434.29c-.37.02-.73,0-1.08-.14.23-.12.47-.24.67-.4.5-.41.37-.85.36-1.42-.01-.5-.03-1-.02-1.5,0-.34.14-.69.49-.73.44-.04.55.23.59.69.04.42.21,3.22.22,3.22,0,.13-.86.25-.95.26-.09,0-.18.02-.27.02Z" fill="#8abfd1"/><path d="M224.41,431.24c.34-.15.64-.33.89-.62-.26,0-.53,0-.79-.05-.64-.14-.74-.58-1-1.09-.23-.45-.46-.9-.71-1.34-.17-.3-.46-.54-.79-.42-.41.16-.38.45-.19.87.17.39,1.37,2.94,1.37,2.95.05.12.88-.17.96-.2.09-.03.17-.07.25-.11Z" fill="#8abfd1"/><path d="M216.98,434.52s.44-1.02.32-1.62c-.23-1.06-.53-2.5-.74-3.32-.08-.33.06-.63.4-.71s.59.09.67.42c0,.01.57,1.91.92,3.24.16.61,1.11,1.35,1.11,1.35-.33-.06-.9-.18-1.43-.03-.66.19-1.24.67-1.24.67Z" fill="#8abfd1"/><path d="M228.28,415.09c-.08-1-.27-4.59-1.76-7.8-.95-2.04-3.06-4.5-4.98-5.54-3.7-2.01-8.15-2.12-11.99-1.2-3.84.92-7.52,2.98-9.81,6.42-1.19,1.78-1.86,4.91-1.71,7.15.23,3.51,1.81,6.77,2.22,7.69.56,1.26.34,2.85.56,4.18.24,1.45,1.22,2.39,2.67,2.87,1.21.4,2.51.45,3.77.69,1.5.28.84,2.74,1.61,3.71.39.49,1.04.74,1.67.88.8.17,1.68.19,2.41-.19-.11.06.4.63.92.79.47.14,1.04.27,1.54.26.99-.03,1.83-.58,2.34-1.01.28-.23.65-.32,1-.24.65.15,1.67.26,2.56-.16.67-.32,1.2-.87,1.51-1.51.15-.3.44-.51.78-.57,1-.17,2.41-.92,2.7-2.51.16-.88-.45-1.73-.42-2.62.05-1.51,1.41-2.2,2.4-3.14,1.32-1.24,1.98-2.43,1.67-3.81-.33-1.46-1.55-3.17-1.65-4.34Z" fill="none" stroke="#000" stroke-linecap="round" stroke-linejoin="round"/><ellipse cx="207" cy="419" rx="4.01" ry="3.99" transform="translate(-235.68 269.17) rotate(-45.01)" fill="none" stroke="#000" stroke-linecap="round" stroke-linejoin="round"/><path d="M218.93,412.43c1.89-.99,4.35-.2,5.49,1.77,1.15,1.97.54,4.38-1.34,5.37-1.89.99-4.35.2-5.49-1.77s-.54-4.38,1.34-5.37Z" fill="none" stroke="#000" stroke-linecap="round" stroke-linejoin="round"/><path d="M213.29,424.41c-.32-1.25-.06-4.6,1.24-4.91,1.3-.31,3.15,2.53,3.47,3.78.65,2.54-2.15,1.37-2.15,1.37,0,0-1.87,2.44-2.56-.24Z" fill="none" stroke="#000" stroke-linecap="round" stroke-linejoin="round"/><path d="M211.67,434.29c-.37.02-.73,0-1.08-.14.23-.12.47-.24.67-.4.5-.41.37-.85.36-1.42-.01-.5-.03-1-.02-1.5,0-.34.14-.69.49-.73.44-.04.55.23.59.69.04.42.21,3.22.22,3.22,0,.13-.86.25-.95.26-.09,0-.18.02-.27.02Z" fill="none" stroke="#000" stroke-linecap="round" stroke-linejoin="round"/><path d="M224.41,431.24c.34-.15.64-.33.89-.62-.26,0-.53,0-.79-.05-.64-.14-.74-.58-1-1.09-.23-.45-.46-.9-.71-1.34-.17-.3-.46-.54-.79-.42-.41.16-.38.45-.19.87.17.39,1.37,2.94,1.37,2.95.05.12.88-.17.96-.2.09-.03.17-.07.25-.11Z" fill="none" stroke="#000" stroke-linecap="round" stroke-linejoin="round"/><path d="M216.98,434.52s.44-1.02.32-1.62c-.23-1.06-.53-2.5-.74-3.32-.08-.33.06-.63.4-.71s.59.09.67.42c0,.01.57,1.91.92,3.24.16.61,1.11,1.35,1.11,1.35-.33-.06-.9-.18-1.43-.03-.66.19-1.24.67-1.24.67Z" fill="none" stroke="#000" stroke-linecap="round" stroke-linejoin="round"/><path d="M228.28,415.09c-.08-1-.27-4.59-1.76-7.8-.95-2.04-3.06-4.5-4.98-5.54-3.7-2.01-8.15-2.12-11.99-1.2-3.84.92-7.52,2.98-9.81,6.42-1.19,1.78-1.86,4.91-1.71,7.15.23,3.51,1.81,6.77,2.22,7.69.56,1.26.34,2.85.56,4.18.24,1.45,1.22,2.39,2.67,2.87,1.21.4,2.51.45,3.77.69,1.5.28.84,2.74,1.61,3.71.39.49,1.04.74,1.67.88.8.17,1.68.19,2.41-.19-.11.06.4.63.92.79.47.14,1.04.27,1.54.26.99-.03,1.83-.58,2.34-1.01.28-.23.65-.32,1-.24.65.15,1.67.26,2.56-.16.67-.32,1.2-.87,1.51-1.51.15-.3.44-.51.78-.57,1-.17,2.41-.92,2.7-2.51.16-.88-.45-1.73-.42-2.62.05-1.51,1.41-2.2,2.4-3.14,1.32-1.24,1.98-2.43,1.67-3.81-.33-1.46-1.55-3.17-1.65-4.34Z" fill="none" stroke="#000" stroke-linecap="round" stroke-linejoin="round"/><ellipse cx="207" cy="419" rx="4.01" ry="3.99" transform="translate(-235.68 269.17) rotate(-45.01)" fill="none" stroke="#000" stroke-linecap="round" stroke-linejoin="round"/><path d="M218.93,412.43c1.89-.99,4.35-.2,5.49,1.77,1.15,1.97.54,4.38-1.34,5.37-1.89.99-4.35.2-5.49-1.77s-.54-4.38,1.34-5.37Z" fill="none" stroke="#000" stroke-linecap="round" stroke-linejoin="round"/><path d="M213.29,424.41c-.32-1.25-.06-4.6,1.24-4.91,1.3-.31,3.15,2.53,3.47,3.78.65,2.54-2.15,1.37-2.15,1.37,0,0-1.87,2.44-2.56-.24Z" fill="none" stroke="#000" stroke-linecap="round" stroke-linejoin="round"/><path d="M211.67,434.29c-.37.02-.73,0-1.08-.14.23-.12.47-.24.67-.4.5-.41.37-.85.36-1.42-.01-.5-.03-1-.02-1.5,0-.34.14-.69.49-.73.44-.04.55.23.59.69.04.42.21,3.22.22,3.22,0,.13-.86.25-.95.26-.09,0-.18.02-.27.02Z" fill="none" stroke="#000" stroke-linecap="round" stroke-linejoin="round"/><path d="M224.41,431.24c.34-.15.64-.33.89-.62-.26,0-.53,0-.79-.05-.64-.14-.74-.58-1-1.09-.23-.45-.46-.9-.71-1.34-.17-.3-.46-.54-.79-.42-.41.16-.38.45-.19.87.17.39,1.37,2.94,1.37,2.95.05.12.88-.17.96-.2.09-.03.17-.07.25-.11Z" fill="none" stroke="#000" stroke-linecap="round" stroke-linejoin="round"/><path d="M216.98,434.52s.44-1.02.32-1.62c-.23-1.06-.53-2.5-.74-3.32-.08-.33.06-.63.4-.71s.59.09.67.42c0,.01.57,1.91.92,3.24.16.61,1.11,1.35,1.11,1.35-.33-.06-.9-.18-1.43-.03-.66.19-1.24.67-1.24.67Z" fill="none" stroke="#000" stroke-linecap="round" stroke-linejoin="round"/></g><g id="uuid-0d60a565-36fc-451f-ba11-34a064abbbda"><path d="M240.5,389.08c.17-1.02.86-4.67.23-8.24-.4-2.28-1.79-5.25-3.34-6.75-2.99-2.9-7.16-4.08-10.99-4.08-3.83,0-7.79,1.18-10.78,4.08-1.55,1.5-2.94,4.48-3.34,6.75-.63,3.58.06,7.22.23,8.24.23,1.4-.37,2.94-.49,4.33-.13,1.51.57,2.69,1.82,3.52,1.04.69,2.25,1.06,3.38,1.6,1.34.64.12,2.95.62,4.11.25.59.79.99,1.36,1.28.71.37,1.54.59,2.31.39-.12.03.22.73.67,1.01.41.26.92.52,1.39.63.94.21,1.87-.14,2.45-.45.32-.17.69-.17,1,0,.58.31,1.51.66,2.45.45.71-.16,1.34-.59,1.79-1.15.21-.26.54-.41.87-.38.98.07,2.49-.35,3.14-1.87.37-.85,0-1.84.24-2.73.41-1.5,1.85-1.87,3.01-2.57,1.54-.92,2.45-1.96,2.49-3.42.04-1.55-.69-3.55-.5-4.75Z" fill="#ccc"/><ellipse cx="219.5" cy="388" rx="4.01" ry="3.48" transform="translate(-200.2 538.25) rotate(-80.2)" fill="#424242"/><ellipse cx="233.5" cy="388" rx="3.48" ry="4.01" transform="translate(-62.64 45.41) rotate(-9.8)" fill="#424242"/><path d="M224.15,394.81c0-1.33,1.05-4.62,2.35-4.62s2.35,3.29,2.35,4.62c0,2.7-2.35.86-2.35.86,0,0-2.35,2-2.35-.86Z" fill="#424242"/><path d="M220.24,404.33c-.35-.07-.69-.18-.98-.41.25-.06.5-.13.73-.24.57-.29.55-.76.68-1.34.11-.5.21-1.01.34-1.51.08-.34.3-.66.64-.61.42.06.46.37.39.83-.07.43-.58,3.28-.58,3.28-.02.13-.87.04-.95.03-.09-.01-.18-.03-.26-.05Z" fill="#8abfd1"/><path d="M232.96,404.33c.35-.07.69-.18.98-.41-.25-.06-.5-.13-.73-.24-.57-.29-.55-.76-.68-1.34-.11-.5-.21-1.01-.34-1.51-.08-.34-.3-.66-.64-.61-.42.06-.46.37-.39.83.07.43.58,3.28.58,3.28.02.13.87.04.95.03.09-.01.18-.03.26-.05Z" fill="#8abfd1"/><path d="M225.17,405.84s.67-.92.69-1.55c.04-1.12.11-2.63.11-3.51,0-.35.21-.62.55-.62s.53.23.53.58c0,.02.08,2.05.08,3.47,0,.65.71,1.62.71,1.62-.29-.14-.81-.4-1.33-.37-.67.03-1.33.38-1.33.38Z" fill="#8abfd1"/><path d="M240.5,389.08c.17-1.02.86-4.67.23-8.24-.4-2.28-1.79-5.25-3.34-6.75-2.99-2.9-7.16-4.08-10.99-4.08-3.83,0-7.79,1.18-10.78,4.08-1.55,1.5-2.94,4.48-3.34,6.75-.63,3.58.06,7.22.23,8.24.23,1.4-.37,2.94-.49,4.33-.13,1.51.57,2.69,1.82,3.52,1.04.69,2.25,1.06,3.38,1.6,1.34.64.12,2.95.62,4.11.25.59.79.99,1.36,1.28.71.37,1.54.59,2.31.39-.12.03.22.73.67,1.01.41.26.92.52,1.39.63.94.21,1.87-.14,2.45-.45.32-.17.69-.17,1,0,.58.31,1.51.66,2.45.45.71-.16,1.34-.59,1.79-1.15.21-.26.54-.41.87-.38.98.07,2.49-.35,3.14-1.87.37-.85,0-1.84.24-2.73.41-1.5,1.85-1.87,3.01-2.57,1.54-.92,2.45-1.96,2.49-3.42.04-1.55-.69-3.55-.5-4.75Z" fill="none" stroke="#000" stroke-linecap="round" stroke-linejoin="round"/><ellipse cx="219.5" cy="388" rx="4.01" ry="3.48" transform="translate(-200.2 538.25) rotate(-80.2)" fill="none" stroke="#000" stroke-linecap="round" stroke-linejoin="round"/><ellipse cx="233.5" cy="388" rx="3.48" ry="4.01" transform="translate(-62.64 45.41) rotate(-9.8)" fill="none" stroke="#000" stroke-linecap="round" stroke-linejoin="round"/><path d="M224.15,394.81c0-1.33,1.05-4.62,2.35-4.62s2.35,3.29,2.35,4.62c0,2.7-2.35.86-2.35.86,0,0-2.35,2-2.35-.86Z" fill="none" stroke="#000" stroke-linecap="round" stroke-linejoin="round"/><path d="M220.24,404.33c-.35-.07-.69-.18-.98-.41.25-.06.5-.13.73-.24.57-.29.55-.76.68-1.34.11-.5.21-1.01.34-1.51.08-.34.3-.66.64-.61.42.06.46.37.39.83-.07.43-.58,3.28-.58,3.28-.02.13-.87.04-.95.03-.09-.01-.18-.03-.26-.05Z" fill="none" stroke="#000" stroke-linecap="round" stroke-linejoin="round"/><path d="M232.96,404.33c.35-.07.69-.18.98-.41-.25-.06-.5-.13-.73-.24-.57-.29-.55-.76-.68-1.34-.11-.5-.21-1.01-.34-1.51-.08-.34-.3-.66-.64-.61-.42.06-.46.37-.39.83.07.43.58,3.28.58,3.28.02.13.87.04.95.03.09-.01.18-.03.26-.05Z" fill="none" stroke="#000" stroke-linecap="round" stroke-linejoin="round"/><path d="M225.17,405.84s.67-.92.69-1.55c.04-1.12.11-2.63.11-3.51,0-.35.21-.62.55-.62s.53.23.53.58c0,.02.08,2.05.08,3.47,0,.65.71,1.62.71,1.62-.29-.14-.81-.4-1.33-.37-.67.03-1.33.38-1.33.38Z" fill="none" stroke="#000" stroke-linecap="round" stroke-linejoin="round"/><path d="M240.5,389.08c.17-1.02.86-4.67.23-8.24-.4-2.28-1.79-5.25-3.34-6.75-2.99-2.9-7.16-4.08-10.99-4.08-3.83,0-7.79,1.18-10.78,4.08-1.55,1.5-2.94,4.48-3.34,6.75-.63,3.58.06,7.22.23,8.24.23,1.4-.37,2.94-.49,4.33-.13,1.51.57,2.69,1.82,3.52,1.04.69,2.25,1.06,3.38,1.6,1.34.64.12,2.95.62,4.11.25.59.79.99,1.36,1.28.71.37,1.54.59,2.31.39-.12.03.22.73.67,1.01.41.26.92.52,1.39.63.94.21,1.87-.14,2.45-.45.32-.17.69-.17,1,0,.58.31,1.51.66,2.45.45.71-.16,1.34-.59,1.79-1.15.21-.26.54-.41.87-.38.98.07,2.49-.35,3.14-1.87.37-.85,0-1.84.24-2.73.41-1.5,1.85-1.87,3.01-2.57,1.54-.92,2.45-1.96,2.49-3.42.04-1.55-.69-3.55-.5-4.75Z" fill="none" stroke="#000" stroke-linecap="round" stroke-linejoin="round"/><ellipse cx="219.5" cy="388" rx="4.01" ry="3.48" transform="translate(-200.2 538.25) rotate(-80.2)" fill="none" stroke="#000" stroke-linecap="round" stroke-linejoin="round"/><ellipse cx="233.5" cy="388" rx="3.48" ry="4.01" transform="translate(-62.64 45.41) rotate(-9.8)" fill="none" stroke="#000" stroke-linecap="round" stroke-linejoin="round"/><path d="M224.15,394.81c0-1.33,1.05-4.62,2.35-4.62s2.35,3.29,2.35,4.62c0,2.7-2.35.86-2.35.86,0,0-2.35,2-2.35-.86Z" fill="none" stroke="#000" stroke-linecap="round" stroke-linejoin="round"/><path d="M220.24,404.33c-.35-.07-.69-.18-.98-.41.25-.06.5-.13.73-.24.57-.29.55-.76.68-1.34.11-.5.21-1.01.34-1.51.08-.34.3-.66.64-.61.42.06.46.37.39.83-.07.43-.58,3.28-.58,3.28-.02.13-.87.04-.95.03-.09-.01-.18-.03-.26-.05Z" fill="none" stroke="#000" stroke-linecap="round" stroke-linejoin="round"/><path d="M232.96,404.33c.35-.07.69-.18.98-.41-.25-.06-.5-.13-.73-.24-.57-.29-.55-.76-.68-1.34-.11-.5-.21-1.01-.34-1.51-.08-.34-.3-.66-.64-.61-.42.06-.46.37-.39.83.07.43.58,3.28.58,3.28.02.13.87.04.95.03.09-.01.18-.03.26-.05Z" fill="none" stroke="#000" stroke-linecap="round" stroke-linejoin="round"/><path d="M225.17,405.84s.67-.92.69-1.55c.04-1.12.11-2.63.11-3.51,0-.35.21-.62.55-.62s.53.23.53.58c0,.02.08,2.05.08,3.47,0,.65.71,1.62.71,1.62-.29-.14-.81-.4-1.33-.37-.67.03-1.33.38-1.33.38Z" fill="none" stroke="#000" stroke-linecap="round" stroke-linejoin="round"/></g><path d="M392.34,251.12c-3.69-2.06-4.76-6.95-3.26-10.9,2.27-5.92,3.69-12.23,4.03-18.75,1.97-37.68-31.03-68.58-73.51-68.15-14.98.13-28.92,4.25-40.72,11.11-9.83-19.23-30.9-32.44-55.32-32.18-25.32.3-46.69,15.02-55.53,35.53-6.39-2.06-13.17-3.18-20.17-3.13-34.42.3-59.31,20.51-56.82,58.23.43,6.39,5.49,18.45,5.49,18.45,0,0-10.34,2.53-18.84,16.86-6.91,11.63-7.64,30.38-1.63,42.74,9.4,19.35,35.49,28.45,54.89,19.14,2.75-1.33,5.88-3,8.71-1.85,1.42.6,7.34,22.31,60.64,33.39,30.73,6.39,66.77-16.14,68.79-16.18,2.32-.04,4.38,1.37,6.31,2.66,0,0,14.25,16.35,46.13,8.71,30.08-7.17,33-27.59,35.58-28.41,2.06-.64,37.33,10.43,52.23-23.34,6.52-15.11-4.59-37.03-16.99-43.94Z" fill="#ffeb6b"/><path d="M90.7,218.76c.26,5.36,1.5,19.74,8.07,23.77,4.42,2.7,8.37,3.99,11.84,4.42,6.74.82,10.81-7.51,6.27-12.53-4.98-5.45-10.34-14.81-12.4-30.47-2.96-22.1,14.42-33.21,14.42-33.21,0,0-29.87,12.1-28.19,48.02Z" fill="#fc3"/><path d="M409.16,295.15c4.29-9.7,2.83-23.39-4.98-32.14,0,0,4.76,12.4-1.24,24.72-6.09,12.49-19.01,24.16-32.49,20.94-8.41-2.02-.17-15.83-12.02-36.18.6,19.18.21,62.65-56.09,66.26-10.3.64-34.97-8.24-36.43-23.17-3.26-32.53,27.64-28.02,32.06-27.34,10.6,1.59,22.19-3,23.95-11.37,1.59-7.6-2.1-10.6-5.58-13.6-9.96-8.5-25.62-6.91-36.69.13-16.82,10.73-24.59,39.14-37.94,52.91-15.58,16.05-40.81,19.91-62.31,13.73-36.82-10.6-48.32-57.55-48.32-57.55-4.81,12.27-.56,28.41,2.4,35.62-36.69,7.6-55.01-11.5-60.68-17.08.6,3.43,1.59,6.82,3.13,10,9.4,19.35,35.49,28.45,54.89,19.14,2.75-1.33,5.88-3,8.71-1.85,1.42.6,7.34,22.31,60.64,33.39,30.73,6.39,66.77-16.14,68.79-16.18,2.32-.04,4.38,1.37,6.31,2.66,0,0,14.25,16.35,46.13,8.71,30.08-7.17,33-27.59,35.58-28.41,2.06-.69,37.33,10.39,52.18-23.34Z" fill="#fc3"/><path d="M252.1,138.56s5.71,8.15,6.87,12.4c4.51,16.61-3.99,27.64-6.44,32.14-1.29,2.4-2.45,5.19-1.54,7.72.99,2.75,3.99,4.21,6.82,4.63,7.64,1.24,15.58-2.96,19.83-9.4,4.16-6.44,11.76-32.27-25.53-47.5Z" fill="#fc3"/><path d="M389.08,240.22c2.27-5.92,3.69-12.23,4.03-18.75.77-14.5-3.69-27.94-11.84-39.05,4.08,7.42,5.11,16.65,3.39,25.06-2.36,11.46-9.7,21.46-18.2,29.48-10.34,9.74-3,14.25,2.96,14.25,14.38-.04,18.84-8.88,19.65-10.99Z" fill="#fc3"/><path d="M392.34,251.12c-3.69-2.06-4.76-6.95-3.26-10.9,2.27-5.92,3.69-12.23,4.03-18.75,1.97-37.68-31.03-68.58-73.51-68.15-14.98.13-28.92,4.25-40.72,11.11-9.83-19.23-30.9-32.44-55.32-32.18-25.32.3-46.69,15.02-55.53,35.53-6.39-2.06-13.17-3.18-20.17-3.13-34.42.3-59.31,20.51-56.82,58.23.43,6.39,5.49,18.45,5.49,18.45,0,0-10.34,2.53-18.84,16.86-6.91,11.63-7.64,30.38-1.63,42.74,9.4,19.35,35.49,28.45,54.89,19.14,2.75-1.33,5.88-3,8.71-1.85,1.42.6,7.34,22.31,60.64,33.39,30.73,6.39,66.77-16.14,68.79-16.18,2.32-.04,4.38,1.37,6.31,2.66,0,0,14.25,16.35,46.13,8.71,30.08-7.17,33-27.59,35.58-28.41,2.06-.64,37.33,10.43,52.23-23.34,6.52-15.11-4.59-37.03-16.99-43.94Z" fill="none" stroke="#000" stroke-linecap="round" stroke-linejoin="round"/><path d="M90.7,218.76c.26,5.36,1.5,19.74,8.07,23.77,4.42,2.7,8.37,3.99,11.84,4.42,6.74.82,10.81-7.51,6.27-12.53-4.98-5.45-10.34-14.81-12.4-30.47-2.96-22.1,14.42-33.21,14.42-33.21,0,0-29.87,12.1-28.19,48.02Z" fill="none" stroke="#000" stroke-linecap="round" stroke-linejoin="round"/><path d="M409.16,295.15c4.29-9.7,2.83-23.39-4.98-32.14,0,0,4.76,12.4-1.24,24.72-6.09,12.49-19.01,24.16-32.49,20.94-8.41-2.02-.17-15.83-12.02-36.18.6,19.18.21,62.65-56.09,66.26-10.3.64-34.97-8.24-36.43-23.17-3.26-32.53,27.64-28.02,32.06-27.34,10.6,1.59,22.19-3,23.95-11.37,1.59-7.6-2.1-10.6-5.58-13.6-9.96-8.5-25.62-6.91-36.69.13-16.82,10.73-24.59,39.14-37.94,52.91-15.58,16.05-40.81,19.91-62.31,13.73-36.82-10.6-48.32-57.55-48.32-57.55-4.81,12.27-.56,28.41,2.4,35.62-36.69,7.6-55.01-11.5-60.68-17.08.6,3.43,1.59,6.82,3.13,10,9.4,19.35,35.49,28.45,54.89,19.14,2.75-1.33,5.88-3,8.71-1.85,1.42.6,7.34,22.31,60.64,33.39,30.73,6.39,66.77-16.14,68.79-16.18,2.32-.04,4.38,1.37,6.31,2.66,0,0,14.25,16.35,46.13,8.71,30.08-7.17,33-27.59,35.58-28.41,2.06-.69,37.33,10.39,52.18-23.34Z" fill="none" stroke="#000" stroke-linecap="round" stroke-linejoin="round"/><path d="M252.1,138.56s5.71,8.15,6.87,12.4c4.51,16.61-3.99,27.64-6.44,32.14-1.29,2.4-2.45,5.19-1.54,7.72.99,2.75,3.99,4.21,6.82,4.63,7.64,1.24,15.58-2.96,19.83-9.4,4.16-6.44,11.76-32.27-25.53-47.5Z" fill="none" stroke="#000" stroke-linecap="round" stroke-linejoin="round"/><path d="M389.08,240.22c2.27-5.92,3.69-12.23,4.03-18.75.77-14.5-3.69-27.94-11.84-39.05,4.08,7.42,5.11,16.65,3.39,25.06-2.36,11.46-9.7,21.46-18.2,29.48-10.34,9.74-3,14.25,2.96,14.25,14.38-.04,18.84-8.88,19.65-10.99Z" fill="none" stroke="#000" stroke-linecap="round" stroke-linejoin="round"/></svg>